<?xml version="1.0" encoding="UTF-8"?>
<svg xmlns="http://www.w3.org/2000/svg" xmlns:xlink="http://www.w3.org/1999/xlink" width="90px" height="130px" viewBox="0 0 90 130" version="1.1">
<g id="surface1">
<path style=" stroke:none;fill-rule:nonzero;fill:rgb(0%,0%,0%);fill-opacity:0.498039;" d="M 13.5 3.421875 L 79.714844 3.421875 C 85.414062 3.421875 90 8.304688 90 14.367188 L 90 119.050781 C 90 125.117188 85.414062 130 79.714844 130 L 13.5 130 C 7.800781 130 3.214844 125.117188 3.214844 119.050781 L 3.214844 14.367188 C 3.214844 8.304688 7.800781 3.421875 13.5 3.421875 Z M 13.5 3.421875 "/>
<path style=" stroke:none;fill-rule:nonzero;fill:rgb(90.588236%,90.588236%,90.588236%);fill-opacity:1;" d="M 10.929688 0.683594 L 77.144531 0.683594 C 82.839844 0.683594 87.429688 5.566406 87.429688 11.632812 L 87.429688 116.316406 C 87.429688 122.378906 82.839844 127.261719 77.144531 127.261719 L 10.929688 127.261719 C 5.230469 127.261719 0.644531 122.378906 0.644531 116.316406 L 0.644531 11.632812 C 0.644531 5.566406 5.230469 0.683594 10.929688 0.683594 Z M 10.929688 0.683594 "/>
<path style=" stroke:none;fill-rule:nonzero;fill:rgb(78.039217%,53.725493%,12.156863%);fill-opacity:1;" d="M 12.214844 2.050781 L 78.429688 2.050781 C 84.125 2.050781 88.714844 6.933594 88.714844 13 L 88.714844 117.683594 C 88.714844 123.75 84.125 128.632812 78.429688 128.632812 L 12.214844 128.632812 C 6.515625 128.632812 1.929688 123.75 1.929688 117.683594 L 1.929688 13 C 1.929688 6.933594 6.515625 2.050781 12.214844 2.050781 Z M 12.214844 2.050781 "/>
<path style=" stroke:none;fill-rule:nonzero;fill:rgb(100%,100%,100%);fill-opacity:1;" d="M 11.570312 1.367188 L 77.785156 1.367188 C 83.484375 1.367188 88.070312 6.25 88.070312 12.316406 L 88.070312 117 C 88.070312 123.066406 83.484375 127.949219 77.785156 127.949219 L 11.570312 127.949219 C 5.875 127.949219 1.285156 123.066406 1.285156 117 L 1.285156 12.316406 C 1.285156 6.25 5.875 1.367188 11.570312 1.367188 Z M 11.570312 1.367188 "/>
<path style=" stroke:none;fill-rule:nonzero;fill:rgb(100%,0%,0%);fill-opacity:1;" d="M 12.085938 24.84375 L 19.101562 24.84375 L 19.101562 28.734375 L 7.515625 28.734375 L 7.515625 24.84375 L 13.335938 18.230469 C 13.855469 17.625 14.238281 17.035156 14.488281 16.457031 C 14.738281 15.878906 14.863281 15.28125 14.863281 14.65625 C 14.863281 13.695312 14.609375 12.921875 14.105469 12.332031 C 13.605469 11.746094 12.941406 11.453125 12.105469 11.453125 C 11.464844 11.453125 10.765625 11.632812 10.003906 11.988281 C 9.242188 12.339844 8.425781 12.859375 7.558594 13.558594 L 7.558594 9.046875 C 8.484375 8.652344 9.398438 8.355469 10.300781 8.152344 C 11.207031 7.945312 12.09375 7.839844 12.960938 7.839844 C 14.871094 7.839844 16.351562 8.378906 17.40625 9.460938 C 18.464844 10.542969 18.996094 12.050781 18.996094 13.984375 C 18.996094 15.101562 18.773438 16.148438 18.324219 17.117188 C 17.875 18.082031 16.929688 19.371094 15.492188 20.996094 L 12.085938 24.84375 "/>
<path style=" stroke:none;fill-rule:nonzero;fill:rgb(100%,0%,0%);fill-opacity:1;" d="M 77.21875 104.304688 L 70.203125 104.304688 L 70.203125 100.414062 L 81.789062 100.414062 L 81.789062 104.304688 L 75.96875 110.917969 C 75.449219 111.523438 75.066406 112.113281 74.816406 112.691406 C 74.566406 113.269531 74.441406 113.867188 74.441406 114.492188 C 74.441406 115.453125 74.695312 116.226562 75.203125 116.816406 C 75.699219 117.402344 76.367188 117.695312 77.199219 117.695312 C 77.839844 117.695312 78.539062 117.515625 79.300781 117.160156 C 80.0625 116.808594 80.878906 116.289062 81.75 115.589844 L 81.75 120.101562 C 80.824219 120.496094 79.90625 120.792969 79.003906 120.996094 C 78.097656 121.207031 77.210938 121.308594 76.34375 121.308594 C 74.4375 121.308594 72.953125 120.769531 71.902344 119.6875 C 70.839844 118.605469 70.308594 117.097656 70.308594 115.164062 C 70.308594 114.046875 70.535156 113.003906 70.984375 112.03125 C 71.429688 111.066406 72.375 109.777344 73.8125 108.152344 L 77.21875 104.304688 "/>
<path style=" stroke:none;fill-rule:evenodd;fill:rgb(100%,0%,0%);fill-opacity:1;" d="M 13.121094 33.296875 C 10.46875 38.9375 8.535156 41.847656 4.546875 44.957031 C 8.320312 48.027344 10.980469 51.199219 13.199219 56.328125 C 15.175781 51.457031 17.597656 47.824219 21.804688 44.804688 C 17.574219 42.511719 15.125 38.882812 13.121094 33.296875 Z M 13.121094 33.296875 "/>
<path style=" stroke:none;fill-rule:evenodd;fill:rgb(100%,0%,0%);fill-opacity:1;" d="M 44.210938 34.359375 C 42.664062 37.675781 41.539062 39.386719 39.214844 41.210938 C 41.414062 43.015625 42.964844 44.878906 44.253906 47.894531 C 45.40625 45.03125 46.816406 42.898438 49.269531 41.121094 C 46.804688 39.777344 45.375 37.644531 44.210938 34.359375 Z M 44.210938 34.359375 "/>
<path style=" stroke:none;fill-rule:evenodd;fill:rgb(100%,0%,0%);fill-opacity:1;" d="M 43.796875 80.050781 C 42.253906 83.367188 41.125 85.078125 38.804688 86.902344 C 41 88.707031 42.550781 90.574219 43.84375 93.585938 C 44.996094 90.722656 46.40625 88.589844 48.855469 86.8125 C 46.390625 85.46875 44.964844 83.335938 43.796875 80.050781 Z M 43.796875 80.050781 "/>
<path style=" stroke:none;fill-rule:evenodd;fill:rgb(100%,0%,0%);fill-opacity:1;" d="M 76.074219 72.757812 C 73.421875 78.402344 71.488281 81.308594 67.5 84.417969 C 71.273438 87.488281 73.9375 90.660156 76.152344 95.789062 C 78.132812 90.917969 80.554688 87.285156 84.761719 84.265625 C 80.53125 81.972656 78.078125 78.34375 76.074219 72.757812 Z M 76.074219 72.757812 "/>
</g>
</svg>
