<?xml version="1.0" encoding="UTF-8"?>
<svg xmlns="http://www.w3.org/2000/svg" xmlns:xlink="http://www.w3.org/1999/xlink" width="90px" height="130px" viewBox="0 0 90 130" version="1.1">
<g id="surface1">
<path style=" stroke:none;fill-rule:nonzero;fill:rgb(0%,0%,0%);fill-opacity:0.498039;" d="M 13.5 3.421875 L 79.714844 3.421875 C 85.414062 3.421875 90 8.304688 90 14.367188 L 90 119.050781 C 90 125.117188 85.414062 130 79.714844 130 L 13.5 130 C 7.800781 130 3.214844 125.117188 3.214844 119.050781 L 3.214844 14.367188 C 3.214844 8.304688 7.800781 3.421875 13.5 3.421875 Z M 13.5 3.421875 "/>
<path style=" stroke:none;fill-rule:nonzero;fill:rgb(90.588236%,90.588236%,90.588236%);fill-opacity:1;" d="M 10.929688 0.683594 L 77.144531 0.683594 C 82.839844 0.683594 87.429688 5.566406 87.429688 11.632812 L 87.429688 116.316406 C 87.429688 122.378906 82.839844 127.261719 77.144531 127.261719 L 10.929688 127.261719 C 5.230469 127.261719 0.644531 122.378906 0.644531 116.316406 L 0.644531 11.632812 C 0.644531 5.566406 5.230469 0.683594 10.929688 0.683594 Z M 10.929688 0.683594 "/>
<path style=" stroke:none;fill-rule:nonzero;fill:rgb(78.039217%,53.725493%,12.156863%);fill-opacity:1;" d="M 12.214844 2.050781 L 78.429688 2.050781 C 84.125 2.050781 88.714844 6.933594 88.714844 13 L 88.714844 117.683594 C 88.714844 123.75 84.125 128.632812 78.429688 128.632812 L 12.214844 128.632812 C 6.515625 128.632812 1.929688 123.75 1.929688 117.683594 L 1.929688 13 C 1.929688 6.933594 6.515625 2.050781 12.214844 2.050781 Z M 12.214844 2.050781 "/>
<path style=" stroke:none;fill-rule:nonzero;fill:rgb(100%,100%,100%);fill-opacity:1;" d="M 11.570312 1.367188 L 77.785156 1.367188 C 83.484375 1.367188 88.070312 6.25 88.070312 12.316406 L 88.070312 117 C 88.070312 123.066406 83.484375 127.949219 77.785156 127.949219 L 11.570312 127.949219 C 5.875 127.949219 1.285156 123.066406 1.285156 117 L 1.285156 12.316406 C 1.285156 6.25 5.875 1.367188 11.570312 1.367188 Z M 11.570312 1.367188 "/>
<path style=" stroke:none;fill-rule:evenodd;fill:rgb(0%,0%,0%);fill-opacity:1;" d="M 44.289062 34.433594 C 42.445312 37.582031 36.785156 42.9375 40.371094 44.589844 C 42.546875 45.351562 43.582031 43.792969 44.019531 42.761719 L 44.109375 42.761719 L 42.664062 47.96875 L 46.011719 47.953125 C 46.011719 47.953125 44.570312 42.949219 44.566406 42.757812 L 44.601562 42.757812 C 44.957031 43.601562 46.300781 45.347656 47.777344 44.679688 C 52.101562 42.816406 45.734375 37.515625 44.289062 34.433594 Z M 44.289062 34.433594 "/>
<path style=" stroke:none;fill-rule:evenodd;fill:rgb(0%,0%,0%);fill-opacity:1;" d="M 44.175781 93.75 C 46.023438 90.601562 51.679688 85.246094 48.09375 83.59375 C 45.917969 82.832031 44.882812 84.390625 44.445312 85.421875 L 44.359375 85.421875 L 45.800781 80.214844 L 42.457031 80.230469 C 42.457031 80.230469 43.898438 85.234375 43.902344 85.425781 L 43.867188 85.425781 C 43.511719 84.582031 42.167969 82.835938 40.6875 83.503906 C 36.363281 85.367188 42.730469 90.667969 44.175781 93.75 Z M 44.175781 93.75 "/>
<path style=" stroke:none;fill-rule:evenodd;fill:rgb(0%,0%,0%);fill-opacity:1;" d="M 13.273438 33.296875 C 10.105469 38.652344 0.390625 47.765625 6.546875 50.582031 C 10.28125 51.878906 12.058594 49.226562 12.8125 47.46875 L 12.960938 47.46875 L 10.480469 56.328125 L 16.226562 56.300781 C 16.226562 56.300781 13.753906 47.785156 13.746094 47.460938 L 13.808594 47.460938 C 14.414062 48.894531 16.722656 51.867188 19.261719 50.734375 C 26.683594 47.5625 15.753906 38.539062 13.273438 33.296875 Z M 13.273438 33.296875 "/>
<path style=" stroke:none;fill-rule:nonzero;fill:rgb(0%,0%,0%);fill-opacity:1;" d="M 12.085938 24.84375 L 19.101562 24.84375 L 19.101562 28.734375 L 7.515625 28.734375 L 7.515625 24.84375 L 13.335938 18.230469 C 13.855469 17.625 14.238281 17.035156 14.488281 16.457031 C 14.738281 15.878906 14.863281 15.28125 14.863281 14.65625 C 14.863281 13.695312 14.609375 12.921875 14.105469 12.332031 C 13.605469 11.746094 12.941406 11.453125 12.105469 11.453125 C 11.464844 11.453125 10.765625 11.632812 10.003906 11.988281 C 9.242188 12.339844 8.425781 12.859375 7.558594 13.558594 L 7.558594 9.046875 C 8.484375 8.652344 9.398438 8.355469 10.300781 8.152344 C 11.207031 7.945312 12.09375 7.839844 12.960938 7.839844 C 14.871094 7.839844 16.351562 8.378906 17.40625 9.460938 C 18.464844 10.542969 18.996094 12.050781 18.996094 13.984375 C 18.996094 15.101562 18.773438 16.148438 18.324219 17.117188 C 17.875 18.082031 16.929688 19.371094 15.492188 20.996094 L 12.085938 24.84375 "/>
<path style=" stroke:none;fill-rule:evenodd;fill:rgb(0%,0%,0%);fill-opacity:1;" d="M 76.1875 95.789062 C 79.355469 90.4375 89.066406 81.320312 82.914062 78.503906 C 79.179688 77.207031 77.402344 79.859375 76.648438 81.617188 L 76.496094 81.617188 L 78.976562 72.757812 L 73.234375 72.785156 C 73.234375 72.785156 75.707031 81.300781 75.714844 81.625 L 75.652344 81.625 C 75.046875 80.191406 72.738281 77.21875 70.199219 78.351562 C 62.777344 81.523438 73.707031 90.546875 76.1875 95.789062 Z M 76.1875 95.789062 "/>
<path style=" stroke:none;fill-rule:nonzero;fill:rgb(0%,0%,0%);fill-opacity:1;" d="M 77.21875 104.304688 L 70.203125 104.304688 L 70.203125 100.414062 L 81.789062 100.414062 L 81.789062 104.304688 L 75.96875 110.917969 C 75.449219 111.523438 75.066406 112.113281 74.816406 112.691406 C 74.566406 113.269531 74.441406 113.867188 74.441406 114.492188 C 74.441406 115.453125 74.695312 116.226562 75.203125 116.816406 C 75.699219 117.402344 76.367188 117.695312 77.199219 117.695312 C 77.839844 117.695312 78.539062 117.515625 79.300781 117.160156 C 80.0625 116.808594 80.878906 116.289062 81.75 115.589844 L 81.75 120.101562 C 80.824219 120.496094 79.90625 120.792969 79.003906 120.996094 C 78.097656 121.207031 77.210938 121.308594 76.34375 121.308594 C 74.4375 121.308594 72.953125 120.769531 71.902344 119.6875 C 70.839844 118.605469 70.308594 117.097656 70.308594 115.164062 C 70.308594 114.046875 70.535156 113.003906 70.984375 112.03125 C 71.429688 111.066406 72.375 109.777344 73.8125 108.152344 L 77.21875 104.304688 "/>
</g>
</svg>
