<?xml version="1.0" encoding="UTF-8"?>
<svg xmlns="http://www.w3.org/2000/svg" xmlns:xlink="http://www.w3.org/1999/xlink" width="90px" height="130px" viewBox="0 0 90 130" version="1.1">
<g id="surface1">
<path style=" stroke:none;fill-rule:nonzero;fill:rgb(0%,0%,0%);fill-opacity:0.498039;" d="M 13.5 3.421875 L 79.714844 3.421875 C 85.414062 3.421875 90 8.304688 90 14.367188 L 90 119.050781 C 90 125.117188 85.414062 130 79.714844 130 L 13.5 130 C 7.800781 130 3.214844 125.117188 3.214844 119.050781 L 3.214844 14.367188 C 3.214844 8.304688 7.800781 3.421875 13.5 3.421875 Z M 13.5 3.421875 "/>
<path style=" stroke:none;fill-rule:nonzero;fill:rgb(90.588236%,90.588236%,90.588236%);fill-opacity:1;" d="M 10.929688 0.683594 L 77.144531 0.683594 C 82.839844 0.683594 87.429688 5.566406 87.429688 11.632812 L 87.429688 116.316406 C 87.429688 122.378906 82.839844 127.261719 77.144531 127.261719 L 10.929688 127.261719 C 5.230469 127.261719 0.644531 122.378906 0.644531 116.316406 L 0.644531 11.632812 C 0.644531 5.566406 5.230469 0.683594 10.929688 0.683594 Z M 10.929688 0.683594 "/>
<path style=" stroke:none;fill-rule:nonzero;fill:rgb(78.039217%,53.725493%,12.156863%);fill-opacity:1;" d="M 12.214844 2.050781 L 78.429688 2.050781 C 84.125 2.050781 88.714844 6.933594 88.714844 13 L 88.714844 117.683594 C 88.714844 123.75 84.125 128.632812 78.429688 128.632812 L 12.214844 128.632812 C 6.515625 128.632812 1.929688 123.75 1.929688 117.683594 L 1.929688 13 C 1.929688 6.933594 6.515625 2.050781 12.214844 2.050781 Z M 12.214844 2.050781 "/>
<path style=" stroke:none;fill-rule:nonzero;fill:rgb(100%,100%,100%);fill-opacity:1;" d="M 11.570312 1.367188 L 77.785156 1.367188 C 83.484375 1.367188 88.070312 6.25 88.070312 12.316406 L 88.070312 117 C 88.070312 123.066406 83.484375 127.949219 77.785156 127.949219 L 11.570312 127.949219 C 5.875 127.949219 1.285156 123.066406 1.285156 117 L 1.285156 12.316406 C 1.285156 6.25 5.875 1.367188 11.570312 1.367188 Z M 11.570312 1.367188 "/>
<path style=" stroke:none;fill-rule:nonzero;fill:rgb(100%,0%,0%);fill-opacity:1;" d="M 7.972656 28.28125 L 7.972656 24.488281 C 8.628906 24.882812 9.253906 25.179688 9.855469 25.378906 C 10.453125 25.574219 11.042969 25.667969 11.625 25.667969 C 12.851562 25.667969 13.804688 25.234375 14.488281 24.363281 C 15.171875 23.484375 15.574219 22.183594 15.695312 20.457031 C 15.210938 20.917969 14.695312 21.261719 14.148438 21.488281 C 13.597656 21.71875 13.003906 21.832031 12.363281 21.832031 C 10.734375 21.832031 9.414062 21.222656 8.410156 20.003906 C 7.414062 18.777344 6.917969 17.164062 6.917969 15.164062 C 6.917969 12.957031 7.472656 11.1875 8.582031 9.859375 C 9.699219 8.53125 11.195312 7.867188 13.070312 7.867188 C 15.148438 7.867188 16.757812 8.769531 17.894531 10.574219 C 19.035156 12.378906 19.605469 14.933594 19.605469 18.230469 C 19.605469 21.621094 18.9375 24.289062 17.609375 26.234375 C 16.277344 28.167969 14.449219 29.132812 12.128906 29.132812 C 11.382812 29.132812 10.664062 29.0625 9.980469 28.914062 C 9.296875 28.777344 8.628906 28.566406 7.972656 28.28125 M 13.046875 18.398438 C 13.765625 18.398438 14.308594 18.097656 14.671875 17.503906 C 15.035156 16.898438 15.214844 15.996094 15.214844 14.792969 C 15.214844 13.601562 15.035156 12.703125 14.671875 12.101562 C 14.308594 11.496094 13.765625 11.191406 13.046875 11.191406 C 12.328125 11.191406 11.785156 11.496094 11.421875 12.101562 C 11.0625 12.703125 10.878906 13.601562 10.878906 14.792969 C 10.878906 15.996094 11.0625 16.898438 11.421875 17.503906 C 11.785156 18.097656 12.328125 18.398438 13.046875 18.398438 "/>
<path style=" stroke:none;fill-rule:evenodd;fill:rgb(100%,0%,0%);fill-opacity:1;" d="M 8.710938 33.421875 C 8.195312 33.425781 7.628906 33.558594 7 33.859375 C 0.160156 39.472656 9.382812 48.519531 13.277344 56.289062 L 13.390625 56.328125 C 17.671875 47.835938 25.820312 38.492188 19.59375 33.859375 C 14.660156 31.492188 13.34375 39.375 13.296875 39.65625 C 13.257812 39.410156 12.25 33.394531 8.710938 33.421875 Z M 8.710938 33.421875 "/>
<path style=" stroke:none;fill-rule:nonzero;fill:rgb(100%,0%,0%);fill-opacity:1;" d="M 81.296875 101.035156 L 81.296875 104.828125 C 80.640625 104.433594 80.015625 104.136719 79.417969 103.933594 C 78.820312 103.742188 78.226562 103.644531 77.644531 103.644531 C 76.417969 103.644531 75.464844 104.082031 74.78125 104.953125 C 74.097656 105.832031 73.695312 107.132812 73.574219 108.855469 C 74.058594 108.398438 74.574219 108.054688 75.125 107.824219 C 75.671875 107.597656 76.265625 107.480469 76.90625 107.480469 C 78.539062 107.480469 79.855469 108.089844 80.859375 109.308594 C 81.855469 110.539062 82.355469 112.152344 82.355469 114.148438 C 82.355469 116.359375 81.796875 118.128906 80.6875 119.457031 C 79.570312 120.785156 78.074219 121.449219 76.203125 121.449219 C 74.125 121.449219 72.515625 120.546875 71.375 118.742188 C 70.234375 116.9375 69.667969 114.382812 69.667969 111.085938 C 69.667969 107.691406 70.332031 105.027344 71.664062 103.082031 C 72.996094 101.148438 74.820312 100.183594 77.140625 100.183594 C 77.890625 100.183594 78.605469 100.253906 79.289062 100.402344 C 79.972656 100.539062 80.640625 100.75 81.296875 101.035156 M 76.222656 110.917969 C 75.503906 110.917969 74.964844 111.21875 74.601562 111.8125 C 74.238281 112.417969 74.054688 113.320312 74.054688 114.519531 C 74.054688 115.710938 74.238281 116.609375 74.601562 117.214844 C 74.964844 117.820312 75.503906 118.125 76.222656 118.125 C 76.941406 118.125 77.484375 117.820312 77.847656 117.214844 C 78.210938 116.609375 78.390625 115.710938 78.390625 114.519531 C 78.390625 113.320312 78.210938 112.417969 77.847656 111.8125 C 77.484375 111.21875 76.941406 110.917969 76.222656 110.917969 "/>
<path style=" stroke:none;fill-rule:evenodd;fill:rgb(100%,0%,0%);fill-opacity:1;" d="M 80.554688 95.785156 C 81.074219 95.78125 81.640625 95.648438 82.265625 95.347656 C 89.109375 89.734375 79.886719 80.6875 75.992188 72.917969 L 75.878906 72.878906 C 71.597656 81.371094 63.449219 90.714844 69.675781 95.347656 C 74.609375 97.714844 75.925781 89.832031 75.972656 89.550781 C 76.011719 89.796875 77.019531 95.8125 80.554688 95.785156 Z M 80.554688 95.785156 "/>
<path style=" stroke:none;fill-rule:evenodd;fill:rgb(100%,0%,0%);fill-opacity:1;" d="M 41.222656 58.308594 C 40.921875 58.3125 40.59375 58.390625 40.230469 58.570312 C 36.253906 61.882812 41.613281 67.230469 43.875 71.820312 L 43.941406 71.84375 C 46.425781 66.824219 51.160156 61.304688 47.542969 58.570312 C 44.679688 57.171875 43.914062 61.828125 43.886719 61.996094 C 43.863281 61.847656 43.277344 58.296875 41.222656 58.308594 Z M 41.222656 58.308594 "/>
<path style=" stroke:none;fill-rule:evenodd;fill:rgb(100%,0%,0%);fill-opacity:1;" d="M 28.367188 27.519531 C 28.066406 27.523438 27.738281 27.601562 27.371094 27.78125 C 23.398438 31.09375 28.753906 36.441406 31.019531 41.027344 L 31.082031 41.050781 C 33.570312 36.035156 38.300781 30.515625 34.6875 27.78125 C 31.820312 26.382812 31.054688 31.039062 31.027344 31.207031 C 31.003906 31.058594 30.421875 27.507812 28.367188 27.519531 Z M 28.367188 27.519531 "/>
<path style=" stroke:none;fill-rule:evenodd;fill:rgb(100%,0%,0%);fill-opacity:1;" d="M 53.4375 27.371094 C 53.136719 27.371094 52.808594 27.453125 52.441406 27.628906 C 48.46875 30.945312 53.828125 36.289062 56.089844 40.878906 L 56.15625 40.902344 C 58.640625 35.886719 63.375 30.367188 59.757812 27.628906 C 56.890625 26.230469 56.128906 30.886719 56.101562 31.054688 C 56.078125 30.910156 55.492188 27.355469 53.4375 27.371094 Z M 53.4375 27.371094 "/>
<path style=" stroke:none;fill-rule:evenodd;fill:rgb(100%,0%,0%);fill-opacity:1;" d="M 28.777344 48.730469 C 28.476562 48.734375 28.148438 48.8125 27.785156 48.992188 C 23.808594 52.304688 29.167969 57.648438 31.429688 62.238281 L 31.496094 62.261719 C 33.980469 57.246094 38.714844 51.726562 35.097656 48.992188 C 32.234375 47.59375 31.46875 52.246094 31.441406 52.414062 C 31.417969 52.269531 30.832031 48.714844 28.777344 48.730469 Z M 28.777344 48.730469 "/>
<path style=" stroke:none;fill-rule:evenodd;fill:rgb(100%,0%,0%);fill-opacity:1;" d="M 54.078125 48.046875 C 53.78125 48.050781 53.449219 48.128906 53.085938 48.308594 C 49.113281 51.621094 54.46875 56.964844 56.730469 61.554688 L 56.796875 61.578125 C 59.285156 56.5625 64.015625 51.042969 60.402344 48.308594 C 57.535156 46.910156 56.769531 51.5625 56.742188 51.730469 C 56.71875 51.585938 56.136719 48.03125 54.078125 48.046875 Z M 54.078125 48.046875 "/>
<path style=" stroke:none;fill-rule:evenodd;fill:rgb(100%,0%,0%);fill-opacity:1;" d="M 34.222656 81.953125 C 34.523438 81.949219 34.851562 81.871094 35.214844 81.691406 C 39.191406 78.378906 33.832031 73.035156 31.570312 68.445312 L 31.503906 68.421875 C 29.019531 73.4375 24.285156 78.957031 27.902344 81.691406 C 30.765625 83.089844 31.53125 78.4375 31.558594 78.269531 C 31.582031 78.414062 32.167969 81.96875 34.222656 81.953125 Z M 34.222656 81.953125 "/>
<path style=" stroke:none;fill-rule:evenodd;fill:rgb(100%,0%,0%);fill-opacity:1;" d="M 34.632812 100.425781 C 34.933594 100.425781 35.261719 100.34375 35.628906 100.167969 C 39.601562 96.851562 34.246094 91.507812 31.980469 86.917969 L 31.917969 86.894531 C 29.429688 91.910156 24.699219 97.429688 28.3125 100.167969 C 31.179688 101.566406 31.945312 96.910156 31.972656 96.742188 C 31.996094 96.886719 32.578125 100.441406 34.632812 100.425781 Z M 34.632812 100.425781 "/>
<path style=" stroke:none;fill-rule:evenodd;fill:rgb(100%,0%,0%);fill-opacity:1;" d="M 58.652344 100.425781 C 58.953125 100.425781 59.28125 100.34375 59.644531 100.167969 C 63.621094 96.851562 58.261719 91.507812 56 86.917969 L 55.933594 86.894531 C 53.449219 91.910156 48.714844 97.429688 52.332031 100.167969 C 55.195312 101.566406 55.960938 96.910156 55.988281 96.742188 C 56.011719 96.886719 56.597656 100.441406 58.652344 100.425781 Z M 58.652344 100.425781 "/>
<path style=" stroke:none;fill-rule:evenodd;fill:rgb(100%,0%,0%);fill-opacity:1;" d="M 59.707031 81.417969 C 60.003906 81.417969 60.335938 81.335938 60.699219 81.160156 C 64.675781 77.84375 59.316406 72.5 57.054688 67.910156 L 56.988281 67.886719 C 54.5 72.902344 49.769531 78.425781 53.386719 81.160156 C 56.25 82.558594 57.015625 77.902344 57.042969 77.734375 C 57.066406 77.882812 57.648438 81.433594 59.707031 81.417969 Z M 59.707031 81.417969 "/>
</g>
</svg>
