<?xml version="1.0" encoding="UTF-8"?>
<svg xmlns="http://www.w3.org/2000/svg" xmlns:xlink="http://www.w3.org/1999/xlink" width="90px" height="130px" viewBox="0 0 90 130" version="1.1">
<g id="surface1">
<path style=" stroke:none;fill-rule:nonzero;fill:rgb(0%,0%,0%);fill-opacity:0.498039;" d="M 13.5 3.421875 L 79.714844 3.421875 C 85.414062 3.421875 90 8.304688 90 14.367188 L 90 119.050781 C 90 125.117188 85.414062 130 79.714844 130 L 13.5 130 C 7.800781 130 3.214844 125.117188 3.214844 119.050781 L 3.214844 14.367188 C 3.214844 8.304688 7.800781 3.421875 13.5 3.421875 Z M 13.5 3.421875 "/>
<path style=" stroke:none;fill-rule:nonzero;fill:rgb(90.588236%,90.588236%,90.588236%);fill-opacity:1;" d="M 10.929688 0.683594 L 77.144531 0.683594 C 82.839844 0.683594 87.429688 5.566406 87.429688 11.632812 L 87.429688 116.316406 C 87.429688 122.378906 82.839844 127.261719 77.144531 127.261719 L 10.929688 127.261719 C 5.230469 127.261719 0.644531 122.378906 0.644531 116.316406 L 0.644531 11.632812 C 0.644531 5.566406 5.230469 0.683594 10.929688 0.683594 Z M 10.929688 0.683594 "/>
<path style=" stroke:none;fill-rule:nonzero;fill:rgb(78.039217%,53.725493%,12.156863%);fill-opacity:1;" d="M 12.214844 2.050781 L 78.429688 2.050781 C 84.125 2.050781 88.714844 6.933594 88.714844 13 L 88.714844 117.683594 C 88.714844 123.75 84.125 128.632812 78.429688 128.632812 L 12.214844 128.632812 C 6.515625 128.632812 1.929688 123.75 1.929688 117.683594 L 1.929688 13 C 1.929688 6.933594 6.515625 2.050781 12.214844 2.050781 Z M 12.214844 2.050781 "/>
<path style=" stroke:none;fill-rule:nonzero;fill:rgb(100%,100%,100%);fill-opacity:1;" d="M 11.570312 1.367188 L 77.785156 1.367188 C 83.484375 1.367188 88.070312 6.25 88.070312 12.316406 L 88.070312 117 C 88.070312 123.066406 83.484375 127.949219 77.785156 127.949219 L 11.570312 127.949219 C 5.875 127.949219 1.285156 123.066406 1.285156 117 L 1.285156 12.316406 C 1.285156 6.25 5.875 1.367188 11.570312 1.367188 Z M 11.570312 1.367188 "/>
<path style=" stroke:none;fill-rule:evenodd;fill:rgb(0%,0%,0%);fill-opacity:1;" d="M 32.957031 30.789062 C 31.113281 33.933594 25.453125 39.292969 29.039062 40.945312 C 31.214844 41.707031 32.25 40.148438 32.6875 39.117188 L 32.777344 39.117188 L 31.332031 44.320312 L 34.679688 44.304688 C 34.679688 44.304688 33.238281 39.304688 33.234375 39.113281 L 33.269531 39.113281 C 33.625 39.953125 34.96875 41.699219 36.445312 41.035156 C 40.769531 39.171875 34.402344 33.871094 32.957031 30.789062 Z M 32.957031 30.789062 "/>
<path style=" stroke:none;fill-rule:evenodd;fill:rgb(0%,0%,0%);fill-opacity:1;" d="M 34.132812 97.003906 C 35.976562 93.859375 41.632812 88.503906 38.050781 86.847656 C 35.871094 86.089844 34.835938 87.644531 34.398438 88.679688 L 34.3125 88.679688 L 35.757812 83.472656 L 32.410156 83.488281 C 32.410156 83.488281 33.851562 88.492188 33.855469 88.683594 L 33.820312 88.683594 C 33.464844 87.839844 32.121094 86.09375 30.640625 86.757812 C 26.320312 88.621094 32.683594 93.925781 34.132812 97.003906 Z M 34.132812 97.003906 "/>
<path style=" stroke:none;fill-rule:evenodd;fill:rgb(0%,0%,0%);fill-opacity:1;" d="M 56.101562 30.789062 C 54.257812 33.933594 48.597656 39.292969 52.183594 40.945312 C 54.359375 41.707031 55.394531 40.148438 55.832031 39.117188 L 55.921875 39.117188 L 54.476562 44.320312 L 57.820312 44.304688 C 57.820312 44.304688 56.378906 39.304688 56.375 39.113281 L 56.410156 39.113281 C 56.765625 39.953125 58.109375 41.699219 59.589844 41.035156 C 63.914062 39.171875 57.546875 33.871094 56.101562 30.789062 Z M 56.101562 30.789062 "/>
<path style=" stroke:none;fill-rule:evenodd;fill:rgb(0%,0%,0%);fill-opacity:1;" d="M 56.632812 97.003906 C 58.476562 93.859375 64.132812 88.503906 60.550781 86.847656 C 58.371094 86.089844 57.335938 87.644531 56.898438 88.679688 L 56.8125 88.679688 L 58.257812 83.472656 L 54.910156 83.488281 C 54.910156 83.488281 56.351562 88.492188 56.355469 88.683594 L 56.320312 88.683594 C 55.964844 87.839844 54.621094 86.09375 53.140625 86.757812 C 48.820312 88.621094 55.183594 93.925781 56.632812 97.003906 Z M 56.632812 97.003906 "/>
<path style=" stroke:none;fill-rule:evenodd;fill:rgb(0%,0%,0%);fill-opacity:1;" d="M 13.269531 33.296875 C 10.105469 38.652344 0.390625 47.765625 6.546875 50.582031 C 10.28125 51.878906 12.058594 49.226562 12.8125 47.46875 L 12.960938 47.46875 L 10.480469 56.328125 L 16.226562 56.300781 C 16.226562 56.300781 13.753906 47.785156 13.746094 47.460938 L 13.808594 47.460938 C 14.414062 48.894531 16.722656 51.867188 19.261719 50.734375 C 26.683594 47.5625 15.753906 38.539062 13.269531 33.296875 Z M 13.269531 33.296875 "/>
<path style=" stroke:none;fill-rule:nonzero;fill:rgb(0%,0%,0%);fill-opacity:1;" d="M 13.542969 18.765625 C 12.824219 18.765625 12.285156 19.070312 11.921875 19.675781 C 11.566406 20.269531 11.386719 21.167969 11.386719 22.371094 C 11.386719 23.570312 11.566406 24.472656 11.921875 25.078125 C 12.285156 25.671875 12.824219 25.972656 13.542969 25.972656 C 14.269531 25.972656 14.8125 25.671875 15.167969 25.078125 C 15.53125 24.472656 15.710938 23.570312 15.710938 22.371094 C 15.710938 21.167969 15.53125 20.269531 15.167969 19.675781 C 14.8125 19.070312 14.269531 18.765625 13.542969 18.765625 M 18.628906 8.910156 L 18.628906 12.703125 C 17.953125 12.292969 17.3125 11.988281 16.714844 11.796875 C 16.117188 11.59375 15.535156 11.496094 14.964844 11.496094 C 13.738281 11.496094 12.785156 11.933594 12.101562 12.8125 C 11.417969 13.683594 11.019531 14.980469 10.90625 16.703125 C 11.375 16.257812 11.886719 15.921875 12.433594 15.703125 C 12.980469 15.472656 13.578125 15.359375 14.226562 15.359375 C 15.859375 15.359375 17.171875 15.972656 18.167969 17.199219 C 19.171875 18.429688 19.675781 20.035156 19.675781 22.027344 C 19.675781 24.226562 19.117188 25.988281 17.996094 27.320312 C 16.878906 28.636719 15.382812 29.296875 13.5 29.296875 C 11.429688 29.296875 9.824219 28.398438 8.683594 26.605469 C 7.550781 24.796875 6.988281 22.242188 6.988281 18.933594 C 6.988281 15.542969 7.648438 12.878906 8.972656 10.945312 C 10.304688 9 12.128906 8.03125 14.441406 8.03125 C 15.175781 8.03125 15.886719 8.101562 16.578125 8.25 C 17.269531 8.398438 17.953125 8.617188 18.628906 8.910156 "/>
<path style=" stroke:none;fill-rule:evenodd;fill:rgb(0%,0%,0%);fill-opacity:1;" d="M 75.878906 95.789062 C 79.046875 90.4375 88.757812 81.320312 82.605469 78.503906 C 78.871094 77.207031 77.09375 79.859375 76.339844 81.617188 L 76.1875 81.617188 L 78.667969 72.757812 L 72.925781 72.785156 C 72.925781 72.785156 75.398438 81.300781 75.40625 81.625 L 75.34375 81.625 C 74.738281 80.191406 72.429688 77.21875 69.890625 78.351562 C 62.46875 81.523438 73.398438 90.546875 75.878906 95.789062 Z M 75.878906 95.789062 "/>
<path style=" stroke:none;fill-rule:nonzero;fill:rgb(0%,0%,0%);fill-opacity:1;" d="M 75.605469 110.664062 C 76.328125 110.664062 76.867188 110.359375 77.230469 109.753906 C 77.585938 109.160156 77.765625 108.261719 77.765625 107.058594 C 77.765625 105.859375 77.585938 104.957031 77.230469 104.351562 C 76.867188 103.757812 76.328125 103.457031 75.605469 103.457031 C 74.882812 103.457031 74.339844 103.757812 73.984375 104.351562 C 73.621094 104.957031 73.4375 105.859375 73.4375 107.058594 C 73.4375 108.261719 73.621094 109.160156 73.984375 109.753906 C 74.339844 110.359375 74.882812 110.664062 75.605469 110.664062 M 70.523438 120.519531 L 70.523438 116.726562 C 71.199219 117.136719 71.835938 117.441406 72.433594 117.632812 C 73.035156 117.835938 73.617188 117.933594 74.1875 117.933594 C 75.410156 117.933594 76.367188 117.496094 77.050781 116.613281 C 77.734375 115.746094 78.132812 114.449219 78.246094 112.722656 C 77.777344 113.171875 77.265625 113.507812 76.71875 113.726562 C 76.167969 113.957031 75.570312 114.070312 74.925781 114.070312 C 73.292969 114.070312 71.980469 113.457031 70.984375 112.230469 C 69.980469 111 69.476562 109.394531 69.476562 107.402344 C 69.476562 105.203125 70.035156 103.441406 71.152344 102.109375 C 72.273438 100.789062 73.769531 100.132812 75.648438 100.132812 C 77.722656 100.132812 79.328125 101.027344 80.464844 102.824219 C 81.597656 104.632812 82.164062 107.1875 82.164062 110.496094 C 82.164062 113.886719 81.503906 116.550781 80.179688 118.484375 C 78.847656 120.429688 77.023438 121.398438 74.710938 121.398438 C 73.976562 121.398438 73.265625 121.324219 72.574219 121.179688 C 71.882812 121.03125 71.199219 120.8125 70.523438 120.519531 "/>
<path style=" stroke:none;fill-rule:evenodd;fill:rgb(0%,0%,0%);fill-opacity:1;" d="M 32.957031 55.421875 C 31.113281 58.566406 25.453125 63.921875 29.039062 65.578125 C 31.214844 66.339844 32.25 64.78125 32.6875 63.75 L 32.777344 63.75 L 31.332031 68.953125 L 34.679688 68.9375 C 34.679688 68.9375 33.238281 63.933594 33.234375 63.742188 L 33.269531 63.742188 C 33.625 64.585938 34.96875 66.332031 36.445312 65.667969 C 40.769531 63.804688 34.402344 58.5 32.957031 55.421875 Z M 32.957031 55.421875 "/>
<path style=" stroke:none;fill-rule:evenodd;fill:rgb(0%,0%,0%);fill-opacity:1;" d="M 55.757812 68.953125 C 57.601562 65.808594 63.257812 60.449219 59.675781 58.796875 C 57.5 58.035156 56.464844 59.59375 56.023438 60.625 L 55.9375 60.625 L 57.382812 55.421875 L 54.035156 55.4375 C 54.035156 55.4375 55.476562 60.4375 55.480469 60.628906 L 55.445312 60.628906 C 55.089844 59.789062 53.746094 58.042969 52.269531 58.707031 C 47.945312 60.570312 54.3125 65.871094 55.757812 68.953125 Z M 55.757812 68.953125 "/>
</g>
</svg>
