<?xml version="1.0" encoding="UTF-8"?>
<svg xmlns="http://www.w3.org/2000/svg" xmlns:xlink="http://www.w3.org/1999/xlink" width="90px" height="130px" viewBox="0 0 90 130" version="1.1">
<g id="surface1">
<path style=" stroke:none;fill-rule:nonzero;fill:rgb(0%,0%,0%);fill-opacity:0.498039;" d="M 13.5 3.421875 L 79.714844 3.421875 C 85.414062 3.421875 90 8.304688 90 14.367188 L 90 119.050781 C 90 125.117188 85.414062 130 79.714844 130 L 13.5 130 C 7.800781 130 3.214844 125.117188 3.214844 119.050781 L 3.214844 14.367188 C 3.214844 8.304688 7.800781 3.421875 13.5 3.421875 Z M 13.5 3.421875 "/>
<path style=" stroke:none;fill-rule:nonzero;fill:rgb(90.588236%,90.588236%,90.588236%);fill-opacity:1;" d="M 10.929688 0.683594 L 77.144531 0.683594 C 82.839844 0.683594 87.429688 5.566406 87.429688 11.632812 L 87.429688 116.316406 C 87.429688 122.378906 82.839844 127.261719 77.144531 127.261719 L 10.929688 127.261719 C 5.230469 127.261719 0.644531 122.378906 0.644531 116.316406 L 0.644531 11.632812 C 0.644531 5.566406 5.230469 0.683594 10.929688 0.683594 Z M 10.929688 0.683594 "/>
<path style=" stroke:none;fill-rule:nonzero;fill:rgb(78.039217%,53.725493%,12.156863%);fill-opacity:1;" d="M 12.214844 2.050781 L 78.429688 2.050781 C 84.125 2.050781 88.714844 6.933594 88.714844 13 L 88.714844 117.683594 C 88.714844 123.75 84.125 128.632812 78.429688 128.632812 L 12.214844 128.632812 C 6.515625 128.632812 1.929688 123.75 1.929688 117.683594 L 1.929688 13 C 1.929688 6.933594 6.515625 2.050781 12.214844 2.050781 Z M 12.214844 2.050781 "/>
<path style=" stroke:none;fill-rule:nonzero;fill:rgb(100%,100%,100%);fill-opacity:1;" d="M 11.570312 1.367188 L 77.785156 1.367188 C 83.484375 1.367188 88.070312 6.25 88.070312 12.316406 L 88.070312 117 C 88.070312 123.066406 83.484375 127.949219 77.785156 127.949219 L 11.570312 127.949219 C 5.875 127.949219 1.285156 123.066406 1.285156 117 L 1.285156 12.316406 C 1.285156 6.25 5.875 1.367188 11.570312 1.367188 Z M 11.570312 1.367188 "/>
<path style=" stroke:none;fill-rule:nonzero;fill:rgb(100%,0%,0%);fill-opacity:1;" d="M 15.820312 17.832031 C 16.894531 18.191406 17.710938 18.8125 18.265625 19.703125 C 18.828125 20.582031 19.109375 21.703125 19.109375 23.070312 C 19.109375 25.105469 18.503906 26.652344 17.292969 27.71875 C 16.082031 28.769531 14.316406 29.296875 11.996094 29.296875 C 11.175781 29.296875 10.355469 29.210938 9.527344 29.039062 C 8.710938 28.871094 7.898438 28.621094 7.09375 28.28125 L 7.09375 24.199219 C 7.863281 24.691406 8.625 25.070312 9.378906 25.324219 C 10.140625 25.574219 10.886719 25.695312 11.621094 25.695312 C 12.710938 25.695312 13.542969 25.453125 14.121094 24.96875 C 14.703125 24.480469 14.996094 23.785156 14.996094 22.878906 C 14.996094 21.941406 14.699219 21.238281 14.101562 20.761719 C 13.507812 20.273438 12.632812 20.03125 11.472656 20.03125 L 9.828125 20.03125 L 9.828125 16.621094 L 11.558594 16.621094 C 12.589844 16.621094 13.359375 16.417969 13.863281 16.003906 C 14.371094 15.582031 14.621094 14.945312 14.621094 14.09375 C 14.621094 13.304688 14.378906 12.695312 13.886719 12.265625 C 13.394531 11.832031 12.699219 11.617188 11.804688 11.617188 C 11.140625 11.617188 10.472656 11.714844 9.796875 11.90625 C 9.121094 12.097656 8.445312 12.382812 7.777344 12.757812 L 7.777344 8.882812 C 8.589844 8.589844 9.394531 8.367188 10.191406 8.222656 C 10.988281 8.074219 11.769531 8.003906 12.539062 8.003906 C 14.613281 8.003906 16.160156 8.441406 17.1875 9.320312 C 18.21875 10.191406 18.734375 11.507812 18.734375 13.269531 C 18.734375 14.46875 18.488281 15.453125 17.996094 16.222656 C 17.507812 16.984375 16.78125 17.519531 15.820312 17.832031 "/>
<path style=" stroke:none;fill-rule:nonzero;fill:rgb(100%,0%,0%);fill-opacity:1;" d="M 73.332031 111.480469 C 72.257812 111.125 71.441406 110.5 70.886719 109.609375 C 70.324219 108.730469 70.042969 107.609375 70.042969 106.242188 C 70.042969 104.207031 70.648438 102.660156 71.859375 101.59375 C 73.070312 100.542969 74.835938 100.015625 77.15625 100.015625 C 77.972656 100.015625 78.796875 100.101562 79.621094 100.277344 C 80.441406 100.441406 81.253906 100.691406 82.058594 101.03125 L 82.058594 105.113281 C 81.289062 104.621094 80.527344 104.246094 79.773438 103.988281 C 79.011719 103.742188 78.261719 103.617188 77.53125 103.617188 C 76.441406 103.617188 75.605469 103.859375 75.03125 104.34375 C 74.445312 104.832031 74.15625 105.527344 74.15625 106.433594 C 74.15625 107.371094 74.453125 108.074219 75.050781 108.550781 C 75.644531 109.039062 76.519531 109.28125 77.679688 109.28125 L 79.324219 109.28125 L 79.324219 112.691406 L 77.59375 112.691406 C 76.5625 112.691406 75.792969 112.898438 75.285156 113.308594 C 74.78125 113.730469 74.527344 114.367188 74.527344 115.21875 C 74.527344 116.007812 74.773438 116.617188 75.265625 117.046875 C 75.757812 117.480469 76.449219 117.695312 77.347656 117.695312 C 78.011719 117.695312 78.679688 117.597656 79.355469 117.40625 C 80.03125 117.214844 80.703125 116.929688 81.375 116.554688 L 81.375 120.429688 C 80.5625 120.722656 79.757812 120.945312 78.960938 121.089844 C 78.164062 121.238281 77.378906 121.308594 76.609375 121.308594 C 74.539062 121.308594 72.992188 120.871094 71.964844 119.992188 C 70.933594 119.121094 70.417969 117.804688 70.417969 116.046875 C 70.417969 114.84375 70.664062 113.859375 71.152344 113.089844 C 71.644531 112.328125 72.371094 111.792969 73.332031 111.480469 "/>
<path style=" stroke:none;fill-rule:evenodd;fill:rgb(100%,0%,0%);fill-opacity:1;" d="M 13.121094 33.296875 C 10.46875 38.9375 8.535156 41.847656 4.546875 44.957031 C 8.320312 48.027344 10.980469 51.199219 13.199219 56.328125 C 15.175781 51.457031 17.597656 47.824219 21.804688 44.804688 C 17.574219 42.511719 15.125 38.882812 13.121094 33.296875 Z M 13.121094 33.296875 "/>
<path style=" stroke:none;fill-rule:evenodd;fill:rgb(100%,0%,0%);fill-opacity:1;" d="M 44.851562 30.941406 C 43.308594 34.253906 42.179688 35.964844 39.855469 37.792969 C 42.054688 39.59375 43.605469 41.460938 44.898438 44.472656 C 46.050781 41.609375 47.460938 39.476562 49.910156 37.703125 C 47.445312 36.355469 46.019531 34.222656 44.851562 30.941406 Z M 44.851562 30.941406 "/>
<path style=" stroke:none;fill-rule:evenodd;fill:rgb(100%,0%,0%);fill-opacity:1;" d="M 45.082031 58.992188 C 43.539062 62.308594 42.414062 64.019531 40.089844 65.84375 C 42.289062 67.648438 43.839844 69.511719 45.128906 72.527344 C 46.28125 69.664062 47.691406 67.527344 50.144531 65.753906 C 47.679688 64.40625 46.25 62.273438 45.082031 58.992188 Z M 45.082031 58.992188 "/>
<path style=" stroke:none;fill-rule:evenodd;fill:rgb(100%,0%,0%);fill-opacity:1;" d="M 44.441406 84.308594 C 42.894531 87.625 41.769531 89.332031 39.445312 91.160156 C 41.644531 92.964844 43.195312 94.828125 44.484375 97.84375 C 45.640625 94.980469 47.050781 92.84375 49.5 91.070312 C 47.035156 89.722656 45.609375 87.589844 44.441406 84.308594 Z M 44.441406 84.308594 "/>
<path style=" stroke:none;fill-rule:evenodd;fill:rgb(100%,0%,0%);fill-opacity:1;" d="M 76.074219 72.757812 C 73.421875 78.402344 71.488281 81.308594 67.5 84.417969 C 71.273438 87.488281 73.9375 90.660156 76.152344 95.789062 C 78.132812 90.917969 80.554688 87.285156 84.761719 84.265625 C 80.53125 81.972656 78.078125 78.34375 76.074219 72.757812 Z M 76.074219 72.757812 "/>
</g>
</svg>
