<?xml version="1.0" encoding="UTF-8"?>
<svg xmlns="http://www.w3.org/2000/svg" xmlns:xlink="http://www.w3.org/1999/xlink" width="90px" height="130px" viewBox="0 0 90 130" version="1.1">
<defs>
<linearGradient id="linear0" gradientUnits="userSpaceOnUse" x1="356.442322" y1="437.498871" x2="484.796082" y2="256.179657" gradientTransform="matrix(0.120102,0,0,0.0991127,-6.532297,25.888196)">
<stop offset="0" style="stop-color:rgb(100%,84.705883%,75.686276%);stop-opacity:1;"/>
<stop offset="1" style="stop-color:rgb(100%,92.941177%,92.941177%);stop-opacity:1;"/>
</linearGradient>
<linearGradient id="linear1" gradientUnits="userSpaceOnUse" x1="298.985718" y1="540.539185" x2="449.323181" y2="415.53949" gradientTransform="matrix(0.0931224,0,0,0.0991127,9.793189,34.536891)">
<stop offset="0" style="stop-color:rgb(75.686276%,0%,0%);stop-opacity:1;"/>
<stop offset="1" style="stop-color:rgb(100%,26.274511%,24.313726%);stop-opacity:1;"/>
</linearGradient>
<linearGradient id="linear2" gradientUnits="userSpaceOnUse" x1="632" y1="146.362183" x2="698" y2="85.362183" gradientTransform="matrix(0.0770162,0,0,0.0664048,-11.348421,28.85897)">
<stop offset="0" style="stop-color:rgb(94.117647%,65.490198%,0%);stop-opacity:1;"/>
<stop offset="1" style="stop-color:rgb(100%,92.941177%,0%);stop-opacity:1;"/>
</linearGradient>
<linearGradient id="linear3" gradientUnits="userSpaceOnUse" x1="653" y1="210.362183" x2="708" y2="160.362183" gradientTransform="matrix(0.0770162,0,0,0.0664048,-11.348421,28.85897)">
<stop offset="0" style="stop-color:rgb(94.117647%,92.156863%,0%);stop-opacity:1;"/>
<stop offset="1" style="stop-color:rgb(100%,100%,0%);stop-opacity:1;"/>
</linearGradient>
<linearGradient id="linear4" gradientUnits="userSpaceOnUse" x1="294.246063" y1="346.326538" x2="312.092377" y2="322.138947" gradientTransform="matrix(0.0931224,0,0,0.0991127,8.120282,34.091811)">
<stop offset="0" style="stop-color:rgb(75.686276%,0%,0%);stop-opacity:1;"/>
<stop offset="1" style="stop-color:rgb(100%,26.274511%,24.313726%);stop-opacity:1;"/>
</linearGradient>
<linearGradient id="linear5" gradientUnits="userSpaceOnUse" x1="53.1273" y1="122.476189" x2="65.800056" y2="113.286598" gradientTransform="matrix(0.642857,0,0,0.684211,1.40625,-3.755431)">
<stop offset="0" style="stop-color:rgb(100%,84.705883%,75.686276%);stop-opacity:1;"/>
<stop offset="1" style="stop-color:rgb(100%,92.941177%,92.941177%);stop-opacity:1;"/>
</linearGradient>
<linearGradient id="linear6" gradientUnits="userSpaceOnUse" x1="-21.763636" y1="46.290909" x2="-101.909103" y2="98.109093" gradientTransform="matrix(0.642857,0,0,0.684211,102.334821,-9.913531)">
<stop offset="0" style="stop-color:rgb(100%,100%,100%);stop-opacity:1;"/>
<stop offset="1" style="stop-color:rgb(100%,100%,100%);stop-opacity:0;"/>
</linearGradient>
</defs>
<g id="surface1">
<path style=" stroke:none;fill-rule:nonzero;fill:rgb(0%,0%,0%);fill-opacity:0.498039;" d="M 13.5 3.421875 L 79.714844 3.421875 C 85.414062 3.421875 90 8.304688 90 14.367188 L 90 119.050781 C 90 125.117188 85.414062 130 79.714844 130 L 13.5 130 C 7.800781 130 3.214844 125.117188 3.214844 119.050781 L 3.214844 14.367188 C 3.214844 8.304688 7.800781 3.421875 13.5 3.421875 Z M 13.5 3.421875 "/>
<path style=" stroke:none;fill-rule:nonzero;fill:rgb(90.588236%,90.588236%,90.588236%);fill-opacity:1;" d="M 10.929688 0.683594 L 77.144531 0.683594 C 82.839844 0.683594 87.429688 5.566406 87.429688 11.632812 L 87.429688 116.316406 C 87.429688 122.378906 82.839844 127.261719 77.144531 127.261719 L 10.929688 127.261719 C 5.230469 127.261719 0.644531 122.378906 0.644531 116.316406 L 0.644531 11.632812 C 0.644531 5.566406 5.230469 0.683594 10.929688 0.683594 Z M 10.929688 0.683594 "/>
<path style=" stroke:none;fill-rule:nonzero;fill:rgb(78.039217%,53.725493%,12.156863%);fill-opacity:1;" d="M 12.214844 2.050781 L 78.429688 2.050781 C 84.125 2.050781 88.714844 6.933594 88.714844 13 L 88.714844 117.683594 C 88.714844 123.75 84.125 128.632812 78.429688 128.632812 L 12.214844 128.632812 C 6.515625 128.632812 1.929688 123.75 1.929688 117.683594 L 1.929688 13 C 1.929688 6.933594 6.515625 2.050781 12.214844 2.050781 Z M 12.214844 2.050781 "/>
<path style=" stroke:none;fill-rule:nonzero;fill:rgb(100%,100%,100%);fill-opacity:1;" d="M 11.570312 1.367188 L 77.785156 1.367188 C 83.484375 1.367188 88.070312 6.25 88.070312 12.316406 L 88.070312 117 C 88.070312 123.066406 83.484375 127.949219 77.785156 127.949219 L 11.570312 127.949219 C 5.875 127.949219 1.285156 123.066406 1.285156 117 L 1.285156 12.316406 C 1.285156 6.25 5.875 1.367188 11.570312 1.367188 Z M 11.570312 1.367188 "/>
<path style=" stroke:none;fill-rule:nonzero;fill:rgb(0%,0%,0%);fill-opacity:1;" d="M 14.167969 29.273438 L 13.847656 29.273438 C 11.21875 29.273438 9.175781 28.335938 7.71875 26.46875 C 6.257812 24.597656 5.527344 21.996094 5.527344 18.660156 C 5.527344 15.332031 6.253906 12.722656 7.707031 10.835938 C 9.164062 8.949219 11.171875 8.003906 13.730469 8.003906 C 16.3125 8.003906 18.324219 8.9375 19.765625 10.808594 C 21.210938 12.679688 21.933594 15.292969 21.933594 18.660156 C 21.933594 20.96875 21.546875 22.957031 20.777344 24.625 C 20.015625 26.292969 18.917969 27.550781 17.480469 28.390625 L 20.691406 33.011719 L 16.773438 33.011719 L 14.167969 29.273438 M 13.730469 11.839844 C 12.476562 11.839844 11.503906 12.433594 10.8125 13.625 C 10.125 14.816406 9.777344 16.496094 9.777344 18.660156 C 9.777344 20.859375 10.117188 22.542969 10.792969 23.71875 C 11.46875 24.882812 12.449219 25.464844 13.730469 25.464844 C 14.988281 25.464844 15.964844 24.867188 16.65625 23.675781 C 17.347656 22.484375 17.691406 20.8125 17.691406 18.660156 C 17.691406 16.496094 17.347656 14.816406 16.65625 13.625 C 15.964844 12.433594 14.988281 11.839844 13.730469 11.839844 "/>
<path style=" stroke:none;fill-rule:nonzero;fill:rgb(0%,0%,0%);fill-opacity:1;" d="M 74.988281 99.953125 L 75.308594 99.953125 C 77.9375 99.953125 79.980469 100.890625 81.441406 102.757812 C 82.902344 104.628906 83.628906 107.230469 83.628906 110.566406 C 83.628906 113.894531 82.902344 116.503906 81.453125 118.390625 C 79.992188 120.277344 77.984375 121.222656 75.429688 121.222656 C 72.84375 121.222656 70.832031 120.289062 69.394531 118.417969 C 67.949219 116.550781 67.226562 113.933594 67.226562 110.566406 C 67.226562 108.257812 67.609375 106.269531 68.378906 104.601562 C 69.140625 102.933594 70.242188 101.675781 71.679688 100.835938 L 68.464844 96.214844 L 72.382812 96.214844 L 74.988281 99.953125 M 75.429688 117.386719 C 76.679688 117.386719 77.652344 116.792969 78.34375 115.601562 C 79.035156 114.410156 79.378906 112.730469 79.378906 110.566406 C 79.378906 108.367188 79.042969 106.683594 78.363281 105.507812 C 77.6875 104.34375 76.710938 103.761719 75.429688 103.761719 C 74.167969 103.761719 73.191406 104.359375 72.5 105.550781 C 71.8125 106.742188 71.464844 108.414062 71.464844 110.566406 C 71.464844 112.730469 71.8125 114.410156 72.5 115.601562 C 73.191406 116.792969 74.167969 117.386719 75.429688 117.386719 "/>
<path style=" stroke:none;fill-rule:evenodd;fill:rgb(0%,0%,0%);fill-opacity:1;" d="M 13.269531 33.296875 C 10.105469 38.652344 0.390625 47.765625 6.546875 50.582031 C 10.28125 51.878906 12.058594 49.226562 12.8125 47.46875 L 12.960938 47.46875 L 10.480469 56.328125 L 16.226562 56.300781 C 16.226562 56.300781 13.753906 47.785156 13.746094 47.460938 L 13.808594 47.460938 C 14.414062 48.894531 16.722656 51.867188 19.261719 50.734375 C 26.683594 47.5625 15.753906 38.539062 13.269531 33.296875 Z M 13.269531 33.296875 "/>
<path style=" stroke:none;fill-rule:evenodd;fill:rgb(0%,0%,0%);fill-opacity:1;" d="M 75.878906 95.789062 C 79.046875 90.4375 88.757812 81.320312 82.605469 78.503906 C 78.871094 77.207031 77.09375 79.859375 76.339844 81.617188 L 76.1875 81.617188 L 78.667969 72.757812 L 72.925781 72.785156 C 72.925781 72.785156 75.398438 81.300781 75.40625 81.625 L 75.34375 81.625 C 74.738281 80.191406 72.429688 77.21875 69.890625 78.351562 C 62.46875 81.523438 73.398438 90.546875 75.878906 95.789062 Z M 75.878906 95.789062 "/>
<path style=" stroke:none;fill-rule:nonzero;fill:rgb(0%,0%,0%);fill-opacity:1;" d="M 35.894531 31.511719 C 36.054688 37.253906 30.253906 23.410156 32.714844 32.210938 C 32.597656 35.59375 36.40625 40.863281 33.769531 42.921875 C 30.242188 45.109375 27.71875 48.859375 26.519531 52.992188 C 30.839844 52.339844 28.308594 56.28125 28.761719 59.082031 C 28.894531 64.386719 32.492188 70.121094 36.972656 72.695312 C 31.53125 73.8125 29.554688 78.777344 30.113281 83.570312 C 26.453125 86.1875 30.109375 89.71875 29.566406 92.140625 C 30.609375 94.871094 35.316406 94.714844 37.96875 95.519531 C 44.734375 96.117188 51.75 95.890625 58.117188 93.125 C 57.589844 86.675781 60.84375 77.890625 52.789062 73.527344 C 56.789062 73.445312 61.851562 72.453125 65.730469 71.550781 C 61.320312 69.699219 53.566406 67.734375 54.957031 61.078125 C 55.945312 53.230469 53.496094 42.722656 45.039062 41.253906 C 45.703125 36.925781 46.679688 32.636719 46.648438 28.230469 C 42.996094 38.160156 43.722656 22.195312 42.007812 29.066406 C 40.6875 34.402344 39.742188 21.964844 38.675781 31.101562 C 37.40625 29.609375 36.296875 21.496094 36.199219 29.546875 Z M 35.894531 31.511719 "/>
<path style=" stroke:none;fill-rule:nonzero;fill:url(#linear0);" d="M 51.691406 58.285156 C 51.691406 66.09375 46.832031 72.429688 40.839844 72.429688 C 34.847656 72.429688 29.984375 66.09375 29.984375 58.285156 C 29.984375 50.476562 34.847656 44.136719 40.839844 44.136719 C 46.832031 44.136719 51.691406 50.476562 51.691406 58.285156 Z M 51.691406 58.285156 "/>
<path style=" stroke:none;fill-rule:nonzero;fill:url(#linear1);" d="M 38.882812 73.21875 C 34.351562 73.21875 30.707031 77.097656 30.707031 81.921875 L 30.707031 84.101562 C 29.949219 85.355469 29.207031 86.535156 29.363281 87.5 C 29.476562 88.214844 30.066406 88.796875 30.707031 89.296875 L 30.707031 92.121094 C 36.738281 95.300781 49.691406 95.46875 56.824219 92.121094 L 56.824219 81.921875 C 56.824219 77.097656 53.179688 73.21875 48.648438 73.21875 Z M 38.882812 73.21875 "/>
<path style=" stroke:none;fill-rule:evenodd;fill:rgb(0%,0%,0%);fill-opacity:1;" d="M 28.277344 51.917969 C 28.277344 51.917969 30.78125 42.25 41.527344 42.058594 C 52.09375 41.867188 54.914062 51.558594 53.722656 62.472656 C 52.621094 68.289062 61.371094 71.21875 61.371094 71.21875 C 58.253906 72.296875 50.796875 73.28125 46.140625 71.574219 C 50.183594 68.339844 46.8125 52.859375 44.609375 50.851562 C 41.867188 53.167969 31.089844 52.96875 28.277344 51.917969 Z M 28.277344 51.917969 "/>
<path style=" stroke:none;fill-rule:nonzero;fill:rgb(100%,100%,100%);fill-opacity:1;" d="M 40.621094 57.863281 C 40.621094 59.042969 39.742188 59.996094 38.664062 59.996094 C 37.585938 59.996094 36.707031 59.042969 36.707031 57.863281 C 36.707031 56.6875 37.585938 55.734375 38.664062 55.734375 C 39.742188 55.734375 40.621094 56.6875 40.621094 57.863281 Z M 40.621094 57.863281 "/>
<path style=" stroke:none;fill-rule:nonzero;fill:rgb(9.411765%,15.686275%,80.784315%);fill-opacity:1;" d="M 38.945312 57.914062 C 38.945312 58.898438 38.441406 59.699219 37.828125 59.699219 C 37.210938 59.699219 36.707031 58.898438 36.707031 57.914062 C 36.707031 56.929688 37.210938 56.128906 37.828125 56.128906 C 38.441406 56.128906 38.945312 56.929688 38.945312 57.914062 Z M 38.945312 57.914062 "/>
<path style=" stroke:none;fill-rule:nonzero;fill:rgb(0%,0%,0%);fill-opacity:1;" d="M 38.105469 58.0625 C 38.105469 58.855469 37.792969 59.5 37.40625 59.5 C 37.023438 59.5 36.707031 58.855469 36.707031 58.0625 C 36.707031 57.269531 37.023438 56.625 37.40625 56.625 C 37.792969 56.625 38.105469 57.269531 38.105469 58.0625 Z M 38.105469 58.0625 "/>
<path style=" stroke:none;fill-rule:evenodd;fill:url(#linear2);" d="M 36.246094 35.457031 L 37.019531 29.8125 L 39.945312 37.449219 C 39.945312 37.449219 42.5625 29.28125 42.5625 29.546875 C 42.5625 29.8125 44.335938 35.589844 44.335938 35.589844 L 42.949219 40.238281 L 37.019531 40.238281 Z M 36.246094 35.457031 "/>
<path style=" stroke:none;fill-rule:evenodd;fill:url(#linear3);" d="M 34.015625 32.269531 L 36.785156 44.15625 C 38.867188 44.863281 41.40625 44.777344 43.257812 44.222656 L 45.179688 32.402344 L 41.792969 38.3125 L 40.019531 30.410156 L 38.25 38.246094 Z M 34.015625 32.269531 "/>
<path style=" stroke:none;fill-rule:nonzero;fill:rgb(100%,100%,100%);fill-opacity:1;" d="M 34.132812 57.519531 C 34.132812 58.695312 33.257812 59.652344 32.179688 59.652344 C 31.097656 59.652344 30.222656 58.695312 30.222656 57.519531 C 30.222656 56.34375 31.097656 55.390625 32.179688 55.390625 C 33.257812 55.390625 34.132812 56.34375 34.132812 57.519531 Z M 34.132812 57.519531 "/>
<path style=" stroke:none;fill-rule:nonzero;fill:rgb(9.411765%,15.686275%,80.784315%);fill-opacity:1;" d="M 32.457031 57.570312 C 32.457031 58.554688 31.957031 59.355469 31.339844 59.355469 C 30.722656 59.355469 30.222656 58.554688 30.222656 57.570312 C 30.222656 56.585938 30.722656 55.785156 31.339844 55.785156 C 31.957031 55.785156 32.457031 56.585938 32.457031 57.570312 Z M 32.457031 57.570312 "/>
<path style=" stroke:none;fill-rule:nonzero;fill:rgb(0%,0%,0%);fill-opacity:1;" d="M 31.621094 57.71875 C 31.621094 58.511719 31.308594 59.15625 30.921875 59.15625 C 30.535156 59.15625 30.222656 58.511719 30.222656 57.71875 C 30.222656 56.925781 30.535156 56.28125 30.921875 56.28125 C 31.308594 56.28125 31.621094 56.925781 31.621094 57.71875 Z M 31.621094 57.71875 "/>
<path style=" stroke:none;fill-rule:evenodd;fill:url(#linear4);" d="M 33.414062 66.519531 C 35.683594 69.539062 37.871094 68.503906 40.953125 66.519531 C 38.195312 66.347656 36.332031 65.484375 33.414062 66.519531 Z M 33.414062 66.519531 "/>
<path style=" stroke:none;fill-rule:nonzero;fill:rgb(43.921569%,0%,0%);fill-opacity:1;" d="M 47.957031 84.074219 L 48.769531 84.160156 L 49.652344 94.089844 L 47.421875 94.257812 Z M 47.957031 84.074219 "/>
<path style=" stroke:none;fill-rule:evenodd;fill:rgb(43.921569%,0%,0%);fill-opacity:1;" d="M 37.265625 87.800781 L 36.742188 88.183594 C 38.058594 90.210938 39.148438 92.066406 40.527344 92.328125 C 41.90625 92.59375 43.53125 91.269531 44.839844 90.644531 L 44.578125 90.023438 C 43.320312 90.625 42.105469 90.996094 40.921875 90.773438 C 39.738281 90.546875 38.515625 89.730469 37.265625 87.800781 Z M 37.265625 87.800781 "/>
<path style=" stroke:none;fill-rule:evenodd;fill:rgb(0%,0%,0%);fill-opacity:1;" d="M 34.480469 59.375 C 33.972656 60.253906 33.367188 61.078125 33.472656 61.742188 C 33.578125 62.40625 34.398438 62.886719 34.90625 63.273438 L 35.121094 62.945312 C 34.671875 62.609375 34.378906 62.171875 34.292969 61.625 C 34.207031 61.078125 34.324219 60.398438 34.800781 59.574219 Z M 34.480469 59.375 "/>
<path style=" stroke:none;fill-rule:evenodd;fill:url(#linear5);" d="M 37.589844 73.585938 C 37.589844 73.585938 33.527344 81.640625 34.453125 87.535156 C 37.960938 80.855469 42.574219 74.371094 45.160156 73.191406 C 44.234375 72.800781 38.511719 72.996094 37.589844 73.585938 Z M 37.589844 73.585938 "/>
<path style=" stroke:none;fill-rule:evenodd;fill:rgb(43.921569%,0%,0%);fill-opacity:1;" d="M 29.304688 87.449219 C 29.484375 88.582031 30.882812 89.398438 31.746094 90.050781 L 31.953125 89.863281 C 31.195312 89.292969 30.820312 89.210938 30.671875 88.28125 C 30.523438 87.351562 29.125 86.316406 29.304688 87.449219 Z M 29.304688 87.449219 "/>
<path style=" stroke:none;fill-rule:nonzero;fill:url(#linear6);" d="M 42.570312 29.558594 C 42.570312 29.390625 41.6875 32.105469 40.921875 34.476562 L 40.019531 30.414062 L 38.992188 34.964844 L 37.023438 29.8125 L 36.242188 35.414062 L 34.011719 32.273438 L 36.523438 43.070312 C 30.03125 45.53125 28.285156 51.921875 28.285156 51.921875 C 28.859375 52.136719 29.902344 52.285156 30.996094 52.414062 C 30.367188 54.207031 29.992188 56.191406 29.992188 58.292969 C 29.992188 66.101562 34.851562 72.425781 40.839844 72.425781 C 43.324219 72.425781 45.582031 71.285156 47.410156 69.453125 C 47.109375 70.347656 46.726562 71.109375 46.144531 71.570312 C 50.800781 73.28125 58.253906 72.308594 61.371094 71.230469 C 61.371094 71.230469 52.617188 68.28125 53.71875 62.464844 C 54.824219 52.324219 52.386719 43.363281 43.574219 42.277344 L 45.179688 32.402344 L 43.996094 34.453125 C 43.554688 33.011719 42.570312 29.773438 42.570312 29.558594 Z M 38.894531 73.21875 C 34.359375 73.21875 30.714844 77.097656 30.714844 81.921875 L 30.714844 84.101562 C 29.960938 85.355469 29.21875 86.53125 29.371094 87.5 C 29.484375 88.214844 30.074219 88.796875 30.714844 89.296875 L 30.714844 92.140625 C 34.582031 94.179688 41.234375 94.828125 47.429688 94.257812 C 48.167969 94.191406 48.921875 94.195312 49.640625 94.085938 C 52.296875 93.691406 54.816406 93.085938 56.832031 92.140625 L 56.832031 81.921875 C 56.832031 77.097656 53.167969 73.21875 48.636719 73.21875 Z M 38.894531 73.21875 "/>
</g>
</svg>
