<?xml version="1.0" encoding="UTF-8"?>
<svg xmlns="http://www.w3.org/2000/svg" xmlns:xlink="http://www.w3.org/1999/xlink" width="90px" height="130px" viewBox="0 0 90 130" version="1.1">
<defs>
<linearGradient id="linear0" gradientUnits="userSpaceOnUse" x1="356.442322" y1="437.498871" x2="484.796082" y2="256.179657" gradientTransform="matrix(0.120116,0,0,0.0991127,-2.620237,27.231101)">
<stop offset="0" style="stop-color:rgb(100%,84.705883%,75.686276%);stop-opacity:1;"/>
<stop offset="1" style="stop-color:rgb(100%,92.941177%,92.941177%);stop-opacity:1;"/>
</linearGradient>
<linearGradient id="linear1" gradientUnits="userSpaceOnUse" x1="25.75" y1="103.13147" x2="32.217068" y2="101.982422" gradientTransform="matrix(0.642936,0,0,0.684211,16.470532,4.819437)">
<stop offset="0" style="stop-color:rgb(94.117647%,92.156863%,0%);stop-opacity:1;"/>
<stop offset="1" style="stop-color:rgb(100%,100%,0%);stop-opacity:1;"/>
</linearGradient>
<linearGradient id="linear2" gradientUnits="userSpaceOnUse" x1="298.985718" y1="540.539185" x2="449.323181" y2="415.53949" gradientTransform="matrix(0.0931337,0,0,0.0991127,11.778434,34.511372)">
<stop offset="0" style="stop-color:rgb(0%,51.372552%,80.000001%);stop-opacity:1;"/>
<stop offset="1" style="stop-color:rgb(14.117648%,64.313728%,80.000001%);stop-opacity:1;"/>
</linearGradient>
<linearGradient id="linear3" gradientUnits="userSpaceOnUse" x1="15.551833" y1="191.003525" x2="42.004787" y2="161.752655" gradientTransform="matrix(0.767068,0,0,0.573487,25.231596,-48.75)">
<stop offset="0" style="stop-color:rgb(94.117647%,65.490198%,0%);stop-opacity:1;"/>
<stop offset="1" style="stop-color:rgb(100%,92.941177%,0%);stop-opacity:1;"/>
</linearGradient>
<linearGradient id="linear4" gradientUnits="userSpaceOnUse" x1="294.246063" y1="346.326538" x2="312.092377" y2="322.138947" gradientTransform="matrix(0.0931337,0,0,0.0991127,12.034129,36.353883)">
<stop offset="0" style="stop-color:rgb(75.686276%,0%,0%);stop-opacity:1;"/>
<stop offset="1" style="stop-color:rgb(100%,26.274511%,24.313726%);stop-opacity:1;"/>
</linearGradient>
<linearGradient id="linear5" gradientUnits="userSpaceOnUse" x1="22.545038" y1="209.020767" x2="39.467037" y2="191.220932" gradientTransform="matrix(0.737744,0,0,0.596281,25.231596,-48.75)">
<stop offset="0" style="stop-color:rgb(94.117647%,65.490198%,0%);stop-opacity:1;"/>
<stop offset="1" style="stop-color:rgb(100%,92.941177%,0%);stop-opacity:1;"/>
</linearGradient>
<linearGradient id="linear6" gradientUnits="userSpaceOnUse" x1="15.082837" y1="198.429306" x2="20.210339" y2="193.819489" gradientTransform="matrix(0.740421,0,0,0.594125,25.231596,-48.75)">
<stop offset="0" style="stop-color:rgb(94.117647%,65.490198%,0%);stop-opacity:1;"/>
<stop offset="1" style="stop-color:rgb(100%,92.941177%,0%);stop-opacity:1;"/>
</linearGradient>
<linearGradient id="linear7" gradientUnits="userSpaceOnUse" x1="18.527365" y1="243.976471" x2="21.820797" y2="240.325958" gradientTransform="matrix(0.923076,0,0,0.476562,25.231596,-48.75)">
<stop offset="0" style="stop-color:rgb(94.117647%,65.490198%,0%);stop-opacity:1;"/>
<stop offset="1" style="stop-color:rgb(100%,92.941177%,0%);stop-opacity:1;"/>
</linearGradient>
<linearGradient id="linear8" gradientUnits="userSpaceOnUse" x1="32.463516" y1="58.34021" x2="60" y2="51.180752" gradientTransform="matrix(0.642936,0,0,0.684211,16.470532,4.819437)">
<stop offset="0" style="stop-color:rgb(94.117647%,65.490198%,0%);stop-opacity:1;"/>
<stop offset="1" style="stop-color:rgb(100%,92.941177%,0%);stop-opacity:1;"/>
</linearGradient>
<linearGradient id="linear9" gradientUnits="userSpaceOnUse" x1="32.968857" y1="63.941719" x2="60.722794" y2="56.605484" gradientTransform="matrix(0.642936,0,0,0.684211,16.470532,4.819437)">
<stop offset="0" style="stop-color:rgb(94.117647%,92.156863%,0%);stop-opacity:1;"/>
<stop offset="1" style="stop-color:rgb(100%,100%,0%);stop-opacity:1;"/>
</linearGradient>
<linearGradient id="linear10" gradientUnits="userSpaceOnUse" x1="58.247921" y1="104.915657" x2="61.035088" y2="103.147903" gradientTransform="matrix(0.642936,0,0,0.684211,16.470532,4.819437)">
<stop offset="0" style="stop-color:rgb(94.117647%,92.156863%,0%);stop-opacity:1;"/>
<stop offset="1" style="stop-color:rgb(100%,100%,0%);stop-opacity:1;"/>
</linearGradient>
<linearGradient id="linear11" gradientUnits="userSpaceOnUse" x1="36.313263" y1="116.761482" x2="43.598351" y2="110.927856" gradientTransform="matrix(0.642936,0,0,0.684211,18.605046,6.953309)">
<stop offset="0" style="stop-color:rgb(94.117647%,92.156863%,0%);stop-opacity:1;"/>
<stop offset="1" style="stop-color:rgb(100%,100%,0%);stop-opacity:1;"/>
</linearGradient>
<linearGradient id="linear12" gradientUnits="userSpaceOnUse" x1="688.303711" y1="-31.9296" x2="361.498077" y2="346.667114" gradientTransform="matrix(0.120116,0,0,0.0991127,-2.61915,27.230005)">
<stop offset="0" style="stop-color:rgb(100%,100%,100%);stop-opacity:1;"/>
<stop offset="1" style="stop-color:rgb(100%,100%,100%);stop-opacity:0;"/>
</linearGradient>
</defs>
<g id="surface1">
<path style=" stroke:none;fill-rule:nonzero;fill:rgb(0%,0%,0%);fill-opacity:0.498039;" d="M 13.5 3.421875 L 79.714844 3.421875 C 85.414062 3.421875 90 8.304688 90 14.367188 L 90 119.050781 C 90 125.117188 85.414062 130 79.714844 130 L 13.5 130 C 7.800781 130 3.214844 125.117188 3.214844 119.050781 L 3.214844 14.367188 C 3.214844 8.304688 7.800781 3.421875 13.5 3.421875 Z M 13.5 3.421875 "/>
<path style=" stroke:none;fill-rule:nonzero;fill:rgb(90.588236%,90.588236%,90.588236%);fill-opacity:1;" d="M 10.929688 0.683594 L 77.144531 0.683594 C 82.839844 0.683594 87.429688 5.566406 87.429688 11.632812 L 87.429688 116.316406 C 87.429688 122.378906 82.839844 127.261719 77.144531 127.261719 L 10.929688 127.261719 C 5.230469 127.261719 0.644531 122.378906 0.644531 116.316406 L 0.644531 11.632812 C 0.644531 5.566406 5.230469 0.683594 10.929688 0.683594 Z M 10.929688 0.683594 "/>
<path style=" stroke:none;fill-rule:nonzero;fill:rgb(78.039217%,53.725493%,12.156863%);fill-opacity:1;" d="M 12.214844 2.050781 L 78.429688 2.050781 C 84.125 2.050781 88.714844 6.933594 88.714844 13 L 88.714844 117.683594 C 88.714844 123.75 84.125 128.632812 78.429688 128.632812 L 12.214844 128.632812 C 6.515625 128.632812 1.929688 123.75 1.929688 117.683594 L 1.929688 13 C 1.929688 6.933594 6.515625 2.050781 12.214844 2.050781 Z M 12.214844 2.050781 "/>
<path style=" stroke:none;fill-rule:nonzero;fill:rgb(100%,100%,100%);fill-opacity:1;" d="M 11.570312 1.367188 L 77.785156 1.367188 C 83.484375 1.367188 88.070312 6.25 88.070312 12.316406 L 88.070312 117 C 88.070312 123.066406 83.484375 127.949219 77.785156 127.949219 L 11.570312 127.949219 C 5.875 127.949219 1.285156 123.066406 1.285156 117 L 1.285156 12.316406 C 1.285156 6.25 5.875 1.367188 11.570312 1.367188 Z M 11.570312 1.367188 "/>
<path style=" stroke:none;fill-rule:nonzero;fill:rgb(100%,0%,0%);fill-opacity:1;" d="M 6.445312 8.375 L 10.558594 8.375 L 10.558594 15.867188 L 16.484375 8.375 L 21.257812 8.375 L 13.582031 18.09375 L 22.050781 28.902344 L 16.902344 28.902344 L 10.558594 20.816406 L 10.558594 28.902344 L 6.445312 28.902344 L 6.445312 8.375 "/>
<path style=" stroke:none;fill-rule:nonzero;fill:rgb(100%,0%,0%);fill-opacity:1;" d="M 82.710938 120.851562 L 78.601562 120.851562 L 78.601562 113.359375 L 72.671875 120.851562 L 67.898438 120.851562 L 75.578125 111.132812 L 67.109375 100.324219 L 72.257812 100.324219 L 78.601562 108.410156 L 78.601562 100.324219 L 82.710938 100.324219 L 82.710938 120.851562 "/>
<path style=" stroke:none;fill-rule:evenodd;fill:rgb(100%,0%,0%);fill-opacity:1;" d="M 13.121094 33.296875 C 10.46875 38.9375 8.535156 41.847656 4.546875 44.957031 C 8.320312 48.027344 10.980469 51.199219 13.199219 56.328125 C 15.175781 51.457031 17.597656 47.824219 21.804688 44.804688 C 17.574219 42.511719 15.125 38.882812 13.121094 33.296875 Z M 13.121094 33.296875 "/>
<path style=" stroke:none;fill-rule:evenodd;fill:rgb(100%,0%,0%);fill-opacity:1;" d="M 76.074219 72.757812 C 73.421875 78.402344 71.488281 81.308594 67.5 84.417969 C 71.273438 87.488281 73.9375 90.660156 76.152344 95.789062 C 78.132812 90.917969 80.554688 87.285156 84.761719 84.265625 C 80.53125 81.972656 78.078125 78.34375 76.074219 72.757812 Z M 76.074219 72.757812 "/>
<path style=" stroke:none;fill-rule:nonzero;fill:rgb(0%,0%,0%);fill-opacity:1;" d="M 43.792969 36.496094 C 42.515625 35.386719 41.59375 34.695312 40.078125 32.992188 C 38.941406 37.910156 37.503906 37.203125 35.558594 35.464844 C 33.617188 33.386719 33.769531 43.058594 30.027344 34.207031 C 28.949219 34.363281 31.144531 41.652344 31.441406 44.484375 C 33.671875 47.832031 30.148438 52.074219 31.265625 54.472656 C 34.953125 54.214844 31.675781 58.730469 32.78125 61.148438 C 33.023438 64.351562 34.082031 66.9375 34.492188 69.863281 C 40.726562 72.894531 29.078125 74.96875 31.777344 77.398438 C 32.289062 79.632812 30.777344 83.671875 31.417969 86.691406 C 30.960938 90.792969 31.015625 94.5 35.757812 94.6875 C 43.976562 96.382812 52.355469 96.324219 60.109375 93.082031 C 60.195312 88.300781 60.046875 82.882812 59.96875 78.480469 C 62.003906 75.835938 54.894531 74.03125 53.296875 71.648438 C 55.5625 68.691406 54.78125 62.941406 59.378906 62.53125 C 59.867188 58.25 58.472656 52.980469 56.332031 48.949219 C 57.019531 43.710938 57.839844 38.484375 58.300781 33.214844 C 53.691406 43.335938 55.546875 31.152344 53.511719 35.960938 C 52.191406 37.539062 51.390625 35.460938 50.550781 35.542969 C 49.71875 31.5625 48.207031 40.5 47.089844 33.042969 C 45.648438 39.296875 45.246094 28.730469 44.226562 35.144531 Z M 43.792969 36.496094 "/>
<path style=" stroke:none;fill-rule:nonzero;fill:url(#linear0);" d="M 55.613281 59.625 C 55.613281 67.4375 50.75 73.773438 44.757812 73.773438 C 38.765625 73.773438 33.902344 67.4375 33.902344 59.625 C 33.902344 51.816406 38.765625 45.480469 44.757812 45.480469 C 50.75 45.480469 55.613281 51.816406 55.613281 59.625 Z M 55.613281 59.625 "/>
<path style=" stroke:none;fill-rule:evenodd;fill:url(#linear1);" d="M 34.152344 77.515625 L 32.835938 76.539062 L 37.195312 72.757812 L 38.167969 74.949219 C 38.167969 74.949219 34.363281 77.699219 34.152344 77.515625 Z M 34.152344 77.515625 "/>
<path style=" stroke:none;fill-rule:nonzero;fill:url(#linear2);" d="M 40.882812 73.183594 C 36.351562 73.183594 32.703125 77.066406 32.703125 81.890625 L 32.703125 92.105469 C 38.730469 95.285156 51.683594 95.453125 58.816406 92.105469 L 58.816406 81.890625 C 58.816406 77.066406 55.167969 73.183594 50.636719 73.183594 Z M 40.882812 73.183594 "/>
<path style=" stroke:none;fill-rule:evenodd;fill:url(#linear3);" d="M 32.195312 53.261719 C 32.195312 53.261719 33.285156 43.425781 45.445312 43.402344 C 58.289062 43.964844 58.304688 61.53125 58.304688 61.53125 C 55.183594 62.609375 56.050781 63.761719 51.394531 62.050781 C 51.902344 58.152344 51.074219 55.292969 48.871094 53.285156 C 46.125 54.816406 35.007812 54.3125 32.195312 53.261719 Z M 32.195312 53.261719 "/>
<path style=" stroke:none;fill-rule:nonzero;fill:rgb(100%,100%,100%);fill-opacity:1;" d="M 44.410156 59.761719 C 44.410156 60.558594 43.535156 61.203125 42.453125 61.203125 C 41.375 61.203125 40.5 60.558594 40.5 59.761719 C 40.5 58.96875 41.375 58.324219 42.453125 58.324219 C 43.535156 58.324219 44.410156 58.96875 44.410156 59.761719 Z M 44.410156 59.761719 "/>
<path style=" stroke:none;fill-rule:nonzero;fill:rgb(5.882353%,56.470591%,80.000001%);fill-opacity:1;" d="M 42.734375 59.796875 C 42.734375 60.460938 42.234375 61.003906 41.617188 61.003906 C 41 61.003906 40.5 60.460938 40.5 59.796875 C 40.5 59.132812 41 58.589844 41.617188 58.589844 C 42.234375 58.589844 42.734375 59.132812 42.734375 59.796875 Z M 42.734375 59.796875 "/>
<path style=" stroke:none;fill-rule:nonzero;fill:rgb(0%,0%,0%);fill-opacity:1;" d="M 41.894531 59.898438 C 41.894531 60.433594 41.582031 60.867188 41.195312 60.867188 C 40.8125 60.867188 40.5 60.433594 40.5 59.898438 C 40.5 59.359375 40.8125 58.925781 41.195312 58.925781 C 41.582031 58.925781 41.894531 59.359375 41.894531 59.898438 Z M 41.894531 59.898438 "/>
<path style=" stroke:none;fill-rule:nonzero;fill:rgb(100%,100%,100%);fill-opacity:1;" d="M 37.925781 59.53125 C 37.925781 60.324219 37.046875 60.96875 35.96875 60.96875 C 34.886719 60.96875 34.011719 60.324219 34.011719 59.53125 C 34.011719 58.734375 34.886719 58.089844 35.96875 58.089844 C 37.046875 58.089844 37.925781 58.734375 37.925781 59.53125 Z M 37.925781 59.53125 "/>
<path style=" stroke:none;fill-rule:nonzero;fill:rgb(5.882353%,56.470591%,80.000001%);fill-opacity:1;" d="M 36.246094 59.5625 C 36.246094 60.230469 35.746094 60.769531 35.128906 60.769531 C 34.511719 60.769531 34.011719 60.230469 34.011719 59.5625 C 34.011719 58.898438 34.511719 58.359375 35.128906 58.359375 C 35.746094 58.359375 36.246094 58.898438 36.246094 59.5625 Z M 36.246094 59.5625 "/>
<path style=" stroke:none;fill-rule:nonzero;fill:rgb(0%,0%,0%);fill-opacity:1;" d="M 35.410156 59.664062 C 35.410156 60.199219 35.097656 60.636719 34.710938 60.636719 C 34.324219 60.636719 34.011719 60.199219 34.011719 59.664062 C 34.011719 59.128906 34.324219 58.691406 34.710938 58.691406 C 35.097656 58.691406 35.410156 59.128906 35.410156 59.664062 Z M 35.410156 59.664062 "/>
<path style=" stroke:none;fill-rule:evenodd;fill:url(#linear4);" d="M 37.332031 68.78125 C 39.207031 68.878906 42.023438 69.011719 44.871094 68.78125 C 41.878906 67.609375 39.777344 67.246094 37.332031 68.78125 Z M 37.332031 68.78125 "/>
<path style=" stroke:none;fill-rule:nonzero;fill:rgb(0%,29.803923%,69.01961%);fill-opacity:1;" d="M 49.945312 84.046875 L 50.757812 84.132812 L 51.640625 94.0625 L 49.414062 94.234375 Z M 49.945312 84.046875 "/>
<path style=" stroke:none;fill-rule:evenodd;fill:rgb(0%,0%,0%);fill-opacity:1;" d="M 38.398438 60.714844 C 37.890625 61.597656 37.148438 63.042969 37.253906 63.710938 C 37.359375 64.375 38.316406 64.230469 38.824219 64.613281 L 39.035156 64.289062 C 38.589844 63.949219 37.890625 64.28125 37.804688 63.734375 C 37.71875 63.1875 38.242188 61.742188 38.71875 60.917969 Z M 38.398438 60.714844 "/>
<path style=" stroke:none;fill-rule:evenodd;fill:url(#linear5);" d="M 39.515625 69.324219 C 40.222656 70.925781 39.085938 70.941406 38.578125 71.195312 C 38.183594 70.878906 37.335938 69.941406 37.074219 69.289062 C 36.992188 72.917969 38.183594 74.902344 39.046875 75.90625 C 39.910156 76.90625 45.015625 77.660156 47.761719 75.90625 C 50.511719 74.148438 56.273438 68.148438 53.140625 63.234375 C 52.710938 63.550781 51.929688 63.484375 51.375 63.371094 C 51.453125 64.457031 50.078125 67.605469 47.566406 68.773438 C 45.050781 69.945312 43.242188 70.226562 42.582031 71.277344 C 41.289062 71.316406 40.566406 70.765625 41.152344 69.339844 C 40.835938 69.449219 39.863281 69.324219 39.515625 69.324219 Z M 39.515625 69.324219 "/>
<path style=" stroke:none;fill-rule:evenodd;fill:url(#linear6);" d="M 40.105469 65.65625 C 40.105469 65.65625 35.550781 66.902344 35.28125 67.769531 C 35.007812 68.632812 35.957031 69.640625 35.957031 69.640625 C 35.957031 69.640625 38.933594 67 40.195312 67.046875 C 40.105469 66.710938 40.242188 66.28125 40.105469 65.65625 Z M 40.105469 65.65625 "/>
<path style=" stroke:none;fill-rule:evenodd;fill:url(#linear7);" d="M 40.453125 65.671875 C 40.453125 65.671875 45.214844 65.75 45.714844 66.488281 C 46.21875 67.226562 45.597656 68.488281 45.597656 68.488281 C 45.597656 68.488281 41.90625 66.519531 40.714844 66.96875 C 40.707031 66.617188 40.5 66.308594 40.453125 65.671875 Z M 40.453125 65.671875 "/>
<path style=" stroke:none;fill-rule:evenodd;fill:url(#linear8);" d="M 33.234375 41.34375 L 34.898438 36.828125 L 38.167969 41.597656 L 40.46875 35.617188 L 43.332031 41.464844 C 43.332031 41.464844 45.347656 35.417969 45.347656 35.878906 C 45.347656 36.34375 47.464844 42.191406 47.464844 42.191406 L 49.875 36.585938 L 51.476562 42.132812 L 54.242188 37.320312 L 55.046875 41.597656 L 55.046875 45.015625 C 55.046875 45.015625 37.367188 45.871094 35.757812 45.015625 C 34.152344 44.160156 33.179688 41.445312 33.234375 41.34375 Z M 33.234375 41.34375 "/>
<path style=" stroke:none;fill-rule:evenodd;fill:url(#linear9);" d="M 33.6875 49.246094 C 40.167969 50.878906 48.238281 50.9375 55 49.246094 C 55 49.246094 56.535156 37.9375 56.535156 37.9375 L 53.578125 42.410156 L 51.761719 37.332031 L 49.488281 42.289062 L 47.15625 36.605469 L 45.054688 42.230469 L 42.667969 36.726562 L 40.566406 42.714844 L 37.441406 37.511719 L 35.109375 42.894531 L 31.53125 38.179688 C 31.53125 38.179688 33.519531 49.003906 33.6875 49.246094 Z M 33.6875 49.246094 "/>
<path style=" stroke:none;fill-rule:evenodd;fill:url(#linear10);" d="M 53.296875 72.890625 C 52.863281 73.242188 51.417969 74.523438 51.417969 74.523438 L 57.457031 79.226562 L 59.066406 77.515625 Z M 53.296875 72.890625 "/>
<path style=" stroke:none;fill-rule:evenodd;fill:rgb(100%,53.725493%,0%);fill-opacity:1;" d="M 44.21875 84.570312 L 39.757812 79.132812 L 50.945312 79.132812 Z M 44.21875 84.570312 "/>
<path style=" stroke:none;fill-rule:evenodd;fill:url(#linear11);" d="M 42.757812 80.574219 L 40.984375 82.898438 L 43.519531 84.78125 L 40.769531 86.878906 L 42.601562 88.816406 L 44.460938 85.449219 L 46.382812 88.746094 L 48.339844 86.492188 L 45.125 84.78125 L 48.164062 82.578125 L 46.15625 80.695312 L 44.519531 84.109375 Z M 42.757812 80.574219 "/>
<path style=" stroke:none;fill-rule:nonzero;fill:url(#linear12);" d="M 40.460938 35.609375 L 38.832031 39.839844 L 37.449219 37.511719 L 36.644531 39.371094 L 34.894531 36.828125 L 33.46875 40.71875 L 31.539062 38.171875 C 31.539062 38.171875 33.519531 49.007812 33.691406 49.25 C 33.695312 49.25 33.703125 49.246094 33.710938 49.25 C 32.460938 51.367188 32.203125 53.269531 32.203125 53.269531 C 32.761719 53.476562 33.816406 53.648438 34.894531 53.804688 C 34.273438 55.585938 33.910156 57.535156 33.910156 59.621094 C 33.910156 62.503906 34.578125 65.183594 35.71875 67.421875 C 35.566406 67.542969 35.3125 67.65625 35.277344 67.765625 C 35.007812 68.628906 35.960938 69.648438 35.960938 69.648438 C 35.960938 69.648438 36.46875 69.261719 36.722656 69.046875 C 36.851562 69.234375 36.949219 69.449219 37.085938 69.625 C 37.089844 71.441406 37.417969 72.777344 37.847656 73.816406 C 37.796875 73.839844 37.738281 73.835938 37.6875 73.859375 L 37.207031 72.746094 L 32.847656 76.53125 L 34.03125 77.429688 C 33.269531 78.753906 32.707031 80.226562 32.707031 81.898438 L 32.707031 92.097656 C 36.570312 94.136719 43.222656 94.785156 49.421875 94.214844 L 49.421875 94.234375 L 51.632812 94.066406 L 51.632812 94.042969 C 54.289062 93.648438 56.808594 93.042969 58.824219 92.097656 L 58.824219 81.898438 C 58.824219 80.683594 58.582031 79.527344 58.160156 78.476562 L 59.066406 77.515625 L 53.300781 72.898438 C 53.148438 73.019531 52.933594 73.214844 52.636719 73.472656 C 52.03125 73.3125 51.398438 73.207031 50.75 73.195312 C 52.316406 71.460938 53.777344 69.261719 54.003906 66.953125 C 54.597656 65.6875 55.042969 64.3125 55.308594 62.828125 C 56.117188 62.640625 56.675781 62.085938 58.300781 61.523438 C 58.300781 61.523438 58.277344 54.496094 55.007812 49.183594 C 55.023438 49.0625 56.535156 37.9375 56.535156 37.9375 L 54.847656 40.503906 L 54.242188 37.316406 L 52.71875 39.992188 L 51.753906 37.339844 L 50.726562 39.5625 L 49.882812 36.589844 L 48.476562 39.863281 L 47.152344 36.613281 L 46.328125 38.816406 C 45.839844 37.402344 45.34375 36.101562 45.34375 35.886719 C 45.34375 35.566406 44.550781 37.957031 43.957031 39.714844 L 42.671875 36.71875 L 41.96875 38.6875 Z M 40.460938 35.609375 "/>
</g>
</svg>
