<?xml version="1.0" encoding="UTF-8"?>
<svg xmlns="http://www.w3.org/2000/svg" xmlns:xlink="http://www.w3.org/1999/xlink" width="90px" height="130px" viewBox="0 0 90 130" version="1.1">
<g id="surface1">
<path style=" stroke:none;fill-rule:nonzero;fill:rgb(0%,0%,0%);fill-opacity:0.498039;" d="M 13.5 3.421875 L 79.714844 3.421875 C 85.414062 3.421875 90 8.304688 90 14.367188 L 90 119.050781 C 90 125.117188 85.414062 130 79.714844 130 L 13.5 130 C 7.800781 130 3.214844 125.117188 3.214844 119.050781 L 3.214844 14.367188 C 3.214844 8.304688 7.800781 3.421875 13.5 3.421875 Z M 13.5 3.421875 "/>
<path style=" stroke:none;fill-rule:nonzero;fill:rgb(90.588236%,90.588236%,90.588236%);fill-opacity:1;" d="M 10.929688 0.683594 L 77.144531 0.683594 C 82.839844 0.683594 87.429688 5.566406 87.429688 11.632812 L 87.429688 116.316406 C 87.429688 122.378906 82.839844 127.261719 77.144531 127.261719 L 10.929688 127.261719 C 5.230469 127.261719 0.644531 122.378906 0.644531 116.316406 L 0.644531 11.632812 C 0.644531 5.566406 5.230469 0.683594 10.929688 0.683594 Z M 10.929688 0.683594 "/>
<path style=" stroke:none;fill-rule:nonzero;fill:rgb(78.039217%,53.725493%,12.156863%);fill-opacity:1;" d="M 12.214844 2.050781 L 78.429688 2.050781 C 84.125 2.050781 88.714844 6.933594 88.714844 13 L 88.714844 117.683594 C 88.714844 123.75 84.125 128.632812 78.429688 128.632812 L 12.214844 128.632812 C 6.515625 128.632812 1.929688 123.75 1.929688 117.683594 L 1.929688 13 C 1.929688 6.933594 6.515625 2.050781 12.214844 2.050781 Z M 12.214844 2.050781 "/>
<path style=" stroke:none;fill-rule:nonzero;fill:rgb(100%,100%,100%);fill-opacity:1;" d="M 11.570312 1.367188 L 77.785156 1.367188 C 83.484375 1.367188 88.070312 6.25 88.070312 12.316406 L 88.070312 117 C 88.070312 123.066406 83.484375 127.949219 77.785156 127.949219 L 11.570312 127.949219 C 5.875 127.949219 1.285156 123.066406 1.285156 117 L 1.285156 12.316406 C 1.285156 6.25 5.875 1.367188 11.570312 1.367188 Z M 11.570312 1.367188 "/>
<path style=" stroke:none;fill-rule:evenodd;fill:rgb(0%,0%,0%);fill-opacity:1;" d="M 32.957031 30.789062 C 31.113281 33.933594 25.453125 39.292969 29.039062 40.945312 C 31.214844 41.707031 32.25 40.148438 32.6875 39.117188 L 32.777344 39.117188 L 31.332031 44.320312 L 34.679688 44.304688 C 34.679688 44.304688 33.238281 39.304688 33.234375 39.113281 L 33.269531 39.113281 C 33.625 39.953125 34.96875 41.699219 36.445312 41.035156 C 40.769531 39.171875 34.402344 33.871094 32.957031 30.789062 Z M 32.957031 30.789062 "/>
<path style=" stroke:none;fill-rule:evenodd;fill:rgb(0%,0%,0%);fill-opacity:1;" d="M 34.132812 97.003906 C 35.976562 93.859375 41.632812 88.503906 38.050781 86.847656 C 35.871094 86.089844 34.835938 87.644531 34.398438 88.679688 L 34.3125 88.679688 L 35.757812 83.472656 L 32.410156 83.488281 C 32.410156 83.488281 33.851562 88.492188 33.855469 88.683594 L 33.820312 88.683594 C 33.464844 87.839844 32.121094 86.09375 30.640625 86.757812 C 26.320312 88.621094 32.683594 93.925781 34.132812 97.003906 Z M 34.132812 97.003906 "/>
<path style=" stroke:none;fill-rule:evenodd;fill:rgb(0%,0%,0%);fill-opacity:1;" d="M 56.101562 30.789062 C 54.257812 33.933594 48.597656 39.292969 52.183594 40.945312 C 54.359375 41.707031 55.394531 40.148438 55.832031 39.117188 L 55.921875 39.117188 L 54.476562 44.320312 L 57.820312 44.304688 C 57.820312 44.304688 56.378906 39.304688 56.375 39.113281 L 56.410156 39.113281 C 56.765625 39.953125 58.109375 41.699219 59.589844 41.035156 C 63.914062 39.171875 57.546875 33.871094 56.101562 30.789062 Z M 56.101562 30.789062 "/>
<path style=" stroke:none;fill-rule:evenodd;fill:rgb(0%,0%,0%);fill-opacity:1;" d="M 56.632812 97.003906 C 58.476562 93.859375 64.132812 88.503906 60.550781 86.847656 C 58.371094 86.089844 57.335938 87.644531 56.898438 88.679688 L 56.8125 88.679688 L 58.257812 83.472656 L 54.910156 83.488281 C 54.910156 83.488281 56.351562 88.492188 56.355469 88.683594 L 56.320312 88.683594 C 55.964844 87.839844 54.621094 86.09375 53.140625 86.757812 C 48.820312 88.621094 55.183594 93.925781 56.632812 97.003906 Z M 56.632812 97.003906 "/>
<path style=" stroke:none;fill-rule:evenodd;fill:rgb(0%,0%,0%);fill-opacity:1;" d="M 13.269531 33.296875 C 10.105469 38.652344 0.390625 47.765625 6.546875 50.582031 C 10.28125 51.878906 12.058594 49.226562 12.8125 47.46875 L 12.960938 47.46875 L 10.480469 56.328125 L 16.226562 56.300781 C 16.226562 56.300781 13.753906 47.785156 13.746094 47.460938 L 13.808594 47.460938 C 14.414062 48.894531 16.722656 51.867188 19.261719 50.734375 C 26.683594 47.5625 15.753906 38.539062 13.269531 33.296875 Z M 13.269531 33.296875 "/>
<path style=" stroke:none;fill-rule:nonzero;fill:rgb(0%,0%,0%);fill-opacity:1;" d="M 7.246094 8.210938 L 19.261719 8.210938 L 19.261719 11.191406 L 13.046875 28.734375 L 9.042969 28.734375 L 14.925781 12.101562 L 7.246094 12.101562 L 7.246094 8.210938 "/>
<path style=" stroke:none;fill-rule:evenodd;fill:rgb(0%,0%,0%);fill-opacity:1;" d="M 75.9375 95.789062 C 79.101562 90.4375 88.816406 81.320312 82.664062 78.503906 C 78.929688 77.207031 77.152344 79.859375 76.398438 81.617188 L 76.246094 81.617188 L 78.726562 72.757812 L 72.980469 72.785156 C 72.980469 72.785156 75.457031 81.300781 75.460938 81.625 L 75.402344 81.625 C 74.792969 80.191406 72.488281 77.21875 69.949219 78.351562 C 62.527344 81.523438 73.457031 90.546875 75.9375 95.789062 Z M 75.9375 95.789062 "/>
<path style=" stroke:none;fill-rule:nonzero;fill:rgb(0%,0%,0%);fill-opacity:1;" d="M 81.960938 121.105469 L 69.945312 121.105469 L 69.945312 118.121094 L 76.164062 100.578125 L 80.167969 100.578125 L 74.28125 117.214844 L 81.960938 117.214844 L 81.960938 121.105469 "/>
<path style=" stroke:none;fill-rule:evenodd;fill:rgb(0%,0%,0%);fill-opacity:1;" d="M 44.941406 41.050781 C 43.097656 44.199219 37.4375 49.554688 41.023438 51.207031 C 43.199219 51.96875 44.234375 50.410156 44.671875 49.378906 L 44.761719 49.378906 L 43.316406 54.585938 L 46.664062 54.570312 C 46.664062 54.570312 45.21875 49.566406 45.21875 49.375 L 45.253906 49.375 C 45.605469 50.21875 46.949219 51.964844 48.429688 51.296875 C 52.753906 49.433594 46.386719 44.132812 44.941406 41.050781 Z M 44.941406 41.050781 "/>
<path style=" stroke:none;fill-rule:evenodd;fill:rgb(0%,0%,0%);fill-opacity:1;" d="M 45.058594 86.742188 C 46.902344 83.597656 52.5625 78.238281 48.976562 76.585938 C 46.800781 75.824219 45.765625 77.382812 45.328125 78.414062 L 45.238281 78.414062 L 46.683594 73.210938 L 43.335938 73.226562 C 43.335938 73.226562 44.78125 78.230469 44.78125 78.421875 L 44.746094 78.421875 C 44.394531 77.578125 43.050781 75.832031 41.570312 76.496094 C 37.246094 78.359375 43.613281 83.660156 45.058594 86.742188 Z M 45.058594 86.742188 "/>
<path style=" stroke:none;fill-rule:evenodd;fill:rgb(0%,0%,0%);fill-opacity:1;" d="M 45.171875 56.789062 C 43.328125 59.933594 37.667969 65.292969 41.253906 66.945312 C 43.429688 67.707031 44.464844 66.148438 44.902344 65.117188 L 44.992188 65.117188 L 43.546875 70.320312 L 46.894531 70.304688 C 46.894531 70.304688 45.453125 65.304688 45.449219 65.113281 L 45.484375 65.113281 C 45.835938 65.953125 47.183594 67.699219 48.660156 67.035156 C 52.984375 65.171875 46.617188 59.871094 45.171875 56.789062 Z M 45.171875 56.789062 "/>
</g>
</svg>
