<?xml version="1.0" encoding="UTF-8"?>
<svg xmlns="http://www.w3.org/2000/svg" xmlns:xlink="http://www.w3.org/1999/xlink" width="90px" height="130px" viewBox="0 0 90 130" version="1.1">
<g id="surface1">
<path style=" stroke:none;fill-rule:nonzero;fill:rgb(0%,0%,0%);fill-opacity:0.498039;" d="M 13.5 3.421875 L 79.714844 3.421875 C 85.414062 3.421875 90 8.304688 90 14.367188 L 90 119.050781 C 90 125.117188 85.414062 130 79.714844 130 L 13.5 130 C 7.800781 130 3.214844 125.117188 3.214844 119.050781 L 3.214844 14.367188 C 3.214844 8.304688 7.800781 3.421875 13.5 3.421875 Z M 13.5 3.421875 "/>
<path style=" stroke:none;fill-rule:nonzero;fill:rgb(90.588236%,90.588236%,90.588236%);fill-opacity:1;" d="M 10.929688 0.683594 L 77.144531 0.683594 C 82.839844 0.683594 87.429688 5.566406 87.429688 11.632812 L 87.429688 116.316406 C 87.429688 122.378906 82.839844 127.261719 77.144531 127.261719 L 10.929688 127.261719 C 5.230469 127.261719 0.644531 122.378906 0.644531 116.316406 L 0.644531 11.632812 C 0.644531 5.566406 5.230469 0.683594 10.929688 0.683594 Z M 10.929688 0.683594 "/>
<path style=" stroke:none;fill-rule:nonzero;fill:rgb(78.039217%,53.725493%,12.156863%);fill-opacity:1;" d="M 12.214844 2.050781 L 78.429688 2.050781 C 84.125 2.050781 88.714844 6.933594 88.714844 13 L 88.714844 117.683594 C 88.714844 123.75 84.125 128.632812 78.429688 128.632812 L 12.214844 128.632812 C 6.515625 128.632812 1.929688 123.75 1.929688 117.683594 L 1.929688 13 C 1.929688 6.933594 6.515625 2.050781 12.214844 2.050781 Z M 12.214844 2.050781 "/>
<path style=" stroke:none;fill-rule:nonzero;fill:rgb(100%,100%,100%);fill-opacity:1;" d="M 11.570312 1.367188 L 77.785156 1.367188 C 83.484375 1.367188 88.070312 6.25 88.070312 12.316406 L 88.070312 117 C 88.070312 123.066406 83.484375 127.949219 77.785156 127.949219 L 11.570312 127.949219 C 5.875 127.949219 1.285156 123.066406 1.285156 117 L 1.285156 12.316406 C 1.285156 6.25 5.875 1.367188 11.570312 1.367188 Z M 11.570312 1.367188 "/>
<path style=" stroke:none;fill-rule:nonzero;fill:rgb(100%,0%,0%);fill-opacity:1;" d="M 16.121094 25.160156 L 9.691406 25.160156 L 8.679688 28.902344 L 4.546875 28.902344 L 10.449219 8.375 L 15.351562 8.375 L 21.257812 28.902344 L 17.125 28.902344 L 16.121094 25.160156 M 10.71875 21.351562 L 15.085938 21.351562 L 12.90625 13.1875 L 10.71875 21.351562 "/>
<path style=" stroke:none;fill-rule:nonzero;fill:rgb(100%,0%,0%);fill-opacity:1;" d="M 73.035156 104.066406 L 79.464844 104.066406 L 80.480469 100.324219 L 84.613281 100.324219 L 78.707031 120.851562 L 73.804688 120.851562 L 67.898438 100.324219 L 72.03125 100.324219 L 73.035156 104.066406 M 78.441406 107.875 L 74.070312 107.875 L 76.25 116.039062 L 78.441406 107.875 "/>
<path style=" stroke:none;fill-rule:evenodd;fill:rgb(100%,0%,0%);fill-opacity:1;" d="M 13.121094 33.296875 C 10.46875 38.9375 8.535156 41.847656 4.546875 44.957031 C 8.320312 48.027344 10.980469 51.199219 13.199219 56.328125 C 15.175781 51.457031 17.597656 47.824219 21.804688 44.804688 C 17.574219 42.511719 15.125 38.882812 13.121094 33.296875 Z M 13.121094 33.296875 "/>
<path style=" stroke:none;fill-rule:evenodd;fill:rgb(100%,0%,0%);fill-opacity:1;" d="M 76.074219 72.757812 C 73.421875 78.402344 71.488281 81.308594 67.5 84.417969 C 71.273438 87.488281 73.9375 90.660156 76.152344 95.789062 C 78.132812 90.917969 80.554688 87.285156 84.761719 84.265625 C 80.53125 81.972656 78.078125 78.34375 76.074219 72.757812 Z M 76.074219 72.757812 "/>
<path style=" stroke:none;fill-rule:evenodd;fill:rgb(100%,0%,0%);fill-opacity:1;" d="M 44.535156 40.402344 C 38.839844 52.527344 34.6875 58.777344 26.121094 65.457031 C 34.226562 72.050781 39.941406 78.871094 44.703125 89.890625 C 48.953125 79.421875 54.152344 71.617188 63.1875 65.128906 C 54.101562 60.203125 48.839844 52.40625 44.535156 40.402344 Z M 44.535156 40.402344 "/>
</g>
</svg>
