<?xml version="1.0" encoding="UTF-8"?>
<svg xmlns="http://www.w3.org/2000/svg" xmlns:xlink="http://www.w3.org/1999/xlink" width="90px" height="130px" viewBox="0 0 90 130" version="1.1">
<g id="surface1">
<path style=" stroke:none;fill-rule:nonzero;fill:rgb(0%,0%,0%);fill-opacity:0.498039;" d="M 13.5 3.421875 L 79.714844 3.421875 C 85.414062 3.421875 90 8.304688 90 14.367188 L 90 119.050781 C 90 125.117188 85.414062 130 79.714844 130 L 13.5 130 C 7.800781 130 3.214844 125.117188 3.214844 119.050781 L 3.214844 14.367188 C 3.214844 8.304688 7.800781 3.421875 13.5 3.421875 Z M 13.5 3.421875 "/>
<path style=" stroke:none;fill-rule:nonzero;fill:rgb(90.588236%,90.588236%,90.588236%);fill-opacity:1;" d="M 10.929688 0.683594 L 77.144531 0.683594 C 82.839844 0.683594 87.429688 5.566406 87.429688 11.632812 L 87.429688 116.316406 C 87.429688 122.378906 82.839844 127.261719 77.144531 127.261719 L 10.929688 127.261719 C 5.230469 127.261719 0.644531 122.378906 0.644531 116.316406 L 0.644531 11.632812 C 0.644531 5.566406 5.230469 0.683594 10.929688 0.683594 Z M 10.929688 0.683594 "/>
<path style=" stroke:none;fill-rule:nonzero;fill:rgb(78.039217%,53.725493%,12.156863%);fill-opacity:1;" d="M 12.214844 2.050781 L 78.429688 2.050781 C 84.125 2.050781 88.714844 6.933594 88.714844 13 L 88.714844 117.683594 C 88.714844 123.75 84.125 128.632812 78.429688 128.632812 L 12.214844 128.632812 C 6.515625 128.632812 1.929688 123.75 1.929688 117.683594 L 1.929688 13 C 1.929688 6.933594 6.515625 2.050781 12.214844 2.050781 Z M 12.214844 2.050781 "/>
<path style=" stroke:none;fill-rule:nonzero;fill:rgb(100%,100%,100%);fill-opacity:1;" d="M 11.570312 1.367188 L 77.785156 1.367188 C 83.484375 1.367188 88.070312 6.25 88.070312 12.316406 L 88.070312 117 C 88.070312 123.066406 83.484375 127.949219 77.785156 127.949219 L 11.570312 127.949219 C 5.875 127.949219 1.285156 123.066406 1.285156 117 L 1.285156 12.316406 C 1.285156 6.25 5.875 1.367188 11.570312 1.367188 Z M 11.570312 1.367188 "/>
<path style=" stroke:none;fill-rule:nonzero;fill:rgb(0%,0%,0%);fill-opacity:1;" d="M 7.246094 8.210938 L 19.261719 8.210938 L 19.261719 11.191406 L 13.046875 28.734375 L 9.042969 28.734375 L 14.925781 12.101562 L 7.246094 12.101562 L 7.246094 8.210938 "/>
<path style=" stroke:none;fill-rule:nonzero;fill:rgb(0%,0%,0%);fill-opacity:1;" d="M 81.960938 121.105469 L 69.945312 121.105469 L 69.945312 118.121094 L 76.164062 100.578125 L 80.167969 100.578125 L 74.28125 117.214844 L 81.960938 117.214844 L 81.960938 121.105469 "/>
<path style=" stroke:none;fill-rule:evenodd;fill:rgb(0%,0%,0%);fill-opacity:1;" d="M 13.195312 33.296875 C 11.480469 33.296875 10.089844 35.53125 10.089844 38.28125 C 10.089844 40.625 12.914062 44.570312 12.804688 46.445312 C 11.898438 46.980469 9.097656 42.039062 7.648438 42.039062 C 5.9375 42.039062 4.546875 44.273438 4.546875 47.023438 C 4.546875 49.777344 5.9375 52.007812 7.648438 52.007812 C 9.136719 52.007812 11.683594 47.074219 12.804688 47.519531 L 10.921875 56.328125 L 15.4375 56.300781 C 15.4375 56.300781 13.460938 47.757812 13.457031 47.558594 L 13.492188 47.558594 L 13.492188 47.566406 C 14.589844 47.128906 17.226562 52.105469 18.699219 52.105469 C 20.414062 52.105469 21.804688 49.871094 21.804688 47.121094 C 21.804688 44.367188 20.414062 42.136719 18.699219 42.136719 C 17.257812 42.136719 14.644531 46.992188 13.5 46.492188 C 13.515625 44.574219 16.300781 40.625 16.300781 38.28125 C 16.300781 35.53125 14.910156 33.296875 13.195312 33.296875 Z M 13.195312 33.296875 "/>
<path style=" stroke:none;fill-rule:evenodd;fill:rgb(0%,0%,0%);fill-opacity:1;" d="M 32.914062 30.789062 C 31.914062 30.789062 31.105469 32.101562 31.105469 33.71875 C 31.105469 35.097656 32.75 37.414062 32.6875 38.515625 C 32.15625 38.828125 30.527344 35.925781 29.683594 35.925781 C 28.683594 35.925781 27.875 37.238281 27.875 38.855469 C 27.875 40.472656 28.683594 41.785156 29.683594 41.785156 C 30.550781 41.785156 32.03125 38.886719 32.6875 39.148438 L 31.589844 44.324219 L 34.21875 44.304688 C 34.21875 44.304688 33.066406 39.289062 33.066406 39.167969 L 33.085938 39.167969 L 33.085938 39.175781 C 33.726562 38.917969 35.261719 41.839844 36.121094 41.839844 C 37.117188 41.839844 37.929688 40.53125 37.929688 38.914062 C 37.929688 37.296875 37.117188 35.984375 36.121094 35.984375 C 35.28125 35.984375 33.757812 38.835938 33.089844 38.542969 C 33.097656 37.414062 34.722656 35.09375 34.722656 33.71875 C 34.722656 32.101562 33.910156 30.789062 32.914062 30.789062 Z M 32.914062 30.789062 "/>
<path style=" stroke:none;fill-rule:evenodd;fill:rgb(0%,0%,0%);fill-opacity:1;" d="M 44.894531 41.203125 C 43.898438 41.203125 43.085938 42.515625 43.085938 44.132812 C 43.085938 45.511719 44.734375 47.828125 44.667969 48.929688 C 44.140625 49.242188 42.507812 46.339844 41.664062 46.339844 C 40.667969 46.339844 39.855469 47.652344 39.855469 49.269531 C 39.855469 50.886719 40.667969 52.199219 41.664062 52.199219 C 42.53125 52.199219 44.015625 49.300781 44.667969 49.5625 L 43.570312 54.738281 L 46.203125 54.71875 C 46.203125 54.71875 45.050781 49.703125 45.046875 49.582031 L 45.070312 49.582031 L 45.070312 49.589844 C 45.707031 49.332031 47.242188 52.253906 48.101562 52.253906 C 49.101562 52.253906 49.910156 50.941406 49.910156 49.324219 C 49.910156 47.707031 49.101562 46.398438 48.101562 46.398438 C 47.261719 46.398438 45.742188 49.25 45.074219 48.957031 C 45.082031 47.828125 46.703125 45.507812 46.703125 44.132812 C 46.703125 42.515625 45.894531 41.203125 44.894531 41.203125 Z M 44.894531 41.203125 "/>
<path style=" stroke:none;fill-rule:evenodd;fill:rgb(0%,0%,0%);fill-opacity:1;" d="M 56.054688 30.789062 C 55.058594 30.789062 54.246094 32.101562 54.246094 33.71875 C 54.246094 35.097656 55.890625 37.414062 55.828125 38.515625 C 55.300781 38.828125 53.667969 35.925781 52.824219 35.925781 C 51.828125 35.925781 51.015625 37.238281 51.015625 38.855469 C 51.015625 40.472656 51.828125 41.785156 52.824219 41.785156 C 53.691406 41.785156 55.175781 38.886719 55.828125 39.148438 L 54.730469 44.324219 L 57.363281 44.304688 C 57.363281 44.304688 56.210938 39.289062 56.207031 39.167969 L 56.230469 39.167969 L 56.230469 39.175781 C 56.867188 38.917969 58.402344 41.839844 59.261719 41.839844 C 60.261719 41.839844 61.070312 40.53125 61.070312 38.914062 C 61.070312 37.296875 60.261719 35.984375 59.261719 35.984375 C 58.421875 35.984375 56.902344 38.835938 56.230469 38.542969 C 56.242188 37.414062 57.863281 35.09375 57.863281 33.71875 C 57.863281 32.101562 57.054688 30.789062 56.054688 30.789062 Z M 56.054688 30.789062 "/>
<path style=" stroke:none;fill-rule:evenodd;fill:rgb(0%,0%,0%);fill-opacity:1;" d="M 45.128906 56.789062 C 44.128906 56.789062 43.320312 58.101562 43.320312 59.71875 C 43.320312 61.097656 44.964844 63.414062 44.898438 64.515625 C 44.371094 64.828125 42.742188 61.925781 41.898438 61.925781 C 40.898438 61.925781 40.089844 63.238281 40.089844 64.855469 C 40.089844 66.472656 40.898438 67.785156 41.898438 67.785156 C 42.761719 67.785156 44.246094 64.886719 44.898438 65.148438 L 43.804688 70.324219 L 46.433594 70.304688 C 46.433594 70.304688 45.28125 65.289062 45.28125 65.167969 L 45.300781 65.167969 L 45.300781 65.175781 C 45.941406 64.917969 47.472656 67.839844 48.335938 67.839844 C 49.332031 67.839844 50.144531 66.53125 50.144531 64.914062 C 50.144531 63.296875 49.332031 61.984375 48.335938 61.984375 C 47.496094 61.984375 45.972656 64.835938 45.304688 64.542969 C 45.3125 63.414062 46.9375 61.09375 46.9375 59.71875 C 46.9375 58.101562 46.125 56.789062 45.128906 56.789062 Z M 45.128906 56.789062 "/>
<path style=" stroke:none;fill-rule:evenodd;fill:rgb(0%,0%,0%);fill-opacity:1;" d="M 45.105469 86.746094 C 46.101562 86.746094 46.914062 85.433594 46.914062 83.816406 C 46.914062 82.4375 45.265625 80.121094 45.332031 79.019531 C 45.859375 78.703125 47.492188 81.605469 48.335938 81.605469 C 49.332031 81.605469 50.144531 80.292969 50.144531 78.675781 C 50.144531 77.058594 49.332031 75.746094 48.335938 75.746094 C 47.46875 75.746094 45.984375 78.648438 45.332031 78.386719 L 46.429688 73.210938 L 43.796875 73.226562 C 43.796875 73.226562 44.949219 78.246094 44.953125 78.363281 L 44.929688 78.363281 L 44.929688 78.359375 C 44.292969 78.617188 42.757812 75.691406 41.898438 75.691406 C 40.898438 75.691406 40.089844 77.003906 40.089844 78.621094 C 40.089844 80.238281 40.898438 81.550781 41.898438 81.550781 C 42.738281 81.550781 44.257812 78.695312 44.925781 78.992188 C 44.917969 80.117188 43.296875 82.4375 43.296875 83.816406 C 43.296875 85.433594 44.105469 86.746094 45.105469 86.746094 Z M 45.105469 86.746094 "/>
<path style=" stroke:none;fill-rule:evenodd;fill:rgb(0%,0%,0%);fill-opacity:1;" d="M 56.675781 97.007812 C 57.671875 97.007812 58.484375 95.695312 58.484375 94.078125 C 58.484375 92.699219 56.839844 90.382812 56.902344 89.28125 C 57.429688 88.96875 59.0625 91.871094 59.90625 91.871094 C 60.902344 91.871094 61.714844 90.558594 61.714844 88.941406 C 61.714844 87.324219 60.902344 86.011719 59.90625 86.011719 C 59.039062 86.011719 57.554688 88.910156 56.902344 88.648438 L 58 83.472656 L 55.371094 83.492188 C 55.371094 83.492188 56.523438 88.507812 56.523438 88.628906 L 56.503906 88.628906 L 56.503906 88.621094 C 55.863281 88.878906 54.328125 85.957031 53.46875 85.957031 C 52.46875 85.957031 51.660156 87.265625 51.660156 88.882812 C 51.660156 90.5 52.46875 91.8125 53.46875 91.8125 C 54.308594 91.8125 55.832031 88.960938 56.5 89.253906 C 56.488281 90.382812 54.867188 92.703125 54.867188 94.078125 C 54.867188 95.695312 55.675781 97.007812 56.675781 97.007812 Z M 56.675781 97.007812 "/>
<path style=" stroke:none;fill-rule:evenodd;fill:rgb(0%,0%,0%);fill-opacity:1;" d="M 33.945312 97.007812 C 34.941406 97.007812 35.753906 95.695312 35.753906 94.078125 C 35.753906 92.699219 34.109375 90.382812 34.171875 89.28125 C 34.699219 88.96875 36.332031 91.871094 37.175781 91.871094 C 38.171875 91.871094 38.984375 90.558594 38.984375 88.941406 C 38.984375 87.324219 38.171875 86.011719 37.175781 86.011719 C 36.308594 86.011719 34.824219 88.910156 34.171875 88.648438 L 35.269531 83.472656 L 32.636719 83.492188 C 32.636719 83.492188 33.789062 88.507812 33.792969 88.628906 L 33.769531 88.628906 L 33.769531 88.621094 C 33.132812 88.878906 31.597656 85.957031 30.738281 85.957031 C 29.738281 85.957031 28.929688 87.265625 28.929688 88.882812 C 28.929688 90.5 29.738281 91.8125 30.738281 91.8125 C 31.578125 91.8125 33.097656 88.960938 33.769531 89.253906 C 33.757812 90.382812 32.136719 92.703125 32.136719 94.078125 C 32.136719 95.695312 32.945312 97.007812 33.945312 97.007812 Z M 33.945312 97.007812 "/>
<path style=" stroke:none;fill-rule:evenodd;fill:rgb(0%,0%,0%);fill-opacity:1;" d="M 75.5625 95.765625 C 77.277344 95.765625 78.667969 93.53125 78.667969 90.777344 C 78.667969 88.433594 75.84375 84.488281 75.953125 82.617188 C 76.859375 82.082031 79.660156 87.019531 81.109375 87.019531 C 82.824219 87.019531 84.214844 84.789062 84.214844 82.035156 C 84.214844 79.285156 82.824219 77.050781 81.109375 77.050781 C 79.621094 77.050781 77.074219 81.988281 75.953125 81.542969 L 77.835938 72.734375 L 73.320312 72.761719 C 73.320312 72.761719 75.300781 81.300781 75.300781 81.503906 L 75.265625 81.503906 L 75.265625 81.492188 C 74.167969 81.933594 71.535156 76.957031 70.058594 76.957031 C 68.34375 76.957031 66.953125 79.1875 66.953125 81.941406 C 66.953125 84.691406 68.34375 86.925781 70.058594 86.925781 C 71.5 86.925781 74.113281 82.066406 75.261719 82.570312 C 75.246094 84.488281 72.457031 88.4375 72.457031 90.777344 C 72.457031 93.53125 73.847656 95.765625 75.5625 95.765625 Z M 75.5625 95.765625 "/>
</g>
</svg>
