<?xml version="1.0" encoding="UTF-8"?>
<svg xmlns="http://www.w3.org/2000/svg" xmlns:xlink="http://www.w3.org/1999/xlink" width="90px" height="130px" viewBox="0 0 90 130" version="1.1">
<g id="surface1">
<path style=" stroke:none;fill-rule:nonzero;fill:rgb(0%,0%,0%);fill-opacity:0.498039;" d="M 13.5 3.421875 L 79.714844 3.421875 C 85.414062 3.421875 90 8.304688 90 14.367188 L 90 119.050781 C 90 125.117188 85.414062 130 79.714844 130 L 13.5 130 C 7.800781 130 3.214844 125.117188 3.214844 119.050781 L 3.214844 14.367188 C 3.214844 8.304688 7.800781 3.421875 13.5 3.421875 Z M 13.5 3.421875 "/>
<path style=" stroke:none;fill-rule:nonzero;fill:rgb(90.588236%,90.588236%,90.588236%);fill-opacity:1;" d="M 10.929688 0.683594 L 77.144531 0.683594 C 82.839844 0.683594 87.429688 5.566406 87.429688 11.632812 L 87.429688 116.316406 C 87.429688 122.378906 82.839844 127.261719 77.144531 127.261719 L 10.929688 127.261719 C 5.230469 127.261719 0.644531 122.378906 0.644531 116.316406 L 0.644531 11.632812 C 0.644531 5.566406 5.230469 0.683594 10.929688 0.683594 Z M 10.929688 0.683594 "/>
<path style=" stroke:none;fill-rule:nonzero;fill:rgb(78.039217%,53.725493%,12.156863%);fill-opacity:1;" d="M 12.214844 2.050781 L 78.429688 2.050781 C 84.125 2.050781 88.714844 6.933594 88.714844 13 L 88.714844 117.683594 C 88.714844 123.75 84.125 128.632812 78.429688 128.632812 L 12.214844 128.632812 C 6.515625 128.632812 1.929688 123.75 1.929688 117.683594 L 1.929688 13 C 1.929688 6.933594 6.515625 2.050781 12.214844 2.050781 Z M 12.214844 2.050781 "/>
<path style=" stroke:none;fill-rule:nonzero;fill:rgb(100%,100%,100%);fill-opacity:1;" d="M 11.570312 1.367188 L 77.785156 1.367188 C 83.484375 1.367188 88.070312 6.25 88.070312 12.316406 L 88.070312 117 C 88.070312 123.066406 83.484375 127.949219 77.785156 127.949219 L 11.570312 127.949219 C 5.875 127.949219 1.285156 123.066406 1.285156 117 L 1.285156 12.316406 C 1.285156 6.25 5.875 1.367188 11.570312 1.367188 Z M 11.570312 1.367188 "/>
<path style=" stroke:none;fill-rule:nonzero;fill:rgb(0%,0%,0%);fill-opacity:1;" d="M 16.121094 25.160156 L 9.691406 25.160156 L 8.679688 28.902344 L 4.546875 28.902344 L 10.449219 8.375 L 15.351562 8.375 L 21.257812 28.902344 L 17.125 28.902344 L 16.121094 25.160156 M 10.71875 21.351562 L 15.085938 21.351562 L 12.90625 13.1875 L 10.71875 21.351562 "/>
<path style=" stroke:none;fill-rule:nonzero;fill:rgb(0%,0%,0%);fill-opacity:1;" d="M 73.035156 104.066406 L 79.464844 104.066406 L 80.480469 100.324219 L 84.613281 100.324219 L 78.707031 120.851562 L 73.804688 120.851562 L 67.898438 100.324219 L 72.03125 100.324219 L 73.035156 104.066406 M 78.441406 107.875 L 74.070312 107.875 L 76.25 116.039062 L 78.441406 107.875 "/>
<path style=" stroke:none;fill-rule:evenodd;fill:rgb(0%,0%,0%);fill-opacity:1;" d="M 13.195312 33.296875 C 11.480469 33.296875 10.089844 35.53125 10.089844 38.28125 C 10.089844 40.625 12.914062 44.570312 12.804688 46.445312 C 11.898438 46.980469 9.097656 42.039062 7.648438 42.039062 C 5.9375 42.039062 4.546875 44.273438 4.546875 47.023438 C 4.546875 49.777344 5.9375 52.007812 7.648438 52.007812 C 9.136719 52.007812 11.683594 47.074219 12.804688 47.519531 L 10.921875 56.328125 L 15.4375 56.300781 C 15.4375 56.300781 13.460938 47.757812 13.457031 47.558594 L 13.492188 47.558594 L 13.492188 47.566406 C 14.589844 47.128906 17.226562 52.105469 18.699219 52.105469 C 20.414062 52.105469 21.804688 49.871094 21.804688 47.121094 C 21.804688 44.367188 20.414062 42.136719 18.699219 42.136719 C 17.257812 42.136719 14.644531 46.992188 13.5 46.492188 C 13.515625 44.574219 16.300781 40.625 16.300781 38.28125 C 16.300781 35.53125 14.910156 33.296875 13.195312 33.296875 Z M 13.195312 33.296875 "/>
<path style=" stroke:none;fill-rule:evenodd;fill:rgb(0%,0%,0%);fill-opacity:1;" d="M 75.484375 95.765625 C 77.195312 95.765625 78.589844 93.53125 78.589844 90.777344 C 78.589844 88.433594 75.765625 84.488281 75.875 82.617188 C 76.78125 82.082031 79.582031 87.019531 81.03125 87.019531 C 82.742188 87.019531 84.132812 84.789062 84.132812 82.035156 C 84.132812 79.285156 82.742188 77.050781 81.03125 77.050781 C 79.542969 77.050781 76.996094 81.988281 75.875 81.542969 L 77.757812 72.734375 L 73.242188 72.761719 C 73.242188 72.761719 75.21875 81.300781 75.222656 81.503906 L 75.1875 81.503906 L 75.1875 81.492188 C 74.089844 81.933594 71.453125 76.957031 69.976562 76.957031 C 68.265625 76.957031 66.875 79.1875 66.875 81.941406 C 66.875 84.691406 68.265625 86.925781 69.976562 86.925781 C 71.421875 86.925781 74.035156 82.066406 75.179688 82.570312 C 75.164062 84.488281 72.378906 88.4375 72.378906 90.777344 C 72.378906 93.53125 73.769531 95.765625 75.484375 95.765625 Z M 75.484375 95.765625 "/>
<path style=" stroke:none;fill-rule:evenodd;fill:rgb(0%,0%,0%);fill-opacity:1;" d="M 44.699219 40.402344 C 41.015625 40.402344 38.03125 45.199219 38.03125 51.113281 C 38.03125 56.152344 44.09375 64.628906 43.859375 68.652344 C 41.910156 69.804688 35.894531 59.1875 32.785156 59.1875 C 29.105469 59.1875 26.121094 63.988281 26.121094 69.902344 C 26.121094 75.816406 29.105469 80.613281 32.785156 80.613281 C 35.980469 80.613281 41.449219 70.007812 43.859375 70.964844 L 39.8125 89.890625 L 49.511719 89.832031 C 49.511719 89.832031 45.261719 71.480469 45.257812 71.046875 L 45.332031 71.046875 L 45.332031 71.066406 C 47.691406 70.125 53.347656 80.816406 56.519531 80.816406 C 60.199219 80.816406 63.1875 76.019531 63.1875 70.105469 C 63.1875 64.191406 60.199219 59.394531 56.519531 59.394531 C 53.421875 59.394531 47.8125 69.832031 45.347656 68.757812 C 45.382812 64.632812 51.363281 56.148438 51.363281 51.113281 C 51.363281 45.199219 48.378906 40.402344 44.699219 40.402344 Z M 44.699219 40.402344 "/>
</g>
</svg>
