<?xml version="1.0" encoding="UTF-8"?>
<svg xmlns="http://www.w3.org/2000/svg" xmlns:xlink="http://www.w3.org/1999/xlink" width="90px" height="130px" viewBox="0 0 90 130" version="1.1">
<g id="surface1">
<path style=" stroke:none;fill-rule:nonzero;fill:rgb(0%,0%,0%);fill-opacity:0.498039;" d="M 13.5 3.421875 L 79.714844 3.421875 C 85.414062 3.421875 90 8.304688 90 14.367188 L 90 119.050781 C 90 125.117188 85.414062 130 79.714844 130 L 13.5 130 C 7.800781 130 3.214844 125.117188 3.214844 119.050781 L 3.214844 14.367188 C 3.214844 8.304688 7.800781 3.421875 13.5 3.421875 Z M 13.5 3.421875 "/>
<path style=" stroke:none;fill-rule:nonzero;fill:rgb(90.588236%,90.588236%,90.588236%);fill-opacity:1;" d="M 10.929688 0.683594 L 77.144531 0.683594 C 82.839844 0.683594 87.429688 5.566406 87.429688 11.632812 L 87.429688 116.316406 C 87.429688 122.378906 82.839844 127.261719 77.144531 127.261719 L 10.929688 127.261719 C 5.230469 127.261719 0.644531 122.378906 0.644531 116.316406 L 0.644531 11.632812 C 0.644531 5.566406 5.230469 0.683594 10.929688 0.683594 Z M 10.929688 0.683594 "/>
<path style=" stroke:none;fill-rule:nonzero;fill:rgb(78.039217%,53.725493%,12.156863%);fill-opacity:1;" d="M 12.214844 2.050781 L 78.429688 2.050781 C 84.125 2.050781 88.714844 6.933594 88.714844 13 L 88.714844 117.683594 C 88.714844 123.75 84.125 128.632812 78.429688 128.632812 L 12.214844 128.632812 C 6.515625 128.632812 1.929688 123.75 1.929688 117.683594 L 1.929688 13 C 1.929688 6.933594 6.515625 2.050781 12.214844 2.050781 Z M 12.214844 2.050781 "/>
<path style=" stroke:none;fill-rule:nonzero;fill:rgb(100%,100%,100%);fill-opacity:1;" d="M 11.570312 1.367188 L 77.785156 1.367188 C 83.484375 1.367188 88.070312 6.25 88.070312 12.316406 L 88.070312 117 C 88.070312 123.066406 83.484375 127.949219 77.785156 127.949219 L 11.570312 127.949219 C 5.875 127.949219 1.285156 123.066406 1.285156 117 L 1.285156 12.316406 C 1.285156 6.25 5.875 1.367188 11.570312 1.367188 Z M 11.570312 1.367188 "/>
<path style=" stroke:none;fill-rule:evenodd;fill:rgb(0%,0%,0%);fill-opacity:1;" d="M 32.957031 30.789062 C 31.113281 33.933594 25.453125 39.292969 29.039062 40.945312 C 31.214844 41.707031 32.25 40.148438 32.6875 39.117188 L 32.777344 39.117188 L 31.332031 44.320312 L 34.679688 44.304688 C 34.679688 44.304688 33.238281 39.304688 33.234375 39.113281 L 33.269531 39.113281 C 33.625 39.953125 34.96875 41.699219 36.445312 41.035156 C 40.769531 39.171875 34.402344 33.871094 32.957031 30.789062 Z M 32.957031 30.789062 "/>
<path style=" stroke:none;fill-rule:evenodd;fill:rgb(0%,0%,0%);fill-opacity:1;" d="M 34.132812 97.003906 C 35.976562 93.859375 41.632812 88.503906 38.050781 86.847656 C 35.871094 86.089844 34.835938 87.644531 34.398438 88.679688 L 34.3125 88.679688 L 35.757812 83.472656 L 32.410156 83.488281 C 32.410156 83.488281 33.851562 88.492188 33.855469 88.683594 L 33.820312 88.683594 C 33.464844 87.839844 32.121094 86.09375 30.640625 86.757812 C 26.320312 88.621094 32.683594 93.925781 34.132812 97.003906 Z M 34.132812 97.003906 "/>
<path style=" stroke:none;fill-rule:evenodd;fill:rgb(0%,0%,0%);fill-opacity:1;" d="M 56.101562 30.789062 C 54.257812 33.933594 48.597656 39.292969 52.183594 40.945312 C 54.359375 41.707031 55.394531 40.148438 55.832031 39.117188 L 55.921875 39.117188 L 54.476562 44.320312 L 57.820312 44.304688 C 57.820312 44.304688 56.378906 39.304688 56.375 39.113281 L 56.410156 39.113281 C 56.765625 39.953125 58.109375 41.699219 59.589844 41.035156 C 63.914062 39.171875 57.546875 33.871094 56.101562 30.789062 Z M 56.101562 30.789062 "/>
<path style=" stroke:none;fill-rule:evenodd;fill:rgb(0%,0%,0%);fill-opacity:1;" d="M 56.632812 97.003906 C 58.476562 93.859375 64.132812 88.503906 60.550781 86.847656 C 58.371094 86.089844 57.335938 87.644531 56.898438 88.679688 L 56.8125 88.679688 L 58.257812 83.472656 L 54.910156 83.488281 C 54.910156 83.488281 56.351562 88.492188 56.355469 88.683594 L 56.320312 88.683594 C 55.964844 87.839844 54.621094 86.09375 53.140625 86.757812 C 48.820312 88.621094 55.183594 93.925781 56.632812 97.003906 Z M 56.632812 97.003906 "/>
<path style=" stroke:none;fill-rule:evenodd;fill:rgb(0%,0%,0%);fill-opacity:1;" d="M 13.269531 33.296875 C 10.105469 38.652344 0.390625 47.765625 6.546875 50.582031 C 10.28125 51.878906 12.058594 49.226562 12.8125 47.46875 L 12.960938 47.46875 L 10.480469 56.328125 L 16.226562 56.300781 C 16.226562 56.300781 13.753906 47.785156 13.746094 47.460938 L 13.808594 47.460938 C 14.414062 48.894531 16.722656 51.867188 19.261719 50.734375 C 26.683594 47.5625 15.753906 38.539062 13.269531 33.296875 Z M 13.269531 33.296875 "/>
<path style=" stroke:none;fill-rule:nonzero;fill:rgb(0%,0%,0%);fill-opacity:1;" d="M 13.683594 12.730469 L 9.175781 21.324219 L 13.683594 21.324219 L 13.683594 12.730469 M 13 8.375 L 17.570312 8.375 L 17.570312 21.324219 L 19.84375 21.324219 L 19.84375 25.160156 L 17.570312 25.160156 L 17.570312 28.898438 L 13.683594 28.898438 L 13.683594 25.160156 L 6.613281 25.160156 L 6.613281 20.625 L 13 8.375 "/>
<path style=" stroke:none;fill-rule:evenodd;fill:rgb(0%,0%,0%);fill-opacity:1;" d="M 75.878906 95.789062 C 79.046875 90.4375 88.757812 81.320312 82.605469 78.503906 C 78.871094 77.207031 77.09375 79.859375 76.339844 81.617188 L 76.1875 81.617188 L 78.667969 72.757812 L 72.925781 72.785156 C 72.925781 72.785156 75.398438 81.300781 75.40625 81.625 L 75.34375 81.625 C 74.738281 80.191406 72.429688 77.21875 69.890625 78.351562 C 62.46875 81.523438 73.398438 90.546875 75.878906 95.789062 Z M 75.878906 95.789062 "/>
<path style=" stroke:none;fill-rule:nonzero;fill:rgb(0%,0%,0%);fill-opacity:1;" d="M 75.46875 116.679688 L 79.976562 108.085938 L 75.46875 108.085938 L 75.46875 116.679688 M 76.152344 121.035156 L 71.582031 121.035156 L 71.582031 108.085938 L 69.304688 108.085938 L 69.304688 104.25 L 71.582031 104.25 L 71.582031 100.511719 L 75.46875 100.511719 L 75.46875 104.25 L 82.539062 104.25 L 82.539062 108.789062 L 76.152344 121.035156 "/>
</g>
</svg>
