<?xml version="1.0" encoding="UTF-8"?>
<svg xmlns="http://www.w3.org/2000/svg" xmlns:xlink="http://www.w3.org/1999/xlink" width="90px" height="130px" viewBox="0 0 90 130" version="1.1">
<g id="surface1">
<path style=" stroke:none;fill-rule:nonzero;fill:rgb(0%,0%,0%);fill-opacity:0.498039;" d="M 13.5 3.421875 L 79.714844 3.421875 C 85.414062 3.421875 90 8.304688 90 14.367188 L 90 119.050781 C 90 125.117188 85.414062 130 79.714844 130 L 13.5 130 C 7.800781 130 3.214844 125.117188 3.214844 119.050781 L 3.214844 14.367188 C 3.214844 8.304688 7.800781 3.421875 13.5 3.421875 Z M 13.5 3.421875 "/>
<path style=" stroke:none;fill-rule:nonzero;fill:rgb(90.588236%,90.588236%,90.588236%);fill-opacity:1;" d="M 10.929688 0.683594 L 77.144531 0.683594 C 82.839844 0.683594 87.429688 5.566406 87.429688 11.632812 L 87.429688 116.316406 C 87.429688 122.378906 82.839844 127.261719 77.144531 127.261719 L 10.929688 127.261719 C 5.230469 127.261719 0.644531 122.378906 0.644531 116.316406 L 0.644531 11.632812 C 0.644531 5.566406 5.230469 0.683594 10.929688 0.683594 Z M 10.929688 0.683594 "/>
<path style=" stroke:none;fill-rule:nonzero;fill:rgb(78.039217%,53.725493%,12.156863%);fill-opacity:1;" d="M 12.214844 2.050781 L 78.429688 2.050781 C 84.125 2.050781 88.714844 6.933594 88.714844 13 L 88.714844 117.683594 C 88.714844 123.75 84.125 128.632812 78.429688 128.632812 L 12.214844 128.632812 C 6.515625 128.632812 1.929688 123.75 1.929688 117.683594 L 1.929688 13 C 1.929688 6.933594 6.515625 2.050781 12.214844 2.050781 Z M 12.214844 2.050781 "/>
<path style=" stroke:none;fill-rule:nonzero;fill:rgb(100%,100%,100%);fill-opacity:1;" d="M 11.570312 1.367188 L 77.785156 1.367188 C 83.484375 1.367188 88.070312 6.25 88.070312 12.316406 L 88.070312 117 C 88.070312 123.066406 83.484375 127.949219 77.785156 127.949219 L 11.570312 127.949219 C 5.875 127.949219 1.285156 123.066406 1.285156 117 L 1.285156 12.316406 C 1.285156 6.25 5.875 1.367188 11.570312 1.367188 Z M 11.570312 1.367188 "/>
<path style=" stroke:none;fill-rule:nonzero;fill:rgb(100%,0%,0%);fill-opacity:1;" d="M 16.359375 24.996094 L 9.929688 24.996094 L 8.914062 28.738281 L 4.78125 28.738281 L 10.6875 8.210938 L 15.589844 8.210938 L 21.496094 28.738281 L 17.363281 28.738281 L 16.359375 24.996094 M 10.957031 21.1875 L 15.324219 21.1875 L 13.144531 13.023438 L 10.957031 21.1875 "/>
<path style=" stroke:none;fill-rule:evenodd;fill:rgb(100%,0%,0%);fill-opacity:1;" d="M 9.082031 33.421875 C 8.566406 33.425781 7.996094 33.558594 7.371094 33.859375 C 0.527344 39.472656 9.753906 48.519531 13.648438 56.289062 L 13.757812 56.328125 C 18.039062 47.835938 26.1875 38.492188 19.960938 33.859375 C 15.03125 31.492188 13.710938 39.375 13.667969 39.65625 C 13.625 39.410156 12.621094 33.394531 9.082031 33.421875 Z M 9.082031 33.421875 "/>
<path style=" stroke:none;fill-rule:nonzero;fill:rgb(100%,0%,0%);fill-opacity:1;" d="M 73.011719 104.320312 L 79.441406 104.320312 L 80.453125 100.578125 L 84.585938 100.578125 L 78.679688 121.105469 L 73.78125 121.105469 L 67.875 100.578125 L 72.007812 100.578125 L 73.011719 104.320312 M 78.414062 108.125 L 74.046875 108.125 L 76.226562 116.292969 L 78.414062 108.125 "/>
<path style=" stroke:none;fill-rule:evenodd;fill:rgb(100%,0%,0%);fill-opacity:1;" d="M 80.289062 95.785156 C 80.804688 95.78125 81.371094 95.648438 82 95.347656 C 88.84375 89.734375 79.617188 80.6875 75.722656 72.917969 L 75.609375 72.878906 C 71.328125 81.371094 63.179688 90.714844 69.40625 95.347656 C 74.339844 97.714844 75.65625 89.832031 75.703125 89.550781 C 75.742188 89.796875 76.75 95.8125 80.289062 95.785156 Z M 80.289062 95.785156 "/>
<path style=" stroke:none;fill-rule:evenodd;fill:rgb(100%,0%,0%);fill-opacity:1;" d="M 35.039062 40.410156 C 33.933594 40.417969 32.722656 40.707031 31.378906 41.359375 C 16.722656 53.480469 36.476562 73.023438 44.820312 89.804688 L 45.058594 89.890625 C 54.226562 71.546875 71.675781 51.363281 58.34375 41.359375 C 47.78125 36.246094 44.957031 53.269531 44.859375 53.882812 C 44.773438 53.347656 42.617188 40.355469 35.039062 40.410156 Z M 35.039062 40.410156 "/>
</g>
</svg>
