<?xml version="1.0" encoding="UTF-8"?>
<svg xmlns="http://www.w3.org/2000/svg" xmlns:xlink="http://www.w3.org/1999/xlink" width="90px" height="130px" viewBox="0 0 90 130" version="1.1">
<g id="surface1">
<path style=" stroke:none;fill-rule:nonzero;fill:rgb(0%,0%,0%);fill-opacity:0.498039;" d="M 13.5 3.421875 L 79.714844 3.421875 C 85.414062 3.421875 90 8.304688 90 14.367188 L 90 119.050781 C 90 125.117188 85.414062 130 79.714844 130 L 13.5 130 C 7.800781 130 3.214844 125.117188 3.214844 119.050781 L 3.214844 14.367188 C 3.214844 8.304688 7.800781 3.421875 13.5 3.421875 Z M 13.5 3.421875 "/>
<path style=" stroke:none;fill-rule:nonzero;fill:rgb(90.588236%,90.588236%,90.588236%);fill-opacity:1;" d="M 10.929688 0.683594 L 77.144531 0.683594 C 82.839844 0.683594 87.429688 5.566406 87.429688 11.632812 L 87.429688 116.316406 C 87.429688 122.378906 82.839844 127.261719 77.144531 127.261719 L 10.929688 127.261719 C 5.230469 127.261719 0.644531 122.378906 0.644531 116.316406 L 0.644531 11.632812 C 0.644531 5.566406 5.230469 0.683594 10.929688 0.683594 Z M 10.929688 0.683594 "/>
<path style=" stroke:none;fill-rule:nonzero;fill:rgb(78.039217%,53.725493%,12.156863%);fill-opacity:1;" d="M 12.214844 2.050781 L 78.429688 2.050781 C 84.125 2.050781 88.714844 6.933594 88.714844 13 L 88.714844 117.683594 C 88.714844 123.75 84.125 128.632812 78.429688 128.632812 L 12.214844 128.632812 C 6.515625 128.632812 1.929688 123.75 1.929688 117.683594 L 1.929688 13 C 1.929688 6.933594 6.515625 2.050781 12.214844 2.050781 Z M 12.214844 2.050781 "/>
<path style=" stroke:none;fill-rule:nonzero;fill:rgb(100%,100%,100%);fill-opacity:1;" d="M 11.570312 1.367188 L 77.785156 1.367188 C 83.484375 1.367188 88.070312 6.25 88.070312 12.316406 L 88.070312 117 C 88.070312 123.066406 83.484375 127.949219 77.785156 127.949219 L 11.570312 127.949219 C 5.875 127.949219 1.285156 123.066406 1.285156 117 L 1.285156 12.316406 C 1.285156 6.25 5.875 1.367188 11.570312 1.367188 Z M 11.570312 1.367188 "/>
<path style=" stroke:none;fill-rule:nonzero;fill:rgb(100%,0%,0%);fill-opacity:1;" d="M 7.949219 8.375 L 18.167969 8.375 L 18.167969 12.265625 L 11.226562 12.265625 L 11.226562 15.441406 C 11.539062 15.332031 11.851562 15.246094 12.167969 15.191406 C 12.488281 15.128906 12.816406 15.097656 13.160156 15.097656 C 15.101562 15.097656 16.617188 15.722656 17.699219 16.980469 C 18.78125 18.226562 19.320312 19.96875 19.320312 22.203125 C 19.320312 24.421875 18.730469 26.160156 17.550781 27.414062 C 16.375 28.671875 14.742188 29.296875 12.648438 29.296875 C 11.742188 29.296875 10.84375 29.183594 9.957031 28.953125 C 9.074219 28.734375 8.195312 28.394531 7.316406 27.9375 L 7.316406 23.773438 C 8.1875 24.414062 9.007812 24.894531 9.785156 25.214844 C 10.566406 25.535156 11.304688 25.695312 11.996094 25.695312 C 12.992188 25.695312 13.777344 25.382812 14.34375 24.761719 C 14.921875 24.128906 15.210938 23.277344 15.210938 22.203125 C 15.210938 21.121094 14.921875 20.269531 14.34375 19.648438 C 13.777344 19.023438 12.992188 18.710938 11.996094 18.710938 C 11.40625 18.710938 10.773438 18.8125 10.105469 19.015625 C 9.4375 19.207031 8.71875 19.507812 7.949219 19.921875 L 7.949219 8.375 "/>
<path style=" stroke:none;fill-rule:nonzero;fill:rgb(100%,0%,0%);fill-opacity:1;" d="M 81.203125 121.105469 L 70.984375 121.105469 L 70.984375 117.214844 L 77.925781 117.214844 L 77.925781 114.039062 C 77.613281 114.148438 77.296875 114.230469 76.984375 114.285156 C 76.664062 114.351562 76.332031 114.382812 75.992188 114.382812 C 74.046875 114.382812 72.535156 113.753906 71.453125 112.5 C 70.371094 111.253906 69.828125 109.511719 69.828125 107.273438 C 69.828125 105.054688 70.421875 103.320312 71.601562 102.0625 C 72.777344 100.808594 74.410156 100.179688 76.503906 100.179688 C 77.410156 100.179688 78.304688 100.296875 79.195312 100.523438 C 80.078125 100.742188 80.957031 101.082031 81.832031 101.542969 L 81.832031 105.707031 C 80.964844 105.066406 80.144531 104.585938 79.367188 104.265625 C 78.582031 103.941406 77.847656 103.78125 77.15625 103.78125 C 76.160156 103.78125 75.375 104.09375 74.804688 104.71875 C 74.230469 105.351562 73.941406 106.203125 73.941406 107.273438 C 73.941406 108.355469 74.230469 109.207031 74.804688 109.832031 C 75.375 110.453125 76.160156 110.765625 77.15625 110.765625 C 77.746094 110.765625 78.375 110.664062 79.046875 110.464844 C 79.714844 110.273438 80.433594 109.96875 81.203125 109.558594 L 81.203125 121.105469 "/>
<path style=" stroke:none;fill-rule:evenodd;fill:rgb(100%,0%,0%);fill-opacity:1;" d="M 13.121094 33.296875 C 10.46875 38.9375 8.535156 41.847656 4.546875 44.957031 C 8.320312 48.027344 10.980469 51.199219 13.199219 56.328125 C 15.175781 51.457031 17.597656 47.824219 21.804688 44.804688 C 17.574219 42.511719 15.125 38.882812 13.121094 33.296875 Z M 13.121094 33.296875 "/>
<path style=" stroke:none;fill-rule:evenodd;fill:rgb(100%,0%,0%);fill-opacity:1;" d="M 32.871094 30.789062 C 31.324219 34.105469 30.199219 35.816406 27.875 37.640625 C 30.074219 39.445312 31.625 41.308594 32.914062 44.324219 C 34.066406 41.460938 35.476562 39.324219 37.929688 37.550781 C 35.464844 36.203125 34.035156 34.070312 32.871094 30.789062 Z M 32.871094 30.789062 "/>
<path style=" stroke:none;fill-rule:evenodd;fill:rgb(100%,0%,0%);fill-opacity:1;" d="M 56.011719 30.789062 C 54.46875 34.105469 53.339844 35.816406 51.015625 37.640625 C 53.214844 39.445312 54.765625 41.308594 56.058594 44.324219 C 57.210938 41.460938 58.621094 39.324219 61.070312 37.550781 C 58.605469 36.203125 57.179688 34.070312 56.011719 30.789062 Z M 56.011719 30.789062 "/>
<path style=" stroke:none;fill-rule:evenodd;fill:rgb(100%,0%,0%);fill-opacity:1;" d="M 34.15625 83.625 C 32.609375 86.941406 31.484375 88.648438 29.160156 90.476562 C 31.359375 92.28125 32.910156 94.144531 34.199219 97.15625 C 35.351562 94.292969 36.765625 92.160156 39.214844 90.386719 C 36.75 89.039062 35.324219 86.90625 34.15625 83.625 Z M 34.15625 83.625 "/>
<path style=" stroke:none;fill-rule:evenodd;fill:rgb(100%,0%,0%);fill-opacity:1;" d="M 56.65625 83.472656 C 55.109375 86.789062 53.984375 88.5 51.660156 90.324219 C 53.859375 92.128906 55.410156 93.992188 56.699219 97.007812 C 57.851562 94.144531 59.265625 92.007812 61.714844 90.234375 C 59.25 88.890625 57.824219 86.757812 56.65625 83.472656 Z M 56.65625 83.472656 "/>
<path style=" stroke:none;fill-rule:evenodd;fill:rgb(100%,0%,0%);fill-opacity:1;" d="M 76.074219 72.757812 C 73.421875 78.402344 71.488281 81.308594 67.5 84.417969 C 71.273438 87.488281 73.9375 90.660156 76.152344 95.789062 C 78.132812 90.917969 80.554688 87.285156 84.761719 84.265625 C 80.53125 81.972656 78.078125 78.34375 76.074219 72.757812 Z M 76.074219 72.757812 "/>
<path style=" stroke:none;fill-rule:evenodd;fill:rgb(100%,0%,0%);fill-opacity:1;" d="M 44.851562 56.253906 C 43.308594 59.570312 42.179688 61.28125 39.855469 63.105469 C 42.054688 64.910156 43.605469 66.777344 44.898438 69.789062 C 46.050781 66.925781 47.460938 64.792969 49.910156 63.015625 C 47.445312 61.671875 46.019531 59.539062 44.851562 56.253906 Z M 44.851562 56.253906 "/>
</g>
</svg>
