<?xml version="1.0" encoding="UTF-8"?>
<svg xmlns="http://www.w3.org/2000/svg" xmlns:xlink="http://www.w3.org/1999/xlink" width="90px" height="130px" viewBox="0 0 90 130" version="1.1">
<g id="surface1">
<path style=" stroke:none;fill-rule:nonzero;fill:rgb(0%,0%,0%);fill-opacity:0.498039;" d="M 13.5 3.421875 L 79.714844 3.421875 C 85.414062 3.421875 90 8.304688 90 14.367188 L 90 119.050781 C 90 125.117188 85.414062 130 79.714844 130 L 13.5 130 C 7.800781 130 3.214844 125.117188 3.214844 119.050781 L 3.214844 14.367188 C 3.214844 8.304688 7.800781 3.421875 13.5 3.421875 Z M 13.5 3.421875 "/>
<path style=" stroke:none;fill-rule:nonzero;fill:rgb(90.588236%,90.588236%,90.588236%);fill-opacity:1;" d="M 10.929688 0.683594 L 77.144531 0.683594 C 82.839844 0.683594 87.429688 5.566406 87.429688 11.632812 L 87.429688 116.316406 C 87.429688 122.378906 82.839844 127.261719 77.144531 127.261719 L 10.929688 127.261719 C 5.230469 127.261719 0.644531 122.378906 0.644531 116.316406 L 0.644531 11.632812 C 0.644531 5.566406 5.230469 0.683594 10.929688 0.683594 Z M 10.929688 0.683594 "/>
<path style=" stroke:none;fill-rule:nonzero;fill:rgb(78.039217%,53.725493%,12.156863%);fill-opacity:1;" d="M 12.214844 2.050781 L 78.429688 2.050781 C 84.125 2.050781 88.714844 6.933594 88.714844 13 L 88.714844 117.683594 C 88.714844 123.75 84.125 128.632812 78.429688 128.632812 L 12.214844 128.632812 C 6.515625 128.632812 1.929688 123.75 1.929688 117.683594 L 1.929688 13 C 1.929688 6.933594 6.515625 2.050781 12.214844 2.050781 Z M 12.214844 2.050781 "/>
<path style=" stroke:none;fill-rule:nonzero;fill:rgb(100%,100%,100%);fill-opacity:1;" d="M 11.570312 1.367188 L 77.785156 1.367188 C 83.484375 1.367188 88.070312 6.25 88.070312 12.316406 L 88.070312 117 C 88.070312 123.066406 83.484375 127.949219 77.785156 127.949219 L 11.570312 127.949219 C 5.875 127.949219 1.285156 123.066406 1.285156 117 L 1.285156 12.316406 C 1.285156 6.25 5.875 1.367188 11.570312 1.367188 Z M 11.570312 1.367188 "/>
<path style=" stroke:none;fill-rule:evenodd;fill:rgb(0%,0%,0%);fill-opacity:1;" d="M 44.296875 58.15625 C 42.453125 61.304688 36.796875 66.660156 40.378906 68.3125 C 42.554688 69.074219 43.589844 67.515625 44.03125 66.484375 L 44.117188 66.484375 L 42.671875 71.691406 L 46.019531 71.675781 C 46.019531 71.675781 44.578125 66.671875 44.574219 66.480469 L 44.609375 66.480469 C 44.964844 67.324219 46.308594 69.066406 47.785156 68.402344 C 52.109375 66.539062 45.742188 61.238281 44.296875 58.15625 Z M 44.296875 58.15625 "/>
<path style=" stroke:none;fill-rule:evenodd;fill:rgb(0%,0%,0%);fill-opacity:1;" d="M 31.445312 24.785156 C 29.601562 27.929688 23.941406 33.289062 27.527344 34.941406 C 29.703125 35.703125 30.738281 34.144531 31.175781 33.113281 L 31.265625 33.113281 L 29.820312 38.316406 L 33.167969 38.300781 C 33.167969 38.300781 31.726562 33.300781 31.722656 33.109375 L 31.757812 33.109375 C 32.109375 33.949219 33.453125 35.695312 34.933594 35.03125 C 39.257812 33.167969 32.890625 27.867188 31.445312 24.785156 Z M 31.445312 24.785156 "/>
<path style=" stroke:none;fill-rule:evenodd;fill:rgb(0%,0%,0%);fill-opacity:1;" d="M 57.890625 24.730469 C 56.046875 27.875 50.386719 33.230469 53.972656 34.886719 C 56.148438 35.648438 57.183594 34.089844 57.621094 33.054688 L 57.710938 33.054688 L 56.265625 38.261719 L 59.609375 38.246094 C 59.609375 38.246094 58.167969 33.242188 58.167969 33.050781 L 58.203125 33.050781 C 58.554688 33.894531 59.898438 35.640625 61.378906 34.976562 C 65.703125 33.113281 59.335938 27.808594 57.890625 24.730469 Z M 57.890625 24.730469 "/>
<path style=" stroke:none;fill-rule:evenodd;fill:rgb(0%,0%,0%);fill-opacity:1;" d="M 31.105469 48.855469 C 29.261719 52 23.601562 57.355469 27.1875 59.011719 C 29.363281 59.769531 30.398438 58.214844 30.835938 57.179688 L 30.925781 57.179688 L 29.480469 62.386719 L 32.828125 62.371094 C 32.828125 62.371094 31.386719 57.367188 31.382812 57.175781 L 31.417969 57.175781 C 31.769531 58.019531 33.117188 59.765625 34.59375 59.101562 C 38.917969 57.238281 32.550781 51.933594 31.105469 48.855469 Z M 31.105469 48.855469 "/>
<path style=" stroke:none;fill-rule:evenodd;fill:rgb(0%,0%,0%);fill-opacity:1;" d="M 56.792969 48.050781 C 54.949219 51.195312 49.292969 56.550781 52.875 58.207031 C 55.050781 58.96875 56.085938 57.410156 56.527344 56.378906 L 56.613281 56.378906 L 55.167969 61.582031 L 58.515625 61.566406 C 58.515625 61.566406 57.074219 56.5625 57.070312 56.371094 L 57.105469 56.371094 C 57.460938 57.214844 58.804688 58.960938 60.28125 58.296875 C 64.605469 56.433594 58.238281 51.128906 56.792969 48.050781 Z M 56.792969 48.050781 "/>
<path style=" stroke:none;fill-rule:evenodd;fill:rgb(0%,0%,0%);fill-opacity:1;" d="M 30.992188 81.6875 C 32.835938 78.539062 38.496094 73.183594 34.910156 71.53125 C 32.734375 70.769531 31.699219 72.328125 31.261719 73.359375 L 31.171875 73.359375 L 32.617188 68.152344 L 29.273438 68.167969 C 29.273438 68.167969 30.714844 73.171875 30.714844 73.363281 L 30.679688 73.363281 C 30.328125 72.519531 28.984375 70.773438 27.503906 71.441406 C 23.179688 73.304688 29.546875 78.605469 30.992188 81.6875 Z M 30.992188 81.6875 "/>
<path style=" stroke:none;fill-rule:evenodd;fill:rgb(0%,0%,0%);fill-opacity:1;" d="M 57.777344 81.742188 C 59.621094 78.597656 65.28125 73.238281 61.695312 71.585938 C 59.519531 70.824219 58.484375 72.382812 58.046875 73.414062 L 57.957031 73.414062 L 59.402344 68.210938 L 56.054688 68.226562 C 56.054688 68.226562 57.496094 73.230469 57.5 73.421875 L 57.464844 73.421875 C 57.113281 72.578125 55.765625 70.832031 54.289062 71.496094 C 49.964844 73.359375 56.332031 78.660156 57.777344 81.742188 Z M 57.777344 81.742188 "/>
<path style=" stroke:none;fill-rule:evenodd;fill:rgb(0%,0%,0%);fill-opacity:1;" d="M 58.195312 102.648438 C 60.039062 99.503906 65.695312 94.148438 62.113281 92.496094 C 59.9375 91.734375 58.898438 93.292969 58.460938 94.324219 L 58.375 94.324219 L 59.820312 89.117188 L 56.472656 89.132812 C 56.472656 89.132812 57.914062 94.136719 57.917969 94.328125 L 57.882812 94.328125 C 57.527344 93.484375 56.183594 91.738281 54.703125 92.40625 C 50.382812 94.269531 56.746094 99.570312 58.195312 102.648438 Z M 58.195312 102.648438 "/>
<path style=" stroke:none;fill-rule:evenodd;fill:rgb(0%,0%,0%);fill-opacity:1;" d="M 31.75 102.648438 C 33.59375 99.503906 39.25 94.148438 35.667969 92.496094 C 33.492188 91.734375 32.457031 93.292969 32.015625 94.324219 L 31.929688 94.324219 L 33.375 89.117188 L 30.027344 89.132812 C 30.027344 89.132812 31.46875 94.136719 31.472656 94.328125 L 31.4375 94.328125 C 31.082031 93.484375 29.738281 91.738281 28.261719 92.40625 C 23.9375 94.269531 30.304688 99.570312 31.75 102.648438 Z M 31.75 102.648438 "/>
<path style=" stroke:none;fill-rule:evenodd;fill:rgb(0%,0%,0%);fill-opacity:1;" d="M 13.273438 33.296875 C 10.105469 38.652344 0.390625 47.765625 6.546875 50.582031 C 10.28125 51.878906 12.058594 49.226562 12.8125 47.46875 L 12.960938 47.46875 L 10.480469 56.328125 L 16.226562 56.300781 C 16.226562 56.300781 13.753906 47.785156 13.746094 47.460938 L 13.808594 47.460938 C 14.414062 48.894531 16.722656 51.867188 19.261719 50.734375 C 26.683594 47.5625 15.753906 38.539062 13.273438 33.296875 Z M 13.273438 33.296875 "/>
<path style=" stroke:none;fill-rule:nonzero;fill:rgb(4.705882%,4.705882%,4.705882%);fill-opacity:1;" d="M 7.820312 28.445312 L 7.820312 24.652344 C 8.476562 25.046875 9.101562 25.34375 9.699219 25.546875 C 10.296875 25.738281 10.886719 25.832031 11.472656 25.832031 C 12.695312 25.832031 13.652344 25.398438 14.335938 24.527344 C 15.019531 23.648438 15.421875 22.347656 15.542969 20.625 C 15.058594 21.082031 14.542969 21.425781 13.992188 21.65625 C 13.445312 21.882812 12.851562 22 12.210938 22 C 10.578125 22 9.261719 21.386719 8.257812 20.167969 C 7.261719 18.941406 6.761719 17.328125 6.761719 15.332031 C 6.761719 13.121094 7.316406 11.351562 8.429688 10.023438 C 9.546875 8.695312 11.042969 8.03125 12.914062 8.03125 C 14.992188 8.03125 16.601562 8.933594 17.742188 10.738281 C 18.878906 12.542969 19.449219 15.097656 19.449219 18.394531 C 19.449219 21.789062 18.785156 24.453125 17.453125 26.398438 C 16.121094 28.332031 14.296875 29.296875 11.972656 29.296875 C 11.226562 29.296875 10.511719 29.226562 9.828125 29.078125 C 9.144531 28.941406 8.476562 28.730469 7.820312 28.445312 M 12.894531 18.5625 C 13.613281 18.5625 14.152344 18.261719 14.515625 17.667969 C 14.878906 17.0625 15.0625 16.160156 15.0625 14.960938 C 15.0625 13.765625 14.878906 12.871094 14.515625 12.265625 C 14.152344 11.660156 13.613281 11.355469 12.894531 11.355469 C 12.171875 11.355469 11.632812 11.660156 11.269531 12.265625 C 10.90625 12.871094 10.726562 13.765625 10.726562 14.960938 C 10.726562 16.160156 10.90625 17.0625 11.269531 17.667969 C 11.632812 18.261719 12.171875 18.5625 12.894531 18.5625 "/>
<path style=" stroke:none;fill-rule:evenodd;fill:rgb(0%,0%,0%);fill-opacity:1;" d="M 75.878906 95.789062 C 79.046875 90.4375 88.757812 81.320312 82.605469 78.503906 C 78.871094 77.207031 77.09375 79.859375 76.339844 81.617188 L 76.1875 81.617188 L 78.667969 72.757812 L 72.925781 72.785156 C 72.925781 72.785156 75.398438 81.300781 75.40625 81.625 L 75.34375 81.625 C 74.738281 80.191406 72.429688 77.21875 69.890625 78.351562 C 62.46875 81.523438 73.398438 90.546875 75.878906 95.789062 Z M 75.878906 95.789062 "/>
<path style=" stroke:none;fill-rule:nonzero;fill:rgb(4.705882%,4.705882%,4.705882%);fill-opacity:1;" d="M 81.332031 100.984375 L 81.332031 104.777344 C 80.675781 104.382812 80.050781 104.085938 79.453125 103.882812 C 78.855469 103.691406 78.261719 103.59375 77.679688 103.59375 C 76.453125 103.59375 75.5 104.03125 74.816406 104.902344 C 74.132812 105.78125 73.730469 107.082031 73.609375 108.804688 C 74.09375 108.347656 74.609375 108.003906 75.160156 107.773438 C 75.707031 107.546875 76.300781 107.429688 76.941406 107.429688 C 78.574219 107.429688 79.890625 108.039062 80.894531 109.261719 C 81.890625 110.488281 82.390625 112.101562 82.390625 114.097656 C 82.390625 116.308594 81.832031 118.078125 80.722656 119.40625 C 79.605469 120.734375 78.109375 121.398438 76.238281 121.398438 C 74.160156 121.398438 72.550781 120.496094 71.410156 118.691406 C 70.269531 116.886719 69.703125 114.332031 69.703125 111.035156 C 69.703125 107.640625 70.367188 104.976562 71.699219 103.03125 C 73.03125 101.097656 74.855469 100.132812 77.175781 100.132812 C 77.925781 100.132812 78.640625 100.203125 79.324219 100.351562 C 80.007812 100.488281 80.675781 100.699219 81.332031 100.984375 M 76.257812 110.867188 C 75.539062 110.867188 75 111.167969 74.636719 111.761719 C 74.273438 112.367188 74.089844 113.269531 74.089844 114.46875 C 74.089844 115.660156 74.273438 116.558594 74.636719 117.164062 C 75 117.769531 75.539062 118.074219 76.257812 118.074219 C 76.976562 118.074219 77.519531 117.769531 77.882812 117.164062 C 78.246094 116.558594 78.425781 115.660156 78.425781 114.46875 C 78.425781 113.269531 78.246094 112.367188 77.882812 111.761719 C 77.519531 111.167969 76.976562 110.867188 76.257812 110.867188 "/>
</g>
</svg>
