<?xml version="1.0" encoding="UTF-8"?>
<svg xmlns="http://www.w3.org/2000/svg" xmlns:xlink="http://www.w3.org/1999/xlink" width="90px" height="130px" viewBox="0 0 90 130" version="1.1">
<defs>
<linearGradient id="linear0" gradientUnits="userSpaceOnUse" x1="356.442322" y1="437.498871" x2="484.796082" y2="256.179657" gradientTransform="matrix(0.120102,0,0,0.0991127,-3.430626,26.154002)">
<stop offset="0" style="stop-color:rgb(100%,84.705883%,75.686276%);stop-opacity:1;"/>
<stop offset="1" style="stop-color:rgb(100%,92.941177%,92.941177%);stop-opacity:1;"/>
</linearGradient>
<linearGradient id="linear1" gradientUnits="userSpaceOnUse" x1="298.985718" y1="540.539185" x2="449.323181" y2="415.53949" gradientTransform="matrix(0.0931222,0,0,0.0991127,12.585294,34.35094)">
<stop offset="0" style="stop-color:rgb(75.686276%,0%,0%);stop-opacity:1;"/>
<stop offset="1" style="stop-color:rgb(100%,26.274511%,24.313726%);stop-opacity:1;"/>
</linearGradient>
<linearGradient id="linear2" gradientUnits="userSpaceOnUse" x1="294.246063" y1="346.326538" x2="312.092377" y2="322.138947" gradientTransform="matrix(0.0931222,0,0,0.0991127,11.221923,35.27682)">
<stop offset="0" style="stop-color:rgb(75.686276%,0%,0%);stop-opacity:1;"/>
<stop offset="1" style="stop-color:rgb(100%,26.274511%,24.313726%);stop-opacity:1;"/>
</linearGradient>
<linearGradient id="linear3" gradientUnits="userSpaceOnUse" x1="101.392616" y1="124.160812" x2="105.545486" y2="120.973312" gradientTransform="matrix(0.642856,0,0,0.684211,-23.136964,1.689719)">
<stop offset="0" style="stop-color:rgb(94.117647%,92.156863%,0%);stop-opacity:1;"/>
<stop offset="1" style="stop-color:rgb(100%,100%,0%);stop-opacity:1;"/>
</linearGradient>
<linearGradient id="linear4" gradientUnits="userSpaceOnUse" x1="98.818184" y1="108.763634" x2="112.890907" y2="103.334091" gradientTransform="matrix(0.642856,0,0,0.684211,-25.801891,2.398809)">
<stop offset="0" style="stop-color:rgb(0%,50.980395%,0%);stop-opacity:1;"/>
<stop offset="1" style="stop-color:rgb(0%,81.568629%,0%);stop-opacity:1;"/>
</linearGradient>
<linearGradient id="linear5" gradientUnits="userSpaceOnUse" x1="103.5625" y1="65.108551" x2="111.883057" y2="62.671051" gradientTransform="matrix(0.642856,0,0,0.684211,-25.404638,1.775245)">
<stop offset="0" style="stop-color:rgb(94.117647%,92.156863%,0%);stop-opacity:1;"/>
<stop offset="1" style="stop-color:rgb(100%,100%,0%);stop-opacity:1;"/>
</linearGradient>
<linearGradient id="linear6" gradientUnits="userSpaceOnUse" x1="93.499947" y1="62.938114" x2="117.139191" y2="57.702003" gradientTransform="matrix(0.642856,0,0,0.684211,-23.136964,1.689719)">
<stop offset="0" style="stop-color:rgb(75.686276%,0%,0%);stop-opacity:1;"/>
<stop offset="1" style="stop-color:rgb(100%,26.274511%,24.313726%);stop-opacity:1;"/>
</linearGradient>
<linearGradient id="linear7" gradientUnits="userSpaceOnUse" x1="104.75" y1="57.46875" x2="109.5" y2="55.78125" gradientTransform="matrix(0.642856,0,0,0.684211,-24.641246,1.048272)">
<stop offset="0" style="stop-color:rgb(94.117647%,92.156863%,0%);stop-opacity:1;"/>
<stop offset="1" style="stop-color:rgb(100%,100%,0%);stop-opacity:1;"/>
</linearGradient>
<linearGradient id="linear8" gradientUnits="userSpaceOnUse" x1="652.295288" y1="77.394516" x2="410.905945" y2="344.417145" gradientTransform="matrix(0.120119,0,0,0.0991127,-3.433387,26.16198)">
<stop offset="0" style="stop-color:rgb(100%,100%,100%);stop-opacity:1;"/>
<stop offset="1" style="stop-color:rgb(100%,100%,100%);stop-opacity:0;"/>
</linearGradient>
</defs>
<g id="surface1">
<path style=" stroke:none;fill-rule:nonzero;fill:rgb(0%,0%,0%);fill-opacity:0.498039;" d="M 13.5 3.421875 L 79.714844 3.421875 C 85.414062 3.421875 90 8.304688 90 14.367188 L 90 119.050781 C 90 125.117188 85.414062 130 79.714844 130 L 13.5 130 C 7.800781 130 3.214844 125.117188 3.214844 119.050781 L 3.214844 14.367188 C 3.214844 8.304688 7.800781 3.421875 13.5 3.421875 Z M 13.5 3.421875 "/>
<path style=" stroke:none;fill-rule:nonzero;fill:rgb(90.588236%,90.588236%,90.588236%);fill-opacity:1;" d="M 10.929688 0.683594 L 77.144531 0.683594 C 82.839844 0.683594 87.429688 5.566406 87.429688 11.632812 L 87.429688 116.316406 C 87.429688 122.378906 82.839844 127.261719 77.144531 127.261719 L 10.929688 127.261719 C 5.230469 127.261719 0.644531 122.378906 0.644531 116.316406 L 0.644531 11.632812 C 0.644531 5.566406 5.230469 0.683594 10.929688 0.683594 Z M 10.929688 0.683594 "/>
<path style=" stroke:none;fill-rule:nonzero;fill:rgb(78.039217%,53.725493%,12.156863%);fill-opacity:1;" d="M 12.214844 2.050781 L 78.429688 2.050781 C 84.125 2.050781 88.714844 6.933594 88.714844 13 L 88.714844 117.683594 C 88.714844 123.75 84.125 128.632812 78.429688 128.632812 L 12.214844 128.632812 C 6.515625 128.632812 1.929688 123.75 1.929688 117.683594 L 1.929688 13 C 1.929688 6.933594 6.515625 2.050781 12.214844 2.050781 Z M 12.214844 2.050781 "/>
<path style=" stroke:none;fill-rule:nonzero;fill:rgb(100%,100%,100%);fill-opacity:1;" d="M 11.570312 1.367188 L 77.785156 1.367188 C 83.484375 1.367188 88.070312 6.25 88.070312 12.316406 L 88.070312 117 C 88.070312 123.066406 83.484375 127.949219 77.785156 127.949219 L 11.570312 127.949219 C 5.875 127.949219 1.285156 123.066406 1.285156 117 L 1.285156 12.316406 C 1.285156 6.25 5.875 1.367188 11.570312 1.367188 Z M 11.570312 1.367188 "/>
<path style=" stroke:none;fill-rule:evenodd;fill:rgb(0%,0%,0%);fill-opacity:1;" d="M 13.269531 33.296875 C 10.105469 38.652344 0.390625 47.765625 6.546875 50.582031 C 10.28125 51.878906 12.058594 49.226562 12.8125 47.46875 L 12.960938 47.46875 L 10.480469 56.328125 L 16.226562 56.300781 C 16.226562 56.300781 13.753906 47.785156 13.746094 47.460938 L 13.808594 47.460938 C 14.414062 48.894531 16.722656 51.867188 19.261719 50.734375 C 26.683594 47.5625 15.753906 38.539062 13.269531 33.296875 Z M 13.269531 33.296875 "/>
<path style=" stroke:none;fill-rule:nonzero;fill:rgb(0%,0%,0%);fill-opacity:1;" d="M 12.011719 8.371094 L 16.121094 8.371094 L 16.121094 22.984375 C 16.121094 25 15.582031 26.507812 14.5 27.503906 C 13.425781 28.503906 11.792969 29 9.609375 29 L 8.773438 29 L 8.773438 25.847656 L 9.414062 25.847656 C 10.269531 25.847656 10.914062 25.605469 11.347656 25.121094 C 11.789062 24.636719 12.011719 23.925781 12.011719 22.984375 L 12.011719 8.371094 "/>
<path style=" stroke:none;fill-rule:evenodd;fill:rgb(0%,0%,0%);fill-opacity:1;" d="M 75.878906 95.789062 C 79.046875 90.4375 88.757812 81.320312 82.605469 78.503906 C 78.871094 77.207031 77.09375 79.859375 76.339844 81.617188 L 76.1875 81.617188 L 78.667969 72.757812 L 72.925781 72.785156 C 72.925781 72.785156 75.398438 81.300781 75.40625 81.625 L 75.34375 81.625 C 74.738281 80.191406 72.429688 77.21875 69.890625 78.351562 C 62.46875 81.523438 73.398438 90.546875 75.878906 95.789062 Z M 75.878906 95.789062 "/>
<path style=" stroke:none;fill-rule:nonzero;fill:rgb(0%,0%,0%);fill-opacity:1;" d="M 77.140625 121.105469 L 73.027344 121.105469 L 73.027344 106.492188 C 73.027344 104.476562 73.570312 102.96875 74.652344 101.96875 C 75.726562 100.972656 77.359375 100.472656 79.542969 100.472656 L 80.375 100.472656 L 80.375 103.628906 L 79.734375 103.628906 C 78.882812 103.628906 78.238281 103.871094 77.800781 104.355469 C 77.359375 104.839844 77.140625 105.550781 77.140625 106.492188 L 77.140625 121.105469 "/>
<path style=" stroke:none;fill-rule:nonzero;fill:rgb(0%,0%,0%);fill-opacity:1;" d="M 43.644531 37.160156 C 39.804688 39.742188 34.984375 34.996094 32.425781 40.5 C 30.179688 43.773438 37.265625 44.722656 32.792969 47.632812 C 29.734375 51.136719 29.914062 52.683594 32.554688 53.109375 C 31.792969 56.988281 32.347656 63.492188 34.015625 67.039062 C 31.953125 69.710938 33.5 68.792969 36.300781 69.347656 C 35.429688 70.824219 35.929688 76.226562 32.953125 77.894531 C 31.453125 82.699219 32.578125 87.910156 32.230469 92.882812 C 39.476562 96.132812 48.058594 96.5 54.988281 94.765625 C 58.035156 94.089844 61.511719 93.832031 60.894531 89.203125 C 61.078125 83.4375 61.722656 75.851562 55.8125 72.898438 C 52.355469 72.382812 51.207031 69.898438 53.855469 66.367188 C 55.824219 60.648438 57.996094 63.039062 61.019531 61.59375 C 64.171875 60.695312 56.519531 58.488281 57.53125 54.765625 C 56.550781 51.855469 55.355469 48.433594 53.398438 46.070312 C 58.332031 45.597656 58.863281 40.117188 54.847656 39 C 50.871094 36.179688 48.527344 40.996094 45.5 37.375 C 45 37.367188 44.148438 37.03125 43.644531 37.160156 Z M 43.644531 37.160156 "/>
<path style=" stroke:none;fill-rule:nonzero;fill:url(#linear0);" d="M 54.792969 58.550781 C 54.792969 66.359375 49.933594 72.695312 43.941406 72.695312 C 37.949219 72.695312 33.085938 66.359375 33.085938 58.550781 C 33.085938 50.742188 37.949219 44.402344 43.941406 44.402344 C 49.933594 44.402344 54.792969 50.742188 54.792969 58.550781 Z M 54.792969 58.550781 "/>
<path style=" stroke:none;fill-rule:nonzero;fill:url(#linear1);" d="M 41.6875 73.023438 C 37.15625 73.023438 33.503906 76.90625 33.503906 81.730469 L 33.503906 91.945312 C 39.535156 95.125 52.488281 95.292969 59.617188 91.945312 L 59.617188 81.730469 C 59.617188 76.90625 55.96875 73.023438 51.4375 73.023438 Z M 41.6875 73.023438 "/>
<path style=" stroke:none;fill-rule:evenodd;fill:rgb(0%,0%,0%);fill-opacity:1;" d="M 31.910156 51.960938 C 33.535156 48.863281 35.160156 42.941406 44.207031 43.003906 C 58.246094 43.441406 54.898438 59 59.925781 60.679688 C 56.804688 61.757812 55.230469 62.683594 50.578125 60.972656 C 51.085938 57.074219 50.253906 54.214844 48.054688 52.207031 C 45.308594 53.738281 34.722656 53.011719 31.910156 51.960938 Z M 31.910156 51.960938 "/>
<path style=" stroke:none;fill-rule:nonzero;fill:rgb(100%,100%,100%);fill-opacity:1;" d="M 43.59375 58.6875 C 43.59375 59.480469 42.71875 60.125 41.636719 60.125 C 40.558594 60.125 39.683594 59.480469 39.683594 58.6875 C 39.683594 57.890625 40.558594 57.246094 41.636719 57.246094 C 42.71875 57.246094 43.59375 57.890625 43.59375 58.6875 Z M 43.59375 58.6875 "/>
<path style=" stroke:none;fill-rule:nonzero;fill:rgb(11.764706%,18.039216%,81.176472%);fill-opacity:1;" d="M 41.917969 58.71875 C 41.917969 59.386719 41.417969 59.925781 40.800781 59.925781 C 40.183594 59.925781 39.683594 59.386719 39.683594 58.71875 C 39.683594 58.054688 40.183594 57.515625 40.800781 57.515625 C 41.417969 57.515625 41.917969 58.054688 41.917969 58.71875 Z M 41.917969 58.71875 "/>
<path style=" stroke:none;fill-rule:nonzero;fill:rgb(0%,0%,0%);fill-opacity:1;" d="M 41.078125 58.820312 C 41.078125 59.355469 40.765625 59.792969 40.382812 59.792969 C 39.996094 59.792969 39.683594 59.355469 39.683594 58.820312 C 39.683594 58.285156 39.996094 57.847656 40.382812 57.847656 C 40.765625 57.847656 41.078125 58.285156 41.078125 58.820312 Z M 41.078125 58.820312 "/>
<path style=" stroke:none;fill-rule:nonzero;fill:rgb(100%,100%,100%);fill-opacity:1;" d="M 37.109375 58.453125 C 37.109375 59.246094 36.234375 59.894531 35.152344 59.894531 C 34.074219 59.894531 33.199219 59.246094 33.199219 58.453125 C 33.199219 57.65625 34.074219 57.011719 35.152344 57.011719 C 36.234375 57.011719 37.109375 57.65625 37.109375 58.453125 Z M 37.109375 58.453125 "/>
<path style=" stroke:none;fill-rule:nonzero;fill:rgb(9.411765%,15.686275%,80.784315%);fill-opacity:1;" d="M 35.433594 58.484375 C 35.433594 59.152344 34.933594 59.691406 34.316406 59.691406 C 33.699219 59.691406 33.199219 59.152344 33.199219 58.484375 C 33.199219 57.820312 33.699219 57.28125 34.316406 57.28125 C 34.933594 57.28125 35.433594 57.820312 35.433594 58.484375 Z M 35.433594 58.484375 "/>
<path style=" stroke:none;fill-rule:nonzero;fill:rgb(0%,0%,0%);fill-opacity:1;" d="M 34.59375 58.585938 C 34.59375 59.121094 34.28125 59.558594 33.894531 59.558594 C 33.511719 59.558594 33.199219 59.121094 33.199219 58.585938 C 33.199219 58.050781 33.511719 57.617188 33.894531 57.617188 C 34.28125 57.617188 34.59375 58.050781 34.59375 58.585938 Z M 34.59375 58.585938 "/>
<path style=" stroke:none;fill-rule:evenodd;fill:url(#linear2);" d="M 36.515625 67.707031 C 37.703125 70.183594 40.949219 69.035156 44.054688 67.707031 C 40.632812 68.089844 38.273438 68.367188 36.515625 67.707031 Z M 36.515625 67.707031 "/>
<path style=" stroke:none;fill-rule:nonzero;fill:rgb(43.921569%,0%,0%);fill-opacity:1;" d="M 50.75 83.886719 L 51.5625 83.972656 L 52.441406 93.902344 L 50.214844 94.222656 Z M 50.75 83.886719 "/>
<path style=" stroke:none;fill-rule:evenodd;fill:rgb(0%,0%,0%);fill-opacity:1;" d="M 37.925781 59.457031 C 37.417969 60.335938 36.675781 61.785156 36.78125 62.449219 C 36.886719 63.113281 37.84375 62.96875 38.351562 63.355469 L 38.566406 63.027344 C 38.121094 62.691406 37.417969 63.023438 37.332031 62.476562 C 37.246094 61.925781 37.769531 60.480469 38.246094 59.65625 Z M 37.925781 59.457031 "/>
<path style=" stroke:none;fill-rule:evenodd;fill:rgb(0%,0%,0%);fill-opacity:1;" d="M 38.757812 64.691406 C 36.316406 64.949219 34.816406 66.949219 33.578125 68.402344 C 33.578125 68.402344 37.585938 66.035156 38.851562 66.082031 C 38.757812 65.746094 38.894531 65.316406 38.757812 64.691406 Z M 38.757812 64.691406 "/>
<path style=" stroke:none;fill-rule:evenodd;fill:rgb(0%,0%,0%);fill-opacity:1;" d="M 39.316406 64.59375 C 41.492188 64.828125 45.648438 66.625 45.839844 68.328125 C 45.839844 68.328125 40.769531 65.441406 39.578125 65.890625 C 39.570312 65.542969 39.363281 65.230469 39.316406 64.59375 Z M 39.316406 64.59375 "/>
<path style=" stroke:none;fill-rule:evenodd;fill:url(#linear3);" d="M 37.691406 74.167969 C 40.027344 81.847656 43.289062 88.5 46.988281 94.382812 L 49.359375 94.304688 C 45.671875 88.003906 41.820312 80.894531 39.621094 73.222656 C 39.621094 73.222656 38.3125 73.652344 37.691406 74.167969 Z M 37.691406 74.167969 "/>
<path style=" stroke:none;fill-rule:evenodd;fill:url(#linear4);" d="M 36.03125 71.761719 L 35.871094 78.773438 L 41.859375 74.882812 L 41.859375 75.867188 L 44.230469 76.078125 L 44.1875 74.753906 L 51.984375 78.472656 L 51.179688 70.222656 L 44.308594 73.941406 L 44.148438 72.703125 L 41.738281 72.53125 L 41.738281 73.855469 Z M 36.03125 71.761719 "/>
<path style=" stroke:none;fill-rule:evenodd;fill:url(#linear5);" d="M 35.90625 44.324219 L 35.5625 46.101562 C 40.492188 47.628906 47.074219 47.386719 52.765625 46.730469 C 52.753906 46.488281 52.542969 45.007812 52.542969 45.007812 C 47.0625 45.609375 40.058594 45.566406 35.90625 44.324219 Z M 35.90625 44.324219 "/>
<path style=" stroke:none;fill-rule:evenodd;fill:url(#linear6);" d="M 43.78125 45.394531 C 62.117188 48.015625 58.875 36.226562 44.789062 40.175781 C 31.195312 35.074219 27.925781 46.90625 43.78125 45.394531 Z M 43.78125 45.394531 "/>
<path style=" stroke:none;fill-rule:nonzero;fill:url(#linear7);" d="M 46.59375 39.640625 C 46.59375 40.269531 45.523438 40.773438 44.203125 40.773438 C 42.882812 40.773438 41.8125 40.269531 41.8125 39.640625 C 41.8125 39.015625 42.882812 38.507812 44.203125 38.507812 C 45.523438 38.507812 46.59375 39.015625 46.59375 39.640625 Z M 46.59375 39.640625 "/>
<path style=" stroke:none;fill-rule:nonzero;fill:url(#linear8);" d="M 44.207031 38.515625 C 43.042969 38.515625 42.1875 38.933594 41.976562 39.457031 C 33.695312 37.59375 30.671875 42.527344 35.847656 44.632812 L 35.585938 46.042969 C 33.660156 47.953125 32.761719 50.339844 31.910156 51.964844 C 32.394531 52.144531 33.335938 52.304688 34.199219 52.457031 C 33.515625 54.3125 33.09375 56.355469 33.09375 58.550781 C 33.09375 61.609375 33.855469 64.425781 35.125 66.742188 C 34.578125 67.296875 34.023438 67.886719 33.578125 68.410156 C 33.578125 68.410156 34.515625 67.875 35.507812 67.359375 C 37.453125 70.523438 40.390625 72.597656 43.722656 72.683594 L 41.734375 72.535156 L 41.734375 73.027344 L 41.695312 73.027344 C 41.105469 73.027344 40.519531 73.09375 39.96875 73.21875 L 36.027344 71.765625 L 35.949219 75.550781 C 34.449219 77.125 33.515625 79.300781 33.515625 81.730469 L 33.515625 91.949219 C 36.703125 93.628906 41.804688 94.421875 46.980469 94.34375 C 46.988281 94.355469 46.992188 94.375 47 94.386719 L 49.371094 94.324219 C 49.335938 94.269531 49.300781 94.207031 49.269531 94.152344 C 49.585938 94.128906 49.898438 94.09375 50.214844 94.066406 L 50.214844 94.238281 L 52.445312 93.917969 L 52.445312 93.894531 C 55.101562 93.5 57.601562 92.894531 59.617188 91.949219 L 59.617188 81.730469 C 59.617188 76.914062 55.980469 73.039062 51.460938 73.027344 L 51.179688 70.226562 L 46.015625 73.027344 L 44.1875 73.027344 L 44.144531 72.707031 L 44.003906 72.707031 C 49.101562 72.667969 53.339844 68.042969 54.472656 61.84375 C 56.46875 61.957031 57.910156 61.390625 59.9375 60.691406 C 56.414062 59.511719 56.894531 51.578125 52.726562 46.75 C 52.738281 46.746094 52.753906 46.75 52.765625 46.75 C 52.753906 46.546875 52.636719 45.671875 52.585938 45.316406 C 59.652344 43.683594 56.144531 37.898438 46.355469 39.90625 C 46.410156 39.8125 46.597656 39.753906 46.597656 39.648438 C 46.597656 39.023438 45.527344 38.515625 44.207031 38.515625 Z M 44.207031 38.515625 "/>
</g>
</svg>
