<?xml version="1.0" encoding="UTF-8"?>
<svg xmlns="http://www.w3.org/2000/svg" xmlns:xlink="http://www.w3.org/1999/xlink" width="90px" height="130px" viewBox="0 0 90 130" version="1.1">
<g id="surface1">
<path style=" stroke:none;fill-rule:nonzero;fill:rgb(0%,0%,0%);fill-opacity:0.498039;" d="M 13.5 3.421875 L 79.714844 3.421875 C 85.414062 3.421875 90 8.304688 90 14.367188 L 90 119.050781 C 90 125.117188 85.414062 130 79.714844 130 L 13.5 130 C 7.800781 130 3.214844 125.117188 3.214844 119.050781 L 3.214844 14.367188 C 3.214844 8.304688 7.800781 3.421875 13.5 3.421875 Z M 13.5 3.421875 "/>
<path style=" stroke:none;fill-rule:nonzero;fill:rgb(90.588236%,90.588236%,90.588236%);fill-opacity:1;" d="M 10.929688 0.683594 L 77.144531 0.683594 C 82.839844 0.683594 87.429688 5.566406 87.429688 11.632812 L 87.429688 116.316406 C 87.429688 122.378906 82.839844 127.261719 77.144531 127.261719 L 10.929688 127.261719 C 5.230469 127.261719 0.644531 122.378906 0.644531 116.316406 L 0.644531 11.632812 C 0.644531 5.566406 5.230469 0.683594 10.929688 0.683594 Z M 10.929688 0.683594 "/>
<path style=" stroke:none;fill-rule:nonzero;fill:rgb(78.039217%,53.725493%,12.156863%);fill-opacity:1;" d="M 12.214844 2.050781 L 78.429688 2.050781 C 84.125 2.050781 88.714844 6.933594 88.714844 13 L 88.714844 117.683594 C 88.714844 123.75 84.125 128.632812 78.429688 128.632812 L 12.214844 128.632812 C 6.515625 128.632812 1.929688 123.75 1.929688 117.683594 L 1.929688 13 C 1.929688 6.933594 6.515625 2.050781 12.214844 2.050781 Z M 12.214844 2.050781 "/>
<path style=" stroke:none;fill-rule:nonzero;fill:rgb(100%,100%,100%);fill-opacity:1;" d="M 11.570312 1.367188 L 77.785156 1.367188 C 83.484375 1.367188 88.070312 6.25 88.070312 12.316406 L 88.070312 117 C 88.070312 123.066406 83.484375 127.949219 77.785156 127.949219 L 11.570312 127.949219 C 5.875 127.949219 1.285156 123.066406 1.285156 117 L 1.285156 12.316406 C 1.285156 6.25 5.875 1.367188 11.570312 1.367188 Z M 11.570312 1.367188 "/>
<path style=" stroke:none;fill-rule:nonzero;fill:rgb(0%,0%,0%);fill-opacity:1;" d="M 7.949219 8.375 L 18.167969 8.375 L 18.167969 12.265625 L 11.226562 12.265625 L 11.226562 15.441406 C 11.539062 15.332031 11.851562 15.246094 12.167969 15.191406 C 12.488281 15.128906 12.816406 15.097656 13.160156 15.097656 C 15.101562 15.097656 16.617188 15.722656 17.699219 16.980469 C 18.78125 18.226562 19.320312 19.96875 19.320312 22.203125 C 19.320312 24.421875 18.730469 26.160156 17.550781 27.414062 C 16.375 28.671875 14.742188 29.296875 12.648438 29.296875 C 11.742188 29.296875 10.84375 29.183594 9.957031 28.953125 C 9.074219 28.734375 8.195312 28.394531 7.316406 27.9375 L 7.316406 23.773438 C 8.1875 24.414062 9.007812 24.894531 9.785156 25.214844 C 10.566406 25.535156 11.304688 25.695312 11.996094 25.695312 C 12.992188 25.695312 13.777344 25.382812 14.34375 24.761719 C 14.921875 24.128906 15.210938 23.277344 15.210938 22.203125 C 15.210938 21.121094 14.921875 20.269531 14.34375 19.648438 C 13.777344 19.023438 12.992188 18.710938 11.996094 18.710938 C 11.40625 18.710938 10.773438 18.8125 10.105469 19.015625 C 9.4375 19.207031 8.71875 19.507812 7.949219 19.921875 L 7.949219 8.375 "/>
<path style=" stroke:none;fill-rule:nonzero;fill:rgb(0%,0%,0%);fill-opacity:1;" d="M 81.203125 121.105469 L 70.984375 121.105469 L 70.984375 117.214844 L 77.925781 117.214844 L 77.925781 114.039062 C 77.613281 114.148438 77.296875 114.230469 76.984375 114.285156 C 76.664062 114.351562 76.332031 114.382812 75.992188 114.382812 C 74.046875 114.382812 72.535156 113.753906 71.453125 112.5 C 70.371094 111.253906 69.828125 109.511719 69.828125 107.273438 C 69.828125 105.054688 70.421875 103.320312 71.601562 102.0625 C 72.777344 100.808594 74.410156 100.179688 76.503906 100.179688 C 77.410156 100.179688 78.304688 100.296875 79.195312 100.523438 C 80.078125 100.742188 80.957031 101.082031 81.832031 101.542969 L 81.832031 105.707031 C 80.964844 105.066406 80.144531 104.585938 79.367188 104.265625 C 78.582031 103.941406 77.847656 103.78125 77.15625 103.78125 C 76.160156 103.78125 75.375 104.09375 74.804688 104.71875 C 74.230469 105.351562 73.941406 106.203125 73.941406 107.273438 C 73.941406 108.355469 74.230469 109.207031 74.804688 109.832031 C 75.375 110.453125 76.160156 110.765625 77.15625 110.765625 C 77.746094 110.765625 78.375 110.664062 79.046875 110.464844 C 79.714844 110.273438 80.433594 109.96875 81.203125 109.558594 L 81.203125 121.105469 "/>
<path style=" stroke:none;fill-rule:evenodd;fill:rgb(0%,0%,0%);fill-opacity:1;" d="M 13.792969 32.84375 C 12.078125 32.84375 10.6875 35.078125 10.6875 37.828125 C 10.6875 40.171875 13.511719 44.117188 13.402344 45.992188 C 12.496094 46.527344 9.695312 41.585938 8.246094 41.585938 C 6.535156 41.585938 5.144531 43.820312 5.144531 46.570312 C 5.144531 49.324219 6.535156 51.554688 8.246094 51.554688 C 9.734375 51.554688 12.28125 46.621094 13.402344 47.066406 L 11.519531 55.875 L 16.035156 55.847656 C 16.035156 55.847656 14.058594 47.304688 14.054688 47.105469 L 14.089844 47.105469 L 14.089844 47.113281 C 15.1875 46.675781 17.824219 51.652344 19.296875 51.652344 C 21.011719 51.652344 22.402344 49.417969 22.402344 46.667969 C 22.402344 43.914062 21.011719 41.679688 19.296875 41.679688 C 17.855469 41.679688 15.242188 46.539062 14.097656 46.039062 C 14.113281 44.121094 16.898438 40.171875 16.898438 37.828125 C 16.898438 35.078125 15.507812 32.84375 13.792969 32.84375 Z M 13.792969 32.84375 "/>
<path style=" stroke:none;fill-rule:evenodd;fill:rgb(0%,0%,0%);fill-opacity:1;" d="M 75.484375 95.765625 C 77.195312 95.765625 78.589844 93.53125 78.589844 90.777344 C 78.589844 88.433594 75.765625 84.488281 75.875 82.617188 C 76.78125 82.082031 79.582031 87.019531 81.03125 87.019531 C 82.742188 87.019531 84.132812 84.789062 84.132812 82.035156 C 84.132812 79.285156 82.742188 77.050781 81.03125 77.050781 C 79.542969 77.050781 76.996094 81.988281 75.875 81.542969 L 77.757812 72.734375 L 73.242188 72.761719 C 73.242188 72.761719 75.21875 81.300781 75.222656 81.503906 L 75.1875 81.503906 L 75.1875 81.492188 C 74.089844 81.933594 71.453125 76.957031 69.976562 76.957031 C 68.265625 76.957031 66.875 79.1875 66.875 81.941406 C 66.875 84.691406 68.265625 86.925781 69.976562 86.925781 C 71.421875 86.925781 74.035156 82.066406 75.179688 82.570312 C 75.164062 84.488281 72.378906 88.4375 72.378906 90.777344 C 72.378906 93.53125 73.769531 95.765625 75.484375 95.765625 Z M 75.484375 95.765625 "/>
<path style=" stroke:none;fill-rule:evenodd;fill:rgb(0%,0%,0%);fill-opacity:1;" d="M 32.914062 30.789062 C 31.914062 30.789062 31.105469 32.101562 31.105469 33.71875 C 31.105469 35.097656 32.75 37.414062 32.6875 38.515625 C 32.15625 38.828125 30.527344 35.925781 29.683594 35.925781 C 28.683594 35.925781 27.875 37.238281 27.875 38.855469 C 27.875 40.472656 28.683594 41.785156 29.683594 41.785156 C 30.550781 41.785156 32.03125 38.886719 32.6875 39.148438 L 31.589844 44.324219 L 34.21875 44.304688 C 34.21875 44.304688 33.066406 39.289062 33.066406 39.167969 L 33.085938 39.167969 L 33.085938 39.175781 C 33.726562 38.917969 35.261719 41.839844 36.121094 41.839844 C 37.117188 41.839844 37.929688 40.53125 37.929688 38.914062 C 37.929688 37.296875 37.117188 35.984375 36.121094 35.984375 C 35.28125 35.984375 33.757812 38.835938 33.089844 38.542969 C 33.097656 37.414062 34.722656 35.09375 34.722656 33.71875 C 34.722656 32.101562 33.910156 30.789062 32.914062 30.789062 Z M 32.914062 30.789062 "/>
<path style=" stroke:none;fill-rule:evenodd;fill:rgb(0%,0%,0%);fill-opacity:1;" d="M 45.128906 56.105469 C 44.128906 56.105469 43.320312 57.417969 43.320312 59.035156 C 43.320312 60.414062 44.964844 62.730469 44.898438 63.832031 C 44.371094 64.144531 42.742188 61.242188 41.898438 61.242188 C 40.898438 61.242188 40.089844 62.554688 40.089844 64.171875 C 40.089844 65.789062 40.898438 67.101562 41.898438 67.101562 C 42.761719 67.101562 44.246094 64.199219 44.898438 64.460938 L 43.804688 69.640625 L 46.433594 69.621094 C 46.433594 69.621094 45.28125 64.605469 45.28125 64.484375 L 45.300781 64.484375 L 45.300781 64.492188 C 45.941406 64.234375 47.472656 67.15625 48.335938 67.15625 C 49.332031 67.15625 50.144531 65.84375 50.144531 64.226562 C 50.144531 62.609375 49.332031 61.296875 48.335938 61.296875 C 47.496094 61.296875 45.972656 64.152344 45.304688 63.859375 C 45.3125 62.730469 46.9375 60.410156 46.9375 59.035156 C 46.9375 57.417969 46.125 56.105469 45.128906 56.105469 Z M 45.128906 56.105469 "/>
<path style=" stroke:none;fill-rule:evenodd;fill:rgb(0%,0%,0%);fill-opacity:1;" d="M 56.054688 30.789062 C 55.058594 30.789062 54.246094 32.101562 54.246094 33.71875 C 54.246094 35.097656 55.890625 37.414062 55.828125 38.515625 C 55.300781 38.828125 53.667969 35.925781 52.824219 35.925781 C 51.828125 35.925781 51.015625 37.238281 51.015625 38.855469 C 51.015625 40.472656 51.828125 41.785156 52.824219 41.785156 C 53.691406 41.785156 55.175781 38.886719 55.828125 39.148438 L 54.730469 44.324219 L 57.363281 44.304688 C 57.363281 44.304688 56.210938 39.289062 56.207031 39.167969 L 56.230469 39.167969 L 56.230469 39.175781 C 56.867188 38.917969 58.402344 41.839844 59.261719 41.839844 C 60.261719 41.839844 61.070312 40.53125 61.070312 38.914062 C 61.070312 37.296875 60.261719 35.984375 59.261719 35.984375 C 58.421875 35.984375 56.902344 38.835938 56.230469 38.542969 C 56.242188 37.414062 57.863281 35.09375 57.863281 33.71875 C 57.863281 32.101562 57.054688 30.789062 56.054688 30.789062 Z M 56.054688 30.789062 "/>
<path style=" stroke:none;fill-rule:evenodd;fill:rgb(0%,0%,0%);fill-opacity:1;" d="M 56.675781 97.007812 C 57.671875 97.007812 58.484375 95.695312 58.484375 94.078125 C 58.484375 92.699219 56.839844 90.382812 56.902344 89.28125 C 57.429688 88.96875 59.0625 91.871094 59.90625 91.871094 C 60.902344 91.871094 61.714844 90.558594 61.714844 88.941406 C 61.714844 87.324219 60.902344 86.011719 59.90625 86.011719 C 59.039062 86.011719 57.554688 88.910156 56.902344 88.648438 L 58 83.472656 L 55.371094 83.492188 C 55.371094 83.492188 56.523438 88.507812 56.523438 88.628906 L 56.503906 88.628906 L 56.503906 88.621094 C 55.863281 88.878906 54.328125 85.957031 53.46875 85.957031 C 52.46875 85.957031 51.660156 87.265625 51.660156 88.882812 C 51.660156 90.5 52.46875 91.8125 53.46875 91.8125 C 54.308594 91.8125 55.832031 88.960938 56.5 89.253906 C 56.488281 90.382812 54.867188 92.703125 54.867188 94.078125 C 54.867188 95.695312 55.675781 97.007812 56.675781 97.007812 Z M 56.675781 97.007812 "/>
<path style=" stroke:none;fill-rule:evenodd;fill:rgb(0%,0%,0%);fill-opacity:1;" d="M 34.175781 97.007812 C 35.171875 97.007812 35.984375 95.695312 35.984375 94.078125 C 35.984375 92.699219 34.339844 90.382812 34.402344 89.28125 C 34.929688 88.96875 36.5625 91.871094 37.40625 91.871094 C 38.402344 91.871094 39.214844 90.558594 39.214844 88.941406 C 39.214844 87.324219 38.402344 86.011719 37.40625 86.011719 C 36.539062 86.011719 35.054688 88.910156 34.402344 88.648438 L 35.5 83.472656 L 32.871094 83.492188 C 32.871094 83.492188 34.023438 88.507812 34.023438 88.628906 L 34.003906 88.628906 L 34.003906 88.621094 C 33.363281 88.878906 31.828125 85.957031 30.96875 85.957031 C 29.96875 85.957031 29.160156 87.265625 29.160156 88.882812 C 29.160156 90.5 29.96875 91.8125 30.96875 91.8125 C 31.808594 91.8125 33.332031 88.960938 34 89.253906 C 33.988281 90.382812 32.367188 92.703125 32.367188 94.078125 C 32.367188 95.695312 33.175781 97.007812 34.175781 97.007812 Z M 34.175781 97.007812 "/>
</g>
</svg>
