<?xml version="1.0" encoding="UTF-8"?>
<svg xmlns="http://www.w3.org/2000/svg" xmlns:xlink="http://www.w3.org/1999/xlink" width="90px" height="130px" viewBox="0 0 90 130" version="1.1">
<g id="surface1">
<path style=" stroke:none;fill-rule:nonzero;fill:rgb(0%,0%,0%);fill-opacity:0.498039;" d="M 13.5 3.421875 L 79.714844 3.421875 C 85.414062 3.421875 90 8.304688 90 14.367188 L 90 119.050781 C 90 125.117188 85.414062 130 79.714844 130 L 13.5 130 C 7.800781 130 3.214844 125.117188 3.214844 119.050781 L 3.214844 14.367188 C 3.214844 8.304688 7.800781 3.421875 13.5 3.421875 Z M 13.5 3.421875 "/>
<path style=" stroke:none;fill-rule:nonzero;fill:rgb(90.588236%,90.588236%,90.588236%);fill-opacity:1;" d="M 10.929688 0.683594 L 77.144531 0.683594 C 82.839844 0.683594 87.429688 5.566406 87.429688 11.632812 L 87.429688 116.316406 C 87.429688 122.378906 82.839844 127.261719 77.144531 127.261719 L 10.929688 127.261719 C 5.230469 127.261719 0.644531 122.378906 0.644531 116.316406 L 0.644531 11.632812 C 0.644531 5.566406 5.230469 0.683594 10.929688 0.683594 Z M 10.929688 0.683594 "/>
<path style=" stroke:none;fill-rule:nonzero;fill:rgb(78.039217%,53.725493%,12.156863%);fill-opacity:1;" d="M 12.214844 2.050781 L 78.429688 2.050781 C 84.125 2.050781 88.714844 6.933594 88.714844 13 L 88.714844 117.683594 C 88.714844 123.75 84.125 128.632812 78.429688 128.632812 L 12.214844 128.632812 C 6.515625 128.632812 1.929688 123.75 1.929688 117.683594 L 1.929688 13 C 1.929688 6.933594 6.515625 2.050781 12.214844 2.050781 Z M 12.214844 2.050781 "/>
<path style=" stroke:none;fill-rule:nonzero;fill:rgb(100%,100%,100%);fill-opacity:1;" d="M 11.570312 1.367188 L 77.785156 1.367188 C 83.484375 1.367188 88.070312 6.25 88.070312 12.316406 L 88.070312 117 C 88.070312 123.066406 83.484375 127.949219 77.785156 127.949219 L 11.570312 127.949219 C 5.875 127.949219 1.285156 123.066406 1.285156 117 L 1.285156 12.316406 C 1.285156 6.25 5.875 1.367188 11.570312 1.367188 Z M 11.570312 1.367188 "/>
<path style=" stroke:none;fill-rule:nonzero;fill:rgb(100%,0%,0%);fill-opacity:1;" d="M 7.507812 28.988281 L 7.507812 12.847656 L 4.140625 12.800781 L 4.300781 10.324219 L 7.488281 8.210938 L 11.019531 8.210938 L 11.019531 28.988281 M 19.652344 18.574219 C 19.652344 16.007812 19.484375 14.203125 19.144531 13.15625 C 18.808594 12.101562 18.242188 11.574219 17.445312 11.574219 C 16.648438 11.574219 16.078125 12.101562 15.738281 13.15625 C 15.398438 14.203125 15.226562 16.007812 15.226562 18.574219 C 15.226562 21.167969 15.398438 22.996094 15.738281 24.058594 C 16.078125 25.121094 16.648438 25.652344 17.445312 25.652344 C 18.234375 25.652344 18.800781 25.121094 19.144531 24.058594 C 19.484375 22.996094 19.652344 21.167969 19.652344 18.574219 M 23.367188 18.613281 C 23.367188 22.015625 22.851562 24.640625 21.824219 26.492188 C 20.796875 28.335938 19.335938 29.257812 17.445312 29.257812 C 15.546875 29.257812 14.085938 28.335938 13.054688 26.492188 C 12.027344 24.640625 11.511719 22.015625 11.511719 18.613281 C 11.511719 15.207031 12.027344 12.578125 13.054688 10.738281 C 14.085938 8.886719 15.546875 7.960938 17.445312 7.960938 C 19.335938 7.960938 20.796875 8.886719 21.824219 10.738281 C 22.851562 12.578125 23.367188 15.207031 23.367188 18.613281 "/>
<path style=" stroke:none;fill-rule:evenodd;fill:rgb(100%,0%,0%);fill-opacity:1;" d="M 8.710938 33.421875 C 8.195312 33.425781 7.628906 33.558594 7 33.859375 C 0.160156 39.472656 9.382812 48.519531 13.277344 56.289062 L 13.390625 56.328125 C 17.671875 47.835938 25.820312 38.492188 19.59375 33.859375 C 14.660156 31.492188 13.34375 39.375 13.296875 39.65625 C 13.257812 39.410156 12.25 33.394531 8.710938 33.421875 Z M 8.710938 33.421875 "/>
<path style=" stroke:none;fill-rule:nonzero;fill:rgb(100%,0%,0%);fill-opacity:1;" d="M 81.765625 100.328125 L 81.765625 116.46875 L 85.128906 116.515625 L 84.96875 118.992188 L 81.785156 121.105469 L 78.253906 121.105469 L 78.253906 100.328125 M 69.617188 110.742188 C 69.617188 113.308594 69.789062 115.113281 70.128906 116.160156 C 70.460938 117.210938 71.027344 117.738281 71.824219 117.738281 C 72.625 117.738281 73.191406 117.210938 73.535156 116.160156 C 73.875 115.113281 74.042969 113.308594 74.042969 110.742188 C 74.042969 108.148438 73.875 106.320312 73.535156 105.257812 C 73.191406 104.191406 72.625 103.660156 71.824219 103.660156 C 71.035156 103.660156 70.46875 104.191406 70.128906 105.257812 C 69.789062 106.320312 69.617188 108.148438 69.617188 110.742188 M 65.902344 110.699219 C 65.902344 107.300781 66.417969 104.675781 67.445312 102.824219 C 68.476562 100.980469 69.933594 100.058594 71.824219 100.058594 C 73.722656 100.058594 75.1875 100.980469 76.214844 102.824219 C 77.242188 104.675781 77.757812 107.300781 77.757812 110.699219 C 77.757812 114.109375 77.242188 116.734375 76.214844 118.578125 C 75.1875 120.429688 73.722656 121.355469 71.824219 121.355469 C 69.933594 121.355469 68.476562 120.429688 67.445312 118.578125 C 66.417969 116.734375 65.902344 114.109375 65.902344 110.699219 "/>
<path style=" stroke:none;fill-rule:evenodd;fill:rgb(100%,0%,0%);fill-opacity:1;" d="M 80.558594 95.785156 C 81.074219 95.78125 81.640625 95.648438 82.265625 95.347656 C 89.109375 89.734375 79.886719 80.6875 75.992188 72.917969 L 75.878906 72.878906 C 71.597656 81.371094 63.449219 90.714844 69.675781 95.347656 C 74.609375 97.714844 75.925781 89.832031 75.972656 89.550781 C 76.011719 89.796875 77.019531 95.8125 80.558594 95.785156 Z M 80.558594 95.785156 "/>
<path style=" stroke:none;fill-rule:evenodd;fill:rgb(100%,0%,0%);fill-opacity:1;" d="M 41.867188 34.898438 C 41.566406 34.898438 41.238281 34.976562 40.871094 35.15625 C 36.898438 38.472656 42.253906 43.816406 44.519531 48.40625 L 44.582031 48.429688 C 47.070312 43.410156 51.800781 37.890625 48.1875 35.15625 C 45.320312 33.757812 44.554688 38.414062 44.527344 38.582031 C 44.503906 38.433594 43.921875 34.882812 41.867188 34.898438 Z M 41.867188 34.898438 "/>
<path style=" stroke:none;fill-rule:evenodd;fill:rgb(100%,0%,0%);fill-opacity:1;" d="M 46.847656 93.050781 C 47.148438 93.046875 47.476562 92.96875 47.84375 92.789062 C 51.816406 89.476562 46.457031 84.132812 44.195312 79.542969 L 44.132812 79.519531 C 41.644531 84.535156 36.910156 90.054688 40.527344 92.789062 C 43.394531 94.191406 44.160156 89.535156 44.183594 89.367188 C 44.207031 89.511719 44.792969 93.066406 46.847656 93.050781 Z M 46.847656 93.050781 "/>
<path style=" stroke:none;fill-rule:evenodd;fill:rgb(100%,0%,0%);fill-opacity:1;" d="M 28.367188 27.519531 C 28.066406 27.523438 27.738281 27.601562 27.371094 27.78125 C 23.398438 31.09375 28.753906 36.441406 31.019531 41.027344 L 31.082031 41.050781 C 33.570312 36.035156 38.300781 30.515625 34.6875 27.78125 C 31.820312 26.382812 31.054688 31.039062 31.027344 31.207031 C 31.003906 31.058594 30.421875 27.507812 28.367188 27.519531 Z M 28.367188 27.519531 "/>
<path style=" stroke:none;fill-rule:evenodd;fill:rgb(100%,0%,0%);fill-opacity:1;" d="M 53.4375 27.371094 C 53.136719 27.371094 52.808594 27.453125 52.441406 27.628906 C 48.46875 30.945312 53.828125 36.289062 56.089844 40.878906 L 56.15625 40.902344 C 58.640625 35.886719 63.375 30.367188 59.757812 27.628906 C 56.890625 26.230469 56.128906 30.886719 56.101562 31.054688 C 56.078125 30.910156 55.492188 27.355469 53.4375 27.371094 Z M 53.4375 27.371094 "/>
<path style=" stroke:none;fill-rule:evenodd;fill:rgb(100%,0%,0%);fill-opacity:1;" d="M 28.777344 48.730469 C 28.476562 48.734375 28.148438 48.8125 27.785156 48.992188 C 23.808594 52.304688 29.167969 57.648438 31.429688 62.238281 L 31.496094 62.261719 C 33.980469 57.246094 38.714844 51.726562 35.097656 48.992188 C 32.234375 47.59375 31.46875 52.25 31.441406 52.414062 C 31.417969 52.269531 30.832031 48.714844 28.777344 48.730469 Z M 28.777344 48.730469 "/>
<path style=" stroke:none;fill-rule:evenodd;fill:rgb(100%,0%,0%);fill-opacity:1;" d="M 54.078125 48.046875 C 53.78125 48.050781 53.449219 48.128906 53.085938 48.308594 C 49.113281 51.621094 54.46875 56.964844 56.730469 61.554688 L 56.796875 61.578125 C 59.285156 56.5625 64.015625 51.042969 60.402344 48.308594 C 57.535156 46.910156 56.769531 51.5625 56.742188 51.730469 C 56.71875 51.585938 56.136719 48.03125 54.078125 48.046875 Z M 54.078125 48.046875 "/>
<path style=" stroke:none;fill-rule:evenodd;fill:rgb(100%,0%,0%);fill-opacity:1;" d="M 34.222656 81.953125 C 34.523438 81.949219 34.851562 81.871094 35.214844 81.691406 C 39.191406 78.378906 33.832031 73.035156 31.570312 68.445312 L 31.503906 68.421875 C 29.019531 73.4375 24.285156 78.957031 27.902344 81.691406 C 30.765625 83.089844 31.53125 78.4375 31.558594 78.269531 C 31.582031 78.414062 32.167969 81.96875 34.222656 81.953125 Z M 34.222656 81.953125 "/>
<path style=" stroke:none;fill-rule:evenodd;fill:rgb(100%,0%,0%);fill-opacity:1;" d="M 34.632812 100.425781 C 34.933594 100.425781 35.261719 100.34375 35.628906 100.167969 C 39.601562 96.851562 34.246094 91.507812 31.980469 86.917969 L 31.917969 86.894531 C 29.429688 91.910156 24.699219 97.429688 28.3125 100.167969 C 31.179688 101.566406 31.945312 96.910156 31.972656 96.742188 C 31.996094 96.886719 32.578125 100.441406 34.632812 100.425781 Z M 34.632812 100.425781 "/>
<path style=" stroke:none;fill-rule:evenodd;fill:rgb(100%,0%,0%);fill-opacity:1;" d="M 58.652344 100.425781 C 58.953125 100.425781 59.28125 100.34375 59.644531 100.167969 C 63.621094 96.851562 58.261719 91.507812 56 86.917969 L 55.933594 86.894531 C 53.449219 91.910156 48.714844 97.429688 52.332031 100.167969 C 55.195312 101.566406 55.960938 96.910156 55.988281 96.742188 C 56.011719 96.886719 56.597656 100.441406 58.652344 100.425781 Z M 58.652344 100.425781 "/>
<path style=" stroke:none;fill-rule:evenodd;fill:rgb(100%,0%,0%);fill-opacity:1;" d="M 59.707031 81.417969 C 60.003906 81.417969 60.335938 81.335938 60.699219 81.160156 C 64.675781 77.84375 59.316406 72.5 57.054688 67.910156 L 56.988281 67.886719 C 54.5 72.902344 49.769531 78.425781 53.386719 81.160156 C 56.25 82.558594 57.015625 77.902344 57.042969 77.734375 C 57.066406 77.882812 57.648438 81.433594 59.707031 81.417969 Z M 59.707031 81.417969 "/>
</g>
</svg>
