<?xml version="1.0" encoding="UTF-8"?>
<svg xmlns="http://www.w3.org/2000/svg" xmlns:xlink="http://www.w3.org/1999/xlink" width="90px" height="130px" viewBox="0 0 90 130" version="1.1">
<g id="surface1">
<path style=" stroke:none;fill-rule:nonzero;fill:rgb(0%,0%,0%);fill-opacity:0.498039;" d="M 13.5 3.421875 L 79.714844 3.421875 C 85.414062 3.421875 90 8.304688 90 14.367188 L 90 119.050781 C 90 125.117188 85.414062 130 79.714844 130 L 13.5 130 C 7.800781 130 3.214844 125.117188 3.214844 119.050781 L 3.214844 14.367188 C 3.214844 8.304688 7.800781 3.421875 13.5 3.421875 Z M 13.5 3.421875 "/>
<path style=" stroke:none;fill-rule:nonzero;fill:rgb(90.588236%,90.588236%,90.588236%);fill-opacity:1;" d="M 10.929688 0.683594 L 77.144531 0.683594 C 82.839844 0.683594 87.429688 5.566406 87.429688 11.632812 L 87.429688 116.316406 C 87.429688 122.378906 82.839844 127.261719 77.144531 127.261719 L 10.929688 127.261719 C 5.230469 127.261719 0.644531 122.378906 0.644531 116.316406 L 0.644531 11.632812 C 0.644531 5.566406 5.230469 0.683594 10.929688 0.683594 Z M 10.929688 0.683594 "/>
<path style=" stroke:none;fill-rule:nonzero;fill:rgb(78.039217%,53.725493%,12.156863%);fill-opacity:1;" d="M 12.214844 2.050781 L 78.429688 2.050781 C 84.125 2.050781 88.714844 6.933594 88.714844 13 L 88.714844 117.683594 C 88.714844 123.75 84.125 128.632812 78.429688 128.632812 L 12.214844 128.632812 C 6.515625 128.632812 1.929688 123.75 1.929688 117.683594 L 1.929688 13 C 1.929688 6.933594 6.515625 2.050781 12.214844 2.050781 Z M 12.214844 2.050781 "/>
<path style=" stroke:none;fill-rule:nonzero;fill:rgb(100%,100%,100%);fill-opacity:1;" d="M 11.570312 1.367188 L 77.785156 1.367188 C 83.484375 1.367188 88.070312 6.25 88.070312 12.316406 L 88.070312 117 C 88.070312 123.066406 83.484375 127.949219 77.785156 127.949219 L 11.570312 127.949219 C 5.875 127.949219 1.285156 123.066406 1.285156 117 L 1.285156 12.316406 C 1.285156 6.25 5.875 1.367188 11.570312 1.367188 Z M 11.570312 1.367188 "/>
<path style=" stroke:none;fill-rule:nonzero;fill:rgb(100%,0%,0%);fill-opacity:1;" d="M 8.101562 8.210938 L 18.324219 8.210938 L 18.324219 12.101562 L 11.382812 12.101562 L 11.382812 15.277344 C 11.695312 15.164062 12.007812 15.082031 12.320312 15.027344 C 12.640625 14.964844 12.972656 14.933594 13.3125 14.933594 C 15.257812 14.933594 16.769531 15.558594 17.851562 16.816406 C 18.933594 18.0625 19.476562 19.804688 19.476562 22.039062 C 19.476562 24.257812 18.886719 25.996094 17.703125 27.25 C 16.527344 28.507812 14.894531 29.132812 12.800781 29.132812 C 11.898438 29.132812 11 29.019531 10.109375 28.789062 C 9.226562 28.570312 8.347656 28.230469 7.472656 27.773438 L 7.472656 23.605469 C 8.339844 24.25 9.164062 24.730469 9.9375 25.050781 C 10.722656 25.371094 11.460938 25.53125 12.148438 25.53125 C 13.148438 25.53125 13.929688 25.21875 14.5 24.597656 C 15.078125 23.964844 15.363281 23.113281 15.363281 22.039062 C 15.363281 20.957031 15.078125 20.105469 14.5 19.484375 C 13.929688 18.859375 13.148438 18.546875 12.148438 18.546875 C 11.558594 18.546875 10.929688 18.648438 10.257812 18.851562 C 9.589844 19.042969 8.871094 19.34375 8.101562 19.757812 L 8.101562 8.210938 "/>
<path style=" stroke:none;fill-rule:evenodd;fill:rgb(100%,0%,0%);fill-opacity:1;" d="M 8.710938 33.421875 C 8.195312 33.425781 7.628906 33.558594 7 33.859375 C 0.160156 39.472656 9.382812 48.519531 13.277344 56.289062 L 13.390625 56.328125 C 17.671875 47.835938 25.820312 38.492188 19.59375 33.859375 C 14.660156 31.492188 13.34375 39.375 13.296875 39.65625 C 13.257812 39.410156 12.25 33.394531 8.710938 33.421875 Z M 8.710938 33.421875 "/>
<path style=" stroke:none;fill-rule:nonzero;fill:rgb(100%,0%,0%);fill-opacity:1;" d="M 81.167969 121.105469 L 70.949219 121.105469 L 70.949219 117.214844 L 77.890625 117.214844 L 77.890625 114.039062 C 77.578125 114.148438 77.261719 114.230469 76.949219 114.289062 C 76.628906 114.351562 76.296875 114.382812 75.957031 114.382812 C 74.011719 114.382812 72.5 113.753906 71.417969 112.5 C 70.335938 111.253906 69.792969 109.511719 69.792969 107.277344 C 69.792969 105.058594 70.386719 103.320312 71.566406 102.066406 C 72.742188 100.808594 74.375 100.183594 76.46875 100.183594 C 77.375 100.183594 78.269531 100.296875 79.160156 100.527344 C 80.042969 100.746094 80.921875 101.085938 81.796875 101.542969 L 81.796875 105.707031 C 80.929688 105.066406 80.109375 104.585938 79.332031 104.265625 C 78.546875 103.945312 77.8125 103.785156 77.121094 103.785156 C 76.125 103.785156 75.339844 104.09375 74.769531 104.71875 C 74.195312 105.351562 73.90625 106.203125 73.90625 107.277344 C 73.90625 108.355469 74.195312 109.210938 74.769531 109.832031 C 75.339844 110.457031 76.125 110.769531 77.121094 110.769531 C 77.710938 110.769531 78.339844 110.667969 79.011719 110.464844 C 79.679688 110.273438 80.398438 109.96875 81.167969 109.558594 L 81.167969 121.105469 "/>
<path style=" stroke:none;fill-rule:evenodd;fill:rgb(100%,0%,0%);fill-opacity:1;" d="M 80.554688 95.785156 C 81.074219 95.78125 81.640625 95.648438 82.265625 95.347656 C 89.109375 89.734375 79.886719 80.6875 75.992188 72.917969 L 75.878906 72.878906 C 71.597656 81.371094 63.449219 90.714844 69.675781 95.347656 C 74.609375 97.714844 75.925781 89.832031 75.972656 89.550781 C 76.011719 89.796875 77.019531 95.8125 80.554688 95.785156 Z M 80.554688 95.785156 "/>
<path style=" stroke:none;fill-rule:evenodd;fill:rgb(100%,0%,0%);fill-opacity:1;" d="M 30.292969 30.941406 C 29.996094 30.945312 29.664062 31.023438 29.300781 31.203125 C 25.324219 34.515625 30.683594 39.859375 32.945312 44.449219 L 33.011719 44.472656 C 35.5 39.457031 40.230469 33.9375 36.613281 31.203125 C 33.75 29.804688 32.984375 34.457031 32.957031 34.625 C 32.933594 34.480469 32.351562 30.925781 30.292969 30.941406 Z M 30.292969 30.941406 "/>
<path style=" stroke:none;fill-rule:evenodd;fill:rgb(100%,0%,0%);fill-opacity:1;" d="M 53.4375 30.941406 C 53.136719 30.945312 52.808594 31.023438 52.441406 31.203125 C 48.46875 34.515625 53.828125 39.859375 56.089844 44.449219 L 56.15625 44.472656 C 58.640625 39.457031 63.375 33.9375 59.757812 31.203125 C 56.890625 29.804688 56.128906 34.457031 56.101562 34.625 C 56.078125 34.480469 55.492188 30.925781 53.4375 30.941406 Z M 53.4375 30.941406 "/>
<path style=" stroke:none;fill-rule:evenodd;fill:rgb(100%,0%,0%);fill-opacity:1;" d="M 42.277344 56.257812 C 41.976562 56.261719 41.648438 56.339844 41.285156 56.515625 C 37.308594 59.832031 42.667969 65.175781 44.929688 69.765625 L 44.996094 69.789062 C 47.480469 64.773438 52.214844 59.253906 48.597656 56.515625 C 45.734375 55.117188 44.96875 59.773438 44.941406 59.941406 C 44.917969 59.796875 44.332031 56.242188 42.277344 56.257812 Z M 42.277344 56.257812 "/>
<path style=" stroke:none;fill-rule:evenodd;fill:rgb(100%,0%,0%);fill-opacity:1;" d="M 36.792969 97.003906 C 37.09375 97.003906 37.421875 96.921875 37.789062 96.746094 C 41.761719 93.429688 36.40625 88.085938 34.140625 83.496094 L 34.078125 83.472656 C 31.589844 88.488281 26.855469 94.011719 30.472656 96.746094 C 33.339844 98.144531 34.105469 93.488281 34.132812 93.320312 C 34.15625 93.46875 34.738281 97.019531 36.792969 97.003906 Z M 36.792969 97.003906 "/>
<path style=" stroke:none;fill-rule:evenodd;fill:rgb(100%,0%,0%);fill-opacity:1;" d="M 59.292969 97.003906 C 59.59375 97.003906 59.921875 96.921875 60.289062 96.746094 C 64.261719 93.429688 58.90625 88.085938 56.640625 83.496094 L 56.578125 83.472656 C 54.089844 88.488281 49.355469 94.011719 52.972656 96.746094 C 55.839844 98.144531 56.605469 93.488281 56.632812 93.320312 C 56.65625 93.46875 57.238281 97.019531 59.292969 97.003906 Z M 59.292969 97.003906 "/>
</g>
</svg>
