<?xml version="1.0" encoding="UTF-8"?>
<svg xmlns="http://www.w3.org/2000/svg" xmlns:xlink="http://www.w3.org/1999/xlink" width="90px" height="130px" viewBox="0 0 90 130" version="1.1">
<g id="surface1">
<path style=" stroke:none;fill-rule:nonzero;fill:rgb(0%,0%,0%);fill-opacity:0.498039;" d="M 13.5 3.421875 L 79.714844 3.421875 C 85.414062 3.421875 90 8.304688 90 14.367188 L 90 119.050781 C 90 125.117188 85.414062 130 79.714844 130 L 13.5 130 C 7.800781 130 3.214844 125.117188 3.214844 119.050781 L 3.214844 14.367188 C 3.214844 8.304688 7.800781 3.421875 13.5 3.421875 Z M 13.5 3.421875 "/>
<path style=" stroke:none;fill-rule:nonzero;fill:rgb(90.588236%,90.588236%,90.588236%);fill-opacity:1;" d="M 10.929688 0.683594 L 77.144531 0.683594 C 82.839844 0.683594 87.429688 5.566406 87.429688 11.632812 L 87.429688 116.316406 C 87.429688 122.378906 82.839844 127.261719 77.144531 127.261719 L 10.929688 127.261719 C 5.230469 127.261719 0.644531 122.378906 0.644531 116.316406 L 0.644531 11.632812 C 0.644531 5.566406 5.230469 0.683594 10.929688 0.683594 Z M 10.929688 0.683594 "/>
<path style=" stroke:none;fill-rule:nonzero;fill:rgb(78.039217%,53.725493%,12.156863%);fill-opacity:1;" d="M 12.214844 2.050781 L 78.429688 2.050781 C 84.125 2.050781 88.714844 6.933594 88.714844 13 L 88.714844 117.683594 C 88.714844 123.75 84.125 128.632812 78.429688 128.632812 L 12.214844 128.632812 C 6.515625 128.632812 1.929688 123.75 1.929688 117.683594 L 1.929688 13 C 1.929688 6.933594 6.515625 2.050781 12.214844 2.050781 Z M 12.214844 2.050781 "/>
<path style=" stroke:none;fill-rule:nonzero;fill:rgb(100%,100%,100%);fill-opacity:1;" d="M 11.570312 1.367188 L 77.785156 1.367188 C 83.484375 1.367188 88.070312 6.25 88.070312 12.316406 L 88.070312 117 C 88.070312 123.066406 83.484375 127.949219 77.785156 127.949219 L 11.570312 127.949219 C 5.875 127.949219 1.285156 123.066406 1.285156 117 L 1.285156 12.316406 C 1.285156 6.25 5.875 1.367188 11.570312 1.367188 Z M 11.570312 1.367188 "/>
<path style=" stroke:none;fill-rule:evenodd;fill:rgb(0%,0%,0%);fill-opacity:1;" d="M 31.445312 24.785156 C 29.601562 27.929688 23.941406 33.289062 27.527344 34.941406 C 29.703125 35.703125 30.738281 34.144531 31.175781 33.113281 L 31.265625 33.113281 L 29.820312 38.316406 L 33.167969 38.300781 C 33.167969 38.300781 31.726562 33.300781 31.722656 33.109375 L 31.757812 33.109375 C 32.109375 33.949219 33.453125 35.695312 34.933594 35.03125 C 39.257812 33.167969 32.890625 27.867188 31.445312 24.785156 Z M 31.445312 24.785156 "/>
<path style=" stroke:none;fill-rule:evenodd;fill:rgb(0%,0%,0%);fill-opacity:1;" d="M 57.890625 24.730469 C 56.046875 27.875 50.386719 33.230469 53.972656 34.886719 C 56.148438 35.648438 57.183594 34.089844 57.621094 33.054688 L 57.710938 33.054688 L 56.265625 38.261719 L 59.609375 38.246094 C 59.609375 38.246094 58.167969 33.242188 58.167969 33.050781 L 58.203125 33.050781 C 58.554688 33.894531 59.898438 35.640625 61.378906 34.976562 C 65.703125 33.113281 59.335938 27.808594 57.890625 24.730469 Z M 57.890625 24.730469 "/>
<path style=" stroke:none;fill-rule:evenodd;fill:rgb(0%,0%,0%);fill-opacity:1;" d="M 31.105469 48.855469 C 29.261719 52 23.601562 57.355469 27.1875 59.011719 C 29.363281 59.769531 30.398438 58.214844 30.835938 57.179688 L 30.925781 57.179688 L 29.480469 62.386719 L 32.828125 62.371094 C 32.828125 62.371094 31.386719 57.367188 31.382812 57.175781 L 31.417969 57.175781 C 31.769531 58.019531 33.117188 59.765625 34.59375 59.101562 C 38.917969 57.238281 32.550781 51.933594 31.105469 48.855469 Z M 31.105469 48.855469 "/>
<path style=" stroke:none;fill-rule:evenodd;fill:rgb(0%,0%,0%);fill-opacity:1;" d="M 56.792969 48.050781 C 54.949219 51.195312 49.292969 56.550781 52.875 58.207031 C 55.050781 58.96875 56.085938 57.410156 56.527344 56.378906 L 56.613281 56.378906 C 56.609375 56.570312 56.53125 60.367188 56.300781 60.589844 C 55.796875 61.082031 55.15625 61.046875 55.15625 61.046875 L 55.167969 61.582031 L 58.515625 61.566406 L 58.527344 61.035156 C 58.527344 61.035156 57.894531 61.066406 57.386719 60.574219 C 57.15625 60.351562 57.074219 56.5625 57.070312 56.371094 L 57.105469 56.371094 C 57.460938 57.214844 58.804688 58.960938 60.28125 58.296875 C 64.605469 56.433594 58.238281 51.128906 56.792969 48.050781 Z M 56.792969 48.050781 "/>
<path style=" stroke:none;fill-rule:evenodd;fill:rgb(0%,0%,0%);fill-opacity:1;" d="M 30.992188 81.6875 C 32.835938 78.539062 38.496094 73.183594 34.910156 71.53125 C 32.734375 70.769531 31.699219 72.328125 31.261719 73.359375 L 31.171875 73.359375 L 32.617188 68.152344 L 29.273438 68.167969 C 29.273438 68.167969 30.714844 73.171875 30.714844 73.363281 L 30.679688 73.363281 C 30.328125 72.519531 28.984375 70.773438 27.503906 71.441406 C 23.179688 73.304688 29.546875 78.605469 30.992188 81.6875 Z M 30.992188 81.6875 "/>
<path style=" stroke:none;fill-rule:evenodd;fill:rgb(0%,0%,0%);fill-opacity:1;" d="M 57.777344 81.742188 C 59.621094 78.597656 65.28125 73.238281 61.695312 71.585938 C 59.519531 70.824219 58.484375 72.382812 58.046875 73.414062 L 57.957031 73.414062 L 59.402344 68.210938 L 56.054688 68.226562 C 56.054688 68.226562 57.496094 73.230469 57.5 73.421875 L 57.464844 73.421875 C 57.113281 72.578125 55.765625 70.832031 54.289062 71.496094 C 49.964844 73.359375 56.332031 78.660156 57.777344 81.742188 Z M 57.777344 81.742188 "/>
<path style=" stroke:none;fill-rule:evenodd;fill:rgb(0%,0%,0%);fill-opacity:1;" d="M 58.195312 102.648438 C 60.039062 99.503906 65.695312 94.148438 62.113281 92.496094 C 59.9375 91.734375 58.898438 93.292969 58.460938 94.324219 L 58.375 94.324219 L 59.820312 89.117188 L 56.472656 89.132812 C 56.472656 89.132812 57.914062 94.136719 57.917969 94.328125 L 57.882812 94.328125 C 57.527344 93.484375 56.183594 91.738281 54.703125 92.40625 C 50.382812 94.269531 56.746094 99.570312 58.195312 102.648438 Z M 58.195312 102.648438 "/>
<path style=" stroke:none;fill-rule:evenodd;fill:rgb(0%,0%,0%);fill-opacity:1;" d="M 31.75 102.648438 C 33.59375 99.503906 39.25 94.148438 35.667969 92.496094 C 33.492188 91.734375 32.457031 93.292969 32.015625 94.324219 L 31.929688 94.324219 L 33.375 89.117188 L 30.027344 89.132812 C 30.027344 89.132812 31.46875 94.136719 31.472656 94.328125 L 31.4375 94.328125 C 31.082031 93.484375 29.738281 91.738281 28.261719 92.40625 C 23.9375 94.269531 30.304688 99.570312 31.75 102.648438 Z M 31.75 102.648438 "/>
<path style=" stroke:none;fill-rule:evenodd;fill:rgb(0%,0%,0%);fill-opacity:1;" d="M 13.273438 33.296875 C 10.105469 38.652344 0.390625 47.765625 6.546875 50.582031 C 10.28125 51.878906 12.058594 49.226562 12.8125 47.46875 L 12.960938 47.46875 L 10.480469 56.328125 L 16.226562 56.300781 C 16.226562 56.300781 13.753906 47.785156 13.746094 47.460938 L 13.808594 47.460938 C 14.414062 48.894531 16.722656 51.867188 19.261719 50.734375 C 26.683594 47.5625 15.753906 38.539062 13.273438 33.296875 Z M 13.273438 33.296875 "/>
<path style=" stroke:none;fill-rule:nonzero;fill:rgb(0%,0%,0%);fill-opacity:1;" d="M 13.246094 19.714844 C 12.476562 19.714844 11.886719 19.984375 11.472656 20.527344 C 11.058594 21.066406 10.851562 21.84375 10.851562 22.851562 C 10.851562 23.859375 11.058594 24.632812 11.472656 25.175781 C 11.886719 25.707031 12.476562 25.972656 13.246094 25.972656 C 14.007812 25.972656 14.589844 25.707031 14.996094 25.175781 C 15.402344 24.632812 15.605469 23.859375 15.605469 22.851562 C 15.605469 21.832031 15.402344 21.058594 14.996094 20.527344 C 14.589844 19.984375 14.007812 19.714844 13.246094 19.714844 M 10.246094 17.96875 C 9.277344 17.59375 8.546875 17.015625 8.054688 16.238281 C 7.5625 15.457031 7.316406 14.488281 7.316406 13.324219 C 7.316406 11.589844 7.820312 10.269531 8.824219 9.363281 C 9.828125 8.457031 11.300781 8.003906 13.246094 8.003906 C 15.175781 8.003906 16.640625 8.457031 17.644531 9.363281 C 18.648438 10.261719 19.152344 11.582031 19.152344 13.324219 C 19.152344 14.488281 18.902344 15.457031 18.402344 16.238281 C 17.914062 17.015625 17.183594 17.59375 16.214844 17.96875 C 17.296875 18.355469 18.113281 18.984375 18.660156 19.851562 C 19.214844 20.714844 19.492188 21.804688 19.492188 23.125 C 19.492188 25.160156 18.964844 26.699219 17.914062 27.746094 C 16.867188 28.78125 15.308594 29.296875 13.246094 29.296875 C 11.171875 29.296875 9.605469 28.78125 8.546875 27.746094 C 7.492188 26.699219 6.964844 25.160156 6.964844 23.125 C 6.964844 21.804688 7.238281 20.714844 7.789062 19.851562 C 8.34375 18.984375 9.160156 18.355469 10.246094 17.96875 M 11.207031 13.859375 C 11.207031 14.675781 11.378906 15.304688 11.730469 15.742188 C 12.085938 16.183594 12.589844 16.402344 13.246094 16.402344 C 13.886719 16.402344 14.382812 16.183594 14.730469 15.742188 C 15.078125 15.304688 15.253906 14.675781 15.253906 13.859375 C 15.253906 13.042969 15.078125 12.421875 14.730469 11.988281 C 14.382812 11.550781 13.886719 11.328125 13.246094 11.328125 C 12.589844 11.328125 12.085938 11.550781 11.730469 11.988281 C 11.378906 12.429688 11.207031 13.050781 11.207031 13.859375 "/>
<path style=" stroke:none;fill-rule:evenodd;fill:rgb(0%,0%,0%);fill-opacity:1;" d="M 75.847656 95.789062 C 79.011719 90.4375 88.726562 81.320312 82.574219 78.503906 C 78.839844 77.207031 77.058594 79.859375 76.308594 81.617188 L 76.15625 81.617188 L 78.636719 72.757812 L 72.890625 72.785156 C 72.890625 72.785156 75.367188 81.300781 75.371094 81.625 L 75.3125 81.625 C 74.703125 80.191406 72.398438 77.21875 69.859375 78.351562 C 62.4375 81.523438 73.367188 90.546875 75.847656 95.789062 Z M 75.847656 95.789062 "/>
<path style=" stroke:none;fill-rule:nonzero;fill:rgb(0%,0%,0%);fill-opacity:1;" d="M 75.875 109.714844 C 76.644531 109.714844 77.234375 109.441406 77.648438 108.902344 C 78.058594 108.363281 78.265625 107.585938 78.265625 106.578125 C 78.265625 105.570312 78.058594 104.796875 77.648438 104.253906 C 77.234375 103.722656 76.644531 103.457031 75.875 103.457031 C 75.113281 103.457031 74.527344 103.722656 74.121094 104.253906 C 73.714844 104.796875 73.515625 105.570312 73.515625 106.578125 C 73.515625 107.597656 73.714844 108.371094 74.121094 108.902344 C 74.527344 109.441406 75.113281 109.714844 75.875 109.714844 M 78.875 111.460938 C 79.84375 111.835938 80.574219 112.414062 81.066406 113.191406 C 81.554688 113.972656 81.800781 114.941406 81.800781 116.105469 C 81.800781 117.839844 81.300781 119.160156 80.296875 120.066406 C 79.292969 120.972656 77.816406 121.425781 75.875 121.425781 C 73.945312 121.425781 72.476562 120.972656 71.472656 120.066406 C 70.46875 119.167969 69.96875 117.847656 69.96875 116.105469 C 69.96875 114.941406 70.21875 113.972656 70.714844 113.191406 C 71.207031 112.414062 71.9375 111.835938 72.90625 111.460938 C 71.824219 111.074219 71.007812 110.445312 70.460938 109.574219 C 69.902344 108.714844 69.625 107.625 69.625 106.304688 C 69.625 104.269531 70.152344 102.730469 71.207031 101.683594 C 72.253906 100.648438 73.808594 100.128906 75.875 100.128906 C 77.945312 100.128906 79.511719 100.648438 80.574219 101.683594 C 81.628906 102.730469 82.152344 104.269531 82.152344 106.304688 C 82.152344 107.625 81.878906 108.714844 81.332031 109.574219 C 80.777344 110.445312 79.957031 111.074219 78.875 111.460938 M 77.914062 115.570312 C 77.914062 114.753906 77.738281 114.125 77.390625 113.6875 C 77.035156 113.246094 76.527344 113.027344 75.875 113.027344 C 75.234375 113.027344 74.738281 113.246094 74.390625 113.6875 C 74.039062 114.125 73.867188 114.753906 73.867188 115.570312 C 73.867188 116.386719 74.039062 117.007812 74.390625 117.441406 C 74.738281 117.878906 75.234375 118.101562 75.875 118.101562 C 76.527344 118.101562 77.035156 117.878906 77.390625 117.441406 C 77.738281 117 77.914062 116.375 77.914062 115.570312 "/>
</g>
</svg>
