<?xml version="1.0" encoding="UTF-8"?>
<svg xmlns="http://www.w3.org/2000/svg" xmlns:xlink="http://www.w3.org/1999/xlink" width="90px" height="130px" viewBox="0 0 90 130" version="1.1">
<g id="surface1">
<path style=" stroke:none;fill-rule:nonzero;fill:rgb(0%,0%,0%);fill-opacity:0.498039;" d="M 13.5 3.421875 L 79.714844 3.421875 C 85.414062 3.421875 90 8.304688 90 14.367188 L 90 119.050781 C 90 125.117188 85.414062 130 79.714844 130 L 13.5 130 C 7.800781 130 3.214844 125.117188 3.214844 119.050781 L 3.214844 14.367188 C 3.214844 8.304688 7.800781 3.421875 13.5 3.421875 Z M 13.5 3.421875 "/>
<path style=" stroke:none;fill-rule:nonzero;fill:rgb(90.588236%,90.588236%,90.588236%);fill-opacity:1;" d="M 10.929688 0.683594 L 77.144531 0.683594 C 82.839844 0.683594 87.429688 5.566406 87.429688 11.632812 L 87.429688 116.316406 C 87.429688 122.378906 82.839844 127.261719 77.144531 127.261719 L 10.929688 127.261719 C 5.230469 127.261719 0.644531 122.378906 0.644531 116.316406 L 0.644531 11.632812 C 0.644531 5.566406 5.230469 0.683594 10.929688 0.683594 Z M 10.929688 0.683594 "/>
<path style=" stroke:none;fill-rule:nonzero;fill:rgb(78.039217%,53.725493%,12.156863%);fill-opacity:1;" d="M 12.214844 2.050781 L 78.429688 2.050781 C 84.125 2.050781 88.714844 6.933594 88.714844 13 L 88.714844 117.683594 C 88.714844 123.75 84.125 128.632812 78.429688 128.632812 L 12.214844 128.632812 C 6.515625 128.632812 1.929688 123.75 1.929688 117.683594 L 1.929688 13 C 1.929688 6.933594 6.515625 2.050781 12.214844 2.050781 Z M 12.214844 2.050781 "/>
<path style=" stroke:none;fill-rule:nonzero;fill:rgb(100%,100%,100%);fill-opacity:1;" d="M 11.570312 1.367188 L 77.785156 1.367188 C 83.484375 1.367188 88.070312 6.25 88.070312 12.316406 L 88.070312 117 C 88.070312 123.066406 83.484375 127.949219 77.785156 127.949219 L 11.570312 127.949219 C 5.875 127.949219 1.285156 123.066406 1.285156 117 L 1.285156 12.316406 C 1.285156 6.25 5.875 1.367188 11.570312 1.367188 Z M 11.570312 1.367188 "/>
<path style=" stroke:none;fill-rule:nonzero;fill:rgb(100%,0%,0%);fill-opacity:1;" d="M 13.542969 18.765625 C 12.824219 18.765625 12.285156 19.070312 11.921875 19.675781 C 11.566406 20.269531 11.386719 21.167969 11.386719 22.371094 C 11.386719 23.570312 11.566406 24.472656 11.921875 25.078125 C 12.285156 25.671875 12.824219 25.972656 13.542969 25.972656 C 14.269531 25.972656 14.8125 25.671875 15.167969 25.078125 C 15.53125 24.472656 15.710938 23.570312 15.710938 22.371094 C 15.710938 21.167969 15.53125 20.269531 15.167969 19.675781 C 14.8125 19.070312 14.269531 18.765625 13.542969 18.765625 M 18.628906 8.910156 L 18.628906 12.703125 C 17.953125 12.292969 17.3125 11.988281 16.714844 11.796875 C 16.117188 11.59375 15.535156 11.496094 14.964844 11.496094 C 13.738281 11.496094 12.785156 11.933594 12.101562 12.8125 C 11.417969 13.683594 11.019531 14.980469 10.90625 16.703125 C 11.375 16.257812 11.886719 15.921875 12.433594 15.703125 C 12.980469 15.472656 13.578125 15.359375 14.226562 15.359375 C 15.859375 15.359375 17.171875 15.972656 18.167969 17.199219 C 19.171875 18.429688 19.675781 20.035156 19.675781 22.027344 C 19.675781 24.226562 19.117188 25.988281 17.996094 27.320312 C 16.878906 28.636719 15.382812 29.296875 13.5 29.296875 C 11.429688 29.296875 9.824219 28.398438 8.683594 26.605469 C 7.550781 24.796875 6.988281 22.242188 6.988281 18.933594 C 6.988281 15.542969 7.648438 12.878906 8.972656 10.945312 C 10.304688 9 12.128906 8.03125 14.441406 8.03125 C 15.175781 8.03125 15.886719 8.101562 16.578125 8.25 C 17.269531 8.398438 17.953125 8.617188 18.628906 8.910156 "/>
<path style=" stroke:none;fill-rule:nonzero;fill:rgb(100%,0%,0%);fill-opacity:1;" d="M 75.605469 110.664062 C 76.328125 110.664062 76.867188 110.359375 77.230469 109.753906 C 77.585938 109.160156 77.765625 108.261719 77.765625 107.058594 C 77.765625 105.859375 77.585938 104.957031 77.230469 104.351562 C 76.867188 103.757812 76.328125 103.457031 75.605469 103.457031 C 74.882812 103.457031 74.339844 103.757812 73.984375 104.351562 C 73.621094 104.957031 73.4375 105.859375 73.4375 107.058594 C 73.4375 108.261719 73.621094 109.160156 73.984375 109.753906 C 74.339844 110.359375 74.882812 110.664062 75.605469 110.664062 M 70.523438 120.519531 L 70.523438 116.726562 C 71.199219 117.136719 71.835938 117.441406 72.433594 117.632812 C 73.035156 117.835938 73.617188 117.933594 74.1875 117.933594 C 75.410156 117.933594 76.367188 117.496094 77.050781 116.613281 C 77.734375 115.746094 78.132812 114.449219 78.246094 112.722656 C 77.777344 113.171875 77.265625 113.507812 76.71875 113.726562 C 76.167969 113.957031 75.570312 114.070312 74.925781 114.070312 C 73.292969 114.070312 71.980469 113.457031 70.984375 112.230469 C 69.980469 111 69.476562 109.394531 69.476562 107.402344 C 69.476562 105.203125 70.035156 103.441406 71.152344 102.109375 C 72.273438 100.789062 73.769531 100.132812 75.648438 100.132812 C 77.722656 100.132812 79.328125 101.027344 80.464844 102.824219 C 81.597656 104.632812 82.164062 107.1875 82.164062 110.496094 C 82.164062 113.886719 81.503906 116.550781 80.179688 118.484375 C 78.847656 120.429688 77.023438 121.398438 74.710938 121.398438 C 73.976562 121.398438 73.265625 121.324219 72.574219 121.179688 C 71.882812 121.03125 71.199219 120.8125 70.523438 120.519531 "/>
<path style=" stroke:none;fill-rule:evenodd;fill:rgb(100%,0%,0%);fill-opacity:1;" d="M 13.121094 33.296875 C 10.46875 38.9375 8.535156 41.847656 4.546875 44.957031 C 8.320312 48.027344 10.980469 51.199219 13.199219 56.328125 C 15.175781 51.457031 17.597656 47.824219 21.804688 44.804688 C 17.574219 42.511719 15.125 38.882812 13.121094 33.296875 Z M 13.121094 33.296875 "/>
<path style=" stroke:none;fill-rule:evenodd;fill:rgb(100%,0%,0%);fill-opacity:1;" d="M 32.871094 30.789062 C 31.324219 34.105469 30.199219 35.816406 27.875 37.640625 C 30.074219 39.445312 31.625 41.308594 32.914062 44.324219 C 34.066406 41.460938 35.476562 39.324219 37.929688 37.550781 C 35.464844 36.203125 34.035156 34.070312 32.871094 30.789062 Z M 32.871094 30.789062 "/>
<path style=" stroke:none;fill-rule:evenodd;fill:rgb(100%,0%,0%);fill-opacity:1;" d="M 56.011719 30.789062 C 54.46875 34.105469 53.339844 35.816406 51.015625 37.640625 C 53.214844 39.445312 54.765625 41.308594 56.058594 44.324219 C 57.210938 41.460938 58.621094 39.324219 61.070312 37.550781 C 58.605469 36.203125 57.179688 34.070312 56.011719 30.789062 Z M 56.011719 30.789062 "/>
<path style=" stroke:none;fill-rule:evenodd;fill:rgb(100%,0%,0%);fill-opacity:1;" d="M 32.871094 55.421875 C 31.324219 58.734375 30.199219 60.445312 27.875 62.273438 C 30.074219 64.078125 31.625 65.941406 32.914062 68.953125 C 34.066406 66.089844 35.476562 63.957031 37.929688 62.183594 C 35.464844 60.835938 34.035156 58.703125 32.871094 55.421875 Z M 32.871094 55.421875 "/>
<path style=" stroke:none;fill-rule:evenodd;fill:rgb(100%,0%,0%);fill-opacity:1;" d="M 55.78125 55.421875 C 54.234375 58.734375 53.109375 60.445312 50.785156 62.273438 C 52.984375 64.078125 54.535156 65.941406 55.824219 68.953125 C 56.980469 66.089844 58.390625 63.957031 60.839844 62.183594 C 58.375 60.835938 56.949219 58.703125 55.78125 55.421875 Z M 55.78125 55.421875 "/>
<path style=" stroke:none;fill-rule:evenodd;fill:rgb(100%,0%,0%);fill-opacity:1;" d="M 34.15625 83.625 C 32.609375 86.941406 31.484375 88.648438 29.160156 90.476562 C 31.359375 92.28125 32.910156 94.144531 34.199219 97.15625 C 35.351562 94.292969 36.765625 92.160156 39.214844 90.386719 C 36.75 89.039062 35.324219 86.90625 34.15625 83.625 Z M 34.15625 83.625 "/>
<path style=" stroke:none;fill-rule:evenodd;fill:rgb(100%,0%,0%);fill-opacity:1;" d="M 56.65625 83.625 C 55.109375 86.941406 53.984375 88.648438 51.660156 90.476562 C 53.859375 92.28125 55.410156 94.144531 56.699219 97.15625 C 57.851562 94.292969 59.265625 92.160156 61.714844 90.386719 C 59.25 89.039062 57.824219 86.90625 56.65625 83.625 Z M 56.65625 83.625 "/>
<path style=" stroke:none;fill-rule:evenodd;fill:rgb(100%,0%,0%);fill-opacity:1;" d="M 76.074219 72.757812 C 73.421875 78.402344 71.488281 81.308594 67.5 84.417969 C 71.273438 87.488281 73.9375 90.660156 76.152344 95.789062 C 78.132812 90.917969 80.554688 87.285156 84.761719 84.265625 C 80.53125 81.972656 78.078125 78.34375 76.074219 72.757812 Z M 76.074219 72.757812 "/>
</g>
</svg>
