<?xml version="1.0" encoding="UTF-8"?>
<svg xmlns="http://www.w3.org/2000/svg" xmlns:xlink="http://www.w3.org/1999/xlink" width="90px" height="130px" viewBox="0 0 90 130" version="1.1">
<g id="surface1">
<path style=" stroke:none;fill-rule:nonzero;fill:rgb(0%,0%,0%);fill-opacity:0.498039;" d="M 13.5 3.421875 L 79.714844 3.421875 C 85.414062 3.421875 90 8.304688 90 14.367188 L 90 119.050781 C 90 125.117188 85.414062 130 79.714844 130 L 13.5 130 C 7.800781 130 3.214844 125.117188 3.214844 119.050781 L 3.214844 14.367188 C 3.214844 8.304688 7.800781 3.421875 13.5 3.421875 Z M 13.5 3.421875 "/>
<path style=" stroke:none;fill-rule:nonzero;fill:rgb(90.588236%,90.588236%,90.588236%);fill-opacity:1;" d="M 10.929688 0.683594 L 77.144531 0.683594 C 82.839844 0.683594 87.429688 5.566406 87.429688 11.632812 L 87.429688 116.316406 C 87.429688 122.378906 82.839844 127.261719 77.144531 127.261719 L 10.929688 127.261719 C 5.230469 127.261719 0.644531 122.378906 0.644531 116.316406 L 0.644531 11.632812 C 0.644531 5.566406 5.230469 0.683594 10.929688 0.683594 Z M 10.929688 0.683594 "/>
<path style=" stroke:none;fill-rule:nonzero;fill:rgb(78.039217%,53.725493%,12.156863%);fill-opacity:1;" d="M 12.214844 2.050781 L 78.429688 2.050781 C 84.125 2.050781 88.714844 6.933594 88.714844 13 L 88.714844 117.683594 C 88.714844 123.75 84.125 128.632812 78.429688 128.632812 L 12.214844 128.632812 C 6.515625 128.632812 1.929688 123.75 1.929688 117.683594 L 1.929688 13 C 1.929688 6.933594 6.515625 2.050781 12.214844 2.050781 Z M 12.214844 2.050781 "/>
<path style=" stroke:none;fill-rule:nonzero;fill:rgb(100%,100%,100%);fill-opacity:1;" d="M 11.570312 1.367188 L 77.785156 1.367188 C 83.484375 1.367188 88.070312 6.25 88.070312 12.316406 L 88.070312 117 C 88.070312 123.066406 83.484375 127.949219 77.785156 127.949219 L 11.570312 127.949219 C 5.875 127.949219 1.285156 123.066406 1.285156 117 L 1.285156 12.316406 C 1.285156 6.25 5.875 1.367188 11.570312 1.367188 Z M 11.570312 1.367188 "/>
<path style=" stroke:none;fill-rule:nonzero;fill:rgb(0%,0%,0%);fill-opacity:1;" d="M 13.542969 18.765625 C 12.824219 18.765625 12.285156 19.070312 11.921875 19.675781 C 11.566406 20.269531 11.386719 21.167969 11.386719 22.371094 C 11.386719 23.570312 11.566406 24.472656 11.921875 25.078125 C 12.285156 25.671875 12.824219 25.972656 13.542969 25.972656 C 14.269531 25.972656 14.8125 25.671875 15.167969 25.078125 C 15.53125 24.472656 15.710938 23.570312 15.710938 22.371094 C 15.710938 21.167969 15.53125 20.269531 15.167969 19.675781 C 14.8125 19.070312 14.269531 18.765625 13.542969 18.765625 M 18.628906 8.910156 L 18.628906 12.703125 C 17.953125 12.292969 17.3125 11.988281 16.714844 11.796875 C 16.117188 11.59375 15.535156 11.496094 14.964844 11.496094 C 13.738281 11.496094 12.785156 11.933594 12.101562 12.8125 C 11.417969 13.683594 11.019531 14.980469 10.90625 16.703125 C 11.375 16.257812 11.886719 15.921875 12.433594 15.703125 C 12.980469 15.472656 13.578125 15.359375 14.226562 15.359375 C 15.859375 15.359375 17.171875 15.972656 18.167969 17.199219 C 19.171875 18.429688 19.675781 20.035156 19.675781 22.027344 C 19.675781 24.226562 19.117188 25.988281 17.996094 27.320312 C 16.878906 28.636719 15.382812 29.296875 13.5 29.296875 C 11.429688 29.296875 9.824219 28.398438 8.683594 26.605469 C 7.550781 24.796875 6.988281 22.242188 6.988281 18.933594 C 6.988281 15.542969 7.648438 12.878906 8.972656 10.945312 C 10.304688 9 12.128906 8.03125 14.441406 8.03125 C 15.175781 8.03125 15.886719 8.101562 16.578125 8.25 C 17.269531 8.398438 17.953125 8.617188 18.628906 8.910156 "/>
<path style=" stroke:none;fill-rule:nonzero;fill:rgb(0%,0%,0%);fill-opacity:1;" d="M 75.761719 110.773438 C 76.480469 110.773438 77.023438 110.472656 77.386719 109.867188 C 77.742188 109.269531 77.917969 108.371094 77.917969 107.171875 C 77.917969 105.972656 77.742188 105.070312 77.386719 104.464844 C 77.023438 103.867188 76.480469 103.570312 75.761719 103.570312 C 75.035156 103.570312 74.496094 103.867188 74.136719 104.464844 C 73.773438 105.070312 73.59375 105.972656 73.59375 107.171875 C 73.59375 108.371094 73.773438 109.269531 74.136719 109.867188 C 74.496094 110.472656 75.035156 110.773438 75.761719 110.773438 M 70.679688 120.632812 L 70.679688 116.835938 C 71.355469 117.25 71.992188 117.550781 72.589844 117.746094 C 73.1875 117.945312 73.773438 118.046875 74.339844 118.046875 C 75.566406 118.046875 76.519531 117.605469 77.203125 116.726562 C 77.886719 115.855469 78.285156 114.558594 78.398438 112.835938 C 77.929688 113.285156 77.421875 113.621094 76.871094 113.839844 C 76.324219 114.070312 75.726562 114.183594 75.078125 114.183594 C 73.449219 114.183594 72.132812 113.570312 71.136719 112.339844 C 70.132812 111.113281 69.632812 109.503906 69.632812 107.515625 C 69.632812 105.316406 70.191406 103.550781 71.308594 102.222656 C 72.425781 100.902344 73.925781 100.242188 75.804688 100.242188 C 77.875 100.242188 79.480469 101.140625 80.621094 102.9375 C 81.753906 104.742188 82.320312 107.300781 82.320312 110.609375 C 82.320312 114 81.65625 116.664062 80.332031 118.597656 C 79 120.539062 77.179688 121.511719 74.863281 121.511719 C 74.132812 121.511719 73.417969 121.4375 72.730469 121.292969 C 72.039062 121.144531 71.355469 120.925781 70.679688 120.632812 "/>
<path style=" stroke:none;fill-rule:evenodd;fill:rgb(0%,0%,0%);fill-opacity:1;" d="M 13.195312 33.296875 C 11.480469 33.296875 10.089844 35.53125 10.089844 38.28125 C 10.089844 40.625 12.914062 44.570312 12.804688 46.445312 C 11.898438 46.980469 9.097656 42.039062 7.648438 42.039062 C 5.9375 42.039062 4.546875 44.273438 4.546875 47.023438 C 4.546875 49.777344 5.9375 52.007812 7.648438 52.007812 C 9.136719 52.007812 11.683594 47.074219 12.804688 47.519531 L 10.921875 56.328125 L 15.4375 56.300781 C 15.4375 56.300781 13.460938 47.757812 13.457031 47.558594 L 13.492188 47.558594 L 13.492188 47.566406 C 14.589844 47.128906 17.226562 52.105469 18.699219 52.105469 C 20.414062 52.105469 21.804688 49.871094 21.804688 47.121094 C 21.804688 44.367188 20.414062 42.136719 18.699219 42.136719 C 17.257812 42.136719 14.644531 46.992188 13.5 46.492188 C 13.515625 44.574219 16.300781 40.625 16.300781 38.28125 C 16.300781 35.53125 14.910156 33.296875 13.195312 33.296875 Z M 13.195312 33.296875 "/>
<path style=" stroke:none;fill-rule:evenodd;fill:rgb(0%,0%,0%);fill-opacity:1;" d="M 75.742188 95.765625 C 77.457031 95.765625 78.847656 93.53125 78.847656 90.777344 C 78.847656 88.433594 76.023438 84.488281 76.132812 82.617188 C 77.039062 82.082031 79.839844 87.019531 81.289062 87.019531 C 83.003906 87.019531 84.394531 84.789062 84.394531 82.035156 C 84.394531 79.285156 83.003906 77.050781 81.289062 77.050781 C 79.804688 77.050781 77.253906 81.988281 76.132812 81.542969 L 78.015625 72.734375 L 73.503906 72.761719 C 73.503906 72.761719 75.480469 81.300781 75.484375 81.503906 L 75.445312 81.503906 L 75.445312 81.492188 C 74.347656 81.933594 71.714844 76.957031 70.238281 76.957031 C 68.523438 76.957031 67.132812 79.1875 67.132812 81.941406 C 67.132812 84.691406 68.523438 86.925781 70.238281 86.925781 C 71.679688 86.925781 74.292969 82.066406 75.441406 82.570312 C 75.425781 84.488281 72.636719 88.4375 72.636719 90.777344 C 72.636719 93.53125 74.027344 95.765625 75.742188 95.765625 Z M 75.742188 95.765625 "/>
<path style=" stroke:none;fill-rule:evenodd;fill:rgb(0%,0%,0%);fill-opacity:1;" d="M 32.914062 30.789062 C 31.914062 30.789062 31.105469 32.101562 31.105469 33.71875 C 31.105469 35.097656 32.75 37.414062 32.6875 38.515625 C 32.15625 38.828125 30.527344 35.925781 29.683594 35.925781 C 28.683594 35.925781 27.875 37.238281 27.875 38.855469 C 27.875 40.472656 28.683594 41.785156 29.683594 41.785156 C 30.550781 41.785156 32.03125 38.886719 32.6875 39.148438 L 31.589844 44.324219 L 34.21875 44.304688 C 34.21875 44.304688 33.066406 39.289062 33.066406 39.167969 L 33.085938 39.167969 L 33.085938 39.175781 C 33.726562 38.917969 35.261719 41.839844 36.121094 41.839844 C 37.117188 41.839844 37.929688 40.53125 37.929688 38.914062 C 37.929688 37.296875 37.117188 35.984375 36.121094 35.984375 C 35.28125 35.984375 33.757812 38.835938 33.089844 38.542969 C 33.097656 37.414062 34.722656 35.09375 34.722656 33.71875 C 34.722656 32.101562 33.910156 30.789062 32.914062 30.789062 Z M 32.914062 30.789062 "/>
<path style=" stroke:none;fill-rule:evenodd;fill:rgb(0%,0%,0%);fill-opacity:1;" d="M 56.054688 30.789062 C 55.058594 30.789062 54.246094 32.101562 54.246094 33.71875 C 54.246094 35.097656 55.890625 37.414062 55.828125 38.515625 C 55.300781 38.828125 53.667969 35.925781 52.824219 35.925781 C 51.828125 35.925781 51.015625 37.238281 51.015625 38.855469 C 51.015625 40.472656 51.828125 41.785156 52.824219 41.785156 C 53.691406 41.785156 55.175781 38.886719 55.828125 39.148438 L 54.730469 44.324219 L 57.363281 44.304688 C 57.363281 44.304688 56.210938 39.289062 56.207031 39.167969 L 56.230469 39.167969 L 56.230469 39.175781 C 56.867188 38.917969 58.402344 41.839844 59.261719 41.839844 C 60.261719 41.839844 61.070312 40.53125 61.070312 38.914062 C 61.070312 37.296875 60.261719 35.984375 59.261719 35.984375 C 58.421875 35.984375 56.902344 38.835938 56.230469 38.542969 C 56.242188 37.414062 57.863281 35.09375 57.863281 33.71875 C 57.863281 32.101562 57.054688 30.789062 56.054688 30.789062 Z M 56.054688 30.789062 "/>
<path style=" stroke:none;fill-rule:evenodd;fill:rgb(0%,0%,0%);fill-opacity:1;" d="M 32.914062 55.421875 C 31.914062 55.421875 31.105469 56.734375 31.105469 58.351562 C 31.105469 59.726562 32.75 62.046875 32.6875 63.148438 C 32.15625 63.460938 30.527344 60.558594 29.683594 60.558594 C 28.683594 60.558594 27.875 61.871094 27.875 63.488281 C 27.875 65.105469 28.683594 66.417969 29.683594 66.417969 C 30.550781 66.417969 32.03125 63.515625 32.6875 63.777344 L 31.589844 68.953125 L 34.21875 68.9375 C 34.21875 68.9375 33.066406 63.917969 33.066406 63.800781 L 33.085938 63.800781 L 33.085938 63.804688 C 33.726562 63.550781 35.261719 66.472656 36.121094 66.472656 C 37.117188 66.472656 37.929688 65.160156 37.929688 63.542969 C 37.929688 61.925781 37.117188 60.613281 36.121094 60.613281 C 35.28125 60.613281 33.757812 63.46875 33.089844 63.175781 C 33.097656 62.046875 34.722656 59.726562 34.722656 58.351562 C 34.722656 56.734375 33.910156 55.421875 32.914062 55.421875 Z M 32.914062 55.421875 "/>
<path style=" stroke:none;fill-rule:evenodd;fill:rgb(0%,0%,0%);fill-opacity:1;" d="M 55.800781 69.105469 C 56.800781 69.105469 57.609375 67.792969 57.609375 66.175781 C 57.609375 64.796875 55.964844 62.480469 56.027344 61.378906 C 56.558594 61.066406 58.1875 63.96875 59.03125 63.96875 C 60.03125 63.96875 60.839844 62.65625 60.839844 61.039062 C 60.839844 59.421875 60.03125 58.109375 59.03125 58.109375 C 58.164062 58.109375 56.679688 61.007812 56.027344 60.746094 L 57.125 55.570312 L 54.496094 55.589844 C 54.496094 55.589844 55.648438 60.605469 55.648438 60.726562 L 55.628906 60.726562 L 55.628906 60.71875 C 54.988281 60.976562 53.453125 58.054688 52.59375 58.054688 C 51.597656 58.054688 50.785156 59.367188 50.785156 60.984375 C 50.785156 62.601562 51.597656 63.910156 52.59375 63.910156 C 53.433594 63.910156 54.957031 61.058594 55.625 61.351562 C 55.617188 62.480469 53.992188 64.800781 53.992188 66.175781 C 53.992188 67.792969 54.800781 69.105469 55.800781 69.105469 Z M 55.800781 69.105469 "/>
<path style=" stroke:none;fill-rule:evenodd;fill:rgb(0%,0%,0%);fill-opacity:1;" d="M 56.675781 97.15625 C 57.671875 97.15625 58.484375 95.847656 58.484375 94.230469 C 58.484375 92.851562 56.839844 90.53125 56.902344 89.433594 C 57.429688 89.117188 59.0625 92.019531 59.90625 92.019531 C 60.902344 92.019531 61.714844 90.707031 61.714844 89.089844 C 61.714844 87.472656 60.902344 86.160156 59.90625 86.160156 C 59.039062 86.160156 57.554688 89.0625 56.902344 88.800781 L 58 83.625 L 55.371094 83.640625 C 55.371094 83.640625 56.523438 88.660156 56.523438 88.777344 L 56.503906 88.777344 L 56.503906 88.773438 C 55.863281 89.03125 54.328125 86.105469 53.46875 86.105469 C 52.46875 86.105469 51.660156 87.417969 51.660156 89.035156 C 51.660156 90.652344 52.46875 91.964844 53.46875 91.964844 C 54.308594 91.964844 55.832031 89.109375 56.5 89.402344 C 56.488281 90.53125 54.867188 92.851562 54.867188 94.230469 C 54.867188 95.847656 55.675781 97.15625 56.675781 97.15625 Z M 56.675781 97.15625 "/>
<path style=" stroke:none;fill-rule:evenodd;fill:rgb(0%,0%,0%);fill-opacity:1;" d="M 33.945312 97.007812 C 34.941406 97.007812 35.753906 95.695312 35.753906 94.078125 C 35.753906 92.699219 34.109375 90.382812 34.171875 89.28125 C 34.699219 88.96875 36.332031 91.871094 37.175781 91.871094 C 38.171875 91.871094 38.984375 90.558594 38.984375 88.941406 C 38.984375 87.324219 38.171875 86.011719 37.175781 86.011719 C 36.308594 86.011719 34.824219 88.910156 34.171875 88.648438 L 35.269531 83.472656 L 32.636719 83.492188 C 32.636719 83.492188 33.789062 88.507812 33.792969 88.628906 L 33.769531 88.628906 L 33.769531 88.621094 C 33.132812 88.878906 31.597656 85.957031 30.738281 85.957031 C 29.738281 85.957031 28.929688 87.265625 28.929688 88.882812 C 28.929688 90.5 29.738281 91.8125 30.738281 91.8125 C 31.578125 91.8125 33.097656 88.960938 33.769531 89.253906 C 33.757812 90.382812 32.136719 92.703125 32.136719 94.078125 C 32.136719 95.695312 32.945312 97.007812 33.945312 97.007812 Z M 33.945312 97.007812 "/>
</g>
</svg>
