<?xml version="1.0" encoding="UTF-8"?>
<svg xmlns="http://www.w3.org/2000/svg" xmlns:xlink="http://www.w3.org/1999/xlink" width="90px" height="130px" viewBox="0 0 90 130" version="1.1">
<g id="surface1">
<path style=" stroke:none;fill-rule:nonzero;fill:rgb(0%,0%,0%);fill-opacity:0.498039;" d="M 13.5 3.421875 L 79.714844 3.421875 C 85.414062 3.421875 90 8.304688 90 14.367188 L 90 119.050781 C 90 125.117188 85.414062 130 79.714844 130 L 13.5 130 C 7.800781 130 3.214844 125.117188 3.214844 119.050781 L 3.214844 14.367188 C 3.214844 8.304688 7.800781 3.421875 13.5 3.421875 Z M 13.5 3.421875 "/>
<path style=" stroke:none;fill-rule:nonzero;fill:rgb(90.588236%,90.588236%,90.588236%);fill-opacity:1;" d="M 10.929688 0.683594 L 77.144531 0.683594 C 82.839844 0.683594 87.429688 5.566406 87.429688 11.632812 L 87.429688 116.316406 C 87.429688 122.378906 82.839844 127.261719 77.144531 127.261719 L 10.929688 127.261719 C 5.230469 127.261719 0.644531 122.378906 0.644531 116.316406 L 0.644531 11.632812 C 0.644531 5.566406 5.230469 0.683594 10.929688 0.683594 Z M 10.929688 0.683594 "/>
<path style=" stroke:none;fill-rule:nonzero;fill:rgb(78.039217%,53.725493%,12.156863%);fill-opacity:1;" d="M 12.214844 2.050781 L 78.429688 2.050781 C 84.125 2.050781 88.714844 6.933594 88.714844 13 L 88.714844 117.683594 C 88.714844 123.75 84.125 128.632812 78.429688 128.632812 L 12.214844 128.632812 C 6.515625 128.632812 1.929688 123.75 1.929688 117.683594 L 1.929688 13 C 1.929688 6.933594 6.515625 2.050781 12.214844 2.050781 Z M 12.214844 2.050781 "/>
<path style=" stroke:none;fill-rule:nonzero;fill:rgb(100%,100%,100%);fill-opacity:1;" d="M 11.570312 1.367188 L 77.785156 1.367188 C 83.484375 1.367188 88.070312 6.25 88.070312 12.316406 L 88.070312 117 C 88.070312 123.066406 83.484375 127.949219 77.785156 127.949219 L 11.570312 127.949219 C 5.875 127.949219 1.285156 123.066406 1.285156 117 L 1.285156 12.316406 C 1.285156 6.25 5.875 1.367188 11.570312 1.367188 Z M 11.570312 1.367188 "/>
<path style=" stroke:none;fill-rule:evenodd;fill:rgb(0%,0%,0%);fill-opacity:1;" d="M 32.957031 30.789062 C 31.113281 33.933594 25.453125 39.292969 29.039062 40.945312 C 31.214844 41.707031 32.25 40.148438 32.6875 39.117188 L 32.777344 39.117188 L 31.332031 44.320312 L 34.679688 44.304688 C 34.679688 44.304688 33.238281 39.304688 33.234375 39.113281 L 33.269531 39.113281 C 33.625 39.953125 34.96875 41.699219 36.445312 41.035156 C 40.769531 39.171875 34.402344 33.871094 32.957031 30.789062 Z M 32.957031 30.789062 "/>
<path style=" stroke:none;fill-rule:evenodd;fill:rgb(0%,0%,0%);fill-opacity:1;" d="M 34.132812 97.003906 C 35.976562 93.859375 41.632812 88.503906 38.050781 86.847656 C 35.871094 86.089844 34.835938 87.644531 34.398438 88.679688 L 34.3125 88.679688 L 35.757812 83.472656 L 32.410156 83.488281 C 32.410156 83.488281 33.851562 88.492188 33.855469 88.683594 L 33.820312 88.683594 C 33.464844 87.839844 32.121094 86.09375 30.640625 86.757812 C 26.320312 88.621094 32.683594 93.925781 34.132812 97.003906 Z M 34.132812 97.003906 "/>
<path style=" stroke:none;fill-rule:evenodd;fill:rgb(0%,0%,0%);fill-opacity:1;" d="M 56.101562 30.789062 C 54.257812 33.933594 48.597656 39.292969 52.183594 40.945312 C 54.359375 41.707031 55.394531 40.148438 55.832031 39.117188 L 55.921875 39.117188 L 54.476562 44.320312 L 57.820312 44.304688 C 57.820312 44.304688 56.378906 39.304688 56.375 39.113281 L 56.410156 39.113281 C 56.765625 39.953125 58.109375 41.699219 59.589844 41.035156 C 63.914062 39.171875 57.546875 33.871094 56.101562 30.789062 Z M 56.101562 30.789062 "/>
<path style=" stroke:none;fill-rule:evenodd;fill:rgb(0%,0%,0%);fill-opacity:1;" d="M 56.632812 97.003906 C 58.476562 93.859375 64.132812 88.503906 60.550781 86.847656 C 58.371094 86.089844 57.335938 87.644531 56.898438 88.679688 L 56.8125 88.679688 L 58.257812 83.472656 L 54.910156 83.488281 C 54.910156 83.488281 56.351562 88.492188 56.355469 88.683594 L 56.320312 88.683594 C 55.964844 87.839844 54.621094 86.09375 53.140625 86.757812 C 48.820312 88.621094 55.183594 93.925781 56.632812 97.003906 Z M 56.632812 97.003906 "/>
<path style=" stroke:none;fill-rule:evenodd;fill:rgb(0%,0%,0%);fill-opacity:1;" d="M 13.269531 33.296875 C 10.105469 38.652344 0.390625 47.765625 6.546875 50.582031 C 10.28125 51.878906 12.058594 49.226562 12.8125 47.46875 L 12.960938 47.46875 L 10.480469 56.328125 L 16.226562 56.300781 C 16.226562 56.300781 13.753906 47.785156 13.746094 47.460938 L 13.808594 47.460938 C 14.414062 48.894531 16.722656 51.867188 19.261719 50.734375 C 26.683594 47.5625 15.753906 38.539062 13.269531 33.296875 Z M 13.269531 33.296875 "/>
<path style=" stroke:none;fill-rule:nonzero;fill:rgb(0%,0%,0%);fill-opacity:1;" d="M 7.949219 8.375 L 18.167969 8.375 L 18.167969 12.265625 L 11.226562 12.265625 L 11.226562 15.441406 C 11.539062 15.332031 11.851562 15.246094 12.167969 15.191406 C 12.488281 15.128906 12.816406 15.097656 13.160156 15.097656 C 15.101562 15.097656 16.617188 15.722656 17.699219 16.980469 C 18.78125 18.226562 19.320312 19.96875 19.320312 22.203125 C 19.320312 24.421875 18.730469 26.160156 17.550781 27.414062 C 16.375 28.671875 14.742188 29.296875 12.648438 29.296875 C 11.742188 29.296875 10.84375 29.183594 9.957031 28.953125 C 9.074219 28.734375 8.195312 28.394531 7.316406 27.9375 L 7.316406 23.773438 C 8.1875 24.414062 9.007812 24.894531 9.785156 25.214844 C 10.566406 25.535156 11.304688 25.695312 11.996094 25.695312 C 12.992188 25.695312 13.777344 25.382812 14.34375 24.761719 C 14.921875 24.128906 15.210938 23.277344 15.210938 22.203125 C 15.210938 21.121094 14.921875 20.269531 14.34375 19.648438 C 13.777344 19.023438 12.992188 18.710938 11.996094 18.710938 C 11.40625 18.710938 10.773438 18.8125 10.105469 19.015625 C 9.4375 19.207031 8.71875 19.507812 7.949219 19.921875 L 7.949219 8.375 "/>
<path style=" stroke:none;fill-rule:evenodd;fill:rgb(0%,0%,0%);fill-opacity:1;" d="M 75.878906 95.789062 C 79.046875 90.4375 88.757812 81.320312 82.605469 78.503906 C 78.871094 77.207031 77.09375 79.859375 76.339844 81.617188 L 76.1875 81.617188 L 78.667969 72.757812 L 72.925781 72.785156 C 72.925781 72.785156 75.398438 81.300781 75.40625 81.625 L 75.34375 81.625 C 74.734375 80.191406 72.429688 77.21875 69.890625 78.351562 C 62.46875 81.523438 73.398438 90.546875 75.878906 95.789062 Z M 75.878906 95.789062 "/>
<path style=" stroke:none;fill-rule:nonzero;fill:rgb(0%,0%,0%);fill-opacity:1;" d="M 81.203125 121.105469 L 70.984375 121.105469 L 70.984375 117.214844 L 77.925781 117.214844 L 77.925781 114.039062 C 77.613281 114.148438 77.296875 114.230469 76.984375 114.285156 C 76.664062 114.351562 76.332031 114.382812 75.992188 114.382812 C 74.046875 114.382812 72.535156 113.753906 71.453125 112.5 C 70.371094 111.253906 69.828125 109.511719 69.828125 107.273438 C 69.828125 105.054688 70.421875 103.320312 71.601562 102.0625 C 72.777344 100.808594 74.410156 100.179688 76.503906 100.179688 C 77.410156 100.179688 78.304688 100.296875 79.195312 100.523438 C 80.078125 100.746094 80.957031 101.082031 81.832031 101.542969 L 81.832031 105.707031 C 80.964844 105.066406 80.144531 104.585938 79.367188 104.265625 C 78.582031 103.941406 77.847656 103.78125 77.15625 103.78125 C 76.160156 103.78125 75.375 104.09375 74.804688 104.71875 C 74.230469 105.351562 73.941406 106.203125 73.941406 107.273438 C 73.941406 108.355469 74.230469 109.207031 74.804688 109.832031 C 75.375 110.453125 76.160156 110.765625 77.15625 110.765625 C 77.746094 110.765625 78.375 110.664062 79.046875 110.464844 C 79.714844 110.273438 80.433594 109.96875 81.203125 109.558594 L 81.203125 121.105469 "/>
<path style=" stroke:none;fill-rule:evenodd;fill:rgb(0%,0%,0%);fill-opacity:1;" d="M 44.941406 56.105469 C 43.097656 59.25 37.4375 64.605469 41.023438 66.261719 C 43.199219 67.023438 44.234375 65.464844 44.671875 64.433594 L 44.761719 64.433594 L 43.316406 69.636719 L 46.664062 69.621094 C 46.664062 69.621094 45.21875 64.617188 45.21875 64.425781 L 45.253906 64.425781 C 45.605469 65.269531 46.949219 67.015625 48.429688 66.351562 C 52.753906 64.488281 46.386719 59.183594 44.941406 56.105469 Z M 44.941406 56.105469 "/>
</g>
</svg>
