<?xml version="1.0" encoding="UTF-8"?>
<svg xmlns="http://www.w3.org/2000/svg" xmlns:xlink="http://www.w3.org/1999/xlink" width="90px" height="130px" viewBox="0 0 90 130" version="1.1">
<g id="surface1">
<path style=" stroke:none;fill-rule:nonzero;fill:rgb(0%,0%,0%);fill-opacity:0.498039;" d="M 13.5 3.421875 L 79.714844 3.421875 C 85.414062 3.421875 90 8.304688 90 14.367188 L 90 119.050781 C 90 125.117188 85.414062 130 79.714844 130 L 13.5 130 C 7.800781 130 3.214844 125.117188 3.214844 119.050781 L 3.214844 14.367188 C 3.214844 8.304688 7.800781 3.421875 13.5 3.421875 Z M 13.5 3.421875 "/>
<path style=" stroke:none;fill-rule:nonzero;fill:rgb(90.588236%,90.588236%,90.588236%);fill-opacity:1;" d="M 10.929688 0.683594 L 77.144531 0.683594 C 82.839844 0.683594 87.429688 5.566406 87.429688 11.632812 L 87.429688 116.316406 C 87.429688 122.378906 82.839844 127.261719 77.144531 127.261719 L 10.929688 127.261719 C 5.230469 127.261719 0.644531 122.378906 0.644531 116.316406 L 0.644531 11.632812 C 0.644531 5.566406 5.230469 0.683594 10.929688 0.683594 Z M 10.929688 0.683594 "/>
<path style=" stroke:none;fill-rule:nonzero;fill:rgb(78.039217%,53.725493%,12.156863%);fill-opacity:1;" d="M 12.214844 2.050781 L 78.429688 2.050781 C 84.125 2.050781 88.714844 6.933594 88.714844 13 L 88.714844 117.683594 C 88.714844 123.75 84.125 128.632812 78.429688 128.632812 L 12.214844 128.632812 C 6.515625 128.632812 1.929688 123.75 1.929688 117.683594 L 1.929688 13 C 1.929688 6.933594 6.515625 2.050781 12.214844 2.050781 Z M 12.214844 2.050781 "/>
<path style=" stroke:none;fill-rule:nonzero;fill:rgb(100%,100%,100%);fill-opacity:1;" d="M 11.570312 1.367188 L 77.785156 1.367188 C 83.484375 1.367188 88.070312 6.25 88.070312 12.316406 L 88.070312 117 C 88.070312 123.066406 83.484375 127.949219 77.785156 127.949219 L 11.570312 127.949219 C 5.875 127.949219 1.285156 123.066406 1.285156 117 L 1.285156 12.316406 C 1.285156 6.25 5.875 1.367188 11.570312 1.367188 Z M 11.570312 1.367188 "/>
<path style=" stroke:none;fill-rule:nonzero;fill:rgb(0%,0%,0%);fill-opacity:1;" d="M 13.246094 19.714844 C 12.476562 19.714844 11.886719 19.984375 11.472656 20.527344 C 11.058594 21.066406 10.851562 21.84375 10.851562 22.851562 C 10.851562 23.859375 11.058594 24.632812 11.472656 25.175781 C 11.886719 25.707031 12.476562 25.972656 13.246094 25.972656 C 14.007812 25.972656 14.589844 25.707031 14.996094 25.175781 C 15.402344 24.632812 15.605469 23.859375 15.605469 22.851562 C 15.605469 21.832031 15.402344 21.058594 14.996094 20.527344 C 14.589844 19.984375 14.007812 19.714844 13.246094 19.714844 M 10.246094 17.96875 C 9.277344 17.59375 8.546875 17.015625 8.054688 16.238281 C 7.5625 15.457031 7.316406 14.488281 7.316406 13.324219 C 7.316406 11.589844 7.820312 10.269531 8.824219 9.363281 C 9.828125 8.457031 11.300781 8.003906 13.246094 8.003906 C 15.175781 8.003906 16.640625 8.457031 17.644531 9.363281 C 18.648438 10.261719 19.152344 11.582031 19.152344 13.324219 C 19.152344 14.488281 18.902344 15.457031 18.402344 16.238281 C 17.914062 17.015625 17.183594 17.59375 16.214844 17.96875 C 17.296875 18.355469 18.113281 18.984375 18.660156 19.851562 C 19.214844 20.714844 19.492188 21.804688 19.492188 23.125 C 19.492188 25.160156 18.964844 26.699219 17.914062 27.746094 C 16.867188 28.78125 15.308594 29.296875 13.246094 29.296875 C 11.171875 29.296875 9.605469 28.78125 8.546875 27.746094 C 7.492188 26.699219 6.964844 25.160156 6.964844 23.125 C 6.964844 21.804688 7.238281 20.714844 7.789062 19.851562 C 8.34375 18.984375 9.160156 18.355469 10.246094 17.96875 M 11.207031 13.859375 C 11.207031 14.675781 11.378906 15.304688 11.730469 15.742188 C 12.085938 16.183594 12.589844 16.402344 13.246094 16.402344 C 13.886719 16.402344 14.378906 16.183594 14.730469 15.742188 C 15.078125 15.304688 15.253906 14.675781 15.253906 13.859375 C 15.253906 13.042969 15.078125 12.421875 14.730469 11.988281 C 14.378906 11.550781 13.886719 11.328125 13.246094 11.328125 C 12.589844 11.328125 12.085938 11.550781 11.730469 11.988281 C 11.378906 12.429688 11.207031 13.050781 11.207031 13.859375 "/>
<path style=" stroke:none;fill-rule:nonzero;fill:rgb(0%,0%,0%);fill-opacity:1;" d="M 75.875 109.714844 C 76.644531 109.714844 77.234375 109.441406 77.648438 108.902344 C 78.058594 108.363281 78.265625 107.585938 78.265625 106.578125 C 78.265625 105.570312 78.058594 104.796875 77.648438 104.253906 C 77.234375 103.722656 76.644531 103.457031 75.875 103.457031 C 75.113281 103.457031 74.527344 103.722656 74.121094 104.253906 C 73.714844 104.796875 73.515625 105.570312 73.515625 106.578125 C 73.515625 107.597656 73.714844 108.371094 74.121094 108.902344 C 74.527344 109.441406 75.113281 109.714844 75.875 109.714844 M 78.875 111.460938 C 79.84375 111.835938 80.574219 112.414062 81.066406 113.191406 C 81.554688 113.972656 81.800781 114.941406 81.800781 116.105469 C 81.800781 117.839844 81.300781 119.160156 80.296875 120.066406 C 79.292969 120.972656 77.816406 121.425781 75.875 121.425781 C 73.945312 121.425781 72.476562 120.972656 71.472656 120.066406 C 70.46875 119.167969 69.96875 117.847656 69.96875 116.105469 C 69.96875 114.941406 70.21875 113.972656 70.714844 113.191406 C 71.207031 112.414062 71.9375 111.835938 72.90625 111.460938 C 71.824219 111.074219 71.007812 110.445312 70.460938 109.574219 C 69.902344 108.714844 69.625 107.625 69.625 106.304688 C 69.625 104.269531 70.152344 102.730469 71.207031 101.683594 C 72.253906 100.648438 73.808594 100.128906 75.875 100.128906 C 77.945312 100.128906 79.511719 100.648438 80.574219 101.683594 C 81.628906 102.730469 82.152344 104.269531 82.152344 106.304688 C 82.152344 107.625 81.878906 108.714844 81.332031 109.574219 C 80.777344 110.445312 79.957031 111.074219 78.875 111.460938 M 77.914062 115.570312 C 77.914062 114.753906 77.738281 114.125 77.390625 113.6875 C 77.035156 113.246094 76.527344 113.027344 75.875 113.027344 C 75.234375 113.027344 74.738281 113.246094 74.390625 113.6875 C 74.039062 114.125 73.867188 114.753906 73.867188 115.570312 C 73.867188 116.386719 74.039062 117.007812 74.390625 117.441406 C 74.738281 117.878906 75.234375 118.101562 75.875 118.101562 C 76.527344 118.101562 77.035156 117.878906 77.390625 117.441406 C 77.738281 117 77.914062 116.375 77.914062 115.570312 "/>
<path style=" stroke:none;fill-rule:evenodd;fill:rgb(0%,0%,0%);fill-opacity:1;" d="M 13.195312 33.296875 C 11.480469 33.296875 10.089844 35.53125 10.089844 38.28125 C 10.089844 40.625 12.914062 44.570312 12.804688 46.445312 C 11.898438 46.980469 9.097656 42.039062 7.648438 42.039062 C 5.9375 42.039062 4.546875 44.273438 4.546875 47.023438 C 4.546875 49.777344 5.9375 52.007812 7.648438 52.007812 C 9.136719 52.007812 11.683594 47.074219 12.804688 47.519531 L 10.921875 56.328125 L 15.4375 56.300781 C 15.4375 56.300781 13.460938 47.757812 13.457031 47.558594 L 13.492188 47.558594 L 13.492188 47.566406 C 14.589844 47.128906 17.226562 52.105469 18.699219 52.105469 C 20.414062 52.105469 21.804688 49.871094 21.804688 47.121094 C 21.804688 44.367188 20.414062 42.136719 18.699219 42.136719 C 17.257812 42.136719 14.644531 46.992188 13.5 46.492188 C 13.515625 44.574219 16.300781 40.625 16.300781 38.28125 C 16.300781 35.53125 14.910156 33.296875 13.195312 33.296875 Z M 13.195312 33.296875 "/>
<path style=" stroke:none;fill-rule:evenodd;fill:rgb(0%,0%,0%);fill-opacity:1;" d="M 75.484375 95.765625 C 77.195312 95.765625 78.589844 93.53125 78.589844 90.777344 C 78.589844 88.433594 75.765625 84.488281 75.875 82.617188 C 76.78125 82.082031 79.582031 87.019531 81.03125 87.019531 C 82.742188 87.019531 84.132812 84.789062 84.132812 82.035156 C 84.132812 79.285156 82.742188 77.050781 81.03125 77.050781 C 79.542969 77.050781 76.996094 81.988281 75.875 81.542969 L 77.757812 72.734375 L 73.242188 72.761719 C 73.242188 72.761719 75.21875 81.300781 75.222656 81.503906 L 75.1875 81.503906 L 75.1875 81.492188 C 74.089844 81.933594 71.453125 76.957031 69.976562 76.957031 C 68.265625 76.957031 66.875 79.1875 66.875 81.941406 C 66.875 84.691406 68.265625 86.925781 69.976562 86.925781 C 71.421875 86.925781 74.035156 82.066406 75.179688 82.570312 C 75.164062 84.488281 72.378906 88.4375 72.378906 90.777344 C 72.378906 93.53125 73.769531 95.765625 75.484375 95.765625 Z M 75.484375 95.765625 "/>
<path style=" stroke:none;fill-rule:evenodd;fill:rgb(0%,0%,0%);fill-opacity:1;" d="M 31.628906 24.632812 C 30.628906 24.632812 29.820312 25.945312 29.820312 27.5625 C 29.820312 28.9375 31.464844 31.257812 31.398438 32.359375 C 30.871094 32.671875 29.242188 29.769531 28.398438 29.769531 C 27.398438 29.769531 26.589844 31.082031 26.589844 32.699219 C 26.589844 34.316406 27.398438 35.628906 28.398438 35.628906 C 29.261719 35.628906 30.746094 32.726562 31.398438 32.988281 L 30.304688 38.164062 L 32.933594 38.148438 C 32.933594 38.148438 31.78125 33.128906 31.78125 33.011719 L 31.800781 33.011719 L 31.800781 33.015625 C 32.441406 32.761719 33.972656 35.683594 34.835938 35.683594 C 35.832031 35.683594 36.644531 34.371094 36.644531 32.753906 C 36.644531 31.136719 35.832031 29.824219 34.835938 29.824219 C 33.996094 29.824219 32.472656 32.679688 31.804688 32.386719 C 31.8125 31.257812 33.4375 28.9375 33.4375 27.5625 C 33.4375 25.945312 32.625 24.632812 31.628906 24.632812 Z M 31.628906 24.632812 "/>
<path style=" stroke:none;fill-rule:evenodd;fill:rgb(0%,0%,0%);fill-opacity:1;" d="M 57.984375 24.78125 C 56.988281 24.78125 56.175781 26.09375 56.175781 27.710938 C 56.175781 29.089844 57.820312 31.40625 57.757812 32.507812 C 57.230469 32.824219 55.597656 29.917969 54.753906 29.917969 C 53.753906 29.917969 52.945312 31.230469 52.945312 32.847656 C 52.945312 34.464844 53.753906 35.777344 54.753906 35.777344 C 55.621094 35.777344 57.105469 32.878906 57.757812 33.140625 L 56.660156 38.316406 L 59.289062 38.300781 C 59.289062 38.300781 58.136719 33.28125 58.136719 33.160156 L 58.15625 33.160156 L 58.15625 33.167969 C 58.796875 32.910156 60.332031 35.835938 61.191406 35.835938 C 62.191406 35.835938 63 34.523438 63 32.90625 C 63 31.289062 62.191406 29.976562 61.191406 29.976562 C 60.351562 29.976562 58.828125 32.832031 58.160156 32.535156 C 58.171875 31.40625 59.792969 29.085938 59.792969 27.710938 C 59.792969 26.09375 58.984375 24.78125 57.984375 24.78125 Z M 57.984375 24.78125 "/>
<path style=" stroke:none;fill-rule:evenodd;fill:rgb(0%,0%,0%);fill-opacity:1;" d="M 31.394531 48.730469 C 30.398438 48.730469 29.585938 50.042969 29.585938 51.660156 C 29.585938 53.035156 31.234375 55.355469 31.167969 56.457031 C 30.640625 56.769531 29.007812 53.867188 28.164062 53.867188 C 27.167969 53.867188 26.355469 55.179688 26.355469 56.796875 C 26.355469 58.414062 27.167969 59.726562 28.164062 59.726562 C 29.03125 59.726562 30.515625 56.824219 31.167969 57.085938 L 30.070312 62.261719 L 32.703125 62.246094 C 32.703125 62.246094 31.550781 57.226562 31.546875 57.109375 L 31.570312 57.109375 L 31.570312 57.113281 C 32.207031 56.859375 33.742188 59.78125 34.601562 59.78125 C 35.601562 59.78125 36.410156 58.46875 36.410156 56.851562 C 36.410156 55.234375 35.601562 53.921875 34.601562 53.921875 C 33.761719 53.921875 32.242188 56.777344 31.574219 56.484375 C 31.582031 55.355469 33.203125 53.035156 33.203125 51.660156 C 33.203125 50.042969 32.394531 48.730469 31.394531 48.730469 Z M 31.394531 48.730469 "/>
<path style=" stroke:none;fill-rule:evenodd;fill:rgb(0%,0%,0%);fill-opacity:1;" d="M 56.699219 47.894531 C 55.699219 47.894531 54.890625 49.207031 54.890625 50.824219 C 54.890625 52.203125 56.535156 54.519531 56.472656 55.621094 C 55.941406 55.933594 54.3125 53.03125 53.46875 53.03125 C 52.46875 53.03125 51.660156 54.34375 51.660156 55.960938 C 51.660156 57.578125 52.46875 58.890625 53.46875 58.890625 C 54.335938 58.890625 55.820312 55.992188 56.472656 56.253906 L 55.375 61.429688 L 58.003906 61.410156 C 58.003906 61.410156 56.851562 56.394531 56.851562 56.273438 L 56.871094 56.273438 L 56.871094 56.28125 C 57.511719 56.023438 59.046875 58.945312 59.90625 58.945312 C 60.902344 58.945312 61.714844 57.632812 61.714844 56.015625 C 61.714844 54.398438 60.902344 53.089844 59.90625 53.089844 C 59.066406 53.089844 57.542969 55.941406 56.875 55.648438 C 56.882812 54.519531 58.507812 52.199219 58.507812 50.824219 C 58.507812 49.207031 57.699219 47.894531 56.699219 47.894531 Z M 56.699219 47.894531 "/>
<path style=" stroke:none;fill-rule:evenodd;fill:rgb(0%,0%,0%);fill-opacity:1;" d="M 30.960938 81.421875 C 31.960938 81.421875 32.769531 80.109375 32.769531 78.492188 C 32.769531 77.113281 31.125 74.796875 31.1875 73.695312 C 31.714844 73.378906 33.347656 76.285156 34.191406 76.285156 C 35.191406 76.285156 36 74.972656 36 73.355469 C 36 71.738281 35.191406 70.425781 34.191406 70.425781 C 33.324219 70.425781 31.839844 73.324219 31.1875 73.0625 L 32.285156 67.886719 L 29.65625 67.902344 C 29.65625 67.902344 30.808594 72.921875 30.808594 73.042969 L 30.789062 73.042969 L 30.789062 73.035156 C 30.148438 73.292969 28.613281 70.367188 27.753906 70.367188 C 26.753906 70.367188 25.945312 71.679688 25.945312 73.296875 C 25.945312 74.914062 26.753906 76.226562 27.753906 76.226562 C 28.59375 76.226562 30.117188 73.371094 30.785156 73.667969 C 30.773438 74.796875 29.152344 77.117188 29.152344 78.492188 C 29.152344 80.109375 29.960938 81.421875 30.960938 81.421875 Z M 30.960938 81.421875 "/>
<path style=" stroke:none;fill-rule:evenodd;fill:rgb(0%,0%,0%);fill-opacity:1;" d="M 57.730469 81.953125 C 58.726562 81.953125 59.539062 80.640625 59.539062 79.023438 C 59.539062 77.648438 57.894531 75.328125 57.957031 74.230469 C 58.484375 73.914062 60.117188 76.816406 60.960938 76.816406 C 61.957031 76.816406 62.769531 75.503906 62.769531 73.886719 C 62.769531 72.269531 61.957031 70.957031 60.960938 70.957031 C 60.09375 70.957031 58.609375 73.859375 57.957031 73.597656 L 59.054688 68.421875 L 56.425781 68.4375 C 56.425781 68.4375 57.574219 73.457031 57.578125 73.574219 L 57.558594 73.574219 L 57.558594 73.570312 C 56.917969 73.828125 55.382812 70.902344 54.523438 70.902344 C 53.523438 70.902344 52.714844 72.214844 52.714844 73.832031 C 52.714844 75.449219 53.523438 76.761719 54.523438 76.761719 C 55.363281 76.761719 56.886719 73.90625 57.554688 74.199219 C 57.542969 75.328125 55.921875 77.648438 55.921875 79.023438 C 55.921875 80.640625 56.730469 81.953125 57.730469 81.953125 Z M 57.730469 81.953125 "/>
<path style=" stroke:none;fill-rule:evenodd;fill:rgb(0%,0%,0%);fill-opacity:1;" d="M 57.960938 102.480469 C 58.960938 102.480469 59.769531 101.167969 59.769531 99.550781 C 59.769531 98.175781 58.125 95.855469 58.1875 94.753906 C 58.714844 94.441406 60.347656 97.34375 61.191406 97.34375 C 62.191406 97.34375 63 96.03125 63 94.414062 C 63 92.796875 62.191406 91.484375 61.191406 91.484375 C 60.324219 91.484375 58.839844 94.386719 58.1875 94.125 L 59.285156 88.949219 L 56.65625 88.964844 C 56.65625 88.964844 57.808594 93.984375 57.808594 94.101562 L 57.789062 94.101562 L 57.789062 94.09375 C 57.148438 94.351562 55.613281 91.429688 54.753906 91.429688 C 53.753906 91.429688 52.945312 92.742188 52.945312 94.359375 C 52.945312 95.976562 53.753906 97.289062 54.753906 97.289062 C 55.59375 97.289062 57.117188 94.433594 57.785156 94.726562 C 57.773438 95.855469 56.152344 98.175781 56.152344 99.550781 C 56.152344 101.167969 56.960938 102.480469 57.960938 102.480469 Z M 57.960938 102.480469 "/>
<path style=" stroke:none;fill-rule:evenodd;fill:rgb(0%,0%,0%);fill-opacity:1;" d="M 31.605469 102.480469 C 32.601562 102.480469 33.414062 101.167969 33.414062 99.550781 C 33.414062 98.175781 31.765625 95.855469 31.832031 94.753906 C 32.359375 94.441406 33.992188 97.34375 34.835938 97.34375 C 35.832031 97.34375 36.644531 96.03125 36.644531 94.414062 C 36.644531 92.796875 35.832031 91.484375 34.835938 91.484375 C 33.96875 91.484375 32.484375 94.386719 31.832031 94.125 L 32.929688 88.949219 L 30.296875 88.964844 C 30.296875 88.964844 31.449219 93.984375 31.453125 94.101562 L 31.429688 94.101562 L 31.429688 94.09375 C 30.792969 94.351562 29.257812 91.429688 28.398438 91.429688 C 27.398438 91.429688 26.589844 92.742188 26.589844 94.359375 C 26.589844 95.976562 27.398438 97.289062 28.398438 97.289062 C 29.238281 97.289062 30.757812 94.433594 31.425781 94.726562 C 31.417969 95.855469 29.796875 98.175781 29.796875 99.550781 C 29.796875 101.167969 30.605469 102.480469 31.605469 102.480469 Z M 31.605469 102.480469 "/>
</g>
</svg>
