<?xml version="1.0" encoding="UTF-8"?>
<svg xmlns="http://www.w3.org/2000/svg" xmlns:xlink="http://www.w3.org/1999/xlink" width="90px" height="130px" viewBox="0 0 90 130" version="1.1">
<g id="surface1">
<path style=" stroke:none;fill-rule:nonzero;fill:rgb(0%,0%,0%);fill-opacity:0.498039;" d="M 13.5 3.421875 L 79.714844 3.421875 C 85.414062 3.421875 90 8.304688 90 14.367188 L 90 119.050781 C 90 125.117188 85.414062 130 79.714844 130 L 13.5 130 C 7.800781 130 3.214844 125.117188 3.214844 119.050781 L 3.214844 14.367188 C 3.214844 8.304688 7.800781 3.421875 13.5 3.421875 Z M 13.5 3.421875 "/>
<path style=" stroke:none;fill-rule:nonzero;fill:rgb(90.588236%,90.588236%,90.588236%);fill-opacity:1;" d="M 10.929688 0.683594 L 77.144531 0.683594 C 82.839844 0.683594 87.429688 5.566406 87.429688 11.632812 L 87.429688 116.316406 C 87.429688 122.378906 82.839844 127.261719 77.144531 127.261719 L 10.929688 127.261719 C 5.230469 127.261719 0.644531 122.378906 0.644531 116.316406 L 0.644531 11.632812 C 0.644531 5.566406 5.230469 0.683594 10.929688 0.683594 Z M 10.929688 0.683594 "/>
<path style=" stroke:none;fill-rule:nonzero;fill:rgb(78.039217%,53.725493%,12.156863%);fill-opacity:1;" d="M 12.214844 2.050781 L 78.429688 2.050781 C 84.125 2.050781 88.714844 6.933594 88.714844 13 L 88.714844 117.683594 C 88.714844 123.75 84.125 128.632812 78.429688 128.632812 L 12.214844 128.632812 C 6.515625 128.632812 1.929688 123.75 1.929688 117.683594 L 1.929688 13 C 1.929688 6.933594 6.515625 2.050781 12.214844 2.050781 Z M 12.214844 2.050781 "/>
<path style=" stroke:none;fill-rule:nonzero;fill:rgb(100%,100%,100%);fill-opacity:1;" d="M 11.570312 1.367188 L 77.785156 1.367188 C 83.484375 1.367188 88.070312 6.25 88.070312 12.316406 L 88.070312 117 C 88.070312 123.066406 83.484375 127.949219 77.785156 127.949219 L 11.570312 127.949219 C 5.875 127.949219 1.285156 123.066406 1.285156 117 L 1.285156 12.316406 C 1.285156 6.25 5.875 1.367188 11.570312 1.367188 Z M 11.570312 1.367188 "/>
<path style=" stroke:none;fill-rule:evenodd;fill:rgb(0%,0%,0%);fill-opacity:1;" d="M 13.195312 33.300781 C 11.480469 33.300781 10.089844 35.535156 10.089844 38.285156 C 10.089844 40.628906 12.914062 44.574219 12.804688 46.449219 C 11.898438 46.984375 9.097656 42.042969 7.648438 42.042969 C 5.9375 42.042969 4.546875 44.277344 4.546875 47.027344 C 4.546875 49.78125 5.9375 52.011719 7.648438 52.011719 C 9.136719 52.011719 11.683594 47.078125 12.804688 47.523438 L 10.921875 56.332031 L 15.4375 56.300781 C 15.4375 56.300781 13.460938 47.761719 13.457031 47.5625 L 13.492188 47.5625 L 13.492188 47.570312 C 14.589844 47.132812 17.226562 52.109375 18.699219 52.109375 C 20.414062 52.109375 21.804688 49.875 21.804688 47.125 C 21.804688 44.371094 20.414062 42.136719 18.699219 42.136719 C 17.257812 42.136719 14.644531 46.996094 13.5 46.496094 C 13.515625 44.574219 16.300781 40.628906 16.300781 38.285156 C 16.300781 35.535156 14.910156 33.300781 13.195312 33.300781 Z M 13.195312 33.300781 "/>
<path style=" stroke:none;fill-rule:nonzero;fill:rgb(0%,0%,0%);fill-opacity:1;" d="M 7.507812 28.988281 L 7.507812 12.847656 L 4.140625 12.800781 L 4.300781 10.324219 L 7.488281 8.210938 L 11.019531 8.210938 L 11.019531 28.988281 M 19.652344 18.574219 C 19.652344 16.007812 19.484375 14.203125 19.144531 13.15625 C 18.808594 12.101562 18.242188 11.574219 17.445312 11.574219 C 16.648438 11.574219 16.078125 12.101562 15.738281 13.15625 C 15.398438 14.203125 15.226562 16.007812 15.226562 18.574219 C 15.226562 21.167969 15.398438 22.996094 15.738281 24.058594 C 16.078125 25.121094 16.648438 25.652344 17.445312 25.652344 C 18.234375 25.652344 18.800781 25.121094 19.144531 24.058594 C 19.484375 22.996094 19.652344 21.167969 19.652344 18.574219 M 23.367188 18.613281 C 23.367188 22.015625 22.851562 24.640625 21.824219 26.492188 C 20.796875 28.335938 19.335938 29.257812 17.445312 29.257812 C 15.546875 29.257812 14.085938 28.335938 13.054688 26.492188 C 12.027344 24.640625 11.511719 22.015625 11.511719 18.613281 C 11.511719 15.207031 12.027344 12.578125 13.054688 10.738281 C 14.085938 8.886719 15.546875 7.960938 17.445312 7.960938 C 19.335938 7.960938 20.796875 8.886719 21.824219 10.738281 C 22.851562 12.578125 23.367188 15.207031 23.367188 18.613281 "/>
<path style=" stroke:none;fill-rule:evenodd;fill:rgb(0%,0%,0%);fill-opacity:1;" d="M 75.484375 95.761719 C 77.195312 95.761719 78.589844 93.527344 78.589844 90.777344 C 78.589844 88.433594 75.765625 84.488281 75.875 82.613281 C 76.78125 82.078125 79.582031 87.019531 81.03125 87.019531 C 82.742188 87.019531 84.132812 84.785156 84.132812 82.035156 C 84.132812 79.28125 82.742188 77.050781 81.03125 77.050781 C 79.542969 77.050781 76.996094 81.984375 75.875 81.539062 L 77.757812 72.730469 L 73.242188 72.761719 C 73.242188 72.761719 75.21875 81.300781 75.222656 81.5 L 75.1875 81.5 L 75.1875 81.492188 C 74.089844 81.929688 71.453125 76.953125 69.976562 76.953125 C 68.265625 76.953125 66.875 79.1875 66.875 81.9375 C 66.875 84.691406 68.265625 86.925781 69.976562 86.925781 C 71.421875 86.925781 74.035156 82.066406 75.179688 82.566406 C 75.164062 84.488281 72.378906 88.433594 72.378906 90.777344 C 72.378906 93.527344 73.769531 95.761719 75.484375 95.761719 Z M 75.484375 95.761719 "/>
<path style=" stroke:none;fill-rule:nonzero;fill:rgb(0%,0%,0%);fill-opacity:1;" d="M 81.171875 100.078125 L 81.171875 116.21875 L 84.539062 116.265625 L 84.375 118.742188 L 81.191406 120.855469 L 77.660156 120.855469 L 77.660156 100.078125 M 69.023438 110.492188 C 69.023438 113.058594 69.195312 114.863281 69.535156 115.910156 C 69.871094 116.960938 70.4375 117.488281 71.234375 117.488281 C 72.03125 117.488281 72.601562 116.960938 72.941406 115.910156 C 73.28125 114.863281 73.453125 113.058594 73.453125 110.492188 C 73.453125 107.898438 73.28125 106.070312 72.941406 105.007812 C 72.601562 103.941406 72.03125 103.410156 71.234375 103.410156 C 70.445312 103.410156 69.878906 103.941406 69.535156 105.007812 C 69.195312 106.070312 69.023438 107.898438 69.023438 110.492188 M 65.3125 110.449219 C 65.3125 107.050781 65.824219 104.425781 66.855469 102.574219 C 67.882812 100.730469 69.34375 99.808594 71.234375 99.808594 C 73.132812 99.808594 74.59375 100.730469 75.625 102.574219 C 76.652344 104.425781 77.167969 107.050781 77.167969 110.449219 C 77.167969 113.859375 76.652344 116.484375 75.625 118.328125 C 74.59375 120.179688 73.132812 121.105469 71.234375 121.105469 C 69.34375 121.105469 67.882812 120.179688 66.855469 118.328125 C 65.824219 116.484375 65.3125 113.859375 65.3125 110.449219 "/>
<path style=" stroke:none;fill-rule:evenodd;fill:rgb(0%,0%,0%);fill-opacity:1;" d="M 31.628906 24.632812 C 30.628906 24.632812 29.820312 25.945312 29.820312 27.5625 C 29.820312 28.9375 31.464844 31.257812 31.398438 32.359375 C 30.871094 32.671875 29.242188 29.769531 28.398438 29.769531 C 27.398438 29.769531 26.589844 31.082031 26.589844 32.699219 C 26.589844 34.316406 27.398438 35.628906 28.398438 35.628906 C 29.261719 35.628906 30.746094 32.726562 31.398438 32.988281 L 30.304688 38.164062 L 32.933594 38.148438 C 32.933594 38.148438 31.78125 33.128906 31.78125 33.011719 L 31.800781 33.011719 L 31.800781 33.015625 C 32.441406 32.761719 33.972656 35.683594 34.835938 35.683594 C 35.832031 35.683594 36.644531 34.371094 36.644531 32.753906 C 36.644531 31.136719 35.832031 29.824219 34.835938 29.824219 C 33.996094 29.824219 32.472656 32.679688 31.804688 32.386719 C 31.8125 31.257812 33.4375 28.9375 33.4375 27.5625 C 33.4375 25.945312 32.625 24.632812 31.628906 24.632812 Z M 31.628906 24.632812 "/>
<path style=" stroke:none;fill-rule:evenodd;fill:rgb(0%,0%,0%);fill-opacity:1;" d="M 44.253906 34.359375 C 43.253906 34.359375 42.445312 35.671875 42.445312 37.289062 C 42.445312 38.667969 44.089844 40.984375 44.027344 42.085938 C 43.496094 42.402344 41.867188 39.5 41.023438 39.5 C 40.023438 39.5 39.214844 40.8125 39.214844 42.429688 C 39.214844 44.046875 40.023438 45.355469 41.023438 45.355469 C 41.890625 45.355469 43.371094 42.457031 44.027344 42.71875 L 42.929688 47.894531 L 45.558594 47.878906 C 45.558594 47.878906 44.40625 42.859375 44.40625 42.742188 L 44.425781 42.742188 L 44.425781 42.746094 C 45.066406 42.488281 46.601562 45.414062 47.460938 45.414062 C 48.457031 45.414062 49.269531 44.101562 49.269531 42.484375 C 49.269531 40.867188 48.457031 39.554688 47.460938 39.554688 C 46.621094 39.554688 45.097656 42.410156 44.429688 42.113281 C 44.4375 40.988281 46.0625 38.667969 46.0625 37.289062 C 46.0625 35.671875 45.253906 34.359375 44.253906 34.359375 Z M 44.253906 34.359375 "/>
<path style=" stroke:none;fill-rule:evenodd;fill:rgb(0%,0%,0%);fill-opacity:1;" d="M 57.984375 24.78125 C 56.988281 24.78125 56.175781 26.09375 56.175781 27.710938 C 56.175781 29.089844 57.820312 31.40625 57.757812 32.507812 C 57.230469 32.824219 55.597656 29.917969 54.753906 29.917969 C 53.753906 29.917969 52.945312 31.230469 52.945312 32.847656 C 52.945312 34.464844 53.753906 35.777344 54.753906 35.777344 C 55.621094 35.777344 57.105469 32.878906 57.757812 33.140625 L 56.660156 38.316406 L 59.289062 38.300781 C 59.289062 38.300781 58.136719 33.28125 58.136719 33.160156 L 58.15625 33.160156 L 58.15625 33.167969 C 58.796875 32.910156 60.332031 35.835938 61.191406 35.835938 C 62.191406 35.835938 63 34.523438 63 32.90625 C 63 31.289062 62.191406 29.976562 61.191406 29.976562 C 60.351562 29.976562 58.828125 32.832031 58.160156 32.535156 C 58.171875 31.40625 59.792969 29.085938 59.792969 27.710938 C 59.792969 26.09375 58.984375 24.78125 57.984375 24.78125 Z M 57.984375 24.78125 "/>
<path style=" stroke:none;fill-rule:evenodd;fill:rgb(0%,0%,0%);fill-opacity:1;" d="M 31.394531 48.730469 C 30.398438 48.730469 29.585938 50.042969 29.585938 51.660156 C 29.585938 53.035156 31.234375 55.355469 31.167969 56.457031 C 30.640625 56.769531 29.007812 53.867188 28.164062 53.867188 C 27.167969 53.867188 26.355469 55.179688 26.355469 56.796875 C 26.355469 58.414062 27.167969 59.726562 28.164062 59.726562 C 29.03125 59.726562 30.515625 56.824219 31.167969 57.085938 L 30.070312 62.261719 L 32.703125 62.246094 C 32.703125 62.246094 31.550781 57.226562 31.546875 57.109375 L 31.570312 57.109375 L 31.570312 57.113281 C 32.207031 56.859375 33.742188 59.78125 34.601562 59.78125 C 35.601562 59.78125 36.410156 58.46875 36.410156 56.851562 C 36.410156 55.234375 35.601562 53.921875 34.601562 53.921875 C 33.761719 53.921875 32.242188 56.777344 31.574219 56.484375 C 31.582031 55.355469 33.203125 53.035156 33.203125 51.660156 C 33.203125 50.042969 32.394531 48.730469 31.394531 48.730469 Z M 31.394531 48.730469 "/>
<path style=" stroke:none;fill-rule:evenodd;fill:rgb(0%,0%,0%);fill-opacity:1;" d="M 56.699219 47.894531 C 55.699219 47.894531 54.890625 49.207031 54.890625 50.824219 C 54.890625 52.203125 56.535156 54.519531 56.472656 55.621094 C 55.941406 55.933594 54.3125 53.03125 53.46875 53.03125 C 52.46875 53.03125 51.660156 54.34375 51.660156 55.960938 C 51.660156 57.578125 52.46875 58.890625 53.46875 58.890625 C 54.335938 58.890625 55.820312 55.992188 56.472656 56.253906 L 55.375 61.429688 L 58.003906 61.410156 C 58.003906 61.410156 56.851562 56.394531 56.851562 56.273438 L 56.871094 56.273438 L 56.871094 56.28125 C 57.511719 56.023438 59.046875 58.945312 59.90625 58.945312 C 60.902344 58.945312 61.714844 57.632812 61.714844 56.015625 C 61.714844 54.398438 60.902344 53.089844 59.90625 53.089844 C 59.066406 53.089844 57.542969 55.941406 56.875 55.648438 C 56.882812 54.519531 58.507812 52.199219 58.507812 50.824219 C 58.507812 49.207031 57.699219 47.894531 56.699219 47.894531 Z M 56.699219 47.894531 "/>
<path style=" stroke:none;fill-rule:evenodd;fill:rgb(0%,0%,0%);fill-opacity:1;" d="M 30.960938 81.421875 C 31.960938 81.421875 32.769531 80.109375 32.769531 78.492188 C 32.769531 77.113281 31.125 74.796875 31.1875 73.695312 C 31.714844 73.378906 33.347656 76.285156 34.191406 76.285156 C 35.191406 76.285156 36 74.972656 36 73.355469 C 36 71.738281 35.191406 70.425781 34.191406 70.425781 C 33.324219 70.425781 31.839844 73.324219 31.1875 73.0625 L 32.285156 67.886719 L 29.65625 67.902344 C 29.65625 67.902344 30.808594 72.921875 30.808594 73.042969 L 30.789062 73.042969 L 30.789062 73.035156 C 30.148438 73.292969 28.613281 70.367188 27.753906 70.367188 C 26.753906 70.367188 25.945312 71.679688 25.945312 73.296875 C 25.945312 74.914062 26.753906 76.226562 27.753906 76.226562 C 28.59375 76.226562 30.117188 73.371094 30.785156 73.667969 C 30.773438 74.796875 29.152344 77.117188 29.152344 78.492188 C 29.152344 80.109375 29.960938 81.421875 30.960938 81.421875 Z M 30.960938 81.421875 "/>
<path style=" stroke:none;fill-rule:evenodd;fill:rgb(0%,0%,0%);fill-opacity:1;" d="M 57.730469 81.953125 C 58.726562 81.953125 59.539062 80.640625 59.539062 79.023438 C 59.539062 77.648438 57.894531 75.328125 57.957031 74.230469 C 58.484375 73.914062 60.117188 76.816406 60.960938 76.816406 C 61.957031 76.816406 62.769531 75.503906 62.769531 73.886719 C 62.769531 72.269531 61.957031 70.957031 60.960938 70.957031 C 60.09375 70.957031 58.609375 73.859375 57.957031 73.597656 L 59.054688 68.421875 L 56.425781 68.4375 C 56.425781 68.4375 57.574219 73.457031 57.578125 73.574219 L 57.558594 73.574219 L 57.558594 73.570312 C 56.917969 73.828125 55.382812 70.902344 54.523438 70.902344 C 53.523438 70.902344 52.714844 72.214844 52.714844 73.832031 C 52.714844 75.449219 53.523438 76.761719 54.523438 76.761719 C 55.363281 76.761719 56.886719 73.90625 57.554688 74.199219 C 57.542969 75.328125 55.921875 77.648438 55.921875 79.023438 C 55.921875 80.640625 56.730469 81.953125 57.730469 81.953125 Z M 57.730469 81.953125 "/>
<path style=" stroke:none;fill-rule:evenodd;fill:rgb(0%,0%,0%);fill-opacity:1;" d="M 44.230469 93.738281 C 45.226562 93.738281 46.039062 92.425781 46.039062 90.808594 C 46.039062 89.429688 44.394531 87.113281 44.457031 86.011719 C 44.984375 85.695312 46.617188 88.597656 47.460938 88.597656 C 48.457031 88.597656 49.269531 87.289062 49.269531 85.671875 C 49.269531 84.054688 48.457031 82.742188 47.460938 82.742188 C 46.59375 82.742188 45.109375 85.640625 44.457031 85.378906 L 45.554688 80.203125 L 42.925781 80.21875 C 42.925781 80.21875 44.074219 85.238281 44.078125 85.355469 L 44.058594 85.355469 L 44.058594 85.351562 C 43.417969 85.609375 41.882812 82.683594 41.023438 82.683594 C 40.023438 82.683594 39.214844 83.996094 39.214844 85.613281 C 39.214844 87.230469 40.023438 88.542969 41.023438 88.542969 C 41.863281 88.542969 43.386719 85.6875 44.054688 85.984375 C 44.042969 87.109375 42.421875 89.429688 42.421875 90.808594 C 42.421875 92.425781 43.230469 93.738281 44.230469 93.738281 Z M 44.230469 93.738281 "/>
<path style=" stroke:none;fill-rule:evenodd;fill:rgb(0%,0%,0%);fill-opacity:1;" d="M 57.960938 102.480469 C 58.960938 102.480469 59.769531 101.167969 59.769531 99.550781 C 59.769531 98.175781 58.125 95.855469 58.1875 94.753906 C 58.714844 94.441406 60.347656 97.34375 61.191406 97.34375 C 62.191406 97.34375 63 96.03125 63 94.414062 C 63 92.796875 62.191406 91.484375 61.191406 91.484375 C 60.324219 91.484375 58.839844 94.386719 58.1875 94.125 L 59.285156 88.949219 L 56.65625 88.964844 C 56.65625 88.964844 57.808594 93.984375 57.808594 94.101562 L 57.789062 94.101562 L 57.789062 94.09375 C 57.148438 94.351562 55.613281 91.429688 54.753906 91.429688 C 53.753906 91.429688 52.945312 92.742188 52.945312 94.359375 C 52.945312 95.976562 53.753906 97.289062 54.753906 97.289062 C 55.59375 97.289062 57.117188 94.433594 57.785156 94.726562 C 57.773438 95.855469 56.152344 98.175781 56.152344 99.550781 C 56.152344 101.167969 56.960938 102.480469 57.960938 102.480469 Z M 57.960938 102.480469 "/>
<path style=" stroke:none;fill-rule:evenodd;fill:rgb(0%,0%,0%);fill-opacity:1;" d="M 31.605469 102.480469 C 32.601562 102.480469 33.414062 101.167969 33.414062 99.550781 C 33.414062 98.175781 31.765625 95.855469 31.832031 94.753906 C 32.359375 94.441406 33.992188 97.34375 34.835938 97.34375 C 35.832031 97.34375 36.644531 96.03125 36.644531 94.414062 C 36.644531 92.796875 35.832031 91.484375 34.835938 91.484375 C 33.96875 91.484375 32.484375 94.386719 31.832031 94.125 L 32.929688 88.949219 L 30.296875 88.964844 C 30.296875 88.964844 31.449219 93.984375 31.453125 94.101562 L 31.429688 94.101562 L 31.429688 94.09375 C 30.792969 94.351562 29.257812 91.429688 28.398438 91.429688 C 27.398438 91.429688 26.589844 92.742188 26.589844 94.359375 C 26.589844 95.976562 27.398438 97.289062 28.398438 97.289062 C 29.238281 97.289062 30.757812 94.433594 31.425781 94.726562 C 31.417969 95.855469 29.796875 98.175781 29.796875 99.550781 C 29.796875 101.167969 30.605469 102.480469 31.605469 102.480469 Z M 31.605469 102.480469 "/>
</g>
</svg>
