<?xml version="1.0" encoding="UTF-8"?>
<svg xmlns="http://www.w3.org/2000/svg" xmlns:xlink="http://www.w3.org/1999/xlink" width="90px" height="130px" viewBox="0 0 90 130" version="1.1">
<g id="surface1">
<path style=" stroke:none;fill-rule:nonzero;fill:rgb(0%,0%,0%);fill-opacity:0.498039;" d="M 13.5 3.421875 L 79.714844 3.421875 C 85.414062 3.421875 90 8.304688 90 14.367188 L 90 119.050781 C 90 125.117188 85.414062 130 79.714844 130 L 13.5 130 C 7.800781 130 3.214844 125.117188 3.214844 119.050781 L 3.214844 14.367188 C 3.214844 8.304688 7.800781 3.421875 13.5 3.421875 Z M 13.5 3.421875 "/>
<path style=" stroke:none;fill-rule:nonzero;fill:rgb(90.588236%,90.588236%,90.588236%);fill-opacity:1;" d="M 10.929688 0.683594 L 77.144531 0.683594 C 82.839844 0.683594 87.429688 5.566406 87.429688 11.632812 L 87.429688 116.316406 C 87.429688 122.378906 82.839844 127.261719 77.144531 127.261719 L 10.929688 127.261719 C 5.230469 127.261719 0.644531 122.378906 0.644531 116.316406 L 0.644531 11.632812 C 0.644531 5.566406 5.230469 0.683594 10.929688 0.683594 Z M 10.929688 0.683594 "/>
<path style=" stroke:none;fill-rule:nonzero;fill:rgb(78.039217%,53.725493%,12.156863%);fill-opacity:1;" d="M 12.214844 2.050781 L 78.429688 2.050781 C 84.125 2.050781 88.714844 6.933594 88.714844 13 L 88.714844 117.683594 C 88.714844 123.75 84.125 128.632812 78.429688 128.632812 L 12.214844 128.632812 C 6.515625 128.632812 1.929688 123.75 1.929688 117.683594 L 1.929688 13 C 1.929688 6.933594 6.515625 2.050781 12.214844 2.050781 Z M 12.214844 2.050781 "/>
<path style=" stroke:none;fill-rule:nonzero;fill:rgb(100%,100%,100%);fill-opacity:1;" d="M 11.570312 1.367188 L 77.785156 1.367188 C 83.484375 1.367188 88.070312 6.25 88.070312 12.316406 L 88.070312 117 C 88.070312 123.066406 83.484375 127.949219 77.785156 127.949219 L 11.570312 127.949219 C 5.875 127.949219 1.285156 123.066406 1.285156 117 L 1.285156 12.316406 C 1.285156 6.25 5.875 1.367188 11.570312 1.367188 Z M 11.570312 1.367188 "/>
<path style=" stroke:none;fill-rule:nonzero;fill:rgb(100%,0%,0%);fill-opacity:1;" d="M 7.820312 28.445312 L 7.820312 24.652344 C 8.476562 25.046875 9.101562 25.34375 9.699219 25.546875 C 10.296875 25.738281 10.886719 25.832031 11.472656 25.832031 C 12.695312 25.832031 13.652344 25.398438 14.335938 24.527344 C 15.019531 23.648438 15.421875 22.347656 15.542969 20.625 C 15.058594 21.082031 14.542969 21.425781 13.992188 21.65625 C 13.445312 21.882812 12.851562 22 12.210938 22 C 10.578125 22 9.261719 21.386719 8.257812 20.167969 C 7.261719 18.941406 6.761719 17.328125 6.761719 15.332031 C 6.761719 13.121094 7.316406 11.351562 8.429688 10.023438 C 9.546875 8.695312 11.042969 8.03125 12.914062 8.03125 C 14.992188 8.03125 16.601562 8.933594 17.742188 10.738281 C 18.878906 12.542969 19.449219 15.097656 19.449219 18.394531 C 19.449219 21.789062 18.785156 24.453125 17.453125 26.398438 C 16.121094 28.332031 14.296875 29.296875 11.972656 29.296875 C 11.226562 29.296875 10.511719 29.226562 9.828125 29.078125 C 9.144531 28.941406 8.476562 28.730469 7.820312 28.445312 M 12.894531 18.5625 C 13.613281 18.5625 14.152344 18.261719 14.515625 17.667969 C 14.878906 17.0625 15.0625 16.160156 15.0625 14.960938 C 15.0625 13.765625 14.878906 12.871094 14.515625 12.265625 C 14.152344 11.660156 13.613281 11.355469 12.894531 11.355469 C 12.171875 11.355469 11.632812 11.660156 11.269531 12.265625 C 10.90625 12.871094 10.726562 13.765625 10.726562 14.960938 C 10.726562 16.160156 10.90625 17.0625 11.269531 17.667969 C 11.632812 18.261719 12.171875 18.5625 12.894531 18.5625 "/>
<path style=" stroke:none;fill-rule:nonzero;fill:rgb(100%,0%,0%);fill-opacity:1;" d="M 81.332031 100.984375 L 81.332031 104.777344 C 80.675781 104.382812 80.050781 104.085938 79.453125 103.882812 C 78.855469 103.691406 78.261719 103.59375 77.679688 103.59375 C 76.453125 103.59375 75.5 104.03125 74.816406 104.902344 C 74.132812 105.78125 73.730469 107.082031 73.609375 108.804688 C 74.09375 108.347656 74.609375 108.003906 75.160156 107.773438 C 75.707031 107.546875 76.300781 107.429688 76.941406 107.429688 C 78.574219 107.429688 79.890625 108.039062 80.894531 109.261719 C 81.890625 110.488281 82.390625 112.101562 82.390625 114.097656 C 82.390625 116.308594 81.832031 118.078125 80.722656 119.40625 C 79.605469 120.734375 78.109375 121.398438 76.238281 121.398438 C 74.160156 121.398438 72.550781 120.496094 71.410156 118.691406 C 70.269531 116.886719 69.703125 114.332031 69.703125 111.035156 C 69.703125 107.640625 70.367188 104.976562 71.699219 103.03125 C 73.03125 101.097656 74.855469 100.132812 77.175781 100.132812 C 77.925781 100.132812 78.640625 100.203125 79.324219 100.351562 C 80.007812 100.488281 80.675781 100.699219 81.332031 100.984375 M 76.257812 110.867188 C 75.539062 110.867188 75 111.167969 74.636719 111.761719 C 74.273438 112.367188 74.089844 113.269531 74.089844 114.46875 C 74.089844 115.660156 74.273438 116.558594 74.636719 117.164062 C 75 117.769531 75.539062 118.074219 76.257812 118.074219 C 76.976562 118.074219 77.519531 117.769531 77.882812 117.164062 C 78.246094 116.558594 78.425781 115.660156 78.425781 114.46875 C 78.425781 113.269531 78.246094 112.367188 77.882812 111.761719 C 77.519531 111.167969 76.976562 110.867188 76.257812 110.867188 "/>
<path style=" stroke:none;fill-rule:evenodd;fill:rgb(100%,0%,0%);fill-opacity:1;" d="M 13.121094 33.296875 C 10.46875 38.9375 8.535156 41.847656 4.546875 44.957031 C 8.320312 48.027344 10.980469 51.199219 13.199219 56.328125 C 15.175781 51.457031 17.597656 47.824219 21.804688 44.804688 C 17.574219 42.511719 15.125 38.882812 13.121094 33.296875 Z M 13.121094 33.296875 "/>
<path style=" stroke:none;fill-rule:evenodd;fill:rgb(100%,0%,0%);fill-opacity:1;" d="M 31.582031 24.78125 C 30.039062 28.097656 28.914062 29.808594 26.589844 31.632812 C 28.789062 33.4375 30.339844 35.300781 31.628906 38.316406 C 32.78125 35.453125 34.191406 33.316406 36.644531 31.542969 C 34.179688 30.195312 32.75 28.0625 31.582031 24.78125 Z M 31.582031 24.78125 "/>
<path style=" stroke:none;fill-rule:evenodd;fill:rgb(100%,0%,0%);fill-opacity:1;" d="M 57.941406 24.78125 C 56.394531 28.097656 55.269531 29.808594 52.945312 31.632812 C 55.144531 33.4375 56.695312 35.300781 57.984375 38.316406 C 59.140625 35.453125 60.550781 33.316406 63 31.542969 C 60.535156 30.195312 59.109375 28.0625 57.941406 24.78125 Z M 57.941406 24.78125 "/>
<path style=" stroke:none;fill-rule:evenodd;fill:rgb(100%,0%,0%);fill-opacity:1;" d="M 31.351562 48.730469 C 29.808594 52.042969 28.679688 53.753906 26.355469 55.582031 C 28.554688 57.382812 30.105469 59.25 31.398438 62.261719 C 32.550781 59.398438 33.960938 57.265625 36.410156 55.492188 C 33.945312 54.144531 32.519531 52.011719 31.351562 48.730469 Z M 31.351562 48.730469 "/>
<path style=" stroke:none;fill-rule:evenodd;fill:rgb(100%,0%,0%);fill-opacity:1;" d="M 56.65625 48.046875 C 55.109375 51.359375 53.984375 53.070312 51.660156 54.894531 C 53.859375 56.699219 55.410156 58.566406 56.699219 61.578125 C 57.851562 58.714844 59.265625 56.582031 61.714844 54.808594 C 59.25 53.460938 57.824219 51.328125 56.65625 48.046875 Z M 56.65625 48.046875 "/>
<path style=" stroke:none;fill-rule:evenodd;fill:rgb(100%,0%,0%);fill-opacity:1;" d="M 57.710938 68.421875 C 56.164062 71.734375 55.039062 73.445312 52.714844 75.273438 C 54.914062 77.078125 56.464844 78.941406 57.753906 81.953125 C 58.90625 79.089844 60.316406 76.957031 62.769531 75.183594 C 60.304688 73.835938 58.875 71.703125 57.710938 68.421875 Z M 57.710938 68.421875 "/>
<path style=" stroke:none;fill-rule:evenodd;fill:rgb(100%,0%,0%);fill-opacity:1;" d="M 30.941406 68.421875 C 29.394531 71.734375 28.269531 73.445312 25.945312 75.273438 C 28.144531 77.078125 29.695312 78.941406 30.984375 81.953125 C 32.140625 79.089844 33.550781 76.957031 36 75.183594 C 33.535156 73.835938 32.109375 71.703125 30.941406 68.421875 Z M 30.941406 68.421875 "/>
<path style=" stroke:none;fill-rule:evenodd;fill:rgb(100%,0%,0%);fill-opacity:1;" d="M 31.582031 88.949219 C 30.039062 92.261719 28.914062 93.972656 26.589844 95.796875 C 28.789062 97.601562 30.339844 99.46875 31.628906 102.480469 C 32.78125 99.617188 34.191406 97.484375 36.644531 95.707031 C 34.179688 94.363281 32.75 92.230469 31.582031 88.949219 Z M 31.582031 88.949219 "/>
<path style=" stroke:none;fill-rule:evenodd;fill:rgb(100%,0%,0%);fill-opacity:1;" d="M 44.441406 58.308594 C 42.894531 61.625 41.769531 63.332031 39.445312 65.160156 C 41.644531 66.964844 43.195312 68.828125 44.484375 71.84375 C 45.640625 68.980469 47.050781 66.84375 49.5 65.070312 C 47.035156 63.722656 45.609375 61.589844 44.441406 58.308594 Z M 44.441406 58.308594 "/>
<path style=" stroke:none;fill-rule:evenodd;fill:rgb(100%,0%,0%);fill-opacity:1;" d="M 57.941406 89.097656 C 56.394531 92.414062 55.269531 94.121094 52.945312 95.949219 C 55.144531 97.753906 56.695312 99.617188 57.984375 102.632812 C 59.140625 99.769531 60.550781 97.632812 63 95.859375 C 60.535156 94.511719 59.109375 92.378906 57.941406 89.097656 Z M 57.941406 89.097656 "/>
<path style=" stroke:none;fill-rule:evenodd;fill:rgb(100%,0%,0%);fill-opacity:1;" d="M 76.074219 72.757812 C 73.421875 78.402344 71.488281 81.308594 67.5 84.417969 C 71.273438 87.488281 73.9375 90.660156 76.152344 95.789062 C 78.132812 90.917969 80.554688 87.285156 84.761719 84.265625 C 80.53125 81.972656 78.078125 78.34375 76.074219 72.757812 Z M 76.074219 72.757812 "/>
</g>
</svg>
