<?xml version="1.0" encoding="UTF-8"?>
<svg xmlns="http://www.w3.org/2000/svg" xmlns:xlink="http://www.w3.org/1999/xlink" width="90px" height="130px" viewBox="0 0 90 130" version="1.1">
<g id="surface1">
<path style=" stroke:none;fill-rule:nonzero;fill:rgb(0%,0%,0%);fill-opacity:0.498039;" d="M 13.5 3.421875 L 79.714844 3.421875 C 85.414062 3.421875 90 8.304688 90 14.367188 L 90 119.050781 C 90 125.117188 85.414062 130 79.714844 130 L 13.5 130 C 7.800781 130 3.214844 125.117188 3.214844 119.050781 L 3.214844 14.367188 C 3.214844 8.304688 7.800781 3.421875 13.5 3.421875 Z M 13.5 3.421875 "/>
<path style=" stroke:none;fill-rule:nonzero;fill:rgb(90.588236%,90.588236%,90.588236%);fill-opacity:1;" d="M 10.929688 0.683594 L 77.144531 0.683594 C 82.839844 0.683594 87.429688 5.566406 87.429688 11.632812 L 87.429688 116.316406 C 87.429688 122.378906 82.839844 127.261719 77.144531 127.261719 L 10.929688 127.261719 C 5.230469 127.261719 0.644531 122.378906 0.644531 116.316406 L 0.644531 11.632812 C 0.644531 5.566406 5.230469 0.683594 10.929688 0.683594 Z M 10.929688 0.683594 "/>
<path style=" stroke:none;fill-rule:nonzero;fill:rgb(78.039217%,53.725493%,12.156863%);fill-opacity:1;" d="M 12.214844 2.050781 L 78.429688 2.050781 C 84.125 2.050781 88.714844 6.933594 88.714844 13 L 88.714844 117.683594 C 88.714844 123.75 84.125 128.632812 78.429688 128.632812 L 12.214844 128.632812 C 6.515625 128.632812 1.929688 123.75 1.929688 117.683594 L 1.929688 13 C 1.929688 6.933594 6.515625 2.050781 12.214844 2.050781 Z M 12.214844 2.050781 "/>
<path style=" stroke:none;fill-rule:nonzero;fill:rgb(100%,100%,100%);fill-opacity:1;" d="M 11.570312 1.367188 L 77.785156 1.367188 C 83.484375 1.367188 88.070312 6.25 88.070312 12.316406 L 88.070312 117 C 88.070312 123.066406 83.484375 127.949219 77.785156 127.949219 L 11.570312 127.949219 C 5.875 127.949219 1.285156 123.066406 1.285156 117 L 1.285156 12.316406 C 1.285156 6.25 5.875 1.367188 11.570312 1.367188 Z M 11.570312 1.367188 "/>
<path style=" stroke:none;fill-rule:nonzero;fill:rgb(100%,0%,0%);fill-opacity:1;" d="M 13.246094 19.714844 C 12.476562 19.714844 11.886719 19.984375 11.472656 20.527344 C 11.058594 21.066406 10.851562 21.84375 10.851562 22.851562 C 10.851562 23.859375 11.058594 24.632812 11.472656 25.175781 C 11.886719 25.707031 12.476562 25.972656 13.246094 25.972656 C 14.007812 25.972656 14.589844 25.707031 14.996094 25.175781 C 15.402344 24.632812 15.605469 23.859375 15.605469 22.851562 C 15.605469 21.832031 15.402344 21.058594 14.996094 20.527344 C 14.589844 19.984375 14.007812 19.714844 13.246094 19.714844 M 10.246094 17.96875 C 9.277344 17.59375 8.546875 17.015625 8.054688 16.238281 C 7.5625 15.457031 7.316406 14.488281 7.316406 13.324219 C 7.316406 11.589844 7.820312 10.269531 8.824219 9.363281 C 9.828125 8.457031 11.300781 8.003906 13.246094 8.003906 C 15.175781 8.003906 16.640625 8.457031 17.644531 9.363281 C 18.648438 10.261719 19.152344 11.582031 19.152344 13.324219 C 19.152344 14.488281 18.902344 15.457031 18.402344 16.238281 C 17.914062 17.015625 17.183594 17.59375 16.214844 17.96875 C 17.296875 18.355469 18.113281 18.984375 18.660156 19.851562 C 19.214844 20.714844 19.492188 21.804688 19.492188 23.125 C 19.492188 25.160156 18.964844 26.699219 17.914062 27.746094 C 16.867188 28.78125 15.308594 29.296875 13.246094 29.296875 C 11.171875 29.296875 9.605469 28.78125 8.546875 27.746094 C 7.492188 26.699219 6.964844 25.160156 6.964844 23.125 C 6.964844 21.804688 7.238281 20.714844 7.789062 19.851562 C 8.34375 18.984375 9.160156 18.355469 10.246094 17.96875 M 11.207031 13.859375 C 11.207031 14.675781 11.378906 15.304688 11.730469 15.742188 C 12.085938 16.183594 12.589844 16.402344 13.246094 16.402344 C 13.886719 16.402344 14.378906 16.183594 14.730469 15.742188 C 15.078125 15.304688 15.253906 14.675781 15.253906 13.859375 C 15.253906 13.042969 15.078125 12.421875 14.730469 11.988281 C 14.378906 11.550781 13.886719 11.328125 13.246094 11.328125 C 12.589844 11.328125 12.085938 11.550781 11.730469 11.988281 C 11.378906 12.429688 11.207031 13.050781 11.207031 13.859375 "/>
<path style=" stroke:none;fill-rule:nonzero;fill:rgb(100%,0%,0%);fill-opacity:1;" d="M 75.875 109.714844 C 76.644531 109.714844 77.234375 109.441406 77.648438 108.902344 C 78.058594 108.363281 78.265625 107.585938 78.265625 106.578125 C 78.265625 105.570312 78.058594 104.796875 77.648438 104.253906 C 77.234375 103.722656 76.644531 103.457031 75.875 103.457031 C 75.113281 103.457031 74.527344 103.722656 74.121094 104.253906 C 73.714844 104.796875 73.515625 105.570312 73.515625 106.578125 C 73.515625 107.597656 73.714844 108.371094 74.121094 108.902344 C 74.527344 109.441406 75.113281 109.714844 75.875 109.714844 M 78.875 111.460938 C 79.84375 111.835938 80.574219 112.414062 81.066406 113.191406 C 81.554688 113.972656 81.800781 114.941406 81.800781 116.105469 C 81.800781 117.839844 81.300781 119.160156 80.296875 120.066406 C 79.292969 120.972656 77.816406 121.425781 75.875 121.425781 C 73.945312 121.425781 72.476562 120.972656 71.472656 120.066406 C 70.46875 119.167969 69.96875 117.847656 69.96875 116.105469 C 69.96875 114.941406 70.21875 113.972656 70.714844 113.191406 C 71.207031 112.414062 71.9375 111.835938 72.90625 111.460938 C 71.824219 111.074219 71.007812 110.445312 70.460938 109.574219 C 69.902344 108.714844 69.625 107.625 69.625 106.304688 C 69.625 104.269531 70.152344 102.730469 71.207031 101.683594 C 72.253906 100.648438 73.808594 100.128906 75.875 100.128906 C 77.945312 100.128906 79.511719 100.648438 80.574219 101.683594 C 81.628906 102.730469 82.152344 104.269531 82.152344 106.304688 C 82.152344 107.625 81.878906 108.714844 81.332031 109.574219 C 80.777344 110.445312 79.957031 111.074219 78.875 111.460938 M 77.914062 115.570312 C 77.914062 114.753906 77.738281 114.125 77.390625 113.6875 C 77.035156 113.246094 76.527344 113.027344 75.875 113.027344 C 75.234375 113.027344 74.738281 113.246094 74.390625 113.6875 C 74.039062 114.125 73.867188 114.753906 73.867188 115.570312 C 73.867188 116.386719 74.039062 117.007812 74.390625 117.441406 C 74.738281 117.878906 75.234375 118.101562 75.875 118.101562 C 76.527344 118.101562 77.035156 117.878906 77.390625 117.441406 C 77.738281 117 77.914062 116.375 77.914062 115.570312 "/>
<path style=" stroke:none;fill-rule:evenodd;fill:rgb(100%,0%,0%);fill-opacity:1;" d="M 13.121094 33.296875 C 10.46875 38.9375 8.535156 41.847656 4.546875 44.957031 C 8.320312 48.027344 10.980469 51.199219 13.199219 56.328125 C 15.175781 51.457031 17.597656 47.824219 21.804688 44.804688 C 17.574219 42.511719 15.125 38.882812 13.121094 33.296875 Z M 13.121094 33.296875 "/>
<path style=" stroke:none;fill-rule:evenodd;fill:rgb(100%,0%,0%);fill-opacity:1;" d="M 31.582031 24.78125 C 30.039062 28.097656 28.914062 29.808594 26.589844 31.632812 C 28.789062 33.4375 30.339844 35.300781 31.628906 38.316406 C 32.78125 35.453125 34.191406 33.316406 36.644531 31.542969 C 34.179688 30.195312 32.75 28.0625 31.582031 24.78125 Z M 31.582031 24.78125 "/>
<path style=" stroke:none;fill-rule:evenodd;fill:rgb(100%,0%,0%);fill-opacity:1;" d="M 57.941406 24.78125 C 56.394531 28.097656 55.269531 29.808594 52.945312 31.632812 C 55.144531 33.4375 56.695312 35.300781 57.984375 38.316406 C 59.140625 35.453125 60.550781 33.316406 63 31.542969 C 60.535156 30.195312 59.109375 28.0625 57.941406 24.78125 Z M 57.941406 24.78125 "/>
<path style=" stroke:none;fill-rule:evenodd;fill:rgb(100%,0%,0%);fill-opacity:1;" d="M 31.351562 48.730469 C 29.808594 52.042969 28.679688 53.753906 26.355469 55.582031 C 28.554688 57.382812 30.105469 59.25 31.398438 62.261719 C 32.550781 59.398438 33.960938 57.265625 36.410156 55.492188 C 33.945312 54.144531 32.519531 52.011719 31.351562 48.730469 Z M 31.351562 48.730469 "/>
<path style=" stroke:none;fill-rule:evenodd;fill:rgb(100%,0%,0%);fill-opacity:1;" d="M 56.65625 48.046875 C 55.109375 51.359375 53.984375 53.070312 51.660156 54.894531 C 53.859375 56.699219 55.410156 58.566406 56.699219 61.578125 C 57.851562 58.714844 59.265625 56.582031 61.714844 54.808594 C 59.25 53.460938 57.824219 51.328125 56.65625 48.046875 Z M 56.65625 48.046875 "/>
<path style=" stroke:none;fill-rule:evenodd;fill:rgb(100%,0%,0%);fill-opacity:1;" d="M 57.710938 68.421875 C 56.164062 71.734375 55.039062 73.445312 52.714844 75.273438 C 54.914062 77.078125 56.464844 78.941406 57.753906 81.953125 C 58.90625 79.089844 60.316406 76.957031 62.769531 75.183594 C 60.304688 73.835938 58.875 71.703125 57.710938 68.421875 Z M 57.710938 68.421875 "/>
<path style=" stroke:none;fill-rule:evenodd;fill:rgb(100%,0%,0%);fill-opacity:1;" d="M 30.941406 68.421875 C 29.394531 71.734375 28.269531 73.445312 25.945312 75.273438 C 28.144531 77.078125 29.695312 78.941406 30.984375 81.953125 C 32.140625 79.089844 33.550781 76.957031 36 75.183594 C 33.535156 73.835938 32.109375 71.703125 30.941406 68.421875 Z M 30.941406 68.421875 "/>
<path style=" stroke:none;fill-rule:evenodd;fill:rgb(100%,0%,0%);fill-opacity:1;" d="M 31.582031 88.949219 C 30.039062 92.261719 28.914062 93.972656 26.589844 95.796875 C 28.789062 97.601562 30.339844 99.46875 31.628906 102.480469 C 32.78125 99.617188 34.191406 97.484375 36.644531 95.707031 C 34.179688 94.363281 32.75 92.230469 31.582031 88.949219 Z M 31.582031 88.949219 "/>
<path style=" stroke:none;fill-rule:evenodd;fill:rgb(100%,0%,0%);fill-opacity:1;" d="M 57.941406 89.097656 C 56.394531 92.414062 55.269531 94.121094 52.945312 95.949219 C 55.144531 97.753906 56.695312 99.617188 57.984375 102.632812 C 59.140625 99.769531 60.550781 97.632812 63 95.859375 C 60.535156 94.511719 59.109375 92.378906 57.941406 89.097656 Z M 57.941406 89.097656 "/>
<path style=" stroke:none;fill-rule:evenodd;fill:rgb(100%,0%,0%);fill-opacity:1;" d="M 76.074219 72.757812 C 73.421875 78.402344 71.488281 81.308594 67.5 84.417969 C 71.273438 87.488281 73.9375 90.660156 76.152344 95.789062 C 78.132812 90.917969 80.554688 87.285156 84.761719 84.265625 C 80.53125 81.972656 78.078125 78.34375 76.074219 72.757812 Z M 76.074219 72.757812 "/>
</g>
</svg>
