<?xml version="1.0" encoding="UTF-8"?>
<svg xmlns="http://www.w3.org/2000/svg" xmlns:xlink="http://www.w3.org/1999/xlink" width="90px" height="130px" viewBox="0 0 90 130" version="1.1">
<g id="surface1">
<path style=" stroke:none;fill-rule:nonzero;fill:rgb(0%,0%,0%);fill-opacity:0.498039;" d="M 13.5 3.421875 L 79.714844 3.421875 C 85.414062 3.421875 90 8.304688 90 14.367188 L 90 119.050781 C 90 125.117188 85.414062 130 79.714844 130 L 13.5 130 C 7.800781 130 3.214844 125.117188 3.214844 119.050781 L 3.214844 14.367188 C 3.214844 8.304688 7.800781 3.421875 13.5 3.421875 Z M 13.5 3.421875 "/>
<path style=" stroke:none;fill-rule:nonzero;fill:rgb(90.588236%,90.588236%,90.588236%);fill-opacity:1;" d="M 10.929688 0.683594 L 77.144531 0.683594 C 82.839844 0.683594 87.429688 5.566406 87.429688 11.632812 L 87.429688 116.316406 C 87.429688 122.378906 82.839844 127.261719 77.144531 127.261719 L 10.929688 127.261719 C 5.230469 127.261719 0.644531 122.378906 0.644531 116.316406 L 0.644531 11.632812 C 0.644531 5.566406 5.230469 0.683594 10.929688 0.683594 Z M 10.929688 0.683594 "/>
<path style=" stroke:none;fill-rule:nonzero;fill:rgb(78.039217%,53.725493%,12.156863%);fill-opacity:1;" d="M 12.214844 2.050781 L 78.429688 2.050781 C 84.125 2.050781 88.714844 6.933594 88.714844 13 L 88.714844 117.683594 C 88.714844 123.75 84.125 128.632812 78.429688 128.632812 L 12.214844 128.632812 C 6.515625 128.632812 1.929688 123.75 1.929688 117.683594 L 1.929688 13 C 1.929688 6.933594 6.515625 2.050781 12.214844 2.050781 Z M 12.214844 2.050781 "/>
<path style=" stroke:none;fill-rule:nonzero;fill:rgb(100%,100%,100%);fill-opacity:1;" d="M 11.570312 1.367188 L 77.785156 1.367188 C 83.484375 1.367188 88.070312 6.25 88.070312 12.316406 L 88.070312 117 C 88.070312 123.066406 83.484375 127.949219 77.785156 127.949219 L 11.570312 127.949219 C 5.875 127.949219 1.285156 123.066406 1.285156 117 L 1.285156 12.316406 C 1.285156 6.25 5.875 1.367188 11.570312 1.367188 Z M 11.570312 1.367188 "/>
<path style=" stroke:none;fill-rule:nonzero;fill:rgb(100%,0%,0%);fill-opacity:1;" d="M 15.972656 17.667969 C 17.046875 18.027344 17.863281 18.648438 18.417969 19.539062 C 18.980469 20.417969 19.261719 21.539062 19.261719 22.90625 C 19.261719 24.941406 18.65625 26.488281 17.449219 27.554688 C 16.238281 28.605469 14.472656 29.132812 12.148438 29.132812 C 11.332031 29.132812 10.507812 29.046875 9.683594 28.871094 C 8.863281 28.707031 8.050781 28.457031 7.246094 28.117188 L 7.246094 24.035156 C 8.015625 24.527344 8.777344 24.902344 9.535156 25.160156 C 10.296875 25.410156 11.042969 25.53125 11.777344 25.53125 C 12.867188 25.53125 13.699219 25.289062 14.273438 24.804688 C 14.859375 24.316406 15.152344 23.621094 15.152344 22.714844 C 15.152344 21.777344 14.851562 21.074219 14.253906 20.597656 C 13.664062 20.109375 12.789062 19.867188 11.625 19.867188 L 9.980469 19.867188 L 9.980469 16.457031 L 11.710938 16.457031 C 12.746094 16.457031 13.511719 16.253906 14.019531 15.839844 C 14.523438 15.417969 14.777344 14.78125 14.777344 13.929688 C 14.777344 13.140625 14.53125 12.53125 14.039062 12.101562 C 13.550781 11.667969 12.855469 11.453125 11.957031 11.453125 C 11.296875 11.453125 10.625 11.550781 9.949219 11.742188 C 9.273438 11.933594 8.601562 12.21875 7.929688 12.59375 L 7.929688 8.71875 C 8.742188 8.425781 9.546875 8.203125 10.34375 8.058594 C 11.140625 7.910156 11.925781 7.839844 12.695312 7.839844 C 14.765625 7.839844 16.316406 8.277344 17.339844 9.15625 C 18.371094 10.027344 18.890625 11.34375 18.890625 13.105469 C 18.890625 14.304688 18.644531 15.289062 18.152344 16.058594 C 17.660156 16.820312 16.933594 17.355469 15.972656 17.667969 "/>
<path style=" stroke:none;fill-rule:evenodd;fill:rgb(100%,0%,0%);fill-opacity:1;" d="M 8.710938 33.421875 C 8.195312 33.425781 7.628906 33.558594 7 33.859375 C 0.160156 39.472656 9.382812 48.519531 13.277344 56.289062 L 13.390625 56.328125 C 17.671875 47.835938 25.820312 38.492188 19.59375 33.859375 C 14.660156 31.492188 13.34375 39.375 13.296875 39.65625 C 13.257812 39.410156 12.25 33.394531 8.710938 33.421875 Z M 8.710938 33.421875 "/>
<path style=" stroke:none;fill-rule:nonzero;fill:rgb(100%,0%,0%);fill-opacity:1;" d="M 73.296875 111.648438 C 72.222656 111.289062 71.40625 110.667969 70.851562 109.777344 C 70.289062 108.898438 70.007812 107.773438 70.007812 106.410156 C 70.007812 104.375 70.613281 102.824219 71.824219 101.761719 C 73.035156 100.707031 74.800781 100.183594 77.121094 100.183594 C 77.9375 100.183594 78.761719 100.269531 79.585938 100.441406 C 80.40625 100.609375 81.21875 100.859375 82.023438 101.199219 L 82.023438 105.28125 C 81.253906 104.789062 80.492188 104.410156 79.738281 104.15625 C 78.976562 103.90625 78.226562 103.785156 77.496094 103.785156 C 76.40625 103.785156 75.570312 104.027344 74.996094 104.511719 C 74.410156 105 74.121094 105.695312 74.121094 106.601562 C 74.121094 107.535156 74.417969 108.242188 75.015625 108.71875 C 75.609375 109.207031 76.484375 109.449219 77.644531 109.449219 L 79.289062 109.449219 L 79.289062 112.859375 L 77.558594 112.859375 C 76.527344 112.859375 75.757812 113.0625 75.25 113.476562 C 74.746094 113.898438 74.492188 114.535156 74.492188 115.386719 C 74.492188 116.175781 74.738281 116.785156 75.230469 117.214844 C 75.722656 117.648438 76.414062 117.863281 77.3125 117.863281 C 77.976562 117.863281 78.644531 117.765625 79.320312 117.574219 C 79.996094 117.378906 80.671875 117.097656 81.339844 116.722656 L 81.339844 120.597656 C 80.527344 120.890625 79.722656 121.109375 78.925781 121.257812 C 78.128906 121.40625 77.34375 121.476562 76.574219 121.476562 C 74.503906 121.476562 72.957031 121.039062 71.929688 120.15625 C 70.898438 119.289062 70.382812 117.972656 70.382812 116.210938 C 70.382812 115.011719 70.628906 114.027344 71.117188 113.257812 C 71.609375 112.496094 72.335938 111.960938 73.296875 111.648438 "/>
<path style=" stroke:none;fill-rule:evenodd;fill:rgb(100%,0%,0%);fill-opacity:1;" d="M 80.554688 95.785156 C 81.074219 95.78125 81.640625 95.648438 82.265625 95.347656 C 89.109375 89.734375 79.886719 80.6875 75.992188 72.917969 L 75.878906 72.878906 C 71.597656 81.371094 63.449219 90.714844 69.675781 95.347656 C 74.609375 97.714844 75.925781 89.832031 75.972656 89.550781 C 76.011719 89.796875 77.019531 95.8125 80.554688 95.785156 Z M 80.554688 95.785156 "/>
<path style=" stroke:none;fill-rule:evenodd;fill:rgb(100%,0%,0%);fill-opacity:1;" d="M 42.277344 30.941406 C 41.976562 30.945312 41.648438 31.023438 41.285156 31.203125 C 37.308594 34.515625 42.667969 39.859375 44.929688 44.449219 L 44.996094 44.472656 C 47.480469 39.457031 52.214844 33.9375 48.597656 31.203125 C 45.734375 29.804688 44.96875 34.457031 44.941406 34.625 C 44.917969 34.480469 44.332031 30.925781 42.277344 30.941406 Z M 42.277344 30.941406 "/>
<path style=" stroke:none;fill-rule:evenodd;fill:rgb(100%,0%,0%);fill-opacity:1;" d="M 42.507812 59.527344 C 42.207031 59.53125 41.878906 59.609375 41.515625 59.789062 C 37.539062 63.101562 42.898438 68.445312 45.160156 73.035156 L 45.226562 73.058594 C 47.710938 68.042969 52.445312 62.523438 48.828125 59.789062 C 45.964844 58.390625 45.199219 63.046875 45.171875 63.210938 C 45.148438 63.066406 44.5625 59.511719 42.507812 59.527344 Z M 42.507812 59.527344 "/>
<path style=" stroke:none;fill-rule:evenodd;fill:rgb(100%,0%,0%);fill-opacity:1;" d="M 47.082031 97.691406 C 47.378906 97.6875 47.710938 97.609375 48.074219 97.429688 C 52.046875 94.117188 46.691406 88.769531 44.429688 84.179688 L 44.363281 84.15625 C 41.875 89.175781 37.144531 94.695312 40.757812 97.429688 C 43.625 98.828125 44.390625 94.171875 44.417969 94.003906 C 44.441406 94.152344 45.023438 97.703125 47.082031 97.691406 Z M 47.082031 97.691406 "/>
</g>
</svg>
