<?xml version="1.0" encoding="UTF-8"?>
<svg xmlns="http://www.w3.org/2000/svg" xmlns:xlink="http://www.w3.org/1999/xlink" width="90px" height="130px" viewBox="0 0 90 130" version="1.1">
<g id="surface1">
<path style=" stroke:none;fill-rule:nonzero;fill:rgb(0%,0%,0%);fill-opacity:0.498039;" d="M 13.5 3.421875 L 79.714844 3.421875 C 85.414062 3.421875 90 8.304688 90 14.367188 L 90 119.050781 C 90 125.117188 85.414062 130 79.714844 130 L 13.5 130 C 7.800781 130 3.214844 125.117188 3.214844 119.050781 L 3.214844 14.367188 C 3.214844 8.304688 7.800781 3.421875 13.5 3.421875 Z M 13.5 3.421875 "/>
<path style=" stroke:none;fill-rule:nonzero;fill:rgb(90.588236%,90.588236%,90.588236%);fill-opacity:1;" d="M 10.929688 0.683594 L 77.144531 0.683594 C 82.839844 0.683594 87.429688 5.566406 87.429688 11.632812 L 87.429688 116.316406 C 87.429688 122.378906 82.839844 127.261719 77.144531 127.261719 L 10.929688 127.261719 C 5.230469 127.261719 0.644531 122.378906 0.644531 116.316406 L 0.644531 11.632812 C 0.644531 5.566406 5.230469 0.683594 10.929688 0.683594 Z M 10.929688 0.683594 "/>
<path style=" stroke:none;fill-rule:nonzero;fill:rgb(78.039217%,53.725493%,12.156863%);fill-opacity:1;" d="M 12.214844 2.050781 L 78.429688 2.050781 C 84.125 2.050781 88.714844 6.933594 88.714844 13 L 88.714844 117.683594 C 88.714844 123.75 84.125 128.632812 78.429688 128.632812 L 12.214844 128.632812 C 6.515625 128.632812 1.929688 123.75 1.929688 117.683594 L 1.929688 13 C 1.929688 6.933594 6.515625 2.050781 12.214844 2.050781 Z M 12.214844 2.050781 "/>
<path style=" stroke:none;fill-rule:nonzero;fill:rgb(100%,100%,100%);fill-opacity:1;" d="M 11.570312 1.367188 L 77.785156 1.367188 C 83.484375 1.367188 88.070312 6.25 88.070312 12.316406 L 88.070312 117 C 88.070312 123.066406 83.484375 127.949219 77.785156 127.949219 L 11.570312 127.949219 C 5.875 127.949219 1.285156 123.066406 1.285156 117 L 1.285156 12.316406 C 1.285156 6.25 5.875 1.367188 11.570312 1.367188 Z M 11.570312 1.367188 "/>
<path style=" stroke:none;fill-rule:nonzero;fill:rgb(100%,0%,0%);fill-opacity:1;" d="M 7.246094 8.210938 L 19.261719 8.210938 L 19.261719 11.191406 L 13.046875 28.734375 L 9.042969 28.734375 L 14.925781 12.101562 L 7.246094 12.101562 L 7.246094 8.210938 "/>
<path style=" stroke:none;fill-rule:nonzero;fill:rgb(100%,0%,0%);fill-opacity:1;" d="M 81.960938 121.105469 L 69.945312 121.105469 L 69.945312 118.121094 L 76.164062 100.578125 L 80.167969 100.578125 L 74.28125 117.214844 L 81.960938 117.214844 L 81.960938 121.105469 "/>
<path style=" stroke:none;fill-rule:evenodd;fill:rgb(100%,0%,0%);fill-opacity:1;" d="M 13.121094 33.296875 C 10.46875 38.9375 8.535156 41.847656 4.546875 44.957031 C 8.320312 48.027344 10.980469 51.199219 13.199219 56.328125 C 15.175781 51.457031 17.597656 47.824219 21.804688 44.804688 C 17.574219 42.511719 15.125 38.882812 13.121094 33.296875 Z M 13.121094 33.296875 "/>
<path style=" stroke:none;fill-rule:evenodd;fill:rgb(100%,0%,0%);fill-opacity:1;" d="M 32.871094 30.789062 C 31.324219 34.105469 30.199219 35.816406 27.875 37.640625 C 30.074219 39.445312 31.625 41.308594 32.914062 44.324219 C 34.066406 41.460938 35.476562 39.324219 37.929688 37.550781 C 35.464844 36.203125 34.035156 34.070312 32.871094 30.789062 Z M 32.871094 30.789062 "/>
<path style=" stroke:none;fill-rule:evenodd;fill:rgb(100%,0%,0%);fill-opacity:1;" d="M 56.421875 30.941406 C 54.878906 34.253906 53.753906 35.964844 51.429688 37.792969 C 53.628906 39.59375 55.179688 41.460938 56.46875 44.472656 C 57.621094 41.609375 59.03125 39.476562 61.484375 37.703125 C 59.019531 36.355469 57.589844 34.222656 56.421875 30.941406 Z M 56.421875 30.941406 "/>
<path style=" stroke:none;fill-rule:evenodd;fill:rgb(100%,0%,0%);fill-opacity:1;" d="M 45.082031 41.203125 C 43.539062 44.519531 42.414062 46.226562 40.089844 48.054688 C 42.289062 49.859375 43.839844 51.722656 45.128906 54.738281 C 46.28125 51.875 47.691406 49.738281 50.144531 47.964844 C 47.679688 46.617188 46.25 44.484375 45.082031 41.203125 Z M 45.082031 41.203125 "/>
<path style=" stroke:none;fill-rule:evenodd;fill:rgb(100%,0%,0%);fill-opacity:1;" d="M 45.082031 56.941406 C 43.539062 60.253906 42.414062 61.964844 40.089844 63.792969 C 42.289062 65.59375 43.839844 67.460938 45.128906 70.472656 C 46.28125 67.609375 47.691406 65.476562 50.144531 63.703125 C 47.679688 62.355469 46.25 60.222656 45.082031 56.941406 Z M 45.082031 56.941406 "/>
<path style=" stroke:none;fill-rule:evenodd;fill:rgb(100%,0%,0%);fill-opacity:1;" d="M 33.921875 83.625 C 32.378906 86.941406 31.253906 88.648438 28.929688 90.476562 C 31.128906 92.28125 32.679688 94.144531 33.96875 97.15625 C 35.121094 94.292969 36.53125 92.160156 38.984375 90.386719 C 36.519531 89.039062 35.089844 86.90625 33.921875 83.625 Z M 33.921875 83.625 "/>
<path style=" stroke:none;fill-rule:evenodd;fill:rgb(100%,0%,0%);fill-opacity:1;" d="M 45.082031 73.359375 C 43.539062 76.675781 42.414062 78.386719 40.089844 80.210938 C 42.289062 82.015625 43.839844 83.878906 45.128906 86.894531 C 46.28125 84.03125 47.691406 81.898438 50.144531 80.121094 C 47.679688 78.777344 46.25 76.644531 45.082031 73.359375 Z M 45.082031 73.359375 "/>
<path style=" stroke:none;fill-rule:evenodd;fill:rgb(100%,0%,0%);fill-opacity:1;" d="M 56.65625 83.625 C 55.109375 86.941406 53.984375 88.648438 51.660156 90.476562 C 53.859375 92.28125 55.410156 94.144531 56.699219 97.15625 C 57.851562 94.292969 59.265625 92.160156 61.714844 90.386719 C 59.25 89.039062 57.824219 86.90625 56.65625 83.625 Z M 56.65625 83.625 "/>
<path style=" stroke:none;fill-rule:evenodd;fill:rgb(100%,0%,0%);fill-opacity:1;" d="M 76.074219 72.757812 C 73.421875 78.402344 71.488281 81.308594 67.5 84.417969 C 71.273438 87.488281 73.9375 90.660156 76.152344 95.789062 C 78.132812 90.917969 80.554688 87.285156 84.761719 84.265625 C 80.53125 81.972656 78.078125 78.34375 76.074219 72.757812 Z M 76.074219 72.757812 "/>
</g>
</svg>
