<?xml version="1.0" encoding="UTF-8"?>
<svg xmlns="http://www.w3.org/2000/svg" xmlns:xlink="http://www.w3.org/1999/xlink" width="90px" height="130px" viewBox="0 0 90 130" version="1.1">
<g id="surface1">
<path style=" stroke:none;fill-rule:nonzero;fill:rgb(0%,0%,0%);fill-opacity:0.498039;" d="M 13.5 3.421875 L 79.714844 3.421875 C 85.414062 3.421875 90 8.304688 90 14.367188 L 90 119.050781 C 90 125.117188 85.414062 130 79.714844 130 L 13.5 130 C 7.800781 130 3.214844 125.117188 3.214844 119.050781 L 3.214844 14.367188 C 3.214844 8.304688 7.800781 3.421875 13.5 3.421875 Z M 13.5 3.421875 "/>
<path style=" stroke:none;fill-rule:nonzero;fill:rgb(90.588236%,90.588236%,90.588236%);fill-opacity:1;" d="M 10.929688 0.683594 L 77.144531 0.683594 C 82.839844 0.683594 87.429688 5.566406 87.429688 11.632812 L 87.429688 116.316406 C 87.429688 122.378906 82.839844 127.261719 77.144531 127.261719 L 10.929688 127.261719 C 5.230469 127.261719 0.644531 122.378906 0.644531 116.316406 L 0.644531 11.632812 C 0.644531 5.566406 5.230469 0.683594 10.929688 0.683594 Z M 10.929688 0.683594 "/>
<path style=" stroke:none;fill-rule:nonzero;fill:rgb(78.039217%,53.725493%,12.156863%);fill-opacity:1;" d="M 12.214844 2.050781 L 78.429688 2.050781 C 84.125 2.050781 88.714844 6.933594 88.714844 13 L 88.714844 117.683594 C 88.714844 123.75 84.125 128.632812 78.429688 128.632812 L 12.214844 128.632812 C 6.515625 128.632812 1.929688 123.75 1.929688 117.683594 L 1.929688 13 C 1.929688 6.933594 6.515625 2.050781 12.214844 2.050781 Z M 12.214844 2.050781 "/>
<path style=" stroke:none;fill-rule:nonzero;fill:rgb(100%,100%,100%);fill-opacity:1;" d="M 11.570312 1.367188 L 77.785156 1.367188 C 83.484375 1.367188 88.070312 6.25 88.070312 12.316406 L 88.070312 117 C 88.070312 123.066406 83.484375 127.949219 77.785156 127.949219 L 11.570312 127.949219 C 5.875 127.949219 1.285156 123.066406 1.285156 117 L 1.285156 12.316406 C 1.285156 6.25 5.875 1.367188 11.570312 1.367188 Z M 11.570312 1.367188 "/>
<path style=" stroke:none;fill-rule:nonzero;fill:rgb(100%,0%,0%);fill-opacity:1;" d="M 7.507812 28.988281 L 7.507812 12.847656 L 4.140625 12.800781 L 4.300781 10.324219 L 7.488281 8.210938 L 11.019531 8.210938 L 11.019531 28.988281 M 19.652344 18.574219 C 19.652344 16.007812 19.484375 14.203125 19.144531 13.15625 C 18.808594 12.101562 18.242188 11.574219 17.445312 11.574219 C 16.648438 11.574219 16.078125 12.101562 15.738281 13.15625 C 15.398438 14.203125 15.226562 16.007812 15.226562 18.574219 C 15.226562 21.167969 15.398438 22.996094 15.738281 24.058594 C 16.078125 25.121094 16.648438 25.652344 17.445312 25.652344 C 18.234375 25.652344 18.800781 25.121094 19.144531 24.058594 C 19.484375 22.996094 19.652344 21.167969 19.652344 18.574219 M 23.367188 18.613281 C 23.367188 22.015625 22.851562 24.640625 21.824219 26.492188 C 20.796875 28.335938 19.335938 29.257812 17.445312 29.257812 C 15.546875 29.257812 14.085938 28.335938 13.054688 26.492188 C 12.027344 24.640625 11.511719 22.015625 11.511719 18.613281 C 11.511719 15.207031 12.027344 12.578125 13.054688 10.738281 C 14.085938 8.886719 15.546875 7.960938 17.445312 7.960938 C 19.335938 7.960938 20.796875 8.886719 21.824219 10.738281 C 22.851562 12.578125 23.367188 15.207031 23.367188 18.613281 "/>
<path style=" stroke:none;fill-rule:nonzero;fill:rgb(100%,0%,0%);fill-opacity:1;" d="M 81.773438 100.214844 L 81.773438 116.355469 L 85.140625 116.402344 L 84.976562 118.878906 L 81.792969 120.992188 L 78.261719 120.992188 L 78.261719 100.214844 M 69.625 110.628906 C 69.625 113.195312 69.796875 115 70.136719 116.042969 C 70.472656 117.097656 71.035156 117.625 71.835938 117.625 C 72.632812 117.625 73.199219 117.097656 73.542969 116.042969 C 73.882812 115 74.054688 113.195312 74.054688 110.628906 C 74.054688 108.035156 73.882812 106.207031 73.542969 105.140625 C 73.199219 104.078125 72.632812 103.546875 71.835938 103.546875 C 71.042969 103.546875 70.476562 104.078125 70.136719 105.140625 C 69.796875 106.207031 69.625 108.035156 69.625 110.628906 M 65.910156 110.585938 C 65.910156 107.1875 66.425781 104.558594 67.453125 102.707031 C 68.484375 100.867188 69.945312 99.945312 71.835938 99.945312 C 73.730469 99.945312 75.195312 100.867188 76.222656 102.707031 C 77.253906 104.558594 77.765625 107.1875 77.765625 110.585938 C 77.765625 113.996094 77.253906 116.621094 76.222656 118.464844 C 75.195312 120.316406 73.730469 121.242188 71.835938 121.242188 C 69.945312 121.242188 68.484375 120.316406 67.453125 118.464844 C 66.425781 116.621094 65.910156 113.996094 65.910156 110.585938 "/>
<path style=" stroke:none;fill-rule:evenodd;fill:rgb(100%,0%,0%);fill-opacity:1;" d="M 13.121094 33.296875 C 10.46875 38.9375 8.535156 41.847656 4.546875 44.957031 C 8.320312 48.027344 10.980469 51.199219 13.199219 56.328125 C 15.175781 51.457031 17.597656 47.824219 21.804688 44.804688 C 17.574219 42.511719 15.125 38.882812 13.121094 33.296875 Z M 13.121094 33.296875 "/>
<path style=" stroke:none;fill-rule:evenodd;fill:rgb(100%,0%,0%);fill-opacity:1;" d="M 31.582031 24.78125 C 30.039062 28.097656 28.914062 29.808594 26.589844 31.632812 C 28.789062 33.4375 30.339844 35.300781 31.628906 38.316406 C 32.78125 35.453125 34.191406 33.316406 36.644531 31.542969 C 34.179688 30.195312 32.75 28.0625 31.582031 24.78125 Z M 31.582031 24.78125 "/>
<path style=" stroke:none;fill-rule:evenodd;fill:rgb(100%,0%,0%);fill-opacity:1;" d="M 57.941406 24.78125 C 56.394531 28.097656 55.269531 29.808594 52.945312 31.632812 C 55.144531 33.4375 56.695312 35.300781 57.984375 38.316406 C 59.140625 35.453125 60.550781 33.316406 63 31.542969 C 60.535156 30.195312 59.109375 28.0625 57.941406 24.78125 Z M 57.941406 24.78125 "/>
<path style=" stroke:none;fill-rule:evenodd;fill:rgb(100%,0%,0%);fill-opacity:1;" d="M 44.210938 34.359375 C 42.664062 37.675781 41.539062 39.386719 39.214844 41.210938 C 41.414062 43.015625 42.964844 44.878906 44.253906 47.894531 C 45.40625 45.03125 46.816406 42.898438 49.269531 41.121094 C 46.804688 39.777344 45.375 37.644531 44.210938 34.359375 Z M 44.210938 34.359375 "/>
<path style=" stroke:none;fill-rule:evenodd;fill:rgb(100%,0%,0%);fill-opacity:1;" d="M 31.351562 48.730469 C 29.808594 52.042969 28.679688 53.753906 26.355469 55.582031 C 28.554688 57.382812 30.105469 59.25 31.398438 62.261719 C 32.550781 59.398438 33.960938 57.265625 36.410156 55.492188 C 33.945312 54.144531 32.519531 52.011719 31.351562 48.730469 Z M 31.351562 48.730469 "/>
<path style=" stroke:none;fill-rule:evenodd;fill:rgb(100%,0%,0%);fill-opacity:1;" d="M 56.65625 48.046875 C 55.109375 51.359375 53.984375 53.070312 51.660156 54.894531 C 53.859375 56.699219 55.410156 58.566406 56.699219 61.578125 C 57.851562 58.714844 59.265625 56.582031 61.714844 54.808594 C 59.25 53.460938 57.824219 51.328125 56.65625 48.046875 Z M 56.65625 48.046875 "/>
<path style=" stroke:none;fill-rule:evenodd;fill:rgb(100%,0%,0%);fill-opacity:1;" d="M 57.710938 68.421875 C 56.164062 71.734375 55.039062 73.445312 52.714844 75.273438 C 54.914062 77.078125 56.464844 78.941406 57.753906 81.953125 C 58.90625 79.089844 60.316406 76.957031 62.769531 75.183594 C 60.304688 73.835938 58.875 71.703125 57.710938 68.421875 Z M 57.710938 68.421875 "/>
<path style=" stroke:none;fill-rule:evenodd;fill:rgb(100%,0%,0%);fill-opacity:1;" d="M 30.941406 68.421875 C 29.394531 71.734375 28.269531 73.445312 25.945312 75.273438 C 28.144531 77.078125 29.695312 78.941406 30.984375 81.953125 C 32.140625 79.089844 33.550781 76.957031 36 75.183594 C 33.535156 73.835938 32.109375 71.703125 30.941406 68.421875 Z M 30.941406 68.421875 "/>
<path style=" stroke:none;fill-rule:evenodd;fill:rgb(100%,0%,0%);fill-opacity:1;" d="M 31.582031 88.949219 C 30.039062 92.261719 28.914062 93.972656 26.589844 95.796875 C 28.789062 97.601562 30.339844 99.46875 31.628906 102.480469 C 32.78125 99.617188 34.191406 97.484375 36.644531 95.707031 C 34.179688 94.363281 32.75 92.230469 31.582031 88.949219 Z M 31.582031 88.949219 "/>
<path style=" stroke:none;fill-rule:evenodd;fill:rgb(100%,0%,0%);fill-opacity:1;" d="M 43.796875 80.050781 C 42.253906 83.367188 41.125 85.078125 38.804688 86.902344 C 41 88.707031 42.550781 90.574219 43.84375 93.585938 C 44.996094 90.722656 46.40625 88.589844 48.855469 86.8125 C 46.390625 85.46875 44.964844 83.335938 43.796875 80.050781 Z M 43.796875 80.050781 "/>
<path style=" stroke:none;fill-rule:evenodd;fill:rgb(100%,0%,0%);fill-opacity:1;" d="M 57.941406 89.097656 C 56.394531 92.414062 55.269531 94.121094 52.945312 95.949219 C 55.144531 97.753906 56.695312 99.617188 57.984375 102.632812 C 59.140625 99.769531 60.550781 97.632812 63 95.859375 C 60.535156 94.511719 59.109375 92.378906 57.941406 89.097656 Z M 57.941406 89.097656 "/>
<path style=" stroke:none;fill-rule:evenodd;fill:rgb(100%,0%,0%);fill-opacity:1;" d="M 76.074219 72.734375 C 73.421875 78.375 71.488281 81.285156 67.5 84.390625 C 71.273438 87.460938 73.9375 90.636719 76.152344 95.765625 C 78.132812 90.890625 80.554688 87.257812 84.761719 84.238281 C 80.53125 81.949219 78.078125 78.320312 76.074219 72.734375 Z M 76.074219 72.734375 "/>
</g>
</svg>
