<?xml version="1.0" encoding="UTF-8"?>
<svg xmlns="http://www.w3.org/2000/svg" xmlns:xlink="http://www.w3.org/1999/xlink" width="90px" height="130px" viewBox="0 0 90 130" version="1.1">
<g id="surface1">
<path style=" stroke:none;fill-rule:nonzero;fill:rgb(0%,0%,0%);fill-opacity:0.498039;" d="M 13.5 3.421875 L 79.714844 3.421875 C 85.414062 3.421875 90 8.304688 90 14.367188 L 90 119.050781 C 90 125.117188 85.414062 130 79.714844 130 L 13.5 130 C 7.800781 130 3.214844 125.117188 3.214844 119.050781 L 3.214844 14.367188 C 3.214844 8.304688 7.800781 3.421875 13.5 3.421875 Z M 13.5 3.421875 "/>
<path style=" stroke:none;fill-rule:nonzero;fill:rgb(90.588236%,90.588236%,90.588236%);fill-opacity:1;" d="M 10.929688 0.683594 L 77.144531 0.683594 C 82.839844 0.683594 87.429688 5.566406 87.429688 11.632812 L 87.429688 116.316406 C 87.429688 122.378906 82.839844 127.261719 77.144531 127.261719 L 10.929688 127.261719 C 5.230469 127.261719 0.644531 122.378906 0.644531 116.316406 L 0.644531 11.632812 C 0.644531 5.566406 5.230469 0.683594 10.929688 0.683594 Z M 10.929688 0.683594 "/>
<path style=" stroke:none;fill-rule:nonzero;fill:rgb(78.039217%,53.725493%,12.156863%);fill-opacity:1;" d="M 12.214844 2.050781 L 78.429688 2.050781 C 84.125 2.050781 88.714844 6.933594 88.714844 13 L 88.714844 117.683594 C 88.714844 123.75 84.125 128.632812 78.429688 128.632812 L 12.214844 128.632812 C 6.515625 128.632812 1.929688 123.75 1.929688 117.683594 L 1.929688 13 C 1.929688 6.933594 6.515625 2.050781 12.214844 2.050781 Z M 12.214844 2.050781 "/>
<path style=" stroke:none;fill-rule:nonzero;fill:rgb(100%,100%,100%);fill-opacity:1;" d="M 11.570312 1.367188 L 77.785156 1.367188 C 83.484375 1.367188 88.070312 6.25 88.070312 12.316406 L 88.070312 117 C 88.070312 123.066406 83.484375 127.949219 77.785156 127.949219 L 11.570312 127.949219 C 5.875 127.949219 1.285156 123.066406 1.285156 117 L 1.285156 12.316406 C 1.285156 6.25 5.875 1.367188 11.570312 1.367188 Z M 11.570312 1.367188 "/>
<path style=" stroke:none;fill-rule:nonzero;fill:rgb(100%,0%,0%);fill-opacity:1;" d="M 12.085938 24.84375 L 19.101562 24.84375 L 19.101562 28.734375 L 7.515625 28.734375 L 7.515625 24.84375 L 13.335938 18.230469 C 13.855469 17.625 14.238281 17.035156 14.488281 16.457031 C 14.738281 15.878906 14.863281 15.28125 14.863281 14.65625 C 14.863281 13.695312 14.609375 12.921875 14.105469 12.332031 C 13.605469 11.746094 12.941406 11.453125 12.105469 11.453125 C 11.464844 11.453125 10.765625 11.632812 10.003906 11.988281 C 9.242188 12.339844 8.425781 12.859375 7.558594 13.558594 L 7.558594 9.046875 C 8.484375 8.652344 9.398438 8.355469 10.300781 8.152344 C 11.207031 7.945312 12.09375 7.839844 12.960938 7.839844 C 14.871094 7.839844 16.351562 8.378906 17.40625 9.460938 C 18.464844 10.542969 18.996094 12.050781 18.996094 13.984375 C 18.996094 15.101562 18.773438 16.148438 18.324219 17.117188 C 17.875 18.082031 16.929688 19.371094 15.492188 20.996094 L 12.085938 24.84375 "/>
<path style=" stroke:none;fill-rule:evenodd;fill:rgb(100%,0%,0%);fill-opacity:1;" d="M 8.710938 33.421875 C 8.195312 33.425781 7.628906 33.558594 7 33.859375 C 0.160156 39.472656 9.382812 48.519531 13.277344 56.289062 L 13.390625 56.328125 C 17.671875 47.835938 25.820312 38.492188 19.59375 33.859375 C 14.660156 31.492188 13.34375 39.375 13.296875 39.65625 C 13.257812 39.410156 12.25 33.394531 8.710938 33.421875 Z M 8.710938 33.421875 "/>
<path style=" stroke:none;fill-rule:nonzero;fill:rgb(100%,0%,0%);fill-opacity:1;" d="M 77.183594 104.472656 L 70.167969 104.472656 L 70.167969 100.582031 L 81.753906 100.582031 L 81.753906 104.472656 L 75.933594 111.085938 C 75.414062 111.6875 75.03125 112.28125 74.78125 112.859375 C 74.53125 113.433594 74.40625 114.035156 74.40625 114.660156 C 74.40625 115.621094 74.660156 116.394531 75.167969 116.980469 C 75.664062 117.570312 76.332031 117.863281 77.164062 117.863281 C 77.804688 117.863281 78.503906 117.683594 79.265625 117.324219 C 80.027344 116.976562 80.84375 116.453125 81.714844 115.757812 L 81.714844 120.269531 C 80.789062 120.660156 79.871094 120.960938 78.96875 121.160156 C 78.0625 121.371094 77.175781 121.476562 76.308594 121.476562 C 74.402344 121.476562 72.917969 120.9375 71.867188 119.855469 C 70.804688 118.773438 70.273438 117.265625 70.273438 115.332031 C 70.273438 114.214844 70.5 113.167969 70.949219 112.199219 C 71.394531 111.234375 72.339844 109.941406 73.777344 108.320312 L 77.183594 104.472656 "/>
<path style=" stroke:none;fill-rule:evenodd;fill:rgb(100%,0%,0%);fill-opacity:1;" d="M 80.554688 95.785156 C 81.074219 95.78125 81.640625 95.648438 82.265625 95.347656 C 89.109375 89.734375 79.886719 80.6875 75.992188 72.917969 L 75.878906 72.878906 C 71.597656 81.371094 63.449219 90.714844 69.675781 95.347656 C 74.609375 97.714844 75.925781 89.832031 75.972656 89.550781 C 76.011719 89.796875 77.019531 95.8125 80.554688 95.785156 Z M 80.554688 95.785156 "/>
<path style=" stroke:none;fill-rule:evenodd;fill:rgb(100%,0%,0%);fill-opacity:1;" d="M 41.632812 34.363281 C 41.335938 34.363281 41.003906 34.445312 40.640625 34.621094 C 36.664062 37.9375 42.023438 43.28125 44.285156 47.871094 L 44.351562 47.894531 C 46.839844 42.878906 51.570312 37.359375 47.953125 34.621094 C 45.089844 33.222656 44.324219 37.878906 44.296875 38.046875 C 44.273438 37.902344 43.691406 34.347656 41.632812 34.363281 Z M 41.632812 34.363281 "/>
<path style=" stroke:none;fill-rule:evenodd;fill:rgb(100%,0%,0%);fill-opacity:1;" d="M 47.082031 93.050781 C 47.378906 93.046875 47.710938 92.96875 48.074219 92.789062 C 52.046875 89.476562 46.691406 84.132812 44.429688 79.542969 L 44.363281 79.519531 C 41.875 84.535156 37.144531 90.054688 40.757812 92.789062 C 43.625 94.191406 44.390625 89.535156 44.417969 89.367188 C 44.441406 89.511719 45.023438 93.066406 47.082031 93.050781 Z M 47.082031 93.050781 "/>
</g>
</svg>
