<?xml version="1.0" encoding="UTF-8"?>
<svg xmlns="http://www.w3.org/2000/svg" xmlns:xlink="http://www.w3.org/1999/xlink" width="90px" height="130px" viewBox="0 0 90 130" version="1.1">
<g id="surface1">
<path style=" stroke:none;fill-rule:nonzero;fill:rgb(0%,0%,0%);fill-opacity:0.498039;" d="M 13.5 3.421875 L 79.714844 3.421875 C 85.414062 3.421875 90 8.304688 90 14.367188 L 90 119.050781 C 90 125.117188 85.414062 130 79.714844 130 L 13.5 130 C 7.800781 130 3.214844 125.117188 3.214844 119.050781 L 3.214844 14.367188 C 3.214844 8.304688 7.800781 3.421875 13.5 3.421875 Z M 13.5 3.421875 "/>
<path style=" stroke:none;fill-rule:nonzero;fill:rgb(90.588236%,90.588236%,90.588236%);fill-opacity:1;" d="M 10.929688 0.683594 L 77.144531 0.683594 C 82.839844 0.683594 87.429688 5.566406 87.429688 11.632812 L 87.429688 116.316406 C 87.429688 122.378906 82.839844 127.261719 77.144531 127.261719 L 10.929688 127.261719 C 5.230469 127.261719 0.644531 122.378906 0.644531 116.316406 L 0.644531 11.632812 C 0.644531 5.566406 5.230469 0.683594 10.929688 0.683594 Z M 10.929688 0.683594 "/>
<path style=" stroke:none;fill-rule:nonzero;fill:rgb(78.039217%,53.725493%,12.156863%);fill-opacity:1;" d="M 12.214844 2.050781 L 78.429688 2.050781 C 84.125 2.050781 88.714844 6.933594 88.714844 13 L 88.714844 117.683594 C 88.714844 123.75 84.125 128.632812 78.429688 128.632812 L 12.214844 128.632812 C 6.515625 128.632812 1.929688 123.75 1.929688 117.683594 L 1.929688 13 C 1.929688 6.933594 6.515625 2.050781 12.214844 2.050781 Z M 12.214844 2.050781 "/>
<path style=" stroke:none;fill-rule:nonzero;fill:rgb(100%,100%,100%);fill-opacity:1;" d="M 11.570312 1.367188 L 77.785156 1.367188 C 83.484375 1.367188 88.070312 6.25 88.070312 12.316406 L 88.070312 117 C 88.070312 123.066406 83.484375 127.949219 77.785156 127.949219 L 11.570312 127.949219 C 5.875 127.949219 1.285156 123.066406 1.285156 117 L 1.285156 12.316406 C 1.285156 6.25 5.875 1.367188 11.570312 1.367188 Z M 11.570312 1.367188 "/>
<path style=" stroke:none;fill-rule:evenodd;fill:rgb(0%,0%,0%);fill-opacity:1;" d="M 13.195312 33.300781 C 11.480469 33.300781 10.089844 35.535156 10.089844 38.285156 C 10.089844 40.628906 12.914062 44.574219 12.804688 46.449219 C 11.898438 46.984375 9.097656 42.042969 7.648438 42.042969 C 5.9375 42.042969 4.546875 44.277344 4.546875 47.027344 C 4.546875 49.78125 5.9375 52.011719 7.648438 52.011719 C 9.136719 52.011719 11.683594 47.078125 12.804688 47.523438 L 10.921875 56.332031 L 15.4375 56.300781 C 15.4375 56.300781 13.460938 47.761719 13.457031 47.5625 L 13.492188 47.5625 L 13.492188 47.570312 C 14.589844 47.132812 17.226562 52.109375 18.699219 52.109375 C 20.414062 52.109375 21.804688 49.875 21.804688 47.125 C 21.804688 44.371094 20.414062 42.136719 18.699219 42.136719 C 17.257812 42.136719 14.644531 46.996094 13.5 46.496094 C 13.515625 44.574219 16.300781 40.628906 16.300781 38.285156 C 16.300781 35.535156 14.910156 33.300781 13.195312 33.300781 Z M 13.195312 33.300781 "/>
<path style=" stroke:none;fill-rule:evenodd;fill:rgb(0%,0%,0%);fill-opacity:1;" d="M 75.484375 95.761719 C 77.195312 95.761719 78.589844 93.527344 78.589844 90.777344 C 78.589844 88.433594 75.765625 84.488281 75.875 82.613281 C 76.78125 82.078125 79.582031 87.019531 81.03125 87.019531 C 82.742188 87.019531 84.132812 84.785156 84.132812 82.035156 C 84.132812 79.28125 82.742188 77.050781 81.03125 77.050781 C 79.542969 77.050781 76.996094 81.984375 75.875 81.539062 L 77.757812 72.730469 L 73.242188 72.761719 C 73.242188 72.761719 75.21875 81.300781 75.222656 81.5 L 75.1875 81.5 L 75.1875 81.492188 C 74.089844 81.929688 71.453125 76.953125 69.976562 76.953125 C 68.265625 76.953125 66.875 79.1875 66.875 81.9375 C 66.875 84.691406 68.265625 86.925781 69.976562 86.925781 C 71.421875 86.925781 74.035156 82.066406 75.179688 82.566406 C 75.164062 84.488281 72.378906 88.433594 72.378906 90.777344 C 72.378906 93.527344 73.769531 95.761719 75.484375 95.761719 Z M 75.484375 95.761719 "/>
<path style=" stroke:none;fill-rule:evenodd;fill:rgb(0%,0%,0%);fill-opacity:1;" d="M 44.253906 34.359375 C 43.253906 34.359375 42.445312 35.671875 42.445312 37.289062 C 42.445312 38.667969 44.089844 40.984375 44.027344 42.085938 C 43.496094 42.402344 41.867188 39.5 41.023438 39.5 C 40.023438 39.5 39.214844 40.8125 39.214844 42.429688 C 39.214844 44.046875 40.023438 45.355469 41.023438 45.355469 C 41.890625 45.355469 43.371094 42.457031 44.027344 42.71875 L 42.929688 47.894531 L 45.558594 47.878906 C 45.558594 47.878906 44.40625 42.859375 44.40625 42.742188 L 44.425781 42.742188 L 44.425781 42.746094 C 45.066406 42.488281 46.601562 45.414062 47.460938 45.414062 C 48.457031 45.414062 49.269531 44.101562 49.269531 42.484375 C 49.269531 40.867188 48.457031 39.554688 47.460938 39.554688 C 46.621094 39.554688 45.097656 42.410156 44.429688 42.113281 C 44.4375 40.988281 46.0625 38.667969 46.0625 37.289062 C 46.0625 35.671875 45.253906 34.359375 44.253906 34.359375 Z M 44.253906 34.359375 "/>
<path style=" stroke:none;fill-rule:evenodd;fill:rgb(0%,0%,0%);fill-opacity:1;" d="M 44.230469 93.738281 C 45.226562 93.738281 46.039062 92.425781 46.039062 90.808594 C 46.039062 89.429688 44.394531 87.113281 44.457031 86.011719 C 44.984375 85.695312 46.617188 88.597656 47.460938 88.597656 C 48.457031 88.597656 49.269531 87.289062 49.269531 85.671875 C 49.269531 84.054688 48.457031 82.742188 47.460938 82.742188 C 46.59375 82.742188 45.109375 85.640625 44.457031 85.378906 L 45.554688 80.203125 L 42.925781 80.21875 C 42.925781 80.21875 44.074219 85.238281 44.078125 85.355469 L 44.058594 85.355469 L 44.058594 85.351562 C 43.417969 85.609375 41.882812 82.683594 41.023438 82.683594 C 40.023438 82.683594 39.214844 83.996094 39.214844 85.613281 C 39.214844 87.230469 40.023438 88.542969 41.023438 88.542969 C 41.863281 88.542969 43.386719 85.6875 44.054688 85.984375 C 44.042969 87.109375 42.421875 89.429688 42.421875 90.808594 C 42.421875 92.425781 43.230469 93.738281 44.230469 93.738281 Z M 44.230469 93.738281 "/>
<path style=" stroke:none;fill-rule:nonzero;fill:rgb(0%,0%,0%);fill-opacity:1;" d="M 12.085938 24.84375 L 19.101562 24.84375 L 19.101562 28.734375 L 7.515625 28.734375 L 7.515625 24.84375 L 13.335938 18.230469 C 13.855469 17.625 14.238281 17.035156 14.488281 16.457031 C 14.738281 15.878906 14.863281 15.28125 14.863281 14.65625 C 14.863281 13.695312 14.609375 12.921875 14.105469 12.332031 C 13.605469 11.746094 12.941406 11.453125 12.109375 11.453125 C 11.464844 11.453125 10.765625 11.632812 10.003906 11.988281 C 9.242188 12.339844 8.425781 12.859375 7.558594 13.558594 L 7.558594 9.046875 C 8.484375 8.652344 9.398438 8.355469 10.300781 8.15625 C 11.207031 7.945312 12.09375 7.839844 12.960938 7.839844 C 14.871094 7.839844 16.351562 8.378906 17.40625 9.460938 C 18.464844 10.542969 18.996094 12.050781 18.996094 13.984375 C 18.996094 15.101562 18.773438 16.148438 18.324219 17.117188 C 17.875 18.082031 16.929688 19.371094 15.492188 20.996094 L 12.085938 24.84375 "/>
<path style=" stroke:none;fill-rule:nonzero;fill:rgb(0%,0%,0%);fill-opacity:1;" d="M 77.21875 104.304688 L 70.203125 104.304688 L 70.203125 100.414062 L 81.789062 100.414062 L 81.789062 104.304688 L 75.96875 110.917969 C 75.449219 111.523438 75.066406 112.113281 74.816406 112.691406 C 74.566406 113.269531 74.441406 113.867188 74.441406 114.492188 C 74.441406 115.453125 74.695312 116.226562 75.203125 116.816406 C 75.699219 117.402344 76.367188 117.695312 77.199219 117.695312 C 77.839844 117.695312 78.539062 117.515625 79.300781 117.160156 C 80.0625 116.808594 80.878906 116.289062 81.75 115.589844 L 81.75 120.101562 C 80.824219 120.496094 79.90625 120.792969 79.003906 120.996094 C 78.097656 121.207031 77.210938 121.3125 76.34375 121.3125 C 74.4375 121.3125 72.957031 120.769531 71.902344 119.6875 C 70.839844 118.605469 70.308594 117.097656 70.308594 115.164062 C 70.308594 114.046875 70.535156 113.003906 70.984375 112.03125 C 71.429688 111.066406 72.375 109.777344 73.8125 108.152344 L 77.21875 104.304688 "/>
</g>
</svg>
