<?xml version="1.0" encoding="UTF-8"?>
<svg xmlns="http://www.w3.org/2000/svg" xmlns:xlink="http://www.w3.org/1999/xlink" width="90px" height="130px" viewBox="0 0 90 130" version="1.1">
<g id="surface1">
<path style=" stroke:none;fill-rule:nonzero;fill:rgb(0%,0%,0%);fill-opacity:0.498039;" d="M 13.5 3.421875 L 79.714844 3.421875 C 85.414062 3.421875 90 8.304688 90 14.367188 L 90 119.050781 C 90 125.117188 85.414062 130 79.714844 130 L 13.5 130 C 7.800781 130 3.214844 125.117188 3.214844 119.050781 L 3.214844 14.367188 C 3.214844 8.304688 7.800781 3.421875 13.5 3.421875 Z M 13.5 3.421875 "/>
<path style=" stroke:none;fill-rule:nonzero;fill:rgb(90.588236%,90.588236%,90.588236%);fill-opacity:1;" d="M 10.929688 0.683594 L 77.144531 0.683594 C 82.839844 0.683594 87.429688 5.566406 87.429688 11.632812 L 87.429688 116.316406 C 87.429688 122.378906 82.839844 127.261719 77.144531 127.261719 L 10.929688 127.261719 C 5.230469 127.261719 0.644531 122.378906 0.644531 116.316406 L 0.644531 11.632812 C 0.644531 5.566406 5.230469 0.683594 10.929688 0.683594 Z M 10.929688 0.683594 "/>
<path style=" stroke:none;fill-rule:nonzero;fill:rgb(78.039217%,53.725493%,12.156863%);fill-opacity:1;" d="M 12.214844 2.050781 L 78.429688 2.050781 C 84.125 2.050781 88.714844 6.933594 88.714844 13 L 88.714844 117.683594 C 88.714844 123.75 84.125 128.632812 78.429688 128.632812 L 12.214844 128.632812 C 6.515625 128.632812 1.929688 123.75 1.929688 117.683594 L 1.929688 13 C 1.929688 6.933594 6.515625 2.050781 12.214844 2.050781 Z M 12.214844 2.050781 "/>
<path style=" stroke:none;fill-rule:nonzero;fill:rgb(100%,100%,100%);fill-opacity:1;" d="M 11.570312 1.367188 L 77.785156 1.367188 C 83.484375 1.367188 88.070312 6.25 88.070312 12.316406 L 88.070312 117 C 88.070312 123.066406 83.484375 127.949219 77.785156 127.949219 L 11.570312 127.949219 C 5.875 127.949219 1.285156 123.066406 1.285156 117 L 1.285156 12.316406 C 1.285156 6.25 5.875 1.367188 11.570312 1.367188 Z M 11.570312 1.367188 "/>
<path style=" stroke:none;fill-rule:evenodd;fill:rgb(0%,0%,0%);fill-opacity:1;" d="M 44.894531 30.789062 C 43.898438 30.789062 43.085938 32.101562 43.085938 33.71875 C 43.085938 35.097656 44.734375 37.414062 44.667969 38.515625 C 44.140625 38.828125 42.507812 35.925781 41.664062 35.925781 C 40.667969 35.925781 39.855469 37.238281 39.855469 38.855469 C 39.855469 40.472656 40.667969 41.785156 41.664062 41.785156 C 42.53125 41.785156 44.015625 38.886719 44.667969 39.148438 L 43.570312 44.324219 L 46.203125 44.304688 C 46.203125 44.304688 45.050781 39.289062 45.046875 39.167969 L 45.070312 39.167969 L 45.070312 39.175781 C 45.707031 38.917969 47.242188 41.839844 48.101562 41.839844 C 49.101562 41.839844 49.910156 40.53125 49.910156 38.914062 C 49.910156 37.296875 49.101562 35.984375 48.101562 35.984375 C 47.261719 35.984375 45.742188 38.835938 45.074219 38.542969 C 45.082031 37.414062 46.703125 35.09375 46.703125 33.71875 C 46.703125 32.101562 45.894531 30.789062 44.894531 30.789062 Z M 44.894531 30.789062 "/>
<path style=" stroke:none;fill-rule:evenodd;fill:rgb(0%,0%,0%);fill-opacity:1;" d="M 45.128906 58.992188 C 44.128906 58.992188 43.320312 60.304688 43.320312 61.921875 C 43.320312 63.300781 44.964844 65.617188 44.898438 66.71875 C 44.371094 67.03125 42.742188 64.128906 41.898438 64.128906 C 40.898438 64.128906 40.089844 65.441406 40.089844 67.058594 C 40.089844 68.675781 40.898438 69.988281 41.898438 69.988281 C 42.761719 69.988281 44.246094 67.089844 44.898438 67.351562 L 43.804688 72.527344 L 46.433594 72.507812 C 46.433594 72.507812 45.28125 67.492188 45.28125 67.371094 L 45.300781 67.371094 L 45.300781 67.378906 C 45.941406 67.121094 47.472656 70.042969 48.335938 70.042969 C 49.332031 70.042969 50.144531 68.734375 50.144531 67.117188 C 50.144531 65.5 49.332031 64.1875 48.335938 64.1875 C 47.496094 64.1875 45.972656 67.039062 45.304688 66.746094 C 45.3125 65.617188 46.9375 63.296875 46.9375 61.921875 C 46.9375 60.304688 46.125 58.992188 45.128906 58.992188 Z M 45.128906 58.992188 "/>
<path style=" stroke:none;fill-rule:evenodd;fill:rgb(0%,0%,0%);fill-opacity:1;" d="M 44.460938 97.84375 C 45.460938 97.84375 46.269531 96.53125 46.269531 94.914062 C 46.269531 93.535156 44.625 91.21875 44.6875 90.117188 C 45.214844 89.800781 46.847656 92.703125 47.691406 92.703125 C 48.691406 92.703125 49.5 91.390625 49.5 89.773438 C 49.5 88.15625 48.691406 86.847656 47.691406 86.847656 C 46.824219 86.847656 45.339844 89.746094 44.6875 89.484375 L 45.785156 84.308594 L 43.15625 84.324219 C 43.15625 84.324219 44.308594 89.34375 44.308594 89.460938 L 44.289062 89.460938 L 44.289062 89.457031 C 43.648438 89.714844 42.113281 86.789062 41.253906 86.789062 C 40.253906 86.789062 39.445312 88.101562 39.445312 89.71875 C 39.445312 91.335938 40.253906 92.648438 41.253906 92.648438 C 42.09375 92.648438 43.617188 89.792969 44.285156 90.089844 C 44.273438 91.214844 42.652344 93.535156 42.652344 94.914062 C 42.652344 96.53125 43.460938 97.84375 44.460938 97.84375 Z M 44.460938 97.84375 "/>
<path style=" stroke:none;fill-rule:evenodd;fill:rgb(0%,0%,0%);fill-opacity:1;" d="M 13.195312 33.296875 C 11.480469 33.296875 10.089844 35.53125 10.089844 38.28125 C 10.089844 40.625 12.914062 44.570312 12.804688 46.445312 C 11.898438 46.980469 9.097656 42.039062 7.648438 42.039062 C 5.9375 42.039062 4.546875 44.273438 4.546875 47.023438 C 4.546875 49.777344 5.9375 52.007812 7.648438 52.007812 C 9.136719 52.007812 11.683594 47.074219 12.804688 47.519531 L 10.921875 56.328125 L 15.4375 56.300781 C 15.4375 56.300781 13.460938 47.757812 13.457031 47.558594 L 13.492188 47.558594 L 13.492188 47.566406 C 14.589844 47.128906 17.226562 52.105469 18.699219 52.105469 C 20.414062 52.105469 21.804688 49.871094 21.804688 47.121094 C 21.804688 44.367188 20.414062 42.136719 18.699219 42.136719 C 17.257812 42.136719 14.644531 46.992188 13.5 46.492188 C 13.515625 44.574219 16.300781 40.625 16.300781 38.28125 C 16.300781 35.53125 14.910156 33.296875 13.195312 33.296875 Z M 13.195312 33.296875 "/>
<path style=" stroke:none;fill-rule:evenodd;fill:rgb(0%,0%,0%);fill-opacity:1;" d="M 75.484375 95.765625 C 77.195312 95.765625 78.589844 93.53125 78.589844 90.777344 C 78.589844 88.433594 75.765625 84.488281 75.875 82.617188 C 76.78125 82.082031 79.582031 87.019531 81.03125 87.019531 C 82.742188 87.019531 84.132812 84.789062 84.132812 82.035156 C 84.132812 79.285156 82.742188 77.050781 81.03125 77.050781 C 79.542969 77.050781 76.996094 81.988281 75.875 81.542969 L 77.757812 72.734375 L 73.242188 72.761719 C 73.242188 72.761719 75.21875 81.300781 75.222656 81.503906 L 75.1875 81.503906 L 75.1875 81.492188 C 74.089844 81.933594 71.453125 76.957031 69.976562 76.957031 C 68.265625 76.957031 66.875 79.1875 66.875 81.941406 C 66.875 84.691406 68.265625 86.925781 69.976562 86.925781 C 71.421875 86.925781 74.035156 82.066406 75.179688 82.570312 C 75.164062 84.488281 72.378906 88.4375 72.378906 90.777344 C 72.378906 93.53125 73.769531 95.765625 75.484375 95.765625 Z M 75.484375 95.765625 "/>
<path style=" stroke:none;fill-rule:nonzero;fill:rgb(0%,0%,0%);fill-opacity:1;" d="M 15.820312 17.832031 C 16.894531 18.191406 17.710938 18.8125 18.265625 19.703125 C 18.828125 20.582031 19.109375 21.703125 19.109375 23.070312 C 19.109375 25.105469 18.503906 26.652344 17.292969 27.71875 C 16.082031 28.769531 14.316406 29.296875 11.996094 29.296875 C 11.175781 29.296875 10.355469 29.210938 9.527344 29.039062 C 8.710938 28.871094 7.898438 28.621094 7.09375 28.28125 L 7.09375 24.199219 C 7.863281 24.691406 8.625 25.070312 9.378906 25.324219 C 10.140625 25.574219 10.886719 25.695312 11.621094 25.695312 C 12.710938 25.695312 13.542969 25.453125 14.121094 24.96875 C 14.703125 24.480469 14.996094 23.785156 14.996094 22.878906 C 14.996094 21.941406 14.699219 21.238281 14.101562 20.761719 C 13.507812 20.273438 12.632812 20.03125 11.472656 20.03125 L 9.828125 20.03125 L 9.828125 16.621094 L 11.558594 16.621094 C 12.589844 16.621094 13.359375 16.417969 13.863281 16.003906 C 14.371094 15.582031 14.621094 14.945312 14.621094 14.09375 C 14.621094 13.304688 14.378906 12.695312 13.886719 12.265625 C 13.394531 11.832031 12.699219 11.617188 11.804688 11.617188 C 11.140625 11.617188 10.472656 11.714844 9.796875 11.90625 C 9.121094 12.097656 8.445312 12.382812 7.777344 12.757812 L 7.777344 8.882812 C 8.589844 8.589844 9.394531 8.367188 10.191406 8.222656 C 10.988281 8.074219 11.769531 8.003906 12.539062 8.003906 C 14.613281 8.003906 16.160156 8.441406 17.1875 9.320312 C 18.21875 10.191406 18.734375 11.507812 18.734375 13.269531 C 18.734375 14.46875 18.488281 15.453125 17.996094 16.222656 C 17.507812 16.984375 16.78125 17.519531 15.820312 17.832031 "/>
<path style=" stroke:none;fill-rule:nonzero;fill:rgb(0%,0%,0%);fill-opacity:1;" d="M 73.332031 111.480469 C 72.257812 111.125 71.441406 110.5 70.886719 109.609375 C 70.324219 108.730469 70.042969 107.609375 70.042969 106.242188 C 70.042969 104.207031 70.648438 102.660156 71.859375 101.59375 C 73.070312 100.542969 74.835938 100.015625 77.15625 100.015625 C 77.972656 100.015625 78.796875 100.101562 79.621094 100.277344 C 80.441406 100.441406 81.253906 100.691406 82.058594 101.03125 L 82.058594 105.113281 C 81.289062 104.621094 80.527344 104.246094 79.773438 103.988281 C 79.011719 103.742188 78.261719 103.617188 77.53125 103.617188 C 76.441406 103.617188 75.605469 103.859375 75.03125 104.34375 C 74.445312 104.832031 74.15625 105.527344 74.15625 106.433594 C 74.15625 107.371094 74.453125 108.074219 75.050781 108.550781 C 75.644531 109.039062 76.519531 109.28125 77.679688 109.28125 L 79.324219 109.28125 L 79.324219 112.691406 L 77.59375 112.691406 C 76.5625 112.691406 75.792969 112.898438 75.285156 113.308594 C 74.78125 113.730469 74.527344 114.367188 74.527344 115.21875 C 74.527344 116.007812 74.773438 116.617188 75.265625 117.046875 C 75.757812 117.480469 76.449219 117.695312 77.347656 117.695312 C 78.011719 117.695312 78.679688 117.597656 79.355469 117.40625 C 80.03125 117.214844 80.703125 116.929688 81.375 116.554688 L 81.375 120.429688 C 80.5625 120.722656 79.757812 120.945312 78.960938 121.089844 C 78.164062 121.238281 77.378906 121.308594 76.609375 121.308594 C 74.539062 121.308594 72.992188 120.871094 71.964844 119.992188 C 70.933594 119.121094 70.417969 117.804688 70.417969 116.046875 C 70.417969 114.84375 70.664062 113.859375 71.152344 113.089844 C 71.644531 112.328125 72.371094 111.792969 73.332031 111.480469 "/>
</g>
</svg>
