<?xml version="1.0" encoding="UTF-8"?>
<svg xmlns="http://www.w3.org/2000/svg" xmlns:xlink="http://www.w3.org/1999/xlink" width="90px" height="130px" viewBox="0 0 90 130" version="1.1">
<g id="surface1">
<path style=" stroke:none;fill-rule:nonzero;fill:rgb(0%,0%,0%);fill-opacity:0.498039;" d="M 13.5 3.421875 L 79.714844 3.421875 C 85.414062 3.421875 90 8.304688 90 14.367188 L 90 119.050781 C 90 125.117188 85.414062 130 79.714844 130 L 13.5 130 C 7.800781 130 3.214844 125.117188 3.214844 119.050781 L 3.214844 14.367188 C 3.214844 8.304688 7.800781 3.421875 13.5 3.421875 Z M 13.5 3.421875 "/>
<path style=" stroke:none;fill-rule:nonzero;fill:rgb(90.588236%,90.588236%,90.588236%);fill-opacity:1;" d="M 10.929688 0.683594 L 77.144531 0.683594 C 82.839844 0.683594 87.429688 5.566406 87.429688 11.632812 L 87.429688 116.316406 C 87.429688 122.378906 82.839844 127.261719 77.144531 127.261719 L 10.929688 127.261719 C 5.230469 127.261719 0.644531 122.378906 0.644531 116.316406 L 0.644531 11.632812 C 0.644531 5.566406 5.230469 0.683594 10.929688 0.683594 Z M 10.929688 0.683594 "/>
<path style=" stroke:none;fill-rule:nonzero;fill:rgb(78.039217%,53.725493%,12.156863%);fill-opacity:1;" d="M 12.214844 2.050781 L 78.429688 2.050781 C 84.125 2.050781 88.714844 6.933594 88.714844 13 L 88.714844 117.683594 C 88.714844 123.75 84.125 128.632812 78.429688 128.632812 L 12.214844 128.632812 C 6.515625 128.632812 1.929688 123.75 1.929688 117.683594 L 1.929688 13 C 1.929688 6.933594 6.515625 2.050781 12.214844 2.050781 Z M 12.214844 2.050781 "/>
<path style=" stroke:none;fill-rule:nonzero;fill:rgb(100%,100%,100%);fill-opacity:1;" d="M 11.570312 1.367188 L 77.785156 1.367188 C 83.484375 1.367188 88.070312 6.25 88.070312 12.316406 L 88.070312 117 C 88.070312 123.066406 83.484375 127.949219 77.785156 127.949219 L 11.570312 127.949219 C 5.875 127.949219 1.285156 123.066406 1.285156 117 L 1.285156 12.316406 C 1.285156 6.25 5.875 1.367188 11.570312 1.367188 Z M 11.570312 1.367188 "/>
<path style=" stroke:none;fill-rule:nonzero;fill:rgb(4.705882%,4.705882%,4.705882%);fill-opacity:1;" d="M 7.773438 28.625 L 7.773438 24.832031 C 8.429688 25.226562 9.054688 25.523438 9.65625 25.726562 C 10.253906 25.917969 10.84375 26.015625 11.425781 26.015625 C 12.652344 26.015625 13.605469 25.578125 14.289062 24.707031 C 14.972656 23.828125 15.375 22.527344 15.496094 20.804688 C 15.011719 21.261719 14.496094 21.605469 13.949219 21.835938 C 13.398438 22.0625 12.804688 22.179688 12.164062 22.179688 C 10.535156 22.179688 9.214844 21.570312 8.210938 20.351562 C 7.214844 19.121094 6.71875 17.507812 6.71875 15.511719 C 6.71875 13.300781 7.273438 11.53125 8.382812 10.203125 C 9.5 8.875 10.996094 8.210938 12.871094 8.210938 C 14.949219 8.210938 16.558594 9.113281 17.695312 10.917969 C 18.835938 12.722656 19.40625 15.277344 19.40625 18.578125 C 19.40625 21.96875 18.738281 24.636719 17.40625 26.578125 C 16.078125 28.511719 14.25 29.480469 11.929688 29.480469 C 11.183594 29.480469 10.464844 29.40625 9.78125 29.257812 C 9.097656 29.121094 8.429688 28.910156 7.773438 28.625 M 12.847656 18.742188 C 13.566406 18.742188 14.109375 18.445312 14.472656 17.847656 C 14.835938 17.242188 15.015625 16.339844 15.015625 15.140625 C 15.015625 13.949219 14.835938 13.050781 14.472656 12.445312 C 14.109375 11.839844 13.566406 11.539062 12.847656 11.539062 C 12.128906 11.539062 11.585938 11.839844 11.222656 12.445312 C 10.863281 13.050781 10.679688 13.949219 10.679688 15.140625 C 10.679688 16.339844 10.863281 17.242188 11.222656 17.847656 C 11.585938 18.445312 12.128906 18.742188 12.847656 18.742188 "/>
<path style=" stroke:none;fill-rule:nonzero;fill:rgb(4.705882%,4.705882%,4.705882%);fill-opacity:1;" d="M 81.332031 100.984375 L 81.332031 104.777344 C 80.675781 104.382812 80.050781 104.085938 79.453125 103.882812 C 78.855469 103.691406 78.261719 103.59375 77.679688 103.59375 C 76.453125 103.59375 75.5 104.03125 74.816406 104.902344 C 74.132812 105.78125 73.730469 107.082031 73.609375 108.804688 C 74.09375 108.347656 74.609375 108.003906 75.160156 107.773438 C 75.707031 107.546875 76.300781 107.429688 76.941406 107.429688 C 78.574219 107.429688 79.890625 108.039062 80.894531 109.261719 C 81.890625 110.488281 82.390625 112.101562 82.390625 114.097656 C 82.390625 116.308594 81.832031 118.078125 80.722656 119.40625 C 79.605469 120.734375 78.109375 121.398438 76.238281 121.398438 C 74.160156 121.398438 72.550781 120.496094 71.410156 118.691406 C 70.269531 116.886719 69.703125 114.332031 69.703125 111.035156 C 69.703125 107.640625 70.367188 104.976562 71.699219 103.03125 C 73.03125 101.097656 74.855469 100.132812 77.175781 100.132812 C 77.925781 100.132812 78.640625 100.203125 79.324219 100.351562 C 80.007812 100.488281 80.675781 100.699219 81.332031 100.984375 M 76.257812 110.867188 C 75.539062 110.867188 75 111.167969 74.636719 111.761719 C 74.273438 112.367188 74.089844 113.269531 74.089844 114.46875 C 74.089844 115.660156 74.273438 116.558594 74.636719 117.164062 C 75 117.769531 75.539062 118.074219 76.257812 118.074219 C 76.976562 118.074219 77.519531 117.769531 77.882812 117.164062 C 78.246094 116.558594 78.425781 115.660156 78.425781 114.46875 C 78.425781 113.269531 78.246094 112.367188 77.882812 111.761719 C 77.519531 111.167969 76.976562 110.867188 76.257812 110.867188 "/>
<path style=" stroke:none;fill-rule:evenodd;fill:rgb(0%,0%,0%);fill-opacity:1;" d="M 13.195312 33.296875 C 11.480469 33.296875 10.089844 35.53125 10.089844 38.28125 C 10.089844 40.625 12.914062 44.570312 12.804688 46.445312 C 11.898438 46.980469 9.097656 42.039062 7.648438 42.039062 C 5.9375 42.039062 4.546875 44.273438 4.546875 47.023438 C 4.546875 49.777344 5.9375 52.007812 7.648438 52.007812 C 9.136719 52.007812 11.683594 47.074219 12.804688 47.519531 L 10.921875 56.328125 L 15.4375 56.300781 C 15.4375 56.300781 13.460938 47.757812 13.457031 47.558594 L 13.492188 47.558594 L 13.492188 47.566406 C 14.589844 47.128906 17.226562 52.105469 18.699219 52.105469 C 20.414062 52.105469 21.804688 49.871094 21.804688 47.121094 C 21.804688 44.367188 20.414062 42.136719 18.699219 42.136719 C 17.257812 42.136719 14.644531 46.992188 13.5 46.492188 C 13.515625 44.574219 16.300781 40.625 16.300781 38.28125 C 16.300781 35.53125 14.910156 33.296875 13.195312 33.296875 Z M 13.195312 33.296875 "/>
<path style=" stroke:none;fill-rule:evenodd;fill:rgb(0%,0%,0%);fill-opacity:1;" d="M 75.800781 95.765625 C 77.515625 95.765625 78.90625 93.53125 78.90625 90.777344 C 78.90625 88.433594 76.082031 84.488281 76.191406 82.617188 C 77.097656 82.082031 79.898438 87.019531 81.347656 87.019531 C 83.0625 87.019531 84.453125 84.789062 84.453125 82.035156 C 84.453125 79.285156 83.0625 77.050781 81.347656 77.050781 C 79.859375 77.050781 77.3125 81.988281 76.191406 81.542969 L 78.074219 72.734375 L 73.558594 72.761719 C 73.558594 72.761719 75.539062 81.300781 75.539062 81.503906 L 75.503906 81.503906 L 75.503906 81.492188 C 74.40625 81.933594 71.773438 76.957031 70.296875 76.957031 C 68.582031 76.957031 67.191406 79.1875 67.191406 81.941406 C 67.191406 84.691406 68.582031 86.925781 70.296875 86.925781 C 71.738281 86.925781 74.351562 82.066406 75.5 82.570312 C 75.484375 84.488281 72.695312 88.4375 72.695312 90.777344 C 72.695312 93.53125 74.085938 95.765625 75.800781 95.765625 Z M 75.800781 95.765625 "/>
<path style=" stroke:none;fill-rule:evenodd;fill:rgb(0%,0%,0%);fill-opacity:1;" d="M 31.628906 24.632812 C 30.628906 24.632812 29.820312 25.945312 29.820312 27.5625 C 29.820312 28.9375 31.464844 31.257812 31.398438 32.359375 C 30.871094 32.671875 29.242188 29.769531 28.398438 29.769531 C 27.398438 29.769531 26.589844 31.082031 26.589844 32.699219 C 26.589844 34.316406 27.398438 35.628906 28.398438 35.628906 C 29.261719 35.628906 30.746094 32.726562 31.398438 32.988281 L 30.304688 38.164062 L 32.933594 38.148438 C 32.933594 38.148438 31.78125 33.128906 31.78125 33.011719 L 31.800781 33.011719 L 31.800781 33.015625 C 32.441406 32.761719 33.972656 35.683594 34.835938 35.683594 C 35.832031 35.683594 36.644531 34.371094 36.644531 32.753906 C 36.644531 31.136719 35.832031 29.824219 34.835938 29.824219 C 33.996094 29.824219 32.472656 32.679688 31.804688 32.386719 C 31.8125 31.257812 33.4375 28.9375 33.4375 27.5625 C 33.4375 25.945312 32.625 24.632812 31.628906 24.632812 Z M 31.628906 24.632812 "/>
<path style=" stroke:none;fill-rule:evenodd;fill:rgb(0%,0%,0%);fill-opacity:1;" d="M 44.484375 58.15625 C 43.488281 58.15625 42.675781 59.46875 42.675781 61.085938 C 42.675781 62.464844 44.320312 64.78125 44.257812 65.882812 C 43.730469 66.199219 42.097656 63.296875 41.253906 63.296875 C 40.253906 63.296875 39.445312 64.609375 39.445312 66.226562 C 39.445312 67.84375 40.253906 69.152344 41.253906 69.152344 C 42.121094 69.152344 43.605469 66.253906 44.257812 66.515625 L 43.160156 71.691406 L 45.789062 71.675781 C 45.789062 71.675781 44.636719 66.65625 44.636719 66.539062 L 44.65625 66.539062 L 44.65625 66.542969 C 45.296875 66.285156 46.832031 69.210938 47.691406 69.210938 C 48.691406 69.210938 49.5 67.898438 49.5 66.28125 C 49.5 64.664062 48.691406 63.351562 47.691406 63.351562 C 46.851562 63.351562 45.328125 66.207031 44.660156 65.910156 C 44.671875 64.785156 46.292969 62.464844 46.292969 61.085938 C 46.292969 59.46875 45.484375 58.15625 44.484375 58.15625 Z M 44.484375 58.15625 "/>
<path style=" stroke:none;fill-rule:evenodd;fill:rgb(0%,0%,0%);fill-opacity:1;" d="M 57.984375 24.78125 C 56.988281 24.78125 56.175781 26.09375 56.175781 27.710938 C 56.175781 29.089844 57.820312 31.40625 57.757812 32.507812 C 57.230469 32.824219 55.597656 29.917969 54.753906 29.917969 C 53.753906 29.917969 52.945312 31.230469 52.945312 32.847656 C 52.945312 34.464844 53.753906 35.777344 54.753906 35.777344 C 55.621094 35.777344 57.105469 32.878906 57.757812 33.140625 L 56.660156 38.316406 L 59.289062 38.300781 C 59.289062 38.300781 58.136719 33.28125 58.136719 33.160156 L 58.15625 33.160156 L 58.15625 33.167969 C 58.796875 32.910156 60.332031 35.835938 61.191406 35.835938 C 62.191406 35.835938 63 34.523438 63 32.90625 C 63 31.289062 62.191406 29.976562 61.191406 29.976562 C 60.351562 29.976562 58.828125 32.832031 58.160156 32.535156 C 58.171875 31.40625 59.792969 29.085938 59.792969 27.710938 C 59.792969 26.09375 58.984375 24.78125 57.984375 24.78125 Z M 57.984375 24.78125 "/>
<path style=" stroke:none;fill-rule:evenodd;fill:rgb(0%,0%,0%);fill-opacity:1;" d="M 31.394531 48.730469 C 30.398438 48.730469 29.585938 50.042969 29.585938 51.660156 C 29.585938 53.035156 31.230469 55.355469 31.167969 56.457031 C 30.640625 56.769531 29.007812 53.867188 28.164062 53.867188 C 27.167969 53.867188 26.355469 55.179688 26.355469 56.796875 C 26.355469 58.414062 27.167969 59.726562 28.164062 59.726562 C 29.03125 59.726562 30.515625 56.824219 31.167969 57.085938 L 30.070312 62.261719 L 32.703125 62.246094 C 32.703125 62.246094 31.550781 57.226562 31.546875 57.109375 L 31.570312 57.109375 L 31.570312 57.113281 C 32.207031 56.859375 33.742188 59.78125 34.601562 59.78125 C 35.601562 59.78125 36.410156 58.46875 36.410156 56.851562 C 36.410156 55.234375 35.601562 53.921875 34.601562 53.921875 C 33.761719 53.921875 32.242188 56.777344 31.574219 56.484375 C 31.582031 55.355469 33.203125 53.035156 33.203125 51.660156 C 33.203125 50.042969 32.394531 48.730469 31.394531 48.730469 Z M 31.394531 48.730469 "/>
<path style=" stroke:none;fill-rule:evenodd;fill:rgb(0%,0%,0%);fill-opacity:1;" d="M 56.699219 47.894531 C 55.699219 47.894531 54.890625 49.207031 54.890625 50.824219 C 54.890625 52.203125 56.535156 54.519531 56.472656 55.621094 C 55.941406 55.933594 54.3125 53.03125 53.46875 53.03125 C 52.46875 53.03125 51.660156 54.34375 51.660156 55.960938 C 51.660156 57.578125 52.46875 58.890625 53.46875 58.890625 C 54.335938 58.890625 55.820312 55.992188 56.472656 56.253906 L 55.375 61.429688 L 58.003906 61.410156 C 58.003906 61.410156 56.851562 56.394531 56.851562 56.273438 L 56.871094 56.273438 L 56.871094 56.28125 C 57.511719 56.023438 59.046875 58.945312 59.90625 58.945312 C 60.902344 58.945312 61.714844 57.632812 61.714844 56.015625 C 61.714844 54.398438 60.902344 53.089844 59.90625 53.089844 C 59.066406 53.089844 57.542969 55.941406 56.875 55.648438 C 56.882812 54.519531 58.507812 52.199219 58.507812 50.824219 C 58.507812 49.207031 57.699219 47.894531 56.699219 47.894531 Z M 56.699219 47.894531 "/>
<path style=" stroke:none;fill-rule:evenodd;fill:rgb(0%,0%,0%);fill-opacity:1;" d="M 30.960938 81.421875 C 31.960938 81.421875 32.769531 80.109375 32.769531 78.492188 C 32.769531 77.113281 31.125 74.796875 31.1875 73.695312 C 31.714844 73.378906 33.347656 76.285156 34.191406 76.285156 C 35.191406 76.285156 36 74.972656 36 73.355469 C 36 71.738281 35.191406 70.425781 34.191406 70.425781 C 33.324219 70.425781 31.839844 73.324219 31.1875 73.0625 L 32.285156 67.886719 L 29.65625 67.902344 C 29.65625 67.902344 30.808594 72.921875 30.808594 73.042969 L 30.789062 73.042969 L 30.789062 73.035156 C 30.148438 73.292969 28.613281 70.367188 27.753906 70.367188 C 26.753906 70.367188 25.945312 71.679688 25.945312 73.296875 C 25.945312 74.914062 26.753906 76.226562 27.753906 76.226562 C 28.59375 76.226562 30.117188 73.371094 30.785156 73.667969 C 30.773438 74.796875 29.152344 77.117188 29.152344 78.492188 C 29.152344 80.109375 29.960938 81.421875 30.960938 81.421875 Z M 30.960938 81.421875 "/>
<path style=" stroke:none;fill-rule:evenodd;fill:rgb(0%,0%,0%);fill-opacity:1;" d="M 57.730469 81.953125 C 58.726562 81.953125 59.539062 80.640625 59.539062 79.023438 C 59.539062 77.648438 57.894531 75.328125 57.957031 74.230469 C 58.484375 73.914062 60.117188 76.816406 60.960938 76.816406 C 61.957031 76.816406 62.769531 75.503906 62.769531 73.886719 C 62.769531 72.269531 61.957031 70.957031 60.960938 70.957031 C 60.09375 70.957031 58.609375 73.859375 57.957031 73.597656 L 59.054688 68.421875 L 56.421875 68.4375 C 56.421875 68.4375 57.574219 73.457031 57.578125 73.574219 L 57.558594 73.574219 L 57.558594 73.570312 C 56.917969 73.828125 55.382812 70.902344 54.523438 70.902344 C 53.523438 70.902344 52.714844 72.214844 52.714844 73.832031 C 52.714844 75.449219 53.523438 76.761719 54.523438 76.761719 C 55.363281 76.761719 56.886719 73.90625 57.554688 74.199219 C 57.542969 75.328125 55.921875 77.648438 55.921875 79.023438 C 55.921875 80.640625 56.730469 81.953125 57.730469 81.953125 Z M 57.730469 81.953125 "/>
<path style=" stroke:none;fill-rule:evenodd;fill:rgb(0%,0%,0%);fill-opacity:1;" d="M 57.960938 102.480469 C 58.960938 102.480469 59.769531 101.167969 59.769531 99.550781 C 59.769531 98.175781 58.125 95.855469 58.1875 94.753906 C 58.714844 94.441406 60.347656 97.34375 61.191406 97.34375 C 62.191406 97.34375 63 96.03125 63 94.414062 C 63 92.796875 62.191406 91.484375 61.191406 91.484375 C 60.324219 91.484375 58.839844 94.386719 58.1875 94.125 L 59.285156 88.949219 L 56.65625 88.964844 C 56.65625 88.964844 57.808594 93.984375 57.808594 94.101562 L 57.789062 94.101562 L 57.789062 94.09375 C 57.148438 94.351562 55.613281 91.429688 54.753906 91.429688 C 53.753906 91.429688 52.945312 92.742188 52.945312 94.359375 C 52.945312 95.976562 53.753906 97.289062 54.753906 97.289062 C 55.59375 97.289062 57.117188 94.433594 57.785156 94.726562 C 57.773438 95.855469 56.152344 98.175781 56.152344 99.550781 C 56.152344 101.167969 56.960938 102.480469 57.960938 102.480469 Z M 57.960938 102.480469 "/>
<path style=" stroke:none;fill-rule:evenodd;fill:rgb(0%,0%,0%);fill-opacity:1;" d="M 31.605469 102.480469 C 32.601562 102.480469 33.414062 101.167969 33.414062 99.550781 C 33.414062 98.175781 31.765625 95.855469 31.832031 94.753906 C 32.359375 94.441406 33.992188 97.34375 34.835938 97.34375 C 35.832031 97.34375 36.644531 96.03125 36.644531 94.414062 C 36.644531 92.796875 35.832031 91.484375 34.835938 91.484375 C 33.96875 91.484375 32.484375 94.386719 31.832031 94.125 L 32.929688 88.949219 L 30.296875 88.964844 C 30.296875 88.964844 31.449219 93.984375 31.453125 94.101562 L 31.429688 94.101562 L 31.429688 94.09375 C 30.792969 94.351562 29.257812 91.429688 28.398438 91.429688 C 27.398438 91.429688 26.589844 92.742188 26.589844 94.359375 C 26.589844 95.976562 27.398438 97.289062 28.398438 97.289062 C 29.238281 97.289062 30.757812 94.433594 31.425781 94.726562 C 31.417969 95.855469 29.796875 98.175781 29.796875 99.550781 C 29.796875 101.167969 30.605469 102.480469 31.605469 102.480469 Z M 31.605469 102.480469 "/>
</g>
</svg>
