<?xml version="1.0" encoding="UTF-8"?>
<svg xmlns="http://www.w3.org/2000/svg" xmlns:xlink="http://www.w3.org/1999/xlink" width="90px" height="130px" viewBox="0 0 90 130" version="1.1">
<g id="surface1">
<path style=" stroke:none;fill-rule:nonzero;fill:rgb(0%,0%,0%);fill-opacity:0.498039;" d="M 13.5 3.421875 L 79.714844 3.421875 C 85.414062 3.421875 90 8.304688 90 14.367188 L 90 119.050781 C 90 125.117188 85.414062 130 79.714844 130 L 13.5 130 C 7.800781 130 3.214844 125.117188 3.214844 119.050781 L 3.214844 14.367188 C 3.214844 8.304688 7.800781 3.421875 13.5 3.421875 Z M 13.5 3.421875 "/>
<path style=" stroke:none;fill-rule:nonzero;fill:rgb(90.588236%,90.588236%,90.588236%);fill-opacity:1;" d="M 10.929688 0.683594 L 77.144531 0.683594 C 82.839844 0.683594 87.429688 5.566406 87.429688 11.632812 L 87.429688 116.316406 C 87.429688 122.378906 82.839844 127.261719 77.144531 127.261719 L 10.929688 127.261719 C 5.230469 127.261719 0.644531 122.378906 0.644531 116.316406 L 0.644531 11.632812 C 0.644531 5.566406 5.230469 0.683594 10.929688 0.683594 Z M 10.929688 0.683594 "/>
<path style=" stroke:none;fill-rule:nonzero;fill:rgb(78.039217%,53.725493%,12.156863%);fill-opacity:1;" d="M 12.214844 2.050781 L 78.429688 2.050781 C 84.125 2.050781 88.714844 6.933594 88.714844 13 L 88.714844 117.683594 C 88.714844 123.75 84.125 128.632812 78.429688 128.632812 L 12.214844 128.632812 C 6.515625 128.632812 1.929688 123.75 1.929688 117.683594 L 1.929688 13 C 1.929688 6.933594 6.515625 2.050781 12.214844 2.050781 Z M 12.214844 2.050781 "/>
<path style=" stroke:none;fill-rule:nonzero;fill:rgb(100%,100%,100%);fill-opacity:1;" d="M 11.570312 1.367188 L 77.785156 1.367188 C 83.484375 1.367188 88.070312 6.25 88.070312 12.316406 L 88.070312 117 C 88.070312 123.066406 83.484375 127.949219 77.785156 127.949219 L 11.570312 127.949219 C 5.875 127.949219 1.285156 123.066406 1.285156 117 L 1.285156 12.316406 C 1.285156 6.25 5.875 1.367188 11.570312 1.367188 Z M 11.570312 1.367188 "/>
<path style=" stroke:none;fill-rule:nonzero;fill:rgb(100%,0%,0%);fill-opacity:1;" d="M 13.699219 18.601562 C 12.980469 18.601562 12.4375 18.90625 12.074219 19.511719 C 11.71875 20.105469 11.542969 21.003906 11.542969 22.203125 C 11.542969 23.40625 11.71875 24.308594 12.074219 24.914062 C 12.4375 25.507812 12.980469 25.808594 13.699219 25.808594 C 14.425781 25.808594 14.964844 25.507812 15.320312 24.914062 C 15.683594 24.308594 15.867188 23.40625 15.867188 22.203125 C 15.867188 21.003906 15.683594 20.105469 15.320312 19.511719 C 14.964844 18.90625 14.425781 18.601562 13.699219 18.601562 M 18.78125 8.746094 L 18.78125 12.539062 C 18.105469 12.128906 17.46875 11.824219 16.871094 11.632812 C 16.273438 11.429688 15.6875 11.332031 15.117188 11.332031 C 13.894531 11.332031 12.941406 11.769531 12.257812 12.648438 C 11.574219 13.519531 11.175781 14.816406 11.0625 16.539062 C 11.53125 16.089844 12.039062 15.757812 12.589844 15.535156 C 13.136719 15.308594 13.734375 15.191406 14.382812 15.191406 C 16.011719 15.191406 17.328125 15.808594 18.324219 17.035156 C 19.328125 18.265625 19.828125 19.871094 19.828125 21.859375 C 19.828125 24.0625 19.269531 25.824219 18.152344 27.152344 C 17.035156 28.472656 15.535156 29.132812 13.65625 29.132812 C 11.582031 29.132812 9.976562 28.234375 8.839844 26.4375 C 7.707031 24.632812 7.140625 22.078125 7.140625 18.769531 C 7.140625 15.375 7.804688 12.714844 9.128906 10.78125 C 10.460938 8.835938 12.28125 7.867188 14.597656 7.867188 C 15.328125 7.867188 16.042969 7.9375 16.730469 8.085938 C 17.421875 8.230469 18.105469 8.453125 18.78125 8.746094 "/>
<path style=" stroke:none;fill-rule:evenodd;fill:rgb(100%,0%,0%);fill-opacity:1;" d="M 8.710938 33.421875 C 8.195312 33.425781 7.628906 33.558594 7 33.859375 C 0.160156 39.472656 9.382812 48.519531 13.277344 56.289062 L 13.390625 56.328125 C 17.671875 47.835938 25.820312 38.492188 19.59375 33.859375 C 14.660156 31.492188 13.34375 39.375 13.296875 39.65625 C 13.257812 39.410156 12.25 33.394531 8.710938 33.421875 Z M 8.710938 33.421875 "/>
<path style=" stroke:none;fill-rule:nonzero;fill:rgb(100%,0%,0%);fill-opacity:1;" d="M 75.570312 110.710938 C 76.292969 110.710938 76.832031 110.410156 77.195312 109.804688 C 77.550781 109.210938 77.730469 108.3125 77.730469 107.109375 C 77.730469 105.910156 77.550781 105.007812 77.195312 104.402344 C 76.832031 103.808594 76.292969 103.507812 75.570312 103.507812 C 74.847656 103.507812 74.304688 103.808594 73.949219 104.402344 C 73.585938 105.007812 73.402344 105.910156 73.402344 107.109375 C 73.402344 108.3125 73.585938 109.210938 73.949219 109.804688 C 74.304688 110.410156 74.847656 110.710938 75.570312 110.710938 M 70.488281 120.570312 L 70.488281 116.777344 C 71.164062 117.1875 71.800781 117.492188 72.398438 117.683594 C 73 117.886719 73.582031 117.984375 74.152344 117.984375 C 75.375 117.984375 76.332031 117.546875 77.015625 116.664062 C 77.699219 115.796875 78.097656 114.5 78.210938 112.773438 C 77.738281 113.222656 77.230469 113.558594 76.683594 113.777344 C 76.132812 114.007812 75.535156 114.121094 74.886719 114.121094 C 73.257812 114.121094 71.945312 113.507812 70.949219 112.28125 C 69.945312 111.050781 69.441406 109.445312 69.441406 107.453125 C 69.441406 105.253906 70 103.492188 71.117188 102.160156 C 72.238281 100.839844 73.734375 100.183594 75.613281 100.183594 C 77.6875 100.183594 79.292969 101.078125 80.429688 102.875 C 81.5625 104.683594 82.128906 107.238281 82.128906 110.546875 C 82.128906 113.9375 81.46875 116.601562 80.144531 118.535156 C 78.8125 120.480469 76.988281 121.449219 74.675781 121.449219 C 73.941406 121.449219 73.230469 121.375 72.539062 121.230469 C 71.847656 121.082031 71.164062 120.863281 70.488281 120.570312 "/>
<path style=" stroke:none;fill-rule:evenodd;fill:rgb(100%,0%,0%);fill-opacity:1;" d="M 80.558594 95.785156 C 81.074219 95.78125 81.640625 95.648438 82.269531 95.347656 C 89.113281 89.734375 79.886719 80.6875 75.992188 72.917969 L 75.878906 72.878906 C 71.597656 81.371094 63.449219 90.714844 69.675781 95.347656 C 74.609375 97.714844 75.925781 89.832031 75.972656 89.550781 C 76.011719 89.796875 77.019531 95.8125 80.558594 95.785156 Z M 80.558594 95.785156 "/>
<path style=" stroke:none;fill-rule:evenodd;fill:rgb(100%,0%,0%);fill-opacity:1;" d="M 30.292969 30.792969 C 29.996094 30.792969 29.664062 30.875 29.300781 31.050781 C 25.324219 34.367188 30.683594 39.710938 32.945312 44.300781 L 33.011719 44.324219 C 35.5 39.308594 40.230469 33.785156 36.613281 31.050781 C 33.75 29.652344 32.984375 34.308594 32.957031 34.476562 C 32.933594 34.328125 32.351562 30.777344 30.292969 30.792969 Z M 30.292969 30.792969 "/>
<path style=" stroke:none;fill-rule:evenodd;fill:rgb(100%,0%,0%);fill-opacity:1;" d="M 53.4375 30.941406 C 53.136719 30.945312 52.808594 31.023438 52.441406 31.203125 C 48.46875 34.515625 53.828125 39.859375 56.089844 44.449219 L 56.15625 44.472656 C 58.640625 39.457031 63.375 33.9375 59.757812 31.203125 C 56.890625 29.804688 56.128906 34.457031 56.101562 34.625 C 56.078125 34.480469 55.492188 30.925781 53.4375 30.941406 Z M 53.4375 30.941406 "/>
<path style=" stroke:none;fill-rule:evenodd;fill:rgb(100%,0%,0%);fill-opacity:1;" d="M 30.292969 55.574219 C 29.996094 55.574219 29.664062 55.65625 29.300781 55.832031 C 25.324219 59.148438 30.683594 64.492188 32.945312 69.082031 L 33.011719 69.105469 C 35.5 64.089844 40.230469 58.570312 36.613281 55.832031 C 33.75 54.433594 32.984375 59.089844 32.957031 59.257812 C 32.933594 59.113281 32.351562 55.558594 30.292969 55.574219 Z M 30.292969 55.574219 "/>
<path style=" stroke:none;fill-rule:evenodd;fill:rgb(100%,0%,0%);fill-opacity:1;" d="M 58.421875 69.101562 C 58.71875 69.101562 59.050781 69.023438 59.414062 68.84375 C 63.386719 65.527344 58.03125 60.183594 55.769531 55.59375 L 55.703125 55.570312 C 53.214844 60.589844 48.484375 66.109375 52.097656 68.84375 C 54.964844 70.242188 55.730469 65.585938 55.757812 65.417969 C 55.78125 65.566406 56.363281 69.117188 58.421875 69.101562 Z M 58.421875 69.101562 "/>
<path style=" stroke:none;fill-rule:evenodd;fill:rgb(100%,0%,0%);fill-opacity:1;" d="M 36.792969 97.003906 C 37.09375 97.003906 37.421875 96.921875 37.789062 96.746094 C 41.761719 93.429688 36.40625 88.085938 34.140625 83.496094 L 34.078125 83.472656 C 31.589844 88.488281 26.855469 94.011719 30.472656 96.746094 C 33.339844 98.144531 34.105469 93.488281 34.132812 93.320312 C 34.15625 93.46875 34.738281 97.019531 36.792969 97.003906 Z M 36.792969 97.003906 "/>
<path style=" stroke:none;fill-rule:evenodd;fill:rgb(100%,0%,0%);fill-opacity:1;" d="M 59.292969 97.003906 C 59.59375 97.003906 59.921875 96.921875 60.289062 96.746094 C 64.261719 93.429688 58.90625 88.085938 56.640625 83.496094 L 56.578125 83.472656 C 54.089844 88.488281 49.355469 94.011719 52.972656 96.746094 C 55.839844 98.144531 56.605469 93.488281 56.632812 93.320312 C 56.65625 93.46875 57.238281 97.019531 59.292969 97.003906 Z M 59.292969 97.003906 "/>
</g>
</svg>
