<?xml version="1.0" encoding="UTF-8"?>
<svg xmlns="http://www.w3.org/2000/svg" xmlns:xlink="http://www.w3.org/1999/xlink" width="90px" height="130px" viewBox="0 0 90 130" version="1.1">
<g id="surface1">
<path style=" stroke:none;fill-rule:nonzero;fill:rgb(0%,0%,0%);fill-opacity:0.498039;" d="M 13.5 3.421875 L 79.714844 3.421875 C 85.414062 3.421875 90 8.304688 90 14.367188 L 90 119.050781 C 90 125.117188 85.414062 130 79.714844 130 L 13.5 130 C 7.800781 130 3.214844 125.117188 3.214844 119.050781 L 3.214844 14.367188 C 3.214844 8.304688 7.800781 3.421875 13.5 3.421875 Z M 13.5 3.421875 "/>
<path style=" stroke:none;fill-rule:nonzero;fill:rgb(90.588236%,90.588236%,90.588236%);fill-opacity:1;" d="M 10.929688 0.683594 L 77.144531 0.683594 C 82.839844 0.683594 87.429688 5.566406 87.429688 11.632812 L 87.429688 116.316406 C 87.429688 122.378906 82.839844 127.261719 77.144531 127.261719 L 10.929688 127.261719 C 5.230469 127.261719 0.644531 122.378906 0.644531 116.316406 L 0.644531 11.632812 C 0.644531 5.566406 5.230469 0.683594 10.929688 0.683594 Z M 10.929688 0.683594 "/>
<path style=" stroke:none;fill-rule:nonzero;fill:rgb(78.039217%,53.725493%,12.156863%);fill-opacity:1;" d="M 12.214844 2.050781 L 78.429688 2.050781 C 84.125 2.050781 88.714844 6.933594 88.714844 13 L 88.714844 117.683594 C 88.714844 123.75 84.125 128.632812 78.429688 128.632812 L 12.214844 128.632812 C 6.515625 128.632812 1.929688 123.75 1.929688 117.683594 L 1.929688 13 C 1.929688 6.933594 6.515625 2.050781 12.214844 2.050781 Z M 12.214844 2.050781 "/>
<path style=" stroke:none;fill-rule:nonzero;fill:rgb(100%,100%,100%);fill-opacity:1;" d="M 11.570312 1.367188 L 77.785156 1.367188 C 83.484375 1.367188 88.070312 6.25 88.070312 12.316406 L 88.070312 117 C 88.070312 123.066406 83.484375 127.949219 77.785156 127.949219 L 11.570312 127.949219 C 5.875 127.949219 1.285156 123.066406 1.285156 117 L 1.285156 12.316406 C 1.285156 6.25 5.875 1.367188 11.570312 1.367188 Z M 11.570312 1.367188 "/>
<path style=" stroke:none;fill-rule:nonzero;fill:rgb(100%,0%,0%);fill-opacity:1;" d="M 13.683594 12.730469 L 9.175781 21.324219 L 13.683594 21.324219 L 13.683594 12.730469 M 13 8.375 L 17.570312 8.375 L 17.570312 21.324219 L 19.84375 21.324219 L 19.84375 25.160156 L 17.570312 25.160156 L 17.570312 28.898438 L 13.683594 28.898438 L 13.683594 25.160156 L 6.613281 25.160156 L 6.613281 20.625 L 13 8.375 "/>
<path style=" stroke:none;fill-rule:nonzero;fill:rgb(100%,0%,0%);fill-opacity:1;" d="M 75.46875 116.679688 L 79.976562 108.085938 L 75.46875 108.085938 L 75.46875 116.679688 M 76.152344 121.035156 L 71.582031 121.035156 L 71.582031 108.085938 L 69.304688 108.085938 L 69.304688 104.25 L 71.582031 104.25 L 71.582031 100.511719 L 75.46875 100.511719 L 75.46875 104.25 L 82.539062 104.25 L 82.539062 108.789062 L 76.152344 121.035156 "/>
<path style=" stroke:none;fill-rule:evenodd;fill:rgb(100%,0%,0%);fill-opacity:1;" d="M 13.121094 33.296875 C 10.46875 38.9375 8.535156 41.847656 4.546875 44.957031 C 8.320312 48.027344 10.980469 51.199219 13.199219 56.328125 C 15.175781 51.457031 17.597656 47.824219 21.804688 44.804688 C 17.574219 42.511719 15.125 38.882812 13.121094 33.296875 Z M 13.121094 33.296875 "/>
<path style=" stroke:none;fill-rule:evenodd;fill:rgb(100%,0%,0%);fill-opacity:1;" d="M 32.871094 30.789062 C 31.324219 34.105469 30.199219 35.816406 27.875 37.640625 C 30.074219 39.445312 31.625 41.308594 32.914062 44.324219 C 34.066406 41.460938 35.476562 39.324219 37.929688 37.550781 C 35.464844 36.203125 34.035156 34.070312 32.871094 30.789062 Z M 32.871094 30.789062 "/>
<path style=" stroke:none;fill-rule:evenodd;fill:rgb(100%,0%,0%);fill-opacity:1;" d="M 56.011719 30.789062 C 54.46875 34.105469 53.339844 35.816406 51.015625 37.640625 C 53.214844 39.445312 54.765625 41.308594 56.058594 44.324219 C 57.210938 41.460938 58.621094 39.324219 61.070312 37.550781 C 58.605469 36.203125 57.179688 34.070312 56.011719 30.789062 Z M 56.011719 30.789062 "/>
<path style=" stroke:none;fill-rule:evenodd;fill:rgb(100%,0%,0%);fill-opacity:1;" d="M 34.15625 83.625 C 32.609375 86.941406 31.484375 88.648438 29.160156 90.476562 C 31.359375 92.28125 32.910156 94.144531 34.199219 97.15625 C 35.351562 94.292969 36.765625 92.160156 39.214844 90.386719 C 36.75 89.039062 35.324219 86.90625 34.15625 83.625 Z M 34.15625 83.625 "/>
<path style=" stroke:none;fill-rule:evenodd;fill:rgb(100%,0%,0%);fill-opacity:1;" d="M 56.65625 83.625 C 55.109375 86.941406 53.984375 88.648438 51.660156 90.476562 C 53.859375 92.28125 55.410156 94.144531 56.699219 97.15625 C 57.851562 94.292969 59.265625 92.160156 61.714844 90.386719 C 59.25 89.039062 57.824219 86.90625 56.65625 83.625 Z M 56.65625 83.625 "/>
<path style=" stroke:none;fill-rule:evenodd;fill:rgb(100%,0%,0%);fill-opacity:1;" d="M 76.074219 72.757812 C 73.421875 78.402344 71.488281 81.308594 67.5 84.417969 C 71.273438 87.488281 73.9375 90.660156 76.152344 95.789062 C 78.132812 90.917969 80.554688 87.285156 84.761719 84.265625 C 80.53125 81.972656 78.078125 78.34375 76.074219 72.757812 Z M 76.074219 72.757812 "/>
</g>
</svg>
