<?xml version="1.0" encoding="UTF-8"?>
<svg xmlns="http://www.w3.org/2000/svg" xmlns:xlink="http://www.w3.org/1999/xlink" width="90px" height="130px" viewBox="0 0 90 130" version="1.1">
<g id="surface1">
<path style=" stroke:none;fill-rule:nonzero;fill:rgb(0%,0%,0%);fill-opacity:0.498039;" d="M 13.5 3.421875 L 79.714844 3.421875 C 85.414062 3.421875 90 8.304688 90 14.367188 L 90 119.050781 C 90 125.117188 85.414062 130 79.714844 130 L 13.5 130 C 7.800781 130 3.214844 125.117188 3.214844 119.050781 L 3.214844 14.367188 C 3.214844 8.304688 7.800781 3.421875 13.5 3.421875 Z M 13.5 3.421875 "/>
<path style=" stroke:none;fill-rule:nonzero;fill:rgb(90.588236%,90.588236%,90.588236%);fill-opacity:1;" d="M 10.929688 0.683594 L 77.144531 0.683594 C 82.839844 0.683594 87.429688 5.566406 87.429688 11.632812 L 87.429688 116.316406 C 87.429688 122.378906 82.839844 127.261719 77.144531 127.261719 L 10.929688 127.261719 C 5.230469 127.261719 0.644531 122.378906 0.644531 116.316406 L 0.644531 11.632812 C 0.644531 5.566406 5.230469 0.683594 10.929688 0.683594 Z M 10.929688 0.683594 "/>
<path style=" stroke:none;fill-rule:nonzero;fill:rgb(78.039217%,53.725493%,12.156863%);fill-opacity:1;" d="M 12.214844 2.050781 L 78.429688 2.050781 C 84.125 2.050781 88.714844 6.933594 88.714844 13 L 88.714844 117.683594 C 88.714844 123.75 84.125 128.632812 78.429688 128.632812 L 12.214844 128.632812 C 6.515625 128.632812 1.929688 123.75 1.929688 117.683594 L 1.929688 13 C 1.929688 6.933594 6.515625 2.050781 12.214844 2.050781 Z M 12.214844 2.050781 "/>
<path style=" stroke:none;fill-rule:nonzero;fill:rgb(100%,100%,100%);fill-opacity:1;" d="M 11.570312 1.367188 L 77.785156 1.367188 C 83.484375 1.367188 88.070312 6.25 88.070312 12.316406 L 88.070312 117 C 88.070312 123.066406 83.484375 127.949219 77.785156 127.949219 L 11.570312 127.949219 C 5.875 127.949219 1.285156 123.066406 1.285156 117 L 1.285156 12.316406 C 1.285156 6.25 5.875 1.367188 11.570312 1.367188 Z M 11.570312 1.367188 "/>
<path style=" stroke:none;fill-rule:evenodd;fill:rgb(0%,0%,0%);fill-opacity:1;" d="M 56.054688 30.789062 C 55.058594 30.789062 54.246094 32.101562 54.246094 33.71875 C 54.246094 35.097656 55.890625 37.414062 55.828125 38.515625 C 55.300781 38.828125 53.667969 35.925781 52.824219 35.925781 C 51.828125 35.925781 51.015625 37.238281 51.015625 38.855469 C 51.015625 40.472656 51.828125 41.785156 52.824219 41.785156 C 53.691406 41.785156 55.175781 38.886719 55.828125 39.148438 L 54.730469 44.324219 L 57.363281 44.304688 C 57.363281 44.304688 56.210938 39.289062 56.207031 39.167969 L 56.230469 39.167969 L 56.230469 39.175781 C 56.867188 38.917969 58.402344 41.839844 59.261719 41.839844 C 60.261719 41.839844 61.070312 40.53125 61.070312 38.914062 C 61.070312 37.296875 60.261719 35.984375 59.261719 35.984375 C 58.421875 35.984375 56.902344 38.835938 56.230469 38.542969 C 56.242188 37.414062 57.863281 35.09375 57.863281 33.71875 C 57.863281 32.101562 57.054688 30.789062 56.054688 30.789062 Z M 56.054688 30.789062 "/>
<path style=" stroke:none;fill-rule:evenodd;fill:rgb(0%,0%,0%);fill-opacity:1;" d="M 34.175781 97.15625 C 35.171875 97.15625 35.984375 95.847656 35.984375 94.230469 C 35.984375 92.851562 34.339844 90.53125 34.402344 89.433594 C 34.929688 89.117188 36.5625 92.019531 37.40625 92.019531 C 38.402344 92.019531 39.214844 90.707031 39.214844 89.089844 C 39.214844 87.472656 38.402344 86.160156 37.40625 86.160156 C 36.539062 86.160156 35.054688 89.0625 34.402344 88.800781 L 35.5 83.625 L 32.871094 83.640625 C 32.871094 83.640625 34.023438 88.660156 34.023438 88.777344 L 34.003906 88.777344 L 34.003906 88.773438 C 33.363281 89.03125 31.828125 86.105469 30.96875 86.105469 C 29.96875 86.105469 29.160156 87.417969 29.160156 89.035156 C 29.160156 90.652344 29.96875 91.964844 30.96875 91.964844 C 31.808594 91.964844 33.332031 89.109375 34 89.402344 C 33.988281 90.53125 32.367188 92.851562 32.367188 94.230469 C 32.367188 95.847656 33.175781 97.15625 34.175781 97.15625 Z M 34.175781 97.15625 "/>
<path style=" stroke:none;fill-rule:evenodd;fill:rgb(0%,0%,0%);fill-opacity:1;" d="M 13.195312 33.296875 C 11.480469 33.296875 10.089844 35.53125 10.089844 38.28125 C 10.089844 40.625 12.914062 44.570312 12.804688 46.445312 C 11.898438 46.980469 9.097656 42.039062 7.648438 42.039062 C 5.9375 42.039062 4.546875 44.273438 4.546875 47.023438 C 4.546875 49.777344 5.9375 52.007812 7.648438 52.007812 C 9.136719 52.007812 11.683594 47.074219 12.804688 47.519531 L 10.921875 56.328125 L 15.4375 56.300781 C 15.4375 56.300781 13.460938 47.757812 13.457031 47.558594 L 13.492188 47.558594 L 13.492188 47.566406 C 14.589844 47.128906 17.226562 52.105469 18.699219 52.105469 C 20.414062 52.105469 21.804688 49.871094 21.804688 47.121094 C 21.804688 44.367188 20.414062 42.136719 18.699219 42.136719 C 17.257812 42.136719 14.644531 46.992188 13.5 46.492188 C 13.515625 44.574219 16.300781 40.625 16.300781 38.28125 C 16.300781 35.53125 14.910156 33.296875 13.195312 33.296875 Z M 13.195312 33.296875 "/>
<path style=" stroke:none;fill-rule:nonzero;fill:rgb(0%,0%,0%);fill-opacity:1;" d="M 13.683594 12.730469 L 9.175781 21.324219 L 13.683594 21.324219 L 13.683594 12.730469 M 13 8.375 L 17.570312 8.375 L 17.570312 21.324219 L 19.84375 21.324219 L 19.84375 25.160156 L 17.570312 25.160156 L 17.570312 28.898438 L 13.683594 28.898438 L 13.683594 25.160156 L 6.613281 25.160156 L 6.613281 20.625 L 13 8.375 "/>
<path style=" stroke:none;fill-rule:evenodd;fill:rgb(0%,0%,0%);fill-opacity:1;" d="M 75.484375 95.765625 C 77.195312 95.765625 78.589844 93.53125 78.589844 90.777344 C 78.589844 88.433594 75.765625 84.488281 75.875 82.617188 C 76.78125 82.082031 79.582031 87.019531 81.03125 87.019531 C 82.742188 87.019531 84.132812 84.789062 84.132812 82.035156 C 84.132812 79.285156 82.742188 77.050781 81.03125 77.050781 C 79.542969 77.050781 76.996094 81.988281 75.875 81.542969 L 77.757812 72.734375 L 73.242188 72.761719 C 73.242188 72.761719 75.21875 81.300781 75.222656 81.503906 L 75.1875 81.503906 L 75.1875 81.492188 C 74.089844 81.933594 71.453125 76.957031 69.976562 76.957031 C 68.265625 76.957031 66.875 79.1875 66.875 81.941406 C 66.875 84.691406 68.265625 86.925781 69.976562 86.925781 C 71.421875 86.925781 74.035156 82.066406 75.179688 82.570312 C 75.164062 84.488281 72.378906 88.4375 72.378906 90.777344 C 72.378906 93.53125 73.769531 95.765625 75.484375 95.765625 Z M 75.484375 95.765625 "/>
<path style=" stroke:none;fill-rule:nonzero;fill:rgb(0%,0%,0%);fill-opacity:1;" d="M 75.46875 116.679688 L 79.976562 108.085938 L 75.46875 108.085938 L 75.46875 116.679688 M 76.152344 121.035156 L 71.582031 121.035156 L 71.582031 108.085938 L 69.304688 108.085938 L 69.304688 104.25 L 71.582031 104.25 L 71.582031 100.511719 L 75.46875 100.511719 L 75.46875 104.25 L 82.539062 104.25 L 82.539062 108.789062 L 76.152344 121.035156 "/>
<path style=" stroke:none;fill-rule:evenodd;fill:rgb(0%,0%,0%);fill-opacity:1;" d="M 32.914062 30.789062 C 31.914062 30.789062 31.105469 32.101562 31.105469 33.71875 C 31.105469 35.097656 32.75 37.414062 32.6875 38.515625 C 32.15625 38.828125 30.527344 35.925781 29.683594 35.925781 C 28.683594 35.925781 27.875 37.238281 27.875 38.855469 C 27.875 40.472656 28.683594 41.785156 29.683594 41.785156 C 30.550781 41.785156 32.03125 38.886719 32.6875 39.148438 L 31.589844 44.324219 L 34.21875 44.304688 C 34.21875 44.304688 33.066406 39.289062 33.066406 39.167969 L 33.085938 39.167969 L 33.085938 39.175781 C 33.726562 38.917969 35.261719 41.839844 36.121094 41.839844 C 37.117188 41.839844 37.929688 40.53125 37.929688 38.914062 C 37.929688 37.296875 37.117188 35.984375 36.121094 35.984375 C 35.28125 35.984375 33.757812 38.835938 33.089844 38.542969 C 33.097656 37.414062 34.722656 35.09375 34.722656 33.71875 C 34.722656 32.101562 33.910156 30.789062 32.914062 30.789062 Z M 32.914062 30.789062 "/>
<path style=" stroke:none;fill-rule:evenodd;fill:rgb(0%,0%,0%);fill-opacity:1;" d="M 56.445312 97.007812 C 57.441406 97.007812 58.253906 95.695312 58.253906 94.078125 C 58.253906 92.699219 56.609375 90.382812 56.671875 89.28125 C 57.199219 88.96875 58.832031 91.871094 59.675781 91.871094 C 60.671875 91.871094 61.484375 90.558594 61.484375 88.941406 C 61.484375 87.324219 60.671875 86.011719 59.675781 86.011719 C 58.808594 86.011719 57.324219 88.910156 56.671875 88.648438 L 57.769531 83.472656 L 55.136719 83.492188 C 55.136719 83.492188 56.289062 88.507812 56.292969 88.628906 L 56.269531 88.628906 L 56.269531 88.621094 C 55.632812 88.878906 54.097656 85.957031 53.238281 85.957031 C 52.238281 85.957031 51.429688 87.265625 51.429688 88.882812 C 51.429688 90.5 52.238281 91.8125 53.238281 91.8125 C 54.078125 91.8125 55.597656 88.960938 56.269531 89.253906 C 56.257812 90.382812 54.636719 92.703125 54.636719 94.078125 C 54.636719 95.695312 55.445312 97.007812 56.445312 97.007812 Z M 56.445312 97.007812 "/>
</g>
</svg>
