<?xml version="1.0" encoding="UTF-8"?>
<svg xmlns="http://www.w3.org/2000/svg" xmlns:xlink="http://www.w3.org/1999/xlink" width="90px" height="130px" viewBox="0 0 90 130" version="1.1">
<g id="surface1">
<path style=" stroke:none;fill-rule:nonzero;fill:rgb(0%,0%,0%);fill-opacity:0.498039;" d="M 13.5 3.421875 L 79.714844 3.421875 C 85.414062 3.421875 90 8.304688 90 14.367188 L 90 119.050781 C 90 125.117188 85.414062 130 79.714844 130 L 13.5 130 C 7.800781 130 3.214844 125.117188 3.214844 119.050781 L 3.214844 14.367188 C 3.214844 8.304688 7.800781 3.421875 13.5 3.421875 Z M 13.5 3.421875 "/>
<path style=" stroke:none;fill-rule:nonzero;fill:rgb(90.588236%,90.588236%,90.588236%);fill-opacity:1;" d="M 10.929688 0.683594 L 77.144531 0.683594 C 82.839844 0.683594 87.429688 5.566406 87.429688 11.632812 L 87.429688 116.316406 C 87.429688 122.378906 82.839844 127.261719 77.144531 127.261719 L 10.929688 127.261719 C 5.230469 127.261719 0.644531 122.378906 0.644531 116.316406 L 0.644531 11.632812 C 0.644531 5.566406 5.230469 0.683594 10.929688 0.683594 Z M 10.929688 0.683594 "/>
<path style=" stroke:none;fill-rule:nonzero;fill:rgb(78.039217%,53.725493%,12.156863%);fill-opacity:1;" d="M 12.214844 2.050781 L 78.429688 2.050781 C 84.125 2.050781 88.714844 6.933594 88.714844 13 L 88.714844 117.683594 C 88.714844 123.75 84.125 128.632812 78.429688 128.632812 L 12.214844 128.632812 C 6.515625 128.632812 1.929688 123.75 1.929688 117.683594 L 1.929688 13 C 1.929688 6.933594 6.515625 2.050781 12.214844 2.050781 Z M 12.214844 2.050781 "/>
<path style=" stroke:none;fill-rule:nonzero;fill:rgb(100%,100%,100%);fill-opacity:1;" d="M 11.570312 1.367188 L 77.785156 1.367188 C 83.484375 1.367188 88.070312 6.25 88.070312 12.316406 L 88.070312 117 C 88.070312 123.066406 83.484375 127.949219 77.785156 127.949219 L 11.570312 127.949219 C 5.875 127.949219 1.285156 123.066406 1.285156 117 L 1.285156 12.316406 C 1.285156 6.25 5.875 1.367188 11.570312 1.367188 Z M 11.570312 1.367188 "/>
<path style=" stroke:none;fill-rule:evenodd;fill:rgb(0%,0%,0%);fill-opacity:1;" d="M 13.5625 33.296875 C 10.394531 38.652344 0.679688 47.765625 6.835938 50.582031 C 10.570312 51.878906 12.347656 49.226562 13.101562 47.46875 L 13.25 47.46875 L 10.769531 56.328125 L 16.515625 56.300781 C 16.515625 56.300781 14.042969 47.785156 14.035156 47.460938 L 14.097656 47.460938 C 14.703125 48.894531 17.011719 51.867188 19.550781 50.734375 C 26.972656 47.5625 16.042969 38.539062 13.5625 33.296875 Z M 13.5625 33.296875 "/>
<path style=" stroke:none;fill-rule:nonzero;fill:rgb(0%,0%,0%);fill-opacity:1;" d="M 16.121094 25.160156 L 9.691406 25.160156 L 8.679688 28.902344 L 4.546875 28.902344 L 10.449219 8.375 L 15.351562 8.375 L 21.257812 28.902344 L 17.125 28.902344 L 16.121094 25.160156 M 10.71875 21.351562 L 15.085938 21.351562 L 12.90625 13.1875 L 10.71875 21.351562 "/>
<path style=" stroke:none;fill-rule:evenodd;fill:rgb(0%,0%,0%);fill-opacity:1;" d="M 75.597656 95.789062 C 78.761719 90.4375 88.476562 81.320312 82.324219 78.503906 C 78.585938 77.207031 76.808594 79.859375 76.058594 81.617188 L 75.90625 81.617188 L 78.386719 72.757812 L 72.640625 72.785156 C 72.640625 72.785156 75.117188 81.300781 75.121094 81.625 L 75.0625 81.625 C 74.453125 80.191406 72.144531 77.21875 69.609375 78.351562 C 62.183594 81.523438 73.113281 90.546875 75.597656 95.789062 Z M 75.597656 95.789062 "/>
<path style=" stroke:none;fill-rule:nonzero;fill:rgb(0%,0%,0%);fill-opacity:1;" d="M 73.035156 104.066406 L 79.464844 104.066406 L 80.480469 100.324219 L 84.613281 100.324219 L 78.707031 120.851562 L 73.804688 120.851562 L 67.898438 100.324219 L 72.03125 100.324219 L 73.035156 104.066406 M 78.441406 107.875 L 74.070312 107.875 L 76.25 116.039062 L 78.441406 107.875 "/>
<path style=" stroke:none;fill-rule:evenodd;fill:rgb(0%,0%,0%);fill-opacity:1;" d="M 44.859375 40.410156 C 38.0625 51.914062 17.199219 71.503906 30.414062 77.550781 C 38.4375 80.335938 42.257812 74.632812 43.875 70.859375 L 44.195312 70.859375 L 38.871094 89.886719 L 51.207031 89.84375 C 51.207031 89.84375 45.894531 71.539062 45.882812 70.835938 L 46.003906 70.835938 C 47.308594 73.921875 52.265625 80.300781 57.714844 77.871094 C 73.65625 71.058594 50.191406 51.675781 44.859375 40.410156 Z M 38.332031 50.953125 L 42.167969 50.953125 L 47.027344 60.703125 L 47.027344 50.953125 L 50.304688 50.953125 L 50.304688 65.171875 L 46.445312 65.171875 L 41.585938 55.421875 L 41.585938 65.171875 L 38.332031 65.171875 Z M 42.550781 67.136719 L 42.929688 67.136719 L 42.929688 70.261719 L 42.550781 70.261719 Z M 43.773438 67.136719 L 44.175781 67.136719 L 44.175781 67.609375 L 43.773438 67.609375 Z M 28.96875 67.222656 C 29.421875 67.222656 29.78125 67.347656 30.054688 67.628906 C 30.324219 67.910156 30.457031 68.289062 30.457031 68.761719 C 30.457031 69.234375 30.324219 69.613281 30.054688 69.894531 C 29.78125 70.175781 29.421875 70.324219 28.96875 70.324219 C 28.515625 70.324219 28.136719 70.175781 27.863281 69.894531 C 27.59375 69.617188 27.460938 69.234375 27.460938 68.761719 C 27.460938 68.289062 27.59375 67.910156 27.863281 67.628906 C 28.136719 67.347656 28.515625 67.222656 28.96875 67.222656 Z M 40.863281 67.222656 C 41.054688 67.222656 41.234375 67.238281 41.402344 67.289062 C 41.574219 67.335938 41.738281 67.40625 41.886719 67.5 L 41.886719 67.929688 C 41.738281 67.800781 41.570312 67.714844 41.402344 67.652344 C 41.238281 67.589844 41.070312 67.542969 40.882812 67.542969 C 40.511719 67.542969 40.234375 67.65625 40.039062 67.863281 C 39.84375 68.074219 39.738281 68.367188 39.738281 68.761719 C 39.738281 69.15625 39.84375 69.472656 40.039062 69.683594 C 40.234375 69.890625 40.511719 69.980469 40.882812 69.980469 C 41.070312 69.980469 41.238281 69.960938 41.402344 69.894531 C 41.570312 69.832031 41.738281 69.746094 41.886719 69.617188 L 41.886719 70.023438 C 41.734375 70.121094 41.574219 70.191406 41.402344 70.238281 C 41.234375 70.285156 41.050781 70.324219 40.863281 70.324219 C 40.375 70.324219 39.976562 70.171875 39.695312 69.894531 C 39.414062 69.617188 39.273438 69.242188 39.273438 68.761719 C 39.273438 68.28125 39.414062 67.90625 39.695312 67.628906 C 39.976562 67.351562 40.375 67.222656 40.863281 67.222656 Z M 52.332031 67.375 L 52.734375 67.375 L 52.734375 68.015625 L 53.558594 68.015625 L 53.558594 68.3125 L 52.734375 68.3125 L 52.734375 69.53125 C 52.734375 69.714844 52.761719 69.824219 52.816406 69.875 C 52.871094 69.925781 52.992188 69.960938 53.15625 69.960938 L 53.558594 69.960938 L 53.558594 70.261719 L 53.15625 70.261719 C 52.847656 70.261719 52.628906 70.214844 52.511719 70.109375 C 52.398438 70.003906 52.332031 69.8125 52.332031 69.53125 L 52.332031 68.3125 L 52.050781 68.3125 L 52.050781 68.015625 L 52.332031 68.015625 Z M 28.96875 67.542969 C 28.652344 67.542969 28.394531 67.644531 28.207031 67.863281 C 28.019531 68.085938 27.925781 68.386719 27.925781 68.761719 C 27.925781 69.140625 28.019531 69.441406 28.207031 69.660156 C 28.394531 69.878906 28.652344 69.980469 28.96875 69.980469 C 29.285156 69.980469 29.527344 69.878906 29.710938 69.660156 C 29.898438 69.441406 29.992188 69.140625 29.992188 68.761719 C 29.992188 68.386719 29.898438 68.085938 29.710938 67.863281 C 29.527344 67.644531 29.285156 67.542969 28.96875 67.542969 Z M 32.285156 67.972656 C 32.578125 67.972656 32.804688 68.078125 32.988281 68.292969 C 33.171875 68.507812 33.269531 68.796875 33.269531 69.148438 C 33.269531 69.5 33.171875 69.785156 32.988281 70.003906 C 32.804688 70.21875 32.578125 70.324219 32.285156 70.324219 C 32.105469 70.324219 31.949219 70.28125 31.820312 70.21875 C 31.695312 70.152344 31.582031 70.050781 31.5 69.917969 L 31.5 71.113281 L 31.097656 71.113281 L 31.097656 68.015625 L 31.5 68.015625 L 31.5 68.355469 C 31.582031 68.222656 31.695312 68.121094 31.820312 68.058594 C 31.949219 67.992188 32.105469 67.972656 32.285156 67.972656 Z M 34.933594 67.972656 C 35.261719 67.972656 35.53125 68.054688 35.71875 68.25 C 35.910156 68.445312 36 68.707031 36 69.042969 L 36 69.234375 L 34.171875 69.234375 C 34.1875 69.488281 34.265625 69.675781 34.414062 69.8125 C 34.5625 69.941406 34.773438 70.003906 35.035156 70.003906 C 35.1875 70.003906 35.335938 69.996094 35.476562 69.960938 C 35.621094 69.925781 35.757812 69.859375 35.898438 69.789062 L 35.898438 70.152344 C 35.757812 70.210938 35.605469 70.25 35.457031 70.28125 C 35.308594 70.3125 35.167969 70.324219 35.015625 70.324219 C 34.628906 70.324219 34.316406 70.210938 34.089844 70.003906 C 33.867188 69.792969 33.75 69.523438 33.75 69.167969 C 33.75 68.800781 33.859375 68.507812 34.070312 68.292969 C 34.285156 68.078125 34.570312 67.972656 34.933594 67.972656 Z M 37.808594 67.972656 C 38.085938 67.972656 38.289062 68.046875 38.429688 68.207031 C 38.574219 68.367188 38.652344 68.601562 38.652344 68.914062 L 38.652344 70.261719 L 38.25 70.261719 L 38.25 68.914062 C 38.25 68.699219 38.21875 68.546875 38.128906 68.441406 C 38.039062 68.335938 37.90625 68.292969 37.726562 68.292969 C 37.511719 68.292969 37.328125 68.359375 37.207031 68.484375 C 37.082031 68.613281 37.023438 68.777344 37.023438 69 L 37.023438 70.261719 L 36.621094 70.261719 L 36.621094 68.015625 L 37.023438 68.015625 L 37.023438 68.355469 C 37.121094 68.222656 37.238281 68.125 37.367188 68.058594 C 37.496094 67.992188 37.640625 67.972656 37.808594 67.972656 Z M 46.164062 67.972656 C 46.460938 67.972656 46.683594 68.078125 46.867188 68.292969 C 47.050781 68.507812 47.148438 68.796875 47.148438 69.148438 C 47.148438 69.5 47.050781 69.785156 46.867188 70.003906 C 46.683594 70.21875 46.460938 70.324219 46.164062 70.324219 C 45.988281 70.324219 45.832031 70.28125 45.703125 70.21875 C 45.578125 70.152344 45.464844 70.050781 45.382812 69.917969 L 45.382812 71.113281 L 44.980469 71.113281 L 44.980469 68.015625 L 45.382812 68.015625 L 45.382812 68.355469 C 45.464844 68.222656 45.578125 68.121094 45.703125 68.058594 C 45.832031 67.992188 45.988281 67.972656 46.164062 67.972656 Z M 48.65625 67.972656 C 49.007812 67.972656 49.265625 68.039062 49.441406 68.207031 C 49.613281 68.375 49.699219 68.636719 49.699219 68.976562 L 49.699219 70.261719 L 49.300781 70.261719 L 49.300781 69.917969 C 49.207031 70.054688 49.09375 70.152344 48.957031 70.21875 C 48.820312 70.28125 48.671875 70.324219 48.476562 70.324219 C 48.226562 70.324219 48.019531 70.261719 47.871094 70.132812 C 47.726562 70.003906 47.652344 69.835938 47.652344 69.617188 C 47.652344 69.367188 47.75 69.167969 47.933594 69.042969 C 48.117188 68.914062 48.375 68.847656 48.738281 68.847656 L 49.300781 68.847656 L 49.300781 68.804688 C 49.300781 68.636719 49.238281 68.511719 49.117188 68.421875 C 49 68.328125 48.832031 68.269531 48.617188 68.269531 C 48.476562 68.269531 48.34375 68.285156 48.214844 68.3125 C 48.082031 68.34375 47.953125 68.402344 47.832031 68.464844 L 47.832031 68.121094 C 47.976562 68.070312 48.117188 68.019531 48.253906 67.992188 C 48.390625 67.964844 48.527344 67.972656 48.65625 67.972656 Z M 51.730469 67.972656 C 51.757812 67.972656 51.777344 67.96875 51.808594 67.972656 C 51.84375 67.976562 51.890625 67.988281 51.929688 67.992188 L 51.929688 68.355469 C 51.886719 68.332031 51.84375 68.324219 51.789062 68.3125 C 51.738281 68.300781 51.671875 68.292969 51.609375 68.292969 C 51.382812 68.292969 51.207031 68.371094 51.085938 68.507812 C 50.96875 68.640625 50.90625 68.828125 50.90625 69.082031 L 50.90625 70.261719 L 50.503906 70.261719 L 50.503906 68.015625 L 50.90625 68.015625 L 50.90625 68.355469 C 50.988281 68.21875 51.113281 68.125 51.246094 68.058594 C 51.382812 67.992188 51.539062 67.972656 51.730469 67.972656 Z M 56.429688 67.972656 C 56.777344 67.972656 57.035156 68.0625 57.234375 68.269531 C 57.433594 68.480469 57.535156 68.777344 57.535156 69.148438 C 57.535156 69.515625 57.433594 69.792969 57.234375 70.003906 C 57.035156 70.210938 56.777344 70.324219 56.429688 70.324219 C 56.082031 70.324219 55.804688 70.210938 55.605469 70.003906 C 55.410156 69.792969 55.324219 69.515625 55.324219 69.148438 C 55.324219 68.777344 55.410156 68.480469 55.605469 68.269531 C 55.804688 68.0625 56.082031 67.972656 56.429688 67.972656 Z M 59.402344 67.972656 C 59.429688 67.972656 59.453125 67.96875 59.484375 67.972656 C 59.515625 67.976562 59.566406 67.988281 59.605469 67.992188 L 59.605469 68.355469 C 59.558594 68.332031 59.496094 68.324219 59.445312 68.3125 C 59.390625 68.300781 59.347656 68.292969 59.285156 68.292969 C 59.058594 68.292969 58.882812 68.371094 58.761719 68.507812 C 58.640625 68.640625 58.582031 68.828125 58.582031 69.082031 L 58.582031 70.261719 L 58.179688 70.261719 L 58.179688 68.015625 L 58.582031 68.015625 L 58.582031 68.355469 C 58.664062 68.21875 58.769531 68.125 58.902344 68.058594 C 59.035156 67.992188 59.210938 67.972656 59.402344 67.972656 Z M 60.75 67.972656 C 60.929688 67.972656 61.082031 67.992188 61.210938 68.058594 C 61.339844 68.121094 61.453125 68.226562 61.535156 68.355469 L 61.535156 68.015625 L 61.914062 68.015625 L 61.914062 69.980469 C 61.914062 70.363281 61.835938 70.652344 61.652344 70.835938 C 61.472656 71.023438 61.1875 71.113281 60.808594 71.113281 C 60.671875 71.113281 60.53125 71.113281 60.410156 71.09375 C 60.285156 71.074219 60.164062 71.046875 60.046875 71.007812 L 60.046875 70.644531 C 60.164062 70.703125 60.273438 70.746094 60.386719 70.773438 C 60.503906 70.800781 60.632812 70.816406 60.75 70.816406 C 61.011719 70.816406 61.203125 70.75 61.332031 70.625 C 61.460938 70.496094 61.535156 70.300781 61.535156 70.046875 L 61.535156 69.875 C 61.453125 70.007812 61.339844 70.109375 61.210938 70.175781 C 61.082031 70.238281 60.929688 70.261719 60.75 70.261719 C 60.453125 70.261719 60.207031 70.148438 60.027344 69.9375 C 59.84375 69.730469 59.765625 69.453125 59.765625 69.105469 C 59.765625 68.757812 59.84375 68.480469 60.027344 68.269531 C 60.207031 68.0625 60.453125 67.972656 60.75 67.972656 Z M 43.773438 68.015625 L 44.175781 68.015625 L 44.175781 70.261719 L 43.773438 70.261719 Z M 32.183594 68.269531 C 31.972656 68.269531 31.800781 68.351562 31.679688 68.507812 C 31.5625 68.660156 31.5 68.875 31.5 69.148438 C 31.5 69.417969 31.5625 69.632812 31.679688 69.789062 C 31.800781 69.941406 31.972656 70.003906 32.183594 70.003906 C 32.394531 70.003906 32.546875 69.941406 32.664062 69.789062 C 32.785156 69.632812 32.847656 69.417969 32.847656 69.148438 C 32.847656 68.875 32.785156 68.660156 32.664062 68.507812 C 32.546875 68.351562 32.394531 68.269531 32.183594 68.269531 Z M 34.933594 68.269531 C 34.714844 68.269531 34.546875 68.328125 34.414062 68.441406 C 34.28125 68.558594 34.191406 68.722656 34.171875 68.933594 L 35.597656 68.933594 C 35.59375 68.734375 35.535156 68.585938 35.417969 68.464844 C 35.300781 68.34375 35.132812 68.269531 34.933594 68.269531 Z M 46.066406 68.269531 C 45.855469 68.269531 45.683594 68.351562 45.5625 68.507812 C 45.441406 68.660156 45.382812 68.875 45.382812 69.148438 C 45.382812 69.417969 45.441406 69.632812 45.5625 69.789062 C 45.683594 69.941406 45.855469 70.003906 46.066406 70.003906 C 46.273438 70.003906 46.425781 69.941406 46.546875 69.789062 C 46.667969 69.632812 46.726562 69.417969 46.726562 69.148438 C 46.726562 68.875 46.667969 68.660156 46.546875 68.507812 C 46.425781 68.351562 46.273438 68.269531 46.066406 68.269531 Z M 56.429688 68.269531 C 56.21875 68.269531 56.050781 68.351562 55.929688 68.507812 C 55.804688 68.660156 55.726562 68.878906 55.726562 69.148438 C 55.726562 69.417969 55.804688 69.613281 55.929688 69.769531 C 56.050781 69.921875 56.214844 70.003906 56.429688 70.003906 C 56.640625 70.003906 56.808594 69.921875 56.933594 69.769531 C 57.058594 69.613281 57.113281 69.414062 57.113281 69.148438 C 57.113281 68.882812 57.058594 68.660156 56.933594 68.507812 C 56.808594 68.351562 56.640625 68.269531 56.429688 68.269531 Z M 60.851562 68.269531 C 60.636719 68.269531 60.46875 68.339844 60.347656 68.484375 C 60.230469 68.632812 60.167969 68.839844 60.167969 69.105469 C 60.167969 69.371094 60.230469 69.578125 60.347656 69.726562 C 60.46875 69.871094 60.636719 69.960938 60.851562 69.960938 C 61.066406 69.960938 61.234375 69.871094 61.351562 69.726562 C 61.472656 69.578125 61.535156 69.371094 61.535156 69.105469 C 61.535156 68.839844 61.472656 68.632812 61.351562 68.484375 C 61.234375 68.339844 61.066406 68.269531 60.851562 68.269531 Z M 48.898438 69.125 C 48.574219 69.125 48.359375 69.164062 48.234375 69.234375 C 48.109375 69.300781 48.054688 69.410156 48.054688 69.574219 C 48.054688 69.707031 48.101562 69.820312 48.195312 69.894531 C 48.289062 69.972656 48.414062 70.003906 48.574219 70.003906 C 48.796875 70.003906 48.964844 69.933594 49.097656 69.789062 C 49.230469 69.644531 49.300781 69.453125 49.300781 69.210938 L 49.300781 69.125 Z M 54.140625 69.746094 L 54.601562 69.746094 L 54.601562 70.261719 L 54.140625 70.261719 Z M 54.140625 69.746094 "/>
</g>
</svg>
