<?xml version="1.0" encoding="UTF-8"?>
<svg xmlns="http://www.w3.org/2000/svg" xmlns:xlink="http://www.w3.org/1999/xlink" width="90px" height="130px" viewBox="0 0 90 130" version="1.1">
<g id="surface1">
<path style=" stroke:none;fill-rule:nonzero;fill:rgb(0%,0%,0%);fill-opacity:0.498039;" d="M 13.5 3.421875 L 79.714844 3.421875 C 85.414062 3.421875 90 8.304688 90 14.367188 L 90 119.050781 C 90 125.117188 85.414062 130 79.714844 130 L 13.5 130 C 7.800781 130 3.214844 125.117188 3.214844 119.050781 L 3.214844 14.367188 C 3.214844 8.304688 7.800781 3.421875 13.5 3.421875 Z M 13.5 3.421875 "/>
<path style=" stroke:none;fill-rule:nonzero;fill:rgb(90.588236%,90.588236%,90.588236%);fill-opacity:1;" d="M 10.929688 0.683594 L 77.144531 0.683594 C 82.839844 0.683594 87.429688 5.566406 87.429688 11.632812 L 87.429688 116.316406 C 87.429688 122.378906 82.839844 127.261719 77.144531 127.261719 L 10.929688 127.261719 C 5.230469 127.261719 0.644531 122.378906 0.644531 116.316406 L 0.644531 11.632812 C 0.644531 5.566406 5.230469 0.683594 10.929688 0.683594 Z M 10.929688 0.683594 "/>
<path style=" stroke:none;fill-rule:nonzero;fill:rgb(78.039217%,53.725493%,12.156863%);fill-opacity:1;" d="M 12.214844 2.050781 L 78.429688 2.050781 C 84.125 2.050781 88.714844 6.933594 88.714844 13 L 88.714844 117.683594 C 88.714844 123.75 84.125 128.632812 78.429688 128.632812 L 12.214844 128.632812 C 6.515625 128.632812 1.929688 123.75 1.929688 117.683594 L 1.929688 13 C 1.929688 6.933594 6.515625 2.050781 12.214844 2.050781 Z M 12.214844 2.050781 "/>
<path style=" stroke:none;fill-rule:nonzero;fill:rgb(100%,100%,100%);fill-opacity:1;" d="M 11.570312 1.367188 L 77.785156 1.367188 C 83.484375 1.367188 88.070312 6.25 88.070312 12.316406 L 88.070312 117 C 88.070312 123.066406 83.484375 127.949219 77.785156 127.949219 L 11.570312 127.949219 C 5.875 127.949219 1.285156 123.066406 1.285156 117 L 1.285156 12.316406 C 1.285156 6.25 5.875 1.367188 11.570312 1.367188 Z M 11.570312 1.367188 "/>
<path style=" stroke:none;fill-rule:nonzero;fill:rgb(100%,0%,0%);fill-opacity:1;" d="M 13.398438 19.550781 C 12.628906 19.550781 12.039062 19.820312 11.625 20.363281 C 11.214844 20.902344 11.007812 21.679688 11.007812 22.6875 C 11.007812 23.695312 11.214844 24.46875 11.625 25.007812 C 12.039062 25.542969 12.628906 25.808594 13.398438 25.808594 C 14.160156 25.808594 14.746094 25.542969 15.152344 25.007812 C 15.558594 24.46875 15.761719 23.695312 15.761719 22.6875 C 15.761719 21.667969 15.558594 20.894531 15.152344 20.363281 C 14.746094 19.820312 14.160156 19.550781 13.398438 19.550781 M 10.398438 17.804688 C 9.429688 17.429688 8.699219 16.851562 8.210938 16.074219 C 7.71875 15.292969 7.472656 14.324219 7.472656 13.160156 C 7.472656 11.425781 7.972656 10.105469 8.976562 9.199219 C 9.980469 8.292969 11.457031 7.839844 13.398438 7.839844 C 15.328125 7.839844 16.796875 8.292969 17.800781 9.199219 C 18.804688 10.097656 19.304688 11.417969 19.304688 13.160156 C 19.304688 14.324219 19.054688 15.292969 18.558594 16.074219 C 18.066406 16.851562 17.335938 17.429688 16.367188 17.804688 C 17.449219 18.191406 18.265625 18.816406 18.8125 19.6875 C 19.371094 20.550781 19.648438 21.640625 19.648438 22.960938 C 19.648438 24.996094 19.121094 26.535156 18.066406 27.582031 C 17.019531 28.617188 15.464844 29.132812 13.398438 29.132812 C 11.328125 29.132812 9.761719 28.617188 8.699219 27.582031 C 7.648438 26.535156 7.121094 24.996094 7.121094 22.960938 C 7.121094 21.640625 7.394531 20.550781 7.941406 19.6875 C 8.496094 18.816406 9.316406 18.191406 10.398438 17.804688 M 11.359375 13.695312 C 11.359375 14.511719 11.535156 15.136719 11.882812 15.578125 C 12.238281 16.019531 12.746094 16.238281 13.398438 16.238281 C 14.039062 16.238281 14.535156 16.019531 14.882812 15.578125 C 15.234375 15.136719 15.40625 14.511719 15.40625 13.695312 C 15.40625 12.878906 15.234375 12.253906 14.882812 11.824219 C 14.535156 11.386719 14.039062 11.164062 13.398438 11.164062 C 12.746094 11.164062 12.238281 11.386719 11.882812 11.824219 C 11.535156 12.265625 11.359375 12.886719 11.359375 13.695312 "/>
<path style=" stroke:none;fill-rule:evenodd;fill:rgb(100%,0%,0%);fill-opacity:1;" d="M 8.710938 33.421875 C 8.195312 33.425781 7.628906 33.558594 7 33.859375 C 0.160156 39.472656 9.382812 48.519531 13.277344 56.289062 L 13.390625 56.328125 C 17.671875 47.835938 25.820312 38.492188 19.59375 33.859375 C 14.660156 31.492188 13.34375 39.375 13.296875 39.65625 C 13.257812 39.410156 12.25 33.394531 8.710938 33.421875 Z M 8.710938 33.421875 "/>
<path style=" stroke:none;fill-rule:nonzero;fill:rgb(100%,0%,0%);fill-opacity:1;" d="M 75.871094 109.765625 C 76.640625 109.765625 77.230469 109.492188 77.644531 108.953125 C 78.058594 108.414062 78.261719 107.636719 78.261719 106.628906 C 78.261719 105.621094 78.058594 104.847656 77.644531 104.304688 C 77.230469 103.773438 76.640625 103.507812 75.871094 103.507812 C 75.109375 103.507812 74.527344 103.773438 74.121094 104.304688 C 73.714844 104.847656 73.511719 105.621094 73.511719 106.628906 C 73.511719 107.648438 73.714844 108.421875 74.121094 108.953125 C 74.527344 109.492188 75.109375 109.765625 75.871094 109.765625 M 78.871094 111.511719 C 79.839844 111.886719 80.570312 112.464844 81.0625 113.242188 C 81.554688 114.023438 81.796875 114.992188 81.796875 116.15625 C 81.796875 117.890625 81.296875 119.210938 80.292969 120.117188 C 79.289062 121.023438 77.816406 121.476562 75.871094 121.476562 C 73.941406 121.476562 72.476562 121.023438 71.472656 120.117188 C 70.46875 119.21875 69.964844 117.898438 69.964844 116.15625 C 69.964844 114.992188 70.214844 114.023438 70.710938 113.242188 C 71.203125 112.464844 71.933594 111.886719 72.902344 111.511719 C 71.820312 111.125 71.003906 110.496094 70.457031 109.625 C 69.902344 108.765625 69.625 107.675781 69.625 106.355469 C 69.625 104.320312 70.148438 102.78125 71.203125 101.734375 C 72.25 100.699219 73.804688 100.183594 75.871094 100.183594 C 77.941406 100.183594 79.507812 100.699219 80.570312 101.734375 C 81.625 102.78125 82.152344 104.320312 82.152344 106.355469 C 82.152344 107.675781 81.875 108.765625 81.328125 109.625 C 80.773438 110.496094 79.953125 111.125 78.871094 111.511719 M 77.910156 115.621094 C 77.910156 114.804688 77.738281 114.175781 77.386719 113.738281 C 77.03125 113.296875 76.527344 113.078125 75.871094 113.078125 C 75.230469 113.078125 74.734375 113.296875 74.386719 113.738281 C 74.039062 114.175781 73.863281 114.804688 73.863281 115.621094 C 73.863281 116.4375 74.039062 117.058594 74.386719 117.492188 C 74.734375 117.929688 75.230469 118.152344 75.871094 118.152344 C 76.527344 118.152344 77.03125 117.929688 77.386719 117.492188 C 77.738281 117.050781 77.910156 116.425781 77.910156 115.621094 "/>
<path style=" stroke:none;fill-rule:evenodd;fill:rgb(100%,0%,0%);fill-opacity:1;" d="M 80.554688 95.785156 C 81.074219 95.78125 81.640625 95.648438 82.265625 95.347656 C 89.109375 89.734375 79.886719 80.6875 75.992188 72.917969 L 75.878906 72.878906 C 71.597656 81.371094 63.449219 90.714844 69.675781 95.347656 C 74.609375 97.714844 75.925781 89.832031 75.972656 89.550781 C 76.011719 89.796875 77.019531 95.8125 80.554688 95.785156 Z M 80.554688 95.785156 "/>
<path style=" stroke:none;fill-rule:evenodd;fill:rgb(100%,0%,0%);fill-opacity:1;" d="M 28.367188 27.519531 C 28.066406 27.523438 27.738281 27.601562 27.371094 27.78125 C 23.398438 31.09375 28.753906 36.441406 31.019531 41.027344 L 31.082031 41.050781 C 33.570312 36.035156 38.300781 30.515625 34.6875 27.78125 C 31.820312 26.382812 31.054688 31.039062 31.027344 31.207031 C 31.003906 31.058594 30.421875 27.507812 28.367188 27.519531 Z M 28.367188 27.519531 "/>
<path style=" stroke:none;fill-rule:evenodd;fill:rgb(100%,0%,0%);fill-opacity:1;" d="M 53.4375 27.371094 C 53.136719 27.371094 52.808594 27.453125 52.441406 27.628906 C 48.46875 30.945312 53.828125 36.289062 56.089844 40.878906 L 56.15625 40.902344 C 58.640625 35.886719 63.375 30.367188 59.757812 27.628906 C 56.890625 26.230469 56.128906 30.886719 56.101562 31.054688 C 56.078125 30.910156 55.492188 27.355469 53.4375 27.371094 Z M 53.4375 27.371094 "/>
<path style=" stroke:none;fill-rule:evenodd;fill:rgb(100%,0%,0%);fill-opacity:1;" d="M 28.777344 48.730469 C 28.476562 48.734375 28.148438 48.8125 27.785156 48.992188 C 23.808594 52.304688 29.167969 57.648438 31.429688 62.238281 L 31.496094 62.261719 C 33.980469 57.246094 38.714844 51.726562 35.097656 48.992188 C 32.234375 47.59375 31.46875 52.25 31.441406 52.414062 C 31.417969 52.269531 30.832031 48.714844 28.777344 48.730469 Z M 28.777344 48.730469 "/>
<path style=" stroke:none;fill-rule:evenodd;fill:rgb(100%,0%,0%);fill-opacity:1;" d="M 54.078125 48.046875 C 53.78125 48.050781 53.449219 48.128906 53.085938 48.308594 C 49.113281 51.621094 54.46875 56.964844 56.730469 61.554688 L 56.796875 61.578125 C 59.285156 56.5625 64.015625 51.042969 60.402344 48.308594 C 57.535156 46.910156 56.769531 51.5625 56.742188 51.730469 C 56.71875 51.585938 56.136719 48.03125 54.078125 48.046875 Z M 54.078125 48.046875 "/>
<path style=" stroke:none;fill-rule:evenodd;fill:rgb(100%,0%,0%);fill-opacity:1;" d="M 34.222656 81.953125 C 34.523438 81.949219 34.851562 81.871094 35.214844 81.691406 C 39.191406 78.378906 33.832031 73.035156 31.570312 68.445312 L 31.503906 68.421875 C 29.019531 73.4375 24.285156 78.957031 27.902344 81.691406 C 30.765625 83.089844 31.53125 78.4375 31.558594 78.269531 C 31.582031 78.414062 32.167969 81.96875 34.222656 81.953125 Z M 34.222656 81.953125 "/>
<path style=" stroke:none;fill-rule:evenodd;fill:rgb(100%,0%,0%);fill-opacity:1;" d="M 34.632812 100.425781 C 34.933594 100.425781 35.261719 100.34375 35.628906 100.167969 C 39.601562 96.851562 34.246094 91.507812 31.980469 86.917969 L 31.917969 86.894531 C 29.429688 91.910156 24.699219 97.429688 28.3125 100.167969 C 31.179688 101.566406 31.945312 96.910156 31.972656 96.742188 C 31.996094 96.886719 32.578125 100.441406 34.632812 100.425781 Z M 34.632812 100.425781 "/>
<path style=" stroke:none;fill-rule:evenodd;fill:rgb(100%,0%,0%);fill-opacity:1;" d="M 58.652344 100.425781 C 58.953125 100.425781 59.28125 100.34375 59.644531 100.167969 C 63.621094 96.851562 58.261719 91.507812 56 86.917969 L 55.933594 86.894531 C 53.449219 91.910156 48.714844 97.429688 52.332031 100.167969 C 55.195312 101.566406 55.960938 96.910156 55.988281 96.742188 C 56.011719 96.886719 56.597656 100.441406 58.652344 100.425781 Z M 58.652344 100.425781 "/>
<path style=" stroke:none;fill-rule:evenodd;fill:rgb(100%,0%,0%);fill-opacity:1;" d="M 59.707031 81.417969 C 60.003906 81.417969 60.335938 81.335938 60.699219 81.160156 C 64.675781 77.84375 59.316406 72.5 57.054688 67.910156 L 56.988281 67.886719 C 54.5 72.902344 49.769531 78.425781 53.386719 81.160156 C 56.25 82.558594 57.015625 77.902344 57.042969 77.734375 C 57.066406 77.882812 57.648438 81.433594 59.707031 81.417969 Z M 59.707031 81.417969 "/>
</g>
</svg>
