<?xml version="1.0" encoding="UTF-8"?>
<svg xmlns="http://www.w3.org/2000/svg" xmlns:xlink="http://www.w3.org/1999/xlink" width="90px" height="130px" viewBox="0 0 90 130" version="1.1">
<g id="surface1">
<path style=" stroke:none;fill-rule:nonzero;fill:rgb(0%,0%,0%);fill-opacity:0.498039;" d="M 13.5 3.421875 L 79.714844 3.421875 C 85.414062 3.421875 90 8.304688 90 14.367188 L 90 119.050781 C 90 125.117188 85.414062 130 79.714844 130 L 13.5 130 C 7.800781 130 3.214844 125.117188 3.214844 119.050781 L 3.214844 14.367188 C 3.214844 8.304688 7.800781 3.421875 13.5 3.421875 Z M 13.5 3.421875 "/>
<path style=" stroke:none;fill-rule:nonzero;fill:rgb(90.588236%,90.588236%,90.588236%);fill-opacity:1;" d="M 10.929688 0.683594 L 77.144531 0.683594 C 82.839844 0.683594 87.429688 5.566406 87.429688 11.632812 L 87.429688 116.316406 C 87.429688 122.378906 82.839844 127.261719 77.144531 127.261719 L 10.929688 127.261719 C 5.230469 127.261719 0.644531 122.378906 0.644531 116.316406 L 0.644531 11.632812 C 0.644531 5.566406 5.230469 0.683594 10.929688 0.683594 Z M 10.929688 0.683594 "/>
<path style=" stroke:none;fill-rule:nonzero;fill:rgb(78.039217%,53.725493%,12.156863%);fill-opacity:1;" d="M 12.214844 2.050781 L 78.429688 2.050781 C 84.125 2.050781 88.714844 6.933594 88.714844 13 L 88.714844 117.683594 C 88.714844 123.75 84.125 128.632812 78.429688 128.632812 L 12.214844 128.632812 C 6.515625 128.632812 1.929688 123.75 1.929688 117.683594 L 1.929688 13 C 1.929688 6.933594 6.515625 2.050781 12.214844 2.050781 Z M 12.214844 2.050781 "/>
<path style=" stroke:none;fill-rule:nonzero;fill:rgb(100%,100%,100%);fill-opacity:1;" d="M 11.570312 1.367188 L 77.785156 1.367188 C 83.484375 1.367188 88.070312 6.25 88.070312 12.316406 L 88.070312 117 C 88.070312 123.066406 83.484375 127.949219 77.785156 127.949219 L 11.570312 127.949219 C 5.875 127.949219 1.285156 123.066406 1.285156 117 L 1.285156 12.316406 C 1.285156 6.25 5.875 1.367188 11.570312 1.367188 Z M 11.570312 1.367188 "/>
<path style="fill-rule:evenodd;fill:rgb(0%,0%,0%);fill-opacity:1;stroke-width:0.758899;stroke-linecap:butt;stroke-linejoin:round;stroke:rgb(0%,0%,0%);stroke-opacity:1;stroke-miterlimit:4;" d="M 260.175561 149.600231 C 255.338814 168.843673 240.500451 201.604529 249.900512 211.717662 C 255.606172 216.375401 258.322285 206.846266 259.470709 200.53624 L 259.701609 200.53624 L 255.916064 232.371245 L 264.690264 232.271538 C 264.690264 232.271538 260.910796 201.675748 260.904719 200.507752 L 260.995864 200.507752 C 261.92554 205.664026 265.449803 216.33267 269.326493 212.273173 C 280.664898 200.878092 263.967182 168.444845 260.175561 149.600231 Z M 260.175561 149.600231 " transform="matrix(0.642865,0,0,0.274241,-153.988201,-7.561696)"/>
<path style=" stroke:none;fill-rule:nonzero;fill:rgb(0%,0%,0%);fill-opacity:1;" d="M 7.507812 28.988281 L 7.507812 12.847656 L 4.140625 12.800781 L 4.300781 10.324219 L 7.488281 8.210938 L 11.019531 8.210938 L 11.019531 28.988281 M 19.652344 18.574219 C 19.652344 16.007812 19.484375 14.203125 19.144531 13.15625 C 18.808594 12.101562 18.242188 11.574219 17.445312 11.574219 C 16.648438 11.574219 16.078125 12.101562 15.738281 13.15625 C 15.398438 14.203125 15.226562 16.007812 15.226562 18.574219 C 15.226562 21.167969 15.398438 22.996094 15.738281 24.058594 C 16.078125 25.121094 16.648438 25.652344 17.445312 25.652344 C 18.234375 25.652344 18.800781 25.121094 19.144531 24.058594 C 19.484375 22.996094 19.652344 21.167969 19.652344 18.574219 M 23.367188 18.613281 C 23.367188 22.015625 22.851562 24.640625 21.824219 26.492188 C 20.796875 28.335938 19.335938 29.257812 17.445312 29.257812 C 15.546875 29.257812 14.085938 28.335938 13.054688 26.492188 C 12.027344 24.640625 11.511719 22.015625 11.511719 18.613281 C 11.511719 15.207031 12.027344 12.578125 13.054688 10.738281 C 14.085938 8.886719 15.546875 7.960938 17.445312 7.960938 C 19.335938 7.960938 20.796875 8.886719 21.824219 10.738281 C 22.851562 12.578125 23.367188 15.207031 23.367188 18.613281 "/>
<path style="fill-rule:evenodd;fill:rgb(0%,0%,0%);fill-opacity:1;stroke-width:0.758899;stroke-linecap:butt;stroke-linejoin:round;stroke:rgb(0%,0%,0%);stroke-opacity:1;stroke-miterlimit:4;" d="M 260.178081 149.597527 C 255.341333 168.840969 240.50297 201.601825 249.903031 211.714958 C 255.608691 216.372697 258.324805 206.843561 259.473228 200.533536 L 259.704128 200.533536 L 255.912507 232.368541 L 264.692783 232.268834 C 264.692783 232.268834 260.913315 201.673044 260.901162 200.505048 L 260.992307 200.505048 C 261.921983 205.661322 265.446247 216.329966 269.329012 212.270468 C 280.667417 200.875388 263.969702 168.442141 260.178081 149.597527 Z M 260.178081 149.597527 " transform="matrix(-0.642865,0,0,-0.274241,243.267164,136.650799)"/>
<path style=" stroke:none;fill-rule:nonzero;fill:rgb(0%,0%,0%);fill-opacity:1;" d="M 81.773438 100.214844 L 81.773438 116.355469 L 85.140625 116.402344 L 84.976562 118.878906 L 81.792969 120.992188 L 78.261719 120.992188 L 78.261719 100.214844 M 69.625 110.628906 C 69.625 113.195312 69.796875 115 70.136719 116.042969 C 70.472656 117.097656 71.035156 117.625 71.835938 117.625 C 72.632812 117.625 73.199219 117.097656 73.542969 116.042969 C 73.882812 115 74.054688 113.195312 74.054688 110.628906 C 74.054688 108.035156 73.882812 106.207031 73.542969 105.140625 C 73.199219 104.078125 72.632812 103.546875 71.835938 103.546875 C 71.042969 103.546875 70.476562 104.078125 70.136719 105.140625 C 69.796875 106.207031 69.625 108.035156 69.625 110.628906 M 65.910156 110.585938 C 65.910156 107.1875 66.425781 104.558594 67.453125 102.707031 C 68.484375 100.867188 69.945312 99.945312 71.835938 99.945312 C 73.730469 99.945312 75.195312 100.867188 76.222656 102.707031 C 77.253906 104.558594 77.765625 107.1875 77.765625 110.585938 C 77.765625 113.996094 77.253906 116.621094 76.222656 118.464844 C 75.195312 120.316406 73.730469 121.242188 71.835938 121.242188 C 69.945312 121.242188 68.484375 120.316406 67.453125 118.464844 C 66.425781 116.621094 65.910156 113.996094 65.910156 110.585938 "/>
<path style=" stroke:none;fill-rule:evenodd;fill:rgb(0%,0%,0%);fill-opacity:1;" d="M 31.445312 24.785156 C 29.601562 27.929688 23.941406 33.289062 27.527344 34.941406 C 29.703125 35.703125 30.738281 34.144531 31.175781 33.113281 L 31.265625 33.113281 L 29.820312 38.316406 L 33.167969 38.300781 C 33.167969 38.300781 31.726562 33.300781 31.722656 33.109375 L 31.757812 33.109375 C 32.109375 33.949219 33.453125 35.695312 34.933594 35.03125 C 39.257812 33.167969 32.890625 27.867188 31.445312 24.785156 Z M 31.445312 24.785156 "/>
<path style=" stroke:none;fill-rule:evenodd;fill:rgb(0%,0%,0%);fill-opacity:1;" d="M 44.289062 34.433594 C 42.445312 37.582031 36.785156 42.9375 40.371094 44.589844 C 42.546875 45.351562 43.582031 43.792969 44.019531 42.761719 L 44.109375 42.761719 L 42.664062 47.96875 L 46.011719 47.953125 C 46.011719 47.953125 44.570312 42.949219 44.566406 42.757812 L 44.601562 42.757812 C 44.957031 43.601562 46.300781 45.347656 47.777344 44.679688 C 52.101562 42.816406 45.734375 37.515625 44.289062 34.433594 Z M 44.289062 34.433594 "/>
<path style=" stroke:none;fill-rule:evenodd;fill:rgb(0%,0%,0%);fill-opacity:1;" d="M 57.890625 24.730469 C 56.046875 27.875 50.386719 33.230469 53.972656 34.886719 C 56.148438 35.648438 57.183594 34.089844 57.621094 33.054688 L 57.710938 33.054688 L 56.265625 38.261719 L 59.609375 38.246094 C 59.609375 38.246094 58.167969 33.242188 58.167969 33.050781 L 58.203125 33.050781 C 58.554688 33.894531 59.898438 35.640625 61.378906 34.976562 C 65.703125 33.113281 59.335938 27.808594 57.890625 24.730469 Z M 57.890625 24.730469 "/>
<path style=" stroke:none;fill-rule:evenodd;fill:rgb(0%,0%,0%);fill-opacity:1;" d="M 31.105469 48.855469 C 29.261719 52 23.601562 57.355469 27.1875 59.011719 C 29.363281 59.769531 30.398438 58.214844 30.835938 57.179688 L 30.925781 57.179688 L 29.480469 62.386719 L 32.828125 62.371094 C 32.828125 62.371094 31.386719 57.367188 31.382812 57.175781 L 31.417969 57.175781 C 31.769531 58.019531 33.117188 59.765625 34.59375 59.101562 C 38.917969 57.238281 32.550781 51.933594 31.105469 48.855469 Z M 31.105469 48.855469 "/>
<path style=" stroke:none;fill-rule:evenodd;fill:rgb(0%,0%,0%);fill-opacity:1;" d="M 56.792969 48.050781 C 54.949219 51.195312 49.292969 56.550781 52.875 58.207031 C 55.050781 58.96875 56.085938 57.410156 56.527344 56.378906 L 56.613281 56.378906 L 55.167969 61.582031 L 58.515625 61.566406 C 58.515625 61.566406 57.074219 56.5625 57.070312 56.371094 L 57.105469 56.371094 C 57.460938 57.214844 58.804688 58.960938 60.28125 58.296875 C 64.605469 56.433594 58.238281 51.128906 56.792969 48.050781 Z M 56.792969 48.050781 "/>
<path style=" stroke:none;fill-rule:evenodd;fill:rgb(0%,0%,0%);fill-opacity:1;" d="M 30.992188 81.6875 C 32.835938 78.539062 38.496094 73.183594 34.910156 71.53125 C 32.734375 70.769531 31.699219 72.328125 31.261719 73.359375 L 31.171875 73.359375 L 32.617188 68.152344 L 29.273438 68.167969 C 29.273438 68.167969 30.714844 73.171875 30.714844 73.363281 L 30.679688 73.363281 C 30.328125 72.519531 28.984375 70.773438 27.503906 71.441406 C 23.179688 73.304688 29.546875 78.605469 30.992188 81.6875 Z M 30.992188 81.6875 "/>
<path style=" stroke:none;fill-rule:evenodd;fill:rgb(0%,0%,0%);fill-opacity:1;" d="M 57.777344 81.742188 C 59.621094 78.597656 65.28125 73.238281 61.695312 71.585938 C 59.519531 70.824219 58.484375 72.382812 58.046875 73.414062 L 57.957031 73.414062 L 59.402344 68.210938 L 56.054688 68.226562 C 56.054688 68.226562 57.496094 73.230469 57.5 73.421875 L 57.464844 73.421875 C 57.113281 72.578125 55.765625 70.832031 54.289062 71.496094 C 49.964844 73.359375 56.332031 78.660156 57.777344 81.742188 Z M 57.777344 81.742188 "/>
<path style=" stroke:none;fill-rule:evenodd;fill:rgb(0%,0%,0%);fill-opacity:1;" d="M 44.175781 93.75 C 46.023438 90.601562 51.679688 85.246094 48.09375 83.59375 C 45.917969 82.832031 44.882812 84.390625 44.445312 85.421875 L 44.359375 85.421875 L 45.800781 80.214844 L 42.457031 80.230469 C 42.457031 80.230469 43.898438 85.234375 43.902344 85.425781 L 43.867188 85.425781 C 43.511719 84.582031 42.167969 82.835938 40.6875 83.503906 C 36.363281 85.367188 42.730469 90.667969 44.175781 93.75 Z M 44.175781 93.75 "/>
<path style=" stroke:none;fill-rule:evenodd;fill:rgb(0%,0%,0%);fill-opacity:1;" d="M 58.195312 102.648438 C 60.039062 99.503906 65.695312 94.148438 62.113281 92.496094 C 59.9375 91.734375 58.898438 93.292969 58.460938 94.324219 L 58.375 94.324219 L 59.820312 89.117188 L 56.472656 89.132812 C 56.472656 89.132812 57.914062 94.136719 57.917969 94.328125 L 57.882812 94.328125 C 57.527344 93.484375 56.183594 91.738281 54.703125 92.40625 C 50.382812 94.269531 56.746094 99.570312 58.195312 102.648438 Z M 58.195312 102.648438 "/>
<path style=" stroke:none;fill-rule:evenodd;fill:rgb(0%,0%,0%);fill-opacity:1;" d="M 31.75 102.648438 C 33.59375 99.503906 39.25 94.148438 35.667969 92.496094 C 33.492188 91.734375 32.457031 93.292969 32.015625 94.324219 L 31.929688 94.324219 L 33.375 89.117188 L 30.027344 89.132812 C 30.027344 89.132812 31.46875 94.136719 31.472656 94.328125 L 31.4375 94.328125 C 31.082031 93.484375 29.738281 91.738281 28.261719 92.40625 C 23.9375 94.269531 30.304688 99.570312 31.75 102.648438 Z M 31.75 102.648438 "/>
</g>
</svg>
