<?xml version="1.0" encoding="UTF-8"?>
<svg xmlns="http://www.w3.org/2000/svg" xmlns:xlink="http://www.w3.org/1999/xlink" width="60px" height="90px" viewBox="0 0 60 90" version="1.1">
<g id="surface1">
<path style="fill-rule:nonzero;fill:rgb(100%,100%,100%);fill-opacity:1;stroke-width:1;stroke-linecap:butt;stroke-linejoin:miter;stroke:rgb(0%,0%,0%);stroke-opacity:1;stroke-miterlimit:4;" d="M 30.445312 512.85437 L 329.554688 512.85437 C 346.101562 512.85437 359.507812 526.26062 359.507812 542.807495 L 359.507812 1021.91687 C 359.507812 1038.463745 346.101562 1051.869995 329.554688 1051.869995 L 30.445312 1051.869995 C 13.898438 1051.869995 0.492188 1038.463745 0.492188 1021.91687 L 0.492188 542.807495 C 0.492188 526.26062 13.898438 512.85437 30.445312 512.85437 Z M 30.445312 512.85437 " transform="matrix(0.166667,0,0,0.166667,0,-85.393697)"/>
<path style=" stroke:none;fill-rule:nonzero;fill:rgb(66.666669%,33.333334%,0%);fill-opacity:1;" d="M 5.625 0.0820312 L 0.0820312 11.167969 L 0.0820312 11.5 L 5.792969 0.0820312 Z M 8.957031 0.0820312 L 0.0820312 17.832031 L 0.0820312 18.167969 L 9.125 0.0820312 Z M 10.625 0.0820312 L 0.0820312 21.167969 L 0.0820312 21.832031 L 10.957031 0.0820312 Z M 12.292969 0.0820312 L 0.0820312 24.5 L 0.0820312 25.5 L 12.792969 0.0820312 Z M 13.957031 0.0820312 L 0.0820312 27.832031 L 0.0820312 29.167969 L 14.625 0.0820312 Z M 15.625 0.0820312 L 0.0820312 31.167969 L 0.0820312 32.832031 L 16.457031 0.0820312 Z M 20.625 0.0820312 L 0.0820312 41.167969 L 0.0820312 41.5 L 20.792969 0.0820312 Z M 22.292969 0.0820312 L 0.0820312 44.5 L 0.0820312 45.167969 L 22.625 0.0820312 Z M 23.957031 0.0820312 L 0.0820312 47.832031 L 0.0820312 48.167969 L 24.125 0.0820312 Z M 28.957031 0.0820312 L 0.0820312 57.832031 L 0.0820312 59.5 L 29.792969 0.0820312 Z M 30.625 0.0820312 L 0.0820312 61.167969 L 0.0820312 62.5 L 31.292969 0.0820312 Z M 32.292969 0.0820312 L 0.0820312 64.5 L 0.0820312 65.5 L 32.792969 0.0820312 Z M 33.957031 0.0820312 L 0.0820312 67.832031 L 0.0820312 68.5 L 34.292969 0.0820312 Z M 35.625 0.0820312 L 0.0820312 71.167969 L 0.0820312 71.5 L 35.792969 0.0820312 Z M 38.957031 0.0820312 L 0.0820312 77.832031 L 0.0820312 78.167969 L 39.125 0.0820312 Z M 40.625 0.0820312 L 0.0820312 81.167969 L 0.0820312 81.832031 L 40.957031 0.0820312 Z M 42.292969 0.0820312 L 0.0820312 84.5 L 0.0820312 84.925781 C 0.0820312 85.101562 0.0898438 85.277344 0.109375 85.449219 L 42.792969 0.0820312 Z M 43.957031 0.0820312 L 0.515625 86.96875 C 0.617188 87.191406 0.734375 87.40625 0.863281 87.609375 L 44.625 0.0820312 Z M 45.625 0.0820312 L 1.472656 88.386719 C 1.652344 88.570312 1.847656 88.746094 2.050781 88.902344 L 46.457031 0.0820312 Z M 50.625 0.0820312 L 5.707031 89.917969 L 5.875 89.917969 L 50.792969 0.0820312 Z M 52.292969 0.0820312 L 7.375 89.917969 L 7.707031 89.917969 L 52.625 0.0820312 Z M 53.957031 0.0820312 L 9.042969 89.917969 L 9.207031 89.917969 L 54.125 0.0820312 Z M 4.261719 0.152344 C 4.132812 0.171875 4.007812 0.195312 3.886719 0.222656 L 0.0820312 7.832031 L 0.0820312 8.5 Z M 2.40625 0.847656 C 2.109375 1.035156 1.832031 1.257812 1.582031 1.5 L 0.128906 4.410156 C 0.101562 4.628906 0.0820312 4.847656 0.0820312 5.074219 L 0.0820312 5.5 Z M 58.300781 1.390625 L 14.042969 89.917969 L 14.875 89.917969 L 58.84375 1.980469 C 58.679688 1.769531 58.5 1.570312 58.300781 1.390625 Z M 59.402344 2.859375 L 15.875 89.917969 L 16.542969 89.917969 L 59.699219 3.605469 C 59.617188 3.347656 59.519531 3.097656 59.402344 2.859375 Z M 59.917969 5.5 L 17.707031 89.917969 L 18.207031 89.917969 L 59.917969 6.5 Z M 59.917969 9.167969 L 19.542969 89.917969 L 19.875 89.917969 L 59.917969 9.832031 Z M 59.917969 12.832031 L 21.375 89.917969 L 21.542969 89.917969 L 59.917969 13.167969 Z M 59.917969 19.5 L 24.707031 89.917969 L 24.875 89.917969 L 59.917969 19.832031 Z M 59.917969 22.5 L 26.207031 89.917969 L 26.542969 89.917969 L 59.917969 23.167969 Z M 59.917969 25.5 L 27.707031 89.917969 L 28.207031 89.917969 L 59.917969 26.5 Z M 59.917969 28.5 L 29.207031 89.917969 L 29.875 89.917969 L 59.917969 29.832031 Z M 59.917969 31.5 L 30.707031 89.917969 L 31.542969 89.917969 L 59.917969 33.167969 Z M 59.917969 41.5 L 35.707031 89.917969 L 35.875 89.917969 L 59.917969 41.832031 Z M 59.917969 44.5 L 37.207031 89.917969 L 37.542969 89.917969 L 59.917969 45.167969 Z M 59.917969 48.167969 L 39.042969 89.917969 L 39.207031 89.917969 L 59.917969 48.5 Z M 59.917969 58.167969 L 44.042969 89.917969 L 44.875 89.917969 L 59.917969 59.832031 Z M 59.917969 61.832031 L 45.875 89.917969 L 46.542969 89.917969 L 59.917969 63.167969 Z M 59.917969 65.5 L 47.707031 89.917969 L 48.207031 89.917969 L 59.917969 66.5 Z M 59.917969 69.167969 L 49.542969 89.917969 L 49.875 89.917969 L 59.917969 69.832031 Z M 59.917969 72.832031 L 51.375 89.917969 L 51.542969 89.917969 L 59.917969 73.167969 Z M 59.917969 79.5 L 54.707031 89.917969 L 54.875 89.917969 L 59.917969 79.832031 Z M 59.917969 82.5 L 56.308594 89.722656 C 56.441406 89.6875 56.574219 89.644531 56.703125 89.59375 L 59.917969 83.167969 Z M 59.871094 85.589844 L 58.417969 88.5 C 59.195312 87.738281 59.71875 86.726562 59.871094 85.589844 Z M 59.871094 85.589844 "/>
<path style=" stroke:none;fill-rule:nonzero;fill:rgb(33.333334%,33.333334%,66.666669%);fill-opacity:1;" d="M 5.875 0.0820312 L 50.792969 89.917969 L 50.957031 89.917969 L 6.042969 0.0820312 Z M 7.375 0.0820312 L 52.292969 89.917969 L 52.625 89.917969 L 7.707031 0.0820312 Z M 9.207031 0.0820312 L 54.125 89.917969 L 54.292969 89.917969 L 9.375 0.0820312 Z M 13.542969 0.0820312 L 57.949219 88.902344 C 58.152344 88.746094 58.347656 88.570312 58.527344 88.386719 L 14.375 0.0820312 Z M 15.375 0.0820312 L 59.136719 87.609375 C 59.265625 87.40625 59.382812 87.191406 59.484375 86.96875 L 16.042969 0.0820312 Z M 17.207031 0.0820312 L 59.890625 85.449219 C 59.910156 85.277344 59.917969 85.101562 59.917969 84.925781 L 59.917969 84.5 L 17.707031 0.0820312 Z M 19.042969 0.0820312 L 59.917969 81.832031 L 59.917969 81.167969 L 19.375 0.0820312 Z M 20.875 0.0820312 L 59.917969 78.167969 L 59.917969 77.832031 L 21.042969 0.0820312 Z M 24.207031 0.0820312 L 59.917969 71.5 L 59.917969 71.167969 L 24.375 0.0820312 Z M 25.707031 0.0820312 L 59.917969 68.5 L 59.917969 67.832031 L 26.042969 0.0820312 Z M 27.207031 0.0820312 L 59.917969 65.5 L 59.917969 64.5 L 27.707031 0.0820312 Z M 28.707031 0.0820312 L 59.917969 62.5 L 59.917969 61.167969 L 29.375 0.0820312 Z M 30.207031 0.0820312 L 59.917969 59.5 L 59.917969 57.832031 L 31.042969 0.0820312 Z M 35.875 0.0820312 L 59.917969 48.167969 L 59.917969 47.832031 L 36.042969 0.0820312 Z M 37.375 0.0820312 L 59.917969 45.167969 L 59.917969 44.5 L 37.707031 0.0820312 Z M 39.207031 0.0820312 L 59.917969 41.5 L 59.917969 41.167969 L 39.375 0.0820312 Z M 43.542969 0.0820312 L 59.917969 32.832031 L 59.917969 31.167969 L 44.375 0.0820312 Z M 45.375 0.0820312 L 59.917969 29.167969 L 59.917969 27.832031 L 46.042969 0.0820312 Z M 47.207031 0.0820312 L 59.917969 25.5 L 59.917969 24.5 L 47.707031 0.0820312 Z M 49.042969 0.0820312 L 59.917969 21.832031 L 59.917969 21.167969 L 49.375 0.0820312 Z M 50.875 0.0820312 L 59.917969 18.167969 L 59.917969 17.832031 L 51.042969 0.0820312 Z M 54.207031 0.0820312 L 59.917969 11.5 L 59.917969 11.167969 L 54.375 0.0820312 Z M 55.738281 0.152344 L 59.917969 8.5 L 59.917969 7.832031 L 56.113281 0.222656 C 55.992188 0.195312 55.867188 0.171875 55.738281 0.152344 Z M 57.59375 0.847656 L 59.917969 5.5 L 59.917969 5.074219 C 59.917969 4.847656 59.898438 4.628906 59.871094 4.410156 L 58.417969 1.5 C 58.167969 1.257812 57.890625 1.035156 57.59375 0.847656 Z M 1.699219 1.390625 C 1.5 1.570312 1.320312 1.769531 1.15625 1.980469 L 45.125 89.917969 L 45.957031 89.917969 Z M 0.597656 2.859375 C 0.480469 3.097656 0.382812 3.347656 0.300781 3.605469 L 43.457031 89.917969 L 44.125 89.917969 Z M 0.0820312 5.5 L 0.0820312 6.5 L 41.792969 89.917969 L 42.292969 89.917969 Z M 0.0820312 9.167969 L 0.0820312 9.832031 L 40.125 89.917969 L 40.457031 89.917969 Z M 0.0820312 12.832031 L 0.0820312 13.167969 L 38.457031 89.917969 L 38.625 89.917969 Z M 0.0820312 19.5 L 0.0820312 19.832031 L 35.125 89.917969 L 35.292969 89.917969 Z M 0.0820312 22.5 L 0.0820312 23.167969 L 33.457031 89.917969 L 33.792969 89.917969 Z M 0.0820312 25.5 L 0.0820312 26.5 L 31.792969 89.917969 L 32.292969 89.917969 Z M 0.0820312 28.5 L 0.0820312 29.832031 L 30.125 89.917969 L 30.792969 89.917969 Z M 0.0820312 31.5 L 0.0820312 33.167969 L 28.457031 89.917969 L 29.292969 89.917969 Z M 0.0820312 41.5 L 0.0820312 41.832031 L 24.125 89.917969 L 24.292969 89.917969 Z M 0.0820312 44.5 L 0.0820312 45.167969 L 22.457031 89.917969 L 22.792969 89.917969 Z M 0.0820312 48.167969 L 0.0820312 48.5 L 20.792969 89.917969 L 20.957031 89.917969 Z M 0.0820312 58.167969 L 0.0820312 59.832031 L 15.125 89.917969 L 15.957031 89.917969 Z M 0.0820312 61.832031 L 0.0820312 63.167969 L 13.457031 89.917969 L 14.125 89.917969 Z M 0.0820312 65.5 L 0.0820312 66.5 L 11.792969 89.917969 L 12.292969 89.917969 Z M 0.0820312 69.167969 L 0.0820312 69.832031 L 10.125 89.917969 L 10.457031 89.917969 Z M 0.0820312 72.832031 L 0.0820312 73.167969 L 8.457031 89.917969 L 8.625 89.917969 Z M 0.0820312 79.5 L 0.0820312 79.832031 L 5.125 89.917969 L 5.292969 89.917969 Z M 0.0820312 82.5 L 0.0820312 83.167969 L 3.296875 89.59375 C 3.425781 89.644531 3.558594 89.6875 3.691406 89.722656 Z M 0.128906 85.589844 C 0.28125 86.726562 0.804688 87.738281 1.582031 88.5 Z M 0.128906 85.589844 "/>
</g>
</svg>
