<?xml version="1.0" encoding="UTF-8"?>
<svg xmlns="http://www.w3.org/2000/svg" xmlns:xlink="http://www.w3.org/1999/xlink" width="90px" height="130px" viewBox="0 0 90 130" version="1.1">
<g id="surface1">
<path style="fill-rule:nonzero;fill:rgb(100%,100%,100%);fill-opacity:1;stroke-width:1;stroke-linecap:butt;stroke-linejoin:miter;stroke:rgb(0%,0%,0%);stroke-opacity:1;stroke-miterlimit:4;" d="M 59.9375 -656.63701 L 359.0625 -656.63701 C 375.59375 -656.63701 389 -643.234366 389 -626.700111 L 389 -147.579918 C 389 -131.045664 375.59375 -117.643019 359.0625 -117.643019 L 59.9375 -117.643019 C 43.40625 -117.643019 30 -131.045664 30 -147.579918 L 30 -626.700111 C 30 -643.234366 43.40625 -656.63701 59.9375 -656.63701 Z M 59.9375 -656.63701 " transform="matrix(0.25,0,0,0.240741,-7.375,158.200374)"/>
<path style=" stroke:none;fill-rule:nonzero;fill:rgb(0%,0%,0%);fill-opacity:1;" d="M 45 55.371094 C 44 55.351562 43.332031 55.695312 42.667969 56.335938 C 42 56.976562 41.667969 57.621094 41.667969 58.582031 C 41.667969 59.546875 42.046875 60.117188 42.667969 60.828125 C 43.261719 61.511719 43.667969 61.792969 44 62.433594 C 44.332031 63.078125 44.667969 64.359375 44.667969 65 C 44.667969 65.644531 44.667969 65.578125 44.667969 65.964844 L 44 65.964844 C 43.332031 65.964844 42 65.324219 41.667969 65 L 40.667969 64.039062 C 40 63.398438 39.332031 63.074219 38.332031 63.074219 C 37.332031 63.074219 36.667969 63.398438 36 64.039062 C 35.332031 64.679688 35 65.324219 35 66.285156 C 35 67.25 35.332031 67.890625 36 68.53125 C 36.667969 69.175781 37.332031 69.496094 38.332031 69.496094 C 39.332031 69.496094 40 69.175781 40.667969 68.53125 L 41.667969 67.570312 C 42 67.25 43.332031 66.605469 44 66.605469 L 44.667969 66.605469 C 44.648438 67.515625 44.582031 69.101562 44.332031 69.816406 C 44 70.78125 43.332031 71.742188 42.667969 72.382812 C 42 73.027344 40 74.308594 40 74.308594 L 40 74.632812 C 40 74.632812 43.332031 73.988281 44 73.988281 L 46 73.988281 C 46.667969 73.988281 50 74.632812 50 74.632812 L 50 74.308594 C 50 74.308594 48 73.027344 47.332031 72.382812 C 46.667969 71.742188 46 70.78125 45.667969 69.816406 C 45.417969 69.101562 45.351562 67.515625 45.332031 66.605469 L 46 66.605469 C 46.667969 66.605469 48 67.25 48.332031 67.570312 L 49.332031 68.53125 C 50 69.175781 50.667969 69.496094 51.667969 69.496094 C 52.667969 69.496094 53.332031 69.175781 54 68.53125 C 54.667969 67.890625 55 67.25 55 66.285156 C 55 65.324219 54.667969 64.679688 54 64.039062 C 53.332031 63.398438 52.667969 63.074219 51.667969 63.074219 C 50.667969 63.074219 50 63.398438 49.332031 64.039062 L 48.332031 65 C 48 65.324219 46.667969 65.964844 46 65.964844 L 45.332031 65.964844 C 45.332031 65.519531 45.332031 65.644531 45.332031 65 C 45.332031 64.359375 45.667969 63.074219 46 62.433594 C 46.332031 61.792969 46.667969 61.472656 47.332031 60.828125 C 47.996094 60.191406 48.332031 59.546875 48.332031 58.582031 C 48.332031 57.621094 48 56.976562 47.332031 56.335938 C 46.667969 55.695312 46 55.371094 45 55.371094 "/>
<path style=" stroke:none;fill-rule:nonzero;fill:rgb(0%,0%,0%);fill-opacity:1;" d="M 7.5 21.667969 C 7.125 21.660156 6.875 21.785156 6.625 22.027344 C 6.375 22.269531 6.25 22.507812 6.25 22.871094 C 6.25 23.230469 6.390625 23.445312 6.625 23.714844 C 6.847656 23.96875 7 24.074219 7.125 24.316406 C 7.25 24.554688 7.375 25.035156 7.375 25.277344 C 7.375 25.519531 7.375 25.496094 7.375 25.640625 L 7.125 25.640625 C 6.875 25.640625 6.375 25.398438 6.25 25.277344 L 5.875 24.917969 C 5.625 24.675781 5.375 24.554688 5 24.554688 C 4.625 24.554688 4.375 24.675781 4.125 24.917969 C 3.875 25.15625 3.75 25.398438 3.75 25.757812 C 3.75 26.121094 3.875 26.359375 4.125 26.601562 C 4.375 26.84375 4.625 26.964844 5 26.964844 C 5.375 26.964844 5.625 26.84375 5.875 26.601562 L 6.25 26.242188 C 6.375 26.121094 6.875 25.878906 7.125 25.878906 L 7.375 25.878906 C 7.367188 26.21875 7.34375 26.816406 7.25 27.082031 C 7.125 27.445312 6.875 27.804688 6.625 28.046875 C 6.375 28.285156 5.625 28.769531 5.625 28.769531 L 5.625 28.890625 C 5.625 28.890625 6.875 28.648438 7.125 28.648438 L 7.875 28.648438 C 8.125 28.648438 9.375 28.890625 9.375 28.890625 L 9.375 28.769531 C 9.375 28.769531 8.625 28.285156 8.375 28.046875 C 8.125 27.804688 7.875 27.445312 7.75 27.082031 C 7.65625 26.816406 7.632812 26.21875 7.625 25.878906 L 7.875 25.878906 C 8.125 25.878906 8.625 26.121094 8.75 26.242188 L 9.125 26.601562 C 9.375 26.84375 9.625 26.964844 10 26.964844 C 10.375 26.964844 10.625 26.84375 10.875 26.601562 C 11.125 26.359375 11.25 26.121094 11.25 25.757812 C 11.25 25.398438 11.125 25.15625 10.875 24.917969 C 10.625 24.675781 10.375 24.554688 10 24.554688 C 9.625 24.554688 9.375 24.675781 9.125 24.917969 L 8.75 25.277344 C 8.625 25.398438 8.125 25.640625 7.875 25.640625 L 7.625 25.640625 C 7.625 25.472656 7.625 25.519531 7.625 25.277344 C 7.625 25.035156 7.75 24.554688 7.875 24.316406 C 8 24.074219 8.125 23.953125 8.375 23.714844 C 8.625 23.472656 8.75 23.230469 8.75 22.871094 C 8.75 22.507812 8.625 22.269531 8.375 22.027344 C 8.125 21.785156 7.875 21.667969 7.5 21.667969 "/>
<path style=" stroke:none;fill-rule:nonzero;fill:rgb(0%,0%,0%);fill-opacity:1;" d="M 82.5 108.332031 C 82.875 108.339844 83.125 108.214844 83.375 107.972656 C 83.625 107.730469 83.75 107.492188 83.75 107.128906 C 83.75 106.769531 83.609375 106.554688 83.375 106.285156 C 83.152344 106.03125 83 105.925781 82.875 105.683594 C 82.75 105.445312 82.625 104.964844 82.625 104.722656 C 82.625 104.480469 82.625 104.503906 82.625 104.359375 L 82.875 104.359375 C 83.125 104.359375 83.625 104.601562 83.75 104.722656 L 84.125 105.082031 C 84.375 105.324219 84.625 105.445312 85 105.445312 C 85.375 105.445312 85.625 105.324219 85.875 105.082031 C 86.125 104.84375 86.25 104.601562 86.25 104.242188 C 86.25 103.878906 86.125 103.640625 85.875 103.398438 C 85.625 103.15625 85.375 103.035156 85 103.035156 C 84.625 103.035156 84.375 103.15625 84.125 103.398438 L 83.75 103.757812 C 83.625 103.878906 83.125 104.121094 82.875 104.121094 L 82.625 104.121094 C 82.632812 103.78125 82.65625 103.183594 82.75 102.917969 C 82.875 102.554688 83.125 102.195312 83.375 101.953125 C 83.625 101.714844 84.375 101.230469 84.375 101.230469 L 84.375 101.109375 C 84.375 101.109375 83.125 101.351562 82.875 101.351562 L 82.125 101.351562 C 81.875 101.351562 80.625 101.109375 80.625 101.109375 L 80.625 101.230469 C 80.625 101.230469 81.375 101.714844 81.625 101.953125 C 81.875 102.195312 82.125 102.554688 82.25 102.917969 C 82.34375 103.183594 82.367188 103.78125 82.375 104.121094 L 82.125 104.121094 C 81.875 104.121094 81.375 103.878906 81.25 103.757812 L 80.875 103.398438 C 80.625 103.15625 80.375 103.035156 80 103.035156 C 79.625 103.035156 79.375 103.15625 79.125 103.398438 C 78.875 103.640625 78.75 103.878906 78.75 104.242188 C 78.75 104.601562 78.875 104.84375 79.125 105.082031 C 79.375 105.324219 79.625 105.445312 80 105.445312 C 80.375 105.445312 80.625 105.324219 80.875 105.082031 L 81.25 104.722656 C 81.375 104.601562 81.875 104.359375 82.125 104.359375 L 82.375 104.359375 C 82.375 104.527344 82.375 104.480469 82.375 104.722656 C 82.375 104.964844 82.25 105.445312 82.125 105.683594 C 82 105.925781 81.875 106.046875 81.625 106.285156 C 81.375 106.527344 81.25 106.769531 81.25 107.128906 C 81.25 107.492188 81.375 107.730469 81.625 107.972656 C 81.875 108.214844 82.125 108.332031 82.5 108.332031 "/>
<path style=" stroke:none;fill-rule:nonzero;fill:rgb(0%,0%,0%);fill-opacity:1;" d="M 5 7.222656 L 5 8.425781 L 6.898438 8.425781 L 6.898438 19.257812 L 8.148438 19.257812 L 8.148438 8.425781 L 10 8.425781 L 10 7.222656 Z M 5 7.222656 "/>
<path style=" stroke:none;fill-rule:nonzero;fill:rgb(0%,0%,0%);fill-opacity:1;" d="M 80 122.777344 L 80 121.574219 L 81.898438 121.574219 L 81.898438 110.742188 L 83.148438 110.742188 L 83.148438 121.574219 L 85 121.574219 L 85 122.777344 Z M 80 122.777344 "/>
</g>
</svg>
