<?xml version="1.0" encoding="UTF-8"?>
<svg xmlns="http://www.w3.org/2000/svg" xmlns:xlink="http://www.w3.org/1999/xlink" width="87pt" height="130pt" viewBox="0 0 87 130" version="1.1">
<g id="surface1">
<path style="fill-rule:nonzero;fill:rgb(100%,100%,100%);fill-opacity:1;stroke-width:1;stroke-linecap:butt;stroke-linejoin:miter;stroke:rgb(0%,0%,0%);stroke-opacity:1;stroke-miterlimit:4;" d="M 30.436422 512.863005 L 329.563578 512.863005 C 346.099138 512.863005 359.498922 526.265649 359.498922 542.799904 L 359.498922 1021.920096 C 359.498922 1038.454351 346.099138 1051.856995 329.563578 1051.856995 L 30.436422 1051.856995 C 13.900862 1051.856995 0.501078 1038.454351 0.501078 1021.920096 L 0.501078 542.799904 C 0.501078 526.265649 13.900862 512.863005 30.436422 512.863005 Z M 30.436422 512.863005 " transform="matrix(0.241667,0,0,0.240741,0,-123.345926)"/>
<path style=" stroke:none;fill-rule:nonzero;fill:rgb(0%,0%,0%);fill-opacity:1;" d="M 4.832031 7.222656 L 4.832031 9.628906 L 6.042969 9.628906 L 6.042969 8.425781 L 8.457031 8.425781 L 6.042969 19.257812 L 7.25 19.257812 L 9.667969 8.425781 L 9.667969 7.222656 L 4.832031 7.222656 "/>
<path style=" stroke:none;fill-rule:nonzero;fill:rgb(0%,0%,0%);fill-opacity:1;" d="M 82.167969 122.777344 L 82.167969 120.371094 L 80.957031 120.371094 L 80.957031 121.574219 L 78.542969 121.574219 L 80.957031 110.742188 L 79.75 110.742188 L 77.332031 121.574219 L 77.332031 122.777344 L 82.167969 122.777344 "/>
<path style=" stroke:none;fill-rule:nonzero;fill:rgb(0%,0%,0%);fill-opacity:1;" d="M 24.167969 12.039062 C 23.199219 12.019531 22.554688 12.359375 21.910156 13.003906 C 21.265625 13.644531 20.945312 14.285156 20.945312 15.25 C 20.945312 16.210938 21.3125 16.785156 21.910156 17.496094 C 22.484375 18.179688 22.878906 18.460938 23.199219 19.101562 C 23.523438 19.742188 23.84375 21.027344 23.84375 21.667969 C 23.84375 22.3125 23.84375 22.246094 23.84375 22.632812 L 23.199219 22.632812 C 22.554688 22.632812 21.265625 21.988281 20.945312 21.667969 L 19.976562 20.707031 C 19.332031 20.0625 18.6875 19.742188 17.722656 19.742188 C 16.753906 19.742188 16.109375 20.0625 15.46875 20.707031 C 14.824219 21.347656 14.5 21.988281 14.5 22.953125 C 14.5 23.914062 14.824219 24.558594 15.46875 25.199219 C 16.113281 25.839844 16.753906 26.164062 17.722656 26.164062 C 18.6875 26.164062 19.332031 25.839844 19.976562 25.199219 L 20.945312 24.238281 C 21.265625 23.914062 22.554688 23.273438 23.199219 23.273438 L 23.84375 23.273438 C 23.828125 24.183594 23.761719 25.769531 23.523438 26.484375 C 23.199219 27.445312 22.554688 28.410156 21.910156 29.050781 C 21.265625 29.691406 19.332031 30.976562 19.332031 30.976562 L 19.332031 31.296875 C 19.332031 31.296875 22.554688 30.65625 23.199219 30.65625 L 25.132812 30.65625 C 25.777344 30.65625 29 31.296875 29 31.296875 L 29 30.976562 C 29 30.976562 27.066406 29.691406 26.421875 29.050781 C 25.777344 28.410156 25.132812 27.445312 24.8125 26.484375 C 24.570312 25.769531 24.503906 24.183594 24.488281 23.273438 L 25.132812 23.273438 C 25.777344 23.273438 27.066406 23.914062 27.390625 24.238281 L 28.355469 25.199219 C 29 25.839844 29.644531 26.164062 30.609375 26.164062 C 31.578125 26.164062 32.222656 25.839844 32.867188 25.199219 C 33.511719 24.558594 33.832031 23.914062 33.832031 22.953125 C 33.832031 21.988281 33.511719 21.347656 32.867188 20.707031 C 32.222656 20.0625 31.578125 19.742188 30.609375 19.742188 C 29.644531 19.742188 29 20.0625 28.355469 20.707031 L 27.390625 21.667969 C 27.066406 21.988281 25.777344 22.632812 25.132812 22.632812 L 24.488281 22.632812 C 24.488281 22.183594 24.488281 22.3125 24.488281 21.667969 C 24.488281 21.027344 24.8125 19.742188 25.132812 19.101562 C 25.457031 18.457031 25.777344 18.136719 26.421875 17.496094 C 27.0625 16.855469 27.390625 16.210938 27.390625 15.25 C 27.390625 14.285156 27.066406 13.644531 26.421875 13.003906 C 25.777344 12.359375 25.132812 12.039062 24.167969 12.039062 "/>
<path style=" stroke:none;fill-rule:nonzero;fill:rgb(0%,0%,0%);fill-opacity:1;" d="M 62.832031 12.039062 C 61.867188 12.019531 61.222656 12.359375 60.578125 13.003906 C 59.933594 13.644531 59.609375 14.285156 59.609375 15.25 C 59.609375 16.210938 59.976562 16.785156 60.578125 17.496094 C 61.152344 18.179688 61.542969 18.460938 61.867188 19.101562 C 62.1875 19.742188 62.511719 21.027344 62.511719 21.667969 C 62.511719 22.3125 62.511719 22.246094 62.511719 22.632812 L 61.867188 22.632812 C 61.222656 22.632812 59.933594 21.988281 59.609375 21.667969 L 58.644531 20.707031 C 58 20.0625 57.355469 19.742188 56.390625 19.742188 C 55.421875 19.742188 54.777344 20.0625 54.132812 20.707031 C 53.488281 21.347656 53.167969 21.988281 53.167969 22.953125 C 53.167969 23.914062 53.488281 24.558594 54.132812 25.199219 C 54.777344 25.839844 55.421875 26.164062 56.390625 26.164062 C 57.355469 26.164062 58 25.839844 58.644531 25.199219 L 59.609375 24.238281 C 59.933594 23.914062 61.222656 23.273438 61.867188 23.273438 L 62.511719 23.273438 C 62.496094 24.183594 62.425781 25.769531 62.1875 26.484375 C 61.867188 27.445312 61.222656 28.410156 60.578125 29.050781 C 59.933594 29.691406 58 30.976562 58 30.976562 L 58 31.296875 C 58 31.296875 61.222656 30.65625 61.867188 30.65625 L 63.800781 30.65625 C 64.445312 30.65625 67.667969 31.296875 67.667969 31.296875 L 67.667969 30.976562 C 67.667969 30.976562 65.734375 29.691406 65.089844 29.050781 C 64.445312 28.410156 63.800781 27.445312 63.476562 26.484375 C 63.238281 25.769531 63.171875 24.183594 63.15625 23.273438 L 63.800781 23.273438 C 64.445312 23.273438 65.734375 23.914062 66.054688 24.238281 L 67.023438 25.199219 C 67.667969 25.839844 68.3125 26.164062 69.277344 26.164062 C 70.246094 26.164062 70.890625 25.839844 71.53125 25.199219 C 72.175781 24.558594 72.5 23.914062 72.5 22.953125 C 72.5 21.988281 72.175781 21.347656 71.53125 20.707031 C 70.886719 20.0625 70.246094 19.742188 69.277344 19.742188 C 68.3125 19.742188 67.667969 20.0625 67.023438 20.707031 L 66.054688 21.667969 C 65.734375 21.988281 64.445312 22.632812 63.800781 22.632812 L 63.15625 22.632812 C 63.15625 22.183594 63.15625 22.3125 63.15625 21.667969 C 63.15625 21.027344 63.476562 19.742188 63.800781 19.101562 C 64.121094 18.457031 64.445312 18.136719 65.089844 17.496094 C 65.730469 16.855469 66.054688 16.210938 66.054688 15.25 C 66.054688 14.285156 65.734375 13.644531 65.089844 13.003906 C 64.445312 12.359375 63.800781 12.039062 62.832031 12.039062 "/>
<path style=" stroke:none;fill-rule:nonzero;fill:rgb(0%,0%,0%);fill-opacity:1;" d="M 24.167969 55.371094 C 23.199219 55.351562 22.554688 55.695312 21.910156 56.335938 C 21.265625 56.976562 20.945312 57.621094 20.945312 58.582031 C 20.945312 59.546875 21.3125 60.117188 21.910156 60.828125 C 22.484375 61.511719 22.878906 61.792969 23.199219 62.433594 C 23.523438 63.078125 23.84375 64.359375 23.84375 65 C 23.84375 65.644531 23.84375 65.578125 23.84375 65.964844 L 23.199219 65.964844 C 22.554688 65.964844 21.265625 65.324219 20.945312 65 L 19.976562 64.039062 C 19.332031 63.398438 18.6875 63.074219 17.722656 63.074219 C 16.753906 63.074219 16.109375 63.398438 15.46875 64.039062 C 14.824219 64.679688 14.5 65.324219 14.5 66.285156 C 14.5 67.25 14.824219 67.890625 15.46875 68.53125 C 16.113281 69.175781 16.753906 69.496094 17.722656 69.496094 C 18.6875 69.496094 19.332031 69.175781 19.976562 68.53125 L 20.945312 67.570312 C 21.265625 67.25 22.554688 66.605469 23.199219 66.605469 L 23.84375 66.605469 C 23.828125 67.515625 23.761719 69.101562 23.523438 69.816406 C 23.199219 70.78125 22.554688 71.742188 21.910156 72.382812 C 21.265625 73.027344 19.332031 74.308594 19.332031 74.308594 L 19.332031 74.632812 C 19.332031 74.632812 22.554688 73.988281 23.199219 73.988281 L 25.132812 73.988281 C 25.777344 73.988281 29 74.632812 29 74.632812 L 29 74.308594 C 29 74.308594 27.066406 73.027344 26.421875 72.382812 C 25.777344 71.742188 25.132812 70.78125 24.8125 69.816406 C 24.570312 69.101562 24.503906 67.515625 24.488281 66.605469 L 25.132812 66.605469 C 25.777344 66.605469 27.066406 67.25 27.390625 67.570312 L 28.355469 68.53125 C 29 69.175781 29.644531 69.496094 30.609375 69.496094 C 31.578125 69.496094 32.222656 69.175781 32.867188 68.53125 C 33.511719 67.890625 33.832031 67.25 33.832031 66.285156 C 33.832031 65.324219 33.511719 64.679688 32.867188 64.039062 C 32.222656 63.398438 31.578125 63.074219 30.609375 63.074219 C 29.644531 63.074219 29 63.398438 28.355469 64.039062 L 27.390625 65 C 27.066406 65.324219 25.777344 65.964844 25.132812 65.964844 L 24.488281 65.964844 C 24.488281 65.519531 24.488281 65.644531 24.488281 65 C 24.488281 64.359375 24.8125 63.074219 25.132812 62.433594 C 25.457031 61.792969 25.777344 61.472656 26.421875 60.828125 C 27.0625 60.191406 27.390625 59.546875 27.390625 58.582031 C 27.390625 57.621094 27.066406 56.976562 26.421875 56.335938 C 25.777344 55.695312 25.132812 55.371094 24.167969 55.371094 "/>
<path style=" stroke:none;fill-rule:nonzero;fill:rgb(0%,0%,0%);fill-opacity:1;" d="M 62.832031 55.371094 C 61.867188 55.351562 61.222656 55.695312 60.578125 56.335938 C 59.933594 56.976562 59.609375 57.621094 59.609375 58.582031 C 59.609375 59.546875 59.976562 60.117188 60.578125 60.828125 C 61.152344 61.511719 61.542969 61.792969 61.867188 62.433594 C 62.1875 63.078125 62.511719 64.359375 62.511719 65 C 62.511719 65.644531 62.511719 65.578125 62.511719 65.964844 L 61.867188 65.964844 C 61.222656 65.964844 59.933594 65.324219 59.609375 65 L 58.644531 64.039062 C 58 63.398438 57.355469 63.074219 56.390625 63.074219 C 55.421875 63.074219 54.777344 63.398438 54.132812 64.039062 C 53.488281 64.679688 53.167969 65.324219 53.167969 66.285156 C 53.167969 67.25 53.488281 67.890625 54.132812 68.53125 C 54.777344 69.175781 55.421875 69.496094 56.390625 69.496094 C 57.355469 69.496094 58 69.175781 58.644531 68.53125 L 59.609375 67.570312 C 59.933594 67.25 61.222656 66.605469 61.867188 66.605469 L 62.511719 66.605469 C 62.496094 67.515625 62.425781 69.101562 62.1875 69.816406 C 61.867188 70.78125 61.222656 71.742188 60.578125 72.382812 C 59.933594 73.027344 58 74.308594 58 74.308594 L 58 74.632812 C 58 74.632812 61.222656 73.988281 61.867188 73.988281 L 63.800781 73.988281 C 64.445312 73.988281 67.667969 74.632812 67.667969 74.632812 L 67.667969 74.308594 C 67.667969 74.308594 65.734375 73.027344 65.089844 72.382812 C 64.445312 71.742188 63.800781 70.78125 63.476562 69.816406 C 63.238281 69.101562 63.171875 67.515625 63.15625 66.605469 L 63.800781 66.605469 C 64.445312 66.605469 65.734375 67.25 66.054688 67.570312 L 67.023438 68.53125 C 67.667969 69.175781 68.3125 69.496094 69.277344 69.496094 C 70.246094 69.496094 70.890625 69.175781 71.53125 68.53125 C 72.175781 67.890625 72.5 67.25 72.5 66.285156 C 72.5 65.324219 72.175781 64.679688 71.53125 64.039062 C 70.886719 63.398438 70.246094 63.074219 69.277344 63.074219 C 68.3125 63.074219 67.667969 63.398438 67.023438 64.039062 L 66.054688 65 C 65.734375 65.324219 64.445312 65.964844 63.800781 65.964844 L 63.15625 65.964844 C 63.15625 65.519531 63.15625 65.644531 63.15625 65 C 63.15625 64.359375 63.476562 63.074219 63.800781 62.433594 C 64.121094 61.792969 64.445312 61.472656 65.089844 60.828125 C 65.730469 60.191406 66.054688 59.546875 66.054688 58.582031 C 66.054688 57.621094 65.734375 56.976562 65.089844 56.335938 C 64.445312 55.695312 63.800781 55.371094 62.832031 55.371094 "/>
<path style=" stroke:none;fill-rule:nonzero;fill:rgb(0%,0%,0%);fill-opacity:1;" d="M 43.5 33.707031 C 42.535156 33.6875 41.890625 34.027344 41.246094 34.667969 C 40.601562 35.3125 40.277344 35.953125 40.277344 36.914062 C 40.277344 37.878906 40.644531 38.449219 41.246094 39.164062 C 41.820312 39.84375 42.210938 40.125 42.535156 40.765625 C 42.855469 41.410156 43.179688 42.695312 43.179688 43.335938 C 43.179688 43.976562 43.179688 43.914062 43.179688 44.296875 L 42.535156 44.296875 C 41.890625 44.296875 40.601562 43.65625 40.277344 43.335938 L 39.3125 42.371094 C 38.667969 41.730469 38.023438 41.410156 37.054688 41.410156 C 36.089844 41.410156 35.445312 41.730469 34.800781 42.371094 C 34.15625 43.015625 33.832031 43.65625 33.832031 44.617188 C 33.832031 45.582031 34.15625 46.222656 34.800781 46.867188 C 35.445312 47.507812 36.089844 47.828125 37.054688 47.828125 C 38.023438 47.828125 38.667969 47.507812 39.3125 46.867188 L 40.277344 45.902344 C 40.601562 45.582031 41.890625 44.941406 42.535156 44.941406 L 43.179688 44.941406 C 43.160156 45.847656 43.09375 47.4375 42.855469 48.148438 C 42.535156 49.113281 41.890625 50.074219 41.246094 50.71875 C 40.601562 51.359375 38.667969 52.644531 38.667969 52.644531 L 38.667969 52.964844 C 38.667969 52.964844 41.890625 52.324219 42.535156 52.324219 L 44.464844 52.324219 C 45.109375 52.324219 48.332031 52.964844 48.332031 52.964844 L 48.332031 52.644531 C 48.332031 52.644531 46.398438 51.359375 45.753906 50.71875 C 45.109375 50.074219 44.464844 49.113281 44.144531 48.148438 C 43.90625 47.4375 43.839844 45.847656 43.820312 44.941406 L 44.464844 44.941406 C 45.109375 44.941406 46.398438 45.582031 46.722656 45.902344 L 47.6875 46.867188 C 48.332031 47.507812 48.976562 47.828125 49.945312 47.828125 C 50.910156 47.828125 51.554688 47.507812 52.199219 46.867188 C 52.84375 46.222656 53.167969 45.582031 53.167969 44.617188 C 53.167969 43.65625 52.84375 43.015625 52.199219 42.371094 C 51.554688 41.730469 50.910156 41.410156 49.945312 41.410156 C 48.976562 41.410156 48.332031 41.730469 47.6875 42.371094 L 46.722656 43.335938 C 46.398438 43.65625 45.109375 44.296875 44.464844 44.296875 L 43.820312 44.296875 C 43.820312 43.851562 43.820312 43.976562 43.820312 43.335938 C 43.820312 42.691406 44.144531 41.410156 44.464844 40.765625 C 44.789062 40.125 45.109375 39.804688 45.753906 39.164062 C 46.398438 38.523438 46.722656 37.878906 46.722656 36.914062 C 46.722656 35.953125 46.398438 35.3125 45.753906 34.667969 C 45.109375 34.027344 44.464844 33.707031 43.5 33.707031 "/>
<path style=" stroke:none;fill-rule:nonzero;fill:rgb(0%,0%,0%);fill-opacity:1;" d="M 62.832031 117.964844 C 63.800781 117.984375 64.445312 117.640625 65.089844 117 C 65.734375 116.359375 66.054688 115.714844 66.054688 114.753906 C 66.054688 113.789062 65.6875 113.21875 65.089844 112.507812 C 64.515625 111.824219 64.121094 111.542969 63.800781 110.902344 C 63.476562 110.257812 63.15625 108.976562 63.15625 108.332031 C 63.15625 107.691406 63.15625 107.757812 63.15625 107.371094 L 63.800781 107.371094 C 64.445312 107.371094 65.734375 108.011719 66.054688 108.332031 L 67.023438 109.296875 C 67.667969 109.9375 68.3125 110.257812 69.277344 110.257812 C 70.246094 110.257812 70.890625 109.9375 71.53125 109.296875 C 72.175781 108.65625 72.5 108.011719 72.5 107.050781 C 72.5 106.085938 72.175781 105.445312 71.53125 104.804688 C 70.886719 104.160156 70.246094 103.839844 69.277344 103.839844 C 68.3125 103.839844 67.667969 104.160156 67.023438 104.804688 L 66.054688 105.765625 C 65.734375 106.085938 64.445312 106.730469 63.800781 106.730469 L 63.15625 106.730469 C 63.171875 105.820312 63.238281 104.234375 63.476562 103.519531 C 63.800781 102.554688 64.445312 101.59375 65.089844 100.953125 C 65.734375 100.308594 67.667969 99.027344 67.667969 99.027344 L 67.667969 98.703125 C 67.667969 98.703125 64.445312 99.347656 63.800781 99.347656 L 61.867188 99.347656 C 61.222656 99.347656 58 98.703125 58 98.703125 L 58 99.027344 C 58 99.027344 59.933594 100.308594 60.578125 100.953125 C 61.222656 101.59375 61.867188 102.554688 62.1875 103.519531 C 62.429688 104.234375 62.496094 105.820312 62.511719 106.730469 L 61.867188 106.730469 C 61.222656 106.730469 59.933594 106.085938 59.609375 105.765625 L 58.644531 104.804688 C 58 104.160156 57.355469 103.839844 56.390625 103.839844 C 55.421875 103.839844 54.777344 104.160156 54.132812 104.804688 C 53.488281 105.445312 53.167969 106.085938 53.167969 107.050781 C 53.167969 108.011719 53.488281 108.65625 54.132812 109.296875 C 54.777344 109.9375 55.421875 110.257812 56.390625 110.257812 C 57.355469 110.257812 58 109.9375 58.644531 109.296875 L 59.609375 108.332031 C 59.933594 108.011719 61.222656 107.371094 61.867188 107.371094 L 62.511719 107.371094 C 62.511719 107.816406 62.511719 107.691406 62.511719 108.332031 C 62.511719 108.976562 62.1875 110.257812 61.867188 110.902344 C 61.542969 111.542969 61.222656 111.863281 60.578125 112.507812 C 59.9375 113.144531 59.609375 113.789062 59.609375 114.753906 C 59.609375 115.714844 59.933594 116.359375 60.578125 117 C 61.222656 117.640625 61.867188 117.964844 62.832031 117.964844 "/>
<path style=" stroke:none;fill-rule:nonzero;fill:rgb(0%,0%,0%);fill-opacity:1;" d="M 24.167969 117.964844 C 25.132812 117.984375 25.777344 117.640625 26.421875 117 C 27.066406 116.359375 27.390625 115.714844 27.390625 114.753906 C 27.390625 113.789062 27.023438 113.21875 26.421875 112.507812 C 25.847656 111.824219 25.457031 111.542969 25.132812 110.902344 C 24.8125 110.257812 24.488281 108.976562 24.488281 108.332031 C 24.488281 107.691406 24.488281 107.757812 24.488281 107.371094 L 25.132812 107.371094 C 25.777344 107.371094 27.066406 108.011719 27.390625 108.332031 L 28.355469 109.296875 C 29 109.9375 29.644531 110.257812 30.609375 110.257812 C 31.578125 110.257812 32.222656 109.9375 32.867188 109.296875 C 33.511719 108.65625 33.832031 108.011719 33.832031 107.050781 C 33.832031 106.085938 33.511719 105.445312 32.867188 104.804688 C 32.222656 104.160156 31.578125 103.839844 30.609375 103.839844 C 29.644531 103.839844 29 104.160156 28.355469 104.804688 L 27.390625 105.765625 C 27.066406 106.085938 25.777344 106.730469 25.132812 106.730469 L 24.488281 106.730469 C 24.503906 105.820312 24.574219 104.234375 24.8125 103.519531 C 25.132812 102.554688 25.777344 101.59375 26.421875 100.953125 C 27.066406 100.308594 29 99.027344 29 99.027344 L 29 98.703125 C 29 98.703125 25.777344 99.347656 25.132812 99.347656 L 23.199219 99.347656 C 22.554688 99.347656 19.332031 98.703125 19.332031 98.703125 L 19.332031 99.027344 C 19.332031 99.027344 21.265625 100.308594 21.910156 100.953125 C 22.554688 101.59375 23.199219 102.554688 23.523438 103.519531 C 23.761719 104.234375 23.828125 105.820312 23.84375 106.730469 L 23.199219 106.730469 C 22.554688 106.730469 21.265625 106.085938 20.945312 105.765625 L 19.976562 104.804688 C 19.332031 104.160156 18.6875 103.839844 17.722656 103.839844 C 16.753906 103.839844 16.109375 104.160156 15.46875 104.804688 C 14.824219 105.445312 14.5 106.085938 14.5 107.050781 C 14.5 108.011719 14.824219 108.65625 15.46875 109.296875 C 16.113281 109.9375 16.753906 110.257812 17.722656 110.257812 C 18.6875 110.257812 19.332031 109.9375 19.976562 109.296875 L 20.945312 108.332031 C 21.265625 108.011719 22.554688 107.371094 23.199219 107.371094 L 23.84375 107.371094 C 23.84375 107.816406 23.84375 107.691406 23.84375 108.332031 C 23.84375 108.976562 23.523438 110.257812 23.199219 110.902344 C 22.878906 111.542969 22.554688 111.863281 21.910156 112.507812 C 21.269531 113.144531 20.945312 113.789062 20.945312 114.753906 C 20.945312 115.714844 21.265625 116.359375 21.910156 117 C 22.554688 117.640625 23.199219 117.964844 24.167969 117.964844 "/>
<path style=" stroke:none;fill-rule:nonzero;fill:rgb(0%,0%,0%);fill-opacity:1;" d="M 7.25 21.667969 C 6.886719 21.660156 6.644531 21.785156 6.402344 22.027344 C 6.164062 22.269531 6.042969 22.507812 6.042969 22.871094 C 6.042969 23.230469 6.179688 23.445312 6.402344 23.714844 C 6.621094 23.96875 6.765625 24.074219 6.886719 24.316406 C 7.007812 24.554688 7.128906 25.035156 7.128906 25.277344 C 7.128906 25.519531 7.128906 25.496094 7.128906 25.640625 L 6.886719 25.640625 C 6.644531 25.640625 6.164062 25.398438 6.042969 25.277344 L 5.679688 24.917969 C 5.4375 24.675781 5.195312 24.554688 4.832031 24.554688 C 4.472656 24.554688 4.230469 24.675781 3.988281 24.917969 C 3.746094 25.15625 3.625 25.398438 3.625 25.757812 C 3.625 26.121094 3.746094 26.359375 3.988281 26.601562 C 4.230469 26.84375 4.472656 26.964844 4.832031 26.964844 C 5.195312 26.964844 5.4375 26.84375 5.679688 26.601562 L 6.042969 26.242188 C 6.164062 26.121094 6.644531 25.878906 6.886719 25.878906 L 7.128906 25.878906 C 7.125 26.21875 7.097656 26.816406 7.007812 27.082031 C 6.886719 27.445312 6.644531 27.804688 6.402344 28.046875 C 6.164062 28.285156 5.4375 28.769531 5.4375 28.769531 L 5.4375 28.890625 C 5.4375 28.890625 6.644531 28.648438 6.886719 28.648438 L 7.613281 28.648438 C 7.855469 28.648438 9.0625 28.890625 9.0625 28.890625 L 9.0625 28.769531 C 9.0625 28.769531 8.335938 28.285156 8.097656 28.046875 C 7.855469 27.804688 7.613281 27.445312 7.492188 27.082031 C 7.402344 26.816406 7.375 26.21875 7.371094 25.878906 L 7.613281 25.878906 C 7.855469 25.878906 8.335938 26.121094 8.457031 26.242188 L 8.820312 26.601562 C 9.0625 26.84375 9.304688 26.964844 9.667969 26.964844 C 10.027344 26.964844 10.269531 26.84375 10.511719 26.601562 C 10.753906 26.359375 10.875 26.121094 10.875 25.757812 C 10.875 25.398438 10.753906 25.15625 10.511719 24.917969 C 10.269531 24.675781 10.027344 24.554688 9.667969 24.554688 C 9.304688 24.554688 9.0625 24.675781 8.820312 24.917969 L 8.457031 25.277344 C 8.335938 25.398438 7.855469 25.640625 7.613281 25.640625 L 7.371094 25.640625 C 7.371094 25.472656 7.371094 25.519531 7.371094 25.277344 C 7.371094 25.035156 7.492188 24.554688 7.613281 24.316406 C 7.734375 24.074219 7.855469 23.953125 8.097656 23.714844 C 8.335938 23.472656 8.457031 23.230469 8.457031 22.871094 C 8.457031 22.507812 8.335938 22.269531 8.097656 22.027344 C 7.855469 21.785156 7.613281 21.667969 7.25 21.667969 "/>
<path style=" stroke:none;fill-rule:nonzero;fill:rgb(0%,0%,0%);fill-opacity:1;" d="M 79.75 108.332031 C 80.113281 108.339844 80.355469 108.214844 80.597656 107.972656 C 80.835938 107.730469 80.957031 107.492188 80.957031 107.128906 C 80.957031 106.769531 80.820312 106.554688 80.597656 106.285156 C 80.378906 106.03125 80.234375 105.925781 80.113281 105.683594 C 79.992188 105.445312 79.871094 104.964844 79.871094 104.722656 C 79.871094 104.480469 79.871094 104.503906 79.871094 104.359375 L 80.113281 104.359375 C 80.355469 104.359375 80.835938 104.601562 80.957031 104.722656 L 81.320312 105.082031 C 81.5625 105.324219 81.804688 105.445312 82.167969 105.445312 C 82.527344 105.445312 82.769531 105.324219 83.011719 105.082031 C 83.253906 104.84375 83.375 104.601562 83.375 104.242188 C 83.375 103.878906 83.253906 103.640625 83.011719 103.398438 C 82.769531 103.15625 82.527344 103.035156 82.167969 103.035156 C 81.804688 103.035156 81.5625 103.15625 81.320312 103.398438 L 80.957031 103.757812 C 80.835938 103.878906 80.355469 104.121094 80.113281 104.121094 L 79.871094 104.121094 C 79.875 103.78125 79.902344 103.183594 79.992188 102.917969 C 80.113281 102.554688 80.355469 102.195312 80.597656 101.953125 C 80.835938 101.714844 81.5625 101.230469 81.5625 101.230469 L 81.5625 101.109375 C 81.5625 101.109375 80.355469 101.351562 80.113281 101.351562 L 79.386719 101.351562 C 79.144531 101.351562 77.9375 101.109375 77.9375 101.109375 L 77.9375 101.230469 C 77.9375 101.230469 78.664062 101.714844 78.902344 101.953125 C 79.144531 102.195312 79.386719 102.554688 79.507812 102.917969 C 79.597656 103.183594 79.625 103.78125 79.628906 104.121094 L 79.386719 104.121094 C 79.144531 104.121094 78.664062 103.878906 78.542969 103.757812 L 78.179688 103.398438 C 77.9375 103.15625 77.695312 103.035156 77.332031 103.035156 C 76.972656 103.035156 76.730469 103.15625 76.488281 103.398438 C 76.246094 103.640625 76.125 103.878906 76.125 104.242188 C 76.125 104.601562 76.246094 104.84375 76.488281 105.082031 C 76.730469 105.324219 76.972656 105.445312 77.332031 105.445312 C 77.695312 105.445312 77.9375 105.324219 78.179688 105.082031 L 78.542969 104.722656 C 78.664062 104.601562 79.144531 104.359375 79.386719 104.359375 L 79.628906 104.359375 C 79.628906 104.527344 79.628906 104.480469 79.628906 104.722656 C 79.628906 104.964844 79.507812 105.445312 79.386719 105.683594 C 79.265625 105.925781 79.144531 106.046875 78.902344 106.285156 C 78.664062 106.527344 78.542969 106.769531 78.542969 107.128906 C 78.542969 107.492188 78.664062 107.730469 78.902344 107.972656 C 79.144531 108.214844 79.386719 108.332031 79.75 108.332031 "/>
</g>
</svg>
