<?xml version="1.0" encoding="UTF-8"?>
<svg xmlns="http://www.w3.org/2000/svg" xmlns:xlink="http://www.w3.org/1999/xlink" width="90px" height="130px" viewBox="0 0 90 130" version="1.1">
<g id="surface1">
<path style="fill-rule:nonzero;fill:rgb(100%,100%,100%);fill-opacity:1;stroke-width:1;stroke-linecap:butt;stroke-linejoin:miter;stroke:rgb(0%,0%,0%);stroke-opacity:1;stroke-miterlimit:4;" d="M 30.4375 512.86299 L 329.5625 512.86299 C 346.09375 512.86299 359.5 526.265634 359.5 542.799889 L 359.5 1021.920082 C 359.5 1038.454336 346.09375 1051.856981 329.5625 1051.856981 L 30.4375 1051.856981 C 13.90625 1051.856981 0.5 1038.454336 0.5 1021.920082 L 0.5 542.799889 C 0.5 526.265634 13.90625 512.86299 30.4375 512.86299 Z M 30.4375 512.86299 " transform="matrix(0.25,0,0,0.240741,0,-123.345922)"/>
<path style=" stroke:none;fill-rule:nonzero;fill:rgb(0%,0%,0%);fill-opacity:1;" d="M 45 12.039062 C 44 12.019531 43.332031 12.359375 42.667969 13.003906 C 42 13.644531 41.667969 14.285156 41.667969 15.25 C 41.667969 16.210938 42.046875 16.785156 42.667969 17.496094 C 43.261719 18.179688 43.667969 18.460938 44 19.101562 C 44.332031 19.742188 44.667969 21.027344 44.667969 21.667969 C 44.667969 22.3125 44.667969 22.246094 44.667969 22.632812 L 44 22.632812 C 43.332031 22.632812 42 21.988281 41.667969 21.667969 L 40.667969 20.707031 C 40 20.0625 39.332031 19.742188 38.332031 19.742188 C 37.332031 19.742188 36.667969 20.0625 36 20.707031 C 35.332031 21.347656 35 21.988281 35 22.953125 C 35 23.914062 35.332031 24.558594 36 25.199219 C 36.667969 25.839844 37.332031 26.164062 38.332031 26.164062 C 39.332031 26.164062 40 25.839844 40.667969 25.199219 L 41.667969 24.238281 C 42 23.914062 43.332031 23.273438 44 23.273438 L 44.667969 23.273438 C 44.648438 24.183594 44.582031 25.769531 44.332031 26.484375 C 44 27.445312 43.332031 28.410156 42.667969 29.050781 C 42 29.691406 40 30.976562 40 30.976562 L 40 31.296875 C 40 31.296875 43.332031 30.65625 44 30.65625 L 46 30.65625 C 46.667969 30.65625 50 31.296875 50 31.296875 L 50 30.976562 C 50 30.976562 48 29.691406 47.332031 29.050781 C 46.667969 28.410156 46 27.445312 45.667969 26.484375 C 45.417969 25.769531 45.351562 24.183594 45.332031 23.273438 L 46 23.273438 C 46.667969 23.273438 48 23.914062 48.332031 24.238281 L 49.332031 25.199219 C 50 25.839844 50.667969 26.164062 51.667969 26.164062 C 52.667969 26.164062 53.332031 25.839844 54 25.199219 C 54.667969 24.558594 55 23.914062 55 22.953125 C 55 21.988281 54.667969 21.347656 54 20.707031 C 53.332031 20.0625 52.667969 19.742188 51.667969 19.742188 C 50.667969 19.742188 50 20.0625 49.332031 20.707031 L 48.332031 21.667969 C 48 21.988281 46.667969 22.632812 46 22.632812 L 45.332031 22.632812 C 45.332031 22.183594 45.332031 22.3125 45.332031 21.667969 C 45.332031 21.027344 45.667969 19.742188 46 19.101562 C 46.332031 18.457031 46.667969 18.136719 47.332031 17.496094 C 47.996094 16.855469 48.332031 16.210938 48.332031 15.25 C 48.332031 14.285156 48 13.644531 47.332031 13.003906 C 46.667969 12.359375 46 12.039062 45 12.039062 "/>
<path style=" stroke:none;fill-rule:nonzero;fill:rgb(0%,0%,0%);fill-opacity:1;" d="M 45 117.964844 C 46 117.984375 46.667969 117.640625 47.332031 117 C 48 116.359375 48.332031 115.714844 48.332031 114.753906 C 48.332031 113.789062 47.953125 113.21875 47.332031 112.507812 C 46.738281 111.824219 46.332031 111.542969 46 110.902344 C 45.667969 110.257812 45.332031 108.976562 45.332031 108.332031 C 45.332031 107.691406 45.332031 107.757812 45.332031 107.371094 L 46 107.371094 C 46.667969 107.371094 48 108.011719 48.332031 108.332031 L 49.332031 109.296875 C 50 109.9375 50.667969 110.257812 51.667969 110.257812 C 52.667969 110.257812 53.332031 109.9375 54 109.296875 C 54.667969 108.65625 55 108.011719 55 107.050781 C 55 106.085938 54.667969 105.445312 54 104.804688 C 53.332031 104.160156 52.667969 103.839844 51.667969 103.839844 C 50.667969 103.839844 50 104.160156 49.332031 104.804688 L 48.332031 105.765625 C 48 106.085938 46.667969 106.730469 46 106.730469 L 45.332031 106.730469 C 45.351562 105.820312 45.417969 104.234375 45.667969 103.519531 C 46 102.554688 46.667969 101.59375 47.332031 100.953125 C 48 100.308594 50 99.027344 50 99.027344 L 50 98.703125 C 50 98.703125 46.667969 99.347656 46 99.347656 L 44 99.347656 C 43.332031 99.347656 40 98.703125 40 98.703125 L 40 99.027344 C 40 99.027344 42 100.308594 42.667969 100.953125 C 43.332031 101.59375 44 102.554688 44.332031 103.519531 C 44.582031 104.234375 44.648438 105.820312 44.667969 106.730469 L 44 106.730469 C 43.332031 106.730469 42 106.085938 41.667969 105.765625 L 40.667969 104.804688 C 40 104.160156 39.332031 103.839844 38.332031 103.839844 C 37.332031 103.839844 36.667969 104.160156 36 104.804688 C 35.332031 105.445312 35 106.085938 35 107.050781 C 35 108.011719 35.332031 108.65625 36 109.296875 C 36.667969 109.9375 37.332031 110.257812 38.332031 110.257812 C 39.332031 110.257812 40 109.9375 40.667969 109.296875 L 41.667969 108.332031 C 42 108.011719 43.332031 107.371094 44 107.371094 L 44.667969 107.371094 C 44.667969 107.816406 44.667969 107.691406 44.667969 108.332031 C 44.667969 108.976562 44.332031 110.257812 44 110.902344 C 43.667969 111.542969 43.332031 111.863281 42.667969 112.507812 C 42.003906 113.144531 41.667969 113.789062 41.667969 114.753906 C 41.667969 115.714844 42 116.359375 42.667969 117 C 43.332031 117.640625 44 117.964844 45 117.964844 "/>
<path style=" stroke:none;fill-rule:nonzero;fill:rgb(0%,0%,0%);fill-opacity:1;" d="M 7.5 21.667969 C 7.125 21.660156 6.875 21.785156 6.625 22.027344 C 6.375 22.269531 6.25 22.507812 6.25 22.871094 C 6.25 23.230469 6.390625 23.445312 6.625 23.714844 C 6.847656 23.96875 7 24.074219 7.125 24.316406 C 7.25 24.554688 7.375 25.035156 7.375 25.277344 C 7.375 25.519531 7.375 25.496094 7.375 25.640625 L 7.125 25.640625 C 6.875 25.640625 6.375 25.398438 6.25 25.277344 L 5.875 24.917969 C 5.625 24.675781 5.375 24.554688 5 24.554688 C 4.625 24.554688 4.375 24.675781 4.125 24.917969 C 3.875 25.15625 3.75 25.398438 3.75 25.757812 C 3.75 26.121094 3.875 26.359375 4.125 26.601562 C 4.375 26.84375 4.625 26.964844 5 26.964844 C 5.375 26.964844 5.625 26.84375 5.875 26.601562 L 6.25 26.242188 C 6.375 26.121094 6.875 25.878906 7.125 25.878906 L 7.375 25.878906 C 7.367188 26.21875 7.34375 26.816406 7.25 27.082031 C 7.125 27.445312 6.875 27.804688 6.625 28.046875 C 6.375 28.285156 5.625 28.769531 5.625 28.769531 L 5.625 28.890625 C 5.625 28.890625 6.875 28.648438 7.125 28.648438 L 7.875 28.648438 C 8.125 28.648438 9.375 28.890625 9.375 28.890625 L 9.375 28.769531 C 9.375 28.769531 8.625 28.285156 8.375 28.046875 C 8.125 27.804688 7.875 27.445312 7.75 27.082031 C 7.65625 26.816406 7.632812 26.21875 7.625 25.878906 L 7.875 25.878906 C 8.125 25.878906 8.625 26.121094 8.75 26.242188 L 9.125 26.601562 C 9.375 26.84375 9.625 26.964844 10 26.964844 C 10.375 26.964844 10.625 26.84375 10.875 26.601562 C 11.125 26.359375 11.25 26.121094 11.25 25.757812 C 11.25 25.398438 11.125 25.15625 10.875 24.917969 C 10.625 24.675781 10.375 24.554688 10 24.554688 C 9.625 24.554688 9.375 24.675781 9.125 24.917969 L 8.75 25.277344 C 8.625 25.398438 8.125 25.640625 7.875 25.640625 L 7.625 25.640625 C 7.625 25.472656 7.625 25.519531 7.625 25.277344 C 7.625 25.035156 7.75 24.554688 7.875 24.316406 C 8 24.074219 8.125 23.953125 8.375 23.714844 C 8.625 23.472656 8.75 23.230469 8.75 22.871094 C 8.75 22.507812 8.625 22.269531 8.375 22.027344 C 8.125 21.785156 7.875 21.667969 7.5 21.667969 "/>
<path style=" stroke:none;fill-rule:nonzero;fill:rgb(0%,0%,0%);fill-opacity:1;" d="M 82.5 108.332031 C 82.875 108.339844 83.125 108.214844 83.375 107.972656 C 83.625 107.730469 83.75 107.492188 83.75 107.128906 C 83.75 106.769531 83.609375 106.554688 83.375 106.285156 C 83.152344 106.03125 83 105.925781 82.875 105.683594 C 82.75 105.445312 82.625 104.964844 82.625 104.722656 C 82.625 104.480469 82.625 104.503906 82.625 104.359375 L 82.875 104.359375 C 83.125 104.359375 83.625 104.601562 83.75 104.722656 L 84.125 105.082031 C 84.375 105.324219 84.625 105.445312 85 105.445312 C 85.375 105.445312 85.625 105.324219 85.875 105.082031 C 86.125 104.84375 86.25 104.601562 86.25 104.242188 C 86.25 103.878906 86.125 103.640625 85.875 103.398438 C 85.625 103.15625 85.375 103.035156 85 103.035156 C 84.625 103.035156 84.375 103.15625 84.125 103.398438 L 83.75 103.757812 C 83.625 103.878906 83.125 104.121094 82.875 104.121094 L 82.625 104.121094 C 82.632812 103.78125 82.65625 103.183594 82.75 102.917969 C 82.875 102.554688 83.125 102.195312 83.375 101.953125 C 83.625 101.714844 84.375 101.230469 84.375 101.230469 L 84.375 101.109375 C 84.375 101.109375 83.125 101.351562 82.875 101.351562 L 82.125 101.351562 C 81.875 101.351562 80.625 101.109375 80.625 101.109375 L 80.625 101.230469 C 80.625 101.230469 81.375 101.714844 81.625 101.953125 C 81.875 102.195312 82.125 102.554688 82.25 102.917969 C 82.34375 103.183594 82.367188 103.78125 82.375 104.121094 L 82.125 104.121094 C 81.875 104.121094 81.375 103.878906 81.25 103.757812 L 80.875 103.398438 C 80.625 103.15625 80.375 103.035156 80 103.035156 C 79.625 103.035156 79.375 103.15625 79.125 103.398438 C 78.875 103.640625 78.75 103.878906 78.75 104.242188 C 78.75 104.601562 78.875 104.84375 79.125 105.082031 C 79.375 105.324219 79.625 105.445312 80 105.445312 C 80.375 105.445312 80.625 105.324219 80.875 105.082031 L 81.25 104.722656 C 81.375 104.601562 81.875 104.359375 82.125 104.359375 L 82.375 104.359375 C 82.375 104.527344 82.375 104.480469 82.375 104.722656 C 82.375 104.964844 82.25 105.445312 82.125 105.683594 C 82 105.925781 81.875 106.046875 81.625 106.285156 C 81.375 106.527344 81.25 106.769531 81.25 107.128906 C 81.25 107.492188 81.375 107.730469 81.625 107.972656 C 81.875 108.214844 82.125 108.332031 82.5 108.332031 "/>
<path style=" stroke:none;fill-rule:nonzero;fill:rgb(0%,0%,0%);fill-opacity:1;" d="M 7.5 7.222656 C 6.113281 7.222656 5 8.296875 5 9.628906 L 5 10.832031 L 6.25 10.832031 L 6.25 9.628906 C 6.25 8.960938 6.808594 8.425781 7.5 8.425781 C 8.191406 8.425781 8.75 8.960938 8.75 9.628906 L 8.75 10.832031 C 8.75 11.105469 8.65625 11.570312 8.5 11.773438 C 7.382812 13.964844 6.179688 15.894531 5 18.054688 L 5 19.257812 L 10 19.257812 L 10 16.851562 L 8.75 16.851562 L 8.75 18.054688 L 6.375 18.054688 C 7.496094 16.148438 8.429688 14.308594 9.5 12.375 C 9.8125 11.972656 10 11.375 10 10.832031 L 10 9.628906 C 10 8.296875 8.886719 7.222656 7.5 7.222656 "/>
<path style=" stroke:none;fill-rule:nonzero;fill:rgb(0%,0%,0%);fill-opacity:1;" d="M 82.5 122.777344 C 83.886719 122.777344 85 121.703125 85 120.371094 L 85 119.167969 L 83.75 119.167969 L 83.75 120.371094 C 83.75 121.039062 83.191406 121.574219 82.5 121.574219 C 81.808594 121.574219 81.25 121.039062 81.25 120.371094 L 81.25 119.167969 C 81.25 118.894531 81.34375 118.429688 81.5 118.226562 C 82.617188 116.035156 83.820312 114.105469 85 111.945312 L 85 110.742188 L 80 110.742188 L 80 113.148438 L 81.25 113.148438 L 81.25 111.945312 L 83.625 111.945312 C 82.503906 113.851562 81.570312 115.691406 80.5 117.625 C 80.1875 118.027344 80 118.625 80 119.167969 L 80 120.371094 C 80 121.703125 81.113281 122.777344 82.5 122.777344 "/>
</g>
</svg>
