<?xml version="1.0" encoding="UTF-8"?>
<svg xmlns="http://www.w3.org/2000/svg" xmlns:xlink="http://www.w3.org/1999/xlink" width="90px" height="130px" viewBox="0 0 90 130" version="1.1">
<g id="surface1">
<path style="fill-rule:nonzero;fill:rgb(100%,100%,100%);fill-opacity:1;stroke-width:1;stroke-linecap:butt;stroke-linejoin:miter;stroke:rgb(0%,0%,0%);stroke-opacity:1;stroke-miterlimit:4;" d="M 30.4375 512.86299 L 329.5625 512.86299 C 346.09375 512.86299 359.5 526.265634 359.5 542.799889 L 359.5 1021.920082 C 359.5 1038.454336 346.09375 1051.856981 329.5625 1051.856981 L 30.4375 1051.856981 C 13.90625 1051.856981 0.5 1038.454336 0.5 1021.920082 L 0.5 542.799889 C 0.5 526.265634 13.90625 512.86299 30.4375 512.86299 Z M 30.4375 512.86299 " transform="matrix(0.25,0,0,0.240741,0,-123.345922)"/>
<path style=" stroke:none;fill-rule:nonzero;fill:rgb(0%,0%,0%);fill-opacity:1;" d="M 7.5 7.222656 L 5 15.648438 L 5 16.851562 L 8 16.851562 L 8 19.257812 L 9.25 19.257812 L 9.25 16.851562 L 10 16.851562 L 10 15.648438 L 9.25 15.648438 L 9.25 12.035156 L 8 12.035156 L 8 15.648438 L 6.300781 15.648438 L 8.800781 7.222656 Z M 7.5 7.222656 "/>
<path style=" stroke:none;fill-rule:nonzero;fill:rgb(0%,0%,0%);fill-opacity:1;" d="M 82.5 122.777344 L 85 114.351562 L 85 113.148438 L 82 113.148438 L 82 110.742188 L 80.75 110.742188 L 80.75 113.148438 L 80 113.148438 L 80 114.351562 L 80.75 114.351562 L 80.75 117.964844 L 82 117.964844 L 82 114.351562 L 83.699219 114.351562 L 81.199219 122.777344 Z M 82.5 122.777344 "/>
<path style=" stroke:none;fill-rule:nonzero;fill:rgb(0%,0%,0%);fill-opacity:1;" d="M 25 12.039062 C 24 12.019531 23.332031 12.359375 22.667969 13.003906 C 22 13.644531 21.667969 14.285156 21.667969 15.25 C 21.667969 16.210938 22.046875 16.785156 22.667969 17.496094 C 23.261719 18.179688 23.667969 18.460938 24 19.101562 C 24.332031 19.742188 24.667969 21.027344 24.667969 21.667969 C 24.667969 22.3125 24.667969 22.246094 24.667969 22.632812 L 24 22.632812 C 23.332031 22.632812 22 21.988281 21.667969 21.667969 L 20.667969 20.707031 C 20 20.0625 19.332031 19.742188 18.332031 19.742188 C 17.332031 19.742188 16.667969 20.0625 16 20.707031 C 15.332031 21.347656 15 21.988281 15 22.953125 C 15 23.914062 15.332031 24.558594 16 25.199219 C 16.667969 25.839844 17.332031 26.164062 18.332031 26.164062 C 19.332031 26.164062 20 25.839844 20.667969 25.199219 L 21.667969 24.238281 C 22 23.914062 23.332031 23.273438 24 23.273438 L 24.667969 23.273438 C 24.648438 24.183594 24.582031 25.769531 24.332031 26.484375 C 24 27.445312 23.332031 28.410156 22.667969 29.050781 C 22 29.691406 20 30.976562 20 30.976562 L 20 31.296875 C 20 31.296875 23.332031 30.65625 24 30.65625 L 26 30.65625 C 26.667969 30.65625 30 31.296875 30 31.296875 L 30 30.976562 C 30 30.976562 28 29.691406 27.332031 29.050781 C 26.667969 28.410156 26 27.445312 25.667969 26.484375 C 25.417969 25.769531 25.351562 24.183594 25.332031 23.273438 L 26 23.273438 C 26.667969 23.273438 28 23.914062 28.332031 24.238281 L 29.332031 25.199219 C 30 25.839844 30.667969 26.164062 31.667969 26.164062 C 32.667969 26.164062 33.332031 25.839844 34 25.199219 C 34.667969 24.558594 35 23.914062 35 22.953125 C 35 21.988281 34.667969 21.347656 34 20.707031 C 33.332031 20.0625 32.667969 19.742188 31.667969 19.742188 C 30.667969 19.742188 30 20.0625 29.332031 20.707031 L 28.332031 21.667969 C 28 21.988281 26.667969 22.632812 26 22.632812 L 25.332031 22.632812 C 25.332031 22.183594 25.332031 22.3125 25.332031 21.667969 C 25.332031 21.027344 25.667969 19.742188 26 19.101562 C 26.332031 18.457031 26.667969 18.136719 27.332031 17.496094 C 27.996094 16.855469 28.332031 16.210938 28.332031 15.25 C 28.332031 14.285156 28 13.644531 27.332031 13.003906 C 26.667969 12.359375 26 12.039062 25 12.039062 "/>
<path style=" stroke:none;fill-rule:nonzero;fill:rgb(0%,0%,0%);fill-opacity:1;" d="M 65 12.039062 C 64 12.019531 63.332031 12.359375 62.667969 13.003906 C 62 13.644531 61.667969 14.285156 61.667969 15.25 C 61.667969 16.210938 62.046875 16.785156 62.667969 17.496094 C 63.261719 18.179688 63.667969 18.460938 64 19.101562 C 64.332031 19.742188 64.667969 21.027344 64.667969 21.667969 C 64.667969 22.3125 64.667969 22.246094 64.667969 22.632812 L 64 22.632812 C 63.332031 22.632812 62 21.988281 61.667969 21.667969 L 60.667969 20.707031 C 60 20.0625 59.332031 19.742188 58.332031 19.742188 C 57.332031 19.742188 56.667969 20.0625 56 20.707031 C 55.332031 21.347656 55 21.988281 55 22.953125 C 55 23.914062 55.332031 24.558594 56 25.199219 C 56.667969 25.839844 57.332031 26.164062 58.332031 26.164062 C 59.332031 26.164062 60 25.839844 60.667969 25.199219 L 61.667969 24.238281 C 62 23.914062 63.332031 23.273438 64 23.273438 L 64.667969 23.273438 C 64.648438 24.183594 64.582031 25.769531 64.332031 26.484375 C 64 27.445312 63.332031 28.410156 62.667969 29.050781 C 62 29.691406 60 30.976562 60 30.976562 L 60 31.296875 C 60 31.296875 63.332031 30.65625 64 30.65625 L 66 30.65625 C 66.667969 30.65625 70 31.296875 70 31.296875 L 70 30.976562 C 70 30.976562 68 29.691406 67.332031 29.050781 C 66.667969 28.410156 66 27.445312 65.667969 26.484375 C 65.417969 25.769531 65.351562 24.183594 65.332031 23.273438 L 66 23.273438 C 66.667969 23.273438 68 23.914062 68.332031 24.238281 L 69.332031 25.199219 C 70 25.839844 70.667969 26.164062 71.667969 26.164062 C 72.667969 26.164062 73.332031 25.839844 74 25.199219 C 74.667969 24.558594 75 23.914062 75 22.953125 C 75 21.988281 74.667969 21.347656 74 20.707031 C 73.332031 20.0625 72.667969 19.742188 71.667969 19.742188 C 70.667969 19.742188 70 20.0625 69.332031 20.707031 L 68.332031 21.667969 C 68 21.988281 66.667969 22.632812 66 22.632812 L 65.332031 22.632812 C 65.332031 22.183594 65.332031 22.3125 65.332031 21.667969 C 65.332031 21.027344 65.667969 19.742188 66 19.101562 C 66.332031 18.457031 66.667969 18.136719 67.332031 17.496094 C 67.996094 16.855469 68.332031 16.210938 68.332031 15.25 C 68.332031 14.285156 68 13.644531 67.332031 13.003906 C 66.667969 12.359375 66 12.039062 65 12.039062 "/>
<path style=" stroke:none;fill-rule:nonzero;fill:rgb(0%,0%,0%);fill-opacity:1;" d="M 65 117.964844 C 66 117.984375 66.667969 117.640625 67.332031 117 C 68 116.359375 68.332031 115.714844 68.332031 114.753906 C 68.332031 113.789062 67.953125 113.21875 67.332031 112.507812 C 66.738281 111.824219 66.332031 111.542969 66 110.902344 C 65.667969 110.257812 65.332031 108.976562 65.332031 108.332031 C 65.332031 107.691406 65.332031 107.757812 65.332031 107.371094 L 66 107.371094 C 66.667969 107.371094 68 108.011719 68.332031 108.332031 L 69.332031 109.296875 C 70 109.9375 70.667969 110.257812 71.667969 110.257812 C 72.667969 110.257812 73.332031 109.9375 74 109.296875 C 74.667969 108.65625 75 108.011719 75 107.050781 C 75 106.085938 74.667969 105.445312 74 104.804688 C 73.332031 104.160156 72.667969 103.839844 71.667969 103.839844 C 70.667969 103.839844 70 104.160156 69.332031 104.804688 L 68.332031 105.765625 C 68 106.085938 66.667969 106.730469 66 106.730469 L 65.332031 106.730469 C 65.351562 105.820312 65.417969 104.234375 65.667969 103.519531 C 66 102.554688 66.667969 101.59375 67.332031 100.953125 C 68 100.308594 70 99.027344 70 99.027344 L 70 98.703125 C 70 98.703125 66.667969 99.347656 66 99.347656 L 64 99.347656 C 63.332031 99.347656 60 98.703125 60 98.703125 L 60 99.027344 C 60 99.027344 62 100.308594 62.667969 100.953125 C 63.332031 101.59375 64 102.554688 64.332031 103.519531 C 64.582031 104.234375 64.648438 105.820312 64.667969 106.730469 L 64 106.730469 C 63.332031 106.730469 62 106.085938 61.667969 105.765625 L 60.667969 104.804688 C 60 104.160156 59.332031 103.839844 58.332031 103.839844 C 57.332031 103.839844 56.667969 104.160156 56 104.804688 C 55.332031 105.445312 55 106.085938 55 107.050781 C 55 108.011719 55.332031 108.65625 56 109.296875 C 56.667969 109.9375 57.332031 110.257812 58.332031 110.257812 C 59.332031 110.257812 60 109.9375 60.667969 109.296875 L 61.667969 108.332031 C 62 108.011719 63.332031 107.371094 64 107.371094 L 64.667969 107.371094 C 64.667969 107.816406 64.667969 107.691406 64.667969 108.332031 C 64.667969 108.976562 64.332031 110.257812 64 110.902344 C 63.667969 111.542969 63.332031 111.863281 62.667969 112.507812 C 62.003906 113.144531 61.667969 113.789062 61.667969 114.753906 C 61.667969 115.714844 62 116.359375 62.667969 117 C 63.332031 117.640625 64 117.964844 65 117.964844 "/>
<path style=" stroke:none;fill-rule:nonzero;fill:rgb(0%,0%,0%);fill-opacity:1;" d="M 25 117.964844 C 26 117.984375 26.667969 117.640625 27.332031 117 C 28 116.359375 28.332031 115.714844 28.332031 114.753906 C 28.332031 113.789062 27.953125 113.21875 27.332031 112.507812 C 26.738281 111.824219 26.332031 111.542969 26 110.902344 C 25.667969 110.257812 25.332031 108.976562 25.332031 108.332031 C 25.332031 107.691406 25.332031 107.757812 25.332031 107.371094 L 26 107.371094 C 26.667969 107.371094 28 108.011719 28.332031 108.332031 L 29.332031 109.296875 C 30 109.9375 30.667969 110.257812 31.667969 110.257812 C 32.667969 110.257812 33.332031 109.9375 34 109.296875 C 34.667969 108.65625 35 108.011719 35 107.050781 C 35 106.085938 34.667969 105.445312 34 104.804688 C 33.332031 104.160156 32.667969 103.839844 31.667969 103.839844 C 30.667969 103.839844 30 104.160156 29.332031 104.804688 L 28.332031 105.765625 C 28 106.085938 26.667969 106.730469 26 106.730469 L 25.332031 106.730469 C 25.351562 105.820312 25.417969 104.234375 25.667969 103.519531 C 26 102.554688 26.667969 101.59375 27.332031 100.953125 C 28 100.308594 30 99.027344 30 99.027344 L 30 98.703125 C 30 98.703125 26.667969 99.347656 26 99.347656 L 24 99.347656 C 23.332031 99.347656 20 98.703125 20 98.703125 L 20 99.027344 C 20 99.027344 22 100.308594 22.667969 100.953125 C 23.332031 101.59375 24 102.554688 24.332031 103.519531 C 24.582031 104.234375 24.648438 105.820312 24.667969 106.730469 L 24 106.730469 C 23.332031 106.730469 22 106.085938 21.667969 105.765625 L 20.667969 104.804688 C 20 104.160156 19.332031 103.839844 18.332031 103.839844 C 17.332031 103.839844 16.667969 104.160156 16 104.804688 C 15.332031 105.445312 15 106.085938 15 107.050781 C 15 108.011719 15.332031 108.65625 16 109.296875 C 16.667969 109.9375 17.332031 110.257812 18.332031 110.257812 C 19.332031 110.257812 20 109.9375 20.667969 109.296875 L 21.667969 108.332031 C 22 108.011719 23.332031 107.371094 24 107.371094 L 24.667969 107.371094 C 24.667969 107.816406 24.667969 107.691406 24.667969 108.332031 C 24.667969 108.976562 24.332031 110.257812 24 110.902344 C 23.667969 111.542969 23.332031 111.863281 22.667969 112.507812 C 22.003906 113.144531 21.667969 113.789062 21.667969 114.753906 C 21.667969 115.714844 22 116.359375 22.667969 117 C 23.332031 117.640625 24 117.964844 25 117.964844 "/>
<path style=" stroke:none;fill-rule:nonzero;fill:rgb(0%,0%,0%);fill-opacity:1;" d="M 7.5 21.667969 C 7.125 21.660156 6.875 21.785156 6.625 22.027344 C 6.375 22.269531 6.25 22.507812 6.25 22.871094 C 6.25 23.230469 6.390625 23.445312 6.625 23.714844 C 6.847656 23.96875 7 24.074219 7.125 24.316406 C 7.25 24.554688 7.375 25.035156 7.375 25.277344 C 7.375 25.519531 7.375 25.496094 7.375 25.640625 L 7.125 25.640625 C 6.875 25.640625 6.375 25.398438 6.25 25.277344 L 5.875 24.917969 C 5.625 24.675781 5.375 24.554688 5 24.554688 C 4.625 24.554688 4.375 24.675781 4.125 24.917969 C 3.875 25.15625 3.75 25.398438 3.75 25.757812 C 3.75 26.121094 3.875 26.359375 4.125 26.601562 C 4.375 26.84375 4.625 26.964844 5 26.964844 C 5.375 26.964844 5.625 26.84375 5.875 26.601562 L 6.25 26.242188 C 6.375 26.121094 6.875 25.878906 7.125 25.878906 L 7.375 25.878906 C 7.367188 26.21875 7.34375 26.816406 7.25 27.082031 C 7.125 27.445312 6.875 27.804688 6.625 28.046875 C 6.375 28.285156 5.625 28.769531 5.625 28.769531 L 5.625 28.890625 C 5.625 28.890625 6.875 28.648438 7.125 28.648438 L 7.875 28.648438 C 8.125 28.648438 9.375 28.890625 9.375 28.890625 L 9.375 28.769531 C 9.375 28.769531 8.625 28.285156 8.375 28.046875 C 8.125 27.804688 7.875 27.445312 7.75 27.082031 C 7.65625 26.816406 7.632812 26.21875 7.625 25.878906 L 7.875 25.878906 C 8.125 25.878906 8.625 26.121094 8.75 26.242188 L 9.125 26.601562 C 9.375 26.84375 9.625 26.964844 10 26.964844 C 10.375 26.964844 10.625 26.84375 10.875 26.601562 C 11.125 26.359375 11.25 26.121094 11.25 25.757812 C 11.25 25.398438 11.125 25.15625 10.875 24.917969 C 10.625 24.675781 10.375 24.554688 10 24.554688 C 9.625 24.554688 9.375 24.675781 9.125 24.917969 L 8.75 25.277344 C 8.625 25.398438 8.125 25.640625 7.875 25.640625 L 7.625 25.640625 C 7.625 25.472656 7.625 25.519531 7.625 25.277344 C 7.625 25.035156 7.75 24.554688 7.875 24.316406 C 8 24.074219 8.125 23.953125 8.375 23.714844 C 8.625 23.472656 8.75 23.230469 8.75 22.871094 C 8.75 22.507812 8.625 22.269531 8.375 22.027344 C 8.125 21.785156 7.875 21.667969 7.5 21.667969 "/>
<path style=" stroke:none;fill-rule:nonzero;fill:rgb(0%,0%,0%);fill-opacity:1;" d="M 82.5 108.332031 C 82.875 108.339844 83.125 108.226562 83.375 108.011719 C 83.625 107.796875 83.75 107.585938 83.75 107.261719 C 83.75 106.941406 83.609375 106.753906 83.375 106.515625 C 83.152344 106.289062 83 106.195312 82.875 105.980469 C 82.75 105.765625 82.625 105.335938 82.625 105.125 C 82.625 104.910156 82.625 104.929688 82.625 104.800781 L 82.875 104.800781 C 83.125 104.800781 83.625 105.015625 83.75 105.125 L 84.125 105.445312 C 84.375 105.660156 84.625 105.765625 85 105.765625 C 85.375 105.765625 85.625 105.660156 85.875 105.445312 C 86.125 105.230469 86.25 105.015625 86.25 104.695312 C 86.25 104.375 86.125 104.160156 85.875 103.945312 C 85.625 103.734375 85.375 103.625 85 103.625 C 84.625 103.625 84.375 103.734375 84.125 103.945312 L 83.75 104.265625 C 83.625 104.375 83.125 104.589844 82.875 104.589844 L 82.625 104.589844 C 82.632812 104.285156 82.65625 103.757812 82.75 103.519531 C 82.875 103.199219 83.125 102.875 83.375 102.664062 C 83.625 102.449219 84.375 102.019531 84.375 102.019531 L 84.375 101.914062 C 84.375 101.914062 83.125 102.128906 82.875 102.128906 L 82.125 102.128906 C 81.875 102.128906 80.625 101.914062 80.625 101.914062 L 80.625 102.019531 C 80.625 102.019531 81.375 102.449219 81.625 102.664062 C 81.875 102.875 82.125 103.195312 82.25 103.519531 C 82.34375 103.757812 82.367188 104.285156 82.375 104.589844 L 82.125 104.589844 C 81.875 104.589844 81.375 104.375 81.25 104.265625 L 80.875 103.945312 C 80.625 103.734375 80.375 103.625 80 103.625 C 79.625 103.625 79.375 103.734375 79.125 103.945312 C 78.875 104.160156 78.75 104.375 78.75 104.695312 C 78.75 105.015625 78.875 105.230469 79.125 105.445312 C 79.375 105.660156 79.625 105.765625 80 105.765625 C 80.375 105.765625 80.625 105.660156 80.875 105.445312 L 81.25 105.125 C 81.375 105.015625 81.875 104.800781 82.125 104.800781 L 82.375 104.800781 C 82.375 104.953125 82.375 104.910156 82.375 105.125 C 82.375 105.335938 82.25 105.765625 82.125 105.980469 C 82 106.195312 81.875 106.300781 81.625 106.515625 C 81.375 106.726562 81.25 106.941406 81.25 107.261719 C 81.25 107.585938 81.375 107.796875 81.625 108.011719 C 81.875 108.226562 82.125 108.332031 82.5 108.332031 "/>
</g>
</svg>
