<?xml version="1.0" encoding="UTF-8"?>
<svg xmlns="http://www.w3.org/2000/svg" xmlns:xlink="http://www.w3.org/1999/xlink" width="87pt" height="130pt" viewBox="0 0 87 130" version="1.1">
<g id="surface1">
<path style="fill-rule:nonzero;fill:rgb(100%,100%,100%);fill-opacity:1;stroke-width:1;stroke-linecap:butt;stroke-linejoin:miter;stroke:rgb(0%,0%,0%);stroke-opacity:1;stroke-miterlimit:4;" d="M 59.936422 -656.636995 L 359.063578 -656.636995 C 375.599138 -656.636995 388.998922 -643.234351 388.998922 -626.700096 L 388.998922 -147.579904 C 388.998922 -131.045649 375.599138 -117.643005 359.063578 -117.643005 L 59.936422 -117.643005 C 43.400862 -117.643005 30.001078 -131.045649 30.001078 -147.579904 L 30.001078 -626.700096 C 30.001078 -643.234351 43.400862 -656.636995 59.936422 -656.636995 Z M 59.936422 -656.636995 " transform="matrix(0.241667,0,0,0.240741,-7.129167,158.20037)"/>
<path style=" stroke:none;fill-rule:nonzero;fill:rgb(0%,0%,0%);fill-opacity:1;" d="M 43.5 55.371094 C 42.535156 55.351562 41.890625 55.695312 41.246094 56.335938 C 40.601562 56.976562 40.277344 57.621094 40.277344 58.582031 C 40.277344 59.546875 40.644531 60.117188 41.246094 60.828125 C 41.820312 61.511719 42.210938 61.792969 42.535156 62.433594 C 42.855469 63.078125 43.179688 64.359375 43.179688 65 C 43.179688 65.644531 43.179688 65.578125 43.179688 65.964844 L 42.535156 65.964844 C 41.890625 65.964844 40.601562 65.324219 40.277344 65 L 39.3125 64.039062 C 38.667969 63.398438 38.023438 63.074219 37.054688 63.074219 C 36.089844 63.074219 35.445312 63.398438 34.800781 64.039062 C 34.15625 64.679688 33.832031 65.324219 33.832031 66.285156 C 33.832031 67.25 34.15625 67.890625 34.800781 68.53125 C 35.445312 69.175781 36.089844 69.496094 37.054688 69.496094 C 38.023438 69.496094 38.667969 69.175781 39.3125 68.53125 L 40.277344 67.570312 C 40.601562 67.25 41.890625 66.605469 42.535156 66.605469 L 43.179688 66.605469 C 43.160156 67.515625 43.09375 69.101562 42.855469 69.816406 C 42.535156 70.78125 41.890625 71.742188 41.246094 72.382812 C 40.601562 73.027344 38.667969 74.308594 38.667969 74.308594 L 38.667969 74.632812 C 38.667969 74.632812 41.890625 73.988281 42.535156 73.988281 L 44.464844 73.988281 C 45.109375 73.988281 48.332031 74.632812 48.332031 74.632812 L 48.332031 74.308594 C 48.332031 74.308594 46.398438 73.027344 45.753906 72.382812 C 45.109375 71.742188 44.464844 70.78125 44.144531 69.816406 C 43.90625 69.101562 43.839844 67.515625 43.820312 66.605469 L 44.464844 66.605469 C 45.109375 66.605469 46.398438 67.25 46.722656 67.570312 L 47.6875 68.53125 C 48.332031 69.175781 48.976562 69.496094 49.945312 69.496094 C 50.910156 69.496094 51.554688 69.175781 52.199219 68.53125 C 52.84375 67.890625 53.167969 67.25 53.167969 66.285156 C 53.167969 65.324219 52.84375 64.679688 52.199219 64.039062 C 51.554688 63.398438 50.910156 63.074219 49.945312 63.074219 C 48.976562 63.074219 48.332031 63.398438 47.6875 64.039062 L 46.722656 65 C 46.398438 65.324219 45.109375 65.964844 44.464844 65.964844 L 43.820312 65.964844 C 43.820312 65.519531 43.820312 65.644531 43.820312 65 C 43.820312 64.359375 44.144531 63.074219 44.464844 62.433594 C 44.789062 61.792969 45.109375 61.472656 45.753906 60.828125 C 46.398438 60.191406 46.722656 59.546875 46.722656 58.582031 C 46.722656 57.621094 46.398438 56.976562 45.753906 56.335938 C 45.109375 55.695312 44.464844 55.371094 43.5 55.371094 "/>
<path style=" stroke:none;fill-rule:nonzero;fill:rgb(0%,0%,0%);fill-opacity:1;" d="M 7.25 21.667969 C 6.886719 21.660156 6.644531 21.785156 6.402344 22.027344 C 6.164062 22.269531 6.042969 22.507812 6.042969 22.871094 C 6.042969 23.230469 6.179688 23.445312 6.402344 23.714844 C 6.621094 23.96875 6.765625 24.074219 6.886719 24.316406 C 7.007812 24.554688 7.128906 25.035156 7.128906 25.277344 C 7.128906 25.519531 7.128906 25.496094 7.128906 25.640625 L 6.886719 25.640625 C 6.644531 25.640625 6.164062 25.398438 6.042969 25.277344 L 5.679688 24.917969 C 5.4375 24.675781 5.195312 24.554688 4.832031 24.554688 C 4.472656 24.554688 4.230469 24.675781 3.988281 24.917969 C 3.746094 25.15625 3.625 25.398438 3.625 25.757812 C 3.625 26.121094 3.746094 26.359375 3.988281 26.601562 C 4.230469 26.84375 4.472656 26.964844 4.832031 26.964844 C 5.195312 26.964844 5.4375 26.84375 5.679688 26.601562 L 6.042969 26.242188 C 6.164062 26.121094 6.644531 25.878906 6.886719 25.878906 L 7.128906 25.878906 C 7.125 26.21875 7.097656 26.816406 7.007812 27.082031 C 6.886719 27.445312 6.644531 27.804688 6.402344 28.046875 C 6.164062 28.285156 5.4375 28.769531 5.4375 28.769531 L 5.4375 28.890625 C 5.4375 28.890625 6.644531 28.648438 6.886719 28.648438 L 7.613281 28.648438 C 7.855469 28.648438 9.0625 28.890625 9.0625 28.890625 L 9.0625 28.769531 C 9.0625 28.769531 8.335938 28.285156 8.097656 28.046875 C 7.855469 27.804688 7.613281 27.445312 7.492188 27.082031 C 7.402344 26.816406 7.375 26.21875 7.371094 25.878906 L 7.613281 25.878906 C 7.855469 25.878906 8.335938 26.121094 8.457031 26.242188 L 8.820312 26.601562 C 9.0625 26.84375 9.304688 26.964844 9.667969 26.964844 C 10.027344 26.964844 10.269531 26.84375 10.511719 26.601562 C 10.753906 26.359375 10.875 26.121094 10.875 25.757812 C 10.875 25.398438 10.753906 25.15625 10.511719 24.917969 C 10.269531 24.675781 10.027344 24.554688 9.667969 24.554688 C 9.304688 24.554688 9.0625 24.675781 8.820312 24.917969 L 8.457031 25.277344 C 8.335938 25.398438 7.855469 25.640625 7.613281 25.640625 L 7.371094 25.640625 C 7.371094 25.472656 7.371094 25.519531 7.371094 25.277344 C 7.371094 25.035156 7.492188 24.554688 7.613281 24.316406 C 7.734375 24.074219 7.855469 23.953125 8.097656 23.714844 C 8.335938 23.472656 8.457031 23.230469 8.457031 22.871094 C 8.457031 22.507812 8.335938 22.269531 8.097656 22.027344 C 7.855469 21.785156 7.613281 21.667969 7.25 21.667969 "/>
<path style=" stroke:none;fill-rule:nonzero;fill:rgb(0%,0%,0%);fill-opacity:1;" d="M 79.75 108.332031 C 80.113281 108.339844 80.355469 108.214844 80.597656 107.972656 C 80.835938 107.730469 80.957031 107.492188 80.957031 107.128906 C 80.957031 106.769531 80.820312 106.554688 80.597656 106.285156 C 80.378906 106.03125 80.234375 105.925781 80.113281 105.683594 C 79.992188 105.445312 79.871094 104.964844 79.871094 104.722656 C 79.871094 104.480469 79.871094 104.503906 79.871094 104.359375 L 80.113281 104.359375 C 80.355469 104.359375 80.835938 104.601562 80.957031 104.722656 L 81.320312 105.082031 C 81.5625 105.324219 81.804688 105.445312 82.167969 105.445312 C 82.527344 105.445312 82.769531 105.324219 83.011719 105.082031 C 83.253906 104.84375 83.375 104.601562 83.375 104.242188 C 83.375 103.878906 83.253906 103.640625 83.011719 103.398438 C 82.769531 103.15625 82.527344 103.035156 82.167969 103.035156 C 81.804688 103.035156 81.5625 103.15625 81.320312 103.398438 L 80.957031 103.757812 C 80.835938 103.878906 80.355469 104.121094 80.113281 104.121094 L 79.871094 104.121094 C 79.875 103.78125 79.902344 103.183594 79.992188 102.917969 C 80.113281 102.554688 80.355469 102.195312 80.597656 101.953125 C 80.835938 101.714844 81.5625 101.230469 81.5625 101.230469 L 81.5625 101.109375 C 81.5625 101.109375 80.355469 101.351562 80.113281 101.351562 L 79.386719 101.351562 C 79.144531 101.351562 77.9375 101.109375 77.9375 101.109375 L 77.9375 101.230469 C 77.9375 101.230469 78.664062 101.714844 78.902344 101.953125 C 79.144531 102.195312 79.386719 102.554688 79.507812 102.917969 C 79.597656 103.183594 79.625 103.78125 79.628906 104.121094 L 79.386719 104.121094 C 79.144531 104.121094 78.664062 103.878906 78.542969 103.757812 L 78.179688 103.398438 C 77.9375 103.15625 77.695312 103.035156 77.332031 103.035156 C 76.972656 103.035156 76.730469 103.15625 76.488281 103.398438 C 76.246094 103.640625 76.125 103.878906 76.125 104.242188 C 76.125 104.601562 76.246094 104.84375 76.488281 105.082031 C 76.730469 105.324219 76.972656 105.445312 77.332031 105.445312 C 77.695312 105.445312 77.9375 105.324219 78.179688 105.082031 L 78.542969 104.722656 C 78.664062 104.601562 79.144531 104.359375 79.386719 104.359375 L 79.628906 104.359375 C 79.628906 104.527344 79.628906 104.480469 79.628906 104.722656 C 79.628906 104.964844 79.507812 105.445312 79.386719 105.683594 C 79.265625 105.925781 79.144531 106.046875 78.902344 106.285156 C 78.664062 106.527344 78.542969 106.769531 78.542969 107.128906 C 78.542969 107.492188 78.664062 107.730469 78.902344 107.972656 C 79.144531 108.214844 79.386719 108.332031 79.75 108.332031 "/>
<path style=" stroke:none;fill-rule:nonzero;fill:rgb(0%,0%,0%);fill-opacity:1;" d="M 4.832031 7.222656 L 4.832031 8.425781 L 6.671875 8.425781 L 6.671875 19.257812 L 7.878906 19.257812 L 7.878906 8.425781 L 9.667969 8.425781 L 9.667969 7.222656 Z M 4.832031 7.222656 "/>
<path style=" stroke:none;fill-rule:nonzero;fill:rgb(0%,0%,0%);fill-opacity:1;" d="M 77.332031 122.777344 L 77.332031 121.574219 L 79.171875 121.574219 L 79.171875 110.742188 L 80.378906 110.742188 L 80.378906 121.574219 L 82.167969 121.574219 L 82.167969 122.777344 Z M 77.332031 122.777344 "/>
</g>
</svg>
