<?xml version="1.0" encoding="UTF-8"?>
<svg xmlns="http://www.w3.org/2000/svg" xmlns:xlink="http://www.w3.org/1999/xlink" width="90px" height="130px" viewBox="0 0 90 130" version="1.1">
<g id="surface1">
<path style="fill-rule:nonzero;fill:rgb(100%,100%,100%);fill-opacity:1;stroke-width:1;stroke-linecap:butt;stroke-linejoin:miter;stroke:rgb(0%,0%,0%);stroke-opacity:1;stroke-miterlimit:4;" d="M 30.4375 512.86299 L 329.5625 512.86299 C 346.09375 512.86299 359.5 526.265634 359.5 542.799889 L 359.5 1021.920082 C 359.5 1038.454336 346.09375 1051.856981 329.5625 1051.856981 L 30.4375 1051.856981 C 13.90625 1051.856981 0.5 1038.454336 0.5 1021.920082 L 0.5 542.799889 C 0.5 526.265634 13.90625 512.86299 30.4375 512.86299 Z M 30.4375 512.86299 " transform="matrix(0.25,0,0,0.240741,0,-123.345922)"/>
<path style=" stroke:none;fill-rule:nonzero;fill:rgb(0%,0%,0%);fill-opacity:1;" d="M 7.5 19.257812 C 8.886719 19.257812 10 18.1875 10 16.851562 L 10 9.628906 C 10 8.296875 8.886719 7.222656 7.5 7.222656 C 6.113281 7.222656 5 8.296875 5 9.628906 L 5 12.035156 C 5 13.371094 6.113281 14.445312 7.5 14.445312 C 7.957031 14.445312 8.382812 14.324219 8.75 14.121094 L 8.75 16.851562 C 8.75 17.519531 8.191406 18.054688 7.5 18.054688 C 6.808594 18.054688 6.25 17.519531 6.25 16.851562 L 6.25 16.609375 L 5 16.609375 L 5 16.851562 C 5 18.1875 6.113281 19.257812 7.5 19.257812 M 7.5 13.242188 C 6.808594 13.242188 6.25 12.703125 6.25 12.035156 L 6.25 9.628906 C 6.25 8.960938 6.808594 8.425781 7.5 8.425781 C 8.191406 8.425781 8.75 8.960938 8.75 9.628906 L 8.75 12.035156 C 8.75 12.703125 8.191406 13.242188 7.5 13.242188 "/>
<path style=" stroke:none;fill-rule:nonzero;fill:rgb(0%,0%,0%);fill-opacity:1;" d="M 82.5 110.742188 C 81.113281 110.742188 80 111.8125 80 113.148438 L 80 120.371094 C 80 121.703125 81.113281 122.777344 82.5 122.777344 C 83.886719 122.777344 85 121.703125 85 120.371094 L 85 117.964844 C 85 116.628906 83.886719 115.554688 82.5 115.554688 C 82.042969 115.554688 81.617188 115.675781 81.25 115.878906 L 81.25 113.148438 C 81.25 112.480469 81.808594 111.945312 82.5 111.945312 C 83.191406 111.945312 83.75 112.480469 83.75 113.148438 L 83.75 113.390625 L 85 113.390625 L 85 113.148438 C 85 111.8125 83.886719 110.742188 82.5 110.742188 M 82.5 116.757812 C 83.191406 116.757812 83.75 117.296875 83.75 117.964844 L 83.75 120.371094 C 83.75 121.039062 83.191406 121.574219 82.5 121.574219 C 81.808594 121.574219 81.25 121.039062 81.25 120.371094 L 81.25 117.964844 C 81.25 117.296875 81.808594 116.757812 82.5 116.757812 "/>
<path style=" stroke:none;fill-rule:nonzero;fill:rgb(0%,0%,0%);fill-opacity:1;" d="M 25 12.039062 C 24 12.019531 23.332031 12.359375 22.667969 13.003906 C 22 13.644531 21.667969 14.285156 21.667969 15.25 C 21.667969 16.210938 22.046875 16.785156 22.667969 17.496094 C 23.261719 18.179688 23.667969 18.460938 24 19.101562 C 24.332031 19.742188 24.667969 21.027344 24.667969 21.667969 C 24.667969 22.3125 24.667969 22.246094 24.667969 22.632812 L 24 22.632812 C 23.332031 22.632812 22 21.988281 21.667969 21.667969 L 20.667969 20.707031 C 20 20.0625 19.332031 19.742188 18.332031 19.742188 C 17.332031 19.742188 16.667969 20.0625 16 20.707031 C 15.332031 21.347656 15 21.988281 15 22.953125 C 15 23.914062 15.332031 24.558594 16 25.199219 C 16.667969 25.839844 17.332031 26.164062 18.332031 26.164062 C 19.332031 26.164062 20 25.839844 20.667969 25.199219 L 21.667969 24.238281 C 22 23.914062 23.332031 23.273438 24 23.273438 L 24.667969 23.273438 C 24.648438 24.183594 24.582031 25.769531 24.332031 26.484375 C 24 27.445312 23.332031 28.410156 22.667969 29.050781 C 22 29.691406 20 30.976562 20 30.976562 L 20 31.296875 C 20 31.296875 23.332031 30.65625 24 30.65625 L 26 30.65625 C 26.667969 30.65625 30 31.296875 30 31.296875 L 30 30.976562 C 30 30.976562 28 29.691406 27.332031 29.050781 C 26.667969 28.410156 26 27.445312 25.667969 26.484375 C 25.417969 25.769531 25.351562 24.183594 25.332031 23.273438 L 26 23.273438 C 26.667969 23.273438 28 23.914062 28.332031 24.238281 L 29.332031 25.199219 C 30 25.839844 30.667969 26.164062 31.667969 26.164062 C 32.667969 26.164062 33.332031 25.839844 34 25.199219 C 34.667969 24.558594 35 23.914062 35 22.953125 C 35 21.988281 34.667969 21.347656 34 20.707031 C 33.332031 20.0625 32.667969 19.742188 31.667969 19.742188 C 30.667969 19.742188 30 20.0625 29.332031 20.707031 L 28.332031 21.667969 C 28 21.988281 26.667969 22.632812 26 22.632812 L 25.332031 22.632812 C 25.332031 22.183594 25.332031 22.3125 25.332031 21.667969 C 25.332031 21.027344 25.667969 19.742188 26 19.101562 C 26.332031 18.457031 26.667969 18.136719 27.332031 17.496094 C 27.996094 16.855469 28.332031 16.210938 28.332031 15.25 C 28.332031 14.285156 28 13.644531 27.332031 13.003906 C 26.667969 12.359375 26 12.039062 25 12.039062 "/>
<path style=" stroke:none;fill-rule:nonzero;fill:rgb(0%,0%,0%);fill-opacity:1;" d="M 65 12.039062 C 64 12.019531 63.332031 12.359375 62.667969 13.003906 C 62 13.644531 61.667969 14.285156 61.667969 15.25 C 61.667969 16.210938 62.046875 16.785156 62.667969 17.496094 C 63.261719 18.179688 63.667969 18.460938 64 19.101562 C 64.332031 19.742188 64.667969 21.027344 64.667969 21.667969 C 64.667969 22.3125 64.667969 22.246094 64.667969 22.632812 L 64 22.632812 C 63.332031 22.632812 62 21.988281 61.667969 21.667969 L 60.667969 20.707031 C 60 20.0625 59.332031 19.742188 58.332031 19.742188 C 57.332031 19.742188 56.667969 20.0625 56 20.707031 C 55.332031 21.347656 55 21.988281 55 22.953125 C 55 23.914062 55.332031 24.558594 56 25.199219 C 56.667969 25.839844 57.332031 26.164062 58.332031 26.164062 C 59.332031 26.164062 60 25.839844 60.667969 25.199219 L 61.667969 24.238281 C 62 23.914062 63.332031 23.273438 64 23.273438 L 64.667969 23.273438 C 64.648438 24.183594 64.582031 25.769531 64.332031 26.484375 C 64 27.445312 63.332031 28.410156 62.667969 29.050781 C 62 29.691406 60 30.976562 60 30.976562 L 60 31.296875 C 60 31.296875 63.332031 30.65625 64 30.65625 L 66 30.65625 C 66.667969 30.65625 70 31.296875 70 31.296875 L 70 30.976562 C 70 30.976562 68 29.691406 67.332031 29.050781 C 66.667969 28.410156 66 27.445312 65.667969 26.484375 C 65.417969 25.769531 65.351562 24.183594 65.332031 23.273438 L 66 23.273438 C 66.667969 23.273438 68 23.914062 68.332031 24.238281 L 69.332031 25.199219 C 70 25.839844 70.667969 26.164062 71.667969 26.164062 C 72.667969 26.164062 73.332031 25.839844 74 25.199219 C 74.667969 24.558594 75 23.914062 75 22.953125 C 75 21.988281 74.667969 21.347656 74 20.707031 C 73.332031 20.0625 72.667969 19.742188 71.667969 19.742188 C 70.667969 19.742188 70 20.0625 69.332031 20.707031 L 68.332031 21.667969 C 68 21.988281 66.667969 22.632812 66 22.632812 L 65.332031 22.632812 C 65.332031 22.183594 65.332031 22.3125 65.332031 21.667969 C 65.332031 21.027344 65.667969 19.742188 66 19.101562 C 66.332031 18.457031 66.667969 18.136719 67.332031 17.496094 C 67.996094 16.855469 68.332031 16.210938 68.332031 15.25 C 68.332031 14.285156 68 13.644531 67.332031 13.003906 C 66.667969 12.359375 66 12.039062 65 12.039062 "/>
<path style=" stroke:none;fill-rule:nonzero;fill:rgb(0%,0%,0%);fill-opacity:1;" d="M 25 40.929688 C 24 40.910156 23.332031 41.25 22.667969 41.890625 C 22 42.535156 21.667969 43.175781 21.667969 44.136719 C 21.667969 45.101562 22.046875 45.671875 22.667969 46.386719 C 23.261719 47.066406 23.667969 47.347656 24 47.988281 C 24.332031 48.632812 24.667969 49.914062 24.667969 50.558594 C 24.667969 51.199219 24.667969 51.136719 24.667969 51.519531 L 24 51.519531 C 23.332031 51.519531 22 50.878906 21.667969 50.558594 L 20.667969 49.59375 C 20 48.953125 19.332031 48.632812 18.332031 48.632812 C 17.332031 48.632812 16.667969 48.953125 16 49.59375 C 15.332031 50.238281 15 50.878906 15 51.839844 C 15 52.804688 15.332031 53.445312 16 54.089844 C 16.667969 54.730469 17.332031 55.050781 18.332031 55.050781 C 19.332031 55.050781 20 54.730469 20.667969 54.089844 L 21.667969 53.125 C 22 52.804688 23.332031 52.164062 24 52.164062 L 24.667969 52.164062 C 24.648438 53.070312 24.582031 54.660156 24.332031 55.371094 C 24 56.335938 23.332031 57.296875 22.667969 57.941406 C 22 58.582031 20 59.867188 20 59.867188 L 20 60.1875 C 20 60.1875 23.332031 59.542969 24 59.542969 L 26 59.542969 C 26.667969 59.542969 30 60.1875 30 60.1875 L 30 59.867188 C 30 59.867188 28 58.582031 27.332031 57.941406 C 26.667969 57.296875 26 56.335938 25.667969 55.371094 C 25.417969 54.660156 25.351562 53.070312 25.332031 52.164062 L 26 52.164062 C 26.667969 52.164062 28 52.804688 28.332031 53.125 L 29.332031 54.089844 C 30 54.730469 30.667969 55.050781 31.667969 55.050781 C 32.667969 55.050781 33.332031 54.730469 34 54.089844 C 34.667969 53.445312 35 52.804688 35 51.839844 C 35 50.878906 34.667969 50.238281 34 49.59375 C 33.332031 48.953125 32.667969 48.632812 31.667969 48.632812 C 30.667969 48.632812 30 48.953125 29.332031 49.59375 L 28.332031 50.558594 C 28 50.878906 26.667969 51.519531 26 51.519531 L 25.332031 51.519531 C 25.332031 51.074219 25.332031 51.199219 25.332031 50.558594 C 25.332031 49.914062 25.667969 48.632812 26 47.988281 C 26.332031 47.347656 26.667969 47.027344 27.332031 46.386719 C 27.996094 45.746094 28.332031 45.101562 28.332031 44.136719 C 28.332031 43.175781 28 42.535156 27.332031 41.890625 C 26.667969 41.25 26 40.929688 25 40.929688 "/>
<path style=" stroke:none;fill-rule:nonzero;fill:rgb(0%,0%,0%);fill-opacity:1;" d="M 65 40.929688 C 64 40.910156 63.332031 41.25 62.667969 41.890625 C 62 42.535156 61.667969 43.175781 61.667969 44.136719 C 61.667969 45.101562 62.046875 45.671875 62.667969 46.386719 C 63.261719 47.066406 63.667969 47.347656 64 47.988281 C 64.332031 48.632812 64.667969 49.914062 64.667969 50.558594 C 64.667969 51.199219 64.667969 51.136719 64.667969 51.519531 L 64 51.519531 C 63.332031 51.519531 62 50.878906 61.667969 50.558594 L 60.667969 49.59375 C 60 48.953125 59.332031 48.632812 58.332031 48.632812 C 57.332031 48.632812 56.667969 48.953125 56 49.59375 C 55.332031 50.238281 55 50.878906 55 51.839844 C 55 52.804688 55.332031 53.445312 56 54.089844 C 56.667969 54.730469 57.332031 55.050781 58.332031 55.050781 C 59.332031 55.050781 60 54.730469 60.667969 54.089844 L 61.667969 53.125 C 62 52.804688 63.332031 52.164062 64 52.164062 L 64.667969 52.164062 C 64.648438 53.070312 64.582031 54.660156 64.332031 55.371094 C 64 56.335938 63.332031 57.296875 62.667969 57.941406 C 62 58.582031 60 59.867188 60 59.867188 L 60 60.1875 C 60 60.1875 63.332031 59.542969 64 59.542969 L 66 59.542969 C 66.667969 59.542969 70 60.1875 70 60.1875 L 70 59.867188 C 70 59.867188 68 58.582031 67.332031 57.941406 C 66.667969 57.296875 66 56.335938 65.667969 55.371094 C 65.417969 54.660156 65.351562 53.070312 65.332031 52.164062 L 66 52.164062 C 66.667969 52.164062 68 52.804688 68.332031 53.125 L 69.332031 54.089844 C 70 54.730469 70.667969 55.050781 71.667969 55.050781 C 72.667969 55.050781 73.332031 54.730469 74 54.089844 C 74.667969 53.445312 75 52.804688 75 51.839844 C 75 50.878906 74.667969 50.238281 74 49.59375 C 73.332031 48.953125 72.667969 48.632812 71.667969 48.632812 C 70.667969 48.632812 70 48.953125 69.332031 49.59375 L 68.332031 50.558594 C 68 50.878906 66.667969 51.519531 66 51.519531 L 65.332031 51.519531 C 65.332031 51.074219 65.332031 51.199219 65.332031 50.558594 C 65.332031 49.914062 65.667969 48.632812 66 47.988281 C 66.332031 47.347656 66.667969 47.027344 67.332031 46.386719 C 67.996094 45.746094 68.332031 45.101562 68.332031 44.136719 C 68.332031 43.175781 68 42.535156 67.332031 41.890625 C 66.667969 41.25 66 40.929688 65 40.929688 "/>
<path style=" stroke:none;fill-rule:nonzero;fill:rgb(0%,0%,0%);fill-opacity:1;" d="M 45 55.371094 C 44 55.351562 43.332031 55.695312 42.667969 56.335938 C 42 56.976562 41.667969 57.621094 41.667969 58.582031 C 41.667969 59.546875 42.046875 60.117188 42.667969 60.828125 C 43.261719 61.511719 43.667969 61.792969 44 62.433594 C 44.332031 63.078125 44.667969 64.359375 44.667969 65 C 44.667969 65.644531 44.667969 65.578125 44.667969 65.964844 L 44 65.964844 C 43.332031 65.964844 42 65.324219 41.667969 65 L 40.667969 64.039062 C 40 63.398438 39.332031 63.074219 38.332031 63.074219 C 37.332031 63.074219 36.667969 63.398438 36 64.039062 C 35.332031 64.679688 35 65.324219 35 66.285156 C 35 67.25 35.332031 67.890625 36 68.53125 C 36.667969 69.175781 37.332031 69.496094 38.332031 69.496094 C 39.332031 69.496094 40 69.175781 40.667969 68.53125 L 41.667969 67.570312 C 42 67.25 43.332031 66.605469 44 66.605469 L 44.667969 66.605469 C 44.648438 67.515625 44.582031 69.101562 44.332031 69.816406 C 44 70.78125 43.332031 71.742188 42.667969 72.382812 C 42 73.027344 40 74.308594 40 74.308594 L 40 74.632812 C 40 74.632812 43.332031 73.988281 44 73.988281 L 46 73.988281 C 46.667969 73.988281 50 74.632812 50 74.632812 L 50 74.308594 C 50 74.308594 48 73.027344 47.332031 72.382812 C 46.667969 71.742188 46 70.78125 45.667969 69.816406 C 45.417969 69.101562 45.351562 67.515625 45.332031 66.605469 L 46 66.605469 C 46.667969 66.605469 48 67.25 48.332031 67.570312 L 49.332031 68.53125 C 50 69.175781 50.667969 69.496094 51.667969 69.496094 C 52.667969 69.496094 53.332031 69.175781 54 68.53125 C 54.667969 67.890625 55 67.25 55 66.285156 C 55 65.324219 54.667969 64.679688 54 64.039062 C 53.332031 63.398438 52.667969 63.074219 51.667969 63.074219 C 50.667969 63.074219 50 63.398438 49.332031 64.039062 L 48.332031 65 C 48 65.324219 46.667969 65.964844 46 65.964844 L 45.332031 65.964844 C 45.332031 65.519531 45.332031 65.644531 45.332031 65 C 45.332031 64.359375 45.667969 63.074219 46 62.433594 C 46.332031 61.792969 46.667969 61.472656 47.332031 60.828125 C 47.996094 60.191406 48.332031 59.546875 48.332031 58.582031 C 48.332031 57.621094 48 56.976562 47.332031 56.335938 C 46.667969 55.695312 46 55.371094 45 55.371094 "/>
<path style=" stroke:none;fill-rule:nonzero;fill:rgb(0%,0%,0%);fill-opacity:1;" d="M 65 117.964844 C 66 117.984375 66.667969 117.640625 67.332031 117 C 68 116.359375 68.332031 115.714844 68.332031 114.753906 C 68.332031 113.789062 67.953125 113.21875 67.332031 112.507812 C 66.738281 111.824219 66.332031 111.542969 66 110.902344 C 65.667969 110.257812 65.332031 108.976562 65.332031 108.332031 C 65.332031 107.691406 65.332031 107.757812 65.332031 107.371094 L 66 107.371094 C 66.667969 107.371094 68 108.011719 68.332031 108.332031 L 69.332031 109.296875 C 70 109.9375 70.667969 110.257812 71.667969 110.257812 C 72.667969 110.257812 73.332031 109.9375 74 109.296875 C 74.667969 108.65625 75 108.011719 75 107.050781 C 75 106.085938 74.667969 105.445312 74 104.804688 C 73.332031 104.160156 72.667969 103.839844 71.667969 103.839844 C 70.667969 103.839844 70 104.160156 69.332031 104.804688 L 68.332031 105.765625 C 68 106.085938 66.667969 106.730469 66 106.730469 L 65.332031 106.730469 C 65.351562 105.820312 65.417969 104.234375 65.667969 103.519531 C 66 102.554688 66.667969 101.59375 67.332031 100.953125 C 68 100.308594 70 99.027344 70 99.027344 L 70 98.703125 C 70 98.703125 66.667969 99.347656 66 99.347656 L 64 99.347656 C 63.332031 99.347656 60 98.703125 60 98.703125 L 60 99.027344 C 60 99.027344 62 100.308594 62.667969 100.953125 C 63.332031 101.59375 64 102.554688 64.332031 103.519531 C 64.582031 104.234375 64.648438 105.820312 64.667969 106.730469 L 64 106.730469 C 63.332031 106.730469 62 106.085938 61.667969 105.765625 L 60.667969 104.804688 C 60 104.160156 59.332031 103.839844 58.332031 103.839844 C 57.332031 103.839844 56.667969 104.160156 56 104.804688 C 55.332031 105.445312 55 106.085938 55 107.050781 C 55 108.011719 55.332031 108.65625 56 109.296875 C 56.667969 109.9375 57.332031 110.257812 58.332031 110.257812 C 59.332031 110.257812 60 109.9375 60.667969 109.296875 L 61.667969 108.332031 C 62 108.011719 63.332031 107.371094 64 107.371094 L 64.667969 107.371094 C 64.667969 107.816406 64.667969 107.691406 64.667969 108.332031 C 64.667969 108.976562 64.332031 110.257812 64 110.902344 C 63.667969 111.542969 63.332031 111.863281 62.667969 112.507812 C 62.003906 113.144531 61.667969 113.789062 61.667969 114.753906 C 61.667969 115.714844 62 116.359375 62.667969 117 C 63.332031 117.640625 64 117.964844 65 117.964844 "/>
<path style=" stroke:none;fill-rule:nonzero;fill:rgb(0%,0%,0%);fill-opacity:1;" d="M 25 117.964844 C 26 117.984375 26.667969 117.640625 27.332031 117 C 28 116.359375 28.332031 115.714844 28.332031 114.753906 C 28.332031 113.789062 27.953125 113.21875 27.332031 112.507812 C 26.738281 111.824219 26.332031 111.542969 26 110.902344 C 25.667969 110.257812 25.332031 108.976562 25.332031 108.332031 C 25.332031 107.691406 25.332031 107.757812 25.332031 107.371094 L 26 107.371094 C 26.667969 107.371094 28 108.011719 28.332031 108.332031 L 29.332031 109.296875 C 30 109.9375 30.667969 110.257812 31.667969 110.257812 C 32.667969 110.257812 33.332031 109.9375 34 109.296875 C 34.667969 108.65625 35 108.011719 35 107.050781 C 35 106.085938 34.667969 105.445312 34 104.804688 C 33.332031 104.160156 32.667969 103.839844 31.667969 103.839844 C 30.667969 103.839844 30 104.160156 29.332031 104.804688 L 28.332031 105.765625 C 28 106.085938 26.667969 106.730469 26 106.730469 L 25.332031 106.730469 C 25.351562 105.820312 25.417969 104.234375 25.667969 103.519531 C 26 102.554688 26.667969 101.59375 27.332031 100.953125 C 28 100.308594 30 99.027344 30 99.027344 L 30 98.703125 C 30 98.703125 26.667969 99.347656 26 99.347656 L 24 99.347656 C 23.332031 99.347656 20 98.703125 20 98.703125 L 20 99.027344 C 20 99.027344 22 100.308594 22.667969 100.953125 C 23.332031 101.59375 24 102.554688 24.332031 103.519531 C 24.582031 104.234375 24.648438 105.820312 24.667969 106.730469 L 24 106.730469 C 23.332031 106.730469 22 106.085938 21.667969 105.765625 L 20.667969 104.804688 C 20 104.160156 19.332031 103.839844 18.332031 103.839844 C 17.332031 103.839844 16.667969 104.160156 16 104.804688 C 15.332031 105.445312 15 106.085938 15 107.050781 C 15 108.011719 15.332031 108.65625 16 109.296875 C 16.667969 109.9375 17.332031 110.257812 18.332031 110.257812 C 19.332031 110.257812 20 109.9375 20.667969 109.296875 L 21.667969 108.332031 C 22 108.011719 23.332031 107.371094 24 107.371094 L 24.667969 107.371094 C 24.667969 107.816406 24.667969 107.691406 24.667969 108.332031 C 24.667969 108.976562 24.332031 110.257812 24 110.902344 C 23.667969 111.542969 23.332031 111.863281 22.667969 112.507812 C 22.003906 113.144531 21.667969 113.789062 21.667969 114.753906 C 21.667969 115.714844 22 116.359375 22.667969 117 C 23.332031 117.640625 24 117.964844 25 117.964844 "/>
<path style=" stroke:none;fill-rule:nonzero;fill:rgb(0%,0%,0%);fill-opacity:1;" d="M 65 89.074219 C 66 89.09375 66.667969 88.753906 67.332031 88.109375 C 68 87.46875 68.332031 86.828125 68.332031 85.863281 C 68.332031 84.902344 67.953125 84.332031 67.332031 83.617188 C 66.738281 82.933594 66.332031 82.65625 66 82.011719 C 65.667969 81.371094 65.332031 80.085938 65.332031 79.445312 C 65.332031 78.804688 65.332031 78.867188 65.332031 78.480469 L 66 78.480469 C 66.667969 78.480469 68 79.125 68.332031 79.445312 L 69.332031 80.40625 C 70 81.050781 70.667969 81.371094 71.667969 81.371094 C 72.667969 81.371094 73.332031 81.050781 74 80.40625 C 74.667969 79.765625 75 79.125 75 78.160156 C 75 77.199219 74.667969 76.554688 74 75.914062 C 73.332031 75.273438 72.667969 74.953125 71.667969 74.953125 C 70.667969 74.953125 70 75.273438 69.332031 75.914062 L 68.332031 76.878906 C 68 77.199219 66.667969 77.839844 66 77.839844 L 65.332031 77.839844 C 65.351562 76.929688 65.417969 75.34375 65.667969 74.628906 C 66 73.667969 66.667969 72.703125 67.332031 72.0625 C 68 71.421875 70 70.136719 70 70.136719 L 70 69.816406 C 70 69.816406 66.667969 70.457031 66 70.457031 L 64 70.457031 C 63.332031 70.457031 60 69.816406 60 69.816406 L 60 70.136719 C 60 70.136719 62 71.421875 62.667969 72.0625 C 63.332031 72.703125 64 73.667969 64.332031 74.628906 C 64.582031 75.34375 64.648438 76.929688 64.667969 77.839844 L 64 77.839844 C 63.332031 77.839844 62 77.199219 61.667969 76.878906 L 60.667969 75.914062 C 60 75.273438 59.332031 74.953125 58.332031 74.953125 C 57.332031 74.953125 56.667969 75.273438 56 75.914062 C 55.332031 76.554688 55 77.199219 55 78.160156 C 55 79.125 55.332031 79.765625 56 80.40625 C 56.667969 81.050781 57.332031 81.371094 58.332031 81.371094 C 59.332031 81.371094 60 81.050781 60.667969 80.40625 L 61.667969 79.445312 C 62 79.125 63.332031 78.480469 64 78.480469 L 64.667969 78.480469 C 64.667969 78.929688 64.667969 78.804688 64.667969 79.445312 C 64.667969 80.085938 64.332031 81.371094 64 82.011719 C 63.667969 82.65625 63.332031 82.976562 62.667969 83.617188 C 62.003906 84.257812 61.667969 84.902344 61.667969 85.863281 C 61.667969 86.828125 62 87.46875 62.667969 88.109375 C 63.332031 88.753906 64 89.074219 65 89.074219 "/>
<path style=" stroke:none;fill-rule:nonzero;fill:rgb(0%,0%,0%);fill-opacity:1;" d="M 25 89.074219 C 26 89.09375 26.667969 88.753906 27.332031 88.109375 C 28 87.46875 28.332031 86.828125 28.332031 85.863281 C 28.332031 84.902344 27.953125 84.332031 27.332031 83.617188 C 26.738281 82.933594 26.332031 82.65625 26 82.011719 C 25.667969 81.371094 25.332031 80.085938 25.332031 79.445312 C 25.332031 78.804688 25.332031 78.867188 25.332031 78.480469 L 26 78.480469 C 26.667969 78.480469 28 79.125 28.332031 79.445312 L 29.332031 80.40625 C 30 81.050781 30.667969 81.371094 31.667969 81.371094 C 32.667969 81.371094 33.332031 81.050781 34 80.40625 C 34.667969 79.765625 35 79.125 35 78.160156 C 35 77.199219 34.667969 76.554688 34 75.914062 C 33.332031 75.273438 32.667969 74.953125 31.667969 74.953125 C 30.667969 74.953125 30 75.273438 29.332031 75.914062 L 28.332031 76.878906 C 28 77.199219 26.667969 77.839844 26 77.839844 L 25.332031 77.839844 C 25.351562 76.929688 25.417969 75.34375 25.667969 74.628906 C 26 73.667969 26.667969 72.703125 27.332031 72.0625 C 28 71.421875 30 70.136719 30 70.136719 L 30 69.816406 C 30 69.816406 26.667969 70.457031 26 70.457031 L 24 70.457031 C 23.332031 70.457031 20 69.816406 20 69.816406 L 20 70.136719 C 20 70.136719 22 71.421875 22.667969 72.0625 C 23.332031 72.703125 24 73.667969 24.332031 74.628906 C 24.582031 75.34375 24.648438 76.929688 24.667969 77.839844 L 24 77.839844 C 23.332031 77.839844 22 77.199219 21.667969 76.878906 L 20.667969 75.914062 C 20 75.273438 19.332031 74.953125 18.332031 74.953125 C 17.332031 74.953125 16.667969 75.273438 16 75.914062 C 15.332031 76.554688 15 77.199219 15 78.160156 C 15 79.125 15.332031 79.765625 16 80.40625 C 16.667969 81.050781 17.332031 81.371094 18.332031 81.371094 C 19.332031 81.371094 20 81.050781 20.667969 80.40625 L 21.667969 79.445312 C 22 79.125 23.332031 78.480469 24 78.480469 L 24.667969 78.480469 C 24.667969 78.929688 24.667969 78.804688 24.667969 79.445312 C 24.667969 80.085938 24.332031 81.371094 24 82.011719 C 23.667969 82.65625 23.332031 82.976562 22.667969 83.617188 C 22.003906 84.257812 21.667969 84.902344 21.667969 85.863281 C 21.667969 86.828125 22 87.46875 22.667969 88.109375 C 23.332031 88.753906 24 89.074219 25 89.074219 "/>
<path style=" stroke:none;fill-rule:nonzero;fill:rgb(0%,0%,0%);fill-opacity:1;" d="M 7.5 21.667969 C 7.125 21.660156 6.875 21.785156 6.625 22.027344 C 6.375 22.269531 6.25 22.507812 6.25 22.871094 C 6.25 23.230469 6.390625 23.445312 6.625 23.714844 C 6.847656 23.96875 7 24.074219 7.125 24.316406 C 7.25 24.554688 7.375 25.035156 7.375 25.277344 C 7.375 25.519531 7.375 25.496094 7.375 25.640625 L 7.125 25.640625 C 6.875 25.640625 6.375 25.398438 6.25 25.277344 L 5.875 24.917969 C 5.625 24.675781 5.375 24.554688 5 24.554688 C 4.625 24.554688 4.375 24.675781 4.125 24.917969 C 3.875 25.15625 3.75 25.398438 3.75 25.757812 C 3.75 26.121094 3.875 26.359375 4.125 26.601562 C 4.375 26.84375 4.625 26.964844 5 26.964844 C 5.375 26.964844 5.625 26.84375 5.875 26.601562 L 6.25 26.242188 C 6.375 26.121094 6.875 25.878906 7.125 25.878906 L 7.375 25.878906 C 7.367188 26.21875 7.34375 26.816406 7.25 27.082031 C 7.125 27.445312 6.875 27.804688 6.625 28.046875 C 6.375 28.285156 5.625 28.769531 5.625 28.769531 L 5.625 28.890625 C 5.625 28.890625 6.875 28.648438 7.125 28.648438 L 7.875 28.648438 C 8.125 28.648438 9.375 28.890625 9.375 28.890625 L 9.375 28.769531 C 9.375 28.769531 8.625 28.285156 8.375 28.046875 C 8.125 27.804688 7.875 27.445312 7.75 27.082031 C 7.65625 26.816406 7.632812 26.21875 7.625 25.878906 L 7.875 25.878906 C 8.125 25.878906 8.625 26.121094 8.75 26.242188 L 9.125 26.601562 C 9.375 26.84375 9.625 26.964844 10 26.964844 C 10.375 26.964844 10.625 26.84375 10.875 26.601562 C 11.125 26.359375 11.25 26.121094 11.25 25.757812 C 11.25 25.398438 11.125 25.15625 10.875 24.917969 C 10.625 24.675781 10.375 24.554688 10 24.554688 C 9.625 24.554688 9.375 24.675781 9.125 24.917969 L 8.75 25.277344 C 8.625 25.398438 8.125 25.640625 7.875 25.640625 L 7.625 25.640625 C 7.625 25.472656 7.625 25.519531 7.625 25.277344 C 7.625 25.035156 7.75 24.554688 7.875 24.316406 C 8 24.074219 8.125 23.953125 8.375 23.714844 C 8.625 23.472656 8.75 23.230469 8.75 22.871094 C 8.75 22.507812 8.625 22.269531 8.375 22.027344 C 8.125 21.785156 7.875 21.667969 7.5 21.667969 "/>
<path style=" stroke:none;fill-rule:nonzero;fill:rgb(0%,0%,0%);fill-opacity:1;" d="M 82.5 108.332031 C 82.875 108.339844 83.125 108.214844 83.375 107.972656 C 83.625 107.730469 83.75 107.492188 83.75 107.128906 C 83.75 106.769531 83.609375 106.554688 83.375 106.285156 C 83.152344 106.03125 83 105.925781 82.875 105.683594 C 82.75 105.445312 82.625 104.964844 82.625 104.722656 C 82.625 104.480469 82.625 104.503906 82.625 104.359375 L 82.875 104.359375 C 83.125 104.359375 83.625 104.601562 83.75 104.722656 L 84.125 105.082031 C 84.375 105.324219 84.625 105.445312 85 105.445312 C 85.375 105.445312 85.625 105.324219 85.875 105.082031 C 86.125 104.84375 86.25 104.601562 86.25 104.242188 C 86.25 103.878906 86.125 103.640625 85.875 103.398438 C 85.625 103.15625 85.375 103.035156 85 103.035156 C 84.625 103.035156 84.375 103.15625 84.125 103.398438 L 83.75 103.757812 C 83.625 103.878906 83.125 104.121094 82.875 104.121094 L 82.625 104.121094 C 82.632812 103.78125 82.65625 103.183594 82.75 102.917969 C 82.875 102.554688 83.125 102.195312 83.375 101.953125 C 83.625 101.714844 84.375 101.230469 84.375 101.230469 L 84.375 101.109375 C 84.375 101.109375 83.125 101.351562 82.875 101.351562 L 82.125 101.351562 C 81.875 101.351562 80.625 101.109375 80.625 101.109375 L 80.625 101.230469 C 80.625 101.230469 81.375 101.714844 81.625 101.953125 C 81.875 102.195312 82.125 102.554688 82.25 102.917969 C 82.34375 103.183594 82.367188 103.78125 82.375 104.121094 L 82.125 104.121094 C 81.875 104.121094 81.375 103.878906 81.25 103.757812 L 80.875 103.398438 C 80.625 103.15625 80.375 103.035156 80 103.035156 C 79.625 103.035156 79.375 103.15625 79.125 103.398438 C 78.875 103.640625 78.75 103.878906 78.75 104.242188 C 78.75 104.601562 78.875 104.84375 79.125 105.082031 C 79.375 105.324219 79.625 105.445312 80 105.445312 C 80.375 105.445312 80.625 105.324219 80.875 105.082031 L 81.25 104.722656 C 81.375 104.601562 81.875 104.359375 82.125 104.359375 L 82.375 104.359375 C 82.375 104.527344 82.375 104.480469 82.375 104.722656 C 82.375 104.964844 82.25 105.445312 82.125 105.683594 C 82 105.925781 81.875 106.046875 81.625 106.285156 C 81.375 106.527344 81.25 106.769531 81.25 107.128906 C 81.25 107.492188 81.375 107.730469 81.625 107.972656 C 81.875 108.214844 82.125 108.332031 82.5 108.332031 "/>
</g>
</svg>
