<?xml version="1.0" encoding="UTF-8"?>
<svg xmlns="http://www.w3.org/2000/svg" xmlns:xlink="http://www.w3.org/1999/xlink" width="87pt" height="130pt" viewBox="0 0 87 130" version="1.1">
<g id="surface1">
<path style="fill-rule:nonzero;fill:rgb(100%,100%,100%);fill-opacity:1;stroke-width:1;stroke-linecap:butt;stroke-linejoin:miter;stroke:rgb(0%,0%,0%);stroke-opacity:1;stroke-miterlimit:4;" d="M 30.436422 512.863005 L 329.563578 512.863005 C 346.099138 512.863005 359.498922 526.265649 359.498922 542.799904 L 359.498922 1021.920096 C 359.498922 1038.454351 346.099138 1051.856995 329.563578 1051.856995 L 30.436422 1051.856995 C 13.900862 1051.856995 0.501078 1038.454351 0.501078 1021.920096 L 0.501078 542.799904 C 0.501078 526.265649 13.900862 512.863005 30.436422 512.863005 Z M 30.436422 512.863005 " transform="matrix(0.241667,0,0,0.240741,0,-123.345926)"/>
<path style=" stroke:none;fill-rule:nonzero;fill:rgb(0%,0%,0%);fill-opacity:1;" d="M 7.25 19.257812 C 8.589844 19.257812 9.667969 18.1875 9.667969 16.851562 L 9.667969 9.628906 C 9.667969 8.296875 8.589844 7.222656 7.25 7.222656 C 5.910156 7.222656 4.832031 8.296875 4.832031 9.628906 L 4.832031 12.035156 C 4.832031 13.371094 5.910156 14.445312 7.25 14.445312 C 7.691406 14.445312 8.105469 14.324219 8.457031 14.121094 L 8.457031 16.851562 C 8.457031 17.519531 7.917969 18.054688 7.25 18.054688 C 6.582031 18.054688 6.042969 17.519531 6.042969 16.851562 L 6.042969 16.609375 L 4.832031 16.609375 L 4.832031 16.851562 C 4.832031 18.1875 5.910156 19.257812 7.25 19.257812 M 7.25 13.242188 C 6.582031 13.242188 6.042969 12.703125 6.042969 12.035156 L 6.042969 9.628906 C 6.042969 8.960938 6.582031 8.425781 7.25 8.425781 C 7.917969 8.425781 8.457031 8.960938 8.457031 9.628906 L 8.457031 12.035156 C 8.457031 12.703125 7.917969 13.242188 7.25 13.242188 "/>
<path style=" stroke:none;fill-rule:nonzero;fill:rgb(0%,0%,0%);fill-opacity:1;" d="M 79.75 110.742188 C 78.410156 110.742188 77.332031 111.8125 77.332031 113.148438 L 77.332031 120.371094 C 77.332031 121.703125 78.410156 122.777344 79.75 122.777344 C 81.089844 122.777344 82.167969 121.703125 82.167969 120.371094 L 82.167969 117.964844 C 82.167969 116.628906 81.089844 115.554688 79.75 115.554688 C 79.308594 115.554688 78.894531 115.675781 78.542969 115.878906 L 78.542969 113.148438 C 78.542969 112.480469 79.082031 111.945312 79.75 111.945312 C 80.417969 111.945312 80.957031 112.480469 80.957031 113.148438 L 80.957031 113.390625 L 82.167969 113.390625 L 82.167969 113.148438 C 82.167969 111.8125 81.089844 110.742188 79.75 110.742188 M 79.75 116.757812 C 80.417969 116.757812 80.957031 117.296875 80.957031 117.964844 L 80.957031 120.371094 C 80.957031 121.039062 80.417969 121.574219 79.75 121.574219 C 79.082031 121.574219 78.542969 121.039062 78.542969 120.371094 L 78.542969 117.964844 C 78.542969 117.296875 79.082031 116.757812 79.75 116.757812 "/>
<path style=" stroke:none;fill-rule:nonzero;fill:rgb(0%,0%,0%);fill-opacity:1;" d="M 24.167969 12.039062 C 23.199219 12.019531 22.554688 12.359375 21.910156 13.003906 C 21.265625 13.644531 20.945312 14.285156 20.945312 15.25 C 20.945312 16.210938 21.3125 16.785156 21.910156 17.496094 C 22.484375 18.179688 22.878906 18.460938 23.199219 19.101562 C 23.523438 19.742188 23.84375 21.027344 23.84375 21.667969 C 23.84375 22.3125 23.84375 22.246094 23.84375 22.632812 L 23.199219 22.632812 C 22.554688 22.632812 21.265625 21.988281 20.945312 21.667969 L 19.976562 20.707031 C 19.332031 20.0625 18.6875 19.742188 17.722656 19.742188 C 16.753906 19.742188 16.109375 20.0625 15.46875 20.707031 C 14.824219 21.347656 14.5 21.988281 14.5 22.953125 C 14.5 23.914062 14.824219 24.558594 15.46875 25.199219 C 16.113281 25.839844 16.753906 26.164062 17.722656 26.164062 C 18.6875 26.164062 19.332031 25.839844 19.976562 25.199219 L 20.945312 24.238281 C 21.265625 23.914062 22.554688 23.273438 23.199219 23.273438 L 23.84375 23.273438 C 23.828125 24.183594 23.761719 25.769531 23.523438 26.484375 C 23.199219 27.445312 22.554688 28.410156 21.910156 29.050781 C 21.265625 29.691406 19.332031 30.976562 19.332031 30.976562 L 19.332031 31.296875 C 19.332031 31.296875 22.554688 30.65625 23.199219 30.65625 L 25.132812 30.65625 C 25.777344 30.65625 29 31.296875 29 31.296875 L 29 30.976562 C 29 30.976562 27.066406 29.691406 26.421875 29.050781 C 25.777344 28.410156 25.132812 27.445312 24.8125 26.484375 C 24.570312 25.769531 24.503906 24.183594 24.488281 23.273438 L 25.132812 23.273438 C 25.777344 23.273438 27.066406 23.914062 27.390625 24.238281 L 28.355469 25.199219 C 29 25.839844 29.644531 26.164062 30.609375 26.164062 C 31.578125 26.164062 32.222656 25.839844 32.867188 25.199219 C 33.511719 24.558594 33.832031 23.914062 33.832031 22.953125 C 33.832031 21.988281 33.511719 21.347656 32.867188 20.707031 C 32.222656 20.0625 31.578125 19.742188 30.609375 19.742188 C 29.644531 19.742188 29 20.0625 28.355469 20.707031 L 27.390625 21.667969 C 27.066406 21.988281 25.777344 22.632812 25.132812 22.632812 L 24.488281 22.632812 C 24.488281 22.183594 24.488281 22.3125 24.488281 21.667969 C 24.488281 21.027344 24.8125 19.742188 25.132812 19.101562 C 25.457031 18.457031 25.777344 18.136719 26.421875 17.496094 C 27.0625 16.855469 27.390625 16.210938 27.390625 15.25 C 27.390625 14.285156 27.066406 13.644531 26.421875 13.003906 C 25.777344 12.359375 25.132812 12.039062 24.167969 12.039062 "/>
<path style=" stroke:none;fill-rule:nonzero;fill:rgb(0%,0%,0%);fill-opacity:1;" d="M 62.832031 12.039062 C 61.867188 12.019531 61.222656 12.359375 60.578125 13.003906 C 59.933594 13.644531 59.609375 14.285156 59.609375 15.25 C 59.609375 16.210938 59.976562 16.785156 60.578125 17.496094 C 61.152344 18.179688 61.542969 18.460938 61.867188 19.101562 C 62.1875 19.742188 62.511719 21.027344 62.511719 21.667969 C 62.511719 22.3125 62.511719 22.246094 62.511719 22.632812 L 61.867188 22.632812 C 61.222656 22.632812 59.933594 21.988281 59.609375 21.667969 L 58.644531 20.707031 C 58 20.0625 57.355469 19.742188 56.390625 19.742188 C 55.421875 19.742188 54.777344 20.0625 54.132812 20.707031 C 53.488281 21.347656 53.167969 21.988281 53.167969 22.953125 C 53.167969 23.914062 53.488281 24.558594 54.132812 25.199219 C 54.777344 25.839844 55.421875 26.164062 56.390625 26.164062 C 57.355469 26.164062 58 25.839844 58.644531 25.199219 L 59.609375 24.238281 C 59.933594 23.914062 61.222656 23.273438 61.867188 23.273438 L 62.511719 23.273438 C 62.496094 24.183594 62.425781 25.769531 62.1875 26.484375 C 61.867188 27.445312 61.222656 28.410156 60.578125 29.050781 C 59.933594 29.691406 58 30.976562 58 30.976562 L 58 31.296875 C 58 31.296875 61.222656 30.65625 61.867188 30.65625 L 63.800781 30.65625 C 64.445312 30.65625 67.667969 31.296875 67.667969 31.296875 L 67.667969 30.976562 C 67.667969 30.976562 65.734375 29.691406 65.089844 29.050781 C 64.445312 28.410156 63.800781 27.445312 63.476562 26.484375 C 63.238281 25.769531 63.171875 24.183594 63.15625 23.273438 L 63.800781 23.273438 C 64.445312 23.273438 65.734375 23.914062 66.054688 24.238281 L 67.023438 25.199219 C 67.667969 25.839844 68.3125 26.164062 69.277344 26.164062 C 70.246094 26.164062 70.890625 25.839844 71.53125 25.199219 C 72.175781 24.558594 72.5 23.914062 72.5 22.953125 C 72.5 21.988281 72.175781 21.347656 71.53125 20.707031 C 70.886719 20.0625 70.246094 19.742188 69.277344 19.742188 C 68.3125 19.742188 67.667969 20.0625 67.023438 20.707031 L 66.054688 21.667969 C 65.734375 21.988281 64.445312 22.632812 63.800781 22.632812 L 63.15625 22.632812 C 63.15625 22.183594 63.15625 22.3125 63.15625 21.667969 C 63.15625 21.027344 63.476562 19.742188 63.800781 19.101562 C 64.121094 18.457031 64.445312 18.136719 65.089844 17.496094 C 65.730469 16.855469 66.054688 16.210938 66.054688 15.25 C 66.054688 14.285156 65.734375 13.644531 65.089844 13.003906 C 64.445312 12.359375 63.800781 12.039062 62.832031 12.039062 "/>
<path style=" stroke:none;fill-rule:nonzero;fill:rgb(0%,0%,0%);fill-opacity:1;" d="M 24.167969 40.929688 C 23.199219 40.910156 22.554688 41.25 21.910156 41.890625 C 21.265625 42.535156 20.945312 43.175781 20.945312 44.136719 C 20.945312 45.101562 21.3125 45.671875 21.910156 46.386719 C 22.484375 47.066406 22.878906 47.347656 23.199219 47.988281 C 23.523438 48.632812 23.84375 49.914062 23.84375 50.558594 C 23.84375 51.199219 23.84375 51.136719 23.84375 51.519531 L 23.199219 51.519531 C 22.554688 51.519531 21.265625 50.878906 20.945312 50.558594 L 19.976562 49.59375 C 19.332031 48.953125 18.6875 48.632812 17.722656 48.632812 C 16.753906 48.632812 16.109375 48.953125 15.46875 49.59375 C 14.824219 50.238281 14.5 50.878906 14.5 51.839844 C 14.5 52.804688 14.824219 53.445312 15.46875 54.089844 C 16.113281 54.730469 16.753906 55.050781 17.722656 55.050781 C 18.6875 55.050781 19.332031 54.730469 19.976562 54.089844 L 20.945312 53.125 C 21.265625 52.804688 22.554688 52.164062 23.199219 52.164062 L 23.84375 52.164062 C 23.828125 53.070312 23.761719 54.660156 23.523438 55.371094 C 23.199219 56.335938 22.554688 57.296875 21.910156 57.941406 C 21.265625 58.582031 19.332031 59.867188 19.332031 59.867188 L 19.332031 60.1875 C 19.332031 60.1875 22.554688 59.542969 23.199219 59.542969 L 25.132812 59.542969 C 25.777344 59.542969 29 60.1875 29 60.1875 L 29 59.867188 C 29 59.867188 27.066406 58.582031 26.421875 57.941406 C 25.777344 57.296875 25.132812 56.335938 24.8125 55.371094 C 24.570312 54.660156 24.503906 53.070312 24.488281 52.164062 L 25.132812 52.164062 C 25.777344 52.164062 27.066406 52.804688 27.390625 53.125 L 28.355469 54.089844 C 29 54.730469 29.644531 55.050781 30.609375 55.050781 C 31.578125 55.050781 32.222656 54.730469 32.867188 54.089844 C 33.511719 53.445312 33.832031 52.804688 33.832031 51.839844 C 33.832031 50.878906 33.511719 50.238281 32.867188 49.59375 C 32.222656 48.953125 31.578125 48.632812 30.609375 48.632812 C 29.644531 48.632812 29 48.953125 28.355469 49.59375 L 27.390625 50.558594 C 27.066406 50.878906 25.777344 51.519531 25.132812 51.519531 L 24.488281 51.519531 C 24.488281 51.074219 24.488281 51.199219 24.488281 50.558594 C 24.488281 49.914062 24.8125 48.632812 25.132812 47.988281 C 25.457031 47.347656 25.777344 47.027344 26.421875 46.386719 C 27.0625 45.746094 27.390625 45.101562 27.390625 44.136719 C 27.390625 43.175781 27.066406 42.535156 26.421875 41.890625 C 25.777344 41.25 25.132812 40.929688 24.167969 40.929688 "/>
<path style=" stroke:none;fill-rule:nonzero;fill:rgb(0%,0%,0%);fill-opacity:1;" d="M 62.832031 40.929688 C 61.867188 40.910156 61.222656 41.25 60.578125 41.890625 C 59.933594 42.535156 59.609375 43.175781 59.609375 44.136719 C 59.609375 45.101562 59.976562 45.671875 60.578125 46.386719 C 61.152344 47.066406 61.542969 47.347656 61.867188 47.988281 C 62.1875 48.632812 62.511719 49.914062 62.511719 50.558594 C 62.511719 51.199219 62.511719 51.136719 62.511719 51.519531 L 61.867188 51.519531 C 61.222656 51.519531 59.933594 50.878906 59.609375 50.558594 L 58.644531 49.59375 C 58 48.953125 57.355469 48.632812 56.390625 48.632812 C 55.421875 48.632812 54.777344 48.953125 54.132812 49.59375 C 53.488281 50.238281 53.167969 50.878906 53.167969 51.839844 C 53.167969 52.804688 53.488281 53.445312 54.132812 54.089844 C 54.777344 54.730469 55.421875 55.050781 56.390625 55.050781 C 57.355469 55.050781 58 54.730469 58.644531 54.089844 L 59.609375 53.125 C 59.933594 52.804688 61.222656 52.164062 61.867188 52.164062 L 62.511719 52.164062 C 62.496094 53.070312 62.425781 54.660156 62.1875 55.371094 C 61.867188 56.335938 61.222656 57.296875 60.578125 57.941406 C 59.933594 58.582031 58 59.867188 58 59.867188 L 58 60.1875 C 58 60.1875 61.222656 59.542969 61.867188 59.542969 L 63.800781 59.542969 C 64.445312 59.542969 67.667969 60.1875 67.667969 60.1875 L 67.667969 59.867188 C 67.667969 59.867188 65.734375 58.582031 65.089844 57.941406 C 64.445312 57.296875 63.800781 56.335938 63.476562 55.371094 C 63.238281 54.660156 63.171875 53.070312 63.15625 52.164062 L 63.800781 52.164062 C 64.445312 52.164062 65.734375 52.804688 66.054688 53.125 L 67.023438 54.089844 C 67.667969 54.730469 68.3125 55.050781 69.277344 55.050781 C 70.246094 55.050781 70.890625 54.730469 71.53125 54.089844 C 72.175781 53.445312 72.5 52.804688 72.5 51.839844 C 72.5 50.878906 72.175781 50.238281 71.53125 49.59375 C 70.886719 48.953125 70.246094 48.632812 69.277344 48.632812 C 68.3125 48.632812 67.667969 48.953125 67.023438 49.59375 L 66.054688 50.558594 C 65.734375 50.878906 64.445312 51.519531 63.800781 51.519531 L 63.15625 51.519531 C 63.15625 51.074219 63.15625 51.199219 63.15625 50.558594 C 63.15625 49.914062 63.476562 48.632812 63.800781 47.988281 C 64.121094 47.347656 64.445312 47.027344 65.089844 46.386719 C 65.730469 45.746094 66.054688 45.101562 66.054688 44.136719 C 66.054688 43.175781 65.734375 42.535156 65.089844 41.890625 C 64.445312 41.25 63.800781 40.929688 62.832031 40.929688 "/>
<path style=" stroke:none;fill-rule:nonzero;fill:rgb(0%,0%,0%);fill-opacity:1;" d="M 43.5 55.371094 C 42.535156 55.351562 41.890625 55.695312 41.246094 56.335938 C 40.601562 56.976562 40.277344 57.621094 40.277344 58.582031 C 40.277344 59.546875 40.644531 60.117188 41.246094 60.828125 C 41.820312 61.511719 42.210938 61.792969 42.535156 62.433594 C 42.855469 63.078125 43.179688 64.359375 43.179688 65 C 43.179688 65.644531 43.179688 65.578125 43.179688 65.964844 L 42.535156 65.964844 C 41.890625 65.964844 40.601562 65.324219 40.277344 65 L 39.3125 64.039062 C 38.667969 63.398438 38.023438 63.074219 37.054688 63.074219 C 36.089844 63.074219 35.445312 63.398438 34.800781 64.039062 C 34.15625 64.679688 33.832031 65.324219 33.832031 66.285156 C 33.832031 67.25 34.15625 67.890625 34.800781 68.53125 C 35.445312 69.175781 36.089844 69.496094 37.054688 69.496094 C 38.023438 69.496094 38.667969 69.175781 39.3125 68.53125 L 40.277344 67.570312 C 40.601562 67.25 41.890625 66.605469 42.535156 66.605469 L 43.179688 66.605469 C 43.160156 67.515625 43.09375 69.101562 42.855469 69.816406 C 42.535156 70.78125 41.890625 71.742188 41.246094 72.382812 C 40.601562 73.027344 38.667969 74.308594 38.667969 74.308594 L 38.667969 74.632812 C 38.667969 74.632812 41.890625 73.988281 42.535156 73.988281 L 44.464844 73.988281 C 45.109375 73.988281 48.332031 74.632812 48.332031 74.632812 L 48.332031 74.308594 C 48.332031 74.308594 46.398438 73.027344 45.753906 72.382812 C 45.109375 71.742188 44.464844 70.78125 44.144531 69.816406 C 43.90625 69.101562 43.839844 67.515625 43.820312 66.605469 L 44.464844 66.605469 C 45.109375 66.605469 46.398438 67.25 46.722656 67.570312 L 47.6875 68.53125 C 48.332031 69.175781 48.976562 69.496094 49.945312 69.496094 C 50.910156 69.496094 51.554688 69.175781 52.199219 68.53125 C 52.84375 67.890625 53.167969 67.25 53.167969 66.285156 C 53.167969 65.324219 52.84375 64.679688 52.199219 64.039062 C 51.554688 63.398438 50.910156 63.074219 49.945312 63.074219 C 48.976562 63.074219 48.332031 63.398438 47.6875 64.039062 L 46.722656 65 C 46.398438 65.324219 45.109375 65.964844 44.464844 65.964844 L 43.820312 65.964844 C 43.820312 65.519531 43.820312 65.644531 43.820312 65 C 43.820312 64.359375 44.144531 63.074219 44.464844 62.433594 C 44.789062 61.792969 45.109375 61.472656 45.753906 60.828125 C 46.398438 60.191406 46.722656 59.546875 46.722656 58.582031 C 46.722656 57.621094 46.398438 56.976562 45.753906 56.335938 C 45.109375 55.695312 44.464844 55.371094 43.5 55.371094 "/>
<path style=" stroke:none;fill-rule:nonzero;fill:rgb(0%,0%,0%);fill-opacity:1;" d="M 62.832031 117.964844 C 63.800781 117.984375 64.445312 117.640625 65.089844 117 C 65.734375 116.359375 66.054688 115.714844 66.054688 114.753906 C 66.054688 113.789062 65.6875 113.21875 65.089844 112.507812 C 64.515625 111.824219 64.121094 111.542969 63.800781 110.902344 C 63.476562 110.257812 63.15625 108.976562 63.15625 108.332031 C 63.15625 107.691406 63.15625 107.757812 63.15625 107.371094 L 63.800781 107.371094 C 64.445312 107.371094 65.734375 108.011719 66.054688 108.332031 L 67.023438 109.296875 C 67.667969 109.9375 68.3125 110.257812 69.277344 110.257812 C 70.246094 110.257812 70.890625 109.9375 71.53125 109.296875 C 72.175781 108.65625 72.5 108.011719 72.5 107.050781 C 72.5 106.085938 72.175781 105.445312 71.53125 104.804688 C 70.886719 104.160156 70.246094 103.839844 69.277344 103.839844 C 68.3125 103.839844 67.667969 104.160156 67.023438 104.804688 L 66.054688 105.765625 C 65.734375 106.085938 64.445312 106.730469 63.800781 106.730469 L 63.15625 106.730469 C 63.171875 105.820312 63.238281 104.234375 63.476562 103.519531 C 63.800781 102.554688 64.445312 101.59375 65.089844 100.953125 C 65.734375 100.308594 67.667969 99.027344 67.667969 99.027344 L 67.667969 98.703125 C 67.667969 98.703125 64.445312 99.347656 63.800781 99.347656 L 61.867188 99.347656 C 61.222656 99.347656 58 98.703125 58 98.703125 L 58 99.027344 C 58 99.027344 59.933594 100.308594 60.578125 100.953125 C 61.222656 101.59375 61.867188 102.554688 62.1875 103.519531 C 62.429688 104.234375 62.496094 105.820312 62.511719 106.730469 L 61.867188 106.730469 C 61.222656 106.730469 59.933594 106.085938 59.609375 105.765625 L 58.644531 104.804688 C 58 104.160156 57.355469 103.839844 56.390625 103.839844 C 55.421875 103.839844 54.777344 104.160156 54.132812 104.804688 C 53.488281 105.445312 53.167969 106.085938 53.167969 107.050781 C 53.167969 108.011719 53.488281 108.65625 54.132812 109.296875 C 54.777344 109.9375 55.421875 110.257812 56.390625 110.257812 C 57.355469 110.257812 58 109.9375 58.644531 109.296875 L 59.609375 108.332031 C 59.933594 108.011719 61.222656 107.371094 61.867188 107.371094 L 62.511719 107.371094 C 62.511719 107.816406 62.511719 107.691406 62.511719 108.332031 C 62.511719 108.976562 62.1875 110.257812 61.867188 110.902344 C 61.542969 111.542969 61.222656 111.863281 60.578125 112.507812 C 59.9375 113.144531 59.609375 113.789062 59.609375 114.753906 C 59.609375 115.714844 59.933594 116.359375 60.578125 117 C 61.222656 117.640625 61.867188 117.964844 62.832031 117.964844 "/>
<path style=" stroke:none;fill-rule:nonzero;fill:rgb(0%,0%,0%);fill-opacity:1;" d="M 24.167969 117.964844 C 25.132812 117.984375 25.777344 117.640625 26.421875 117 C 27.066406 116.359375 27.390625 115.714844 27.390625 114.753906 C 27.390625 113.789062 27.023438 113.21875 26.421875 112.507812 C 25.847656 111.824219 25.457031 111.542969 25.132812 110.902344 C 24.8125 110.257812 24.488281 108.976562 24.488281 108.332031 C 24.488281 107.691406 24.488281 107.757812 24.488281 107.371094 L 25.132812 107.371094 C 25.777344 107.371094 27.066406 108.011719 27.390625 108.332031 L 28.355469 109.296875 C 29 109.9375 29.644531 110.257812 30.609375 110.257812 C 31.578125 110.257812 32.222656 109.9375 32.867188 109.296875 C 33.511719 108.65625 33.832031 108.011719 33.832031 107.050781 C 33.832031 106.085938 33.511719 105.445312 32.867188 104.804688 C 32.222656 104.160156 31.578125 103.839844 30.609375 103.839844 C 29.644531 103.839844 29 104.160156 28.355469 104.804688 L 27.390625 105.765625 C 27.066406 106.085938 25.777344 106.730469 25.132812 106.730469 L 24.488281 106.730469 C 24.503906 105.820312 24.574219 104.234375 24.8125 103.519531 C 25.132812 102.554688 25.777344 101.59375 26.421875 100.953125 C 27.066406 100.308594 29 99.027344 29 99.027344 L 29 98.703125 C 29 98.703125 25.777344 99.347656 25.132812 99.347656 L 23.199219 99.347656 C 22.554688 99.347656 19.332031 98.703125 19.332031 98.703125 L 19.332031 99.027344 C 19.332031 99.027344 21.265625 100.308594 21.910156 100.953125 C 22.554688 101.59375 23.199219 102.554688 23.523438 103.519531 C 23.761719 104.234375 23.828125 105.820312 23.84375 106.730469 L 23.199219 106.730469 C 22.554688 106.730469 21.265625 106.085938 20.945312 105.765625 L 19.976562 104.804688 C 19.332031 104.160156 18.6875 103.839844 17.722656 103.839844 C 16.753906 103.839844 16.109375 104.160156 15.46875 104.804688 C 14.824219 105.445312 14.5 106.085938 14.5 107.050781 C 14.5 108.011719 14.824219 108.65625 15.46875 109.296875 C 16.113281 109.9375 16.753906 110.257812 17.722656 110.257812 C 18.6875 110.257812 19.332031 109.9375 19.976562 109.296875 L 20.945312 108.332031 C 21.265625 108.011719 22.554688 107.371094 23.199219 107.371094 L 23.84375 107.371094 C 23.84375 107.816406 23.84375 107.691406 23.84375 108.332031 C 23.84375 108.976562 23.523438 110.257812 23.199219 110.902344 C 22.878906 111.542969 22.554688 111.863281 21.910156 112.507812 C 21.269531 113.144531 20.945312 113.789062 20.945312 114.753906 C 20.945312 115.714844 21.265625 116.359375 21.910156 117 C 22.554688 117.640625 23.199219 117.964844 24.167969 117.964844 "/>
<path style=" stroke:none;fill-rule:nonzero;fill:rgb(0%,0%,0%);fill-opacity:1;" d="M 62.832031 89.074219 C 63.800781 89.09375 64.445312 88.753906 65.089844 88.109375 C 65.734375 87.46875 66.054688 86.828125 66.054688 85.863281 C 66.054688 84.902344 65.6875 84.332031 65.089844 83.617188 C 64.515625 82.933594 64.121094 82.65625 63.800781 82.011719 C 63.476562 81.371094 63.15625 80.085938 63.15625 79.445312 C 63.15625 78.804688 63.15625 78.867188 63.15625 78.480469 L 63.800781 78.480469 C 64.445312 78.480469 65.734375 79.125 66.054688 79.445312 L 67.023438 80.40625 C 67.667969 81.050781 68.3125 81.371094 69.277344 81.371094 C 70.246094 81.371094 70.890625 81.050781 71.53125 80.40625 C 72.175781 79.765625 72.5 79.125 72.5 78.160156 C 72.5 77.199219 72.175781 76.554688 71.53125 75.914062 C 70.886719 75.273438 70.246094 74.953125 69.277344 74.953125 C 68.3125 74.953125 67.667969 75.273438 67.023438 75.914062 L 66.054688 76.878906 C 65.734375 77.199219 64.445312 77.839844 63.800781 77.839844 L 63.15625 77.839844 C 63.171875 76.929688 63.238281 75.34375 63.476562 74.628906 C 63.800781 73.667969 64.445312 72.703125 65.089844 72.0625 C 65.734375 71.421875 67.667969 70.136719 67.667969 70.136719 L 67.667969 69.816406 C 67.667969 69.816406 64.445312 70.457031 63.800781 70.457031 L 61.867188 70.457031 C 61.222656 70.457031 58 69.816406 58 69.816406 L 58 70.136719 C 58 70.136719 59.933594 71.421875 60.578125 72.0625 C 61.222656 72.703125 61.867188 73.667969 62.1875 74.628906 C 62.429688 75.34375 62.496094 76.929688 62.511719 77.839844 L 61.867188 77.839844 C 61.222656 77.839844 59.933594 77.199219 59.609375 76.878906 L 58.644531 75.914062 C 58 75.273438 57.355469 74.953125 56.390625 74.953125 C 55.421875 74.953125 54.777344 75.273438 54.132812 75.914062 C 53.488281 76.554688 53.167969 77.199219 53.167969 78.160156 C 53.167969 79.125 53.488281 79.765625 54.132812 80.40625 C 54.777344 81.050781 55.421875 81.371094 56.390625 81.371094 C 57.355469 81.371094 58 81.050781 58.644531 80.40625 L 59.609375 79.445312 C 59.933594 79.125 61.222656 78.480469 61.867188 78.480469 L 62.511719 78.480469 C 62.511719 78.929688 62.511719 78.804688 62.511719 79.445312 C 62.511719 80.085938 62.1875 81.371094 61.867188 82.011719 C 61.542969 82.65625 61.222656 82.976562 60.578125 83.617188 C 59.9375 84.257812 59.609375 84.902344 59.609375 85.863281 C 59.609375 86.828125 59.933594 87.46875 60.578125 88.109375 C 61.222656 88.753906 61.867188 89.074219 62.832031 89.074219 "/>
<path style=" stroke:none;fill-rule:nonzero;fill:rgb(0%,0%,0%);fill-opacity:1;" d="M 24.167969 89.074219 C 25.132812 89.09375 25.777344 88.753906 26.421875 88.109375 C 27.066406 87.46875 27.390625 86.828125 27.390625 85.863281 C 27.390625 84.902344 27.023438 84.332031 26.421875 83.617188 C 25.847656 82.933594 25.457031 82.65625 25.132812 82.011719 C 24.8125 81.371094 24.488281 80.085938 24.488281 79.445312 C 24.488281 78.804688 24.488281 78.867188 24.488281 78.480469 L 25.132812 78.480469 C 25.777344 78.480469 27.066406 79.125 27.390625 79.445312 L 28.355469 80.40625 C 29 81.050781 29.644531 81.371094 30.609375 81.371094 C 31.578125 81.371094 32.222656 81.050781 32.867188 80.40625 C 33.511719 79.765625 33.832031 79.125 33.832031 78.160156 C 33.832031 77.199219 33.511719 76.554688 32.867188 75.914062 C 32.222656 75.273438 31.578125 74.953125 30.609375 74.953125 C 29.644531 74.953125 29 75.273438 28.355469 75.914062 L 27.390625 76.878906 C 27.066406 77.199219 25.777344 77.839844 25.132812 77.839844 L 24.488281 77.839844 C 24.503906 76.929688 24.574219 75.34375 24.8125 74.628906 C 25.132812 73.667969 25.777344 72.703125 26.421875 72.0625 C 27.066406 71.421875 29 70.136719 29 70.136719 L 29 69.816406 C 29 69.816406 25.777344 70.457031 25.132812 70.457031 L 23.199219 70.457031 C 22.554688 70.457031 19.332031 69.816406 19.332031 69.816406 L 19.332031 70.136719 C 19.332031 70.136719 21.265625 71.421875 21.910156 72.0625 C 22.554688 72.703125 23.199219 73.667969 23.523438 74.628906 C 23.761719 75.34375 23.828125 76.929688 23.84375 77.839844 L 23.199219 77.839844 C 22.554688 77.839844 21.265625 77.199219 20.945312 76.878906 L 19.976562 75.914062 C 19.332031 75.273438 18.6875 74.953125 17.722656 74.953125 C 16.753906 74.953125 16.109375 75.273438 15.46875 75.914062 C 14.824219 76.554688 14.5 77.199219 14.5 78.160156 C 14.5 79.125 14.824219 79.765625 15.46875 80.40625 C 16.113281 81.050781 16.753906 81.371094 17.722656 81.371094 C 18.6875 81.371094 19.332031 81.050781 19.976562 80.40625 L 20.945312 79.445312 C 21.265625 79.125 22.554688 78.480469 23.199219 78.480469 L 23.84375 78.480469 C 23.84375 78.929688 23.84375 78.804688 23.84375 79.445312 C 23.84375 80.085938 23.523438 81.371094 23.199219 82.011719 C 22.878906 82.65625 22.554688 82.976562 21.910156 83.617188 C 21.269531 84.257812 20.945312 84.902344 20.945312 85.863281 C 20.945312 86.828125 21.265625 87.46875 21.910156 88.109375 C 22.554688 88.753906 23.199219 89.074219 24.167969 89.074219 "/>
<path style=" stroke:none;fill-rule:nonzero;fill:rgb(0%,0%,0%);fill-opacity:1;" d="M 7.25 21.667969 C 6.886719 21.660156 6.644531 21.785156 6.402344 22.027344 C 6.164062 22.269531 6.042969 22.507812 6.042969 22.871094 C 6.042969 23.230469 6.179688 23.445312 6.402344 23.714844 C 6.621094 23.96875 6.765625 24.074219 6.886719 24.316406 C 7.007812 24.554688 7.128906 25.035156 7.128906 25.277344 C 7.128906 25.519531 7.128906 25.496094 7.128906 25.640625 L 6.886719 25.640625 C 6.644531 25.640625 6.164062 25.398438 6.042969 25.277344 L 5.679688 24.917969 C 5.4375 24.675781 5.195312 24.554688 4.832031 24.554688 C 4.472656 24.554688 4.230469 24.675781 3.988281 24.917969 C 3.746094 25.15625 3.625 25.398438 3.625 25.757812 C 3.625 26.121094 3.746094 26.359375 3.988281 26.601562 C 4.230469 26.84375 4.472656 26.964844 4.832031 26.964844 C 5.195312 26.964844 5.4375 26.84375 5.679688 26.601562 L 6.042969 26.242188 C 6.164062 26.121094 6.644531 25.878906 6.886719 25.878906 L 7.128906 25.878906 C 7.125 26.21875 7.097656 26.816406 7.007812 27.082031 C 6.886719 27.445312 6.644531 27.804688 6.402344 28.046875 C 6.164062 28.285156 5.4375 28.769531 5.4375 28.769531 L 5.4375 28.890625 C 5.4375 28.890625 6.644531 28.648438 6.886719 28.648438 L 7.613281 28.648438 C 7.855469 28.648438 9.0625 28.890625 9.0625 28.890625 L 9.0625 28.769531 C 9.0625 28.769531 8.335938 28.285156 8.097656 28.046875 C 7.855469 27.804688 7.613281 27.445312 7.492188 27.082031 C 7.402344 26.816406 7.375 26.21875 7.371094 25.878906 L 7.613281 25.878906 C 7.855469 25.878906 8.335938 26.121094 8.457031 26.242188 L 8.820312 26.601562 C 9.0625 26.84375 9.304688 26.964844 9.667969 26.964844 C 10.027344 26.964844 10.269531 26.84375 10.511719 26.601562 C 10.753906 26.359375 10.875 26.121094 10.875 25.757812 C 10.875 25.398438 10.753906 25.15625 10.511719 24.917969 C 10.269531 24.675781 10.027344 24.554688 9.667969 24.554688 C 9.304688 24.554688 9.0625 24.675781 8.820312 24.917969 L 8.457031 25.277344 C 8.335938 25.398438 7.855469 25.640625 7.613281 25.640625 L 7.371094 25.640625 C 7.371094 25.472656 7.371094 25.519531 7.371094 25.277344 C 7.371094 25.035156 7.492188 24.554688 7.613281 24.316406 C 7.734375 24.074219 7.855469 23.953125 8.097656 23.714844 C 8.335938 23.472656 8.457031 23.230469 8.457031 22.871094 C 8.457031 22.507812 8.335938 22.269531 8.097656 22.027344 C 7.855469 21.785156 7.613281 21.667969 7.25 21.667969 "/>
<path style=" stroke:none;fill-rule:nonzero;fill:rgb(0%,0%,0%);fill-opacity:1;" d="M 79.75 108.332031 C 80.113281 108.339844 80.355469 108.214844 80.597656 107.972656 C 80.835938 107.730469 80.957031 107.492188 80.957031 107.128906 C 80.957031 106.769531 80.820312 106.554688 80.597656 106.285156 C 80.378906 106.03125 80.234375 105.925781 80.113281 105.683594 C 79.992188 105.445312 79.871094 104.964844 79.871094 104.722656 C 79.871094 104.480469 79.871094 104.503906 79.871094 104.359375 L 80.113281 104.359375 C 80.355469 104.359375 80.835938 104.601562 80.957031 104.722656 L 81.320312 105.082031 C 81.5625 105.324219 81.804688 105.445312 82.167969 105.445312 C 82.527344 105.445312 82.769531 105.324219 83.011719 105.082031 C 83.253906 104.84375 83.375 104.601562 83.375 104.242188 C 83.375 103.878906 83.253906 103.640625 83.011719 103.398438 C 82.769531 103.15625 82.527344 103.035156 82.167969 103.035156 C 81.804688 103.035156 81.5625 103.15625 81.320312 103.398438 L 80.957031 103.757812 C 80.835938 103.878906 80.355469 104.121094 80.113281 104.121094 L 79.871094 104.121094 C 79.875 103.78125 79.902344 103.183594 79.992188 102.917969 C 80.113281 102.554688 80.355469 102.195312 80.597656 101.953125 C 80.835938 101.714844 81.5625 101.230469 81.5625 101.230469 L 81.5625 101.109375 C 81.5625 101.109375 80.355469 101.351562 80.113281 101.351562 L 79.386719 101.351562 C 79.144531 101.351562 77.9375 101.109375 77.9375 101.109375 L 77.9375 101.230469 C 77.9375 101.230469 78.664062 101.714844 78.902344 101.953125 C 79.144531 102.195312 79.386719 102.554688 79.507812 102.917969 C 79.597656 103.183594 79.625 103.78125 79.628906 104.121094 L 79.386719 104.121094 C 79.144531 104.121094 78.664062 103.878906 78.542969 103.757812 L 78.179688 103.398438 C 77.9375 103.15625 77.695312 103.035156 77.332031 103.035156 C 76.972656 103.035156 76.730469 103.15625 76.488281 103.398438 C 76.246094 103.640625 76.125 103.878906 76.125 104.242188 C 76.125 104.601562 76.246094 104.84375 76.488281 105.082031 C 76.730469 105.324219 76.972656 105.445312 77.332031 105.445312 C 77.695312 105.445312 77.9375 105.324219 78.179688 105.082031 L 78.542969 104.722656 C 78.664062 104.601562 79.144531 104.359375 79.386719 104.359375 L 79.628906 104.359375 C 79.628906 104.527344 79.628906 104.480469 79.628906 104.722656 C 79.628906 104.964844 79.507812 105.445312 79.386719 105.683594 C 79.265625 105.925781 79.144531 106.046875 78.902344 106.285156 C 78.664062 106.527344 78.542969 106.769531 78.542969 107.128906 C 78.542969 107.492188 78.664062 107.730469 78.902344 107.972656 C 79.144531 108.214844 79.386719 108.332031 79.75 108.332031 "/>
</g>
</svg>
