<?xml version="1.0" encoding="UTF-8"?>
<svg xmlns="http://www.w3.org/2000/svg" xmlns:xlink="http://www.w3.org/1999/xlink" width="87pt" height="130pt" viewBox="0 0 87 130" version="1.1">
<g id="surface1">
<path style="fill-rule:nonzero;fill:rgb(100%,100%,100%);fill-opacity:1;stroke-width:1;stroke-linecap:butt;stroke-linejoin:miter;stroke:rgb(0%,0%,0%);stroke-opacity:1;stroke-miterlimit:4;" d="M 840.436422 -657.136995 L 1139.563578 -657.136995 C 1156.099138 -657.136995 1169.498922 -643.734351 1169.498922 -627.200096 L 1169.498922 -148.079904 C 1169.498922 -131.545649 1156.099138 -118.143005 1139.563578 -118.143005 L 840.436422 -118.143005 C 823.900862 -118.143005 810.501078 -131.545649 810.501078 -148.079904 L 810.501078 -627.200096 C 810.501078 -643.734351 823.900862 -657.136995 840.436422 -657.136995 Z M 840.436422 -657.136995 " transform="matrix(0.241667,0,0,0.240741,-195.75,158.320741)"/>
<path style=" stroke:none;fill-rule:nonzero;fill:rgb(0%,0%,0%);fill-opacity:1;" d="M 7.25 7.222656 C 5.910156 7.222656 4.832031 8.296875 4.832031 9.628906 L 4.832031 10.832031 L 6.042969 10.832031 L 6.042969 9.628906 C 6.042969 8.960938 6.582031 8.425781 7.25 8.425781 C 7.917969 8.425781 8.457031 8.960938 8.457031 9.628906 L 8.457031 10.832031 C 8.457031 11.5 7.917969 12.035156 7.25 12.035156 L 6.042969 12.035156 L 6.042969 13.242188 L 7.25 13.242188 C 7.917969 13.242188 8.457031 13.777344 8.457031 14.445312 L 8.457031 16.851562 C 8.457031 17.519531 7.917969 18.054688 7.25 18.054688 C 6.582031 18.054688 6.042969 17.519531 6.042969 16.851562 L 6.042969 15.648438 L 4.832031 15.648438 L 4.832031 16.851562 C 4.832031 18.1875 5.910156 19.257812 7.25 19.257812 C 8.589844 19.257812 9.667969 18.1875 9.667969 16.851562 L 9.667969 14.445312 C 9.667969 13.722656 9.347656 13.078125 8.84375 12.640625 C 9.347656 12.199219 9.667969 11.554688 9.667969 10.832031 L 9.667969 9.628906 C 9.667969 8.296875 8.589844 7.222656 7.25 7.222656 "/>
<path style=" stroke:none;fill-rule:nonzero;fill:rgb(0%,0%,0%);fill-opacity:1;" d="M 79.75 122.777344 C 81.089844 122.777344 82.167969 121.703125 82.167969 120.371094 L 82.167969 119.167969 L 80.957031 119.167969 L 80.957031 120.371094 C 80.957031 121.039062 80.417969 121.574219 79.75 121.574219 C 79.082031 121.574219 78.542969 121.039062 78.542969 120.371094 L 78.542969 119.167969 C 78.542969 118.5 79.082031 117.964844 79.75 117.964844 L 80.957031 117.964844 L 80.957031 116.757812 L 79.75 116.757812 C 79.082031 116.757812 78.542969 116.222656 78.542969 115.554688 L 78.542969 113.148438 C 78.542969 112.480469 79.082031 111.945312 79.75 111.945312 C 80.417969 111.945312 80.957031 112.480469 80.957031 113.148438 L 80.957031 114.351562 L 82.167969 114.351562 L 82.167969 113.148438 C 82.167969 111.8125 81.089844 110.742188 79.75 110.742188 C 78.410156 110.742188 77.332031 111.8125 77.332031 113.148438 L 77.332031 115.554688 C 77.332031 116.277344 77.652344 116.921875 78.15625 117.359375 C 77.652344 117.800781 77.332031 118.445312 77.332031 119.167969 L 77.332031 120.371094 C 77.332031 121.703125 78.410156 122.777344 79.75 122.777344 "/>
<path style=" stroke:none;fill-rule:nonzero;fill:rgb(0%,0%,0%);fill-opacity:1;" d="M 43.5 12.039062 C 42.535156 12.019531 41.890625 12.359375 41.246094 13.003906 C 40.601562 13.644531 40.277344 14.285156 40.277344 15.25 C 40.277344 16.210938 40.644531 16.785156 41.246094 17.496094 C 41.820312 18.179688 42.210938 18.460938 42.535156 19.101562 C 42.855469 19.742188 43.179688 21.027344 43.179688 21.667969 C 43.179688 22.3125 43.179688 22.246094 43.179688 22.632812 L 42.535156 22.632812 C 41.890625 22.632812 40.601562 21.988281 40.277344 21.667969 L 39.3125 20.707031 C 38.667969 20.0625 38.023438 19.742188 37.054688 19.742188 C 36.089844 19.742188 35.445312 20.0625 34.800781 20.707031 C 34.15625 21.347656 33.832031 21.988281 33.832031 22.953125 C 33.832031 23.914062 34.15625 24.558594 34.800781 25.199219 C 35.445312 25.839844 36.089844 26.164062 37.054688 26.164062 C 38.023438 26.164062 38.667969 25.839844 39.3125 25.199219 L 40.277344 24.238281 C 40.601562 23.914062 41.890625 23.273438 42.535156 23.273438 L 43.179688 23.273438 C 43.160156 24.183594 43.09375 25.769531 42.855469 26.484375 C 42.535156 27.445312 41.890625 28.410156 41.246094 29.050781 C 40.601562 29.691406 38.667969 30.976562 38.667969 30.976562 L 38.667969 31.296875 C 38.667969 31.296875 41.890625 30.65625 42.535156 30.65625 L 44.464844 30.65625 C 45.109375 30.65625 48.332031 31.296875 48.332031 31.296875 L 48.332031 30.976562 C 48.332031 30.976562 46.398438 29.691406 45.753906 29.050781 C 45.109375 28.410156 44.464844 27.445312 44.144531 26.484375 C 43.90625 25.769531 43.839844 24.183594 43.820312 23.273438 L 44.464844 23.273438 C 45.109375 23.273438 46.398438 23.914062 46.722656 24.238281 L 47.6875 25.199219 C 48.332031 25.839844 48.976562 26.164062 49.945312 26.164062 C 50.910156 26.164062 51.554688 25.839844 52.199219 25.199219 C 52.84375 24.558594 53.167969 23.914062 53.167969 22.953125 C 53.167969 21.988281 52.84375 21.347656 52.199219 20.707031 C 51.554688 20.0625 50.910156 19.742188 49.945312 19.742188 C 48.976562 19.742188 48.332031 20.0625 47.6875 20.707031 L 46.722656 21.667969 C 46.398438 21.988281 45.109375 22.632812 44.464844 22.632812 L 43.820312 22.632812 C 43.820312 22.183594 43.820312 22.3125 43.820312 21.667969 C 43.820312 21.027344 44.144531 19.742188 44.464844 19.101562 C 44.789062 18.457031 45.109375 18.136719 45.753906 17.496094 C 46.398438 16.855469 46.722656 16.210938 46.722656 15.25 C 46.722656 14.285156 46.398438 13.644531 45.753906 13.003906 C 45.109375 12.359375 44.464844 12.039062 43.5 12.039062 "/>
<path style=" stroke:none;fill-rule:nonzero;fill:rgb(0%,0%,0%);fill-opacity:1;" d="M 43.5 55.371094 C 42.535156 55.351562 41.890625 55.695312 41.246094 56.335938 C 40.601562 56.976562 40.277344 57.621094 40.277344 58.582031 C 40.277344 59.546875 40.644531 60.117188 41.246094 60.828125 C 41.820312 61.511719 42.210938 61.792969 42.535156 62.433594 C 42.855469 63.078125 43.179688 64.359375 43.179688 65 C 43.179688 65.644531 43.179688 65.578125 43.179688 65.964844 L 42.535156 65.964844 C 41.890625 65.964844 40.601562 65.324219 40.277344 65 L 39.3125 64.039062 C 38.667969 63.398438 38.023438 63.074219 37.054688 63.074219 C 36.089844 63.074219 35.445312 63.398438 34.800781 64.039062 C 34.15625 64.679688 33.832031 65.324219 33.832031 66.285156 C 33.832031 67.25 34.15625 67.890625 34.800781 68.53125 C 35.445312 69.175781 36.089844 69.496094 37.054688 69.496094 C 38.023438 69.496094 38.667969 69.175781 39.3125 68.53125 L 40.277344 67.570312 C 40.601562 67.25 41.890625 66.605469 42.535156 66.605469 L 43.179688 66.605469 C 43.160156 67.515625 43.09375 69.101562 42.855469 69.816406 C 42.535156 70.78125 41.890625 71.742188 41.246094 72.382812 C 40.601562 73.027344 38.667969 74.308594 38.667969 74.308594 L 38.667969 74.632812 C 38.667969 74.632812 41.890625 73.988281 42.535156 73.988281 L 44.464844 73.988281 C 45.109375 73.988281 48.332031 74.632812 48.332031 74.632812 L 48.332031 74.308594 C 48.332031 74.308594 46.398438 73.027344 45.753906 72.382812 C 45.109375 71.742188 44.464844 70.78125 44.144531 69.816406 C 43.90625 69.101562 43.839844 67.515625 43.820312 66.605469 L 44.464844 66.605469 C 45.109375 66.605469 46.398438 67.25 46.722656 67.570312 L 47.6875 68.53125 C 48.332031 69.175781 48.976562 69.496094 49.945312 69.496094 C 50.910156 69.496094 51.554688 69.175781 52.199219 68.53125 C 52.84375 67.890625 53.167969 67.25 53.167969 66.285156 C 53.167969 65.324219 52.84375 64.679688 52.199219 64.039062 C 51.554688 63.398438 50.910156 63.074219 49.945312 63.074219 C 48.976562 63.074219 48.332031 63.398438 47.6875 64.039062 L 46.722656 65 C 46.398438 65.324219 45.109375 65.964844 44.464844 65.964844 L 43.820312 65.964844 C 43.820312 65.519531 43.820312 65.644531 43.820312 65 C 43.820312 64.359375 44.144531 63.074219 44.464844 62.433594 C 44.789062 61.792969 45.109375 61.472656 45.753906 60.828125 C 46.398438 60.191406 46.722656 59.546875 46.722656 58.582031 C 46.722656 57.621094 46.398438 56.976562 45.753906 56.335938 C 45.109375 55.695312 44.464844 55.371094 43.5 55.371094 "/>
<path style=" stroke:none;fill-rule:nonzero;fill:rgb(0%,0%,0%);fill-opacity:1;" d="M 43.5 117.964844 C 44.464844 117.984375 45.109375 117.640625 45.753906 117 C 46.398438 116.359375 46.722656 115.714844 46.722656 114.753906 C 46.722656 113.789062 46.355469 113.21875 45.753906 112.507812 C 45.179688 111.824219 44.789062 111.542969 44.464844 110.902344 C 44.144531 110.257812 43.820312 108.976562 43.820312 108.332031 C 43.820312 107.691406 43.820312 107.757812 43.820312 107.371094 L 44.464844 107.371094 C 45.109375 107.371094 46.398438 108.011719 46.722656 108.332031 L 47.6875 109.296875 C 48.332031 109.9375 48.976562 110.257812 49.945312 110.257812 C 50.910156 110.257812 51.554688 109.9375 52.199219 109.296875 C 52.84375 108.65625 53.167969 108.011719 53.167969 107.050781 C 53.167969 106.085938 52.84375 105.445312 52.199219 104.804688 C 51.554688 104.160156 50.910156 103.839844 49.945312 103.839844 C 48.976562 103.839844 48.332031 104.160156 47.6875 104.804688 L 46.722656 105.765625 C 46.398438 106.085938 45.109375 106.730469 44.464844 106.730469 L 43.820312 106.730469 C 43.839844 105.820312 43.90625 104.234375 44.144531 103.519531 C 44.464844 102.554688 45.109375 101.59375 45.753906 100.953125 C 46.398438 100.308594 48.332031 99.027344 48.332031 99.027344 L 48.332031 98.703125 C 48.332031 98.703125 45.109375 99.347656 44.464844 99.347656 L 42.535156 99.347656 C 41.890625 99.347656 38.667969 98.703125 38.667969 98.703125 L 38.667969 99.027344 C 38.667969 99.027344 40.601562 100.308594 41.246094 100.953125 C 41.890625 101.59375 42.535156 102.554688 42.855469 103.519531 C 43.09375 104.234375 43.160156 105.820312 43.179688 106.730469 L 42.535156 106.730469 C 41.890625 106.730469 40.601562 106.085938 40.277344 105.765625 L 39.3125 104.804688 C 38.667969 104.160156 38.023438 103.839844 37.054688 103.839844 C 36.089844 103.839844 35.445312 104.160156 34.800781 104.804688 C 34.15625 105.445312 33.832031 106.085938 33.832031 107.050781 C 33.832031 108.011719 34.15625 108.65625 34.800781 109.296875 C 35.445312 109.9375 36.089844 110.257812 37.054688 110.257812 C 38.023438 110.257812 38.667969 109.9375 39.3125 109.296875 L 40.277344 108.332031 C 40.601562 108.011719 41.890625 107.371094 42.535156 107.371094 L 43.179688 107.371094 C 43.179688 107.816406 43.179688 107.691406 43.179688 108.332031 C 43.179688 108.976562 42.855469 110.257812 42.535156 110.902344 C 42.210938 111.542969 41.890625 111.863281 41.246094 112.507812 C 40.601562 113.144531 40.277344 113.789062 40.277344 114.753906 C 40.277344 115.714844 40.601562 116.359375 41.246094 117 C 41.890625 117.640625 42.535156 117.964844 43.5 117.964844 "/>
<path style=" stroke:none;fill-rule:nonzero;fill:rgb(0%,0%,0%);fill-opacity:1;" d="M 7.25 21.667969 C 6.886719 21.660156 6.644531 21.785156 6.402344 22.027344 C 6.164062 22.269531 6.042969 22.507812 6.042969 22.871094 C 6.042969 23.230469 6.179688 23.445312 6.402344 23.714844 C 6.621094 23.96875 6.765625 24.074219 6.886719 24.316406 C 7.007812 24.554688 7.128906 25.035156 7.128906 25.277344 C 7.128906 25.519531 7.128906 25.496094 7.128906 25.640625 L 6.886719 25.640625 C 6.644531 25.640625 6.164062 25.398438 6.042969 25.277344 L 5.679688 24.917969 C 5.4375 24.675781 5.195312 24.554688 4.832031 24.554688 C 4.472656 24.554688 4.230469 24.675781 3.988281 24.917969 C 3.746094 25.15625 3.625 25.398438 3.625 25.757812 C 3.625 26.121094 3.746094 26.359375 3.988281 26.601562 C 4.230469 26.84375 4.472656 26.964844 4.832031 26.964844 C 5.195312 26.964844 5.4375 26.84375 5.679688 26.601562 L 6.042969 26.242188 C 6.164062 26.121094 6.644531 25.878906 6.886719 25.878906 L 7.128906 25.878906 C 7.125 26.21875 7.097656 26.816406 7.007812 27.082031 C 6.886719 27.445312 6.644531 27.804688 6.402344 28.046875 C 6.164062 28.285156 5.4375 28.769531 5.4375 28.769531 L 5.4375 28.890625 C 5.4375 28.890625 6.644531 28.648438 6.886719 28.648438 L 7.613281 28.648438 C 7.855469 28.648438 9.0625 28.890625 9.0625 28.890625 L 9.0625 28.769531 C 9.0625 28.769531 8.335938 28.285156 8.097656 28.046875 C 7.855469 27.804688 7.613281 27.445312 7.492188 27.082031 C 7.402344 26.816406 7.375 26.21875 7.371094 25.878906 L 7.613281 25.878906 C 7.855469 25.878906 8.335938 26.121094 8.457031 26.242188 L 8.820312 26.601562 C 9.0625 26.84375 9.304688 26.964844 9.667969 26.964844 C 10.027344 26.964844 10.269531 26.84375 10.511719 26.601562 C 10.753906 26.359375 10.875 26.121094 10.875 25.757812 C 10.875 25.398438 10.753906 25.15625 10.511719 24.917969 C 10.269531 24.675781 10.027344 24.554688 9.667969 24.554688 C 9.304688 24.554688 9.0625 24.675781 8.820312 24.917969 L 8.457031 25.277344 C 8.335938 25.398438 7.855469 25.640625 7.613281 25.640625 L 7.371094 25.640625 C 7.371094 25.472656 7.371094 25.519531 7.371094 25.277344 C 7.371094 25.035156 7.492188 24.554688 7.613281 24.316406 C 7.734375 24.074219 7.855469 23.953125 8.097656 23.714844 C 8.335938 23.472656 8.457031 23.230469 8.457031 22.871094 C 8.457031 22.507812 8.335938 22.269531 8.097656 22.027344 C 7.855469 21.785156 7.613281 21.667969 7.25 21.667969 "/>
<path style=" stroke:none;fill-rule:nonzero;fill:rgb(0%,0%,0%);fill-opacity:1;" d="M 79.75 108.332031 C 80.113281 108.339844 80.355469 108.214844 80.597656 107.972656 C 80.835938 107.730469 80.957031 107.492188 80.957031 107.128906 C 80.957031 106.769531 80.820312 106.554688 80.597656 106.285156 C 80.378906 106.03125 80.234375 105.925781 80.113281 105.683594 C 79.992188 105.445312 79.871094 104.964844 79.871094 104.722656 C 79.871094 104.480469 79.871094 104.503906 79.871094 104.359375 L 80.113281 104.359375 C 80.355469 104.359375 80.835938 104.601562 80.957031 104.722656 L 81.320312 105.082031 C 81.5625 105.324219 81.804688 105.445312 82.167969 105.445312 C 82.527344 105.445312 82.769531 105.324219 83.011719 105.082031 C 83.253906 104.84375 83.375 104.601562 83.375 104.242188 C 83.375 103.878906 83.253906 103.640625 83.011719 103.398438 C 82.769531 103.15625 82.527344 103.035156 82.167969 103.035156 C 81.804688 103.035156 81.5625 103.15625 81.320312 103.398438 L 80.957031 103.757812 C 80.835938 103.878906 80.355469 104.121094 80.113281 104.121094 L 79.871094 104.121094 C 79.875 103.78125 79.902344 103.183594 79.992188 102.917969 C 80.113281 102.554688 80.355469 102.195312 80.597656 101.953125 C 80.835938 101.714844 81.5625 101.230469 81.5625 101.230469 L 81.5625 101.109375 C 81.5625 101.109375 80.355469 101.351562 80.113281 101.351562 L 79.386719 101.351562 C 79.144531 101.351562 77.9375 101.109375 77.9375 101.109375 L 77.9375 101.230469 C 77.9375 101.230469 78.664062 101.714844 78.902344 101.953125 C 79.144531 102.195312 79.386719 102.554688 79.507812 102.917969 C 79.597656 103.183594 79.625 103.78125 79.628906 104.121094 L 79.386719 104.121094 C 79.144531 104.121094 78.664062 103.878906 78.542969 103.757812 L 78.179688 103.398438 C 77.9375 103.15625 77.695312 103.035156 77.332031 103.035156 C 76.972656 103.035156 76.730469 103.15625 76.488281 103.398438 C 76.246094 103.640625 76.125 103.878906 76.125 104.242188 C 76.125 104.601562 76.246094 104.84375 76.488281 105.082031 C 76.730469 105.324219 76.972656 105.445312 77.332031 105.445312 C 77.695312 105.445312 77.9375 105.324219 78.179688 105.082031 L 78.542969 104.722656 C 78.664062 104.601562 79.144531 104.359375 79.386719 104.359375 L 79.628906 104.359375 C 79.628906 104.527344 79.628906 104.480469 79.628906 104.722656 C 79.628906 104.964844 79.507812 105.445312 79.386719 105.683594 C 79.265625 105.925781 79.144531 106.046875 78.902344 106.285156 C 78.664062 106.527344 78.542969 106.769531 78.542969 107.128906 C 78.542969 107.492188 78.664062 107.730469 78.902344 107.972656 C 79.144531 108.214844 79.386719 108.332031 79.75 108.332031 "/>
</g>
</svg>
