<?xml version="1.0" encoding="UTF-8"?>
<svg xmlns="http://www.w3.org/2000/svg" xmlns:xlink="http://www.w3.org/1999/xlink" width="90px" height="130px" viewBox="0 0 90 130" version="1.1">
<g id="surface1">
<path style="fill-rule:nonzero;fill:rgb(100%,100%,100%);fill-opacity:1;stroke-width:1;stroke-linecap:butt;stroke-linejoin:miter;stroke:rgb(0%,0%,0%);stroke-opacity:1;stroke-miterlimit:4;" d="M 30.4375 512.86299 L 329.5625 512.86299 C 346.09375 512.86299 359.5 526.265634 359.5 542.799889 L 359.5 1021.920082 C 359.5 1038.454336 346.09375 1051.856981 329.5625 1051.856981 L 30.4375 1051.856981 C 13.90625 1051.856981 0.5 1038.454336 0.5 1021.920082 L 0.5 542.799889 C 0.5 526.265634 13.90625 512.86299 30.4375 512.86299 Z M 30.4375 512.86299 " transform="matrix(0.25,0,0,0.240741,0,-123.345922)"/>
<path style=" stroke:none;fill-rule:nonzero;fill:rgb(0%,0%,0%);fill-opacity:1;" d="M 3.75 7.222656 L 2.5 8.90625 L 2.5 10.59375 L 3.75 8.90625 L 3.75 19.257812 L 5 19.257812 L 5 7.222656 L 3.75 7.222656 "/>
<path style=" stroke:none;fill-rule:nonzero;fill:rgb(0%,0%,0%);fill-opacity:1;" d="M 8.75 7.222656 C 7.363281 7.222656 6.25 8.296875 6.25 9.628906 L 6.25 16.851562 C 6.25 18.1875 7.363281 19.257812 8.75 19.257812 C 10.136719 19.257812 11.25 18.1875 11.25 16.851562 L 11.25 9.628906 C 11.25 8.296875 10.136719 7.222656 8.75 7.222656 M 8.75 8.425781 C 9.441406 8.425781 10 8.964844 10 9.628906 L 10 16.851562 C 10 17.519531 9.441406 18.054688 8.75 18.054688 C 8.058594 18.054688 7.5 17.519531 7.5 16.851562 L 7.5 9.628906 C 7.5 8.964844 8.058594 8.425781 8.75 8.425781 "/>
<path style=" stroke:none;fill-rule:nonzero;fill:rgb(0%,0%,0%);fill-opacity:1;" d="M 86.25 122.777344 L 87.5 121.09375 L 87.5 119.40625 L 86.25 121.09375 L 86.25 110.742188 L 85 110.742188 L 85 122.777344 L 86.25 122.777344 "/>
<path style=" stroke:none;fill-rule:nonzero;fill:rgb(0%,0%,0%);fill-opacity:1;" d="M 81.25 122.777344 C 82.636719 122.777344 83.75 121.703125 83.75 120.371094 L 83.75 113.148438 C 83.75 111.8125 82.636719 110.742188 81.25 110.742188 C 79.863281 110.742188 78.75 111.8125 78.75 113.148438 L 78.75 120.371094 C 78.75 121.703125 79.863281 122.777344 81.25 122.777344 M 81.25 121.574219 C 80.558594 121.574219 80 121.039062 80 120.371094 L 80 113.148438 C 80 112.480469 80.558594 111.945312 81.25 111.945312 C 81.941406 111.945312 82.5 112.480469 82.5 113.148438 L 82.5 120.371094 C 82.5 121.039062 81.941406 121.574219 81.25 121.574219 "/>
<path style=" stroke:none;fill-rule:nonzero;fill:rgb(0%,0%,0%);fill-opacity:1;" d="M 25 12.039062 C 24 12.019531 23.332031 12.359375 22.667969 13.003906 C 22 13.644531 21.667969 14.285156 21.667969 15.25 C 21.667969 16.210938 22.046875 16.785156 22.667969 17.496094 C 23.261719 18.179688 23.667969 18.460938 24 19.101562 C 24.332031 19.742188 24.667969 21.027344 24.667969 21.667969 C 24.667969 22.3125 24.667969 22.246094 24.667969 22.632812 L 24 22.632812 C 23.332031 22.632812 22 21.988281 21.667969 21.667969 L 20.667969 20.707031 C 20 20.0625 19.332031 19.742188 18.332031 19.742188 C 17.332031 19.742188 16.667969 20.0625 16 20.707031 C 15.332031 21.347656 15 21.988281 15 22.953125 C 15 23.914062 15.332031 24.558594 16 25.199219 C 16.667969 25.839844 17.332031 26.164062 18.332031 26.164062 C 19.332031 26.164062 20 25.839844 20.667969 25.199219 L 21.667969 24.238281 C 22 23.914062 23.332031 23.273438 24 23.273438 L 24.667969 23.273438 C 24.648438 24.183594 24.582031 25.769531 24.332031 26.484375 C 24 27.445312 23.332031 28.410156 22.667969 29.050781 C 22 29.691406 20 30.976562 20 30.976562 L 20 31.296875 C 20 31.296875 23.332031 30.65625 24 30.65625 L 26 30.65625 C 26.667969 30.65625 30 31.296875 30 31.296875 L 30 30.976562 C 30 30.976562 28 29.691406 27.332031 29.050781 C 26.667969 28.410156 26 27.445312 25.667969 26.484375 C 25.417969 25.769531 25.351562 24.183594 25.332031 23.273438 L 26 23.273438 C 26.667969 23.273438 28 23.914062 28.332031 24.238281 L 29.332031 25.199219 C 30 25.839844 30.667969 26.164062 31.667969 26.164062 C 32.667969 26.164062 33.332031 25.839844 34 25.199219 C 34.667969 24.558594 35 23.914062 35 22.953125 C 35 21.988281 34.667969 21.347656 34 20.707031 C 33.332031 20.0625 32.667969 19.742188 31.667969 19.742188 C 30.667969 19.742188 30 20.0625 29.332031 20.707031 L 28.332031 21.667969 C 28 21.988281 26.667969 22.632812 26 22.632812 L 25.332031 22.632812 C 25.332031 22.183594 25.332031 22.3125 25.332031 21.667969 C 25.332031 21.027344 25.667969 19.742188 26 19.101562 C 26.332031 18.457031 26.667969 18.136719 27.332031 17.496094 C 27.996094 16.855469 28.332031 16.210938 28.332031 15.25 C 28.332031 14.285156 28 13.644531 27.332031 13.003906 C 26.667969 12.359375 26 12.039062 25 12.039062 "/>
<path style=" stroke:none;fill-rule:nonzero;fill:rgb(0%,0%,0%);fill-opacity:1;" d="M 65 12.039062 C 64 12.019531 63.332031 12.359375 62.667969 13.003906 C 62 13.644531 61.667969 14.285156 61.667969 15.25 C 61.667969 16.210938 62.046875 16.785156 62.667969 17.496094 C 63.261719 18.179688 63.667969 18.460938 64 19.101562 C 64.332031 19.742188 64.667969 21.027344 64.667969 21.667969 C 64.667969 22.3125 64.667969 22.246094 64.667969 22.632812 L 64 22.632812 C 63.332031 22.632812 62 21.988281 61.667969 21.667969 L 60.667969 20.707031 C 60 20.0625 59.332031 19.742188 58.332031 19.742188 C 57.332031 19.742188 56.667969 20.0625 56 20.707031 C 55.332031 21.347656 55 21.988281 55 22.953125 C 55 23.914062 55.332031 24.558594 56 25.199219 C 56.667969 25.839844 57.332031 26.164062 58.332031 26.164062 C 59.332031 26.164062 60 25.839844 60.667969 25.199219 L 61.667969 24.238281 C 62 23.914062 63.332031 23.273438 64 23.273438 L 64.667969 23.273438 C 64.648438 24.183594 64.582031 25.769531 64.332031 26.484375 C 64 27.445312 63.332031 28.410156 62.667969 29.050781 C 62 29.691406 60 30.976562 60 30.976562 L 60 31.296875 C 60 31.296875 63.332031 30.65625 64 30.65625 L 66 30.65625 C 66.667969 30.65625 70 31.296875 70 31.296875 L 70 30.976562 C 70 30.976562 68 29.691406 67.332031 29.050781 C 66.667969 28.410156 66 27.445312 65.667969 26.484375 C 65.417969 25.769531 65.351562 24.183594 65.332031 23.273438 L 66 23.273438 C 66.667969 23.273438 68 23.914062 68.332031 24.238281 L 69.332031 25.199219 C 70 25.839844 70.667969 26.164062 71.667969 26.164062 C 72.667969 26.164062 73.332031 25.839844 74 25.199219 C 74.667969 24.558594 75 23.914062 75 22.953125 C 75 21.988281 74.667969 21.347656 74 20.707031 C 73.332031 20.0625 72.667969 19.742188 71.667969 19.742188 C 70.667969 19.742188 70 20.0625 69.332031 20.707031 L 68.332031 21.667969 C 68 21.988281 66.667969 22.632812 66 22.632812 L 65.332031 22.632812 C 65.332031 22.183594 65.332031 22.3125 65.332031 21.667969 C 65.332031 21.027344 65.667969 19.742188 66 19.101562 C 66.332031 18.457031 66.667969 18.136719 67.332031 17.496094 C 67.996094 16.855469 68.332031 16.210938 68.332031 15.25 C 68.332031 14.285156 68 13.644531 67.332031 13.003906 C 66.667969 12.359375 66 12.039062 65 12.039062 "/>
<path style=" stroke:none;fill-rule:nonzero;fill:rgb(0%,0%,0%);fill-opacity:1;" d="M 45 26.484375 C 44 26.464844 43.332031 26.804688 42.667969 27.445312 C 42 28.089844 41.667969 28.730469 41.667969 29.695312 C 41.667969 30.65625 42.046875 31.226562 42.667969 31.941406 C 43.261719 32.621094 43.667969 32.902344 44 33.546875 C 44.332031 34.1875 44.667969 35.472656 44.667969 36.113281 C 44.667969 36.753906 44.667969 36.691406 44.667969 37.074219 L 44 37.074219 C 43.332031 37.074219 42 36.433594 41.667969 36.113281 L 40.667969 35.148438 C 40 34.507812 39.332031 34.1875 38.332031 34.1875 C 37.332031 34.1875 36.667969 34.507812 36 35.148438 C 35.332031 35.792969 35 36.433594 35 37.398438 C 35 38.359375 35.332031 39 36 39.644531 C 36.667969 40.285156 37.332031 40.605469 38.332031 40.605469 C 39.332031 40.605469 40 40.285156 40.667969 39.644531 L 41.667969 38.679688 C 42 38.359375 43.332031 37.71875 44 37.71875 L 44.667969 37.71875 C 44.648438 38.625 44.582031 40.214844 44.332031 40.925781 C 44 41.890625 43.332031 42.855469 42.667969 43.496094 C 42 44.136719 40 45.421875 40 45.421875 L 40 45.742188 C 40 45.742188 43.332031 45.101562 44 45.101562 L 46 45.101562 C 46.667969 45.101562 50 45.742188 50 45.742188 L 50 45.421875 C 50 45.421875 48 44.136719 47.332031 43.496094 C 46.667969 42.851562 46 41.890625 45.667969 40.925781 C 45.417969 40.214844 45.351562 38.625 45.332031 37.71875 L 46 37.71875 C 46.667969 37.71875 48 38.359375 48.332031 38.679688 L 49.332031 39.644531 C 50 40.285156 50.667969 40.605469 51.667969 40.605469 C 52.667969 40.605469 53.332031 40.285156 54 39.644531 C 54.667969 39 55 38.359375 55 37.398438 C 55 36.433594 54.667969 35.792969 54 35.148438 C 53.332031 34.507812 52.667969 34.1875 51.667969 34.1875 C 50.667969 34.1875 50 34.507812 49.332031 35.148438 L 48.332031 36.113281 C 48 36.433594 46.667969 37.074219 46 37.074219 L 45.332031 37.074219 C 45.332031 36.628906 45.332031 36.753906 45.332031 36.113281 C 45.332031 35.472656 45.667969 34.1875 46 33.546875 C 46.332031 32.902344 46.667969 32.582031 47.332031 31.941406 C 47.996094 31.300781 48.332031 30.65625 48.332031 29.695312 C 48.332031 28.730469 48 28.089844 47.332031 27.445312 C 46.667969 26.804688 46 26.484375 45 26.484375 "/>
<path style=" stroke:none;fill-rule:nonzero;fill:rgb(0%,0%,0%);fill-opacity:1;" d="M 25 40.929688 C 24 40.910156 23.332031 41.25 22.667969 41.890625 C 22 42.535156 21.667969 43.175781 21.667969 44.136719 C 21.667969 45.101562 22.046875 45.671875 22.667969 46.386719 C 23.261719 47.066406 23.667969 47.347656 24 47.988281 C 24.332031 48.632812 24.667969 49.914062 24.667969 50.558594 C 24.667969 51.199219 24.667969 51.136719 24.667969 51.519531 L 24 51.519531 C 23.332031 51.519531 22 50.878906 21.667969 50.558594 L 20.667969 49.59375 C 20 48.953125 19.332031 48.632812 18.332031 48.632812 C 17.332031 48.632812 16.667969 48.953125 16 49.59375 C 15.332031 50.238281 15 50.878906 15 51.839844 C 15 52.804688 15.332031 53.445312 16 54.089844 C 16.667969 54.730469 17.332031 55.050781 18.332031 55.050781 C 19.332031 55.050781 20 54.730469 20.667969 54.089844 L 21.667969 53.125 C 22 52.804688 23.332031 52.164062 24 52.164062 L 24.667969 52.164062 C 24.648438 53.070312 24.582031 54.660156 24.332031 55.371094 C 24 56.335938 23.332031 57.296875 22.667969 57.941406 C 22 58.582031 20 59.867188 20 59.867188 L 20 60.1875 C 20 60.1875 23.332031 59.542969 24 59.542969 L 26 59.542969 C 26.667969 59.542969 30 60.1875 30 60.1875 L 30 59.867188 C 30 59.867188 28 58.582031 27.332031 57.941406 C 26.667969 57.296875 26 56.335938 25.667969 55.371094 C 25.417969 54.660156 25.351562 53.070312 25.332031 52.164062 L 26 52.164062 C 26.667969 52.164062 28 52.804688 28.332031 53.125 L 29.332031 54.089844 C 30 54.730469 30.667969 55.050781 31.667969 55.050781 C 32.667969 55.050781 33.332031 54.730469 34 54.089844 C 34.667969 53.445312 35 52.804688 35 51.839844 C 35 50.878906 34.667969 50.238281 34 49.59375 C 33.332031 48.953125 32.667969 48.632812 31.667969 48.632812 C 30.667969 48.632812 30 48.953125 29.332031 49.59375 L 28.332031 50.558594 C 28 50.878906 26.667969 51.519531 26 51.519531 L 25.332031 51.519531 C 25.332031 51.074219 25.332031 51.199219 25.332031 50.558594 C 25.332031 49.914062 25.667969 48.632812 26 47.988281 C 26.332031 47.347656 26.667969 47.027344 27.332031 46.386719 C 27.996094 45.746094 28.332031 45.101562 28.332031 44.136719 C 28.332031 43.175781 28 42.535156 27.332031 41.890625 C 26.667969 41.25 26 40.929688 25 40.929688 "/>
<path style=" stroke:none;fill-rule:nonzero;fill:rgb(0%,0%,0%);fill-opacity:1;" d="M 65 40.929688 C 64 40.910156 63.332031 41.25 62.667969 41.890625 C 62 42.535156 61.667969 43.175781 61.667969 44.136719 C 61.667969 45.101562 62.046875 45.671875 62.667969 46.386719 C 63.261719 47.066406 63.667969 47.347656 64 47.988281 C 64.332031 48.632812 64.667969 49.914062 64.667969 50.558594 C 64.667969 51.199219 64.667969 51.136719 64.667969 51.519531 L 64 51.519531 C 63.332031 51.519531 62 50.878906 61.667969 50.558594 L 60.667969 49.59375 C 60 48.953125 59.332031 48.632812 58.332031 48.632812 C 57.332031 48.632812 56.667969 48.953125 56 49.59375 C 55.332031 50.238281 55 50.878906 55 51.839844 C 55 52.804688 55.332031 53.445312 56 54.089844 C 56.667969 54.730469 57.332031 55.050781 58.332031 55.050781 C 59.332031 55.050781 60 54.730469 60.667969 54.089844 L 61.667969 53.125 C 62 52.804688 63.332031 52.164062 64 52.164062 L 64.667969 52.164062 C 64.648438 53.070312 64.582031 54.660156 64.332031 55.371094 C 64 56.335938 63.332031 57.296875 62.667969 57.941406 C 62 58.582031 60 59.867188 60 59.867188 L 60 60.1875 C 60 60.1875 63.332031 59.542969 64 59.542969 L 66 59.542969 C 66.667969 59.542969 70 60.1875 70 60.1875 L 70 59.867188 C 70 59.867188 68 58.582031 67.332031 57.941406 C 66.667969 57.296875 66 56.335938 65.667969 55.371094 C 65.417969 54.660156 65.351562 53.070312 65.332031 52.164062 L 66 52.164062 C 66.667969 52.164062 68 52.804688 68.332031 53.125 L 69.332031 54.089844 C 70 54.730469 70.667969 55.050781 71.667969 55.050781 C 72.667969 55.050781 73.332031 54.730469 74 54.089844 C 74.667969 53.445312 75 52.804688 75 51.839844 C 75 50.878906 74.667969 50.238281 74 49.59375 C 73.332031 48.953125 72.667969 48.632812 71.667969 48.632812 C 70.667969 48.632812 70 48.953125 69.332031 49.59375 L 68.332031 50.558594 C 68 50.878906 66.667969 51.519531 66 51.519531 L 65.332031 51.519531 C 65.332031 51.074219 65.332031 51.199219 65.332031 50.558594 C 65.332031 49.914062 65.667969 48.632812 66 47.988281 C 66.332031 47.347656 66.667969 47.027344 67.332031 46.386719 C 67.996094 45.746094 68.332031 45.101562 68.332031 44.136719 C 68.332031 43.175781 68 42.535156 67.332031 41.890625 C 66.667969 41.25 66 40.929688 65 40.929688 "/>
<path style=" stroke:none;fill-rule:nonzero;fill:rgb(0%,0%,0%);fill-opacity:1;" d="M 45 103.519531 C 44 103.539062 43.332031 103.199219 42.667969 102.554688 C 42 101.914062 41.667969 101.273438 41.667969 100.308594 C 41.667969 99.347656 42.046875 98.773438 42.667969 98.0625 C 43.261719 97.378906 43.667969 97.097656 44 96.457031 C 44.332031 95.816406 44.667969 94.53125 44.667969 93.890625 C 44.667969 93.246094 44.667969 93.3125 44.667969 92.925781 L 44 92.925781 C 43.332031 92.925781 42 93.570312 41.667969 93.890625 L 40.667969 94.851562 C 40 95.496094 39.332031 95.816406 38.332031 95.816406 C 37.332031 95.816406 36.667969 95.496094 36 94.851562 C 35.332031 94.210938 35 93.570312 35 92.605469 C 35 91.640625 35.332031 91 36 90.359375 C 36.667969 89.714844 37.332031 89.394531 38.332031 89.394531 C 39.332031 89.394531 40 89.714844 40.667969 90.359375 L 41.667969 91.320312 C 42 91.640625 43.332031 92.285156 44 92.285156 L 44.667969 92.285156 C 44.648438 91.375 44.582031 89.789062 44.332031 89.074219 C 44 88.113281 43.332031 87.148438 42.667969 86.507812 C 42 85.863281 40 84.582031 40 84.582031 L 40 84.261719 C 40 84.261719 43.332031 84.902344 44 84.902344 L 46 84.902344 C 46.667969 84.902344 50 84.261719 50 84.261719 L 50 84.582031 C 50 84.582031 48 85.863281 47.332031 86.507812 C 46.667969 87.148438 46 88.113281 45.667969 89.074219 C 45.417969 89.789062 45.351562 91.375 45.332031 92.285156 L 46 92.285156 C 46.667969 92.285156 48 91.640625 48.332031 91.320312 L 49.332031 90.359375 C 50 89.714844 50.667969 89.394531 51.667969 89.394531 C 52.667969 89.394531 53.332031 89.714844 54 90.359375 C 54.667969 91 55 91.640625 55 92.605469 C 55 93.570312 54.667969 94.210938 54 94.851562 C 53.332031 95.496094 52.667969 95.816406 51.667969 95.816406 C 50.667969 95.816406 50 95.496094 49.332031 94.851562 L 48.332031 93.890625 C 48 93.570312 46.667969 92.925781 46 92.925781 L 45.332031 92.925781 C 45.332031 93.371094 45.332031 93.246094 45.332031 93.890625 C 45.332031 94.53125 45.667969 95.816406 46 96.457031 C 46.332031 97.097656 46.667969 97.421875 47.332031 98.0625 C 47.996094 98.699219 48.332031 99.347656 48.332031 100.308594 C 48.332031 101.273438 48 101.914062 47.332031 102.554688 C 46.667969 103.199219 46 103.519531 45 103.519531 "/>
<path style=" stroke:none;fill-rule:nonzero;fill:rgb(0%,0%,0%);fill-opacity:1;" d="M 65 117.964844 C 64 117.984375 63.332031 117.640625 62.667969 117 C 62 116.359375 61.667969 115.714844 61.667969 114.753906 C 61.667969 113.789062 62.046875 113.21875 62.667969 112.507812 C 63.261719 111.824219 63.667969 111.542969 64 110.902344 C 64.332031 110.257812 64.667969 108.976562 64.667969 108.332031 C 64.667969 107.691406 64.667969 107.757812 64.667969 107.371094 L 64 107.371094 C 63.332031 107.371094 62 108.011719 61.667969 108.332031 L 60.667969 109.296875 C 60 109.9375 59.332031 110.257812 58.332031 110.257812 C 57.332031 110.257812 56.667969 109.9375 56 109.296875 C 55.332031 108.65625 55 108.011719 55 107.050781 C 55 106.085938 55.332031 105.445312 56 104.804688 C 56.667969 104.160156 57.332031 103.839844 58.332031 103.839844 C 59.332031 103.839844 60 104.160156 60.667969 104.804688 L 61.667969 105.765625 C 62 106.085938 63.332031 106.730469 64 106.730469 L 64.667969 106.730469 C 64.648438 105.820312 64.582031 104.234375 64.332031 103.519531 C 64 102.554688 63.332031 101.59375 62.667969 100.953125 C 62 100.308594 60 99.027344 60 99.027344 L 60 98.703125 C 60 98.703125 63.332031 99.347656 64 99.347656 L 66 99.347656 C 66.667969 99.347656 70 98.703125 70 98.703125 L 70 99.027344 C 70 99.027344 68 100.308594 67.332031 100.953125 C 66.667969 101.59375 66 102.554688 65.667969 103.519531 C 65.417969 104.234375 65.351562 105.820312 65.332031 106.730469 L 66 106.730469 C 66.667969 106.730469 68 106.085938 68.332031 105.765625 L 69.332031 104.804688 C 70 104.160156 70.667969 103.839844 71.667969 103.839844 C 72.667969 103.839844 73.332031 104.160156 74 104.804688 C 74.667969 105.445312 75 106.085938 75 107.050781 C 75 108.011719 74.667969 108.65625 74 109.296875 C 73.332031 109.9375 72.667969 110.257812 71.667969 110.257812 C 70.667969 110.257812 70 109.9375 69.332031 109.296875 L 68.332031 108.332031 C 68 108.011719 66.667969 107.371094 66 107.371094 L 65.332031 107.371094 C 65.332031 107.816406 65.332031 107.691406 65.332031 108.332031 C 65.332031 108.976562 65.667969 110.257812 66 110.902344 C 66.332031 111.542969 66.667969 111.863281 67.332031 112.507812 C 67.996094 113.144531 68.332031 113.789062 68.332031 114.753906 C 68.332031 115.714844 68 116.359375 67.332031 117 C 66.667969 117.640625 66 117.964844 65 117.964844 "/>
<path style=" stroke:none;fill-rule:nonzero;fill:rgb(0%,0%,0%);fill-opacity:1;" d="M 25 89.074219 C 24 89.09375 23.332031 88.753906 22.667969 88.109375 C 22 87.46875 21.667969 86.828125 21.667969 85.863281 C 21.667969 84.902344 22.046875 84.332031 22.667969 83.617188 C 23.261719 82.933594 23.667969 82.65625 24 82.011719 C 24.332031 81.371094 24.667969 80.085938 24.667969 79.445312 C 24.667969 78.804688 24.667969 78.867188 24.667969 78.480469 L 24 78.480469 C 23.332031 78.480469 22 79.125 21.667969 79.445312 L 20.667969 80.40625 C 20 81.050781 19.332031 81.371094 18.332031 81.371094 C 17.332031 81.371094 16.667969 81.050781 16 80.40625 C 15.332031 79.765625 15 79.125 15 78.160156 C 15 77.199219 15.332031 76.554688 16 75.914062 C 16.667969 75.273438 17.332031 74.953125 18.332031 74.953125 C 19.332031 74.953125 20 75.273438 20.667969 75.914062 L 21.667969 76.878906 C 22 77.199219 23.332031 77.839844 24 77.839844 L 24.667969 77.839844 C 24.648438 76.929688 24.582031 75.34375 24.332031 74.628906 C 24 73.667969 23.332031 72.703125 22.667969 72.0625 C 22 71.421875 20 70.136719 20 70.136719 L 20 69.816406 C 20 69.816406 23.332031 70.457031 24 70.457031 L 26 70.457031 C 26.667969 70.457031 30 69.816406 30 69.816406 L 30 70.136719 C 30 70.136719 28 71.421875 27.332031 72.0625 C 26.667969 72.703125 26 73.667969 25.667969 74.628906 C 25.417969 75.34375 25.351562 76.929688 25.332031 77.839844 L 26 77.839844 C 26.667969 77.839844 28 77.199219 28.332031 76.878906 L 29.332031 75.914062 C 30 75.273438 30.667969 74.953125 31.667969 74.953125 C 32.667969 74.953125 33.332031 75.273438 34 75.914062 C 34.667969 76.554688 35 77.199219 35 78.160156 C 35 79.125 34.667969 79.765625 34 80.40625 C 33.332031 81.050781 32.667969 81.371094 31.667969 81.371094 C 30.667969 81.371094 30 81.050781 29.332031 80.40625 L 28.332031 79.445312 C 28 79.125 26.667969 78.480469 26 78.480469 L 25.332031 78.480469 C 25.332031 78.929688 25.332031 78.804688 25.332031 79.445312 C 25.332031 80.085938 25.667969 81.371094 26 82.011719 C 26.332031 82.65625 26.667969 82.976562 27.332031 83.617188 C 27.996094 84.257812 28.332031 84.902344 28.332031 85.863281 C 28.332031 86.828125 28 87.46875 27.332031 88.109375 C 26.667969 88.753906 26 89.074219 25 89.074219 "/>
<path style=" stroke:none;fill-rule:nonzero;fill:rgb(0%,0%,0%);fill-opacity:1;" d="M 65 89.074219 C 64 89.09375 63.332031 88.753906 62.667969 88.109375 C 62 87.46875 61.667969 86.828125 61.667969 85.863281 C 61.667969 84.902344 62.046875 84.332031 62.667969 83.617188 C 63.261719 82.933594 63.667969 82.65625 64 82.011719 C 64.332031 81.371094 64.667969 80.085938 64.667969 79.445312 C 64.667969 78.804688 64.667969 78.867188 64.667969 78.480469 L 64 78.480469 C 63.332031 78.480469 62 79.125 61.667969 79.445312 L 60.667969 80.40625 C 60 81.050781 59.332031 81.371094 58.332031 81.371094 C 57.332031 81.371094 56.667969 81.050781 56 80.40625 C 55.332031 79.765625 55 79.125 55 78.160156 C 55 77.199219 55.332031 76.554688 56 75.914062 C 56.667969 75.273438 57.332031 74.953125 58.332031 74.953125 C 59.332031 74.953125 60 75.273438 60.667969 75.914062 L 61.667969 76.878906 C 62 77.199219 63.332031 77.839844 64 77.839844 L 64.667969 77.839844 C 64.648438 76.929688 64.582031 75.34375 64.332031 74.628906 C 64 73.667969 63.332031 72.703125 62.667969 72.0625 C 62 71.421875 60 70.136719 60 70.136719 L 60 69.816406 C 60 69.816406 63.332031 70.457031 64 70.457031 L 66 70.457031 C 66.667969 70.457031 70 69.816406 70 69.816406 L 70 70.136719 C 70 70.136719 68 71.421875 67.332031 72.0625 C 66.667969 72.703125 66 73.667969 65.667969 74.628906 C 65.417969 75.34375 65.351562 76.929688 65.332031 77.839844 L 66 77.839844 C 66.667969 77.839844 68 77.199219 68.332031 76.878906 L 69.332031 75.914062 C 70 75.273438 70.667969 74.953125 71.667969 74.953125 C 72.667969 74.953125 73.332031 75.273438 74 75.914062 C 74.667969 76.554688 75 77.199219 75 78.160156 C 75 79.125 74.667969 79.765625 74 80.40625 C 73.332031 81.050781 72.667969 81.371094 71.667969 81.371094 C 70.667969 81.371094 70 81.050781 69.332031 80.40625 L 68.332031 79.445312 C 68 79.125 66.667969 78.480469 66 78.480469 L 65.332031 78.480469 C 65.332031 78.929688 65.332031 78.804688 65.332031 79.445312 C 65.332031 80.085938 65.667969 81.371094 66 82.011719 C 66.332031 82.65625 66.667969 82.976562 67.332031 83.617188 C 67.996094 84.257812 68.332031 84.902344 68.332031 85.863281 C 68.332031 86.828125 68 87.46875 67.332031 88.109375 C 66.667969 88.753906 66 89.074219 65 89.074219 "/>
<path style=" stroke:none;fill-rule:nonzero;fill:rgb(0%,0%,0%);fill-opacity:1;" d="M 25 117.964844 C 24 117.984375 23.332031 117.640625 22.667969 117 C 22 116.359375 21.667969 115.714844 21.667969 114.753906 C 21.667969 113.789062 22.046875 113.21875 22.667969 112.507812 C 23.261719 111.824219 23.667969 111.542969 24 110.902344 C 24.332031 110.257812 24.667969 108.976562 24.667969 108.332031 C 24.667969 107.691406 24.667969 107.757812 24.667969 107.371094 L 24 107.371094 C 23.332031 107.371094 22 108.011719 21.667969 108.332031 L 20.667969 109.296875 C 20 109.9375 19.332031 110.257812 18.332031 110.257812 C 17.332031 110.257812 16.667969 109.9375 16 109.296875 C 15.332031 108.65625 15 108.011719 15 107.050781 C 15 106.085938 15.332031 105.445312 16 104.804688 C 16.667969 104.160156 17.332031 103.839844 18.332031 103.839844 C 19.332031 103.839844 20 104.160156 20.667969 104.804688 L 21.667969 105.765625 C 22 106.085938 23.332031 106.730469 24 106.730469 L 24.667969 106.730469 C 24.648438 105.820312 24.582031 104.234375 24.332031 103.519531 C 24 102.554688 23.332031 101.59375 22.667969 100.953125 C 22 100.308594 20 99.027344 20 99.027344 L 20 98.703125 C 20 98.703125 23.332031 99.347656 24 99.347656 L 26 99.347656 C 26.667969 99.347656 30 98.703125 30 98.703125 L 30 99.027344 C 30 99.027344 28 100.308594 27.332031 100.953125 C 26.667969 101.59375 26 102.554688 25.667969 103.519531 C 25.417969 104.234375 25.351562 105.820312 25.332031 106.730469 L 26 106.730469 C 26.667969 106.730469 28 106.085938 28.332031 105.765625 L 29.332031 104.804688 C 30 104.160156 30.667969 103.839844 31.667969 103.839844 C 32.667969 103.839844 33.332031 104.160156 34 104.804688 C 34.667969 105.445312 35 106.085938 35 107.050781 C 35 108.011719 34.667969 108.65625 34 109.296875 C 33.332031 109.9375 32.667969 110.257812 31.667969 110.257812 C 30.667969 110.257812 30 109.9375 29.332031 109.296875 L 28.332031 108.332031 C 28 108.011719 26.667969 107.371094 26 107.371094 L 25.332031 107.371094 C 25.332031 107.816406 25.332031 107.691406 25.332031 108.332031 C 25.332031 108.976562 25.667969 110.257812 26 110.902344 C 26.332031 111.542969 26.667969 111.863281 27.332031 112.507812 C 27.996094 113.144531 28.332031 113.789062 28.332031 114.753906 C 28.332031 115.714844 28 116.359375 27.332031 117 C 26.667969 117.640625 26 117.964844 25 117.964844 "/>
<path style=" stroke:none;fill-rule:nonzero;fill:rgb(0%,0%,0%);fill-opacity:1;" d="M 7.5 21.667969 C 7.125 21.660156 6.875 21.785156 6.625 22.027344 C 6.375 22.269531 6.25 22.507812 6.25 22.871094 C 6.25 23.230469 6.390625 23.445312 6.625 23.714844 C 6.847656 23.96875 7 24.074219 7.125 24.316406 C 7.25 24.554688 7.375 25.035156 7.375 25.277344 C 7.375 25.519531 7.375 25.496094 7.375 25.640625 L 7.125 25.640625 C 6.875 25.640625 6.375 25.398438 6.25 25.277344 L 5.875 24.917969 C 5.625 24.675781 5.375 24.554688 5 24.554688 C 4.625 24.554688 4.375 24.675781 4.125 24.917969 C 3.875 25.15625 3.75 25.398438 3.75 25.757812 C 3.75 26.121094 3.875 26.359375 4.125 26.601562 C 4.375 26.84375 4.625 26.964844 5 26.964844 C 5.375 26.964844 5.625 26.84375 5.875 26.601562 L 6.25 26.242188 C 6.375 26.121094 6.875 25.878906 7.125 25.878906 L 7.375 25.878906 C 7.367188 26.21875 7.34375 26.816406 7.25 27.082031 C 7.125 27.445312 6.875 27.804688 6.625 28.046875 C 6.375 28.285156 5.625 28.769531 5.625 28.769531 L 5.625 28.890625 C 5.625 28.890625 6.875 28.648438 7.125 28.648438 L 7.875 28.648438 C 8.125 28.648438 9.375 28.890625 9.375 28.890625 L 9.375 28.769531 C 9.375 28.769531 8.625 28.285156 8.375 28.046875 C 8.125 27.804688 7.875 27.445312 7.75 27.082031 C 7.65625 26.816406 7.632812 26.21875 7.625 25.878906 L 7.875 25.878906 C 8.125 25.878906 8.625 26.121094 8.75 26.242188 L 9.125 26.601562 C 9.375 26.84375 9.625 26.964844 10 26.964844 C 10.375 26.964844 10.625 26.84375 10.875 26.601562 C 11.125 26.359375 11.25 26.121094 11.25 25.757812 C 11.25 25.398438 11.125 25.15625 10.875 24.917969 C 10.625 24.675781 10.375 24.554688 10 24.554688 C 9.625 24.554688 9.375 24.675781 9.125 24.917969 L 8.75 25.277344 C 8.625 25.398438 8.125 25.640625 7.875 25.640625 L 7.625 25.640625 C 7.625 25.472656 7.625 25.519531 7.625 25.277344 C 7.625 25.035156 7.75 24.554688 7.875 24.316406 C 8 24.074219 8.125 23.953125 8.375 23.714844 C 8.625 23.472656 8.75 23.230469 8.75 22.871094 C 8.75 22.507812 8.625 22.269531 8.375 22.027344 C 8.125 21.785156 7.875 21.667969 7.5 21.667969 "/>
<path style=" stroke:none;fill-rule:nonzero;fill:rgb(0%,0%,0%);fill-opacity:1;" d="M 82.5 108.332031 C 82.125 108.339844 81.875 108.214844 81.625 107.972656 C 81.375 107.730469 81.25 107.492188 81.25 107.128906 C 81.25 106.769531 81.390625 106.554688 81.625 106.285156 C 81.847656 106.03125 82 105.925781 82.125 105.683594 C 82.25 105.445312 82.375 104.964844 82.375 104.722656 C 82.375 104.480469 82.375 104.503906 82.375 104.359375 L 82.125 104.359375 C 81.875 104.359375 81.375 104.601562 81.25 104.722656 L 80.875 105.082031 C 80.625 105.324219 80.375 105.445312 80 105.445312 C 79.625 105.445312 79.375 105.324219 79.125 105.082031 C 78.875 104.84375 78.75 104.601562 78.75 104.242188 C 78.75 103.878906 78.875 103.640625 79.125 103.398438 C 79.375 103.15625 79.625 103.035156 80 103.035156 C 80.375 103.035156 80.625 103.15625 80.875 103.398438 L 81.25 103.757812 C 81.375 103.878906 81.875 104.121094 82.125 104.121094 L 82.375 104.121094 C 82.367188 103.78125 82.34375 103.183594 82.25 102.917969 C 82.125 102.554688 81.875 102.195312 81.625 101.953125 C 81.375 101.714844 80.625 101.230469 80.625 101.230469 L 80.625 101.109375 C 80.625 101.109375 81.875 101.351562 82.125 101.351562 L 82.875 101.351562 C 83.125 101.351562 84.375 101.109375 84.375 101.109375 L 84.375 101.230469 C 84.375 101.230469 83.625 101.714844 83.375 101.953125 C 83.125 102.195312 82.875 102.554688 82.75 102.917969 C 82.65625 103.183594 82.632812 103.78125 82.625 104.121094 L 82.875 104.121094 C 83.125 104.121094 83.625 103.878906 83.75 103.757812 L 84.125 103.398438 C 84.375 103.15625 84.625 103.035156 85 103.035156 C 85.375 103.035156 85.625 103.15625 85.875 103.398438 C 86.125 103.640625 86.25 103.878906 86.25 104.242188 C 86.25 104.601562 86.125 104.84375 85.875 105.082031 C 85.625 105.324219 85.375 105.445312 85 105.445312 C 84.625 105.445312 84.375 105.324219 84.125 105.082031 L 83.75 104.722656 C 83.625 104.601562 83.125 104.359375 82.875 104.359375 L 82.625 104.359375 C 82.625 104.527344 82.625 104.480469 82.625 104.722656 C 82.625 104.964844 82.75 105.445312 82.875 105.683594 C 83 105.925781 83.125 106.046875 83.375 106.285156 C 83.625 106.527344 83.75 106.769531 83.75 107.128906 C 83.75 107.492188 83.625 107.730469 83.375 107.972656 C 83.125 108.214844 82.875 108.332031 82.5 108.332031 "/>
</g>
</svg>
