<?xml version="1.0" encoding="UTF-8"?>
<svg xmlns="http://www.w3.org/2000/svg" xmlns:xlink="http://www.w3.org/1999/xlink" width="90px" height="130px" viewBox="0 0 90 130" version="1.1">
<g id="surface1">
<path style="fill-rule:nonzero;fill:rgb(100%,100%,100%);fill-opacity:1;stroke-width:1;stroke-linecap:butt;stroke-linejoin:miter;stroke:rgb(0%,0%,0%);stroke-opacity:1;stroke-miterlimit:4;" d="M 30.4375 512.86299 L 329.5625 512.86299 C 346.09375 512.86299 359.5 526.265634 359.5 542.799889 L 359.5 1021.920082 C 359.5 1038.454336 346.09375 1051.856981 329.5625 1051.856981 L 30.4375 1051.856981 C 13.90625 1051.856981 0.5 1038.454336 0.5 1021.920082 L 0.5 542.799889 C 0.5 526.265634 13.90625 512.86299 30.4375 512.86299 Z M 30.4375 512.86299 " transform="matrix(0.25,0,0,0.240741,0,-123.345922)"/>
<path style=" stroke:none;fill-rule:nonzero;fill:rgb(100%,33.333334%,33.333334%);fill-opacity:1;" d="M 3.75 7.222656 L 2.5 8.90625 L 2.5 10.59375 L 3.75 8.90625 L 3.75 19.257812 L 5 19.257812 L 5 7.222656 L 3.75 7.222656 "/>
<path style=" stroke:none;fill-rule:nonzero;fill:rgb(100%,33.333334%,33.333334%);fill-opacity:1;" d="M 8.75 7.222656 C 7.363281 7.222656 6.25 8.296875 6.25 9.628906 L 6.25 16.851562 C 6.25 18.1875 7.363281 19.257812 8.75 19.257812 C 10.136719 19.257812 11.25 18.1875 11.25 16.851562 L 11.25 9.628906 C 11.25 8.296875 10.136719 7.222656 8.75 7.222656 M 8.75 8.425781 C 9.441406 8.425781 10 8.964844 10 9.628906 L 10 16.851562 C 10 17.519531 9.441406 18.054688 8.75 18.054688 C 8.058594 18.054688 7.5 17.519531 7.5 16.851562 L 7.5 9.628906 C 7.5 8.964844 8.058594 8.425781 8.75 8.425781 "/>
<path style=" stroke:none;fill-rule:nonzero;fill:rgb(100%,33.333334%,33.333334%);fill-opacity:1;" d="M 86.25 122.777344 L 87.5 121.09375 L 87.5 119.40625 L 86.25 121.09375 L 86.25 110.742188 L 85 110.742188 L 85 122.777344 L 86.25 122.777344 "/>
<path style=" stroke:none;fill-rule:nonzero;fill:rgb(100%,33.333334%,33.333334%);fill-opacity:1;" d="M 81.25 122.777344 C 82.636719 122.777344 83.75 121.703125 83.75 120.371094 L 83.75 113.148438 C 83.75 111.8125 82.636719 110.742188 81.25 110.742188 C 79.863281 110.742188 78.75 111.8125 78.75 113.148438 L 78.75 120.371094 C 78.75 121.703125 79.863281 122.777344 81.25 122.777344 M 81.25 121.574219 C 80.558594 121.574219 80 121.039062 80 120.371094 L 80 113.148438 C 80 112.480469 80.558594 111.945312 81.25 111.945312 C 81.941406 111.945312 82.5 112.480469 82.5 113.148438 L 82.5 120.371094 C 82.5 121.039062 81.941406 121.574219 81.25 121.574219 "/>
<path style=" stroke:none;fill-rule:nonzero;fill:rgb(100%,33.333334%,33.333334%);fill-opacity:1;" d="M 25 12.035156 C 25 12.035156 27 15.246094 29.332031 17.492188 C 31.667969 19.742188 35 21.667969 35 21.667969 C 35 21.667969 31.667969 23.59375 29.332031 25.839844 C 27 28.085938 25 31.296875 25 31.296875 C 25 31.296875 23 28.085938 20.667969 25.839844 C 18.332031 23.59375 15 21.667969 15 21.667969 C 15 21.667969 18.332031 19.742188 20.667969 17.492188 C 23 15.246094 25 12.035156 25 12.035156 "/>
<path style=" stroke:none;fill-rule:nonzero;fill:rgb(100%,33.333334%,33.333334%);fill-opacity:1;" d="M 82.5 101.109375 C 82.5 101.109375 83.25 102.316406 84.125 103.15625 C 85 104 86.25 104.722656 86.25 104.722656 C 86.25 104.722656 85 105.445312 84.125 106.285156 C 83.25 107.128906 82.5 108.332031 82.5 108.332031 C 82.5 108.332031 81.75 107.128906 80.875 106.285156 C 80 105.445312 78.75 104.722656 78.75 104.722656 C 78.75 104.722656 80 104 80.875 103.15625 C 81.75 102.316406 82.5 101.109375 82.5 101.109375 "/>
<path style=" stroke:none;fill-rule:nonzero;fill:rgb(100%,33.333334%,33.333334%);fill-opacity:1;" d="M 7.5 21.667969 C 7.5 21.667969 8.25 22.871094 9.125 23.714844 C 10 24.554688 11.25 25.277344 11.25 25.277344 C 11.25 25.277344 10 26 9.125 26.84375 C 8.25 27.683594 7.5 28.890625 7.5 28.890625 C 7.5 28.890625 6.75 27.683594 5.875 26.84375 C 5 26 3.75 25.277344 3.75 25.277344 C 3.75 25.277344 5 24.554688 5.875 23.714844 C 6.75 22.871094 7.5 21.667969 7.5 21.667969 "/>
<path style=" stroke:none;fill-rule:nonzero;fill:rgb(100%,33.333334%,33.333334%);fill-opacity:1;" d="M 65 12.035156 C 65 12.035156 67 15.246094 69.332031 17.492188 C 71.667969 19.742188 75 21.667969 75 21.667969 C 75 21.667969 71.667969 23.59375 69.332031 25.839844 C 67 28.085938 65 31.296875 65 31.296875 C 65 31.296875 63 28.085938 60.667969 25.839844 C 58.332031 23.59375 55 21.667969 55 21.667969 C 55 21.667969 58.332031 19.742188 60.667969 17.492188 C 63 15.246094 65 12.035156 65 12.035156 "/>
<path style=" stroke:none;fill-rule:nonzero;fill:rgb(100%,33.333334%,33.333334%);fill-opacity:1;" d="M 65 40.925781 C 65 40.925781 67 44.136719 69.332031 46.382812 C 71.667969 48.628906 75 50.554688 75 50.554688 C 75 50.554688 71.667969 52.480469 69.332031 54.726562 C 67 56.976562 65 60.183594 65 60.183594 C 65 60.183594 63 56.976562 60.667969 54.726562 C 58.332031 52.480469 55 50.554688 55 50.554688 C 55 50.554688 58.332031 48.628906 60.667969 46.382812 C 63 44.136719 65 40.925781 65 40.925781 "/>
<path style=" stroke:none;fill-rule:nonzero;fill:rgb(100%,33.333334%,33.333334%);fill-opacity:1;" d="M 65 69.816406 C 65 69.816406 67 73.023438 69.332031 75.273438 C 71.667969 77.519531 75 79.445312 75 79.445312 C 75 79.445312 71.667969 81.371094 69.332031 83.617188 C 67 85.863281 65 89.074219 65 89.074219 C 65 89.074219 63 85.863281 60.667969 83.617188 C 58.332031 81.371094 55 79.445312 55 79.445312 C 55 79.445312 58.332031 77.519531 60.667969 75.273438 C 63 73.023438 65 69.816406 65 69.816406 "/>
<path style=" stroke:none;fill-rule:nonzero;fill:rgb(100%,33.333334%,33.333334%);fill-opacity:1;" d="M 65 98.703125 C 65 98.703125 67 101.914062 69.332031 104.160156 C 71.667969 106.40625 75 108.332031 75 108.332031 C 75 108.332031 71.667969 110.257812 69.332031 112.507812 C 67 114.753906 65 117.964844 65 117.964844 C 65 117.964844 63 114.753906 60.667969 112.507812 C 58.332031 110.257812 55 108.332031 55 108.332031 C 55 108.332031 58.332031 106.40625 60.667969 104.160156 C 63 101.914062 65 98.703125 65 98.703125 "/>
<path style=" stroke:none;fill-rule:nonzero;fill:rgb(100%,33.333334%,33.333334%);fill-opacity:1;" d="M 25 40.925781 C 25 40.925781 27 44.136719 29.332031 46.382812 C 31.667969 48.628906 35 50.554688 35 50.554688 C 35 50.554688 31.667969 52.480469 29.332031 54.726562 C 27 56.976562 25 60.183594 25 60.183594 C 25 60.183594 23 56.976562 20.667969 54.726562 C 18.332031 52.480469 15 50.554688 15 50.554688 C 15 50.554688 18.332031 48.628906 20.667969 46.382812 C 23 44.136719 25 40.925781 25 40.925781 "/>
<path style=" stroke:none;fill-rule:nonzero;fill:rgb(100%,33.333334%,33.333334%);fill-opacity:1;" d="M 25 69.816406 C 25 69.816406 27 73.023438 29.332031 75.273438 C 31.667969 77.519531 35 79.445312 35 79.445312 C 35 79.445312 31.667969 81.371094 29.332031 83.617188 C 27 85.863281 25 89.074219 25 89.074219 C 25 89.074219 23 85.863281 20.667969 83.617188 C 18.332031 81.371094 15 79.445312 15 79.445312 C 15 79.445312 18.332031 77.519531 20.667969 75.273438 C 23 73.023438 25 69.816406 25 69.816406 "/>
<path style=" stroke:none;fill-rule:nonzero;fill:rgb(100%,33.333334%,33.333334%);fill-opacity:1;" d="M 25 98.703125 C 25 98.703125 27 101.914062 29.332031 104.160156 C 31.667969 106.40625 35 108.332031 35 108.332031 C 35 108.332031 31.667969 110.257812 29.332031 112.507812 C 27 114.753906 25 117.964844 25 117.964844 C 25 117.964844 23 114.753906 20.667969 112.507812 C 18.332031 110.257812 15 108.332031 15 108.332031 C 15 108.332031 18.332031 106.40625 20.667969 104.160156 C 23 101.914062 25 98.703125 25 98.703125 "/>
<path style=" stroke:none;fill-rule:nonzero;fill:rgb(100%,33.333334%,33.333334%);fill-opacity:1;" d="M 45 26.480469 C 45 26.480469 47 29.691406 49.332031 31.9375 C 51.667969 34.183594 55 36.109375 55 36.109375 C 55 36.109375 51.667969 38.035156 49.332031 40.285156 C 47 42.53125 45 45.742188 45 45.742188 C 45 45.742188 43 42.53125 40.667969 40.285156 C 38.332031 38.035156 35 36.109375 35 36.109375 C 35 36.109375 38.332031 34.183594 40.667969 31.9375 C 43 29.691406 45 26.480469 45 26.480469 "/>
<path style=" stroke:none;fill-rule:nonzero;fill:rgb(100%,33.333334%,33.333334%);fill-opacity:1;" d="M 45 84.257812 C 45 84.257812 47 87.46875 49.332031 89.714844 C 51.667969 91.964844 55 93.890625 55 93.890625 C 55 93.890625 51.667969 95.816406 49.332031 98.0625 C 47 100.308594 45 103.519531 45 103.519531 C 45 103.519531 43 100.308594 40.667969 98.0625 C 38.332031 95.816406 35 93.890625 35 93.890625 C 35 93.890625 38.332031 91.964844 40.667969 89.714844 C 43 87.46875 45 84.257812 45 84.257812 "/>
</g>
</svg>
