<?xml version="1.0" encoding="UTF-8"?>
<svg xmlns="http://www.w3.org/2000/svg" xmlns:xlink="http://www.w3.org/1999/xlink" width="87pt" height="130pt" viewBox="0 0 87 130" version="1.1">
<g id="surface1">
<path style="fill-rule:nonzero;fill:rgb(100%,100%,100%);fill-opacity:1;stroke-width:1;stroke-linecap:butt;stroke-linejoin:miter;stroke:rgb(0%,0%,0%);stroke-opacity:1;stroke-miterlimit:4;" d="M 30.436422 512.863005 L 329.563578 512.863005 C 346.099138 512.863005 359.498922 526.265649 359.498922 542.799904 L 359.498922 1021.920096 C 359.498922 1038.454351 346.099138 1051.856995 329.563578 1051.856995 L 30.436422 1051.856995 C 13.900862 1051.856995 0.501078 1038.454351 0.501078 1021.920096 L 0.501078 542.799904 C 0.501078 526.265649 13.900862 512.863005 30.436422 512.863005 Z M 30.436422 512.863005 " transform="matrix(0.241667,0,0,0.240741,0,-123.345926)"/>
<path style=" stroke:none;fill-rule:nonzero;fill:rgb(100%,33.333333%,33.333333%);fill-opacity:1;" d="M 43.5 12.035156 C 43.5 12.035156 45.433594 15.246094 47.6875 17.492188 C 49.945312 19.742188 53.167969 21.667969 53.167969 21.667969 C 53.167969 21.667969 49.945312 23.59375 47.6875 25.839844 C 45.433594 28.085938 43.5 31.296875 43.5 31.296875 C 43.5 31.296875 41.566406 28.085938 39.3125 25.839844 C 37.054688 23.59375 33.832031 21.667969 33.832031 21.667969 C 33.832031 21.667969 37.054688 19.742188 39.3125 17.492188 C 41.566406 15.246094 43.5 12.035156 43.5 12.035156 "/>
<path style=" stroke:none;fill-rule:nonzero;fill:rgb(100%,33.333333%,33.333333%);fill-opacity:1;" d="M 43.5 98.703125 C 43.5 98.703125 45.433594 101.914062 47.6875 104.160156 C 49.945312 106.40625 53.167969 108.332031 53.167969 108.332031 C 53.167969 108.332031 49.945312 110.257812 47.6875 112.507812 C 45.433594 114.753906 43.5 117.964844 43.5 117.964844 C 43.5 117.964844 41.566406 114.753906 39.3125 112.507812 C 37.054688 110.257812 33.832031 108.332031 33.832031 108.332031 C 33.832031 108.332031 37.054688 106.40625 39.3125 104.160156 C 41.566406 101.914062 43.5 98.703125 43.5 98.703125 "/>
<path style=" stroke:none;fill-rule:nonzero;fill:rgb(100%,33.333333%,33.333333%);fill-opacity:1;" d="M 79.75 101.109375 C 79.75 101.109375 80.476562 102.316406 81.320312 103.15625 C 82.167969 104 83.375 104.722656 83.375 104.722656 C 83.375 104.722656 82.167969 105.445312 81.320312 106.285156 C 80.476562 107.128906 79.75 108.332031 79.75 108.332031 C 79.75 108.332031 79.023438 107.128906 78.179688 106.285156 C 77.332031 105.445312 76.125 104.722656 76.125 104.722656 C 76.125 104.722656 77.332031 104 78.179688 103.15625 C 79.023438 102.316406 79.75 101.109375 79.75 101.109375 "/>
<path style=" stroke:none;fill-rule:nonzero;fill:rgb(100%,33.333333%,33.333333%);fill-opacity:1;" d="M 7.25 21.667969 C 7.25 21.667969 7.976562 22.871094 8.820312 23.714844 C 9.667969 24.554688 10.875 25.277344 10.875 25.277344 C 10.875 25.277344 9.667969 26 8.820312 26.84375 C 7.976562 27.683594 7.25 28.890625 7.25 28.890625 C 7.25 28.890625 6.523438 27.683594 5.679688 26.84375 C 4.832031 26 3.625 25.277344 3.625 25.277344 C 3.625 25.277344 4.832031 24.554688 5.679688 23.714844 C 6.523438 22.871094 7.25 21.667969 7.25 21.667969 "/>
<path style=" stroke:none;fill-rule:nonzero;fill:rgb(100%,33.333333%,33.333333%);fill-opacity:1;" d="M 7.25 7.222656 C 5.910156 7.222656 4.832031 8.296875 4.832031 9.628906 L 4.832031 10.832031 L 6.042969 10.832031 L 6.042969 9.628906 C 6.042969 8.960938 6.582031 8.425781 7.25 8.425781 C 7.917969 8.425781 8.457031 8.960938 8.457031 9.628906 L 8.457031 10.832031 C 8.457031 11.105469 8.367188 11.570312 8.214844 11.773438 C 7.136719 13.964844 5.972656 15.894531 4.832031 18.054688 L 4.832031 19.257812 L 9.667969 19.257812 L 9.667969 16.851562 L 8.457031 16.851562 L 8.457031 18.054688 L 6.164062 18.054688 C 7.246094 16.148438 8.148438 14.308594 9.183594 12.375 C 9.484375 11.972656 9.667969 11.375 9.667969 10.832031 L 9.667969 9.628906 C 9.667969 8.296875 8.589844 7.222656 7.25 7.222656 "/>
<path style=" stroke:none;fill-rule:nonzero;fill:rgb(100%,33.333333%,33.333333%);fill-opacity:1;" d="M 79.75 122.777344 C 81.089844 122.777344 82.167969 121.703125 82.167969 120.371094 L 82.167969 119.167969 L 80.957031 119.167969 L 80.957031 120.371094 C 80.957031 121.039062 80.417969 121.574219 79.75 121.574219 C 79.082031 121.574219 78.542969 121.039062 78.542969 120.371094 L 78.542969 119.167969 C 78.542969 118.894531 78.632812 118.429688 78.785156 118.226562 C 79.863281 116.035156 81.027344 114.105469 82.167969 111.945312 L 82.167969 110.742188 L 77.332031 110.742188 L 77.332031 113.148438 L 78.542969 113.148438 L 78.542969 111.945312 L 80.835938 111.945312 C 79.753906 113.851562 78.851562 115.691406 77.816406 117.625 C 77.515625 118.027344 77.332031 118.625 77.332031 119.167969 L 77.332031 120.371094 C 77.332031 121.703125 78.410156 122.777344 79.75 122.777344 "/>
</g>
</svg>
