<?xml version="1.0" encoding="UTF-8"?>
<svg xmlns="http://www.w3.org/2000/svg" xmlns:xlink="http://www.w3.org/1999/xlink" width="90px" height="130px" viewBox="0 0 90 130" version="1.1">
<g id="surface1">
<path style="fill-rule:nonzero;fill:rgb(100%,100%,100%);fill-opacity:1;stroke-width:1;stroke-linecap:butt;stroke-linejoin:miter;stroke:rgb(0%,0%,0%);stroke-opacity:1;stroke-miterlimit:4;" d="M 30.4375 512.86299 L 329.5625 512.86299 C 346.09375 512.86299 359.5 526.265634 359.5 542.799889 L 359.5 1021.920082 C 359.5 1038.454336 346.09375 1051.856981 329.5625 1051.856981 L 30.4375 1051.856981 C 13.90625 1051.856981 0.5 1038.454336 0.5 1021.920082 L 0.5 542.799889 C 0.5 526.265634 13.90625 512.86299 30.4375 512.86299 Z M 30.4375 512.86299 " transform="matrix(0.25,0,0,0.240741,0,-123.345922)"/>
<path style=" stroke:none;fill-rule:nonzero;fill:rgb(100%,33.333334%,33.333334%);fill-opacity:1;" d="M 25 12.035156 C 25 12.035156 27 15.246094 29.332031 17.492188 C 31.667969 19.742188 35 21.667969 35 21.667969 C 35 21.667969 31.667969 23.59375 29.332031 25.839844 C 27 28.085938 25 31.296875 25 31.296875 C 25 31.296875 23 28.085938 20.667969 25.839844 C 18.332031 23.59375 15 21.667969 15 21.667969 C 15 21.667969 18.332031 19.742188 20.667969 17.492188 C 23 15.246094 25 12.035156 25 12.035156 "/>
<path style=" stroke:none;fill-rule:nonzero;fill:rgb(100%,33.333334%,33.333334%);fill-opacity:1;" d="M 65 12.035156 C 65 12.035156 67 15.246094 69.332031 17.492188 C 71.667969 19.742188 75 21.667969 75 21.667969 C 75 21.667969 71.667969 23.59375 69.332031 25.839844 C 67 28.085938 65 31.296875 65 31.296875 C 65 31.296875 63 28.085938 60.667969 25.839844 C 58.332031 23.59375 55 21.667969 55 21.667969 C 55 21.667969 58.332031 19.742188 60.667969 17.492188 C 63 15.246094 65 12.035156 65 12.035156 "/>
<path style=" stroke:none;fill-rule:nonzero;fill:rgb(100%,33.333334%,33.333334%);fill-opacity:1;" d="M 45 33.703125 C 45 33.703125 47 36.914062 49.332031 39.160156 C 51.667969 41.40625 55 43.332031 55 43.332031 C 55 43.332031 51.667969 45.257812 49.332031 47.507812 C 47 49.753906 45 52.964844 45 52.964844 C 45 52.964844 43 49.753906 40.667969 47.507812 C 38.332031 45.257812 35 43.332031 35 43.332031 C 35 43.332031 38.332031 41.40625 40.667969 39.160156 C 43 36.914062 45 33.703125 45 33.703125 "/>
<path style=" stroke:none;fill-rule:nonzero;fill:rgb(100%,33.333334%,33.333334%);fill-opacity:1;" d="M 25 55.371094 C 25 55.371094 27 58.582031 29.332031 60.828125 C 31.667969 63.074219 35 65 35 65 C 35 65 31.667969 66.925781 29.332031 69.171875 C 27 71.417969 25 74.628906 25 74.628906 C 25 74.628906 23 71.417969 20.667969 69.171875 C 18.332031 66.925781 15 65 15 65 C 15 65 18.332031 63.074219 20.667969 60.828125 C 23 58.582031 25 55.371094 25 55.371094 "/>
<path style=" stroke:none;fill-rule:nonzero;fill:rgb(100%,33.333334%,33.333334%);fill-opacity:1;" d="M 65 55.371094 C 65 55.371094 67 58.582031 69.332031 60.828125 C 71.667969 63.074219 75 65 75 65 C 75 65 71.667969 66.925781 69.332031 69.171875 C 67 71.417969 65 74.628906 65 74.628906 C 65 74.628906 63 71.417969 60.667969 69.171875 C 58.332031 66.925781 55 65 55 65 C 55 65 58.332031 63.074219 60.667969 60.828125 C 63 58.582031 65 55.371094 65 55.371094 "/>
<path style=" stroke:none;fill-rule:nonzero;fill:rgb(100%,33.333334%,33.333334%);fill-opacity:1;" d="M 45 77.035156 C 45 77.035156 47 80.246094 49.332031 82.492188 C 51.667969 84.742188 55 86.667969 55 86.667969 C 55 86.667969 51.667969 88.59375 49.332031 90.839844 C 47 93.085938 45 96.296875 45 96.296875 C 45 96.296875 43 93.085938 40.667969 90.839844 C 38.332031 88.59375 35 86.667969 35 86.667969 C 35 86.667969 38.332031 84.742188 40.667969 82.492188 C 43 80.246094 45 77.035156 45 77.035156 "/>
<path style=" stroke:none;fill-rule:nonzero;fill:rgb(100%,33.333334%,33.333334%);fill-opacity:1;" d="M 25 98.703125 C 25 98.703125 27 101.914062 29.332031 104.160156 C 31.667969 106.40625 35 108.332031 35 108.332031 C 35 108.332031 31.667969 110.257812 29.332031 112.507812 C 27 114.753906 25 117.964844 25 117.964844 C 25 117.964844 23 114.753906 20.667969 112.507812 C 18.332031 110.257812 15 108.332031 15 108.332031 C 15 108.332031 18.332031 106.40625 20.667969 104.160156 C 23 101.914062 25 98.703125 25 98.703125 "/>
<path style=" stroke:none;fill-rule:nonzero;fill:rgb(100%,33.333334%,33.333334%);fill-opacity:1;" d="M 65 98.703125 C 65 98.703125 67 101.914062 69.332031 104.160156 C 71.667969 106.40625 75 108.332031 75 108.332031 C 75 108.332031 71.667969 110.257812 69.332031 112.507812 C 67 114.753906 65 117.964844 65 117.964844 C 65 117.964844 63 114.753906 60.667969 112.507812 C 58.332031 110.257812 55 108.332031 55 108.332031 C 55 108.332031 58.332031 106.40625 60.667969 104.160156 C 63 101.914062 65 98.703125 65 98.703125 "/>
<path style=" stroke:none;fill-rule:nonzero;fill:rgb(100%,33.333334%,33.333334%);fill-opacity:1;" d="M 82.5 101.109375 C 82.5 101.109375 83.25 102.316406 84.125 103.15625 C 85 104 86.25 104.722656 86.25 104.722656 C 86.25 104.722656 85 105.445312 84.125 106.285156 C 83.25 107.128906 82.5 108.332031 82.5 108.332031 C 82.5 108.332031 81.75 107.128906 80.875 106.285156 C 80 105.445312 78.75 104.722656 78.75 104.722656 C 78.75 104.722656 80 104 80.875 103.15625 C 81.75 102.316406 82.5 101.109375 82.5 101.109375 "/>
<path style=" stroke:none;fill-rule:nonzero;fill:rgb(100%,33.333334%,33.333334%);fill-opacity:1;" d="M 7.5 21.667969 C 7.5 21.667969 8.25 22.871094 9.125 23.714844 C 10 24.554688 11.25 25.277344 11.25 25.277344 C 11.25 25.277344 10 26 9.125 26.84375 C 8.25 27.683594 7.5 28.890625 7.5 28.890625 C 7.5 28.890625 6.75 27.683594 5.875 26.84375 C 5 26 3.75 25.277344 3.75 25.277344 C 3.75 25.277344 5 24.554688 5.875 23.714844 C 6.75 22.871094 7.5 21.667969 7.5 21.667969 "/>
<path style=" stroke:none;fill-rule:nonzero;fill:rgb(100%,33.333334%,33.333334%);fill-opacity:1;" d="M 7.5 7.222656 C 6.113281 7.222656 5 8.296875 5 9.628906 L 5 10.832031 C 5 11.554688 5.332031 12.199219 5.851562 12.640625 C 5.332031 13.078125 5 13.722656 5 14.445312 L 5 16.851562 C 5 18.1875 6.113281 19.257812 7.5 19.257812 C 8.886719 19.257812 10 18.1875 10 16.851562 L 10 14.445312 C 10 13.722656 9.667969 13.078125 9.148438 12.640625 C 9.667969 12.199219 10 11.554688 10 10.832031 L 10 9.628906 C 10 8.296875 8.886719 7.222656 7.5 7.222656 M 7.5 8.425781 C 8.191406 8.425781 8.75 8.960938 8.75 9.628906 L 8.75 10.832031 C 8.75 11.5 8.191406 12.035156 7.5 12.035156 C 6.808594 12.035156 6.25 11.5 6.25 10.832031 L 6.25 9.628906 C 6.25 8.960938 6.808594 8.425781 7.5 8.425781 M 7.5 13.242188 C 8.191406 13.242188 8.75 13.777344 8.75 14.445312 L 8.75 16.851562 C 8.75 17.519531 8.191406 18.054688 7.5 18.054688 C 6.808594 18.054688 6.25 17.519531 6.25 16.851562 L 6.25 14.445312 C 6.25 13.777344 6.808594 13.242188 7.5 13.242188 "/>
<path style=" stroke:none;fill-rule:nonzero;fill:rgb(100%,33.333334%,33.333334%);fill-opacity:1;" d="M 82.5 122.777344 C 81.113281 122.777344 80 121.703125 80 120.371094 L 80 119.167969 C 80 118.445312 80.332031 117.800781 80.851562 117.359375 C 80.332031 116.921875 80 116.277344 80 115.554688 L 80 113.148438 C 80 111.8125 81.113281 110.742188 82.5 110.742188 C 83.886719 110.742188 85 111.8125 85 113.148438 L 85 115.554688 C 85 116.277344 84.667969 116.921875 84.148438 117.359375 C 84.667969 117.800781 85 118.445312 85 119.167969 L 85 120.371094 C 85 121.703125 83.886719 122.777344 82.5 122.777344 M 82.5 121.574219 C 83.191406 121.574219 83.75 121.039062 83.75 120.371094 L 83.75 119.167969 C 83.75 118.5 83.191406 117.964844 82.5 117.964844 C 81.808594 117.964844 81.25 118.5 81.25 119.167969 L 81.25 120.371094 C 81.25 121.039062 81.808594 121.574219 82.5 121.574219 M 82.5 116.757812 C 83.191406 116.757812 83.75 116.222656 83.75 115.554688 L 83.75 113.148438 C 83.75 112.480469 83.191406 111.945312 82.5 111.945312 C 81.808594 111.945312 81.25 112.480469 81.25 113.148438 L 81.25 115.554688 C 81.25 116.222656 81.808594 116.757812 82.5 116.757812 "/>
</g>
</svg>
