<?xml version="1.0" encoding="UTF-8"?>
<svg xmlns="http://www.w3.org/2000/svg" xmlns:xlink="http://www.w3.org/1999/xlink" width="90px" height="130px" viewBox="0 0 90 130" version="1.1">
<g id="surface1">
<path style="fill-rule:nonzero;fill:rgb(100%,100%,100%);fill-opacity:1;stroke-width:1;stroke-linecap:butt;stroke-linejoin:miter;stroke:rgb(0%,0%,0%);stroke-opacity:1;stroke-miterlimit:4;" d="M 30.4375 512.86299 L 329.5625 512.86299 C 346.09375 512.86299 359.5 526.265634 359.5 542.799889 L 359.5 1021.920082 C 359.5 1038.454336 346.09375 1051.856981 329.5625 1051.856981 L 30.4375 1051.856981 C 13.90625 1051.856981 0.5 1038.454336 0.5 1021.920082 L 0.5 542.799889 C 0.5 526.265634 13.90625 512.86299 30.4375 512.86299 Z M 30.4375 512.86299 " transform="matrix(0.25,0,0,0.240741,0,-123.345922)"/>
<path style=" stroke:none;fill-rule:nonzero;fill:rgb(100%,33.333334%,33.333334%);fill-opacity:1;" d="M 25 12.035156 C 25 12.035156 27 15.246094 29.332031 17.492188 C 31.667969 19.742188 35 21.667969 35 21.667969 C 35 21.667969 31.667969 23.59375 29.332031 25.839844 C 27 28.085938 25 31.296875 25 31.296875 C 25 31.296875 23 28.085938 20.667969 25.839844 C 18.332031 23.59375 15 21.667969 15 21.667969 C 15 21.667969 18.332031 19.742188 20.667969 17.492188 C 23 15.246094 25 12.035156 25 12.035156 "/>
<path style=" stroke:none;fill-rule:nonzero;fill:rgb(100%,33.333334%,33.333334%);fill-opacity:1;" d="M 65 12.035156 C 65 12.035156 67 15.246094 69.332031 17.492188 C 71.667969 19.742188 75 21.667969 75 21.667969 C 75 21.667969 71.667969 23.59375 69.332031 25.839844 C 67 28.085938 65 31.296875 65 31.296875 C 65 31.296875 63 28.085938 60.667969 25.839844 C 58.332031 23.59375 55 21.667969 55 21.667969 C 55 21.667969 58.332031 19.742188 60.667969 17.492188 C 63 15.246094 65 12.035156 65 12.035156 "/>
<path style=" stroke:none;fill-rule:nonzero;fill:rgb(100%,33.333334%,33.333334%);fill-opacity:1;" d="M 25 98.703125 C 25 98.703125 27 101.914062 29.332031 104.160156 C 31.667969 106.40625 35 108.332031 35 108.332031 C 35 108.332031 31.667969 110.257812 29.332031 112.507812 C 27 114.753906 25 117.964844 25 117.964844 C 25 117.964844 23 114.753906 20.667969 112.507812 C 18.332031 110.257812 15 108.332031 15 108.332031 C 15 108.332031 18.332031 106.40625 20.667969 104.160156 C 23 101.914062 25 98.703125 25 98.703125 "/>
<path style=" stroke:none;fill-rule:nonzero;fill:rgb(100%,33.333334%,33.333334%);fill-opacity:1;" d="M 65 98.703125 C 65 98.703125 67 101.914062 69.332031 104.160156 C 71.667969 106.40625 75 108.332031 75 108.332031 C 75 108.332031 71.667969 110.257812 69.332031 112.507812 C 67 114.753906 65 117.964844 65 117.964844 C 65 117.964844 63 114.753906 60.667969 112.507812 C 58.332031 110.257812 55 108.332031 55 108.332031 C 55 108.332031 58.332031 106.40625 60.667969 104.160156 C 63 101.914062 65 98.703125 65 98.703125 "/>
<path style=" stroke:none;fill-rule:nonzero;fill:rgb(100%,33.333334%,33.333334%);fill-opacity:1;" d="M 82.5 101.109375 C 82.5 101.109375 83.25 102.316406 84.125 103.15625 C 85 104 86.25 104.722656 86.25 104.722656 C 86.25 104.722656 85 105.445312 84.125 106.285156 C 83.25 107.128906 82.5 108.332031 82.5 108.332031 C 82.5 108.332031 81.75 107.128906 80.875 106.285156 C 80 105.445312 78.75 104.722656 78.75 104.722656 C 78.75 104.722656 80 104 80.875 103.15625 C 81.75 102.316406 82.5 101.109375 82.5 101.109375 "/>
<path style=" stroke:none;fill-rule:nonzero;fill:rgb(100%,33.333334%,33.333334%);fill-opacity:1;" d="M 7.5 21.667969 C 7.5 21.667969 8.25 22.871094 9.125 23.714844 C 10 24.554688 11.25 25.277344 11.25 25.277344 C 11.25 25.277344 10 26 9.125 26.84375 C 8.25 27.683594 7.5 28.890625 7.5 28.890625 C 7.5 28.890625 6.75 27.683594 5.875 26.84375 C 5 26 3.75 25.277344 3.75 25.277344 C 3.75 25.277344 5 24.554688 5.875 23.714844 C 6.75 22.871094 7.5 21.667969 7.5 21.667969 "/>
<path style=" stroke:none;fill-rule:nonzero;fill:rgb(100%,33.333334%,33.333334%);fill-opacity:1;" d="M 7.5 7.222656 L 5 15.648438 L 5 16.851562 L 8 16.851562 L 8 19.257812 L 9.25 19.257812 L 9.25 16.851562 L 10 16.851562 L 10 15.648438 L 9.25 15.648438 L 9.25 12.035156 L 8 12.035156 L 8 15.648438 L 6.300781 15.648438 L 8.800781 7.222656 Z M 7.5 7.222656 "/>
<path style=" stroke:none;fill-rule:nonzero;fill:rgb(100%,33.333334%,33.333334%);fill-opacity:1;" d="M 82.5 122.777344 L 85 114.351562 L 85 113.148438 L 82 113.148438 L 82 110.742188 L 80.75 110.742188 L 80.75 113.148438 L 80 113.148438 L 80 114.351562 L 80.75 114.351562 L 80.75 117.964844 L 82 117.964844 L 82 114.351562 L 83.699219 114.351562 L 81.199219 122.777344 Z M 82.5 122.777344 "/>
</g>
</svg>
