<?xml version="1.0" encoding="UTF-8"?>
<svg xmlns="http://www.w3.org/2000/svg" xmlns:xlink="http://www.w3.org/1999/xlink" width="87pt" height="130pt" viewBox="0 0 87 130" version="1.1">
<g id="surface1">
<path style="fill-rule:nonzero;fill:rgb(100%,100%,100%);fill-opacity:1;stroke-width:1;stroke-linecap:butt;stroke-linejoin:miter;stroke:rgb(0%,0%,0%);stroke-opacity:1;stroke-miterlimit:4;" d="M 60.436422 -1227.133221 L 359.563578 -1227.133221 C 376.099138 -1227.133221 389.498922 -1213.730577 389.498922 -1197.196322 L 389.498922 -718.07613 C 389.498922 -701.541875 376.099138 -688.139231 359.563578 -688.139231 L 60.436422 -688.139231 C 43.900862 -688.139231 30.501078 -701.541875 30.501078 -718.07613 L 30.501078 -1197.196322 C 30.501078 -1213.730577 43.900862 -1227.133221 60.436422 -1227.133221 Z M 60.436422 -1227.133221 " transform="matrix(0.241667,0,0,0.240741,-7.25,295.538148)"/>
<path style=" stroke:none;fill-rule:nonzero;fill:rgb(100%,33.333333%,33.333333%);fill-opacity:1;" d="M 4.832031 7.21875 L 4.832031 8.421875 L 6.671875 8.421875 L 6.671875 19.253906 L 7.878906 19.253906 L 7.878906 8.421875 L 9.667969 8.421875 L 9.667969 7.21875 Z M 4.832031 7.21875 "/>
<path style=" stroke:none;fill-rule:nonzero;fill:rgb(100%,33.333333%,33.333333%);fill-opacity:1;" d="M 43.5 55.367188 C 43.5 55.367188 45.433594 58.574219 47.6875 60.824219 C 49.945312 63.070312 53.167969 64.996094 53.167969 64.996094 C 53.167969 64.996094 49.945312 66.921875 47.6875 69.167969 C 45.433594 71.414062 43.5 74.625 43.5 74.625 C 43.5 74.625 41.566406 71.414062 39.3125 69.167969 C 37.054688 66.921875 33.832031 64.996094 33.832031 64.996094 C 33.832031 64.996094 37.054688 63.070312 39.3125 60.824219 C 41.566406 58.574219 43.5 55.367188 43.5 55.367188 "/>
<path style=" stroke:none;fill-rule:nonzero;fill:rgb(100%,33.333333%,33.333333%);fill-opacity:1;" d="M 79.75 101.105469 C 79.75 101.105469 80.476562 102.308594 81.320312 103.152344 C 82.167969 103.996094 83.375 104.71875 83.375 104.71875 C 83.375 104.71875 82.167969 105.441406 81.320312 106.28125 C 80.476562 107.125 79.75 108.328125 79.75 108.328125 C 79.75 108.328125 79.023438 107.125 78.179688 106.28125 C 77.332031 105.441406 76.125 104.71875 76.125 104.71875 C 76.125 104.71875 77.332031 103.996094 78.179688 103.152344 C 79.023438 102.308594 79.75 101.105469 79.75 101.105469 "/>
<path style=" stroke:none;fill-rule:nonzero;fill:rgb(100%,33.333333%,33.333333%);fill-opacity:1;" d="M 7.25 21.660156 C 7.25 21.660156 7.976562 22.867188 8.820312 23.707031 C 9.667969 24.550781 10.875 25.273438 10.875 25.273438 C 10.875 25.273438 9.667969 25.996094 8.820312 26.835938 C 7.976562 27.679688 7.25 28.882812 7.25 28.882812 C 7.25 28.882812 6.523438 27.679688 5.679688 26.835938 C 4.832031 25.996094 3.625 25.273438 3.625 25.273438 C 3.625 25.273438 4.832031 24.550781 5.679688 23.707031 C 6.523438 22.867188 7.25 21.660156 7.25 21.660156 "/>
<path style=" stroke:none;fill-rule:nonzero;fill:rgb(100%,33.333333%,33.333333%);fill-opacity:1;" d="M 77.332031 122.773438 L 77.332031 121.570312 L 79.171875 121.570312 L 79.171875 110.734375 L 80.378906 110.734375 L 80.378906 121.570312 L 82.167969 121.570312 L 82.167969 122.773438 Z M 77.332031 122.773438 "/>
</g>
</svg>
