<?xml version="1.0" encoding="UTF-8"?>
<svg xmlns="http://www.w3.org/2000/svg" xmlns:xlink="http://www.w3.org/1999/xlink" width="87pt" height="130pt" viewBox="0 0 87 130" version="1.1">
<g id="surface1">
<path style="fill-rule:nonzero;fill:rgb(100%,100%,100%);fill-opacity:1;stroke-width:1;stroke-linecap:butt;stroke-linejoin:miter;stroke:rgb(0%,0%,0%);stroke-opacity:1;stroke-miterlimit:4;" d="M 30.436422 512.863005 L 329.563578 512.863005 C 346.099138 512.863005 359.498922 526.265649 359.498922 542.799904 L 359.498922 1021.920096 C 359.498922 1038.454351 346.099138 1051.856995 329.563578 1051.856995 L 30.436422 1051.856995 C 13.900862 1051.856995 0.501078 1038.454351 0.501078 1021.920096 L 0.501078 542.799904 C 0.501078 526.265649 13.900862 512.863005 30.436422 512.863005 Z M 30.436422 512.863005 " transform="matrix(0.241667,0,0,0.240741,0,-123.345926)"/>
<path style=" stroke:none;fill-rule:nonzero;fill:rgb(100%,33.333333%,33.333333%);fill-opacity:1;" d="M 3.625 7.222656 L 2.417969 8.90625 L 2.417969 10.59375 L 3.625 8.90625 L 3.625 19.257812 L 4.832031 19.257812 L 4.832031 7.222656 L 3.625 7.222656 "/>
<path style=" stroke:none;fill-rule:nonzero;fill:rgb(100%,33.333333%,33.333333%);fill-opacity:1;" d="M 8.457031 7.222656 C 7.121094 7.222656 6.042969 8.296875 6.042969 9.628906 L 6.042969 16.851562 C 6.042969 18.1875 7.121094 19.257812 8.457031 19.257812 C 9.796875 19.257812 10.875 18.1875 10.875 16.851562 L 10.875 9.628906 C 10.875 8.296875 9.796875 7.222656 8.457031 7.222656 M 8.457031 8.425781 C 9.128906 8.425781 9.667969 8.964844 9.667969 9.628906 L 9.667969 16.851562 C 9.667969 17.519531 9.128906 18.054688 8.457031 18.054688 C 7.789062 18.054688 7.25 17.519531 7.25 16.851562 L 7.25 9.628906 C 7.25 8.964844 7.789062 8.425781 8.457031 8.425781 "/>
<path style=" stroke:none;fill-rule:nonzero;fill:rgb(100%,33.333333%,33.333333%);fill-opacity:1;" d="M 83.375 122.777344 L 84.582031 121.09375 L 84.582031 119.40625 L 83.375 121.09375 L 83.375 110.742188 L 82.167969 110.742188 L 82.167969 122.777344 L 83.375 122.777344 "/>
<path style=" stroke:none;fill-rule:nonzero;fill:rgb(100%,33.333333%,33.333333%);fill-opacity:1;" d="M 78.542969 122.777344 C 79.878906 122.777344 80.957031 121.703125 80.957031 120.371094 L 80.957031 113.148438 C 80.957031 111.8125 79.878906 110.742188 78.542969 110.742188 C 77.203125 110.742188 76.125 111.8125 76.125 113.148438 L 76.125 120.371094 C 76.125 121.703125 77.203125 122.777344 78.542969 122.777344 M 78.542969 121.574219 C 77.871094 121.574219 77.332031 121.039062 77.332031 120.371094 L 77.332031 113.148438 C 77.332031 112.480469 77.871094 111.945312 78.542969 111.945312 C 79.210938 111.945312 79.75 112.480469 79.75 113.148438 L 79.75 120.371094 C 79.75 121.039062 79.210938 121.574219 78.542969 121.574219 "/>
<path style=" stroke:none;fill-rule:nonzero;fill:rgb(100%,33.333333%,33.333333%);fill-opacity:1;" d="M 24.167969 12.035156 C 24.167969 12.035156 26.101562 15.246094 28.355469 17.492188 C 30.609375 19.742188 33.832031 21.667969 33.832031 21.667969 C 33.832031 21.667969 30.609375 23.59375 28.355469 25.839844 C 26.101562 28.085938 24.167969 31.296875 24.167969 31.296875 C 24.167969 31.296875 22.234375 28.085938 19.976562 25.839844 C 17.722656 23.59375 14.5 21.667969 14.5 21.667969 C 14.5 21.667969 17.722656 19.742188 19.976562 17.492188 C 22.234375 15.246094 24.167969 12.035156 24.167969 12.035156 "/>
<path style=" stroke:none;fill-rule:nonzero;fill:rgb(100%,33.333333%,33.333333%);fill-opacity:1;" d="M 79.75 101.109375 C 79.75 101.109375 80.476562 102.316406 81.320312 103.15625 C 82.167969 104 83.375 104.722656 83.375 104.722656 C 83.375 104.722656 82.167969 105.445312 81.320312 106.285156 C 80.476562 107.128906 79.75 108.332031 79.75 108.332031 C 79.75 108.332031 79.023438 107.128906 78.179688 106.285156 C 77.332031 105.445312 76.125 104.722656 76.125 104.722656 C 76.125 104.722656 77.332031 104 78.179688 103.15625 C 79.023438 102.316406 79.75 101.109375 79.75 101.109375 "/>
<path style=" stroke:none;fill-rule:nonzero;fill:rgb(100%,33.333333%,33.333333%);fill-opacity:1;" d="M 7.25 21.667969 C 7.25 21.667969 7.976562 22.871094 8.820312 23.714844 C 9.667969 24.554688 10.875 25.277344 10.875 25.277344 C 10.875 25.277344 9.667969 26 8.820312 26.84375 C 7.976562 27.683594 7.25 28.890625 7.25 28.890625 C 7.25 28.890625 6.523438 27.683594 5.679688 26.84375 C 4.832031 26 3.625 25.277344 3.625 25.277344 C 3.625 25.277344 4.832031 24.554688 5.679688 23.714844 C 6.523438 22.871094 7.25 21.667969 7.25 21.667969 "/>
<path style=" stroke:none;fill-rule:nonzero;fill:rgb(100%,33.333333%,33.333333%);fill-opacity:1;" d="M 62.832031 12.035156 C 62.832031 12.035156 64.765625 15.246094 67.023438 17.492188 C 69.277344 19.742188 72.5 21.667969 72.5 21.667969 C 72.5 21.667969 69.277344 23.59375 67.023438 25.839844 C 64.765625 28.085938 62.832031 31.296875 62.832031 31.296875 C 62.832031 31.296875 60.898438 28.085938 58.644531 25.839844 C 56.390625 23.59375 53.167969 21.667969 53.167969 21.667969 C 53.167969 21.667969 56.390625 19.742188 58.644531 17.492188 C 60.898438 15.246094 62.832031 12.035156 62.832031 12.035156 "/>
<path style=" stroke:none;fill-rule:nonzero;fill:rgb(100%,33.333333%,33.333333%);fill-opacity:1;" d="M 62.832031 40.925781 C 62.832031 40.925781 64.765625 44.136719 67.023438 46.382812 C 69.277344 48.628906 72.5 50.554688 72.5 50.554688 C 72.5 50.554688 69.277344 52.480469 67.023438 54.726562 C 64.765625 56.976562 62.832031 60.183594 62.832031 60.183594 C 62.832031 60.183594 60.898438 56.976562 58.644531 54.726562 C 56.390625 52.480469 53.167969 50.554688 53.167969 50.554688 C 53.167969 50.554688 56.390625 48.628906 58.644531 46.382812 C 60.898438 44.136719 62.832031 40.925781 62.832031 40.925781 "/>
<path style=" stroke:none;fill-rule:nonzero;fill:rgb(100%,33.333333%,33.333333%);fill-opacity:1;" d="M 62.832031 69.816406 C 62.832031 69.816406 64.765625 73.023438 67.023438 75.273438 C 69.277344 77.519531 72.5 79.445312 72.5 79.445312 C 72.5 79.445312 69.277344 81.371094 67.023438 83.617188 C 64.765625 85.863281 62.832031 89.074219 62.832031 89.074219 C 62.832031 89.074219 60.898438 85.863281 58.644531 83.617188 C 56.390625 81.371094 53.167969 79.445312 53.167969 79.445312 C 53.167969 79.445312 56.390625 77.519531 58.644531 75.273438 C 60.898438 73.023438 62.832031 69.816406 62.832031 69.816406 "/>
<path style=" stroke:none;fill-rule:nonzero;fill:rgb(100%,33.333333%,33.333333%);fill-opacity:1;" d="M 62.832031 98.703125 C 62.832031 98.703125 64.765625 101.914062 67.023438 104.160156 C 69.277344 106.40625 72.5 108.332031 72.5 108.332031 C 72.5 108.332031 69.277344 110.257812 67.023438 112.507812 C 64.765625 114.753906 62.832031 117.964844 62.832031 117.964844 C 62.832031 117.964844 60.898438 114.753906 58.644531 112.507812 C 56.390625 110.257812 53.167969 108.332031 53.167969 108.332031 C 53.167969 108.332031 56.390625 106.40625 58.644531 104.160156 C 60.898438 101.914062 62.832031 98.703125 62.832031 98.703125 "/>
<path style=" stroke:none;fill-rule:nonzero;fill:rgb(100%,33.333333%,33.333333%);fill-opacity:1;" d="M 24.167969 40.925781 C 24.167969 40.925781 26.101562 44.136719 28.355469 46.382812 C 30.609375 48.628906 33.832031 50.554688 33.832031 50.554688 C 33.832031 50.554688 30.609375 52.480469 28.355469 54.726562 C 26.101562 56.976562 24.167969 60.183594 24.167969 60.183594 C 24.167969 60.183594 22.234375 56.976562 19.976562 54.726562 C 17.722656 52.480469 14.5 50.554688 14.5 50.554688 C 14.5 50.554688 17.722656 48.628906 19.976562 46.382812 C 22.234375 44.136719 24.167969 40.925781 24.167969 40.925781 "/>
<path style=" stroke:none;fill-rule:nonzero;fill:rgb(100%,33.333333%,33.333333%);fill-opacity:1;" d="M 24.167969 69.816406 C 24.167969 69.816406 26.101562 73.023438 28.355469 75.273438 C 30.609375 77.519531 33.832031 79.445312 33.832031 79.445312 C 33.832031 79.445312 30.609375 81.371094 28.355469 83.617188 C 26.101562 85.863281 24.167969 89.074219 24.167969 89.074219 C 24.167969 89.074219 22.234375 85.863281 19.976562 83.617188 C 17.722656 81.371094 14.5 79.445312 14.5 79.445312 C 14.5 79.445312 17.722656 77.519531 19.976562 75.273438 C 22.234375 73.023438 24.167969 69.816406 24.167969 69.816406 "/>
<path style=" stroke:none;fill-rule:nonzero;fill:rgb(100%,33.333333%,33.333333%);fill-opacity:1;" d="M 24.167969 98.703125 C 24.167969 98.703125 26.101562 101.914062 28.355469 104.160156 C 30.609375 106.40625 33.832031 108.332031 33.832031 108.332031 C 33.832031 108.332031 30.609375 110.257812 28.355469 112.507812 C 26.101562 114.753906 24.167969 117.964844 24.167969 117.964844 C 24.167969 117.964844 22.234375 114.753906 19.976562 112.507812 C 17.722656 110.257812 14.5 108.332031 14.5 108.332031 C 14.5 108.332031 17.722656 106.40625 19.976562 104.160156 C 22.234375 101.914062 24.167969 98.703125 24.167969 98.703125 "/>
<path style=" stroke:none;fill-rule:nonzero;fill:rgb(100%,33.333333%,33.333333%);fill-opacity:1;" d="M 43.5 26.480469 C 43.5 26.480469 45.433594 29.691406 47.6875 31.9375 C 49.945312 34.183594 53.167969 36.109375 53.167969 36.109375 C 53.167969 36.109375 49.945312 38.035156 47.6875 40.285156 C 45.433594 42.53125 43.5 45.742188 43.5 45.742188 C 43.5 45.742188 41.566406 42.53125 39.3125 40.285156 C 37.054688 38.035156 33.832031 36.109375 33.832031 36.109375 C 33.832031 36.109375 37.054688 34.183594 39.3125 31.9375 C 41.566406 29.691406 43.5 26.480469 43.5 26.480469 "/>
<path style=" stroke:none;fill-rule:nonzero;fill:rgb(100%,33.333333%,33.333333%);fill-opacity:1;" d="M 43.5 84.257812 C 43.5 84.257812 45.433594 87.46875 47.6875 89.714844 C 49.945312 91.964844 53.167969 93.890625 53.167969 93.890625 C 53.167969 93.890625 49.945312 95.816406 47.6875 98.0625 C 45.433594 100.308594 43.5 103.519531 43.5 103.519531 C 43.5 103.519531 41.566406 100.308594 39.3125 98.0625 C 37.054688 95.816406 33.832031 93.890625 33.832031 93.890625 C 33.832031 93.890625 37.054688 91.964844 39.3125 89.714844 C 41.566406 87.46875 43.5 84.257812 43.5 84.257812 "/>
</g>
</svg>
