<?xml version="1.0" encoding="UTF-8"?>
<svg xmlns="http://www.w3.org/2000/svg" xmlns:xlink="http://www.w3.org/1999/xlink" width="90px" height="130px" viewBox="0 0 90 130" version="1.1">
<g id="surface1">
<path style="fill-rule:nonzero;fill:rgb(100%,100%,100%);fill-opacity:1;stroke-width:1;stroke-linecap:butt;stroke-linejoin:miter;stroke:rgb(0%,0%,0%);stroke-opacity:1;stroke-miterlimit:4;" d="M 30.4375 512.86299 L 329.5625 512.86299 C 346.09375 512.86299 359.5 526.265634 359.5 542.799889 L 359.5 1021.920082 C 359.5 1038.454336 346.09375 1051.856981 329.5625 1051.856981 L 30.4375 1051.856981 C 13.90625 1051.856981 0.5 1038.454336 0.5 1021.920082 L 0.5 542.799889 C 0.5 526.265634 13.90625 512.86299 30.4375 512.86299 Z M 30.4375 512.86299 " transform="matrix(0.25,0,0,0.240741,0,-123.345922)"/>
<path style=" stroke:none;fill-rule:nonzero;fill:rgb(100%,33.333334%,33.333334%);fill-opacity:1;" d="M 45 12.035156 C 45 12.035156 47 15.246094 49.332031 17.492188 C 51.667969 19.742188 55 21.667969 55 21.667969 C 55 21.667969 51.667969 23.59375 49.332031 25.839844 C 47 28.085938 45 31.296875 45 31.296875 C 45 31.296875 43 28.085938 40.667969 25.839844 C 38.332031 23.59375 35 21.667969 35 21.667969 C 35 21.667969 38.332031 19.742188 40.667969 17.492188 C 43 15.246094 45 12.035156 45 12.035156 "/>
<path style=" stroke:none;fill-rule:nonzero;fill:rgb(100%,33.333334%,33.333334%);fill-opacity:1;" d="M 45 98.703125 C 45 98.703125 47 101.914062 49.332031 104.160156 C 51.667969 106.40625 55 108.332031 55 108.332031 C 55 108.332031 51.667969 110.257812 49.332031 112.507812 C 47 114.753906 45 117.964844 45 117.964844 C 45 117.964844 43 114.753906 40.667969 112.507812 C 38.332031 110.257812 35 108.332031 35 108.332031 C 35 108.332031 38.332031 106.40625 40.667969 104.160156 C 43 101.914062 45 98.703125 45 98.703125 "/>
<path style=" stroke:none;fill-rule:nonzero;fill:rgb(100%,33.333334%,33.333334%);fill-opacity:1;" d="M 82.5 101.109375 C 82.5 101.109375 83.25 102.316406 84.125 103.15625 C 85 104 86.25 104.722656 86.25 104.722656 C 86.25 104.722656 85 105.445312 84.125 106.285156 C 83.25 107.128906 82.5 108.332031 82.5 108.332031 C 82.5 108.332031 81.75 107.128906 80.875 106.285156 C 80 105.445312 78.75 104.722656 78.75 104.722656 C 78.75 104.722656 80 104 80.875 103.15625 C 81.75 102.316406 82.5 101.109375 82.5 101.109375 "/>
<path style=" stroke:none;fill-rule:nonzero;fill:rgb(100%,33.333334%,33.333334%);fill-opacity:1;" d="M 7.5 21.667969 C 7.5 21.667969 8.25 22.871094 9.125 23.714844 C 10 24.554688 11.25 25.277344 11.25 25.277344 C 11.25 25.277344 10 26 9.125 26.84375 C 8.25 27.683594 7.5 28.890625 7.5 28.890625 C 7.5 28.890625 6.75 27.683594 5.875 26.84375 C 5 26 3.75 25.277344 3.75 25.277344 C 3.75 25.277344 5 24.554688 5.875 23.714844 C 6.75 22.871094 7.5 21.667969 7.5 21.667969 "/>
<path style=" stroke:none;fill-rule:nonzero;fill:rgb(100%,33.333334%,33.333334%);fill-opacity:1;" d="M 7.5 7.222656 C 6.113281 7.222656 5 8.296875 5 9.628906 L 5 10.832031 L 6.25 10.832031 L 6.25 9.628906 C 6.25 8.960938 6.808594 8.425781 7.5 8.425781 C 8.191406 8.425781 8.75 8.960938 8.75 9.628906 L 8.75 10.832031 C 8.75 11.105469 8.65625 11.570312 8.5 11.773438 C 7.382812 13.964844 6.179688 15.894531 5 18.054688 L 5 19.257812 L 10 19.257812 L 10 16.851562 L 8.75 16.851562 L 8.75 18.054688 L 6.375 18.054688 C 7.496094 16.148438 8.429688 14.308594 9.5 12.375 C 9.8125 11.972656 10 11.375 10 10.832031 L 10 9.628906 C 10 8.296875 8.886719 7.222656 7.5 7.222656 "/>
<path style=" stroke:none;fill-rule:nonzero;fill:rgb(100%,33.333334%,33.333334%);fill-opacity:1;" d="M 82.5 122.777344 C 83.886719 122.777344 85 121.703125 85 120.371094 L 85 119.167969 L 83.75 119.167969 L 83.75 120.371094 C 83.75 121.039062 83.191406 121.574219 82.5 121.574219 C 81.808594 121.574219 81.25 121.039062 81.25 120.371094 L 81.25 119.167969 C 81.25 118.894531 81.34375 118.429688 81.5 118.226562 C 82.617188 116.035156 83.820312 114.105469 85 111.945312 L 85 110.742188 L 80 110.742188 L 80 113.148438 L 81.25 113.148438 L 81.25 111.945312 L 83.625 111.945312 C 82.503906 113.851562 81.570312 115.691406 80.5 117.625 C 80.1875 118.027344 80 118.625 80 119.167969 L 80 120.371094 C 80 121.703125 81.113281 122.777344 82.5 122.777344 "/>
</g>
</svg>
