<?xml version="1.0" encoding="UTF-8"?>
<svg xmlns="http://www.w3.org/2000/svg" xmlns:xlink="http://www.w3.org/1999/xlink" width="87pt" height="130pt" viewBox="0 0 87 130" version="1.1">
<g id="surface1">
<path style="fill-rule:nonzero;fill:rgb(100%,100%,100%);fill-opacity:1;stroke-width:1;stroke-linecap:butt;stroke-linejoin:miter;stroke:rgb(0%,0%,0%);stroke-opacity:1;stroke-miterlimit:4;" d="M 30.436422 512.863005 L 329.563578 512.863005 C 346.099138 512.863005 359.498922 526.265649 359.498922 542.799904 L 359.498922 1021.920096 C 359.498922 1038.454351 346.099138 1051.856995 329.563578 1051.856995 L 30.436422 1051.856995 C 13.900862 1051.856995 0.501078 1038.454351 0.501078 1021.920096 L 0.501078 542.799904 C 0.501078 526.265649 13.900862 512.863005 30.436422 512.863005 Z M 30.436422 512.863005 " transform="matrix(0.241667,0,0,0.240741,0,-123.345926)"/>
<path style=" stroke:none;fill-rule:nonzero;fill:rgb(100%,33.333333%,33.333333%);fill-opacity:1;" d="M 24.167969 12.035156 C 24.167969 12.035156 26.101562 15.246094 28.355469 17.492188 C 30.609375 19.742188 33.832031 21.667969 33.832031 21.667969 C 33.832031 21.667969 30.609375 23.59375 28.355469 25.839844 C 26.101562 28.085938 24.167969 31.296875 24.167969 31.296875 C 24.167969 31.296875 22.234375 28.085938 19.976562 25.839844 C 17.722656 23.59375 14.5 21.667969 14.5 21.667969 C 14.5 21.667969 17.722656 19.742188 19.976562 17.492188 C 22.234375 15.246094 24.167969 12.035156 24.167969 12.035156 "/>
<path style=" stroke:none;fill-rule:nonzero;fill:rgb(100%,33.333333%,33.333333%);fill-opacity:1;" d="M 62.832031 12.035156 C 62.832031 12.035156 64.765625 15.246094 67.023438 17.492188 C 69.277344 19.742188 72.5 21.667969 72.5 21.667969 C 72.5 21.667969 69.277344 23.59375 67.023438 25.839844 C 64.765625 28.085938 62.832031 31.296875 62.832031 31.296875 C 62.832031 31.296875 60.898438 28.085938 58.644531 25.839844 C 56.390625 23.59375 53.167969 21.667969 53.167969 21.667969 C 53.167969 21.667969 56.390625 19.742188 58.644531 17.492188 C 60.898438 15.246094 62.832031 12.035156 62.832031 12.035156 "/>
<path style=" stroke:none;fill-rule:nonzero;fill:rgb(100%,33.333333%,33.333333%);fill-opacity:1;" d="M 24.167969 98.703125 C 24.167969 98.703125 26.101562 101.914062 28.355469 104.160156 C 30.609375 106.40625 33.832031 108.332031 33.832031 108.332031 C 33.832031 108.332031 30.609375 110.257812 28.355469 112.507812 C 26.101562 114.753906 24.167969 117.964844 24.167969 117.964844 C 24.167969 117.964844 22.234375 114.753906 19.976562 112.507812 C 17.722656 110.257812 14.5 108.332031 14.5 108.332031 C 14.5 108.332031 17.722656 106.40625 19.976562 104.160156 C 22.234375 101.914062 24.167969 98.703125 24.167969 98.703125 "/>
<path style=" stroke:none;fill-rule:nonzero;fill:rgb(100%,33.333333%,33.333333%);fill-opacity:1;" d="M 62.832031 98.703125 C 62.832031 98.703125 64.765625 101.914062 67.023438 104.160156 C 69.277344 106.40625 72.5 108.332031 72.5 108.332031 C 72.5 108.332031 69.277344 110.257812 67.023438 112.507812 C 64.765625 114.753906 62.832031 117.964844 62.832031 117.964844 C 62.832031 117.964844 60.898438 114.753906 58.644531 112.507812 C 56.390625 110.257812 53.167969 108.332031 53.167969 108.332031 C 53.167969 108.332031 56.390625 106.40625 58.644531 104.160156 C 60.898438 101.914062 62.832031 98.703125 62.832031 98.703125 "/>
<path style=" stroke:none;fill-rule:nonzero;fill:rgb(100%,33.333333%,33.333333%);fill-opacity:1;" d="M 79.75 101.109375 C 79.75 101.109375 80.476562 102.316406 81.320312 103.15625 C 82.167969 104 83.375 104.722656 83.375 104.722656 C 83.375 104.722656 82.167969 105.445312 81.320312 106.285156 C 80.476562 107.128906 79.75 108.332031 79.75 108.332031 C 79.75 108.332031 79.023438 107.128906 78.179688 106.285156 C 77.332031 105.445312 76.125 104.722656 76.125 104.722656 C 76.125 104.722656 77.332031 104 78.179688 103.15625 C 79.023438 102.316406 79.75 101.109375 79.75 101.109375 "/>
<path style=" stroke:none;fill-rule:nonzero;fill:rgb(100%,33.333333%,33.333333%);fill-opacity:1;" d="M 7.25 21.667969 C 7.25 21.667969 7.976562 22.871094 8.820312 23.714844 C 9.667969 24.554688 10.875 25.277344 10.875 25.277344 C 10.875 25.277344 9.667969 26 8.820312 26.84375 C 7.976562 27.683594 7.25 28.890625 7.25 28.890625 C 7.25 28.890625 6.523438 27.683594 5.679688 26.84375 C 4.832031 26 3.625 25.277344 3.625 25.277344 C 3.625 25.277344 4.832031 24.554688 5.679688 23.714844 C 6.523438 22.871094 7.25 21.667969 7.25 21.667969 "/>
<path style=" stroke:none;fill-rule:nonzero;fill:rgb(100%,33.333333%,33.333333%);fill-opacity:1;" d="M 7.25 7.222656 L 4.832031 15.648438 L 4.832031 16.851562 L 7.734375 16.851562 L 7.734375 19.257812 L 8.941406 19.257812 L 8.941406 16.851562 L 9.667969 16.851562 L 9.667969 15.648438 L 8.941406 15.648438 L 8.941406 12.035156 L 7.734375 12.035156 L 7.734375 15.648438 L 6.089844 15.648438 L 8.507812 7.222656 Z M 7.25 7.222656 "/>
<path style=" stroke:none;fill-rule:nonzero;fill:rgb(100%,33.333333%,33.333333%);fill-opacity:1;" d="M 79.75 122.777344 L 82.167969 114.351562 L 82.167969 113.148438 L 79.265625 113.148438 L 79.265625 110.742188 L 78.058594 110.742188 L 78.058594 113.148438 L 77.332031 113.148438 L 77.332031 114.351562 L 78.058594 114.351562 L 78.058594 117.964844 L 79.265625 117.964844 L 79.265625 114.351562 L 80.910156 114.351562 L 78.492188 122.777344 Z M 79.75 122.777344 "/>
</g>
</svg>
