<?xml version="1.0" encoding="UTF-8"?>
<svg xmlns="http://www.w3.org/2000/svg" xmlns:xlink="http://www.w3.org/1999/xlink" width="87pt" height="130pt" viewBox="0 0 87 130" version="1.1">
<g id="surface1">
<path style="fill-rule:nonzero;fill:rgb(100%,100%,100%);fill-opacity:1;stroke-width:1;stroke-linecap:butt;stroke-linejoin:miter;stroke:rgb(0%,0%,0%);stroke-opacity:1;stroke-miterlimit:4;" d="M 30.436422 512.856779 L 329.563578 512.856779 C 346.099138 512.856779 359.498922 526.259423 359.498922 542.809904 L 359.498922 1021.91387 C 359.498922 1038.448125 346.099138 1051.866995 329.563578 1051.866995 L 30.436422 1051.866995 C 13.900862 1051.866995 0.501078 1038.448125 0.501078 1021.91387 L 0.501078 542.809904 C 0.501078 526.259423 13.900862 512.856779 30.436422 512.856779 Z M 30.436422 512.856779 " transform="matrix(0.241667,0,0,0.240741,0,-123.348333)"/>
<path style=" stroke:none;fill-rule:nonzero;fill:rgb(100%,33.333333%,33.333333%);fill-opacity:1;" d="M 43.5 60.183594 C 43.5 60.183594 43.941406 57.496094 44.789062 56.652344 C 45.636719 55.804688 47.132812 55.367188 48.332031 55.367188 C 49.535156 55.367188 51.027344 55.804688 51.878906 56.652344 C 52.726562 57.496094 53.167969 58.988281 53.167969 60.183594 C 53.167969 61.378906 52.523438 63.070312 51.878906 63.714844 C 51.234375 64.355469 50.589844 64.675781 49.945312 65.320312 C 49.300781 65.960938 48.976562 65.960938 48.332031 66.601562 C 47.6875 67.246094 47.367188 67.566406 46.722656 68.207031 C 46.078125 68.851562 45.109375 70.132812 44.464844 71.417969 C 43.820312 72.703125 43.5 74.628906 43.5 74.628906 C 43.5 74.628906 43.179688 72.703125 42.535156 71.417969 C 41.890625 70.132812 40.921875 68.847656 40.277344 68.207031 C 39.632812 67.566406 39.3125 67.246094 38.667969 66.601562 C 38.023438 65.960938 37.699219 65.960938 37.054688 65.320312 C 36.410156 64.675781 35.765625 64.355469 35.121094 63.714844 C 34.476562 63.070312 33.832031 61.378906 33.832031 60.183594 C 33.832031 58.988281 34.273438 57.496094 35.121094 56.652344 C 35.972656 55.804688 37.464844 55.367188 38.667969 55.367188 C 39.867188 55.367188 41.363281 55.804688 42.210938 56.652344 C 43.058594 57.496094 43.5 60.183594 43.5 60.183594 "/>
<path style=" stroke:none;fill-rule:nonzero;fill:rgb(100%,33.333333%,33.333333%);fill-opacity:1;" d="M 7.25 23.46875 C 7.25 23.46875 7.414062 22.464844 7.734375 22.144531 C 8.050781 21.828125 8.613281 21.664062 9.0625 21.664062 C 9.511719 21.664062 10.074219 21.828125 10.390625 22.144531 C 10.710938 22.464844 10.875 23.019531 10.875 23.46875 C 10.875 23.917969 10.632812 24.554688 10.390625 24.792969 C 10.148438 25.035156 9.910156 25.15625 9.667969 25.394531 C 9.425781 25.636719 9.304688 25.636719 9.0625 25.878906 C 8.820312 26.117188 8.699219 26.238281 8.457031 26.480469 C 8.214844 26.71875 7.855469 27.203125 7.613281 27.683594 C 7.371094 28.164062 7.25 28.886719 7.25 28.886719 C 7.25 28.886719 7.128906 28.164062 6.886719 27.683594 C 6.644531 27.203125 6.285156 26.71875 6.042969 26.480469 C 5.800781 26.238281 5.679688 26.117188 5.4375 25.878906 C 5.195312 25.636719 5.074219 25.636719 4.832031 25.394531 C 4.589844 25.15625 4.351562 25.035156 4.109375 24.792969 C 3.867188 24.554688 3.625 23.917969 3.625 23.46875 C 3.625 23.019531 3.789062 22.464844 4.109375 22.144531 C 4.425781 21.828125 4.988281 21.664062 5.4375 21.664062 C 5.886719 21.664062 6.449219 21.828125 6.765625 22.144531 C 7.085938 22.464844 7.25 23.46875 7.25 23.46875 "/>
<path style=" stroke:none;fill-rule:nonzero;fill:rgb(100%,33.333333%,33.333333%);fill-opacity:1;" d="M 79.75 106.523438 C 79.75 106.523438 79.914062 107.53125 80.234375 107.847656 C 80.550781 108.167969 81.113281 108.332031 81.5625 108.332031 C 82.011719 108.332031 82.574219 108.167969 82.890625 107.847656 C 83.210938 107.53125 83.375 106.972656 83.375 106.523438 C 83.375 106.078125 83.132812 105.441406 82.890625 105.203125 C 82.648438 104.960938 82.410156 104.839844 82.167969 104.597656 C 81.925781 104.359375 81.804688 104.359375 81.5625 104.117188 C 81.320312 103.878906 81.199219 103.757812 80.957031 103.515625 C 80.714844 103.273438 80.355469 102.792969 80.113281 102.3125 C 79.871094 101.832031 79.75 101.109375 79.75 101.109375 C 79.75 101.109375 79.628906 101.832031 79.386719 102.3125 C 79.144531 102.792969 78.785156 103.273438 78.542969 103.515625 C 78.300781 103.757812 78.179688 103.878906 77.9375 104.117188 C 77.695312 104.359375 77.574219 104.359375 77.332031 104.597656 C 77.089844 104.839844 76.851562 104.960938 76.609375 105.203125 C 76.367188 105.441406 76.125 106.078125 76.125 106.523438 C 76.125 106.972656 76.289062 107.53125 76.609375 107.847656 C 76.925781 108.167969 77.488281 108.332031 77.9375 108.332031 C 78.386719 108.332031 78.949219 108.167969 79.265625 107.847656 C 79.585938 107.53125 79.75 106.523438 79.75 106.523438 "/>
<path style=" stroke:none;fill-rule:nonzero;fill:rgb(100%,33.333333%,33.333333%);fill-opacity:1;" d="M 7.25 7.21875 C 5.910156 7.21875 4.832031 8.292969 4.832031 9.628906 L 4.832031 10.832031 L 6.042969 10.832031 L 6.042969 9.628906 C 6.042969 8.960938 6.582031 8.421875 7.25 8.421875 C 7.917969 8.421875 8.457031 8.960938 8.457031 9.628906 L 8.457031 10.832031 C 8.457031 11.496094 7.917969 12.035156 7.25 12.035156 L 6.042969 12.035156 L 6.042969 13.238281 L 7.25 13.238281 C 7.917969 13.238281 8.457031 13.773438 8.457031 14.441406 L 8.457031 16.847656 C 8.457031 17.515625 7.917969 18.054688 7.25 18.054688 C 6.582031 18.054688 6.042969 17.515625 6.042969 16.847656 L 6.042969 15.644531 L 4.832031 15.644531 L 4.832031 16.847656 C 4.832031 18.183594 5.910156 19.257812 7.25 19.257812 C 8.589844 19.257812 9.667969 18.183594 9.667969 16.847656 L 9.667969 14.441406 C 9.667969 13.71875 9.347656 13.078125 8.84375 12.636719 C 9.347656 12.195312 9.667969 11.554688 9.667969 10.832031 L 9.667969 9.628906 C 9.667969 8.292969 8.589844 7.21875 7.25 7.21875 "/>
<path style=" stroke:none;fill-rule:nonzero;fill:rgb(100%,33.333333%,33.333333%);fill-opacity:1;" d="M 43.5 16.847656 C 43.5 16.847656 43.941406 14.164062 44.789062 13.320312 C 45.636719 12.472656 47.132812 12.035156 48.332031 12.035156 C 49.535156 12.035156 51.027344 12.472656 51.878906 13.320312 C 52.726562 14.164062 53.167969 15.652344 53.167969 16.847656 C 53.167969 18.046875 52.523438 19.738281 51.878906 20.378906 C 51.234375 21.023438 50.589844 21.34375 49.945312 21.984375 C 49.300781 22.628906 48.976562 22.628906 48.332031 23.269531 C 47.6875 23.910156 47.367188 24.230469 46.722656 24.875 C 46.078125 25.515625 45.109375 26.800781 44.464844 28.085938 C 43.820312 29.367188 43.5 31.292969 43.5 31.292969 C 43.5 31.292969 43.179688 29.367188 42.535156 28.085938 C 41.890625 26.800781 40.921875 25.515625 40.277344 24.875 C 39.632812 24.230469 39.3125 23.910156 38.667969 23.269531 C 38.023438 22.628906 37.699219 22.628906 37.054688 21.984375 C 36.410156 21.34375 35.765625 21.023438 35.121094 20.378906 C 34.476562 19.738281 33.832031 18.046875 33.832031 16.847656 C 33.832031 15.652344 34.273438 14.164062 35.121094 13.320312 C 35.972656 12.472656 37.464844 12.035156 38.667969 12.035156 C 39.867188 12.035156 41.363281 12.472656 42.210938 13.320312 C 43.058594 14.164062 43.5 16.847656 43.5 16.847656 "/>
<path style=" stroke:none;fill-rule:nonzero;fill:rgb(100%,33.333333%,33.333333%);fill-opacity:1;" d="M 43.5 113.144531 C 43.5 113.144531 43.941406 115.832031 44.789062 116.675781 C 45.636719 117.523438 47.132812 117.960938 48.332031 117.960938 C 49.535156 117.960938 51.027344 117.523438 51.878906 116.675781 C 52.726562 115.832031 53.167969 114.34375 53.167969 113.144531 C 53.167969 111.949219 52.523438 110.257812 51.878906 109.613281 C 51.234375 108.972656 50.589844 108.652344 49.945312 108.011719 C 49.300781 107.367188 48.976562 107.367188 48.332031 106.726562 C 47.6875 106.082031 47.367188 105.761719 46.722656 105.121094 C 46.078125 104.480469 45.109375 103.195312 44.464844 101.910156 C 43.820312 100.628906 43.5 98.703125 43.5 98.703125 C 43.5 98.703125 43.179688 100.628906 42.535156 101.910156 C 41.890625 103.195312 40.921875 104.480469 40.277344 105.121094 C 39.632812 105.761719 39.3125 106.082031 38.667969 106.726562 C 38.023438 107.367188 37.699219 107.367188 37.054688 108.011719 C 36.410156 108.652344 35.765625 108.972656 35.121094 109.613281 C 34.476562 110.257812 33.832031 111.949219 33.832031 113.144531 C 33.832031 114.34375 34.273438 115.832031 35.121094 116.675781 C 35.972656 117.523438 37.464844 117.960938 38.667969 117.960938 C 39.867188 117.960938 41.363281 117.523438 42.210938 116.675781 C 43.058594 115.832031 43.5 113.144531 43.5 113.144531 "/>
<path style=" stroke:none;fill-rule:nonzero;fill:rgb(100%,33.333333%,33.333333%);fill-opacity:1;" d="M 79.75 122.773438 C 81.089844 122.773438 82.167969 121.703125 82.167969 120.367188 L 82.167969 119.164062 L 80.957031 119.164062 L 80.957031 120.367188 C 80.957031 121.035156 80.417969 121.570312 79.75 121.570312 C 79.082031 121.570312 78.542969 121.035156 78.542969 120.367188 L 78.542969 119.164062 C 78.542969 118.496094 79.082031 117.960938 79.75 117.960938 L 80.957031 117.960938 L 80.957031 116.757812 L 79.75 116.757812 C 79.082031 116.757812 78.542969 116.21875 78.542969 115.554688 L 78.542969 113.144531 C 78.542969 112.480469 79.082031 111.941406 79.75 111.941406 C 80.417969 111.941406 80.957031 112.480469 80.957031 113.144531 L 80.957031 114.347656 L 82.167969 114.347656 L 82.167969 113.144531 C 82.167969 111.8125 81.089844 110.738281 79.75 110.738281 C 78.410156 110.738281 77.332031 111.8125 77.332031 113.144531 L 77.332031 115.554688 C 77.332031 116.273438 77.652344 116.917969 78.15625 117.359375 C 77.652344 117.800781 77.332031 118.441406 77.332031 119.164062 L 77.332031 120.367188 C 77.332031 121.703125 78.410156 122.773438 79.75 122.773438 "/>
</g>
</svg>
