<?xml version="1.0" encoding="UTF-8"?>
<svg xmlns="http://www.w3.org/2000/svg" xmlns:xlink="http://www.w3.org/1999/xlink" width="90px" height="130px" viewBox="0 0 90 130" version="1.1">
<g id="surface1">
<path style="fill-rule:nonzero;fill:rgb(100%,100%,100%);fill-opacity:1;stroke-width:1;stroke-linecap:butt;stroke-linejoin:miter;stroke:rgb(0%,0%,0%);stroke-opacity:1;stroke-miterlimit:4;" d="M 30.4375 512.86299 L 329.5625 512.86299 C 346.09375 512.86299 359.5 526.265634 359.5 542.799889 L 359.5 1021.920082 C 359.5 1038.454336 346.09375 1051.856981 329.5625 1051.856981 L 30.4375 1051.856981 C 13.90625 1051.856981 0.5 1038.454336 0.5 1021.920082 L 0.5 542.799889 C 0.5 526.265634 13.90625 512.86299 30.4375 512.86299 Z M 30.4375 512.86299 " transform="matrix(0.25,0,0,0.240741,0,-123.345922)"/>
<path style=" stroke:none;fill-rule:nonzero;fill:rgb(100%,33.333334%,33.333334%);fill-opacity:1;" d="M 3.75 7.222656 L 2.5 8.90625 L 2.5 10.59375 L 3.75 8.90625 L 3.75 19.257812 L 5 19.257812 L 5 7.222656 L 3.75 7.222656 "/>
<path style=" stroke:none;fill-rule:nonzero;fill:rgb(100%,33.333334%,33.333334%);fill-opacity:1;" d="M 8.75 7.222656 C 7.363281 7.222656 6.25 8.296875 6.25 9.628906 L 6.25 16.851562 C 6.25 18.1875 7.363281 19.257812 8.75 19.257812 C 10.136719 19.257812 11.25 18.1875 11.25 16.851562 L 11.25 9.628906 C 11.25 8.296875 10.136719 7.222656 8.75 7.222656 M 8.75 8.425781 C 9.441406 8.425781 10 8.964844 10 9.628906 L 10 16.851562 C 10 17.519531 9.441406 18.054688 8.75 18.054688 C 8.058594 18.054688 7.5 17.519531 7.5 16.851562 L 7.5 9.628906 C 7.5 8.964844 8.058594 8.425781 8.75 8.425781 "/>
<path style=" stroke:none;fill-rule:nonzero;fill:rgb(100%,33.333334%,33.333334%);fill-opacity:1;" d="M 86.25 122.777344 L 87.5 121.09375 L 87.5 119.40625 L 86.25 121.09375 L 86.25 110.742188 L 85 110.742188 L 85 122.777344 L 86.25 122.777344 "/>
<path style=" stroke:none;fill-rule:nonzero;fill:rgb(100%,33.333334%,33.333334%);fill-opacity:1;" d="M 81.25 122.777344 C 82.636719 122.777344 83.75 121.703125 83.75 120.371094 L 83.75 113.148438 C 83.75 111.8125 82.636719 110.742188 81.25 110.742188 C 79.863281 110.742188 78.75 111.8125 78.75 113.148438 L 78.75 120.371094 C 78.75 121.703125 79.863281 122.777344 81.25 122.777344 M 81.25 121.574219 C 80.558594 121.574219 80 121.039062 80 120.371094 L 80 113.148438 C 80 112.480469 80.558594 111.945312 81.25 111.945312 C 81.941406 111.945312 82.5 112.480469 82.5 113.148438 L 82.5 120.371094 C 82.5 121.039062 81.941406 121.574219 81.25 121.574219 "/>
<path style=" stroke:none;fill-rule:nonzero;fill:rgb(100%,33.333334%,33.333334%);fill-opacity:1;" d="M 25 16.851562 C 25 16.851562 25.453125 14.167969 26.332031 13.320312 C 27.210938 12.476562 28.757812 12.035156 30 12.035156 C 31.242188 12.035156 32.789062 12.476562 33.667969 13.320312 C 34.546875 14.167969 35 15.65625 35 16.851562 C 35 18.046875 34.332031 19.742188 33.667969 20.382812 C 33 21.023438 32.332031 21.347656 31.667969 21.988281 C 31 22.628906 30.667969 22.628906 30 23.273438 C 29.332031 23.914062 29 24.234375 28.332031 24.875 C 27.667969 25.519531 26.667969 26.800781 26 28.085938 C 25.332031 29.371094 25 31.296875 25 31.296875 C 25 31.296875 24.667969 29.371094 24 28.085938 C 23.332031 26.800781 22.332031 25.519531 21.667969 24.875 C 21 24.234375 20.667969 23.914062 20 23.273438 C 19.332031 22.628906 19 22.628906 18.332031 21.988281 C 17.667969 21.347656 17 21.023438 16.332031 20.382812 C 15.667969 19.742188 15 18.046875 15 16.851562 C 15 15.65625 15.453125 14.167969 16.332031 13.320312 C 17.210938 12.476562 18.757812 12.035156 20 12.035156 C 21.242188 12.035156 22.789062 12.476562 23.667969 13.320312 C 24.546875 14.167969 25 16.851562 25 16.851562 "/>
<path style=" stroke:none;fill-rule:nonzero;fill:rgb(100%,33.333334%,33.333334%);fill-opacity:1;" d="M 65 16.851562 C 65 16.851562 65.453125 14.167969 66.332031 13.320312 C 67.210938 12.476562 68.757812 12.035156 70 12.035156 C 71.242188 12.035156 72.789062 12.476562 73.667969 13.320312 C 74.546875 14.167969 75 15.65625 75 16.851562 C 75 18.046875 74.332031 19.742188 73.667969 20.382812 C 73 21.023438 72.332031 21.347656 71.667969 21.988281 C 71 22.628906 70.667969 22.628906 70 23.273438 C 69.332031 23.914062 69 24.234375 68.332031 24.875 C 67.667969 25.519531 66.667969 26.800781 66 28.085938 C 65.332031 29.371094 65 31.296875 65 31.296875 C 65 31.296875 64.667969 29.371094 64 28.085938 C 63.332031 26.800781 62.332031 25.519531 61.667969 24.875 C 61 24.234375 60.667969 23.914062 60 23.273438 C 59.332031 22.628906 59 22.628906 58.332031 21.988281 C 57.667969 21.347656 57 21.023438 56.332031 20.382812 C 55.667969 19.742188 55 18.046875 55 16.851562 C 55 15.65625 55.453125 14.167969 56.332031 13.320312 C 57.210938 12.476562 58.757812 12.035156 60 12.035156 C 61.242188 12.035156 62.789062 12.476562 63.667969 13.320312 C 64.546875 14.167969 65 16.851562 65 16.851562 "/>
<path style=" stroke:none;fill-rule:nonzero;fill:rgb(100%,33.333334%,33.333334%);fill-opacity:1;" d="M 45 31.296875 C 45 31.296875 45.453125 28.609375 46.332031 27.765625 C 47.210938 26.917969 48.757812 26.480469 50 26.480469 C 51.242188 26.480469 52.789062 26.917969 53.667969 27.765625 C 54.546875 28.609375 55 30.101562 55 31.296875 C 55 32.492188 54.332031 34.183594 53.667969 34.828125 C 53 35.46875 52.332031 35.789062 51.667969 36.433594 C 51 37.074219 50.667969 37.074219 50 37.714844 C 49.332031 38.359375 49 38.679688 48.332031 39.320312 C 47.667969 39.964844 46.667969 41.246094 46 42.53125 C 45.332031 43.816406 45 45.742188 45 45.742188 C 45 45.742188 44.667969 43.816406 44 42.53125 C 43.332031 41.246094 42.332031 39.964844 41.667969 39.320312 C 41 38.679688 40.667969 38.359375 40 37.714844 C 39.332031 37.074219 39 37.074219 38.332031 36.433594 C 37.667969 35.789062 37 35.46875 36.332031 34.828125 C 35.667969 34.183594 35 32.492188 35 31.296875 C 35 30.101562 35.453125 28.609375 36.332031 27.765625 C 37.210938 26.917969 38.757812 26.480469 40 26.480469 C 41.242188 26.480469 42.789062 26.917969 43.667969 27.765625 C 44.546875 28.609375 45 31.296875 45 31.296875 "/>
<path style=" stroke:none;fill-rule:nonzero;fill:rgb(100%,33.333334%,33.333334%);fill-opacity:1;" d="M 25 45.742188 C 25 45.742188 25.453125 43.054688 26.332031 42.210938 C 27.210938 41.363281 28.757812 40.925781 30 40.925781 C 31.242188 40.925781 32.789062 41.363281 33.667969 42.210938 C 34.546875 43.054688 35 44.542969 35 45.742188 C 35 46.9375 34.332031 48.628906 33.667969 49.273438 C 33 49.914062 32.332031 50.234375 31.667969 50.875 C 31 51.519531 30.667969 51.519531 30 52.160156 C 29.332031 52.800781 29 53.125 28.332031 53.765625 C 27.667969 54.40625 26.667969 55.691406 26 56.976562 C 25.332031 58.257812 25 60.183594 25 60.183594 C 25 60.183594 24.667969 58.257812 24 56.976562 C 23.332031 55.691406 22.332031 54.40625 21.667969 53.765625 C 21 53.125 20.667969 52.800781 20 52.160156 C 19.332031 51.519531 19 51.519531 18.332031 50.875 C 17.667969 50.234375 17 49.914062 16.332031 49.273438 C 15.667969 48.628906 15 46.9375 15 45.742188 C 15 44.542969 15.453125 43.054688 16.332031 42.210938 C 17.210938 41.363281 18.757812 40.925781 20 40.925781 C 21.242188 40.925781 22.789062 41.363281 23.667969 42.210938 C 24.546875 43.054688 25 45.742188 25 45.742188 "/>
<path style=" stroke:none;fill-rule:nonzero;fill:rgb(100%,33.333334%,33.333334%);fill-opacity:1;" d="M 65 45.742188 C 65 45.742188 65.453125 43.054688 66.332031 42.210938 C 67.210938 41.363281 68.757812 40.925781 70 40.925781 C 71.242188 40.925781 72.789062 41.363281 73.667969 42.210938 C 74.546875 43.054688 75 44.542969 75 45.742188 C 75 46.9375 74.332031 48.628906 73.667969 49.273438 C 73 49.914062 72.332031 50.234375 71.667969 50.875 C 71 51.519531 70.667969 51.519531 70 52.160156 C 69.332031 52.800781 69 53.125 68.332031 53.765625 C 67.667969 54.40625 66.667969 55.691406 66 56.976562 C 65.332031 58.257812 65 60.183594 65 60.183594 C 65 60.183594 64.667969 58.257812 64 56.976562 C 63.332031 55.691406 62.332031 54.40625 61.667969 53.765625 C 61 53.125 60.667969 52.800781 60 52.160156 C 59.332031 51.519531 59 51.519531 58.332031 50.875 C 57.667969 50.234375 57 49.914062 56.332031 49.273438 C 55.667969 48.628906 55 46.9375 55 45.742188 C 55 44.542969 55.453125 43.054688 56.332031 42.210938 C 57.210938 41.363281 58.757812 40.925781 60 40.925781 C 61.242188 40.925781 62.789062 41.363281 63.667969 42.210938 C 64.546875 43.054688 65 45.742188 65 45.742188 "/>
<path style=" stroke:none;fill-rule:nonzero;fill:rgb(100%,33.333334%,33.333334%);fill-opacity:1;" d="M 25 113.148438 C 25 113.148438 25.453125 115.832031 26.332031 116.679688 C 27.210938 117.523438 28.757812 117.964844 30 117.964844 C 31.242188 117.964844 32.789062 117.523438 33.667969 116.679688 C 34.546875 115.832031 35 114.34375 35 113.148438 C 35 111.953125 34.332031 110.257812 33.667969 109.617188 C 33 108.976562 32.332031 108.652344 31.667969 108.011719 C 31 107.371094 30.667969 107.371094 30 106.726562 C 29.332031 106.085938 29 105.765625 28.332031 105.125 C 27.667969 104.480469 26.667969 103.199219 26 101.914062 C 25.332031 100.628906 25 98.703125 25 98.703125 C 25 98.703125 24.667969 100.628906 24 101.914062 C 23.332031 103.199219 22.332031 104.480469 21.667969 105.125 C 21 105.765625 20.667969 106.085938 20 106.726562 C 19.332031 107.371094 19 107.371094 18.332031 108.011719 C 17.667969 108.652344 17 108.976562 16.332031 109.617188 C 15.667969 110.257812 15 111.953125 15 113.148438 C 15 114.34375 15.453125 115.832031 16.332031 116.679688 C 17.210938 117.523438 18.757812 117.964844 20 117.964844 C 21.242188 117.964844 22.789062 117.523438 23.667969 116.679688 C 24.546875 115.832031 25 113.148438 25 113.148438 "/>
<path style=" stroke:none;fill-rule:nonzero;fill:rgb(100%,33.333334%,33.333334%);fill-opacity:1;" d="M 65 113.148438 C 65 113.148438 65.453125 115.832031 66.332031 116.679688 C 67.210938 117.523438 68.757812 117.964844 70 117.964844 C 71.242188 117.964844 72.789062 117.523438 73.667969 116.679688 C 74.546875 115.832031 75 114.34375 75 113.148438 C 75 111.953125 74.332031 110.257812 73.667969 109.617188 C 73 108.976562 72.332031 108.652344 71.667969 108.011719 C 71 107.371094 70.667969 107.371094 70 106.726562 C 69.332031 106.085938 69 105.765625 68.332031 105.125 C 67.667969 104.480469 66.667969 103.199219 66 101.914062 C 65.332031 100.628906 65 98.703125 65 98.703125 C 65 98.703125 64.667969 100.628906 64 101.914062 C 63.332031 103.199219 62.332031 104.480469 61.667969 105.125 C 61 105.765625 60.667969 106.085938 60 106.726562 C 59.332031 107.371094 59 107.371094 58.332031 108.011719 C 57.667969 108.652344 57 108.976562 56.332031 109.617188 C 55.667969 110.257812 55 111.953125 55 113.148438 C 55 114.34375 55.453125 115.832031 56.332031 116.679688 C 57.210938 117.523438 58.757812 117.964844 60 117.964844 C 61.242188 117.964844 62.789062 117.523438 63.667969 116.679688 C 64.546875 115.832031 65 113.148438 65 113.148438 "/>
<path style=" stroke:none;fill-rule:nonzero;fill:rgb(100%,33.333334%,33.333334%);fill-opacity:1;" d="M 45 98.703125 C 45 98.703125 45.453125 101.390625 46.332031 102.234375 C 47.210938 103.082031 48.757812 103.519531 50 103.519531 C 51.242188 103.519531 52.789062 103.082031 53.667969 102.234375 C 54.546875 101.390625 55 99.898438 55 98.703125 C 55 97.507812 54.332031 95.816406 53.667969 95.171875 C 53 94.53125 52.332031 94.210938 51.667969 93.566406 C 51 92.925781 50.667969 92.925781 50 92.285156 C 49.332031 91.640625 49 91.320312 48.332031 90.679688 C 47.667969 90.035156 46.667969 88.753906 46 87.46875 C 45.332031 86.183594 45 84.257812 45 84.257812 C 45 84.257812 44.667969 86.183594 44 87.46875 C 43.332031 88.753906 42.332031 90.035156 41.667969 90.679688 C 41 91.320312 40.667969 91.640625 40 92.285156 C 39.332031 92.925781 39 92.925781 38.332031 93.566406 C 37.667969 94.210938 37 94.53125 36.332031 95.171875 C 35.667969 95.816406 35 97.507812 35 98.703125 C 35 99.898438 35.453125 101.390625 36.332031 102.234375 C 37.210938 103.082031 38.757812 103.519531 40 103.519531 C 41.242188 103.519531 42.789062 103.082031 43.667969 102.234375 C 44.546875 101.390625 45 98.703125 45 98.703125 "/>
<path style=" stroke:none;fill-rule:nonzero;fill:rgb(100%,33.333334%,33.333334%);fill-opacity:1;" d="M 25 84.257812 C 25 84.257812 25.453125 86.945312 26.332031 87.789062 C 27.210938 88.636719 28.757812 89.074219 30 89.074219 C 31.242188 89.074219 32.789062 88.636719 33.667969 87.789062 C 34.546875 86.945312 35 85.457031 35 84.257812 C 35 83.0625 34.332031 81.371094 33.667969 80.726562 C 33 80.085938 32.332031 79.765625 31.667969 79.125 C 31 78.480469 30.667969 78.480469 30 77.839844 C 29.332031 77.199219 29 76.875 28.332031 76.234375 C 27.667969 75.59375 26.667969 74.308594 26 73.023438 C 25.332031 71.742188 25 69.816406 25 69.816406 C 25 69.816406 24.667969 71.742188 24 73.023438 C 23.332031 74.308594 22.332031 75.59375 21.667969 76.234375 C 21 76.875 20.667969 77.199219 20 77.839844 C 19.332031 78.480469 19 78.480469 18.332031 79.125 C 17.667969 79.765625 17 80.085938 16.332031 80.726562 C 15.667969 81.371094 15 83.0625 15 84.257812 C 15 85.457031 15.453125 86.945312 16.332031 87.789062 C 17.210938 88.636719 18.757812 89.074219 20 89.074219 C 21.242188 89.074219 22.789062 88.636719 23.667969 87.789062 C 24.546875 86.945312 25 84.257812 25 84.257812 "/>
<path style=" stroke:none;fill-rule:nonzero;fill:rgb(100%,33.333334%,33.333334%);fill-opacity:1;" d="M 65 84.257812 C 65 84.257812 65.453125 86.945312 66.332031 87.789062 C 67.210938 88.636719 68.757812 89.074219 70 89.074219 C 71.242188 89.074219 72.789062 88.636719 73.667969 87.789062 C 74.546875 86.945312 75 85.457031 75 84.257812 C 75 83.0625 74.332031 81.371094 73.667969 80.726562 C 73 80.085938 72.332031 79.765625 71.667969 79.125 C 71 78.480469 70.667969 78.480469 70 77.839844 C 69.332031 77.199219 69 76.875 68.332031 76.234375 C 67.667969 75.59375 66.667969 74.308594 66 73.023438 C 65.332031 71.742188 65 69.816406 65 69.816406 C 65 69.816406 64.667969 71.742188 64 73.023438 C 63.332031 74.308594 62.332031 75.59375 61.667969 76.234375 C 61 76.875 60.667969 77.199219 60 77.839844 C 59.332031 78.480469 59 78.480469 58.332031 79.125 C 57.667969 79.765625 57 80.085938 56.332031 80.726562 C 55.667969 81.371094 55 83.0625 55 84.257812 C 55 85.457031 55.453125 86.945312 56.332031 87.789062 C 57.210938 88.636719 58.757812 89.074219 60 89.074219 C 61.242188 89.074219 62.789062 88.636719 63.667969 87.789062 C 64.546875 86.945312 65 84.257812 65 84.257812 "/>
<path style=" stroke:none;fill-rule:nonzero;fill:rgb(100%,33.333334%,33.333334%);fill-opacity:1;" d="M 7.5 23.472656 C 7.5 23.472656 7.671875 22.464844 8 22.148438 C 8.328125 21.832031 8.910156 21.667969 9.375 21.667969 C 9.839844 21.667969 10.421875 21.832031 10.75 22.148438 C 11.078125 22.464844 11.25 23.023438 11.25 23.472656 C 11.25 23.921875 11 24.554688 10.75 24.796875 C 10.5 25.035156 10.25 25.15625 10 25.398438 C 9.75 25.640625 9.625 25.640625 9.375 25.878906 C 9.125 26.121094 9 26.242188 8.75 26.480469 C 8.5 26.722656 8.125 27.203125 7.875 27.683594 C 7.625 28.167969 7.5 28.890625 7.5 28.890625 C 7.5 28.890625 7.375 28.167969 7.125 27.683594 C 6.875 27.203125 6.5 26.722656 6.25 26.480469 C 6 26.242188 5.875 26.121094 5.625 25.878906 C 5.375 25.640625 5.25 25.640625 5 25.398438 C 4.75 25.15625 4.5 25.035156 4.25 24.796875 C 4 24.554688 3.75 23.921875 3.75 23.472656 C 3.75 23.023438 3.921875 22.464844 4.25 22.148438 C 4.578125 21.832031 5.160156 21.667969 5.625 21.667969 C 6.089844 21.667969 6.671875 21.832031 7 22.148438 C 7.328125 22.464844 7.5 23.472656 7.5 23.472656 "/>
<path style=" stroke:none;fill-rule:nonzero;fill:rgb(100%,33.333334%,33.333334%);fill-opacity:1;" d="M 82.5 106.527344 C 82.5 106.527344 82.671875 107.535156 83 107.851562 C 83.328125 108.167969 83.910156 108.332031 84.375 108.332031 C 84.839844 108.332031 85.421875 108.167969 85.75 107.851562 C 86.078125 107.535156 86.25 106.976562 86.25 106.527344 C 86.25 106.078125 86 105.445312 85.75 105.203125 C 85.5 104.964844 85.25 104.84375 85 104.601562 C 84.75 104.359375 84.625 104.359375 84.375 104.121094 C 84.125 103.878906 84 103.757812 83.75 103.519531 C 83.5 103.277344 83.125 102.796875 82.875 102.316406 C 82.625 101.832031 82.5 101.109375 82.5 101.109375 C 82.5 101.109375 82.375 101.832031 82.125 102.316406 C 81.875 102.796875 81.5 103.277344 81.25 103.519531 C 81 103.757812 80.875 103.878906 80.625 104.121094 C 80.375 104.359375 80.25 104.359375 80 104.601562 C 79.75 104.84375 79.5 104.964844 79.25 105.203125 C 79 105.445312 78.75 106.078125 78.75 106.527344 C 78.75 106.976562 78.921875 107.535156 79.25 107.851562 C 79.578125 108.167969 80.160156 108.332031 80.625 108.332031 C 81.089844 108.332031 81.671875 108.167969 82 107.851562 C 82.328125 107.535156 82.5 106.527344 82.5 106.527344 "/>
</g>
</svg>
