<?xml version="1.0" encoding="UTF-8"?>
<svg xmlns="http://www.w3.org/2000/svg" xmlns:xlink="http://www.w3.org/1999/xlink" width="90px" height="130px" viewBox="0 0 90 130" version="1.1">
<g id="surface1">
<path style="fill-rule:nonzero;fill:rgb(100%,100%,100%);fill-opacity:1;stroke-width:1;stroke-linecap:butt;stroke-linejoin:miter;stroke:rgb(0%,0%,0%);stroke-opacity:1;stroke-miterlimit:4;" d="M 30.4375 512.856774 L 329.5625 512.856774 C 346.09375 512.856774 359.5 526.259418 359.5 542.809899 L 359.5 1021.913865 C 359.5 1038.44812 346.09375 1051.86699 329.5625 1051.86699 L 30.4375 1051.86699 C 13.90625 1051.86699 0.5 1038.44812 0.5 1021.913865 L 0.5 542.809899 C 0.5 526.259418 13.90625 512.856774 30.4375 512.856774 Z M 30.4375 512.856774 " transform="matrix(0.25,0,0,0.240741,0,-123.348332)"/>
<path style=" stroke:none;fill-rule:nonzero;fill:rgb(100%,33.333334%,33.333334%);fill-opacity:1;" d="M 45 60.183594 C 45 60.183594 45.453125 57.496094 46.332031 56.652344 C 47.210938 55.804688 48.757812 55.367188 50 55.367188 C 51.242188 55.367188 52.789062 55.804688 53.667969 56.652344 C 54.546875 57.496094 55 58.988281 55 60.183594 C 55 61.378906 54.332031 63.070312 53.667969 63.714844 C 53 64.355469 52.332031 64.675781 51.667969 65.320312 C 51 65.960938 50.667969 65.960938 50 66.601562 C 49.332031 67.246094 49 67.566406 48.332031 68.207031 C 47.667969 68.851562 46.667969 70.132812 46 71.417969 C 45.332031 72.703125 45 74.628906 45 74.628906 C 45 74.628906 44.667969 72.703125 44 71.417969 C 43.332031 70.132812 42.332031 68.847656 41.667969 68.207031 C 41 67.566406 40.667969 67.246094 40 66.601562 C 39.332031 65.960938 39 65.960938 38.332031 65.320312 C 37.667969 64.675781 37 64.355469 36.332031 63.714844 C 35.667969 63.070312 35 61.378906 35 60.183594 C 35 58.988281 35.453125 57.496094 36.332031 56.652344 C 37.210938 55.804688 38.757812 55.367188 40 55.367188 C 41.242188 55.367188 42.789062 55.804688 43.667969 56.652344 C 44.546875 57.496094 45 60.183594 45 60.183594 "/>
<path style=" stroke:none;fill-rule:nonzero;fill:rgb(100%,33.333334%,33.333334%);fill-opacity:1;" d="M 7.5 23.46875 C 7.5 23.46875 7.671875 22.464844 8 22.144531 C 8.328125 21.828125 8.910156 21.664062 9.375 21.664062 C 9.839844 21.664062 10.421875 21.828125 10.75 22.144531 C 11.078125 22.464844 11.25 23.019531 11.25 23.46875 C 11.25 23.917969 11 24.554688 10.75 24.792969 C 10.5 25.035156 10.25 25.15625 10 25.394531 C 9.75 25.636719 9.625 25.636719 9.375 25.878906 C 9.125 26.117188 9 26.238281 8.75 26.480469 C 8.5 26.71875 8.125 27.203125 7.875 27.683594 C 7.625 28.164062 7.5 28.886719 7.5 28.886719 C 7.5 28.886719 7.375 28.164062 7.125 27.683594 C 6.875 27.203125 6.5 26.71875 6.25 26.480469 C 6 26.238281 5.875 26.117188 5.625 25.878906 C 5.375 25.636719 5.25 25.636719 5 25.394531 C 4.75 25.15625 4.5 25.035156 4.25 24.792969 C 4 24.554688 3.75 23.917969 3.75 23.46875 C 3.75 23.019531 3.921875 22.464844 4.25 22.144531 C 4.578125 21.828125 5.160156 21.664062 5.625 21.664062 C 6.089844 21.664062 6.671875 21.828125 7 22.144531 C 7.328125 22.464844 7.5 23.46875 7.5 23.46875 "/>
<path style=" stroke:none;fill-rule:nonzero;fill:rgb(100%,33.333334%,33.333334%);fill-opacity:1;" d="M 82.5 106.523438 C 82.5 106.523438 82.671875 107.53125 83 107.847656 C 83.328125 108.167969 83.910156 108.332031 84.375 108.332031 C 84.839844 108.332031 85.421875 108.167969 85.75 107.847656 C 86.078125 107.53125 86.25 106.972656 86.25 106.523438 C 86.25 106.078125 86 105.441406 85.75 105.203125 C 85.5 104.960938 85.25 104.839844 85 104.597656 C 84.75 104.359375 84.625 104.359375 84.375 104.117188 C 84.125 103.878906 84 103.757812 83.75 103.515625 C 83.5 103.273438 83.125 102.792969 82.875 102.3125 C 82.625 101.832031 82.5 101.109375 82.5 101.109375 C 82.5 101.109375 82.375 101.832031 82.125 102.3125 C 81.875 102.792969 81.5 103.273438 81.25 103.515625 C 81 103.757812 80.875 103.878906 80.625 104.117188 C 80.375 104.359375 80.25 104.359375 80 104.597656 C 79.75 104.839844 79.5 104.960938 79.25 105.203125 C 79 105.441406 78.75 106.078125 78.75 106.523438 C 78.75 106.972656 78.921875 107.53125 79.25 107.847656 C 79.578125 108.167969 80.160156 108.332031 80.625 108.332031 C 81.089844 108.332031 81.671875 108.167969 82 107.847656 C 82.328125 107.53125 82.5 106.523438 82.5 106.523438 "/>
<path style=" stroke:none;fill-rule:nonzero;fill:rgb(100%,33.333334%,33.333334%);fill-opacity:1;" d="M 7.5 7.21875 C 6.113281 7.21875 5 8.292969 5 9.628906 L 5 10.832031 L 6.25 10.832031 L 6.25 9.628906 C 6.25 8.960938 6.808594 8.421875 7.5 8.421875 C 8.191406 8.421875 8.75 8.960938 8.75 9.628906 L 8.75 10.832031 C 8.75 11.496094 8.191406 12.035156 7.5 12.035156 L 6.25 12.035156 L 6.25 13.238281 L 7.5 13.238281 C 8.191406 13.238281 8.75 13.773438 8.75 14.441406 L 8.75 16.847656 C 8.75 17.515625 8.191406 18.054688 7.5 18.054688 C 6.808594 18.054688 6.25 17.515625 6.25 16.847656 L 6.25 15.644531 L 5 15.644531 L 5 16.847656 C 5 18.183594 6.113281 19.257812 7.5 19.257812 C 8.886719 19.257812 10 18.183594 10 16.847656 L 10 14.441406 C 10 13.71875 9.667969 13.078125 9.148438 12.636719 C 9.667969 12.195312 10 11.554688 10 10.832031 L 10 9.628906 C 10 8.292969 8.886719 7.21875 7.5 7.21875 "/>
<path style=" stroke:none;fill-rule:nonzero;fill:rgb(100%,33.333334%,33.333334%);fill-opacity:1;" d="M 45 16.847656 C 45 16.847656 45.453125 14.164062 46.332031 13.320312 C 47.210938 12.472656 48.757812 12.035156 50 12.035156 C 51.242188 12.035156 52.789062 12.472656 53.667969 13.320312 C 54.546875 14.164062 55 15.652344 55 16.847656 C 55 18.046875 54.332031 19.738281 53.667969 20.378906 C 53 21.023438 52.332031 21.34375 51.667969 21.984375 C 51 22.628906 50.667969 22.628906 50 23.269531 C 49.332031 23.910156 49 24.230469 48.332031 24.875 C 47.667969 25.515625 46.667969 26.800781 46 28.085938 C 45.332031 29.367188 45 31.292969 45 31.292969 C 45 31.292969 44.667969 29.367188 44 28.085938 C 43.332031 26.800781 42.332031 25.515625 41.667969 24.875 C 41 24.230469 40.667969 23.910156 40 23.269531 C 39.332031 22.628906 39 22.628906 38.332031 21.984375 C 37.667969 21.34375 37 21.023438 36.332031 20.378906 C 35.667969 19.738281 35 18.046875 35 16.847656 C 35 15.652344 35.453125 14.164062 36.332031 13.320312 C 37.210938 12.472656 38.757812 12.035156 40 12.035156 C 41.242188 12.035156 42.789062 12.472656 43.667969 13.320312 C 44.546875 14.164062 45 16.847656 45 16.847656 "/>
<path style=" stroke:none;fill-rule:nonzero;fill:rgb(100%,33.333334%,33.333334%);fill-opacity:1;" d="M 45 113.144531 C 45 113.144531 45.453125 115.832031 46.332031 116.675781 C 47.210938 117.523438 48.757812 117.960938 50 117.960938 C 51.242188 117.960938 52.789062 117.523438 53.667969 116.675781 C 54.546875 115.832031 55 114.34375 55 113.144531 C 55 111.949219 54.332031 110.257812 53.667969 109.613281 C 53 108.972656 52.332031 108.652344 51.667969 108.011719 C 51 107.367188 50.667969 107.367188 50 106.726562 C 49.332031 106.082031 49 105.761719 48.332031 105.121094 C 47.667969 104.480469 46.667969 103.195312 46 101.910156 C 45.332031 100.628906 45 98.703125 45 98.703125 C 45 98.703125 44.667969 100.628906 44 101.910156 C 43.332031 103.195312 42.332031 104.480469 41.667969 105.121094 C 41 105.761719 40.667969 106.082031 40 106.726562 C 39.332031 107.367188 39 107.367188 38.332031 108.011719 C 37.667969 108.652344 37 108.972656 36.332031 109.613281 C 35.667969 110.257812 35 111.949219 35 113.144531 C 35 114.34375 35.453125 115.832031 36.332031 116.675781 C 37.210938 117.523438 38.757812 117.960938 40 117.960938 C 41.242188 117.960938 42.789062 117.523438 43.667969 116.675781 C 44.546875 115.832031 45 113.144531 45 113.144531 "/>
<path style=" stroke:none;fill-rule:nonzero;fill:rgb(100%,33.333334%,33.333334%);fill-opacity:1;" d="M 82.5 122.773438 C 83.886719 122.773438 85 121.703125 85 120.367188 L 85 119.164062 L 83.75 119.164062 L 83.75 120.367188 C 83.75 121.035156 83.191406 121.570312 82.5 121.570312 C 81.808594 121.570312 81.25 121.035156 81.25 120.367188 L 81.25 119.164062 C 81.25 118.496094 81.808594 117.960938 82.5 117.960938 L 83.75 117.960938 L 83.75 116.757812 L 82.5 116.757812 C 81.808594 116.757812 81.25 116.21875 81.25 115.554688 L 81.25 113.144531 C 81.25 112.480469 81.808594 111.941406 82.5 111.941406 C 83.191406 111.941406 83.75 112.480469 83.75 113.144531 L 83.75 114.347656 L 85 114.347656 L 85 113.144531 C 85 111.8125 83.886719 110.738281 82.5 110.738281 C 81.113281 110.738281 80 111.8125 80 113.144531 L 80 115.554688 C 80 116.273438 80.332031 116.917969 80.851562 117.359375 C 80.332031 117.800781 80 118.441406 80 119.164062 L 80 120.367188 C 80 121.703125 81.113281 122.773438 82.5 122.773438 "/>
</g>
</svg>
