<?xml version="1.0" encoding="UTF-8"?>
<svg xmlns="http://www.w3.org/2000/svg" xmlns:xlink="http://www.w3.org/1999/xlink" width="87pt" height="130pt" viewBox="0 0 87 130" version="1.1">
<g id="surface1">
<path style="fill-rule:nonzero;fill:rgb(100%,100%,100%);fill-opacity:1;stroke-width:1;stroke-linecap:butt;stroke-linejoin:miter;stroke:rgb(0%,0%,0%);stroke-opacity:1;stroke-miterlimit:4;" d="M 60.436422 -1797.133221 L 359.563578 -1797.133221 C 376.099138 -1797.133221 389.498922 -1783.730577 389.498922 -1767.196322 L 389.498922 -1288.07613 C 389.498922 -1271.541875 376.099138 -1258.139231 359.563578 -1258.139231 L 60.436422 -1258.139231 C 43.900862 -1258.139231 30.501078 -1271.541875 30.501078 -1288.07613 L 30.501078 -1767.196322 C 30.501078 -1783.730577 43.900862 -1797.133221 60.436422 -1797.133221 Z M 60.436422 -1797.133221 " transform="matrix(0.241667,0,0,0.240741,-7.25,432.76037)"/>
<path style=" stroke:none;fill-rule:nonzero;fill:rgb(100%,33.333333%,33.333333%);fill-opacity:1;" d="M 4.832031 7.21875 L 4.832031 8.421875 L 6.671875 8.421875 L 6.671875 19.253906 L 7.878906 19.253906 L 7.878906 8.421875 L 9.667969 8.421875 L 9.667969 7.21875 Z M 4.832031 7.21875 "/>
<path style=" stroke:none;fill-rule:nonzero;fill:rgb(100%,33.333333%,33.333333%);fill-opacity:1;" d="M 77.332031 122.773438 L 77.332031 121.570312 L 79.171875 121.570312 L 79.171875 110.734375 L 80.378906 110.734375 L 80.378906 121.570312 L 82.167969 121.570312 L 82.167969 122.773438 Z M 77.332031 122.773438 "/>
<path style=" stroke:none;fill-rule:nonzero;fill:rgb(100%,33.333333%,33.333333%);fill-opacity:1;" d="M 43.5 60.179688 C 43.5 60.179688 43.941406 57.496094 44.789062 56.648438 C 45.636719 55.804688 47.132812 55.367188 48.332031 55.367188 C 49.535156 55.367188 51.027344 55.804688 51.878906 56.648438 C 52.726562 57.496094 53.167969 58.984375 53.167969 60.179688 C 53.167969 61.375 52.523438 63.070312 51.878906 63.710938 C 51.234375 64.351562 50.589844 64.675781 49.945312 65.316406 C 49.300781 65.957031 48.976562 65.957031 48.332031 66.601562 C 47.6875 67.242188 47.367188 67.5625 46.722656 68.207031 C 46.078125 68.847656 45.109375 70.132812 44.464844 71.414062 C 43.820312 72.699219 43.5 74.625 43.5 74.625 C 43.5 74.625 43.179688 72.699219 42.535156 71.414062 C 41.890625 70.132812 40.921875 68.847656 40.277344 68.207031 C 39.632812 67.5625 39.3125 67.242188 38.667969 66.601562 C 38.023438 65.957031 37.699219 65.957031 37.054688 65.316406 C 36.410156 64.675781 35.765625 64.351562 35.121094 63.710938 C 34.476562 63.070312 33.832031 61.375 33.832031 60.179688 C 33.832031 58.984375 34.273438 57.496094 35.121094 56.648438 C 35.972656 55.804688 37.464844 55.367188 38.667969 55.367188 C 39.867188 55.367188 41.363281 55.804688 42.210938 56.648438 C 43.058594 57.496094 43.5 60.179688 43.5 60.179688 "/>
<path style=" stroke:none;fill-rule:nonzero;fill:rgb(100%,33.333333%,33.333333%);fill-opacity:1;" d="M 7.25 23.46875 C 7.25 23.46875 7.414062 22.460938 7.734375 22.144531 C 8.050781 21.824219 8.613281 21.660156 9.0625 21.660156 C 9.511719 21.660156 10.074219 21.824219 10.390625 22.144531 C 10.710938 22.460938 10.875 23.019531 10.875 23.46875 C 10.875 23.914062 10.632812 24.550781 10.390625 24.792969 C 10.148438 25.03125 9.910156 25.152344 9.667969 25.394531 C 9.425781 25.632812 9.304688 25.632812 9.0625 25.875 C 8.820312 26.117188 8.699219 26.234375 8.457031 26.476562 C 8.214844 26.71875 7.855469 27.199219 7.613281 27.679688 C 7.371094 28.160156 7.25 28.882812 7.25 28.882812 C 7.25 28.882812 7.128906 28.160156 6.886719 27.679688 C 6.644531 27.199219 6.285156 26.71875 6.042969 26.476562 C 5.800781 26.234375 5.679688 26.117188 5.4375 25.875 C 5.195312 25.632812 5.074219 25.632812 4.832031 25.394531 C 4.589844 25.152344 4.351562 25.03125 4.109375 24.792969 C 3.867188 24.550781 3.625 23.914062 3.625 23.46875 C 3.625 23.019531 3.789062 22.460938 4.109375 22.144531 C 4.425781 21.824219 4.988281 21.660156 5.4375 21.660156 C 5.886719 21.660156 6.449219 21.824219 6.765625 22.144531 C 7.085938 22.460938 7.25 23.46875 7.25 23.46875 "/>
<path style=" stroke:none;fill-rule:nonzero;fill:rgb(100%,33.333333%,33.333333%);fill-opacity:1;" d="M 79.75 106.523438 C 79.75 106.523438 79.914062 107.53125 80.234375 107.847656 C 80.550781 108.164062 81.113281 108.328125 81.5625 108.328125 C 82.011719 108.328125 82.574219 108.164062 82.890625 107.847656 C 83.210938 107.53125 83.375 106.972656 83.375 106.523438 C 83.375 106.074219 83.132812 105.441406 82.890625 105.199219 C 82.648438 104.957031 82.410156 104.835938 82.167969 104.597656 C 81.925781 104.355469 81.804688 104.355469 81.5625 104.117188 C 81.320312 103.875 81.199219 103.753906 80.957031 103.515625 C 80.714844 103.273438 80.355469 102.792969 80.113281 102.308594 C 79.871094 101.828125 79.75 101.105469 79.75 101.105469 C 79.75 101.105469 79.628906 101.828125 79.386719 102.308594 C 79.144531 102.792969 78.785156 103.273438 78.542969 103.515625 C 78.300781 103.753906 78.179688 103.875 77.9375 104.117188 C 77.695312 104.355469 77.574219 104.355469 77.332031 104.597656 C 77.089844 104.835938 76.851562 104.957031 76.609375 105.199219 C 76.367188 105.441406 76.125 106.074219 76.125 106.523438 C 76.125 106.972656 76.289062 107.53125 76.609375 107.847656 C 76.925781 108.164062 77.488281 108.328125 77.9375 108.328125 C 78.386719 108.328125 78.949219 108.164062 79.265625 107.847656 C 79.585938 107.53125 79.75 106.523438 79.75 106.523438 "/>
</g>
</svg>
