<?xml version="1.0" encoding="UTF-8"?>
<svg xmlns="http://www.w3.org/2000/svg" xmlns:xlink="http://www.w3.org/1999/xlink" width="90px" height="130px" viewBox="0 0 90 130" version="1.1">
<g id="surface1">
<path style="fill-rule:nonzero;fill:rgb(100%,100%,100%);fill-opacity:1;stroke-width:1;stroke-linecap:butt;stroke-linejoin:miter;stroke:rgb(0%,0%,0%);stroke-opacity:1;stroke-miterlimit:4;" d="M 3180.4375 -1797.133216 L 3479.5625 -1797.133216 C 3496.09375 -1797.133216 3509.5 -1783.730572 3509.5 -1767.196317 L 3509.5 -1288.076125 C 3509.5 -1271.54187 3496.09375 -1258.139226 3479.5625 -1258.139226 L 3180.4375 -1258.139226 C 3163.90625 -1258.139226 3150.5 -1271.54187 3150.5 -1288.076125 L 3150.5 -1767.196317 C 3150.5 -1783.730572 3163.90625 -1797.133216 3180.4375 -1797.133216 Z M 3180.4375 -1797.133216 " transform="matrix(0.25,0,0,0.240741,-787.5,432.760369)"/>
<path style=" stroke:none;fill-rule:nonzero;fill:rgb(100%,33.333334%,33.333334%);fill-opacity:1;" d="M 7.5 23.46875 C 7.5 23.46875 7.671875 22.460938 8 22.144531 C 8.328125 21.824219 8.910156 21.660156 9.375 21.660156 C 9.839844 21.660156 10.421875 21.824219 10.75 22.144531 C 11.078125 22.460938 11.25 23.019531 11.25 23.46875 C 11.25 23.914062 11 24.550781 10.75 24.792969 C 10.5 25.03125 10.25 25.152344 10 25.394531 C 9.75 25.632812 9.625 25.632812 9.375 25.875 C 9.125 26.117188 9 26.234375 8.75 26.476562 C 8.5 26.71875 8.125 27.199219 7.875 27.679688 C 7.625 28.160156 7.5 28.882812 7.5 28.882812 C 7.5 28.882812 7.375 28.160156 7.125 27.679688 C 6.875 27.199219 6.5 26.71875 6.25 26.476562 C 6 26.234375 5.875 26.117188 5.625 25.875 C 5.375 25.632812 5.25 25.632812 5 25.394531 C 4.75 25.152344 4.5 25.03125 4.25 24.792969 C 4 24.550781 3.75 23.914062 3.75 23.46875 C 3.75 23.019531 3.921875 22.460938 4.25 22.144531 C 4.578125 21.824219 5.160156 21.660156 5.625 21.660156 C 6.089844 21.660156 6.671875 21.824219 7 22.144531 C 7.328125 22.460938 7.5 23.46875 7.5 23.46875 "/>
<path style=" stroke:none;fill-rule:nonzero;fill:rgb(100%,33.333334%,33.333334%);fill-opacity:1;" d="M 82.5 106.523438 C 82.5 106.523438 82.671875 107.53125 83 107.847656 C 83.328125 108.164062 83.910156 108.328125 84.375 108.328125 C 84.839844 108.328125 85.421875 108.164062 85.75 107.847656 C 86.078125 107.53125 86.25 106.972656 86.25 106.523438 C 86.25 106.074219 86 105.441406 85.75 105.199219 C 85.5 104.957031 85.25 104.835938 85 104.597656 C 84.75 104.355469 84.625 104.355469 84.375 104.117188 C 84.125 103.875 84 103.753906 83.75 103.515625 C 83.5 103.273438 83.125 102.792969 82.875 102.308594 C 82.625 101.828125 82.5 101.105469 82.5 101.105469 C 82.5 101.105469 82.375 101.828125 82.125 102.308594 C 81.875 102.792969 81.5 103.273438 81.25 103.515625 C 81 103.753906 80.875 103.875 80.625 104.117188 C 80.375 104.355469 80.25 104.355469 80 104.597656 C 79.75 104.835938 79.5 104.957031 79.25 105.199219 C 79 105.441406 78.75 106.074219 78.75 106.523438 C 78.75 106.972656 78.921875 107.53125 79.25 107.847656 C 79.578125 108.164062 80.160156 108.328125 80.625 108.328125 C 81.089844 108.328125 81.671875 108.164062 82 107.847656 C 82.328125 107.53125 82.5 106.523438 82.5 106.523438 "/>
<path style=" stroke:none;fill-rule:nonzero;fill:rgb(100%,33.333334%,33.333334%);fill-opacity:1;" d="M 7.5 19.253906 C 8.886719 19.253906 10 18.179688 10 16.847656 L 10 9.625 C 10 8.292969 8.886719 7.21875 7.5 7.21875 C 6.113281 7.21875 5 8.292969 5 9.625 L 5 12.03125 C 5 13.367188 6.113281 14.441406 7.5 14.441406 C 7.957031 14.441406 8.382812 14.320312 8.75 14.117188 L 8.75 16.847656 C 8.75 17.515625 8.191406 18.050781 7.5 18.050781 C 6.808594 18.050781 6.25 17.515625 6.25 16.847656 L 6.25 16.605469 L 5 16.605469 L 5 16.847656 C 5 18.179688 6.113281 19.253906 7.5 19.253906 M 7.5 13.234375 C 6.808594 13.234375 6.25 12.699219 6.25 12.03125 L 6.25 9.625 C 6.25 8.957031 6.808594 8.421875 7.5 8.421875 C 8.191406 8.421875 8.75 8.957031 8.75 9.625 L 8.75 12.03125 C 8.75 12.699219 8.191406 13.234375 7.5 13.234375 "/>
<path style=" stroke:none;fill-rule:nonzero;fill:rgb(100%,33.333334%,33.333334%);fill-opacity:1;" d="M 82.5 110.734375 C 81.113281 110.734375 80 111.808594 80 113.144531 L 80 120.367188 C 80 121.699219 81.113281 122.773438 82.5 122.773438 C 83.886719 122.773438 85 121.699219 85 120.367188 L 85 117.957031 C 85 116.625 83.886719 115.550781 82.5 115.550781 C 82.042969 115.550781 81.617188 115.671875 81.25 115.875 L 81.25 113.144531 C 81.25 112.476562 81.808594 111.941406 82.5 111.941406 C 83.191406 111.941406 83.75 112.476562 83.75 113.144531 L 83.75 113.382812 L 85 113.382812 L 85 113.144531 C 85 111.808594 83.886719 110.734375 82.5 110.734375 M 82.5 116.753906 C 83.191406 116.753906 83.75 117.292969 83.75 117.957031 L 83.75 120.367188 C 83.75 121.03125 83.191406 121.570312 82.5 121.570312 C 81.808594 121.570312 81.25 121.03125 81.25 120.367188 L 81.25 117.957031 C 81.25 117.292969 81.808594 116.753906 82.5 116.753906 "/>
<path style=" stroke:none;fill-rule:nonzero;fill:rgb(100%,33.333334%,33.333334%);fill-opacity:1;" d="M 25 16.847656 C 25 16.847656 25.453125 14.160156 26.332031 13.316406 C 27.210938 12.46875 28.757812 12.03125 30 12.03125 C 31.242188 12.03125 32.789062 12.46875 33.667969 13.316406 C 34.546875 14.160156 35 15.652344 35 16.847656 C 35 18.042969 34.332031 19.734375 33.667969 20.378906 C 33 21.019531 32.332031 21.339844 31.667969 21.984375 C 31 22.625 30.667969 22.625 30 23.265625 C 29.332031 23.910156 29 24.230469 28.332031 24.871094 C 27.667969 25.515625 26.667969 26.796875 26 28.082031 C 25.332031 29.367188 25 31.292969 25 31.292969 C 25 31.292969 24.667969 29.367188 24 28.082031 C 23.332031 26.796875 22.332031 25.515625 21.667969 24.871094 C 21 24.230469 20.667969 23.910156 20 23.265625 C 19.332031 22.625 19 22.625 18.332031 21.984375 C 17.667969 21.339844 17 21.019531 16.332031 20.378906 C 15.667969 19.734375 15 18.042969 15 16.847656 C 15 15.652344 15.453125 14.160156 16.332031 13.316406 C 17.210938 12.46875 18.757812 12.03125 20 12.03125 C 21.242188 12.03125 22.789062 12.46875 23.667969 13.316406 C 24.546875 14.160156 25 16.847656 25 16.847656 "/>
<path style=" stroke:none;fill-rule:nonzero;fill:rgb(100%,33.333334%,33.333334%);fill-opacity:1;" d="M 65 16.847656 C 65 16.847656 65.453125 14.160156 66.332031 13.316406 C 67.210938 12.46875 68.757812 12.03125 70 12.03125 C 71.242188 12.03125 72.789062 12.46875 73.667969 13.316406 C 74.546875 14.160156 75 15.652344 75 16.847656 C 75 18.042969 74.332031 19.734375 73.667969 20.378906 C 73 21.019531 72.332031 21.339844 71.667969 21.984375 C 71 22.625 70.667969 22.625 70 23.265625 C 69.332031 23.910156 69 24.230469 68.332031 24.871094 C 67.667969 25.515625 66.667969 26.796875 66 28.082031 C 65.332031 29.367188 65 31.292969 65 31.292969 C 65 31.292969 64.667969 29.367188 64 28.082031 C 63.332031 26.796875 62.332031 25.515625 61.667969 24.871094 C 61 24.230469 60.667969 23.910156 60 23.265625 C 59.332031 22.625 59 22.625 58.332031 21.984375 C 57.667969 21.339844 57 21.019531 56.332031 20.378906 C 55.667969 19.734375 55 18.042969 55 16.847656 C 55 15.652344 55.453125 14.160156 56.332031 13.316406 C 57.210938 12.46875 58.757812 12.03125 60 12.03125 C 61.242188 12.03125 62.789062 12.46875 63.667969 13.316406 C 64.546875 14.160156 65 16.847656 65 16.847656 "/>
<path style=" stroke:none;fill-rule:nonzero;fill:rgb(100%,33.333334%,33.333334%);fill-opacity:1;" d="M 25 45.734375 C 25 45.734375 25.453125 43.050781 26.332031 42.203125 C 27.210938 41.359375 28.757812 40.921875 30 40.921875 C 31.242188 40.921875 32.789062 41.359375 33.667969 42.203125 C 34.546875 43.050781 35 44.539062 35 45.734375 C 35 46.933594 34.332031 48.625 33.667969 49.265625 C 33 49.910156 32.332031 50.230469 31.667969 50.871094 C 31 51.515625 30.667969 51.515625 30 52.15625 C 29.332031 52.796875 29 53.117188 28.332031 53.761719 C 27.667969 54.402344 26.667969 55.6875 26 56.96875 C 25.332031 58.253906 25 60.179688 25 60.179688 C 25 60.179688 24.667969 58.253906 24 56.96875 C 23.332031 55.6875 22.332031 54.402344 21.667969 53.761719 C 21 53.117188 20.667969 52.796875 20 52.15625 C 19.332031 51.515625 19 51.515625 18.332031 50.871094 C 17.667969 50.230469 17 49.910156 16.332031 49.265625 C 15.667969 48.625 15 46.933594 15 45.734375 C 15 44.539062 15.453125 43.050781 16.332031 42.203125 C 17.210938 41.359375 18.757812 40.921875 20 40.921875 C 21.242188 40.921875 22.789062 41.359375 23.667969 42.203125 C 24.546875 43.050781 25 45.734375 25 45.734375 "/>
<path style=" stroke:none;fill-rule:nonzero;fill:rgb(100%,33.333334%,33.333334%);fill-opacity:1;" d="M 65 45.734375 C 65 45.734375 65.453125 43.050781 66.332031 42.203125 C 67.210938 41.359375 68.757812 40.921875 70 40.921875 C 71.242188 40.921875 72.789062 41.359375 73.667969 42.203125 C 74.546875 43.050781 75 44.539062 75 45.734375 C 75 46.933594 74.332031 48.625 73.667969 49.265625 C 73 49.910156 72.332031 50.230469 71.667969 50.871094 C 71 51.515625 70.667969 51.515625 70 52.15625 C 69.332031 52.796875 69 53.117188 68.332031 53.761719 C 67.667969 54.402344 66.667969 55.6875 66 56.96875 C 65.332031 58.253906 65 60.179688 65 60.179688 C 65 60.179688 64.667969 58.253906 64 56.96875 C 63.332031 55.6875 62.332031 54.402344 61.667969 53.761719 C 61 53.117188 60.667969 52.796875 60 52.15625 C 59.332031 51.515625 59 51.515625 58.332031 50.871094 C 57.667969 50.230469 57 49.910156 56.332031 49.265625 C 55.667969 48.625 55 46.933594 55 45.734375 C 55 44.539062 55.453125 43.050781 56.332031 42.203125 C 57.210938 41.359375 58.757812 40.921875 60 40.921875 C 61.242188 40.921875 62.789062 41.359375 63.667969 42.203125 C 64.546875 43.050781 65 45.734375 65 45.734375 "/>
<path style=" stroke:none;fill-rule:nonzero;fill:rgb(100%,33.333334%,33.333334%);fill-opacity:1;" d="M 25 113.144531 C 25 113.144531 25.453125 115.828125 26.332031 116.675781 C 27.210938 117.519531 28.757812 117.957031 30 117.957031 C 31.242188 117.957031 32.789062 117.519531 33.667969 116.675781 C 34.546875 115.828125 35 114.339844 35 113.144531 C 35 111.945312 34.332031 110.253906 33.667969 109.613281 C 33 108.96875 32.332031 108.648438 31.667969 108.007812 C 31 107.367188 30.667969 107.367188 30 106.722656 C 29.332031 106.082031 29 105.761719 28.332031 105.117188 C 27.667969 104.476562 26.667969 103.191406 26 101.910156 C 25.332031 100.625 25 98.699219 25 98.699219 C 25 98.699219 24.667969 100.625 24 101.910156 C 23.332031 103.191406 22.332031 104.476562 21.667969 105.117188 C 21 105.761719 20.667969 106.082031 20 106.722656 C 19.332031 107.367188 19 107.367188 18.332031 108.007812 C 17.667969 108.648438 17 108.96875 16.332031 109.613281 C 15.667969 110.253906 15 111.945312 15 113.144531 C 15 114.339844 15.453125 115.828125 16.332031 116.675781 C 17.210938 117.519531 18.757812 117.957031 20 117.957031 C 21.242188 117.957031 22.789062 117.519531 23.667969 116.675781 C 24.546875 115.828125 25 113.144531 25 113.144531 "/>
<path style=" stroke:none;fill-rule:nonzero;fill:rgb(100%,33.333334%,33.333334%);fill-opacity:1;" d="M 65 113.144531 C 65 113.144531 65.453125 115.828125 66.332031 116.675781 C 67.210938 117.519531 68.757812 117.957031 70 117.957031 C 71.242188 117.957031 72.789062 117.519531 73.667969 116.675781 C 74.546875 115.828125 75 114.339844 75 113.144531 C 75 111.945312 74.332031 110.253906 73.667969 109.613281 C 73 108.96875 72.332031 108.648438 71.667969 108.007812 C 71 107.367188 70.667969 107.367188 70 106.722656 C 69.332031 106.082031 69 105.761719 68.332031 105.117188 C 67.667969 104.476562 66.667969 103.191406 66 101.910156 C 65.332031 100.625 65 98.699219 65 98.699219 C 65 98.699219 64.667969 100.625 64 101.910156 C 63.332031 103.191406 62.332031 104.476562 61.667969 105.117188 C 61 105.761719 60.667969 106.082031 60 106.722656 C 59.332031 107.367188 59 107.367188 58.332031 108.007812 C 57.667969 108.648438 57 108.96875 56.332031 109.613281 C 55.667969 110.253906 55 111.945312 55 113.144531 C 55 114.339844 55.453125 115.828125 56.332031 116.675781 C 57.210938 117.519531 58.757812 117.957031 60 117.957031 C 61.242188 117.957031 62.789062 117.519531 63.667969 116.675781 C 64.546875 115.828125 65 113.144531 65 113.144531 "/>
<path style=" stroke:none;fill-rule:nonzero;fill:rgb(100%,33.333334%,33.333334%);fill-opacity:1;" d="M 25 84.253906 C 25 84.253906 25.453125 86.9375 26.332031 87.785156 C 27.210938 88.632812 28.757812 89.070312 30 89.070312 C 31.242188 89.070312 32.789062 88.632812 33.667969 87.785156 C 34.546875 86.9375 35 85.449219 35 84.253906 C 35 83.058594 34.332031 81.367188 33.667969 80.722656 C 33 80.082031 32.332031 79.761719 31.667969 79.117188 C 31 78.476562 30.667969 78.476562 30 77.835938 C 29.332031 77.191406 29 76.871094 28.332031 76.230469 C 27.667969 75.585938 26.667969 74.304688 26 73.019531 C 25.332031 71.734375 25 69.808594 25 69.808594 C 25 69.808594 24.667969 71.734375 24 73.019531 C 23.332031 74.304688 22.332031 75.585938 21.667969 76.230469 C 21 76.871094 20.667969 77.191406 20 77.835938 C 19.332031 78.476562 19 78.476562 18.332031 79.117188 C 17.667969 79.761719 17 80.082031 16.332031 80.722656 C 15.667969 81.367188 15 83.058594 15 84.253906 C 15 85.449219 15.453125 86.9375 16.332031 87.785156 C 17.210938 88.632812 18.757812 89.070312 20 89.070312 C 21.242188 89.070312 22.789062 88.632812 23.667969 87.785156 C 24.546875 86.9375 25 84.253906 25 84.253906 "/>
<path style=" stroke:none;fill-rule:nonzero;fill:rgb(100%,33.333334%,33.333334%);fill-opacity:1;" d="M 65 84.253906 C 65 84.253906 65.453125 86.9375 66.332031 87.785156 C 67.210938 88.632812 68.757812 89.070312 70 89.070312 C 71.242188 89.070312 72.789062 88.632812 73.667969 87.785156 C 74.546875 86.9375 75 85.449219 75 84.253906 C 75 83.058594 74.332031 81.367188 73.667969 80.722656 C 73 80.082031 72.332031 79.761719 71.667969 79.117188 C 71 78.476562 70.667969 78.476562 70 77.835938 C 69.332031 77.191406 69 76.871094 68.332031 76.230469 C 67.667969 75.585938 66.667969 74.304688 66 73.019531 C 65.332031 71.734375 65 69.808594 65 69.808594 C 65 69.808594 64.667969 71.734375 64 73.019531 C 63.332031 74.304688 62.332031 75.585938 61.667969 76.230469 C 61 76.871094 60.667969 77.191406 60 77.835938 C 59.332031 78.476562 59 78.476562 58.332031 79.117188 C 57.667969 79.761719 57 80.082031 56.332031 80.722656 C 55.667969 81.367188 55 83.058594 55 84.253906 C 55 85.449219 55.453125 86.9375 56.332031 87.785156 C 57.210938 88.632812 58.757812 89.070312 60 89.070312 C 61.242188 89.070312 62.789062 88.632812 63.667969 87.785156 C 64.546875 86.9375 65 84.253906 65 84.253906 "/>
<path style=" stroke:none;fill-rule:nonzero;fill:rgb(100%,33.333334%,33.333334%);fill-opacity:1;" d="M 45 60.179688 C 45 60.179688 45.453125 57.496094 46.332031 56.648438 C 47.210938 55.804688 48.757812 55.367188 50 55.367188 C 51.242188 55.367188 52.789062 55.804688 53.667969 56.648438 C 54.546875 57.496094 55 58.984375 55 60.179688 C 55 61.375 54.332031 63.070312 53.667969 63.710938 C 53 64.351562 52.332031 64.675781 51.667969 65.316406 C 51 65.957031 50.667969 65.957031 50 66.601562 C 49.332031 67.242188 49 67.5625 48.332031 68.207031 C 47.667969 68.847656 46.667969 70.132812 46 71.414062 C 45.332031 72.699219 45 74.625 45 74.625 C 45 74.625 44.667969 72.699219 44 71.414062 C 43.332031 70.132812 42.332031 68.847656 41.667969 68.207031 C 41 67.5625 40.667969 67.242188 40 66.601562 C 39.332031 65.957031 39 65.957031 38.332031 65.316406 C 37.667969 64.675781 37 64.351562 36.332031 63.710938 C 35.667969 63.070312 35 61.375 35 60.179688 C 35 58.984375 35.453125 57.496094 36.332031 56.648438 C 37.210938 55.804688 38.757812 55.367188 40 55.367188 C 41.242188 55.367188 42.789062 55.804688 43.667969 56.648438 C 44.546875 57.496094 45 60.179688 45 60.179688 "/>
</g>
</svg>
