<?xml version="1.0" encoding="UTF-8"?>
<svg xmlns="http://www.w3.org/2000/svg" xmlns:xlink="http://www.w3.org/1999/xlink" width="87pt" height="130pt" viewBox="0 0 87 130" version="1.1">
<g id="surface1">
<path style="fill-rule:nonzero;fill:rgb(100%,100%,100%);fill-opacity:1;stroke-width:1;stroke-linecap:butt;stroke-linejoin:miter;stroke:rgb(0%,0%,0%);stroke-opacity:1;stroke-miterlimit:4;" d="M 30.436422 512.863005 L 329.563578 512.863005 C 346.099138 512.863005 359.498922 526.265649 359.498922 542.799904 L 359.498922 1021.920096 C 359.498922 1038.454351 346.099138 1051.856995 329.563578 1051.856995 L 30.436422 1051.856995 C 13.900862 1051.856995 0.501078 1038.454351 0.501078 1021.920096 L 0.501078 542.799904 C 0.501078 526.265649 13.900862 512.863005 30.436422 512.863005 Z M 30.436422 512.863005 " transform="matrix(0.241667,0,0,0.240741,0,-123.345926)"/>
<path style=" stroke:none;fill-rule:nonzero;fill:rgb(100%,33.333333%,33.333333%);fill-opacity:1;" d="M 3.625 7.222656 L 2.417969 8.90625 L 2.417969 10.59375 L 3.625 8.90625 L 3.625 19.257812 L 4.832031 19.257812 L 4.832031 7.222656 L 3.625 7.222656 "/>
<path style=" stroke:none;fill-rule:nonzero;fill:rgb(100%,33.333333%,33.333333%);fill-opacity:1;" d="M 8.457031 7.222656 C 7.121094 7.222656 6.042969 8.296875 6.042969 9.628906 L 6.042969 16.851562 C 6.042969 18.1875 7.121094 19.257812 8.457031 19.257812 C 9.796875 19.257812 10.875 18.1875 10.875 16.851562 L 10.875 9.628906 C 10.875 8.296875 9.796875 7.222656 8.457031 7.222656 M 8.457031 8.425781 C 9.128906 8.425781 9.667969 8.964844 9.667969 9.628906 L 9.667969 16.851562 C 9.667969 17.519531 9.128906 18.054688 8.457031 18.054688 C 7.789062 18.054688 7.25 17.519531 7.25 16.851562 L 7.25 9.628906 C 7.25 8.964844 7.789062 8.425781 8.457031 8.425781 "/>
<path style=" stroke:none;fill-rule:nonzero;fill:rgb(100%,33.333333%,33.333333%);fill-opacity:1;" d="M 83.375 122.777344 L 84.582031 121.09375 L 84.582031 119.40625 L 83.375 121.09375 L 83.375 110.742188 L 82.167969 110.742188 L 82.167969 122.777344 L 83.375 122.777344 "/>
<path style=" stroke:none;fill-rule:nonzero;fill:rgb(100%,33.333333%,33.333333%);fill-opacity:1;" d="M 78.542969 122.777344 C 79.878906 122.777344 80.957031 121.703125 80.957031 120.371094 L 80.957031 113.148438 C 80.957031 111.8125 79.878906 110.742188 78.542969 110.742188 C 77.203125 110.742188 76.125 111.8125 76.125 113.148438 L 76.125 120.371094 C 76.125 121.703125 77.203125 122.777344 78.542969 122.777344 M 78.542969 121.574219 C 77.871094 121.574219 77.332031 121.039062 77.332031 120.371094 L 77.332031 113.148438 C 77.332031 112.480469 77.871094 111.945312 78.542969 111.945312 C 79.210938 111.945312 79.75 112.480469 79.75 113.148438 L 79.75 120.371094 C 79.75 121.039062 79.210938 121.574219 78.542969 121.574219 "/>
<path style=" stroke:none;fill-rule:nonzero;fill:rgb(100%,33.333333%,33.333333%);fill-opacity:1;" d="M 24.167969 16.851562 C 24.167969 16.851562 24.605469 14.167969 25.457031 13.320312 C 26.304688 12.476562 27.800781 12.035156 29 12.035156 C 30.199219 12.035156 31.695312 12.476562 32.542969 13.320312 C 33.394531 14.167969 33.832031 15.65625 33.832031 16.851562 C 33.832031 18.046875 33.1875 19.742188 32.542969 20.382812 C 31.898438 21.023438 31.253906 21.347656 30.609375 21.988281 C 29.964844 22.628906 29.644531 22.628906 29 23.273438 C 28.355469 23.914062 28.035156 24.234375 27.390625 24.875 C 26.746094 25.519531 25.777344 26.800781 25.132812 28.085938 C 24.488281 29.371094 24.167969 31.296875 24.167969 31.296875 C 24.167969 31.296875 23.84375 29.371094 23.199219 28.085938 C 22.554688 26.800781 21.589844 25.519531 20.945312 24.875 C 20.300781 24.234375 19.976562 23.914062 19.332031 23.273438 C 18.6875 22.628906 18.367188 22.628906 17.722656 21.988281 C 17.078125 21.347656 16.433594 21.023438 15.789062 20.382812 C 15.144531 19.742188 14.5 18.046875 14.5 16.851562 C 14.5 15.65625 14.941406 14.167969 15.789062 13.320312 C 16.636719 12.476562 18.132812 12.035156 19.332031 12.035156 C 20.535156 12.035156 22.027344 12.476562 22.878906 13.320312 C 23.726562 14.167969 24.167969 16.851562 24.167969 16.851562 "/>
<path style=" stroke:none;fill-rule:nonzero;fill:rgb(100%,33.333333%,33.333333%);fill-opacity:1;" d="M 62.832031 16.851562 C 62.832031 16.851562 63.273438 14.167969 64.121094 13.320312 C 64.972656 12.476562 66.464844 12.035156 67.667969 12.035156 C 68.867188 12.035156 70.363281 12.476562 71.210938 13.320312 C 72.058594 14.167969 72.5 15.65625 72.5 16.851562 C 72.5 18.046875 71.855469 19.742188 71.210938 20.382812 C 70.566406 21.023438 69.921875 21.347656 69.277344 21.988281 C 68.632812 22.628906 68.3125 22.628906 67.667969 23.273438 C 67.023438 23.914062 66.699219 24.234375 66.054688 24.875 C 65.410156 25.519531 64.445312 26.800781 63.800781 28.085938 C 63.15625 29.371094 62.832031 31.296875 62.832031 31.296875 C 62.832031 31.296875 62.511719 29.371094 61.867188 28.085938 C 61.222656 26.800781 60.253906 25.519531 59.609375 24.875 C 58.964844 24.234375 58.644531 23.914062 58 23.273438 C 57.355469 22.628906 57.035156 22.628906 56.390625 21.988281 C 55.746094 21.347656 55.101562 21.023438 54.457031 20.382812 C 53.8125 19.742188 53.167969 18.046875 53.167969 16.851562 C 53.167969 15.65625 53.605469 14.167969 54.457031 13.320312 C 55.304688 12.476562 56.800781 12.035156 58 12.035156 C 59.199219 12.035156 60.695312 12.476562 61.542969 13.320312 C 62.394531 14.167969 62.832031 16.851562 62.832031 16.851562 "/>
<path style=" stroke:none;fill-rule:nonzero;fill:rgb(100%,33.333333%,33.333333%);fill-opacity:1;" d="M 43.5 31.296875 C 43.5 31.296875 43.941406 28.609375 44.789062 27.765625 C 45.636719 26.917969 47.132812 26.480469 48.332031 26.480469 C 49.535156 26.480469 51.027344 26.917969 51.878906 27.765625 C 52.726562 28.609375 53.167969 30.101562 53.167969 31.296875 C 53.167969 32.492188 52.523438 34.183594 51.878906 34.828125 C 51.234375 35.46875 50.589844 35.789062 49.945312 36.433594 C 49.300781 37.074219 48.976562 37.074219 48.332031 37.714844 C 47.6875 38.359375 47.367188 38.679688 46.722656 39.320312 C 46.078125 39.964844 45.109375 41.246094 44.464844 42.53125 C 43.820312 43.816406 43.5 45.742188 43.5 45.742188 C 43.5 45.742188 43.179688 43.816406 42.535156 42.53125 C 41.890625 41.246094 40.921875 39.964844 40.277344 39.320312 C 39.632812 38.679688 39.3125 38.359375 38.667969 37.714844 C 38.023438 37.074219 37.699219 37.074219 37.054688 36.433594 C 36.410156 35.789062 35.765625 35.46875 35.121094 34.828125 C 34.476562 34.183594 33.832031 32.492188 33.832031 31.296875 C 33.832031 30.101562 34.273438 28.609375 35.121094 27.765625 C 35.972656 26.917969 37.464844 26.480469 38.667969 26.480469 C 39.867188 26.480469 41.363281 26.917969 42.210938 27.765625 C 43.058594 28.609375 43.5 31.296875 43.5 31.296875 "/>
<path style=" stroke:none;fill-rule:nonzero;fill:rgb(100%,33.333333%,33.333333%);fill-opacity:1;" d="M 24.167969 45.742188 C 24.167969 45.742188 24.605469 43.054688 25.457031 42.210938 C 26.304688 41.363281 27.800781 40.925781 29 40.925781 C 30.199219 40.925781 31.695312 41.363281 32.542969 42.210938 C 33.394531 43.054688 33.832031 44.542969 33.832031 45.742188 C 33.832031 46.9375 33.1875 48.628906 32.542969 49.273438 C 31.898438 49.914062 31.253906 50.234375 30.609375 50.875 C 29.964844 51.519531 29.644531 51.519531 29 52.160156 C 28.355469 52.800781 28.035156 53.125 27.390625 53.765625 C 26.746094 54.40625 25.777344 55.691406 25.132812 56.976562 C 24.488281 58.257812 24.167969 60.183594 24.167969 60.183594 C 24.167969 60.183594 23.84375 58.257812 23.199219 56.976562 C 22.554688 55.691406 21.589844 54.40625 20.945312 53.765625 C 20.300781 53.125 19.976562 52.800781 19.332031 52.160156 C 18.6875 51.519531 18.367188 51.519531 17.722656 50.875 C 17.078125 50.234375 16.433594 49.914062 15.789062 49.273438 C 15.144531 48.628906 14.5 46.9375 14.5 45.742188 C 14.5 44.542969 14.941406 43.054688 15.789062 42.210938 C 16.636719 41.363281 18.132812 40.925781 19.332031 40.925781 C 20.535156 40.925781 22.027344 41.363281 22.878906 42.210938 C 23.726562 43.054688 24.167969 45.742188 24.167969 45.742188 "/>
<path style=" stroke:none;fill-rule:nonzero;fill:rgb(100%,33.333333%,33.333333%);fill-opacity:1;" d="M 62.832031 45.742188 C 62.832031 45.742188 63.273438 43.054688 64.121094 42.210938 C 64.972656 41.363281 66.464844 40.925781 67.667969 40.925781 C 68.867188 40.925781 70.363281 41.363281 71.210938 42.210938 C 72.058594 43.054688 72.5 44.542969 72.5 45.742188 C 72.5 46.9375 71.855469 48.628906 71.210938 49.273438 C 70.566406 49.914062 69.921875 50.234375 69.277344 50.875 C 68.632812 51.519531 68.3125 51.519531 67.667969 52.160156 C 67.023438 52.800781 66.699219 53.125 66.054688 53.765625 C 65.410156 54.40625 64.445312 55.691406 63.800781 56.976562 C 63.15625 58.257812 62.832031 60.183594 62.832031 60.183594 C 62.832031 60.183594 62.511719 58.257812 61.867188 56.976562 C 61.222656 55.691406 60.253906 54.40625 59.609375 53.765625 C 58.964844 53.125 58.644531 52.800781 58 52.160156 C 57.355469 51.519531 57.035156 51.519531 56.390625 50.875 C 55.746094 50.234375 55.101562 49.914062 54.457031 49.273438 C 53.8125 48.628906 53.167969 46.9375 53.167969 45.742188 C 53.167969 44.542969 53.605469 43.054688 54.457031 42.210938 C 55.304688 41.363281 56.800781 40.925781 58 40.925781 C 59.199219 40.925781 60.695312 41.363281 61.542969 42.210938 C 62.394531 43.054688 62.832031 45.742188 62.832031 45.742188 "/>
<path style=" stroke:none;fill-rule:nonzero;fill:rgb(100%,33.333333%,33.333333%);fill-opacity:1;" d="M 24.167969 113.148438 C 24.167969 113.148438 24.605469 115.832031 25.457031 116.679688 C 26.304688 117.523438 27.800781 117.964844 29 117.964844 C 30.199219 117.964844 31.695312 117.523438 32.542969 116.679688 C 33.394531 115.832031 33.832031 114.34375 33.832031 113.148438 C 33.832031 111.953125 33.1875 110.257812 32.542969 109.617188 C 31.898438 108.976562 31.253906 108.652344 30.609375 108.011719 C 29.964844 107.371094 29.644531 107.371094 29 106.726562 C 28.355469 106.085938 28.035156 105.765625 27.390625 105.125 C 26.746094 104.480469 25.777344 103.199219 25.132812 101.914062 C 24.488281 100.628906 24.167969 98.703125 24.167969 98.703125 C 24.167969 98.703125 23.84375 100.628906 23.199219 101.914062 C 22.554688 103.199219 21.589844 104.480469 20.945312 105.125 C 20.300781 105.765625 19.976562 106.085938 19.332031 106.726562 C 18.6875 107.371094 18.367188 107.371094 17.722656 108.011719 C 17.078125 108.652344 16.433594 108.976562 15.789062 109.617188 C 15.144531 110.257812 14.5 111.953125 14.5 113.148438 C 14.5 114.34375 14.941406 115.832031 15.789062 116.679688 C 16.636719 117.523438 18.132812 117.964844 19.332031 117.964844 C 20.535156 117.964844 22.027344 117.523438 22.878906 116.679688 C 23.726562 115.832031 24.167969 113.148438 24.167969 113.148438 "/>
<path style=" stroke:none;fill-rule:nonzero;fill:rgb(100%,33.333333%,33.333333%);fill-opacity:1;" d="M 62.832031 113.148438 C 62.832031 113.148438 63.273438 115.832031 64.121094 116.679688 C 64.972656 117.523438 66.464844 117.964844 67.667969 117.964844 C 68.867188 117.964844 70.363281 117.523438 71.210938 116.679688 C 72.058594 115.832031 72.5 114.34375 72.5 113.148438 C 72.5 111.953125 71.855469 110.257812 71.210938 109.617188 C 70.566406 108.976562 69.921875 108.652344 69.277344 108.011719 C 68.632812 107.371094 68.3125 107.371094 67.667969 106.726562 C 67.023438 106.085938 66.699219 105.765625 66.054688 105.125 C 65.410156 104.480469 64.445312 103.199219 63.800781 101.914062 C 63.15625 100.628906 62.832031 98.703125 62.832031 98.703125 C 62.832031 98.703125 62.511719 100.628906 61.867188 101.914062 C 61.222656 103.199219 60.253906 104.480469 59.609375 105.125 C 58.964844 105.765625 58.644531 106.085938 58 106.726562 C 57.355469 107.371094 57.035156 107.371094 56.390625 108.011719 C 55.746094 108.652344 55.101562 108.976562 54.457031 109.617188 C 53.8125 110.257812 53.167969 111.953125 53.167969 113.148438 C 53.167969 114.34375 53.605469 115.832031 54.457031 116.679688 C 55.304688 117.523438 56.800781 117.964844 58 117.964844 C 59.199219 117.964844 60.695312 117.523438 61.542969 116.679688 C 62.394531 115.832031 62.832031 113.148438 62.832031 113.148438 "/>
<path style=" stroke:none;fill-rule:nonzero;fill:rgb(100%,33.333333%,33.333333%);fill-opacity:1;" d="M 43.5 98.703125 C 43.5 98.703125 43.941406 101.390625 44.789062 102.234375 C 45.636719 103.082031 47.132812 103.519531 48.332031 103.519531 C 49.535156 103.519531 51.027344 103.082031 51.878906 102.234375 C 52.726562 101.390625 53.167969 99.898438 53.167969 98.703125 C 53.167969 97.507812 52.523438 95.816406 51.878906 95.171875 C 51.234375 94.53125 50.589844 94.210938 49.945312 93.566406 C 49.300781 92.925781 48.976562 92.925781 48.332031 92.285156 C 47.6875 91.640625 47.367188 91.320312 46.722656 90.679688 C 46.078125 90.035156 45.109375 88.753906 44.464844 87.46875 C 43.820312 86.183594 43.5 84.257812 43.5 84.257812 C 43.5 84.257812 43.179688 86.183594 42.535156 87.46875 C 41.890625 88.753906 40.921875 90.035156 40.277344 90.679688 C 39.632812 91.320312 39.3125 91.640625 38.667969 92.285156 C 38.023438 92.925781 37.699219 92.925781 37.054688 93.566406 C 36.410156 94.210938 35.765625 94.53125 35.121094 95.171875 C 34.476562 95.816406 33.832031 97.507812 33.832031 98.703125 C 33.832031 99.898438 34.273438 101.390625 35.121094 102.234375 C 35.972656 103.082031 37.464844 103.519531 38.667969 103.519531 C 39.867188 103.519531 41.363281 103.082031 42.210938 102.234375 C 43.058594 101.390625 43.5 98.703125 43.5 98.703125 "/>
<path style=" stroke:none;fill-rule:nonzero;fill:rgb(100%,33.333333%,33.333333%);fill-opacity:1;" d="M 24.167969 84.257812 C 24.167969 84.257812 24.605469 86.945312 25.457031 87.789062 C 26.304688 88.636719 27.800781 89.074219 29 89.074219 C 30.199219 89.074219 31.695312 88.636719 32.542969 87.789062 C 33.394531 86.945312 33.832031 85.457031 33.832031 84.257812 C 33.832031 83.0625 33.1875 81.371094 32.542969 80.726562 C 31.898438 80.085938 31.253906 79.765625 30.609375 79.125 C 29.964844 78.480469 29.644531 78.480469 29 77.839844 C 28.355469 77.199219 28.035156 76.875 27.390625 76.234375 C 26.746094 75.59375 25.777344 74.308594 25.132812 73.023438 C 24.488281 71.742188 24.167969 69.816406 24.167969 69.816406 C 24.167969 69.816406 23.84375 71.742188 23.199219 73.023438 C 22.554688 74.308594 21.589844 75.59375 20.945312 76.234375 C 20.300781 76.875 19.976562 77.199219 19.332031 77.839844 C 18.6875 78.480469 18.367188 78.480469 17.722656 79.125 C 17.078125 79.765625 16.433594 80.085938 15.789062 80.726562 C 15.144531 81.371094 14.5 83.0625 14.5 84.257812 C 14.5 85.457031 14.941406 86.945312 15.789062 87.789062 C 16.636719 88.636719 18.132812 89.074219 19.332031 89.074219 C 20.535156 89.074219 22.027344 88.636719 22.878906 87.789062 C 23.726562 86.945312 24.167969 84.257812 24.167969 84.257812 "/>
<path style=" stroke:none;fill-rule:nonzero;fill:rgb(100%,33.333333%,33.333333%);fill-opacity:1;" d="M 62.832031 84.257812 C 62.832031 84.257812 63.273438 86.945312 64.121094 87.789062 C 64.972656 88.636719 66.464844 89.074219 67.667969 89.074219 C 68.867188 89.074219 70.363281 88.636719 71.210938 87.789062 C 72.058594 86.945312 72.5 85.457031 72.5 84.257812 C 72.5 83.0625 71.855469 81.371094 71.210938 80.726562 C 70.566406 80.085938 69.921875 79.765625 69.277344 79.125 C 68.632812 78.480469 68.3125 78.480469 67.667969 77.839844 C 67.023438 77.199219 66.699219 76.875 66.054688 76.234375 C 65.410156 75.59375 64.445312 74.308594 63.800781 73.023438 C 63.15625 71.742188 62.832031 69.816406 62.832031 69.816406 C 62.832031 69.816406 62.511719 71.742188 61.867188 73.023438 C 61.222656 74.308594 60.253906 75.59375 59.609375 76.234375 C 58.964844 76.875 58.644531 77.199219 58 77.839844 C 57.355469 78.480469 57.035156 78.480469 56.390625 79.125 C 55.746094 79.765625 55.101562 80.085938 54.457031 80.726562 C 53.8125 81.371094 53.167969 83.0625 53.167969 84.257812 C 53.167969 85.457031 53.605469 86.945312 54.457031 87.789062 C 55.304688 88.636719 56.800781 89.074219 58 89.074219 C 59.199219 89.074219 60.695312 88.636719 61.542969 87.789062 C 62.394531 86.945312 62.832031 84.257812 62.832031 84.257812 "/>
<path style=" stroke:none;fill-rule:nonzero;fill:rgb(100%,33.333333%,33.333333%);fill-opacity:1;" d="M 7.25 23.472656 C 7.25 23.472656 7.414062 22.464844 7.734375 22.148438 C 8.050781 21.832031 8.613281 21.667969 9.0625 21.667969 C 9.511719 21.667969 10.074219 21.832031 10.390625 22.148438 C 10.710938 22.464844 10.875 23.023438 10.875 23.472656 C 10.875 23.921875 10.632812 24.554688 10.390625 24.796875 C 10.148438 25.035156 9.910156 25.15625 9.667969 25.398438 C 9.425781 25.640625 9.304688 25.640625 9.0625 25.878906 C 8.820312 26.121094 8.699219 26.242188 8.457031 26.480469 C 8.214844 26.722656 7.855469 27.203125 7.613281 27.683594 C 7.371094 28.167969 7.25 28.890625 7.25 28.890625 C 7.25 28.890625 7.128906 28.167969 6.886719 27.683594 C 6.644531 27.203125 6.285156 26.722656 6.042969 26.480469 C 5.800781 26.242188 5.679688 26.121094 5.4375 25.878906 C 5.195312 25.640625 5.074219 25.640625 4.832031 25.398438 C 4.589844 25.15625 4.351562 25.035156 4.109375 24.796875 C 3.867188 24.554688 3.625 23.921875 3.625 23.472656 C 3.625 23.023438 3.789062 22.464844 4.109375 22.148438 C 4.425781 21.832031 4.988281 21.667969 5.4375 21.667969 C 5.886719 21.667969 6.449219 21.832031 6.765625 22.148438 C 7.085938 22.464844 7.25 23.472656 7.25 23.472656 "/>
<path style=" stroke:none;fill-rule:nonzero;fill:rgb(100%,33.333333%,33.333333%);fill-opacity:1;" d="M 79.75 106.527344 C 79.75 106.527344 79.914062 107.535156 80.234375 107.851562 C 80.550781 108.167969 81.113281 108.332031 81.5625 108.332031 C 82.011719 108.332031 82.574219 108.167969 82.890625 107.851562 C 83.210938 107.535156 83.375 106.976562 83.375 106.527344 C 83.375 106.078125 83.132812 105.445312 82.890625 105.203125 C 82.648438 104.964844 82.410156 104.84375 82.167969 104.601562 C 81.925781 104.359375 81.804688 104.359375 81.5625 104.121094 C 81.320312 103.878906 81.199219 103.757812 80.957031 103.519531 C 80.714844 103.277344 80.355469 102.796875 80.113281 102.316406 C 79.871094 101.832031 79.75 101.109375 79.75 101.109375 C 79.75 101.109375 79.628906 101.832031 79.386719 102.316406 C 79.144531 102.796875 78.785156 103.277344 78.542969 103.519531 C 78.300781 103.757812 78.179688 103.878906 77.9375 104.121094 C 77.695312 104.359375 77.574219 104.359375 77.332031 104.601562 C 77.089844 104.84375 76.851562 104.964844 76.609375 105.203125 C 76.367188 105.445312 76.125 106.078125 76.125 106.527344 C 76.125 106.976562 76.289062 107.535156 76.609375 107.851562 C 76.925781 108.167969 77.488281 108.332031 77.9375 108.332031 C 78.386719 108.332031 78.949219 108.167969 79.265625 107.851562 C 79.585938 107.535156 79.75 106.527344 79.75 106.527344 "/>
</g>
</svg>
