<?xml version="1.0" encoding="UTF-8"?>
<svg xmlns="http://www.w3.org/2000/svg" xmlns:xlink="http://www.w3.org/1999/xlink" width="87pt" height="130pt" viewBox="0 0 87 130" version="1.1">
<g id="surface1">
<path style="fill-rule:nonzero;fill:rgb(100%,100%,100%);fill-opacity:1;stroke-width:1;stroke-linecap:butt;stroke-linejoin:miter;stroke:rgb(0%,0%,0%);stroke-opacity:1;stroke-miterlimit:4;" d="M 30.436422 512.863005 L 329.563578 512.863005 C 346.099138 512.863005 359.498922 526.265649 359.498922 542.799904 L 359.498922 1021.920096 C 359.498922 1038.454351 346.099138 1051.856995 329.563578 1051.856995 L 30.436422 1051.856995 C 13.900862 1051.856995 0.501078 1038.454351 0.501078 1021.920096 L 0.501078 542.799904 C 0.501078 526.265649 13.900862 512.863005 30.436422 512.863005 Z M 30.436422 512.863005 " transform="matrix(0.241667,0,0,0.240741,0,-123.345926)"/>
<path style=" stroke:none;fill-rule:nonzero;fill:rgb(100%,33.333333%,33.333333%);fill-opacity:1;" d="M 7.25 23.472656 C 7.25 23.472656 7.414062 22.464844 7.734375 22.148438 C 8.050781 21.832031 8.613281 21.667969 9.0625 21.667969 C 9.511719 21.667969 10.074219 21.832031 10.390625 22.148438 C 10.710938 22.464844 10.875 23.023438 10.875 23.472656 C 10.875 23.921875 10.632812 24.554688 10.390625 24.796875 C 10.148438 25.035156 9.910156 25.15625 9.667969 25.398438 C 9.425781 25.640625 9.304688 25.640625 9.0625 25.878906 C 8.820312 26.121094 8.699219 26.242188 8.457031 26.480469 C 8.214844 26.722656 7.855469 27.203125 7.613281 27.683594 C 7.371094 28.167969 7.25 28.890625 7.25 28.890625 C 7.25 28.890625 7.128906 28.167969 6.886719 27.683594 C 6.644531 27.203125 6.285156 26.722656 6.042969 26.480469 C 5.800781 26.242188 5.679688 26.121094 5.4375 25.878906 C 5.195312 25.640625 5.074219 25.640625 4.832031 25.398438 C 4.589844 25.15625 4.351562 25.035156 4.109375 24.796875 C 3.867188 24.554688 3.625 23.921875 3.625 23.472656 C 3.625 23.023438 3.789062 22.464844 4.109375 22.148438 C 4.425781 21.832031 4.988281 21.667969 5.4375 21.667969 C 5.886719 21.667969 6.449219 21.832031 6.765625 22.148438 C 7.085938 22.464844 7.25 23.472656 7.25 23.472656 "/>
<path style=" stroke:none;fill-rule:nonzero;fill:rgb(100%,33.333333%,33.333333%);fill-opacity:1;" d="M 79.75 106.527344 C 79.75 106.527344 79.914062 107.535156 80.234375 107.851562 C 80.550781 108.167969 81.113281 108.332031 81.5625 108.332031 C 82.011719 108.332031 82.574219 108.167969 82.890625 107.851562 C 83.210938 107.535156 83.375 106.976562 83.375 106.527344 C 83.375 106.078125 83.132812 105.445312 82.890625 105.203125 C 82.648438 104.964844 82.410156 104.84375 82.167969 104.601562 C 81.925781 104.359375 81.804688 104.359375 81.5625 104.121094 C 81.320312 103.878906 81.199219 103.757812 80.957031 103.519531 C 80.714844 103.277344 80.355469 102.796875 80.113281 102.316406 C 79.871094 101.832031 79.75 101.109375 79.75 101.109375 C 79.75 101.109375 79.628906 101.832031 79.386719 102.316406 C 79.144531 102.796875 78.785156 103.277344 78.542969 103.519531 C 78.300781 103.757812 78.179688 103.878906 77.9375 104.121094 C 77.695312 104.359375 77.574219 104.359375 77.332031 104.601562 C 77.089844 104.84375 76.851562 104.964844 76.609375 105.203125 C 76.367188 105.445312 76.125 106.078125 76.125 106.527344 C 76.125 106.976562 76.289062 107.535156 76.609375 107.851562 C 76.925781 108.167969 77.488281 108.332031 77.9375 108.332031 C 78.386719 108.332031 78.949219 108.167969 79.265625 107.851562 C 79.585938 107.535156 79.75 106.527344 79.75 106.527344 "/>
<path style=" stroke:none;fill-rule:nonzero;fill:rgb(100%,33.333333%,33.333333%);fill-opacity:1;" d="M 24.167969 16.851562 C 24.167969 16.851562 24.605469 14.167969 25.457031 13.320312 C 26.304688 12.476562 27.800781 12.035156 29 12.035156 C 30.199219 12.035156 31.695312 12.476562 32.542969 13.320312 C 33.394531 14.167969 33.832031 15.65625 33.832031 16.851562 C 33.832031 18.046875 33.1875 19.742188 32.542969 20.382812 C 31.898438 21.023438 31.253906 21.347656 30.609375 21.988281 C 29.964844 22.628906 29.644531 22.628906 29 23.273438 C 28.355469 23.914062 28.035156 24.234375 27.390625 24.875 C 26.746094 25.519531 25.777344 26.800781 25.132812 28.085938 C 24.488281 29.371094 24.167969 31.296875 24.167969 31.296875 C 24.167969 31.296875 23.84375 29.371094 23.199219 28.085938 C 22.554688 26.800781 21.589844 25.519531 20.945312 24.875 C 20.300781 24.234375 19.976562 23.914062 19.332031 23.273438 C 18.6875 22.628906 18.367188 22.628906 17.722656 21.988281 C 17.078125 21.347656 16.433594 21.023438 15.789062 20.382812 C 15.144531 19.742188 14.5 18.046875 14.5 16.851562 C 14.5 15.65625 14.941406 14.167969 15.789062 13.320312 C 16.636719 12.476562 18.132812 12.035156 19.332031 12.035156 C 20.535156 12.035156 22.027344 12.476562 22.878906 13.320312 C 23.726562 14.167969 24.167969 16.851562 24.167969 16.851562 "/>
<path style=" stroke:none;fill-rule:nonzero;fill:rgb(100%,33.333333%,33.333333%);fill-opacity:1;" d="M 24.167969 113.148438 C 24.167969 113.148438 24.605469 115.832031 25.457031 116.679688 C 26.304688 117.523438 27.800781 117.964844 29 117.964844 C 30.199219 117.964844 31.695312 117.523438 32.542969 116.679688 C 33.394531 115.832031 33.832031 114.34375 33.832031 113.148438 C 33.832031 111.953125 33.1875 110.257812 32.542969 109.617188 C 31.898438 108.976562 31.253906 108.652344 30.609375 108.011719 C 29.964844 107.371094 29.644531 107.371094 29 106.726562 C 28.355469 106.085938 28.035156 105.765625 27.390625 105.125 C 26.746094 104.480469 25.777344 103.199219 25.132812 101.914062 C 24.488281 100.628906 24.167969 98.703125 24.167969 98.703125 C 24.167969 98.703125 23.84375 100.628906 23.199219 101.914062 C 22.554688 103.199219 21.589844 104.480469 20.945312 105.125 C 20.300781 105.765625 19.976562 106.085938 19.332031 106.726562 C 18.6875 107.371094 18.367188 107.371094 17.722656 108.011719 C 17.078125 108.652344 16.433594 108.976562 15.789062 109.617188 C 15.144531 110.257812 14.5 111.953125 14.5 113.148438 C 14.5 114.34375 14.941406 115.832031 15.789062 116.679688 C 16.636719 117.523438 18.132812 117.964844 19.332031 117.964844 C 20.535156 117.964844 22.027344 117.523438 22.878906 116.679688 C 23.726562 115.832031 24.167969 113.148438 24.167969 113.148438 "/>
<path style=" stroke:none;fill-rule:nonzero;fill:rgb(100%,33.333333%,33.333333%);fill-opacity:1;" d="M 62.832031 113.148438 C 62.832031 113.148438 63.273438 115.832031 64.121094 116.679688 C 64.972656 117.523438 66.464844 117.964844 67.667969 117.964844 C 68.867188 117.964844 70.363281 117.523438 71.210938 116.679688 C 72.058594 115.832031 72.5 114.34375 72.5 113.148438 C 72.5 111.953125 71.855469 110.257812 71.210938 109.617188 C 70.566406 108.976562 69.921875 108.652344 69.277344 108.011719 C 68.632812 107.371094 68.3125 107.371094 67.667969 106.726562 C 67.023438 106.085938 66.699219 105.765625 66.054688 105.125 C 65.410156 104.480469 64.445312 103.199219 63.800781 101.914062 C 63.15625 100.628906 62.832031 98.703125 62.832031 98.703125 C 62.832031 98.703125 62.511719 100.628906 61.867188 101.914062 C 61.222656 103.199219 60.253906 104.480469 59.609375 105.125 C 58.964844 105.765625 58.644531 106.085938 58 106.726562 C 57.355469 107.371094 57.035156 107.371094 56.390625 108.011719 C 55.746094 108.652344 55.101562 108.976562 54.457031 109.617188 C 53.8125 110.257812 53.167969 111.953125 53.167969 113.148438 C 53.167969 114.34375 53.605469 115.832031 54.457031 116.679688 C 55.304688 117.523438 56.800781 117.964844 58 117.964844 C 59.199219 117.964844 60.695312 117.523438 61.542969 116.679688 C 62.394531 115.832031 62.832031 113.148438 62.832031 113.148438 "/>
<path style=" stroke:none;fill-rule:nonzero;fill:rgb(100%,33.333333%,33.333333%);fill-opacity:1;" d="M 62.832031 16.851562 C 62.832031 16.851562 63.273438 14.167969 64.121094 13.320312 C 64.972656 12.476562 66.464844 12.035156 67.667969 12.035156 C 68.867188 12.035156 70.363281 12.476562 71.210938 13.320312 C 72.058594 14.167969 72.5 15.65625 72.5 16.851562 C 72.5 18.046875 71.855469 19.742188 71.210938 20.382812 C 70.566406 21.023438 69.921875 21.347656 69.277344 21.988281 C 68.632812 22.628906 68.3125 22.628906 67.667969 23.273438 C 67.023438 23.914062 66.699219 24.234375 66.054688 24.875 C 65.410156 25.519531 64.445312 26.800781 63.800781 28.085938 C 63.15625 29.371094 62.832031 31.296875 62.832031 31.296875 C 62.832031 31.296875 62.511719 29.371094 61.867188 28.085938 C 61.222656 26.800781 60.253906 25.519531 59.609375 24.875 C 58.964844 24.234375 58.644531 23.914062 58 23.273438 C 57.355469 22.628906 57.035156 22.628906 56.390625 21.988281 C 55.746094 21.347656 55.101562 21.023438 54.457031 20.382812 C 53.8125 19.742188 53.167969 18.046875 53.167969 16.851562 C 53.167969 15.65625 53.605469 14.167969 54.457031 13.320312 C 55.304688 12.476562 56.800781 12.035156 58 12.035156 C 59.199219 12.035156 60.695312 12.476562 61.542969 13.320312 C 62.394531 14.167969 62.832031 16.851562 62.832031 16.851562 "/>
<path style=" stroke:none;fill-rule:nonzero;fill:rgb(100%,33.333333%,33.333333%);fill-opacity:1;" d="M 62.832031 60.183594 C 62.832031 60.183594 63.273438 57.5 64.121094 56.652344 C 64.972656 55.808594 66.464844 55.371094 67.667969 55.371094 C 68.867188 55.371094 70.363281 55.808594 71.210938 56.652344 C 72.058594 57.5 72.5 58.988281 72.5 60.183594 C 72.5 61.382812 71.855469 63.074219 71.210938 63.714844 C 70.566406 64.359375 69.921875 64.679688 69.277344 65.320312 C 68.632812 65.964844 68.3125 65.964844 67.667969 66.605469 C 67.023438 67.246094 66.699219 67.566406 66.054688 68.210938 C 65.410156 68.851562 64.445312 70.136719 63.800781 71.417969 C 63.15625 72.703125 62.832031 74.628906 62.832031 74.628906 C 62.832031 74.628906 62.511719 72.703125 61.867188 71.417969 C 61.222656 70.136719 60.253906 68.851562 59.609375 68.210938 C 58.964844 67.566406 58.644531 67.246094 58 66.605469 C 57.355469 65.964844 57.035156 65.964844 56.390625 65.320312 C 55.746094 64.679688 55.101562 64.359375 54.457031 63.714844 C 53.8125 63.074219 53.167969 61.382812 53.167969 60.183594 C 53.167969 58.988281 53.605469 57.5 54.457031 56.652344 C 55.304688 55.808594 56.800781 55.371094 58 55.371094 C 59.199219 55.371094 60.695312 55.808594 61.542969 56.652344 C 62.394531 57.5 62.832031 60.183594 62.832031 60.183594 "/>
<path style=" stroke:none;fill-rule:nonzero;fill:rgb(100%,33.333333%,33.333333%);fill-opacity:1;" d="M 7.25 7.222656 C 5.910156 7.222656 4.832031 8.296875 4.832031 9.628906 L 4.832031 16.851562 C 4.832031 18.1875 5.910156 19.257812 7.25 19.257812 C 8.589844 19.257812 9.667969 18.1875 9.667969 16.851562 L 9.667969 14.445312 C 9.667969 13.109375 8.589844 12.035156 7.25 12.035156 C 6.808594 12.035156 6.394531 12.15625 6.042969 12.359375 L 6.042969 9.628906 C 6.042969 8.960938 6.582031 8.425781 7.25 8.425781 C 7.917969 8.425781 8.457031 8.960938 8.457031 9.628906 L 8.457031 9.871094 L 9.667969 9.871094 L 9.667969 9.628906 C 9.667969 8.296875 8.589844 7.222656 7.25 7.222656 M 7.25 13.242188 C 7.917969 13.242188 8.457031 13.777344 8.457031 14.445312 L 8.457031 16.851562 C 8.457031 17.519531 7.917969 18.054688 7.25 18.054688 C 6.582031 18.054688 6.042969 17.519531 6.042969 16.851562 L 6.042969 14.445312 C 6.042969 13.777344 6.582031 13.242188 7.25 13.242188 "/>
<path style=" stroke:none;fill-rule:nonzero;fill:rgb(100%,33.333333%,33.333333%);fill-opacity:1;" d="M 79.75 122.777344 C 81.089844 122.777344 82.167969 121.703125 82.167969 120.371094 L 82.167969 113.148438 C 82.167969 111.8125 81.089844 110.742188 79.75 110.742188 C 78.410156 110.742188 77.332031 111.8125 77.332031 113.148438 L 77.332031 115.554688 C 77.332031 116.890625 78.410156 117.964844 79.75 117.964844 C 80.191406 117.964844 80.605469 117.84375 80.957031 117.640625 L 80.957031 120.371094 C 80.957031 121.039062 80.417969 121.574219 79.75 121.574219 C 79.082031 121.574219 78.542969 121.039062 78.542969 120.371094 L 78.542969 120.128906 L 77.332031 120.128906 L 77.332031 120.371094 C 77.332031 121.703125 78.410156 122.777344 79.75 122.777344 M 79.75 116.757812 C 79.082031 116.757812 78.542969 116.222656 78.542969 115.554688 L 78.542969 113.148438 C 78.542969 112.480469 79.082031 111.945312 79.75 111.945312 C 80.417969 111.945312 80.957031 112.480469 80.957031 113.148438 L 80.957031 115.554688 C 80.957031 116.222656 80.417969 116.757812 79.75 116.757812 "/>
<path style=" stroke:none;fill-rule:nonzero;fill:rgb(100%,33.333333%,33.333333%);fill-opacity:1;" d="M 24.167969 60.183594 C 24.167969 60.183594 24.605469 57.5 25.457031 56.652344 C 26.304688 55.808594 27.800781 55.371094 29 55.371094 C 30.199219 55.371094 31.695312 55.808594 32.542969 56.652344 C 33.394531 57.5 33.832031 58.988281 33.832031 60.183594 C 33.832031 61.382812 33.1875 63.074219 32.542969 63.714844 C 31.898438 64.359375 31.253906 64.679688 30.609375 65.320312 C 29.964844 65.964844 29.644531 65.964844 29 66.605469 C 28.355469 67.246094 28.035156 67.566406 27.390625 68.210938 C 26.746094 68.851562 25.777344 70.136719 25.132812 71.417969 C 24.488281 72.703125 24.167969 74.628906 24.167969 74.628906 C 24.167969 74.628906 23.84375 72.703125 23.199219 71.417969 C 22.554688 70.136719 21.589844 68.851562 20.945312 68.210938 C 20.300781 67.566406 19.976562 67.246094 19.332031 66.605469 C 18.6875 65.964844 18.367188 65.964844 17.722656 65.320312 C 17.078125 64.679688 16.433594 64.359375 15.789062 63.714844 C 15.144531 63.074219 14.5 61.382812 14.5 60.183594 C 14.5 58.988281 14.941406 57.5 15.789062 56.652344 C 16.636719 55.808594 18.132812 55.371094 19.332031 55.371094 C 20.535156 55.371094 22.027344 55.808594 22.878906 56.652344 C 23.726562 57.5 24.167969 60.183594 24.167969 60.183594 "/>
</g>
</svg>
