<?xml version="1.0" encoding="UTF-8"?>
<svg xmlns="http://www.w3.org/2000/svg" xmlns:xlink="http://www.w3.org/1999/xlink" width="87pt" height="130pt" viewBox="0 0 87 130" version="1.1">
<g id="surface1">
<path style="fill-rule:nonzero;fill:rgb(100%,100%,100%);fill-opacity:1;stroke-width:1;stroke-linecap:butt;stroke-linejoin:miter;stroke:rgb(0%,0%,0%);stroke-opacity:1;stroke-miterlimit:4;" d="M 30.436422 512.856779 L 329.563578 512.856779 C 346.099138 512.856779 359.498922 526.259423 359.498922 542.809904 L 359.498922 1021.91387 C 359.498922 1038.448125 346.099138 1051.866995 329.563578 1051.866995 L 30.436422 1051.866995 C 13.900862 1051.866995 0.501078 1038.448125 0.501078 1021.91387 L 0.501078 542.809904 C 0.501078 526.259423 13.900862 512.856779 30.436422 512.856779 Z M 30.436422 512.856779 " transform="matrix(0.241667,0,0,0.240741,0,-123.348333)"/>
<path style=" stroke:none;fill-rule:nonzero;fill:rgb(100%,33.333333%,33.333333%);fill-opacity:1;" d="M 7.25 23.46875 C 7.25 23.46875 7.414062 22.464844 7.734375 22.144531 C 8.050781 21.828125 8.613281 21.664062 9.0625 21.664062 C 9.511719 21.664062 10.074219 21.828125 10.390625 22.144531 C 10.710938 22.464844 10.875 23.019531 10.875 23.46875 C 10.875 23.917969 10.632812 24.554688 10.390625 24.792969 C 10.148438 25.035156 9.910156 25.15625 9.667969 25.394531 C 9.425781 25.636719 9.304688 25.636719 9.0625 25.878906 C 8.820312 26.117188 8.699219 26.238281 8.457031 26.480469 C 8.214844 26.71875 7.855469 27.203125 7.613281 27.683594 C 7.371094 28.164062 7.25 28.886719 7.25 28.886719 C 7.25 28.886719 7.128906 28.164062 6.886719 27.683594 C 6.644531 27.203125 6.285156 26.71875 6.042969 26.480469 C 5.800781 26.238281 5.679688 26.117188 5.4375 25.878906 C 5.195312 25.636719 5.074219 25.636719 4.832031 25.394531 C 4.589844 25.15625 4.351562 25.035156 4.109375 24.792969 C 3.867188 24.554688 3.625 23.917969 3.625 23.46875 C 3.625 23.019531 3.789062 22.464844 4.109375 22.144531 C 4.425781 21.828125 4.988281 21.664062 5.4375 21.664062 C 5.886719 21.664062 6.449219 21.828125 6.765625 22.144531 C 7.085938 22.464844 7.25 23.46875 7.25 23.46875 "/>
<path style=" stroke:none;fill-rule:nonzero;fill:rgb(100%,33.333333%,33.333333%);fill-opacity:1;" d="M 79.75 106.523438 C 79.75 106.523438 79.914062 107.53125 80.234375 107.847656 C 80.550781 108.167969 81.113281 108.332031 81.5625 108.332031 C 82.011719 108.332031 82.574219 108.167969 82.890625 107.847656 C 83.210938 107.53125 83.375 106.972656 83.375 106.523438 C 83.375 106.078125 83.132812 105.441406 82.890625 105.203125 C 82.648438 104.960938 82.410156 104.839844 82.167969 104.597656 C 81.925781 104.359375 81.804688 104.359375 81.5625 104.117188 C 81.320312 103.878906 81.199219 103.757812 80.957031 103.515625 C 80.714844 103.273438 80.355469 102.792969 80.113281 102.3125 C 79.871094 101.832031 79.75 101.109375 79.75 101.109375 C 79.75 101.109375 79.628906 101.832031 79.386719 102.3125 C 79.144531 102.792969 78.785156 103.273438 78.542969 103.515625 C 78.300781 103.757812 78.179688 103.878906 77.9375 104.117188 C 77.695312 104.359375 77.574219 104.359375 77.332031 104.597656 C 77.089844 104.839844 76.851562 104.960938 76.609375 105.203125 C 76.367188 105.441406 76.125 106.078125 76.125 106.523438 C 76.125 106.972656 76.289062 107.53125 76.609375 107.847656 C 76.925781 108.167969 77.488281 108.332031 77.9375 108.332031 C 78.386719 108.332031 78.949219 108.167969 79.265625 107.847656 C 79.585938 107.53125 79.75 106.523438 79.75 106.523438 "/>
<path style=" stroke:none;fill-rule:nonzero;fill:rgb(100%,33.333333%,33.333333%);fill-opacity:1;" d="M 43.5 16.847656 C 43.5 16.847656 43.941406 14.164062 44.789062 13.320312 C 45.636719 12.472656 47.132812 12.035156 48.332031 12.035156 C 49.535156 12.035156 51.027344 12.472656 51.878906 13.320312 C 52.726562 14.164062 53.167969 15.652344 53.167969 16.847656 C 53.167969 18.046875 52.523438 19.738281 51.878906 20.378906 C 51.234375 21.023438 50.589844 21.34375 49.945312 21.984375 C 49.300781 22.628906 48.976562 22.628906 48.332031 23.269531 C 47.6875 23.910156 47.367188 24.230469 46.722656 24.875 C 46.078125 25.515625 45.109375 26.800781 44.464844 28.085938 C 43.820312 29.367188 43.5 31.292969 43.5 31.292969 C 43.5 31.292969 43.179688 29.367188 42.535156 28.085938 C 41.890625 26.800781 40.921875 25.515625 40.277344 24.875 C 39.632812 24.230469 39.3125 23.910156 38.667969 23.269531 C 38.023438 22.628906 37.699219 22.628906 37.054688 21.984375 C 36.410156 21.34375 35.765625 21.023438 35.121094 20.378906 C 34.476562 19.738281 33.832031 18.046875 33.832031 16.847656 C 33.832031 15.652344 34.273438 14.164062 35.121094 13.320312 C 35.972656 12.472656 37.464844 12.035156 38.667969 12.035156 C 39.867188 12.035156 41.363281 12.472656 42.210938 13.320312 C 43.058594 14.164062 43.5 16.847656 43.5 16.847656 "/>
<path style=" stroke:none;fill-rule:nonzero;fill:rgb(100%,33.333333%,33.333333%);fill-opacity:1;" d="M 43.5 113.144531 C 43.5 113.144531 43.941406 115.832031 44.789062 116.675781 C 45.636719 117.523438 47.132812 117.960938 48.332031 117.960938 C 49.535156 117.960938 51.027344 117.523438 51.878906 116.675781 C 52.726562 115.832031 53.167969 114.34375 53.167969 113.144531 C 53.167969 111.949219 52.523438 110.257812 51.878906 109.613281 C 51.234375 108.972656 50.589844 108.652344 49.945312 108.011719 C 49.300781 107.367188 48.976562 107.367188 48.332031 106.726562 C 47.6875 106.082031 47.367188 105.761719 46.722656 105.121094 C 46.078125 104.480469 45.109375 103.195312 44.464844 101.910156 C 43.820312 100.628906 43.5 98.703125 43.5 98.703125 C 43.5 98.703125 43.179688 100.628906 42.535156 101.910156 C 41.890625 103.195312 40.921875 104.480469 40.277344 105.121094 C 39.632812 105.761719 39.3125 106.082031 38.667969 106.726562 C 38.023438 107.367188 37.699219 107.367188 37.054688 108.011719 C 36.410156 108.652344 35.765625 108.972656 35.121094 109.613281 C 34.476562 110.257812 33.832031 111.949219 33.832031 113.144531 C 33.832031 114.34375 34.273438 115.832031 35.121094 116.675781 C 35.972656 117.523438 37.464844 117.960938 38.667969 117.960938 C 39.867188 117.960938 41.363281 117.523438 42.210938 116.675781 C 43.058594 115.832031 43.5 113.144531 43.5 113.144531 "/>
<path style=" stroke:none;fill-rule:nonzero;fill:rgb(100%,33.333333%,33.333333%);fill-opacity:1;" d="M 7.25 7.21875 C 5.910156 7.21875 4.832031 8.292969 4.832031 9.628906 L 4.832031 10.832031 L 6.042969 10.832031 L 6.042969 9.628906 C 6.042969 8.960938 6.582031 8.421875 7.25 8.421875 C 7.917969 8.421875 8.457031 8.960938 8.457031 9.628906 L 8.457031 10.832031 C 8.457031 11.101562 8.367188 11.570312 8.214844 11.769531 C 7.136719 13.960938 5.972656 15.894531 4.832031 18.054688 L 4.832031 19.257812 L 9.667969 19.257812 L 9.667969 16.847656 L 8.457031 16.847656 L 8.457031 18.054688 L 6.164062 18.054688 C 7.246094 16.148438 8.148438 14.304688 9.183594 12.371094 C 9.484375 11.96875 9.667969 11.375 9.667969 10.832031 L 9.667969 9.628906 C 9.667969 8.292969 8.589844 7.21875 7.25 7.21875 "/>
<path style=" stroke:none;fill-rule:nonzero;fill:rgb(100%,33.333333%,33.333333%);fill-opacity:1;" d="M 79.75 122.773438 C 81.089844 122.773438 82.167969 121.703125 82.167969 120.367188 L 82.167969 119.164062 L 80.957031 119.164062 L 80.957031 120.367188 C 80.957031 121.035156 80.417969 121.570312 79.75 121.570312 C 79.082031 121.570312 78.542969 121.035156 78.542969 120.367188 L 78.542969 119.164062 C 78.542969 118.894531 78.632812 118.425781 78.785156 118.226562 C 79.863281 116.035156 81.027344 114.101562 82.167969 111.941406 L 82.167969 110.738281 L 77.332031 110.738281 L 77.332031 113.144531 L 78.542969 113.144531 L 78.542969 111.941406 L 80.835938 111.941406 C 79.753906 113.847656 78.851562 115.691406 77.816406 117.625 C 77.515625 118.023438 77.332031 118.621094 77.332031 119.164062 L 77.332031 120.367188 C 77.332031 121.703125 78.410156 122.773438 79.75 122.773438 "/>
</g>
</svg>
