<?xml version="1.0" encoding="UTF-8"?>
<svg xmlns="http://www.w3.org/2000/svg" xmlns:xlink="http://www.w3.org/1999/xlink" width="90px" height="130px" viewBox="0 0 90 130" version="1.1">
<g id="surface1">
<path style="fill-rule:nonzero;fill:rgb(100%,100%,100%);fill-opacity:1;stroke-width:1;stroke-linecap:butt;stroke-linejoin:miter;stroke:rgb(0%,0%,0%);stroke-opacity:1;stroke-miterlimit:4;" d="M 60.4375 -1797.133216 L 359.5625 -1797.133216 C 376.09375 -1797.133216 389.5 -1783.730572 389.5 -1767.196317 L 389.5 -1288.076125 C 389.5 -1271.54187 376.09375 -1258.139226 359.5625 -1258.139226 L 60.4375 -1258.139226 C 43.90625 -1258.139226 30.5 -1271.54187 30.5 -1288.076125 L 30.5 -1767.196317 C 30.5 -1783.730572 43.90625 -1797.133216 60.4375 -1797.133216 Z M 60.4375 -1797.133216 " transform="matrix(0.25,0,0,0.240741,-7.5,432.760369)"/>
<path style=" stroke:none;fill-rule:nonzero;fill:rgb(100%,33.333334%,33.333334%);fill-opacity:1;" d="M 5 7.21875 L 5 8.421875 L 6.898438 8.421875 L 6.898438 19.253906 L 8.148438 19.253906 L 8.148438 8.421875 L 10 8.421875 L 10 7.21875 Z M 5 7.21875 "/>
<path style=" stroke:none;fill-rule:nonzero;fill:rgb(100%,33.333334%,33.333334%);fill-opacity:1;" d="M 80 122.773438 L 80 121.570312 L 81.898438 121.570312 L 81.898438 110.734375 L 83.148438 110.734375 L 83.148438 121.570312 L 85 121.570312 L 85 122.773438 Z M 80 122.773438 "/>
<path style=" stroke:none;fill-rule:nonzero;fill:rgb(100%,33.333334%,33.333334%);fill-opacity:1;" d="M 45 60.179688 C 45 60.179688 45.453125 57.496094 46.332031 56.648438 C 47.210938 55.804688 48.757812 55.367188 50 55.367188 C 51.242188 55.367188 52.789062 55.804688 53.667969 56.648438 C 54.546875 57.496094 55 58.984375 55 60.179688 C 55 61.375 54.332031 63.070312 53.667969 63.710938 C 53 64.351562 52.332031 64.675781 51.667969 65.316406 C 51 65.957031 50.667969 65.957031 50 66.601562 C 49.332031 67.242188 49 67.5625 48.332031 68.207031 C 47.667969 68.847656 46.667969 70.132812 46 71.414062 C 45.332031 72.699219 45 74.625 45 74.625 C 45 74.625 44.667969 72.699219 44 71.414062 C 43.332031 70.132812 42.332031 68.847656 41.667969 68.207031 C 41 67.5625 40.667969 67.242188 40 66.601562 C 39.332031 65.957031 39 65.957031 38.332031 65.316406 C 37.667969 64.675781 37 64.351562 36.332031 63.710938 C 35.667969 63.070312 35 61.375 35 60.179688 C 35 58.984375 35.453125 57.496094 36.332031 56.648438 C 37.210938 55.804688 38.757812 55.367188 40 55.367188 C 41.242188 55.367188 42.789062 55.804688 43.667969 56.648438 C 44.546875 57.496094 45 60.179688 45 60.179688 "/>
<path style=" stroke:none;fill-rule:nonzero;fill:rgb(100%,33.333334%,33.333334%);fill-opacity:1;" d="M 7.5 23.46875 C 7.5 23.46875 7.671875 22.460938 8 22.144531 C 8.328125 21.824219 8.910156 21.660156 9.375 21.660156 C 9.839844 21.660156 10.421875 21.824219 10.75 22.144531 C 11.078125 22.460938 11.25 23.019531 11.25 23.46875 C 11.25 23.914062 11 24.550781 10.75 24.792969 C 10.5 25.03125 10.25 25.152344 10 25.394531 C 9.75 25.632812 9.625 25.632812 9.375 25.875 C 9.125 26.117188 9 26.234375 8.75 26.476562 C 8.5 26.71875 8.125 27.199219 7.875 27.679688 C 7.625 28.160156 7.5 28.882812 7.5 28.882812 C 7.5 28.882812 7.375 28.160156 7.125 27.679688 C 6.875 27.199219 6.5 26.71875 6.25 26.476562 C 6 26.234375 5.875 26.117188 5.625 25.875 C 5.375 25.632812 5.25 25.632812 5 25.394531 C 4.75 25.152344 4.5 25.03125 4.25 24.792969 C 4 24.550781 3.75 23.914062 3.75 23.46875 C 3.75 23.019531 3.921875 22.460938 4.25 22.144531 C 4.578125 21.824219 5.160156 21.660156 5.625 21.660156 C 6.089844 21.660156 6.671875 21.824219 7 22.144531 C 7.328125 22.460938 7.5 23.46875 7.5 23.46875 "/>
<path style=" stroke:none;fill-rule:nonzero;fill:rgb(100%,33.333334%,33.333334%);fill-opacity:1;" d="M 82.5 106.523438 C 82.5 106.523438 82.671875 107.53125 83 107.847656 C 83.328125 108.164062 83.910156 108.328125 84.375 108.328125 C 84.839844 108.328125 85.421875 108.164062 85.75 107.847656 C 86.078125 107.53125 86.25 106.972656 86.25 106.523438 C 86.25 106.074219 86 105.441406 85.75 105.199219 C 85.5 104.957031 85.25 104.835938 85 104.597656 C 84.75 104.355469 84.625 104.355469 84.375 104.117188 C 84.125 103.875 84 103.753906 83.75 103.515625 C 83.5 103.273438 83.125 102.792969 82.875 102.308594 C 82.625 101.828125 82.5 101.105469 82.5 101.105469 C 82.5 101.105469 82.375 101.828125 82.125 102.308594 C 81.875 102.792969 81.5 103.273438 81.25 103.515625 C 81 103.753906 80.875 103.875 80.625 104.117188 C 80.375 104.355469 80.25 104.355469 80 104.597656 C 79.75 104.835938 79.5 104.957031 79.25 105.199219 C 79 105.441406 78.75 106.074219 78.75 106.523438 C 78.75 106.972656 78.921875 107.53125 79.25 107.847656 C 79.578125 108.164062 80.160156 108.328125 80.625 108.328125 C 81.089844 108.328125 81.671875 108.164062 82 107.847656 C 82.328125 107.53125 82.5 106.523438 82.5 106.523438 "/>
</g>
</svg>
