<?xml version="1.0" encoding="UTF-8"?>
<svg xmlns="http://www.w3.org/2000/svg" xmlns:xlink="http://www.w3.org/1999/xlink" width="87pt" height="130pt" viewBox="0 0 87 130" version="1.1">
<g id="surface1">
<path style="fill-rule:nonzero;fill:rgb(100%,100%,100%);fill-opacity:1;stroke-width:1;stroke-linecap:butt;stroke-linejoin:miter;stroke:rgb(0%,0%,0%);stroke-opacity:1;stroke-miterlimit:4;" d="M 3180.436422 -1797.133221 L 3479.563578 -1797.133221 C 3496.099138 -1797.133221 3509.498922 -1783.730577 3509.498922 -1767.196322 L 3509.498922 -1288.07613 C 3509.498922 -1271.541875 3496.099138 -1258.139231 3479.563578 -1258.139231 L 3180.436422 -1258.139231 C 3163.900862 -1258.139231 3150.501078 -1271.541875 3150.501078 -1288.07613 L 3150.501078 -1767.196322 C 3150.501078 -1783.730577 3163.900862 -1797.133221 3180.436422 -1797.133221 Z M 3180.436422 -1797.133221 " transform="matrix(0.241667,0,0,0.240741,-761.25,432.76037)"/>
<path style=" stroke:none;fill-rule:nonzero;fill:rgb(100%,33.333333%,33.333333%);fill-opacity:1;" d="M 7.25 23.46875 C 7.25 23.46875 7.414062 22.460938 7.734375 22.144531 C 8.050781 21.824219 8.613281 21.660156 9.0625 21.660156 C 9.511719 21.660156 10.074219 21.824219 10.390625 22.144531 C 10.710938 22.460938 10.875 23.019531 10.875 23.46875 C 10.875 23.914062 10.632812 24.550781 10.390625 24.792969 C 10.148438 25.03125 9.910156 25.152344 9.667969 25.394531 C 9.425781 25.632812 9.304688 25.632812 9.0625 25.875 C 8.820312 26.117188 8.699219 26.234375 8.457031 26.476562 C 8.214844 26.71875 7.855469 27.199219 7.613281 27.679688 C 7.371094 28.160156 7.25 28.882812 7.25 28.882812 C 7.25 28.882812 7.128906 28.160156 6.886719 27.679688 C 6.644531 27.199219 6.285156 26.71875 6.042969 26.476562 C 5.800781 26.234375 5.679688 26.117188 5.4375 25.875 C 5.195312 25.632812 5.074219 25.632812 4.832031 25.394531 C 4.589844 25.152344 4.351562 25.03125 4.109375 24.792969 C 3.867188 24.550781 3.625 23.914062 3.625 23.46875 C 3.625 23.019531 3.789062 22.460938 4.109375 22.144531 C 4.425781 21.824219 4.988281 21.660156 5.4375 21.660156 C 5.886719 21.660156 6.449219 21.824219 6.765625 22.144531 C 7.085938 22.460938 7.25 23.46875 7.25 23.46875 "/>
<path style=" stroke:none;fill-rule:nonzero;fill:rgb(100%,33.333333%,33.333333%);fill-opacity:1;" d="M 79.75 106.523438 C 79.75 106.523438 79.914062 107.53125 80.234375 107.847656 C 80.550781 108.164062 81.113281 108.328125 81.5625 108.328125 C 82.011719 108.328125 82.574219 108.164062 82.890625 107.847656 C 83.210938 107.53125 83.375 106.972656 83.375 106.523438 C 83.375 106.074219 83.132812 105.441406 82.890625 105.199219 C 82.648438 104.957031 82.410156 104.835938 82.167969 104.597656 C 81.925781 104.355469 81.804688 104.355469 81.5625 104.117188 C 81.320312 103.875 81.199219 103.753906 80.957031 103.515625 C 80.714844 103.273438 80.355469 102.792969 80.113281 102.308594 C 79.871094 101.828125 79.75 101.105469 79.75 101.105469 C 79.75 101.105469 79.628906 101.828125 79.386719 102.308594 C 79.144531 102.792969 78.785156 103.273438 78.542969 103.515625 C 78.300781 103.753906 78.179688 103.875 77.9375 104.117188 C 77.695312 104.355469 77.574219 104.355469 77.332031 104.597656 C 77.089844 104.835938 76.851562 104.957031 76.609375 105.199219 C 76.367188 105.441406 76.125 106.074219 76.125 106.523438 C 76.125 106.972656 76.289062 107.53125 76.609375 107.847656 C 76.925781 108.164062 77.488281 108.328125 77.9375 108.328125 C 78.386719 108.328125 78.949219 108.164062 79.265625 107.847656 C 79.585938 107.53125 79.75 106.523438 79.75 106.523438 "/>
<path style=" stroke:none;fill-rule:nonzero;fill:rgb(100%,33.333333%,33.333333%);fill-opacity:1;" d="M 7.25 19.253906 C 8.589844 19.253906 9.667969 18.179688 9.667969 16.847656 L 9.667969 9.625 C 9.667969 8.292969 8.589844 7.21875 7.25 7.21875 C 5.910156 7.21875 4.832031 8.292969 4.832031 9.625 L 4.832031 12.03125 C 4.832031 13.367188 5.910156 14.441406 7.25 14.441406 C 7.691406 14.441406 8.105469 14.320312 8.457031 14.117188 L 8.457031 16.847656 C 8.457031 17.515625 7.917969 18.050781 7.25 18.050781 C 6.582031 18.050781 6.042969 17.515625 6.042969 16.847656 L 6.042969 16.605469 L 4.832031 16.605469 L 4.832031 16.847656 C 4.832031 18.179688 5.910156 19.253906 7.25 19.253906 M 7.25 13.234375 C 6.582031 13.234375 6.042969 12.699219 6.042969 12.03125 L 6.042969 9.625 C 6.042969 8.957031 6.582031 8.421875 7.25 8.421875 C 7.917969 8.421875 8.457031 8.957031 8.457031 9.625 L 8.457031 12.03125 C 8.457031 12.699219 7.917969 13.234375 7.25 13.234375 "/>
<path style=" stroke:none;fill-rule:nonzero;fill:rgb(100%,33.333333%,33.333333%);fill-opacity:1;" d="M 79.75 110.734375 C 78.410156 110.734375 77.332031 111.808594 77.332031 113.144531 L 77.332031 120.367188 C 77.332031 121.699219 78.410156 122.773438 79.75 122.773438 C 81.089844 122.773438 82.167969 121.699219 82.167969 120.367188 L 82.167969 117.957031 C 82.167969 116.625 81.089844 115.550781 79.75 115.550781 C 79.308594 115.550781 78.894531 115.671875 78.542969 115.875 L 78.542969 113.144531 C 78.542969 112.476562 79.082031 111.941406 79.75 111.941406 C 80.417969 111.941406 80.957031 112.476562 80.957031 113.144531 L 80.957031 113.382812 L 82.167969 113.382812 L 82.167969 113.144531 C 82.167969 111.808594 81.089844 110.734375 79.75 110.734375 M 79.75 116.753906 C 80.417969 116.753906 80.957031 117.292969 80.957031 117.957031 L 80.957031 120.367188 C 80.957031 121.03125 80.417969 121.570312 79.75 121.570312 C 79.082031 121.570312 78.542969 121.03125 78.542969 120.367188 L 78.542969 117.957031 C 78.542969 117.292969 79.082031 116.753906 79.75 116.753906 "/>
<path style=" stroke:none;fill-rule:nonzero;fill:rgb(100%,33.333333%,33.333333%);fill-opacity:1;" d="M 24.167969 16.847656 C 24.167969 16.847656 24.605469 14.160156 25.457031 13.316406 C 26.304688 12.46875 27.800781 12.03125 29 12.03125 C 30.199219 12.03125 31.695312 12.46875 32.542969 13.316406 C 33.394531 14.160156 33.832031 15.652344 33.832031 16.847656 C 33.832031 18.042969 33.1875 19.734375 32.542969 20.378906 C 31.898438 21.019531 31.253906 21.339844 30.609375 21.984375 C 29.964844 22.625 29.644531 22.625 29 23.265625 C 28.355469 23.910156 28.035156 24.230469 27.390625 24.871094 C 26.746094 25.515625 25.777344 26.796875 25.132812 28.082031 C 24.488281 29.367188 24.167969 31.292969 24.167969 31.292969 C 24.167969 31.292969 23.84375 29.367188 23.199219 28.082031 C 22.554688 26.796875 21.589844 25.515625 20.945312 24.871094 C 20.300781 24.230469 19.976562 23.910156 19.332031 23.265625 C 18.6875 22.625 18.367188 22.625 17.722656 21.984375 C 17.078125 21.339844 16.433594 21.019531 15.789062 20.378906 C 15.144531 19.734375 14.5 18.042969 14.5 16.847656 C 14.5 15.652344 14.941406 14.160156 15.789062 13.316406 C 16.636719 12.46875 18.132812 12.03125 19.332031 12.03125 C 20.535156 12.03125 22.027344 12.46875 22.878906 13.316406 C 23.726562 14.160156 24.167969 16.847656 24.167969 16.847656 "/>
<path style=" stroke:none;fill-rule:nonzero;fill:rgb(100%,33.333333%,33.333333%);fill-opacity:1;" d="M 62.832031 16.847656 C 62.832031 16.847656 63.273438 14.160156 64.121094 13.316406 C 64.972656 12.46875 66.464844 12.03125 67.667969 12.03125 C 68.867188 12.03125 70.363281 12.46875 71.210938 13.316406 C 72.058594 14.160156 72.5 15.652344 72.5 16.847656 C 72.5 18.042969 71.855469 19.734375 71.210938 20.378906 C 70.566406 21.019531 69.921875 21.339844 69.277344 21.984375 C 68.632812 22.625 68.3125 22.625 67.667969 23.265625 C 67.023438 23.910156 66.699219 24.230469 66.054688 24.871094 C 65.410156 25.515625 64.445312 26.796875 63.800781 28.082031 C 63.15625 29.367188 62.832031 31.292969 62.832031 31.292969 C 62.832031 31.292969 62.511719 29.367188 61.867188 28.082031 C 61.222656 26.796875 60.253906 25.515625 59.609375 24.871094 C 58.964844 24.230469 58.644531 23.910156 58 23.265625 C 57.355469 22.625 57.035156 22.625 56.390625 21.984375 C 55.746094 21.339844 55.101562 21.019531 54.457031 20.378906 C 53.8125 19.734375 53.167969 18.042969 53.167969 16.847656 C 53.167969 15.652344 53.605469 14.160156 54.457031 13.316406 C 55.304688 12.46875 56.800781 12.03125 58 12.03125 C 59.199219 12.03125 60.695312 12.46875 61.542969 13.316406 C 62.394531 14.160156 62.832031 16.847656 62.832031 16.847656 "/>
<path style=" stroke:none;fill-rule:nonzero;fill:rgb(100%,33.333333%,33.333333%);fill-opacity:1;" d="M 24.167969 45.734375 C 24.167969 45.734375 24.605469 43.050781 25.457031 42.203125 C 26.304688 41.359375 27.800781 40.921875 29 40.921875 C 30.199219 40.921875 31.695312 41.359375 32.542969 42.203125 C 33.394531 43.050781 33.832031 44.539062 33.832031 45.734375 C 33.832031 46.933594 33.1875 48.625 32.542969 49.265625 C 31.898438 49.910156 31.253906 50.230469 30.609375 50.871094 C 29.964844 51.515625 29.644531 51.515625 29 52.15625 C 28.355469 52.796875 28.035156 53.117188 27.390625 53.761719 C 26.746094 54.402344 25.777344 55.6875 25.132812 56.96875 C 24.488281 58.253906 24.167969 60.179688 24.167969 60.179688 C 24.167969 60.179688 23.84375 58.253906 23.199219 56.96875 C 22.554688 55.6875 21.589844 54.402344 20.945312 53.761719 C 20.300781 53.117188 19.976562 52.796875 19.332031 52.15625 C 18.6875 51.515625 18.367188 51.515625 17.722656 50.871094 C 17.078125 50.230469 16.433594 49.910156 15.789062 49.265625 C 15.144531 48.625 14.5 46.933594 14.5 45.734375 C 14.5 44.539062 14.941406 43.050781 15.789062 42.203125 C 16.636719 41.359375 18.132812 40.921875 19.332031 40.921875 C 20.535156 40.921875 22.027344 41.359375 22.878906 42.203125 C 23.726562 43.050781 24.167969 45.734375 24.167969 45.734375 "/>
<path style=" stroke:none;fill-rule:nonzero;fill:rgb(100%,33.333333%,33.333333%);fill-opacity:1;" d="M 62.832031 45.734375 C 62.832031 45.734375 63.273438 43.050781 64.121094 42.203125 C 64.972656 41.359375 66.464844 40.921875 67.667969 40.921875 C 68.867188 40.921875 70.363281 41.359375 71.210938 42.203125 C 72.058594 43.050781 72.5 44.539062 72.5 45.734375 C 72.5 46.933594 71.855469 48.625 71.210938 49.265625 C 70.566406 49.910156 69.921875 50.230469 69.277344 50.871094 C 68.632812 51.515625 68.3125 51.515625 67.667969 52.15625 C 67.023438 52.796875 66.699219 53.117188 66.054688 53.761719 C 65.410156 54.402344 64.445312 55.6875 63.800781 56.96875 C 63.15625 58.253906 62.832031 60.179688 62.832031 60.179688 C 62.832031 60.179688 62.511719 58.253906 61.867188 56.96875 C 61.222656 55.6875 60.253906 54.402344 59.609375 53.761719 C 58.964844 53.117188 58.644531 52.796875 58 52.15625 C 57.355469 51.515625 57.035156 51.515625 56.390625 50.871094 C 55.746094 50.230469 55.101562 49.910156 54.457031 49.265625 C 53.8125 48.625 53.167969 46.933594 53.167969 45.734375 C 53.167969 44.539062 53.605469 43.050781 54.457031 42.203125 C 55.304688 41.359375 56.800781 40.921875 58 40.921875 C 59.199219 40.921875 60.695312 41.359375 61.542969 42.203125 C 62.394531 43.050781 62.832031 45.734375 62.832031 45.734375 "/>
<path style=" stroke:none;fill-rule:nonzero;fill:rgb(100%,33.333333%,33.333333%);fill-opacity:1;" d="M 24.167969 113.144531 C 24.167969 113.144531 24.605469 115.828125 25.457031 116.675781 C 26.304688 117.519531 27.800781 117.957031 29 117.957031 C 30.199219 117.957031 31.695312 117.519531 32.542969 116.675781 C 33.394531 115.828125 33.832031 114.339844 33.832031 113.144531 C 33.832031 111.945312 33.1875 110.253906 32.542969 109.613281 C 31.898438 108.96875 31.253906 108.648438 30.609375 108.007812 C 29.964844 107.367188 29.644531 107.367188 29 106.722656 C 28.355469 106.082031 28.035156 105.761719 27.390625 105.117188 C 26.746094 104.476562 25.777344 103.191406 25.132812 101.910156 C 24.488281 100.625 24.167969 98.699219 24.167969 98.699219 C 24.167969 98.699219 23.84375 100.625 23.199219 101.910156 C 22.554688 103.191406 21.589844 104.476562 20.945312 105.117188 C 20.300781 105.761719 19.976562 106.082031 19.332031 106.722656 C 18.6875 107.367188 18.367188 107.367188 17.722656 108.007812 C 17.078125 108.648438 16.433594 108.96875 15.789062 109.613281 C 15.144531 110.253906 14.5 111.945312 14.5 113.144531 C 14.5 114.339844 14.941406 115.828125 15.789062 116.675781 C 16.636719 117.519531 18.132812 117.957031 19.332031 117.957031 C 20.535156 117.957031 22.027344 117.519531 22.878906 116.675781 C 23.726562 115.828125 24.167969 113.144531 24.167969 113.144531 "/>
<path style=" stroke:none;fill-rule:nonzero;fill:rgb(100%,33.333333%,33.333333%);fill-opacity:1;" d="M 62.832031 113.144531 C 62.832031 113.144531 63.273438 115.828125 64.121094 116.675781 C 64.972656 117.519531 66.464844 117.957031 67.667969 117.957031 C 68.867188 117.957031 70.363281 117.519531 71.210938 116.675781 C 72.058594 115.828125 72.5 114.339844 72.5 113.144531 C 72.5 111.945312 71.855469 110.253906 71.210938 109.613281 C 70.566406 108.96875 69.921875 108.648438 69.277344 108.007812 C 68.632812 107.367188 68.3125 107.367188 67.667969 106.722656 C 67.023438 106.082031 66.699219 105.761719 66.054688 105.117188 C 65.410156 104.476562 64.445312 103.191406 63.800781 101.910156 C 63.15625 100.625 62.832031 98.699219 62.832031 98.699219 C 62.832031 98.699219 62.511719 100.625 61.867188 101.910156 C 61.222656 103.191406 60.253906 104.476562 59.609375 105.117188 C 58.964844 105.761719 58.644531 106.082031 58 106.722656 C 57.355469 107.367188 57.035156 107.367188 56.390625 108.007812 C 55.746094 108.648438 55.101562 108.96875 54.457031 109.613281 C 53.8125 110.253906 53.167969 111.945312 53.167969 113.144531 C 53.167969 114.339844 53.605469 115.828125 54.457031 116.675781 C 55.304688 117.519531 56.800781 117.957031 58 117.957031 C 59.199219 117.957031 60.695312 117.519531 61.542969 116.675781 C 62.394531 115.828125 62.832031 113.144531 62.832031 113.144531 "/>
<path style=" stroke:none;fill-rule:nonzero;fill:rgb(100%,33.333333%,33.333333%);fill-opacity:1;" d="M 24.167969 84.253906 C 24.167969 84.253906 24.605469 86.9375 25.457031 87.785156 C 26.304688 88.632812 27.800781 89.070312 29 89.070312 C 30.199219 89.070312 31.695312 88.632812 32.542969 87.785156 C 33.394531 86.9375 33.832031 85.449219 33.832031 84.253906 C 33.832031 83.058594 33.1875 81.367188 32.542969 80.722656 C 31.898438 80.082031 31.253906 79.761719 30.609375 79.117188 C 29.964844 78.476562 29.644531 78.476562 29 77.835938 C 28.355469 77.191406 28.035156 76.871094 27.390625 76.230469 C 26.746094 75.585938 25.777344 74.304688 25.132812 73.019531 C 24.488281 71.734375 24.167969 69.808594 24.167969 69.808594 C 24.167969 69.808594 23.84375 71.734375 23.199219 73.019531 C 22.554688 74.304688 21.589844 75.585938 20.945312 76.230469 C 20.300781 76.871094 19.976562 77.191406 19.332031 77.835938 C 18.6875 78.476562 18.367188 78.476562 17.722656 79.117188 C 17.078125 79.761719 16.433594 80.082031 15.789062 80.722656 C 15.144531 81.367188 14.5 83.058594 14.5 84.253906 C 14.5 85.449219 14.941406 86.9375 15.789062 87.785156 C 16.636719 88.632812 18.132812 89.070312 19.332031 89.070312 C 20.535156 89.070312 22.027344 88.632812 22.878906 87.785156 C 23.726562 86.9375 24.167969 84.253906 24.167969 84.253906 "/>
<path style=" stroke:none;fill-rule:nonzero;fill:rgb(100%,33.333333%,33.333333%);fill-opacity:1;" d="M 62.832031 84.253906 C 62.832031 84.253906 63.273438 86.9375 64.121094 87.785156 C 64.972656 88.632812 66.464844 89.070312 67.667969 89.070312 C 68.867188 89.070312 70.363281 88.632812 71.210938 87.785156 C 72.058594 86.9375 72.5 85.449219 72.5 84.253906 C 72.5 83.058594 71.855469 81.367188 71.210938 80.722656 C 70.566406 80.082031 69.921875 79.761719 69.277344 79.117188 C 68.632812 78.476562 68.3125 78.476562 67.667969 77.835938 C 67.023438 77.191406 66.699219 76.871094 66.054688 76.230469 C 65.410156 75.585938 64.445312 74.304688 63.800781 73.019531 C 63.15625 71.734375 62.832031 69.808594 62.832031 69.808594 C 62.832031 69.808594 62.511719 71.734375 61.867188 73.019531 C 61.222656 74.304688 60.253906 75.585938 59.609375 76.230469 C 58.964844 76.871094 58.644531 77.191406 58 77.835938 C 57.355469 78.476562 57.035156 78.476562 56.390625 79.117188 C 55.746094 79.761719 55.101562 80.082031 54.457031 80.722656 C 53.8125 81.367188 53.167969 83.058594 53.167969 84.253906 C 53.167969 85.449219 53.605469 86.9375 54.457031 87.785156 C 55.304688 88.632812 56.800781 89.070312 58 89.070312 C 59.199219 89.070312 60.695312 88.632812 61.542969 87.785156 C 62.394531 86.9375 62.832031 84.253906 62.832031 84.253906 "/>
<path style=" stroke:none;fill-rule:nonzero;fill:rgb(100%,33.333333%,33.333333%);fill-opacity:1;" d="M 43.5 60.179688 C 43.5 60.179688 43.941406 57.496094 44.789062 56.648438 C 45.636719 55.804688 47.132812 55.367188 48.332031 55.367188 C 49.535156 55.367188 51.027344 55.804688 51.878906 56.648438 C 52.726562 57.496094 53.167969 58.984375 53.167969 60.179688 C 53.167969 61.375 52.523438 63.070312 51.878906 63.710938 C 51.234375 64.351562 50.589844 64.675781 49.945312 65.316406 C 49.300781 65.957031 48.976562 65.957031 48.332031 66.601562 C 47.6875 67.242188 47.367188 67.5625 46.722656 68.207031 C 46.078125 68.847656 45.109375 70.132812 44.464844 71.414062 C 43.820312 72.699219 43.5 74.625 43.5 74.625 C 43.5 74.625 43.179688 72.699219 42.535156 71.414062 C 41.890625 70.132812 40.921875 68.847656 40.277344 68.207031 C 39.632812 67.5625 39.3125 67.242188 38.667969 66.601562 C 38.023438 65.957031 37.699219 65.957031 37.054688 65.316406 C 36.410156 64.675781 35.765625 64.351562 35.121094 63.710938 C 34.476562 63.070312 33.832031 61.375 33.832031 60.179688 C 33.832031 58.984375 34.273438 57.496094 35.121094 56.648438 C 35.972656 55.804688 37.464844 55.367188 38.667969 55.367188 C 39.867188 55.367188 41.363281 55.804688 42.210938 56.648438 C 43.058594 57.496094 43.5 60.179688 43.5 60.179688 "/>
</g>
</svg>
