<?xml version="1.0" encoding="UTF-8"?>
<svg xmlns="http://www.w3.org/2000/svg" xmlns:xlink="http://www.w3.org/1999/xlink" width="90px" height="130px" viewBox="0 0 90 130" version="1.1">
<g id="surface1">
<path style="fill-rule:nonzero;fill:rgb(100%,100%,100%);fill-opacity:1;stroke-width:1;stroke-linecap:butt;stroke-linejoin:miter;stroke:rgb(0%,0%,0%);stroke-opacity:1;stroke-miterlimit:4;" d="M 30.4375 512.86299 L 329.5625 512.86299 C 346.09375 512.86299 359.5 526.265634 359.5 542.799889 L 359.5 1021.920082 C 359.5 1038.454336 346.09375 1051.856981 329.5625 1051.856981 L 30.4375 1051.856981 C 13.90625 1051.856981 0.5 1038.454336 0.5 1021.920082 L 0.5 542.799889 C 0.5 526.265634 13.90625 512.86299 30.4375 512.86299 Z M 30.4375 512.86299 " transform="matrix(0.25,0,0,0.240741,0,-123.345922)"/>
<path style=" stroke:none;fill-rule:nonzero;fill:rgb(100%,33.333334%,33.333334%);fill-opacity:1;" d="M 7.5 23.472656 C 7.5 23.472656 7.671875 22.464844 8 22.148438 C 8.328125 21.832031 8.910156 21.667969 9.375 21.667969 C 9.839844 21.667969 10.421875 21.832031 10.75 22.148438 C 11.078125 22.464844 11.25 23.023438 11.25 23.472656 C 11.25 23.921875 11 24.554688 10.75 24.796875 C 10.5 25.035156 10.25 25.15625 10 25.398438 C 9.75 25.640625 9.625 25.640625 9.375 25.878906 C 9.125 26.121094 9 26.242188 8.75 26.480469 C 8.5 26.722656 8.125 27.203125 7.875 27.683594 C 7.625 28.167969 7.5 28.890625 7.5 28.890625 C 7.5 28.890625 7.375 28.167969 7.125 27.683594 C 6.875 27.203125 6.5 26.722656 6.25 26.480469 C 6 26.242188 5.875 26.121094 5.625 25.878906 C 5.375 25.640625 5.25 25.640625 5 25.398438 C 4.75 25.15625 4.5 25.035156 4.25 24.796875 C 4 24.554688 3.75 23.921875 3.75 23.472656 C 3.75 23.023438 3.921875 22.464844 4.25 22.148438 C 4.578125 21.832031 5.160156 21.667969 5.625 21.667969 C 6.089844 21.667969 6.671875 21.832031 7 22.148438 C 7.328125 22.464844 7.5 23.472656 7.5 23.472656 "/>
<path style=" stroke:none;fill-rule:nonzero;fill:rgb(100%,33.333334%,33.333334%);fill-opacity:1;" d="M 82.5 106.527344 C 82.5 106.527344 82.671875 107.535156 83 107.851562 C 83.328125 108.167969 83.910156 108.332031 84.375 108.332031 C 84.839844 108.332031 85.421875 108.167969 85.75 107.851562 C 86.078125 107.535156 86.25 106.976562 86.25 106.527344 C 86.25 106.078125 86 105.445312 85.75 105.203125 C 85.5 104.964844 85.25 104.84375 85 104.601562 C 84.75 104.359375 84.625 104.359375 84.375 104.121094 C 84.125 103.878906 84 103.757812 83.75 103.519531 C 83.5 103.277344 83.125 102.796875 82.875 102.316406 C 82.625 101.832031 82.5 101.109375 82.5 101.109375 C 82.5 101.109375 82.375 101.832031 82.125 102.316406 C 81.875 102.796875 81.5 103.277344 81.25 103.519531 C 81 103.757812 80.875 103.878906 80.625 104.121094 C 80.375 104.359375 80.25 104.359375 80 104.601562 C 79.75 104.84375 79.5 104.964844 79.25 105.203125 C 79 105.445312 78.75 106.078125 78.75 106.527344 C 78.75 106.976562 78.921875 107.535156 79.25 107.851562 C 79.578125 108.167969 80.160156 108.332031 80.625 108.332031 C 81.089844 108.332031 81.671875 108.167969 82 107.851562 C 82.328125 107.535156 82.5 106.527344 82.5 106.527344 "/>
<path style=" stroke:none;fill-rule:nonzero;fill:rgb(100%,33.333334%,33.333334%);fill-opacity:1;" d="M 25 16.851562 C 25 16.851562 25.453125 14.167969 26.332031 13.320312 C 27.210938 12.476562 28.757812 12.035156 30 12.035156 C 31.242188 12.035156 32.789062 12.476562 33.667969 13.320312 C 34.546875 14.167969 35 15.65625 35 16.851562 C 35 18.046875 34.332031 19.742188 33.667969 20.382812 C 33 21.023438 32.332031 21.347656 31.667969 21.988281 C 31 22.628906 30.667969 22.628906 30 23.273438 C 29.332031 23.914062 29 24.234375 28.332031 24.875 C 27.667969 25.519531 26.667969 26.800781 26 28.085938 C 25.332031 29.371094 25 31.296875 25 31.296875 C 25 31.296875 24.667969 29.371094 24 28.085938 C 23.332031 26.800781 22.332031 25.519531 21.667969 24.875 C 21 24.234375 20.667969 23.914062 20 23.273438 C 19.332031 22.628906 19 22.628906 18.332031 21.988281 C 17.667969 21.347656 17 21.023438 16.332031 20.382812 C 15.667969 19.742188 15 18.046875 15 16.851562 C 15 15.65625 15.453125 14.167969 16.332031 13.320312 C 17.210938 12.476562 18.757812 12.035156 20 12.035156 C 21.242188 12.035156 22.789062 12.476562 23.667969 13.320312 C 24.546875 14.167969 25 16.851562 25 16.851562 "/>
<path style=" stroke:none;fill-rule:nonzero;fill:rgb(100%,33.333334%,33.333334%);fill-opacity:1;" d="M 25 113.148438 C 25 113.148438 25.453125 115.832031 26.332031 116.679688 C 27.210938 117.523438 28.757812 117.964844 30 117.964844 C 31.242188 117.964844 32.789062 117.523438 33.667969 116.679688 C 34.546875 115.832031 35 114.34375 35 113.148438 C 35 111.953125 34.332031 110.257812 33.667969 109.617188 C 33 108.976562 32.332031 108.652344 31.667969 108.011719 C 31 107.371094 30.667969 107.371094 30 106.726562 C 29.332031 106.085938 29 105.765625 28.332031 105.125 C 27.667969 104.480469 26.667969 103.199219 26 101.914062 C 25.332031 100.628906 25 98.703125 25 98.703125 C 25 98.703125 24.667969 100.628906 24 101.914062 C 23.332031 103.199219 22.332031 104.480469 21.667969 105.125 C 21 105.765625 20.667969 106.085938 20 106.726562 C 19.332031 107.371094 19 107.371094 18.332031 108.011719 C 17.667969 108.652344 17 108.976562 16.332031 109.617188 C 15.667969 110.257812 15 111.953125 15 113.148438 C 15 114.34375 15.453125 115.832031 16.332031 116.679688 C 17.210938 117.523438 18.757812 117.964844 20 117.964844 C 21.242188 117.964844 22.789062 117.523438 23.667969 116.679688 C 24.546875 115.832031 25 113.148438 25 113.148438 "/>
<path style=" stroke:none;fill-rule:nonzero;fill:rgb(100%,33.333334%,33.333334%);fill-opacity:1;" d="M 65 113.148438 C 65 113.148438 65.453125 115.832031 66.332031 116.679688 C 67.210938 117.523438 68.757812 117.964844 70 117.964844 C 71.242188 117.964844 72.789062 117.523438 73.667969 116.679688 C 74.546875 115.832031 75 114.34375 75 113.148438 C 75 111.953125 74.332031 110.257812 73.667969 109.617188 C 73 108.976562 72.332031 108.652344 71.667969 108.011719 C 71 107.371094 70.667969 107.371094 70 106.726562 C 69.332031 106.085938 69 105.765625 68.332031 105.125 C 67.667969 104.480469 66.667969 103.199219 66 101.914062 C 65.332031 100.628906 65 98.703125 65 98.703125 C 65 98.703125 64.667969 100.628906 64 101.914062 C 63.332031 103.199219 62.332031 104.480469 61.667969 105.125 C 61 105.765625 60.667969 106.085938 60 106.726562 C 59.332031 107.371094 59 107.371094 58.332031 108.011719 C 57.667969 108.652344 57 108.976562 56.332031 109.617188 C 55.667969 110.257812 55 111.953125 55 113.148438 C 55 114.34375 55.453125 115.832031 56.332031 116.679688 C 57.210938 117.523438 58.757812 117.964844 60 117.964844 C 61.242188 117.964844 62.789062 117.523438 63.667969 116.679688 C 64.546875 115.832031 65 113.148438 65 113.148438 "/>
<path style=" stroke:none;fill-rule:nonzero;fill:rgb(100%,33.333334%,33.333334%);fill-opacity:1;" d="M 65 16.851562 C 65 16.851562 65.453125 14.167969 66.332031 13.320312 C 67.210938 12.476562 68.757812 12.035156 70 12.035156 C 71.242188 12.035156 72.789062 12.476562 73.667969 13.320312 C 74.546875 14.167969 75 15.65625 75 16.851562 C 75 18.046875 74.332031 19.742188 73.667969 20.382812 C 73 21.023438 72.332031 21.347656 71.667969 21.988281 C 71 22.628906 70.667969 22.628906 70 23.273438 C 69.332031 23.914062 69 24.234375 68.332031 24.875 C 67.667969 25.519531 66.667969 26.800781 66 28.085938 C 65.332031 29.371094 65 31.296875 65 31.296875 C 65 31.296875 64.667969 29.371094 64 28.085938 C 63.332031 26.800781 62.332031 25.519531 61.667969 24.875 C 61 24.234375 60.667969 23.914062 60 23.273438 C 59.332031 22.628906 59 22.628906 58.332031 21.988281 C 57.667969 21.347656 57 21.023438 56.332031 20.382812 C 55.667969 19.742188 55 18.046875 55 16.851562 C 55 15.65625 55.453125 14.167969 56.332031 13.320312 C 57.210938 12.476562 58.757812 12.035156 60 12.035156 C 61.242188 12.035156 62.789062 12.476562 63.667969 13.320312 C 64.546875 14.167969 65 16.851562 65 16.851562 "/>
<path style=" stroke:none;fill-rule:nonzero;fill:rgb(100%,33.333334%,33.333334%);fill-opacity:1;" d="M 65 60.183594 C 65 60.183594 65.453125 57.5 66.332031 56.652344 C 67.210938 55.808594 68.757812 55.371094 70 55.371094 C 71.242188 55.371094 72.789062 55.808594 73.667969 56.652344 C 74.546875 57.5 75 58.988281 75 60.183594 C 75 61.382812 74.332031 63.074219 73.667969 63.714844 C 73 64.359375 72.332031 64.679688 71.667969 65.320312 C 71 65.964844 70.667969 65.964844 70 66.605469 C 69.332031 67.246094 69 67.566406 68.332031 68.210938 C 67.667969 68.851562 66.667969 70.136719 66 71.417969 C 65.332031 72.703125 65 74.628906 65 74.628906 C 65 74.628906 64.667969 72.703125 64 71.417969 C 63.332031 70.136719 62.332031 68.851562 61.667969 68.210938 C 61 67.566406 60.667969 67.246094 60 66.605469 C 59.332031 65.964844 59 65.964844 58.332031 65.320312 C 57.667969 64.679688 57 64.359375 56.332031 63.714844 C 55.667969 63.074219 55 61.382812 55 60.183594 C 55 58.988281 55.453125 57.5 56.332031 56.652344 C 57.210938 55.808594 58.757812 55.371094 60 55.371094 C 61.242188 55.371094 62.789062 55.808594 63.667969 56.652344 C 64.546875 57.5 65 60.183594 65 60.183594 "/>
<path style=" stroke:none;fill-rule:nonzero;fill:rgb(100%,33.333334%,33.333334%);fill-opacity:1;" d="M 25 60.183594 C 25 60.183594 25.453125 57.5 26.332031 56.652344 C 27.210938 55.808594 28.757812 55.371094 30 55.371094 C 31.242188 55.371094 32.789062 55.808594 33.667969 56.652344 C 34.546875 57.5 35 58.988281 35 60.183594 C 35 61.382812 34.332031 63.074219 33.667969 63.714844 C 33 64.359375 32.332031 64.679688 31.667969 65.320312 C 31 65.964844 30.667969 65.964844 30 66.605469 C 29.332031 67.246094 29 67.566406 28.332031 68.210938 C 27.667969 68.851562 26.667969 70.136719 26 71.417969 C 25.332031 72.703125 25 74.628906 25 74.628906 C 25 74.628906 24.667969 72.703125 24 71.417969 C 23.332031 70.136719 22.332031 68.851562 21.667969 68.210938 C 21 67.566406 20.667969 67.246094 20 66.605469 C 19.332031 65.964844 19 65.964844 18.332031 65.320312 C 17.667969 64.679688 17 64.359375 16.332031 63.714844 C 15.667969 63.074219 15 61.382812 15 60.183594 C 15 58.988281 15.453125 57.5 16.332031 56.652344 C 17.210938 55.808594 18.757812 55.371094 20 55.371094 C 21.242188 55.371094 22.789062 55.808594 23.667969 56.652344 C 24.546875 57.5 25 60.183594 25 60.183594 "/>
<path style=" stroke:none;fill-rule:nonzero;fill:rgb(100%,33.333334%,33.333334%);fill-opacity:1;" d="M 5 7.222656 L 5 9.628906 L 6.25 9.628906 L 6.25 8.425781 L 8.75 8.425781 L 6.25 19.257812 L 7.5 19.257812 L 10 8.425781 L 10 7.222656 L 5 7.222656 "/>
<path style=" stroke:none;fill-rule:nonzero;fill:rgb(100%,33.333334%,33.333334%);fill-opacity:1;" d="M 85 122.777344 L 85 120.371094 L 83.75 120.371094 L 83.75 121.574219 L 81.25 121.574219 L 83.75 110.742188 L 82.5 110.742188 L 80 121.574219 L 80 122.777344 L 85 122.777344 "/>
<path style=" stroke:none;fill-rule:nonzero;fill:rgb(100%,33.333334%,33.333334%);fill-opacity:1;" d="M 45 38.519531 C 45 38.519531 45.453125 35.832031 46.332031 34.988281 C 47.210938 34.140625 48.757812 33.703125 50 33.703125 C 51.242188 33.703125 52.789062 34.140625 53.667969 34.988281 C 54.546875 35.832031 55 37.324219 55 38.519531 C 55 39.714844 54.332031 41.40625 53.667969 42.050781 C 53 42.691406 52.332031 43.011719 51.667969 43.65625 C 51 44.296875 50.667969 44.296875 50 44.9375 C 49.332031 45.582031 49 45.902344 48.332031 46.542969 C 47.667969 47.183594 46.667969 48.46875 46 49.753906 C 45.332031 51.035156 45 52.964844 45 52.964844 C 45 52.964844 44.667969 51.035156 44 49.753906 C 43.332031 48.46875 42.332031 47.183594 41.667969 46.542969 C 41 45.902344 40.667969 45.582031 40 44.9375 C 39.332031 44.296875 39 44.296875 38.332031 43.65625 C 37.667969 43.011719 37 42.691406 36.332031 42.050781 C 35.667969 41.40625 35 39.714844 35 38.519531 C 35 37.324219 35.453125 35.832031 36.332031 34.988281 C 37.210938 34.140625 38.757812 33.703125 40 33.703125 C 41.242188 33.703125 42.789062 34.140625 43.667969 34.988281 C 44.546875 35.832031 45 38.519531 45 38.519531 "/>
</g>
</svg>
