<?xml version="1.0" encoding="UTF-8"?>
<svg xmlns="http://www.w3.org/2000/svg" xmlns:xlink="http://www.w3.org/1999/xlink" width="87pt" height="130pt" viewBox="0 0 87 130" version="1.1">
<g id="surface1">
<path style="fill-rule:nonzero;fill:rgb(100%,100%,100%);fill-opacity:1;stroke-width:1;stroke-linecap:butt;stroke-linejoin:miter;stroke:rgb(0%,0%,0%);stroke-opacity:1;stroke-miterlimit:4;" d="M 30.436422 512.863005 L 329.563578 512.863005 C 346.099138 512.863005 359.498922 526.265649 359.498922 542.799904 L 359.498922 1021.920096 C 359.498922 1038.454351 346.099138 1051.856995 329.563578 1051.856995 L 30.436422 1051.856995 C 13.900862 1051.856995 0.501078 1038.454351 0.501078 1021.920096 L 0.501078 542.799904 C 0.501078 526.265649 13.900862 512.863005 30.436422 512.863005 Z M 30.436422 512.863005 " transform="matrix(0.241667,0,0,0.240741,0,-123.345926)"/>
<path style=" stroke:none;fill-rule:nonzero;fill:rgb(0%,0%,0%);fill-opacity:1;" d="M 7.25 7.222656 C 5.910156 7.222656 4.832031 8.296875 4.832031 9.628906 L 4.832031 10.832031 L 6.042969 10.832031 L 6.042969 9.628906 C 6.042969 8.960938 6.582031 8.425781 7.25 8.425781 C 7.917969 8.425781 8.457031 8.960938 8.457031 9.628906 L 8.457031 10.832031 C 8.457031 11.105469 8.367188 11.570312 8.214844 11.773438 C 7.136719 13.964844 5.972656 15.894531 4.832031 18.054688 L 4.832031 19.257812 L 9.667969 19.257812 L 9.667969 16.851562 L 8.457031 16.851562 L 8.457031 18.054688 L 6.164062 18.054688 C 7.246094 16.148438 8.148438 14.308594 9.183594 12.375 C 9.484375 11.972656 9.667969 11.375 9.667969 10.832031 L 9.667969 9.628906 C 9.667969 8.296875 8.589844 7.222656 7.25 7.222656 "/>
<path style=" stroke:none;fill-rule:nonzero;fill:rgb(0%,0%,0%);fill-opacity:1;" d="M 79.75 122.777344 C 81.089844 122.777344 82.167969 121.703125 82.167969 120.371094 L 82.167969 119.167969 L 80.957031 119.167969 L 80.957031 120.371094 C 80.957031 121.039062 80.417969 121.574219 79.75 121.574219 C 79.082031 121.574219 78.542969 121.039062 78.542969 120.371094 L 78.542969 119.167969 C 78.542969 118.894531 78.632812 118.429688 78.785156 118.226562 C 79.863281 116.035156 81.027344 114.105469 82.167969 111.945312 L 82.167969 110.742188 L 77.332031 110.742188 L 77.332031 113.148438 L 78.542969 113.148438 L 78.542969 111.945312 L 80.835938 111.945312 C 79.753906 113.851562 78.851562 115.691406 77.816406 117.625 C 77.515625 118.027344 77.332031 118.625 77.332031 119.167969 L 77.332031 120.371094 C 77.332031 121.703125 78.410156 122.777344 79.75 122.777344 "/>
<path style=" stroke:none;fill-rule:nonzero;fill:rgb(0%,0%,0%);fill-opacity:1;" d="M 7.25 21.667969 C 7.128906 22.269531 6.992188 22.425781 6.765625 22.75 C 6.574219 23.03125 6.300781 23.253906 6.042969 23.472656 C 5.777344 23.695312 5.476562 23.871094 5.195312 24.074219 C 4.871094 24.3125 4.488281 24.488281 4.230469 24.796875 C 3.941406 25.140625 3.625 25.550781 3.625 26 C 3.625 26.359375 3.84375 26.71875 4.109375 26.964844 C 4.425781 27.253906 4.882812 27.453125 5.316406 27.445312 C 5.800781 27.433594 6.296875 27.179688 6.644531 26.84375 C 6.90625 26.59375 7.128906 25.878906 7.128906 25.878906 L 7.128906 26.121094 C 7.128906 26.242188 7.117188 26.777344 7.007812 27.082031 C 6.882812 27.441406 6.660156 27.765625 6.402344 28.046875 C 6.132812 28.339844 5.4375 28.769531 5.4375 28.769531 L 5.4375 28.890625 C 5.4375 28.890625 6.398438 28.6875 6.886719 28.648438 C 7.128906 28.628906 7.371094 28.628906 7.613281 28.648438 C 8.101562 28.6875 9.0625 28.890625 9.0625 28.890625 L 9.0625 28.769531 C 9.0625 28.769531 8.367188 28.339844 8.097656 28.046875 C 7.839844 27.765625 7.617188 27.441406 7.492188 27.082031 C 7.382812 26.777344 7.371094 26.121094 7.371094 26.121094 L 7.371094 25.878906 C 7.371094 25.878906 7.59375 26.59375 7.855469 26.84375 C 8.203125 27.179688 8.695312 27.433594 9.183594 27.445312 C 9.617188 27.453125 10.074219 27.253906 10.390625 26.964844 C 10.65625 26.71875 10.875 26.359375 10.875 26 C 10.875 25.550781 10.558594 25.140625 10.269531 24.796875 C 10.011719 24.488281 9.628906 24.308594 9.304688 24.074219 C 9.023438 23.871094 8.722656 23.695312 8.457031 23.472656 C 8.199219 23.253906 7.925781 23.03125 7.734375 22.75 C 7.507812 22.425781 7.371094 22.269531 7.25 21.667969 "/>
<path style=" stroke:none;fill-rule:nonzero;fill:rgb(0%,0%,0%);fill-opacity:1;" d="M 79.75 108.332031 C 79.628906 107.730469 79.492188 107.574219 79.265625 107.25 C 79.074219 106.96875 78.800781 106.746094 78.542969 106.527344 C 78.277344 106.304688 77.976562 106.128906 77.695312 105.925781 C 77.371094 105.6875 76.988281 105.511719 76.730469 105.203125 C 76.441406 104.859375 76.125 104.449219 76.125 104 C 76.125 103.640625 76.34375 103.28125 76.609375 103.035156 C 76.925781 102.746094 77.382812 102.546875 77.816406 102.554688 C 78.300781 102.566406 78.796875 102.820312 79.144531 103.15625 C 79.40625 103.40625 79.628906 104.121094 79.628906 104.121094 L 79.628906 103.878906 C 79.628906 103.757812 79.617188 103.222656 79.507812 102.917969 C 79.382812 102.558594 79.160156 102.234375 78.902344 101.953125 C 78.632812 101.660156 77.9375 101.230469 77.9375 101.230469 L 77.9375 101.109375 C 77.9375 101.109375 78.898438 101.3125 79.386719 101.351562 C 79.628906 101.371094 79.871094 101.371094 80.113281 101.351562 C 80.601562 101.3125 81.5625 101.109375 81.5625 101.109375 L 81.5625 101.230469 C 81.5625 101.230469 80.867188 101.660156 80.597656 101.953125 C 80.339844 102.234375 80.117188 102.558594 79.992188 102.917969 C 79.882812 103.222656 79.871094 103.878906 79.871094 103.878906 L 79.871094 104.121094 C 79.871094 104.121094 80.09375 103.40625 80.355469 103.15625 C 80.703125 102.820312 81.195312 102.566406 81.683594 102.554688 C 82.117188 102.546875 82.574219 102.746094 82.890625 103.035156 C 83.15625 103.28125 83.375 103.640625 83.375 104 C 83.375 104.449219 83.058594 104.859375 82.769531 105.203125 C 82.511719 105.511719 82.128906 105.691406 81.804688 105.925781 C 81.523438 106.128906 81.222656 106.304688 80.957031 106.527344 C 80.699219 106.746094 80.425781 106.96875 80.234375 107.25 C 80.007812 107.574219 79.871094 107.730469 79.75 108.332031 "/>
<path style=" stroke:none;fill-rule:nonzero;fill:rgb(0%,0%,0%);fill-opacity:1;" d="M 43.5 12.035156 C 43.179688 13.640625 42.808594 14.058594 42.210938 14.925781 C 41.695312 15.675781 40.972656 16.265625 40.277344 16.851562 C 39.574219 17.445312 38.769531 17.914062 38.023438 18.457031 C 37.15625 19.089844 36.132812 19.5625 35.445312 20.382812 C 34.675781 21.300781 33.832031 22.394531 33.832031 23.59375 C 33.832031 24.550781 34.414062 25.511719 35.121094 26.160156 C 35.972656 26.941406 37.1875 27.472656 38.34375 27.445312 C 39.640625 27.414062 40.953125 26.738281 41.890625 25.839844 C 42.582031 25.175781 43.175781 23.269531 43.175781 23.269531 L 43.175781 23.914062 C 43.175781 24.234375 43.144531 25.667969 42.855469 26.480469 C 42.515625 27.433594 41.929688 28.304688 41.246094 29.050781 C 40.515625 29.835938 38.667969 30.976562 38.667969 30.976562 L 38.667969 31.296875 C 38.667969 31.296875 41.230469 30.761719 42.53125 30.652344 C 43.175781 30.601562 43.824219 30.601562 44.464844 30.652344 C 45.769531 30.761719 48.332031 31.296875 48.332031 31.296875 L 48.332031 30.976562 C 48.332031 30.976562 46.480469 29.835938 45.753906 29.050781 C 45.070312 28.304688 44.484375 27.433594 44.144531 26.480469 C 43.855469 25.667969 43.820312 23.914062 43.820312 23.914062 L 43.820312 23.269531 C 43.820312 23.269531 44.417969 25.175781 45.109375 25.839844 C 46.046875 26.738281 47.359375 27.414062 48.65625 27.445312 C 49.8125 27.472656 51.027344 26.941406 51.878906 26.160156 C 52.585938 25.511719 53.167969 24.550781 53.167969 23.59375 C 53.167969 22.394531 52.324219 21.300781 51.554688 20.382812 C 50.867188 19.5625 49.84375 19.089844 48.976562 18.457031 C 48.230469 17.914062 47.425781 17.445312 46.722656 16.851562 C 46.027344 16.265625 45.304688 15.675781 44.789062 14.925781 C 44.191406 14.058594 43.820312 13.640625 43.5 12.035156 "/>
<path style=" stroke:none;fill-rule:nonzero;fill:rgb(0%,0%,0%);fill-opacity:1;" d="M 43.5 117.964844 C 43.179688 116.359375 42.808594 115.941406 42.210938 115.074219 C 41.695312 114.324219 40.972656 113.734375 40.277344 113.148438 C 39.574219 112.554688 38.769531 112.085938 38.023438 111.542969 C 37.15625 110.910156 36.132812 110.4375 35.445312 109.617188 C 34.675781 108.699219 33.832031 107.605469 33.832031 106.40625 C 33.832031 105.449219 34.414062 104.488281 35.121094 103.839844 C 35.972656 103.058594 37.1875 102.527344 38.34375 102.554688 C 39.640625 102.585938 40.953125 103.261719 41.890625 104.160156 C 42.582031 104.824219 43.175781 106.730469 43.175781 106.730469 L 43.175781 106.085938 C 43.175781 105.765625 43.144531 104.332031 42.855469 103.519531 C 42.515625 102.566406 41.929688 101.695312 41.246094 100.949219 C 40.515625 100.164062 38.667969 99.023438 38.667969 99.023438 L 38.667969 98.703125 C 38.667969 98.703125 41.230469 99.238281 42.53125 99.347656 C 43.175781 99.398438 43.824219 99.398438 44.464844 99.347656 C 45.769531 99.238281 48.332031 98.703125 48.332031 98.703125 L 48.332031 99.023438 C 48.332031 99.023438 46.480469 100.164062 45.753906 100.949219 C 45.070312 101.695312 44.484375 102.566406 44.144531 103.519531 C 43.855469 104.332031 43.820312 106.085938 43.820312 106.085938 L 43.820312 106.730469 C 43.820312 106.730469 44.417969 104.824219 45.109375 104.160156 C 46.046875 103.261719 47.359375 102.585938 48.65625 102.554688 C 49.8125 102.527344 51.027344 103.058594 51.878906 103.839844 C 52.585938 104.488281 53.167969 105.449219 53.167969 106.40625 C 53.167969 107.605469 52.324219 108.699219 51.554688 109.617188 C 50.867188 110.4375 49.84375 110.910156 48.976562 111.542969 C 48.230469 112.085938 47.425781 112.554688 46.722656 113.148438 C 46.027344 113.734375 45.304688 114.324219 44.789062 115.074219 C 44.191406 115.941406 43.820312 116.359375 43.5 117.964844 "/>
</g>
</svg>
