<?xml version="1.0" encoding="UTF-8"?>
<svg xmlns="http://www.w3.org/2000/svg" xmlns:xlink="http://www.w3.org/1999/xlink" width="87pt" height="130pt" viewBox="0 0 87 130" version="1.1">
<g id="surface1">
<path style="fill-rule:nonzero;fill:rgb(100%,100%,100%);fill-opacity:1;stroke-width:1;stroke-linecap:butt;stroke-linejoin:miter;stroke:rgb(0%,0%,0%);stroke-opacity:1;stroke-miterlimit:4;" d="M 30.436422 512.863005 L 329.563578 512.863005 C 346.099138 512.863005 359.498922 526.265649 359.498922 542.799904 L 359.498922 1021.920096 C 359.498922 1038.454351 346.099138 1051.856995 329.563578 1051.856995 L 30.436422 1051.856995 C 13.900862 1051.856995 0.501078 1038.454351 0.501078 1021.920096 L 0.501078 542.799904 C 0.501078 526.265649 13.900862 512.863005 30.436422 512.863005 Z M 30.436422 512.863005 " transform="matrix(0.241667,0,0,0.240741,0,-123.345926)"/>
<path style=" stroke:none;fill-rule:nonzero;fill:rgb(0%,0%,0%);fill-opacity:1;" d="M 4.832031 7.222656 L 4.832031 12.035156 L 7.25 12.035156 C 7.917969 12.035156 8.457031 12.574219 8.457031 13.242188 L 8.457031 16.851562 C 8.457031 17.519531 7.917969 18.054688 7.25 18.054688 C 6.582031 18.054688 6.042969 17.519531 6.042969 16.851562 L 6.042969 15.648438 L 4.832031 15.648438 L 4.832031 16.851562 C 4.832031 18.1875 5.910156 19.257812 7.25 19.257812 C 8.589844 19.257812 9.667969 18.1875 9.667969 16.851562 L 9.667969 13.242188 C 9.667969 11.90625 8.589844 10.832031 7.25 10.832031 L 6.042969 10.832031 L 6.042969 8.425781 L 9.667969 8.425781 L 9.667969 7.222656 Z M 4.832031 7.222656 "/>
<path style=" stroke:none;fill-rule:nonzero;fill:rgb(0%,0%,0%);fill-opacity:1;" d="M 82.167969 122.777344 L 82.167969 117.964844 L 79.75 117.964844 C 79.082031 117.964844 78.542969 117.425781 78.542969 116.757812 L 78.542969 113.148438 C 78.542969 112.480469 79.082031 111.945312 79.75 111.945312 C 80.417969 111.945312 80.957031 112.480469 80.957031 113.148438 L 80.957031 114.351562 L 82.167969 114.351562 L 82.167969 113.148438 C 82.167969 111.8125 81.089844 110.742188 79.75 110.742188 C 78.410156 110.742188 77.332031 111.8125 77.332031 113.148438 L 77.332031 116.757812 C 77.332031 118.09375 78.410156 119.167969 79.75 119.167969 L 80.957031 119.167969 L 80.957031 121.574219 L 77.332031 121.574219 L 77.332031 122.777344 Z M 82.167969 122.777344 "/>
<path style=" stroke:none;fill-rule:nonzero;fill:rgb(0%,0%,0%);fill-opacity:1;" d="M 24.167969 12.035156 C 23.84375 13.640625 23.476562 14.058594 22.878906 14.925781 C 22.363281 15.675781 21.640625 16.265625 20.945312 16.851562 C 20.238281 17.445312 19.433594 17.914062 18.6875 18.457031 C 17.824219 19.089844 16.800781 19.5625 16.109375 20.382812 C 15.339844 21.300781 14.5 22.394531 14.5 23.59375 C 14.5 24.550781 15.082031 25.511719 15.789062 26.160156 C 16.640625 26.941406 17.855469 27.472656 19.011719 27.445312 C 20.308594 27.414062 21.621094 26.738281 22.554688 25.839844 C 23.246094 25.175781 23.84375 23.269531 23.84375 23.269531 L 23.84375 23.914062 C 23.84375 24.234375 23.8125 25.667969 23.523438 26.480469 C 23.183594 27.433594 22.597656 28.304688 21.910156 29.050781 C 21.183594 29.835938 19.332031 30.976562 19.332031 30.976562 L 19.332031 31.296875 C 19.332031 31.296875 21.898438 30.761719 23.199219 30.652344 C 23.84375 30.601562 24.492188 30.601562 25.132812 30.652344 C 26.433594 30.761719 29 31.296875 29 31.296875 L 29 30.976562 C 29 30.976562 27.148438 29.835938 26.421875 29.050781 C 25.738281 28.304688 25.148438 27.433594 24.8125 26.480469 C 24.519531 25.667969 24.488281 23.914062 24.488281 23.914062 L 24.488281 23.269531 C 24.488281 23.269531 25.085938 25.175781 25.777344 25.839844 C 26.710938 26.738281 28.023438 27.414062 29.320312 27.445312 C 30.480469 27.472656 31.691406 26.941406 32.542969 26.160156 C 33.25 25.511719 33.832031 24.550781 33.832031 23.59375 C 33.832031 22.394531 32.992188 21.300781 32.222656 20.382812 C 31.535156 19.5625 30.511719 19.089844 29.644531 18.457031 C 28.898438 17.914062 28.09375 17.445312 27.386719 16.851562 C 26.691406 16.265625 25.972656 15.675781 25.453125 14.925781 C 24.855469 14.058594 24.488281 13.640625 24.167969 12.035156 "/>
<path style=" stroke:none;fill-rule:nonzero;fill:rgb(0%,0%,0%);fill-opacity:1;" d="M 62.832031 12.035156 C 62.511719 13.640625 62.144531 14.058594 61.542969 14.925781 C 61.027344 15.675781 60.308594 16.265625 59.609375 16.851562 C 58.90625 17.445312 58.101562 17.914062 57.355469 18.457031 C 56.488281 19.089844 55.464844 19.5625 54.777344 20.382812 C 54.007812 21.300781 53.167969 22.394531 53.167969 23.59375 C 53.167969 24.550781 53.75 25.511719 54.457031 26.160156 C 55.308594 26.941406 56.519531 27.472656 57.675781 27.445312 C 58.976562 27.414062 60.289062 26.738281 61.222656 25.839844 C 61.914062 25.175781 62.511719 23.269531 62.511719 23.269531 L 62.511719 23.914062 C 62.511719 24.234375 62.480469 25.667969 62.1875 26.480469 C 61.847656 27.433594 61.261719 28.304688 60.578125 29.050781 C 59.851562 29.835938 58 30.976562 58 30.976562 L 58 31.296875 C 58 31.296875 60.5625 30.761719 61.867188 30.652344 C 62.507812 30.601562 63.15625 30.601562 63.800781 30.652344 C 65.101562 30.761719 67.667969 31.296875 67.667969 31.296875 L 67.667969 30.976562 C 67.667969 30.976562 65.816406 29.835938 65.089844 29.050781 C 64.402344 28.304688 63.816406 27.433594 63.476562 26.480469 C 63.1875 25.667969 63.15625 23.914062 63.15625 23.914062 L 63.15625 23.269531 C 63.15625 23.269531 63.753906 25.175781 64.445312 25.839844 C 65.378906 26.738281 66.691406 27.414062 67.988281 27.445312 C 69.144531 27.472656 70.359375 26.941406 71.210938 26.160156 C 71.917969 25.511719 72.5 24.550781 72.5 23.59375 C 72.5 22.394531 71.65625 21.300781 70.886719 20.382812 C 70.199219 19.5625 69.175781 19.089844 68.308594 18.457031 C 67.566406 17.914062 66.761719 17.445312 66.054688 16.851562 C 65.359375 16.265625 64.636719 15.675781 64.121094 14.925781 C 63.523438 14.058594 63.15625 13.640625 62.832031 12.035156 "/>
<path style=" stroke:none;fill-rule:nonzero;fill:rgb(0%,0%,0%);fill-opacity:1;" d="M 43.5 55.371094 C 43.179688 56.976562 42.808594 57.390625 42.210938 58.257812 C 41.695312 59.007812 40.972656 59.597656 40.277344 60.183594 C 39.574219 60.78125 38.769531 61.246094 38.023438 61.789062 C 37.15625 62.421875 36.132812 62.894531 35.445312 63.714844 C 34.675781 64.632812 33.832031 65.730469 33.832031 66.925781 C 33.832031 67.882812 34.414062 68.847656 35.121094 69.492188 C 35.972656 70.273438 37.1875 70.804688 38.34375 70.777344 C 39.640625 70.746094 40.953125 70.070312 41.890625 69.171875 C 42.582031 68.507812 43.175781 66.605469 43.175781 66.605469 L 43.175781 67.246094 C 43.175781 67.566406 43.144531 69 42.855469 69.816406 C 42.515625 70.765625 41.929688 71.640625 41.246094 72.382812 C 40.515625 73.171875 38.667969 74.308594 38.667969 74.308594 L 38.667969 74.628906 C 38.667969 74.628906 41.230469 74.09375 42.53125 73.988281 C 43.175781 73.933594 43.824219 73.933594 44.464844 73.988281 C 45.769531 74.09375 48.332031 74.628906 48.332031 74.628906 L 48.332031 74.308594 C 48.332031 74.308594 46.480469 73.171875 45.753906 72.382812 C 45.070312 71.640625 44.484375 70.765625 44.144531 69.816406 C 43.855469 69.003906 43.820312 67.246094 43.820312 67.246094 L 43.820312 66.605469 C 43.820312 66.605469 44.417969 68.507812 45.109375 69.171875 C 46.046875 70.070312 47.359375 70.746094 48.65625 70.777344 C 49.8125 70.804688 51.027344 70.273438 51.878906 69.492188 C 52.585938 68.847656 53.167969 67.882812 53.167969 66.925781 C 53.167969 65.730469 52.324219 64.632812 51.554688 63.714844 C 50.867188 62.894531 49.84375 62.421875 48.976562 61.789062 C 48.230469 61.246094 47.425781 60.78125 46.722656 60.183594 C 46.027344 59.597656 45.304688 59.007812 44.789062 58.257812 C 44.191406 57.390625 43.820312 56.976562 43.5 55.371094 "/>
<path style=" stroke:none;fill-rule:nonzero;fill:rgb(0%,0%,0%);fill-opacity:1;" d="M 24.167969 117.964844 C 23.84375 116.359375 23.476562 115.941406 22.878906 115.074219 C 22.363281 114.324219 21.640625 113.734375 20.945312 113.148438 C 20.238281 112.554688 19.433594 112.085938 18.6875 111.542969 C 17.824219 110.910156 16.800781 110.4375 16.109375 109.617188 C 15.339844 108.699219 14.5 107.605469 14.5 106.40625 C 14.5 105.449219 15.082031 104.488281 15.789062 103.839844 C 16.640625 103.058594 17.855469 102.527344 19.011719 102.554688 C 20.308594 102.585938 21.621094 103.261719 22.554688 104.160156 C 23.246094 104.824219 23.84375 106.730469 23.84375 106.730469 L 23.84375 106.085938 C 23.84375 105.765625 23.8125 104.332031 23.523438 103.519531 C 23.183594 102.566406 22.597656 101.695312 21.910156 100.949219 C 21.183594 100.164062 19.332031 99.023438 19.332031 99.023438 L 19.332031 98.703125 C 19.332031 98.703125 21.898438 99.238281 23.199219 99.347656 C 23.84375 99.398438 24.492188 99.398438 25.132812 99.347656 C 26.433594 99.238281 29 98.703125 29 98.703125 L 29 99.023438 C 29 99.023438 27.148438 100.164062 26.421875 100.949219 C 25.738281 101.695312 25.148438 102.566406 24.8125 103.519531 C 24.519531 104.332031 24.488281 106.085938 24.488281 106.085938 L 24.488281 106.730469 C 24.488281 106.730469 25.085938 104.824219 25.777344 104.160156 C 26.710938 103.261719 28.023438 102.585938 29.320312 102.554688 C 30.480469 102.527344 31.691406 103.058594 32.542969 103.839844 C 33.25 104.488281 33.832031 105.449219 33.832031 106.40625 C 33.832031 107.605469 32.992188 108.699219 32.222656 109.617188 C 31.535156 110.4375 30.511719 110.910156 29.644531 111.542969 C 28.898438 112.085938 28.09375 112.554688 27.386719 113.148438 C 26.691406 113.734375 25.972656 114.324219 25.453125 115.074219 C 24.855469 115.941406 24.488281 116.359375 24.167969 117.964844 "/>
<path style=" stroke:none;fill-rule:nonzero;fill:rgb(0%,0%,0%);fill-opacity:1;" d="M 62.832031 117.964844 C 62.511719 116.359375 62.144531 115.941406 61.542969 115.074219 C 61.027344 114.324219 60.308594 113.734375 59.609375 113.148438 C 58.90625 112.554688 58.101562 112.085938 57.355469 111.542969 C 56.488281 110.910156 55.464844 110.4375 54.777344 109.617188 C 54.007812 108.699219 53.167969 107.605469 53.167969 106.40625 C 53.167969 105.449219 53.75 104.488281 54.457031 103.839844 C 55.308594 103.058594 56.519531 102.527344 57.675781 102.554688 C 58.976562 102.585938 60.289062 103.261719 61.222656 104.160156 C 61.914062 104.824219 62.511719 106.730469 62.511719 106.730469 L 62.511719 106.085938 C 62.511719 105.765625 62.480469 104.332031 62.1875 103.519531 C 61.847656 102.566406 61.261719 101.695312 60.578125 100.949219 C 59.851562 100.164062 58 99.023438 58 99.023438 L 58 98.703125 C 58 98.703125 60.5625 99.238281 61.867188 99.347656 C 62.507812 99.398438 63.15625 99.398438 63.800781 99.347656 C 65.101562 99.238281 67.667969 98.703125 67.667969 98.703125 L 67.667969 99.023438 C 67.667969 99.023438 65.816406 100.164062 65.089844 100.949219 C 64.402344 101.695312 63.816406 102.566406 63.476562 103.519531 C 63.1875 104.332031 63.15625 106.085938 63.15625 106.085938 L 63.15625 106.730469 C 63.15625 106.730469 63.753906 104.824219 64.445312 104.160156 C 65.378906 103.261719 66.691406 102.585938 67.988281 102.554688 C 69.144531 102.527344 70.359375 103.058594 71.210938 103.839844 C 71.917969 104.488281 72.5 105.449219 72.5 106.40625 C 72.5 107.605469 71.65625 108.699219 70.886719 109.617188 C 70.199219 110.4375 69.175781 110.910156 68.308594 111.542969 C 67.566406 112.085938 66.761719 112.554688 66.054688 113.148438 C 65.359375 113.734375 64.636719 114.324219 64.121094 115.074219 C 63.523438 115.941406 63.15625 116.359375 62.832031 117.964844 "/>
<path style=" stroke:none;fill-rule:nonzero;fill:rgb(0%,0%,0%);fill-opacity:1;" d="M 7.25 21.667969 C 7.128906 22.269531 6.992188 22.425781 6.765625 22.75 C 6.574219 23.03125 6.300781 23.253906 6.042969 23.472656 C 5.777344 23.695312 5.476562 23.871094 5.195312 24.074219 C 4.871094 24.3125 4.488281 24.488281 4.230469 24.796875 C 3.941406 25.140625 3.625 25.550781 3.625 26 C 3.625 26.359375 3.84375 26.71875 4.109375 26.964844 C 4.425781 27.253906 4.882812 27.453125 5.316406 27.445312 C 5.800781 27.433594 6.296875 27.179688 6.644531 26.84375 C 6.90625 26.59375 7.128906 25.878906 7.128906 25.878906 L 7.128906 26.121094 C 7.128906 26.242188 7.117188 26.777344 7.007812 27.082031 C 6.882812 27.441406 6.660156 27.765625 6.402344 28.046875 C 6.132812 28.339844 5.4375 28.769531 5.4375 28.769531 L 5.4375 28.890625 C 5.4375 28.890625 6.398438 28.6875 6.886719 28.648438 C 7.128906 28.628906 7.371094 28.628906 7.613281 28.648438 C 8.101562 28.6875 9.0625 28.890625 9.0625 28.890625 L 9.0625 28.769531 C 9.0625 28.769531 8.367188 28.339844 8.097656 28.046875 C 7.839844 27.765625 7.617188 27.441406 7.492188 27.082031 C 7.382812 26.777344 7.371094 26.121094 7.371094 26.121094 L 7.371094 25.878906 C 7.371094 25.878906 7.59375 26.59375 7.855469 26.84375 C 8.203125 27.179688 8.695312 27.433594 9.183594 27.445312 C 9.617188 27.453125 10.074219 27.253906 10.390625 26.964844 C 10.65625 26.71875 10.875 26.359375 10.875 26 C 10.875 25.550781 10.558594 25.140625 10.269531 24.796875 C 10.011719 24.488281 9.628906 24.308594 9.304688 24.074219 C 9.023438 23.871094 8.722656 23.695312 8.457031 23.472656 C 8.199219 23.253906 7.925781 23.03125 7.734375 22.75 C 7.507812 22.425781 7.371094 22.269531 7.25 21.667969 "/>
<path style=" stroke:none;fill-rule:nonzero;fill:rgb(0%,0%,0%);fill-opacity:1;" d="M 79.75 108.332031 C 79.628906 107.730469 79.492188 107.574219 79.265625 107.25 C 79.074219 106.96875 78.800781 106.746094 78.542969 106.527344 C 78.277344 106.304688 77.976562 106.128906 77.695312 105.925781 C 77.371094 105.6875 76.988281 105.511719 76.730469 105.203125 C 76.441406 104.859375 76.125 104.449219 76.125 104 C 76.125 103.640625 76.34375 103.28125 76.609375 103.035156 C 76.925781 102.746094 77.382812 102.546875 77.816406 102.554688 C 78.300781 102.566406 78.796875 102.820312 79.144531 103.15625 C 79.40625 103.40625 79.628906 104.121094 79.628906 104.121094 L 79.628906 103.878906 C 79.628906 103.757812 79.617188 103.222656 79.507812 102.917969 C 79.382812 102.558594 79.160156 102.234375 78.902344 101.953125 C 78.632812 101.660156 77.9375 101.230469 77.9375 101.230469 L 77.9375 101.109375 C 77.9375 101.109375 78.898438 101.3125 79.386719 101.351562 C 79.628906 101.371094 79.871094 101.371094 80.113281 101.351562 C 80.601562 101.3125 81.5625 101.109375 81.5625 101.109375 L 81.5625 101.230469 C 81.5625 101.230469 80.867188 101.660156 80.597656 101.953125 C 80.339844 102.234375 80.117188 102.558594 79.992188 102.917969 C 79.882812 103.222656 79.871094 103.878906 79.871094 103.878906 L 79.871094 104.121094 C 79.871094 104.121094 80.09375 103.40625 80.355469 103.15625 C 80.703125 102.820312 81.195312 102.566406 81.683594 102.554688 C 82.117188 102.546875 82.574219 102.746094 82.890625 103.035156 C 83.15625 103.28125 83.375 103.640625 83.375 104 C 83.375 104.449219 83.058594 104.859375 82.769531 105.203125 C 82.511719 105.511719 82.128906 105.691406 81.804688 105.925781 C 81.523438 106.128906 81.222656 106.304688 80.957031 106.527344 C 80.699219 106.746094 80.425781 106.96875 80.234375 107.25 C 80.007812 107.574219 79.871094 107.730469 79.75 108.332031 "/>
</g>
</svg>
