<?xml version="1.0" encoding="UTF-8"?>
<svg xmlns="http://www.w3.org/2000/svg" xmlns:xlink="http://www.w3.org/1999/xlink" width="90px" height="130px" viewBox="0 0 90 130" version="1.1">
<g id="surface1">
<path style="fill-rule:nonzero;fill:rgb(100%,100%,100%);fill-opacity:1;stroke-width:1;stroke-linecap:butt;stroke-linejoin:miter;stroke:rgb(0%,0%,0%);stroke-opacity:1;stroke-miterlimit:4;" d="M 30.4375 512.86299 L 329.5625 512.86299 C 346.09375 512.86299 359.5 526.265634 359.5 542.799889 L 359.5 1021.920082 C 359.5 1038.454336 346.09375 1051.856981 329.5625 1051.856981 L 30.4375 1051.856981 C 13.90625 1051.856981 0.5 1038.454336 0.5 1021.920082 L 0.5 542.799889 C 0.5 526.265634 13.90625 512.86299 30.4375 512.86299 Z M 30.4375 512.86299 " transform="matrix(0.25,0,0,0.240741,0,-123.345922)"/>
<path style=" stroke:none;fill-rule:nonzero;fill:rgb(0%,0%,0%);fill-opacity:1;" d="M 3.75 7.222656 L 2.5 8.90625 L 2.5 10.59375 L 3.75 8.90625 L 3.75 19.257812 L 5 19.257812 L 5 7.222656 L 3.75 7.222656 "/>
<path style=" stroke:none;fill-rule:nonzero;fill:rgb(0%,0%,0%);fill-opacity:1;" d="M 8.75 7.222656 C 7.363281 7.222656 6.25 8.296875 6.25 9.628906 L 6.25 16.851562 C 6.25 18.1875 7.363281 19.257812 8.75 19.257812 C 10.136719 19.257812 11.25 18.1875 11.25 16.851562 L 11.25 9.628906 C 11.25 8.296875 10.136719 7.222656 8.75 7.222656 M 8.75 8.425781 C 9.441406 8.425781 10 8.964844 10 9.628906 L 10 16.851562 C 10 17.519531 9.441406 18.054688 8.75 18.054688 C 8.058594 18.054688 7.5 17.519531 7.5 16.851562 L 7.5 9.628906 C 7.5 8.964844 8.058594 8.425781 8.75 8.425781 "/>
<path style=" stroke:none;fill-rule:nonzero;fill:rgb(0%,0%,0%);fill-opacity:1;" d="M 86.25 122.777344 L 87.5 121.09375 L 87.5 119.40625 L 86.25 121.09375 L 86.25 110.742188 L 85 110.742188 L 85 122.777344 L 86.25 122.777344 "/>
<path style=" stroke:none;fill-rule:nonzero;fill:rgb(0%,0%,0%);fill-opacity:1;" d="M 81.25 122.777344 C 82.636719 122.777344 83.75 121.703125 83.75 120.371094 L 83.75 113.148438 C 83.75 111.8125 82.636719 110.742188 81.25 110.742188 C 79.863281 110.742188 78.75 111.8125 78.75 113.148438 L 78.75 120.371094 C 78.75 121.703125 79.863281 122.777344 81.25 122.777344 M 81.25 121.574219 C 80.558594 121.574219 80 121.039062 80 120.371094 L 80 113.148438 C 80 112.480469 80.558594 111.945312 81.25 111.945312 C 81.941406 111.945312 82.5 112.480469 82.5 113.148438 L 82.5 120.371094 C 82.5 121.039062 81.941406 121.574219 81.25 121.574219 "/>
<path style=" stroke:none;fill-rule:nonzero;fill:rgb(0%,0%,0%);fill-opacity:1;" d="M 25 12.035156 C 24.667969 13.640625 24.285156 14.058594 23.667969 14.925781 C 23.132812 15.675781 22.386719 16.265625 21.667969 16.851562 C 20.9375 17.445312 20.105469 17.914062 19.332031 18.457031 C 18.4375 19.089844 17.378906 19.5625 16.667969 20.382812 C 15.871094 21.300781 15 22.394531 15 23.59375 C 15 24.550781 15.601562 25.511719 16.332031 26.160156 C 17.214844 26.941406 18.46875 27.472656 19.667969 27.445312 C 21.007812 27.414062 22.367188 26.738281 23.332031 25.839844 C 24.046875 25.175781 24.667969 23.269531 24.667969 23.269531 L 24.667969 23.914062 C 24.667969 24.234375 24.632812 25.667969 24.332031 26.480469 C 23.980469 27.433594 23.375 28.304688 22.667969 29.050781 C 21.914062 29.835938 20 30.976562 20 30.976562 L 20 31.296875 C 20 31.296875 22.652344 30.761719 24 30.652344 C 24.664062 30.601562 25.335938 30.601562 26 30.652344 C 27.347656 30.761719 30 31.296875 30 31.296875 L 30 30.976562 C 30 30.976562 28.085938 29.835938 27.332031 29.050781 C 26.625 28.304688 26.015625 27.433594 25.667969 26.480469 C 25.367188 25.667969 25.332031 23.914062 25.332031 23.914062 L 25.332031 23.269531 C 25.332031 23.269531 25.949219 25.175781 26.667969 25.839844 C 27.632812 26.738281 28.992188 27.414062 30.332031 27.445312 C 31.53125 27.472656 32.785156 26.941406 33.667969 26.160156 C 34.398438 25.511719 35 24.550781 35 23.59375 C 35 22.394531 34.128906 21.300781 33.332031 20.382812 C 32.621094 19.5625 31.5625 19.089844 30.664062 18.457031 C 29.894531 17.914062 29.0625 17.445312 28.332031 16.851562 C 27.613281 16.265625 26.867188 15.675781 26.332031 14.925781 C 25.714844 14.058594 25.332031 13.640625 25 12.035156 "/>
<path style=" stroke:none;fill-rule:nonzero;fill:rgb(0%,0%,0%);fill-opacity:1;" d="M 65 12.035156 C 64.667969 13.640625 64.285156 14.058594 63.667969 14.925781 C 63.132812 15.675781 62.386719 16.265625 61.667969 16.851562 C 60.9375 17.445312 60.105469 17.914062 59.332031 18.457031 C 58.4375 19.089844 57.378906 19.5625 56.667969 20.382812 C 55.871094 21.300781 55 22.394531 55 23.59375 C 55 24.550781 55.601562 25.511719 56.332031 26.160156 C 57.214844 26.941406 58.46875 27.472656 59.667969 27.445312 C 61.007812 27.414062 62.367188 26.738281 63.332031 25.839844 C 64.046875 25.175781 64.667969 23.269531 64.667969 23.269531 L 64.667969 23.914062 C 64.667969 24.234375 64.632812 25.667969 64.332031 26.480469 C 63.980469 27.433594 63.375 28.304688 62.667969 29.050781 C 61.914062 29.835938 60 30.976562 60 30.976562 L 60 31.296875 C 60 31.296875 62.652344 30.761719 64 30.652344 C 64.664062 30.601562 65.335938 30.601562 66 30.652344 C 67.347656 30.761719 70 31.296875 70 31.296875 L 70 30.976562 C 70 30.976562 68.085938 29.835938 67.332031 29.050781 C 66.625 28.304688 66.015625 27.433594 65.667969 26.480469 C 65.367188 25.667969 65.332031 23.914062 65.332031 23.914062 L 65.332031 23.269531 C 65.332031 23.269531 65.949219 25.175781 66.667969 25.839844 C 67.632812 26.738281 68.992188 27.414062 70.332031 27.445312 C 71.53125 27.472656 72.785156 26.941406 73.667969 26.160156 C 74.398438 25.511719 75 24.550781 75 23.59375 C 75 22.394531 74.128906 21.300781 73.332031 20.382812 C 72.621094 19.5625 71.5625 19.089844 70.664062 18.457031 C 69.894531 17.914062 69.0625 17.445312 68.332031 16.851562 C 67.613281 16.265625 66.867188 15.675781 66.332031 14.925781 C 65.714844 14.058594 65.332031 13.640625 65 12.035156 "/>
<path style=" stroke:none;fill-rule:nonzero;fill:rgb(0%,0%,0%);fill-opacity:1;" d="M 45 26.480469 C 44.667969 28.085938 44.285156 28.5 43.667969 29.371094 C 43.132812 30.117188 42.386719 30.710938 41.667969 31.296875 C 40.9375 31.890625 40.105469 32.359375 39.332031 32.902344 C 38.4375 33.535156 37.378906 34.003906 36.667969 34.828125 C 35.871094 35.746094 35 36.839844 35 38.035156 C 35 38.992188 35.601562 39.957031 36.332031 40.605469 C 37.214844 41.386719 38.46875 41.914062 39.667969 41.890625 C 41.007812 41.859375 42.367188 41.179688 43.332031 40.285156 C 44.046875 39.621094 44.667969 37.714844 44.667969 37.714844 L 44.667969 38.359375 C 44.667969 38.679688 44.632812 40.113281 44.332031 40.925781 C 43.980469 41.878906 43.375 42.75 42.667969 43.492188 C 41.914062 44.28125 40 45.417969 40 45.417969 L 40 45.742188 C 40 45.742188 42.652344 45.207031 44 45.097656 C 44.664062 45.046875 45.335938 45.046875 46 45.097656 C 47.347656 45.207031 50 45.742188 50 45.742188 L 50 45.417969 C 50 45.417969 48.085938 44.28125 47.332031 43.492188 C 46.625 42.75 46.015625 41.878906 45.667969 40.925781 C 45.367188 40.113281 45.332031 38.359375 45.332031 38.359375 L 45.332031 37.714844 C 45.332031 37.714844 45.949219 39.621094 46.667969 40.285156 C 47.632812 41.179688 48.992188 41.859375 50.332031 41.890625 C 51.53125 41.914062 52.785156 41.386719 53.667969 40.605469 C 54.398438 39.957031 55 38.996094 55 38.035156 C 55 36.839844 54.128906 35.746094 53.332031 34.828125 C 52.621094 34.003906 51.5625 33.535156 50.664062 32.902344 C 49.894531 32.359375 49.0625 31.890625 48.332031 31.296875 C 47.613281 30.710938 46.867188 30.117188 46.332031 29.371094 C 45.714844 28.5 45.332031 28.085938 45 26.480469 "/>
<path style=" stroke:none;fill-rule:nonzero;fill:rgb(0%,0%,0%);fill-opacity:1;" d="M 25 40.925781 C 24.667969 42.53125 24.285156 42.945312 23.667969 43.816406 C 23.132812 44.5625 22.386719 45.152344 21.667969 45.742188 C 20.9375 46.335938 20.105469 46.800781 19.332031 47.347656 C 18.4375 47.976562 17.378906 48.449219 16.667969 49.273438 C 15.871094 50.191406 15 51.285156 15 52.480469 C 15 53.4375 15.601562 54.402344 16.332031 55.050781 C 17.214844 55.828125 18.46875 56.359375 19.667969 56.332031 C 21.007812 56.304688 22.367188 55.625 23.332031 54.726562 C 24.046875 54.0625 24.667969 52.160156 24.667969 52.160156 L 24.667969 52.800781 C 24.667969 53.125 24.632812 54.558594 24.332031 55.371094 C 23.980469 56.320312 23.375 57.195312 22.667969 57.9375 C 21.914062 58.726562 20 59.863281 20 59.863281 L 20 60.183594 C 20 60.183594 22.652344 59.652344 24 59.542969 C 24.664062 59.488281 25.335938 59.488281 26 59.542969 C 27.347656 59.652344 30 60.183594 30 60.183594 L 30 59.863281 C 30 59.863281 28.085938 58.726562 27.332031 57.9375 C 26.625 57.195312 26.015625 56.320312 25.667969 55.371094 C 25.367188 54.558594 25.332031 52.800781 25.332031 52.800781 L 25.332031 52.160156 C 25.332031 52.160156 25.949219 54.0625 26.667969 54.726562 C 27.632812 55.625 28.992188 56.304688 30.332031 56.332031 C 31.53125 56.359375 32.785156 55.828125 33.667969 55.050781 C 34.398438 54.402344 35 53.4375 35 52.480469 C 35 51.285156 34.128906 50.191406 33.332031 49.273438 C 32.621094 48.449219 31.5625 47.976562 30.664062 47.347656 C 29.894531 46.800781 29.0625 46.335938 28.332031 45.742188 C 27.613281 45.152344 26.867188 44.5625 26.332031 43.816406 C 25.714844 42.945312 25.332031 42.53125 25 40.925781 "/>
<path style=" stroke:none;fill-rule:nonzero;fill:rgb(0%,0%,0%);fill-opacity:1;" d="M 65 40.925781 C 64.667969 42.53125 64.285156 42.945312 63.667969 43.816406 C 63.132812 44.5625 62.386719 45.152344 61.667969 45.742188 C 60.9375 46.335938 60.105469 46.800781 59.332031 47.347656 C 58.4375 47.976562 57.378906 48.449219 56.667969 49.273438 C 55.871094 50.191406 55 51.285156 55 52.480469 C 55 53.4375 55.601562 54.402344 56.332031 55.050781 C 57.214844 55.828125 58.46875 56.359375 59.667969 56.332031 C 61.007812 56.304688 62.367188 55.625 63.332031 54.726562 C 64.046875 54.0625 64.667969 52.160156 64.667969 52.160156 L 64.667969 52.800781 C 64.667969 53.125 64.632812 54.558594 64.332031 55.371094 C 63.980469 56.320312 63.375 57.195312 62.667969 57.9375 C 61.914062 58.726562 60 59.863281 60 59.863281 L 60 60.183594 C 60 60.183594 62.652344 59.652344 64 59.542969 C 64.664062 59.488281 65.335938 59.488281 66 59.542969 C 67.347656 59.652344 70 60.183594 70 60.183594 L 70 59.863281 C 70 59.863281 68.085938 58.726562 67.332031 57.9375 C 66.625 57.195312 66.015625 56.320312 65.667969 55.371094 C 65.367188 54.558594 65.332031 52.800781 65.332031 52.800781 L 65.332031 52.160156 C 65.332031 52.160156 65.949219 54.0625 66.667969 54.726562 C 67.632812 55.625 68.992188 56.304688 70.332031 56.332031 C 71.53125 56.359375 72.785156 55.828125 73.667969 55.050781 C 74.398438 54.402344 75 53.4375 75 52.480469 C 75 51.285156 74.128906 50.191406 73.332031 49.273438 C 72.621094 48.449219 71.5625 47.976562 70.664062 47.347656 C 69.894531 46.800781 69.0625 46.335938 68.332031 45.742188 C 67.613281 45.152344 66.867188 44.5625 66.332031 43.816406 C 65.714844 42.945312 65.332031 42.53125 65 40.925781 "/>
<path style=" stroke:none;fill-rule:nonzero;fill:rgb(0%,0%,0%);fill-opacity:1;" d="M 25 89.074219 C 24.667969 87.46875 24.285156 87.054688 23.667969 86.183594 C 23.132812 85.4375 22.386719 84.847656 21.667969 84.257812 C 20.9375 83.664062 20.105469 83.199219 19.332031 82.652344 C 18.4375 82.023438 17.378906 81.550781 16.667969 80.726562 C 15.871094 79.808594 15 78.714844 15 77.519531 C 15 76.5625 15.601562 75.597656 16.332031 74.949219 C 17.214844 74.171875 18.46875 73.640625 19.667969 73.667969 C 21.007812 73.695312 22.367188 74.375 23.332031 75.273438 C 24.046875 75.9375 24.667969 77.839844 24.667969 77.839844 L 24.667969 77.199219 C 24.667969 76.875 24.632812 75.441406 24.332031 74.628906 C 23.980469 73.679688 23.375 72.804688 22.667969 72.0625 C 21.914062 71.273438 20 70.136719 20 70.136719 L 20 69.816406 C 20 69.816406 22.652344 70.347656 24 70.457031 C 24.664062 70.511719 25.335938 70.511719 26 70.457031 C 27.347656 70.347656 30 69.816406 30 69.816406 L 30 70.136719 C 30 70.136719 28.085938 71.273438 27.332031 72.0625 C 26.625 72.804688 26.015625 73.679688 25.667969 74.628906 C 25.367188 75.441406 25.332031 77.199219 25.332031 77.199219 L 25.332031 77.839844 C 25.332031 77.839844 25.949219 75.9375 26.667969 75.273438 C 27.632812 74.375 28.992188 73.695312 30.332031 73.667969 C 31.53125 73.640625 32.785156 74.171875 33.667969 74.949219 C 34.398438 75.597656 35 76.5625 35 77.519531 C 35 78.714844 34.128906 79.808594 33.332031 80.726562 C 32.621094 81.550781 31.5625 82.023438 30.664062 82.652344 C 29.894531 83.199219 29.0625 83.664062 28.332031 84.257812 C 27.613281 84.847656 26.867188 85.4375 26.332031 86.183594 C 25.714844 87.054688 25.332031 87.46875 25 89.074219 "/>
<path style=" stroke:none;fill-rule:nonzero;fill:rgb(0%,0%,0%);fill-opacity:1;" d="M 65 89.074219 C 64.667969 87.46875 64.285156 87.054688 63.667969 86.183594 C 63.132812 85.4375 62.386719 84.847656 61.667969 84.257812 C 60.9375 83.664062 60.105469 83.199219 59.332031 82.652344 C 58.4375 82.023438 57.378906 81.550781 56.667969 80.726562 C 55.871094 79.808594 55 78.714844 55 77.519531 C 55 76.5625 55.601562 75.597656 56.332031 74.949219 C 57.214844 74.171875 58.46875 73.640625 59.667969 73.667969 C 61.007812 73.695312 62.367188 74.375 63.332031 75.273438 C 64.046875 75.9375 64.667969 77.839844 64.667969 77.839844 L 64.667969 77.199219 C 64.667969 76.875 64.632812 75.441406 64.332031 74.628906 C 63.980469 73.679688 63.375 72.804688 62.667969 72.0625 C 61.914062 71.273438 60 70.136719 60 70.136719 L 60 69.816406 C 60 69.816406 62.652344 70.347656 64 70.457031 C 64.664062 70.511719 65.335938 70.511719 66 70.457031 C 67.347656 70.347656 70 69.816406 70 69.816406 L 70 70.136719 C 70 70.136719 68.085938 71.273438 67.332031 72.0625 C 66.625 72.804688 66.015625 73.679688 65.667969 74.628906 C 65.367188 75.441406 65.332031 77.199219 65.332031 77.199219 L 65.332031 77.839844 C 65.332031 77.839844 65.949219 75.9375 66.667969 75.273438 C 67.632812 74.375 68.992188 73.695312 70.332031 73.667969 C 71.53125 73.640625 72.785156 74.171875 73.667969 74.949219 C 74.398438 75.597656 75 76.5625 75 77.519531 C 75 78.714844 74.128906 79.808594 73.332031 80.726562 C 72.621094 81.550781 71.5625 82.023438 70.664062 82.652344 C 69.894531 83.199219 69.0625 83.664062 68.332031 84.257812 C 67.613281 84.847656 66.867188 85.4375 66.332031 86.183594 C 65.714844 87.054688 65.332031 87.46875 65 89.074219 "/>
<path style=" stroke:none;fill-rule:nonzero;fill:rgb(0%,0%,0%);fill-opacity:1;" d="M 45 103.519531 C 44.667969 101.914062 44.285156 101.5 43.667969 100.628906 C 43.132812 99.882812 42.386719 99.289062 41.667969 98.703125 C 40.9375 98.109375 40.105469 97.640625 39.332031 97.097656 C 38.4375 96.464844 37.378906 95.996094 36.667969 95.171875 C 35.871094 94.253906 35 93.160156 35 91.964844 C 35 91.007812 35.601562 90.042969 36.332031 89.394531 C 37.214844 88.613281 38.46875 88.085938 39.667969 88.109375 C 41.007812 88.140625 42.367188 88.820312 43.332031 89.714844 C 44.046875 90.378906 44.667969 92.285156 44.667969 92.285156 L 44.667969 91.640625 C 44.667969 91.320312 44.632812 89.886719 44.332031 89.074219 C 43.980469 88.121094 43.375 87.25 42.667969 86.507812 C 41.914062 85.71875 40 84.582031 40 84.582031 L 40 84.257812 C 40 84.257812 42.652344 84.792969 44 84.902344 C 44.664062 84.953125 45.335938 84.953125 46 84.902344 C 47.347656 84.792969 50 84.257812 50 84.257812 L 50 84.582031 C 50 84.582031 48.085938 85.71875 47.332031 86.507812 C 46.625 87.25 46.015625 88.121094 45.667969 89.074219 C 45.367188 89.886719 45.332031 91.640625 45.332031 91.640625 L 45.332031 92.285156 C 45.332031 92.285156 45.949219 90.378906 46.667969 89.714844 C 47.632812 88.820312 48.992188 88.140625 50.332031 88.109375 C 51.53125 88.085938 52.785156 88.613281 53.667969 89.394531 C 54.398438 90.042969 55 91.003906 55 91.964844 C 55 93.160156 54.128906 94.253906 53.332031 95.171875 C 52.621094 95.996094 51.5625 96.464844 50.664062 97.097656 C 49.894531 97.640625 49.0625 98.109375 48.332031 98.703125 C 47.613281 99.289062 46.867188 99.882812 46.332031 100.628906 C 45.714844 101.5 45.332031 101.914062 45 103.519531 "/>
<path style=" stroke:none;fill-rule:nonzero;fill:rgb(0%,0%,0%);fill-opacity:1;" d="M 25 117.964844 C 24.667969 116.359375 24.285156 115.941406 23.667969 115.074219 C 23.132812 114.324219 22.386719 113.734375 21.667969 113.148438 C 20.9375 112.554688 20.105469 112.085938 19.332031 111.542969 C 18.4375 110.910156 17.378906 110.4375 16.667969 109.617188 C 15.871094 108.699219 15 107.605469 15 106.40625 C 15 105.449219 15.601562 104.488281 16.332031 103.839844 C 17.214844 103.058594 18.46875 102.527344 19.667969 102.554688 C 21.007812 102.585938 22.367188 103.261719 23.332031 104.160156 C 24.046875 104.824219 24.667969 106.730469 24.667969 106.730469 L 24.667969 106.085938 C 24.667969 105.765625 24.632812 104.332031 24.332031 103.519531 C 23.980469 102.566406 23.375 101.695312 22.667969 100.949219 C 21.914062 100.164062 20 99.023438 20 99.023438 L 20 98.703125 C 20 98.703125 22.652344 99.238281 24 99.347656 C 24.664062 99.398438 25.335938 99.398438 26 99.347656 C 27.347656 99.238281 30 98.703125 30 98.703125 L 30 99.023438 C 30 99.023438 28.085938 100.164062 27.332031 100.949219 C 26.625 101.695312 26.015625 102.566406 25.667969 103.519531 C 25.367188 104.332031 25.332031 106.085938 25.332031 106.085938 L 25.332031 106.730469 C 25.332031 106.730469 25.949219 104.824219 26.667969 104.160156 C 27.632812 103.261719 28.992188 102.585938 30.332031 102.554688 C 31.53125 102.527344 32.785156 103.058594 33.667969 103.839844 C 34.398438 104.488281 35 105.449219 35 106.40625 C 35 107.605469 34.128906 108.699219 33.332031 109.617188 C 32.621094 110.4375 31.5625 110.910156 30.664062 111.542969 C 29.894531 112.085938 29.0625 112.554688 28.332031 113.148438 C 27.613281 113.734375 26.867188 114.324219 26.332031 115.074219 C 25.714844 115.941406 25.332031 116.359375 25 117.964844 "/>
<path style=" stroke:none;fill-rule:nonzero;fill:rgb(0%,0%,0%);fill-opacity:1;" d="M 65 117.964844 C 64.667969 116.359375 64.285156 115.941406 63.667969 115.074219 C 63.132812 114.324219 62.386719 113.734375 61.667969 113.148438 C 60.9375 112.554688 60.105469 112.085938 59.332031 111.542969 C 58.4375 110.910156 57.378906 110.4375 56.667969 109.617188 C 55.871094 108.699219 55 107.605469 55 106.40625 C 55 105.449219 55.601562 104.488281 56.332031 103.839844 C 57.214844 103.058594 58.46875 102.527344 59.667969 102.554688 C 61.007812 102.585938 62.367188 103.261719 63.332031 104.160156 C 64.046875 104.824219 64.667969 106.730469 64.667969 106.730469 L 64.667969 106.085938 C 64.667969 105.765625 64.632812 104.332031 64.332031 103.519531 C 63.980469 102.566406 63.375 101.695312 62.667969 100.949219 C 61.914062 100.164062 60 99.023438 60 99.023438 L 60 98.703125 C 60 98.703125 62.652344 99.238281 64 99.347656 C 64.664062 99.398438 65.335938 99.398438 66 99.347656 C 67.347656 99.238281 70 98.703125 70 98.703125 L 70 99.023438 C 70 99.023438 68.085938 100.164062 67.332031 100.949219 C 66.625 101.695312 66.015625 102.566406 65.667969 103.519531 C 65.367188 104.332031 65.332031 106.085938 65.332031 106.085938 L 65.332031 106.730469 C 65.332031 106.730469 65.949219 104.824219 66.667969 104.160156 C 67.632812 103.261719 68.992188 102.585938 70.332031 102.554688 C 71.53125 102.527344 72.785156 103.058594 73.667969 103.839844 C 74.398438 104.488281 75 105.449219 75 106.40625 C 75 107.605469 74.128906 108.699219 73.332031 109.617188 C 72.621094 110.4375 71.5625 110.910156 70.664062 111.542969 C 69.894531 112.085938 69.0625 112.554688 68.332031 113.148438 C 67.613281 113.734375 66.867188 114.324219 66.332031 115.074219 C 65.714844 115.941406 65.332031 116.359375 65 117.964844 "/>
<path style=" stroke:none;fill-rule:nonzero;fill:rgb(0%,0%,0%);fill-opacity:1;" d="M 7.5 21.667969 C 7.375 22.269531 7.230469 22.425781 7 22.75 C 6.800781 23.03125 6.519531 23.253906 6.25 23.472656 C 5.976562 23.695312 5.664062 23.871094 5.375 24.074219 C 5.039062 24.3125 4.640625 24.488281 4.375 24.796875 C 4.078125 25.140625 3.75 25.550781 3.75 26 C 3.75 26.359375 3.976562 26.71875 4.25 26.964844 C 4.582031 27.253906 5.050781 27.453125 5.5 27.445312 C 6.003906 27.433594 6.511719 27.179688 6.875 26.84375 C 7.144531 26.59375 7.375 25.878906 7.375 25.878906 L 7.375 26.121094 C 7.375 26.242188 7.363281 26.777344 7.25 27.082031 C 7.117188 27.441406 6.890625 27.765625 6.625 28.046875 C 6.34375 28.339844 5.625 28.769531 5.625 28.769531 L 5.625 28.890625 C 5.625 28.890625 6.621094 28.6875 7.125 28.648438 C 7.375 28.628906 7.625 28.628906 7.875 28.648438 C 8.378906 28.6875 9.375 28.890625 9.375 28.890625 L 9.375 28.769531 C 9.375 28.769531 8.65625 28.339844 8.375 28.046875 C 8.109375 27.765625 7.882812 27.441406 7.75 27.082031 C 7.636719 26.777344 7.625 26.121094 7.625 26.121094 L 7.625 25.878906 C 7.625 25.878906 7.855469 26.59375 8.125 26.84375 C 8.488281 27.179688 8.996094 27.433594 9.5 27.445312 C 9.949219 27.453125 10.417969 27.253906 10.75 26.964844 C 11.023438 26.71875 11.25 26.359375 11.25 26 C 11.25 25.550781 10.921875 25.140625 10.625 24.796875 C 10.359375 24.488281 9.960938 24.308594 9.625 24.074219 C 9.335938 23.871094 9.023438 23.695312 8.75 23.472656 C 8.480469 23.253906 8.199219 23.03125 8 22.75 C 7.769531 22.425781 7.625 22.269531 7.5 21.667969 "/>
<path style=" stroke:none;fill-rule:nonzero;fill:rgb(0%,0%,0%);fill-opacity:1;" d="M 82.5 108.332031 C 82.375 107.730469 82.230469 107.574219 82 107.25 C 81.800781 106.96875 81.519531 106.746094 81.25 106.527344 C 80.976562 106.304688 80.664062 106.128906 80.375 105.925781 C 80.039062 105.6875 79.640625 105.511719 79.375 105.203125 C 79.078125 104.859375 78.75 104.449219 78.75 104 C 78.75 103.640625 78.976562 103.28125 79.25 103.035156 C 79.582031 102.746094 80.050781 102.546875 80.5 102.554688 C 81.003906 102.566406 81.511719 102.820312 81.875 103.15625 C 82.144531 103.40625 82.375 104.121094 82.375 104.121094 L 82.375 103.878906 C 82.375 103.757812 82.363281 103.222656 82.25 102.917969 C 82.117188 102.558594 81.890625 102.234375 81.625 101.953125 C 81.34375 101.660156 80.625 101.230469 80.625 101.230469 L 80.625 101.109375 C 80.625 101.109375 81.621094 101.3125 82.125 101.351562 C 82.375 101.371094 82.625 101.371094 82.875 101.351562 C 83.378906 101.3125 84.375 101.109375 84.375 101.109375 L 84.375 101.230469 C 84.375 101.230469 83.65625 101.660156 83.375 101.953125 C 83.109375 102.234375 82.882812 102.558594 82.75 102.917969 C 82.636719 103.222656 82.625 103.878906 82.625 103.878906 L 82.625 104.121094 C 82.625 104.121094 82.855469 103.40625 83.125 103.15625 C 83.488281 102.820312 83.996094 102.566406 84.5 102.554688 C 84.949219 102.546875 85.417969 102.746094 85.75 103.035156 C 86.023438 103.28125 86.25 103.640625 86.25 104 C 86.25 104.449219 85.921875 104.859375 85.625 105.203125 C 85.359375 105.511719 84.960938 105.691406 84.625 105.925781 C 84.335938 106.128906 84.023438 106.304688 83.75 106.527344 C 83.480469 106.746094 83.199219 106.96875 83 107.25 C 82.769531 107.574219 82.625 107.730469 82.5 108.332031 "/>
</g>
</svg>
