<?xml version="1.0" encoding="UTF-8"?>
<svg xmlns="http://www.w3.org/2000/svg" xmlns:xlink="http://www.w3.org/1999/xlink" width="90px" height="130px" viewBox="0 0 90 130" version="1.1">
<g id="surface1">
<path style="fill-rule:nonzero;fill:rgb(100%,100%,100%);fill-opacity:1;stroke-width:1;stroke-linecap:butt;stroke-linejoin:miter;stroke:rgb(0%,0%,0%);stroke-opacity:1;stroke-miterlimit:4;" d="M 30.4375 512.86299 L 329.5625 512.86299 C 346.09375 512.86299 359.5 526.265634 359.5 542.799889 L 359.5 1021.920082 C 359.5 1038.454336 346.09375 1051.856981 329.5625 1051.856981 L 30.4375 1051.856981 C 13.90625 1051.856981 0.5 1038.454336 0.5 1021.920082 L 0.5 542.799889 C 0.5 526.265634 13.90625 512.86299 30.4375 512.86299 Z M 30.4375 512.86299 " transform="matrix(0.25,0,0,0.240741,0,-123.345922)"/>
<path style=" stroke:none;fill-rule:nonzero;fill:rgb(0%,0%,0%);fill-opacity:1;" d="M 5 7.222656 L 5 12.035156 L 7.5 12.035156 C 8.191406 12.035156 8.75 12.574219 8.75 13.242188 L 8.75 16.851562 C 8.75 17.519531 8.191406 18.054688 7.5 18.054688 C 6.808594 18.054688 6.25 17.519531 6.25 16.851562 L 6.25 15.648438 L 5 15.648438 L 5 16.851562 C 5 18.1875 6.113281 19.257812 7.5 19.257812 C 8.886719 19.257812 10 18.1875 10 16.851562 L 10 13.242188 C 10 11.90625 8.886719 10.832031 7.5 10.832031 L 6.25 10.832031 L 6.25 8.425781 L 10 8.425781 L 10 7.222656 Z M 5 7.222656 "/>
<path style=" stroke:none;fill-rule:nonzero;fill:rgb(0%,0%,0%);fill-opacity:1;" d="M 85 122.777344 L 85 117.964844 L 82.5 117.964844 C 81.808594 117.964844 81.25 117.425781 81.25 116.757812 L 81.25 113.148438 C 81.25 112.480469 81.808594 111.945312 82.5 111.945312 C 83.191406 111.945312 83.75 112.480469 83.75 113.148438 L 83.75 114.351562 L 85 114.351562 L 85 113.148438 C 85 111.8125 83.886719 110.742188 82.5 110.742188 C 81.113281 110.742188 80 111.8125 80 113.148438 L 80 116.757812 C 80 118.09375 81.113281 119.167969 82.5 119.167969 L 83.75 119.167969 L 83.75 121.574219 L 80 121.574219 L 80 122.777344 Z M 85 122.777344 "/>
<path style=" stroke:none;fill-rule:nonzero;fill:rgb(0%,0%,0%);fill-opacity:1;" d="M 25 12.035156 C 24.667969 13.640625 24.285156 14.058594 23.667969 14.925781 C 23.132812 15.675781 22.386719 16.265625 21.667969 16.851562 C 20.9375 17.445312 20.105469 17.914062 19.332031 18.457031 C 18.4375 19.089844 17.378906 19.5625 16.667969 20.382812 C 15.871094 21.300781 15 22.394531 15 23.59375 C 15 24.550781 15.601562 25.511719 16.332031 26.160156 C 17.214844 26.941406 18.46875 27.472656 19.667969 27.445312 C 21.007812 27.414062 22.367188 26.738281 23.332031 25.839844 C 24.046875 25.175781 24.667969 23.269531 24.667969 23.269531 L 24.667969 23.914062 C 24.667969 24.234375 24.632812 25.667969 24.332031 26.480469 C 23.980469 27.433594 23.375 28.304688 22.667969 29.050781 C 21.914062 29.835938 20 30.976562 20 30.976562 L 20 31.296875 C 20 31.296875 22.652344 30.761719 24 30.652344 C 24.664062 30.601562 25.335938 30.601562 26 30.652344 C 27.347656 30.761719 30 31.296875 30 31.296875 L 30 30.976562 C 30 30.976562 28.085938 29.835938 27.332031 29.050781 C 26.625 28.304688 26.015625 27.433594 25.667969 26.480469 C 25.367188 25.667969 25.332031 23.914062 25.332031 23.914062 L 25.332031 23.269531 C 25.332031 23.269531 25.949219 25.175781 26.667969 25.839844 C 27.632812 26.738281 28.992188 27.414062 30.332031 27.445312 C 31.53125 27.472656 32.785156 26.941406 33.667969 26.160156 C 34.398438 25.511719 35 24.550781 35 23.59375 C 35 22.394531 34.128906 21.300781 33.332031 20.382812 C 32.621094 19.5625 31.5625 19.089844 30.664062 18.457031 C 29.894531 17.914062 29.0625 17.445312 28.332031 16.851562 C 27.613281 16.265625 26.867188 15.675781 26.332031 14.925781 C 25.714844 14.058594 25.332031 13.640625 25 12.035156 "/>
<path style=" stroke:none;fill-rule:nonzero;fill:rgb(0%,0%,0%);fill-opacity:1;" d="M 65 12.035156 C 64.667969 13.640625 64.285156 14.058594 63.667969 14.925781 C 63.132812 15.675781 62.386719 16.265625 61.667969 16.851562 C 60.9375 17.445312 60.105469 17.914062 59.332031 18.457031 C 58.4375 19.089844 57.378906 19.5625 56.667969 20.382812 C 55.871094 21.300781 55 22.394531 55 23.59375 C 55 24.550781 55.601562 25.511719 56.332031 26.160156 C 57.214844 26.941406 58.46875 27.472656 59.667969 27.445312 C 61.007812 27.414062 62.367188 26.738281 63.332031 25.839844 C 64.046875 25.175781 64.667969 23.269531 64.667969 23.269531 L 64.667969 23.914062 C 64.667969 24.234375 64.632812 25.667969 64.332031 26.480469 C 63.980469 27.433594 63.375 28.304688 62.667969 29.050781 C 61.914062 29.835938 60 30.976562 60 30.976562 L 60 31.296875 C 60 31.296875 62.652344 30.761719 64 30.652344 C 64.664062 30.601562 65.335938 30.601562 66 30.652344 C 67.347656 30.761719 70 31.296875 70 31.296875 L 70 30.976562 C 70 30.976562 68.085938 29.835938 67.332031 29.050781 C 66.625 28.304688 66.015625 27.433594 65.667969 26.480469 C 65.367188 25.667969 65.332031 23.914062 65.332031 23.914062 L 65.332031 23.269531 C 65.332031 23.269531 65.949219 25.175781 66.667969 25.839844 C 67.632812 26.738281 68.992188 27.414062 70.332031 27.445312 C 71.53125 27.472656 72.785156 26.941406 73.667969 26.160156 C 74.398438 25.511719 75 24.550781 75 23.59375 C 75 22.394531 74.128906 21.300781 73.332031 20.382812 C 72.621094 19.5625 71.5625 19.089844 70.664062 18.457031 C 69.894531 17.914062 69.0625 17.445312 68.332031 16.851562 C 67.613281 16.265625 66.867188 15.675781 66.332031 14.925781 C 65.714844 14.058594 65.332031 13.640625 65 12.035156 "/>
<path style=" stroke:none;fill-rule:nonzero;fill:rgb(0%,0%,0%);fill-opacity:1;" d="M 45 55.371094 C 44.667969 56.976562 44.285156 57.390625 43.667969 58.257812 C 43.132812 59.007812 42.386719 59.597656 41.667969 60.183594 C 40.9375 60.78125 40.105469 61.246094 39.332031 61.789062 C 38.4375 62.421875 37.378906 62.894531 36.667969 63.714844 C 35.871094 64.632812 35 65.730469 35 66.925781 C 35 67.882812 35.601562 68.847656 36.332031 69.492188 C 37.214844 70.273438 38.46875 70.804688 39.667969 70.777344 C 41.007812 70.746094 42.367188 70.070312 43.332031 69.171875 C 44.046875 68.507812 44.667969 66.605469 44.667969 66.605469 L 44.667969 67.246094 C 44.667969 67.566406 44.632812 69 44.332031 69.816406 C 43.980469 70.765625 43.375 71.640625 42.667969 72.382812 C 41.914062 73.171875 40 74.308594 40 74.308594 L 40 74.628906 C 40 74.628906 42.652344 74.09375 44 73.988281 C 44.664062 73.933594 45.335938 73.933594 46 73.988281 C 47.347656 74.09375 50 74.628906 50 74.628906 L 50 74.308594 C 50 74.308594 48.085938 73.171875 47.332031 72.382812 C 46.625 71.640625 46.015625 70.765625 45.667969 69.816406 C 45.367188 69.003906 45.332031 67.246094 45.332031 67.246094 L 45.332031 66.605469 C 45.332031 66.605469 45.949219 68.507812 46.667969 69.171875 C 47.632812 70.070312 48.992188 70.746094 50.332031 70.777344 C 51.53125 70.804688 52.785156 70.273438 53.667969 69.492188 C 54.398438 68.847656 55 67.882812 55 66.925781 C 55 65.730469 54.128906 64.632812 53.332031 63.714844 C 52.621094 62.894531 51.5625 62.421875 50.664062 61.789062 C 49.894531 61.246094 49.0625 60.78125 48.332031 60.183594 C 47.613281 59.597656 46.867188 59.007812 46.332031 58.257812 C 45.714844 57.390625 45.332031 56.976562 45 55.371094 "/>
<path style=" stroke:none;fill-rule:nonzero;fill:rgb(0%,0%,0%);fill-opacity:1;" d="M 25 117.964844 C 24.667969 116.359375 24.285156 115.941406 23.667969 115.074219 C 23.132812 114.324219 22.386719 113.734375 21.667969 113.148438 C 20.9375 112.554688 20.105469 112.085938 19.332031 111.542969 C 18.4375 110.910156 17.378906 110.4375 16.667969 109.617188 C 15.871094 108.699219 15 107.605469 15 106.40625 C 15 105.449219 15.601562 104.488281 16.332031 103.839844 C 17.214844 103.058594 18.46875 102.527344 19.667969 102.554688 C 21.007812 102.585938 22.367188 103.261719 23.332031 104.160156 C 24.046875 104.824219 24.667969 106.730469 24.667969 106.730469 L 24.667969 106.085938 C 24.667969 105.765625 24.632812 104.332031 24.332031 103.519531 C 23.980469 102.566406 23.375 101.695312 22.667969 100.949219 C 21.914062 100.164062 20 99.023438 20 99.023438 L 20 98.703125 C 20 98.703125 22.652344 99.238281 24 99.347656 C 24.664062 99.398438 25.335938 99.398438 26 99.347656 C 27.347656 99.238281 30 98.703125 30 98.703125 L 30 99.023438 C 30 99.023438 28.085938 100.164062 27.332031 100.949219 C 26.625 101.695312 26.015625 102.566406 25.667969 103.519531 C 25.367188 104.332031 25.332031 106.085938 25.332031 106.085938 L 25.332031 106.730469 C 25.332031 106.730469 25.949219 104.824219 26.667969 104.160156 C 27.632812 103.261719 28.992188 102.585938 30.332031 102.554688 C 31.53125 102.527344 32.785156 103.058594 33.667969 103.839844 C 34.398438 104.488281 35 105.449219 35 106.40625 C 35 107.605469 34.128906 108.699219 33.332031 109.617188 C 32.621094 110.4375 31.5625 110.910156 30.664062 111.542969 C 29.894531 112.085938 29.0625 112.554688 28.332031 113.148438 C 27.613281 113.734375 26.867188 114.324219 26.332031 115.074219 C 25.714844 115.941406 25.332031 116.359375 25 117.964844 "/>
<path style=" stroke:none;fill-rule:nonzero;fill:rgb(0%,0%,0%);fill-opacity:1;" d="M 65 117.964844 C 64.667969 116.359375 64.285156 115.941406 63.667969 115.074219 C 63.132812 114.324219 62.386719 113.734375 61.667969 113.148438 C 60.9375 112.554688 60.105469 112.085938 59.332031 111.542969 C 58.4375 110.910156 57.378906 110.4375 56.667969 109.617188 C 55.871094 108.699219 55 107.605469 55 106.40625 C 55 105.449219 55.601562 104.488281 56.332031 103.839844 C 57.214844 103.058594 58.46875 102.527344 59.667969 102.554688 C 61.007812 102.585938 62.367188 103.261719 63.332031 104.160156 C 64.046875 104.824219 64.667969 106.730469 64.667969 106.730469 L 64.667969 106.085938 C 64.667969 105.765625 64.632812 104.332031 64.332031 103.519531 C 63.980469 102.566406 63.375 101.695312 62.667969 100.949219 C 61.914062 100.164062 60 99.023438 60 99.023438 L 60 98.703125 C 60 98.703125 62.652344 99.238281 64 99.347656 C 64.664062 99.398438 65.335938 99.398438 66 99.347656 C 67.347656 99.238281 70 98.703125 70 98.703125 L 70 99.023438 C 70 99.023438 68.085938 100.164062 67.332031 100.949219 C 66.625 101.695312 66.015625 102.566406 65.667969 103.519531 C 65.367188 104.332031 65.332031 106.085938 65.332031 106.085938 L 65.332031 106.730469 C 65.332031 106.730469 65.949219 104.824219 66.667969 104.160156 C 67.632812 103.261719 68.992188 102.585938 70.332031 102.554688 C 71.53125 102.527344 72.785156 103.058594 73.667969 103.839844 C 74.398438 104.488281 75 105.449219 75 106.40625 C 75 107.605469 74.128906 108.699219 73.332031 109.617188 C 72.621094 110.4375 71.5625 110.910156 70.664062 111.542969 C 69.894531 112.085938 69.0625 112.554688 68.332031 113.148438 C 67.613281 113.734375 66.867188 114.324219 66.332031 115.074219 C 65.714844 115.941406 65.332031 116.359375 65 117.964844 "/>
<path style=" stroke:none;fill-rule:nonzero;fill:rgb(0%,0%,0%);fill-opacity:1;" d="M 7.5 21.667969 C 7.375 22.269531 7.230469 22.425781 7 22.75 C 6.800781 23.03125 6.519531 23.253906 6.25 23.472656 C 5.976562 23.695312 5.664062 23.871094 5.375 24.074219 C 5.039062 24.3125 4.640625 24.488281 4.375 24.796875 C 4.078125 25.140625 3.75 25.550781 3.75 26 C 3.75 26.359375 3.976562 26.71875 4.25 26.964844 C 4.582031 27.253906 5.050781 27.453125 5.5 27.445312 C 6.003906 27.433594 6.511719 27.179688 6.875 26.84375 C 7.144531 26.59375 7.375 25.878906 7.375 25.878906 L 7.375 26.121094 C 7.375 26.242188 7.363281 26.777344 7.25 27.082031 C 7.117188 27.441406 6.890625 27.765625 6.625 28.046875 C 6.34375 28.339844 5.625 28.769531 5.625 28.769531 L 5.625 28.890625 C 5.625 28.890625 6.621094 28.6875 7.125 28.648438 C 7.375 28.628906 7.625 28.628906 7.875 28.648438 C 8.378906 28.6875 9.375 28.890625 9.375 28.890625 L 9.375 28.769531 C 9.375 28.769531 8.65625 28.339844 8.375 28.046875 C 8.109375 27.765625 7.882812 27.441406 7.75 27.082031 C 7.636719 26.777344 7.625 26.121094 7.625 26.121094 L 7.625 25.878906 C 7.625 25.878906 7.855469 26.59375 8.125 26.84375 C 8.488281 27.179688 8.996094 27.433594 9.5 27.445312 C 9.949219 27.453125 10.417969 27.253906 10.75 26.964844 C 11.023438 26.71875 11.25 26.359375 11.25 26 C 11.25 25.550781 10.921875 25.140625 10.625 24.796875 C 10.359375 24.488281 9.960938 24.308594 9.625 24.074219 C 9.335938 23.871094 9.023438 23.695312 8.75 23.472656 C 8.480469 23.253906 8.199219 23.03125 8 22.75 C 7.769531 22.425781 7.625 22.269531 7.5 21.667969 "/>
<path style=" stroke:none;fill-rule:nonzero;fill:rgb(0%,0%,0%);fill-opacity:1;" d="M 82.5 108.332031 C 82.375 107.730469 82.230469 107.574219 82 107.25 C 81.800781 106.96875 81.519531 106.746094 81.25 106.527344 C 80.976562 106.304688 80.664062 106.128906 80.375 105.925781 C 80.039062 105.6875 79.640625 105.511719 79.375 105.203125 C 79.078125 104.859375 78.75 104.449219 78.75 104 C 78.75 103.640625 78.976562 103.28125 79.25 103.035156 C 79.582031 102.746094 80.050781 102.546875 80.5 102.554688 C 81.003906 102.566406 81.511719 102.820312 81.875 103.15625 C 82.144531 103.40625 82.375 104.121094 82.375 104.121094 L 82.375 103.878906 C 82.375 103.757812 82.363281 103.222656 82.25 102.917969 C 82.117188 102.558594 81.890625 102.234375 81.625 101.953125 C 81.34375 101.660156 80.625 101.230469 80.625 101.230469 L 80.625 101.109375 C 80.625 101.109375 81.621094 101.3125 82.125 101.351562 C 82.375 101.371094 82.625 101.371094 82.875 101.351562 C 83.378906 101.3125 84.375 101.109375 84.375 101.109375 L 84.375 101.230469 C 84.375 101.230469 83.65625 101.660156 83.375 101.953125 C 83.109375 102.234375 82.882812 102.558594 82.75 102.917969 C 82.636719 103.222656 82.625 103.878906 82.625 103.878906 L 82.625 104.121094 C 82.625 104.121094 82.855469 103.40625 83.125 103.15625 C 83.488281 102.820312 83.996094 102.566406 84.5 102.554688 C 84.949219 102.546875 85.417969 102.746094 85.75 103.035156 C 86.023438 103.28125 86.25 103.640625 86.25 104 C 86.25 104.449219 85.921875 104.859375 85.625 105.203125 C 85.359375 105.511719 84.960938 105.691406 84.625 105.925781 C 84.335938 106.128906 84.023438 106.304688 83.75 106.527344 C 83.480469 106.746094 83.199219 106.96875 83 107.25 C 82.769531 107.574219 82.625 107.730469 82.5 108.332031 "/>
</g>
</svg>
