<?xml version="1.0" encoding="UTF-8"?>
<svg xmlns="http://www.w3.org/2000/svg" xmlns:xlink="http://www.w3.org/1999/xlink" width="87pt" height="130pt" viewBox="0 0 87 130" version="1.1">
<g id="surface1">
<path style="fill-rule:nonzero;fill:rgb(100%,100%,100%);fill-opacity:1;stroke-width:1;stroke-linecap:butt;stroke-linejoin:miter;stroke:rgb(0%,0%,0%);stroke-opacity:1;stroke-miterlimit:4;" d="M 30.436422 512.863005 L 329.563578 512.863005 C 346.099138 512.863005 359.498922 526.265649 359.498922 542.799904 L 359.498922 1021.920096 C 359.498922 1038.454351 346.099138 1051.856995 329.563578 1051.856995 L 30.436422 1051.856995 C 13.900862 1051.856995 0.501078 1038.454351 0.501078 1021.920096 L 0.501078 542.799904 C 0.501078 526.265649 13.900862 512.863005 30.436422 512.863005 Z M 30.436422 512.863005 " transform="matrix(0.241667,0,0,0.240741,0,-123.345926)"/>
<path style=" stroke:none;fill-rule:nonzero;fill:rgb(0%,0%,0%);fill-opacity:1;" d="M 4.832031 7.222656 L 4.832031 8.425781 L 6.671875 8.425781 L 6.671875 19.257812 L 7.878906 19.257812 L 7.878906 8.425781 L 9.667969 8.425781 L 9.667969 7.222656 Z M 4.832031 7.222656 "/>
<path style=" stroke:none;fill-rule:nonzero;fill:rgb(0%,0%,0%);fill-opacity:1;" d="M 77.332031 122.777344 L 77.332031 121.574219 L 79.171875 121.574219 L 79.171875 110.742188 L 80.378906 110.742188 L 80.378906 121.574219 L 82.167969 121.574219 L 82.167969 122.777344 Z M 77.332031 122.777344 "/>
<path style=" stroke:none;fill-rule:nonzero;fill:rgb(0%,0%,0%);fill-opacity:1;" d="M 43.5 55.371094 C 43.179688 56.976562 42.808594 57.390625 42.210938 58.257812 C 41.695312 59.007812 40.972656 59.597656 40.277344 60.183594 C 39.574219 60.78125 38.769531 61.246094 38.023438 61.789062 C 37.15625 62.421875 36.132812 62.894531 35.445312 63.714844 C 34.675781 64.632812 33.832031 65.730469 33.832031 66.925781 C 33.832031 67.882812 34.414062 68.847656 35.121094 69.492188 C 35.972656 70.273438 37.1875 70.804688 38.34375 70.777344 C 39.640625 70.746094 40.953125 70.070312 41.890625 69.171875 C 42.582031 68.507812 43.175781 66.605469 43.175781 66.605469 L 43.175781 67.246094 C 43.175781 67.566406 43.144531 69 42.855469 69.816406 C 42.515625 70.765625 41.929688 71.640625 41.246094 72.382812 C 40.515625 73.171875 38.667969 74.308594 38.667969 74.308594 L 38.667969 74.628906 C 38.667969 74.628906 41.230469 74.09375 42.53125 73.988281 C 43.175781 73.933594 43.824219 73.933594 44.464844 73.988281 C 45.769531 74.09375 48.332031 74.628906 48.332031 74.628906 L 48.332031 74.308594 C 48.332031 74.308594 46.480469 73.171875 45.753906 72.382812 C 45.070312 71.640625 44.484375 70.765625 44.144531 69.816406 C 43.855469 69.003906 43.820312 67.246094 43.820312 67.246094 L 43.820312 66.605469 C 43.820312 66.605469 44.417969 68.507812 45.109375 69.171875 C 46.046875 70.070312 47.359375 70.746094 48.65625 70.777344 C 49.8125 70.804688 51.027344 70.273438 51.878906 69.492188 C 52.585938 68.847656 53.167969 67.882812 53.167969 66.925781 C 53.167969 65.730469 52.324219 64.632812 51.554688 63.714844 C 50.867188 62.894531 49.84375 62.421875 48.976562 61.789062 C 48.230469 61.246094 47.425781 60.78125 46.722656 60.183594 C 46.027344 59.597656 45.304688 59.007812 44.789062 58.257812 C 44.191406 57.390625 43.820312 56.976562 43.5 55.371094 "/>
<path style=" stroke:none;fill-rule:nonzero;fill:rgb(0%,0%,0%);fill-opacity:1;" d="M 7.25 21.667969 C 7.128906 22.269531 6.992188 22.425781 6.765625 22.75 C 6.574219 23.03125 6.300781 23.253906 6.042969 23.472656 C 5.777344 23.695312 5.476562 23.871094 5.195312 24.074219 C 4.871094 24.3125 4.488281 24.488281 4.230469 24.796875 C 3.941406 25.140625 3.625 25.550781 3.625 26 C 3.625 26.359375 3.84375 26.71875 4.109375 26.964844 C 4.425781 27.253906 4.882812 27.453125 5.316406 27.445312 C 5.800781 27.433594 6.296875 27.179688 6.644531 26.84375 C 6.90625 26.59375 7.128906 25.878906 7.128906 25.878906 L 7.128906 26.121094 C 7.128906 26.242188 7.117188 26.777344 7.007812 27.082031 C 6.882812 27.441406 6.660156 27.765625 6.402344 28.046875 C 6.132812 28.339844 5.4375 28.769531 5.4375 28.769531 L 5.4375 28.890625 C 5.4375 28.890625 6.398438 28.6875 6.886719 28.648438 C 7.128906 28.628906 7.371094 28.628906 7.613281 28.648438 C 8.101562 28.6875 9.0625 28.890625 9.0625 28.890625 L 9.0625 28.769531 C 9.0625 28.769531 8.367188 28.339844 8.097656 28.046875 C 7.839844 27.765625 7.617188 27.441406 7.492188 27.082031 C 7.382812 26.777344 7.371094 26.121094 7.371094 26.121094 L 7.371094 25.878906 C 7.371094 25.878906 7.59375 26.59375 7.855469 26.84375 C 8.203125 27.179688 8.695312 27.433594 9.183594 27.445312 C 9.617188 27.453125 10.074219 27.253906 10.390625 26.964844 C 10.65625 26.71875 10.875 26.359375 10.875 26 C 10.875 25.550781 10.558594 25.140625 10.269531 24.796875 C 10.011719 24.488281 9.628906 24.308594 9.304688 24.074219 C 9.023438 23.871094 8.722656 23.695312 8.457031 23.472656 C 8.199219 23.253906 7.925781 23.03125 7.734375 22.75 C 7.507812 22.425781 7.371094 22.269531 7.25 21.667969 "/>
<path style=" stroke:none;fill-rule:nonzero;fill:rgb(0%,0%,0%);fill-opacity:1;" d="M 79.75 108.332031 C 79.628906 107.730469 79.492188 107.574219 79.265625 107.25 C 79.074219 106.96875 78.800781 106.746094 78.542969 106.527344 C 78.277344 106.304688 77.976562 106.128906 77.695312 105.925781 C 77.371094 105.6875 76.988281 105.511719 76.730469 105.203125 C 76.441406 104.859375 76.125 104.449219 76.125 104 C 76.125 103.640625 76.34375 103.28125 76.609375 103.035156 C 76.925781 102.746094 77.382812 102.546875 77.816406 102.554688 C 78.300781 102.566406 78.796875 102.820312 79.144531 103.15625 C 79.40625 103.40625 79.628906 104.121094 79.628906 104.121094 L 79.628906 103.878906 C 79.628906 103.757812 79.617188 103.222656 79.507812 102.917969 C 79.382812 102.558594 79.160156 102.234375 78.902344 101.953125 C 78.632812 101.660156 77.9375 101.230469 77.9375 101.230469 L 77.9375 101.109375 C 77.9375 101.109375 78.898438 101.3125 79.386719 101.351562 C 79.628906 101.371094 79.871094 101.371094 80.113281 101.351562 C 80.601562 101.3125 81.5625 101.109375 81.5625 101.109375 L 81.5625 101.230469 C 81.5625 101.230469 80.867188 101.660156 80.597656 101.953125 C 80.339844 102.234375 80.117188 102.558594 79.992188 102.917969 C 79.882812 103.222656 79.871094 103.878906 79.871094 103.878906 L 79.871094 104.121094 C 79.871094 104.121094 80.09375 103.40625 80.355469 103.15625 C 80.703125 102.820312 81.195312 102.566406 81.683594 102.554688 C 82.117188 102.546875 82.574219 102.746094 82.890625 103.035156 C 83.15625 103.28125 83.375 103.640625 83.375 104 C 83.375 104.449219 83.058594 104.859375 82.769531 105.203125 C 82.511719 105.511719 82.128906 105.691406 81.804688 105.925781 C 81.523438 106.128906 81.222656 106.304688 80.957031 106.527344 C 80.699219 106.746094 80.425781 106.96875 80.234375 107.25 C 80.007812 107.574219 79.871094 107.730469 79.75 108.332031 "/>
</g>
</svg>
