<?xml version="1.0" encoding="UTF-8"?>
<svg xmlns="http://www.w3.org/2000/svg" xmlns:xlink="http://www.w3.org/1999/xlink" width="60px" height="90px" viewBox="0 0 60 90" version="1.1">
<defs>
<linearGradient id="linear0" gradientUnits="userSpaceOnUse" x1="0" y1="0" x2="1" y2="0" gradientTransform="matrix(59.896011,0,0,89.627352,0.0519931,0.186315)">
<stop offset="0" style="stop-color:rgb(0%,0%,0%);stop-opacity:0.2;"/>
<stop offset="0.3" style="stop-color:rgb(100%,100%,100%);stop-opacity:0.3;"/>
<stop offset="1" style="stop-color:rgb(0%,0%,0%);stop-opacity:0.2;"/>
</linearGradient>
</defs>
<g id="surface1">
<path style="fill-rule:nonzero;fill:rgb(100%,100%,100%);fill-opacity:1;stroke-width:0.1;stroke-linecap:butt;stroke-linejoin:miter;stroke:rgb(0%,0%,0%);stroke-opacity:1;stroke-miterlimit:4;" d="M 3.200287 0.201158 L 54.799714 0.201158 C 56.456335 0.201158 57.801166 1.541238 57.801166 3.198203 L 57.801166 84.801813 C 57.801166 86.45496 56.456335 87.798857 54.799714 87.798857 L 3.200287 87.798857 C 1.543665 87.798857 0.198835 86.45496 0.198835 84.801813 L 0.198835 3.198203 C 0.198835 1.541238 1.543665 0.201158 3.200287 0.201158 Z M 3.200287 0.201158 " transform="matrix(1.039861,0,0,1.023143,-0.155979,-0.0183135)"/>
<path style=" stroke:none;fill-rule:nonzero;fill:rgb(100%,0%,0%);fill-opacity:1;" d="M 5.5625 4.074219 L 54.4375 4.074219 C 55.296875 4.074219 55.996094 4.761719 55.996094 5.609375 L 55.996094 84.390625 C 55.996094 85.238281 55.296875 85.925781 54.4375 85.925781 L 5.5625 85.925781 C 4.703125 85.925781 4.003906 85.238281 4.003906 84.390625 L 4.003906 5.609375 C 4.003906 4.761719 4.703125 4.074219 5.5625 4.074219 Z M 5.5625 4.074219 "/>
<path style="fill:none;stroke-width:1;stroke-linecap:butt;stroke-linejoin:miter;stroke:rgb(100%,0%,0%);stroke-opacity:1;stroke-miterlimit:4;" d="M 4.999655 2.999672 L 53.000346 2.999672 C 54.10476 2.999672 54.998809 3.896877 54.998809 5.000247 L 54.998809 82.999768 C 54.998809 84.103138 54.10476 85.000343 53.000346 85.000343 L 4.999655 85.000343 C 3.895241 85.000343 3.001191 84.103138 3.001191 82.999768 L 3.001191 5.000247 C 3.001191 3.896877 3.895241 2.999672 4.999655 2.999672 Z M 4.999655 2.999672 " transform="matrix(1.039861,0,0,1.023143,-0.155979,-0.0183135)"/>
<path style=" stroke:none;fill-rule:nonzero;fill:rgb(100%,100%,100%);fill-opacity:1;" d="M 25.441406 23.667969 L 32.898438 23.132812 C 32.898438 27.542969 32.898438 31.933594 32.898438 36.320312 C 35.871094 31.910156 39.171875 27.523438 42.898438 23.273438 L 50.898438 25.269531 C 47.3125 29.191406 43.65625 33.558594 40.730469 37.921875 C 43.539062 42.5625 46.628906 46.8125 50.757812 51.640625 L 43.042969 53.894531 C 38.726562 49.132812 36.128906 44.5625 32.898438 39.640625 L 32.898438 52.710938 L 25.441406 53.636719 Z M 25.441406 23.667969 "/>
<path style=" stroke:none;fill-rule:nonzero;fill:rgb(100%,100%,100%);fill-opacity:1;" d="M 32.96875 59.929688 C 37.332031 59.023438 36.222656 57.722656 39.785156 59.765625 L 42.097656 61.367188 C 42.523438 61.578125 42.925781 61.949219 43.324219 61.554688 C 44.199219 60.742188 45.046875 59.90625 45.921875 59.09375 C 46.296875 58.699219 45.921875 58.257812 45.730469 57.957031 L 45.707031 57.957031 L 44.035156 55.609375 L 42.925781 56.007812 C 42.640625 56.191406 42.261719 56.097656 41.933594 55.65625 L 39.480469 52.5 C 37.214844 55.589844 33.558594 57.585938 29.40625 57.585938 C 22.5625 57.585938 16.996094 52.105469 16.996094 45.375 C 16.996094 40.59375 19.804688 36.4375 23.882812 34.441406 L 23.882812 31.632812 C 23.742188 31.699219 23.601562 31.746094 23.484375 31.792969 C 21.878906 32.445312 21.785156 32.746094 19.164062 31.257812 L 16.855469 29.632812 C 16.429688 29.449219 16.027344 29.054688 15.625 29.449219 C 14.753906 30.285156 13.90625 31.121094 13.03125 31.957031 C 12.652344 32.328125 13.054688 32.792969 13.21875 33.09375 L 14.988281 35.554688 L 16.285156 37.363281 C 16.476562 37.621094 16.546875 37.644531 16.453125 37.828125 C 16.335938 38.015625 16.238281 38.175781 16.121094 38.363281 C 14.398438 41.289062 15.601562 41.519531 11.921875 42.472656 L 9.113281 42.9375 C 8.691406 43.074219 8.125 43.074219 8.101562 43.65625 C 8.101562 44.839844 8.078125 46.023438 8.078125 47.207031 C 8.054688 47.742188 8.667969 47.789062 9.019531 47.882812 L 12.015625 48.414062 L 14.257812 48.808594 C 14.566406 48.855469 14.636719 48.808594 14.707031 49.042969 C 15.628906 52.964844 16.828125 52.035156 14.824219 55.449219 L 13.195312 57.746094 C 12.984375 58.140625 12.605469 58.535156 13.007812 58.929688 C 13.855469 59.789062 14.683594 60.625 15.53125 61.484375 C 15.910156 61.855469 16.382812 61.460938 16.6875 61.300781 L 19.1875 59.558594 L 21.054688 58.304688 C 21.3125 58.097656 21.335938 58.027344 21.523438 58.140625 C 25.253906 60.441406 25.394531 58.792969 26.480469 62.667969 L 27 65.429688 C 27.140625 65.847656 27.164062 66.382812 27.730469 66.40625 C 28.933594 66.40625 30.160156 66.40625 31.363281 66.40625 C 31.90625 66.40625 31.953125 65.800781 32.023438 65.453125 L 32.542969 62.484375 L 32.898438 60.300781 C 32.921875 60.089844 32.921875 59.996094 32.96875 59.929688 Z M 37.472656 58.070312 C 37.449219 58.09375 37.425781 58.09375 37.402344 58.09375 C 37.425781 58.09375 37.425781 58.070312 37.449219 58.070312 Z M 33.203125 59.835938 C 33.132812 59.859375 33.039062 59.882812 32.96875 59.929688 C 33.015625 59.882812 33.085938 59.859375 33.203125 59.835938 Z M 33.203125 59.835938 "/>
<path style=" stroke:none;fill-rule:nonzero;fill:rgb(100%,100%,100%);fill-opacity:1;" d="M 29.5 56.703125 C 33.414062 56.703125 36.859375 54.75 38.9375 51.78125 L 38.796875 51.546875 C 36.367188 54.195312 33.652344 55.914062 29.476562 56.003906 C 24.285156 56.097656 19.023438 51.523438 19 45.535156 C 18.953125 41.683594 20.769531 39.082031 23.859375 37.226562 L 23.859375 35.601562 C 20.390625 37.527344 18.035156 41.21875 18.035156 45.417969 C 18.035156 51.617188 23.175781 56.703125 29.5 56.703125 Z M 29.5 56.703125 "/>
<path style=" stroke:none;fill-rule:nonzero;fill:url(#linear0);" d="M 3.171875 0.1875 L 56.828125 0.1875 C 58.550781 0.1875 59.949219 1.558594 59.949219 3.253906 L 59.949219 86.746094 C 59.949219 88.4375 58.550781 89.8125 56.828125 89.8125 L 3.171875 89.8125 C 1.449219 89.8125 0.0507812 88.4375 0.0507812 86.746094 L 0.0507812 3.253906 C 0.0507812 1.558594 1.449219 0.1875 3.171875 0.1875 Z M 3.171875 0.1875 "/>
</g>
</svg>
