<?xml version="1.0" encoding="UTF-8"?>
<svg xmlns="http://www.w3.org/2000/svg" xmlns:xlink="http://www.w3.org/1999/xlink" width="90px" height="130px" viewBox="0 0 90 130" version="1.1">
<defs>
<linearGradient id="linear0" gradientUnits="userSpaceOnUse" x1="0" y1="0" x2="1" y2="0" gradientTransform="matrix(89.844017,0,0,129.461731,0.0779896,0.269122)">
<stop offset="0" style="stop-color:rgb(0%,0%,0%);stop-opacity:0.2;"/>
<stop offset="0.7" style="stop-color:rgb(93.333334%,93.333334%,93.333334%);stop-opacity:0.1;"/>
<stop offset="1" style="stop-color:rgb(0%,0%,0%);stop-opacity:0.2;"/>
</linearGradient>
</defs>
<g id="surface1">
<path style="fill-rule:nonzero;fill:rgb(100%,100%,100%);fill-opacity:1;stroke-width:0.1;stroke-linecap:butt;stroke-linejoin:miter;stroke:rgb(0%,0%,0%);stroke-opacity:1;stroke-miterlimit:4;" d="M 3.200287 0.200277 L 54.799714 0.200277 C 56.457588 0.200277 57.799914 1.543 57.799914 3.200258 L 57.799914 84.799757 C 57.799914 86.457015 56.457588 87.799738 54.799714 87.799738 L 3.200287 87.799738 C 1.542413 87.799738 0.200087 86.457015 0.200087 84.799757 L 0.200087 3.200258 C 0.200087 1.543 1.542413 0.200277 3.200287 0.200277 Z M 3.200287 0.200277 " transform="matrix(1.559792,0,0,1.477874,-0.233969,-0.0264528)"/>
<path style=" stroke:none;fill-rule:nonzero;fill:rgb(0%,0%,0%);fill-opacity:1;" d="M 8.839844 28.738281 C 8.578125 28.738281 8.117188 28.761719 7.929688 28.875 C 8.550781 27.1875 8.589844 26.226562 8.621094 24.914062 C 7.929688 24.933594 7.328125 26.226562 6.042969 26.214844 C 5.050781 26.203125 4.46875 25.429688 4.46875 24.730469 C 4.476562 24.203125 4.96875 23.289062 6.046875 23.289062 C 7.40625 23.289062 7.863281 24.589844 8.621094 24.585938 C 8.628906 23.839844 7.257812 23.40625 7.25 22.148438 C 7.25 21.457031 7.8125 20.742188 8.839844 20.71875 C 9.871094 20.742188 10.429688 21.457031 10.429688 22.148438 C 10.425781 23.40625 9.054688 23.839844 9.058594 24.585938 C 9.820312 24.589844 10.273438 23.289062 11.636719 23.289062 C 12.710938 23.289062 13.207031 24.203125 13.214844 24.730469 C 13.214844 25.429688 12.628906 26.203125 11.640625 26.214844 C 10.351562 26.226562 9.75 24.933594 9.058594 24.914062 C 9.09375 26.226562 9.128906 27.1875 9.753906 28.875 C 9.566406 28.761719 9.101562 28.738281 8.84375 28.738281 "/>
<path style=" stroke:none;fill-rule:nonzero;fill:rgb(0%,0%,0%);fill-opacity:1;" d="M 81.160156 101.261719 C 81.421875 101.261719 81.882812 101.238281 82.070312 101.125 C 81.449219 102.8125 81.410156 103.773438 81.378906 105.085938 C 82.070312 105.066406 82.671875 103.773438 83.957031 103.785156 C 84.949219 103.796875 85.53125 104.570312 85.53125 105.269531 C 85.523438 105.796875 85.03125 106.710938 83.953125 106.710938 C 82.59375 106.710938 82.136719 105.410156 81.378906 105.414062 C 81.371094 106.160156 82.742188 106.59375 82.75 107.851562 C 82.75 108.542969 82.1875 109.257812 81.160156 109.28125 C 80.128906 109.257812 79.570312 108.542969 79.570312 107.851562 C 79.574219 106.59375 80.945312 106.160156 80.941406 105.414062 C 80.179688 105.410156 79.726562 106.710938 78.363281 106.710938 C 77.289062 106.710938 76.792969 105.796875 76.785156 105.269531 C 76.785156 104.570312 77.371094 103.796875 78.359375 103.785156 C 79.648438 103.773438 80.25 105.066406 80.941406 105.085938 C 80.90625 103.773438 80.871094 102.8125 80.246094 101.125 C 80.433594 101.238281 80.898438 101.261719 81.15625 101.261719 "/>
<path style=" stroke:none;fill-rule:nonzero;fill:rgb(0%,0%,0%);fill-opacity:1;" d="M 45.066406 30.5 C 44.417969 30.5 43.257812 30.566406 42.789062 30.847656 C 44.347656 26.632812 44.441406 24.222656 44.523438 20.941406 C 42.792969 20.992188 41.289062 24.222656 38.074219 24.195312 C 35.597656 24.167969 34.136719 22.238281 34.136719 20.488281 C 34.160156 19.167969 35.394531 16.882812 38.085938 16.882812 C 41.488281 16.882812 42.621094 20.132812 44.523438 20.128906 C 44.535156 18.257812 41.113281 17.175781 41.09375 14.03125 C 41.09375 12.300781 42.496094 10.511719 45.070312 10.453125 C 47.644531 10.511719 49.046875 12.300781 49.046875 14.03125 C 49.027344 17.175781 45.605469 18.257812 45.617188 20.128906 C 47.519531 20.132812 48.652344 16.882812 52.054688 16.882812 C 54.746094 16.882812 55.980469 19.167969 56.003906 20.488281 C 56.003906 22.238281 54.542969 24.167969 52.066406 24.195312 C 48.851562 24.222656 47.347656 20.992188 45.617188 20.941406 C 45.699219 24.222656 45.792969 26.632812 47.351562 30.847656 C 46.882812 30.566406 45.722656 30.5 45.074219 30.5 "/>
<path style=" stroke:none;fill-rule:nonzero;fill:rgb(0%,0%,0%);fill-opacity:1;" d="M 44.933594 99.5 C 45.582031 99.5 46.742188 99.433594 47.210938 99.152344 C 45.652344 103.367188 45.558594 105.777344 45.476562 109.058594 C 47.207031 109.007812 48.710938 105.777344 51.925781 105.804688 C 54.402344 105.832031 55.863281 107.761719 55.863281 109.511719 C 55.839844 110.832031 54.605469 113.117188 51.914062 113.117188 C 48.511719 113.117188 47.378906 109.867188 45.476562 109.871094 C 45.464844 111.742188 48.886719 112.824219 48.90625 115.96875 C 48.90625 117.699219 47.503906 119.488281 44.929688 119.546875 C 42.355469 119.488281 40.953125 117.699219 40.953125 115.96875 C 40.972656 112.824219 44.394531 111.742188 44.382812 109.871094 C 42.480469 109.867188 41.347656 113.117188 37.945312 113.117188 C 35.253906 113.117188 34.019531 110.832031 33.996094 109.511719 C 33.996094 107.761719 35.457031 105.832031 37.933594 105.804688 C 41.148438 105.777344 42.652344 109.007812 44.382812 109.058594 C 44.300781 105.777344 44.207031 103.367188 42.648438 99.152344 C 43.117188 99.433594 44.277344 99.5 44.925781 99.5 "/>
<path style=" stroke:none;fill-rule:nonzero;fill:rgb(0%,0%,0%);fill-opacity:1;" d="M 8.8125 5.9375 C 6.113281 5.9375 4.5 7.519531 4.5 9.195312 L 5.726562 9.195312 C 5.726562 8.195312 6.582031 7.101562 8.8125 7.101562 C 9.988281 7.101562 10.75 7.28125 11.1875 7.617188 C 11.625 7.953125 11.898438 8.5 11.898438 9.636719 C 11.898438 10.335938 11.558594 10.871094 10.941406 11.394531 C 10.328125 11.914062 9.457031 12.386719 8.539062 12.84375 C 7.621094 13.296875 6.65625 13.734375 5.890625 14.289062 C 5.125 14.847656 4.5 15.582031 4.5 16.539062 L 4.5 18.246094 L 13.125 18.246094 L 13.125 15.660156 L 11.898438 15.660156 L 11.898438 17.082031 L 5.726562 17.082031 L 5.726562 16.539062 C 5.726562 16.050781 6.035156 15.671875 6.65625 15.222656 C 7.277344 14.769531 8.15625 14.3125 9.085938 13.851562 C 10.015625 13.386719 10.988281 12.902344 11.761719 12.246094 C 12.53125 11.59375 13.125 10.71875 13.125 9.636719 C 13.125 8.316406 12.773438 7.324219 11.980469 6.710938 C 11.183594 6.101562 10.105469 5.9375 8.8125 5.9375 Z M 8.8125 5.9375 "/>
<path style=" stroke:none;fill-rule:nonzero;fill:rgb(0%,0%,0%);fill-opacity:1;" d="M 81.1875 124.0625 C 83.886719 124.0625 85.5 122.480469 85.5 120.804688 L 84.273438 120.804688 C 84.273438 121.804688 83.417969 122.898438 81.1875 122.898438 C 80.011719 122.898438 79.25 122.71875 78.8125 122.382812 C 78.375 122.046875 78.101562 121.5 78.101562 120.363281 C 78.101562 119.664062 78.441406 119.128906 79.058594 118.605469 C 79.671875 118.085938 80.542969 117.613281 81.460938 117.15625 C 82.378906 116.703125 83.34375 116.265625 84.109375 115.710938 C 84.875 115.152344 85.5 114.417969 85.5 113.460938 L 85.5 111.753906 L 76.875 111.753906 L 76.875 114.339844 L 78.101562 114.339844 L 78.101562 112.917969 L 84.273438 112.917969 L 84.273438 113.460938 C 84.273438 113.949219 83.964844 114.328125 83.34375 114.777344 C 82.722656 115.230469 81.84375 115.6875 80.914062 116.148438 C 79.984375 116.613281 79.011719 117.097656 78.238281 117.753906 C 77.46875 118.40625 76.875 119.28125 76.875 120.363281 C 76.875 121.683594 77.226562 122.675781 78.019531 123.289062 C 78.816406 123.898438 79.894531 124.0625 81.1875 124.0625 Z M 81.1875 124.0625 "/>
<path style=" stroke:none;fill-rule:nonzero;fill:url(#linear0);" d="M 4.757812 0.269531 L 85.242188 0.269531 C 87.828125 0.269531 89.921875 2.253906 89.921875 4.703125 L 89.921875 125.296875 C 89.921875 127.746094 87.828125 129.730469 85.242188 129.730469 L 4.757812 129.730469 C 2.171875 129.730469 0.078125 127.746094 0.078125 125.296875 L 0.078125 4.703125 C 0.078125 2.253906 2.171875 0.269531 4.757812 0.269531 Z M 4.757812 0.269531 "/>
</g>
</svg>
