<?xml version="1.0" encoding="UTF-8"?>
<svg xmlns="http://www.w3.org/2000/svg" xmlns:xlink="http://www.w3.org/1999/xlink" width="90px" height="130px" viewBox="0 0 90 130" version="1.1">
<defs>
<linearGradient id="linear0" gradientUnits="userSpaceOnUse" x1="0" y1="0" x2="1" y2="0" gradientTransform="matrix(89.844017,0,0,129.461731,0.0779896,0.269122)">
<stop offset="0" style="stop-color:rgb(0%,0%,0%);stop-opacity:0.2;"/>
<stop offset="0.7" style="stop-color:rgb(93.333334%,93.333334%,93.333334%);stop-opacity:0.1;"/>
<stop offset="1" style="stop-color:rgb(0%,0%,0%);stop-opacity:0.2;"/>
</linearGradient>
</defs>
<g id="surface1">
<path style="fill-rule:nonzero;fill:rgb(100%,100%,100%);fill-opacity:1;stroke-width:0.1;stroke-linecap:butt;stroke-linejoin:miter;stroke:rgb(0%,0%,0%);stroke-opacity:1;stroke-miterlimit:4;" d="M 3.200287 0.200277 L 54.799714 0.200277 C 56.457588 0.200277 57.799914 1.543 57.799914 3.200258 L 57.799914 84.799757 C 57.799914 86.457015 56.457588 87.799738 54.799714 87.799738 L 3.200287 87.799738 C 1.542413 87.799738 0.200087 86.457015 0.200087 84.799757 L 0.200087 3.200258 C 0.200087 1.543 1.542413 0.200277 3.200287 0.200277 Z M 3.200287 0.200277 " transform="matrix(1.559792,0,0,1.477874,-0.233969,-0.0264528)"/>
<path style=" stroke:none;fill-rule:nonzero;fill:rgb(0%,0%,0%);fill-opacity:1;" d="M 8.839844 28.738281 C 8.578125 28.738281 8.117188 28.761719 7.929688 28.875 C 8.550781 27.1875 8.589844 26.226562 8.621094 24.914062 C 7.929688 24.933594 7.328125 26.226562 6.042969 26.214844 C 5.050781 26.203125 4.46875 25.429688 4.46875 24.730469 C 4.476562 24.203125 4.96875 23.289062 6.046875 23.289062 C 7.40625 23.289062 7.863281 24.589844 8.621094 24.585938 C 8.628906 23.839844 7.257812 23.40625 7.25 22.148438 C 7.25 21.457031 7.8125 20.742188 8.839844 20.71875 C 9.871094 20.742188 10.429688 21.457031 10.429688 22.148438 C 10.425781 23.40625 9.054688 23.839844 9.058594 24.585938 C 9.820312 24.589844 10.273438 23.289062 11.636719 23.289062 C 12.710938 23.289062 13.207031 24.203125 13.214844 24.730469 C 13.214844 25.429688 12.628906 26.203125 11.640625 26.214844 C 10.351562 26.226562 9.75 24.933594 9.058594 24.914062 C 9.09375 26.226562 9.128906 27.1875 9.753906 28.875 C 9.566406 28.761719 9.101562 28.738281 8.84375 28.738281 "/>
<path style=" stroke:none;fill-rule:nonzero;fill:rgb(0%,0%,0%);fill-opacity:1;" d="M 81.160156 101.261719 C 81.421875 101.261719 81.882812 101.238281 82.070312 101.125 C 81.449219 102.8125 81.410156 103.773438 81.378906 105.085938 C 82.070312 105.066406 82.671875 103.773438 83.957031 103.785156 C 84.949219 103.796875 85.53125 104.570312 85.53125 105.269531 C 85.523438 105.796875 85.03125 106.710938 83.953125 106.710938 C 82.59375 106.710938 82.136719 105.410156 81.378906 105.414062 C 81.371094 106.160156 82.742188 106.59375 82.75 107.851562 C 82.75 108.542969 82.1875 109.257812 81.160156 109.28125 C 80.128906 109.257812 79.570312 108.542969 79.570312 107.851562 C 79.574219 106.59375 80.945312 106.160156 80.941406 105.414062 C 80.179688 105.410156 79.726562 106.710938 78.363281 106.710938 C 77.289062 106.710938 76.792969 105.796875 76.785156 105.269531 C 76.785156 104.570312 77.371094 103.796875 78.359375 103.785156 C 79.648438 103.773438 80.25 105.066406 80.941406 105.085938 C 80.90625 103.773438 80.871094 102.8125 80.246094 101.125 C 80.433594 101.238281 80.898438 101.261719 81.15625 101.261719 "/>
<path style=" stroke:none;fill-rule:nonzero;fill:rgb(0%,0%,0%);fill-opacity:1;" d="M 24.789062 74.835938 C 24.140625 74.835938 22.980469 74.902344 22.511719 75.183594 C 24.070312 70.96875 24.164062 68.558594 24.246094 65.277344 C 22.515625 65.332031 21.011719 68.5625 17.796875 68.53125 C 15.320312 68.503906 13.859375 66.574219 13.859375 64.824219 C 13.882812 63.503906 15.117188 61.21875 17.808594 61.21875 C 21.210938 61.21875 22.34375 64.46875 24.246094 64.464844 C 24.257812 62.59375 20.835938 61.511719 20.816406 58.367188 C 20.816406 56.636719 22.21875 54.847656 24.792969 54.789062 C 27.367188 54.847656 28.769531 56.636719 28.769531 58.367188 C 28.75 61.511719 25.328125 62.59375 25.339844 64.464844 C 27.242188 64.46875 28.375 61.21875 31.777344 61.21875 C 34.46875 61.21875 35.703125 63.503906 35.726562 64.824219 C 35.726562 66.574219 34.265625 68.503906 31.789062 68.53125 C 28.574219 68.5625 27.070312 65.332031 25.339844 65.277344 C 25.421875 68.558594 25.515625 70.96875 27.074219 75.183594 C 26.605469 74.902344 25.445312 74.835938 24.796875 74.835938 "/>
<path style=" stroke:none;fill-rule:nonzero;fill:rgb(0%,0%,0%);fill-opacity:1;" d="M 24.789062 30.5 C 24.140625 30.5 22.980469 30.566406 22.511719 30.847656 C 24.070312 26.632812 24.164062 24.222656 24.246094 20.941406 C 22.515625 20.992188 21.011719 24.222656 17.796875 24.195312 C 15.320312 24.167969 13.859375 22.238281 13.859375 20.488281 C 13.882812 19.167969 15.117188 16.882812 17.808594 16.882812 C 21.210938 16.882812 22.34375 20.132812 24.246094 20.128906 C 24.257812 18.257812 20.835938 17.175781 20.816406 14.03125 C 20.816406 12.300781 22.21875 10.511719 24.792969 10.453125 C 27.367188 10.511719 28.769531 12.300781 28.769531 14.03125 C 28.75 17.175781 25.328125 18.257812 25.339844 20.128906 C 27.242188 20.132812 28.375 16.882812 31.777344 16.882812 C 34.46875 16.882812 35.703125 19.167969 35.726562 20.488281 C 35.726562 22.238281 34.265625 24.167969 31.789062 24.195312 C 28.574219 24.222656 27.070312 20.992188 25.339844 20.941406 C 25.421875 24.222656 25.515625 26.632812 27.074219 30.847656 C 26.605469 30.566406 25.445312 30.5 24.796875 30.5 "/>
<path style=" stroke:none;fill-rule:nonzero;fill:rgb(0%,0%,0%);fill-opacity:1;" d="M 24.65625 99.5 C 25.304688 99.5 26.464844 99.433594 26.933594 99.152344 C 25.375 103.367188 25.28125 105.777344 25.199219 109.058594 C 26.929688 109.007812 28.433594 105.777344 31.648438 105.804688 C 34.125 105.832031 35.585938 107.761719 35.585938 109.511719 C 35.5625 110.832031 34.328125 113.117188 31.636719 113.117188 C 28.234375 113.117188 27.101562 109.867188 25.199219 109.871094 C 25.1875 111.742188 28.609375 112.824219 28.628906 115.96875 C 28.628906 117.699219 27.226562 119.488281 24.652344 119.546875 C 22.078125 119.488281 20.675781 117.699219 20.675781 115.96875 C 20.695312 112.824219 24.117188 111.742188 24.105469 109.871094 C 22.203125 109.867188 21.070312 113.117188 17.667969 113.117188 C 14.976562 113.117188 13.742188 110.832031 13.71875 109.511719 C 13.71875 107.761719 15.179688 105.832031 17.65625 105.804688 C 20.871094 105.777344 22.375 109.007812 24.105469 109.058594 C 24.023438 105.777344 23.929688 103.367188 22.371094 99.152344 C 22.839844 99.433594 24 99.5 24.648438 99.5 "/>
<path style=" stroke:none;fill-rule:nonzero;fill:rgb(0%,0%,0%);fill-opacity:1;" d="M 45.066406 52.667969 C 44.417969 52.667969 43.257812 52.734375 42.789062 53.015625 C 44.347656 48.800781 44.441406 46.390625 44.523438 43.109375 C 42.792969 43.160156 41.289062 46.394531 38.074219 46.363281 C 35.597656 46.335938 34.136719 44.40625 34.136719 42.65625 C 34.160156 41.335938 35.394531 39.050781 38.085938 39.050781 C 41.488281 39.050781 42.621094 42.300781 44.523438 42.296875 C 44.535156 40.425781 41.113281 39.34375 41.09375 36.199219 C 41.09375 34.46875 42.496094 32.679688 45.070312 32.621094 C 47.644531 32.679688 49.046875 34.46875 49.046875 36.199219 C 49.027344 39.34375 45.605469 40.425781 45.617188 42.296875 C 47.519531 42.300781 48.652344 39.050781 52.054688 39.050781 C 54.746094 39.050781 55.980469 41.335938 56.003906 42.65625 C 56.003906 44.40625 54.542969 46.335938 52.066406 46.363281 C 48.851562 46.394531 47.347656 43.160156 45.617188 43.109375 C 45.699219 46.390625 45.792969 48.800781 47.351562 53.015625 C 46.882812 52.734375 45.722656 52.667969 45.074219 52.667969 "/>
<path style=" stroke:none;fill-rule:nonzero;fill:rgb(0%,0%,0%);fill-opacity:1;" d="M 44.933594 77.332031 C 45.582031 77.332031 46.742188 77.265625 47.210938 76.984375 C 45.652344 81.199219 45.558594 83.609375 45.476562 86.890625 C 47.207031 86.839844 48.710938 83.605469 51.925781 83.636719 C 54.402344 83.664062 55.863281 85.59375 55.863281 87.34375 C 55.839844 88.664062 54.605469 90.949219 51.914062 90.949219 C 48.511719 90.949219 47.378906 87.699219 45.476562 87.703125 C 45.464844 89.574219 48.886719 90.65625 48.90625 93.800781 C 48.90625 95.53125 47.503906 97.320312 44.929688 97.378906 C 42.355469 97.320312 40.953125 95.53125 40.953125 93.800781 C 40.972656 90.65625 44.394531 89.574219 44.382812 87.703125 C 42.480469 87.699219 41.347656 90.949219 37.945312 90.949219 C 35.253906 90.949219 34.019531 88.664062 33.996094 87.34375 C 33.996094 85.59375 35.457031 83.664062 37.933594 83.636719 C 41.148438 83.605469 42.652344 86.839844 44.382812 86.890625 C 44.300781 83.609375 44.207031 81.199219 42.648438 76.984375 C 43.117188 77.265625 44.277344 77.332031 44.925781 77.332031 "/>
<path style=" stroke:none;fill-rule:nonzero;fill:rgb(0%,0%,0%);fill-opacity:1;" d="M 65.210938 55.164062 C 65.859375 55.164062 67.019531 55.097656 67.488281 54.816406 C 65.929688 59.03125 65.835938 61.441406 65.753906 64.722656 C 67.484375 64.667969 68.988281 61.4375 72.203125 61.46875 C 74.679688 61.496094 76.140625 63.425781 76.140625 65.175781 C 76.117188 66.496094 74.882812 68.78125 72.191406 68.78125 C 68.789062 68.78125 67.65625 65.53125 65.753906 65.535156 C 65.742188 67.40625 69.164062 68.488281 69.183594 71.632812 C 69.183594 73.363281 67.78125 75.152344 65.207031 75.210938 C 62.632812 75.152344 61.230469 73.363281 61.230469 71.632812 C 61.25 68.488281 64.671875 67.40625 64.660156 65.535156 C 62.757812 65.53125 61.625 68.78125 58.222656 68.78125 C 55.53125 68.78125 54.296875 66.496094 54.273438 65.175781 C 54.273438 63.425781 55.734375 61.496094 58.210938 61.46875 C 61.425781 61.4375 62.929688 64.667969 64.660156 64.722656 C 64.578125 61.441406 64.484375 59.03125 62.925781 54.816406 C 63.394531 55.097656 64.554688 55.164062 65.203125 55.164062 "/>
<path style=" stroke:none;fill-rule:nonzero;fill:rgb(0%,0%,0%);fill-opacity:1;" d="M 65.210938 99.5 C 65.859375 99.5 67.019531 99.433594 67.488281 99.152344 C 65.929688 103.367188 65.835938 105.777344 65.753906 109.058594 C 67.484375 109.007812 68.988281 105.777344 72.203125 105.804688 C 74.679688 105.832031 76.140625 107.761719 76.140625 109.511719 C 76.117188 110.832031 74.882812 113.117188 72.191406 113.117188 C 68.789062 113.117188 67.65625 109.867188 65.753906 109.871094 C 65.742188 111.742188 69.164062 112.824219 69.183594 115.96875 C 69.183594 117.699219 67.78125 119.488281 65.207031 119.546875 C 62.632812 119.488281 61.230469 117.699219 61.230469 115.96875 C 61.25 112.824219 64.671875 111.742188 64.660156 109.871094 C 62.757812 109.867188 61.625 113.117188 58.222656 113.117188 C 55.53125 113.117188 54.296875 110.832031 54.273438 109.511719 C 54.273438 107.761719 55.734375 105.832031 58.210938 105.804688 C 61.425781 105.777344 62.929688 109.007812 64.660156 109.058594 C 64.578125 105.777344 64.484375 103.367188 62.925781 99.152344 C 63.394531 99.433594 64.554688 99.5 65.203125 99.5 "/>
<path style=" stroke:none;fill-rule:nonzero;fill:rgb(0%,0%,0%);fill-opacity:1;" d="M 65.34375 30.5 C 64.695312 30.5 63.535156 30.566406 63.066406 30.847656 C 64.625 26.632812 64.71875 24.222656 64.800781 20.941406 C 63.070312 20.992188 61.566406 24.222656 58.351562 24.195312 C 55.875 24.167969 54.414062 22.238281 54.414062 20.488281 C 54.4375 19.167969 55.671875 16.882812 58.363281 16.882812 C 61.765625 16.882812 62.898438 20.132812 64.800781 20.128906 C 64.8125 18.257812 61.390625 17.175781 61.371094 14.03125 C 61.371094 12.300781 62.773438 10.511719 65.347656 10.453125 C 67.921875 10.511719 69.324219 12.300781 69.324219 14.03125 C 69.304688 17.175781 65.882812 18.257812 65.894531 20.128906 C 67.796875 20.132812 68.929688 16.882812 72.332031 16.882812 C 75.023438 16.882812 76.257812 19.167969 76.28125 20.488281 C 76.28125 22.238281 74.820312 24.167969 72.34375 24.195312 C 69.128906 24.222656 67.625 20.992188 65.894531 20.941406 C 65.976562 24.222656 66.070312 26.632812 67.628906 30.847656 C 67.160156 30.566406 66 30.5 65.351562 30.5 "/>
<path style=" stroke:none;fill-rule:nonzero;fill:rgb(0%,0%,0%);fill-opacity:1;" d="M 8.8125 5.9375 C 6.679688 5.9375 4.9375 7.347656 4.9375 9.066406 C 4.9375 10.128906 5.617188 11.0625 6.628906 11.625 C 5.308594 12.238281 4.417969 13.386719 4.417969 14.703125 C 4.417969 16.664062 6.382812 18.246094 8.8125 18.246094 C 11.246094 18.246094 13.207031 16.664062 13.207031 14.703125 C 13.207031 13.386719 12.316406 12.238281 10.996094 11.625 C 12.007812 11.0625 12.6875 10.128906 12.6875 9.066406 C 12.6875 7.347656 10.949219 5.9375 8.8125 5.9375 Z M 8.8125 6.972656 C 10.242188 6.972656 11.40625 7.914062 11.40625 9.066406 C 11.40625 10.21875 10.242188 11.136719 8.8125 11.136719 C 7.382812 11.136719 6.21875 10.21875 6.21875 9.066406 C 6.21875 7.914062 7.382812 6.972656 8.8125 6.972656 Z M 8.8125 12.167969 C 10.539062 12.167969 11.953125 13.3125 11.953125 14.703125 C 11.953125 16.097656 10.539062 17.214844 8.8125 17.214844 C 7.085938 17.214844 5.671875 16.097656 5.671875 14.703125 C 5.671875 13.3125 7.085938 12.167969 8.8125 12.167969 Z M 8.8125 12.167969 "/>
<path style=" stroke:none;fill-rule:nonzero;fill:rgb(0%,0%,0%);fill-opacity:1;" d="M 81.1875 124.0625 C 83.320312 124.0625 85.0625 122.652344 85.0625 120.933594 C 85.0625 119.871094 84.382812 118.9375 83.371094 118.375 C 84.691406 117.761719 85.582031 116.613281 85.582031 115.296875 C 85.582031 113.335938 83.617188 111.753906 81.1875 111.753906 C 78.753906 111.753906 76.792969 113.335938 76.792969 115.296875 C 76.792969 116.613281 77.683594 117.761719 79.003906 118.375 C 77.992188 118.9375 77.3125 119.871094 77.3125 120.933594 C 77.3125 122.652344 79.050781 124.0625 81.1875 124.0625 Z M 81.1875 123.027344 C 79.757812 123.027344 78.59375 122.085938 78.59375 120.933594 C 78.59375 119.78125 79.757812 118.863281 81.1875 118.863281 C 82.617188 118.863281 83.78125 119.78125 83.78125 120.933594 C 83.78125 122.085938 82.617188 123.027344 81.1875 123.027344 Z M 81.1875 117.832031 C 79.460938 117.832031 78.046875 116.6875 78.046875 115.296875 C 78.046875 113.902344 79.460938 112.785156 81.1875 112.785156 C 82.914062 112.785156 84.328125 113.902344 84.328125 115.296875 C 84.328125 116.6875 82.914062 117.832031 81.1875 117.832031 Z M 81.1875 117.832031 "/>
<path style=" stroke:none;fill-rule:nonzero;fill:url(#linear0);" d="M 4.757812 0.269531 L 85.242188 0.269531 C 87.828125 0.269531 89.921875 2.253906 89.921875 4.703125 L 89.921875 125.296875 C 89.921875 127.746094 87.828125 129.730469 85.242188 129.730469 L 4.757812 129.730469 C 2.171875 129.730469 0.078125 127.746094 0.078125 125.296875 L 0.078125 4.703125 C 0.078125 2.253906 2.171875 0.269531 4.757812 0.269531 Z M 4.757812 0.269531 "/>
</g>
</svg>
