<?xml version="1.0" encoding="UTF-8"?>
<svg xmlns="http://www.w3.org/2000/svg" xmlns:xlink="http://www.w3.org/1999/xlink" width="90px" height="130px" viewBox="0 0 90 130" version="1.1">
<defs>
<linearGradient id="linear0" gradientUnits="userSpaceOnUse" x1="0" y1="0" x2="1" y2="0" gradientTransform="matrix(89.844017,0,0,129.461731,0.0779896,0.269122)">
<stop offset="0" style="stop-color:rgb(0%,0%,0%);stop-opacity:0.2;"/>
<stop offset="0.7" style="stop-color:rgb(93.333334%,93.333334%,93.333334%);stop-opacity:0.1;"/>
<stop offset="1" style="stop-color:rgb(0%,0%,0%);stop-opacity:0.2;"/>
</linearGradient>
</defs>
<g id="surface1">
<path style="fill-rule:nonzero;fill:rgb(100%,100%,100%);fill-opacity:1;stroke-width:0.1;stroke-linecap:butt;stroke-linejoin:miter;stroke:rgb(0%,0%,0%);stroke-opacity:1;stroke-miterlimit:4;" d="M 3.200287 0.200277 L 54.799714 0.200277 C 56.457588 0.200277 57.799914 1.543 57.799914 3.200258 L 57.799914 84.799757 C 57.799914 86.457015 56.457588 87.799738 54.799714 87.799738 L 3.200287 87.799738 C 1.542413 87.799738 0.200087 86.457015 0.200087 84.799757 L 0.200087 3.200258 C 0.200087 1.543 1.542413 0.200277 3.200287 0.200277 Z M 3.200287 0.200277 " transform="matrix(1.559792,0,0,1.477874,-0.233969,-0.0264528)"/>
<path style=" stroke:none;fill-rule:nonzero;fill:rgb(0%,0%,0%);fill-opacity:1;" d="M 8.839844 28.738281 C 8.578125 28.738281 8.117188 28.761719 7.929688 28.875 C 8.550781 27.1875 8.589844 26.226562 8.621094 24.914062 C 7.929688 24.933594 7.328125 26.226562 6.042969 26.214844 C 5.050781 26.203125 4.46875 25.429688 4.46875 24.730469 C 4.476562 24.203125 4.96875 23.289062 6.046875 23.289062 C 7.40625 23.289062 7.863281 24.589844 8.621094 24.585938 C 8.628906 23.839844 7.257812 23.40625 7.25 22.148438 C 7.25 21.457031 7.8125 20.742188 8.839844 20.71875 C 9.871094 20.742188 10.429688 21.457031 10.429688 22.148438 C 10.425781 23.40625 9.054688 23.839844 9.058594 24.585938 C 9.820312 24.589844 10.273438 23.289062 11.636719 23.289062 C 12.710938 23.289062 13.207031 24.203125 13.214844 24.730469 C 13.214844 25.429688 12.628906 26.203125 11.640625 26.214844 C 10.351562 26.226562 9.75 24.933594 9.058594 24.914062 C 9.09375 26.226562 9.128906 27.1875 9.753906 28.875 C 9.566406 28.761719 9.101562 28.738281 8.84375 28.738281 "/>
<path style=" stroke:none;fill-rule:nonzero;fill:rgb(0%,0%,0%);fill-opacity:1;" d="M 81.160156 101.261719 C 81.421875 101.261719 81.882812 101.238281 82.070312 101.125 C 81.449219 102.8125 81.410156 103.773438 81.378906 105.085938 C 82.070312 105.066406 82.671875 103.773438 83.957031 103.785156 C 84.949219 103.796875 85.53125 104.570312 85.53125 105.269531 C 85.523438 105.796875 85.03125 106.710938 83.953125 106.710938 C 82.59375 106.710938 82.136719 105.410156 81.378906 105.414062 C 81.371094 106.160156 82.742188 106.59375 82.75 107.851562 C 82.75 108.542969 82.1875 109.257812 81.160156 109.28125 C 80.128906 109.257812 79.570312 108.542969 79.570312 107.851562 C 79.574219 106.59375 80.945312 106.160156 80.941406 105.414062 C 80.179688 105.410156 79.726562 106.710938 78.363281 106.710938 C 77.289062 106.710938 76.792969 105.796875 76.785156 105.269531 C 76.785156 104.570312 77.371094 103.796875 78.359375 103.785156 C 79.648438 103.773438 80.25 105.066406 80.941406 105.085938 C 80.90625 103.773438 80.871094 102.8125 80.246094 101.125 C 80.433594 101.238281 80.898438 101.261719 81.15625 101.261719 "/>
<path style=" stroke:none;fill-rule:nonzero;fill:rgb(0%,0%,0%);fill-opacity:1;" d="M 24.789062 30.5 C 24.140625 30.5 22.980469 30.566406 22.511719 30.847656 C 24.070312 26.632812 24.164062 24.222656 24.246094 20.941406 C 22.515625 20.992188 21.011719 24.222656 17.796875 24.195312 C 15.320312 24.167969 13.859375 22.238281 13.859375 20.488281 C 13.882812 19.167969 15.117188 16.882812 17.808594 16.882812 C 21.210938 16.882812 22.34375 20.132812 24.246094 20.128906 C 24.257812 18.257812 20.835938 17.175781 20.816406 14.03125 C 20.816406 12.300781 22.21875 10.511719 24.792969 10.453125 C 27.367188 10.511719 28.769531 12.300781 28.769531 14.03125 C 28.75 17.175781 25.328125 18.257812 25.339844 20.128906 C 27.242188 20.132812 28.375 16.882812 31.777344 16.882812 C 34.46875 16.882812 35.703125 19.167969 35.726562 20.488281 C 35.726562 22.238281 34.265625 24.167969 31.789062 24.195312 C 28.574219 24.222656 27.070312 20.992188 25.339844 20.941406 C 25.421875 24.222656 25.515625 26.632812 27.074219 30.847656 C 26.605469 30.566406 25.445312 30.5 24.796875 30.5 "/>
<path style=" stroke:none;fill-rule:nonzero;fill:rgb(0%,0%,0%);fill-opacity:1;" d="M 24.65625 99.5 C 25.304688 99.5 26.464844 99.433594 26.933594 99.152344 C 25.375 103.367188 25.28125 105.777344 25.199219 109.058594 C 26.929688 109.007812 28.433594 105.777344 31.648438 105.804688 C 34.125 105.832031 35.585938 107.761719 35.585938 109.511719 C 35.5625 110.832031 34.328125 113.117188 31.636719 113.117188 C 28.234375 113.117188 27.101562 109.867188 25.199219 109.871094 C 25.1875 111.742188 28.609375 112.824219 28.628906 115.96875 C 28.628906 117.699219 27.226562 119.488281 24.652344 119.546875 C 22.078125 119.488281 20.675781 117.699219 20.675781 115.96875 C 20.695312 112.824219 24.117188 111.742188 24.105469 109.871094 C 22.203125 109.867188 21.070312 113.117188 17.667969 113.117188 C 14.976562 113.117188 13.742188 110.832031 13.71875 109.511719 C 13.71875 107.761719 15.179688 105.832031 17.65625 105.804688 C 20.871094 105.777344 22.375 109.007812 24.105469 109.058594 C 24.023438 105.777344 23.929688 103.367188 22.371094 99.152344 C 22.839844 99.433594 24 99.5 24.648438 99.5 "/>
<path style=" stroke:none;fill-rule:nonzero;fill:rgb(0%,0%,0%);fill-opacity:1;" d="M 65.210938 99.5 C 65.859375 99.5 67.019531 99.433594 67.488281 99.152344 C 65.929688 103.367188 65.835938 105.777344 65.753906 109.058594 C 67.484375 109.007812 68.988281 105.777344 72.203125 105.804688 C 74.679688 105.832031 76.140625 107.761719 76.140625 109.511719 C 76.117188 110.832031 74.882812 113.117188 72.191406 113.117188 C 68.789062 113.117188 67.65625 109.867188 65.753906 109.871094 C 65.742188 111.742188 69.164062 112.824219 69.183594 115.96875 C 69.183594 117.699219 67.78125 119.488281 65.207031 119.546875 C 62.632812 119.488281 61.230469 117.699219 61.230469 115.96875 C 61.25 112.824219 64.671875 111.742188 64.660156 109.871094 C 62.757812 109.867188 61.625 113.117188 58.222656 113.117188 C 55.53125 113.117188 54.296875 110.832031 54.273438 109.511719 C 54.273438 107.761719 55.734375 105.832031 58.210938 105.804688 C 61.425781 105.777344 62.929688 109.007812 64.660156 109.058594 C 64.578125 105.777344 64.484375 103.367188 62.925781 99.152344 C 63.394531 99.433594 64.554688 99.5 65.203125 99.5 "/>
<path style=" stroke:none;fill-rule:nonzero;fill:rgb(0%,0%,0%);fill-opacity:1;" d="M 65.34375 30.5 C 64.695312 30.5 63.535156 30.566406 63.066406 30.847656 C 64.625 26.632812 64.71875 24.222656 64.800781 20.941406 C 63.070312 20.992188 61.566406 24.222656 58.351562 24.195312 C 55.875 24.167969 54.414062 22.238281 54.414062 20.488281 C 54.4375 19.167969 55.671875 16.882812 58.363281 16.882812 C 61.765625 16.882812 62.898438 20.132812 64.800781 20.128906 C 64.8125 18.257812 61.390625 17.175781 61.371094 14.03125 C 61.371094 12.300781 62.773438 10.511719 65.347656 10.453125 C 67.921875 10.511719 69.324219 12.300781 69.324219 14.03125 C 69.304688 17.175781 65.882812 18.257812 65.894531 20.128906 C 67.796875 20.132812 68.929688 16.882812 72.332031 16.882812 C 75.023438 16.882812 76.257812 19.167969 76.28125 20.488281 C 76.28125 22.238281 74.820312 24.167969 72.34375 24.195312 C 69.128906 24.222656 67.625 20.992188 65.894531 20.941406 C 65.976562 24.222656 66.070312 26.632812 67.628906 30.847656 C 67.160156 30.566406 66 30.5 65.351562 30.5 "/>
<path style=" stroke:none;fill-rule:nonzero;fill:rgb(0%,0%,0%);fill-opacity:1;" d="M 9.660156 5.886719 L 9.46875 6.195312 L 4.527344 14.238281 L 4.445312 14.367188 L 4.445312 15.609375 L 10.070312 15.609375 L 10.070312 17.679688 L 11.378906 17.679688 L 11.378906 15.609375 L 12.523438 15.609375 L 12.523438 14.367188 L 11.378906 14.367188 L 11.378906 5.886719 Z M 10.070312 7.695312 L 10.070312 14.367188 L 5.972656 14.367188 Z M 10.070312 7.695312 "/>
<path style=" stroke:none;fill-rule:nonzero;fill:rgb(0%,0%,0%);fill-opacity:1;" d="M 80.339844 124.113281 L 80.53125 123.804688 L 85.472656 115.761719 L 85.554688 115.632812 L 85.554688 114.390625 L 79.929688 114.390625 L 79.929688 112.320312 L 78.621094 112.320312 L 78.621094 114.390625 L 77.476562 114.390625 L 77.476562 115.632812 L 78.621094 115.632812 L 78.621094 124.113281 Z M 79.929688 122.304688 L 79.929688 115.632812 L 84.027344 115.632812 Z M 79.929688 122.304688 "/>
<path style=" stroke:none;fill-rule:nonzero;fill:url(#linear0);" d="M 4.757812 0.269531 L 85.242188 0.269531 C 87.828125 0.269531 89.921875 2.253906 89.921875 4.703125 L 89.921875 125.296875 C 89.921875 127.746094 87.828125 129.730469 85.242188 129.730469 L 4.757812 129.730469 C 2.171875 129.730469 0.078125 127.746094 0.078125 125.296875 L 0.078125 4.703125 C 0.078125 2.253906 2.171875 0.269531 4.757812 0.269531 Z M 4.757812 0.269531 "/>
</g>
</svg>
