<?xml version="1.0" encoding="UTF-8"?>
<svg xmlns="http://www.w3.org/2000/svg" xmlns:xlink="http://www.w3.org/1999/xlink" width="90px" height="130px" viewBox="0 0 90 130" version="1.1">
<defs>
<linearGradient id="linear0" gradientUnits="userSpaceOnUse" x1="0" y1="0" x2="1" y2="0" gradientTransform="matrix(89.844017,0,0,129.461731,0.0779896,0.269122)">
<stop offset="0" style="stop-color:rgb(0%,0%,0%);stop-opacity:0.2;"/>
<stop offset="0.7" style="stop-color:rgb(93.333334%,93.333334%,93.333334%);stop-opacity:0.1;"/>
<stop offset="1" style="stop-color:rgb(0%,0%,0%);stop-opacity:0.2;"/>
</linearGradient>
</defs>
<g id="surface1">
<path style="fill-rule:nonzero;fill:rgb(100%,100%,100%);fill-opacity:1;stroke-width:0.1;stroke-linecap:butt;stroke-linejoin:miter;stroke:rgb(0%,0%,0%);stroke-opacity:1;stroke-miterlimit:4;" d="M 3.200287 0.200277 L 54.799714 0.200277 C 56.457588 0.200277 57.799914 1.543 57.799914 3.200258 L 57.799914 84.799757 C 57.799914 86.457015 56.457588 87.799738 54.799714 87.799738 L 3.200287 87.799738 C 1.542413 87.799738 0.200087 86.457015 0.200087 84.799757 L 0.200087 3.200258 C 0.200087 1.543 1.542413 0.200277 3.200287 0.200277 Z M 3.200287 0.200277 " transform="matrix(1.559792,0,0,1.477874,-0.233969,-0.0264528)"/>
<path style=" stroke:none;fill-rule:nonzero;fill:rgb(0%,0%,0%);fill-opacity:1;" d="M 8.839844 28.738281 C 8.578125 28.738281 8.117188 28.761719 7.929688 28.875 C 8.550781 27.1875 8.589844 26.226562 8.621094 24.914062 C 7.929688 24.933594 7.328125 26.226562 6.042969 26.214844 C 5.050781 26.203125 4.46875 25.429688 4.46875 24.730469 C 4.476562 24.203125 4.96875 23.289062 6.046875 23.289062 C 7.40625 23.289062 7.863281 24.589844 8.621094 24.585938 C 8.628906 23.839844 7.257812 23.40625 7.25 22.148438 C 7.25 21.457031 7.8125 20.742188 8.839844 20.71875 C 9.871094 20.742188 10.429688 21.457031 10.429688 22.148438 C 10.425781 23.40625 9.054688 23.839844 9.058594 24.585938 C 9.820312 24.589844 10.273438 23.289062 11.636719 23.289062 C 12.710938 23.289062 13.207031 24.203125 13.214844 24.730469 C 13.214844 25.429688 12.628906 26.203125 11.640625 26.214844 C 10.351562 26.226562 9.75 24.933594 9.058594 24.914062 C 9.09375 26.226562 9.128906 27.1875 9.753906 28.875 C 9.566406 28.761719 9.101562 28.738281 8.84375 28.738281 "/>
<path style=" stroke:none;fill-rule:nonzero;fill:rgb(0%,0%,0%);fill-opacity:1;" d="M 81.160156 101.261719 C 81.421875 101.261719 81.882812 101.238281 82.070312 101.125 C 81.449219 102.8125 81.410156 103.773438 81.378906 105.085938 C 82.070312 105.066406 82.671875 103.773438 83.957031 103.785156 C 84.949219 103.796875 85.53125 104.570312 85.53125 105.269531 C 85.523438 105.796875 85.03125 106.710938 83.953125 106.710938 C 82.59375 106.710938 82.136719 105.410156 81.378906 105.414062 C 81.371094 106.160156 82.742188 106.59375 82.75 107.851562 C 82.75 108.542969 82.1875 109.257812 81.160156 109.28125 C 80.128906 109.257812 79.570312 108.542969 79.570312 107.851562 C 79.574219 106.59375 80.945312 106.160156 80.941406 105.414062 C 80.179688 105.410156 79.726562 106.710938 78.363281 106.710938 C 77.289062 106.710938 76.792969 105.796875 76.785156 105.269531 C 76.785156 104.570312 77.371094 103.796875 78.359375 103.785156 C 79.648438 103.773438 80.25 105.066406 80.941406 105.085938 C 80.90625 103.773438 80.871094 102.8125 80.246094 101.125 C 80.433594 101.238281 80.898438 101.261719 81.15625 101.261719 "/>
<path style=" stroke:none;fill-rule:nonzero;fill:rgb(0%,0%,0%);fill-opacity:1;" d="M 24.789062 30.5 C 24.140625 30.5 22.980469 30.566406 22.511719 30.847656 C 24.070312 26.632812 24.164062 24.222656 24.246094 20.941406 C 22.515625 20.992188 21.011719 24.222656 17.796875 24.195312 C 15.320312 24.167969 13.859375 22.238281 13.859375 20.488281 C 13.882812 19.167969 15.117188 16.882812 17.808594 16.882812 C 21.210938 16.882812 22.34375 20.132812 24.246094 20.128906 C 24.257812 18.257812 20.835938 17.175781 20.816406 14.03125 C 20.816406 12.300781 22.21875 10.511719 24.792969 10.453125 C 27.367188 10.511719 28.769531 12.300781 28.769531 14.03125 C 28.75 17.175781 25.328125 18.257812 25.339844 20.128906 C 27.242188 20.132812 28.375 16.882812 31.777344 16.882812 C 34.46875 16.882812 35.703125 19.167969 35.726562 20.488281 C 35.726562 22.238281 34.265625 24.167969 31.789062 24.195312 C 28.574219 24.222656 27.070312 20.992188 25.339844 20.941406 C 25.421875 24.222656 25.515625 26.632812 27.074219 30.847656 C 26.605469 30.566406 25.445312 30.5 24.796875 30.5 "/>
<path style=" stroke:none;fill-rule:nonzero;fill:rgb(0%,0%,0%);fill-opacity:1;" d="M 24.65625 99.5 C 25.304688 99.5 26.464844 99.433594 26.933594 99.152344 C 25.375 103.367188 25.28125 105.777344 25.199219 109.058594 C 26.929688 109.007812 28.433594 105.777344 31.648438 105.804688 C 34.125 105.832031 35.585938 107.761719 35.585938 109.511719 C 35.5625 110.832031 34.328125 113.117188 31.636719 113.117188 C 28.234375 113.117188 27.101562 109.867188 25.199219 109.871094 C 25.1875 111.742188 28.609375 112.824219 28.628906 115.96875 C 28.628906 117.699219 27.226562 119.488281 24.652344 119.546875 C 22.078125 119.488281 20.675781 117.699219 20.675781 115.96875 C 20.695312 112.824219 24.117188 111.742188 24.105469 109.871094 C 22.203125 109.867188 21.070312 113.117188 17.667969 113.117188 C 14.976562 113.117188 13.742188 110.832031 13.71875 109.511719 C 13.71875 107.761719 15.179688 105.832031 17.65625 105.804688 C 20.871094 105.777344 22.375 109.007812 24.105469 109.058594 C 24.023438 105.777344 23.929688 103.367188 22.371094 99.152344 C 22.839844 99.433594 24 99.5 24.648438 99.5 "/>
<path style=" stroke:none;fill-rule:nonzero;fill:rgb(0%,0%,0%);fill-opacity:1;" d="M 24.789062 60.058594 C 24.140625 60.058594 22.980469 60.125 22.511719 60.402344 C 24.070312 56.191406 24.164062 53.78125 24.246094 50.496094 C 22.515625 50.550781 21.011719 53.78125 17.796875 53.753906 C 15.320312 53.726562 13.859375 51.792969 13.859375 50.046875 C 13.882812 48.726562 15.117188 46.441406 17.808594 46.441406 C 21.210938 46.441406 22.34375 49.691406 24.246094 49.683594 C 24.257812 47.816406 20.835938 46.730469 20.816406 43.589844 C 20.816406 41.855469 22.21875 40.070312 24.792969 40.011719 C 27.367188 40.070312 28.769531 41.855469 28.769531 43.589844 C 28.75 46.730469 25.328125 47.816406 25.339844 49.683594 C 27.242188 49.691406 28.375 46.441406 31.777344 46.441406 C 34.46875 46.441406 35.703125 48.726562 35.726562 50.046875 C 35.726562 51.792969 34.265625 53.726562 31.789062 53.753906 C 28.574219 53.78125 27.070312 50.550781 25.339844 50.496094 C 25.421875 53.78125 25.515625 56.191406 27.074219 60.402344 C 26.605469 60.125 25.445312 60.058594 24.796875 60.058594 "/>
<path style=" stroke:none;fill-rule:nonzero;fill:rgb(0%,0%,0%);fill-opacity:1;" d="M 24.65625 69.941406 C 25.304688 69.941406 26.464844 69.875 26.933594 69.597656 C 25.375 73.808594 25.28125 76.21875 25.199219 79.503906 C 26.929688 79.449219 28.433594 76.21875 31.648438 76.246094 C 34.125 76.273438 35.585938 78.207031 35.585938 79.953125 C 35.5625 81.273438 34.328125 83.558594 31.636719 83.558594 C 28.234375 83.558594 27.101562 80.308594 25.199219 80.316406 C 25.1875 82.183594 28.609375 83.269531 28.628906 86.410156 C 28.628906 88.144531 27.226562 89.929688 24.652344 89.988281 C 22.078125 89.929688 20.675781 88.144531 20.675781 86.410156 C 20.695312 83.269531 24.117188 82.183594 24.105469 80.316406 C 22.203125 80.308594 21.070312 83.558594 17.667969 83.558594 C 14.976562 83.558594 13.742188 81.273438 13.71875 79.953125 C 13.71875 78.207031 15.179688 76.273438 17.65625 76.246094 C 20.871094 76.21875 22.375 79.449219 24.105469 79.503906 C 24.023438 76.21875 23.929688 73.808594 22.371094 69.597656 C 22.839844 69.875 24 69.941406 24.648438 69.941406 "/>
<path style=" stroke:none;fill-rule:nonzero;fill:rgb(0%,0%,0%);fill-opacity:1;" d="M 45.066406 45.28125 C 44.417969 45.28125 43.257812 45.34375 42.789062 45.625 C 44.347656 41.410156 44.441406 39 44.523438 35.71875 C 42.792969 35.773438 41.289062 39.003906 38.074219 38.972656 C 35.597656 38.945312 34.136719 37.015625 34.136719 35.265625 C 34.160156 33.949219 35.394531 31.660156 38.085938 31.660156 C 41.488281 31.664062 42.621094 34.910156 44.523438 34.90625 C 44.535156 33.035156 41.113281 31.953125 41.09375 28.808594 C 41.09375 27.078125 42.496094 25.292969 45.070312 25.230469 C 47.644531 25.292969 49.046875 27.078125 49.046875 28.808594 C 49.027344 31.953125 45.605469 33.035156 45.617188 34.90625 C 47.519531 34.910156 48.652344 31.664062 52.054688 31.660156 C 54.746094 31.660156 55.980469 33.949219 56.003906 35.265625 C 56.003906 37.015625 54.542969 38.945312 52.066406 38.972656 C 48.851562 39.003906 47.347656 35.773438 45.617188 35.71875 C 45.699219 39 45.792969 41.410156 47.351562 45.625 C 46.882812 45.34375 45.722656 45.28125 45.074219 45.28125 "/>
<path style=" stroke:none;fill-rule:nonzero;fill:rgb(0%,0%,0%);fill-opacity:1;" d="M 44.933594 84.71875 C 45.582031 84.71875 46.742188 84.65625 47.210938 84.375 C 45.652344 88.589844 45.558594 91 45.476562 94.28125 C 47.207031 94.226562 48.710938 90.996094 51.925781 91.027344 C 54.402344 91.054688 55.863281 92.984375 55.863281 94.734375 C 55.839844 96.050781 54.605469 98.339844 51.914062 98.339844 C 48.511719 98.335938 47.378906 95.089844 45.476562 95.09375 C 45.464844 96.964844 48.886719 98.046875 48.90625 101.191406 C 48.90625 102.921875 47.503906 104.707031 44.929688 104.769531 C 42.355469 104.707031 40.953125 102.921875 40.953125 101.191406 C 40.972656 98.046875 44.394531 96.964844 44.382812 95.09375 C 42.480469 95.089844 41.347656 98.335938 37.945312 98.339844 C 35.253906 98.339844 34.019531 96.050781 33.996094 94.734375 C 33.996094 92.984375 35.457031 91.054688 37.933594 91.027344 C 41.148438 90.996094 42.652344 94.226562 44.382812 94.28125 C 44.300781 91 44.207031 88.589844 42.648438 84.375 C 43.117188 84.65625 44.277344 84.71875 44.925781 84.71875 "/>
<path style=" stroke:none;fill-rule:nonzero;fill:rgb(0%,0%,0%);fill-opacity:1;" d="M 65.210938 99.5 C 65.859375 99.5 67.019531 99.433594 67.488281 99.152344 C 65.929688 103.367188 65.835938 105.777344 65.753906 109.058594 C 67.484375 109.007812 68.988281 105.777344 72.203125 105.804688 C 74.679688 105.832031 76.140625 107.761719 76.140625 109.511719 C 76.117188 110.832031 74.882812 113.117188 72.191406 113.117188 C 68.789062 113.117188 67.65625 109.867188 65.753906 109.871094 C 65.742188 111.742188 69.164062 112.824219 69.183594 115.96875 C 69.183594 117.699219 67.78125 119.488281 65.207031 119.546875 C 62.632812 119.488281 61.230469 117.699219 61.230469 115.96875 C 61.25 112.824219 64.671875 111.742188 64.660156 109.871094 C 62.757812 109.867188 61.625 113.117188 58.222656 113.117188 C 55.53125 113.117188 54.296875 110.832031 54.273438 109.511719 C 54.273438 107.761719 55.734375 105.832031 58.210938 105.804688 C 61.425781 105.777344 62.929688 109.007812 64.660156 109.058594 C 64.578125 105.777344 64.484375 103.367188 62.925781 99.152344 C 63.394531 99.433594 64.554688 99.5 65.203125 99.5 "/>
<path style=" stroke:none;fill-rule:nonzero;fill:rgb(0%,0%,0%);fill-opacity:1;" d="M 65.34375 30.5 C 64.695312 30.5 63.535156 30.566406 63.066406 30.847656 C 64.625 26.632812 64.71875 24.222656 64.800781 20.941406 C 63.070312 20.992188 61.566406 24.222656 58.351562 24.195312 C 55.875 24.167969 54.414062 22.238281 54.414062 20.488281 C 54.4375 19.167969 55.671875 16.882812 58.363281 16.882812 C 61.765625 16.882812 62.898438 20.132812 64.800781 20.128906 C 64.8125 18.257812 61.390625 17.175781 61.371094 14.03125 C 61.371094 12.300781 62.773438 10.511719 65.347656 10.453125 C 67.921875 10.511719 69.324219 12.300781 69.324219 14.03125 C 69.304688 17.175781 65.882812 18.257812 65.894531 20.128906 C 67.796875 20.132812 68.929688 16.882812 72.332031 16.882812 C 75.023438 16.882812 76.257812 19.167969 76.28125 20.488281 C 76.28125 22.238281 74.820312 24.167969 72.34375 24.195312 C 69.128906 24.222656 67.625 20.992188 65.894531 20.941406 C 65.976562 24.222656 66.070312 26.632812 67.628906 30.847656 C 67.160156 30.566406 66 30.5 65.351562 30.5 "/>
<path style=" stroke:none;fill-rule:nonzero;fill:rgb(0%,0%,0%);fill-opacity:1;" d="M 65.210938 69.941406 C 65.859375 69.941406 67.019531 69.875 67.488281 69.597656 C 65.929688 73.808594 65.835938 76.21875 65.753906 79.503906 C 67.484375 79.449219 68.988281 76.21875 72.203125 76.246094 C 74.679688 76.273438 76.140625 78.207031 76.140625 79.953125 C 76.117188 81.273438 74.882812 83.558594 72.191406 83.558594 C 68.789062 83.558594 67.65625 80.308594 65.753906 80.316406 C 65.742188 82.183594 69.164062 83.269531 69.183594 86.410156 C 69.183594 88.144531 67.78125 89.929688 65.207031 89.988281 C 62.632812 89.929688 61.230469 88.144531 61.230469 86.410156 C 61.25 83.269531 64.671875 82.183594 64.660156 80.316406 C 62.757812 80.308594 61.625 83.558594 58.222656 83.558594 C 55.53125 83.558594 54.296875 81.273438 54.273438 79.953125 C 54.273438 78.207031 55.734375 76.273438 58.210938 76.246094 C 61.425781 76.21875 62.929688 79.449219 64.660156 79.503906 C 64.578125 76.21875 64.484375 73.808594 62.925781 69.597656 C 63.394531 69.875 64.554688 69.941406 65.203125 69.941406 "/>
<path style=" stroke:none;fill-rule:nonzero;fill:rgb(0%,0%,0%);fill-opacity:1;" d="M 65.34375 60.058594 C 64.695312 60.058594 63.535156 60.125 63.066406 60.402344 C 64.625 56.191406 64.71875 53.78125 64.800781 50.496094 C 63.070312 50.550781 61.566406 53.78125 58.351562 53.753906 C 55.875 53.726562 54.414062 51.792969 54.414062 50.046875 C 54.4375 48.726562 55.671875 46.441406 58.363281 46.441406 C 61.765625 46.441406 62.898438 49.691406 64.800781 49.683594 C 64.8125 47.816406 61.390625 46.730469 61.371094 43.589844 C 61.371094 41.855469 62.773438 40.070312 65.347656 40.011719 C 67.921875 40.070312 69.324219 41.855469 69.324219 43.589844 C 69.304688 46.730469 65.882812 47.816406 65.894531 49.683594 C 67.796875 49.691406 68.929688 46.441406 72.332031 46.441406 C 75.023438 46.441406 76.257812 48.726562 76.28125 50.046875 C 76.28125 51.792969 74.820312 53.726562 72.34375 53.753906 C 69.128906 53.78125 67.625 50.550781 65.894531 50.496094 C 65.976562 53.78125 66.070312 56.191406 67.628906 60.402344 C 67.160156 60.125 66 60.058594 65.351562 60.058594 "/>
<path style=" stroke:none;fill-rule:nonzero;fill:rgb(0%,0%,0%);fill-opacity:1;" d="M 10.0625 6.378906 C 8.667969 6.378906 7.488281 7.445312 7.488281 8.761719 L 7.488281 15.652344 C 7.488281 16.96875 8.667969 18.039062 10.0625 18.039062 C 11.453125 18.039062 12.578125 16.96875 12.578125 15.652344 L 12.578125 8.761719 C 12.578125 7.445312 11.453125 6.378906 10.0625 6.378906 Z M 4.914062 6.535156 L 4.914062 17.878906 L 6.089844 17.878906 L 6.089844 6.535156 Z M 10.0625 7.542969 C 10.820312 7.542969 11.402344 8.078125 11.402344 8.761719 L 11.402344 15.652344 C 11.402344 16.335938 10.820312 16.871094 10.0625 16.871094 C 9.304688 16.871094 8.71875 16.335938 8.71875 15.652344 L 8.71875 8.761719 C 8.71875 8.078125 9.304688 7.542969 10.0625 7.542969 Z M 10.0625 7.542969 "/>
<path style=" stroke:none;fill-rule:nonzero;fill:rgb(0%,0%,0%);fill-opacity:1;" d="M 79.9375 123.621094 C 81.332031 123.621094 82.511719 122.554688 82.511719 121.238281 L 82.511719 114.347656 C 82.511719 113.03125 81.332031 111.960938 79.9375 111.960938 C 78.546875 111.960938 77.421875 113.03125 77.421875 114.347656 L 77.421875 121.238281 C 77.421875 122.554688 78.546875 123.621094 79.9375 123.621094 Z M 85.085938 123.464844 L 85.085938 112.121094 L 83.910156 112.121094 L 83.910156 123.464844 Z M 79.9375 122.457031 C 79.179688 122.457031 78.597656 121.921875 78.597656 121.238281 L 78.597656 114.347656 C 78.597656 113.664062 79.179688 113.128906 79.9375 113.128906 C 80.695312 113.128906 81.28125 113.664062 81.28125 114.347656 L 81.28125 121.238281 C 81.28125 121.921875 80.695312 122.457031 79.9375 122.457031 Z M 79.9375 122.457031 "/>
<path style=" stroke:none;fill-rule:nonzero;fill:url(#linear0);" d="M 4.757812 0.269531 L 85.242188 0.269531 C 87.828125 0.269531 89.921875 2.253906 89.921875 4.703125 L 89.921875 125.296875 C 89.921875 127.746094 87.828125 129.730469 85.242188 129.730469 L 4.757812 129.730469 C 2.171875 129.730469 0.078125 127.746094 0.078125 125.296875 L 0.078125 4.703125 C 0.078125 2.253906 2.171875 0.269531 4.757812 0.269531 Z M 4.757812 0.269531 "/>
</g>
</svg>
