<?xml version="1.0" encoding="UTF-8"?>
<svg xmlns="http://www.w3.org/2000/svg" xmlns:xlink="http://www.w3.org/1999/xlink" width="90px" height="130px" viewBox="0 0 90 130" version="1.1">
<defs>
<linearGradient id="linear0" gradientUnits="userSpaceOnUse" x1="0" y1="0" x2="1" y2="0" gradientTransform="matrix(89.844017,0,0,129.461731,0.0779896,0.269122)">
<stop offset="0" style="stop-color:rgb(0%,0%,0%);stop-opacity:0.2;"/>
<stop offset="0.7" style="stop-color:rgb(93.333334%,93.333334%,93.333334%);stop-opacity:0.1;"/>
<stop offset="1" style="stop-color:rgb(0%,0%,0%);stop-opacity:0.2;"/>
</linearGradient>
</defs>
<g id="surface1">
<path style="fill-rule:nonzero;fill:rgb(100%,100%,100%);fill-opacity:1;stroke-width:0.1;stroke-linecap:butt;stroke-linejoin:miter;stroke:rgb(0%,0%,0%);stroke-opacity:1;stroke-miterlimit:4;" d="M 3.200287 0.200277 L 54.799714 0.200277 C 56.457588 0.200277 57.799914 1.543 57.799914 3.200258 L 57.799914 84.799757 C 57.799914 86.457015 56.457588 87.799738 54.799714 87.799738 L 3.200287 87.799738 C 1.542413 87.799738 0.200087 86.457015 0.200087 84.799757 L 0.200087 3.200258 C 0.200087 1.543 1.542413 0.200277 3.200287 0.200277 Z M 3.200287 0.200277 " transform="matrix(1.559792,0,0,1.477874,-0.233969,-0.0264528)"/>
<path style=" stroke:none;fill-rule:nonzero;fill:rgb(100%,0%,0%);fill-opacity:1;" d="M 13.125 24.84375 C 11.050781 24.292969 9.414062 22.773438 8.8125 20.808594 C 8.210938 22.773438 6.574219 24.292969 4.5 24.84375 C 6.574219 25.390625 8.210938 26.910156 8.8125 28.875 C 9.414062 26.910156 11.050781 25.390625 13.125 24.84375 Z M 13.125 24.84375 "/>
<path style=" stroke:none;fill-rule:nonzero;fill:rgb(100%,0%,0%);fill-opacity:1;" d="M 76.875 105.15625 C 78.949219 105.707031 80.585938 107.226562 81.1875 109.191406 C 81.789062 107.226562 83.425781 105.707031 85.5 105.15625 C 83.425781 104.609375 81.789062 103.089844 81.1875 101.125 C 80.585938 103.089844 78.949219 104.609375 76.875 105.15625 Z M 76.875 105.15625 "/>
<path style=" stroke:none;fill-rule:nonzero;fill:rgb(100%,0%,0%);fill-opacity:1;" d="M 35.503906 65.101562 C 30.316406 63.730469 26.222656 59.929688 24.71875 55.015625 C 23.21875 59.929688 19.125 63.730469 13.9375 65.101562 C 19.125 66.472656 23.21875 70.273438 24.71875 75.1875 C 26.222656 70.273438 30.316406 66.472656 35.503906 65.101562 Z M 35.503906 65.101562 "/>
<path style=" stroke:none;fill-rule:nonzero;fill:rgb(100%,0%,0%);fill-opacity:1;" d="M 35.503906 20.765625 C 30.316406 19.394531 26.222656 15.59375 24.71875 10.679688 C 23.21875 15.59375 19.125 19.394531 13.9375 20.765625 C 19.125 22.136719 23.21875 25.9375 24.71875 30.851562 C 26.222656 25.9375 30.316406 22.136719 35.503906 20.765625 Z M 35.503906 20.765625 "/>
<path style=" stroke:none;fill-rule:nonzero;fill:rgb(100%,0%,0%);fill-opacity:1;" d="M 13.941406 109.234375 C 19.128906 110.605469 23.222656 114.40625 24.726562 119.320312 C 26.226562 114.40625 30.320312 110.605469 35.507812 109.234375 C 30.320312 107.863281 26.226562 104.0625 24.726562 99.148438 C 23.222656 104.0625 19.128906 107.863281 13.941406 109.234375 Z M 13.941406 109.234375 "/>
<path style=" stroke:none;fill-rule:nonzero;fill:rgb(100%,0%,0%);fill-opacity:1;" d="M 54.496094 64.898438 C 59.683594 66.269531 63.777344 70.070312 65.28125 74.984375 C 66.78125 70.070312 70.875 66.269531 76.0625 64.898438 C 70.875 63.527344 66.78125 59.726562 65.28125 54.8125 C 63.777344 59.726562 59.683594 63.527344 54.496094 64.898438 Z M 54.496094 64.898438 "/>
<path style=" stroke:none;fill-rule:nonzero;fill:rgb(100%,0%,0%);fill-opacity:1;" d="M 54.496094 109.234375 C 59.683594 110.605469 63.777344 114.40625 65.28125 119.320312 C 66.78125 114.40625 70.875 110.605469 76.0625 109.234375 C 70.875 107.863281 66.78125 104.0625 65.28125 99.148438 C 63.777344 104.0625 59.683594 107.863281 54.496094 109.234375 Z M 54.496094 109.234375 "/>
<path style=" stroke:none;fill-rule:nonzero;fill:rgb(100%,0%,0%);fill-opacity:1;" d="M 76.058594 20.765625 C 70.871094 19.394531 66.777344 15.59375 65.273438 10.679688 C 63.773438 15.59375 59.679688 19.394531 54.492188 20.765625 C 59.679688 22.136719 63.773438 25.9375 65.273438 30.851562 C 66.777344 25.9375 70.871094 22.136719 76.058594 20.765625 Z M 76.058594 20.765625 "/>
<path style=" stroke:none;fill-rule:nonzero;fill:rgb(100%,0%,0%);fill-opacity:1;" d="M 8.648438 5.886719 C 6.554688 5.886719 5.359375 6.792969 4.855469 7.722656 C 4.367188 8.625 4.441406 9.484375 4.445312 9.53125 C 4.441406 11.238281 4.464844 12.949219 4.417969 14.652344 C 4.417969 16.640625 6.335938 18.273438 8.675781 18.273438 C 11.019531 18.273438 12.933594 16.640625 12.933594 14.652344 C 12.933594 12.667969 11.019531 11.03125 8.675781 11.03125 C 7.542969 11.03125 6.519531 11.421875 5.753906 12.039062 L 5.726562 9.480469 C 5.726562 9.480469 5.683594 8.875 6 8.289062 C 6.316406 7.703125 6.917969 7.101562 8.648438 7.101562 C 9.152344 7.101562 9.84375 7.230469 10.367188 7.488281 C 10.890625 7.746094 11.234375 8.070312 11.324219 8.679688 L 12.605469 8.523438 C 12.453125 7.496094 11.75 6.785156 10.96875 6.402344 C 10.191406 6.019531 9.332031 5.886719 8.648438 5.886719 Z M 8.675781 12.222656 C 10.277344 12.222656 11.542969 13.292969 11.542969 14.652344 C 11.542969 16.011719 10.277344 17.109375 8.675781 17.109375 C 7.074219 17.109375 5.78125 16.011719 5.78125 14.652344 C 5.78125 13.292969 7.074219 12.222656 8.675781 12.222656 Z M 8.675781 12.222656 "/>
<path style=" stroke:none;fill-rule:nonzero;fill:rgb(100%,0%,0%);fill-opacity:1;" d="M 81.351562 124.113281 C 83.445312 124.113281 84.640625 123.207031 85.144531 122.277344 C 85.632812 121.375 85.558594 120.515625 85.554688 120.46875 C 85.558594 118.761719 85.535156 117.050781 85.582031 115.347656 C 85.582031 113.359375 83.664062 111.726562 81.324219 111.726562 C 78.980469 111.726562 77.066406 113.359375 77.066406 115.347656 C 77.066406 117.332031 78.980469 118.96875 81.324219 118.96875 C 82.457031 118.96875 83.480469 118.578125 84.246094 117.960938 L 84.273438 120.519531 C 84.273438 120.519531 84.316406 121.125 84 121.710938 C 83.683594 122.296875 83.082031 122.898438 81.351562 122.898438 C 80.847656 122.898438 80.15625 122.769531 79.632812 122.511719 C 79.109375 122.253906 78.765625 121.929688 78.675781 121.320312 L 77.394531 121.476562 C 77.546875 122.503906 78.25 123.214844 79.03125 123.597656 C 79.808594 123.980469 80.667969 124.113281 81.351562 124.113281 Z M 81.324219 117.777344 C 79.722656 117.777344 78.457031 116.707031 78.457031 115.347656 C 78.457031 113.988281 79.722656 112.890625 81.324219 112.890625 C 82.925781 112.890625 84.21875 113.988281 84.21875 115.347656 C 84.21875 116.707031 82.925781 117.777344 81.324219 117.777344 Z M 81.324219 117.777344 "/>
<path style=" stroke:none;fill-rule:nonzero;fill:url(#linear0);" d="M 4.757812 0.269531 L 85.242188 0.269531 C 87.828125 0.269531 89.921875 2.253906 89.921875 4.703125 L 89.921875 125.296875 C 89.921875 127.746094 87.828125 129.730469 85.242188 129.730469 L 4.757812 129.730469 C 2.171875 129.730469 0.078125 127.746094 0.078125 125.296875 L 0.078125 4.703125 C 0.078125 2.253906 2.171875 0.269531 4.757812 0.269531 Z M 4.757812 0.269531 "/>
</g>
</svg>
