<?xml version="1.0" encoding="UTF-8"?>
<svg xmlns="http://www.w3.org/2000/svg" xmlns:xlink="http://www.w3.org/1999/xlink" width="90px" height="130px" viewBox="0 0 90 130" version="1.1">
<defs>
<linearGradient id="linear0" gradientUnits="userSpaceOnUse" x1="0" y1="0" x2="1" y2="0" gradientTransform="matrix(89.844017,0,0,129.461731,0.0779896,0.269122)">
<stop offset="0" style="stop-color:rgb(0%,0%,0%);stop-opacity:0.2;"/>
<stop offset="0.7" style="stop-color:rgb(93.333334%,93.333334%,93.333334%);stop-opacity:0.1;"/>
<stop offset="1" style="stop-color:rgb(0%,0%,0%);stop-opacity:0.2;"/>
</linearGradient>
</defs>
<g id="surface1">
<path style="fill-rule:nonzero;fill:rgb(100%,100%,100%);fill-opacity:1;stroke-width:0.1;stroke-linecap:butt;stroke-linejoin:miter;stroke:rgb(0%,0%,0%);stroke-opacity:1;stroke-miterlimit:4;" d="M 3.200287 0.200277 L 54.799714 0.200277 C 56.457588 0.200277 57.799914 1.543 57.799914 3.200258 L 57.799914 84.799757 C 57.799914 86.457015 56.457588 87.799738 54.799714 87.799738 L 3.200287 87.799738 C 1.542413 87.799738 0.200087 86.457015 0.200087 84.799757 L 0.200087 3.200258 C 0.200087 1.543 1.542413 0.200277 3.200287 0.200277 Z M 3.200287 0.200277 " transform="matrix(1.559792,0,0,1.477874,-0.233969,-0.0264528)"/>
<path style=" stroke:none;fill-rule:nonzero;fill:rgb(100%,0%,0%);fill-opacity:1;" d="M 13.125 24.84375 C 11.050781 24.292969 9.414062 22.773438 8.8125 20.808594 C 8.210938 22.773438 6.574219 24.292969 4.5 24.84375 C 6.574219 25.390625 8.210938 26.910156 8.8125 28.875 C 9.414062 26.910156 11.050781 25.390625 13.125 24.84375 Z M 13.125 24.84375 "/>
<path style=" stroke:none;fill-rule:nonzero;fill:rgb(100%,0%,0%);fill-opacity:1;" d="M 76.875 105.15625 C 78.949219 105.707031 80.585938 107.226562 81.1875 109.191406 C 81.789062 107.226562 83.425781 105.707031 85.5 105.15625 C 83.425781 104.609375 81.789062 103.089844 81.1875 101.125 C 80.585938 103.089844 78.949219 104.609375 76.875 105.15625 Z M 76.875 105.15625 "/>
<path style=" stroke:none;fill-rule:nonzero;fill:rgb(100%,0%,0%);fill-opacity:1;" d="M 35.503906 20.765625 C 30.316406 19.394531 26.222656 15.59375 24.71875 10.679688 C 23.21875 15.59375 19.125 19.394531 13.9375 20.765625 C 19.125 22.136719 23.21875 25.9375 24.71875 30.851562 C 26.222656 25.9375 30.316406 22.136719 35.503906 20.765625 Z M 35.503906 20.765625 "/>
<path style=" stroke:none;fill-rule:nonzero;fill:rgb(100%,0%,0%);fill-opacity:1;" d="M 13.941406 109.234375 C 19.128906 110.605469 23.222656 114.40625 24.726562 119.320312 C 26.226562 114.40625 30.320312 110.605469 35.507812 109.234375 C 30.320312 107.863281 26.226562 104.0625 24.726562 99.148438 C 23.222656 104.0625 19.128906 107.863281 13.941406 109.234375 Z M 13.941406 109.234375 "/>
<path style=" stroke:none;fill-rule:nonzero;fill:rgb(100%,0%,0%);fill-opacity:1;" d="M 35.503906 50.324219 C 30.316406 48.953125 26.222656 45.148438 24.71875 40.234375 C 23.21875 45.148438 19.125 48.953125 13.9375 50.324219 C 19.125 51.691406 23.21875 55.496094 24.71875 60.410156 C 26.222656 55.496094 30.316406 51.691406 35.503906 50.324219 Z M 35.503906 50.324219 "/>
<path style=" stroke:none;fill-rule:nonzero;fill:rgb(100%,0%,0%);fill-opacity:1;" d="M 13.941406 79.675781 C 19.128906 81.046875 23.222656 84.851562 24.726562 89.765625 C 26.226562 84.851562 30.320312 81.046875 35.507812 79.675781 C 30.320312 78.308594 26.226562 74.503906 24.726562 69.589844 C 23.222656 74.503906 19.128906 78.308594 13.941406 79.675781 Z M 13.941406 79.675781 "/>
<path style=" stroke:none;fill-rule:nonzero;fill:rgb(100%,0%,0%);fill-opacity:1;" d="M 55.78125 65.101562 C 50.59375 63.730469 46.5 59.929688 44.996094 55.015625 C 43.496094 59.929688 39.402344 63.730469 34.214844 65.101562 C 39.402344 66.472656 43.496094 70.273438 44.996094 75.1875 C 46.5 70.273438 50.59375 66.472656 55.78125 65.101562 Z M 55.78125 65.101562 "/>
<path style=" stroke:none;fill-rule:nonzero;fill:rgb(100%,0%,0%);fill-opacity:1;" d="M 54.496094 109.234375 C 59.683594 110.605469 63.777344 114.40625 65.28125 119.320312 C 66.78125 114.40625 70.875 110.605469 76.0625 109.234375 C 70.875 107.863281 66.78125 104.0625 65.28125 99.148438 C 63.777344 104.0625 59.683594 107.863281 54.496094 109.234375 Z M 54.496094 109.234375 "/>
<path style=" stroke:none;fill-rule:nonzero;fill:rgb(100%,0%,0%);fill-opacity:1;" d="M 76.058594 20.765625 C 70.871094 19.394531 66.777344 15.59375 65.273438 10.679688 C 63.773438 15.59375 59.679688 19.394531 54.492188 20.765625 C 59.679688 22.136719 63.773438 25.9375 65.273438 30.851562 C 66.777344 25.9375 70.871094 22.136719 76.058594 20.765625 Z M 76.058594 20.765625 "/>
<path style=" stroke:none;fill-rule:nonzero;fill:rgb(100%,0%,0%);fill-opacity:1;" d="M 54.496094 79.675781 C 59.683594 81.046875 63.777344 84.851562 65.28125 89.765625 C 66.78125 84.851562 70.875 81.046875 76.0625 79.675781 C 70.875 78.308594 66.78125 74.503906 65.28125 69.589844 C 63.777344 74.503906 59.683594 78.308594 54.496094 79.675781 Z M 54.496094 79.675781 "/>
<path style=" stroke:none;fill-rule:nonzero;fill:rgb(100%,0%,0%);fill-opacity:1;" d="M 76.058594 50.324219 C 70.871094 48.953125 66.777344 45.148438 65.273438 40.234375 C 63.773438 45.148438 59.679688 48.953125 54.492188 50.324219 C 59.679688 51.691406 63.773438 55.496094 65.273438 60.410156 C 66.777344 55.496094 70.871094 51.691406 76.058594 50.324219 Z M 76.058594 50.324219 "/>
<path style=" stroke:none;fill-rule:nonzero;fill:rgb(100%,0%,0%);fill-opacity:1;" d="M 8.039062 17.707031 C 10.132812 17.707031 11.332031 16.800781 11.835938 15.871094 C 12.324219 14.964844 12.25 14.109375 12.246094 14.0625 C 12.25 12.355469 12.222656 10.644531 12.273438 8.941406 C 12.273438 6.953125 10.355469 5.320312 8.011719 5.320312 C 5.671875 5.320312 3.753906 6.953125 3.753906 8.941406 C 3.753906 10.925781 5.671875 12.5625 8.011719 12.5625 C 9.148438 12.5625 10.167969 12.171875 10.933594 11.550781 L 10.960938 14.113281 C 10.960938 14.113281 11.003906 14.71875 10.6875 15.304688 C 10.371094 15.886719 9.773438 16.492188 8.039062 16.492188 C 7.535156 16.492188 6.84375 16.363281 6.320312 16.105469 C 5.796875 15.847656 5.457031 15.519531 5.367188 14.914062 L 4.082031 15.070312 C 4.234375 16.09375 4.941406 16.808594 5.71875 17.191406 C 6.5 17.574219 7.359375 17.707031 8.039062 17.707031 Z M 8.011719 11.371094 C 6.410156 11.371094 5.148438 10.300781 5.148438 8.941406 C 5.148438 7.582031 6.410156 6.484375 8.011719 6.484375 C 9.617188 6.484375 10.90625 7.582031 10.90625 8.941406 C 10.90625 10.300781 9.617188 11.371094 8.011719 11.371094 Z M 8.011719 11.371094 "/>
<path style=" stroke:none;fill-rule:nonzero;fill:rgb(100%,0%,0%);fill-opacity:1;" d="M 81.960938 112.292969 C 79.867188 112.292969 78.667969 113.199219 78.164062 114.128906 C 77.675781 115.035156 77.75 115.890625 77.753906 115.9375 C 77.75 117.644531 77.777344 119.355469 77.726562 121.058594 C 77.726562 123.046875 79.644531 124.679688 81.988281 124.679688 C 84.328125 124.679688 86.246094 123.046875 86.246094 121.058594 C 86.246094 119.074219 84.328125 117.4375 81.988281 117.4375 C 80.851562 117.4375 79.832031 117.828125 79.066406 118.449219 L 79.039062 115.886719 C 79.039062 115.886719 78.996094 115.28125 79.3125 114.695312 C 79.628906 114.113281 80.226562 113.507812 81.960938 113.507812 C 82.464844 113.507812 83.15625 113.636719 83.679688 113.894531 C 84.203125 114.152344 84.542969 114.480469 84.632812 115.085938 L 85.917969 114.929688 C 85.765625 113.90625 85.058594 113.191406 84.28125 112.808594 C 83.5 112.425781 82.640625 112.292969 81.960938 112.292969 Z M 81.988281 118.628906 C 83.589844 118.628906 84.851562 119.699219 84.851562 121.058594 C 84.851562 122.417969 83.589844 123.515625 81.988281 123.515625 C 80.382812 123.515625 79.09375 122.417969 79.09375 121.058594 C 79.09375 119.699219 80.382812 118.628906 81.988281 118.628906 Z M 81.988281 118.628906 "/>
<path style=" stroke:none;fill-rule:nonzero;fill:url(#linear0);" d="M 4.757812 0.269531 L 85.242188 0.269531 C 87.828125 0.269531 89.921875 2.253906 89.921875 4.703125 L 89.921875 125.296875 C 89.921875 127.746094 87.828125 129.730469 85.242188 129.730469 L 4.757812 129.730469 C 2.171875 129.730469 0.078125 127.746094 0.078125 125.296875 L 0.078125 4.703125 C 0.078125 2.253906 2.171875 0.269531 4.757812 0.269531 Z M 4.757812 0.269531 "/>
</g>
</svg>
