<?xml version="1.0" encoding="UTF-8"?>
<svg xmlns="http://www.w3.org/2000/svg" xmlns:xlink="http://www.w3.org/1999/xlink" width="90px" height="130px" viewBox="0 0 90 130" version="1.1">
<defs>
<linearGradient id="linear0" gradientUnits="userSpaceOnUse" x1="0" y1="0" x2="1" y2="0" gradientTransform="matrix(89.844017,0,0,129.461731,0.0779896,0.269122)">
<stop offset="0" style="stop-color:rgb(0%,0%,0%);stop-opacity:0.2;"/>
<stop offset="0.7" style="stop-color:rgb(93.333334%,93.333334%,93.333334%);stop-opacity:0.1;"/>
<stop offset="1" style="stop-color:rgb(0%,0%,0%);stop-opacity:0.2;"/>
</linearGradient>
</defs>
<g id="surface1">
<path style="fill-rule:nonzero;fill:rgb(100%,100%,100%);fill-opacity:1;stroke-width:0.1;stroke-linecap:butt;stroke-linejoin:miter;stroke:rgb(0%,0%,0%);stroke-opacity:1;stroke-miterlimit:4;" d="M 3.200287 0.200277 L 54.799714 0.200277 C 56.457588 0.200277 57.799914 1.543 57.799914 3.200258 L 57.799914 84.799757 C 57.799914 86.457015 56.457588 87.799738 54.799714 87.799738 L 3.200287 87.799738 C 1.542413 87.799738 0.200087 86.457015 0.200087 84.799757 L 0.200087 3.200258 C 0.200087 1.543 1.542413 0.200277 3.200287 0.200277 Z M 3.200287 0.200277 " transform="matrix(1.559792,0,0,1.477874,-0.233969,-0.0264528)"/>
<path style=" stroke:none;fill-rule:nonzero;fill:rgb(100%,0%,0%);fill-opacity:1;" d="M 13.125 24.84375 C 11.050781 24.292969 9.414062 22.773438 8.8125 20.808594 C 8.210938 22.773438 6.574219 24.292969 4.5 24.84375 C 6.574219 25.390625 8.210938 26.910156 8.8125 28.875 C 9.414062 26.910156 11.050781 25.390625 13.125 24.84375 Z M 13.125 24.84375 "/>
<path style=" stroke:none;fill-rule:nonzero;fill:rgb(100%,0%,0%);fill-opacity:1;" d="M 76.875 105.15625 C 78.949219 105.707031 80.585938 107.226562 81.1875 109.191406 C 81.789062 107.226562 83.425781 105.707031 85.5 105.15625 C 83.425781 104.609375 81.789062 103.089844 81.1875 101.125 C 80.585938 103.089844 78.949219 104.609375 76.875 105.15625 Z M 76.875 105.15625 "/>
<path style=" stroke:none;fill-rule:nonzero;fill:rgb(100%,0%,0%);fill-opacity:1;" d="M 35.503906 20.765625 C 30.316406 19.394531 26.222656 15.59375 24.71875 10.679688 C 23.21875 15.59375 19.125 19.394531 13.9375 20.765625 C 19.125 22.136719 23.21875 25.9375 24.71875 30.851562 C 26.222656 25.9375 30.316406 22.136719 35.503906 20.765625 Z M 35.503906 20.765625 "/>
<path style=" stroke:none;fill-rule:nonzero;fill:rgb(100%,0%,0%);fill-opacity:1;" d="M 13.941406 109.234375 C 19.128906 110.605469 23.222656 114.40625 24.726562 119.320312 C 26.226562 114.40625 30.320312 110.605469 35.507812 109.234375 C 30.320312 107.863281 26.226562 104.0625 24.726562 99.148438 C 23.222656 104.0625 19.128906 107.863281 13.941406 109.234375 Z M 13.941406 109.234375 "/>
<path style=" stroke:none;fill-rule:nonzero;fill:rgb(100%,0%,0%);fill-opacity:1;" d="M 35.503906 50.324219 C 30.316406 48.953125 26.222656 45.148438 24.71875 40.234375 C 23.21875 45.148438 19.125 48.953125 13.9375 50.324219 C 19.125 51.691406 23.21875 55.496094 24.71875 60.410156 C 26.222656 55.496094 30.316406 51.691406 35.503906 50.324219 Z M 35.503906 50.324219 "/>
<path style=" stroke:none;fill-rule:nonzero;fill:rgb(100%,0%,0%);fill-opacity:1;" d="M 13.941406 79.675781 C 19.128906 81.046875 23.222656 84.851562 24.726562 89.765625 C 26.226562 84.851562 30.320312 81.046875 35.507812 79.675781 C 30.320312 78.308594 26.226562 74.503906 24.726562 69.589844 C 23.222656 74.503906 19.128906 78.308594 13.941406 79.675781 Z M 13.941406 79.675781 "/>
<path style=" stroke:none;fill-rule:nonzero;fill:rgb(100%,0%,0%);fill-opacity:1;" d="M 55.78125 35.542969 C 50.59375 34.171875 46.5 30.371094 44.996094 25.457031 C 43.496094 30.371094 39.402344 34.171875 34.214844 35.542969 C 39.402344 36.914062 43.496094 40.714844 44.996094 45.628906 C 46.5 40.714844 50.59375 36.914062 55.78125 35.542969 Z M 55.78125 35.542969 "/>
<path style=" stroke:none;fill-rule:nonzero;fill:rgb(100%,0%,0%);fill-opacity:1;" d="M 34.21875 94.457031 C 39.40625 95.828125 43.5 99.628906 45.003906 104.542969 C 46.503906 99.628906 50.597656 95.828125 55.785156 94.457031 C 50.597656 93.085938 46.503906 89.285156 45.003906 84.371094 C 43.5 89.285156 39.40625 93.085938 34.21875 94.457031 Z M 34.21875 94.457031 "/>
<path style=" stroke:none;fill-rule:nonzero;fill:rgb(100%,0%,0%);fill-opacity:1;" d="M 54.496094 109.234375 C 59.683594 110.605469 63.777344 114.40625 65.28125 119.320312 C 66.78125 114.40625 70.875 110.605469 76.0625 109.234375 C 70.875 107.863281 66.78125 104.0625 65.28125 99.148438 C 63.777344 104.0625 59.683594 107.863281 54.496094 109.234375 Z M 54.496094 109.234375 "/>
<path style=" stroke:none;fill-rule:nonzero;fill:rgb(100%,0%,0%);fill-opacity:1;" d="M 76.058594 20.765625 C 70.871094 19.394531 66.777344 15.59375 65.273438 10.679688 C 63.773438 15.59375 59.679688 19.394531 54.492188 20.765625 C 59.679688 22.136719 63.773438 25.9375 65.273438 30.851562 C 66.777344 25.9375 70.871094 22.136719 76.058594 20.765625 Z M 76.058594 20.765625 "/>
<path style=" stroke:none;fill-rule:nonzero;fill:rgb(100%,0%,0%);fill-opacity:1;" d="M 54.496094 79.675781 C 59.683594 81.046875 63.777344 84.851562 65.28125 89.765625 C 66.78125 84.851562 70.875 81.046875 76.0625 79.675781 C 70.875 78.308594 66.78125 74.503906 65.28125 69.589844 C 63.777344 74.503906 59.683594 78.308594 54.496094 79.675781 Z M 54.496094 79.675781 "/>
<path style=" stroke:none;fill-rule:nonzero;fill:rgb(100%,0%,0%);fill-opacity:1;" d="M 76.058594 50.324219 C 70.871094 48.953125 66.777344 45.148438 65.273438 40.234375 C 63.773438 45.148438 59.679688 48.953125 54.492188 50.324219 C 59.679688 51.691406 63.773438 55.496094 65.273438 60.410156 C 66.777344 55.496094 70.871094 51.691406 76.058594 50.324219 Z M 76.058594 50.324219 "/>
<path style=" stroke:none;fill-rule:nonzero;fill:rgb(100%,0%,0%);fill-opacity:1;" d="M 10.0625 6.378906 C 8.667969 6.378906 7.488281 7.445312 7.488281 8.761719 L 7.488281 15.652344 C 7.488281 16.96875 8.667969 18.039062 10.0625 18.039062 C 11.453125 18.039062 12.578125 16.96875 12.578125 15.652344 L 12.578125 8.761719 C 12.578125 7.445312 11.453125 6.378906 10.0625 6.378906 Z M 4.914062 6.535156 L 4.914062 17.878906 L 6.089844 17.878906 L 6.089844 6.535156 Z M 10.0625 7.542969 C 10.820312 7.542969 11.402344 8.078125 11.402344 8.761719 L 11.402344 15.652344 C 11.402344 16.335938 10.820312 16.871094 10.0625 16.871094 C 9.304688 16.871094 8.71875 16.335938 8.71875 15.652344 L 8.71875 8.761719 C 8.71875 8.078125 9.304688 7.542969 10.0625 7.542969 Z M 10.0625 7.542969 "/>
<path style=" stroke:none;fill-rule:nonzero;fill:rgb(100%,0%,0%);fill-opacity:1;" d="M 79.9375 123.621094 C 81.332031 123.621094 82.511719 122.554688 82.511719 121.238281 L 82.511719 114.347656 C 82.511719 113.03125 81.332031 111.960938 79.9375 111.960938 C 78.546875 111.960938 77.421875 113.03125 77.421875 114.347656 L 77.421875 121.238281 C 77.421875 122.554688 78.546875 123.621094 79.9375 123.621094 Z M 85.085938 123.464844 L 85.085938 112.121094 L 83.910156 112.121094 L 83.910156 123.464844 Z M 79.9375 122.457031 C 79.179688 122.457031 78.597656 121.921875 78.597656 121.238281 L 78.597656 114.347656 C 78.597656 113.664062 79.179688 113.128906 79.9375 113.128906 C 80.695312 113.128906 81.28125 113.664062 81.28125 114.347656 L 81.28125 121.238281 C 81.28125 121.921875 80.695312 122.457031 79.9375 122.457031 Z M 79.9375 122.457031 "/>
<path style=" stroke:none;fill-rule:nonzero;fill:url(#linear0);" d="M 4.757812 0.269531 L 85.242188 0.269531 C 87.828125 0.269531 89.921875 2.253906 89.921875 4.703125 L 89.921875 125.296875 C 89.921875 127.746094 87.828125 129.730469 85.242188 129.730469 L 4.757812 129.730469 C 2.171875 129.730469 0.078125 127.746094 0.078125 125.296875 L 0.078125 4.703125 C 0.078125 2.253906 2.171875 0.269531 4.757812 0.269531 Z M 4.757812 0.269531 "/>
</g>
</svg>
