<?xml version="1.0" encoding="UTF-8"?>
<svg xmlns="http://www.w3.org/2000/svg" xmlns:xlink="http://www.w3.org/1999/xlink" width="90px" height="130px" viewBox="0 0 90 130" version="1.1">
<defs>
<linearGradient id="linear0" gradientUnits="userSpaceOnUse" x1="0" y1="0" x2="1" y2="0" gradientTransform="matrix(89.844017,0,0,129.461731,0.0779896,0.269122)">
<stop offset="0" style="stop-color:rgb(0%,0%,0%);stop-opacity:0.2;"/>
<stop offset="0.7" style="stop-color:rgb(93.333334%,93.333334%,93.333334%);stop-opacity:0.1;"/>
<stop offset="1" style="stop-color:rgb(0%,0%,0%);stop-opacity:0.2;"/>
</linearGradient>
</defs>
<g id="surface1">
<path style="fill-rule:nonzero;fill:rgb(100%,100%,100%);fill-opacity:1;stroke-width:0.1;stroke-linecap:butt;stroke-linejoin:miter;stroke:rgb(0%,0%,0%);stroke-opacity:1;stroke-miterlimit:4;" d="M 3.200287 0.200277 L 54.799714 0.200277 C 56.457588 0.200277 57.799914 1.543 57.799914 3.200258 L 57.799914 84.799757 C 57.799914 86.457015 56.457588 87.799738 54.799714 87.799738 L 3.200287 87.799738 C 1.542413 87.799738 0.200087 86.457015 0.200087 84.799757 L 0.200087 3.200258 C 0.200087 1.543 1.542413 0.200277 3.200287 0.200277 Z M 3.200287 0.200277 " transform="matrix(1.559792,0,0,1.477874,-0.233969,-0.0264528)"/>
<path style=" stroke:none;fill-rule:nonzero;fill:rgb(100%,0%,0%);fill-opacity:1;" d="M 13.125 24.84375 C 11.050781 24.292969 9.414062 22.773438 8.8125 20.808594 C 8.210938 22.773438 6.574219 24.292969 4.5 24.84375 C 6.574219 25.390625 8.210938 26.910156 8.8125 28.875 C 9.414062 26.910156 11.050781 25.390625 13.125 24.84375 Z M 13.125 24.84375 "/>
<path style=" stroke:none;fill-rule:nonzero;fill:rgb(100%,0%,0%);fill-opacity:1;" d="M 76.875 105.15625 C 78.949219 105.707031 80.585938 107.226562 81.1875 109.191406 C 81.789062 107.226562 83.425781 105.707031 85.5 105.15625 C 83.425781 104.609375 81.789062 103.089844 81.1875 101.125 C 80.585938 103.089844 78.949219 104.609375 76.875 105.15625 Z M 76.875 105.15625 "/>
<path style="fill:none;stroke-width:0.3;stroke-linecap:butt;stroke-linejoin:miter;stroke:rgb(0%,0%,0%);stroke-opacity:1;stroke-miterlimit:4;" d="M 3.999171 2.499822 L 54.00083 2.499822 C 54.827262 2.499822 55.50093 3.171184 55.50093 4.001135 L 55.50093 83.998881 C 55.50093 84.828831 54.827262 85.500193 54.00083 85.500193 L 3.999171 85.500193 C 3.172739 85.500193 2.499071 84.828831 2.499071 83.998881 L 2.499071 4.001135 C 2.499071 3.171184 3.172739 2.499822 3.999171 2.499822 Z M 3.999171 2.499822 " transform="matrix(1.559792,0,0,1.477874,-0.233969,-0.0264528)"/>
<path style=" stroke:none;fill-rule:nonzero;fill:rgb(0%,0%,0%);fill-opacity:1;" d="M 4.800781 121.773438 L 4.867188 122.339844 L 7.175781 122.339844 L 7.117188 121.773438 L 6.070312 121.773438 L 7.199219 121.03125 L 7.039062 120.441406 L 5.96875 121.191406 L 4.96875 120.464844 L 4.808594 121.023438 L 5.851562 121.773438 Z M 4.800781 119.589844 L 7.058594 119.589844 L 7.058594 118.976562 C 7.058594 118.8125 7.03125 118.65625 6.980469 118.503906 C 6.925781 118.351562 6.855469 118.226562 6.757812 118.117188 C 6.664062 118.003906 6.539062 117.917969 6.394531 117.851562 C 6.25 117.789062 6.089844 117.753906 5.917969 117.753906 C 5.675781 117.757812 5.472656 117.8125 5.304688 117.90625 C 5.136719 118.003906 5.007812 118.136719 4.925781 118.316406 C 4.839844 118.496094 4.800781 118.703125 4.800781 118.941406 Z M 4.800781 116.902344 L 7.058594 116.902344 L 7.058594 115.601562 L 6.5625 115.460938 L 6.5625 116.355469 L 6.152344 116.355469 L 6.152344 115.753906 L 5.65625 115.753906 L 5.65625 116.355469 L 5.296875 116.355469 L 5.296875 115.519531 L 4.800781 115.628906 Z M 5.304688 119.015625 C 5.308594 118.792969 5.355469 118.625 5.4375 118.503906 C 5.519531 118.382812 5.671875 118.320312 5.898438 118.316406 L 5.910156 118.316406 C 6.09375 118.316406 6.242188 118.367188 6.355469 118.476562 C 6.472656 118.585938 6.53125 118.761719 6.53125 119.015625 Z M 5.304688 119.015625 "/>
<path style=" stroke:none;fill-rule:nonzero;fill:rgb(0%,0%,0%);fill-opacity:1;" d="M 85.199219 8.226562 L 85.132812 7.660156 L 82.824219 7.660156 L 82.882812 8.226562 L 83.929688 8.226562 L 82.800781 8.96875 L 82.960938 9.554688 L 84.03125 8.808594 L 85.03125 9.535156 L 85.191406 8.976562 L 84.148438 8.226562 Z M 85.199219 10.410156 L 82.941406 10.410156 L 82.941406 11.023438 C 82.941406 11.1875 82.96875 11.34375 83.019531 11.496094 C 83.074219 11.648438 83.144531 11.773438 83.242188 11.882812 C 83.335938 11.996094 83.460938 12.082031 83.605469 12.148438 C 83.75 12.210938 83.910156 12.246094 84.082031 12.246094 C 84.324219 12.242188 84.527344 12.1875 84.695312 12.09375 C 84.863281 11.996094 84.992188 11.863281 85.074219 11.683594 C 85.160156 11.503906 85.199219 11.296875 85.199219 11.058594 Z M 85.199219 13.097656 L 82.941406 13.097656 L 82.941406 14.398438 L 83.4375 14.539062 L 83.4375 13.644531 L 83.847656 13.644531 L 83.847656 14.246094 L 84.34375 14.246094 L 84.34375 13.644531 L 84.703125 13.644531 L 84.703125 14.480469 L 85.199219 14.371094 Z M 84.695312 10.984375 C 84.691406 11.207031 84.644531 11.375 84.5625 11.496094 C 84.480469 11.617188 84.328125 11.679688 84.101562 11.683594 L 84.089844 11.683594 C 83.90625 11.683594 83.757812 11.632812 83.644531 11.523438 C 83.527344 11.414062 83.46875 11.238281 83.46875 10.984375 Z M 84.695312 10.984375 "/>
<path style=" stroke:none;fill-rule:nonzero;fill:rgb(100%,0%,0%);fill-opacity:1;" d="M 30.824219 19.289062 C 25.636719 17.917969 21.542969 14.113281 20.039062 9.199219 C 18.539062 14.113281 14.445312 17.917969 9.257812 19.289062 C 14.445312 20.65625 18.539062 24.460938 20.039062 29.375 C 21.542969 24.460938 25.636719 20.65625 30.824219 19.289062 Z M 30.824219 19.289062 "/>
<path style=" stroke:none;fill-rule:nonzero;fill:rgb(100%,0%,0%);fill-opacity:1;" d="M 59.175781 110.710938 C 64.363281 112.082031 68.457031 115.886719 69.960938 120.800781 C 71.460938 115.886719 75.554688 112.082031 80.742188 110.710938 C 75.554688 109.34375 71.460938 105.539062 69.960938 100.625 C 68.457031 105.539062 64.363281 109.34375 59.175781 110.710938 Z M 59.175781 110.710938 "/>
<path style=" stroke:none;fill-rule:nonzero;fill:rgb(100%,100%,100%);fill-opacity:1;" d="M 4.445312 4.40625 L 13.804688 4.40625 L 13.804688 31.007812 L 4.445312 31.007812 Z M 4.445312 4.40625 "/>
<path style=" stroke:none;fill-rule:nonzero;fill:rgb(100%,100%,100%);fill-opacity:1;" d="M 76.195312 98.992188 L 85.554688 98.992188 L 85.554688 125.59375 L 76.195312 125.59375 Z M 76.195312 98.992188 "/>
<path style=" stroke:none;fill-rule:nonzero;fill:rgb(100%,0%,0%);fill-opacity:1;" d="M 13.125 24.84375 C 11.050781 24.292969 9.414062 22.773438 8.8125 20.808594 C 8.210938 22.773438 6.574219 24.292969 4.5 24.84375 C 6.574219 25.390625 8.210938 26.910156 8.8125 28.875 C 9.414062 26.910156 11.050781 25.390625 13.125 24.84375 Z M 13.125 24.84375 "/>
<path style=" stroke:none;fill-rule:nonzero;fill:rgb(100%,0%,0%);fill-opacity:1;" d="M 76.875 105.15625 C 78.949219 105.707031 80.585938 107.226562 81.1875 109.191406 C 81.789062 107.226562 83.425781 105.707031 85.5 105.15625 C 83.425781 104.609375 81.789062 103.089844 81.1875 101.125 C 80.585938 103.089844 78.949219 104.609375 76.875 105.15625 Z M 76.875 105.15625 "/>
<path style="fill-rule:nonzero;fill:rgb(100%,0%,0%);fill-opacity:1;stroke-width:0.875;stroke-linecap:round;stroke-linejoin:round;stroke:rgb(0%,0%,0%);stroke-opacity:1;stroke-miterlimit:4;" d="M 53.80687 110.80419 C 53.80687 110.80419 52.625745 111.694614 46.86221 116.127992 C 41.098675 120.56137 38.53217 123.523204 35.086482 125.885173 C 31.631914 128.247141 29.713695 130.243567 27.937568 132.689892 C 26.17032 135.126844 24.21658 142.447073 30.068921 145.990026 C 35.921262 149.542352 50.707527 146.224348 54.694934 143.178158 C 58.691221 140.131968 61.204442 138.594814 61.204442 138.594814 C 61.204442 138.594814 61.648474 138.594814 64.161695 141.406682 C 66.674916 144.218549 68.149102 146.88045 68.149102 146.88045 L 101.114035 163.432978 L 120.926741 131.208975 Z M 53.80687 110.80419 " transform="matrix(0.439861,0,0,0.41676,-0.233969,-0.0264528)"/>
<path style="fill:none;stroke-width:0.875;stroke-linecap:round;stroke-linejoin:round;stroke:rgb(0%,0%,0%);stroke-opacity:1;stroke-miterlimit:4;" d="M 65.156327 120.092726 C 65.156327 120.092726 66.754842 127.234869 66.230884 130.112347 C 65.156327 135.942286 61.053471 138.594814 61.053471 138.594814 C 61.053471 138.594814 61.968177 133.130418 61.053471 130.909043 C 60.138765 128.69704 57.945248 125.885173 57.945248 125.885173 " transform="matrix(0.439861,0,0,0.41676,-0.233969,-0.0264528)"/>
<path style="fill-rule:nonzero;fill:rgb(100%,93.333334%,0%);fill-opacity:1;stroke-width:1.25;stroke-linecap:round;stroke-linejoin:round;stroke:rgb(0%,0%,0%);stroke-opacity:1;stroke-miterlimit:4;" d="M 133.173143 96.660496 C 132.489333 96.388682 125.08288 90.858676 118.191504 89.134064 C 109.266462 86.903315 95.927742 94.157934 77.14519 95.92941 C 85.004555 107.486186 93.68094 124.572968 91.816006 154.556849 C 90.812493 170.612613 97.419689 169.000475 97.419689 169.000475 L 139.025484 102.930961 Z M 133.173143 96.660496 " transform="matrix(0.439861,0,0,0.41676,-0.233969,-0.0264528)"/>
<path style="fill-rule:nonzero;fill:rgb(100%,0%,0%);fill-opacity:1;stroke-width:1.25;stroke-linecap:round;stroke-linejoin:round;stroke:rgb(0%,0%,0%);stroke-opacity:1;stroke-miterlimit:4;" d="M 111.930653 87.296977 C 114.346187 87.737503 118.511207 88.843504 122.409808 92.273982 C 125.748928 95.207698 124.914148 99.481736 124.283623 101.993671 C 123.661978 104.505606 121.202041 108.47034 116.948215 109.623205 C 118.253669 111.254089 119.008523 111.394682 118.280311 113.49421 C 117.569859 115.5375 114.292904 116.240467 112.889763 114.244041 C 111.717518 112.55692 112.792075 111.010393 112.792075 111.010393 C 112.792075 111.010393 109.452955 112.041411 104.373229 111.488411 C 99.044846 110.897919 97.233196 110.063731 91.212122 105.049234 C 85.199929 100.04411 80.963864 96.426174 77.447131 94.964002 C 78.761466 93.426848 80.06692 91.655372 80.804013 90.643099 Z M 111.930653 87.296977 " transform="matrix(0.439861,0,0,0.41676,-0.233969,-0.0264528)"/>
<path style="fill-rule:nonzero;fill:rgb(100%,86.666667%,86.666667%);fill-opacity:1;stroke-width:1.25;stroke-linecap:round;stroke-linejoin:round;stroke:rgb(0%,0%,0%);stroke-opacity:1;stroke-miterlimit:4;" d="M 114.062007 91.083625 C 114.062007 91.083625 119.345987 93.95173 119.65681 96.660496 C 120.189648 101.225094 118.324714 105.124217 112.792075 106.595761 C 107.250557 108.057932 101.105154 106.933185 93.219147 100.5315 C 91.824886 99.39738 81.505583 92.208372 80.191249 91.542897 C 80.875058 89.99637 84.64933 85.319297 84.596046 80.567241 C 84.533881 74.484234 83.388279 70.978772 82.384767 65.514376 C 81.381255 60.040607 81.612151 53.601431 83.654698 49.51485 C 84.871346 47.106017 88.468005 38.979719 100.49239 35.971021 C 112.525656 32.962323 117.85404 33.79651 120.287335 36.345937 C 122.72063 38.895363 123.288991 41.904062 123.288991 41.904062 L 115.269774 81.50453 C 115.269774 81.50453 114.355068 83.304125 113.733423 87.428197 C 113.316033 90.183828 115.269774 95.029613 115.269774 95.029613 " transform="matrix(0.439861,0,0,0.41676,-0.233969,-0.0264528)"/>
<path style="fill-rule:nonzero;fill:rgb(100%,86.666667%,86.666667%);fill-opacity:1;stroke-width:1.25;stroke-linecap:round;stroke-linejoin:round;stroke:rgb(0%,0%,0%);stroke-opacity:1;stroke-miterlimit:4;" d="M 122.72063 40.901162 C 122.72063 40.901162 124.328026 43.094419 124.80758 44.500353 C 125.296016 45.915659 122.809437 49.758545 122.809437 50.761444 C 122.809437 51.764344 125.819973 54.060702 126.823485 55.541619 C 127.826998 57.022536 129.540961 58.044181 129.869545 59.993743 C 129.052526 61.727728 125.997586 62.96495 125.22497 63.733527 C 124.674371 66.001767 127.30304 68.9636 125.296016 69.9665 C 123.288991 70.969399 123.288991 70.969399 123.288991 70.969399 C 123.288991 70.969399 124.878625 69.825906 125.296016 74.399878 C 125.606838 77.839729 126.370573 79.798663 122.827198 81.401428 C 119.283823 83.004192 114.310665 81.870073 107.250557 79.995494 C 101.282767 78.411475 100.234852 77.989695 100.234852 77.989695 " transform="matrix(0.439861,0,0,0.41676,-0.233969,-0.0264528)"/>
<path style="fill-rule:nonzero;fill:rgb(100%,93.333334%,0%);fill-opacity:1;stroke-width:0.875;stroke-linecap:round;stroke-linejoin:round;stroke:rgb(0%,0%,0%);stroke-opacity:1;stroke-miterlimit:4;" d="M 101.860009 45.090845 C 101.860009 45.090845 99.080368 53.507702 96.975657 53.910736 C 95.013036 55.063602 97.57066 58.447216 103.014492 56.975672 C 106.113835 56.403925 106.930854 51.55814 108.147501 48.436967 C 110.882738 41.454163 112.880882 35.371156 112.285879 33.487205 C 111.690876 31.603253 102.277399 33.852748 101.860009 45.090845 Z M 101.860009 45.090845 " transform="matrix(0.439861,0,0,0.41676,-0.233969,-0.0264528)"/>
<path style="fill-rule:nonzero;fill:rgb(100%,93.333334%,53.333336%);fill-opacity:1;stroke-width:0.875;stroke-linecap:round;stroke-linejoin:round;stroke:rgb(0%,0%,0%);stroke-opacity:1;stroke-miterlimit:4;" d="M 93.521088 48.465086 C 93.521088 48.465086 94.533481 56.132111 92.606382 56.975672 C 90.20861 58.016063 92.251157 64.689562 97.801556 61.502779 C 99.773058 60.368659 99.924029 56.835078 101.220603 54.304398 C 103.609495 49.674189 105.270174 43.553691 105.403384 37.695633 C 105.447787 35.727326 93.512208 39.626449 93.521088 48.465086 Z M 93.521088 48.465086 " transform="matrix(0.439861,0,0,0.41676,-0.233969,-0.0264528)"/>
<path style="fill-rule:nonzero;fill:rgb(100%,93.333334%,0%);fill-opacity:1;stroke-width:1.25;stroke-linecap:round;stroke-linejoin:round;stroke:rgb(0%,0%,0%);stroke-opacity:1;stroke-miterlimit:4;" d="M 82.71335 48.221391 C 82.71335 48.221391 82.224915 49.383629 81.381255 56.038383 C 80.537594 62.693136 80.386623 66.386055 76.04399 72.600282 C 72.021061 78.345865 69.108211 78.420848 64.303785 79.901765 C 53.229628 83.304125 50.458869 86.012891 49.686253 89.949505 C 48.904757 93.88612 50.050359 97.991447 54.082169 98.431972 C 58.11398 98.881871 59.605927 97.579039 60.538394 95.657596 C 61.470861 93.736154 61.160039 91.374185 58.211667 91.664745 C 56.151358 91.870948 56.968377 94.073578 55.884939 94.073578 C 54.801501 94.073578 54.002244 94.036086 53.549331 92.845729 C 52.785596 90.868049 53.895676 89.986997 56.03591 88.712284 C 57.918606 87.587537 62.678628 85.919162 69.321346 83.538447 C 75.422346 81.345191 81.425658 77.802237 82.793276 75.946405 C 85.794932 71.869197 84.125372 62.908712 84.880226 59.731302 C 85.652842 56.478908 89.071888 45.69071 86.585309 45.540744 C 84.107611 45.40015 83.796788 47.171627 82.71335 48.221391 Z M 82.71335 48.221391 " transform="matrix(0.439861,0,0,0.41676,-0.233969,-0.0264528)"/>
<path style="fill-rule:nonzero;fill:rgb(100%,93.333334%,53.333336%);fill-opacity:1;stroke-width:1.25;stroke-linecap:round;stroke-linejoin:round;stroke:rgb(0%,0%,0%);stroke-opacity:1;stroke-miterlimit:4;" d="M 81.327971 49.411748 C 81.327971 49.411748 79.23214 51.923683 78.39736 57.153757 C 77.56258 62.374457 78.361837 67.34209 76.932054 69.488482 C 74.587565 73.022063 71.079713 74.081199 66.275287 75.758947 C 61.461981 77.427322 58.753386 81.663869 58.95764 86.444044 C 59.179656 91.55227 59.153014 95.985648 57.909725 97.28848 C 56.639794 98.61943 53.202986 99.969127 51.009468 101.89057 C 48.11438 104.430623 49.979314 104.768047 48.309754 107.898593 C 46.631313 111.038512 43.958241 110.044985 44.526602 112.341344 C 45.103843 114.637702 47.181913 114.365889 47.670348 113.803515 C 49.872746 111.254089 52.057384 111.300953 52.261638 108.789018 C 52.474774 106.277083 52.217235 104.683691 55.130085 103.980724 C 58.53137 103.165283 61.044591 103.774521 62.509896 97.28848 C 63.975202 90.811811 63.95744 87.774994 64.019605 85.009991 C 64.126172 80.979648 70.253814 79.386256 71.896732 79.105069 C 74.303385 78.683289 80.493191 76.939931 81.532225 73.453216 C 82.580141 69.9665 82.997531 66.770344 82.580141 62.796238 C 82.162751 58.822131 82.793276 55.063602 84.880226 51.923683 C 86.967177 48.783764 89.507039 47.284102 88.876514 45.40015 C 88.245989 43.516199 81.745361 49.411748 81.327971 49.411748 Z M 81.327971 49.411748 " transform="matrix(0.439861,0,0,0.41676,-0.233969,-0.0264528)"/>
<path style="fill-rule:nonzero;fill:rgb(100%,93.333334%,53.333336%);fill-opacity:1;stroke-width:0.875;stroke-linecap:round;stroke-linejoin:round;stroke:rgb(0%,0%,0%);stroke-opacity:1;stroke-miterlimit:4;" d="M 86.611951 78.467713 C 86.487622 82.394954 91.451899 83.491583 90.732568 91.542897 C 90.288536 96.519903 96.114235 95.517003 96.362893 94.317273 C 97.419689 89.302776 102.978969 95.807563 97.242076 99.106821 C 92.366605 101.909315 85.48411 97.794616 85.590677 93.211272 C 85.715006 88.234266 80.954984 87.072028 79.907068 84.353889 C 76.03511 74.27803 86.851728 71.45679 86.611951 78.467713 Z M 86.611951 78.467713 " transform="matrix(0.439861,0,0,0.41676,-0.233969,-0.0264528)"/>
<path style="fill-rule:nonzero;fill:rgb(100%,93.333334%,0%);fill-opacity:1;stroke-width:0.875;stroke-linecap:round;stroke-linejoin:round;stroke:rgb(0%,0%,0%);stroke-opacity:1;stroke-miterlimit:4;" d="M 88.858753 74.962251 C 88.12166 78.823883 95.119603 79.770545 93.148101 87.606282 C 91.931454 92.46144 97.837079 92.377084 98.27223 91.224219 C 100.101642 86.434671 104.577484 93.736154 98.396559 96.098122 C 93.139221 98.103921 86.984938 92.967576 87.810837 88.459216 C 88.707782 83.557193 84.187536 81.663869 83.583653 78.81451 C 81.327971 68.260634 90.190849 68.073176 88.858753 74.962251 Z M 88.858753 74.962251 " transform="matrix(0.439861,0,0,0.41676,-0.233969,-0.0264528)"/>
<path style="fill-rule:nonzero;fill:rgb(100%,93.333334%,0%);fill-opacity:1;stroke-width:0.875;stroke-linecap:round;stroke-linejoin:round;stroke:rgb(0%,0%,0%);stroke-opacity:1;stroke-miterlimit:4;" d="M 88.396959 66.039258 C 88.077256 71.025637 89.37383 72.459689 88.858753 74.962251 C 88.086137 78.81451 95.119603 79.770545 93.148101 87.606282 C 91.931454 92.46144 97.837079 92.377084 98.27223 91.224219 C 100.101642 86.434671 104.577484 93.736154 98.396559 96.098122 C 93.139221 98.103921 86.984938 92.967576 87.810837 88.459216 C 88.707782 83.557193 85.226571 81.242089 83.583653 78.81451 C 81.425658 75.627727 82.748873 71.634875 83.672459 66.910937 C 84.596046 62.158881 88.645617 62.168254 88.396959 66.039258 Z M 88.396959 66.039258 " transform="matrix(0.439861,0,0,0.41676,-0.233969,-0.0264528)"/>
<path style="fill-rule:nonzero;fill:rgb(0%,53.333336%,0%);fill-opacity:1;stroke-width:0.875;stroke-linecap:round;stroke-linejoin:round;stroke:rgb(0%,0%,0%);stroke-opacity:1;stroke-miterlimit:4;" d="M 119.550287 51.190294 C 119.568048 52.324414 119.186181 53.383551 118.555655 53.955298 C 117.934011 54.527044 117.161395 54.527044 116.53087 53.955298 C 115.909225 53.383551 115.527357 52.324414 115.536238 51.190294 C 115.527357 50.056175 115.909225 48.997038 116.53087 48.425291 C 117.161395 47.853545 117.934011 47.853545 118.555655 48.425291 C 119.186181 48.997038 119.568048 50.056175 119.550287 51.190294 Z M 119.550287 51.190294 " transform="matrix(0.439861,0,0,0.41676,-0.105082,-0.314555)"/>
<path style="fill:none;stroke-width:0.875;stroke-linecap:round;stroke-linejoin:round;stroke:rgb(0%,0%,0%);stroke-opacity:1;stroke-miterlimit:4;" d="M 119.816661 45.465761 C 119.816661 45.465761 118.280311 43.90986 116.273286 43.90986 C 114.275142 43.90986 112.268118 46.496779 112.268118 46.496779 " transform="matrix(0.439861,0,0,0.41676,-0.233969,-0.0264528)"/>
<path style="fill-rule:nonzero;fill:rgb(100%,86.666667%,86.666667%);fill-opacity:1;stroke-width:1.25;stroke-linecap:round;stroke-linejoin:round;stroke:rgb(0%,0%,0%);stroke-opacity:1;stroke-miterlimit:4;" d="M 123.883994 70.67884 C 123.883994 70.67884 122.480853 71.606756 120.136364 70.828806 C 117.125827 69.825906 115.91806 70.735077 115.91806 70.735077 " transform="matrix(0.439861,0,0,0.41676,-0.233969,-0.0264528)"/>
<path style="fill-rule:nonzero;fill:rgb(0%,53.333336%,0%);fill-opacity:1;stroke-width:1.25;stroke-linecap:round;stroke-linejoin:round;stroke:rgb(0%,0%,0%);stroke-opacity:1;stroke-miterlimit:4;" d="M 133.122728 96.504525 C 133.122728 96.504525 133.184745 96.532577 133.184745 96.532577 C 133.184745 96.513876 133.175885 96.485824 133.122728 96.504525 Z M 133.184745 96.560629 C 132.989835 97.215174 123.625287 104.536723 115.377042 118.59073 C 109.370265 128.820328 107.651512 139.695119 107.651512 139.695119 L 112.010412 144.968878 L 140.307826 101.151792 C 137.153825 99.188158 133.2822 96.626084 133.184745 96.560629 Z M 133.184745 96.560629 " transform="matrix(0.440908,0,0,0.417752,-0.233969,-0.256392)"/>
<path style="fill-rule:nonzero;fill:rgb(0%,53.333336%,100%);fill-opacity:1;stroke-width:0.875;stroke-linecap:round;stroke-linejoin:round;stroke:rgb(0%,0%,0%);stroke-opacity:1;stroke-miterlimit:4;" d="M 74.179056 118.546198 C 74.179056 118.546198 77.731312 127.872226 79.347588 133.617809 C 80.972745 139.354018 82.251557 150.104725 82.251557 150.104725 C 82.251557 150.104725 85.333139 153.366492 84.951271 152.288609 C 84.560523 151.210727 84.942391 140.750579 81.629912 129.043837 C 78.317434 117.365214 77.651386 117.074654 77.651386 117.074654 Z M 74.179056 118.546198 " transform="matrix(0.439861,0,0,0.41676,-0.233969,-0.0264528)"/>
<path style="fill-rule:nonzero;fill:rgb(100%,93.333334%,0%);fill-opacity:1;stroke-width:0.875;stroke-linecap:round;stroke-linejoin:round;stroke:rgb(0%,0%,0%);stroke-opacity:1;stroke-miterlimit:4;" d="M 63.762066 112.547548 C 63.762066 112.547548 59.996675 119.661573 56.240165 122.585915 C 52.474774 125.510257 48.975802 128.022192 47.039823 131.162111 C 45.103843 134.292657 43.274432 137.432575 43.274432 137.432575 L 36.58731 135.754828 C 36.58731 135.754828 38.887396 129.906143 40.556956 127.815988 C 42.226516 125.725834 48.984683 120.289556 51.844248 116.943434 C 54.712695 113.597311 56.657555 109.623205 56.657555 109.623205 Z M 63.762066 112.547548 " transform="matrix(0.439861,0,0,0.41676,-0.233969,-0.0264528)"/>
<path style="fill:none;stroke-width:0.875;stroke-linecap:round;stroke-linejoin:round;stroke:rgb(0%,0%,0%);stroke-opacity:1;stroke-miterlimit:4;" d="M 56.009268 112.809989 L 54.597247 120.467641 L 46.844449 121.845456 L 44.331228 130.487263 L 37.821719 133.36474 " transform="matrix(0.439861,0,0,0.41676,-0.233969,-0.0264528)"/>
<path style="fill:none;stroke-width:0.875;stroke-linecap:round;stroke-linejoin:round;stroke:rgb(0%,0%,0%);stroke-opacity:1;stroke-miterlimit:4;" d="M 58.051815 113.662922 L 56.373374 122.435949 L 48.744905 123.841882 L 46.338252 132.249366 L 37.69739 135.689218 " transform="matrix(0.439861,0,0,0.41676,-0.233969,-0.0264528)"/>
<path style="fill-rule:nonzero;fill:rgb(0%,53.333336%,100%);fill-opacity:1;stroke-width:0.875;stroke-linecap:round;stroke-linejoin:round;stroke:rgb(0%,0%,0%);stroke-opacity:1;stroke-miterlimit:4;" d="M 103.698301 129.062583 C 103.698301 129.062583 104.533081 137.844983 104.115691 143.075056 C 103.698301 148.30513 101.282767 157.462445 101.282767 157.462445 C 101.282767 157.462445 103.067776 161.192856 103.067776 160.180584 C 103.067776 159.177685 105.998386 153.113424 106.833167 142.447073 C 107.667947 131.818213 108.085337 129.062583 108.085337 129.062583 Z M 103.698301 129.062583 " transform="matrix(0.439861,0,0,0.41676,-0.233969,-0.0264528)"/>
<path style="fill-rule:nonzero;fill:rgb(0%,53.333336%,0%);fill-opacity:1;stroke-width:1.25;stroke-linecap:round;stroke-linejoin:round;stroke:rgb(0%,0%,0%);stroke-opacity:1;stroke-miterlimit:4;" d="M 77.775715 95.029613 C 77.775715 95.029613 68.495447 98.900617 65.857897 101.056382 C 60.529514 105.396031 53.460525 111.085376 53.460525 111.085376 C 53.460525 111.085376 80.706326 120.91754 90.217491 128.022192 C 99.719775 135.126844 111.850728 145.146465 111.850728 145.146465 L 117.072544 138.894747 C 117.072544 138.894747 109.390791 124.179306 100.980825 114.637702 C 88.645617 100.662721 76.514664 94.992121 77.775715 95.029613 Z M 77.775715 95.029613 " transform="matrix(0.439861,0,0,0.41676,-0.233969,-0.0264528)"/>
<path style="fill-rule:nonzero;fill:rgb(100%,93.333334%,0%);fill-opacity:1;stroke-width:0.875;stroke-linecap:round;stroke-linejoin:round;stroke:rgb(0%,0%,0%);stroke-opacity:1;stroke-miterlimit:4;" d="M 88.645617 56.750722 C 88.645617 56.750722 89.631368 64.736426 87.517776 65.148833 C 84.445075 65.748699 83.663579 65.983021 83.299473 68.54182 C 82.002899 77.727254 84.001043 78.533323 79.169975 80.211071 C 74.330027 81.879445 70.706726 85.497382 70.573517 93.258136 C 70.511352 96.604259 73.601815 98.282006 76.488022 98.778769 C 79.92483 99.369262 81.87857 95.657596 79.169975 94.392256 C 76.763322 93.248763 75.440107 94.589087 75.48451 91.824084 C 75.564436 87.175129 77.438251 86.697112 80.777371 85.188076 C 84.223059 83.622803 86.105755 81.832581 88.174944 73.181402 C 89.027485 69.619703 90.341819 72.993944 93.974001 69.460364 C 96.833567 66.685988 93.201385 58.840877 95.652442 55.935281 C 98.210066 52.907837 100.465748 42.269604 99.861865 40.395026 C 99.266862 38.511075 88.325914 40.488755 88.645617 56.750722 Z M 88.645617 56.750722 " transform="matrix(0.439861,0,0,0.41676,-0.233969,-0.0264528)"/>
<path style="fill-rule:nonzero;fill:rgb(100%,93.333334%,53.333336%);fill-opacity:1;stroke-width:0.875;stroke-linecap:round;stroke-linejoin:round;stroke:rgb(0%,0%,0%);stroke-opacity:1;stroke-miterlimit:4;" d="M 90.49279 44.481607 C 90.49279 44.481607 86.256725 53.742024 85.324258 59.093945 C 84.391791 64.445867 86.336651 68.176278 84.951271 70.425772 C 83.343876 73.040808 85.315378 77.877221 80.431026 79.583087 C 75.537794 81.298326 67.545219 81.223343 66.852529 89.15281 C 66.159839 97.082276 67.127829 96.51053 64.259382 100.372161 C 61.390936 104.22442 61.941535 102.284231 59.010924 104.852403 C 53.629257 109.576341 56.835168 113.953481 59.943391 111.844581 C 61.692877 110.654223 61.506384 108.320373 64.170576 106.998796 C 67.358725 105.414777 67.554099 103.671419 69.498959 100.372161 C 71.195161 97.494683 71.008668 93.726781 71.053071 90.886795 C 71.132997 86.125365 76.656754 87.746876 80.031397 86.190976 C 83.503727 84.597584 86.87837 83.051057 89.116291 75.946405 C 90.244132 72.384706 90.705926 69.094821 90.341819 65.026986 C 89.986594 60.959151 89.79122 56.797587 91.958096 53.582685 C 94.116091 50.367783 95.705726 44.91276 95.101842 42.991317 C 94.497959 41.060501 90.91018 44.481607 90.49279 44.481607 Z M 90.49279 44.481607 " transform="matrix(0.439861,0,0,0.41676,-0.233969,-0.0264528)"/>
<path style="fill-rule:nonzero;fill:rgb(100%,93.333334%,0%);fill-opacity:1;stroke-width:0.875;stroke-linecap:round;stroke-linejoin:round;stroke:rgb(0%,0%,0%);stroke-opacity:1;stroke-miterlimit:4;" d="M 86.816206 46.665491 C 86.816206 46.665491 83.210666 53.385854 82.28708 58.615928 C 81.363493 63.836629 82.71335 66.545394 82.358125 69.104194 C 81.061551 78.289628 78.033254 79.536222 73.193305 81.21397 C 68.362237 82.882345 63.246989 83.116667 63.12266 89.537098 C 63.060496 92.845729 62.216835 96.613631 60.556155 98.750651 C 57.669948 102.481062 58.327115 100.625229 55.360982 103.127791 C 52.394848 105.639726 53.842392 105.564743 52.119548 108.704662 C 50.396704 111.835208 47.954528 111.207224 48.487367 113.512955 C 49.029086 115.809314 50.796333 115.303178 51.604471 114.975127 C 54.108811 113.944108 56.03591 112.463192 56.284568 109.960629 C 56.533226 107.448694 56.817406 106.511405 59.446076 105.217946 C 62.598703 103.671419 63.469005 102.987198 65.156327 99.641076 C 66.834767 96.323072 66.781484 92.414576 66.994619 89.799539 C 67.261038 86.340942 71.914493 86.519027 75.253613 85.009991 C 78.690421 83.444718 83.086337 81.954429 85.164407 74.92476 C 86.194561 71.419298 86.73628 68.232515 86.381054 64.258409 C 86.025829 60.284303 85.830455 56.22584 87.970689 53.095295 C 90.110923 49.955376 91.682796 45.643845 91.087793 43.759894 C 90.49279 41.875943 87.233596 46.665491 86.816206 46.665491 Z M 86.816206 46.665491 " transform="matrix(0.439861,0,0,0.41676,-0.233969,-0.0264528)"/>
<path style="fill-rule:evenodd;fill:rgb(0%,53.333336%,0%);fill-opacity:1;stroke-width:1.25;stroke-linecap:round;stroke-linejoin:round;stroke:rgb(0%,0%,0%);stroke-opacity:1;stroke-miterlimit:4;" d="M 131.867689 28.875742 C 123.093617 27.722876 113.795588 20.983767 110.802812 21.011886 C 108.005411 21.536768 102.890163 25.267179 98.867233 26.429417 C 95.013036 27.535418 89.054127 25.389026 86.070232 26.701231 C 78.281911 30.131709 74.187937 35.99914 66.621632 39.917009 C 70.697846 42.906961 73.68174 43.581809 76.31929 45.447015 C 78.95684 47.31222 80.9017 50.536495 80.9017 50.536495 C 80.9017 50.536495 93.894075 42.494554 104.337707 40.516874 C 110.696245 39.551466 116.539705 40.610603 123.27123 41.472909 C 124.336906 35.914784 128.226626 32.934204 131.867689 28.875742 Z M 131.867689 28.875742 " transform="matrix(0.439861,0,0,0.41676,-0.233969,-0.0264528)"/>
<path style="fill:none;stroke-width:0.875;stroke-linecap:round;stroke-linejoin:round;stroke:rgb(0%,0%,0%);stroke-opacity:1;stroke-miterlimit:4;" d="M 128.883794 32.549916 C 122.152269 32.090644 117.374485 26.982418 111.619831 25.988891 C 109.577284 26.345061 104.950471 30.244184 100.652242 31.022134 C 95.670203 31.940678 89.302785 29.944252 87.002699 31.097117 C 82.944247 33.121662 76.674516 39.813907 72.216435 43.29125 " transform="matrix(0.439861,0,0,0.41676,-0.233969,-0.0264528)"/>
<path style="fill-rule:nonzero;fill:rgb(0%,53.333336%,100%);fill-opacity:1;stroke-width:1.25;stroke-linecap:round;stroke-linejoin:round;stroke:rgb(0%,0%,0%);stroke-opacity:1;stroke-miterlimit:4;" d="M 45.723234 136.77772 C 42.648969 135.150709 30.422785 129.914352 27.286503 132.439024 C 20.703855 137.750186 20.482366 141.836415 16.504427 158.480549 C 12.526487 175.124683 16.991702 189.992196 18.249759 192.69453 C 19.472377 195.303358 23.97303 207.253473 28.562279 206.533474 C 26.373969 205.00932 25.691784 199.838417 25.000738 197.715823 C 24.141362 195.088294 27.109312 181.464415 31.282162 166.026513 C 35.455011 150.597962 41.718716 142.238492 48.815218 141.406285 C 50.782039 141.172519 52.208427 141.47174 53.280433 141.995375 C 53.200697 141.705506 53.094382 141.453038 52.970348 141.247324 C 52.970348 141.247324 51.499663 139.844729 45.723234 136.77772 Z M 45.723234 136.77772 " transform="matrix(0.440908,0,0,0.417752,-0.233969,-0.256392)"/>
<path style="fill-rule:nonzero;fill:rgb(100%,100%,100%);fill-opacity:1;stroke-width:1.25;stroke-linecap:round;stroke-linejoin:round;stroke:rgb(0%,0%,0%);stroke-opacity:1;stroke-miterlimit:4;" d="M 56.44442 146.214975 C 56.44442 146.214975 56.027029 140.356918 48.922518 141.191105 C 41.809126 142.025293 35.539395 150.395285 31.356614 165.860557 C 27.173833 181.335201 24.607328 194.897776 25.06024 197.644033 C 25.921662 202.902225 26.756443 208.066689 30.521834 206.83884 C 34.189538 205.648482 37.208955 204.326905 39.304786 200.980782 C 41.391736 197.644033 49.339908 184.100204 51.844248 177.154891 C 54.357469 170.209578 58.12286 149.973505 56.44442 146.214975 Z M 56.44442 146.214975 " transform="matrix(0.439861,0,0,0.41676,-0.233969,-0.0264528)"/>
<path style="fill-rule:evenodd;fill:rgb(0%,53.333336%,100%);fill-opacity:1;stroke-width:0.935591;stroke-linecap:round;stroke-linejoin:round;stroke:rgb(0%,0%,0%);stroke-opacity:1;stroke-miterlimit:4;" d="M 52.032481 139.405028 C 51.813625 136.211409 46.849504 135.555536 44.440327 136.36644 C 39.821328 137.914227 31.004258 146.245924 31.285533 155.007373 C 34.686078 155.995319 42.812237 153.639438 42.812237 153.639438 C 56.724449 149.02451 52.282867 142.966548 52.032481 139.405028 Z M 52.032481 139.405028 " transform="matrix(0.398682,0.0843969,-0.0872553,0.385622,15.810062,2.440856)"/>
<path style="fill-rule:evenodd;fill:rgb(100%,93.333334%,0%);fill-opacity:1;stroke-width:0.935591;stroke-linecap:round;stroke-linejoin:round;stroke:rgb(0%,0%,0%);stroke-opacity:1;stroke-miterlimit:4;" d="M 54.642148 143.270707 C 54.642148 143.270707 54.874394 143.92896 51.960407 140.150144 C 47.249831 139.175408 40.943823 148.639073 42.752587 153.814569 C 46.063998 155.156304 47.62396 154.136199 47.62396 154.136199 Z M 54.642148 143.270707 " transform="matrix(0.398682,0.0843969,-0.0872553,0.385622,15.810062,2.440856)"/>
<path style="fill-rule:evenodd;fill:rgb(100%,86.666667%,86.666667%);fill-opacity:1;stroke-width:1.36643;stroke-linecap:round;stroke-linejoin:round;stroke:rgb(0%,0%,0%);stroke-opacity:1;stroke-miterlimit:4;" d="M 45.507126 183.912998 C 45.507126 183.912998 44.289511 182.724809 43.495991 181.502974 C 42.684659 180.242681 42.128654 177.104601 43.094578 176.5209 C 44.058387 175.927046 45.095419 176.62484 45.601203 177.923447 C 46.268528 179.621083 46.730295 180.238336 47.303921 180.734136 C 48.092393 181.414593 49.081781 183.623298 48.121863 184.141791 C 47.159829 184.650132 45.531286 183.981911 45.507126 183.912998 Z M 45.507126 183.912998 " transform="matrix(0.398682,0.0843969,-0.0830863,0.367197,13.309679,2.818427)"/>
<path style="fill-rule:evenodd;fill:rgb(100%,86.666667%,86.666667%);fill-opacity:1;stroke-width:1.36643;stroke-linecap:round;stroke-linejoin:round;stroke:rgb(0%,0%,0%);stroke-opacity:1;stroke-miterlimit:4;" d="M 49.231332 179.780513 C 48.669108 178.399137 48.479665 175.421481 49.532537 175.019918 C 50.585408 174.618354 51.485875 175.507106 51.741322 176.873889 C 53.620258 179.824923 52.294438 184.746551 49.231332 179.780513 Z M 49.231332 179.780513 " transform="matrix(0.398682,0.0843969,-0.0830863,0.367197,13.309679,2.818427)"/>
<path style="fill-rule:evenodd;fill:rgb(100%,86.666667%,86.666667%);fill-opacity:1;stroke-width:1.36643;stroke-linecap:round;stroke-linejoin:round;stroke:rgb(0%,0%,0%);stroke-opacity:1;stroke-miterlimit:4;" d="M 47.208369 181.639054 C 47.208369 181.639054 46.453002 180.036119 45.906474 178.683048 C 45.342134 177.29152 45.154807 174.324016 46.207679 173.922452 C 47.260551 173.520889 48.161017 174.409641 48.414349 175.766272 C 48.75142 177.571729 49.090748 178.259675 49.566983 178.852326 C 50.215545 179.660681 50.766708 182.023298 49.727077 182.347352 C 48.687445 182.671406 47.213828 181.712265 47.208369 181.639054 Z M 47.208369 181.639054 " transform="matrix(0.398682,0.0843969,-0.0830863,0.367197,13.309679,2.818427)"/>
<path style="fill-rule:evenodd;fill:rgb(100%,86.666667%,86.666667%);fill-opacity:1;stroke-width:1.36968;stroke-linecap:round;stroke-linejoin:round;stroke:rgb(0%,0%,0%);stroke-opacity:1;stroke-miterlimit:4;" d="M 62.600121 153.144606 C 63.435818 154.239729 64.530244 155.871114 64.731081 159.420604 C 64.943385 162.978097 56.588713 182.738301 53.038417 184.320242 C 49.480887 185.914483 43.77373 187.960244 42.75062 187.376269 C 41.658715 186.744278 42.000791 183.825304 43.574604 183.431663 C 46.434493 182.721154 48.214689 182.471562 49.053944 181.938251 C 49.891083 181.394787 51.534329 175.974681 51.542181 175.260128 C 51.538568 174.537574 50.373453 169.699115 50.83578 167.263127 C 51.124752 165.781853 51.92895 160.660974 53.427217 159.199619 C 52.335787 158.993039 51.960699 157.89843 51.954153 156.644648 C 51.959073 155.398869 52.403588 152.924423 54.248354 151.245134 C 56.085886 149.578146 57.393126 147.905384 59.522958 147.735002 C 61.025996 147.612941 62.38705 152.874437 62.600121 153.144606 Z M 62.600121 153.144606 " transform="matrix(0.398682,0.0843969,-0.0830863,0.367197,13.309679,2.818427)"/>
<path style="fill:none;stroke-width:0.958776;stroke-linecap:round;stroke-linejoin:round;stroke:rgb(0%,0%,0%);stroke-opacity:1;stroke-miterlimit:4;" d="M 56.545238 155.355393 C 56.168161 156.037789 53.66909 159.090837 53.201516 159.762119 " transform="matrix(0.398682,0.0843969,-0.0830863,0.367197,13.309679,2.818427)"/>
<path style="fill-rule:nonzero;fill:rgb(100%,100%,100%);fill-opacity:1;stroke-width:0.875;stroke-linecap:round;stroke-linejoin:round;stroke:rgb(0%,0%,0%);stroke-opacity:1;stroke-miterlimit:4;" d="M 39.09165 199.274916 C 39.09165 199.274916 47.608183 210.700471 53.12306 214.309035 C 58.637937 217.917598 63.149302 220.326431 63.149302 220.326431 L 79.756098 195.863183 Z M 39.09165 199.274916 " transform="matrix(0.439861,0,0,0.41676,-0.233969,-0.0264528)"/>
<path style="fill-rule:nonzero;fill:rgb(100%,93.333334%,0%);fill-opacity:1;stroke-width:0.875;stroke-linecap:round;stroke-linejoin:round;stroke:rgb(0%,0%,0%);stroke-opacity:1;stroke-miterlimit:4;" d="M 101.815605 162.430078 L 70.910981 209.210181 C 55.192249 208.160417 40.237253 200.09973 34.971034 196.828591 C 36.44522 192.826366 43.691822 177.051789 48.478486 171.362444 C 53.265151 165.673099 63.850873 156.871953 63.850873 156.871953 Z M 101.815605 162.430078 " transform="matrix(0.439861,0,0,0.41676,-0.233969,-0.0264528)"/>
<path style="fill-rule:nonzero;fill:rgb(100%,93.333334%,0%);fill-opacity:1;stroke-width:0.875;stroke-linecap:round;stroke-linejoin:round;stroke:rgb(0%,0%,0%);stroke-opacity:1;stroke-miterlimit:4;" d="M 66.488423 156.37519 C 66.488423 156.37519 48.416322 171.437427 45.015037 176.545653 C 41.604871 181.644506 40.556956 185.431155 40.556956 185.431155 C 40.556956 185.431155 49.828343 185.084358 54.020005 181.20398 C 58.211667 177.31423 61.719519 171.203105 64.863266 166.582269 C 68.007012 161.970806 73.717263 157.106276 73.717263 157.106276 Z M 66.488423 156.37519 " transform="matrix(0.439861,0,0,0.41676,-0.233969,-0.0264528)"/>
<path style="fill-rule:nonzero;fill:rgb(100%,0%,0%);fill-opacity:1;stroke-width:0.875;stroke-linecap:round;stroke-linejoin:round;stroke:rgb(0%,0%,0%);stroke-opacity:1;stroke-miterlimit:4;" d="M 64.499159 156.871953 C 64.499159 156.871953 54.357469 165.026369 50.902901 169.103577 C 47.572661 173.049565 42.857041 180.913421 42.857041 180.913421 C 42.857041 180.913421 50.592078 180.079233 53.940079 176.733111 C 57.2792 173.386989 59.961153 167.62266 62.927286 163.976605 C 65.644762 160.639856 70.165007 157.078157 70.165007 157.078157 Z M 64.499159 156.871953 " transform="matrix(0.439861,0,0,0.41676,-0.233969,-0.0264528)"/>
<path style="fill-rule:nonzero;fill:rgb(100%,93.333334%,0%);fill-opacity:1;stroke-width:0.874999;stroke-linecap:round;stroke-linejoin:round;stroke:rgb(0%,0%,0%);stroke-opacity:1;stroke-miterlimit:4;" d="M 74.321146 156.103376 C 74.321146 156.103376 66.941335 162.748756 63.282512 168.381864 C 60.289736 173.0027 58.886595 175.149092 58.54025 183.650305 C 58.247189 190.970534 67.118948 192.732637 70.20941 188.927243 C 73.299873 185.112476 72.926886 175.852059 75.360181 170.462646 C 78.788108 162.842485 82.42917 162.373841 83.050815 159.768177 C 79.391991 157.471818 75.147046 156.450173 74.321146 156.103376 Z M 74.321146 156.103376 " transform="matrix(0.439861,0,0,0.41676,-0.233969,-0.0264528)"/>
<path style="fill-rule:nonzero;fill:rgb(0%,53.333336%,100%);fill-opacity:1;stroke-width:0.875;stroke-linecap:round;stroke-linejoin:round;stroke:rgb(0%,0%,0%);stroke-opacity:1;stroke-miterlimit:4;" d="M 74.552043 159.140193 C 74.552043 159.140193 67.376486 166.188608 65.156327 170.209578 C 63.326915 173.499463 62.092506 174.436753 61.879371 180.501014 C 61.701758 185.721714 67.110067 186.977682 68.992763 184.259543 C 70.875458 181.541405 70.644562 174.933516 72.127628 171.09063 C 74.214579 165.654353 78.290792 160.883551 79.23214 160.180584 C 77.349444 159.177685 75.049359 159.383888 74.552043 159.140193 Z M 74.552043 159.140193 " transform="matrix(0.439861,0,0,0.41676,-0.233969,-0.0264528)"/>
<path style="fill-rule:nonzero;fill:rgb(100%,93.333334%,0%);fill-opacity:1;stroke-width:0.875;stroke-linecap:round;stroke-linejoin:round;stroke:rgb(0%,0%,0%);stroke-opacity:1;stroke-miterlimit:4;" d="M 82.517976 160.424279 C 73.699502 166.975931 70.351501 182.028795 72.189793 187.062038 C 74.019205 192.104654 77.225115 193.529333 81.487822 191.345449 C 86.60307 188.72104 86.825086 181.447676 87.686508 175.655229 C 88.54793 169.862781 91.567348 164.848284 91.567348 164.848284 Z M 82.517976 160.424279 " transform="matrix(0.439861,0,0,0.41676,-0.233969,-0.0264528)"/>
<path style="fill-rule:nonzero;fill:rgb(100%,0%,0%);fill-opacity:1;stroke-width:0.875;stroke-linecap:round;stroke-linejoin:round;stroke:rgb(0%,0%,0%);stroke-opacity:1;stroke-miterlimit:4;" d="M 83.414921 163.142418 C 77.97997 168.578695 73.424202 180.501014 74.552043 184.681323 C 75.679884 188.861633 79.054527 189.067837 82.073944 186.555902 C 85.084481 184.05334 84.143133 177.989079 84.667091 173.180785 C 85.199929 168.372492 88.228227 164.820166 88.228227 164.820166 Z M 83.414921 163.142418 " transform="matrix(0.439861,0,0,0.41676,-0.233969,-0.0264528)"/>
<path style="fill:none;stroke-width:0.875;stroke-linecap:round;stroke-linejoin:round;stroke:rgb(0%,0%,0%);stroke-opacity:1;stroke-miterlimit:4;" d="M 81.088193 193.6793 C 75.964065 193.473096 63.486766 191.917196 60.041078 191.157992 C 53.265151 189.667702 42.812638 187.23075 39.882027 185.768579 " transform="matrix(0.439861,0,0,0.41676,-0.233969,-0.0264528)"/>
<path style="fill:none;stroke-width:0.875;stroke-linecap:round;stroke-linejoin:round;stroke:rgb(0%,0%,0%);stroke-opacity:1;stroke-miterlimit:4;" d="M 75.821974 201.543156 C 70.724487 201.046393 59.756898 199.424882 56.302329 198.693797 C 49.934911 197.3441 40.05964 193.182536 37.217836 191.561026 " transform="matrix(0.439861,0,0,0.41676,-0.233969,-0.0264528)"/>
<path style="fill-rule:nonzero;fill:rgb(0%,0%,0%);fill-opacity:1;stroke-width:0.875;stroke-linecap:round;stroke-linejoin:round;stroke:rgb(0%,0%,0%);stroke-opacity:1;stroke-miterlimit:4;" d="M 36.374175 194.29791 C 38.94068 194.607216 42.652787 194.710318 42.652787 194.710318 C 43.434283 195.966285 46.826687 198.890627 46.826687 198.890627 L 40.61024 199.153068 Z M 36.374175 194.29791 " transform="matrix(0.439861,0,0,0.41676,-0.233969,-0.0264528)"/>
<path style="fill-rule:nonzero;fill:rgb(0%,0%,0%);fill-opacity:1;stroke-width:0.875;stroke-linecap:round;stroke-linejoin:round;stroke:rgb(0%,0%,0%);stroke-opacity:1;stroke-miterlimit:4;" d="M 48.007812 199.274916 C 50.938423 199.368645 55.147846 199.106204 55.147846 199.106204 C 56.16912 200.493392 60.33414 203.558328 60.33414 203.558328 L 53.327315 204.523735 Z M 48.007812 199.274916 " transform="matrix(0.439861,0,0,0.41676,-0.233969,-0.0264528)"/>
<path style="fill-rule:nonzero;fill:rgb(0%,0%,0%);fill-opacity:1;stroke-width:0.875;stroke-linecap:round;stroke-linejoin:round;stroke:rgb(0%,0%,0%);stroke-opacity:1;stroke-miterlimit:4;" d="M 71.18559 201.78335 C 71.18559 201.78335 65.373723 203.10179 61.254031 203.69088 L 69.99841 208.590614 L 71.690585 208.09503 L 74.56108 203.625425 C 73.17013 202.970881 71.841197 202.288284 71.18559 201.78335 Z M 71.18559 201.78335 " transform="matrix(0.440908,0,0,0.417752,-0.233969,-0.256392)"/>
<path style="fill-rule:evenodd;fill:rgb(0%,0%,0%);fill-opacity:1;stroke-width:1.25;stroke-linecap:round;stroke-linejoin:round;stroke:rgb(0%,0%,0%);stroke-opacity:1;stroke-miterlimit:4;" d="M 67.686067 145.969396 C 67.588611 145.969396 67.544314 145.978747 67.535454 145.997448 C 67.535454 145.997448 68.279657 150.018222 66.684937 152.589647 C 64.992762 155.338735 63.468919 157.657693 63.468919 157.657693 C 63.468919 157.657693 73.382759 157.517433 80.842503 161.940285 C 85.458331 164.670671 91.916945 167.662875 96.3733 169.65456 L 102.964808 159.406262 C 102.256044 159.050938 93.573682 154.768346 88.408562 152.159518 C 80.381807 148.101342 69.183331 145.941344 67.686067 145.969396 Z M 67.686067 145.969396 " transform="matrix(0.440908,0,0,0.417752,-0.233969,-0.256392)"/>
<path style="fill:none;stroke-width:1;stroke-linecap:butt;stroke-linejoin:miter;stroke:rgb(0%,0%,0%);stroke-opacity:1;stroke-miterlimit:4;" d="M 84.249701 163.142418 C 83.974401 163.142418 83.974401 163.142418 84.249701 163.142418 Z M 84.249701 163.142418 " transform="matrix(0.439861,0,0,0.41676,-0.233969,-0.0264528)"/>
<path style="fill:none;stroke-width:1;stroke-linecap:butt;stroke-linejoin:miter;stroke:rgb(0%,0%,0%);stroke-opacity:1;stroke-miterlimit:4;" d="M 84.249701 161.680247 C 84.533881 161.680247 84.533881 161.680247 84.249701 161.680247 Z M 84.249701 161.680247 " transform="matrix(0.439861,0,0,0.41676,-0.233969,-0.0264528)"/>
<path style="fill:none;stroke-width:0.875;stroke-linecap:round;stroke-linejoin:round;stroke:rgb(0%,0%,0%);stroke-opacity:1;stroke-miterlimit:4;" d="M 37.617464 182.975457 C 37.617464 182.975457 38.647619 185.431155 37.28 185.918545 C 35.903501 186.396563 36.063352 188.814769 36.063352 188.814769 C 36.063352 188.814769 32.653187 186.762105 33.727744 185.543629 C 34.722376 184.40951 34.518121 182.553677 34.518121 182.553677 " transform="matrix(0.439861,0,0,0.41676,-0.233969,-0.0264528)"/>
<path style="fill:none;stroke-width:0.875;stroke-linecap:round;stroke-linejoin:round;stroke:rgb(0%,0%,0%);stroke-opacity:1;stroke-miterlimit:4;" d="M 33.967522 197.709643 C 33.967522 197.709643 35.388424 199.96851 34.109612 200.662104 C 32.83968 201.365071 33.381399 203.717667 33.381399 203.717667 C 33.381399 203.717667 29.687054 202.246123 30.548476 200.877681 C 31.347733 199.593594 30.841537 197.793999 30.841537 197.793999 " transform="matrix(0.439861,0,0,0.41676,-0.233969,-0.0264528)"/>
<path style="fill:none;stroke-width:0.875;stroke-linecap:round;stroke-linejoin:round;stroke:rgb(0%,0%,0%);stroke-opacity:1;stroke-miterlimit:4;" d="M 42.066665 160.836686 C 42.066665 160.836686 42.510697 163.461096 41.063152 163.620435 C 39.624489 163.779775 39.22486 166.160489 39.22486 166.160489 C 39.22486 166.160489 36.365294 163.386113 37.688509 162.448824 C 38.922918 161.577145 39.144934 159.711939 39.144934 159.711939 " transform="matrix(0.439861,0,0,0.41676,-0.233969,-0.0264528)"/>
<path style="fill:none;stroke-width:0.875;stroke-linecap:round;stroke-linejoin:round;stroke:rgb(0%,0%,0%);stroke-opacity:1;stroke-miterlimit:4;" d="M 28.363838 189.780177 C 28.363838 189.780177 27.067265 192.114027 28.3816 192.74201 C 29.695934 193.369994 29.278544 195.750709 29.278544 195.750709 C 29.278544 195.750709 32.892964 194.072961 31.951617 192.751383 C 31.081314 191.523534 31.489823 189.686448 31.489823 189.686448 " transform="matrix(0.439861,0,0,0.41676,-0.233969,-0.0264528)"/>
<path style="fill-rule:nonzero;fill:rgb(0%,0%,0%);fill-opacity:1;stroke-width:0.875;stroke-linecap:round;stroke-linejoin:round;stroke:rgb(0%,0%,0%);stroke-opacity:1;stroke-miterlimit:4;" d="M 43.845008 136.77772 C 42.914755 136.768369 41.931345 136.843174 40.84162 137.030187 C 32.168117 138.53564 25.071615 147.886277 21.093675 164.530411 C 17.115736 181.174545 16.991702 189.992196 18.249759 192.69453 C 19.472377 195.303358 23.97303 207.253473 28.562279 206.533474 C 26.373969 205.00932 25.541171 201.399974 25.000738 197.715823 C 24.37171 193.461283 27.109312 181.464415 31.282162 166.026513 C 35.455011 150.597962 41.718716 142.238492 48.815218 141.406285 C 50.782039 141.172519 52.208427 141.47174 53.280433 141.995375 C 53.200697 141.705506 53.094382 141.453038 52.970348 141.247324 C 52.970348 141.247324 50.321342 136.861876 43.845008 136.77772 Z M 43.845008 136.77772 " transform="matrix(0.440908,0,0,0.417752,-0.233969,-0.256392)"/>
<path style="fill-rule:nonzero;fill:rgb(100%,93.333334%,0%);fill-opacity:1;stroke-width:0.875;stroke-linecap:round;stroke-linejoin:round;stroke:rgb(0%,0%,0%);stroke-opacity:1;stroke-miterlimit:4;" d="M 20.460069 196.14437 L 24.163296 202.208631 C 22.493736 195.731963 22.27172 189.367769 22.27172 189.367769 L 26.072633 186.124749 L 24.021206 179.151317 L 28.834512 174.268041 L 26.552188 164.951386 C 28.328316 162.739384 32.884084 160.602364 32.884084 160.602364 L 31.560868 150.648353 C 31.560868 150.648353 33.958641 148.155164 39.873147 146.68362 L 40.086282 140.853681 C 40.086282 140.853681 46.702358 140.197579 52.030742 140.647477 C 52.963209 140.722461 48.958041 138.126169 48.958041 138.126169 C 44.526602 137.535677 37.42209 137.910593 37.42209 137.910593 L 36.791565 144.584092 C 32.653187 145.465144 28.275032 148.548825 28.275032 148.548825 L 29.154215 158.502836 C 29.154215 158.502836 25.237853 160.19933 22.422691 162.861231 L 24.50076 171.962309 L 19.678573 176.836213 L 21.730001 183.819017 L 17.937968 187.052665 C 17.937968 187.052665 18.577374 192.582671 20.460069 196.14437 Z M 20.460069 196.14437 " transform="matrix(0.439861,0,0,0.41676,-0.233969,-0.0264528)"/>
<path style="fill-rule:nonzero;fill:rgb(100%,0%,0%);fill-opacity:1;stroke-width:0.875;stroke-linecap:round;stroke-linejoin:round;stroke:rgb(0%,0%,0%);stroke-opacity:1;stroke-miterlimit:4;" d="M 53.813409 110.804316 C 53.813409 110.804316 52.623403 111.69474 46.859868 116.128118 C 41.096333 120.561496 38.529829 123.52333 35.084141 125.885299 C 31.638453 128.247268 29.711354 130.243693 27.944107 132.690018 C 26.167979 135.12697 24.223119 142.447199 30.07546 145.990152 C 35.918921 149.542478 50.705185 146.224474 54.701473 143.178284 C 58.68888 140.132094 61.202101 138.59494 61.202101 138.59494 C 61.202101 138.59494 61.646133 138.59494 64.159354 141.406808 C 66.672574 144.218675 68.146761 146.880577 68.146761 146.880577 L 101.111693 163.433104 L 120.9244 131.209101 Z M 53.813409 110.804316 " transform="matrix(-0.439861,0.000000000000000051,-0.000000000000000054,-0.41676,90.37747,131.253068)"/>
<path style="fill:none;stroke-width:0.875;stroke-linecap:round;stroke-linejoin:round;stroke:rgb(0%,0%,0%);stroke-opacity:1;stroke-miterlimit:4;" d="M 65.153985 120.092852 C 65.153985 120.092852 66.761381 127.234995 66.228543 130.112473 C 65.153985 135.942412 61.05113 138.59494 61.05113 138.59494 C 61.05113 138.59494 61.965836 133.130544 61.05113 130.909169 C 60.145305 128.697166 57.951787 125.885299 57.951787 125.885299 " transform="matrix(-0.439861,0.000000000000000051,-0.000000000000000054,-0.41676,90.37747,131.253068)"/>
<path style="fill-rule:nonzero;fill:rgb(100%,93.333334%,0%);fill-opacity:1;stroke-width:1.25;stroke-linecap:round;stroke-linejoin:round;stroke:rgb(0%,0%,0%);stroke-opacity:1;stroke-miterlimit:4;" d="M 133.170801 96.660622 C 132.486992 96.388808 125.089419 90.858802 118.198043 89.13419 C 109.26412 86.903442 95.9254 94.15806 77.142848 95.929536 C 85.002214 107.486312 93.678598 124.573094 91.813664 154.556975 C 90.819033 170.612739 97.426228 169.000601 97.426228 169.000601 L 139.023142 102.931087 Z M 133.170801 96.660622 " transform="matrix(-0.439861,0.000000000000000051,-0.000000000000000054,-0.41676,90.37747,131.253068)"/>
<path style="fill-rule:nonzero;fill:rgb(100%,0%,0%);fill-opacity:1;stroke-width:1.25;stroke-linecap:round;stroke-linejoin:round;stroke:rgb(0%,0%,0%);stroke-opacity:1;stroke-miterlimit:4;" d="M 111.928312 87.297103 C 114.352727 87.737629 118.508866 88.84363 122.407466 92.274109 C 125.746587 95.207824 124.911807 99.481862 124.290162 101.993797 C 123.659636 104.505732 121.199699 108.470466 116.954754 109.623331 C 118.251327 111.254215 119.015062 111.394808 118.277969 113.494336 C 117.567518 115.537626 114.299443 116.240593 112.896302 114.244167 C 111.715177 112.557047 112.789734 111.010519 112.789734 111.010519 C 112.789734 111.010519 109.450614 112.041537 104.370888 111.488537 C 99.042505 110.898045 97.230854 110.063857 91.218661 105.04936 C 85.197588 100.044236 80.961523 96.4263 77.44479 94.964129 C 78.768005 93.426974 80.073459 91.655498 80.801672 90.643225 Z M 111.928312 87.297103 " transform="matrix(-0.439861,0.000000000000000051,-0.000000000000000054,-0.41676,90.37747,131.253068)"/>
<path style="fill-rule:nonzero;fill:rgb(100%,86.666667%,86.666667%);fill-opacity:1;stroke-width:1.25;stroke-linecap:round;stroke-linejoin:round;stroke:rgb(0%,0%,0%);stroke-opacity:1;stroke-miterlimit:4;" d="M 114.059665 91.083751 C 114.059665 91.083751 119.343646 93.951856 119.654468 96.660622 C 120.187307 101.22522 118.322372 105.124343 112.789734 106.595887 C 107.257096 108.058058 101.102813 106.933311 93.216805 100.531626 C 91.822545 99.397506 81.503242 92.208498 80.188907 91.543023 C 80.872717 89.987123 84.646988 85.319423 84.602585 80.567367 C 84.53154 74.48436 83.385938 70.978898 82.382425 65.514502 C 81.378913 60.040733 81.60981 53.601557 83.661237 49.514976 C 84.869004 47.106143 88.465663 38.979845 100.498929 35.971147 C 112.523315 32.962449 117.851698 33.796636 120.284994 36.346063 C 122.718289 38.895489 123.29553 41.904188 123.29553 41.904188 L 115.276313 81.504656 C 115.276313 81.504656 114.352727 83.304251 113.731082 87.428323 C 113.313692 90.183954 115.276313 95.029739 115.276313 95.029739 " transform="matrix(-0.439861,0.000000000000000051,-0.000000000000000054,-0.41676,90.37747,131.253068)"/>
<path style="fill-rule:nonzero;fill:rgb(100%,86.666667%,86.666667%);fill-opacity:1;stroke-width:1.25;stroke-linecap:round;stroke-linejoin:round;stroke:rgb(0%,0%,0%);stroke-opacity:1;stroke-miterlimit:4;" d="M 122.718289 40.901288 C 122.718289 40.901288 124.325684 43.094545 124.81412 44.500479 C 125.293674 45.915785 122.815976 49.758671 122.815976 50.761571 C 122.815976 51.76447 125.826512 54.060828 126.830025 55.541745 C 127.824656 57.022662 129.53862 58.044307 129.876084 59.993869 C 129.050184 61.727854 125.995245 62.965076 125.222629 63.733653 C 124.672029 66.001893 127.300699 68.963726 125.293674 69.966626 C 123.29553 70.969525 123.29553 70.969525 123.29553 70.969525 C 123.29553 70.969525 124.876284 69.826033 125.293674 74.400004 C 125.613377 77.839855 126.368231 79.798789 122.824856 81.401554 C 119.281481 83.004319 114.308323 81.870199 107.257096 79.99562 C 101.280426 78.402229 100.241391 77.989821 100.241391 77.989821 " transform="matrix(-0.439861,0.000000000000000051,-0.000000000000000054,-0.41676,90.37747,131.253068)"/>
<path style="fill-rule:nonzero;fill:rgb(100%,93.333334%,0%);fill-opacity:1;stroke-width:0.875;stroke-linecap:round;stroke-linejoin:round;stroke:rgb(0%,0%,0%);stroke-opacity:1;stroke-miterlimit:4;" d="M 101.866548 45.090971 C 101.866548 45.090971 99.086908 53.507828 96.973316 53.910862 C 95.010694 55.063728 97.568318 58.447342 103.01215 56.975798 C 106.120374 56.404051 106.928512 51.558266 108.15404 48.437093 C 110.889277 41.454289 112.887421 35.371282 112.292418 33.487331 C 111.688535 31.60338 102.275057 33.852874 101.866548 45.090971 Z M 101.866548 45.090971 " transform="matrix(-0.439861,0.000000000000000051,-0.000000000000000054,-0.41676,90.37747,131.253068)"/>
<path style="fill-rule:nonzero;fill:rgb(100%,93.333334%,53.333336%);fill-opacity:1;stroke-width:0.875;stroke-linecap:round;stroke-linejoin:round;stroke:rgb(0%,0%,0%);stroke-opacity:1;stroke-miterlimit:4;" d="M 93.518747 48.465212 C 93.518747 48.465212 94.53114 56.132238 92.604041 56.975798 C 90.206268 58.016189 92.248815 64.689688 97.799215 61.493532 C 99.770717 60.368785 99.921688 56.835204 101.227142 54.304524 C 103.616034 49.674315 105.267833 43.553817 105.409923 37.695759 C 105.454326 35.727452 93.509866 39.626575 93.518747 48.465212 Z M 93.518747 48.465212 " transform="matrix(-0.439861,0.000000000000000051,-0.000000000000000054,-0.41676,90.37747,131.253068)"/>
<path style="fill-rule:nonzero;fill:rgb(100%,93.333334%,0%);fill-opacity:1;stroke-width:1.25;stroke-linecap:round;stroke-linejoin:round;stroke:rgb(0%,0%,0%);stroke-opacity:1;stroke-miterlimit:4;" d="M 82.711009 48.221517 C 82.711009 48.221517 82.231454 49.383755 81.387794 56.038509 C 80.535252 62.693262 80.384281 66.386181 76.041649 72.600409 C 72.018719 78.345991 69.11475 78.420974 64.301444 79.901891 C 53.236167 83.304251 50.456527 86.013017 49.683912 89.949631 C 48.911296 93.886246 50.048018 97.991573 54.079828 98.432099 C 58.111638 98.881997 59.603586 97.579165 60.536053 95.657723 C 61.46852 93.73628 61.157698 91.374311 58.209325 91.664871 C 56.149017 91.871074 56.966036 94.073704 55.882598 94.073704 C 54.79916 94.073704 53.999902 94.036212 53.54699 92.845855 C 52.792135 90.868175 53.893335 89.987123 56.042449 88.71241 C 57.925145 87.587663 62.676287 85.919288 69.319005 83.538573 C 75.420004 81.345317 81.423316 77.802364 82.790935 75.946531 C 85.801471 71.869323 84.123031 62.908838 84.877885 59.731428 C 85.659381 56.479035 89.069547 45.690836 86.582968 45.54087 C 84.105269 45.400276 83.794447 47.171753 82.711009 48.221517 Z M 82.711009 48.221517 " transform="matrix(-0.439861,0.000000000000000051,-0.000000000000000054,-0.41676,90.37747,131.253068)"/>
<path style="fill-rule:nonzero;fill:rgb(100%,93.333334%,53.333336%);fill-opacity:1;stroke-width:1.25;stroke-linecap:round;stroke-linejoin:round;stroke:rgb(0%,0%,0%);stroke-opacity:1;stroke-miterlimit:4;" d="M 81.325629 49.411874 C 81.325629 49.411874 79.238679 51.923809 78.395018 57.153883 C 77.560238 62.374584 78.359496 67.342216 76.938593 69.488608 C 74.585224 73.022189 71.077372 74.081325 66.272946 75.759073 C 61.46852 77.427448 58.751044 81.663995 58.96418 86.44417 C 59.177315 91.552396 59.150673 95.985774 57.907384 97.288606 C 56.637452 98.619556 53.200645 99.969253 51.007127 101.890696 C 48.112038 104.430749 49.976973 104.768173 48.307413 107.898719 C 46.637852 111.038638 43.955899 110.045112 44.533141 112.34147 C 45.110382 114.637829 47.179571 114.366015 47.668007 113.803641 C 49.870405 111.254215 52.055042 111.301079 52.268178 108.789144 C 52.472432 106.277209 52.214894 104.683817 55.127743 103.98085 C 58.537909 103.165409 61.042249 103.774647 62.507555 97.288606 C 63.97286 90.811937 63.955099 87.77512 64.026144 85.000744 C 64.132712 80.979774 70.251472 79.386382 71.903271 79.105195 C 74.301044 78.683415 80.490849 76.940057 81.538765 73.453342 C 82.577799 69.966626 82.995189 66.77047 82.577799 62.796364 C 82.160409 58.822258 82.790935 55.063728 84.877885 51.923809 C 86.973716 48.78389 89.504698 47.284228 88.874173 45.400276 C 88.252528 43.516325 81.743019 49.411874 81.325629 49.411874 Z M 81.325629 49.411874 " transform="matrix(-0.439861,0.000000000000000051,-0.000000000000000054,-0.41676,90.37747,131.253068)"/>
<path style="fill-rule:nonzero;fill:rgb(100%,93.333334%,53.333336%);fill-opacity:1;stroke-width:0.875;stroke-linecap:round;stroke-linejoin:round;stroke:rgb(0%,0%,0%);stroke-opacity:1;stroke-miterlimit:4;" d="M 86.61849 78.467839 C 86.485281 82.395081 91.458439 83.491709 90.730226 91.543023 C 90.286194 96.520029 96.111894 95.517129 96.360551 94.317399 C 97.417348 89.302902 102.976628 95.807689 97.239735 99.106947 C 92.364264 101.909441 85.481768 97.794742 85.597217 93.211398 C 85.712665 88.234392 80.961523 87.072154 79.913608 84.354015 C 76.032768 74.278156 86.849387 71.456916 86.61849 78.467839 Z M 86.61849 78.467839 " transform="matrix(-0.439861,0.000000000000000051,-0.000000000000000054,-0.41676,90.37747,131.253068)"/>
<path style="fill-rule:nonzero;fill:rgb(100%,93.333334%,0%);fill-opacity:1;stroke-width:0.875;stroke-linecap:round;stroke-linejoin:round;stroke:rgb(0%,0%,0%);stroke-opacity:1;stroke-miterlimit:4;" d="M 88.865292 74.962377 C 88.119318 78.824009 95.117262 79.770671 93.14576 87.606408 C 91.929112 92.461566 97.834738 92.37721 98.27877 91.224345 C 100.099301 86.434797 104.575143 93.73628 98.394218 96.098248 C 93.136879 98.104047 86.982596 92.967703 87.808496 88.459342 C 88.70544 83.557319 84.194076 81.663995 83.581312 78.814636 C 81.325629 68.26076 90.188507 68.073302 88.865292 74.962377 Z M 88.865292 74.962377 " transform="matrix(-0.439861,0.000000000000000051,-0.000000000000000054,-0.41676,90.37747,131.253068)"/>
<path style="fill-rule:nonzero;fill:rgb(100%,93.333334%,0%);fill-opacity:1;stroke-width:0.875;stroke-linecap:round;stroke-linejoin:round;stroke:rgb(0%,0%,0%);stroke-opacity:1;stroke-miterlimit:4;" d="M 88.394618 66.039384 C 88.083796 71.025763 89.371488 72.459815 88.865292 74.962377 C 88.083796 78.814636 95.117262 79.770671 93.14576 87.606408 C 91.929112 92.461566 97.834738 92.37721 98.27877 91.224345 C 100.099301 86.434797 104.575143 93.73628 98.394218 96.098248 C 93.136879 98.104047 86.982596 92.967703 87.808496 88.459342 C 88.70544 83.557319 85.23311 81.242215 83.581312 78.814636 C 81.423316 75.627853 82.755412 71.635001 83.670118 66.911063 C 84.593704 62.159007 88.643276 62.16838 88.394618 66.039384 Z M 88.394618 66.039384 " transform="matrix(-0.439861,0.000000000000000051,-0.000000000000000054,-0.41676,90.37747,131.253068)"/>
<path style="fill-rule:nonzero;fill:rgb(0%,53.333336%,0%);fill-opacity:1;stroke-width:0.875;stroke-linecap:round;stroke-linejoin:round;stroke:rgb(0%,0%,0%);stroke-opacity:1;stroke-miterlimit:4;" d="M 119.556826 51.190421 C 119.565707 52.32454 119.183839 53.383677 118.562195 53.955424 C 117.931669 54.52717 117.159054 54.52717 116.528528 53.955424 C 115.906884 53.383677 115.525016 52.32454 115.533897 51.190421 C 115.525016 50.056301 115.906884 48.997164 116.528528 48.425417 C 117.159054 47.853671 117.931669 47.853671 118.562195 48.425417 C 119.183839 48.997164 119.565707 50.056301 119.556826 51.190421 Z M 119.556826 51.190421 " transform="matrix(-0.439861,0.000000000000000051,-0.000000000000000054,-0.41676,90.248584,131.54117)"/>
<path style="fill:none;stroke-width:0.875;stroke-linecap:round;stroke-linejoin:round;stroke:rgb(0%,0%,0%);stroke-opacity:1;stroke-miterlimit:4;" d="M 119.81432 45.465887 C 119.81432 45.465887 118.277969 43.909987 116.279825 43.909987 C 114.272801 43.909987 112.265776 46.496905 112.265776 46.496905 " transform="matrix(-0.439861,0.000000000000000051,-0.000000000000000054,-0.41676,90.37747,131.253068)"/>
<path style="fill-rule:nonzero;fill:rgb(100%,86.666667%,86.666667%);fill-opacity:1;stroke-width:1.25;stroke-linecap:round;stroke-linejoin:round;stroke:rgb(0%,0%,0%);stroke-opacity:1;stroke-miterlimit:4;" d="M 123.881652 70.678966 C 123.881652 70.678966 122.478511 71.606882 120.134023 70.828932 C 117.132367 69.826033 115.915719 70.735203 115.915719 70.735203 " transform="matrix(-0.439861,0.000000000000000051,-0.000000000000000054,-0.41676,90.37747,131.253068)"/>
<path style="fill-rule:nonzero;fill:rgb(0%,53.333336%,0%);fill-opacity:1;stroke-width:1.25;stroke-linecap:round;stroke-linejoin:round;stroke:rgb(0%,0%,0%);stroke-opacity:1;stroke-miterlimit:4;" d="M 133.129251 96.504651 C 133.129251 96.504651 133.191268 96.532703 133.191268 96.532703 C 133.182409 96.514002 133.182409 96.48595 133.129251 96.504651 Z M 133.191268 96.560755 C 132.987499 97.2153 123.622951 104.536848 115.374707 118.590856 C 109.367929 128.820453 107.649176 139.695244 107.649176 139.695244 L 112.008076 144.969004 L 140.314349 101.151918 C 137.151489 99.188284 133.279864 96.626209 133.191268 96.560755 Z M 133.191268 96.560755 " transform="matrix(-0.440908,0.000000000000000051,-0.000000000000000054,-0.417752,90.37747,131.483007)"/>
<path style="fill-rule:nonzero;fill:rgb(0%,53.333336%,100%);fill-opacity:1;stroke-width:0.875;stroke-linecap:round;stroke-linejoin:round;stroke:rgb(0%,0%,0%);stroke-opacity:1;stroke-miterlimit:4;" d="M 74.176715 118.546324 C 74.176715 118.546324 77.72897 127.872352 79.354127 133.617935 C 80.970404 139.354144 82.249216 150.104851 82.249216 150.104851 C 82.249216 150.104851 85.339678 153.366618 84.94893 152.288735 C 84.558182 151.210853 84.940049 140.750705 81.627571 129.043963 C 78.315093 117.36534 77.649045 117.07478 77.649045 117.07478 Z M 74.176715 118.546324 " transform="matrix(-0.439861,0.000000000000000051,-0.000000000000000054,-0.41676,90.37747,131.253068)"/>
<path style="fill-rule:nonzero;fill:rgb(100%,93.333334%,0%);fill-opacity:1;stroke-width:0.875;stroke-linecap:round;stroke-linejoin:round;stroke:rgb(0%,0%,0%);stroke-opacity:1;stroke-miterlimit:4;" d="M 63.768605 112.547674 C 63.768605 112.547674 60.003214 119.661699 56.237823 122.586041 C 52.472432 125.510383 48.97346 128.022318 47.037481 131.162237 C 45.110382 134.292783 43.27209 137.432702 43.27209 137.432702 L 36.584969 135.754954 C 36.584969 135.754954 38.885054 129.906269 40.554614 127.816115 C 42.233055 125.72596 48.982341 120.289682 51.850788 116.94356 C 54.710353 113.597438 56.655213 109.623331 56.655213 109.623331 Z M 63.768605 112.547674 " transform="matrix(-0.439861,0.000000000000000051,-0.000000000000000054,-0.41676,90.37747,131.253068)"/>
<path style="fill:none;stroke-width:0.875;stroke-linecap:round;stroke-linejoin:round;stroke:rgb(0%,0%,0%);stroke-opacity:1;stroke-miterlimit:4;" d="M 56.006927 112.810115 L 54.603786 120.467767 L 46.842107 121.845582 L 44.328886 130.487389 L 37.819378 133.364866 " transform="matrix(-0.439861,0.000000000000000051,-0.000000000000000054,-0.41676,90.37747,131.253068)"/>
<path style="fill:none;stroke-width:0.875;stroke-linecap:round;stroke-linejoin:round;stroke:rgb(0%,0%,0%);stroke-opacity:1;stroke-miterlimit:4;" d="M 58.049474 113.663048 L 56.371033 122.436075 L 48.751445 123.842008 L 46.335911 132.249492 L 37.703929 135.689344 " transform="matrix(-0.439861,0.000000000000000051,-0.000000000000000054,-0.41676,90.37747,131.253068)"/>
<path style="fill-rule:nonzero;fill:rgb(0%,53.333336%,100%);fill-opacity:1;stroke-width:0.875;stroke-linecap:round;stroke-linejoin:round;stroke:rgb(0%,0%,0%);stroke-opacity:1;stroke-miterlimit:4;" d="M 103.695959 129.062709 C 103.695959 129.062709 104.53074 137.845109 104.11335 143.075182 C 103.695959 148.305256 101.280426 157.462571 101.280426 157.462571 C 101.280426 157.462571 103.065434 161.192982 103.065434 160.18071 C 103.065434 159.168438 105.996045 153.11355 106.830825 142.447199 C 107.665605 131.818339 108.082995 129.062709 108.082995 129.062709 Z M 103.695959 129.062709 " transform="matrix(-0.439861,0.000000000000000051,-0.000000000000000054,-0.41676,90.37747,131.253068)"/>
<path style="fill-rule:nonzero;fill:rgb(0%,53.333336%,0%);fill-opacity:1;stroke-width:1.25;stroke-linecap:round;stroke-linejoin:round;stroke:rgb(0%,0%,0%);stroke-opacity:1;stroke-miterlimit:4;" d="M 77.773374 95.029739 C 77.773374 95.029739 68.493106 98.900743 65.855556 101.056508 C 60.527172 105.396157 53.458183 111.085503 53.458183 111.085503 C 53.458183 111.085503 80.703984 120.917666 90.215149 128.022318 C 99.726314 135.12697 111.848386 145.146592 111.848386 145.146592 L 117.079083 138.894873 C 117.079083 138.894873 109.39733 124.179432 100.978484 114.637829 C 88.643276 100.662847 76.521203 94.992247 77.773374 95.029739 Z M 77.773374 95.029739 " transform="matrix(-0.439861,0.000000000000000051,-0.000000000000000054,-0.41676,90.37747,131.253068)"/>
<path style="fill-rule:nonzero;fill:rgb(100%,93.333334%,0%);fill-opacity:1;stroke-width:0.875;stroke-linecap:round;stroke-linejoin:round;stroke:rgb(0%,0%,0%);stroke-opacity:1;stroke-miterlimit:4;" d="M 88.643276 56.750848 C 88.643276 56.750848 89.629027 64.736552 87.524315 65.14896 C 84.442734 65.748825 83.661237 65.983147 83.297131 68.541946 C 82.000558 77.72738 83.998702 78.533449 79.167634 80.211197 C 74.327686 81.879571 70.704385 85.497508 70.571175 93.258262 C 70.509011 96.604385 73.608354 98.282132 76.494561 98.778896 C 79.922488 99.369388 81.876229 95.657723 79.176515 94.392382 C 76.760981 93.248889 75.437765 94.589213 75.482169 91.82421 C 75.562094 87.175255 77.435909 86.697238 80.78391 85.188202 C 84.220718 83.622929 86.103413 81.832707 88.172602 73.181528 C 89.025143 69.619829 90.339478 72.99407 93.971659 69.46049 C 96.840106 66.686114 93.199044 58.841003 95.6501 55.935407 C 98.207724 52.907963 100.463407 42.26973 99.868404 40.395152 C 99.273401 38.511201 88.323573 40.488881 88.643276 56.750848 Z M 88.643276 56.750848 " transform="matrix(-0.439861,0.000000000000000051,-0.000000000000000054,-0.41676,90.37747,131.253068)"/>
<path style="fill-rule:nonzero;fill:rgb(100%,93.333334%,53.333336%);fill-opacity:1;stroke-width:0.875;stroke-linecap:round;stroke-linejoin:round;stroke:rgb(0%,0%,0%);stroke-opacity:1;stroke-miterlimit:4;" d="M 90.490449 44.481733 C 90.490449 44.481733 86.254384 53.74215 85.330798 59.094071 C 84.39833 64.445993 86.33431 68.176404 84.94893 70.425898 C 83.341534 73.040934 85.313036 77.877347 80.428685 79.583213 C 75.544333 81.298452 67.542877 81.223469 66.850187 89.152936 C 66.157497 97.082402 67.125487 96.510656 64.257041 100.372287 C 61.388594 104.224546 61.939194 102.284357 59.008583 104.852529 C 53.626915 109.576467 56.841707 113.953607 59.94105 111.844707 C 61.699417 110.65435 61.512923 108.320499 64.168234 106.998922 C 67.356384 105.414903 67.551758 103.671545 69.505498 100.372287 C 71.2017 97.494809 71.015207 93.726907 71.05961 90.886921 C 71.130655 86.125491 76.654413 87.747002 80.029056 86.191102 C 83.510266 84.59771 86.876029 83.051183 89.11395 75.946531 C 90.241791 72.384832 90.703584 69.094947 90.348359 65.027112 C 89.984252 60.959277 89.788878 56.797713 91.955754 53.582811 C 94.12263 50.367909 95.703384 44.912886 95.099501 42.991443 C 94.495617 41.060627 90.91672 44.481733 90.490449 44.481733 Z M 90.490449 44.481733 " transform="matrix(-0.439861,0.000000000000000051,-0.000000000000000054,-0.41676,90.37747,131.253068)"/>
<path style="fill-rule:nonzero;fill:rgb(100%,93.333334%,0%);fill-opacity:1;stroke-width:0.875;stroke-linecap:round;stroke-linejoin:round;stroke:rgb(0%,0%,0%);stroke-opacity:1;stroke-miterlimit:4;" d="M 86.813864 46.665617 C 86.813864 46.665617 83.208325 53.38598 82.284738 58.616054 C 81.370032 63.836755 82.71989 66.54552 82.355783 69.10432 C 81.05921 78.289754 78.030912 79.536349 73.199844 81.214096 C 68.359896 82.882471 63.244648 83.116793 63.120319 89.537224 C 63.058154 92.845855 62.214494 96.613757 60.553814 98.750777 C 57.667606 102.481188 58.333654 100.625355 55.35864 103.127917 C 52.392507 105.639852 53.848931 105.564869 52.126087 108.704788 C 50.403243 111.835334 47.952187 111.20735 48.493906 113.513082 C 49.026744 115.80944 50.802872 115.303304 51.60213 114.975253 C 54.115351 113.944235 56.033569 112.463318 56.282227 109.951383 C 56.530884 107.44882 56.815065 106.511531 59.443734 105.218072 C 62.605242 103.671545 63.466664 102.987324 65.153985 99.641202 C 66.832426 96.323198 66.788023 92.414702 66.992278 89.799665 C 67.258697 86.341068 71.912152 86.519153 75.251272 85.010117 C 78.69696 83.444844 83.092876 81.954555 85.162065 74.915513 C 86.19222 71.419424 86.733939 68.232641 86.378713 64.258535 C 86.023487 60.284429 85.828113 56.225966 87.968347 53.095421 C 90.117462 49.955502 91.680455 45.643972 91.085452 43.76002 C 90.490449 41.876069 87.231254 46.665617 86.813864 46.665617 Z M 86.813864 46.665617 " transform="matrix(-0.439861,0.000000000000000051,-0.000000000000000054,-0.41676,90.37747,131.253068)"/>
<path style="fill-rule:evenodd;fill:rgb(0%,53.333336%,0%);fill-opacity:1;stroke-width:1.25;stroke-linecap:round;stroke-linejoin:round;stroke:rgb(0%,0%,0%);stroke-opacity:1;stroke-miterlimit:4;" d="M 131.865347 28.875868 C 123.100156 27.723002 113.793246 20.983893 110.800471 21.012012 C 108.01195 21.536894 102.896702 25.267305 98.864892 26.429543 C 95.010694 27.535544 89.051785 25.389152 86.067891 26.701357 C 78.27957 30.131836 74.194476 35.999266 66.619291 39.917135 C 70.704385 42.907087 73.679399 43.581935 76.316949 45.447141 C 78.954499 47.312346 80.908239 50.536621 80.908239 50.536621 C 80.908239 50.536621 93.900614 42.49468 104.344246 40.517 C 110.693903 39.551592 116.546244 40.610729 123.277769 41.473035 C 124.334565 35.91491 128.233166 32.93433 131.865347 28.875868 Z M 131.865347 28.875868 " transform="matrix(-0.439861,0.000000000000000051,-0.000000000000000054,-0.41676,90.37747,131.253068)"/>
<path style="fill:none;stroke-width:0.875;stroke-linecap:round;stroke-linejoin:round;stroke:rgb(0%,0%,0%);stroke-opacity:1;stroke-miterlimit:4;" d="M 128.890333 32.550042 C 122.149928 32.09077 117.372144 26.982544 111.61749 25.989017 C 109.574943 26.345187 104.94813 30.24431 100.6499 31.02226 C 95.667862 31.940804 89.309324 29.944378 87.000358 31.097243 C 82.941906 33.121788 76.681055 39.814033 72.222974 43.291376 " transform="matrix(-0.439861,0.000000000000000051,-0.000000000000000054,-0.41676,90.37747,131.253068)"/>
<path style="fill-rule:nonzero;fill:rgb(0%,53.333336%,100%);fill-opacity:1;stroke-width:1.25;stroke-linecap:round;stroke-linejoin:round;stroke:rgb(0%,0%,0%);stroke-opacity:1;stroke-miterlimit:4;" d="M 45.720898 136.777846 C 42.646633 135.150835 30.420449 129.914478 27.284167 132.43915 C 20.701519 137.750312 20.48003 141.83654 16.502091 158.480675 C 12.533011 175.124809 16.989366 189.992322 18.256282 192.694656 C 19.478901 195.303484 23.979554 207.253598 28.559943 206.533599 C 26.371633 205.009445 25.689448 199.838543 24.998402 197.715948 C 24.139026 195.088419 27.106976 181.464541 31.279826 166.026639 C 35.452675 150.598087 41.725239 142.238618 48.812882 141.406411 C 50.779703 141.172645 52.206091 141.471866 53.278097 141.995501 C 53.198361 141.705631 53.092046 141.453164 52.968013 141.24745 C 52.968013 141.24745 51.497327 139.844855 45.720898 136.777846 Z M 45.720898 136.777846 " transform="matrix(-0.440908,0.000000000000000051,-0.000000000000000054,-0.417752,90.37747,131.483007)"/>
<path style="fill-rule:nonzero;fill:rgb(100%,100%,100%);fill-opacity:1;stroke-width:1.25;stroke-linecap:round;stroke-linejoin:round;stroke:rgb(0%,0%,0%);stroke-opacity:1;stroke-miterlimit:4;" d="M 56.450959 146.215101 C 56.450959 146.215101 56.024688 140.357044 48.920177 141.191231 C 41.815665 142.025419 35.537053 150.395411 31.363153 165.860683 C 27.180372 181.335327 24.604986 194.897902 25.057899 197.644159 C 25.928202 202.902351 26.762982 208.066815 30.519492 206.838966 C 34.187196 205.648609 37.215494 204.327031 39.302444 200.980908 C 41.398275 197.644159 49.337567 184.10033 51.850788 177.155017 C 54.355128 170.209704 58.120519 149.973631 56.450959 146.215101 Z M 56.450959 146.215101 " transform="matrix(-0.439861,0.000000000000000051,-0.000000000000000054,-0.41676,90.37747,131.253068)"/>
<path style="fill-rule:evenodd;fill:rgb(0%,53.333336%,100%);fill-opacity:1;stroke-width:0.935591;stroke-linecap:round;stroke-linejoin:round;stroke:rgb(0%,0%,0%);stroke-opacity:1;stroke-miterlimit:4;" d="M 52.039395 139.403652 C 51.811188 136.212078 46.856417 135.554159 44.447241 136.365063 C 39.828241 137.912851 31.011171 146.244547 31.292446 155.005996 C 34.683642 155.995988 42.81915 153.638061 42.81915 153.638061 C 56.722012 149.02518 52.28978 142.965172 52.039395 139.403652 Z M 52.039395 139.403652 " transform="matrix(-0.398682,-0.0843969,0.0872553,-0.385622,74.333439,128.785759)"/>
<path style="fill-rule:evenodd;fill:rgb(100%,93.333334%,0%);fill-opacity:1;stroke-width:0.935591;stroke-linecap:round;stroke-linejoin:round;stroke:rgb(0%,0%,0%);stroke-opacity:1;stroke-miterlimit:4;" d="M 54.649061 143.26933 C 54.649061 143.26933 54.871958 143.92963 51.95797 140.150814 C 47.256744 139.174031 40.941387 148.639743 42.75015 153.815238 C 46.061561 155.156973 47.621523 154.136868 47.621523 154.136868 Z M 54.649061 143.26933 " transform="matrix(-0.398682,-0.0843969,0.0872553,-0.385622,74.333439,128.785759)"/>
<path style="fill-rule:evenodd;fill:rgb(100%,86.666667%,86.666667%);fill-opacity:1;stroke-width:1.36643;stroke-linecap:round;stroke-linejoin:round;stroke:rgb(0%,0%,0%);stroke-opacity:1;stroke-miterlimit:4;" d="M 45.50469 183.913701 C 45.50469 183.913701 44.287074 182.725513 43.493554 181.503677 C 42.682222 180.243384 42.126217 177.105304 43.092141 176.521603 C 44.05595 175.927749 45.102333 176.623394 45.608116 177.922001 C 46.266091 179.621786 46.727858 180.239039 47.301484 180.734839 C 48.099306 181.413147 49.079344 183.624001 48.119426 184.142494 C 47.157392 184.650835 45.528849 183.982615 45.50469 183.913701 Z M 45.50469 183.913701 " transform="matrix(-0.398682,-0.0843969,0.0830863,-0.367197,76.833823,128.408188)"/>
<path style="fill-rule:evenodd;fill:rgb(100%,86.666667%,86.666667%);fill-opacity:1;stroke-width:1.36643;stroke-linecap:round;stroke-linejoin:round;stroke:rgb(0%,0%,0%);stroke-opacity:1;stroke-miterlimit:4;" d="M 49.228895 179.781217 C 48.666671 178.39984 48.477228 175.422184 49.5301 175.020621 C 50.592322 174.616908 51.483438 175.50781 51.738886 176.874592 C 53.627171 179.823477 52.292001 184.747254 49.228895 179.781217 Z M 49.228895 179.781217 " transform="matrix(-0.398682,-0.0843969,0.0830863,-0.367197,76.833823,128.408188)"/>
<path style="fill-rule:evenodd;fill:rgb(100%,86.666667%,86.666667%);fill-opacity:1;stroke-width:1.36643;stroke-linecap:round;stroke-linejoin:round;stroke:rgb(0%,0%,0%);stroke-opacity:1;stroke-miterlimit:4;" d="M 47.205932 181.639757 C 47.205932 181.639757 46.459915 180.034673 45.904038 178.683751 C 45.339698 177.292223 45.15237 174.324719 46.205242 173.923155 C 47.267464 173.519443 48.158581 174.410344 48.411912 175.766975 C 48.756217 177.560131 49.088311 178.260378 49.564546 178.853029 C 50.213108 179.661385 50.764271 182.024001 49.72464 182.348055 C 48.685009 182.672109 47.211391 181.712968 47.205932 181.639757 Z M 47.205932 181.639757 " transform="matrix(-0.398682,-0.0843969,0.0830863,-0.367197,76.833823,128.408188)"/>
<path style="fill-rule:evenodd;fill:rgb(100%,86.666667%,86.666667%);fill-opacity:1;stroke-width:1.36968;stroke-linecap:round;stroke-linejoin:round;stroke:rgb(0%,0%,0%);stroke-opacity:1;stroke-miterlimit:4;" d="M 62.597684 153.145309 C 63.433382 154.240432 64.527807 155.871818 64.737995 159.419159 C 64.940948 162.9788 56.586276 182.739005 53.03598 184.320945 C 49.4878 185.913037 43.771294 187.960947 42.757533 187.374823 C 41.656278 186.744981 42.007704 183.823858 43.572167 183.432366 C 46.432057 182.721857 48.212252 182.472265 49.051507 181.938954 C 49.888646 181.39549 51.541242 175.973235 51.539744 175.260832 C 51.536131 174.538277 50.371016 169.699818 50.842694 167.261681 C 51.122315 165.782556 51.926513 160.661677 53.42478 159.200322 C 52.333351 158.993742 51.958262 157.899133 51.961067 156.643202 C 51.954521 155.38942 52.401152 152.925126 54.245917 151.245837 C 56.092799 149.5767 57.400039 147.903938 59.520522 147.735705 C 61.023559 147.613644 62.384613 152.87514 62.597684 153.145309 Z M 62.597684 153.145309 " transform="matrix(-0.398682,-0.0843969,0.0830863,-0.367197,76.833823,128.408188)"/>
<path style="fill:none;stroke-width:0.958776;stroke-linecap:round;stroke-linejoin:round;stroke:rgb(0%,0%,0%);stroke-opacity:1;stroke-miterlimit:4;" d="M 56.542801 155.356096 C 56.175075 156.036343 53.666653 159.09154 53.199079 159.762822 " transform="matrix(-0.398682,-0.0843969,0.0830863,-0.367197,76.833823,128.408188)"/>
<path style="fill-rule:nonzero;fill:rgb(100%,100%,100%);fill-opacity:1;stroke-width:0.875;stroke-linecap:round;stroke-linejoin:round;stroke:rgb(0%,0%,0%);stroke-opacity:1;stroke-miterlimit:4;" d="M 39.089309 199.275042 C 39.089309 199.275042 47.605842 210.700597 53.1296 214.309161 C 58.644477 217.917724 63.146961 220.326557 63.146961 220.326557 L 79.753756 195.863309 Z M 39.089309 199.275042 " transform="matrix(-0.439861,0.000000000000000051,-0.000000000000000054,-0.41676,90.37747,131.253068)"/>
<path style="fill-rule:nonzero;fill:rgb(100%,93.333334%,0%);fill-opacity:1;stroke-width:0.875;stroke-linecap:round;stroke-linejoin:round;stroke:rgb(0%,0%,0%);stroke-opacity:1;stroke-miterlimit:4;" d="M 101.813264 162.430204 L 70.908639 209.210307 C 55.189908 208.160544 40.234911 200.099857 34.968692 196.828717 C 36.442879 192.826492 43.68948 177.051915 48.476145 171.36257 C 53.262809 165.673225 63.857412 156.872079 63.857412 156.872079 Z M 101.813264 162.430204 " transform="matrix(-0.439861,0.000000000000000051,-0.000000000000000054,-0.41676,90.37747,131.253068)"/>
<path style="fill-rule:nonzero;fill:rgb(100%,93.333334%,0%);fill-opacity:1;stroke-width:0.875;stroke-linecap:round;stroke-linejoin:round;stroke:rgb(0%,0%,0%);stroke-opacity:1;stroke-miterlimit:4;" d="M 66.486081 156.375316 C 66.486081 156.375316 48.41398 171.437553 45.012695 176.545779 C 41.611411 181.644632 40.554614 185.431281 40.554614 185.431281 C 40.554614 185.431281 49.826002 185.084484 54.017664 181.204107 C 58.209325 177.314356 61.717178 171.203231 64.860924 166.582395 C 68.00467 161.970932 73.723802 157.106402 73.723802 157.106402 Z M 66.486081 156.375316 " transform="matrix(-0.439861,0.000000000000000051,-0.000000000000000054,-0.41676,90.37747,131.253068)"/>
<path style="fill-rule:nonzero;fill:rgb(100%,0%,0%);fill-opacity:1;stroke-width:0.875;stroke-linecap:round;stroke-linejoin:round;stroke:rgb(0%,0%,0%);stroke-opacity:1;stroke-miterlimit:4;" d="M 64.496818 156.872079 C 64.496818 156.872079 54.355128 165.026495 50.90944 169.103703 C 47.570319 173.040318 42.8547 180.913547 42.8547 180.913547 C 42.8547 180.913547 50.589737 180.07936 53.937738 176.733237 C 57.285739 173.387115 59.967692 167.622786 62.924945 163.976731 C 65.64242 160.639982 70.162666 157.078283 70.162666 157.078283 Z M 64.496818 156.872079 " transform="matrix(-0.439861,0.000000000000000051,-0.000000000000000054,-0.41676,90.37747,131.253068)"/>
<path style="fill-rule:nonzero;fill:rgb(100%,93.333334%,0%);fill-opacity:1;stroke-width:0.874999;stroke-linecap:round;stroke-linejoin:round;stroke:rgb(0%,0%,0%);stroke-opacity:1;stroke-miterlimit:4;" d="M 74.318805 156.103502 C 74.318805 156.103502 66.938994 162.748882 63.28017 168.38199 C 60.287395 173.002826 58.884254 175.149218 58.537909 183.650431 C 58.244848 190.97066 67.116606 192.732764 70.207069 188.927369 C 73.297531 185.112602 72.924545 175.852185 75.35784 170.462772 C 78.785766 162.842611 82.426828 162.373967 83.048473 159.768303 C 79.38965 157.471944 75.144704 156.450299 74.318805 156.103502 Z M 74.318805 156.103502 " transform="matrix(-0.439861,0.000000000000000051,-0.000000000000000054,-0.41676,90.37747,131.253068)"/>
<path style="fill-rule:nonzero;fill:rgb(0%,53.333336%,100%);fill-opacity:1;stroke-width:0.875;stroke-linecap:round;stroke-linejoin:round;stroke:rgb(0%,0%,0%);stroke-opacity:1;stroke-miterlimit:4;" d="M 74.549701 159.140319 C 74.549701 159.140319 67.383026 166.188734 65.153985 170.209704 C 63.324573 173.499589 62.090165 174.436879 61.88591 180.50114 C 61.699417 185.72184 67.107726 186.977808 68.990421 184.259669 C 70.873117 181.541531 70.64222 174.933642 72.125287 171.090756 C 74.221118 165.654479 78.297331 160.883677 79.238679 160.18071 C 77.355983 159.168438 75.055898 159.384014 74.549701 159.140319 Z M 74.549701 159.140319 " transform="matrix(-0.439861,0.000000000000000051,-0.000000000000000054,-0.41676,90.37747,131.253068)"/>
<path style="fill-rule:nonzero;fill:rgb(100%,93.333334%,0%);fill-opacity:1;stroke-width:0.875;stroke-linecap:round;stroke-linejoin:round;stroke:rgb(0%,0%,0%);stroke-opacity:1;stroke-miterlimit:4;" d="M 82.515635 160.424405 C 73.706041 166.976057 70.35804 182.028921 72.187451 187.062164 C 74.016863 192.10478 77.222774 193.529459 81.485481 191.345576 C 86.600729 188.721166 86.822745 181.447802 87.684167 175.655355 C 88.545589 169.862907 91.573887 164.84841 91.573887 164.84841 Z M 82.515635 160.424405 " transform="matrix(-0.439861,0.000000000000000051,-0.000000000000000054,-0.41676,90.37747,131.253068)"/>
<path style="fill-rule:nonzero;fill:rgb(100%,0%,0%);fill-opacity:1;stroke-width:0.875;stroke-linecap:round;stroke-linejoin:round;stroke:rgb(0%,0%,0%);stroke-opacity:1;stroke-miterlimit:4;" d="M 83.412579 163.142544 C 77.977628 168.578821 73.42186 180.50114 74.549701 184.681449 C 75.677543 188.861759 79.052186 189.067963 82.071603 186.556028 C 85.09102 184.053466 84.140792 177.989205 84.67363 173.180911 C 85.197588 168.372618 88.225886 164.820292 88.225886 164.820292 Z M 83.412579 163.142544 " transform="matrix(-0.439861,0.000000000000000051,-0.000000000000000054,-0.41676,90.37747,131.253068)"/>
<path style="fill:none;stroke-width:0.875;stroke-linecap:round;stroke-linejoin:round;stroke:rgb(0%,0%,0%);stroke-opacity:1;stroke-miterlimit:4;" d="M 81.085852 193.679426 C 75.961723 193.473222 63.484425 191.917322 60.038737 191.158118 C 53.262809 189.667828 42.810297 187.230876 39.888567 185.768705 " transform="matrix(-0.439861,0.000000000000000051,-0.000000000000000054,-0.41676,90.37747,131.253068)"/>
<path style="fill:none;stroke-width:0.875;stroke-linecap:round;stroke-linejoin:round;stroke:rgb(0%,0%,0%);stroke-opacity:1;stroke-miterlimit:4;" d="M 75.819633 201.543282 C 70.722146 201.046519 59.763437 199.425008 56.299988 198.693923 C 49.94145 197.344226 40.057299 193.182662 37.215494 191.561152 " transform="matrix(-0.439861,0.000000000000000051,-0.000000000000000054,-0.41676,90.37747,131.253068)"/>
<path style="fill-rule:nonzero;fill:rgb(0%,0%,0%);fill-opacity:1;stroke-width:0.875;stroke-linecap:round;stroke-linejoin:round;stroke:rgb(0%,0%,0%);stroke-opacity:1;stroke-miterlimit:4;" d="M 36.380714 194.298036 C 38.938338 194.607342 42.650445 194.710444 42.650445 194.710444 C 43.431942 195.966411 46.833226 198.890753 46.833226 198.890753 L 40.607898 199.153194 Z M 36.380714 194.298036 " transform="matrix(-0.439861,0.000000000000000051,-0.000000000000000054,-0.41676,90.37747,131.253068)"/>
<path style="fill-rule:nonzero;fill:rgb(0%,0%,0%);fill-opacity:1;stroke-width:0.875;stroke-linecap:round;stroke-linejoin:round;stroke:rgb(0%,0%,0%);stroke-opacity:1;stroke-miterlimit:4;" d="M 48.005471 199.275042 C 50.936082 199.368771 55.145505 199.10633 55.145505 199.10633 C 56.175659 200.493518 60.331798 203.558454 60.331798 203.558454 L 53.333854 204.523862 Z M 48.005471 199.275042 " transform="matrix(-0.439861,0.000000000000000051,-0.000000000000000054,-0.41676,90.37747,131.253068)"/>
<path style="fill-rule:nonzero;fill:rgb(0%,0%,0%);fill-opacity:1;stroke-width:0.875;stroke-linecap:round;stroke-linejoin:round;stroke:rgb(0%,0%,0%);stroke-opacity:1;stroke-miterlimit:4;" d="M 71.183254 201.783476 C 71.183254 201.783476 65.380247 203.101915 61.251695 203.691006 L 69.996074 208.590739 L 71.688249 208.095156 L 74.558744 203.625551 C 73.176654 202.971007 71.838861 202.28841 71.183254 201.783476 Z M 71.183254 201.783476 " transform="matrix(-0.440908,0.000000000000000051,-0.000000000000000054,-0.417752,90.37747,131.483007)"/>
<path style="fill-rule:evenodd;fill:rgb(0%,0%,0%);fill-opacity:1;stroke-width:1.25;stroke-linecap:round;stroke-linejoin:round;stroke:rgb(0%,0%,0%);stroke-opacity:1;stroke-miterlimit:4;" d="M 67.683731 145.969522 C 67.586276 145.969522 67.541978 145.978873 67.533118 145.997574 C 67.533118 145.997574 68.277321 150.018348 66.691461 152.589773 C 64.990426 155.338861 63.466583 157.657819 63.466583 157.657819 C 63.466583 157.657819 73.389283 157.517559 80.840167 161.94041 C 85.455995 164.670796 91.914609 167.663 96.370965 169.654686 L 102.971332 159.406388 C 102.253708 159.051063 93.571346 154.768472 88.406226 152.159644 C 80.379471 148.101467 69.180995 145.94147 67.683731 145.969522 Z M 67.683731 145.969522 " transform="matrix(-0.440908,0.000000000000000051,-0.000000000000000054,-0.417752,90.37747,131.483007)"/>
<path style="fill:none;stroke-width:1;stroke-linecap:butt;stroke-linejoin:miter;stroke:rgb(0%,0%,0%);stroke-opacity:1;stroke-miterlimit:4;" d="M 84.25624 163.142544 C 83.97206 163.142544 83.97206 163.142544 84.25624 163.142544 Z M 84.25624 163.142544 " transform="matrix(-0.439861,0.000000000000000051,-0.000000000000000054,-0.41676,90.37747,131.253068)"/>
<path style="fill:none;stroke-width:1;stroke-linecap:butt;stroke-linejoin:miter;stroke:rgb(0%,0%,0%);stroke-opacity:1;stroke-miterlimit:4;" d="M 84.25624 161.680373 C 84.53154 161.680373 84.53154 161.680373 84.25624 161.680373 Z M 84.25624 161.680373 " transform="matrix(-0.439861,0.000000000000000051,-0.000000000000000054,-0.41676,90.37747,131.253068)"/>
<path style="fill:none;stroke-width:0.875;stroke-linecap:round;stroke-linejoin:round;stroke:rgb(0%,0%,0%);stroke-opacity:1;stroke-miterlimit:4;" d="M 37.615123 182.975583 C 37.615123 182.975583 38.654158 185.431281 37.277659 185.918671 C 35.91004 186.396689 36.061011 188.814895 36.061011 188.814895 C 36.061011 188.814895 32.650846 186.762231 33.725403 185.543755 C 34.720035 184.409636 34.51578 182.553803 34.51578 182.553803 " transform="matrix(-0.439861,0.000000000000000051,-0.000000000000000054,-0.41676,90.37747,131.253068)"/>
<path style="fill:none;stroke-width:0.875;stroke-linecap:round;stroke-linejoin:round;stroke:rgb(0%,0%,0%);stroke-opacity:1;stroke-miterlimit:4;" d="M 33.974061 197.709769 C 33.974061 197.709769 35.386082 199.968636 34.116151 200.66223 C 32.837339 201.365197 33.387939 203.717793 33.387939 203.717793 C 33.387939 203.717793 29.684712 202.246249 30.546134 200.868434 C 31.345392 199.59372 30.848076 197.794125 30.848076 197.794125 " transform="matrix(-0.439861,0.000000000000000051,-0.000000000000000054,-0.41676,90.37747,131.253068)"/>
<path style="fill:none;stroke-width:0.875;stroke-linecap:round;stroke-linejoin:round;stroke:rgb(0%,0%,0%);stroke-opacity:1;stroke-miterlimit:4;" d="M 42.064323 160.836813 C 42.064323 160.836813 42.517236 163.461222 41.069692 163.620561 C 39.622147 163.779901 39.222519 166.160615 39.222519 166.160615 C 39.222519 166.160615 36.371833 163.386239 37.695049 162.44895 C 38.920577 161.577271 39.142593 159.712066 39.142593 159.712066 " transform="matrix(-0.439861,0.000000000000000051,-0.000000000000000054,-0.41676,90.37747,131.253068)"/>
<path style="fill:none;stroke-width:0.875;stroke-linecap:round;stroke-linejoin:round;stroke:rgb(0%,0%,0%);stroke-opacity:1;stroke-miterlimit:4;" d="M 28.361497 189.780303 C 28.361497 189.780303 27.073804 192.114153 28.379258 192.742136 C 29.693593 193.37012 29.276203 195.750835 29.276203 195.750835 C 29.276203 195.750835 32.890623 194.073087 31.958156 192.751509 C 31.078972 191.52366 31.487482 189.686574 31.487482 189.686574 " transform="matrix(-0.439861,0.000000000000000051,-0.000000000000000054,-0.41676,90.37747,131.253068)"/>
<path style="fill-rule:nonzero;fill:rgb(0%,0%,0%);fill-opacity:1;stroke-width:0.875;stroke-linecap:round;stroke-linejoin:round;stroke:rgb(0%,0%,0%);stroke-opacity:1;stroke-miterlimit:4;" d="M 43.842673 136.777846 C 42.921279 136.768495 41.929009 136.8433 40.848143 137.030313 C 32.165781 138.535765 25.069279 147.886403 21.091339 164.530537 C 17.1134 181.174671 16.989366 189.992322 18.256282 192.694656 C 19.478901 195.303484 23.979554 207.253598 28.559943 206.533599 C 26.371633 205.009445 25.538835 201.400099 24.998402 197.715948 C 24.378234 193.461408 27.106976 181.464541 31.279826 166.026639 C 35.452675 150.598087 41.725239 142.238618 48.812882 141.406411 C 50.779703 141.172645 52.206091 141.471866 53.278097 141.995501 C 53.198361 141.705631 53.092046 141.453164 52.968013 141.24745 C 52.968013 141.24745 50.319006 136.862001 43.842673 136.777846 Z M 43.842673 136.777846 " transform="matrix(-0.440908,0.000000000000000051,-0.000000000000000054,-0.417752,90.37747,131.483007)"/>
<path style="fill-rule:nonzero;fill:rgb(100%,93.333334%,0%);fill-opacity:1;stroke-width:0.875;stroke-linecap:round;stroke-linejoin:round;stroke:rgb(0%,0%,0%);stroke-opacity:1;stroke-miterlimit:4;" d="M 20.457728 196.144496 L 24.169835 202.208757 C 22.491394 195.732089 22.269378 189.367895 22.269378 189.367895 L 26.070292 186.124875 L 24.018864 179.151443 L 28.832171 174.268167 L 26.549846 164.951512 C 28.325974 162.73951 32.890623 160.60249 32.890623 160.60249 L 31.567408 150.648479 C 31.567408 150.648479 33.96518 148.15529 39.870805 146.683746 L 40.092821 140.844434 C 40.092821 140.844434 46.708897 140.197705 52.0284 140.647603 C 52.960868 140.722587 48.955699 138.126296 48.955699 138.126296 C 44.52426 137.535803 37.428629 137.910719 37.428629 137.910719 L 36.789223 144.584218 C 32.650846 145.46527 28.27269 148.548951 28.27269 148.548951 L 29.151874 158.502962 C 29.151874 158.502962 25.235512 160.199456 22.42923 162.861357 L 24.498419 171.962435 L 19.676232 176.836339 L 21.73654 183.819143 L 17.935626 187.052791 C 17.935626 187.052791 18.575032 192.582797 20.457728 196.144496 Z M 20.457728 196.144496 " transform="matrix(-0.439861,0.000000000000000051,-0.000000000000000054,-0.41676,90.37747,131.253068)"/>
<path style="fill:none;stroke-width:5;stroke-linecap:square;stroke-linejoin:miter;stroke:rgb(0%,0%,0%);stroke-opacity:1;stroke-miterlimit:4;" d="M 62.678628 220.945042 L 143.101697 94.401629 " transform="matrix(0.439861,0,0,0.41676,-0.233969,-0.0264528)"/>
<path style="fill:none;stroke-width:3;stroke-linecap:square;stroke-linejoin:miter;stroke:rgb(100%,100%,100%);stroke-opacity:1;stroke-miterlimit:4;" d="M 62.678628 220.945042 L 143.101697 94.401629 " transform="matrix(0.439861,0,0,0.41676,-0.233969,-0.0264528)"/>
<path style=" stroke:none;fill-rule:nonzero;fill:rgb(100%,0%,0%);fill-opacity:1;" d="M 8.621094 5.910156 L 8.621094 7.074219 L 9.960938 7.074219 L 9.960938 15.273438 C 9.960938 15.273438 9.964844 15.773438 9.742188 16.230469 C 9.519531 16.683594 9.179688 17.082031 7.9375 17.082031 C 6.699219 17.082031 6.332031 16.683594 6.109375 16.230469 C 5.886719 15.773438 5.917969 15.273438 5.917969 15.273438 L 5.917969 15.015625 L 4.636719 15.015625 L 4.636719 15.222656 C 4.632812 15.269531 4.621094 15.96875 4.992188 16.722656 C 5.375 17.5 6.320312 18.300781 7.9375 18.300781 C 9.558594 18.300781 10.53125 17.5 10.914062 16.722656 C 11.285156 15.96875 11.191406 15.269531 11.1875 15.222656 C 11.1875 15.21875 11.1875 15.167969 11.1875 15.167969 L 11.1875 7.074219 L 12.523438 7.074219 L 12.523438 5.910156 Z M 8.621094 5.910156 "/>
<path style=" stroke:none;fill-rule:nonzero;fill:rgb(100%,0%,0%);fill-opacity:1;" d="M 81.378906 124.089844 L 81.378906 122.925781 L 80.039062 122.925781 L 80.039062 114.726562 C 80.039062 114.726562 80.035156 114.226562 80.257812 113.769531 C 80.480469 113.316406 80.820312 112.917969 82.0625 112.917969 C 83.300781 112.917969 83.667969 113.316406 83.890625 113.769531 C 84.113281 114.226562 84.082031 114.726562 84.082031 114.726562 L 84.082031 114.984375 L 85.363281 114.984375 L 85.363281 114.777344 C 85.367188 114.730469 85.378906 114.03125 85.007812 113.277344 C 84.625 112.5 83.679688 111.699219 82.0625 111.699219 C 80.441406 111.699219 79.46875 112.5 79.085938 113.277344 C 78.714844 114.03125 78.808594 114.730469 78.8125 114.777344 C 78.8125 114.78125 78.8125 114.832031 78.8125 114.832031 L 78.8125 122.925781 L 77.476562 122.925781 L 77.476562 124.089844 Z M 81.378906 124.089844 "/>
<path style=" stroke:none;fill-rule:nonzero;fill:url(#linear0);" d="M 4.757812 0.269531 L 85.242188 0.269531 C 87.828125 0.269531 89.921875 2.253906 89.921875 4.703125 L 89.921875 125.296875 C 89.921875 127.746094 87.828125 129.730469 85.242188 129.730469 L 4.757812 129.730469 C 2.171875 129.730469 0.078125 127.746094 0.078125 125.296875 L 0.078125 4.703125 C 0.078125 2.253906 2.171875 0.269531 4.757812 0.269531 Z M 4.757812 0.269531 "/>
</g>
</svg>
