<?xml version="1.0" encoding="UTF-8"?>
<svg xmlns="http://www.w3.org/2000/svg" xmlns:xlink="http://www.w3.org/1999/xlink" width="90px" height="130px" viewBox="0 0 90 130" version="1.1">
<defs>
<linearGradient id="linear0" gradientUnits="userSpaceOnUse" x1="0" y1="0" x2="1" y2="0" gradientTransform="matrix(89.844017,0,0,129.461731,0.0779896,0.269122)">
<stop offset="0" style="stop-color:rgb(0%,0%,0%);stop-opacity:0.2;"/>
<stop offset="0.7" style="stop-color:rgb(93.333334%,93.333334%,93.333334%);stop-opacity:0.1;"/>
<stop offset="1" style="stop-color:rgb(0%,0%,0%);stop-opacity:0.2;"/>
</linearGradient>
</defs>
<g id="surface1">
<path style="fill-rule:nonzero;fill:rgb(100%,100%,100%);fill-opacity:1;stroke-width:0.1;stroke-linecap:butt;stroke-linejoin:miter;stroke:rgb(0%,0%,0%);stroke-opacity:1;stroke-miterlimit:4;" d="M 3.200287 0.200277 L 54.799714 0.200277 C 56.457588 0.200277 57.799914 1.543 57.799914 3.200258 L 57.799914 84.799757 C 57.799914 86.457015 56.457588 87.799738 54.799714 87.799738 L 3.200287 87.799738 C 1.542413 87.799738 0.200087 86.457015 0.200087 84.799757 L 0.200087 3.200258 C 0.200087 1.543 1.542413 0.200277 3.200287 0.200277 Z M 3.200287 0.200277 " transform="matrix(1.559792,0,0,1.477874,-0.233969,-0.0264528)"/>
<path style=" stroke:none;fill-rule:nonzero;fill:rgb(100%,0%,0%);fill-opacity:1;" d="M 13.125 24.84375 C 11.050781 24.292969 9.414062 22.773438 8.8125 20.808594 C 8.210938 22.773438 6.574219 24.292969 4.5 24.84375 C 6.574219 25.390625 8.210938 26.910156 8.8125 28.875 C 9.414062 26.910156 11.050781 25.390625 13.125 24.84375 Z M 13.125 24.84375 "/>
<path style=" stroke:none;fill-rule:nonzero;fill:rgb(100%,0%,0%);fill-opacity:1;" d="M 76.875 105.15625 C 78.949219 105.707031 80.585938 107.226562 81.1875 109.191406 C 81.789062 107.226562 83.425781 105.707031 85.5 105.15625 C 83.425781 104.609375 81.789062 103.089844 81.1875 101.125 C 80.585938 103.089844 78.949219 104.609375 76.875 105.15625 Z M 76.875 105.15625 "/>
<path style=" stroke:none;fill-rule:nonzero;fill:rgb(100%,0%,0%);fill-opacity:1;" d="M 35.503906 20.765625 C 30.316406 19.394531 26.222656 15.59375 24.71875 10.679688 C 23.21875 15.59375 19.125 19.394531 13.9375 20.765625 C 19.125 22.136719 23.21875 25.9375 24.71875 30.851562 C 26.222656 25.9375 30.316406 22.136719 35.503906 20.765625 Z M 35.503906 20.765625 "/>
<path style=" stroke:none;fill-rule:nonzero;fill:rgb(100%,0%,0%);fill-opacity:1;" d="M 13.941406 109.234375 C 19.128906 110.605469 23.222656 114.40625 24.726562 119.320312 C 26.226562 114.40625 30.320312 110.605469 35.507812 109.234375 C 30.320312 107.863281 26.226562 104.0625 24.726562 99.148438 C 23.222656 104.0625 19.128906 107.863281 13.941406 109.234375 Z M 13.941406 109.234375 "/>
<path style=" stroke:none;fill-rule:nonzero;fill:rgb(100%,0%,0%);fill-opacity:1;" d="M 54.496094 109.234375 C 59.683594 110.605469 63.777344 114.40625 65.28125 119.320312 C 66.78125 114.40625 70.875 110.605469 76.0625 109.234375 C 70.875 107.863281 66.78125 104.0625 65.28125 99.148438 C 63.777344 104.0625 59.683594 107.863281 54.496094 109.234375 Z M 54.496094 109.234375 "/>
<path style=" stroke:none;fill-rule:nonzero;fill:rgb(100%,0%,0%);fill-opacity:1;" d="M 76.058594 20.765625 C 70.871094 19.394531 66.777344 15.59375 65.273438 10.679688 C 63.773438 15.59375 59.679688 19.394531 54.492188 20.765625 C 59.679688 22.136719 63.773438 25.9375 65.273438 30.851562 C 66.777344 25.9375 70.871094 22.136719 76.058594 20.765625 Z M 76.058594 20.765625 "/>
<path style=" stroke:none;fill-rule:nonzero;fill:rgb(100%,0%,0%);fill-opacity:1;" d="M 9.660156 5.886719 L 9.46875 6.195312 L 4.527344 14.238281 L 4.445312 14.367188 L 4.445312 15.609375 L 10.070312 15.609375 L 10.070312 17.679688 L 11.378906 17.679688 L 11.378906 15.609375 L 12.523438 15.609375 L 12.523438 14.367188 L 11.378906 14.367188 L 11.378906 5.886719 Z M 10.070312 7.695312 L 10.070312 14.367188 L 5.972656 14.367188 Z M 10.070312 7.695312 "/>
<path style=" stroke:none;fill-rule:nonzero;fill:rgb(100%,0%,0%);fill-opacity:1;" d="M 80.339844 124.113281 L 80.53125 123.804688 L 85.472656 115.761719 L 85.554688 115.632812 L 85.554688 114.390625 L 79.929688 114.390625 L 79.929688 112.320312 L 78.621094 112.320312 L 78.621094 114.390625 L 77.476562 114.390625 L 77.476562 115.632812 L 78.621094 115.632812 L 78.621094 124.113281 Z M 79.929688 122.304688 L 79.929688 115.632812 L 84.027344 115.632812 Z M 79.929688 122.304688 "/>
<path style=" stroke:none;fill-rule:nonzero;fill:url(#linear0);" d="M 4.757812 0.269531 L 85.242188 0.269531 C 87.828125 0.269531 89.921875 2.253906 89.921875 4.703125 L 89.921875 125.296875 C 89.921875 127.746094 87.828125 129.730469 85.242188 129.730469 L 4.757812 129.730469 C 2.171875 129.730469 0.078125 127.746094 0.078125 125.296875 L 0.078125 4.703125 C 0.078125 2.253906 2.171875 0.269531 4.757812 0.269531 Z M 4.757812 0.269531 "/>
</g>
</svg>
