<?xml version="1.0" encoding="UTF-8"?>
<svg xmlns="http://www.w3.org/2000/svg" xmlns:xlink="http://www.w3.org/1999/xlink" width="90px" height="130px" viewBox="0 0 90 130" version="1.1">
<defs>
<linearGradient id="linear0" gradientUnits="userSpaceOnUse" x1="0" y1="0" x2="1" y2="0" gradientTransform="matrix(89.844017,0,0,129.461731,0.0779896,0.269122)">
<stop offset="0" style="stop-color:rgb(0%,0%,0%);stop-opacity:0.2;"/>
<stop offset="0.7" style="stop-color:rgb(93.333334%,93.333334%,93.333334%);stop-opacity:0.1;"/>
<stop offset="1" style="stop-color:rgb(0%,0%,0%);stop-opacity:0.2;"/>
</linearGradient>
</defs>
<g id="surface1">
<path style="fill-rule:nonzero;fill:rgb(100%,100%,100%);fill-opacity:1;stroke-width:0.1;stroke-linecap:butt;stroke-linejoin:miter;stroke:rgb(0%,0%,0%);stroke-opacity:1;stroke-miterlimit:4;" d="M 3.200287 0.200277 L 54.799714 0.200277 C 56.457588 0.200277 57.799914 1.543 57.799914 3.200258 L 57.799914 84.799757 C 57.799914 86.457015 56.457588 87.799738 54.799714 87.799738 L 3.200287 87.799738 C 1.542413 87.799738 0.200087 86.457015 0.200087 84.799757 L 0.200087 3.200258 C 0.200087 1.543 1.542413 0.200277 3.200287 0.200277 Z M 3.200287 0.200277 " transform="matrix(1.559792,0,0,1.477874,-0.233969,-0.0264528)"/>
<path style=" stroke:none;fill-rule:nonzero;fill:rgb(100%,0%,0%);fill-opacity:1;" d="M 13.125 24.84375 C 11.050781 24.292969 9.414062 22.773438 8.8125 20.808594 C 8.210938 22.773438 6.574219 24.292969 4.5 24.84375 C 6.574219 25.390625 8.210938 26.910156 8.8125 28.875 C 9.414062 26.910156 11.050781 25.390625 13.125 24.84375 Z M 13.125 24.84375 "/>
<path style=" stroke:none;fill-rule:nonzero;fill:rgb(100%,0%,0%);fill-opacity:1;" d="M 76.875 105.15625 C 78.949219 105.707031 80.585938 107.226562 81.1875 109.191406 C 81.789062 107.226562 83.425781 105.707031 85.5 105.15625 C 83.425781 104.609375 81.789062 103.089844 81.1875 101.125 C 80.585938 103.089844 78.949219 104.609375 76.875 105.15625 Z M 76.875 105.15625 "/>
<path style=" stroke:none;fill-rule:nonzero;fill:rgb(100%,0%,0%);fill-opacity:1;" d="M 35.503906 65.101562 C 30.316406 63.730469 26.222656 59.929688 24.71875 55.015625 C 23.21875 59.929688 19.125 63.730469 13.9375 65.101562 C 19.125 66.472656 23.21875 70.273438 24.71875 75.1875 C 26.222656 70.273438 30.316406 66.472656 35.503906 65.101562 Z M 35.503906 65.101562 "/>
<path style=" stroke:none;fill-rule:nonzero;fill:rgb(100%,0%,0%);fill-opacity:1;" d="M 35.503906 20.765625 C 30.316406 19.394531 26.222656 15.59375 24.71875 10.679688 C 23.21875 15.59375 19.125 19.394531 13.9375 20.765625 C 19.125 22.136719 23.21875 25.9375 24.71875 30.851562 C 26.222656 25.9375 30.316406 22.136719 35.503906 20.765625 Z M 35.503906 20.765625 "/>
<path style=" stroke:none;fill-rule:nonzero;fill:rgb(100%,0%,0%);fill-opacity:1;" d="M 13.941406 109.234375 C 19.128906 110.605469 23.222656 114.40625 24.726562 119.320312 C 26.226562 114.40625 30.320312 110.605469 35.507812 109.234375 C 30.320312 107.863281 26.226562 104.0625 24.726562 99.148438 C 23.222656 104.0625 19.128906 107.863281 13.941406 109.234375 Z M 13.941406 109.234375 "/>
<path style=" stroke:none;fill-rule:nonzero;fill:rgb(100%,0%,0%);fill-opacity:1;" d="M 55.78125 42.933594 C 50.59375 41.5625 46.5 37.761719 44.996094 32.847656 C 43.496094 37.761719 39.402344 41.5625 34.214844 42.933594 C 39.402344 44.304688 43.496094 48.105469 44.996094 53.019531 C 46.5 48.105469 50.59375 44.304688 55.78125 42.933594 Z M 55.78125 42.933594 "/>
<path style=" stroke:none;fill-rule:nonzero;fill:rgb(100%,0%,0%);fill-opacity:1;" d="M 34.21875 87.066406 C 39.40625 88.4375 43.5 92.238281 45.003906 97.152344 C 46.503906 92.238281 50.597656 88.4375 55.785156 87.066406 C 50.597656 85.695312 46.503906 81.894531 45.003906 76.980469 C 43.5 81.894531 39.40625 85.695312 34.21875 87.066406 Z M 34.21875 87.066406 "/>
<path style=" stroke:none;fill-rule:nonzero;fill:rgb(100%,0%,0%);fill-opacity:1;" d="M 54.496094 64.898438 C 59.683594 66.269531 63.777344 70.070312 65.28125 74.984375 C 66.78125 70.070312 70.875 66.269531 76.0625 64.898438 C 70.875 63.527344 66.78125 59.726562 65.28125 54.8125 C 63.777344 59.726562 59.683594 63.527344 54.496094 64.898438 Z M 54.496094 64.898438 "/>
<path style=" stroke:none;fill-rule:nonzero;fill:rgb(100%,0%,0%);fill-opacity:1;" d="M 54.496094 109.234375 C 59.683594 110.605469 63.777344 114.40625 65.28125 119.320312 C 66.78125 114.40625 70.875 110.605469 76.0625 109.234375 C 70.875 107.863281 66.78125 104.0625 65.28125 99.148438 C 63.777344 104.0625 59.683594 107.863281 54.496094 109.234375 Z M 54.496094 109.234375 "/>
<path style=" stroke:none;fill-rule:nonzero;fill:rgb(100%,0%,0%);fill-opacity:1;" d="M 76.058594 20.765625 C 70.871094 19.394531 66.777344 15.59375 65.273438 10.679688 C 63.773438 15.59375 59.679688 19.394531 54.492188 20.765625 C 59.679688 22.136719 63.773438 25.9375 65.273438 30.851562 C 66.777344 25.9375 70.871094 22.136719 76.058594 20.765625 Z M 76.058594 20.765625 "/>
<path style=" stroke:none;fill-rule:nonzero;fill:rgb(100%,0%,0%);fill-opacity:1;" d="M 8.8125 5.9375 C 6.679688 5.9375 4.9375 7.347656 4.9375 9.066406 C 4.9375 10.128906 5.617188 11.0625 6.628906 11.625 C 5.308594 12.238281 4.417969 13.386719 4.417969 14.703125 C 4.417969 16.664062 6.382812 18.246094 8.8125 18.246094 C 11.246094 18.246094 13.207031 16.664062 13.207031 14.703125 C 13.207031 13.386719 12.316406 12.238281 10.996094 11.625 C 12.007812 11.0625 12.6875 10.128906 12.6875 9.066406 C 12.6875 7.347656 10.949219 5.9375 8.8125 5.9375 Z M 8.8125 6.972656 C 10.242188 6.972656 11.40625 7.914062 11.40625 9.066406 C 11.40625 10.21875 10.242188 11.136719 8.8125 11.136719 C 7.382812 11.136719 6.21875 10.21875 6.21875 9.066406 C 6.21875 7.914062 7.382812 6.972656 8.8125 6.972656 Z M 8.8125 12.167969 C 10.539062 12.167969 11.953125 13.3125 11.953125 14.703125 C 11.953125 16.097656 10.539062 17.214844 8.8125 17.214844 C 7.085938 17.214844 5.671875 16.097656 5.671875 14.703125 C 5.671875 13.3125 7.085938 12.167969 8.8125 12.167969 Z M 8.8125 12.167969 "/>
<path style=" stroke:none;fill-rule:nonzero;fill:rgb(100%,0%,0%);fill-opacity:1;" d="M 81.1875 124.0625 C 83.320312 124.0625 85.0625 122.652344 85.0625 120.933594 C 85.0625 119.871094 84.382812 118.9375 83.371094 118.375 C 84.691406 117.761719 85.582031 116.613281 85.582031 115.296875 C 85.582031 113.335938 83.617188 111.753906 81.1875 111.753906 C 78.753906 111.753906 76.792969 113.335938 76.792969 115.296875 C 76.792969 116.613281 77.683594 117.761719 79.003906 118.375 C 77.992188 118.9375 77.3125 119.871094 77.3125 120.933594 C 77.3125 122.652344 79.050781 124.0625 81.1875 124.0625 Z M 81.1875 123.027344 C 79.757812 123.027344 78.59375 122.085938 78.59375 120.933594 C 78.59375 119.78125 79.757812 118.863281 81.1875 118.863281 C 82.617188 118.863281 83.78125 119.78125 83.78125 120.933594 C 83.78125 122.085938 82.617188 123.027344 81.1875 123.027344 Z M 81.1875 117.832031 C 79.460938 117.832031 78.046875 116.6875 78.046875 115.296875 C 78.046875 113.902344 79.460938 112.785156 81.1875 112.785156 C 82.914062 112.785156 84.328125 113.902344 84.328125 115.296875 C 84.328125 116.6875 82.914062 117.832031 81.1875 117.832031 Z M 81.1875 117.832031 "/>
<path style=" stroke:none;fill-rule:nonzero;fill:url(#linear0);" d="M 4.757812 0.269531 L 85.242188 0.269531 C 87.828125 0.269531 89.921875 2.253906 89.921875 4.703125 L 89.921875 125.296875 C 89.921875 127.746094 87.828125 129.730469 85.242188 129.730469 L 4.757812 129.730469 C 2.171875 129.730469 0.078125 127.746094 0.078125 125.296875 L 0.078125 4.703125 C 0.078125 2.253906 2.171875 0.269531 4.757812 0.269531 Z M 4.757812 0.269531 "/>
</g>
</svg>
