<?xml version="1.0" encoding="UTF-8"?>
<svg xmlns="http://www.w3.org/2000/svg" xmlns:xlink="http://www.w3.org/1999/xlink" width="90px" height="130px" viewBox="0 0 90 130" version="1.1">
<defs>
<linearGradient id="linear0" gradientUnits="userSpaceOnUse" x1="0" y1="0" x2="1" y2="0" gradientTransform="matrix(89.844017,0,0,129.461731,0.0779896,0.269122)">
<stop offset="0" style="stop-color:rgb(0%,0%,0%);stop-opacity:0.2;"/>
<stop offset="0.7" style="stop-color:rgb(93.333334%,93.333334%,93.333334%);stop-opacity:0.1;"/>
<stop offset="1" style="stop-color:rgb(0%,0%,0%);stop-opacity:0.2;"/>
</linearGradient>
</defs>
<g id="surface1">
<path style="fill-rule:nonzero;fill:rgb(100%,100%,100%);fill-opacity:1;stroke-width:0.1;stroke-linecap:butt;stroke-linejoin:miter;stroke:rgb(0%,0%,0%);stroke-opacity:1;stroke-miterlimit:4;" d="M 3.200287 0.200277 L 54.799714 0.200277 C 56.457588 0.200277 57.799914 1.543 57.799914 3.200258 L 57.799914 84.799757 C 57.799914 86.457015 56.457588 87.799738 54.799714 87.799738 L 3.200287 87.799738 C 1.542413 87.799738 0.200087 86.457015 0.200087 84.799757 L 0.200087 3.200258 C 0.200087 1.543 1.542413 0.200277 3.200287 0.200277 Z M 3.200287 0.200277 " transform="matrix(1.559792,0,0,1.477874,-0.233969,-0.0264528)"/>
<path style=" stroke:none;fill-rule:nonzero;fill:rgb(100%,0%,0%);fill-opacity:1;" d="M 13.125 24.84375 C 11.050781 24.292969 9.414062 22.773438 8.8125 20.808594 C 8.210938 22.773438 6.574219 24.292969 4.5 24.84375 C 6.574219 25.390625 8.210938 26.910156 8.8125 28.875 C 9.414062 26.910156 11.050781 25.390625 13.125 24.84375 Z M 13.125 24.84375 "/>
<path style=" stroke:none;fill-rule:nonzero;fill:rgb(100%,0%,0%);fill-opacity:1;" d="M 76.875 105.15625 C 78.949219 105.707031 80.585938 107.226562 81.1875 109.191406 C 81.789062 107.226562 83.425781 105.707031 85.5 105.15625 C 83.425781 104.609375 81.789062 103.089844 81.1875 101.125 C 80.585938 103.089844 78.949219 104.609375 76.875 105.15625 Z M 76.875 105.15625 "/>
<path style=" stroke:none;fill-rule:nonzero;fill:rgb(100%,0%,0%);fill-opacity:1;" d="M 55.78125 65.101562 C 50.59375 63.730469 46.5 59.929688 44.996094 55.015625 C 43.496094 59.929688 39.402344 63.730469 34.214844 65.101562 C 39.402344 66.472656 43.496094 70.273438 44.996094 75.1875 C 46.5 70.273438 50.59375 66.472656 55.78125 65.101562 Z M 55.78125 65.101562 "/>
<path style=" stroke:none;fill-rule:nonzero;fill:rgb(100%,0%,0%);fill-opacity:1;" d="M 8.210938 5.910156 L 5.699219 16.308594 L 4.445312 16.308594 L 4.445312 17.472656 L 8.128906 17.472656 L 8.128906 16.308594 L 6.957031 16.308594 L 7.367188 14.625 L 10.257812 14.625 L 10.667969 16.308594 L 9.496094 16.308594 L 9.496094 17.472656 L 13.179688 17.472656 L 13.179688 16.308594 L 11.925781 16.308594 L 9.414062 5.910156 Z M 8.8125 8.652344 L 9.988281 13.460938 L 7.640625 13.460938 Z M 8.8125 8.652344 "/>
<path style=" stroke:none;fill-rule:nonzero;fill:rgb(100%,0%,0%);fill-opacity:1;" d="M 81.789062 124.089844 L 84.300781 113.691406 L 85.554688 113.691406 L 85.554688 112.527344 L 81.871094 112.527344 L 81.871094 113.691406 L 83.042969 113.691406 L 82.632812 115.375 L 79.742188 115.375 L 79.332031 113.691406 L 80.503906 113.691406 L 80.503906 112.527344 L 76.820312 112.527344 L 76.820312 113.691406 L 78.074219 113.691406 L 80.585938 124.089844 Z M 81.1875 121.347656 L 80.011719 116.539062 L 82.359375 116.539062 Z M 81.1875 121.347656 "/>
<path style=" stroke:none;fill-rule:nonzero;fill:url(#linear0);" d="M 4.757812 0.269531 L 85.242188 0.269531 C 87.828125 0.269531 89.921875 2.253906 89.921875 4.703125 L 89.921875 125.296875 C 89.921875 127.746094 87.828125 129.730469 85.242188 129.730469 L 4.757812 129.730469 C 2.171875 129.730469 0.078125 127.746094 0.078125 125.296875 L 0.078125 4.703125 C 0.078125 2.253906 2.171875 0.269531 4.757812 0.269531 Z M 4.757812 0.269531 "/>
</g>
</svg>
