<?xml version="1.0" encoding="UTF-8"?>
<svg xmlns="http://www.w3.org/2000/svg" xmlns:xlink="http://www.w3.org/1999/xlink" width="90px" height="130px" viewBox="0 0 90 130" version="1.1">
<defs>
<linearGradient id="linear0" gradientUnits="userSpaceOnUse" x1="0" y1="0" x2="1" y2="0" gradientTransform="matrix(89.844017,0,0,129.461731,0.0779896,0.269122)">
<stop offset="0" style="stop-color:rgb(0%,0%,0%);stop-opacity:0.2;"/>
<stop offset="0.7" style="stop-color:rgb(93.333334%,93.333334%,93.333334%);stop-opacity:0.1;"/>
<stop offset="1" style="stop-color:rgb(0%,0%,0%);stop-opacity:0.2;"/>
</linearGradient>
</defs>
<g id="surface1">
<path style="fill-rule:nonzero;fill:rgb(100%,100%,100%);fill-opacity:1;stroke-width:0.1;stroke-linecap:butt;stroke-linejoin:miter;stroke:rgb(0%,0%,0%);stroke-opacity:1;stroke-miterlimit:4;" d="M 3.200287 0.200277 L 54.799714 0.200277 C 56.457588 0.200277 57.799914 1.543 57.799914 3.200258 L 57.799914 84.799757 C 57.799914 86.457015 56.457588 87.799738 54.799714 87.799738 L 3.200287 87.799738 C 1.542413 87.799738 0.200087 86.457015 0.200087 84.799757 L 0.200087 3.200258 C 0.200087 1.543 1.542413 0.200277 3.200287 0.200277 Z M 3.200287 0.200277 " transform="matrix(1.559792,0,0,1.477874,-0.233969,-0.0264528)"/>
<path style=" stroke:none;fill-rule:nonzero;fill:rgb(100%,0%,0%);fill-opacity:1;" d="M 13.125 24.84375 C 11.050781 24.292969 9.414062 22.773438 8.8125 20.808594 C 8.210938 22.773438 6.574219 24.292969 4.5 24.84375 C 6.574219 25.390625 8.210938 26.910156 8.8125 28.875 C 9.414062 26.910156 11.050781 25.390625 13.125 24.84375 Z M 13.125 24.84375 "/>
<path style=" stroke:none;fill-rule:nonzero;fill:rgb(100%,0%,0%);fill-opacity:1;" d="M 76.875 105.15625 C 78.949219 105.707031 80.585938 107.226562 81.1875 109.191406 C 81.789062 107.226562 83.425781 105.707031 85.5 105.15625 C 83.425781 104.609375 81.789062 103.089844 81.1875 101.125 C 80.585938 103.089844 78.949219 104.609375 76.875 105.15625 Z M 76.875 105.15625 "/>
<path style=" stroke:none;fill-rule:nonzero;fill:rgb(100%,0%,0%);fill-opacity:1;" d="M 55.78125 65.101562 C 50.59375 63.730469 46.5 59.929688 44.996094 55.015625 C 43.496094 59.929688 39.402344 63.730469 34.214844 65.101562 C 39.402344 66.472656 43.496094 70.273438 44.996094 75.1875 C 46.5 70.273438 50.59375 66.472656 55.78125 65.101562 Z M 55.78125 65.101562 "/>
<path style=" stroke:none;fill-rule:nonzero;fill:rgb(100%,0%,0%);fill-opacity:1;" d="M 55.78125 20.765625 C 50.59375 19.394531 46.5 15.59375 44.996094 10.679688 C 43.496094 15.59375 39.402344 19.394531 34.214844 20.765625 C 39.402344 22.136719 43.496094 25.9375 44.996094 30.851562 C 46.5 25.9375 50.59375 22.136719 55.78125 20.765625 Z M 55.78125 20.765625 "/>
<path style=" stroke:none;fill-rule:nonzero;fill:rgb(100%,0%,0%);fill-opacity:1;" d="M 34.21875 109.234375 C 39.40625 110.605469 43.5 114.40625 45.003906 119.320312 C 46.503906 114.40625 50.597656 110.605469 55.785156 109.234375 C 50.597656 107.863281 46.503906 104.0625 45.003906 99.148438 C 43.5 104.0625 39.40625 107.863281 34.21875 109.234375 Z M 34.21875 109.234375 "/>
<path style=" stroke:none;fill-rule:nonzero;fill:rgb(100%,0%,0%);fill-opacity:1;" d="M 4.445312 5.886719 L 4.445312 8.523438 L 5.753906 8.523438 L 5.753906 7.125 L 10.914062 7.125 L 6.355469 11.417969 L 7.121094 12.429688 C 7.121094 12.429688 7.960938 12.039062 9.304688 12.039062 C 9.871094 12.039062 10.554688 12.285156 11.050781 12.6875 C 11.546875 13.089844 11.871094 13.613281 11.871094 14.316406 C 11.871094 15.773438 10.710938 17.058594 8.8125 17.058594 C 7.324219 17.058594 6.117188 16.300781 5.726562 15.246094 L 4.472656 15.636719 C 5.074219 17.261719 6.84375 18.300781 8.8125 18.300781 C 11.363281 18.300781 13.179688 16.429688 13.179688 14.316406 C 13.179688 13.230469 12.636719 12.332031 11.898438 11.730469 C 11.15625 11.128906 10.21875 10.800781 9.304688 10.800781 C 9.117188 10.800781 9.015625 10.839844 8.839844 10.851562 L 12.253906 7.617188 L 12.441406 7.4375 L 12.441406 5.886719 Z M 4.445312 5.886719 "/>
<path style=" stroke:none;fill-rule:nonzero;fill:rgb(100%,0%,0%);fill-opacity:1;" d="M 85.554688 124.113281 L 85.554688 121.476562 L 84.246094 121.476562 L 84.246094 122.875 L 79.085938 122.875 L 83.644531 118.582031 L 82.878906 117.570312 C 82.878906 117.570312 82.039062 117.960938 80.695312 117.960938 C 80.128906 117.960938 79.445312 117.714844 78.949219 117.3125 C 78.453125 116.910156 78.128906 116.386719 78.128906 115.683594 C 78.128906 114.226562 79.289062 112.941406 81.1875 112.941406 C 82.675781 112.941406 83.882812 113.699219 84.273438 114.753906 L 85.527344 114.363281 C 84.925781 112.738281 83.15625 111.699219 81.1875 111.699219 C 78.636719 111.699219 76.820312 113.570312 76.820312 115.683594 C 76.820312 116.769531 77.363281 117.667969 78.101562 118.269531 C 78.84375 118.871094 79.78125 119.199219 80.695312 119.199219 C 80.882812 119.199219 80.984375 119.160156 81.160156 119.148438 L 77.746094 122.382812 L 77.558594 122.5625 L 77.558594 124.113281 Z M 85.554688 124.113281 "/>
<path style=" stroke:none;fill-rule:nonzero;fill:url(#linear0);" d="M 4.757812 0.269531 L 85.242188 0.269531 C 87.828125 0.269531 89.921875 2.253906 89.921875 4.703125 L 89.921875 125.296875 C 89.921875 127.746094 87.828125 129.730469 85.242188 129.730469 L 4.757812 129.730469 C 2.171875 129.730469 0.078125 127.746094 0.078125 125.296875 L 0.078125 4.703125 C 0.078125 2.253906 2.171875 0.269531 4.757812 0.269531 Z M 4.757812 0.269531 "/>
</g>
</svg>
