<?xml version="1.0" encoding="UTF-8"?>
<svg xmlns="http://www.w3.org/2000/svg" xmlns:xlink="http://www.w3.org/1999/xlink" width="90px" height="130px" viewBox="0 0 90 130" version="1.1">
<defs>
<linearGradient id="linear0" gradientUnits="userSpaceOnUse" x1="0" y1="0" x2="1" y2="0" gradientTransform="matrix(89.844017,0,0,129.461731,0.0779896,0.269122)">
<stop offset="0" style="stop-color:rgb(0%,0%,0%);stop-opacity:0.2;"/>
<stop offset="0.7" style="stop-color:rgb(93.333334%,93.333334%,93.333334%);stop-opacity:0.1;"/>
<stop offset="1" style="stop-color:rgb(0%,0%,0%);stop-opacity:0.2;"/>
</linearGradient>
</defs>
<g id="surface1">
<path style="fill-rule:nonzero;fill:rgb(100%,100%,100%);fill-opacity:1;stroke-width:0.1;stroke-linecap:butt;stroke-linejoin:miter;stroke:rgb(0%,0%,0%);stroke-opacity:1;stroke-miterlimit:4;" d="M 3.200287 0.200277 L 54.799714 0.200277 C 56.457588 0.200277 57.799914 1.543 57.799914 3.200258 L 57.799914 84.799757 C 57.799914 86.457015 56.457588 87.799738 54.799714 87.799738 L 3.200287 87.799738 C 1.542413 87.799738 0.200087 86.457015 0.200087 84.799757 L 0.200087 3.200258 C 0.200087 1.543 1.542413 0.200277 3.200287 0.200277 Z M 3.200287 0.200277 " transform="matrix(1.559792,0,0,1.477874,-0.233969,-0.0264528)"/>
<path style=" stroke:none;fill-rule:nonzero;fill:rgb(100%,0%,0%);fill-opacity:1;" d="M 13.125 24.84375 C 11.050781 24.292969 9.414062 22.773438 8.8125 20.808594 C 8.210938 22.773438 6.574219 24.292969 4.5 24.84375 C 6.574219 25.390625 8.210938 26.910156 8.8125 28.875 C 9.414062 26.910156 11.050781 25.390625 13.125 24.84375 Z M 13.125 24.84375 "/>
<path style=" stroke:none;fill-rule:nonzero;fill:rgb(100%,0%,0%);fill-opacity:1;" d="M 76.875 105.15625 C 78.949219 105.707031 80.585938 107.226562 81.1875 109.191406 C 81.789062 107.226562 83.425781 105.707031 85.5 105.15625 C 83.425781 104.609375 81.789062 103.089844 81.1875 101.125 C 80.585938 103.089844 78.949219 104.609375 76.875 105.15625 Z M 76.875 105.15625 "/>
<path style=" stroke:none;fill-rule:nonzero;fill:rgb(100%,0%,0%);fill-opacity:1;" d="M 55.78125 20.765625 C 50.59375 19.394531 46.5 15.59375 44.996094 10.679688 C 43.496094 15.59375 39.402344 19.394531 34.214844 20.765625 C 39.402344 22.136719 43.496094 25.9375 44.996094 30.851562 C 46.5 25.9375 50.59375 22.136719 55.78125 20.765625 Z M 55.78125 20.765625 "/>
<path style=" stroke:none;fill-rule:nonzero;fill:rgb(100%,0%,0%);fill-opacity:1;" d="M 34.21875 109.234375 C 39.40625 110.605469 43.5 114.40625 45.003906 119.320312 C 46.503906 114.40625 50.597656 110.605469 55.785156 109.234375 C 50.597656 107.863281 46.503906 104.0625 45.003906 99.148438 C 43.5 104.0625 39.40625 107.863281 34.21875 109.234375 Z M 34.21875 109.234375 "/>
<path style=" stroke:none;fill-rule:nonzero;fill:rgb(100%,0%,0%);fill-opacity:1;" d="M 8.8125 5.9375 C 6.113281 5.9375 4.5 7.519531 4.5 9.195312 L 5.726562 9.195312 C 5.726562 8.195312 6.582031 7.101562 8.8125 7.101562 C 9.988281 7.101562 10.75 7.28125 11.1875 7.617188 C 11.625 7.953125 11.898438 8.5 11.898438 9.636719 C 11.898438 10.335938 11.558594 10.871094 10.941406 11.394531 C 10.328125 11.914062 9.457031 12.386719 8.539062 12.84375 C 7.621094 13.296875 6.65625 13.734375 5.890625 14.289062 C 5.125 14.847656 4.5 15.582031 4.5 16.539062 L 4.5 18.246094 L 13.125 18.246094 L 13.125 15.660156 L 11.898438 15.660156 L 11.898438 17.082031 L 5.726562 17.082031 L 5.726562 16.539062 C 5.726562 16.050781 6.035156 15.671875 6.65625 15.222656 C 7.277344 14.769531 8.15625 14.3125 9.085938 13.851562 C 10.015625 13.386719 10.988281 12.902344 11.761719 12.246094 C 12.53125 11.59375 13.125 10.71875 13.125 9.636719 C 13.125 8.316406 12.773438 7.324219 11.980469 6.710938 C 11.183594 6.101562 10.105469 5.9375 8.8125 5.9375 Z M 8.8125 5.9375 "/>
<path style=" stroke:none;fill-rule:nonzero;fill:rgb(100%,0%,0%);fill-opacity:1;" d="M 81.1875 124.0625 C 83.886719 124.0625 85.5 122.480469 85.5 120.804688 L 84.273438 120.804688 C 84.273438 121.804688 83.417969 122.898438 81.1875 122.898438 C 80.011719 122.898438 79.25 122.71875 78.8125 122.382812 C 78.375 122.046875 78.101562 121.5 78.101562 120.363281 C 78.101562 119.664062 78.441406 119.128906 79.058594 118.605469 C 79.671875 118.085938 80.542969 117.613281 81.460938 117.15625 C 82.378906 116.703125 83.34375 116.265625 84.109375 115.710938 C 84.875 115.152344 85.5 114.417969 85.5 113.460938 L 85.5 111.753906 L 76.875 111.753906 L 76.875 114.339844 L 78.101562 114.339844 L 78.101562 112.917969 L 84.273438 112.917969 L 84.273438 113.460938 C 84.273438 113.949219 83.964844 114.328125 83.34375 114.777344 C 82.722656 115.230469 81.84375 115.6875 80.914062 116.148438 C 79.984375 116.613281 79.011719 117.097656 78.238281 117.753906 C 77.46875 118.40625 76.875 119.28125 76.875 120.363281 C 76.875 121.683594 77.226562 122.675781 78.019531 123.289062 C 78.816406 123.898438 79.894531 124.0625 81.1875 124.0625 Z M 81.1875 124.0625 "/>
<path style=" stroke:none;fill-rule:nonzero;fill:url(#linear0);" d="M 4.757812 0.269531 L 85.242188 0.269531 C 87.828125 0.269531 89.921875 2.253906 89.921875 4.703125 L 89.921875 125.296875 C 89.921875 127.746094 87.828125 129.730469 85.242188 129.730469 L 4.757812 129.730469 C 2.171875 129.730469 0.078125 127.746094 0.078125 125.296875 L 0.078125 4.703125 C 0.078125 2.253906 2.171875 0.269531 4.757812 0.269531 Z M 4.757812 0.269531 "/>
</g>
</svg>
