<?xml version="1.0" encoding="UTF-8"?>
<svg xmlns="http://www.w3.org/2000/svg" xmlns:xlink="http://www.w3.org/1999/xlink" width="90px" height="130px" viewBox="0 0 90 130" version="1.1">
<defs>
<linearGradient id="linear0" gradientUnits="userSpaceOnUse" x1="0" y1="0" x2="1" y2="0" gradientTransform="matrix(89.844017,0,0,129.461731,0.0779896,0.269122)">
<stop offset="0" style="stop-color:rgb(0%,0%,0%);stop-opacity:0.2;"/>
<stop offset="0.7" style="stop-color:rgb(93.333334%,93.333334%,93.333334%);stop-opacity:0.1;"/>
<stop offset="1" style="stop-color:rgb(0%,0%,0%);stop-opacity:0.2;"/>
</linearGradient>
</defs>
<g id="surface1">
<path style="fill-rule:nonzero;fill:rgb(100%,100%,100%);fill-opacity:1;stroke-width:0.1;stroke-linecap:butt;stroke-linejoin:miter;stroke:rgb(0%,0%,0%);stroke-opacity:1;stroke-miterlimit:4;" d="M 3.200287 0.200277 L 54.799714 0.200277 C 56.457588 0.200277 57.799914 1.543 57.799914 3.200258 L 57.799914 84.799757 C 57.799914 86.457015 56.457588 87.799738 54.799714 87.799738 L 3.200287 87.799738 C 1.542413 87.799738 0.200087 86.457015 0.200087 84.799757 L 0.200087 3.200258 C 0.200087 1.543 1.542413 0.200277 3.200287 0.200277 Z M 3.200287 0.200277 " transform="matrix(1.559792,0,0,1.477874,-0.233969,-0.0264528)"/>
<path style=" stroke:none;fill-rule:nonzero;fill:rgb(100%,0%,0%);fill-opacity:1;" d="M 13.125 24.84375 C 11.050781 24.292969 9.414062 22.773438 8.8125 20.808594 C 8.210938 22.773438 6.574219 24.292969 4.5 24.84375 C 6.574219 25.390625 8.210938 26.910156 8.8125 28.875 C 9.414062 26.910156 11.050781 25.390625 13.125 24.84375 Z M 13.125 24.84375 "/>
<path style=" stroke:none;fill-rule:nonzero;fill:rgb(100%,0%,0%);fill-opacity:1;" d="M 76.875 105.15625 C 78.949219 105.707031 80.585938 107.226562 81.1875 109.191406 C 81.789062 107.226562 83.425781 105.707031 85.5 105.15625 C 83.425781 104.609375 81.789062 103.089844 81.1875 101.125 C 80.585938 103.089844 78.949219 104.609375 76.875 105.15625 Z M 76.875 105.15625 "/>
<path style=" stroke:none;fill-rule:nonzero;fill:rgb(100%,0%,0%);fill-opacity:1;" d="M 35.503906 20.765625 C 30.316406 19.394531 26.222656 15.59375 24.71875 10.679688 C 23.21875 15.59375 19.125 19.394531 13.9375 20.765625 C 19.125 22.136719 23.21875 25.9375 24.71875 30.851562 C 26.222656 25.9375 30.316406 22.136719 35.503906 20.765625 Z M 35.503906 20.765625 "/>
<path style=" stroke:none;fill-rule:nonzero;fill:rgb(100%,0%,0%);fill-opacity:1;" d="M 13.941406 109.234375 C 19.128906 110.605469 23.222656 114.40625 24.726562 119.320312 C 26.226562 114.40625 30.320312 110.605469 35.507812 109.234375 C 30.320312 107.863281 26.226562 104.0625 24.726562 99.148438 C 23.222656 104.0625 19.128906 107.863281 13.941406 109.234375 Z M 13.941406 109.234375 "/>
<path style=" stroke:none;fill-rule:nonzero;fill:rgb(100%,0%,0%);fill-opacity:1;" d="M 54.496094 109.234375 C 59.683594 110.605469 63.777344 114.40625 65.28125 119.320312 C 66.78125 114.40625 70.875 110.605469 76.0625 109.234375 C 70.875 107.863281 66.78125 104.0625 65.28125 99.148438 C 63.777344 104.0625 59.683594 107.863281 54.496094 109.234375 Z M 54.496094 109.234375 "/>
<path style=" stroke:none;fill-rule:nonzero;fill:rgb(100%,0%,0%);fill-opacity:1;" d="M 76.058594 20.765625 C 70.871094 19.394531 66.777344 15.59375 65.273438 10.679688 C 63.773438 15.59375 59.679688 19.394531 54.492188 20.765625 C 59.679688 22.136719 63.773438 25.9375 65.273438 30.851562 C 66.777344 25.9375 70.871094 22.136719 76.058594 20.765625 Z M 76.058594 20.765625 "/>
<path style=" stroke:none;fill-rule:nonzero;fill:rgb(100%,0%,0%);fill-opacity:1;" d="M 55.78125 65.101562 C 50.59375 63.730469 46.5 59.929688 44.996094 55.015625 C 43.496094 59.929688 39.402344 63.730469 34.214844 65.101562 C 39.402344 66.472656 43.496094 70.273438 44.996094 75.1875 C 46.5 70.273438 50.59375 66.472656 55.78125 65.101562 Z M 55.78125 65.101562 "/>
<path style=" stroke:none;fill-rule:nonzero;fill:rgb(100%,0%,0%);fill-opacity:1;" d="M 4.445312 5.886719 L 4.445312 11.625 L 4.882812 11.78125 L 5.644531 11.988281 L 6.21875 12.167969 L 6.4375 11.625 C 6.4375 11.625 6.472656 11.460938 6.792969 11.210938 C 7.113281 10.964844 7.691406 10.667969 8.8125 10.667969 C 9.871094 10.667969 10.511719 11.058594 10.96875 11.679688 C 11.429688 12.296875 11.652344 13.195312 11.652344 14.109375 C 11.652344 15.84375 10.488281 17.082031 8.566406 17.082031 C 7.582031 17.082031 6.921875 16.804688 6.464844 16.460938 C 6.011719 16.121094 5.757812 15.703125 5.671875 15.480469 L 4.472656 15.894531 C 4.644531 16.34375 5.011719 16.921875 5.671875 17.417969 C 6.335938 17.917969 7.3125 18.300781 8.566406 18.300781 C 11.121094 18.300781 12.933594 16.410156 12.933594 14.109375 C 12.933594 13.007812 12.667969 11.875 12.007812 10.980469 C 11.34375 10.085938 10.238281 9.480469 8.8125 9.480469 C 7.449219 9.480469 6.523438 9.855469 5.972656 10.28125 C 5.789062 10.421875 5.839844 10.453125 5.726562 10.59375 L 5.726562 7.101562 L 12.550781 7.101562 L 12.550781 5.886719 Z M 4.445312 5.886719 "/>
<path style=" stroke:none;fill-rule:nonzero;fill:rgb(100%,0%,0%);fill-opacity:1;" d="M 85.554688 124.113281 L 85.554688 118.375 L 85.117188 118.21875 L 84.355469 118.011719 L 83.78125 117.832031 L 83.5625 118.375 C 83.5625 118.375 83.527344 118.539062 83.207031 118.789062 C 82.886719 119.035156 82.308594 119.332031 81.1875 119.332031 C 80.128906 119.332031 79.488281 118.941406 79.03125 118.320312 C 78.570312 117.703125 78.347656 116.804688 78.347656 115.890625 C 78.347656 114.15625 79.511719 112.917969 81.433594 112.917969 C 82.417969 112.917969 83.078125 113.195312 83.535156 113.535156 C 83.988281 113.878906 84.242188 114.296875 84.328125 114.519531 L 85.527344 114.105469 C 85.355469 113.65625 84.988281 113.078125 84.328125 112.582031 C 83.664062 112.082031 82.6875 111.699219 81.433594 111.699219 C 78.878906 111.699219 77.066406 113.589844 77.066406 115.890625 C 77.066406 116.992188 77.332031 118.125 77.992188 119.019531 C 78.65625 119.914062 79.761719 120.519531 81.1875 120.519531 C 82.550781 120.519531 83.476562 120.144531 84.027344 119.71875 C 84.210938 119.578125 84.160156 119.546875 84.273438 119.40625 L 84.273438 122.898438 L 77.449219 122.898438 L 77.449219 124.113281 Z M 85.554688 124.113281 "/>
<path style=" stroke:none;fill-rule:nonzero;fill:url(#linear0);" d="M 4.757812 0.269531 L 85.242188 0.269531 C 87.828125 0.269531 89.921875 2.253906 89.921875 4.703125 L 89.921875 125.296875 C 89.921875 127.746094 87.828125 129.730469 85.242188 129.730469 L 4.757812 129.730469 C 2.171875 129.730469 0.078125 127.746094 0.078125 125.296875 L 0.078125 4.703125 C 0.078125 2.253906 2.171875 0.269531 4.757812 0.269531 Z M 4.757812 0.269531 "/>
</g>
</svg>
