<?xml version="1.0" encoding="UTF-8"?>
<svg xmlns="http://www.w3.org/2000/svg" xmlns:xlink="http://www.w3.org/1999/xlink" width="90px" height="130px" viewBox="0 0 90 130" version="1.1">
<defs>
<linearGradient id="linear0" gradientUnits="userSpaceOnUse" x1="0" y1="0" x2="1" y2="0" gradientTransform="matrix(89.844017,0,0,129.461731,0.0779896,0.269122)">
<stop offset="0" style="stop-color:rgb(0%,0%,0%);stop-opacity:0.2;"/>
<stop offset="0.7" style="stop-color:rgb(93.333334%,93.333334%,93.333334%);stop-opacity:0.1;"/>
<stop offset="1" style="stop-color:rgb(0%,0%,0%);stop-opacity:0.2;"/>
</linearGradient>
</defs>
<g id="surface1">
<path style="fill-rule:nonzero;fill:rgb(100%,100%,100%);fill-opacity:1;stroke-width:0.1;stroke-linecap:butt;stroke-linejoin:miter;stroke:rgb(0%,0%,0%);stroke-opacity:1;stroke-miterlimit:4;" d="M 3.200287 0.200277 L 54.799714 0.200277 C 56.457588 0.200277 57.799914 1.543 57.799914 3.200258 L 57.799914 84.799757 C 57.799914 86.457015 56.457588 87.799738 54.799714 87.799738 L 3.200287 87.799738 C 1.542413 87.799738 0.200087 86.457015 0.200087 84.799757 L 0.200087 3.200258 C 0.200087 1.543 1.542413 0.200277 3.200287 0.200277 Z M 3.200287 0.200277 " transform="matrix(1.559792,0,0,1.477874,-0.233969,-0.0264528)"/>
<path style=" stroke:none;fill-rule:nonzero;fill:rgb(100%,0%,0%);fill-opacity:1;" d="M 8.835938 22.246094 C 8.574219 21.480469 7.984375 20.683594 6.660156 20.675781 C 5.460938 20.664062 4.46875 21.523438 4.457031 22.753906 C 4.445312 25.058594 7.25 25.496094 8.824219 28.855469 L 8.824219 28.910156 C 10.394531 25.527344 13.214844 25.101562 13.203125 22.785156 C 13.191406 21.554688 12.199219 20.695312 11.007812 20.707031 C 9.6875 20.714844 9.109375 21.5 8.835938 22.257812 Z M 8.835938 22.246094 "/>
<path style=" stroke:none;fill-rule:nonzero;fill:rgb(100%,0%,0%);fill-opacity:1;" d="M 81.164062 107.753906 C 81.425781 108.519531 82.015625 109.316406 83.339844 109.324219 C 84.539062 109.335938 85.53125 108.476562 85.542969 107.246094 C 85.554688 104.941406 82.75 104.503906 81.175781 101.144531 L 81.175781 101.089844 C 79.605469 104.472656 76.785156 104.898438 76.796875 107.214844 C 76.808594 108.445312 77.800781 109.304688 78.992188 109.292969 C 80.3125 109.285156 80.890625 108.5 81.164062 107.742188 Z M 81.164062 107.753906 "/>
<path style=" stroke:none;fill-rule:nonzero;fill:rgb(100%,0%,0%);fill-opacity:1;" d="M 24.777344 14.277344 C 24.121094 12.363281 22.648438 10.371094 19.34375 10.34375 C 16.34375 10.320312 13.859375 12.464844 13.832031 15.542969 C 13.804688 21.308594 20.820312 22.398438 24.75 30.800781 L 24.75 30.929688 C 28.679688 22.472656 35.722656 21.414062 35.695312 15.621094 C 35.667969 12.542969 33.183594 10.394531 30.210938 10.421875 C 26.90625 10.449219 25.460938 12.414062 24.777344 14.300781 Z M 24.777344 14.277344 "/>
<path style=" stroke:none;fill-rule:nonzero;fill:rgb(100%,0%,0%);fill-opacity:1;" d="M 24.667969 115.722656 C 25.324219 117.636719 26.796875 119.628906 30.101562 119.65625 C 33.101562 119.679688 35.585938 117.535156 35.613281 114.457031 C 35.640625 108.691406 28.625 107.601562 24.695312 99.199219 L 24.695312 99.070312 C 20.765625 107.527344 13.722656 108.585938 13.75 114.378906 C 13.777344 117.457031 16.261719 119.605469 19.234375 119.578125 C 22.539062 119.550781 23.984375 117.585938 24.667969 115.699219 Z M 24.667969 115.722656 "/>
<path style=" stroke:none;fill-rule:nonzero;fill:rgb(100%,0%,0%);fill-opacity:1;" d="M 65.222656 115.722656 C 65.878906 117.636719 67.351562 119.628906 70.65625 119.65625 C 73.65625 119.679688 76.140625 117.535156 76.167969 114.457031 C 76.195312 108.691406 69.179688 107.601562 65.25 99.199219 L 65.25 99.070312 C 61.320312 107.527344 54.277344 108.585938 54.304688 114.378906 C 54.332031 117.457031 56.816406 119.605469 59.789062 119.578125 C 63.09375 119.550781 64.539062 117.585938 65.222656 115.699219 Z M 65.222656 115.722656 "/>
<path style=" stroke:none;fill-rule:nonzero;fill:rgb(100%,0%,0%);fill-opacity:1;" d="M 65.332031 14.277344 C 64.675781 12.363281 63.203125 10.371094 59.898438 10.34375 C 56.898438 10.320312 54.414062 12.464844 54.386719 15.542969 C 54.359375 21.308594 61.375 22.398438 65.304688 30.800781 L 65.304688 30.929688 C 69.234375 22.472656 76.277344 21.414062 76.25 15.621094 C 76.222656 12.542969 73.738281 10.394531 70.765625 10.421875 C 67.460938 10.449219 66.015625 12.414062 65.332031 14.300781 Z M 65.332031 14.277344 "/>
<path style=" stroke:none;fill-rule:nonzero;fill:rgb(100%,0%,0%);fill-opacity:1;" d="M 45.054688 58.613281 C 44.398438 56.699219 42.925781 54.707031 39.621094 54.679688 C 36.621094 54.65625 34.136719 56.800781 34.109375 59.878906 C 34.082031 65.648438 41.097656 66.734375 45.027344 75.136719 L 45.027344 75.265625 C 48.957031 66.808594 56 65.75 55.972656 59.957031 C 55.945312 56.878906 53.460938 54.734375 50.488281 54.757812 C 47.183594 54.785156 45.738281 56.75 45.054688 58.636719 Z M 45.054688 58.613281 "/>
<path style=" stroke:none;fill-rule:nonzero;fill:rgb(100%,0%,0%);fill-opacity:1;" d="M 4.445312 5.886719 L 4.445312 11.625 L 4.882812 11.78125 L 5.644531 11.988281 L 6.21875 12.167969 L 6.4375 11.625 C 6.4375 11.625 6.472656 11.460938 6.792969 11.210938 C 7.113281 10.964844 7.691406 10.667969 8.8125 10.667969 C 9.871094 10.667969 10.511719 11.058594 10.96875 11.679688 C 11.429688 12.296875 11.652344 13.195312 11.652344 14.109375 C 11.652344 15.84375 10.488281 17.082031 8.566406 17.082031 C 7.582031 17.082031 6.921875 16.804688 6.464844 16.460938 C 6.011719 16.121094 5.757812 15.703125 5.671875 15.480469 L 4.472656 15.894531 C 4.644531 16.34375 5.011719 16.921875 5.671875 17.417969 C 6.335938 17.917969 7.3125 18.300781 8.566406 18.300781 C 11.121094 18.300781 12.933594 16.410156 12.933594 14.109375 C 12.933594 13.007812 12.667969 11.875 12.007812 10.980469 C 11.34375 10.085938 10.238281 9.480469 8.8125 9.480469 C 7.449219 9.480469 6.523438 9.855469 5.972656 10.28125 C 5.789062 10.421875 5.839844 10.453125 5.726562 10.59375 L 5.726562 7.101562 L 12.550781 7.101562 L 12.550781 5.886719 Z M 4.445312 5.886719 "/>
<path style=" stroke:none;fill-rule:nonzero;fill:rgb(100%,0%,0%);fill-opacity:1;" d="M 85.554688 124.113281 L 85.554688 118.375 L 85.117188 118.21875 L 84.355469 118.011719 L 83.78125 117.832031 L 83.5625 118.375 C 83.5625 118.375 83.527344 118.539062 83.207031 118.789062 C 82.886719 119.035156 82.308594 119.332031 81.1875 119.332031 C 80.128906 119.332031 79.488281 118.941406 79.03125 118.320312 C 78.570312 117.703125 78.347656 116.804688 78.347656 115.890625 C 78.347656 114.15625 79.511719 112.917969 81.433594 112.917969 C 82.417969 112.917969 83.078125 113.195312 83.535156 113.535156 C 83.988281 113.878906 84.242188 114.296875 84.328125 114.519531 L 85.527344 114.105469 C 85.355469 113.65625 84.988281 113.078125 84.328125 112.582031 C 83.664062 112.082031 82.6875 111.699219 81.433594 111.699219 C 78.878906 111.699219 77.066406 113.589844 77.066406 115.890625 C 77.066406 116.992188 77.332031 118.125 77.992188 119.019531 C 78.65625 119.914062 79.761719 120.519531 81.1875 120.519531 C 82.550781 120.519531 83.476562 120.144531 84.027344 119.71875 C 84.210938 119.578125 84.160156 119.546875 84.273438 119.40625 L 84.273438 122.898438 L 77.449219 122.898438 L 77.449219 124.113281 Z M 85.554688 124.113281 "/>
<path style=" stroke:none;fill-rule:nonzero;fill:url(#linear0);" d="M 4.757812 0.269531 L 85.242188 0.269531 C 87.828125 0.269531 89.921875 2.253906 89.921875 4.703125 L 89.921875 125.296875 C 89.921875 127.746094 87.828125 129.730469 85.242188 129.730469 L 4.757812 129.730469 C 2.171875 129.730469 0.078125 127.746094 0.078125 125.296875 L 0.078125 4.703125 C 0.078125 2.253906 2.171875 0.269531 4.757812 0.269531 Z M 4.757812 0.269531 "/>
</g>
</svg>
