<?xml version="1.0" encoding="UTF-8"?>
<svg xmlns="http://www.w3.org/2000/svg" xmlns:xlink="http://www.w3.org/1999/xlink" width="90px" height="130px" viewBox="0 0 90 130" version="1.1">
<defs>
<linearGradient id="linear0" gradientUnits="userSpaceOnUse" x1="0" y1="0" x2="1" y2="0" gradientTransform="matrix(89.844017,0,0,129.461731,0.0779896,0.269122)">
<stop offset="0" style="stop-color:rgb(0%,0%,0%);stop-opacity:0.2;"/>
<stop offset="0.7" style="stop-color:rgb(93.333334%,93.333334%,93.333334%);stop-opacity:0.1;"/>
<stop offset="1" style="stop-color:rgb(0%,0%,0%);stop-opacity:0.2;"/>
</linearGradient>
</defs>
<g id="surface1">
<path style="fill-rule:nonzero;fill:rgb(100%,100%,100%);fill-opacity:1;stroke-width:0.1;stroke-linecap:butt;stroke-linejoin:miter;stroke:rgb(0%,0%,0%);stroke-opacity:1;stroke-miterlimit:4;" d="M 3.200287 0.200277 L 54.799714 0.200277 C 56.457588 0.200277 57.799914 1.543 57.799914 3.200258 L 57.799914 84.799757 C 57.799914 86.457015 56.457588 87.799738 54.799714 87.799738 L 3.200287 87.799738 C 1.542413 87.799738 0.200087 86.457015 0.200087 84.799757 L 0.200087 3.200258 C 0.200087 1.543 1.542413 0.200277 3.200287 0.200277 Z M 3.200287 0.200277 " transform="matrix(1.559792,0,0,1.477874,-0.233969,-0.0264528)"/>
<path style=" stroke:none;fill-rule:nonzero;fill:rgb(100%,0%,0%);fill-opacity:1;" d="M 8.835938 22.246094 C 8.574219 21.480469 7.984375 20.683594 6.660156 20.675781 C 5.460938 20.664062 4.46875 21.523438 4.457031 22.753906 C 4.445312 25.058594 7.25 25.496094 8.824219 28.855469 L 8.824219 28.910156 C 10.394531 25.527344 13.214844 25.101562 13.203125 22.785156 C 13.191406 21.554688 12.199219 20.695312 11.007812 20.707031 C 9.6875 20.714844 9.109375 21.5 8.835938 22.257812 Z M 8.835938 22.246094 "/>
<path style=" stroke:none;fill-rule:nonzero;fill:rgb(100%,0%,0%);fill-opacity:1;" d="M 81.164062 107.753906 C 81.425781 108.519531 82.015625 109.316406 83.339844 109.324219 C 84.539062 109.335938 85.53125 108.476562 85.542969 107.246094 C 85.554688 104.941406 82.75 104.503906 81.175781 101.144531 L 81.175781 101.089844 C 79.605469 104.472656 76.785156 104.898438 76.796875 107.214844 C 76.808594 108.445312 77.800781 109.304688 78.992188 109.292969 C 80.3125 109.285156 80.890625 108.5 81.164062 107.742188 Z M 81.164062 107.753906 "/>
<path style=" stroke:none;fill-rule:nonzero;fill:rgb(100%,0%,0%);fill-opacity:1;" d="M 45.054688 58.613281 C 44.398438 56.699219 42.925781 54.707031 39.621094 54.679688 C 36.621094 54.65625 34.136719 56.800781 34.109375 59.878906 C 34.082031 65.648438 41.097656 66.734375 45.027344 75.136719 L 45.027344 75.265625 C 48.957031 66.808594 56 65.75 55.972656 59.957031 C 55.945312 56.878906 53.460938 54.734375 50.488281 54.757812 C 47.183594 54.785156 45.738281 56.75 45.054688 58.636719 Z M 45.054688 58.613281 "/>
<path style=" stroke:none;fill-rule:nonzero;fill:rgb(100%,0%,0%);fill-opacity:1;" d="M 45.054688 14.277344 C 44.398438 12.363281 42.925781 10.371094 39.621094 10.34375 C 36.621094 10.320312 34.136719 12.464844 34.109375 15.542969 C 34.082031 21.308594 41.097656 22.398438 45.027344 30.800781 L 45.027344 30.929688 C 48.957031 22.472656 56 21.414062 55.972656 15.621094 C 55.945312 12.542969 53.460938 10.394531 50.488281 10.421875 C 47.183594 10.449219 45.738281 12.414062 45.054688 14.300781 Z M 45.054688 14.277344 "/>
<path style=" stroke:none;fill-rule:nonzero;fill:rgb(100%,0%,0%);fill-opacity:1;" d="M 44.945312 115.722656 C 45.601562 117.636719 47.074219 119.628906 50.378906 119.65625 C 53.378906 119.679688 55.863281 117.535156 55.890625 114.457031 C 55.917969 108.691406 48.902344 107.601562 44.972656 99.199219 L 44.972656 99.070312 C 41.042969 107.527344 34 108.585938 34.027344 114.378906 C 34.054688 117.457031 36.539062 119.605469 39.511719 119.578125 C 42.816406 119.550781 44.261719 117.585938 44.945312 115.699219 Z M 44.945312 115.722656 "/>
<path style=" stroke:none;fill-rule:nonzero;fill:rgb(100%,0%,0%);fill-opacity:1;" d="M 4.445312 5.886719 L 4.445312 8.523438 L 5.753906 8.523438 L 5.753906 7.125 L 10.914062 7.125 L 6.355469 11.417969 L 7.121094 12.429688 C 7.121094 12.429688 7.960938 12.039062 9.304688 12.039062 C 9.871094 12.039062 10.554688 12.285156 11.050781 12.6875 C 11.546875 13.089844 11.871094 13.613281 11.871094 14.316406 C 11.871094 15.773438 10.710938 17.058594 8.8125 17.058594 C 7.324219 17.058594 6.117188 16.300781 5.726562 15.246094 L 4.472656 15.636719 C 5.074219 17.261719 6.84375 18.300781 8.8125 18.300781 C 11.363281 18.300781 13.179688 16.429688 13.179688 14.316406 C 13.179688 13.230469 12.636719 12.332031 11.898438 11.730469 C 11.15625 11.128906 10.21875 10.800781 9.304688 10.800781 C 9.117188 10.800781 9.015625 10.839844 8.839844 10.851562 L 12.253906 7.617188 L 12.441406 7.4375 L 12.441406 5.886719 Z M 4.445312 5.886719 "/>
<path style=" stroke:none;fill-rule:nonzero;fill:rgb(100%,0%,0%);fill-opacity:1;" d="M 85.554688 124.113281 L 85.554688 121.476562 L 84.246094 121.476562 L 84.246094 122.875 L 79.085938 122.875 L 83.644531 118.582031 L 82.878906 117.570312 C 82.878906 117.570312 82.039062 117.960938 80.695312 117.960938 C 80.128906 117.960938 79.445312 117.714844 78.949219 117.3125 C 78.453125 116.910156 78.128906 116.386719 78.128906 115.683594 C 78.128906 114.226562 79.289062 112.941406 81.1875 112.941406 C 82.675781 112.941406 83.882812 113.699219 84.273438 114.753906 L 85.527344 114.363281 C 84.925781 112.738281 83.15625 111.699219 81.1875 111.699219 C 78.636719 111.699219 76.820312 113.570312 76.820312 115.683594 C 76.820312 116.769531 77.363281 117.667969 78.101562 118.269531 C 78.84375 118.871094 79.78125 119.199219 80.695312 119.199219 C 80.882812 119.199219 80.984375 119.160156 81.160156 119.148438 L 77.746094 122.382812 L 77.558594 122.5625 L 77.558594 124.113281 Z M 85.554688 124.113281 "/>
<path style=" stroke:none;fill-rule:nonzero;fill:url(#linear0);" d="M 4.757812 0.269531 L 85.242188 0.269531 C 87.828125 0.269531 89.921875 2.253906 89.921875 4.703125 L 89.921875 125.296875 C 89.921875 127.746094 87.828125 129.730469 85.242188 129.730469 L 4.757812 129.730469 C 2.171875 129.730469 0.078125 127.746094 0.078125 125.296875 L 0.078125 4.703125 C 0.078125 2.253906 2.171875 0.269531 4.757812 0.269531 Z M 4.757812 0.269531 "/>
</g>
</svg>
