<?xml version="1.0" encoding="UTF-8"?>
<svg xmlns="http://www.w3.org/2000/svg" xmlns:xlink="http://www.w3.org/1999/xlink" width="90px" height="130px" viewBox="0 0 90 130" version="1.1">
<defs>
<linearGradient id="linear0" gradientUnits="userSpaceOnUse" x1="0" y1="0" x2="1" y2="0" gradientTransform="matrix(89.844017,0,0,129.461731,0.0779896,0.269122)">
<stop offset="0" style="stop-color:rgb(0%,0%,0%);stop-opacity:0.2;"/>
<stop offset="0.7" style="stop-color:rgb(93.333334%,93.333334%,93.333334%);stop-opacity:0.1;"/>
<stop offset="1" style="stop-color:rgb(0%,0%,0%);stop-opacity:0.2;"/>
</linearGradient>
</defs>
<g id="surface1">
<path style="fill-rule:nonzero;fill:rgb(100%,100%,100%);fill-opacity:1;stroke-width:0.1;stroke-linecap:butt;stroke-linejoin:miter;stroke:rgb(0%,0%,0%);stroke-opacity:1;stroke-miterlimit:4;" d="M 3.200287 0.200277 L 54.799714 0.200277 C 56.457588 0.200277 57.799914 1.543 57.799914 3.200258 L 57.799914 84.799757 C 57.799914 86.457015 56.457588 87.799738 54.799714 87.799738 L 3.200287 87.799738 C 1.542413 87.799738 0.200087 86.457015 0.200087 84.799757 L 0.200087 3.200258 C 0.200087 1.543 1.542413 0.200277 3.200287 0.200277 Z M 3.200287 0.200277 " transform="matrix(1.559792,0,0,1.477874,-0.233969,-0.0264528)"/>
<path style=" stroke:none;fill-rule:nonzero;fill:rgb(100%,0%,0%);fill-opacity:1;" d="M 8.835938 22.246094 C 8.574219 21.480469 7.984375 20.683594 6.660156 20.675781 C 5.460938 20.664062 4.46875 21.523438 4.457031 22.753906 C 4.445312 25.058594 7.25 25.496094 8.824219 28.855469 L 8.824219 28.910156 C 10.394531 25.527344 13.214844 25.101562 13.203125 22.785156 C 13.191406 21.554688 12.199219 20.695312 11.007812 20.707031 C 9.6875 20.714844 9.109375 21.5 8.835938 22.257812 Z M 8.835938 22.246094 "/>
<path style=" stroke:none;fill-rule:nonzero;fill:rgb(100%,0%,0%);fill-opacity:1;" d="M 81.164062 107.753906 C 81.425781 108.519531 82.015625 109.316406 83.339844 109.324219 C 84.539062 109.335938 85.53125 108.476562 85.542969 107.246094 C 85.554688 104.941406 82.75 104.503906 81.175781 101.144531 L 81.175781 101.089844 C 79.605469 104.472656 76.785156 104.898438 76.796875 107.214844 C 76.808594 108.445312 77.800781 109.304688 78.992188 109.292969 C 80.3125 109.285156 80.890625 108.5 81.164062 107.742188 Z M 81.164062 107.753906 "/>
<path style=" stroke:none;fill-rule:nonzero;fill:rgb(100%,0%,0%);fill-opacity:1;" d="M 24.777344 14.277344 C 24.121094 12.363281 22.648438 10.371094 19.34375 10.34375 C 16.34375 10.320312 13.859375 12.464844 13.832031 15.542969 C 13.804688 21.308594 20.820312 22.398438 24.75 30.800781 L 24.75 30.929688 C 28.679688 22.472656 35.722656 21.414062 35.695312 15.621094 C 35.667969 12.542969 33.183594 10.394531 30.210938 10.421875 C 26.90625 10.449219 25.460938 12.414062 24.777344 14.300781 Z M 24.777344 14.277344 "/>
<path style=" stroke:none;fill-rule:nonzero;fill:rgb(100%,0%,0%);fill-opacity:1;" d="M 24.667969 115.722656 C 25.324219 117.636719 26.796875 119.628906 30.101562 119.65625 C 33.101562 119.679688 35.585938 117.535156 35.613281 114.457031 C 35.640625 108.691406 28.625 107.601562 24.695312 99.199219 L 24.695312 99.070312 C 20.765625 107.527344 13.722656 108.585938 13.75 114.378906 C 13.777344 117.457031 16.261719 119.605469 19.234375 119.578125 C 22.539062 119.550781 23.984375 117.585938 24.667969 115.699219 Z M 24.667969 115.722656 "/>
<path style=" stroke:none;fill-rule:nonzero;fill:rgb(100%,0%,0%);fill-opacity:1;" d="M 24.777344 43.832031 C 24.121094 41.917969 22.648438 39.929688 19.34375 39.902344 C 16.34375 39.875 13.859375 42.023438 13.832031 45.101562 C 13.804688 50.867188 20.820312 51.953125 24.75 60.359375 L 24.75 60.488281 C 28.679688 52.03125 35.722656 50.972656 35.695312 45.179688 C 35.667969 42.101562 33.183594 39.953125 30.210938 39.980469 C 26.90625 40.003906 25.460938 41.972656 24.777344 43.859375 Z M 24.777344 43.832031 "/>
<path style=" stroke:none;fill-rule:nonzero;fill:rgb(100%,0%,0%);fill-opacity:1;" d="M 24.667969 86.167969 C 25.324219 88.082031 26.796875 90.070312 30.101562 90.097656 C 33.101562 90.125 35.585938 87.976562 35.613281 84.898438 C 35.640625 79.132812 28.625 78.046875 24.695312 69.640625 L 24.695312 69.511719 C 20.765625 77.96875 13.722656 79.027344 13.75 84.820312 C 13.777344 87.898438 16.261719 90.046875 19.234375 90.019531 C 22.539062 89.996094 23.984375 88.027344 24.667969 86.140625 Z M 24.667969 86.167969 "/>
<path style=" stroke:none;fill-rule:nonzero;fill:rgb(100%,0%,0%);fill-opacity:1;" d="M 45.054688 58.613281 C 44.398438 56.699219 42.925781 54.707031 39.621094 54.679688 C 36.621094 54.65625 34.136719 56.800781 34.109375 59.878906 C 34.082031 65.648438 41.097656 66.734375 45.027344 75.136719 L 45.027344 75.265625 C 48.957031 66.808594 56 65.75 55.972656 59.957031 C 55.945312 56.878906 53.460938 54.734375 50.488281 54.757812 C 47.183594 54.785156 45.738281 56.75 45.054688 58.636719 Z M 45.054688 58.613281 "/>
<path style=" stroke:none;fill-rule:nonzero;fill:rgb(100%,0%,0%);fill-opacity:1;" d="M 65.222656 115.722656 C 65.878906 117.636719 67.351562 119.628906 70.65625 119.65625 C 73.65625 119.679688 76.140625 117.535156 76.167969 114.457031 C 76.195312 108.691406 69.179688 107.601562 65.25 99.199219 L 65.25 99.070312 C 61.320312 107.527344 54.277344 108.585938 54.304688 114.378906 C 54.332031 117.457031 56.816406 119.605469 59.789062 119.578125 C 63.09375 119.550781 64.539062 117.585938 65.222656 115.699219 Z M 65.222656 115.722656 "/>
<path style=" stroke:none;fill-rule:nonzero;fill:rgb(100%,0%,0%);fill-opacity:1;" d="M 65.332031 14.277344 C 64.675781 12.363281 63.203125 10.371094 59.898438 10.34375 C 56.898438 10.320312 54.414062 12.464844 54.386719 15.542969 C 54.359375 21.308594 61.375 22.398438 65.304688 30.800781 L 65.304688 30.929688 C 69.234375 22.472656 76.277344 21.414062 76.25 15.621094 C 76.222656 12.542969 73.738281 10.394531 70.765625 10.421875 C 67.460938 10.449219 66.015625 12.414062 65.332031 14.300781 Z M 65.332031 14.277344 "/>
<path style=" stroke:none;fill-rule:nonzero;fill:rgb(100%,0%,0%);fill-opacity:1;" d="M 65.222656 86.167969 C 65.878906 88.082031 67.351562 90.070312 70.65625 90.097656 C 73.65625 90.125 76.140625 87.976562 76.167969 84.898438 C 76.195312 79.132812 69.179688 78.046875 65.25 69.640625 L 65.25 69.511719 C 61.320312 77.96875 54.277344 79.027344 54.304688 84.820312 C 54.332031 87.898438 56.816406 90.046875 59.789062 90.019531 C 63.09375 89.996094 64.539062 88.027344 65.222656 86.140625 Z M 65.222656 86.167969 "/>
<path style=" stroke:none;fill-rule:nonzero;fill:rgb(100%,0%,0%);fill-opacity:1;" d="M 65.332031 43.832031 C 64.675781 41.917969 63.203125 39.929688 59.898438 39.902344 C 56.898438 39.875 54.414062 42.023438 54.386719 45.101562 C 54.359375 50.867188 61.375 51.953125 65.304688 60.359375 L 65.304688 60.488281 C 69.234375 52.03125 76.277344 50.972656 76.25 45.179688 C 76.222656 42.101562 73.738281 39.953125 70.765625 39.980469 C 67.460938 40.003906 66.015625 41.972656 65.332031 43.859375 Z M 65.332031 43.832031 "/>
<path style=" stroke:none;fill-rule:nonzero;fill:rgb(100%,0%,0%);fill-opacity:1;" d="M 8.039062 17.707031 C 10.132812 17.707031 11.332031 16.800781 11.835938 15.871094 C 12.324219 14.964844 12.25 14.109375 12.246094 14.0625 C 12.25 12.355469 12.222656 10.644531 12.273438 8.941406 C 12.273438 6.953125 10.355469 5.320312 8.011719 5.320312 C 5.671875 5.320312 3.753906 6.953125 3.753906 8.941406 C 3.753906 10.925781 5.671875 12.5625 8.011719 12.5625 C 9.148438 12.5625 10.167969 12.171875 10.933594 11.550781 L 10.960938 14.113281 C 10.960938 14.113281 11.003906 14.71875 10.6875 15.304688 C 10.371094 15.886719 9.773438 16.492188 8.039062 16.492188 C 7.535156 16.492188 6.84375 16.363281 6.320312 16.105469 C 5.796875 15.847656 5.457031 15.519531 5.367188 14.914062 L 4.082031 15.070312 C 4.234375 16.09375 4.941406 16.808594 5.71875 17.191406 C 6.5 17.574219 7.359375 17.707031 8.039062 17.707031 Z M 8.011719 11.371094 C 6.410156 11.371094 5.148438 10.300781 5.148438 8.941406 C 5.148438 7.582031 6.410156 6.484375 8.011719 6.484375 C 9.617188 6.484375 10.90625 7.582031 10.90625 8.941406 C 10.90625 10.300781 9.617188 11.371094 8.011719 11.371094 Z M 8.011719 11.371094 "/>
<path style=" stroke:none;fill-rule:nonzero;fill:rgb(100%,0%,0%);fill-opacity:1;" d="M 81.960938 112.292969 C 79.867188 112.292969 78.667969 113.199219 78.164062 114.128906 C 77.675781 115.035156 77.75 115.890625 77.753906 115.9375 C 77.75 117.644531 77.777344 119.355469 77.726562 121.058594 C 77.726562 123.046875 79.644531 124.679688 81.988281 124.679688 C 84.328125 124.679688 86.246094 123.046875 86.246094 121.058594 C 86.246094 119.074219 84.328125 117.4375 81.988281 117.4375 C 80.851562 117.4375 79.832031 117.828125 79.066406 118.449219 L 79.039062 115.886719 C 79.039062 115.886719 78.996094 115.28125 79.3125 114.695312 C 79.628906 114.113281 80.226562 113.507812 81.960938 113.507812 C 82.464844 113.507812 83.15625 113.636719 83.679688 113.894531 C 84.203125 114.152344 84.542969 114.480469 84.632812 115.085938 L 85.917969 114.929688 C 85.765625 113.90625 85.058594 113.191406 84.28125 112.808594 C 83.5 112.425781 82.640625 112.292969 81.960938 112.292969 Z M 81.988281 118.628906 C 83.589844 118.628906 84.851562 119.699219 84.851562 121.058594 C 84.851562 122.417969 83.589844 123.515625 81.988281 123.515625 C 80.382812 123.515625 79.09375 122.417969 79.09375 121.058594 C 79.09375 119.699219 80.382812 118.628906 81.988281 118.628906 Z M 81.988281 118.628906 "/>
<path style=" stroke:none;fill-rule:nonzero;fill:url(#linear0);" d="M 4.757812 0.269531 L 85.242188 0.269531 C 87.828125 0.269531 89.921875 2.253906 89.921875 4.703125 L 89.921875 125.296875 C 89.921875 127.746094 87.828125 129.730469 85.242188 129.730469 L 4.757812 129.730469 C 2.171875 129.730469 0.078125 127.746094 0.078125 125.296875 L 0.078125 4.703125 C 0.078125 2.253906 2.171875 0.269531 4.757812 0.269531 Z M 4.757812 0.269531 "/>
</g>
</svg>
