<?xml version="1.0" encoding="UTF-8"?>
<svg xmlns="http://www.w3.org/2000/svg" xmlns:xlink="http://www.w3.org/1999/xlink" width="90px" height="130px" viewBox="0 0 90 130" version="1.1">
<defs>
<linearGradient id="linear0" gradientUnits="userSpaceOnUse" x1="0" y1="0" x2="1" y2="0" gradientTransform="matrix(89.844017,0,0,129.461731,0.0779896,0.269122)">
<stop offset="0" style="stop-color:rgb(0%,0%,0%);stop-opacity:0.2;"/>
<stop offset="0.7" style="stop-color:rgb(93.333334%,93.333334%,93.333334%);stop-opacity:0.1;"/>
<stop offset="1" style="stop-color:rgb(0%,0%,0%);stop-opacity:0.2;"/>
</linearGradient>
</defs>
<g id="surface1">
<path style="fill-rule:nonzero;fill:rgb(100%,100%,100%);fill-opacity:1;stroke-width:0.1;stroke-linecap:butt;stroke-linejoin:miter;stroke:rgb(0%,0%,0%);stroke-opacity:1;stroke-miterlimit:4;" d="M 3.200287 0.200277 L 54.799714 0.200277 C 56.457588 0.200277 57.799914 1.543 57.799914 3.200258 L 57.799914 84.799757 C 57.799914 86.457015 56.457588 87.799738 54.799714 87.799738 L 3.200287 87.799738 C 1.542413 87.799738 0.200087 86.457015 0.200087 84.799757 L 0.200087 3.200258 C 0.200087 1.543 1.542413 0.200277 3.200287 0.200277 Z M 3.200287 0.200277 " transform="matrix(1.559792,0,0,1.477874,-0.233969,-0.0264528)"/>
<path style=" stroke:none;fill-rule:nonzero;fill:rgb(100%,0%,0%);fill-opacity:1;" d="M 8.835938 22.246094 C 8.574219 21.480469 7.984375 20.683594 6.660156 20.675781 C 5.460938 20.664062 4.46875 21.523438 4.457031 22.753906 C 4.445312 25.058594 7.25 25.496094 8.824219 28.855469 L 8.824219 28.910156 C 10.394531 25.527344 13.214844 25.101562 13.203125 22.785156 C 13.191406 21.554688 12.199219 20.695312 11.007812 20.707031 C 9.6875 20.714844 9.109375 21.5 8.835938 22.257812 Z M 8.835938 22.246094 "/>
<path style=" stroke:none;fill-rule:nonzero;fill:rgb(100%,0%,0%);fill-opacity:1;" d="M 81.164062 107.753906 C 81.425781 108.519531 82.015625 109.316406 83.339844 109.324219 C 84.539062 109.335938 85.53125 108.476562 85.542969 107.246094 C 85.554688 104.941406 82.75 104.503906 81.175781 101.144531 L 81.175781 101.089844 C 79.605469 104.472656 76.785156 104.898438 76.796875 107.214844 C 76.808594 108.445312 77.800781 109.304688 78.992188 109.292969 C 80.3125 109.285156 80.890625 108.5 81.164062 107.742188 Z M 81.164062 107.753906 "/>
<path style=" stroke:none;fill-rule:nonzero;fill:rgb(100%,0%,0%);fill-opacity:1;" d="M 24.777344 14.277344 C 24.121094 12.363281 22.648438 10.371094 19.34375 10.34375 C 16.34375 10.320312 13.859375 12.464844 13.832031 15.542969 C 13.804688 21.308594 20.820312 22.398438 24.75 30.800781 L 24.75 30.929688 C 28.679688 22.472656 35.722656 21.414062 35.695312 15.621094 C 35.667969 12.542969 33.183594 10.394531 30.210938 10.421875 C 26.90625 10.449219 25.460938 12.414062 24.777344 14.300781 Z M 24.777344 14.277344 "/>
<path style=" stroke:none;fill-rule:nonzero;fill:rgb(100%,0%,0%);fill-opacity:1;" d="M 24.667969 115.722656 C 25.324219 117.636719 26.796875 119.628906 30.101562 119.65625 C 33.101562 119.679688 35.585938 117.535156 35.613281 114.457031 C 35.640625 108.691406 28.625 107.601562 24.695312 99.199219 L 24.695312 99.070312 C 20.765625 107.527344 13.722656 108.585938 13.75 114.378906 C 13.777344 117.457031 16.261719 119.605469 19.234375 119.578125 C 22.539062 119.550781 23.984375 117.585938 24.667969 115.699219 Z M 24.667969 115.722656 "/>
<path style=" stroke:none;fill-rule:nonzero;fill:rgb(100%,0%,0%);fill-opacity:1;" d="M 65.222656 115.722656 C 65.878906 117.636719 67.351562 119.628906 70.65625 119.65625 C 73.65625 119.679688 76.140625 117.535156 76.167969 114.457031 C 76.195312 108.691406 69.179688 107.601562 65.25 99.199219 L 65.25 99.070312 C 61.320312 107.527344 54.277344 108.585938 54.304688 114.378906 C 54.332031 117.457031 56.816406 119.605469 59.789062 119.578125 C 63.09375 119.550781 64.539062 117.585938 65.222656 115.699219 Z M 65.222656 115.722656 "/>
<path style=" stroke:none;fill-rule:nonzero;fill:rgb(100%,0%,0%);fill-opacity:1;" d="M 65.332031 14.277344 C 64.675781 12.363281 63.203125 10.371094 59.898438 10.34375 C 56.898438 10.320312 54.414062 12.464844 54.386719 15.542969 C 54.359375 21.308594 61.375 22.398438 65.304688 30.800781 L 65.304688 30.929688 C 69.234375 22.472656 76.277344 21.414062 76.25 15.621094 C 76.222656 12.542969 73.738281 10.394531 70.765625 10.421875 C 67.460938 10.449219 66.015625 12.414062 65.332031 14.300781 Z M 65.332031 14.277344 "/>
<path style=" stroke:none;fill-rule:nonzero;fill:rgb(100%,0%,0%);fill-opacity:1;" d="M 9.660156 5.886719 L 9.46875 6.195312 L 4.527344 14.238281 L 4.445312 14.367188 L 4.445312 15.609375 L 10.070312 15.609375 L 10.070312 17.679688 L 11.378906 17.679688 L 11.378906 15.609375 L 12.523438 15.609375 L 12.523438 14.367188 L 11.378906 14.367188 L 11.378906 5.886719 Z M 10.070312 7.695312 L 10.070312 14.367188 L 5.972656 14.367188 Z M 10.070312 7.695312 "/>
<path style=" stroke:none;fill-rule:nonzero;fill:rgb(100%,0%,0%);fill-opacity:1;" d="M 80.339844 124.113281 L 80.53125 123.804688 L 85.472656 115.761719 L 85.554688 115.632812 L 85.554688 114.390625 L 79.929688 114.390625 L 79.929688 112.320312 L 78.621094 112.320312 L 78.621094 114.390625 L 77.476562 114.390625 L 77.476562 115.632812 L 78.621094 115.632812 L 78.621094 124.113281 Z M 79.929688 122.304688 L 79.929688 115.632812 L 84.027344 115.632812 Z M 79.929688 122.304688 "/>
<path style=" stroke:none;fill-rule:nonzero;fill:url(#linear0);" d="M 4.757812 0.269531 L 85.242188 0.269531 C 87.828125 0.269531 89.921875 2.253906 89.921875 4.703125 L 89.921875 125.296875 C 89.921875 127.746094 87.828125 129.730469 85.242188 129.730469 L 4.757812 129.730469 C 2.171875 129.730469 0.078125 127.746094 0.078125 125.296875 L 0.078125 4.703125 C 0.078125 2.253906 2.171875 0.269531 4.757812 0.269531 Z M 4.757812 0.269531 "/>
</g>
</svg>
