<?xml version="1.0" encoding="UTF-8"?>
<svg xmlns="http://www.w3.org/2000/svg" xmlns:xlink="http://www.w3.org/1999/xlink" width="90px" height="130px" viewBox="0 0 90 130" version="1.1">
<defs>
<linearGradient id="linear0" gradientUnits="userSpaceOnUse" x1="0" y1="0" x2="1" y2="0" gradientTransform="matrix(89.844017,0,0,129.461731,0.0779896,0.269122)">
<stop offset="0" style="stop-color:rgb(0%,0%,0%);stop-opacity:0.2;"/>
<stop offset="0.7" style="stop-color:rgb(93.333334%,93.333334%,93.333334%);stop-opacity:0.1;"/>
<stop offset="1" style="stop-color:rgb(0%,0%,0%);stop-opacity:0.2;"/>
</linearGradient>
</defs>
<g id="surface1">
<path style="fill-rule:nonzero;fill:rgb(100%,100%,100%);fill-opacity:1;stroke-width:0.1;stroke-linecap:butt;stroke-linejoin:miter;stroke:rgb(0%,0%,0%);stroke-opacity:1;stroke-miterlimit:4;" d="M 3.200287 0.200277 L 54.799714 0.200277 C 56.457588 0.200277 57.799914 1.543 57.799914 3.200258 L 57.799914 84.799757 C 57.799914 86.457015 56.457588 87.799738 54.799714 87.799738 L 3.200287 87.799738 C 1.542413 87.799738 0.200087 86.457015 0.200087 84.799757 L 0.200087 3.200258 C 0.200087 1.543 1.542413 0.200277 3.200287 0.200277 Z M 3.200287 0.200277 " transform="matrix(1.559792,0,0,1.477874,-0.233969,-0.0264528)"/>
<path style=" stroke:none;fill-rule:nonzero;fill:rgb(100%,0%,0%);fill-opacity:1;" d="M 8.835938 22.246094 C 8.574219 21.480469 7.984375 20.683594 6.660156 20.675781 C 5.460938 20.664062 4.46875 21.523438 4.457031 22.753906 C 4.445312 25.058594 7.25 25.496094 8.824219 28.855469 L 8.824219 28.910156 C 10.394531 25.527344 13.214844 25.101562 13.203125 22.785156 C 13.191406 21.554688 12.199219 20.695312 11.007812 20.707031 C 9.6875 20.714844 9.109375 21.5 8.835938 22.257812 Z M 8.835938 22.246094 "/>
<path style=" stroke:none;fill-rule:nonzero;fill:rgb(100%,0%,0%);fill-opacity:1;" d="M 81.164062 107.753906 C 81.425781 108.519531 82.015625 109.316406 83.339844 109.324219 C 84.539062 109.335938 85.53125 108.476562 85.542969 107.246094 C 85.554688 104.941406 82.75 104.503906 81.175781 101.144531 L 81.175781 101.089844 C 79.605469 104.472656 76.785156 104.898438 76.796875 107.214844 C 76.808594 108.445312 77.800781 109.304688 78.992188 109.292969 C 80.3125 109.285156 80.890625 108.5 81.164062 107.742188 Z M 81.164062 107.753906 "/>
<path style=" stroke:none;fill-rule:nonzero;fill:rgb(100%,0%,0%);fill-opacity:1;" d="M 24.777344 14.277344 C 24.121094 12.363281 22.648438 10.371094 19.34375 10.34375 C 16.34375 10.320312 13.859375 12.464844 13.832031 15.542969 C 13.804688 21.308594 20.820312 22.398438 24.75 30.800781 L 24.75 30.929688 C 28.679688 22.472656 35.722656 21.414062 35.695312 15.621094 C 35.667969 12.542969 33.183594 10.394531 30.210938 10.421875 C 26.90625 10.449219 25.460938 12.414062 24.777344 14.300781 Z M 24.777344 14.277344 "/>
<path style=" stroke:none;fill-rule:nonzero;fill:rgb(100%,0%,0%);fill-opacity:1;" d="M 24.667969 115.722656 C 25.324219 117.636719 26.796875 119.628906 30.101562 119.65625 C 33.101562 119.679688 35.585938 117.535156 35.613281 114.457031 C 35.640625 108.691406 28.625 107.601562 24.695312 99.199219 L 24.695312 99.070312 C 20.765625 107.527344 13.722656 108.585938 13.75 114.378906 C 13.777344 117.457031 16.261719 119.605469 19.234375 119.578125 C 22.539062 119.550781 23.984375 117.585938 24.667969 115.699219 Z M 24.667969 115.722656 "/>
<path style=" stroke:none;fill-rule:nonzero;fill:rgb(100%,0%,0%);fill-opacity:1;" d="M 24.777344 43.832031 C 24.121094 41.917969 22.648438 39.929688 19.34375 39.902344 C 16.34375 39.875 13.859375 42.023438 13.832031 45.101562 C 13.804688 50.867188 20.820312 51.953125 24.75 60.359375 L 24.75 60.488281 C 28.679688 52.03125 35.722656 50.972656 35.695312 45.179688 C 35.667969 42.101562 33.183594 39.953125 30.210938 39.980469 C 26.90625 40.003906 25.460938 41.972656 24.777344 43.859375 Z M 24.777344 43.832031 "/>
<path style=" stroke:none;fill-rule:nonzero;fill:rgb(100%,0%,0%);fill-opacity:1;" d="M 24.667969 86.167969 C 25.324219 88.082031 26.796875 90.070312 30.101562 90.097656 C 33.101562 90.125 35.585938 87.976562 35.613281 84.898438 C 35.640625 79.132812 28.625 78.046875 24.695312 69.640625 L 24.695312 69.511719 C 20.765625 77.96875 13.722656 79.027344 13.75 84.820312 C 13.777344 87.898438 16.261719 90.046875 19.234375 90.019531 C 22.539062 89.996094 23.984375 88.027344 24.667969 86.140625 Z M 24.667969 86.167969 "/>
<path style=" stroke:none;fill-rule:nonzero;fill:rgb(100%,0%,0%);fill-opacity:1;" d="M 45.054688 29.054688 C 44.398438 27.140625 42.925781 25.148438 39.621094 25.125 C 36.621094 25.097656 34.136719 27.242188 34.109375 30.320312 C 34.082031 36.089844 41.097656 37.175781 45.027344 45.582031 L 45.027344 45.710938 C 48.957031 37.253906 56 36.191406 55.972656 30.398438 C 55.945312 27.320312 53.460938 25.175781 50.488281 25.199219 C 47.183594 25.226562 45.738281 27.191406 45.054688 29.082031 Z M 45.054688 29.054688 "/>
<path style=" stroke:none;fill-rule:nonzero;fill:rgb(100%,0%,0%);fill-opacity:1;" d="M 44.945312 100.945312 C 45.601562 102.859375 47.074219 104.851562 50.378906 104.875 C 53.378906 104.902344 55.863281 102.757812 55.890625 99.679688 C 55.917969 93.910156 48.902344 92.824219 44.972656 84.417969 L 44.972656 84.289062 C 41.042969 92.746094 34 93.808594 34.027344 99.601562 C 34.054688 102.679688 36.539062 104.824219 39.511719 104.800781 C 42.816406 104.773438 44.261719 102.808594 44.945312 100.917969 Z M 44.945312 100.945312 "/>
<path style=" stroke:none;fill-rule:nonzero;fill:rgb(100%,0%,0%);fill-opacity:1;" d="M 65.222656 115.722656 C 65.878906 117.636719 67.351562 119.628906 70.65625 119.65625 C 73.65625 119.679688 76.140625 117.535156 76.167969 114.457031 C 76.195312 108.691406 69.179688 107.601562 65.25 99.199219 L 65.25 99.070312 C 61.320312 107.527344 54.277344 108.585938 54.304688 114.378906 C 54.332031 117.457031 56.816406 119.605469 59.789062 119.578125 C 63.09375 119.550781 64.539062 117.585938 65.222656 115.699219 Z M 65.222656 115.722656 "/>
<path style=" stroke:none;fill-rule:nonzero;fill:rgb(100%,0%,0%);fill-opacity:1;" d="M 65.332031 14.277344 C 64.675781 12.363281 63.203125 10.371094 59.898438 10.34375 C 56.898438 10.320312 54.414062 12.464844 54.386719 15.542969 C 54.359375 21.308594 61.375 22.398438 65.304688 30.800781 L 65.304688 30.929688 C 69.234375 22.472656 76.277344 21.414062 76.25 15.621094 C 76.222656 12.542969 73.738281 10.394531 70.765625 10.421875 C 67.460938 10.449219 66.015625 12.414062 65.332031 14.300781 Z M 65.332031 14.277344 "/>
<path style=" stroke:none;fill-rule:nonzero;fill:rgb(100%,0%,0%);fill-opacity:1;" d="M 65.222656 86.167969 C 65.878906 88.082031 67.351562 90.070312 70.65625 90.097656 C 73.65625 90.125 76.140625 87.976562 76.167969 84.898438 C 76.195312 79.132812 69.179688 78.046875 65.25 69.640625 L 65.25 69.511719 C 61.320312 77.96875 54.277344 79.027344 54.304688 84.820312 C 54.332031 87.898438 56.816406 90.046875 59.789062 90.019531 C 63.09375 89.996094 64.539062 88.027344 65.222656 86.140625 Z M 65.222656 86.167969 "/>
<path style=" stroke:none;fill-rule:nonzero;fill:rgb(100%,0%,0%);fill-opacity:1;" d="M 65.332031 43.832031 C 64.675781 41.917969 63.203125 39.929688 59.898438 39.902344 C 56.898438 39.875 54.414062 42.023438 54.386719 45.101562 C 54.359375 50.867188 61.375 51.953125 65.304688 60.359375 L 65.304688 60.488281 C 69.234375 52.03125 76.277344 50.972656 76.25 45.179688 C 76.222656 42.101562 73.738281 39.953125 70.765625 39.980469 C 67.460938 40.003906 66.015625 41.972656 65.332031 43.859375 Z M 65.332031 43.832031 "/>
<path style=" stroke:none;fill-rule:nonzero;fill:rgb(100%,0%,0%);fill-opacity:1;" d="M 10.0625 6.378906 C 8.667969 6.378906 7.488281 7.445312 7.488281 8.761719 L 7.488281 15.652344 C 7.488281 16.96875 8.667969 18.039062 10.0625 18.039062 C 11.453125 18.039062 12.578125 16.96875 12.578125 15.652344 L 12.578125 8.761719 C 12.578125 7.445312 11.453125 6.378906 10.0625 6.378906 Z M 4.914062 6.535156 L 4.914062 17.878906 L 6.089844 17.878906 L 6.089844 6.535156 Z M 10.0625 7.542969 C 10.820312 7.542969 11.402344 8.078125 11.402344 8.761719 L 11.402344 15.652344 C 11.402344 16.335938 10.820312 16.871094 10.0625 16.871094 C 9.304688 16.871094 8.71875 16.335938 8.71875 15.652344 L 8.71875 8.761719 C 8.71875 8.078125 9.304688 7.542969 10.0625 7.542969 Z M 10.0625 7.542969 "/>
<path style=" stroke:none;fill-rule:nonzero;fill:rgb(100%,0%,0%);fill-opacity:1;" d="M 79.9375 123.621094 C 81.332031 123.621094 82.511719 122.554688 82.511719 121.238281 L 82.511719 114.347656 C 82.511719 113.03125 81.332031 111.960938 79.9375 111.960938 C 78.546875 111.960938 77.421875 113.03125 77.421875 114.347656 L 77.421875 121.238281 C 77.421875 122.554688 78.546875 123.621094 79.9375 123.621094 Z M 85.085938 123.464844 L 85.085938 112.121094 L 83.910156 112.121094 L 83.910156 123.464844 Z M 79.9375 122.457031 C 79.179688 122.457031 78.597656 121.921875 78.597656 121.238281 L 78.597656 114.347656 C 78.597656 113.664062 79.179688 113.128906 79.9375 113.128906 C 80.695312 113.128906 81.28125 113.664062 81.28125 114.347656 L 81.28125 121.238281 C 81.28125 121.921875 80.695312 122.457031 79.9375 122.457031 Z M 79.9375 122.457031 "/>
<path style=" stroke:none;fill-rule:nonzero;fill:url(#linear0);" d="M 4.757812 0.269531 L 85.242188 0.269531 C 87.828125 0.269531 89.921875 2.253906 89.921875 4.703125 L 89.921875 125.296875 C 89.921875 127.746094 87.828125 129.730469 85.242188 129.730469 L 4.757812 129.730469 C 2.171875 129.730469 0.078125 127.746094 0.078125 125.296875 L 0.078125 4.703125 C 0.078125 2.253906 2.171875 0.269531 4.757812 0.269531 Z M 4.757812 0.269531 "/>
</g>
</svg>
