<?xml version="1.0" encoding="UTF-8"?>
<svg xmlns="http://www.w3.org/2000/svg" xmlns:xlink="http://www.w3.org/1999/xlink" width="90px" height="130px" viewBox="0 0 90 130" version="1.1">
<defs>
<linearGradient id="linear0" gradientUnits="userSpaceOnUse" x1="0" y1="0" x2="1" y2="0" gradientTransform="matrix(89.844017,0,0,129.461731,0.0779896,0.269122)">
<stop offset="0" style="stop-color:rgb(0%,0%,0%);stop-opacity:0.2;"/>
<stop offset="0.7" style="stop-color:rgb(93.333334%,93.333334%,93.333334%);stop-opacity:0.1;"/>
<stop offset="1" style="stop-color:rgb(0%,0%,0%);stop-opacity:0.2;"/>
</linearGradient>
</defs>
<g id="surface1">
<path style="fill-rule:nonzero;fill:rgb(100%,100%,100%);fill-opacity:1;stroke-width:0.1;stroke-linecap:butt;stroke-linejoin:miter;stroke:rgb(0%,0%,0%);stroke-opacity:1;stroke-miterlimit:4;" d="M 3.200287 0.200277 L 54.799714 0.200277 C 56.457588 0.200277 57.799914 1.543 57.799914 3.200258 L 57.799914 84.799757 C 57.799914 86.457015 56.457588 87.799738 54.799714 87.799738 L 3.200287 87.799738 C 1.542413 87.799738 0.200087 86.457015 0.200087 84.799757 L 0.200087 3.200258 C 0.200087 1.543 1.542413 0.200277 3.200287 0.200277 Z M 3.200287 0.200277 " transform="matrix(1.559792,0,0,1.477874,-0.233969,-0.0264528)"/>
<path style=" stroke:none;fill-rule:nonzero;fill:rgb(100%,0%,0%);fill-opacity:1;" d="M 8.835938 22.246094 C 8.574219 21.480469 7.984375 20.683594 6.660156 20.675781 C 5.460938 20.664062 4.46875 21.523438 4.457031 22.753906 C 4.445312 25.058594 7.25 25.496094 8.824219 28.855469 L 8.824219 28.910156 C 10.394531 25.527344 13.214844 25.101562 13.203125 22.785156 C 13.191406 21.554688 12.199219 20.695312 11.007812 20.707031 C 9.6875 20.714844 9.109375 21.5 8.835938 22.257812 Z M 8.835938 22.246094 "/>
<path style=" stroke:none;fill-rule:nonzero;fill:rgb(100%,0%,0%);fill-opacity:1;" d="M 81.164062 107.753906 C 81.425781 108.519531 82.015625 109.316406 83.339844 109.324219 C 84.539062 109.335938 85.53125 108.476562 85.542969 107.246094 C 85.554688 104.941406 82.75 104.503906 81.175781 101.144531 L 81.175781 101.089844 C 79.605469 104.472656 76.785156 104.898438 76.796875 107.214844 C 76.808594 108.445312 77.800781 109.304688 78.992188 109.292969 C 80.3125 109.285156 80.890625 108.5 81.164062 107.742188 Z M 81.164062 107.753906 "/>
<path style=" stroke:none;fill-rule:nonzero;fill:rgb(100%,0%,0%);fill-opacity:1;" d="M 45.054688 58.613281 C 44.398438 56.699219 42.925781 54.707031 39.621094 54.679688 C 36.621094 54.65625 34.136719 56.800781 34.109375 59.878906 C 34.082031 65.648438 41.097656 66.734375 45.027344 75.136719 L 45.027344 75.265625 C 48.957031 66.808594 56 65.75 55.972656 59.957031 C 55.945312 56.878906 53.460938 54.734375 50.488281 54.757812 C 47.183594 54.785156 45.738281 56.75 45.054688 58.636719 Z M 45.054688 58.613281 "/>
<path style=" stroke:none;fill-rule:nonzero;fill:rgb(0%,0%,0%);fill-opacity:1;" d="M 44.0625 93.476562 L 44.0625 87.292969 L 45.648438 87.152344 L 45.632812 89.867188 L 47.722656 87.214844 L 49.410156 87.582031 L 47.234375 90.234375 L 49.394531 93.046875 L 47.742188 93.542969 L 45.632812 90.617188 L 45.632812 93.253906 Z M 44.0625 93.476562 "/>
<path style=" stroke:none;fill-rule:nonzero;fill:rgb(0%,0%,0%);fill-opacity:1;" d="M 47.84375 93.929688 L 47.707031 93.972656 C 47.6875 93.976562 47.667969 93.96875 47.65625 93.953125 C 47.65625 93.953125 47.382812 93.578125 47.035156 93.09375 C 46.617188 93.867188 45.769531 94.398438 44.789062 94.398438 C 43.398438 94.398438 42.269531 93.328125 42.269531 92.011719 C 42.269531 91.039062 42.878906 90.207031 43.757812 89.832031 L 43.757812 89.214844 C 43.597656 89.269531 43.445312 89.332031 43.296875 89.40625 L 42.109375 88.667969 C 42.078125 88.648438 42.035156 88.652344 42.007812 88.679688 L 41.386719 89.269531 C 41.359375 89.292969 41.355469 89.332031 41.375 89.363281 L 42.101562 90.5 C 41.972656 90.703125 41.871094 90.925781 41.796875 91.160156 L 40.457031 91.425781 C 40.421875 91.429688 40.394531 91.460938 40.394531 91.5 L 40.394531 92.332031 C 40.394531 92.367188 40.417969 92.398438 40.457031 92.40625 L 41.753906 92.707031 C 41.824219 92.976562 41.929688 93.234375 42.070312 93.472656 L 41.320312 94.554688 C 41.300781 94.585938 41.304688 94.625 41.332031 94.652344 L 41.953125 95.242188 C 41.980469 95.265625 42.019531 95.269531 42.050781 95.253906 L 43.230469 94.574219 C 43.460938 94.703125 43.710938 94.800781 43.972656 94.867188 L 44.246094 96.121094 C 44.253906 96.15625 44.289062 96.179688 44.328125 96.179688 L 45.207031 96.179688 C 45.242188 96.179688 45.277344 96.15625 45.285156 96.121094 L 45.609375 94.867188 C 45.878906 94.800781 46.136719 94.695312 46.375 94.5625 L 47.535156 95.285156 C 47.566406 95.304688 47.605469 95.300781 47.632812 95.273438 L 48.257812 94.683594 C 48.28125 94.660156 48.289062 94.621094 48.269531 94.589844 Z M 47.84375 93.929688 "/>
<path style=" stroke:none;fill-rule:nonzero;fill:rgb(100%,0%,0%);fill-opacity:1;" d="M 8.210938 5.910156 L 5.699219 16.308594 L 4.445312 16.308594 L 4.445312 17.472656 L 8.128906 17.472656 L 8.128906 16.308594 L 6.957031 16.308594 L 7.367188 14.625 L 10.257812 14.625 L 10.667969 16.308594 L 9.496094 16.308594 L 9.496094 17.472656 L 13.179688 17.472656 L 13.179688 16.308594 L 11.925781 16.308594 L 9.414062 5.910156 Z M 8.8125 8.652344 L 9.988281 13.460938 L 7.640625 13.460938 Z M 8.8125 8.652344 "/>
<path style=" stroke:none;fill-rule:nonzero;fill:rgb(100%,0%,0%);fill-opacity:1;" d="M 81.789062 124.089844 L 84.300781 113.691406 L 85.554688 113.691406 L 85.554688 112.527344 L 81.871094 112.527344 L 81.871094 113.691406 L 83.042969 113.691406 L 82.632812 115.375 L 79.742188 115.375 L 79.332031 113.691406 L 80.503906 113.691406 L 80.503906 112.527344 L 76.820312 112.527344 L 76.820312 113.691406 L 78.074219 113.691406 L 80.585938 124.089844 Z M 81.1875 121.347656 L 80.011719 116.539062 L 82.359375 116.539062 Z M 81.1875 121.347656 "/>
<path style=" stroke:none;fill-rule:nonzero;fill:url(#linear0);" d="M 4.757812 0.269531 L 85.242188 0.269531 C 87.828125 0.269531 89.921875 2.253906 89.921875 4.703125 L 89.921875 125.296875 C 89.921875 127.746094 87.828125 129.730469 85.242188 129.730469 L 4.757812 129.730469 C 2.171875 129.730469 0.078125 127.746094 0.078125 125.296875 L 0.078125 4.703125 C 0.078125 2.253906 2.171875 0.269531 4.757812 0.269531 Z M 4.757812 0.269531 "/>
</g>
</svg>
