<?xml version="1.0" encoding="UTF-8"?>
<svg xmlns="http://www.w3.org/2000/svg" xmlns:xlink="http://www.w3.org/1999/xlink" width="90px" height="130px" viewBox="0 0 90 130" version="1.1">
<defs>
<linearGradient id="linear0" gradientUnits="userSpaceOnUse" x1="0" y1="0" x2="1" y2="0" gradientTransform="matrix(89.844017,0,0,129.461731,0.0779896,0.269122)">
<stop offset="0" style="stop-color:rgb(0%,0%,0%);stop-opacity:0.2;"/>
<stop offset="0.7" style="stop-color:rgb(93.333334%,93.333334%,93.333334%);stop-opacity:0.1;"/>
<stop offset="1" style="stop-color:rgb(0%,0%,0%);stop-opacity:0.2;"/>
</linearGradient>
</defs>
<g id="surface1">
<path style="fill-rule:nonzero;fill:rgb(100%,100%,100%);fill-opacity:1;stroke-width:0.1;stroke-linecap:butt;stroke-linejoin:miter;stroke:rgb(0%,0%,0%);stroke-opacity:1;stroke-miterlimit:4;" d="M 3.200287 0.200277 L 54.799714 0.200277 C 56.457588 0.200277 57.799914 1.543 57.799914 3.200258 L 57.799914 84.799757 C 57.799914 86.457015 56.457588 87.799738 54.799714 87.799738 L 3.200287 87.799738 C 1.542413 87.799738 0.200087 86.457015 0.200087 84.799757 L 0.200087 3.200258 C 0.200087 1.543 1.542413 0.200277 3.200287 0.200277 Z M 3.200287 0.200277 " transform="matrix(1.559792,0,0,1.477874,-0.233969,-0.0264528)"/>
<path style=" stroke:none;fill-rule:nonzero;fill:rgb(100%,0%,0%);fill-opacity:1;" d="M 8.835938 22.246094 C 8.574219 21.480469 7.984375 20.683594 6.660156 20.675781 C 5.460938 20.664062 4.46875 21.523438 4.457031 22.753906 C 4.445312 25.058594 7.25 25.496094 8.824219 28.855469 L 8.824219 28.910156 C 10.394531 25.527344 13.214844 25.101562 13.203125 22.785156 C 13.191406 21.554688 12.199219 20.695312 11.007812 20.707031 C 9.6875 20.714844 9.109375 21.5 8.835938 22.257812 Z M 8.835938 22.246094 "/>
<path style=" stroke:none;fill-rule:nonzero;fill:rgb(100%,0%,0%);fill-opacity:1;" d="M 81.164062 107.753906 C 81.425781 108.519531 82.015625 109.316406 83.339844 109.324219 C 84.539062 109.335938 85.53125 108.476562 85.542969 107.246094 C 85.554688 104.941406 82.75 104.503906 81.175781 101.144531 L 81.175781 101.089844 C 79.605469 104.472656 76.785156 104.898438 76.796875 107.214844 C 76.808594 108.445312 77.800781 109.304688 78.992188 109.292969 C 80.3125 109.285156 80.890625 108.5 81.164062 107.742188 Z M 81.164062 107.753906 "/>
<path style=" stroke:none;fill-rule:nonzero;fill:rgb(100%,0%,0%);fill-opacity:1;" d="M 24.777344 58.613281 C 24.121094 56.699219 22.648438 54.707031 19.34375 54.679688 C 16.34375 54.65625 13.859375 56.800781 13.832031 59.878906 C 13.804688 65.648438 20.820312 66.734375 24.75 75.136719 L 24.75 75.265625 C 28.679688 66.808594 35.722656 65.75 35.695312 59.957031 C 35.667969 56.878906 33.183594 54.734375 30.210938 54.757812 C 26.90625 54.785156 25.460938 56.75 24.777344 58.636719 Z M 24.777344 58.613281 "/>
<path style=" stroke:none;fill-rule:nonzero;fill:rgb(100%,0%,0%);fill-opacity:1;" d="M 24.777344 14.277344 C 24.121094 12.363281 22.648438 10.371094 19.34375 10.34375 C 16.34375 10.320312 13.859375 12.464844 13.832031 15.542969 C 13.804688 21.308594 20.820312 22.398438 24.75 30.800781 L 24.75 30.929688 C 28.679688 22.472656 35.722656 21.414062 35.695312 15.621094 C 35.667969 12.542969 33.183594 10.394531 30.210938 10.421875 C 26.90625 10.449219 25.460938 12.414062 24.777344 14.300781 Z M 24.777344 14.277344 "/>
<path style=" stroke:none;fill-rule:nonzero;fill:rgb(100%,0%,0%);fill-opacity:1;" d="M 24.667969 115.722656 C 25.324219 117.636719 26.796875 119.628906 30.101562 119.65625 C 33.101562 119.679688 35.585938 117.535156 35.613281 114.457031 C 35.640625 108.691406 28.625 107.601562 24.695312 99.199219 L 24.695312 99.070312 C 20.765625 107.527344 13.722656 108.585938 13.75 114.378906 C 13.777344 117.457031 16.261719 119.605469 19.234375 119.578125 C 22.539062 119.550781 23.984375 117.585938 24.667969 115.699219 Z M 24.667969 115.722656 "/>
<path style=" stroke:none;fill-rule:nonzero;fill:rgb(100%,0%,0%);fill-opacity:1;" d="M 45.054688 36.445312 C 44.398438 34.53125 42.925781 32.539062 39.621094 32.511719 C 36.621094 32.488281 34.136719 34.632812 34.109375 37.710938 C 34.082031 43.476562 41.097656 44.566406 45.027344 52.96875 L 45.027344 53.097656 C 48.957031 44.640625 56 43.582031 55.972656 37.789062 C 55.945312 34.710938 53.460938 32.5625 50.488281 32.589844 C 47.183594 32.617188 45.738281 34.582031 45.054688 36.46875 Z M 45.054688 36.445312 "/>
<path style=" stroke:none;fill-rule:nonzero;fill:rgb(100%,0%,0%);fill-opacity:1;" d="M 44.945312 93.554688 C 45.601562 95.46875 47.074219 97.460938 50.378906 97.488281 C 53.378906 97.511719 55.863281 95.367188 55.890625 92.289062 C 55.917969 86.523438 48.902344 85.433594 44.972656 77.03125 L 44.972656 76.902344 C 41.042969 85.359375 34 86.417969 34.027344 92.210938 C 34.054688 95.289062 36.539062 97.4375 39.511719 97.410156 C 42.816406 97.382812 44.261719 95.417969 44.945312 93.53125 Z M 44.945312 93.554688 "/>
<path style=" stroke:none;fill-rule:nonzero;fill:rgb(100%,0%,0%);fill-opacity:1;" d="M 65.222656 71.386719 C 65.878906 73.300781 67.351562 75.292969 70.65625 75.320312 C 73.65625 75.34375 76.140625 73.199219 76.167969 70.121094 C 76.195312 64.351562 69.179688 63.265625 65.25 54.863281 L 65.25 54.734375 C 61.320312 63.191406 54.277344 64.25 54.304688 70.042969 C 54.332031 73.121094 56.816406 75.265625 59.789062 75.242188 C 63.09375 75.214844 64.539062 73.25 65.222656 71.363281 Z M 65.222656 71.386719 "/>
<path style=" stroke:none;fill-rule:nonzero;fill:rgb(100%,0%,0%);fill-opacity:1;" d="M 65.222656 115.722656 C 65.878906 117.636719 67.351562 119.628906 70.65625 119.65625 C 73.65625 119.679688 76.140625 117.535156 76.167969 114.457031 C 76.195312 108.691406 69.179688 107.601562 65.25 99.199219 L 65.25 99.070312 C 61.320312 107.527344 54.277344 108.585938 54.304688 114.378906 C 54.332031 117.457031 56.816406 119.605469 59.789062 119.578125 C 63.09375 119.550781 64.539062 117.585938 65.222656 115.699219 Z M 65.222656 115.722656 "/>
<path style=" stroke:none;fill-rule:nonzero;fill:rgb(100%,0%,0%);fill-opacity:1;" d="M 65.332031 14.277344 C 64.675781 12.363281 63.203125 10.371094 59.898438 10.34375 C 56.898438 10.320312 54.414062 12.464844 54.386719 15.542969 C 54.359375 21.308594 61.375 22.398438 65.304688 30.800781 L 65.304688 30.929688 C 69.234375 22.472656 76.277344 21.414062 76.25 15.621094 C 76.222656 12.542969 73.738281 10.394531 70.765625 10.421875 C 67.460938 10.449219 66.015625 12.414062 65.332031 14.300781 Z M 65.332031 14.277344 "/>
<path style=" stroke:none;fill-rule:nonzero;fill:rgb(100%,0%,0%);fill-opacity:1;" d="M 8.8125 5.9375 C 6.679688 5.9375 4.9375 7.347656 4.9375 9.066406 C 4.9375 10.128906 5.617188 11.0625 6.628906 11.625 C 5.308594 12.238281 4.417969 13.386719 4.417969 14.703125 C 4.417969 16.664062 6.382812 18.246094 8.8125 18.246094 C 11.246094 18.246094 13.207031 16.664062 13.207031 14.703125 C 13.207031 13.386719 12.316406 12.238281 10.996094 11.625 C 12.007812 11.0625 12.6875 10.128906 12.6875 9.066406 C 12.6875 7.347656 10.949219 5.9375 8.8125 5.9375 Z M 8.8125 6.972656 C 10.242188 6.972656 11.40625 7.914062 11.40625 9.066406 C 11.40625 10.21875 10.242188 11.136719 8.8125 11.136719 C 7.382812 11.136719 6.21875 10.21875 6.21875 9.066406 C 6.21875 7.914062 7.382812 6.972656 8.8125 6.972656 Z M 8.8125 12.167969 C 10.539062 12.167969 11.953125 13.3125 11.953125 14.703125 C 11.953125 16.097656 10.539062 17.214844 8.8125 17.214844 C 7.085938 17.214844 5.671875 16.097656 5.671875 14.703125 C 5.671875 13.3125 7.085938 12.167969 8.8125 12.167969 Z M 8.8125 12.167969 "/>
<path style=" stroke:none;fill-rule:nonzero;fill:rgb(100%,0%,0%);fill-opacity:1;" d="M 81.1875 124.0625 C 83.320312 124.0625 85.0625 122.652344 85.0625 120.933594 C 85.0625 119.871094 84.382812 118.9375 83.371094 118.375 C 84.691406 117.761719 85.582031 116.613281 85.582031 115.296875 C 85.582031 113.335938 83.617188 111.753906 81.1875 111.753906 C 78.753906 111.753906 76.792969 113.335938 76.792969 115.296875 C 76.792969 116.613281 77.683594 117.761719 79.003906 118.375 C 77.992188 118.9375 77.3125 119.871094 77.3125 120.933594 C 77.3125 122.652344 79.050781 124.0625 81.1875 124.0625 Z M 81.1875 123.027344 C 79.757812 123.027344 78.59375 122.085938 78.59375 120.933594 C 78.59375 119.78125 79.757812 118.863281 81.1875 118.863281 C 82.617188 118.863281 83.78125 119.78125 83.78125 120.933594 C 83.78125 122.085938 82.617188 123.027344 81.1875 123.027344 Z M 81.1875 117.832031 C 79.460938 117.832031 78.046875 116.6875 78.046875 115.296875 C 78.046875 113.902344 79.460938 112.785156 81.1875 112.785156 C 82.914062 112.785156 84.328125 113.902344 84.328125 115.296875 C 84.328125 116.6875 82.914062 117.832031 81.1875 117.832031 Z M 81.1875 117.832031 "/>
<path style=" stroke:none;fill-rule:nonzero;fill:url(#linear0);" d="M 4.757812 0.269531 L 85.242188 0.269531 C 87.828125 0.269531 89.921875 2.253906 89.921875 4.703125 L 89.921875 125.296875 C 89.921875 127.746094 87.828125 129.730469 85.242188 129.730469 L 4.757812 129.730469 C 2.171875 129.730469 0.078125 127.746094 0.078125 125.296875 L 0.078125 4.703125 C 0.078125 2.253906 2.171875 0.269531 4.757812 0.269531 Z M 4.757812 0.269531 "/>
</g>
</svg>
