<?xml version="1.0" encoding="UTF-8"?>
<svg xmlns="http://www.w3.org/2000/svg" xmlns:xlink="http://www.w3.org/1999/xlink" width="90px" height="130px" viewBox="0 0 90 130" version="1.1">
<defs>
<linearGradient id="linear0" gradientUnits="userSpaceOnUse" x1="0" y1="0" x2="1" y2="0" gradientTransform="matrix(89.844017,0,0,129.461731,0.0779896,0.269122)">
<stop offset="0" style="stop-color:rgb(0%,0%,0%);stop-opacity:0.2;"/>
<stop offset="0.7" style="stop-color:rgb(93.333334%,93.333334%,93.333334%);stop-opacity:0.1;"/>
<stop offset="1" style="stop-color:rgb(0%,0%,0%);stop-opacity:0.2;"/>
</linearGradient>
</defs>
<g id="surface1">
<path style="fill-rule:nonzero;fill:rgb(100%,100%,100%);fill-opacity:1;stroke-width:0.1;stroke-linecap:butt;stroke-linejoin:miter;stroke:rgb(0%,0%,0%);stroke-opacity:1;stroke-miterlimit:4;" d="M 3.200287 0.200277 L 54.799714 0.200277 C 56.457588 0.200277 57.799914 1.543 57.799914 3.200258 L 57.799914 84.799757 C 57.799914 86.457015 56.457588 87.799738 54.799714 87.799738 L 3.200287 87.799738 C 1.542413 87.799738 0.200087 86.457015 0.200087 84.799757 L 0.200087 3.200258 C 0.200087 1.543 1.542413 0.200277 3.200287 0.200277 Z M 3.200287 0.200277 " transform="matrix(1.559792,0,0,1.477874,-0.233969,-0.0264528)"/>
<path style=" stroke:none;fill-rule:nonzero;fill:rgb(100%,0%,0%);fill-opacity:1;" d="M 8.835938 22.246094 C 8.574219 21.480469 7.984375 20.683594 6.660156 20.675781 C 5.460938 20.664062 4.46875 21.523438 4.457031 22.753906 C 4.445312 25.058594 7.25 25.496094 8.824219 28.855469 L 8.824219 28.910156 C 10.394531 25.527344 13.214844 25.101562 13.203125 22.785156 C 13.191406 21.554688 12.199219 20.695312 11.007812 20.707031 C 9.6875 20.714844 9.109375 21.5 8.835938 22.257812 Z M 8.835938 22.246094 "/>
<path style=" stroke:none;fill-rule:nonzero;fill:rgb(100%,0%,0%);fill-opacity:1;" d="M 81.164062 107.753906 C 81.425781 108.519531 82.015625 109.316406 83.339844 109.324219 C 84.539062 109.335938 85.53125 108.476562 85.542969 107.246094 C 85.554688 104.941406 82.75 104.503906 81.175781 101.144531 L 81.175781 101.089844 C 79.605469 104.472656 76.785156 104.898438 76.796875 107.214844 C 76.808594 108.445312 77.800781 109.304688 78.992188 109.292969 C 80.3125 109.285156 80.890625 108.5 81.164062 107.742188 Z M 81.164062 107.753906 "/>
<path style=" stroke:none;fill-rule:nonzero;fill:rgb(100%,0%,0%);fill-opacity:1;" d="M 45.054688 14.277344 C 44.398438 12.363281 42.925781 10.371094 39.621094 10.34375 C 36.621094 10.320312 34.136719 12.464844 34.109375 15.542969 C 34.082031 21.308594 41.097656 22.398438 45.027344 30.800781 L 45.027344 30.929688 C 48.957031 22.472656 56 21.414062 55.972656 15.621094 C 55.945312 12.542969 53.460938 10.394531 50.488281 10.421875 C 47.183594 10.449219 45.738281 12.414062 45.054688 14.300781 Z M 45.054688 14.277344 "/>
<path style=" stroke:none;fill-rule:nonzero;fill:rgb(100%,0%,0%);fill-opacity:1;" d="M 44.945312 115.722656 C 45.601562 117.636719 47.074219 119.628906 50.378906 119.65625 C 53.378906 119.679688 55.863281 117.535156 55.890625 114.457031 C 55.917969 108.691406 48.902344 107.601562 44.972656 99.199219 L 44.972656 99.070312 C 41.042969 107.527344 34 108.585938 34.027344 114.378906 C 34.054688 117.457031 36.539062 119.605469 39.511719 119.578125 C 42.816406 119.550781 44.261719 117.585938 44.945312 115.699219 Z M 44.945312 115.722656 "/>
<path style=" stroke:none;fill-rule:nonzero;fill:rgb(100%,0%,0%);fill-opacity:1;" d="M 8.8125 5.9375 C 6.113281 5.9375 4.5 7.519531 4.5 9.195312 L 5.726562 9.195312 C 5.726562 8.195312 6.582031 7.101562 8.8125 7.101562 C 9.988281 7.101562 10.75 7.28125 11.1875 7.617188 C 11.625 7.953125 11.898438 8.5 11.898438 9.636719 C 11.898438 10.335938 11.558594 10.871094 10.941406 11.394531 C 10.328125 11.914062 9.457031 12.386719 8.539062 12.84375 C 7.621094 13.296875 6.65625 13.734375 5.890625 14.289062 C 5.125 14.847656 4.5 15.582031 4.5 16.539062 L 4.5 18.246094 L 13.125 18.246094 L 13.125 15.660156 L 11.898438 15.660156 L 11.898438 17.082031 L 5.726562 17.082031 L 5.726562 16.539062 C 5.726562 16.050781 6.035156 15.671875 6.65625 15.222656 C 7.277344 14.769531 8.15625 14.3125 9.085938 13.851562 C 10.015625 13.386719 10.988281 12.902344 11.761719 12.246094 C 12.53125 11.59375 13.125 10.71875 13.125 9.636719 C 13.125 8.316406 12.773438 7.324219 11.980469 6.710938 C 11.183594 6.101562 10.105469 5.9375 8.8125 5.9375 Z M 8.8125 5.9375 "/>
<path style=" stroke:none;fill-rule:nonzero;fill:rgb(100%,0%,0%);fill-opacity:1;" d="M 81.1875 124.0625 C 83.886719 124.0625 85.5 122.480469 85.5 120.804688 L 84.273438 120.804688 C 84.273438 121.804688 83.417969 122.898438 81.1875 122.898438 C 80.011719 122.898438 79.25 122.71875 78.8125 122.382812 C 78.375 122.046875 78.101562 121.5 78.101562 120.363281 C 78.101562 119.664062 78.441406 119.128906 79.058594 118.605469 C 79.671875 118.085938 80.542969 117.613281 81.460938 117.15625 C 82.378906 116.703125 83.34375 116.265625 84.109375 115.710938 C 84.875 115.152344 85.5 114.417969 85.5 113.460938 L 85.5 111.753906 L 76.875 111.753906 L 76.875 114.339844 L 78.101562 114.339844 L 78.101562 112.917969 L 84.273438 112.917969 L 84.273438 113.460938 C 84.273438 113.949219 83.964844 114.328125 83.34375 114.777344 C 82.722656 115.230469 81.84375 115.6875 80.914062 116.148438 C 79.984375 116.613281 79.011719 117.097656 78.238281 117.753906 C 77.46875 118.40625 76.875 119.28125 76.875 120.363281 C 76.875 121.683594 77.226562 122.675781 78.019531 123.289062 C 78.816406 123.898438 79.894531 124.0625 81.1875 124.0625 Z M 81.1875 124.0625 "/>
<path style=" stroke:none;fill-rule:nonzero;fill:url(#linear0);" d="M 4.757812 0.269531 L 85.242188 0.269531 C 87.828125 0.269531 89.921875 2.253906 89.921875 4.703125 L 89.921875 125.296875 C 89.921875 127.746094 87.828125 129.730469 85.242188 129.730469 L 4.757812 129.730469 C 2.171875 129.730469 0.078125 127.746094 0.078125 125.296875 L 0.078125 4.703125 C 0.078125 2.253906 2.171875 0.269531 4.757812 0.269531 Z M 4.757812 0.269531 "/>
</g>
</svg>
