<?xml version="1.0" encoding="UTF-8"?>
<svg xmlns="http://www.w3.org/2000/svg" xmlns:xlink="http://www.w3.org/1999/xlink" width="90px" height="130px" viewBox="0 0 90 130" version="1.1">
<defs>
<linearGradient id="linear0" gradientUnits="userSpaceOnUse" x1="0" y1="0" x2="1" y2="0" gradientTransform="matrix(89.844017,0,0,129.461731,0.0779896,0.269122)">
<stop offset="0" style="stop-color:rgb(0%,0%,0%);stop-opacity:0.2;"/>
<stop offset="0.7" style="stop-color:rgb(93.333334%,93.333334%,93.333334%);stop-opacity:0.1;"/>
<stop offset="1" style="stop-color:rgb(0%,0%,0%);stop-opacity:0.2;"/>
</linearGradient>
</defs>
<g id="surface1">
<path style="fill-rule:nonzero;fill:rgb(100%,100%,100%);fill-opacity:1;stroke-width:0.1;stroke-linecap:butt;stroke-linejoin:miter;stroke:rgb(0%,0%,0%);stroke-opacity:1;stroke-miterlimit:4;" d="M 3.200287 0.200277 L 54.799714 0.200277 C 56.457588 0.200277 57.799914 1.543 57.799914 3.200258 L 57.799914 84.799757 C 57.799914 86.457015 56.457588 87.799738 54.799714 87.799738 L 3.200287 87.799738 C 1.542413 87.799738 0.200087 86.457015 0.200087 84.799757 L 0.200087 3.200258 C 0.200087 1.543 1.542413 0.200277 3.200287 0.200277 Z M 3.200287 0.200277 " transform="matrix(1.559792,0,0,1.477874,-0.233969,-0.0264528)"/>
<path style=" stroke:none;fill-rule:nonzero;fill:rgb(0%,0%,0%);fill-opacity:1;" d="M 8.84375 28.734375 C 9.109375 28.734375 9.566406 28.765625 9.75 28.878906 C 9.128906 27.191406 9.097656 26.652344 9.0625 25.339844 C 9.28125 25.898438 9.761719 27.003906 11.183594 27.003906 C 12.273438 27.015625 13.234375 26.175781 13.234375 25.050781 C 13.246094 23.0625 10.40625 22.734375 8.84375 20.714844 C 7.273438 22.734375 4.445312 23.0625 4.445312 25.050781 C 4.445312 26.175781 5.417969 27.015625 6.507812 27.003906 C 7.929688 27.003906 8.410156 25.898438 8.628906 25.339844 C 8.582031 26.652344 8.550781 27.191406 7.929688 28.878906 C 8.113281 28.765625 8.582031 28.734375 8.835938 28.734375 "/>
<path style=" stroke:none;fill-rule:nonzero;fill:rgb(0%,0%,0%);fill-opacity:1;" d="M 81.15625 101.265625 C 80.890625 101.265625 80.433594 101.234375 80.25 101.121094 C 80.871094 102.808594 80.902344 103.347656 80.9375 104.660156 C 80.71875 104.101562 80.238281 102.996094 78.816406 102.996094 C 77.726562 102.984375 76.765625 103.820312 76.765625 104.949219 C 76.753906 106.9375 79.59375 107.265625 81.15625 109.285156 C 82.726562 107.265625 85.554688 106.9375 85.554688 104.949219 C 85.554688 103.820312 84.582031 102.984375 83.492188 102.996094 C 82.070312 102.996094 81.589844 104.101562 81.371094 104.660156 C 81.417969 103.347656 81.449219 102.808594 82.070312 101.121094 C 81.886719 101.234375 81.417969 101.265625 81.164062 101.265625 "/>
<path style=" stroke:none;fill-rule:nonzero;fill:rgb(0%,0%,0%);fill-opacity:1;" d="M 45.082031 74.828125 C 45.738281 74.828125 46.882812 74.90625 47.347656 75.191406 C 45.792969 70.972656 45.710938 69.628906 45.628906 66.34375 C 46.171875 67.742188 47.375 70.507812 50.921875 70.507812 C 53.652344 70.535156 56.054688 68.441406 56.054688 65.621094 C 56.082031 60.65625 48.984375 59.828125 45.082031 54.785156 C 41.152344 59.828125 34.082031 60.65625 34.082031 65.621094 C 34.082031 68.441406 36.511719 70.535156 39.242188 70.507812 C 42.789062 70.507812 43.988281 67.742188 44.535156 66.34375 C 44.425781 69.628906 44.34375 70.972656 42.789062 75.191406 C 43.253906 74.90625 44.425781 74.828125 45.054688 74.828125 "/>
<path style=" stroke:none;fill-rule:nonzero;fill:rgb(0%,0%,0%);fill-opacity:1;" d="M 8.210938 5.910156 L 5.699219 16.308594 L 4.445312 16.308594 L 4.445312 17.472656 L 8.128906 17.472656 L 8.128906 16.308594 L 6.957031 16.308594 L 7.367188 14.625 L 10.257812 14.625 L 10.667969 16.308594 L 9.496094 16.308594 L 9.496094 17.472656 L 13.179688 17.472656 L 13.179688 16.308594 L 11.925781 16.308594 L 9.414062 5.910156 Z M 8.8125 8.652344 L 9.988281 13.460938 L 7.640625 13.460938 Z M 8.8125 8.652344 "/>
<path style=" stroke:none;fill-rule:nonzero;fill:rgb(0%,0%,0%);fill-opacity:1;" d="M 81.789062 124.089844 L 84.300781 113.691406 L 85.554688 113.691406 L 85.554688 112.527344 L 81.871094 112.527344 L 81.871094 113.691406 L 83.042969 113.691406 L 82.632812 115.375 L 79.742188 115.375 L 79.332031 113.691406 L 80.503906 113.691406 L 80.503906 112.527344 L 76.820312 112.527344 L 76.820312 113.691406 L 78.074219 113.691406 L 80.585938 124.089844 Z M 81.1875 121.347656 L 80.011719 116.539062 L 82.359375 116.539062 Z M 81.1875 121.347656 "/>
<path style=" stroke:none;fill-rule:nonzero;fill:url(#linear0);" d="M 4.757812 0.269531 L 85.242188 0.269531 C 87.828125 0.269531 89.921875 2.253906 89.921875 4.703125 L 89.921875 125.296875 C 89.921875 127.746094 87.828125 129.730469 85.242188 129.730469 L 4.757812 129.730469 C 2.171875 129.730469 0.078125 127.746094 0.078125 125.296875 L 0.078125 4.703125 C 0.078125 2.253906 2.171875 0.269531 4.757812 0.269531 Z M 4.757812 0.269531 "/>
</g>
</svg>
