<?xml version="1.0" encoding="UTF-8"?>
<svg xmlns="http://www.w3.org/2000/svg" xmlns:xlink="http://www.w3.org/1999/xlink" width="90px" height="130px" viewBox="0 0 90 130" version="1.1">
<defs>
<linearGradient id="linear0" gradientUnits="userSpaceOnUse" x1="0" y1="0" x2="1" y2="0" gradientTransform="matrix(89.844017,0,0,129.461731,0.0779896,0.269122)">
<stop offset="0" style="stop-color:rgb(0%,0%,0%);stop-opacity:0.2;"/>
<stop offset="0.7" style="stop-color:rgb(93.333334%,93.333334%,93.333334%);stop-opacity:0.1;"/>
<stop offset="1" style="stop-color:rgb(0%,0%,0%);stop-opacity:0.2;"/>
</linearGradient>
</defs>
<g id="surface1">
<path style="fill-rule:nonzero;fill:rgb(100%,100%,100%);fill-opacity:1;stroke-width:0.1;stroke-linecap:butt;stroke-linejoin:miter;stroke:rgb(0%,0%,0%);stroke-opacity:1;stroke-miterlimit:4;" d="M 3.200287 0.200277 L 54.799714 0.200277 C 56.457588 0.200277 57.799914 1.543 57.799914 3.200258 L 57.799914 84.799757 C 57.799914 86.457015 56.457588 87.799738 54.799714 87.799738 L 3.200287 87.799738 C 1.542413 87.799738 0.200087 86.457015 0.200087 84.799757 L 0.200087 3.200258 C 0.200087 1.543 1.542413 0.200277 3.200287 0.200277 Z M 3.200287 0.200277 " transform="matrix(1.559792,0,0,1.477874,-0.233969,-0.0264528)"/>
<path style=" stroke:none;fill-rule:nonzero;fill:rgb(0%,0%,0%);fill-opacity:1;" d="M 8.84375 28.734375 C 9.109375 28.734375 9.566406 28.765625 9.75 28.878906 C 9.128906 27.191406 9.097656 26.652344 9.0625 25.339844 C 9.28125 25.898438 9.761719 27.003906 11.183594 27.003906 C 12.273438 27.015625 13.234375 26.175781 13.234375 25.050781 C 13.246094 23.0625 10.40625 22.734375 8.84375 20.714844 C 7.273438 22.734375 4.445312 23.0625 4.445312 25.050781 C 4.445312 26.175781 5.417969 27.015625 6.507812 27.003906 C 7.929688 27.003906 8.410156 25.898438 8.628906 25.339844 C 8.582031 26.652344 8.550781 27.191406 7.929688 28.878906 C 8.113281 28.765625 8.582031 28.734375 8.835938 28.734375 "/>
<path style=" stroke:none;fill-rule:nonzero;fill:rgb(0%,0%,0%);fill-opacity:1;" d="M 81.15625 101.265625 C 80.890625 101.265625 80.433594 101.234375 80.25 101.121094 C 80.871094 102.808594 80.902344 103.347656 80.9375 104.660156 C 80.71875 104.101562 80.238281 102.996094 78.816406 102.996094 C 77.726562 102.984375 76.765625 103.820312 76.765625 104.949219 C 76.753906 106.9375 79.59375 107.265625 81.15625 109.285156 C 82.726562 107.265625 85.554688 106.9375 85.554688 104.949219 C 85.554688 103.820312 84.582031 102.984375 83.492188 102.996094 C 82.070312 102.996094 81.589844 104.101562 81.371094 104.660156 C 81.417969 103.347656 81.449219 102.808594 82.070312 101.121094 C 81.886719 101.234375 81.417969 101.265625 81.164062 101.265625 "/>
<path style=" stroke:none;fill-rule:nonzero;fill:rgb(0%,0%,0%);fill-opacity:1;" d="M 24.804688 74.828125 C 25.460938 74.828125 26.605469 74.90625 27.070312 75.191406 C 25.515625 70.972656 25.433594 69.628906 25.351562 66.34375 C 25.894531 67.742188 27.097656 70.507812 30.644531 70.507812 C 33.375 70.535156 35.777344 68.441406 35.777344 65.621094 C 35.804688 60.65625 28.707031 59.828125 24.804688 54.785156 C 20.875 59.828125 13.804688 60.65625 13.804688 65.621094 C 13.804688 68.441406 16.234375 70.535156 18.964844 70.507812 C 22.511719 70.507812 23.710938 67.742188 24.257812 66.34375 C 24.148438 69.628906 24.066406 70.972656 22.511719 75.191406 C 22.976562 74.90625 24.148438 74.828125 24.777344 74.828125 "/>
<path style=" stroke:none;fill-rule:nonzero;fill:rgb(0%,0%,0%);fill-opacity:1;" d="M 24.804688 30.492188 C 25.460938 30.492188 26.605469 30.570312 27.070312 30.855469 C 25.515625 26.636719 25.433594 25.292969 25.351562 22.007812 C 25.894531 23.40625 27.097656 26.171875 30.644531 26.171875 C 33.375 26.199219 35.777344 24.105469 35.777344 21.285156 C 35.804688 16.320312 28.707031 15.492188 24.804688 10.449219 C 20.875 15.492188 13.804688 16.320312 13.804688 21.285156 C 13.804688 24.105469 16.234375 26.199219 18.964844 26.171875 C 22.511719 26.171875 23.710938 23.40625 24.257812 22.007812 C 24.148438 25.292969 24.066406 26.636719 22.511719 30.855469 C 22.976562 30.570312 24.148438 30.492188 24.777344 30.492188 "/>
<path style=" stroke:none;fill-rule:nonzero;fill:rgb(0%,0%,0%);fill-opacity:1;" d="M 24.640625 99.507812 C 23.984375 99.507812 22.839844 99.429688 22.375 99.144531 C 23.929688 103.363281 24.011719 104.707031 24.09375 107.992188 C 23.550781 106.59375 22.347656 103.828125 18.800781 103.828125 C 16.070312 103.800781 13.667969 105.894531 13.667969 108.714844 C 13.640625 113.679688 20.738281 114.507812 24.640625 119.550781 C 28.570312 114.507812 35.640625 113.679688 35.640625 108.714844 C 35.640625 105.894531 33.210938 103.800781 30.480469 103.828125 C 26.933594 103.828125 25.734375 106.59375 25.1875 107.992188 C 25.296875 104.707031 25.378906 103.363281 26.933594 99.144531 C 26.46875 99.429688 25.296875 99.507812 24.667969 99.507812 "/>
<path style=" stroke:none;fill-rule:nonzero;fill:rgb(0%,0%,0%);fill-opacity:1;" d="M 45.082031 52.660156 C 45.738281 52.660156 46.882812 52.738281 47.347656 53.023438 C 45.792969 48.804688 45.710938 47.460938 45.628906 44.175781 C 46.171875 45.574219 47.375 48.339844 50.921875 48.339844 C 53.652344 48.367188 56.054688 46.273438 56.054688 43.453125 C 56.082031 38.488281 48.984375 37.660156 45.082031 32.617188 C 41.152344 37.660156 34.082031 38.488281 34.082031 43.453125 C 34.082031 46.273438 36.511719 48.367188 39.242188 48.339844 C 42.789062 48.339844 43.988281 45.574219 44.535156 44.175781 C 44.425781 47.460938 44.34375 48.804688 42.789062 53.023438 C 43.253906 52.738281 44.425781 52.660156 45.054688 52.660156 "/>
<path style=" stroke:none;fill-rule:nonzero;fill:rgb(0%,0%,0%);fill-opacity:1;" d="M 44.917969 77.339844 C 44.261719 77.339844 43.117188 77.261719 42.652344 76.976562 C 44.207031 81.195312 44.289062 82.539062 44.371094 85.824219 C 43.828125 84.425781 42.625 81.660156 39.078125 81.660156 C 36.347656 81.632812 33.945312 83.726562 33.945312 86.546875 C 33.917969 91.511719 41.015625 92.339844 44.917969 97.382812 C 48.847656 92.339844 55.917969 91.511719 55.917969 86.546875 C 55.917969 83.726562 53.488281 81.632812 50.757812 81.660156 C 47.210938 81.660156 46.011719 84.425781 45.464844 85.824219 C 45.574219 82.539062 45.65625 81.195312 47.210938 76.976562 C 46.746094 77.261719 45.574219 77.339844 44.945312 77.339844 "/>
<path style=" stroke:none;fill-rule:nonzero;fill:rgb(0%,0%,0%);fill-opacity:1;" d="M 65.195312 55.171875 C 64.539062 55.171875 63.394531 55.09375 62.929688 54.808594 C 64.484375 59.027344 64.566406 60.371094 64.648438 63.65625 C 64.105469 62.257812 62.902344 59.492188 59.355469 59.492188 C 56.625 59.464844 54.222656 61.558594 54.222656 64.378906 C 54.195312 69.34375 61.292969 70.171875 65.195312 75.214844 C 69.125 70.171875 76.195312 69.34375 76.195312 64.378906 C 76.195312 61.558594 73.765625 59.464844 71.035156 59.492188 C 67.488281 59.492188 66.289062 62.257812 65.742188 63.65625 C 65.851562 60.371094 65.933594 59.027344 67.488281 54.808594 C 67.023438 55.09375 65.851562 55.171875 65.222656 55.171875 "/>
<path style=" stroke:none;fill-rule:nonzero;fill:rgb(0%,0%,0%);fill-opacity:1;" d="M 65.195312 99.507812 C 64.539062 99.507812 63.394531 99.429688 62.929688 99.144531 C 64.484375 103.363281 64.566406 104.707031 64.648438 107.992188 C 64.105469 106.59375 62.902344 103.828125 59.355469 103.828125 C 56.625 103.800781 54.222656 105.894531 54.222656 108.714844 C 54.195312 113.679688 61.292969 114.507812 65.195312 119.550781 C 69.125 114.507812 76.195312 113.679688 76.195312 108.714844 C 76.195312 105.894531 73.765625 103.800781 71.035156 103.828125 C 67.488281 103.828125 66.289062 106.59375 65.742188 107.992188 C 65.851562 104.707031 65.933594 103.363281 67.488281 99.144531 C 67.023438 99.429688 65.851562 99.507812 65.222656 99.507812 "/>
<path style=" stroke:none;fill-rule:nonzero;fill:rgb(0%,0%,0%);fill-opacity:1;" d="M 65.359375 30.492188 C 66.015625 30.492188 67.160156 30.570312 67.625 30.855469 C 66.070312 26.636719 65.988281 25.292969 65.90625 22.007812 C 66.449219 23.40625 67.652344 26.171875 71.199219 26.171875 C 73.929688 26.199219 76.332031 24.105469 76.332031 21.285156 C 76.359375 16.320312 69.261719 15.492188 65.359375 10.449219 C 61.429688 15.492188 54.359375 16.320312 54.359375 21.285156 C 54.359375 24.105469 56.789062 26.199219 59.519531 26.171875 C 63.066406 26.171875 64.265625 23.40625 64.8125 22.007812 C 64.703125 25.292969 64.621094 26.636719 63.066406 30.855469 C 63.53125 30.570312 64.703125 30.492188 65.332031 30.492188 "/>
<path style=" stroke:none;fill-rule:nonzero;fill:rgb(0%,0%,0%);fill-opacity:1;" d="M 8.8125 5.9375 C 6.679688 5.9375 4.9375 7.347656 4.9375 9.066406 C 4.9375 10.128906 5.617188 11.0625 6.628906 11.625 C 5.308594 12.238281 4.417969 13.386719 4.417969 14.703125 C 4.417969 16.664062 6.382812 18.246094 8.8125 18.246094 C 11.246094 18.246094 13.207031 16.664062 13.207031 14.703125 C 13.207031 13.386719 12.316406 12.238281 10.996094 11.625 C 12.007812 11.0625 12.6875 10.128906 12.6875 9.066406 C 12.6875 7.347656 10.949219 5.9375 8.8125 5.9375 Z M 8.8125 6.972656 C 10.242188 6.972656 11.40625 7.914062 11.40625 9.066406 C 11.40625 10.21875 10.242188 11.136719 8.8125 11.136719 C 7.382812 11.136719 6.21875 10.21875 6.21875 9.066406 C 6.21875 7.914062 7.382812 6.972656 8.8125 6.972656 Z M 8.8125 12.167969 C 10.539062 12.167969 11.953125 13.3125 11.953125 14.703125 C 11.953125 16.097656 10.539062 17.214844 8.8125 17.214844 C 7.085938 17.214844 5.671875 16.097656 5.671875 14.703125 C 5.671875 13.3125 7.085938 12.167969 8.8125 12.167969 Z M 8.8125 12.167969 "/>
<path style=" stroke:none;fill-rule:nonzero;fill:rgb(0%,0%,0%);fill-opacity:1;" d="M 81.1875 124.0625 C 83.320312 124.0625 85.0625 122.652344 85.0625 120.933594 C 85.0625 119.871094 84.382812 118.9375 83.371094 118.375 C 84.691406 117.761719 85.582031 116.613281 85.582031 115.296875 C 85.582031 113.335938 83.617188 111.753906 81.1875 111.753906 C 78.753906 111.753906 76.792969 113.335938 76.792969 115.296875 C 76.792969 116.613281 77.683594 117.761719 79.003906 118.375 C 77.992188 118.9375 77.3125 119.871094 77.3125 120.933594 C 77.3125 122.652344 79.050781 124.0625 81.1875 124.0625 Z M 81.1875 123.027344 C 79.757812 123.027344 78.59375 122.085938 78.59375 120.933594 C 78.59375 119.78125 79.757812 118.863281 81.1875 118.863281 C 82.617188 118.863281 83.78125 119.78125 83.78125 120.933594 C 83.78125 122.085938 82.617188 123.027344 81.1875 123.027344 Z M 81.1875 117.832031 C 79.460938 117.832031 78.046875 116.6875 78.046875 115.296875 C 78.046875 113.902344 79.460938 112.785156 81.1875 112.785156 C 82.914062 112.785156 84.328125 113.902344 84.328125 115.296875 C 84.328125 116.6875 82.914062 117.832031 81.1875 117.832031 Z M 81.1875 117.832031 "/>
<path style=" stroke:none;fill-rule:nonzero;fill:url(#linear0);" d="M 4.757812 0.269531 L 85.242188 0.269531 C 87.828125 0.269531 89.921875 2.253906 89.921875 4.703125 L 89.921875 125.296875 C 89.921875 127.746094 87.828125 129.730469 85.242188 129.730469 L 4.757812 129.730469 C 2.171875 129.730469 0.078125 127.746094 0.078125 125.296875 L 0.078125 4.703125 C 0.078125 2.253906 2.171875 0.269531 4.757812 0.269531 Z M 4.757812 0.269531 "/>
</g>
</svg>
