<?xml version="1.0" encoding="UTF-8"?>
<svg xmlns="http://www.w3.org/2000/svg" xmlns:xlink="http://www.w3.org/1999/xlink" width="90px" height="130px" viewBox="0 0 90 130" version="1.1">
<defs>
<linearGradient id="linear0" gradientUnits="userSpaceOnUse" x1="0" y1="0" x2="1" y2="0" gradientTransform="matrix(89.844017,0,0,129.461731,0.0779896,0.269122)">
<stop offset="0" style="stop-color:rgb(0%,0%,0%);stop-opacity:0.2;"/>
<stop offset="0.7" style="stop-color:rgb(93.333334%,93.333334%,93.333334%);stop-opacity:0.1;"/>
<stop offset="1" style="stop-color:rgb(0%,0%,0%);stop-opacity:0.2;"/>
</linearGradient>
</defs>
<g id="surface1">
<path style="fill-rule:nonzero;fill:rgb(100%,100%,100%);fill-opacity:1;stroke-width:0.1;stroke-linecap:butt;stroke-linejoin:miter;stroke:rgb(0%,0%,0%);stroke-opacity:1;stroke-miterlimit:4;" d="M 3.200287 0.200277 L 54.799714 0.200277 C 56.457588 0.200277 57.799914 1.543 57.799914 3.200258 L 57.799914 84.799757 C 57.799914 86.457015 56.457588 87.799738 54.799714 87.799738 L 3.200287 87.799738 C 1.542413 87.799738 0.200087 86.457015 0.200087 84.799757 L 0.200087 3.200258 C 0.200087 1.543 1.542413 0.200277 3.200287 0.200277 Z M 3.200287 0.200277 " transform="matrix(1.559792,0,0,1.477874,-0.233969,-0.0264528)"/>
<path style=" stroke:none;fill-rule:nonzero;fill:rgb(0%,0%,0%);fill-opacity:1;" d="M 8.84375 28.734375 C 9.109375 28.734375 9.566406 28.765625 9.75 28.878906 C 9.128906 27.191406 9.097656 26.652344 9.0625 25.339844 C 9.28125 25.898438 9.761719 27.003906 11.183594 27.003906 C 12.273438 27.015625 13.234375 26.175781 13.234375 25.050781 C 13.246094 23.0625 10.40625 22.734375 8.84375 20.714844 C 7.273438 22.734375 4.445312 23.0625 4.445312 25.050781 C 4.445312 26.175781 5.417969 27.015625 6.507812 27.003906 C 7.929688 27.003906 8.410156 25.898438 8.628906 25.339844 C 8.582031 26.652344 8.550781 27.191406 7.929688 28.878906 C 8.113281 28.765625 8.582031 28.734375 8.835938 28.734375 "/>
<path style=" stroke:none;fill-rule:nonzero;fill:rgb(0%,0%,0%);fill-opacity:1;" d="M 81.15625 101.265625 C 80.890625 101.265625 80.433594 101.234375 80.25 101.121094 C 80.871094 102.808594 80.902344 103.347656 80.9375 104.660156 C 80.71875 104.101562 80.238281 102.996094 78.816406 102.996094 C 77.726562 102.984375 76.765625 103.820312 76.765625 104.949219 C 76.753906 106.9375 79.59375 107.265625 81.15625 109.285156 C 82.726562 107.265625 85.554688 106.9375 85.554688 104.949219 C 85.554688 103.820312 84.582031 102.984375 83.492188 102.996094 C 82.070312 102.996094 81.589844 104.101562 81.371094 104.660156 C 81.417969 103.347656 81.449219 102.808594 82.070312 101.121094 C 81.886719 101.234375 81.417969 101.265625 81.164062 101.265625 "/>
<path style=" stroke:none;fill-rule:nonzero;fill:rgb(0%,0%,0%);fill-opacity:1;" d="M 45.082031 74.828125 C 45.738281 74.828125 46.882812 74.90625 47.347656 75.191406 C 45.792969 70.972656 45.710938 69.628906 45.628906 66.34375 C 46.171875 67.742188 47.375 70.507812 50.921875 70.507812 C 53.652344 70.535156 56.054688 68.441406 56.054688 65.621094 C 56.082031 60.65625 48.984375 59.828125 45.082031 54.785156 C 41.152344 59.828125 34.082031 60.65625 34.082031 65.621094 C 34.082031 68.441406 36.511719 70.535156 39.242188 70.507812 C 42.789062 70.507812 43.988281 67.742188 44.535156 66.34375 C 44.425781 69.628906 44.34375 70.972656 42.789062 75.191406 C 43.253906 74.90625 44.425781 74.828125 45.054688 74.828125 "/>
<path style=" stroke:none;fill-rule:nonzero;fill:rgb(0%,0%,0%);fill-opacity:1;" d="M 45.082031 30.492188 C 45.738281 30.492188 46.882812 30.570312 47.347656 30.855469 C 45.792969 26.636719 45.710938 25.292969 45.628906 22.007812 C 46.171875 23.40625 47.375 26.171875 50.921875 26.171875 C 53.652344 26.199219 56.054688 24.105469 56.054688 21.285156 C 56.082031 16.320312 48.984375 15.492188 45.082031 10.449219 C 41.152344 15.492188 34.082031 16.320312 34.082031 21.285156 C 34.082031 24.105469 36.511719 26.199219 39.242188 26.171875 C 42.789062 26.171875 43.988281 23.40625 44.535156 22.007812 C 44.425781 25.292969 44.34375 26.636719 42.789062 30.855469 C 43.253906 30.570312 44.425781 30.492188 45.054688 30.492188 "/>
<path style=" stroke:none;fill-rule:nonzero;fill:rgb(0%,0%,0%);fill-opacity:1;" d="M 44.917969 99.507812 C 44.261719 99.507812 43.117188 99.429688 42.652344 99.144531 C 44.207031 103.363281 44.289062 104.707031 44.371094 107.992188 C 43.828125 106.59375 42.625 103.828125 39.078125 103.828125 C 36.347656 103.800781 33.945312 105.894531 33.945312 108.714844 C 33.917969 113.679688 41.015625 114.507812 44.917969 119.550781 C 48.847656 114.507812 55.917969 113.679688 55.917969 108.714844 C 55.917969 105.894531 53.488281 103.800781 50.757812 103.828125 C 47.210938 103.828125 46.011719 106.59375 45.464844 107.992188 C 45.574219 104.707031 45.65625 103.363281 47.210938 99.144531 C 46.746094 99.429688 45.574219 99.507812 44.945312 99.507812 "/>
<path style=" stroke:none;fill-rule:nonzero;fill:rgb(0%,0%,0%);fill-opacity:1;" d="M 4.445312 5.886719 L 4.445312 8.523438 L 5.753906 8.523438 L 5.753906 7.125 L 10.914062 7.125 L 6.355469 11.417969 L 7.121094 12.429688 C 7.121094 12.429688 7.960938 12.039062 9.304688 12.039062 C 9.871094 12.039062 10.554688 12.285156 11.050781 12.6875 C 11.546875 13.089844 11.871094 13.613281 11.871094 14.316406 C 11.871094 15.773438 10.710938 17.058594 8.8125 17.058594 C 7.324219 17.058594 6.117188 16.300781 5.726562 15.246094 L 4.472656 15.636719 C 5.074219 17.261719 6.84375 18.300781 8.8125 18.300781 C 11.363281 18.300781 13.179688 16.429688 13.179688 14.316406 C 13.179688 13.230469 12.636719 12.332031 11.898438 11.730469 C 11.15625 11.128906 10.21875 10.800781 9.304688 10.800781 C 9.117188 10.800781 9.015625 10.839844 8.839844 10.851562 L 12.253906 7.617188 L 12.441406 7.4375 L 12.441406 5.886719 Z M 4.445312 5.886719 "/>
<path style=" stroke:none;fill-rule:nonzero;fill:rgb(0%,0%,0%);fill-opacity:1;" d="M 85.554688 124.113281 L 85.554688 121.476562 L 84.246094 121.476562 L 84.246094 122.875 L 79.085938 122.875 L 83.644531 118.582031 L 82.878906 117.570312 C 82.878906 117.570312 82.039062 117.960938 80.695312 117.960938 C 80.128906 117.960938 79.445312 117.714844 78.949219 117.3125 C 78.453125 116.910156 78.128906 116.386719 78.128906 115.683594 C 78.128906 114.226562 79.289062 112.941406 81.1875 112.941406 C 82.675781 112.941406 83.882812 113.699219 84.273438 114.753906 L 85.527344 114.363281 C 84.925781 112.738281 83.15625 111.699219 81.1875 111.699219 C 78.636719 111.699219 76.820312 113.570312 76.820312 115.683594 C 76.820312 116.769531 77.363281 117.667969 78.101562 118.269531 C 78.84375 118.871094 79.78125 119.199219 80.695312 119.199219 C 80.882812 119.199219 80.984375 119.160156 81.160156 119.148438 L 77.746094 122.382812 L 77.558594 122.5625 L 77.558594 124.113281 Z M 85.554688 124.113281 "/>
<path style=" stroke:none;fill-rule:nonzero;fill:url(#linear0);" d="M 4.757812 0.269531 L 85.242188 0.269531 C 87.828125 0.269531 89.921875 2.253906 89.921875 4.703125 L 89.921875 125.296875 C 89.921875 127.746094 87.828125 129.730469 85.242188 129.730469 L 4.757812 129.730469 C 2.171875 129.730469 0.078125 127.746094 0.078125 125.296875 L 0.078125 4.703125 C 0.078125 2.253906 2.171875 0.269531 4.757812 0.269531 Z M 4.757812 0.269531 "/>
</g>
</svg>
