<?xml version="1.0" encoding="UTF-8"?>
<svg xmlns="http://www.w3.org/2000/svg" xmlns:xlink="http://www.w3.org/1999/xlink" width="90px" height="130px" viewBox="0 0 90 130" version="1.1">
<defs>
<linearGradient id="linear0" gradientUnits="userSpaceOnUse" x1="0" y1="0" x2="1" y2="0" gradientTransform="matrix(89.844017,0,0,129.461731,0.0779896,0.269122)">
<stop offset="0" style="stop-color:rgb(0%,0%,0%);stop-opacity:0.2;"/>
<stop offset="0.7" style="stop-color:rgb(93.333334%,93.333334%,93.333334%);stop-opacity:0.1;"/>
<stop offset="1" style="stop-color:rgb(0%,0%,0%);stop-opacity:0.2;"/>
</linearGradient>
</defs>
<g id="surface1">
<path style="fill-rule:nonzero;fill:rgb(100%,100%,100%);fill-opacity:1;stroke-width:0.1;stroke-linecap:butt;stroke-linejoin:miter;stroke:rgb(0%,0%,0%);stroke-opacity:1;stroke-miterlimit:4;" d="M 3.200287 0.200277 L 54.799714 0.200277 C 56.457588 0.200277 57.799914 1.543 57.799914 3.200258 L 57.799914 84.799757 C 57.799914 86.457015 56.457588 87.799738 54.799714 87.799738 L 3.200287 87.799738 C 1.542413 87.799738 0.200087 86.457015 0.200087 84.799757 L 0.200087 3.200258 C 0.200087 1.543 1.542413 0.200277 3.200287 0.200277 Z M 3.200287 0.200277 " transform="matrix(1.559792,0,0,1.477874,-0.233969,-0.0264528)"/>
<path style=" stroke:none;fill-rule:nonzero;fill:rgb(0%,0%,0%);fill-opacity:1;" d="M 8.84375 28.734375 C 9.109375 28.734375 9.566406 28.765625 9.75 28.878906 C 9.128906 27.191406 9.097656 26.652344 9.0625 25.339844 C 9.28125 25.898438 9.761719 27.003906 11.183594 27.003906 C 12.273438 27.015625 13.234375 26.175781 13.234375 25.050781 C 13.246094 23.0625 10.40625 22.734375 8.84375 20.714844 C 7.273438 22.734375 4.445312 23.0625 4.445312 25.050781 C 4.445312 26.175781 5.417969 27.015625 6.507812 27.003906 C 7.929688 27.003906 8.410156 25.898438 8.628906 25.339844 C 8.582031 26.652344 8.550781 27.191406 7.929688 28.878906 C 8.113281 28.765625 8.582031 28.734375 8.835938 28.734375 "/>
<path style=" stroke:none;fill-rule:nonzero;fill:rgb(0%,0%,0%);fill-opacity:1;" d="M 81.15625 101.265625 C 80.890625 101.265625 80.433594 101.234375 80.25 101.121094 C 80.871094 102.808594 80.902344 103.347656 80.9375 104.660156 C 80.71875 104.101562 80.238281 102.996094 78.816406 102.996094 C 77.726562 102.984375 76.765625 103.820312 76.765625 104.949219 C 76.753906 106.9375 79.59375 107.265625 81.15625 109.285156 C 82.726562 107.265625 85.554688 106.9375 85.554688 104.949219 C 85.554688 103.820312 84.582031 102.984375 83.492188 102.996094 C 82.070312 102.996094 81.589844 104.101562 81.371094 104.660156 C 81.417969 103.347656 81.449219 102.808594 82.070312 101.121094 C 81.886719 101.234375 81.417969 101.265625 81.164062 101.265625 "/>
<path style=" stroke:none;fill-rule:nonzero;fill:rgb(0%,0%,0%);fill-opacity:1;" d="M 24.804688 30.492188 C 25.460938 30.492188 26.605469 30.570312 27.070312 30.855469 C 25.515625 26.636719 25.433594 25.292969 25.351562 22.007812 C 25.894531 23.40625 27.097656 26.171875 30.644531 26.171875 C 33.375 26.199219 35.777344 24.105469 35.777344 21.285156 C 35.804688 16.320312 28.707031 15.492188 24.804688 10.449219 C 20.875 15.492188 13.804688 16.320312 13.804688 21.285156 C 13.804688 24.105469 16.234375 26.199219 18.964844 26.171875 C 22.511719 26.171875 23.710938 23.40625 24.257812 22.007812 C 24.148438 25.292969 24.066406 26.636719 22.511719 30.855469 C 22.976562 30.570312 24.148438 30.492188 24.777344 30.492188 "/>
<path style=" stroke:none;fill-rule:nonzero;fill:rgb(0%,0%,0%);fill-opacity:1;" d="M 24.640625 99.507812 C 23.984375 99.507812 22.839844 99.429688 22.375 99.144531 C 23.929688 103.363281 24.011719 104.707031 24.09375 107.992188 C 23.550781 106.59375 22.347656 103.828125 18.800781 103.828125 C 16.070312 103.800781 13.667969 105.894531 13.667969 108.714844 C 13.640625 113.679688 20.738281 114.507812 24.640625 119.550781 C 28.570312 114.507812 35.640625 113.679688 35.640625 108.714844 C 35.640625 105.894531 33.210938 103.800781 30.480469 103.828125 C 26.933594 103.828125 25.734375 106.59375 25.1875 107.992188 C 25.296875 104.707031 25.378906 103.363281 26.933594 99.144531 C 26.46875 99.429688 25.296875 99.507812 24.667969 99.507812 "/>
<path style=" stroke:none;fill-rule:nonzero;fill:rgb(0%,0%,0%);fill-opacity:1;" d="M 24.804688 60.050781 C 25.460938 60.050781 26.605469 60.125 27.070312 60.410156 C 25.515625 56.195312 25.433594 54.851562 25.351562 51.566406 C 25.894531 52.960938 27.097656 55.730469 30.644531 55.730469 C 33.375 55.757812 35.777344 53.660156 35.777344 50.84375 C 35.804688 45.875 28.707031 45.046875 24.804688 40.003906 C 20.875 45.046875 13.804688 45.875 13.804688 50.84375 C 13.804688 53.660156 16.234375 55.757812 18.964844 55.730469 C 22.511719 55.730469 23.710938 52.960938 24.257812 51.566406 C 24.148438 54.851562 24.066406 56.195312 22.511719 60.410156 C 22.976562 60.125 24.148438 60.050781 24.777344 60.050781 "/>
<path style=" stroke:none;fill-rule:nonzero;fill:rgb(0%,0%,0%);fill-opacity:1;" d="M 24.640625 69.949219 C 23.984375 69.949219 22.839844 69.875 22.375 69.589844 C 23.929688 73.804688 24.011719 75.148438 24.09375 78.433594 C 23.550781 77.039062 22.347656 74.269531 18.800781 74.269531 C 16.070312 74.242188 13.667969 76.339844 13.667969 79.15625 C 13.640625 84.125 20.738281 84.953125 24.640625 89.996094 C 28.570312 84.953125 35.640625 84.125 35.640625 79.15625 C 35.640625 76.339844 33.210938 74.242188 30.480469 74.269531 C 26.933594 74.269531 25.734375 77.039062 25.1875 78.433594 C 25.296875 75.148438 25.378906 73.804688 26.933594 69.589844 C 26.46875 69.875 25.296875 69.949219 24.667969 69.949219 "/>
<path style=" stroke:none;fill-rule:nonzero;fill:rgb(0%,0%,0%);fill-opacity:1;" d="M 45.082031 74.828125 C 45.738281 74.828125 46.882812 74.90625 47.347656 75.191406 C 45.792969 70.972656 45.710938 69.628906 45.628906 66.34375 C 46.171875 67.742188 47.375 70.507812 50.921875 70.507812 C 53.652344 70.535156 56.054688 68.441406 56.054688 65.621094 C 56.082031 60.65625 48.984375 59.828125 45.082031 54.785156 C 41.152344 59.828125 34.082031 60.65625 34.082031 65.621094 C 34.082031 68.441406 36.511719 70.535156 39.242188 70.507812 C 42.789062 70.507812 43.988281 67.742188 44.535156 66.34375 C 44.425781 69.628906 44.34375 70.972656 42.789062 75.191406 C 43.253906 74.90625 44.425781 74.828125 45.054688 74.828125 "/>
<path style=" stroke:none;fill-rule:nonzero;fill:rgb(0%,0%,0%);fill-opacity:1;" d="M 65.195312 99.507812 C 64.539062 99.507812 63.394531 99.429688 62.929688 99.144531 C 64.484375 103.363281 64.566406 104.707031 64.648438 107.992188 C 64.105469 106.59375 62.902344 103.828125 59.355469 103.828125 C 56.625 103.800781 54.222656 105.894531 54.222656 108.714844 C 54.195312 113.679688 61.292969 114.507812 65.195312 119.550781 C 69.125 114.507812 76.195312 113.679688 76.195312 108.714844 C 76.195312 105.894531 73.765625 103.800781 71.035156 103.828125 C 67.488281 103.828125 66.289062 106.59375 65.742188 107.992188 C 65.851562 104.707031 65.933594 103.363281 67.488281 99.144531 C 67.023438 99.429688 65.851562 99.507812 65.222656 99.507812 "/>
<path style=" stroke:none;fill-rule:nonzero;fill:rgb(0%,0%,0%);fill-opacity:1;" d="M 65.359375 30.492188 C 66.015625 30.492188 67.160156 30.570312 67.625 30.855469 C 66.070312 26.636719 65.988281 25.292969 65.90625 22.007812 C 66.449219 23.40625 67.652344 26.171875 71.199219 26.171875 C 73.929688 26.199219 76.332031 24.105469 76.332031 21.285156 C 76.359375 16.320312 69.261719 15.492188 65.359375 10.449219 C 61.429688 15.492188 54.359375 16.320312 54.359375 21.285156 C 54.359375 24.105469 56.789062 26.199219 59.519531 26.171875 C 63.066406 26.171875 64.265625 23.40625 64.8125 22.007812 C 64.703125 25.292969 64.621094 26.636719 63.066406 30.855469 C 63.53125 30.570312 64.703125 30.492188 65.332031 30.492188 "/>
<path style=" stroke:none;fill-rule:nonzero;fill:rgb(0%,0%,0%);fill-opacity:1;" d="M 65.195312 69.949219 C 64.539062 69.949219 63.394531 69.875 62.929688 69.589844 C 64.484375 73.804688 64.566406 75.148438 64.648438 78.433594 C 64.105469 77.039062 62.902344 74.269531 59.355469 74.269531 C 56.625 74.242188 54.222656 76.339844 54.222656 79.15625 C 54.195312 84.125 61.292969 84.953125 65.195312 89.996094 C 69.125 84.953125 76.195312 84.125 76.195312 79.15625 C 76.195312 76.339844 73.765625 74.242188 71.035156 74.269531 C 67.488281 74.269531 66.289062 77.039062 65.742188 78.433594 C 65.851562 75.148438 65.933594 73.804688 67.488281 69.589844 C 67.023438 69.875 65.851562 69.949219 65.222656 69.949219 "/>
<path style=" stroke:none;fill-rule:nonzero;fill:rgb(0%,0%,0%);fill-opacity:1;" d="M 65.359375 60.050781 C 66.015625 60.050781 67.160156 60.125 67.625 60.410156 C 66.070312 56.195312 65.988281 54.851562 65.90625 51.566406 C 66.449219 52.960938 67.652344 55.730469 71.199219 55.730469 C 73.929688 55.757812 76.332031 53.660156 76.332031 50.84375 C 76.359375 45.875 69.261719 45.046875 65.359375 40.003906 C 61.429688 45.046875 54.359375 45.875 54.359375 50.84375 C 54.359375 53.660156 56.789062 55.757812 59.519531 55.730469 C 63.066406 55.730469 64.265625 52.960938 64.8125 51.566406 C 64.703125 54.851562 64.621094 56.195312 63.066406 60.410156 C 63.53125 60.125 64.703125 60.050781 65.332031 60.050781 "/>
<path style=" stroke:none;fill-rule:nonzero;fill:rgb(0%,0%,0%);fill-opacity:1;" d="M 8.039062 17.707031 C 10.132812 17.707031 11.332031 16.800781 11.835938 15.871094 C 12.324219 14.964844 12.25 14.109375 12.246094 14.0625 C 12.25 12.355469 12.222656 10.644531 12.273438 8.941406 C 12.273438 6.953125 10.355469 5.320312 8.011719 5.320312 C 5.671875 5.320312 3.753906 6.953125 3.753906 8.941406 C 3.753906 10.925781 5.671875 12.5625 8.011719 12.5625 C 9.148438 12.5625 10.167969 12.171875 10.933594 11.550781 L 10.960938 14.113281 C 10.960938 14.113281 11.003906 14.71875 10.6875 15.304688 C 10.371094 15.886719 9.773438 16.492188 8.039062 16.492188 C 7.535156 16.492188 6.84375 16.363281 6.320312 16.105469 C 5.796875 15.847656 5.457031 15.519531 5.367188 14.914062 L 4.082031 15.070312 C 4.234375 16.09375 4.941406 16.808594 5.71875 17.191406 C 6.5 17.574219 7.359375 17.707031 8.039062 17.707031 Z M 8.011719 11.371094 C 6.410156 11.371094 5.148438 10.300781 5.148438 8.941406 C 5.148438 7.582031 6.410156 6.484375 8.011719 6.484375 C 9.617188 6.484375 10.90625 7.582031 10.90625 8.941406 C 10.90625 10.300781 9.617188 11.371094 8.011719 11.371094 Z M 8.011719 11.371094 "/>
<path style=" stroke:none;fill-rule:nonzero;fill:rgb(0%,0%,0%);fill-opacity:1;" d="M 81.960938 112.292969 C 79.867188 112.292969 78.667969 113.199219 78.164062 114.128906 C 77.675781 115.035156 77.75 115.890625 77.753906 115.9375 C 77.75 117.644531 77.777344 119.355469 77.726562 121.058594 C 77.726562 123.046875 79.644531 124.679688 81.988281 124.679688 C 84.328125 124.679688 86.246094 123.046875 86.246094 121.058594 C 86.246094 119.074219 84.328125 117.4375 81.988281 117.4375 C 80.851562 117.4375 79.832031 117.828125 79.066406 118.449219 L 79.039062 115.886719 C 79.039062 115.886719 78.996094 115.28125 79.3125 114.695312 C 79.628906 114.113281 80.226562 113.507812 81.960938 113.507812 C 82.464844 113.507812 83.15625 113.636719 83.679688 113.894531 C 84.203125 114.152344 84.542969 114.480469 84.632812 115.085938 L 85.917969 114.929688 C 85.765625 113.90625 85.058594 113.191406 84.28125 112.808594 C 83.5 112.425781 82.640625 112.292969 81.960938 112.292969 Z M 81.988281 118.628906 C 83.589844 118.628906 84.851562 119.699219 84.851562 121.058594 C 84.851562 122.417969 83.589844 123.515625 81.988281 123.515625 C 80.382812 123.515625 79.09375 122.417969 79.09375 121.058594 C 79.09375 119.699219 80.382812 118.628906 81.988281 118.628906 Z M 81.988281 118.628906 "/>
<path style=" stroke:none;fill-rule:nonzero;fill:url(#linear0);" d="M 4.757812 0.269531 L 85.242188 0.269531 C 87.828125 0.269531 89.921875 2.253906 89.921875 4.703125 L 89.921875 125.296875 C 89.921875 127.746094 87.828125 129.730469 85.242188 129.730469 L 4.757812 129.730469 C 2.171875 129.730469 0.078125 127.746094 0.078125 125.296875 L 0.078125 4.703125 C 0.078125 2.253906 2.171875 0.269531 4.757812 0.269531 Z M 4.757812 0.269531 "/>
</g>
</svg>
