<?xml version="1.0" encoding="UTF-8"?>
<svg xmlns="http://www.w3.org/2000/svg" xmlns:xlink="http://www.w3.org/1999/xlink" width="90px" height="130px" viewBox="0 0 90 130" version="1.1">
<defs>
<linearGradient id="linear0" gradientUnits="userSpaceOnUse" x1="0" y1="0" x2="1" y2="0" gradientTransform="matrix(89.844017,0,0,129.461731,0.0779896,0.269122)">
<stop offset="0" style="stop-color:rgb(0%,0%,0%);stop-opacity:0.2;"/>
<stop offset="0.7" style="stop-color:rgb(93.333334%,93.333334%,93.333334%);stop-opacity:0.1;"/>
<stop offset="1" style="stop-color:rgb(0%,0%,0%);stop-opacity:0.2;"/>
</linearGradient>
</defs>
<g id="surface1">
<path style="fill-rule:nonzero;fill:rgb(100%,100%,100%);fill-opacity:1;stroke-width:0.1;stroke-linecap:butt;stroke-linejoin:miter;stroke:rgb(0%,0%,0%);stroke-opacity:1;stroke-miterlimit:4;" d="M 3.200287 0.200277 L 54.799714 0.200277 C 56.457588 0.200277 57.799914 1.543 57.799914 3.200258 L 57.799914 84.799757 C 57.799914 86.457015 56.457588 87.799738 54.799714 87.799738 L 3.200287 87.799738 C 1.542413 87.799738 0.200087 86.457015 0.200087 84.799757 L 0.200087 3.200258 C 0.200087 1.543 1.542413 0.200277 3.200287 0.200277 Z M 3.200287 0.200277 " transform="matrix(1.559792,0,0,1.477874,-0.233969,-0.0264528)"/>
<path style=" stroke:none;fill-rule:nonzero;fill:rgb(0%,0%,0%);fill-opacity:1;" d="M 8.84375 28.734375 C 9.109375 28.734375 9.566406 28.765625 9.75 28.878906 C 9.128906 27.191406 9.097656 26.652344 9.0625 25.339844 C 9.28125 25.898438 9.761719 27.003906 11.183594 27.003906 C 12.273438 27.015625 13.234375 26.175781 13.234375 25.050781 C 13.246094 23.0625 10.40625 22.734375 8.84375 20.714844 C 7.273438 22.734375 4.445312 23.0625 4.445312 25.050781 C 4.445312 26.175781 5.417969 27.015625 6.507812 27.003906 C 7.929688 27.003906 8.410156 25.898438 8.628906 25.339844 C 8.582031 26.652344 8.550781 27.191406 7.929688 28.878906 C 8.113281 28.765625 8.582031 28.734375 8.835938 28.734375 "/>
<path style=" stroke:none;fill-rule:nonzero;fill:rgb(0%,0%,0%);fill-opacity:1;" d="M 81.15625 101.265625 C 80.890625 101.265625 80.433594 101.234375 80.25 101.121094 C 80.871094 102.808594 80.902344 103.347656 80.9375 104.660156 C 80.71875 104.101562 80.238281 102.996094 78.816406 102.996094 C 77.726562 102.984375 76.765625 103.820312 76.765625 104.949219 C 76.753906 106.9375 79.59375 107.265625 81.15625 109.285156 C 82.726562 107.265625 85.554688 106.9375 85.554688 104.949219 C 85.554688 103.820312 84.582031 102.984375 83.492188 102.996094 C 82.070312 102.996094 81.589844 104.101562 81.371094 104.660156 C 81.417969 103.347656 81.449219 102.808594 82.070312 101.121094 C 81.886719 101.234375 81.417969 101.265625 81.164062 101.265625 "/>
<path style=" stroke:none;fill-rule:nonzero;fill:rgb(0%,0%,0%);fill-opacity:1;" d="M 45.082031 30.492188 C 45.738281 30.492188 46.882812 30.570312 47.347656 30.855469 C 45.792969 26.636719 45.710938 25.292969 45.628906 22.007812 C 46.171875 23.40625 47.375 26.171875 50.921875 26.171875 C 53.652344 26.199219 56.054688 24.105469 56.054688 21.285156 C 56.082031 16.320312 48.984375 15.492188 45.082031 10.449219 C 41.152344 15.492188 34.082031 16.320312 34.082031 21.285156 C 34.082031 24.105469 36.511719 26.199219 39.242188 26.171875 C 42.789062 26.171875 43.988281 23.40625 44.535156 22.007812 C 44.425781 25.292969 44.34375 26.636719 42.789062 30.855469 C 43.253906 30.570312 44.425781 30.492188 45.054688 30.492188 "/>
<path style=" stroke:none;fill-rule:nonzero;fill:rgb(0%,0%,0%);fill-opacity:1;" d="M 44.917969 99.507812 C 44.261719 99.507812 43.117188 99.429688 42.652344 99.144531 C 44.207031 103.363281 44.289062 104.707031 44.371094 107.992188 C 43.828125 106.59375 42.625 103.828125 39.078125 103.828125 C 36.347656 103.800781 33.945312 105.894531 33.945312 108.714844 C 33.917969 113.679688 41.015625 114.507812 44.917969 119.550781 C 48.847656 114.507812 55.917969 113.679688 55.917969 108.714844 C 55.917969 105.894531 53.488281 103.800781 50.757812 103.828125 C 47.210938 103.828125 46.011719 106.59375 45.464844 107.992188 C 45.574219 104.707031 45.65625 103.363281 47.210938 99.144531 C 46.746094 99.429688 45.574219 99.507812 44.945312 99.507812 "/>
<path style=" stroke:none;fill-rule:nonzero;fill:rgb(0%,0%,0%);fill-opacity:1;" d="M 8.8125 5.9375 C 6.113281 5.9375 4.5 7.519531 4.5 9.195312 L 5.726562 9.195312 C 5.726562 8.195312 6.582031 7.101562 8.8125 7.101562 C 9.988281 7.101562 10.75 7.28125 11.1875 7.617188 C 11.625 7.953125 11.898438 8.5 11.898438 9.636719 C 11.898438 10.335938 11.558594 10.871094 10.941406 11.394531 C 10.328125 11.914062 9.457031 12.386719 8.539062 12.84375 C 7.621094 13.296875 6.65625 13.734375 5.890625 14.289062 C 5.125 14.847656 4.5 15.582031 4.5 16.539062 L 4.5 18.246094 L 13.125 18.246094 L 13.125 15.660156 L 11.898438 15.660156 L 11.898438 17.082031 L 5.726562 17.082031 L 5.726562 16.539062 C 5.726562 16.050781 6.035156 15.671875 6.65625 15.222656 C 7.277344 14.769531 8.15625 14.3125 9.085938 13.851562 C 10.015625 13.386719 10.988281 12.902344 11.761719 12.246094 C 12.53125 11.59375 13.125 10.71875 13.125 9.636719 C 13.125 8.316406 12.773438 7.324219 11.980469 6.710938 C 11.183594 6.101562 10.105469 5.9375 8.8125 5.9375 Z M 8.8125 5.9375 "/>
<path style=" stroke:none;fill-rule:nonzero;fill:rgb(0%,0%,0%);fill-opacity:1;" d="M 81.1875 124.0625 C 83.886719 124.0625 85.5 122.480469 85.5 120.804688 L 84.273438 120.804688 C 84.273438 121.804688 83.417969 122.898438 81.1875 122.898438 C 80.011719 122.898438 79.25 122.71875 78.8125 122.382812 C 78.375 122.046875 78.101562 121.5 78.101562 120.363281 C 78.101562 119.664062 78.441406 119.128906 79.058594 118.605469 C 79.671875 118.085938 80.542969 117.613281 81.460938 117.15625 C 82.378906 116.703125 83.34375 116.265625 84.109375 115.710938 C 84.875 115.152344 85.5 114.417969 85.5 113.460938 L 85.5 111.753906 L 76.875 111.753906 L 76.875 114.339844 L 78.101562 114.339844 L 78.101562 112.917969 L 84.273438 112.917969 L 84.273438 113.460938 C 84.273438 113.949219 83.964844 114.328125 83.34375 114.777344 C 82.722656 115.230469 81.84375 115.6875 80.914062 116.148438 C 79.984375 116.613281 79.011719 117.097656 78.238281 117.753906 C 77.46875 118.40625 76.875 119.28125 76.875 120.363281 C 76.875 121.683594 77.226562 122.675781 78.019531 123.289062 C 78.816406 123.898438 79.894531 124.0625 81.1875 124.0625 Z M 81.1875 124.0625 "/>
<path style=" stroke:none;fill-rule:nonzero;fill:url(#linear0);" d="M 4.757812 0.269531 L 85.242188 0.269531 C 87.828125 0.269531 89.921875 2.253906 89.921875 4.703125 L 89.921875 125.296875 C 89.921875 127.746094 87.828125 129.730469 85.242188 129.730469 L 4.757812 129.730469 C 2.171875 129.730469 0.078125 127.746094 0.078125 125.296875 L 0.078125 4.703125 C 0.078125 2.253906 2.171875 0.269531 4.757812 0.269531 Z M 4.757812 0.269531 "/>
</g>
</svg>
