<?xml version="1.0" encoding="UTF-8"?>
<svg xmlns="http://www.w3.org/2000/svg" xmlns:xlink="http://www.w3.org/1999/xlink" width="60px" height="90px" viewBox="0 0 60 90" version="1.1">
<g id="surface1">
<path style="fill-rule:nonzero;fill:rgb(100%,100%,100%);fill-opacity:1;stroke-width:3;stroke-linecap:butt;stroke-linejoin:miter;stroke:rgb(21.960784%,25.098041%,27.843139%);stroke-opacity:1;stroke-miterlimit:4;" d="M 9.496747 1.500069 L 135.503267 1.500069 C 139.921236 1.500069 143.499036 5.081319 143.499036 9.496944 L 143.499036 206.50321 C 143.499036 210.918835 139.921236 214.500085 135.503267 214.500085 L 9.496747 214.500085 C 5.078778 214.500085 1.500978 210.918835 1.500978 206.50321 L 1.500978 9.496944 C 1.500978 5.081319 5.078778 1.500069 9.496747 1.500069 Z M 9.496747 1.500069 " transform="matrix(0.413793,0,0,0.416667,-0.000000535142,-0.0000285351)"/>
<path style=" stroke:none;fill-rule:nonzero;fill:rgb(46.666667%,46.666667%,80.000001%);fill-opacity:1;" d="M 3.101562 65.832031 L 3.101562 70 L 7.242188 70 L 7.242188 65.832031 Z M 5.171875 66.667969 C 6.828125 66.667969 6.828125 69.167969 5.171875 69.167969 C 3.515625 69.167969 3.515625 66.667969 5.171875 66.667969 Z M 5.171875 66.667969 "/>
<path style=" stroke:none;fill-rule:nonzero;fill:rgb(46.666667%,46.666667%,80.000001%);fill-opacity:1;" d="M 19.65625 65.832031 L 19.65625 70 L 23.792969 70 L 23.792969 65.832031 Z M 17.585938 66.667969 C 15.929688 66.667969 15.929688 69.167969 17.585938 69.167969 C 19.242188 69.167969 19.242188 66.667969 17.585938 66.667969 Z M 21.722656 66.667969 C 23.378906 66.667969 23.378906 69.167969 21.722656 69.167969 C 20.070312 69.167969 20.070312 66.667969 21.722656 66.667969 Z M 21.722656 66.667969 "/>
<path style=" stroke:none;fill-rule:nonzero;fill:rgb(46.666667%,46.666667%,80.000001%);fill-opacity:1;" d="M 27.929688 65.832031 L 27.929688 70 L 32.070312 70 L 32.070312 65.832031 Z M 25.863281 66.667969 C 24.207031 66.667969 24.207031 69.167969 25.863281 69.167969 C 27.515625 69.167969 27.515625 66.667969 25.863281 66.667969 Z M 30 66.667969 C 31.65625 66.667969 31.65625 69.167969 30 69.167969 C 28.34375 69.167969 28.34375 66.667969 30 66.667969 Z M 30 66.667969 "/>
<path style=" stroke:none;fill-rule:nonzero;fill:rgb(46.666667%,46.666667%,80.000001%);fill-opacity:1;" d="M 36.207031 65.832031 L 36.207031 70 L 40.34375 70 L 40.34375 65.832031 Z M 34.136719 66.667969 C 32.484375 66.667969 32.484375 69.167969 34.136719 69.167969 C 35.792969 69.167969 35.792969 66.667969 34.136719 66.667969 Z M 38.277344 66.667969 C 39.929688 66.667969 39.929688 69.167969 38.277344 69.167969 C 36.621094 69.167969 36.621094 66.667969 38.277344 66.667969 Z M 38.277344 66.667969 "/>
<path style=" stroke:none;fill-rule:nonzero;fill:rgb(46.666667%,46.666667%,80.000001%);fill-opacity:1;" d="M 44.484375 65.832031 L 44.484375 70 L 48.621094 70 L 48.621094 65.832031 Z M 42.414062 66.667969 C 40.757812 66.667969 40.757812 69.167969 42.414062 69.167969 C 44.070312 69.167969 44.070312 66.667969 42.414062 66.667969 Z M 46.550781 66.667969 C 48.207031 66.667969 48.207031 69.167969 46.550781 69.167969 C 44.898438 69.167969 44.898438 66.667969 46.550781 66.667969 Z M 46.550781 66.667969 "/>
<path style=" stroke:none;fill-rule:nonzero;fill:rgb(46.666667%,46.666667%,80.000001%);fill-opacity:1;" d="M 11.378906 65.832031 L 11.378906 70 L 15.515625 70 L 15.515625 65.832031 Z M 9.308594 66.667969 C 7.65625 66.667969 7.65625 69.167969 9.308594 69.167969 C 10.964844 69.167969 10.964844 66.667969 9.308594 66.667969 Z M 13.449219 66.667969 C 15.101562 66.667969 15.101562 69.167969 13.449219 69.167969 C 11.792969 69.167969 11.792969 66.667969 13.449219 66.667969 Z M 13.449219 66.667969 "/>
<path style=" stroke:none;fill-rule:nonzero;fill:rgb(46.666667%,46.666667%,80.000001%);fill-opacity:1;" d="M 52.757812 65.832031 L 52.757812 70 L 56.898438 70 L 56.898438 65.832031 Z M 50.691406 66.667969 C 49.035156 66.667969 49.035156 69.167969 50.691406 69.167969 C 52.34375 69.167969 52.34375 66.667969 50.691406 66.667969 Z M 54.828125 66.667969 C 56.484375 66.667969 56.484375 69.167969 54.828125 69.167969 C 53.171875 69.167969 53.171875 66.667969 54.828125 66.667969 Z M 54.828125 66.667969 "/>
<path style=" stroke:none;fill-rule:nonzero;fill:rgb(46.666667%,46.666667%,80.000001%);fill-opacity:1;" d="M 7.242188 70 L 7.242188 74.167969 L 11.378906 74.167969 L 11.378906 70 Z M 5.171875 70.832031 C 3.515625 70.832031 3.515625 73.332031 5.171875 73.332031 C 6.828125 73.332031 6.828125 70.832031 5.171875 70.832031 Z M 9.308594 70.832031 C 10.964844 70.832031 10.964844 73.332031 9.308594 73.332031 C 7.65625 73.332031 7.65625 70.832031 9.308594 70.832031 Z M 9.308594 70.832031 "/>
<path style=" stroke:none;fill-rule:nonzero;fill:rgb(46.666667%,46.666667%,80.000001%);fill-opacity:1;" d="M 15.515625 70 L 15.515625 74.167969 L 19.65625 74.167969 L 19.65625 70 Z M 13.449219 70.832031 C 11.792969 70.832031 11.792969 73.332031 13.449219 73.332031 C 15.101562 73.332031 15.101562 70.832031 13.449219 70.832031 Z M 17.585938 70.832031 C 19.242188 70.832031 19.242188 73.332031 17.585938 73.332031 C 15.929688 73.332031 15.929688 70.832031 17.585938 70.832031 Z M 17.585938 70.832031 "/>
<path style=" stroke:none;fill-rule:nonzero;fill:rgb(46.666667%,46.666667%,80.000001%);fill-opacity:1;" d="M 23.792969 70 L 23.792969 74.167969 L 27.929688 74.167969 L 27.929688 70 Z M 21.722656 70.832031 C 20.070312 70.832031 20.070312 73.332031 21.722656 73.332031 C 23.378906 73.332031 23.378906 70.832031 21.722656 70.832031 Z M 25.863281 70.832031 C 27.515625 70.832031 27.515625 73.332031 25.863281 73.332031 C 24.207031 73.332031 24.207031 70.832031 25.863281 70.832031 Z M 25.863281 70.832031 "/>
<path style=" stroke:none;fill-rule:nonzero;fill:rgb(46.666667%,46.666667%,80.000001%);fill-opacity:1;" d="M 32.070312 70 L 32.070312 74.167969 L 36.207031 74.167969 L 36.207031 70 Z M 30 70.832031 C 28.34375 70.832031 28.34375 73.332031 30 73.332031 C 31.65625 73.332031 31.65625 70.832031 30 70.832031 Z M 34.136719 70.832031 C 35.792969 70.832031 35.792969 73.332031 34.136719 73.332031 C 32.484375 73.332031 32.484375 70.832031 34.136719 70.832031 Z M 34.136719 70.832031 "/>
<path style=" stroke:none;fill-rule:nonzero;fill:rgb(46.666667%,46.666667%,80.000001%);fill-opacity:1;" d="M 40.34375 70 L 40.34375 74.167969 L 44.484375 74.167969 L 44.484375 70 Z M 38.277344 70.832031 C 36.621094 70.832031 36.621094 73.332031 38.277344 73.332031 C 39.929688 73.332031 39.929688 70.832031 38.277344 70.832031 Z M 42.414062 70.832031 C 44.070312 70.832031 44.070312 73.332031 42.414062 73.332031 C 40.757812 73.332031 40.757812 70.832031 42.414062 70.832031 Z M 42.414062 70.832031 "/>
<path style=" stroke:none;fill-rule:nonzero;fill:rgb(46.666667%,46.666667%,80.000001%);fill-opacity:1;" d="M 48.621094 70 L 48.621094 74.167969 L 52.757812 74.167969 L 52.757812 70 Z M 46.550781 70.832031 C 44.898438 70.832031 44.898438 73.332031 46.550781 73.332031 C 48.207031 73.332031 48.207031 70.832031 46.550781 70.832031 Z M 50.691406 70.832031 C 52.34375 70.832031 52.34375 73.332031 50.691406 73.332031 C 49.035156 73.332031 49.035156 70.832031 50.691406 70.832031 Z M 50.691406 70.832031 "/>
<path style=" stroke:none;fill-rule:nonzero;fill:rgb(46.666667%,46.666667%,80.000001%);fill-opacity:1;" d="M 54.828125 70.832031 C 53.171875 70.832031 53.171875 73.332031 54.828125 73.332031 C 56.484375 73.332031 56.484375 70.832031 54.828125 70.832031 Z M 54.828125 70.832031 "/>
<path style=" stroke:none;fill-rule:nonzero;fill:rgb(46.666667%,46.666667%,80.000001%);fill-opacity:1;" d="M 3.101562 57.5 L 3.101562 61.667969 L 7.242188 61.667969 L 7.242188 57.5 Z M 5.171875 58.332031 C 6.828125 58.332031 6.828125 60.832031 5.171875 60.832031 C 3.515625 60.832031 3.515625 58.332031 5.171875 58.332031 Z M 5.171875 58.332031 "/>
<path style=" stroke:none;fill-rule:nonzero;fill:rgb(46.666667%,46.666667%,80.000001%);fill-opacity:1;" d="M 19.65625 57.5 L 19.65625 61.667969 L 23.792969 61.667969 L 23.792969 57.5 Z M 17.585938 58.332031 C 15.929688 58.332031 15.929688 60.832031 17.585938 60.832031 C 19.242188 60.832031 19.242188 58.332031 17.585938 58.332031 Z M 21.722656 58.332031 C 23.378906 58.332031 23.378906 60.832031 21.722656 60.832031 C 20.070312 60.832031 20.070312 58.332031 21.722656 58.332031 Z M 21.722656 58.332031 "/>
<path style=" stroke:none;fill-rule:nonzero;fill:rgb(46.666667%,46.666667%,80.000001%);fill-opacity:1;" d="M 27.929688 57.5 L 27.929688 61.667969 L 32.070312 61.667969 L 32.070312 57.5 Z M 25.863281 58.332031 C 24.207031 58.332031 24.207031 60.832031 25.863281 60.832031 C 27.515625 60.832031 27.515625 58.332031 25.863281 58.332031 Z M 30 58.332031 C 31.65625 58.332031 31.65625 60.832031 30 60.832031 C 28.34375 60.832031 28.34375 58.332031 30 58.332031 Z M 30 58.332031 "/>
<path style=" stroke:none;fill-rule:nonzero;fill:rgb(46.666667%,46.666667%,80.000001%);fill-opacity:1;" d="M 36.207031 57.5 L 36.207031 61.667969 L 40.34375 61.667969 L 40.34375 57.5 Z M 34.136719 58.332031 C 32.484375 58.332031 32.484375 60.832031 34.136719 60.832031 C 35.792969 60.832031 35.792969 58.332031 34.136719 58.332031 Z M 38.277344 58.332031 C 39.929688 58.332031 39.929688 60.832031 38.277344 60.832031 C 36.621094 60.832031 36.621094 58.332031 38.277344 58.332031 Z M 38.277344 58.332031 "/>
<path style=" stroke:none;fill-rule:nonzero;fill:rgb(46.666667%,46.666667%,80.000001%);fill-opacity:1;" d="M 44.484375 57.5 L 44.484375 61.667969 L 48.621094 61.667969 L 48.621094 57.5 Z M 42.414062 58.332031 C 40.757812 58.332031 40.757812 60.832031 42.414062 60.832031 C 44.070312 60.832031 44.070312 58.332031 42.414062 58.332031 Z M 46.550781 58.332031 C 48.207031 58.332031 48.207031 60.832031 46.550781 60.832031 C 44.898438 60.832031 44.898438 58.332031 46.550781 58.332031 Z M 46.550781 58.332031 "/>
<path style=" stroke:none;fill-rule:nonzero;fill:rgb(46.666667%,46.666667%,80.000001%);fill-opacity:1;" d="M 11.378906 57.5 L 11.378906 61.667969 L 15.515625 61.667969 L 15.515625 57.5 Z M 9.308594 58.332031 C 7.65625 58.332031 7.65625 60.832031 9.308594 60.832031 C 10.964844 60.832031 10.964844 58.332031 9.308594 58.332031 Z M 13.449219 58.332031 C 15.101562 58.332031 15.101562 60.832031 13.449219 60.832031 C 11.792969 60.832031 11.792969 58.332031 13.449219 58.332031 Z M 13.449219 58.332031 "/>
<path style=" stroke:none;fill-rule:nonzero;fill:rgb(46.666667%,46.666667%,80.000001%);fill-opacity:1;" d="M 52.757812 57.5 L 52.757812 61.667969 L 56.898438 61.667969 L 56.898438 57.5 Z M 50.691406 58.332031 C 49.035156 58.332031 49.035156 60.832031 50.691406 60.832031 C 52.34375 60.832031 52.34375 58.332031 50.691406 58.332031 Z M 54.828125 58.332031 C 56.484375 58.332031 56.484375 60.832031 54.828125 60.832031 C 53.171875 60.832031 53.171875 58.332031 54.828125 58.332031 Z M 54.828125 58.332031 "/>
<path style=" stroke:none;fill-rule:nonzero;fill:rgb(46.666667%,46.666667%,80.000001%);fill-opacity:1;" d="M 7.242188 61.667969 L 7.242188 65.832031 L 11.378906 65.832031 L 11.378906 61.667969 Z M 5.171875 62.5 C 3.515625 62.5 3.515625 65 5.171875 65 C 6.828125 65 6.828125 62.5 5.171875 62.5 Z M 9.308594 62.5 C 10.964844 62.5 10.964844 65 9.308594 65 C 7.65625 65 7.65625 62.5 9.308594 62.5 Z M 9.308594 62.5 "/>
<path style=" stroke:none;fill-rule:nonzero;fill:rgb(46.666667%,46.666667%,80.000001%);fill-opacity:1;" d="M 15.515625 61.667969 L 15.515625 65.832031 L 19.65625 65.832031 L 19.65625 61.667969 Z M 13.449219 62.5 C 11.792969 62.5 11.792969 65 13.449219 65 C 15.101562 65 15.101562 62.5 13.449219 62.5 Z M 17.585938 62.5 C 19.242188 62.5 19.242188 65 17.585938 65 C 15.929688 65 15.929688 62.5 17.585938 62.5 Z M 17.585938 62.5 "/>
<path style=" stroke:none;fill-rule:nonzero;fill:rgb(46.666667%,46.666667%,80.000001%);fill-opacity:1;" d="M 23.792969 61.667969 L 23.792969 65.832031 L 27.929688 65.832031 L 27.929688 61.667969 Z M 21.722656 62.5 C 20.070312 62.5 20.070312 65 21.722656 65 C 23.378906 65 23.378906 62.5 21.722656 62.5 Z M 25.863281 62.5 C 27.515625 62.5 27.515625 65 25.863281 65 C 24.207031 65 24.207031 62.5 25.863281 62.5 Z M 25.863281 62.5 "/>
<path style=" stroke:none;fill-rule:nonzero;fill:rgb(46.666667%,46.666667%,80.000001%);fill-opacity:1;" d="M 32.070312 61.667969 L 32.070312 65.832031 L 36.207031 65.832031 L 36.207031 61.667969 Z M 30 62.5 C 28.34375 62.5 28.34375 65 30 65 C 31.65625 65 31.65625 62.5 30 62.5 Z M 34.136719 62.5 C 35.792969 62.5 35.792969 65 34.136719 65 C 32.484375 65 32.484375 62.5 34.136719 62.5 Z M 34.136719 62.5 "/>
<path style=" stroke:none;fill-rule:nonzero;fill:rgb(46.666667%,46.666667%,80.000001%);fill-opacity:1;" d="M 40.34375 61.667969 L 40.34375 65.832031 L 44.484375 65.832031 L 44.484375 61.667969 Z M 38.277344 62.5 C 36.621094 62.5 36.621094 65 38.277344 65 C 39.929688 65 39.929688 62.5 38.277344 62.5 Z M 42.414062 62.5 C 44.070312 62.5 44.070312 65 42.414062 65 C 40.757812 65 40.757812 62.5 42.414062 62.5 Z M 42.414062 62.5 "/>
<path style=" stroke:none;fill-rule:nonzero;fill:rgb(46.666667%,46.666667%,80.000001%);fill-opacity:1;" d="M 48.621094 61.667969 L 48.621094 65.832031 L 52.757812 65.832031 L 52.757812 61.667969 Z M 46.550781 62.5 C 44.898438 62.5 44.898438 65 46.550781 65 C 48.207031 65 48.207031 62.5 46.550781 62.5 Z M 50.691406 62.5 C 52.34375 62.5 52.34375 65 50.691406 65 C 49.035156 65 49.035156 62.5 50.691406 62.5 Z M 50.691406 62.5 "/>
<path style=" stroke:none;fill-rule:nonzero;fill:rgb(46.666667%,46.666667%,80.000001%);fill-opacity:1;" d="M 54.828125 62.5 C 53.171875 62.5 53.171875 65 54.828125 65 C 56.484375 65 56.484375 62.5 54.828125 62.5 Z M 54.828125 62.5 "/>
<path style=" stroke:none;fill-rule:nonzero;fill:rgb(46.666667%,46.666667%,80.000001%);fill-opacity:1;" d="M 3.101562 49.167969 L 3.101562 53.332031 L 7.242188 53.332031 L 7.242188 49.167969 Z M 5.171875 50 C 6.828125 50 6.828125 52.5 5.171875 52.5 C 3.515625 52.5 3.515625 50 5.171875 50 Z M 5.171875 50 "/>
<path style=" stroke:none;fill-rule:nonzero;fill:rgb(46.666667%,46.666667%,80.000001%);fill-opacity:1;" d="M 19.65625 49.167969 L 19.65625 53.332031 L 23.792969 53.332031 L 23.792969 49.167969 Z M 17.585938 50 C 15.929688 50 15.929688 52.5 17.585938 52.5 C 19.242188 52.5 19.242188 50 17.585938 50 Z M 21.722656 50 C 23.378906 50 23.378906 52.5 21.722656 52.5 C 20.070312 52.5 20.070312 50 21.722656 50 Z M 21.722656 50 "/>
<path style=" stroke:none;fill-rule:nonzero;fill:rgb(46.666667%,46.666667%,80.000001%);fill-opacity:1;" d="M 27.929688 49.167969 L 27.929688 53.332031 L 32.070312 53.332031 L 32.070312 49.167969 Z M 25.863281 50 C 24.207031 50 24.207031 52.5 25.863281 52.5 C 27.515625 52.5 27.515625 50 25.863281 50 Z M 30 50 C 31.65625 50 31.65625 52.5 30 52.5 C 28.34375 52.5 28.34375 50 30 50 Z M 30 50 "/>
<path style=" stroke:none;fill-rule:nonzero;fill:rgb(46.666667%,46.666667%,80.000001%);fill-opacity:1;" d="M 36.207031 49.167969 L 36.207031 53.332031 L 40.34375 53.332031 L 40.34375 49.167969 Z M 34.136719 50 C 32.484375 50 32.484375 52.5 34.136719 52.5 C 35.792969 52.5 35.792969 50 34.136719 50 Z M 38.277344 50 C 39.929688 50 39.929688 52.5 38.277344 52.5 C 36.621094 52.5 36.621094 50 38.277344 50 Z M 38.277344 50 "/>
<path style=" stroke:none;fill-rule:nonzero;fill:rgb(46.666667%,46.666667%,80.000001%);fill-opacity:1;" d="M 44.484375 49.167969 L 44.484375 53.332031 L 48.621094 53.332031 L 48.621094 49.167969 Z M 42.414062 50 C 40.757812 50 40.757812 52.5 42.414062 52.5 C 44.070312 52.5 44.070312 50 42.414062 50 Z M 46.550781 50 C 48.207031 50 48.207031 52.5 46.550781 52.5 C 44.898438 52.5 44.898438 50 46.550781 50 Z M 46.550781 50 "/>
<path style=" stroke:none;fill-rule:nonzero;fill:rgb(46.666667%,46.666667%,80.000001%);fill-opacity:1;" d="M 11.378906 49.167969 L 11.378906 53.332031 L 15.515625 53.332031 L 15.515625 49.167969 Z M 9.308594 50 C 7.65625 50 7.65625 52.5 9.308594 52.5 C 10.964844 52.5 10.964844 50 9.308594 50 Z M 13.449219 50 C 15.101562 50 15.101562 52.5 13.449219 52.5 C 11.792969 52.5 11.792969 50 13.449219 50 Z M 13.449219 50 "/>
<path style=" stroke:none;fill-rule:nonzero;fill:rgb(46.666667%,46.666667%,80.000001%);fill-opacity:1;" d="M 52.757812 49.167969 L 52.757812 53.332031 L 56.898438 53.332031 L 56.898438 49.167969 Z M 50.691406 50 C 49.035156 50 49.035156 52.5 50.691406 52.5 C 52.34375 52.5 52.34375 50 50.691406 50 Z M 54.828125 50 C 56.484375 50 56.484375 52.5 54.828125 52.5 C 53.171875 52.5 53.171875 50 54.828125 50 Z M 54.828125 50 "/>
<path style=" stroke:none;fill-rule:nonzero;fill:rgb(46.666667%,46.666667%,80.000001%);fill-opacity:1;" d="M 7.242188 53.332031 L 7.242188 57.5 L 11.378906 57.5 L 11.378906 53.332031 Z M 5.171875 54.167969 C 3.515625 54.167969 3.515625 56.667969 5.171875 56.667969 C 6.828125 56.667969 6.828125 54.167969 5.171875 54.167969 Z M 9.308594 54.167969 C 10.964844 54.167969 10.964844 56.667969 9.308594 56.667969 C 7.65625 56.667969 7.65625 54.167969 9.308594 54.167969 Z M 9.308594 54.167969 "/>
<path style=" stroke:none;fill-rule:nonzero;fill:rgb(46.666667%,46.666667%,80.000001%);fill-opacity:1;" d="M 15.515625 53.332031 L 15.515625 57.5 L 19.65625 57.5 L 19.65625 53.332031 Z M 13.449219 54.167969 C 11.792969 54.167969 11.792969 56.667969 13.449219 56.667969 C 15.101562 56.667969 15.101562 54.167969 13.449219 54.167969 Z M 17.585938 54.167969 C 19.242188 54.167969 19.242188 56.667969 17.585938 56.667969 C 15.929688 56.667969 15.929688 54.167969 17.585938 54.167969 Z M 17.585938 54.167969 "/>
<path style=" stroke:none;fill-rule:nonzero;fill:rgb(46.666667%,46.666667%,80.000001%);fill-opacity:1;" d="M 23.792969 53.332031 L 23.792969 57.5 L 27.929688 57.5 L 27.929688 53.332031 Z M 21.722656 54.167969 C 20.070312 54.167969 20.070312 56.667969 21.722656 56.667969 C 23.378906 56.667969 23.378906 54.167969 21.722656 54.167969 Z M 25.863281 54.167969 C 27.515625 54.167969 27.515625 56.667969 25.863281 56.667969 C 24.207031 56.667969 24.207031 54.167969 25.863281 54.167969 Z M 25.863281 54.167969 "/>
<path style=" stroke:none;fill-rule:nonzero;fill:rgb(46.666667%,46.666667%,80.000001%);fill-opacity:1;" d="M 32.070312 53.332031 L 32.070312 57.5 L 36.207031 57.5 L 36.207031 53.332031 Z M 30 54.167969 C 28.34375 54.167969 28.34375 56.667969 30 56.667969 C 31.65625 56.667969 31.65625 54.167969 30 54.167969 Z M 34.136719 54.167969 C 35.792969 54.167969 35.792969 56.667969 34.136719 56.667969 C 32.484375 56.667969 32.484375 54.167969 34.136719 54.167969 Z M 34.136719 54.167969 "/>
<path style=" stroke:none;fill-rule:nonzero;fill:rgb(46.666667%,46.666667%,80.000001%);fill-opacity:1;" d="M 40.34375 53.332031 L 40.34375 57.5 L 44.484375 57.5 L 44.484375 53.332031 Z M 38.277344 54.167969 C 36.621094 54.167969 36.621094 56.667969 38.277344 56.667969 C 39.929688 56.667969 39.929688 54.167969 38.277344 54.167969 Z M 42.414062 54.167969 C 44.070312 54.167969 44.070312 56.667969 42.414062 56.667969 C 40.757812 56.667969 40.757812 54.167969 42.414062 54.167969 Z M 42.414062 54.167969 "/>
<path style=" stroke:none;fill-rule:nonzero;fill:rgb(46.666667%,46.666667%,80.000001%);fill-opacity:1;" d="M 48.621094 53.332031 L 48.621094 57.5 L 52.757812 57.5 L 52.757812 53.332031 Z M 46.550781 54.167969 C 44.898438 54.167969 44.898438 56.667969 46.550781 56.667969 C 48.207031 56.667969 48.207031 54.167969 46.550781 54.167969 Z M 50.691406 54.167969 C 52.34375 54.167969 52.34375 56.667969 50.691406 56.667969 C 49.035156 56.667969 49.035156 54.167969 50.691406 54.167969 Z M 50.691406 54.167969 "/>
<path style=" stroke:none;fill-rule:nonzero;fill:rgb(46.666667%,46.666667%,80.000001%);fill-opacity:1;" d="M 54.828125 54.167969 C 53.171875 54.167969 53.171875 56.667969 54.828125 56.667969 C 56.484375 56.667969 56.484375 54.167969 54.828125 54.167969 Z M 54.828125 54.167969 "/>
<path style=" stroke:none;fill-rule:nonzero;fill:rgb(46.666667%,46.666667%,80.000001%);fill-opacity:1;" d="M 3.101562 40.832031 L 3.101562 45 L 7.242188 45 L 7.242188 40.832031 Z M 5.171875 41.667969 C 6.828125 41.667969 6.828125 44.167969 5.171875 44.167969 C 3.515625 44.167969 3.515625 41.667969 5.171875 41.667969 Z M 5.171875 41.667969 "/>
<path style=" stroke:none;fill-rule:nonzero;fill:rgb(46.666667%,46.666667%,80.000001%);fill-opacity:1;" d="M 19.65625 40.832031 L 19.65625 45 L 23.792969 45 L 23.792969 40.832031 Z M 17.585938 41.667969 C 15.929688 41.667969 15.929688 44.167969 17.585938 44.167969 C 19.242188 44.167969 19.242188 41.667969 17.585938 41.667969 Z M 21.722656 41.667969 C 23.378906 41.667969 23.378906 44.167969 21.722656 44.167969 C 20.070312 44.167969 20.070312 41.667969 21.722656 41.667969 Z M 21.722656 41.667969 "/>
<path style=" stroke:none;fill-rule:nonzero;fill:rgb(46.666667%,46.666667%,80.000001%);fill-opacity:1;" d="M 27.929688 40.832031 L 27.929688 45 L 32.070312 45 L 32.070312 40.832031 Z M 25.863281 41.667969 C 24.207031 41.667969 24.207031 44.167969 25.863281 44.167969 C 27.515625 44.167969 27.515625 41.667969 25.863281 41.667969 Z M 30 41.667969 C 31.65625 41.667969 31.65625 44.167969 30 44.167969 C 28.34375 44.167969 28.34375 41.667969 30 41.667969 Z M 30 41.667969 "/>
<path style=" stroke:none;fill-rule:nonzero;fill:rgb(46.666667%,46.666667%,80.000001%);fill-opacity:1;" d="M 36.207031 40.832031 L 36.207031 45 L 40.34375 45 L 40.34375 40.832031 Z M 34.136719 41.667969 C 32.484375 41.667969 32.484375 44.167969 34.136719 44.167969 C 35.792969 44.167969 35.792969 41.667969 34.136719 41.667969 Z M 38.277344 41.667969 C 39.929688 41.667969 39.929688 44.167969 38.277344 44.167969 C 36.621094 44.167969 36.621094 41.667969 38.277344 41.667969 Z M 38.277344 41.667969 "/>
<path style=" stroke:none;fill-rule:nonzero;fill:rgb(46.666667%,46.666667%,80.000001%);fill-opacity:1;" d="M 44.484375 40.832031 L 44.484375 45 L 48.621094 45 L 48.621094 40.832031 Z M 42.414062 41.667969 C 40.757812 41.667969 40.757812 44.167969 42.414062 44.167969 C 44.070312 44.167969 44.070312 41.667969 42.414062 41.667969 Z M 46.550781 41.667969 C 48.207031 41.667969 48.207031 44.167969 46.550781 44.167969 C 44.898438 44.167969 44.898438 41.667969 46.550781 41.667969 Z M 46.550781 41.667969 "/>
<path style=" stroke:none;fill-rule:nonzero;fill:rgb(46.666667%,46.666667%,80.000001%);fill-opacity:1;" d="M 11.378906 40.832031 L 11.378906 45 L 15.515625 45 L 15.515625 40.832031 Z M 9.308594 41.667969 C 7.65625 41.667969 7.65625 44.167969 9.308594 44.167969 C 10.964844 44.167969 10.964844 41.667969 9.308594 41.667969 Z M 13.449219 41.667969 C 15.101562 41.667969 15.101562 44.167969 13.449219 44.167969 C 11.792969 44.167969 11.792969 41.667969 13.449219 41.667969 Z M 13.449219 41.667969 "/>
<path style=" stroke:none;fill-rule:nonzero;fill:rgb(46.666667%,46.666667%,80.000001%);fill-opacity:1;" d="M 52.757812 40.832031 L 52.757812 45 L 56.898438 45 L 56.898438 40.832031 Z M 50.691406 41.667969 C 49.035156 41.667969 49.035156 44.167969 50.691406 44.167969 C 52.34375 44.167969 52.34375 41.667969 50.691406 41.667969 Z M 54.828125 41.667969 C 56.484375 41.667969 56.484375 44.167969 54.828125 44.167969 C 53.171875 44.167969 53.171875 41.667969 54.828125 41.667969 Z M 54.828125 41.667969 "/>
<path style=" stroke:none;fill-rule:nonzero;fill:rgb(46.666667%,46.666667%,80.000001%);fill-opacity:1;" d="M 7.242188 45 L 7.242188 49.167969 L 11.378906 49.167969 L 11.378906 45 Z M 5.171875 45.832031 C 3.515625 45.832031 3.515625 48.332031 5.171875 48.332031 C 6.828125 48.332031 6.828125 45.832031 5.171875 45.832031 Z M 9.308594 45.832031 C 10.964844 45.832031 10.964844 48.332031 9.308594 48.332031 C 7.65625 48.332031 7.65625 45.832031 9.308594 45.832031 Z M 9.308594 45.832031 "/>
<path style=" stroke:none;fill-rule:nonzero;fill:rgb(46.666667%,46.666667%,80.000001%);fill-opacity:1;" d="M 15.515625 45 L 15.515625 49.167969 L 19.65625 49.167969 L 19.65625 45 Z M 13.449219 45.832031 C 11.792969 45.832031 11.792969 48.332031 13.449219 48.332031 C 15.101562 48.332031 15.101562 45.832031 13.449219 45.832031 Z M 17.585938 45.832031 C 19.242188 45.832031 19.242188 48.332031 17.585938 48.332031 C 15.929688 48.332031 15.929688 45.832031 17.585938 45.832031 Z M 17.585938 45.832031 "/>
<path style=" stroke:none;fill-rule:nonzero;fill:rgb(46.666667%,46.666667%,80.000001%);fill-opacity:1;" d="M 23.792969 45 L 23.792969 49.167969 L 27.929688 49.167969 L 27.929688 45 Z M 21.722656 45.832031 C 20.070312 45.832031 20.070312 48.332031 21.722656 48.332031 C 23.378906 48.332031 23.378906 45.832031 21.722656 45.832031 Z M 25.863281 45.832031 C 27.515625 45.832031 27.515625 48.332031 25.863281 48.332031 C 24.207031 48.332031 24.207031 45.832031 25.863281 45.832031 Z M 25.863281 45.832031 "/>
<path style=" stroke:none;fill-rule:nonzero;fill:rgb(46.666667%,46.666667%,80.000001%);fill-opacity:1;" d="M 32.070312 45 L 32.070312 49.167969 L 36.207031 49.167969 L 36.207031 45 Z M 30 45.832031 C 28.34375 45.832031 28.34375 48.332031 30 48.332031 C 31.65625 48.332031 31.65625 45.832031 30 45.832031 Z M 34.136719 45.832031 C 35.792969 45.832031 35.792969 48.332031 34.136719 48.332031 C 32.484375 48.332031 32.484375 45.832031 34.136719 45.832031 Z M 34.136719 45.832031 "/>
<path style=" stroke:none;fill-rule:nonzero;fill:rgb(46.666667%,46.666667%,80.000001%);fill-opacity:1;" d="M 40.34375 45 L 40.34375 49.167969 L 44.484375 49.167969 L 44.484375 45 Z M 38.277344 45.832031 C 36.621094 45.832031 36.621094 48.332031 38.277344 48.332031 C 39.929688 48.332031 39.929688 45.832031 38.277344 45.832031 Z M 42.414062 45.832031 C 44.070312 45.832031 44.070312 48.332031 42.414062 48.332031 C 40.757812 48.332031 40.757812 45.832031 42.414062 45.832031 Z M 42.414062 45.832031 "/>
<path style=" stroke:none;fill-rule:nonzero;fill:rgb(46.666667%,46.666667%,80.000001%);fill-opacity:1;" d="M 48.621094 45 L 48.621094 49.167969 L 52.757812 49.167969 L 52.757812 45 Z M 46.550781 45.832031 C 44.898438 45.832031 44.898438 48.332031 46.550781 48.332031 C 48.207031 48.332031 48.207031 45.832031 46.550781 45.832031 Z M 50.691406 45.832031 C 52.34375 45.832031 52.34375 48.332031 50.691406 48.332031 C 49.035156 48.332031 49.035156 45.832031 50.691406 45.832031 Z M 50.691406 45.832031 "/>
<path style=" stroke:none;fill-rule:nonzero;fill:rgb(46.666667%,46.666667%,80.000001%);fill-opacity:1;" d="M 54.828125 45.832031 C 53.171875 45.832031 53.171875 48.332031 54.828125 48.332031 C 56.484375 48.332031 56.484375 45.832031 54.828125 45.832031 Z M 54.828125 45.832031 "/>
<path style=" stroke:none;fill-rule:nonzero;fill:rgb(46.666667%,46.666667%,80.000001%);fill-opacity:1;" d="M 3.101562 32.5 L 3.101562 36.667969 L 7.242188 36.667969 L 7.242188 32.5 Z M 5.171875 33.332031 C 6.828125 33.332031 6.828125 35.832031 5.171875 35.832031 C 3.515625 35.832031 3.515625 33.332031 5.171875 33.332031 Z M 5.171875 33.332031 "/>
<path style=" stroke:none;fill-rule:nonzero;fill:rgb(46.666667%,46.666667%,80.000001%);fill-opacity:1;" d="M 19.65625 32.5 L 19.65625 36.667969 L 23.792969 36.667969 L 23.792969 32.5 Z M 17.585938 33.332031 C 15.929688 33.332031 15.929688 35.832031 17.585938 35.832031 C 19.242188 35.832031 19.242188 33.332031 17.585938 33.332031 Z M 21.722656 33.332031 C 23.378906 33.332031 23.378906 35.832031 21.722656 35.832031 C 20.070312 35.832031 20.070312 33.332031 21.722656 33.332031 Z M 21.722656 33.332031 "/>
<path style=" stroke:none;fill-rule:nonzero;fill:rgb(46.666667%,46.666667%,80.000001%);fill-opacity:1;" d="M 27.929688 32.5 L 27.929688 36.667969 L 32.070312 36.667969 L 32.070312 32.5 Z M 25.863281 33.332031 C 24.207031 33.332031 24.207031 35.832031 25.863281 35.832031 C 27.515625 35.832031 27.515625 33.332031 25.863281 33.332031 Z M 30 33.332031 C 31.65625 33.332031 31.65625 35.832031 30 35.832031 C 28.34375 35.832031 28.34375 33.332031 30 33.332031 Z M 30 33.332031 "/>
<path style=" stroke:none;fill-rule:nonzero;fill:rgb(46.666667%,46.666667%,80.000001%);fill-opacity:1;" d="M 36.207031 32.5 L 36.207031 36.667969 L 40.34375 36.667969 L 40.34375 32.5 Z M 34.136719 33.332031 C 32.484375 33.332031 32.484375 35.832031 34.136719 35.832031 C 35.792969 35.832031 35.792969 33.332031 34.136719 33.332031 Z M 38.277344 33.332031 C 39.929688 33.332031 39.929688 35.832031 38.277344 35.832031 C 36.621094 35.832031 36.621094 33.332031 38.277344 33.332031 Z M 38.277344 33.332031 "/>
<path style=" stroke:none;fill-rule:nonzero;fill:rgb(46.666667%,46.666667%,80.000001%);fill-opacity:1;" d="M 44.484375 32.5 L 44.484375 36.667969 L 48.621094 36.667969 L 48.621094 32.5 Z M 42.414062 33.332031 C 40.757812 33.332031 40.757812 35.832031 42.414062 35.832031 C 44.070312 35.832031 44.070312 33.332031 42.414062 33.332031 Z M 46.550781 33.332031 C 48.207031 33.332031 48.207031 35.832031 46.550781 35.832031 C 44.898438 35.832031 44.898438 33.332031 46.550781 33.332031 Z M 46.550781 33.332031 "/>
<path style=" stroke:none;fill-rule:nonzero;fill:rgb(46.666667%,46.666667%,80.000001%);fill-opacity:1;" d="M 11.378906 32.5 L 11.378906 36.667969 L 15.515625 36.667969 L 15.515625 32.5 Z M 9.308594 33.332031 C 7.65625 33.332031 7.65625 35.832031 9.308594 35.832031 C 10.964844 35.832031 10.964844 33.332031 9.308594 33.332031 Z M 13.449219 33.332031 C 15.101562 33.332031 15.101562 35.832031 13.449219 35.832031 C 11.792969 35.832031 11.792969 33.332031 13.449219 33.332031 Z M 13.449219 33.332031 "/>
<path style=" stroke:none;fill-rule:nonzero;fill:rgb(46.666667%,46.666667%,80.000001%);fill-opacity:1;" d="M 52.757812 32.5 L 52.757812 36.667969 L 56.898438 36.667969 L 56.898438 32.5 Z M 50.691406 33.332031 C 49.035156 33.332031 49.035156 35.832031 50.691406 35.832031 C 52.34375 35.832031 52.34375 33.332031 50.691406 33.332031 Z M 54.828125 33.332031 C 56.484375 33.332031 56.484375 35.832031 54.828125 35.832031 C 53.171875 35.832031 53.171875 33.332031 54.828125 33.332031 Z M 54.828125 33.332031 "/>
<path style=" stroke:none;fill-rule:nonzero;fill:rgb(46.666667%,46.666667%,80.000001%);fill-opacity:1;" d="M 7.242188 36.667969 L 7.242188 40.832031 L 11.378906 40.832031 L 11.378906 36.667969 Z M 5.171875 37.5 C 3.515625 37.5 3.515625 40 5.171875 40 C 6.828125 40 6.828125 37.5 5.171875 37.5 Z M 9.308594 37.5 C 10.964844 37.5 10.964844 40 9.308594 40 C 7.65625 40 7.65625 37.5 9.308594 37.5 Z M 9.308594 37.5 "/>
<path style=" stroke:none;fill-rule:nonzero;fill:rgb(46.666667%,46.666667%,80.000001%);fill-opacity:1;" d="M 15.515625 36.667969 L 15.515625 40.832031 L 19.65625 40.832031 L 19.65625 36.667969 Z M 13.449219 37.5 C 11.792969 37.5 11.792969 40 13.449219 40 C 15.101562 40 15.101562 37.5 13.449219 37.5 Z M 17.585938 37.5 C 19.242188 37.5 19.242188 40 17.585938 40 C 15.929688 40 15.929688 37.5 17.585938 37.5 Z M 17.585938 37.5 "/>
<path style=" stroke:none;fill-rule:nonzero;fill:rgb(46.666667%,46.666667%,80.000001%);fill-opacity:1;" d="M 23.792969 36.667969 L 23.792969 40.832031 L 27.929688 40.832031 L 27.929688 36.667969 Z M 21.722656 37.5 C 20.070312 37.5 20.070312 40 21.722656 40 C 23.378906 40 23.378906 37.5 21.722656 37.5 Z M 25.863281 37.5 C 27.515625 37.5 27.515625 40 25.863281 40 C 24.207031 40 24.207031 37.5 25.863281 37.5 Z M 25.863281 37.5 "/>
<path style=" stroke:none;fill-rule:nonzero;fill:rgb(46.666667%,46.666667%,80.000001%);fill-opacity:1;" d="M 32.070312 36.667969 L 32.070312 40.832031 L 36.207031 40.832031 L 36.207031 36.667969 Z M 30 37.5 C 28.34375 37.5 28.34375 40 30 40 C 31.65625 40 31.65625 37.5 30 37.5 Z M 34.136719 37.5 C 35.792969 37.5 35.792969 40 34.136719 40 C 32.484375 40 32.484375 37.5 34.136719 37.5 Z M 34.136719 37.5 "/>
<path style=" stroke:none;fill-rule:nonzero;fill:rgb(46.666667%,46.666667%,80.000001%);fill-opacity:1;" d="M 40.34375 36.667969 L 40.34375 40.832031 L 44.484375 40.832031 L 44.484375 36.667969 Z M 38.277344 37.5 C 36.621094 37.5 36.621094 40 38.277344 40 C 39.929688 40 39.929688 37.5 38.277344 37.5 Z M 42.414062 37.5 C 44.070312 37.5 44.070312 40 42.414062 40 C 40.757812 40 40.757812 37.5 42.414062 37.5 Z M 42.414062 37.5 "/>
<path style=" stroke:none;fill-rule:nonzero;fill:rgb(46.666667%,46.666667%,80.000001%);fill-opacity:1;" d="M 48.621094 36.667969 L 48.621094 40.832031 L 52.757812 40.832031 L 52.757812 36.667969 Z M 46.550781 37.5 C 44.898438 37.5 44.898438 40 46.550781 40 C 48.207031 40 48.207031 37.5 46.550781 37.5 Z M 50.691406 37.5 C 52.34375 37.5 52.34375 40 50.691406 40 C 49.035156 40 49.035156 37.5 50.691406 37.5 Z M 50.691406 37.5 "/>
<path style=" stroke:none;fill-rule:nonzero;fill:rgb(46.666667%,46.666667%,80.000001%);fill-opacity:1;" d="M 54.828125 37.5 C 53.171875 37.5 53.171875 40 54.828125 40 C 56.484375 40 56.484375 37.5 54.828125 37.5 Z M 54.828125 37.5 "/>
<path style=" stroke:none;fill-rule:nonzero;fill:rgb(46.666667%,46.666667%,80.000001%);fill-opacity:1;" d="M 3.101562 24.167969 L 3.101562 28.332031 L 7.242188 28.332031 L 7.242188 24.167969 Z M 5.171875 25 C 6.828125 25 6.828125 27.5 5.171875 27.5 C 3.515625 27.5 3.515625 25 5.171875 25 Z M 5.171875 25 "/>
<path style=" stroke:none;fill-rule:nonzero;fill:rgb(46.666667%,46.666667%,80.000001%);fill-opacity:1;" d="M 19.65625 24.167969 L 19.65625 28.332031 L 23.792969 28.332031 L 23.792969 24.167969 Z M 17.585938 25 C 15.929688 25 15.929688 27.5 17.585938 27.5 C 19.242188 27.5 19.242188 25 17.585938 25 Z M 21.722656 25 C 23.378906 25 23.378906 27.5 21.722656 27.5 C 20.070312 27.5 20.070312 25 21.722656 25 Z M 21.722656 25 "/>
<path style=" stroke:none;fill-rule:nonzero;fill:rgb(46.666667%,46.666667%,80.000001%);fill-opacity:1;" d="M 27.929688 24.167969 L 27.929688 28.332031 L 32.070312 28.332031 L 32.070312 24.167969 Z M 25.863281 25 C 24.207031 25 24.207031 27.5 25.863281 27.5 C 27.515625 27.5 27.515625 25 25.863281 25 Z M 30 25 C 31.65625 25 31.65625 27.5 30 27.5 C 28.34375 27.5 28.34375 25 30 25 Z M 30 25 "/>
<path style=" stroke:none;fill-rule:nonzero;fill:rgb(46.666667%,46.666667%,80.000001%);fill-opacity:1;" d="M 36.207031 24.167969 L 36.207031 28.332031 L 40.34375 28.332031 L 40.34375 24.167969 Z M 34.136719 25 C 32.484375 25 32.484375 27.5 34.136719 27.5 C 35.792969 27.5 35.792969 25 34.136719 25 Z M 38.277344 25 C 39.929688 25 39.929688 27.5 38.277344 27.5 C 36.621094 27.5 36.621094 25 38.277344 25 Z M 38.277344 25 "/>
<path style=" stroke:none;fill-rule:nonzero;fill:rgb(46.666667%,46.666667%,80.000001%);fill-opacity:1;" d="M 44.484375 24.167969 L 44.484375 28.332031 L 48.621094 28.332031 L 48.621094 24.167969 Z M 42.414062 25 C 40.757812 25 40.757812 27.5 42.414062 27.5 C 44.070312 27.5 44.070312 25 42.414062 25 Z M 46.550781 25 C 48.207031 25 48.207031 27.5 46.550781 27.5 C 44.898438 27.5 44.898438 25 46.550781 25 Z M 46.550781 25 "/>
<path style=" stroke:none;fill-rule:nonzero;fill:rgb(46.666667%,46.666667%,80.000001%);fill-opacity:1;" d="M 11.378906 24.167969 L 11.378906 28.332031 L 15.515625 28.332031 L 15.515625 24.167969 Z M 9.308594 25 C 7.65625 25 7.65625 27.5 9.308594 27.5 C 10.964844 27.5 10.964844 25 9.308594 25 Z M 13.449219 25 C 15.101562 25 15.101562 27.5 13.449219 27.5 C 11.792969 27.5 11.792969 25 13.449219 25 Z M 13.449219 25 "/>
<path style=" stroke:none;fill-rule:nonzero;fill:rgb(46.666667%,46.666667%,80.000001%);fill-opacity:1;" d="M 52.757812 24.167969 L 52.757812 28.332031 L 56.898438 28.332031 L 56.898438 24.167969 Z M 50.691406 25 C 49.035156 25 49.035156 27.5 50.691406 27.5 C 52.34375 27.5 52.34375 25 50.691406 25 Z M 54.828125 25 C 56.484375 25 56.484375 27.5 54.828125 27.5 C 53.171875 27.5 53.171875 25 54.828125 25 Z M 54.828125 25 "/>
<path style=" stroke:none;fill-rule:nonzero;fill:rgb(46.666667%,46.666667%,80.000001%);fill-opacity:1;" d="M 7.242188 28.332031 L 7.242188 32.5 L 11.378906 32.5 L 11.378906 28.332031 Z M 5.171875 29.167969 C 3.515625 29.167969 3.515625 31.667969 5.171875 31.667969 C 6.828125 31.667969 6.828125 29.167969 5.171875 29.167969 Z M 9.308594 29.167969 C 10.964844 29.167969 10.964844 31.667969 9.308594 31.667969 C 7.65625 31.667969 7.65625 29.167969 9.308594 29.167969 Z M 9.308594 29.167969 "/>
<path style=" stroke:none;fill-rule:nonzero;fill:rgb(46.666667%,46.666667%,80.000001%);fill-opacity:1;" d="M 15.515625 28.332031 L 15.515625 32.5 L 19.65625 32.5 L 19.65625 28.332031 Z M 13.449219 29.167969 C 11.792969 29.167969 11.792969 31.667969 13.449219 31.667969 C 15.101562 31.667969 15.101562 29.167969 13.449219 29.167969 Z M 17.585938 29.167969 C 19.242188 29.167969 19.242188 31.667969 17.585938 31.667969 C 15.929688 31.667969 15.929688 29.167969 17.585938 29.167969 Z M 17.585938 29.167969 "/>
<path style=" stroke:none;fill-rule:nonzero;fill:rgb(46.666667%,46.666667%,80.000001%);fill-opacity:1;" d="M 23.792969 28.332031 L 23.792969 32.5 L 27.929688 32.5 L 27.929688 28.332031 Z M 21.722656 29.167969 C 20.070312 29.167969 20.070312 31.667969 21.722656 31.667969 C 23.378906 31.667969 23.378906 29.167969 21.722656 29.167969 Z M 25.863281 29.167969 C 27.515625 29.167969 27.515625 31.667969 25.863281 31.667969 C 24.207031 31.667969 24.207031 29.167969 25.863281 29.167969 Z M 25.863281 29.167969 "/>
<path style=" stroke:none;fill-rule:nonzero;fill:rgb(46.666667%,46.666667%,80.000001%);fill-opacity:1;" d="M 32.070312 28.332031 L 32.070312 32.5 L 36.207031 32.5 L 36.207031 28.332031 Z M 30 29.167969 C 28.34375 29.167969 28.34375 31.667969 30 31.667969 C 31.65625 31.667969 31.65625 29.167969 30 29.167969 Z M 34.136719 29.167969 C 35.792969 29.167969 35.792969 31.667969 34.136719 31.667969 C 32.484375 31.667969 32.484375 29.167969 34.136719 29.167969 Z M 34.136719 29.167969 "/>
<path style=" stroke:none;fill-rule:nonzero;fill:rgb(46.666667%,46.666667%,80.000001%);fill-opacity:1;" d="M 40.34375 28.332031 L 40.34375 32.5 L 44.484375 32.5 L 44.484375 28.332031 Z M 38.277344 29.167969 C 36.621094 29.167969 36.621094 31.667969 38.277344 31.667969 C 39.929688 31.667969 39.929688 29.167969 38.277344 29.167969 Z M 42.414062 29.167969 C 44.070312 29.167969 44.070312 31.667969 42.414062 31.667969 C 40.757812 31.667969 40.757812 29.167969 42.414062 29.167969 Z M 42.414062 29.167969 "/>
<path style=" stroke:none;fill-rule:nonzero;fill:rgb(46.666667%,46.666667%,80.000001%);fill-opacity:1;" d="M 48.621094 28.332031 L 48.621094 32.5 L 52.757812 32.5 L 52.757812 28.332031 Z M 46.550781 29.167969 C 44.898438 29.167969 44.898438 31.667969 46.550781 31.667969 C 48.207031 31.667969 48.207031 29.167969 46.550781 29.167969 Z M 50.691406 29.167969 C 52.34375 29.167969 52.34375 31.667969 50.691406 31.667969 C 49.035156 31.667969 49.035156 29.167969 50.691406 29.167969 Z M 50.691406 29.167969 "/>
<path style=" stroke:none;fill-rule:nonzero;fill:rgb(46.666667%,46.666667%,80.000001%);fill-opacity:1;" d="M 54.828125 29.167969 C 53.171875 29.167969 53.171875 31.667969 54.828125 31.667969 C 56.484375 31.667969 56.484375 29.167969 54.828125 29.167969 Z M 54.828125 29.167969 "/>
<path style=" stroke:none;fill-rule:nonzero;fill:rgb(46.666667%,46.666667%,80.000001%);fill-opacity:1;" d="M 3.101562 15.832031 L 3.101562 20 L 7.242188 20 L 7.242188 15.832031 Z M 5.171875 16.667969 C 6.828125 16.667969 6.828125 19.167969 5.171875 19.167969 C 3.515625 19.167969 3.515625 16.667969 5.171875 16.667969 Z M 5.171875 16.667969 "/>
<path style=" stroke:none;fill-rule:nonzero;fill:rgb(46.666667%,46.666667%,80.000001%);fill-opacity:1;" d="M 19.65625 15.832031 L 19.65625 20 L 23.792969 20 L 23.792969 15.832031 Z M 17.585938 16.667969 C 15.929688 16.667969 15.929688 19.167969 17.585938 19.167969 C 19.242188 19.167969 19.242188 16.667969 17.585938 16.667969 Z M 21.722656 16.667969 C 23.378906 16.667969 23.378906 19.167969 21.722656 19.167969 C 20.070312 19.167969 20.070312 16.667969 21.722656 16.667969 Z M 21.722656 16.667969 "/>
<path style=" stroke:none;fill-rule:nonzero;fill:rgb(46.666667%,46.666667%,80.000001%);fill-opacity:1;" d="M 27.929688 15.832031 L 27.929688 20 L 32.070312 20 L 32.070312 15.832031 Z M 25.863281 16.667969 C 24.207031 16.667969 24.207031 19.167969 25.863281 19.167969 C 27.515625 19.167969 27.515625 16.667969 25.863281 16.667969 Z M 30 16.667969 C 31.65625 16.667969 31.65625 19.167969 30 19.167969 C 28.34375 19.167969 28.34375 16.667969 30 16.667969 Z M 30 16.667969 "/>
<path style=" stroke:none;fill-rule:nonzero;fill:rgb(46.666667%,46.666667%,80.000001%);fill-opacity:1;" d="M 36.207031 15.832031 L 36.207031 20 L 40.34375 20 L 40.34375 15.832031 Z M 34.136719 16.667969 C 32.484375 16.667969 32.484375 19.167969 34.136719 19.167969 C 35.792969 19.167969 35.792969 16.667969 34.136719 16.667969 Z M 38.277344 16.667969 C 39.929688 16.667969 39.929688 19.167969 38.277344 19.167969 C 36.621094 19.167969 36.621094 16.667969 38.277344 16.667969 Z M 38.277344 16.667969 "/>
<path style=" stroke:none;fill-rule:nonzero;fill:rgb(46.666667%,46.666667%,80.000001%);fill-opacity:1;" d="M 44.484375 15.832031 L 44.484375 20 L 48.621094 20 L 48.621094 15.832031 Z M 42.414062 16.667969 C 40.757812 16.667969 40.757812 19.167969 42.414062 19.167969 C 44.070312 19.167969 44.070312 16.667969 42.414062 16.667969 Z M 46.550781 16.667969 C 48.207031 16.667969 48.207031 19.167969 46.550781 19.167969 C 44.898438 19.167969 44.898438 16.667969 46.550781 16.667969 Z M 46.550781 16.667969 "/>
<path style=" stroke:none;fill-rule:nonzero;fill:rgb(46.666667%,46.666667%,80.000001%);fill-opacity:1;" d="M 11.378906 15.832031 L 11.378906 20 L 15.515625 20 L 15.515625 15.832031 Z M 9.308594 16.667969 C 7.65625 16.667969 7.65625 19.167969 9.308594 19.167969 C 10.964844 19.167969 10.964844 16.667969 9.308594 16.667969 Z M 13.449219 16.667969 C 15.101562 16.667969 15.101562 19.167969 13.449219 19.167969 C 11.792969 19.167969 11.792969 16.667969 13.449219 16.667969 Z M 13.449219 16.667969 "/>
<path style=" stroke:none;fill-rule:nonzero;fill:rgb(46.666667%,46.666667%,80.000001%);fill-opacity:1;" d="M 52.757812 15.832031 L 52.757812 20 L 56.898438 20 L 56.898438 15.832031 Z M 50.691406 16.667969 C 49.035156 16.667969 49.035156 19.167969 50.691406 19.167969 C 52.34375 19.167969 52.34375 16.667969 50.691406 16.667969 Z M 54.828125 16.667969 C 56.484375 16.667969 56.484375 19.167969 54.828125 19.167969 C 53.171875 19.167969 53.171875 16.667969 54.828125 16.667969 Z M 54.828125 16.667969 "/>
<path style=" stroke:none;fill-rule:nonzero;fill:rgb(46.666667%,46.666667%,80.000001%);fill-opacity:1;" d="M 7.242188 20 L 7.242188 24.167969 L 11.378906 24.167969 L 11.378906 20 Z M 5.171875 20.832031 C 3.515625 20.832031 3.515625 23.332031 5.171875 23.332031 C 6.828125 23.332031 6.828125 20.832031 5.171875 20.832031 Z M 9.308594 20.832031 C 10.964844 20.832031 10.964844 23.332031 9.308594 23.332031 C 7.65625 23.332031 7.65625 20.832031 9.308594 20.832031 Z M 9.308594 20.832031 "/>
<path style=" stroke:none;fill-rule:nonzero;fill:rgb(46.666667%,46.666667%,80.000001%);fill-opacity:1;" d="M 15.515625 20 L 15.515625 24.167969 L 19.65625 24.167969 L 19.65625 20 Z M 13.449219 20.832031 C 11.792969 20.832031 11.792969 23.332031 13.449219 23.332031 C 15.101562 23.332031 15.101562 20.832031 13.449219 20.832031 Z M 17.585938 20.832031 C 19.242188 20.832031 19.242188 23.332031 17.585938 23.332031 C 15.929688 23.332031 15.929688 20.832031 17.585938 20.832031 Z M 17.585938 20.832031 "/>
<path style=" stroke:none;fill-rule:nonzero;fill:rgb(46.666667%,46.666667%,80.000001%);fill-opacity:1;" d="M 23.792969 20 L 23.792969 24.167969 L 27.929688 24.167969 L 27.929688 20 Z M 21.722656 20.832031 C 20.070312 20.832031 20.070312 23.332031 21.722656 23.332031 C 23.378906 23.332031 23.378906 20.832031 21.722656 20.832031 Z M 25.863281 20.832031 C 27.515625 20.832031 27.515625 23.332031 25.863281 23.332031 C 24.207031 23.332031 24.207031 20.832031 25.863281 20.832031 Z M 25.863281 20.832031 "/>
<path style=" stroke:none;fill-rule:nonzero;fill:rgb(46.666667%,46.666667%,80.000001%);fill-opacity:1;" d="M 32.070312 20 L 32.070312 24.167969 L 36.207031 24.167969 L 36.207031 20 Z M 30 20.832031 C 28.34375 20.832031 28.34375 23.332031 30 23.332031 C 31.65625 23.332031 31.65625 20.832031 30 20.832031 Z M 34.136719 20.832031 C 35.792969 20.832031 35.792969 23.332031 34.136719 23.332031 C 32.484375 23.332031 32.484375 20.832031 34.136719 20.832031 Z M 34.136719 20.832031 "/>
<path style=" stroke:none;fill-rule:nonzero;fill:rgb(46.666667%,46.666667%,80.000001%);fill-opacity:1;" d="M 40.34375 20 L 40.34375 24.167969 L 44.484375 24.167969 L 44.484375 20 Z M 38.277344 20.832031 C 36.621094 20.832031 36.621094 23.332031 38.277344 23.332031 C 39.929688 23.332031 39.929688 20.832031 38.277344 20.832031 Z M 42.414062 20.832031 C 44.070312 20.832031 44.070312 23.332031 42.414062 23.332031 C 40.757812 23.332031 40.757812 20.832031 42.414062 20.832031 Z M 42.414062 20.832031 "/>
<path style=" stroke:none;fill-rule:nonzero;fill:rgb(46.666667%,46.666667%,80.000001%);fill-opacity:1;" d="M 48.621094 20 L 48.621094 24.167969 L 52.757812 24.167969 L 52.757812 20 Z M 46.550781 20.832031 C 44.898438 20.832031 44.898438 23.332031 46.550781 23.332031 C 48.207031 23.332031 48.207031 20.832031 46.550781 20.832031 Z M 50.691406 20.832031 C 52.34375 20.832031 52.34375 23.332031 50.691406 23.332031 C 49.035156 23.332031 49.035156 20.832031 50.691406 20.832031 Z M 50.691406 20.832031 "/>
<path style=" stroke:none;fill-rule:nonzero;fill:rgb(46.666667%,46.666667%,80.000001%);fill-opacity:1;" d="M 54.828125 20.832031 C 53.171875 20.832031 53.171875 23.332031 54.828125 23.332031 C 56.484375 23.332031 56.484375 20.832031 54.828125 20.832031 Z M 54.828125 20.832031 "/>
<path style=" stroke:none;fill-rule:nonzero;fill:rgb(46.666667%,46.666667%,80.000001%);fill-opacity:1;" d="M 3.101562 7.5 L 3.101562 11.667969 L 7.242188 11.667969 L 7.242188 7.5 Z M 5.171875 8.332031 C 6.828125 8.332031 6.828125 10.832031 5.171875 10.832031 C 3.515625 10.832031 3.515625 8.332031 5.171875 8.332031 Z M 5.171875 8.332031 "/>
<path style=" stroke:none;fill-rule:nonzero;fill:rgb(46.666667%,46.666667%,80.000001%);fill-opacity:1;" d="M 19.65625 7.5 L 19.65625 11.667969 L 23.792969 11.667969 L 23.792969 7.5 Z M 17.585938 8.332031 C 15.929688 8.332031 15.929688 10.832031 17.585938 10.832031 C 19.242188 10.832031 19.242188 8.332031 17.585938 8.332031 Z M 21.722656 8.332031 C 23.378906 8.332031 23.378906 10.832031 21.722656 10.832031 C 20.070312 10.832031 20.070312 8.332031 21.722656 8.332031 Z M 21.722656 8.332031 "/>
<path style=" stroke:none;fill-rule:nonzero;fill:rgb(46.666667%,46.666667%,80.000001%);fill-opacity:1;" d="M 27.929688 7.5 L 27.929688 11.667969 L 32.070312 11.667969 L 32.070312 7.5 Z M 25.863281 8.332031 C 24.207031 8.332031 24.207031 10.832031 25.863281 10.832031 C 27.515625 10.832031 27.515625 8.332031 25.863281 8.332031 Z M 30 8.332031 C 31.65625 8.332031 31.65625 10.832031 30 10.832031 C 28.34375 10.832031 28.34375 8.332031 30 8.332031 Z M 30 8.332031 "/>
<path style=" stroke:none;fill-rule:nonzero;fill:rgb(46.666667%,46.666667%,80.000001%);fill-opacity:1;" d="M 36.207031 7.5 L 36.207031 11.667969 L 40.34375 11.667969 L 40.34375 7.5 Z M 34.136719 8.332031 C 32.484375 8.332031 32.484375 10.832031 34.136719 10.832031 C 35.792969 10.832031 35.792969 8.332031 34.136719 8.332031 Z M 38.277344 8.332031 C 39.929688 8.332031 39.929688 10.832031 38.277344 10.832031 C 36.621094 10.832031 36.621094 8.332031 38.277344 8.332031 Z M 38.277344 8.332031 "/>
<path style=" stroke:none;fill-rule:nonzero;fill:rgb(46.666667%,46.666667%,80.000001%);fill-opacity:1;" d="M 44.484375 7.5 L 44.484375 11.667969 L 48.621094 11.667969 L 48.621094 7.5 Z M 42.414062 8.332031 C 40.757812 8.332031 40.757812 10.832031 42.414062 10.832031 C 44.070312 10.832031 44.070312 8.332031 42.414062 8.332031 Z M 46.550781 8.332031 C 48.207031 8.332031 48.207031 10.832031 46.550781 10.832031 C 44.898438 10.832031 44.898438 8.332031 46.550781 8.332031 Z M 46.550781 8.332031 "/>
<path style=" stroke:none;fill-rule:nonzero;fill:rgb(46.666667%,46.666667%,80.000001%);fill-opacity:1;" d="M 11.378906 7.5 L 11.378906 11.667969 L 15.515625 11.667969 L 15.515625 7.5 Z M 9.308594 8.332031 C 7.65625 8.332031 7.65625 10.832031 9.308594 10.832031 C 10.964844 10.832031 10.964844 8.332031 9.308594 8.332031 Z M 13.449219 8.332031 C 15.101562 8.332031 15.101562 10.832031 13.449219 10.832031 C 11.792969 10.832031 11.792969 8.332031 13.449219 8.332031 Z M 13.449219 8.332031 "/>
<path style=" stroke:none;fill-rule:nonzero;fill:rgb(46.666667%,46.666667%,80.000001%);fill-opacity:1;" d="M 52.757812 7.5 L 52.757812 11.667969 L 56.898438 11.667969 L 56.898438 7.5 Z M 50.691406 8.332031 C 49.035156 8.332031 49.035156 10.832031 50.691406 10.832031 C 52.34375 10.832031 52.34375 8.332031 50.691406 8.332031 Z M 54.828125 8.332031 C 56.484375 8.332031 56.484375 10.832031 54.828125 10.832031 C 53.171875 10.832031 53.171875 8.332031 54.828125 8.332031 Z M 54.828125 8.332031 "/>
<path style=" stroke:none;fill-rule:nonzero;fill:rgb(46.666667%,46.666667%,80.000001%);fill-opacity:1;" d="M 7.242188 11.667969 L 7.242188 15.832031 L 11.378906 15.832031 L 11.378906 11.667969 Z M 5.171875 12.5 C 3.515625 12.5 3.515625 15 5.171875 15 C 6.828125 15 6.828125 12.5 5.171875 12.5 Z M 9.308594 12.5 C 10.964844 12.5 10.964844 15 9.308594 15 C 7.65625 15 7.65625 12.5 9.308594 12.5 Z M 9.308594 12.5 "/>
<path style=" stroke:none;fill-rule:nonzero;fill:rgb(46.666667%,46.666667%,80.000001%);fill-opacity:1;" d="M 15.515625 11.667969 L 15.515625 15.832031 L 19.65625 15.832031 L 19.65625 11.667969 Z M 13.449219 12.5 C 11.792969 12.5 11.792969 15 13.449219 15 C 15.101562 15 15.101562 12.5 13.449219 12.5 Z M 17.585938 12.5 C 19.242188 12.5 19.242188 15 17.585938 15 C 15.929688 15 15.929688 12.5 17.585938 12.5 Z M 17.585938 12.5 "/>
<path style=" stroke:none;fill-rule:nonzero;fill:rgb(46.666667%,46.666667%,80.000001%);fill-opacity:1;" d="M 23.792969 11.667969 L 23.792969 15.832031 L 27.929688 15.832031 L 27.929688 11.667969 Z M 21.722656 12.5 C 20.070312 12.5 20.070312 15 21.722656 15 C 23.378906 15 23.378906 12.5 21.722656 12.5 Z M 25.863281 12.5 C 27.515625 12.5 27.515625 15 25.863281 15 C 24.207031 15 24.207031 12.5 25.863281 12.5 Z M 25.863281 12.5 "/>
<path style=" stroke:none;fill-rule:nonzero;fill:rgb(46.666667%,46.666667%,80.000001%);fill-opacity:1;" d="M 32.070312 11.667969 L 32.070312 15.832031 L 36.207031 15.832031 L 36.207031 11.667969 Z M 30 12.5 C 28.34375 12.5 28.34375 15 30 15 C 31.65625 15 31.65625 12.5 30 12.5 Z M 34.136719 12.5 C 35.792969 12.5 35.792969 15 34.136719 15 C 32.484375 15 32.484375 12.5 34.136719 12.5 Z M 34.136719 12.5 "/>
<path style=" stroke:none;fill-rule:nonzero;fill:rgb(46.666667%,46.666667%,80.000001%);fill-opacity:1;" d="M 40.34375 11.667969 L 40.34375 15.832031 L 44.484375 15.832031 L 44.484375 11.667969 Z M 38.277344 12.5 C 36.621094 12.5 36.621094 15 38.277344 15 C 39.929688 15 39.929688 12.5 38.277344 12.5 Z M 42.414062 12.5 C 44.070312 12.5 44.070312 15 42.414062 15 C 40.757812 15 40.757812 12.5 42.414062 12.5 Z M 42.414062 12.5 "/>
<path style=" stroke:none;fill-rule:nonzero;fill:rgb(46.666667%,46.666667%,80.000001%);fill-opacity:1;" d="M 48.621094 11.667969 L 48.621094 15.832031 L 52.757812 15.832031 L 52.757812 11.667969 Z M 46.550781 12.5 C 44.898438 12.5 44.898438 15 46.550781 15 C 48.207031 15 48.207031 12.5 46.550781 12.5 Z M 50.691406 12.5 C 52.34375 12.5 52.34375 15 50.691406 15 C 49.035156 15 49.035156 12.5 50.691406 12.5 Z M 50.691406 12.5 "/>
<path style=" stroke:none;fill-rule:nonzero;fill:rgb(46.666667%,46.666667%,80.000001%);fill-opacity:1;" d="M 54.828125 12.5 C 53.171875 12.5 53.171875 15 54.828125 15 C 56.484375 15 56.484375 12.5 54.828125 12.5 Z M 54.828125 12.5 "/>
<path style=" stroke:none;fill-rule:nonzero;fill:rgb(46.666667%,46.666667%,80.000001%);fill-opacity:1;" d="M 7.242188 3.332031 L 7.242188 7.5 L 11.378906 7.5 L 11.378906 3.332031 Z M 5.171875 4.167969 C 3.515625 4.167969 3.515625 6.667969 5.171875 6.667969 C 6.828125 6.667969 6.828125 4.167969 5.171875 4.167969 Z M 9.308594 4.167969 C 10.964844 4.167969 10.964844 6.667969 9.308594 6.667969 C 7.65625 6.667969 7.65625 4.167969 9.308594 4.167969 Z M 9.308594 4.167969 "/>
<path style=" stroke:none;fill-rule:nonzero;fill:rgb(46.666667%,46.666667%,80.000001%);fill-opacity:1;" d="M 15.515625 3.332031 L 15.515625 7.5 L 19.65625 7.5 L 19.65625 3.332031 Z M 13.449219 4.167969 C 11.792969 4.167969 11.792969 6.667969 13.449219 6.667969 C 15.101562 6.667969 15.101562 4.167969 13.449219 4.167969 Z M 17.585938 4.167969 C 19.242188 4.167969 19.242188 6.667969 17.585938 6.667969 C 15.929688 6.667969 15.929688 4.167969 17.585938 4.167969 Z M 17.585938 4.167969 "/>
<path style=" stroke:none;fill-rule:nonzero;fill:rgb(46.666667%,46.666667%,80.000001%);fill-opacity:1;" d="M 23.792969 3.332031 L 23.792969 7.5 L 27.929688 7.5 L 27.929688 3.332031 Z M 21.722656 4.167969 C 20.070312 4.167969 20.070312 6.667969 21.722656 6.667969 C 23.378906 6.667969 23.378906 4.167969 21.722656 4.167969 Z M 25.863281 4.167969 C 27.515625 4.167969 27.515625 6.667969 25.863281 6.667969 C 24.207031 6.667969 24.207031 4.167969 25.863281 4.167969 Z M 25.863281 4.167969 "/>
<path style=" stroke:none;fill-rule:nonzero;fill:rgb(46.666667%,46.666667%,80.000001%);fill-opacity:1;" d="M 32.070312 3.332031 L 32.070312 7.5 L 36.207031 7.5 L 36.207031 3.332031 Z M 30 4.167969 C 28.34375 4.167969 28.34375 6.667969 30 6.667969 C 31.65625 6.667969 31.65625 4.167969 30 4.167969 Z M 34.136719 4.167969 C 35.792969 4.167969 35.792969 6.667969 34.136719 6.667969 C 32.484375 6.667969 32.484375 4.167969 34.136719 4.167969 Z M 34.136719 4.167969 "/>
<path style=" stroke:none;fill-rule:nonzero;fill:rgb(46.666667%,46.666667%,80.000001%);fill-opacity:1;" d="M 40.34375 3.332031 L 40.34375 7.5 L 44.484375 7.5 L 44.484375 3.332031 Z M 38.277344 4.167969 C 36.621094 4.167969 36.621094 6.667969 38.277344 6.667969 C 39.929688 6.667969 39.929688 4.167969 38.277344 4.167969 Z M 42.414062 4.167969 C 44.070312 4.167969 44.070312 6.667969 42.414062 6.667969 C 40.757812 6.667969 40.757812 4.167969 42.414062 4.167969 Z M 42.414062 4.167969 "/>
<path style=" stroke:none;fill-rule:nonzero;fill:rgb(46.666667%,46.666667%,80.000001%);fill-opacity:1;" d="M 48.621094 3.332031 L 48.621094 7.5 L 52.757812 7.5 L 52.757812 3.332031 Z M 46.550781 4.167969 C 44.898438 4.167969 44.898438 6.667969 46.550781 6.667969 C 48.207031 6.667969 48.207031 4.167969 46.550781 4.167969 Z M 50.691406 4.167969 C 52.34375 4.167969 52.34375 6.667969 50.691406 6.667969 C 49.035156 6.667969 49.035156 4.167969 50.691406 4.167969 Z M 50.691406 4.167969 "/>
<path style=" stroke:none;fill-rule:nonzero;fill:rgb(46.666667%,46.666667%,80.000001%);fill-opacity:1;" d="M 54.828125 4.167969 C 53.171875 4.167969 53.171875 6.667969 54.828125 6.667969 C 56.484375 6.667969 56.484375 4.167969 54.828125 4.167969 Z M 54.828125 4.167969 "/>
<path style=" stroke:none;fill-rule:nonzero;fill:rgb(46.666667%,46.666667%,80.000001%);fill-opacity:1;" d="M 7.242188 78.332031 L 7.242188 82.5 L 11.378906 82.5 L 11.378906 78.332031 Z M 5.171875 79.167969 C 3.515625 79.167969 3.515625 81.667969 5.171875 81.667969 C 6.828125 81.667969 6.828125 79.167969 5.171875 79.167969 Z M 9.308594 79.167969 C 10.964844 79.167969 10.964844 81.667969 9.308594 81.667969 C 7.65625 81.667969 7.65625 79.167969 9.308594 79.167969 Z M 9.308594 79.167969 "/>
<path style=" stroke:none;fill-rule:nonzero;fill:rgb(46.666667%,46.666667%,80.000001%);fill-opacity:1;" d="M 15.515625 78.332031 L 15.515625 82.5 L 19.65625 82.5 L 19.65625 78.332031 Z M 13.449219 79.167969 C 11.792969 79.167969 11.792969 81.667969 13.449219 81.667969 C 15.101562 81.667969 15.101562 79.167969 13.449219 79.167969 Z M 17.585938 79.167969 C 19.242188 79.167969 19.242188 81.667969 17.585938 81.667969 C 15.929688 81.667969 15.929688 79.167969 17.585938 79.167969 Z M 17.585938 79.167969 "/>
<path style=" stroke:none;fill-rule:nonzero;fill:rgb(46.666667%,46.666667%,80.000001%);fill-opacity:1;" d="M 23.792969 78.332031 L 23.792969 82.5 L 27.929688 82.5 L 27.929688 78.332031 Z M 21.722656 79.167969 C 20.070312 79.167969 20.070312 81.667969 21.722656 81.667969 C 23.378906 81.667969 23.378906 79.167969 21.722656 79.167969 Z M 25.863281 79.167969 C 27.515625 79.167969 27.515625 81.667969 25.863281 81.667969 C 24.207031 81.667969 24.207031 79.167969 25.863281 79.167969 Z M 25.863281 79.167969 "/>
<path style=" stroke:none;fill-rule:nonzero;fill:rgb(46.666667%,46.666667%,80.000001%);fill-opacity:1;" d="M 32.070312 78.332031 L 32.070312 82.5 L 36.207031 82.5 L 36.207031 78.332031 Z M 30 79.167969 C 28.34375 79.167969 28.34375 81.667969 30 81.667969 C 31.65625 81.667969 31.65625 79.167969 30 79.167969 Z M 34.136719 79.167969 C 35.792969 79.167969 35.792969 81.667969 34.136719 81.667969 C 32.484375 81.667969 32.484375 79.167969 34.136719 79.167969 Z M 34.136719 79.167969 "/>
<path style=" stroke:none;fill-rule:nonzero;fill:rgb(46.666667%,46.666667%,80.000001%);fill-opacity:1;" d="M 40.34375 78.332031 L 40.34375 82.5 L 44.484375 82.5 L 44.484375 78.332031 Z M 38.277344 79.167969 C 36.621094 79.167969 36.621094 81.667969 38.277344 81.667969 C 39.929688 81.667969 39.929688 79.167969 38.277344 79.167969 Z M 42.414062 79.167969 C 44.070312 79.167969 44.070312 81.667969 42.414062 81.667969 C 40.757812 81.667969 40.757812 79.167969 42.414062 79.167969 Z M 42.414062 79.167969 "/>
<path style=" stroke:none;fill-rule:nonzero;fill:rgb(46.666667%,46.666667%,80.000001%);fill-opacity:1;" d="M 48.621094 78.332031 L 48.621094 82.5 L 52.757812 82.5 L 52.757812 78.332031 Z M 46.550781 79.167969 C 44.898438 79.167969 44.898438 81.667969 46.550781 81.667969 C 48.207031 81.667969 48.207031 79.167969 46.550781 79.167969 Z M 50.691406 79.167969 C 52.34375 79.167969 52.34375 81.667969 50.691406 81.667969 C 49.035156 81.667969 49.035156 79.167969 50.691406 79.167969 Z M 50.691406 79.167969 "/>
<path style=" stroke:none;fill-rule:nonzero;fill:rgb(46.666667%,46.666667%,80.000001%);fill-opacity:1;" d="M 54.828125 79.167969 C 53.171875 79.167969 53.171875 81.667969 54.828125 81.667969 C 56.484375 81.667969 56.484375 79.167969 54.828125 79.167969 Z M 54.828125 79.167969 "/>
<path style=" stroke:none;fill-rule:nonzero;fill:rgb(46.666667%,46.666667%,80.000001%);fill-opacity:1;" d="M 11.378906 82.5 L 11.378906 86.667969 L 15.515625 86.667969 L 15.515625 82.5 Z M 9.308594 83.332031 C 7.65625 83.332031 7.65625 85.832031 9.308594 85.832031 C 10.964844 85.832031 10.964844 83.332031 9.308594 83.332031 Z M 13.449219 83.332031 C 15.101562 83.332031 15.101562 85.832031 13.449219 85.832031 C 11.792969 85.832031 11.792969 83.332031 13.449219 83.332031 Z M 13.449219 83.332031 "/>
<path style=" stroke:none;fill-rule:nonzero;fill:rgb(46.666667%,46.666667%,80.000001%);fill-opacity:1;" d="M 3.101562 82.5 L 3.101562 84.707031 C 3.101562 85.875 3.929688 86.667969 5.046875 86.667969 L 7.242188 86.667969 L 7.242188 82.5 Z M 5.171875 83.332031 C 6.828125 83.332031 6.828125 85.832031 5.171875 85.832031 C 3.515625 85.832031 3.515625 83.332031 5.171875 83.332031 Z M 5.171875 83.332031 "/>
<path style=" stroke:none;fill-rule:nonzero;fill:rgb(46.666667%,46.666667%,80.000001%);fill-opacity:1;" d="M 52.757812 86.667969 L 54.953125 86.667969 C 56.109375 86.667969 56.898438 85.832031 56.898438 84.707031 L 56.898438 82.5 L 52.757812 82.5 Z M 53.585938 84.582031 C 53.585938 82.917969 56.070312 82.917969 56.070312 84.582031 C 56.070312 86.25 53.585938 86.25 53.585938 84.582031 Z M 53.585938 84.582031 "/>
<path style=" stroke:none;fill-rule:nonzero;fill:rgb(46.666667%,46.666667%,80.000001%);fill-opacity:1;" d="M 19.65625 82.5 L 19.65625 86.667969 L 23.792969 86.667969 L 23.792969 82.5 Z M 17.585938 83.332031 C 15.929688 83.332031 15.929688 85.832031 17.585938 85.832031 C 19.242188 85.832031 19.242188 83.332031 17.585938 83.332031 Z M 21.722656 83.332031 C 23.378906 83.332031 23.378906 85.832031 21.722656 85.832031 C 20.070312 85.832031 20.070312 83.332031 21.722656 83.332031 Z M 21.722656 83.332031 "/>
<path style=" stroke:none;fill-rule:nonzero;fill:rgb(46.666667%,46.666667%,80.000001%);fill-opacity:1;" d="M 27.929688 82.5 L 27.929688 86.667969 L 32.070312 86.667969 L 32.070312 82.5 Z M 25.863281 83.332031 C 24.207031 83.332031 24.207031 85.832031 25.863281 85.832031 C 27.515625 85.832031 27.515625 83.332031 25.863281 83.332031 Z M 30 83.332031 C 31.65625 83.332031 31.65625 85.832031 30 85.832031 C 28.34375 85.832031 28.34375 83.332031 30 83.332031 Z M 30 83.332031 "/>
<path style=" stroke:none;fill-rule:nonzero;fill:rgb(46.666667%,46.666667%,80.000001%);fill-opacity:1;" d="M 36.207031 82.5 L 36.207031 86.667969 L 40.34375 86.667969 L 40.34375 82.5 Z M 34.136719 83.332031 C 32.484375 83.332031 32.484375 85.832031 34.136719 85.832031 C 35.792969 85.832031 35.792969 83.332031 34.136719 83.332031 Z M 38.277344 83.332031 C 39.929688 83.332031 39.929688 85.832031 38.277344 85.832031 C 36.621094 85.832031 36.621094 83.332031 38.277344 83.332031 Z M 38.277344 83.332031 "/>
<path style=" stroke:none;fill-rule:nonzero;fill:rgb(46.666667%,46.666667%,80.000001%);fill-opacity:1;" d="M 44.484375 82.5 L 44.484375 86.667969 L 48.621094 86.667969 L 48.621094 82.5 Z M 42.414062 83.332031 C 40.757812 83.332031 40.757812 85.832031 42.414062 85.832031 C 44.070312 85.832031 44.070312 83.332031 42.414062 83.332031 Z M 46.550781 83.332031 C 48.207031 83.332031 48.207031 85.832031 46.550781 85.832031 C 44.898438 85.832031 44.898438 83.332031 46.550781 83.332031 Z M 46.550781 83.332031 "/>
<path style=" stroke:none;fill-rule:nonzero;fill:rgb(46.666667%,46.666667%,80.000001%);fill-opacity:1;" d="M 50.691406 83.332031 C 49.035156 83.332031 49.035156 85.832031 50.691406 85.832031 C 52.34375 85.832031 52.34375 83.332031 50.691406 83.332031 Z M 50.691406 83.332031 "/>
<path style=" stroke:none;fill-rule:nonzero;fill:rgb(46.666667%,46.666667%,80.000001%);fill-opacity:1;" d="M 3.101562 74.167969 L 3.101562 78.332031 L 7.242188 78.332031 L 7.242188 74.167969 Z M 5.171875 75 C 6.828125 75 6.828125 77.5 5.171875 77.5 C 3.515625 77.5 3.515625 75 5.171875 75 Z M 5.171875 75 "/>
<path style=" stroke:none;fill-rule:nonzero;fill:rgb(46.666667%,46.666667%,80.000001%);fill-opacity:1;" d="M 19.65625 74.167969 L 19.65625 78.332031 L 23.792969 78.332031 L 23.792969 74.167969 Z M 17.585938 75 C 15.929688 75 15.929688 77.5 17.585938 77.5 C 19.242188 77.5 19.242188 75 17.585938 75 Z M 21.722656 75 C 23.378906 75 23.378906 77.5 21.722656 77.5 C 20.070312 77.5 20.070312 75 21.722656 75 Z M 21.722656 75 "/>
<path style=" stroke:none;fill-rule:nonzero;fill:rgb(46.666667%,46.666667%,80.000001%);fill-opacity:1;" d="M 27.929688 74.167969 L 27.929688 78.332031 L 32.070312 78.332031 L 32.070312 74.167969 Z M 25.863281 75 C 24.207031 75 24.207031 77.5 25.863281 77.5 C 27.515625 77.5 27.515625 75 25.863281 75 Z M 30 75 C 31.65625 75 31.65625 77.5 30 77.5 C 28.34375 77.5 28.34375 75 30 75 Z M 30 75 "/>
<path style=" stroke:none;fill-rule:nonzero;fill:rgb(46.666667%,46.666667%,80.000001%);fill-opacity:1;" d="M 36.207031 74.167969 L 36.207031 78.332031 L 40.34375 78.332031 L 40.34375 74.167969 Z M 34.136719 75 C 32.484375 75 32.484375 77.5 34.136719 77.5 C 35.792969 77.5 35.792969 75 34.136719 75 Z M 38.277344 75 C 39.929688 75 39.929688 77.5 38.277344 77.5 C 36.621094 77.5 36.621094 75 38.277344 75 Z M 38.277344 75 "/>
<path style=" stroke:none;fill-rule:nonzero;fill:rgb(46.666667%,46.666667%,80.000001%);fill-opacity:1;" d="M 44.484375 74.167969 L 44.484375 78.332031 L 48.621094 78.332031 L 48.621094 74.167969 Z M 42.414062 75 C 40.757812 75 40.757812 77.5 42.414062 77.5 C 44.070312 77.5 44.070312 75 42.414062 75 Z M 46.550781 75 C 48.207031 75 48.207031 77.5 46.550781 77.5 C 44.898438 77.5 44.898438 75 46.550781 75 Z M 46.550781 75 "/>
<path style=" stroke:none;fill-rule:nonzero;fill:rgb(46.666667%,46.666667%,80.000001%);fill-opacity:1;" d="M 11.378906 74.167969 L 11.378906 78.332031 L 15.515625 78.332031 L 15.515625 74.167969 Z M 9.308594 75 C 7.65625 75 7.65625 77.5 9.308594 77.5 C 10.964844 77.5 10.964844 75 9.308594 75 Z M 13.449219 75 C 15.101562 75 15.101562 77.5 13.449219 77.5 C 11.792969 77.5 11.792969 75 13.449219 75 Z M 13.449219 75 "/>
<path style=" stroke:none;fill-rule:nonzero;fill:rgb(46.666667%,46.666667%,80.000001%);fill-opacity:1;" d="M 52.757812 74.167969 L 52.757812 78.332031 L 56.898438 78.332031 L 56.898438 74.167969 Z M 50.691406 75 C 49.035156 75 49.035156 77.5 50.691406 77.5 C 52.34375 77.5 52.34375 75 50.691406 75 Z M 54.828125 75 C 56.484375 75 56.484375 77.5 54.828125 77.5 C 53.171875 77.5 53.171875 75 54.828125 75 Z M 54.828125 75 "/>
</g>
</svg>
