<?xml version="1.0" encoding="UTF-8"?>
<svg xmlns="http://www.w3.org/2000/svg" xmlns:xlink="http://www.w3.org/1999/xlink" width="90px" height="130px" viewBox="0 0 90 130" version="1.1">
<g id="surface1">
<path style="fill-rule:nonzero;fill:rgb(100%,100%,100%);fill-opacity:1;stroke-width:3;stroke-linecap:butt;stroke-linejoin:miter;stroke:rgb(21.960784%,25.098041%,27.843139%);stroke-opacity:1;stroke-miterlimit:4;" d="M 9.503046 1.499278 L 135.496979 1.499278 C 139.921242 1.499278 143.502188 5.08197 143.502188 9.501922 L 143.502188 206.498092 C 143.502188 210.918044 139.921242 214.500737 135.496979 214.500737 L 9.503046 214.500737 C 5.078783 214.500737 1.497837 210.918044 1.497837 206.498092 L 1.497837 9.501922 C 1.497837 5.08197 5.078783 1.499278 9.503046 1.499278 Z M 9.503046 1.499278 " transform="matrix(0.62069,0,0,0.601852,-0.0000042984,0.000000826741)"/>
<path style=" stroke:none;fill-rule:nonzero;fill:rgb(21.960784%,25.098041%,27.843139%);fill-opacity:1;" d="M 27 9.328125 C 24.429688 9.328125 22.34375 11.351562 22.34375 13.84375 C 22.359375 15.429688 23.230469 16.890625 24.640625 17.695312 L 24.019531 18.175781 C 22.433594 16.914062 20.175781 16.808594 18.472656 17.921875 C 16.765625 19.03125 16.015625 21.09375 16.621094 23 C 17.226562 24.902344 19.050781 26.195312 21.101562 26.179688 C 23.675781 26.179688 25.757812 24.160156 25.757812 21.667969 L 25.757812 21.367188 C 25.757812 21.367188 26.070312 21.96875 26.070312 23.050781 C 26.070312 26.058594 24.828125 27.984375 23.585938 29.792969 L 30.414062 29.792969 C 29.171875 27.984375 27.929688 26 27.929688 22.992188 C 27.929688 21.96875 28.242188 21.367188 28.242188 21.367188 L 28.242188 21.667969 C 28.253906 23.78125 29.773438 25.601562 31.902344 26.054688 C 34.03125 26.503906 36.195312 25.464844 37.117188 23.550781 C 38.035156 21.632812 37.460938 19.355469 35.734375 18.066406 C 34.007812 16.777344 31.589844 16.824219 29.917969 18.175781 L 29.421875 17.695312 C 30.808594 16.875 31.652344 15.417969 31.65625 13.84375 C 31.65625 11.351562 29.570312 9.328125 27 9.328125 Z M 27 9.328125 "/>
<path style=" stroke:none;fill-rule:nonzero;fill:rgb(21.960784%,25.098041%,27.843139%);fill-opacity:1;" d="M 27 120.671875 C 24.429688 120.671875 22.34375 118.648438 22.34375 116.15625 C 22.359375 114.570312 23.230469 113.109375 24.640625 112.304688 L 24.019531 111.824219 C 22.433594 113.085938 20.175781 113.191406 18.472656 112.078125 C 16.765625 110.96875 16.015625 108.90625 16.621094 107 C 17.226562 105.097656 19.050781 103.804688 21.101562 103.820312 C 23.675781 103.820312 25.757812 105.839844 25.757812 108.332031 L 25.757812 108.632812 C 25.757812 108.632812 26.070312 108.03125 26.070312 106.949219 C 26.070312 103.941406 24.828125 102.015625 23.585938 100.207031 L 30.414062 100.207031 C 29.171875 102.015625 27.929688 104 27.929688 107.007812 C 27.929688 108.03125 28.242188 108.632812 28.242188 108.632812 L 28.242188 108.332031 C 28.253906 106.21875 29.773438 104.398438 31.902344 103.945312 C 34.03125 103.496094 36.195312 104.535156 37.117188 106.449219 C 38.035156 108.367188 37.460938 110.644531 35.734375 111.933594 C 34.007812 113.222656 31.589844 113.175781 29.917969 111.824219 L 29.421875 112.304688 C 30.808594 113.125 31.652344 114.582031 31.65625 116.15625 C 31.65625 118.648438 29.570312 120.671875 27 120.671875 Z M 27 120.671875 "/>
<path style=" stroke:none;fill-rule:nonzero;fill:rgb(21.960784%,25.098041%,27.843139%);fill-opacity:1;" d="M 63 9.328125 C 60.429688 9.328125 58.34375 11.351562 58.34375 13.84375 C 58.359375 15.429688 59.230469 16.890625 60.640625 17.695312 L 60.019531 18.175781 C 58.433594 16.914062 56.175781 16.808594 54.472656 17.921875 C 52.765625 19.03125 52.015625 21.09375 52.621094 23 C 53.226562 24.902344 55.050781 26.195312 57.101562 26.179688 C 59.675781 26.179688 61.757812 24.160156 61.757812 21.667969 L 61.757812 21.367188 C 61.757812 21.367188 62.070312 21.96875 62.070312 23.050781 C 62.070312 26.058594 60.828125 27.984375 59.585938 29.792969 L 66.414062 29.792969 C 65.171875 27.984375 63.929688 26 63.929688 22.992188 C 63.929688 21.96875 64.242188 21.367188 64.242188 21.367188 L 64.242188 21.667969 C 64.253906 23.78125 65.773438 25.601562 67.902344 26.054688 C 70.03125 26.503906 72.195312 25.464844 73.117188 23.550781 C 74.035156 21.632812 73.460938 19.355469 71.734375 18.066406 C 70.007812 16.777344 67.589844 16.824219 65.917969 18.175781 L 65.421875 17.695312 C 66.808594 16.875 67.652344 15.417969 67.65625 13.84375 C 67.65625 11.351562 65.570312 9.328125 63 9.328125 Z M 63 9.328125 "/>
<path style=" stroke:none;fill-rule:nonzero;fill:rgb(21.960784%,25.098041%,27.843139%);fill-opacity:1;" d="M 63 120.671875 C 60.429688 120.671875 58.34375 118.648438 58.34375 116.15625 C 58.359375 114.570312 59.230469 113.109375 60.640625 112.304688 L 60.019531 111.824219 C 58.433594 113.085938 56.175781 113.191406 54.472656 112.078125 C 52.765625 110.96875 52.015625 108.90625 52.621094 107 C 53.226562 105.097656 55.050781 103.804688 57.101562 103.820312 C 59.675781 103.820312 61.757812 105.839844 61.757812 108.332031 L 61.757812 108.632812 C 61.757812 108.632812 62.070312 108.03125 62.070312 106.949219 C 62.070312 103.941406 60.828125 102.015625 59.585938 100.207031 L 66.414062 100.207031 C 65.171875 102.015625 63.929688 104 63.929688 107.007812 C 63.929688 108.03125 64.242188 108.632812 64.242188 108.632812 L 64.242188 108.332031 C 64.253906 106.21875 65.773438 104.398438 67.902344 103.945312 C 70.03125 103.496094 72.195312 104.535156 73.117188 106.449219 C 74.035156 108.367188 73.460938 110.644531 71.734375 111.933594 C 70.007812 113.222656 67.589844 113.175781 65.917969 111.824219 L 65.421875 112.304688 C 66.808594 113.125 67.652344 114.582031 67.65625 116.15625 C 67.65625 118.648438 65.570312 120.671875 63 120.671875 Z M 63 120.671875 "/>
<path style=" stroke:none;fill-rule:nonzero;fill:rgb(21.960784%,25.098041%,27.843139%);fill-opacity:1;" d="M 45 54.769531 C 42.429688 54.769531 40.34375 56.789062 40.34375 59.28125 C 40.359375 60.867188 41.230469 62.332031 42.640625 63.132812 L 42.019531 63.617188 C 40.433594 62.351562 38.175781 62.25 36.472656 63.359375 C 34.765625 64.472656 34.015625 66.535156 34.621094 68.4375 C 35.226562 70.34375 37.050781 71.636719 39.101562 71.621094 C 41.675781 71.621094 43.757812 69.597656 43.757812 67.105469 L 43.757812 66.804688 C 43.757812 66.804688 44.070312 67.40625 44.070312 68.492188 C 44.070312 71.5 42.828125 73.425781 41.585938 75.230469 L 48.414062 75.230469 C 47.171875 73.425781 45.929688 71.441406 45.929688 68.429688 C 45.929688 67.40625 46.242188 66.804688 46.242188 66.804688 L 46.242188 67.105469 C 46.253906 69.21875 47.773438 71.042969 49.902344 71.492188 C 52.03125 71.945312 54.195312 70.90625 55.117188 68.988281 C 56.035156 67.074219 55.460938 64.796875 53.734375 63.507812 C 52.007812 62.21875 49.589844 62.261719 47.917969 63.617188 L 47.421875 63.132812 C 48.808594 62.316406 49.652344 60.855469 49.65625 59.28125 C 49.65625 56.789062 47.570312 54.769531 45 54.769531 Z M 45 54.769531 "/>
<path style=" stroke:none;fill-rule:nonzero;fill:rgb(21.960784%,25.098041%,27.843139%);fill-opacity:1;" d="M 7.894531 21.671875 C 6.820312 21.671875 5.953125 22.519531 5.953125 23.570312 C 5.957031 24.238281 6.320312 24.855469 6.910156 25.191406 L 6.652344 25.394531 C 5.988281 24.863281 5.046875 24.820312 4.335938 25.289062 C 3.625 25.753906 3.3125 26.625 3.566406 27.425781 C 3.820312 28.226562 4.578125 28.769531 5.433594 28.765625 C 6.507812 28.765625 7.375 27.914062 7.375 26.863281 L 7.375 26.738281 C 7.375 26.738281 7.503906 26.992188 7.503906 27.445312 C 7.503906 28.714844 6.988281 29.523438 6.46875 30.285156 L 9.316406 30.285156 C 8.800781 29.523438 8.28125 28.6875 8.28125 27.421875 C 8.28125 26.992188 8.410156 26.738281 8.410156 26.738281 L 8.410156 26.863281 C 8.414062 27.753906 9.050781 28.519531 9.9375 28.710938 C 10.824219 28.902344 11.730469 28.464844 12.113281 27.65625 C 12.496094 26.851562 12.257812 25.890625 11.535156 25.347656 C 10.816406 24.804688 9.808594 24.824219 9.109375 25.394531 L 8.902344 25.191406 C 9.480469 24.847656 9.835938 24.234375 9.835938 23.570312 C 9.835938 22.519531 8.964844 21.671875 7.894531 21.671875 Z M 7.894531 21.671875 "/>
<path style=" stroke:none;fill-rule:nonzero;fill:rgb(21.960784%,25.098041%,27.843139%);fill-opacity:1;" d="M 82.105469 108.328125 C 83.179688 108.328125 84.046875 107.480469 84.046875 106.429688 C 84.042969 105.761719 83.679688 105.144531 83.089844 104.808594 L 83.347656 104.605469 C 84.011719 105.136719 84.953125 105.179688 85.664062 104.710938 C 86.375 104.246094 86.6875 103.375 86.433594 102.574219 C 86.179688 101.773438 85.421875 101.230469 84.566406 101.234375 C 83.492188 101.234375 82.625 102.085938 82.625 103.136719 L 82.625 103.261719 C 82.625 103.261719 82.496094 103.007812 82.496094 102.554688 C 82.496094 101.285156 83.011719 100.476562 83.53125 99.714844 L 80.683594 99.714844 C 81.199219 100.476562 81.71875 101.3125 81.71875 102.578125 C 81.71875 103.007812 81.589844 103.261719 81.589844 103.261719 L 81.589844 103.136719 C 81.585938 102.246094 80.949219 101.480469 80.0625 101.289062 C 79.175781 101.097656 78.269531 101.535156 77.886719 102.34375 C 77.503906 103.148438 77.742188 104.109375 78.464844 104.652344 C 79.183594 105.195312 80.191406 105.175781 80.890625 104.605469 L 81.097656 104.808594 C 80.519531 105.152344 80.164062 105.765625 80.164062 106.429688 C 80.164062 107.480469 81.035156 108.328125 82.105469 108.328125 Z M 82.105469 108.328125 "/>
<path style="fill-rule:nonzero;fill:rgb(21.960784%,25.098041%,27.843139%);fill-opacity:1;stroke-width:0.5;stroke-linecap:butt;stroke-linejoin:round;stroke:rgb(21.960784%,25.098041%,27.843139%);stroke-opacity:1;stroke-miterlimit:4;" d="M 588.999574 -79.698077 L 587.998922 -80.898798 L 588.999574 -91.400241 L 595.29927 -91.400241 L 595.601354 -91.997357 L 596.602005 -91.997357 L 597.602656 -85.299279 L 596.702699 -85.000721 C 596.287335 -86.402645 595.551006 -88.752164 592.398011 -88.700241 L 590.302308 -88.700241 L 589.698141 -82.196875 C 591.699444 -83.001683 593.700746 -82.897837 595.399965 -81.898317 C 601.259123 -77.73149 598.452265 -68.391826 591.800138 -68.80072 C 589.018454 -68.781249 586.450745 -70.611538 586.501093 -73.402403 C 586.501093 -75.232692 587.829001 -76.056971 588.69749 -76.102403 C 589.84289 -76.141346 590.698792 -75.291105 590.698792 -73.999519 C 590.698792 -72.999999 590.201614 -72.299038 589.100268 -71.799278 C 589.798836 -70.799759 590.598098 -70.202643 591.598749 -70.202643 C 597.281692 -70.338941 596.318802 -82.508413 591.000876 -81.002644 C 590.107213 -80.749519 589.597447 -80.301683 588.999574 -79.698077 Z M 588.999574 -79.698077 " transform="matrix(0.62069,0,0,0.601852,-359.999976,60.185181)"/>
<path style="fill-rule:nonzero;fill:rgb(21.960784%,25.098041%,27.843139%);fill-opacity:1;stroke-width:0.5;stroke-linecap:butt;stroke-linejoin:round;stroke:rgb(21.960784%,25.098041%,27.843139%);stroke-opacity:1;stroke-miterlimit:4;" d="M 588.999548 -79.698091 L 587.998897 -80.898812 L 588.999548 -91.400255 L 595.299245 -91.400255 L 595.601328 -91.997371 L 596.601979 -91.997371 L 597.602631 -85.299293 L 596.702674 -85.000736 C 596.287309 -86.402659 595.550981 -88.752178 592.397986 -88.700255 L 590.302283 -88.700255 L 589.698116 -82.196889 C 591.699418 -83.001697 593.700721 -82.897851 595.399939 -81.898332 C 601.259098 -77.731504 598.45224 -68.39184 591.800113 -68.800734 C 589.018428 -68.781263 586.45072 -70.611552 586.501067 -73.402417 C 586.501067 -75.232706 587.828975 -76.056985 588.697465 -76.102418 C 589.842864 -76.14136 590.698767 -75.29112 590.698767 -73.999533 C 590.698767 -73.000014 590.201588 -72.299052 589.100243 -71.799292 C 589.79881 -70.799773 590.598073 -70.202658 591.598724 -70.202658 C 597.281667 -70.338956 596.318776 -82.508428 591.000851 -81.002658 C 590.107187 -80.749533 589.597422 -80.301697 588.999548 -79.698091 Z M 588.999548 -79.698091 " transform="matrix(-0.62069,0.000000000000000074,-0.000000000000000076,-0.601852,449.99996,69.81481)"/>
</g>
</svg>
