<?xml version="1.0" encoding="UTF-8"?>
<svg xmlns="http://www.w3.org/2000/svg" xmlns:xlink="http://www.w3.org/1999/xlink" width="90px" height="130px" viewBox="0 0 90 130" version="1.1">
<g id="surface1">
<path style="fill-rule:nonzero;fill:rgb(100%,100%,100%);fill-opacity:1;stroke-width:3;stroke-linecap:butt;stroke-linejoin:miter;stroke:rgb(21.960784%,25.098041%,27.843139%);stroke-opacity:1;stroke-miterlimit:4;" d="M 9.503037 1.499278 L 135.496971 1.499278 C 139.921234 1.499278 143.50218 5.08197 143.50218 9.501922 L 143.50218 206.498092 C 143.50218 210.918044 139.921234 214.500737 135.496971 214.500737 L 9.503037 214.500737 C 5.078775 214.500737 1.497828 210.918044 1.497828 206.498092 L 1.497828 9.501922 C 1.497828 5.08197 5.078775 1.499278 9.503037 1.499278 Z M 9.503037 1.499278 " transform="matrix(0.62069,0,0,0.601852,0.000000945129,0.000000826741)"/>
<path style=" stroke:none;fill-rule:nonzero;fill:rgb(21.960784%,25.098041%,27.843139%);fill-opacity:1;" d="M 45 9.328125 C 42.429688 9.328125 40.34375 11.351562 40.34375 13.84375 C 40.359375 15.429688 41.230469 16.890625 42.640625 17.695312 L 42.019531 18.175781 C 40.433594 16.914062 38.175781 16.808594 36.472656 17.921875 C 34.765625 19.03125 34.015625 21.09375 34.621094 23 C 35.226562 24.902344 37.050781 26.195312 39.101562 26.179688 C 41.675781 26.179688 43.757812 24.160156 43.757812 21.667969 L 43.757812 21.367188 C 43.757812 21.367188 44.070312 21.96875 44.070312 23.050781 C 44.070312 26.058594 42.828125 27.984375 41.585938 29.792969 L 48.414062 29.792969 C 47.171875 27.984375 45.929688 26 45.929688 22.992188 C 45.929688 21.96875 46.242188 21.367188 46.242188 21.367188 L 46.242188 21.667969 C 46.253906 23.78125 47.773438 25.601562 49.902344 26.054688 C 52.03125 26.503906 54.195312 25.464844 55.117188 23.550781 C 56.035156 21.632812 55.460938 19.355469 53.734375 18.066406 C 52.007812 16.777344 49.589844 16.824219 47.917969 18.175781 L 47.421875 17.695312 C 48.808594 16.875 49.652344 15.417969 49.65625 13.84375 C 49.65625 11.351562 47.570312 9.328125 45 9.328125 Z M 45 9.328125 "/>
<path style=" stroke:none;fill-rule:nonzero;fill:rgb(21.960784%,25.098041%,27.843139%);fill-opacity:1;" d="M 45 120.671875 C 42.429688 120.671875 40.34375 118.648438 40.34375 116.15625 C 40.359375 114.570312 41.230469 113.109375 42.640625 112.304688 L 42.019531 111.824219 C 40.433594 113.085938 38.175781 113.191406 36.472656 112.078125 C 34.765625 110.96875 34.015625 108.90625 34.621094 107 C 35.226562 105.097656 37.050781 103.804688 39.101562 103.820312 C 41.675781 103.820312 43.757812 105.839844 43.757812 108.332031 L 43.757812 108.632812 C 43.757812 108.632812 44.070312 108.03125 44.070312 106.949219 C 44.070312 103.941406 42.828125 102.015625 41.585938 100.207031 L 48.414062 100.207031 C 47.171875 102.015625 45.929688 104 45.929688 107.007812 C 45.929688 108.03125 46.242188 108.632812 46.242188 108.632812 L 46.242188 108.332031 C 46.253906 106.21875 47.773438 104.398438 49.902344 103.945312 C 52.03125 103.496094 54.195312 104.535156 55.117188 106.449219 C 56.035156 108.367188 55.460938 110.644531 53.734375 111.933594 C 52.007812 113.222656 49.589844 113.175781 47.917969 111.824219 L 47.421875 112.304688 C 48.808594 113.125 49.652344 114.582031 49.65625 116.15625 C 49.65625 118.648438 47.570312 120.671875 45 120.671875 Z M 45 120.671875 "/>
<path style=" stroke:none;fill-rule:nonzero;fill:rgb(21.960784%,25.098041%,27.843139%);fill-opacity:1;" d="M 7.894531 21.671875 C 6.820312 21.671875 5.953125 22.519531 5.953125 23.570312 C 5.957031 24.238281 6.320312 24.855469 6.910156 25.191406 L 6.652344 25.394531 C 5.988281 24.863281 5.046875 24.820312 4.335938 25.289062 C 3.625 25.753906 3.3125 26.625 3.566406 27.425781 C 3.820312 28.226562 4.578125 28.769531 5.433594 28.765625 C 6.507812 28.765625 7.375 27.914062 7.375 26.863281 L 7.375 26.738281 C 7.375 26.738281 7.503906 26.992188 7.503906 27.445312 C 7.503906 28.714844 6.988281 29.523438 6.46875 30.285156 L 9.316406 30.285156 C 8.800781 29.523438 8.28125 28.6875 8.28125 27.421875 C 8.28125 26.992188 8.410156 26.738281 8.410156 26.738281 L 8.410156 26.863281 C 8.414062 27.753906 9.050781 28.519531 9.9375 28.710938 C 10.824219 28.902344 11.730469 28.464844 12.113281 27.65625 C 12.496094 26.851562 12.257812 25.890625 11.535156 25.347656 C 10.816406 24.804688 9.808594 24.824219 9.109375 25.394531 L 8.902344 25.191406 C 9.480469 24.847656 9.835938 24.234375 9.835938 23.570312 C 9.835938 22.519531 8.964844 21.671875 7.894531 21.671875 Z M 7.894531 21.671875 "/>
<path style=" stroke:none;fill-rule:nonzero;fill:rgb(21.960784%,25.098041%,27.843139%);fill-opacity:1;" d="M 82.105469 108.328125 C 83.179688 108.328125 84.046875 107.480469 84.046875 106.429688 C 84.042969 105.761719 83.679688 105.144531 83.089844 104.808594 L 83.347656 104.605469 C 84.011719 105.136719 84.953125 105.179688 85.664062 104.710938 C 86.375 104.246094 86.6875 103.375 86.433594 102.574219 C 86.179688 101.773438 85.421875 101.230469 84.566406 101.234375 C 83.492188 101.234375 82.625 102.085938 82.625 103.136719 L 82.625 103.261719 C 82.625 103.261719 82.496094 103.007812 82.496094 102.554688 C 82.496094 101.285156 83.011719 100.476562 83.53125 99.714844 L 80.683594 99.714844 C 81.199219 100.476562 81.71875 101.3125 81.71875 102.578125 C 81.71875 103.007812 81.589844 103.261719 81.589844 103.261719 L 81.589844 103.136719 C 81.585938 102.246094 80.949219 101.480469 80.0625 101.289062 C 79.175781 101.097656 78.269531 101.535156 77.886719 102.34375 C 77.503906 103.148438 77.742188 104.109375 78.464844 104.652344 C 79.183594 105.195312 80.191406 105.175781 80.890625 104.605469 L 81.097656 104.808594 C 80.519531 105.152344 80.164062 105.765625 80.164062 106.429688 C 80.164062 107.480469 81.035156 108.328125 82.105469 108.328125 Z M 82.105469 108.328125 "/>
<path style="fill-rule:nonzero;fill:rgb(21.960784%,25.098041%,27.843139%);fill-opacity:1;stroke-width:0.5;stroke-linecap:butt;stroke-linejoin:round;stroke:rgb(21.960784%,25.098041%,27.843139%);stroke-opacity:1;stroke-miterlimit:4;" d="M 159.802083 -86.000241 C 159.802083 -88.1875 158.65039 -90.400722 156.699435 -90.400722 C 155.572916 -90.400722 154.7296 -89.926924 154.200954 -88.998799 C 155.327473 -88.719712 156.000867 -87.778606 156.000867 -86.902404 C 156.000867 -85.792548 155.239366 -84.799519 153.798176 -84.799519 C 152.457681 -84.799519 151.601779 -86.097596 151.601779 -87.402164 C 151.601779 -89.920433 153.867404 -91.900001 157.001519 -91.900001 C 159.751736 -91.900001 162.898437 -90.017789 162.898437 -86.000241 C 162.898437 -80.119952 156.422525 -78.698557 153.697482 -72.701442 L 158.499349 -72.701442 C 160.909722 -72.701442 161.778212 -73.86322 162.602647 -75.901201 L 163.597005 -75.699999 L 162.401259 -69.203124 L 161.400607 -69.203124 C 161.400607 -69.527643 161.249566 -69.800239 160.097873 -69.800239 L 151.601779 -69.800239 L 151.601779 -71.50072 C 151.708766 -77.491346 159.802083 -79.730529 159.802083 -86.000241 Z M 159.802083 -86.000241 " transform="matrix(0.62069,0,0,0.601852,-89.999992,60.185181)"/>
<path style="fill-rule:nonzero;fill:rgb(21.960784%,25.098041%,27.843139%);fill-opacity:1;stroke-width:0.5;stroke-linecap:butt;stroke-linejoin:round;stroke:rgb(21.960784%,25.098041%,27.843139%);stroke-opacity:1;stroke-miterlimit:4;" d="M 159.802075 -86.000255 C 159.802075 -88.187515 158.650382 -90.400736 156.699427 -90.400736 C 155.572908 -90.400736 154.729591 -89.926938 154.200946 -88.998813 C 155.327465 -88.719726 156.000859 -87.778621 156.000859 -86.902419 C 156.000859 -85.792563 155.239357 -84.799534 153.798168 -84.799534 C 152.457673 -84.799534 151.60177 -86.097611 151.60177 -87.402178 C 151.60177 -89.920448 153.867395 -91.900015 157.00151 -91.900015 C 159.751727 -91.900015 162.898429 -90.017803 162.898429 -86.000255 C 162.898429 -80.119966 156.422517 -78.698572 153.697473 -72.701456 L 158.49934 -72.701456 C 160.909714 -72.701456 161.778203 -73.863235 162.602639 -75.901216 L 163.596997 -75.700014 L 162.40125 -69.203138 L 161.400599 -69.203138 C 161.400599 -69.527658 161.249557 -69.800254 160.097864 -69.800254 L 151.60177 -69.800254 L 151.60177 -71.500735 C 151.708758 -77.49136 159.802075 -79.730543 159.802075 -86.000255 Z M 159.802075 -86.000255 " transform="matrix(-0.62069,0.000000000000000074,-0.000000000000000076,-0.601852,179.999987,69.81481)"/>
</g>
</svg>
