<?xml version="1.0" encoding="UTF-8"?>
<svg xmlns="http://www.w3.org/2000/svg" xmlns:xlink="http://www.w3.org/1999/xlink" width="90px" height="130px" viewBox="0 0 90 130" version="1.1">
<g id="surface1">
<path style="fill-rule:nonzero;fill:rgb(100%,100%,100%);fill-opacity:1;stroke-width:3;stroke-linecap:butt;stroke-linejoin:miter;stroke:rgb(21.960784%,25.098041%,27.843139%);stroke-opacity:1;stroke-miterlimit:4;" d="M 9.503057 1.499278 L 135.496991 1.499278 C 139.921253 1.499278 143.5022 5.08197 143.5022 9.501922 L 143.5022 206.498092 C 143.5022 210.918044 139.921253 214.500737 135.496991 214.500737 L 9.503057 214.500737 C 5.078795 214.500737 1.497848 210.918044 1.497848 206.498092 L 1.497848 9.501922 C 1.497848 5.08197 5.078795 1.499278 9.503057 1.499278 Z M 9.503057 1.499278 " transform="matrix(0.62069,0,0,0.601852,-0.0000112898,0.000000826741)"/>
<path style=" stroke:none;fill-rule:nonzero;fill:rgb(21.960784%,25.098041%,27.843139%);fill-opacity:1;" d="M 27 9.328125 C 24.429688 9.328125 22.34375 11.351562 22.34375 13.84375 C 22.359375 15.429688 23.230469 16.890625 24.640625 17.695312 L 24.019531 18.175781 C 22.433594 16.914062 20.175781 16.808594 18.472656 17.921875 C 16.765625 19.03125 16.015625 21.09375 16.621094 23 C 17.226562 24.902344 19.050781 26.195312 21.101562 26.179688 C 23.675781 26.179688 25.757812 24.160156 25.757812 21.667969 L 25.757812 21.367188 C 25.757812 21.367188 26.070312 21.96875 26.070312 23.050781 C 26.070312 26.058594 24.828125 27.984375 23.585938 29.792969 L 30.414062 29.792969 C 29.171875 27.984375 27.929688 26 27.929688 22.992188 C 27.929688 21.96875 28.242188 21.367188 28.242188 21.367188 L 28.242188 21.667969 C 28.253906 23.78125 29.773438 25.601562 31.902344 26.054688 C 34.03125 26.503906 36.195312 25.464844 37.117188 23.550781 C 38.035156 21.632812 37.460938 19.355469 35.734375 18.066406 C 34.007812 16.777344 31.589844 16.824219 29.917969 18.175781 L 29.421875 17.695312 C 30.808594 16.875 31.652344 15.417969 31.65625 13.84375 C 31.65625 11.351562 29.570312 9.328125 27 9.328125 Z M 27 9.328125 "/>
<path style=" stroke:none;fill-rule:nonzero;fill:rgb(21.960784%,25.098041%,27.843139%);fill-opacity:1;" d="M 27 120.671875 C 24.429688 120.671875 22.34375 118.648438 22.34375 116.15625 C 22.359375 114.570312 23.230469 113.109375 24.640625 112.304688 L 24.019531 111.824219 C 22.433594 113.085938 20.175781 113.191406 18.472656 112.078125 C 16.765625 110.96875 16.015625 108.90625 16.621094 107 C 17.226562 105.097656 19.050781 103.804688 21.101562 103.820312 C 23.675781 103.820312 25.757812 105.839844 25.757812 108.332031 L 25.757812 108.632812 C 25.757812 108.632812 26.070312 108.03125 26.070312 106.949219 C 26.070312 103.941406 24.828125 102.015625 23.585938 100.207031 L 30.414062 100.207031 C 29.171875 102.015625 27.929688 104 27.929688 107.007812 C 27.929688 108.03125 28.242188 108.632812 28.242188 108.632812 L 28.242188 108.332031 C 28.253906 106.21875 29.773438 104.398438 31.902344 103.945312 C 34.03125 103.496094 36.195312 104.535156 37.117188 106.449219 C 38.035156 108.367188 37.460938 110.644531 35.734375 111.933594 C 34.007812 113.222656 31.589844 113.175781 29.917969 111.824219 L 29.421875 112.304688 C 30.808594 113.125 31.652344 114.582031 31.65625 116.15625 C 31.65625 118.648438 29.570312 120.671875 27 120.671875 Z M 27 120.671875 "/>
<path style=" stroke:none;fill-rule:nonzero;fill:rgb(21.960784%,25.098041%,27.843139%);fill-opacity:1;" d="M 27 39.601562 C 24.429688 39.601562 22.34375 41.621094 22.34375 44.117188 C 22.359375 45.703125 23.230469 47.164062 24.640625 47.96875 L 24.019531 48.449219 C 22.433594 47.1875 20.175781 47.082031 18.472656 48.195312 C 16.765625 49.304688 16.015625 51.367188 16.621094 53.273438 C 17.226562 55.175781 19.050781 56.46875 21.101562 56.453125 C 23.675781 56.453125 25.757812 54.433594 25.757812 51.941406 L 25.757812 51.640625 C 25.757812 51.640625 26.070312 52.242188 26.070312 53.324219 C 26.070312 56.332031 24.828125 58.257812 23.585938 60.066406 L 30.414062 60.066406 C 29.171875 58.257812 27.929688 56.273438 27.929688 53.265625 C 27.929688 52.242188 28.242188 51.640625 28.242188 51.640625 L 28.242188 51.941406 C 28.253906 54.050781 29.773438 55.875 31.902344 56.328125 C 34.03125 56.777344 36.195312 55.738281 37.117188 53.824219 C 38.035156 51.90625 37.460938 49.628906 35.734375 48.339844 C 34.007812 47.050781 31.589844 47.097656 29.917969 48.449219 L 29.421875 47.96875 C 30.808594 47.148438 31.652344 45.691406 31.65625 44.117188 C 31.65625 41.621094 29.570312 39.601562 27 39.601562 Z M 27 39.601562 "/>
<path style=" stroke:none;fill-rule:nonzero;fill:rgb(21.960784%,25.098041%,27.843139%);fill-opacity:1;" d="M 27 90.398438 C 24.429688 90.398438 22.34375 88.378906 22.34375 85.882812 C 22.359375 84.296875 23.230469 82.835938 24.640625 82.03125 L 24.019531 81.550781 C 22.433594 82.8125 20.175781 82.917969 18.472656 81.804688 C 16.765625 80.695312 16.015625 78.632812 16.621094 76.726562 C 17.226562 74.824219 19.050781 73.53125 21.101562 73.546875 C 23.675781 73.546875 25.757812 75.566406 25.757812 78.058594 L 25.757812 78.359375 C 25.757812 78.359375 26.070312 77.757812 26.070312 76.675781 C 26.070312 73.667969 24.828125 71.742188 23.585938 69.933594 L 30.414062 69.933594 C 29.171875 71.742188 27.929688 73.726562 27.929688 76.734375 C 27.929688 77.757812 28.242188 78.359375 28.242188 78.359375 L 28.242188 78.058594 C 28.253906 75.949219 29.773438 74.125 31.902344 73.671875 C 34.03125 73.222656 36.195312 74.261719 37.117188 76.175781 C 38.035156 78.09375 37.460938 80.371094 35.734375 81.660156 C 34.007812 82.949219 31.589844 82.902344 29.917969 81.550781 L 29.421875 82.03125 C 30.808594 82.851562 31.652344 84.308594 31.65625 85.882812 C 31.65625 88.378906 29.570312 90.398438 27 90.398438 Z M 27 90.398438 "/>
<path style=" stroke:none;fill-rule:nonzero;fill:rgb(21.960784%,25.098041%,27.843139%);fill-opacity:1;" d="M 63 9.328125 C 60.429688 9.328125 58.34375 11.351562 58.34375 13.84375 C 58.359375 15.429688 59.230469 16.890625 60.640625 17.695312 L 60.019531 18.175781 C 58.433594 16.914062 56.175781 16.808594 54.472656 17.921875 C 52.765625 19.03125 52.015625 21.09375 52.621094 23 C 53.226562 24.902344 55.050781 26.195312 57.101562 26.179688 C 59.675781 26.179688 61.757812 24.160156 61.757812 21.667969 L 61.757812 21.367188 C 61.757812 21.367188 62.070312 21.96875 62.070312 23.050781 C 62.070312 26.058594 60.828125 27.984375 59.585938 29.792969 L 66.414062 29.792969 C 65.171875 27.984375 63.929688 26 63.929688 22.992188 C 63.929688 21.96875 64.242188 21.367188 64.242188 21.367188 L 64.242188 21.667969 C 64.253906 23.78125 65.773438 25.601562 67.902344 26.054688 C 70.03125 26.503906 72.195312 25.464844 73.117188 23.550781 C 74.035156 21.632812 73.460938 19.355469 71.734375 18.066406 C 70.007812 16.777344 67.589844 16.824219 65.917969 18.175781 L 65.421875 17.695312 C 66.808594 16.875 67.652344 15.417969 67.65625 13.84375 C 67.65625 11.351562 65.570312 9.328125 63 9.328125 Z M 63 9.328125 "/>
<path style=" stroke:none;fill-rule:nonzero;fill:rgb(21.960784%,25.098041%,27.843139%);fill-opacity:1;" d="M 63 120.671875 C 60.429688 120.671875 58.34375 118.648438 58.34375 116.15625 C 58.359375 114.570312 59.230469 113.109375 60.640625 112.304688 L 60.019531 111.824219 C 58.433594 113.085938 56.175781 113.191406 54.472656 112.078125 C 52.765625 110.96875 52.015625 108.90625 52.621094 107 C 53.226562 105.097656 55.050781 103.804688 57.101562 103.820312 C 59.675781 103.820312 61.757812 105.839844 61.757812 108.332031 L 61.757812 108.632812 C 61.757812 108.632812 62.070312 108.03125 62.070312 106.949219 C 62.070312 103.941406 60.828125 102.015625 59.585938 100.207031 L 66.414062 100.207031 C 65.171875 102.015625 63.929688 104 63.929688 107.007812 C 63.929688 108.03125 64.242188 108.632812 64.242188 108.632812 L 64.242188 108.332031 C 64.253906 106.21875 65.773438 104.398438 67.902344 103.945312 C 70.03125 103.496094 72.195312 104.535156 73.117188 106.449219 C 74.035156 108.367188 73.460938 110.644531 71.734375 111.933594 C 70.007812 113.222656 67.589844 113.175781 65.917969 111.824219 L 65.421875 112.304688 C 66.808594 113.125 67.652344 114.582031 67.65625 116.15625 C 67.65625 118.648438 65.570312 120.671875 63 120.671875 Z M 63 120.671875 "/>
<path style=" stroke:none;fill-rule:nonzero;fill:rgb(21.960784%,25.098041%,27.843139%);fill-opacity:1;" d="M 63 39.601562 C 60.429688 39.601562 58.34375 41.621094 58.34375 44.117188 C 58.359375 45.703125 59.230469 47.164062 60.640625 47.96875 L 60.019531 48.449219 C 58.433594 47.1875 56.175781 47.082031 54.472656 48.195312 C 52.765625 49.304688 52.015625 51.367188 52.621094 53.273438 C 53.226562 55.175781 55.050781 56.46875 57.101562 56.453125 C 59.675781 56.453125 61.757812 54.433594 61.757812 51.941406 L 61.757812 51.640625 C 61.757812 51.640625 62.070312 52.242188 62.070312 53.324219 C 62.070312 56.332031 60.828125 58.257812 59.585938 60.066406 L 66.414062 60.066406 C 65.171875 58.257812 63.929688 56.273438 63.929688 53.265625 C 63.929688 52.242188 64.242188 51.640625 64.242188 51.640625 L 64.242188 51.941406 C 64.253906 54.050781 65.773438 55.875 67.902344 56.328125 C 70.03125 56.777344 72.195312 55.738281 73.117188 53.824219 C 74.035156 51.90625 73.460938 49.628906 71.734375 48.339844 C 70.007812 47.050781 67.589844 47.097656 65.917969 48.449219 L 65.421875 47.96875 C 66.808594 47.148438 67.652344 45.691406 67.65625 44.117188 C 67.65625 41.621094 65.570312 39.601562 63 39.601562 Z M 63 39.601562 "/>
<path style=" stroke:none;fill-rule:nonzero;fill:rgb(21.960784%,25.098041%,27.843139%);fill-opacity:1;" d="M 63 90.398438 C 60.429688 90.398438 58.34375 88.378906 58.34375 85.882812 C 58.359375 84.296875 59.230469 82.835938 60.640625 82.03125 L 60.019531 81.550781 C 58.433594 82.8125 56.175781 82.917969 54.472656 81.804688 C 52.765625 80.695312 52.015625 78.632812 52.621094 76.726562 C 53.226562 74.824219 55.050781 73.53125 57.101562 73.546875 C 59.675781 73.546875 61.757812 75.566406 61.757812 78.058594 L 61.757812 78.359375 C 61.757812 78.359375 62.070312 77.757812 62.070312 76.675781 C 62.070312 73.667969 60.828125 71.742188 59.585938 69.933594 L 66.414062 69.933594 C 65.171875 71.742188 63.929688 73.726562 63.929688 76.734375 C 63.929688 77.757812 64.242188 78.359375 64.242188 78.359375 L 64.242188 78.058594 C 64.253906 75.949219 65.773438 74.125 67.902344 73.671875 C 70.03125 73.222656 72.195312 74.261719 73.117188 76.175781 C 74.035156 78.09375 73.460938 80.371094 71.734375 81.660156 C 70.007812 82.949219 67.589844 82.902344 65.917969 81.550781 L 65.421875 82.03125 C 66.808594 82.851562 67.652344 84.308594 67.65625 85.882812 C 67.65625 88.378906 65.570312 90.398438 63 90.398438 Z M 63 90.398438 "/>
<path style=" stroke:none;fill-rule:nonzero;fill:rgb(21.960784%,25.098041%,27.843139%);fill-opacity:1;" d="M 45 52.964844 C 42.429688 52.964844 40.34375 54.984375 40.34375 57.476562 C 40.359375 59.0625 41.230469 60.523438 42.640625 61.328125 L 42.019531 61.808594 C 40.433594 60.546875 38.175781 60.445312 36.472656 61.554688 C 34.765625 62.667969 34.015625 64.730469 34.621094 66.632812 C 35.226562 68.535156 37.050781 69.828125 39.101562 69.816406 C 41.675781 69.816406 43.757812 67.792969 43.757812 65.300781 L 43.757812 65 C 43.757812 65 44.070312 65.601562 44.070312 66.683594 C 44.070312 69.695312 42.828125 71.621094 41.585938 73.425781 L 48.414062 73.425781 C 47.171875 71.621094 45.929688 69.632812 45.929688 66.625 C 45.929688 65.601562 46.242188 65 46.242188 65 L 46.242188 65.300781 C 46.253906 67.414062 47.773438 69.238281 49.902344 69.6875 C 52.03125 70.140625 54.195312 69.097656 55.117188 67.183594 C 56.035156 65.269531 55.460938 62.992188 53.734375 61.703125 C 52.007812 60.414062 49.589844 60.457031 47.917969 61.808594 L 47.421875 61.328125 C 48.808594 60.511719 49.652344 59.050781 49.65625 57.476562 C 49.65625 54.984375 47.570312 52.964844 45 52.964844 Z M 45 52.964844 "/>
<path style=" stroke:none;fill-rule:nonzero;fill:rgb(21.960784%,25.098041%,27.843139%);fill-opacity:1;" d="M 7.894531 21.671875 C 6.820312 21.671875 5.953125 22.519531 5.953125 23.570312 C 5.957031 24.238281 6.320312 24.855469 6.910156 25.191406 L 6.652344 25.394531 C 5.988281 24.863281 5.046875 24.820312 4.335938 25.289062 C 3.625 25.753906 3.3125 26.625 3.566406 27.425781 C 3.820312 28.226562 4.578125 28.769531 5.433594 28.765625 C 6.507812 28.765625 7.375 27.914062 7.375 26.863281 L 7.375 26.738281 C 7.375 26.738281 7.503906 26.992188 7.503906 27.445312 C 7.503906 28.714844 6.988281 29.523438 6.46875 30.285156 L 9.316406 30.285156 C 8.800781 29.523438 8.28125 28.6875 8.28125 27.421875 C 8.28125 26.992188 8.410156 26.738281 8.410156 26.738281 L 8.410156 26.863281 C 8.414062 27.753906 9.050781 28.519531 9.9375 28.710938 C 10.824219 28.902344 11.730469 28.464844 12.113281 27.65625 C 12.496094 26.851562 12.257812 25.890625 11.535156 25.347656 C 10.816406 24.804688 9.808594 24.824219 9.109375 25.394531 L 8.902344 25.191406 C 9.480469 24.847656 9.835938 24.234375 9.835938 23.570312 C 9.835938 22.519531 8.964844 21.671875 7.894531 21.671875 Z M 7.894531 21.671875 "/>
<path style=" stroke:none;fill-rule:nonzero;fill:rgb(21.960784%,25.098041%,27.843139%);fill-opacity:1;" d="M 82.105469 108.328125 C 83.179688 108.328125 84.046875 107.480469 84.046875 106.429688 C 84.042969 105.761719 83.679688 105.144531 83.089844 104.808594 L 83.347656 104.605469 C 84.011719 105.136719 84.953125 105.179688 85.664062 104.710938 C 86.375 104.246094 86.6875 103.375 86.433594 102.574219 C 86.179688 101.773438 85.421875 101.230469 84.566406 101.234375 C 83.492188 101.234375 82.625 102.085938 82.625 103.136719 L 82.625 103.261719 C 82.625 103.261719 82.496094 103.007812 82.496094 102.554688 C 82.496094 101.285156 83.011719 100.476562 83.53125 99.714844 L 80.683594 99.714844 C 81.199219 100.476562 81.71875 101.3125 81.71875 102.578125 C 81.71875 103.007812 81.589844 103.261719 81.589844 103.261719 L 81.589844 103.136719 C 81.585938 102.246094 80.949219 101.480469 80.0625 101.289062 C 79.175781 101.097656 78.269531 101.535156 77.886719 102.34375 C 77.503906 103.148438 77.742188 104.109375 78.464844 104.652344 C 79.183594 105.195312 80.191406 105.175781 80.890625 104.605469 L 81.097656 104.808594 C 80.519531 105.152344 80.164062 105.765625 80.164062 106.429688 C 80.164062 107.480469 81.035156 108.328125 82.105469 108.328125 Z M 82.105469 108.328125 "/>
<path style="fill-rule:nonzero;fill:rgb(21.960784%,25.098041%,27.843139%);fill-opacity:1;stroke-width:0.5;stroke-linecap:butt;stroke-linejoin:round;stroke:rgb(21.960784%,25.098041%,27.843139%);stroke-opacity:1;stroke-miterlimit:4;" d="M 1172.297328 -70.702403 C 1174.997198 -70.702403 1175.506964 -73.642547 1175.702059 -79.600721 C 1174.638474 -78.958173 1173.63153 -78.58173 1172.398023 -78.497355 C 1169.068812 -78.497355 1166.897588 -81.061058 1166.897588 -85.098077 C 1166.897588 -89.407693 1168.980705 -91.802645 1172.498717 -91.802645 C 1176.551669 -91.802645 1178.269768 -88.68077 1178.401929 -82.501923 C 1178.401929 -75.343028 1177.55232 -69.30048 1172.398023 -69.30048 C 1169.698153 -69.30048 1167.40106 -70.98798 1167.40106 -73.798317 C 1167.40106 -75.278124 1168.256963 -76.400961 1169.402363 -76.400961 C 1170.510002 -76.400961 1171.397372 -75.687019 1171.397372 -74.298076 C 1171.397372 -73.097355 1170.642163 -72.448316 1169.698153 -72.097836 C 1170.107224 -71.481249 1171.038648 -70.702403 1172.297328 -70.702403 Z M 1175.702059 -85.000721 C 1175.702059 -85.81851 1175.557311 -90.270914 1172.599412 -90.498078 C 1170.528882 -90.498078 1169.503057 -88.667789 1169.503057 -85.000721 C 1169.503057 -83.339183 1169.842901 -80.003125 1172.599412 -80.003125 C 1174.588127 -80.003125 1175.702059 -81.982692 1175.702059 -85.000721 Z M 1175.702059 -85.000721 " transform="matrix(0.62069,0,0,0.601852,-719.999954,60.185181)"/>
<path style="fill-rule:nonzero;fill:rgb(21.960784%,25.098041%,27.843139%);fill-opacity:1;stroke-width:0.5;stroke-linecap:butt;stroke-linejoin:round;stroke:rgb(21.960784%,25.098041%,27.843139%);stroke-opacity:1;stroke-miterlimit:4;" d="M 1172.29728 -70.702417 C 1174.99715 -70.702417 1175.506916 -73.642562 1175.702011 -79.600735 C 1174.638426 -78.958187 1173.631482 -78.581745 1172.397975 -78.49737 C 1169.068764 -78.49737 1166.89754 -81.061072 1166.89754 -85.098091 C 1166.89754 -89.407707 1168.980657 -91.802659 1172.498669 -91.802659 C 1176.551621 -91.802659 1178.26972 -88.680784 1178.401881 -82.501937 C 1178.401881 -75.343043 1177.552272 -69.300494 1172.397975 -69.300494 C 1169.698105 -69.300494 1167.401013 -70.987994 1167.401013 -73.798331 C 1167.401013 -75.278139 1168.256915 -76.400975 1169.402315 -76.400975 C 1170.509954 -76.400975 1171.397324 -75.687033 1171.397324 -74.298091 C 1171.397324 -73.097369 1170.642115 -72.448331 1169.698105 -72.09785 C 1170.107176 -71.481263 1171.0386 -70.702417 1172.29728 -70.702417 Z M 1175.702011 -85.000736 C 1175.702011 -85.818524 1175.557263 -90.270928 1172.599364 -90.498092 C 1170.528834 -90.498092 1169.503009 -88.667803 1169.503009 -85.000736 C 1169.503009 -83.339197 1169.842853 -80.003139 1172.599364 -80.003139 C 1174.588079 -80.003139 1175.702011 -81.982707 1175.702011 -85.000736 Z M 1175.702011 -85.000736 " transform="matrix(-0.62069,0.000000000000000074,-0.000000000000000076,-0.601852,809.999925,69.81481)"/>
</g>
</svg>
