<?xml version="1.0" encoding="UTF-8"?>
<svg xmlns="http://www.w3.org/2000/svg" xmlns:xlink="http://www.w3.org/1999/xlink" width="90px" height="130px" viewBox="0 0 90 130" version="1.1">
<g id="surface1">
<path style="fill-rule:nonzero;fill:rgb(100%,100%,100%);fill-opacity:1;stroke-width:3;stroke-linecap:butt;stroke-linejoin:miter;stroke:rgb(21.960784%,25.098041%,27.843139%);stroke-opacity:1;stroke-miterlimit:4;" d="M 9.50308 1.499278 L 135.497014 1.499278 C 139.921276 1.499278 143.502223 5.08197 143.502223 9.501922 L 143.502223 206.498092 C 143.502223 210.918044 139.921276 214.500737 135.497014 214.500737 L 9.50308 214.500737 C 5.078818 214.500737 1.497871 210.918044 1.497871 206.498092 L 1.497871 9.501922 C 1.497871 5.08197 5.078818 1.499278 9.50308 1.499278 Z M 9.50308 1.499278 " transform="matrix(0.62069,0,0,0.601852,-0.000025692,0.000000826741)"/>
<path style=" stroke:none;fill-rule:nonzero;fill:rgb(21.960784%,25.098041%,27.843139%);fill-opacity:1;" d="M 45 9.328125 C 42.429688 9.328125 40.34375 11.351562 40.34375 13.84375 C 40.359375 15.429688 41.230469 16.890625 42.640625 17.695312 L 42.019531 18.175781 C 40.433594 16.914062 38.175781 16.808594 36.472656 17.921875 C 34.765625 19.03125 34.015625 21.09375 34.621094 23 C 35.226562 24.902344 37.050781 26.195312 39.101562 26.179688 C 41.675781 26.179688 43.757812 24.160156 43.757812 21.667969 L 43.757812 21.367188 C 43.757812 21.367188 44.070312 21.96875 44.070312 23.050781 C 44.070312 26.058594 42.828125 27.984375 41.585938 29.792969 L 48.414062 29.792969 C 47.171875 27.984375 45.929688 26 45.929688 22.992188 C 45.929688 21.96875 46.242188 21.367188 46.242188 21.367188 L 46.242188 21.667969 C 46.253906 23.78125 47.773438 25.601562 49.902344 26.054688 C 52.03125 26.503906 54.195312 25.464844 55.117188 23.550781 C 56.035156 21.632812 55.460938 19.355469 53.734375 18.066406 C 52.007812 16.777344 49.589844 16.824219 47.917969 18.175781 L 47.421875 17.695312 C 48.808594 16.875 49.652344 15.417969 49.65625 13.84375 C 49.65625 11.351562 47.570312 9.328125 45 9.328125 Z M 45 9.328125 "/>
<path style=" stroke:none;fill-rule:nonzero;fill:rgb(21.960784%,25.098041%,27.843139%);fill-opacity:1;" d="M 45 120.671875 C 42.429688 120.671875 40.34375 118.648438 40.34375 116.15625 C 40.359375 114.570312 41.230469 113.109375 42.640625 112.304688 L 42.019531 111.824219 C 40.433594 113.085938 38.175781 113.191406 36.472656 112.078125 C 34.765625 110.96875 34.015625 108.90625 34.621094 107 C 35.226562 105.097656 37.050781 103.804688 39.101562 103.820312 C 41.675781 103.820312 43.757812 105.839844 43.757812 108.332031 L 43.757812 108.632812 C 43.757812 108.632812 44.070312 108.03125 44.070312 106.949219 C 44.070312 103.941406 42.828125 102.015625 41.585938 100.207031 L 48.414062 100.207031 C 47.171875 102.015625 45.929688 104 45.929688 107.007812 C 45.929688 108.03125 46.242188 108.632812 46.242188 108.632812 L 46.242188 108.332031 C 46.253906 106.21875 47.773438 104.398438 49.902344 103.945312 C 52.03125 103.496094 54.195312 104.535156 55.117188 106.449219 C 56.035156 108.367188 55.460938 110.644531 53.734375 111.933594 C 52.007812 113.222656 49.589844 113.175781 47.917969 111.824219 L 47.421875 112.304688 C 48.808594 113.125 49.652344 114.582031 49.65625 116.15625 C 49.65625 118.648438 47.570312 120.671875 45 120.671875 Z M 45 120.671875 "/>
<path style=" stroke:none;fill-rule:nonzero;fill:rgb(21.960784%,25.098041%,27.843139%);fill-opacity:1;" d="M 45 54.769531 C 42.429688 54.769531 40.34375 56.789062 40.34375 59.28125 C 40.359375 60.867188 41.230469 62.332031 42.640625 63.132812 L 42.019531 63.617188 C 40.433594 62.351562 38.175781 62.25 36.472656 63.359375 C 34.765625 64.472656 34.015625 66.535156 34.621094 68.4375 C 35.226562 70.34375 37.050781 71.636719 39.101562 71.621094 C 41.675781 71.621094 43.757812 69.597656 43.757812 67.105469 L 43.757812 66.804688 C 43.757812 66.804688 44.070312 67.40625 44.070312 68.492188 C 44.070312 71.5 42.828125 73.425781 41.585938 75.230469 L 48.414062 75.230469 C 47.171875 73.425781 45.929688 71.441406 45.929688 68.429688 C 45.929688 67.40625 46.242188 66.804688 46.242188 66.804688 L 46.242188 67.105469 C 46.253906 69.21875 47.773438 71.042969 49.902344 71.492188 C 52.03125 71.945312 54.195312 70.90625 55.117188 68.988281 C 56.035156 67.074219 55.460938 64.796875 53.734375 63.507812 C 52.007812 62.21875 49.589844 62.261719 47.917969 63.617188 L 47.421875 63.132812 C 48.808594 62.316406 49.652344 60.855469 49.65625 59.28125 C 49.65625 56.789062 47.570312 54.769531 45 54.769531 Z M 45 54.769531 "/>
<path style=" stroke:none;fill-rule:nonzero;fill:rgb(21.960784%,25.098041%,27.843139%);fill-opacity:1;" d="M 27 32.078125 C 24.429688 32.078125 22.34375 34.101562 22.34375 36.59375 C 22.359375 38.179688 23.230469 39.640625 24.640625 40.445312 L 24.019531 40.925781 C 22.433594 39.664062 20.175781 39.558594 18.472656 40.671875 C 16.765625 41.78125 16.015625 43.84375 16.621094 45.75 C 17.226562 47.652344 19.050781 48.945312 21.101562 48.929688 C 23.675781 48.929688 25.757812 46.910156 25.757812 44.417969 L 25.757812 44.117188 C 25.757812 44.117188 26.070312 44.71875 26.070312 45.800781 C 26.070312 48.808594 24.828125 50.734375 23.585938 52.542969 L 30.414062 52.542969 C 29.171875 50.734375 27.929688 48.75 27.929688 45.742188 C 27.929688 44.71875 28.242188 44.117188 28.242188 44.117188 L 28.242188 44.417969 C 28.253906 46.53125 29.773438 48.351562 31.902344 48.804688 C 34.03125 49.253906 36.195312 48.214844 37.117188 46.300781 C 38.035156 44.382812 37.460938 42.105469 35.734375 40.816406 C 34.007812 39.527344 31.589844 39.574219 29.917969 40.925781 L 29.421875 40.445312 C 30.808594 39.625 31.652344 38.167969 31.65625 36.59375 C 31.65625 34.101562 29.570312 32.078125 27 32.078125 Z M 27 32.078125 "/>
<path style=" stroke:none;fill-rule:nonzero;fill:rgb(21.960784%,25.098041%,27.843139%);fill-opacity:1;" d="M 27 97.980469 C 24.429688 97.980469 22.34375 95.960938 22.34375 93.46875 C 22.359375 91.882812 23.230469 90.417969 24.640625 89.617188 L 24.019531 89.132812 C 22.433594 90.398438 20.175781 90.5 18.472656 89.390625 C 16.765625 88.277344 16.015625 86.214844 16.621094 84.3125 C 17.226562 82.40625 19.050781 81.113281 21.101562 81.128906 C 23.675781 81.128906 25.757812 83.152344 25.757812 85.644531 L 25.757812 85.945312 C 25.757812 85.945312 26.070312 85.34375 26.070312 84.257812 C 26.070312 81.25 24.828125 79.324219 23.585938 77.519531 L 30.414062 77.519531 C 29.171875 79.324219 27.929688 81.308594 27.929688 84.320312 C 27.929688 85.34375 28.242188 85.945312 28.242188 85.945312 L 28.242188 85.644531 C 28.253906 83.53125 29.773438 81.707031 31.902344 81.257812 C 34.03125 80.804688 36.195312 81.84375 37.117188 83.761719 C 38.035156 85.675781 37.460938 87.953125 35.734375 89.242188 C 34.007812 90.53125 31.589844 90.488281 29.917969 89.132812 L 29.421875 89.617188 C 30.808594 90.433594 31.652344 91.894531 31.65625 93.46875 C 31.65625 95.960938 29.570312 97.980469 27 97.980469 Z M 27 97.980469 "/>
<path style=" stroke:none;fill-rule:nonzero;fill:rgb(21.960784%,25.098041%,27.843139%);fill-opacity:1;" d="M 63 32.078125 C 60.429688 32.078125 58.34375 34.101562 58.34375 36.59375 C 58.359375 38.179688 59.230469 39.640625 60.640625 40.445312 L 60.019531 40.925781 C 58.433594 39.664062 56.175781 39.558594 54.472656 40.671875 C 52.765625 41.78125 52.015625 43.84375 52.621094 45.75 C 53.226562 47.652344 55.050781 48.945312 57.101562 48.929688 C 59.675781 48.929688 61.757812 46.910156 61.757812 44.417969 L 61.757812 44.117188 C 61.757812 44.117188 62.070312 44.71875 62.070312 45.800781 C 62.070312 48.808594 60.828125 50.734375 59.585938 52.542969 L 66.414062 52.542969 C 65.171875 50.734375 63.929688 48.75 63.929688 45.742188 C 63.929688 44.71875 64.242188 44.117188 64.242188 44.117188 L 64.242188 44.417969 C 64.253906 46.53125 65.773438 48.351562 67.902344 48.804688 C 70.03125 49.253906 72.195312 48.214844 73.117188 46.300781 C 74.035156 44.382812 73.460938 42.105469 71.734375 40.816406 C 70.007812 39.527344 67.589844 39.574219 65.917969 40.925781 L 65.421875 40.445312 C 66.808594 39.625 67.652344 38.167969 67.65625 36.59375 C 67.65625 34.101562 65.570312 32.078125 63 32.078125 Z M 63 32.078125 "/>
<path style=" stroke:none;fill-rule:nonzero;fill:rgb(21.960784%,25.098041%,27.843139%);fill-opacity:1;" d="M 63 97.980469 C 60.429688 97.980469 58.34375 95.960938 58.34375 93.46875 C 58.359375 91.882812 59.230469 90.417969 60.640625 89.617188 L 60.019531 89.132812 C 58.433594 90.398438 56.175781 90.5 54.472656 89.390625 C 52.765625 88.277344 52.015625 86.214844 52.621094 84.3125 C 53.226562 82.40625 55.050781 81.113281 57.101562 81.128906 C 59.675781 81.128906 61.757812 83.152344 61.757812 85.644531 L 61.757812 85.945312 C 61.757812 85.945312 62.070312 85.34375 62.070312 84.257812 C 62.070312 81.25 60.828125 79.324219 59.585938 77.519531 L 66.414062 77.519531 C 65.171875 79.324219 63.929688 81.308594 63.929688 84.320312 C 63.929688 85.34375 64.242188 85.945312 64.242188 85.945312 L 64.242188 85.644531 C 64.253906 83.53125 65.773438 81.707031 67.902344 81.257812 C 70.03125 80.804688 72.195312 81.84375 73.117188 83.761719 C 74.035156 85.675781 73.460938 87.953125 71.734375 89.242188 C 70.007812 90.53125 67.589844 90.488281 65.917969 89.132812 L 65.421875 89.617188 C 66.808594 90.433594 67.652344 91.894531 67.65625 93.46875 C 67.65625 95.960938 65.570312 97.980469 63 97.980469 Z M 63 97.980469 "/>
<path style=" stroke:none;fill-rule:nonzero;fill:rgb(21.960784%,25.098041%,27.843139%);fill-opacity:1;" d="M 7.894531 21.671875 C 6.820312 21.671875 5.953125 22.519531 5.953125 23.570312 C 5.957031 24.238281 6.320312 24.855469 6.910156 25.191406 L 6.652344 25.394531 C 5.988281 24.863281 5.046875 24.820312 4.335938 25.289062 C 3.625 25.753906 3.3125 26.625 3.566406 27.425781 C 3.820312 28.226562 4.578125 28.769531 5.433594 28.765625 C 6.507812 28.765625 7.375 27.914062 7.375 26.863281 L 7.375 26.738281 C 7.375 26.738281 7.503906 26.992188 7.503906 27.445312 C 7.503906 28.714844 6.988281 29.523438 6.46875 30.285156 L 9.316406 30.285156 C 8.800781 29.523438 8.28125 28.6875 8.28125 27.421875 C 8.28125 26.992188 8.410156 26.738281 8.410156 26.738281 L 8.410156 26.863281 C 8.414062 27.753906 9.050781 28.519531 9.9375 28.710938 C 10.824219 28.902344 11.730469 28.464844 12.113281 27.65625 C 12.496094 26.851562 12.257812 25.890625 11.535156 25.347656 C 10.816406 24.804688 9.808594 24.824219 9.109375 25.394531 L 8.902344 25.191406 C 9.480469 24.847656 9.835938 24.234375 9.835938 23.570312 C 9.835938 22.519531 8.964844 21.671875 7.894531 21.671875 Z M 7.894531 21.671875 "/>
<path style=" stroke:none;fill-rule:nonzero;fill:rgb(21.960784%,25.098041%,27.843139%);fill-opacity:1;" d="M 82.105469 108.328125 C 83.179688 108.328125 84.046875 107.480469 84.046875 106.429688 C 84.042969 105.761719 83.679688 105.144531 83.089844 104.808594 L 83.347656 104.605469 C 84.011719 105.136719 84.953125 105.179688 85.664062 104.710938 C 86.375 104.246094 86.6875 103.375 86.433594 102.574219 C 86.179688 101.773438 85.421875 101.230469 84.566406 101.234375 C 83.492188 101.234375 82.625 102.085938 82.625 103.136719 L 82.625 103.261719 C 82.625 103.261719 82.496094 103.007812 82.496094 102.554688 C 82.496094 101.285156 83.011719 100.476562 83.53125 99.714844 L 80.683594 99.714844 C 81.199219 100.476562 81.71875 101.3125 81.71875 102.578125 C 81.71875 103.007812 81.589844 103.261719 81.589844 103.261719 L 81.589844 103.136719 C 81.585938 102.246094 80.949219 101.480469 80.0625 101.289062 C 79.175781 101.097656 78.269531 101.535156 77.886719 102.34375 C 77.503906 103.148438 77.742188 104.109375 78.464844 104.652344 C 79.183594 105.195312 80.191406 105.175781 80.890625 104.605469 L 81.097656 104.808594 C 80.519531 105.152344 80.164062 105.765625 80.164062 106.429688 C 80.164062 107.480469 81.035156 108.328125 82.105469 108.328125 Z M 82.105469 108.328125 "/>
<path style="fill-rule:nonzero;fill:rgb(21.960784%,25.098041%,27.843139%);fill-opacity:1;stroke-width:0.5;stroke-linecap:butt;stroke-linejoin:round;stroke:rgb(21.960784%,25.098041%,27.843139%);stroke-opacity:1;stroke-miterlimit:4;" d="M 879.100303 -80.197836 L 879.100303 -81.59976 L 881.900867 -81.59976 C 883.058853 -84.410096 884.808419 -87.298318 885.601388 -88.499039 L 881.598784 -88.499039 C 878.728992 -88.499039 878.370268 -87.622837 877.401084 -85.201923 L 876.400433 -85.403125 L 877.602473 -91.997357 L 878.603124 -91.997357 C 878.609417 -91.789664 878.987021 -91.497597 879.200997 -91.497597 L 888.899131 -91.497597 L 888.798437 -90.19952 C 887.501996 -88.447116 885.431466 -85.338221 884.097265 -81.59976 L 886.299956 -81.59976 L 886.299956 -80.197836 L 883.70078 -80.197836 C 882.719009 -76.621634 882.309938 -72.909134 882.49874 -69.203124 L 879.200997 -69.203124 C 879.591188 -72.928605 880.327516 -76.608653 881.397395 -80.197836 Z M 879.100303 -80.197836 " transform="matrix(0.62069,0,0,0.601852,-539.999983,60.185181)"/>
<path style="fill-rule:nonzero;fill:rgb(21.960784%,25.098041%,27.843139%);fill-opacity:1;stroke-width:0.5;stroke-linecap:butt;stroke-linejoin:round;stroke:rgb(21.960784%,25.098041%,27.843139%);stroke-opacity:1;stroke-miterlimit:4;" d="M 879.100208 -80.197851 L 879.100208 -81.599774 L 881.900773 -81.599774 C 883.058759 -84.410111 884.808325 -87.298332 885.601294 -88.499053 L 881.598689 -88.499053 C 878.728897 -88.499053 878.370173 -87.622851 877.400989 -85.201938 L 876.400338 -85.40314 L 877.602378 -91.997371 L 878.603029 -91.997371 C 878.609323 -91.789679 878.986927 -91.497611 879.200903 -91.497611 L 888.899037 -91.497611 L 888.798343 -90.199534 C 887.501902 -88.44713 885.431372 -85.338236 884.09717 -81.599774 L 886.299862 -81.599774 L 886.299862 -80.197851 L 883.700686 -80.197851 C 882.718915 -76.621649 882.309844 -72.909148 882.498646 -69.203138 L 879.200903 -69.203138 C 879.591094 -72.928619 880.327422 -76.608668 881.3973 -80.197851 Z M 879.100208 -80.197851 " transform="matrix(-0.62069,0.000000000000000074,-0.000000000000000076,-0.601852,629.999924,69.81481)"/>
</g>
</svg>
