<?xml version="1.0" encoding="UTF-8"?>
<svg xmlns="http://www.w3.org/2000/svg" xmlns:xlink="http://www.w3.org/1999/xlink" width="90px" height="130px" viewBox="0 0 90 130" version="1.1">
<g id="surface1">
<path style="fill-rule:nonzero;fill:rgb(100%,100%,100%);fill-opacity:1;stroke-width:3;stroke-linecap:butt;stroke-linejoin:miter;stroke:rgb(21.960784%,25.098041%,27.843139%);stroke-opacity:1;stroke-miterlimit:4;" d="M 9.496856 1.499278 L 135.497083 1.499278 C 139.921345 1.499278 143.502292 5.08197 143.502292 9.501922 L 143.502292 206.498092 C 143.502292 210.918044 139.921345 214.500737 135.497083 214.500737 L 9.496856 214.500737 C 5.078887 214.500737 1.49794 210.918044 1.49794 206.498092 L 1.49794 9.501922 C 1.49794 5.08197 5.078887 1.499278 9.496856 1.499278 Z M 9.496856 1.499278 " transform="matrix(0.62069,0,0,0.601852,-0.0000684791,0.000000826741)"/>
<path style=" stroke:none;fill-rule:nonzero;fill:rgb(21.960784%,25.098041%,27.843139%);fill-opacity:1;" d="M 18.988281 6.027344 C 16.78125 6.027344 14.992188 7.761719 14.992188 9.902344 C 15.003906 11.265625 15.753906 12.519531 16.964844 13.210938 L 16.429688 13.625 C 15.066406 12.539062 13.128906 12.449219 11.664062 13.40625 C 10.199219 14.359375 9.554688 16.132812 10.074219 17.765625 C 10.597656 19.398438 12.160156 20.511719 13.925781 20.5 C 16.132812 20.5 17.921875 18.761719 17.921875 16.621094 L 17.921875 16.363281 C 17.921875 16.363281 18.1875 16.878906 18.1875 17.808594 C 18.1875 20.394531 17.125 22.050781 16.058594 23.597656 L 21.921875 23.597656 C 20.855469 22.050781 19.789062 20.34375 19.789062 17.757812 C 19.789062 16.878906 20.054688 16.363281 20.054688 16.363281 L 20.054688 16.621094 C 20.0625 18.4375 21.371094 20 23.199219 20.390625 C 25.027344 20.777344 26.886719 19.882812 27.675781 18.238281 C 28.46875 16.59375 27.972656 14.636719 26.492188 13.53125 C 25.007812 12.421875 22.933594 12.460938 21.496094 13.625 L 21.066406 13.210938 C 22.257812 12.507812 22.984375 11.253906 22.988281 9.902344 C 22.988281 7.761719 21.195312 6.027344 18.988281 6.027344 Z M 18.988281 6.027344 "/>
<path style=" stroke:none;fill-rule:nonzero;fill:rgb(100%,100%,100%);fill-opacity:1;" d="M 3.722656 4.515625 L 12.289062 4.515625 L 12.289062 34.605469 L 3.722656 34.605469 Z M 3.722656 4.515625 "/>
<path style=" stroke:none;fill-rule:nonzero;fill:rgb(21.960784%,25.098041%,27.843139%);fill-opacity:1;" d="M 71.011719 123.972656 C 73.21875 123.972656 75.007812 122.238281 75.007812 120.097656 C 74.996094 118.734375 74.246094 117.480469 73.035156 116.789062 L 73.570312 116.375 C 74.933594 117.460938 76.871094 117.550781 78.335938 116.59375 C 79.800781 115.640625 80.445312 113.867188 79.925781 112.234375 C 79.402344 110.597656 77.839844 109.488281 76.074219 109.5 C 73.867188 109.5 72.078125 111.238281 72.078125 113.378906 L 72.078125 113.636719 C 72.078125 113.636719 71.808594 113.121094 71.808594 112.191406 C 71.808594 109.605469 72.875 107.949219 73.941406 106.402344 L 68.078125 106.402344 C 69.144531 107.949219 70.210938 109.65625 70.210938 112.242188 C 70.210938 113.121094 69.945312 113.636719 69.945312 113.636719 L 69.945312 113.378906 C 69.933594 111.5625 68.628906 110 66.800781 109.609375 C 64.972656 109.222656 63.113281 110.117188 62.324219 111.761719 C 61.53125 113.40625 62.023438 115.363281 63.507812 116.46875 C 64.992188 117.578125 67.066406 117.539062 68.503906 116.375 L 68.933594 116.789062 C 67.742188 117.492188 67.015625 118.746094 67.011719 120.097656 C 67.011719 122.238281 68.804688 123.972656 71.011719 123.972656 Z M 71.011719 123.972656 "/>
<path style=" stroke:none;fill-rule:nonzero;fill:rgb(100%,100%,100%);fill-opacity:1;" d="M 86.214844 125.425781 L 77.648438 125.425781 L 77.648438 95.332031 L 86.214844 95.332031 Z M 86.214844 125.425781 "/>
<path style=" stroke:none;fill-rule:nonzero;fill:rgb(21.960784%,25.098041%,27.843139%);fill-opacity:1;" d="M 13.863281 61.582031 L 43.953125 57.992188 L 76.078125 68.457031 L 45.863281 71.324219 Z M 13.863281 61.582031 "/>
<path style="fill-rule:nonzero;fill:rgb(93.333334%,80.000001%,26.666668%);fill-opacity:1;stroke-width:1;stroke-linecap:butt;stroke-linejoin:miter;stroke:rgb(93.333334%,80.000001%,26.666668%);stroke-opacity:1;stroke-miterlimit:4;" d="M 1569.699644 18.999958 C 1569.009078 19.437721 1568.50224 19.999625 1568.103105 20.796745 C 1564.802325 25.899619 1575.002433 57.601468 1562.597581 75.798016 C 1549.901297 94.399658 1554.602217 91.100104 1554.602217 91.100104 C 1554.602217 91.100104 1582.598663 97.901758 1569.598276 29.702273 C 1569.598276 29.702273 1569.199142 27.702939 1569.300509 25.997625 C 1570.821022 27.330514 1573.298191 27.768277 1574.69833 26.298179 C 1578.398245 22.397518 1574.039441 15.870283 1569.699644 18.999958 Z M 1569.699644 18.999958 " transform="matrix(0.616568,0,0,0.597855,-901.862066,0.300927)"/>
<path style=" stroke:none;fill-rule:nonzero;fill:rgb(21.960784%,25.098041%,27.843139%);fill-opacity:1;" d="M 75.460938 62.539062 L 74.226562 62.894531 L 72.5625 61.101562 L 72.253906 57.992188 L 58.382812 23.675781 L 59.429688 23.320312 L 73.425781 57.695312 L 74.96875 60.085938 Z M 75.460938 62.539062 "/>
<path style=" stroke:none;fill-rule:nonzero;fill:rgb(33.333334%,46.666667%,53.333336%);fill-opacity:1;" d="M 51.414062 15.605469 C 51.414062 15.605469 60.539062 6.101562 43.460938 6.457031 C 37.046875 6.578125 35.753906 8.492188 35.753906 8.492188 C 35.753906 8.492188 24.46875 9.089844 30.082031 14.828125 Z M 51.414062 15.605469 "/>
<path style=" stroke:none;fill-rule:nonzero;fill:rgb(90.588236%,72.156864%,57.254905%);fill-opacity:1;" d="M 37.847656 15.425781 C 42.660156 15.605469 47.28125 15.90625 51.105469 16.621094 L 50.613281 19.191406 L 52.585938 25.949219 L 50.425781 26.367188 L 50.675781 28.757812 L 49.257812 29.535156 L 49.378906 30.613281 C 49.378906 30.613281 47.777344 31.210938 48.761719 32.105469 C 49.625 33.003906 50.425781 34.738281 46.050781 34.976562 C 43.398438 35.15625 42.164062 36.351562 44.386719 40.058594 C 44.386719 39.699219 42.351562 43.644531 39.453125 43.765625 C 35.011719 44.003906 29.894531 39.222656 29.894531 39.222656 C 29.894531 39.222656 37.664062 18.894531 37.847656 15.425781 Z M 37.847656 15.425781 "/>
<path style=" stroke:none;fill-rule:nonzero;fill:rgb(68.235296%,68.627453%,69.411767%);fill-opacity:1;" d="M 40.933594 15.007812 C 40.933594 15.007812 42.78125 17.460938 41.980469 18.59375 C 39.574219 21.941406 39.699219 25.410156 40.808594 30.613281 C 40.808594 30.613281 45.308594 38.921875 25.210938 35.632812 C 25.210938 35.632812 30.945312 33.242188 28.476562 28.578125 C 26.320312 24.574219 30.820312 14.949219 30.820312 14.949219 Z M 40.933594 15.007812 "/>
<path style=" stroke:none;fill-rule:nonzero;fill:rgb(21.960784%,25.098041%,27.843139%);fill-opacity:1;" d="M 40.5625 14.886719 C 40.5625 14.886719 38.960938 9.6875 32.175781 10.761719 C 29.957031 11.121094 28.601562 12.558594 30.082031 14.828125 C 30.082031 14.828125 33.101562 15.246094 40.5625 14.886719 Z M 40.5625 14.886719 "/>
<path style=" stroke:none;fill-rule:nonzero;fill:rgb(47.058824%,47.843137%,48.627451%);fill-opacity:1;" d="M 40.5 15.128906 L 41.550781 15.128906 C 42.5 16.425781 42.878906 18.042969 42.597656 19.613281 C 41.980469 21.644531 38.589844 20.628906 41.300781 28.699219 C 44.015625 36.769531 34.828125 36.292969 34.828125 36.292969 C 40.5 34.675781 41.550781 31.628906 39.761719 25.949219 C 39.082031 23.675781 37.910156 23.378906 39.882812 20.566406 C 42.535156 16.800781 40.746094 16.203125 40.5 15.1875 Z M 37.234375 15.84375 C 37.234375 15.84375 38.40625 17.816406 35.566406 21.765625 C 32.363281 26.367188 37.910156 27.863281 34.765625 32.285156 C 31.808594 36.472656 27.367188 35.875 25.519531 35.695312 C 26.996094 35.753906 32.425781 35.875 34.148438 32.105469 C 36 27.683594 32.300781 25.171875 34.765625 21.226562 C 37.234375 17.28125 37.234375 16.503906 37.234375 15.84375 Z M 25.519531 35.695312 L 25.210938 35.695312 L 25.578125 35.695312 Z M 25.519531 35.695312 "/>
<path style=" stroke:none;fill-rule:nonzero;fill:rgb(21.960784%,25.098041%,27.843139%);fill-opacity:1;" d="M 45.132812 39.542969 C 48.21875 40.082031 58.226562 54.878906 58.226562 54.878906 L 48.960938 65.417969 L 45.625 65.058594 C 28.023438 58.769531 22.957031 53.738281 22.464844 40.742188 L 23.082031 40.382812 L 25.675781 39.785156 L 25.921875 40.023438 L 26.972656 39.785156 C 27.34375 40.203125 42.660156 46.011719 45.132812 39.605469 Z M 49.640625 18.820312 C 49.640625 18.820312 50.136719 20.078125 48.898438 20.617188 C 48.898438 20.617188 48.21875 20.5 47.171875 20.078125 C 46.183594 19.71875 43.957031 19.960938 43.710938 20.320312 C 43.402344 20.679688 44.328125 18.101562 47.789062 19.121094 C 49.949219 19.71875 49.640625 18.882812 49.640625 18.882812 Z M 48.777344 21.335938 C 48.777344 21.335938 47.789062 21.695312 46.738281 21.398438 C 45.6875 21.097656 44.390625 21.277344 43.773438 21.996094 C 43.773438 21.996094 45.195312 21.578125 46.429688 21.996094 C 46.429688 21.996094 46.183594 23.195312 46.921875 23.195312 C 47.664062 23.195312 47.601562 21.996094 47.601562 21.996094 C 47.601562 21.996094 48.46875 21.816406 48.777344 21.335938 Z M 48.777344 21.335938 "/>
<path style=" stroke:none;fill-rule:nonzero;fill:rgb(33.333334%,46.666667%,53.333336%);fill-opacity:1;" d="M 44.445312 64.929688 L 36.371094 64.03125 L 31.253906 61.582031 L 29.710938 63.375 L 13.925781 61.582031 L 13.925781 46.15625 C 13.925781 45.738281 13.925781 45.320312 14.050781 44.960938 L 17.503906 41.792969 L 22.433594 40.777344 C 30.171875 48.476562 37.515625 56.539062 44.445312 64.929688 Z M 44.445312 64.929688 "/>
<path style=" stroke:none;fill-rule:nonzero;fill:rgb(21.960784%,25.098041%,27.843139%);fill-opacity:1;" d="M 16.703125 41.972656 C 23.242188 48.980469 29.414062 56.304688 35.199219 63.914062 L 30.757812 63.433594 C 24.894531 57.335938 19.378906 50.929688 14.234375 44.242188 C 14.652344 43.160156 15.5625 42.320312 16.703125 41.972656 Z M 16.703125 41.972656 "/>
<path style=" stroke:none;fill-rule:nonzero;fill:rgb(93.333334%,33.333334%,26.666668%);fill-opacity:1;" d="M 43.460938 38.203125 L 47.28125 40.058594 C 47.28125 40.058594 44.015625 44.839844 38.035156 44.484375 C 32.054688 44.125 26.9375 39.878906 26.9375 39.878906 L 29.894531 39.28125 C 29.894531 39.28125 33.964844 41.195312 38.34375 41.253906 C 42.71875 41.375 43.460938 38.265625 43.460938 38.265625 Z M 43.460938 38.203125 "/>
<path style=" stroke:none;fill-rule:nonzero;fill:rgb(93.333334%,86.666667%,86.666667%);fill-opacity:1;" d="M 14.234375 44.242188 L 30.757812 63.433594 L 29.710938 63.316406 L 13.988281 44.960938 C 14.050781 44.714844 14.132812 44.476562 14.234375 44.242188 Z M 17.441406 41.792969 L 36.308594 64.03125 L 35.199219 63.914062 L 16.703125 41.972656 L 17.316406 41.851562 Z M 17.441406 41.792969 "/>
<path style=" stroke:none;fill-rule:nonzero;fill:rgb(26.666668%,60.000002%,40.000001%);fill-opacity:1;" d="M 25.640625 39.757812 L 24.59375 42.628906 L 29.648438 44.421875 L 30.390625 48.90625 L 35.136719 50.222656 L 35.507812 54.527344 L 40.4375 55.722656 L 41.300781 60.683594 L 45.308594 61.164062 Z M 30.699219 14.949219 C 30.699219 14.949219 31.253906 18.535156 29.21875 21.882812 L 30.574219 21.285156 L 31.128906 22.121094 C 31.128906 22.121094 32.980469 19.730469 32.117188 14.949219 Z M 30.699219 14.949219 "/>
<path style=" stroke:none;fill-rule:nonzero;fill:rgb(93.333334%,33.333334%,26.666668%);fill-opacity:1;" d="M 43.460938 38.203125 L 58.195312 54.945312 L 56.347656 55.839844 C 56.347656 55.839844 46.851562 50.402344 46.050781 49.027344 C 45.183594 46.953125 44.503906 44.8125 44.015625 42.628906 Z M 43.460938 38.203125 "/>
<path style=" stroke:none;fill-rule:nonzero;fill:rgb(26.666668%,60.000002%,40.000001%);fill-opacity:1;" d="M 43.460938 38.203125 C 43.460938 38.203125 52.707031 40.179688 55.050781 41.972656 C 55.976562 42.6875 59.492188 48.011719 63.066406 52.734375 L 57.332031 55.421875 C 57.332031 55.421875 47.652344 50.042969 46.789062 48.367188 C 45.433594 45.796875 44.570312 41.375 43.460938 38.203125 Z M 43.460938 38.203125 "/>
<path style=" stroke:none;fill-rule:nonzero;fill:rgb(21.960784%,25.098041%,27.843139%);fill-opacity:1;" d="M 48.085938 46.933594 C 48.085938 47.296875 48.234375 47.648438 48.5 47.90625 C 48.765625 48.164062 49.125 48.308594 49.503906 48.308594 C 49.878906 48.308594 50.238281 48.164062 50.503906 47.90625 C 50.769531 47.648438 50.921875 47.296875 50.921875 46.933594 C 50.921875 46.570312 50.769531 46.21875 50.503906 45.960938 C 50.238281 45.703125 49.878906 45.558594 49.503906 45.558594 C 49.125 45.558594 48.765625 45.703125 48.5 45.960938 C 48.234375 46.21875 48.085938 46.570312 48.085938 46.933594 Z M 48.085938 46.933594 "/>
<path style=" stroke:none;fill-rule:nonzero;fill:rgb(93.333334%,86.666667%,86.666667%);fill-opacity:1;" d="M 23.050781 40.355469 L 45.558594 65.109375 L 44.445312 64.929688 L 22.433594 40.777344 L 22.25 40.597656 Z M 23.050781 40.355469 "/>
<path style=" stroke:none;fill-rule:nonzero;fill:rgb(21.960784%,25.098041%,27.843139%);fill-opacity:1;" d="M 51.679688 15.289062 C 51.679688 15.289062 54.210938 13.070312 53.839844 10.195312 C 53.839844 10.195312 46.863281 10.914062 45.378906 14.929688 Z M 50.566406 27.328125 C 50.566406 27.328125 48.097656 27.027344 47.664062 27.925781 C 47.230469 28.824219 46.675781 30.5625 45.933594 30.023438 C 45.195312 29.484375 45.6875 29.003906 45.875 29.003906 C 46.058594 29.003906 44.453125 29.242188 45.875 30.5 C 47.230469 31.820312 48.46875 28.882812 48.589844 28.40625 C 48.714844 27.925781 50.691406 28.40625 50.691406 28.40625 Z M 48.34375 31.398438 C 48.34375 31.398438 47.601562 32.535156 47.910156 32.535156 C 48.21875 32.535156 49.269531 33.195312 49.269531 34.035156 C 49.269531 34.035156 50.320312 32.597656 48.34375 31.398438 Z M 48.34375 31.398438 "/>
<path style=" stroke:none;fill-rule:nonzero;fill:rgb(21.960784%,25.098041%,27.843139%);fill-opacity:1;" d="M 21.65625 42.117188 C 21.527344 42.222656 21.457031 42.371094 21.460938 42.53125 L 21.398438 42.53125 C 21.496094 42.328125 21.453125 42.089844 21.289062 41.929688 C 21.183594 41.824219 21.039062 41.761719 20.890625 41.757812 C 20.738281 41.753906 20.589844 41.8125 20.484375 41.917969 C 20.289062 42.117188 20.285156 42.429688 20.472656 42.636719 C 20.59375 42.773438 20.777344 42.84375 20.960938 42.824219 L 20.960938 42.882812 C 20.820312 42.894531 20.683594 42.957031 20.585938 43.058594 C 20.390625 43.257812 20.386719 43.570312 20.574219 43.777344 C 20.78125 43.964844 21.101562 43.96875 21.316406 43.789062 C 21.511719 43.585938 21.515625 43.277344 21.328125 43.070312 C 21.453125 43.070312 21.636719 43.195312 21.933594 43.738281 L 22.183594 43.5625 C 21.574219 43.191406 21.578125 42.953125 21.578125 42.953125 C 21.679688 43.0625 21.824219 43.125 21.976562 43.125 C 22.128906 43.128906 22.273438 43.070312 22.378906 42.96875 C 22.492188 42.867188 22.554688 42.726562 22.558594 42.582031 C 22.5625 42.433594 22.503906 42.292969 22.394531 42.1875 C 22.1875 42 21.867188 41.996094 21.652344 42.175781 Z M 23.46875 44.304688 C 23.378906 44.402344 23.335938 44.527344 23.339844 44.660156 L 23.277344 44.660156 C 23.371094 44.457031 23.328125 44.214844 23.164062 44.058594 C 23.0625 43.949219 22.917969 43.886719 22.765625 43.886719 C 22.613281 43.882812 22.46875 43.941406 22.359375 44.046875 C 22.25 44.144531 22.183594 44.285156 22.183594 44.429688 C 22.179688 44.578125 22.238281 44.71875 22.347656 44.824219 C 22.480469 44.941406 22.664062 44.988281 22.839844 44.953125 L 22.835938 45.070312 C 22.699219 45.0625 22.570312 45.101562 22.464844 45.183594 C 22.351562 45.285156 22.289062 45.425781 22.285156 45.570312 C 22.28125 45.71875 22.34375 45.859375 22.449219 45.964844 C 22.65625 46.152344 22.976562 46.160156 23.191406 45.976562 C 23.386719 45.777344 23.390625 45.464844 23.203125 45.257812 C 23.328125 45.257812 23.511719 45.324219 23.8125 45.867188 L 24.0625 45.691406 C 23.449219 45.320312 23.453125 45.140625 23.453125 45.082031 C 23.558594 45.191406 23.703125 45.253906 23.851562 45.253906 C 24.003906 45.257812 24.152344 45.199219 24.257812 45.097656 C 24.453125 44.894531 24.457031 44.582031 24.269531 44.378906 C 24.0625 44.1875 23.742188 44.183594 23.527344 44.363281 Z M 25.40625 46.492188 C 25.300781 46.582031 25.230469 46.710938 25.214844 46.847656 L 25.152344 46.847656 C 25.25 46.644531 25.203125 46.40625 25.039062 46.246094 C 24.9375 46.140625 24.792969 46.078125 24.640625 46.074219 C 24.488281 46.070312 24.34375 46.128906 24.238281 46.234375 C 24.042969 46.433594 24.035156 46.746094 24.222656 46.953125 C 24.34375 47.089844 24.527344 47.160156 24.714844 47.140625 L 24.714844 47.199219 C 24.578125 47.191406 24.449219 47.230469 24.339844 47.3125 C 24.230469 47.414062 24.164062 47.554688 24.164062 47.699219 C 24.160156 47.847656 24.21875 47.988281 24.328125 48.09375 C 24.535156 48.28125 24.855469 48.285156 25.066406 48.105469 C 25.261719 47.90625 25.269531 47.59375 25.082031 47.386719 C 25.203125 47.386719 25.386719 47.511719 25.6875 48.054688 L 25.9375 47.878906 C 25.324219 47.511719 25.332031 47.269531 25.332031 47.210938 C 25.433594 47.320312 25.578125 47.382812 25.730469 47.382812 C 25.882812 47.386719 26.027344 47.328125 26.132812 47.222656 C 26.320312 47.109375 26.390625 46.75 26.148438 46.503906 C 25.90625 46.261719 25.65625 46.257812 25.40625 46.492188 Z M 27.28125 48.621094 C 27.175781 48.710938 27.105469 48.839844 27.089844 48.976562 L 27.027344 48.976562 C 27.125 48.773438 27.082031 48.53125 26.917969 48.375 C 26.8125 48.265625 26.667969 48.203125 26.519531 48.203125 C 26.367188 48.199219 26.21875 48.257812 26.113281 48.363281 C 25.917969 48.5625 25.914062 48.875 26.101562 49.082031 C 26.222656 49.21875 26.40625 49.289062 26.589844 49.269531 L 26.589844 49.328125 C 26.449219 49.339844 26.3125 49.402344 26.214844 49.5 C 26.023438 49.703125 26.015625 50.011719 26.203125 50.21875 C 26.398438 50.425781 26.710938 50.457031 26.945312 50.292969 C 27.054688 50.191406 27.121094 50.054688 27.121094 49.90625 C 27.125 49.757812 27.066406 49.617188 26.957031 49.515625 C 27.082031 49.515625 27.265625 49.640625 27.5625 50.183594 L 27.8125 50.007812 C 27.203125 49.636719 27.207031 49.398438 27.207031 49.398438 C 27.308594 49.507812 27.453125 49.570312 27.605469 49.570312 C 27.757812 49.574219 27.902344 49.515625 28.011719 49.414062 C 28.207031 49.210938 28.210938 48.902344 28.023438 48.695312 C 27.828125 48.488281 27.515625 48.457031 27.28125 48.621094 Z M 29.160156 50.75 C 29.054688 50.835938 28.984375 50.96875 28.96875 51.105469 L 28.90625 51.105469 C 29.003906 50.902344 28.957031 50.660156 28.792969 50.503906 C 28.691406 50.394531 28.546875 50.332031 28.394531 50.332031 C 28.242188 50.328125 28.097656 50.386719 27.992188 50.488281 C 27.878906 50.589844 27.816406 50.730469 27.8125 50.875 C 27.808594 51.023438 27.867188 51.164062 27.976562 51.269531 C 28.109375 51.386719 28.292969 51.433594 28.46875 51.398438 L 28.464844 51.515625 C 28.332031 51.507812 28.199219 51.546875 28.09375 51.628906 C 27.980469 51.730469 27.917969 51.871094 27.914062 52.015625 C 27.914062 52.164062 27.972656 52.304688 28.078125 52.410156 C 28.199219 52.589844 28.570312 52.65625 28.820312 52.421875 C 29.070312 52.1875 29.078125 51.886719 28.832031 51.703125 C 28.957031 51.703125 29.140625 51.769531 29.441406 52.3125 L 29.691406 52.136719 C 29.078125 51.828125 29.082031 51.585938 29.082031 51.527344 C 29.265625 51.769531 29.636719 51.777344 29.886719 51.539062 C 30.136719 51.304688 30.140625 51.066406 29.898438 50.820312 C 29.691406 50.632812 29.371094 50.628906 29.160156 50.808594 Z M 31.035156 52.9375 C 30.929688 53.027344 30.859375 53.15625 30.84375 53.292969 L 30.78125 53.292969 C 30.878906 53.089844 30.832031 52.851562 30.667969 52.691406 C 30.566406 52.585938 30.421875 52.523438 30.269531 52.519531 C 30.117188 52.515625 29.972656 52.574219 29.867188 52.679688 C 29.671875 52.878906 29.664062 53.191406 29.851562 53.398438 C 29.972656 53.535156 30.160156 53.605469 30.34375 53.585938 L 30.34375 53.644531 C 30.199219 53.65625 30.0625 53.71875 29.96875 53.816406 C 29.773438 54.019531 29.769531 54.332031 29.957031 54.535156 C 30.164062 54.726562 30.484375 54.730469 30.699219 54.550781 C 30.890625 54.347656 30.898438 54.039062 30.710938 53.832031 C 30.832031 53.832031 31.015625 53.957031 31.316406 54.5 L 31.566406 54.324219 C 30.957031 53.953125 30.960938 53.714844 30.960938 53.714844 C 31.0625 53.824219 31.207031 53.886719 31.359375 53.886719 C 31.507812 53.890625 31.65625 53.832031 31.761719 53.730469 C 31.875 53.628906 31.9375 53.488281 31.941406 53.34375 C 31.945312 53.195312 31.882812 53.054688 31.777344 52.949219 C 31.570312 52.761719 31.25 52.753906 31.035156 52.9375 Z M 32.910156 55.066406 C 32.804688 55.152344 32.734375 55.285156 32.71875 55.421875 L 32.660156 55.421875 C 32.753906 55.21875 32.710938 54.976562 32.546875 54.820312 C 32.441406 54.710938 32.300781 54.648438 32.148438 54.648438 C 31.996094 54.644531 31.851562 54.703125 31.742188 54.808594 C 31.632812 54.90625 31.566406 55.046875 31.566406 55.191406 C 31.5625 55.339844 31.621094 55.480469 31.730469 55.585938 C 31.863281 55.703125 32.046875 55.75 32.222656 55.714844 L 32.21875 55.832031 C 32.082031 55.824219 31.953125 55.863281 31.847656 55.945312 C 31.652344 56.148438 31.644531 56.457031 31.832031 56.664062 C 32.027344 56.871094 32.339844 56.902344 32.574219 56.738281 C 32.769531 56.539062 32.773438 56.226562 32.585938 56.019531 C 32.710938 56.019531 32.894531 56.085938 33.191406 56.628906 L 33.441406 56.453125 C 32.832031 56.082031 32.835938 55.84375 32.835938 55.84375 C 32.9375 55.953125 33.082031 56.015625 33.234375 56.015625 C 33.386719 56.019531 33.53125 55.960938 33.640625 55.855469 C 33.828125 55.679688 33.894531 55.324219 33.652344 55.136719 C 33.410156 54.953125 33.164062 54.890625 32.910156 55.066406 Z M 34.851562 57.195312 C 34.742188 57.285156 34.671875 57.414062 34.660156 57.550781 L 34.597656 57.550781 C 34.664062 57.367188 34.621094 57.15625 34.484375 57.007812 C 34.378906 56.902344 34.238281 56.839844 34.085938 56.835938 C 33.933594 56.835938 33.785156 56.890625 33.679688 56.996094 C 33.484375 57.195312 33.480469 57.507812 33.667969 57.714844 C 33.789062 57.851562 33.972656 57.925781 34.160156 57.902344 C 34.015625 57.914062 33.878906 57.976562 33.785156 58.074219 C 33.671875 58.175781 33.609375 58.316406 33.605469 58.460938 C 33.605469 58.609375 33.664062 58.75 33.769531 58.855469 C 33.976562 59.042969 34.296875 59.050781 34.511719 58.867188 C 34.707031 58.667969 34.710938 58.355469 34.523438 58.148438 C 34.648438 58.152344 34.832031 58.214844 35.132812 58.757812 L 35.378906 58.640625 C 34.769531 58.273438 34.773438 58.03125 34.773438 57.972656 C 34.878906 58.082031 35.023438 58.144531 35.171875 58.144531 C 35.324219 58.148438 35.472656 58.089844 35.578125 57.988281 C 35.773438 57.785156 35.777344 57.476562 35.589844 57.269531 C 35.382812 57.078125 35.0625 57.074219 34.847656 57.253906 Z M 36.726562 59.382812 C 36.621094 59.472656 36.550781 59.601562 36.535156 59.738281 L 36.472656 59.738281 C 36.570312 59.535156 36.523438 59.296875 36.359375 59.136719 C 36.257812 59.03125 36.113281 58.96875 35.960938 58.964844 C 35.808594 58.960938 35.664062 59.019531 35.558594 59.125 C 35.363281 59.324219 35.355469 59.636719 35.542969 59.84375 C 35.664062 59.980469 35.847656 60.050781 36.035156 60.03125 L 36.035156 60.089844 C 35.890625 60.101562 35.753906 60.164062 35.660156 60.265625 C 35.464844 60.464844 35.460938 60.777344 35.648438 60.984375 C 35.855469 61.171875 36.175781 61.175781 36.386719 60.996094 C 36.582031 60.796875 36.589844 60.484375 36.402344 60.277344 C 36.523438 60.277344 36.707031 60.402344 37.007812 60.945312 L 37.257812 60.769531 C 36.644531 60.402344 36.652344 60.160156 36.652344 60.160156 C 36.753906 60.269531 36.898438 60.332031 37.050781 60.335938 C 37.199219 60.335938 37.347656 60.277344 37.453125 60.175781 C 37.566406 60.074219 37.628906 59.933594 37.632812 59.789062 C 37.632812 59.640625 37.574219 59.5 37.46875 59.394531 C 37.261719 59.207031 36.9375 59.203125 36.726562 59.382812 Z M 38.601562 61.570312 C 38.507812 61.648438 38.4375 61.75 38.410156 61.867188 L 38.347656 61.867188 C 38.445312 61.664062 38.402344 61.425781 38.238281 61.265625 C 38.132812 61.160156 37.988281 61.097656 37.839844 61.09375 C 37.6875 61.089844 37.539062 61.148438 37.433594 61.253906 C 37.324219 61.351562 37.257812 61.492188 37.253906 61.640625 C 37.253906 61.785156 37.3125 61.925781 37.421875 62.03125 C 37.554688 62.148438 37.734375 62.195312 37.910156 62.160156 L 37.910156 62.277344 C 37.773438 62.269531 37.644531 62.3125 37.535156 62.394531 C 37.425781 62.492188 37.359375 62.632812 37.359375 62.777344 C 37.355469 62.925781 37.414062 63.066406 37.523438 63.171875 C 37.730469 63.359375 38.050781 63.367188 38.265625 63.183594 C 38.460938 62.984375 38.464844 62.671875 38.277344 62.464844 C 38.402344 62.46875 38.585938 62.53125 38.882812 63.074219 L 39.132812 62.898438 C 38.523438 62.527344 38.527344 62.347656 38.527344 62.289062 C 38.710938 62.472656 39.078125 62.539062 39.332031 62.304688 C 39.582031 62.066406 39.585938 61.769531 39.34375 61.585938 C 39.136719 61.394531 38.816406 61.390625 38.601562 61.570312 Z M 38.601562 61.570312 "/>
<path style=" stroke:none;fill-rule:nonzero;fill:rgb(26.666668%,60.000002%,40.000001%);fill-opacity:1;" d="M 30.203125 16.621094 C 37.199219 16.304688 44.207031 16.503906 51.167969 17.21875 L 51.660156 15.367188 C 51.660156 15.367188 43.152344 14.171875 30.082031 14.769531 Z M 30.203125 16.621094 "/>
<path style=" stroke:none;fill-rule:nonzero;fill:rgb(93.333334%,86.666667%,86.666667%);fill-opacity:1;" d="M 15.613281 42.597656 C 15.699219 42.746094 15.699219 42.929688 15.613281 43.078125 L 15.734375 43.078125 C 15.753906 42.941406 15.820312 42.8125 15.921875 42.71875 C 16.167969 42.539062 16.539062 42.539062 16.664062 42.71875 C 16.785156 42.898438 16.785156 43.316406 16.539062 43.4375 C 16.292969 43.617188 15.984375 43.617188 15.796875 43.4375 C 15.796875 43.496094 15.859375 43.675781 16.355469 44.035156 L 16.105469 44.214844 C 15.859375 43.675781 15.675781 43.617188 15.613281 43.617188 C 15.796875 43.796875 15.734375 44.097656 15.488281 44.277344 C 15.242188 44.457031 14.933594 44.515625 14.746094 44.277344 C 14.625 44.097656 14.625 43.796875 14.871094 43.617188 C 14.96875 43.519531 15.101562 43.453125 15.242188 43.4375 C 15.117188 43.4375 14.933594 43.4375 14.808594 43.316406 C 14.988281 42.984375 15.269531 42.710938 15.613281 42.539062 Z M 17.589844 44.636719 C 17.488281 44.730469 17.421875 44.859375 17.402344 44.996094 L 17.28125 44.996094 C 17.394531 44.832031 17.394531 44.617188 17.28125 44.457031 C 17.09375 44.277344 16.785156 44.277344 16.539062 44.457031 C 16.292969 44.636719 16.230469 44.933594 16.414062 45.175781 C 16.539062 45.292969 16.722656 45.355469 16.910156 45.292969 L 16.910156 45.355469 C 16.785156 45.355469 16.664062 45.355469 16.539062 45.472656 C 16.292969 45.714844 16.230469 46.011719 16.414062 46.191406 C 16.601562 46.371094 16.910156 46.371094 17.15625 46.191406 C 17.375 46.042969 17.429688 45.75 17.28125 45.535156 C 17.34375 45.535156 17.527344 45.535156 17.773438 46.132812 L 18.023438 45.894531 C 17.527344 45.59375 17.402344 45.414062 17.464844 45.292969 C 17.652344 45.535156 17.960938 45.535156 18.207031 45.355469 C 18.453125 45.175781 18.515625 44.875 18.332031 44.636719 C 18.144531 44.457031 17.835938 44.457031 17.589844 44.636719 Z M 19.257812 46.550781 C 19.164062 46.632812 19.101562 46.734375 19.070312 46.851562 L 18.949219 46.851562 C 19.035156 46.703125 19.035156 46.519531 18.949219 46.371094 C 18.761719 46.191406 18.453125 46.191406 18.207031 46.371094 C 17.960938 46.550781 17.898438 46.851562 18.082031 47.03125 C 18.207031 47.210938 18.390625 47.210938 18.578125 47.210938 L 18.207031 47.390625 C 17.960938 47.570312 17.898438 47.871094 18.082031 48.109375 C 18.269531 48.289062 18.578125 48.289062 18.824219 48.109375 C 19.070312 47.929688 19.132812 47.628906 18.949219 47.390625 C 19.011719 47.390625 19.195312 47.511719 19.441406 47.988281 L 19.6875 47.808594 C 19.195312 47.511719 19.070312 47.332031 19.132812 47.210938 C 19.320312 47.449219 19.628906 47.449219 19.875 47.210938 C 20.121094 46.972656 20.183594 46.730469 20 46.613281 C 19.8125 46.371094 19.503906 46.371094 19.257812 46.550781 Z M 20.863281 48.46875 C 20.773438 48.546875 20.707031 48.652344 20.675781 48.769531 L 20.554688 48.769531 C 20.640625 48.621094 20.640625 48.4375 20.554688 48.289062 C 20.367188 48.050781 20.058594 48.050781 19.8125 48.289062 C 19.566406 48.527344 19.503906 48.769531 19.6875 48.949219 C 19.8125 49.066406 20 49.128906 20.183594 49.066406 L 20.183594 49.1875 C 20.058594 49.1875 19.9375 49.1875 19.8125 49.308594 C 19.566406 49.488281 19.503906 49.785156 19.6875 50.027344 C 19.875 50.207031 20.183594 50.207031 20.429688 50.027344 C 20.675781 49.847656 20.738281 49.488281 20.554688 49.308594 C 20.617188 49.308594 20.800781 49.367188 21.046875 49.90625 L 21.296875 49.726562 C 20.800781 49.425781 20.675781 49.246094 20.738281 49.128906 C 20.925781 49.367188 21.234375 49.367188 21.480469 49.128906 C 21.726562 49.007812 21.789062 48.648438 21.605469 48.46875 C 21.417969 48.289062 21.109375 48.230469 20.863281 48.46875 Z M 22.53125 50.324219 C 22.429688 50.421875 22.363281 50.546875 22.34375 50.683594 L 22.222656 50.683594 C 22.308594 50.535156 22.308594 50.355469 22.222656 50.207031 C 22.035156 49.964844 21.726562 49.964844 21.480469 50.207031 C 21.234375 50.445312 21.171875 50.683594 21.355469 50.804688 C 21.480469 50.984375 21.664062 51.042969 21.851562 50.984375 L 21.851562 51.042969 C 21.710938 51.0625 21.578125 51.125 21.480469 51.222656 C 21.234375 51.402344 21.171875 51.703125 21.355469 51.882812 C 21.542969 52.121094 21.851562 52.121094 22.097656 51.882812 C 22.316406 51.730469 22.371094 51.4375 22.222656 51.222656 C 22.285156 51.222656 22.46875 51.285156 22.714844 51.824219 L 22.902344 51.644531 C 22.46875 51.285156 22.40625 51.105469 22.40625 51.042969 C 22.59375 51.222656 22.902344 51.285156 23.148438 51.042969 C 23.394531 50.863281 23.457031 50.566406 23.273438 50.386719 C 23.085938 50.207031 22.777344 50.144531 22.53125 50.386719 Z M 24.136719 52.242188 C 24.035156 52.335938 23.96875 52.464844 23.953125 52.601562 L 23.828125 52.601562 C 23.941406 52.4375 23.941406 52.226562 23.828125 52.0625 C 23.640625 51.882812 23.332031 51.882812 23.085938 52.0625 C 22.839844 52.242188 22.777344 52.542969 22.964844 52.78125 C 23.085938 52.902344 23.273438 52.960938 23.457031 52.902344 L 23.457031 52.960938 C 23.332031 52.960938 23.210938 52.960938 23.085938 53.082031 C 22.839844 53.320312 22.777344 53.621094 22.964844 53.800781 C 23.148438 53.980469 23.457031 53.980469 23.703125 53.800781 C 23.953125 53.621094 24.011719 53.320312 23.828125 53.140625 C 23.890625 53.140625 24.074219 53.140625 24.320312 53.738281 L 24.570312 53.5 C 24.074219 53.199219 23.953125 53.019531 24.011719 52.902344 C 24.199219 53.140625 24.507812 53.140625 24.753906 52.960938 C 25 52.78125 25.0625 52.480469 24.878906 52.242188 C 24.691406 52.003906 24.382812 52.0625 24.136719 52.242188 Z M 25.804688 54.160156 C 25.714844 54.238281 25.648438 54.34375 25.617188 54.457031 L 25.496094 54.457031 C 25.582031 54.308594 25.582031 54.125 25.496094 53.980469 C 25.308594 53.800781 25 53.800781 24.753906 53.980469 C 24.507812 54.160156 24.445312 54.457031 24.628906 54.636719 C 24.753906 54.816406 24.941406 54.816406 25.125 54.816406 L 24.753906 54.996094 C 24.507812 55.175781 24.445312 55.535156 24.628906 55.714844 C 24.816406 55.894531 25.125 55.894531 25.371094 55.714844 C 25.617188 55.535156 25.679688 55.238281 25.496094 54.996094 C 25.558594 54.996094 25.742188 55.117188 25.988281 55.597656 L 26.238281 55.417969 C 25.742188 55.117188 25.617188 54.9375 25.679688 54.816406 C 25.867188 55.058594 26.175781 55.058594 26.421875 54.816406 C 26.667969 54.699219 26.730469 54.398438 26.546875 54.21875 C 26.359375 54.039062 26.050781 53.980469 25.804688 54.160156 Z M 27.410156 56.074219 C 27.320312 56.15625 27.253906 56.257812 27.226562 56.375 L 27.101562 56.375 C 27.191406 56.226562 27.191406 56.042969 27.101562 55.894531 C 26.917969 55.65625 26.605469 55.65625 26.359375 55.894531 C 26.113281 56.136719 26.050781 56.375 26.238281 56.554688 C 26.359375 56.675781 26.546875 56.734375 26.730469 56.675781 L 26.730469 56.792969 C 26.597656 56.792969 26.46875 56.835938 26.359375 56.914062 C 26.113281 57.09375 26.050781 57.394531 26.238281 57.632812 C 26.421875 57.8125 26.730469 57.8125 26.976562 57.632812 C 27.226562 57.453125 27.285156 57.09375 27.101562 56.914062 C 27.164062 56.914062 27.347656 56.972656 27.59375 57.511719 L 27.84375 57.332031 C 27.347656 57.035156 27.226562 56.855469 27.285156 56.734375 C 27.472656 56.972656 27.78125 56.972656 28.027344 56.734375 C 28.273438 56.613281 28.335938 56.253906 28.152344 56.074219 C 27.964844 55.894531 27.65625 55.894531 27.410156 56.074219 Z M 29.078125 57.929688 L 28.894531 58.289062 L 28.769531 58.289062 C 28.859375 58.144531 28.859375 57.960938 28.769531 57.8125 C 28.585938 57.574219 28.273438 57.574219 28.027344 57.8125 C 27.78125 58.050781 27.71875 58.289062 27.90625 58.410156 C 28.027344 58.589844 28.214844 58.648438 28.398438 58.589844 L 28.398438 58.648438 L 28.027344 58.828125 C 27.78125 59.007812 27.71875 59.308594 27.90625 59.488281 C 28.089844 59.726562 28.398438 59.726562 28.644531 59.488281 C 28.894531 59.308594 28.953125 59.007812 28.769531 58.828125 C 28.832031 58.828125 29.015625 58.890625 29.261719 59.429688 L 29.511719 59.25 C 29.015625 58.890625 28.894531 58.710938 28.953125 58.648438 C 29.140625 58.828125 29.449219 58.890625 29.695312 58.648438 C 29.941406 58.46875 30.003906 58.171875 29.820312 57.992188 C 29.632812 57.8125 29.324219 57.75 29.078125 57.992188 Z M 30.683594 59.847656 C 30.582031 59.945312 30.515625 60.070312 30.5 60.207031 L 30.375 60.207031 C 30.488281 60.042969 30.488281 59.832031 30.375 59.667969 C 30.191406 59.488281 29.882812 59.488281 29.632812 59.667969 C 29.386719 59.847656 29.324219 60.148438 29.511719 60.386719 C 29.632812 60.507812 29.820312 60.566406 30.003906 60.507812 L 30.003906 60.566406 C 29.882812 60.566406 29.757812 60.566406 29.632812 60.6875 C 29.386719 60.925781 29.324219 61.226562 29.511719 61.40625 C 29.695312 61.585938 30.003906 61.585938 30.25 61.40625 C 30.5 61.226562 30.558594 60.925781 30.375 60.746094 C 30.4375 60.746094 30.621094 60.746094 30.871094 61.34375 L 31.117188 61.105469 C 30.621094 60.804688 30.5 60.625 30.558594 60.507812 C 30.746094 60.746094 31.054688 60.746094 31.300781 60.566406 C 31.546875 60.386719 31.609375 60.085938 31.425781 59.847656 C 31.238281 59.667969 30.929688 59.667969 30.683594 59.847656 Z M 32.351562 61.765625 C 32.261719 61.84375 32.195312 61.949219 32.167969 62.0625 L 32.042969 62.0625 C 32.132812 61.914062 32.132812 61.734375 32.042969 61.585938 C 31.859375 61.40625 31.546875 61.40625 31.300781 61.585938 C 31.054688 61.765625 30.992188 62.0625 31.179688 62.242188 C 31.300781 62.421875 31.488281 62.421875 31.671875 62.421875 C 31.53125 62.441406 31.398438 62.503906 31.300781 62.601562 C 31.054688 62.78125 30.992188 63.140625 31.179688 63.320312 C 31.363281 63.5 31.671875 63.5 31.917969 63.320312 C 32.167969 63.140625 32.226562 62.84375 32.042969 62.601562 C 32.105469 62.601562 32.289062 62.722656 32.535156 63.203125 L 32.785156 63.023438 C 32.289062 62.722656 32.167969 62.542969 32.226562 62.421875 C 32.414062 62.664062 32.722656 62.664062 32.96875 62.421875 C 33.214844 62.304688 33.277344 62.003906 33.09375 61.824219 C 32.90625 61.644531 32.597656 61.585938 32.351562 61.765625 Z M 32.351562 61.765625 "/>
<path style=" stroke:none;fill-rule:nonzero;fill:rgb(33.333334%,46.666667%,53.333336%);fill-opacity:1;" d="M 72.253906 57.992188 L 70.15625 60.683594 L 72.128906 65.46875 L 74.226562 62.894531 Z M 72.253906 57.992188 "/>
<path style=" stroke:none;fill-rule:nonzero;fill:rgb(93.333334%,33.333334%,26.666668%);fill-opacity:1;" d="M 61.15625 52.3125 C 64.855469 56.859375 68.617188 61.28125 71.574219 67.976562 L 48.886719 65.46875 L 45.371094 61.164062 Z M 61.15625 52.3125 "/>
<path style=" stroke:none;fill-rule:nonzero;fill:rgb(90.588236%,72.156864%,57.254905%);fill-opacity:1;" d="M 68.617188 59.367188 L 64.363281 53.511719 L 66.765625 50.9375 C 66.765625 50.9375 68.308594 49.742188 69.046875 48.25 C 69.292969 47.890625 70.527344 48.308594 69.417969 50.042969 L 68.617188 51.777344 L 72.5625 48.609375 C 72.5625 48.609375 74.78125 46.695312 74.84375 47.53125 C 74.90625 48.128906 74.042969 49.265625 73.671875 49.503906 C 73.300781 49.742188 70.652344 52.792969 70.652344 52.792969 L 73.917969 50.402344 C 73.917969 50.402344 76.324219 48.488281 76.507812 48.847656 C 77.308594 50.042969 75.707031 51.058594 75.273438 51.359375 C 74.84375 51.597656 71.699219 54.347656 71.699219 54.347656 L 76.015625 52.015625 C 76.015625 52.015625 77.554688 50.878906 77.679688 51.296875 C 77.988281 52.375 76.816406 53.089844 76.632812 53.269531 L 72.992188 55.542969 L 74.105469 55.363281 C 74.105469 55.363281 77.433594 54.226562 77.433594 54.527344 C 77.554688 55.902344 71.636719 58.234375 71.636719 58.234375 C 71.636719 58.234375 69.417969 58.949219 68.617188 59.367188 Z M 68.617188 59.367188 "/>
<path style=" stroke:none;fill-rule:nonzero;fill:rgb(21.960784%,25.098041%,27.843139%);fill-opacity:1;" d="M 63.4375 51.058594 L 76.136719 68.457031 L 71.574219 67.976562 L 61.15625 52.3125 Z M 63.4375 51.058594 "/>
<path style=" stroke:none;fill-rule:nonzero;fill:rgb(33.333334%,46.666667%,53.333336%);fill-opacity:1;" d="M 63.558594 52.246094 C 63.46875 52.300781 63.402344 52.382812 63.363281 52.476562 L 63.304688 52.476562 C 63.386719 52.347656 63.390625 52.1875 63.316406 52.058594 C 63.199219 51.871094 62.894531 51.800781 62.703125 51.976562 C 62.511719 52.148438 62.378906 52.382812 62.496094 52.566406 C 62.601562 52.6875 62.765625 52.738281 62.925781 52.703125 L 62.921875 52.761719 C 62.808594 52.761719 62.695312 52.800781 62.609375 52.871094 C 62.359375 52.984375 62.285156 53.28125 62.464844 53.464844 C 62.582031 53.589844 62.828125 53.65625 63.082031 53.488281 C 63.269531 53.347656 63.332031 53.097656 63.226562 52.890625 C 63.226562 52.890625 63.40625 53.019531 63.574219 53.503906 L 63.765625 53.332031 C 63.40625 53.019531 63.351562 52.835938 63.414062 52.777344 C 63.53125 52.960938 63.777344 53.03125 64.03125 52.859375 C 64.21875 52.722656 64.28125 52.472656 64.175781 52.265625 C 64.058594 52.140625 63.75 52.070312 63.558594 52.246094 Z M 64.792969 53.964844 C 64.695312 54.035156 64.625 54.140625 64.597656 54.257812 L 64.535156 54.253906 C 64.644531 54.113281 64.652344 53.925781 64.554688 53.777344 C 64.4375 53.59375 64.128906 53.582031 63.9375 53.753906 C 63.746094 53.929688 63.617188 54.105469 63.730469 54.347656 C 63.835938 54.464844 64 54.519531 64.15625 54.480469 C 64.042969 54.484375 63.933594 54.519531 63.84375 54.589844 C 63.589844 54.761719 63.519531 55 63.699219 55.1875 C 63.878906 55.371094 64.0625 55.378906 64.316406 55.265625 C 64.503906 55.128906 64.566406 54.878906 64.460938 54.671875 C 64.460938 54.671875 64.644531 54.738281 64.808594 55.285156 L 65.003906 55.050781 C 64.640625 54.796875 64.585938 54.617188 64.648438 54.558594 C 64.765625 54.742188 65.011719 54.75 65.265625 54.578125 C 65.445312 54.460938 65.507812 54.234375 65.410156 54.046875 C 65.292969 53.863281 64.984375 53.851562 64.792969 54.023438 Z M 65.964844 55.742188 C 65.878906 55.796875 65.808594 55.878906 65.773438 55.976562 L 65.710938 55.972656 C 65.792969 55.847656 65.796875 55.6875 65.726562 55.554688 C 65.609375 55.371094 65.304688 55.300781 65.109375 55.472656 C 64.917969 55.648438 64.789062 55.882812 64.90625 56.066406 C 65.011719 56.183594 65.175781 56.238281 65.332031 56.199219 L 65.328125 56.261719 C 65.214844 56.261719 65.105469 56.296875 65.015625 56.371094 C 64.765625 56.480469 64.691406 56.777344 64.871094 56.964844 C 64.988281 57.148438 65.234375 57.15625 65.488281 56.984375 C 65.679688 56.871094 65.75 56.632812 65.632812 56.390625 C 65.632812 56.390625 65.816406 56.515625 65.984375 57 L 66.175781 56.828125 C 65.816406 56.515625 65.757812 56.394531 65.824219 56.277344 C 65.941406 56.460938 66.1875 56.527344 66.4375 56.359375 C 66.691406 56.1875 66.699219 55.945312 66.585938 55.761719 C 66.464844 55.640625 66.160156 55.570312 65.964844 55.742188 Z M 67.203125 57.460938 C 67.101562 57.53125 67.03125 57.636719 67.007812 57.753906 L 66.945312 57.753906 C 67.054688 57.613281 67.058594 57.421875 66.960938 57.273438 C 66.84375 57.089844 66.535156 57.078125 66.34375 57.253906 C 66.152344 57.425781 66.023438 57.601562 66.136719 57.84375 C 66.242188 57.964844 66.410156 58.015625 66.566406 57.980469 C 66.453125 57.980469 66.339844 58.019531 66.253906 58.089844 C 66 58.261719 65.929688 58.496094 66.109375 58.683594 C 66.226562 58.867188 66.472656 58.875 66.722656 58.765625 C 66.914062 58.625 66.972656 58.375 66.867188 58.167969 C 66.867188 58.167969 67.050781 58.234375 67.21875 58.78125 L 67.410156 58.546875 C 67.050781 58.296875 66.992188 58.113281 67.058594 58.054688 C 67.175781 58.238281 67.421875 58.25 67.675781 58.078125 C 67.863281 57.964844 67.933594 57.726562 67.816406 57.542969 C 67.699219 57.359375 67.390625 57.347656 67.199219 57.523438 Z M 68.4375 59.242188 C 68.347656 59.296875 68.28125 59.378906 68.242188 59.476562 L 68.179688 59.472656 C 68.261719 59.347656 68.269531 59.1875 68.195312 59.054688 C 68.078125 58.871094 67.773438 58.800781 67.582031 58.972656 C 67.328125 59.085938 67.257812 59.382812 67.375 59.566406 C 67.480469 59.683594 67.644531 59.734375 67.800781 59.699219 L 67.800781 59.757812 C 67.6875 59.761719 67.574219 59.796875 67.488281 59.867188 C 67.234375 59.980469 67.164062 60.277344 67.339844 60.464844 C 67.457031 60.648438 67.707031 60.65625 67.960938 60.484375 C 68.148438 60.371094 68.21875 60.132812 68.105469 59.890625 C 68.105469 59.890625 68.285156 60.015625 68.453125 60.5 L 68.644531 60.328125 C 68.285156 60.015625 68.226562 59.894531 68.292969 59.777344 C 68.410156 60.019531 68.71875 60.03125 68.90625 59.917969 C 69.097656 59.804688 69.167969 59.507812 69.050781 59.324219 C 68.933594 59.140625 68.628906 59.070312 68.4375 59.242188 Z M 69.671875 60.960938 C 69.570312 61.03125 69.5 61.136719 69.476562 61.253906 L 69.414062 61.253906 C 69.523438 61.113281 69.53125 60.921875 69.433594 60.773438 C 69.316406 60.589844 69.007812 60.578125 68.816406 60.753906 C 68.5625 60.863281 68.492188 61.101562 68.609375 61.34375 C 68.714844 61.464844 68.878906 61.515625 69.035156 61.480469 C 68.921875 61.480469 68.8125 61.519531 68.722656 61.589844 C 68.46875 61.761719 68.398438 61.996094 68.578125 62.183594 C 68.695312 62.367188 68.941406 62.433594 69.191406 62.265625 C 69.382812 62.125 69.441406 61.875 69.339844 61.667969 C 69.339844 61.667969 69.519531 61.796875 69.6875 62.28125 L 69.878906 62.105469 C 69.519531 61.796875 69.464844 61.613281 69.53125 61.496094 L 69.527344 61.554688 C 69.644531 61.738281 69.890625 61.75 70.140625 61.636719 C 70.332031 61.5 70.390625 61.25 70.289062 61.042969 C 70.171875 60.859375 69.863281 60.847656 69.671875 61.019531 Z M 70.847656 62.679688 C 70.746094 62.75 70.675781 62.855469 70.652344 62.972656 L 70.589844 62.96875 C 70.671875 62.84375 70.675781 62.683594 70.605469 62.550781 C 70.488281 62.367188 70.179688 62.355469 69.988281 62.53125 C 69.796875 62.703125 69.664062 62.878906 69.78125 63.0625 C 69.886719 63.183594 70.050781 63.234375 70.210938 63.195312 L 70.207031 63.257812 C 70.09375 63.257812 69.984375 63.296875 69.894531 63.367188 C 69.644531 63.476562 69.570312 63.773438 69.75 63.960938 C 69.867188 64.144531 70.113281 64.152344 70.367188 63.980469 C 70.558594 63.867188 70.628906 63.628906 70.511719 63.386719 C 70.511719 63.386719 70.691406 63.511719 70.859375 64 L 71.050781 63.824219 C 70.691406 63.511719 70.636719 63.390625 70.699219 63.332031 C 70.816406 63.515625 71.0625 63.527344 71.316406 63.355469 C 71.507812 63.242188 71.578125 63.003906 71.460938 62.761719 C 71.34375 62.636719 71.035156 62.566406 70.84375 62.738281 Z M 72.078125 64.519531 C 71.988281 64.574219 71.921875 64.65625 71.882812 64.753906 L 71.824219 64.75 C 71.90625 64.625 71.910156 64.464844 71.839844 64.332031 C 71.722656 64.085938 71.414062 64.078125 71.222656 64.25 C 70.972656 64.363281 70.902344 64.597656 71.015625 64.84375 C 71.121094 64.960938 71.285156 65.011719 71.445312 64.976562 C 71.328125 64.976562 71.21875 65.015625 71.132812 65.085938 C 70.878906 65.257812 70.808594 65.496094 70.984375 65.679688 C 71.101562 65.863281 71.347656 65.933594 71.601562 65.761719 C 71.789062 65.621094 71.851562 65.375 71.746094 65.167969 C 71.746094 65.167969 71.925781 65.292969 72.09375 65.777344 L 72.285156 65.605469 C 71.925781 65.292969 71.871094 65.109375 71.933594 65.054688 C 72.050781 65.238281 72.359375 65.308594 72.550781 65.132812 C 72.738281 64.996094 72.800781 64.746094 72.695312 64.539062 C 72.578125 64.355469 72.269531 64.347656 72.078125 64.519531 Z M 73.3125 66.238281 C 73.226562 66.292969 73.15625 66.375 73.121094 66.472656 L 73.058594 66.46875 C 73.140625 66.34375 73.144531 66.183594 73.074219 66.050781 C 72.957031 65.867188 72.648438 65.855469 72.457031 66.03125 C 72.265625 66.203125 72.136719 66.378906 72.253906 66.5625 C 72.359375 66.679688 72.523438 66.734375 72.679688 66.695312 L 72.675781 66.757812 C 72.5625 66.757812 72.453125 66.796875 72.363281 66.867188 C 72.109375 67.039062 72.039062 67.273438 72.21875 67.460938 C 72.335938 67.644531 72.582031 67.652344 72.835938 67.480469 C 73.027344 67.367188 73.097656 67.128906 72.980469 66.886719 C 72.980469 66.886719 73.164062 67.011719 73.332031 67.496094 L 73.523438 67.324219 C 73.164062 67.011719 73.105469 66.890625 73.167969 66.832031 C 73.285156 67.015625 73.535156 67.027344 73.785156 66.855469 C 73.976562 66.742188 74.046875 66.503906 73.933594 66.261719 C 73.8125 66.136719 73.507812 66.066406 73.3125 66.238281 Z M 73.3125 66.238281 "/>
<path style=" stroke:none;fill-rule:nonzero;fill:rgb(33.333334%,46.666667%,53.333336%);fill-opacity:1;" d="M 75.460938 62.539062 L 73.425781 57.695312 L 77.0625 58.414062 L 79.34375 63.496094 Z M 57.332031 19.433594 C 57.332031 19.433594 61.527344 21.34375 63.253906 24.871094 L 59.058594 23.855469 L 56.964844 26.605469 C 56.964844 26.605469 55.730469 23.617188 57.332031 19.433594 Z M 57.332031 19.433594 "/>
<path style=" stroke:none;fill-rule:nonzero;fill:rgb(21.960784%,25.098041%,27.843139%);fill-opacity:1;" d="M 68.617188 12.136719 C 68.957031 12.335938 69.117188 12.734375 69 13.101562 C 68.882812 13.472656 68.519531 13.714844 68.121094 13.691406 L 68.121094 13.8125 C 68.519531 13.75 68.910156 13.960938 69.058594 14.324219 C 69.210938 14.6875 69.085938 15.101562 68.753906 15.324219 C 68.425781 15.546875 67.980469 15.519531 67.683594 15.261719 C 67.382812 15 67.308594 14.570312 67.507812 14.230469 L 67.507812 14.171875 L 67.320312 14.351562 C 67.070312 14.75 66.921875 15.199219 66.890625 15.664062 L 66.027344 15.066406 C 66.417969 14.84375 66.753906 14.535156 67.011719 14.171875 L 67.136719 13.933594 C 66.941406 14.28125 66.519531 14.449219 66.128906 14.335938 C 65.734375 14.21875 65.480469 13.851562 65.519531 13.457031 C 65.554688 13.0625 65.875 12.746094 66.28125 12.703125 C 66.6875 12.65625 67.070312 12.898438 67.199219 13.273438 L 67.382812 13.273438 C 67.152344 12.9375 67.203125 12.484375 67.507812 12.203125 C 67.8125 11.921875 68.28125 11.894531 68.617188 12.136719 Z M 43.042969 7.761719 C 42.285156 7.761719 41.671875 8.355469 41.671875 9.089844 C 41.679688 9.558594 41.933594 9.988281 42.351562 10.226562 L 42.164062 10.363281 C 41.699219 9.988281 41.035156 9.957031 40.53125 10.28125 C 40.027344 10.609375 39.804688 11.21875 39.984375 11.777344 C 40.164062 12.339844 40.703125 12.71875 41.308594 12.710938 C 42.0625 12.710938 42.675781 12.117188 42.675781 11.386719 L 42.675781 11.296875 C 42.675781 11.296875 42.769531 11.476562 42.769531 11.792969 C 42.769531 12.675781 42.398438 13.238281 42.042969 13.765625 L 44.039062 13.765625 C 43.585938 13.195312 43.328125 12.496094 43.3125 11.773438 C 43.3125 11.476562 43.40625 11.296875 43.40625 11.296875 L 43.40625 11.386719 C 43.40625 12.007812 43.851562 12.542969 44.476562 12.679688 C 45.101562 12.8125 45.742188 12.507812 46.011719 11.945312 C 46.285156 11.382812 46.117188 10.710938 45.609375 10.332031 C 45.101562 9.953125 44.390625 9.964844 43.898438 10.363281 L 43.75 10.21875 C 44.15625 9.980469 44.40625 9.550781 44.410156 9.089844 C 44.410156 8.355469 43.796875 7.761719 43.042969 7.761719 Z M 43.042969 7.761719 "/>
<path style=" stroke:none;fill-rule:nonzero;fill:rgb(93.333334%,86.666667%,86.666667%);fill-opacity:1;" d="M 35.199219 63.914062 L 35.507812 63.554688 L 36.308594 64.03125 L 35.691406 64.511719 Z M 29.710938 63.316406 L 30.019531 62.894531 L 30.699219 63.433594 L 30.140625 63.851562 Z M 29.710938 63.316406 "/>
<path style=" stroke:none;fill-rule:nonzero;fill:rgb(93.333334%,33.333334%,26.666668%);fill-opacity:1;" d="M 48.886719 65.46875 L 63.683594 64.511719 L 71.574219 67.976562 L 54.558594 68.097656 Z M 48.886719 65.46875 "/>
<path style=" stroke:none;fill-rule:nonzero;fill:rgb(33.333334%,46.666667%,53.333336%);fill-opacity:1;" d="M 36.371094 64.03125 L 40.746094 63.433594 L 44.445312 64.929688 L 37.480469 66.246094 Z M 13.925781 61.582031 L 19.785156 60.144531 L 29.773438 63.316406 L 20.648438 64.871094 Z M 13.925781 61.582031 "/>
<path style=" stroke:none;fill-rule:nonzero;fill:rgb(21.960784%,25.098041%,27.843139%);fill-opacity:1;" d="M 71.574219 67.976562 L 74.660156 67.558594 L 76.136719 68.457031 L 73.054688 70.609375 Z M 71.574219 67.976562 "/>
<path style="fill-rule:nonzero;fill:rgb(93.333334%,80.000001%,26.666668%);fill-opacity:1;stroke-width:1;stroke-linecap:butt;stroke-linejoin:miter;stroke:rgb(93.333334%,80.000001%,26.666668%);stroke-opacity:1;stroke-miterlimit:4;" d="M 1569.698868 18.999459 C 1569.008301 19.437222 1568.501464 19.999126 1568.102329 20.80278 C 1564.801549 25.89912 1575.001657 57.600969 1562.60314 75.797517 C 1549.900521 94.399159 1554.601441 91.099605 1554.601441 91.099605 C 1554.601441 91.099605 1582.597887 97.901259 1569.5975 29.701774 C 1569.5975 29.701774 1569.198366 27.70244 1569.299733 25.997126 C 1570.820246 27.330015 1573.297415 27.767778 1574.697554 26.29768 C 1578.397469 22.397019 1574.038665 15.869784 1569.698868 18.999459 Z M 1569.698868 18.999459 " transform="matrix(-0.616568,0.000000000000000073,-0.000000000000000076,-0.597855,991.865494,129.796431)"/>
<path style=" stroke:none;fill-rule:nonzero;fill:rgb(21.960784%,25.098041%,27.843139%);fill-opacity:1;" d="M 14.542969 67.558594 L 15.777344 67.199219 L 17.441406 68.996094 L 17.75 72.101562 L 31.621094 106.421875 L 30.574219 106.777344 L 16.578125 72.402344 L 15.035156 70.011719 Z M 14.542969 67.558594 "/>
<path style=" stroke:none;fill-rule:nonzero;fill:rgb(33.333334%,46.666667%,53.333336%);fill-opacity:1;" d="M 38.589844 114.492188 C 38.589844 114.492188 29.464844 123.996094 46.542969 123.636719 C 52.957031 123.519531 54.25 121.605469 54.25 121.605469 C 54.25 121.605469 65.535156 121.007812 59.921875 115.269531 Z M 38.589844 114.492188 "/>
<path style=" stroke:none;fill-rule:nonzero;fill:rgb(90.588236%,72.156864%,57.254905%);fill-opacity:1;" d="M 52.152344 114.671875 C 47.34375 114.492188 42.71875 114.191406 38.898438 113.476562 L 39.390625 110.902344 L 37.417969 104.148438 L 39.574219 103.730469 L 39.328125 101.339844 L 40.746094 100.5625 L 40.625 99.484375 C 40.625 99.484375 42.226562 98.886719 41.242188 97.992188 C 40.378906 97.09375 39.574219 95.359375 43.953125 95.121094 C 46.605469 94.941406 47.835938 93.746094 45.617188 90.039062 C 45.617188 90.398438 47.652344 86.453125 50.550781 86.332031 C 54.988281 86.09375 60.109375 90.875 60.109375 90.875 C 60.109375 90.875 52.339844 111.203125 52.152344 114.671875 Z M 52.152344 114.671875 "/>
<path style=" stroke:none;fill-rule:nonzero;fill:rgb(68.235296%,68.627453%,69.411767%);fill-opacity:1;" d="M 49.070312 115.089844 C 49.070312 115.089844 47.222656 112.636719 48.023438 111.503906 C 50.425781 108.152344 50.304688 104.6875 49.195312 99.484375 C 49.195312 99.484375 44.695312 91.175781 64.792969 94.464844 C 64.792969 94.464844 59.058594 96.855469 61.527344 101.519531 C 63.683594 105.523438 59.183594 115.148438 59.183594 115.148438 Z M 49.070312 115.089844 "/>
<path style=" stroke:none;fill-rule:nonzero;fill:rgb(21.960784%,25.098041%,27.843139%);fill-opacity:1;" d="M 49.441406 115.207031 C 49.441406 115.207031 51.042969 120.410156 57.828125 119.332031 C 60.046875 118.976562 61.402344 117.539062 59.921875 115.269531 C 59.921875 115.269531 56.902344 114.851562 49.441406 115.207031 Z M 49.441406 115.207031 "/>
<path style=" stroke:none;fill-rule:nonzero;fill:rgb(47.058824%,47.843137%,48.627451%);fill-opacity:1;" d="M 49.503906 114.96875 L 48.453125 114.96875 C 47.503906 113.671875 47.125 112.054688 47.40625 110.484375 C 48.023438 108.453125 51.414062 109.46875 48.699219 101.398438 C 45.988281 93.328125 55.175781 93.804688 55.175781 93.804688 C 49.503906 95.417969 48.453125 98.46875 50.242188 104.148438 C 50.921875 106.421875 52.09375 106.71875 50.121094 109.527344 C 47.46875 113.296875 49.257812 113.894531 49.503906 114.910156 Z M 52.769531 114.253906 C 52.769531 114.253906 51.597656 112.277344 54.433594 108.332031 C 57.640625 103.730469 52.09375 102.234375 55.238281 97.8125 C 58.195312 93.625 62.636719 94.222656 64.484375 94.402344 C 63.003906 94.34375 57.578125 94.222656 55.851562 97.992188 C 54.003906 102.414062 57.703125 104.925781 55.238281 108.871094 C 52.769531 112.816406 52.769531 113.59375 52.769531 114.253906 Z M 64.484375 94.402344 L 64.792969 94.402344 L 64.421875 94.402344 Z M 64.484375 94.402344 "/>
<path style=" stroke:none;fill-rule:nonzero;fill:rgb(21.960784%,25.098041%,27.843139%);fill-opacity:1;" d="M 44.871094 90.550781 C 41.78125 90.015625 31.777344 75.21875 31.777344 75.21875 L 41.042969 64.679688 L 44.378906 65.039062 C 61.980469 71.328125 67.046875 76.359375 67.539062 89.355469 L 66.921875 89.714844 L 64.328125 90.3125 L 64.082031 90.074219 L 63.03125 90.3125 C 62.660156 89.894531 47.34375 84.085938 44.871094 90.492188 Z M 40.363281 111.277344 C 40.363281 111.277344 39.867188 110.019531 41.105469 109.480469 C 41.105469 109.480469 41.78125 109.597656 42.832031 110.019531 C 43.820312 110.378906 46.046875 110.136719 46.292969 109.777344 C 46.601562 109.417969 45.675781 111.996094 42.214844 110.976562 C 40.054688 110.378906 40.363281 111.214844 40.363281 111.214844 Z M 41.226562 108.761719 C 41.226562 108.761719 42.214844 108.402344 43.265625 108.699219 C 44.316406 109 45.613281 108.820312 46.230469 108.101562 C 46.230469 108.101562 44.808594 108.519531 43.574219 108.101562 C 43.574219 108.101562 43.820312 106.902344 43.082031 106.902344 C 42.339844 106.902344 42.402344 108.101562 42.402344 108.101562 C 42.402344 108.101562 41.535156 108.28125 41.226562 108.761719 Z M 41.226562 108.761719 "/>
<path style=" stroke:none;fill-rule:nonzero;fill:rgb(33.333334%,46.666667%,53.333336%);fill-opacity:1;" d="M 45.554688 65.167969 L 53.632812 66.066406 L 58.75 68.515625 L 60.292969 66.722656 L 76.078125 68.515625 L 76.078125 83.941406 C 76.078125 84.359375 76.078125 84.777344 75.953125 85.136719 L 72.5 88.304688 L 67.566406 89.320312 C 59.832031 81.621094 52.488281 73.558594 45.554688 65.167969 Z M 45.554688 65.167969 "/>
<path style=" stroke:none;fill-rule:nonzero;fill:rgb(21.960784%,25.098041%,27.843139%);fill-opacity:1;" d="M 73.300781 88.125 C 66.761719 81.117188 60.589844 73.792969 54.804688 66.183594 L 59.246094 66.664062 C 65.109375 72.761719 70.625 79.167969 75.769531 85.855469 C 75.351562 86.9375 74.441406 87.777344 73.300781 88.125 Z M 73.300781 88.125 "/>
<path style=" stroke:none;fill-rule:nonzero;fill:rgb(93.333334%,33.333334%,26.666668%);fill-opacity:1;" d="M 46.542969 91.890625 L 42.71875 90.039062 C 42.71875 90.039062 45.988281 85.257812 51.96875 85.613281 C 57.949219 85.972656 63.066406 90.21875 63.066406 90.21875 L 60.109375 90.816406 C 60.109375 90.816406 56.039062 88.902344 51.660156 88.84375 C 47.28125 88.722656 46.542969 91.832031 46.542969 91.832031 Z M 46.542969 91.890625 "/>
<path style=" stroke:none;fill-rule:nonzero;fill:rgb(93.333334%,86.666667%,86.666667%);fill-opacity:1;" d="M 75.769531 85.855469 L 59.246094 66.664062 L 60.292969 66.78125 L 76.015625 85.136719 C 75.953125 85.382812 75.871094 85.621094 75.769531 85.855469 Z M 72.5625 88.304688 L 53.695312 66.066406 L 54.804688 66.183594 L 73.300781 88.125 L 72.6875 88.246094 Z M 72.5625 88.304688 "/>
<path style=" stroke:none;fill-rule:nonzero;fill:rgb(26.666668%,60.000002%,40.000001%);fill-opacity:1;" d="M 64.363281 90.339844 L 65.410156 87.46875 L 60.355469 85.675781 L 59.613281 81.191406 L 54.867188 79.875 L 54.496094 75.570312 L 49.5625 74.375 L 48.699219 69.414062 L 44.695312 68.933594 Z M 59.304688 115.148438 C 59.304688 115.148438 58.75 111.5625 60.785156 108.214844 L 59.429688 108.8125 L 58.875 107.976562 C 58.875 107.976562 57.023438 110.367188 57.886719 115.148438 Z M 59.304688 115.148438 "/>
<path style=" stroke:none;fill-rule:nonzero;fill:rgb(93.333334%,33.333334%,26.666668%);fill-opacity:1;" d="M 46.542969 91.890625 L 31.808594 75.152344 L 33.65625 74.253906 C 33.65625 74.253906 43.152344 79.695312 43.953125 81.070312 C 44.820312 83.144531 45.5 85.285156 45.988281 87.46875 Z M 46.542969 91.890625 "/>
<path style=" stroke:none;fill-rule:nonzero;fill:rgb(26.666668%,60.000002%,40.000001%);fill-opacity:1;" d="M 46.542969 91.890625 C 46.542969 91.890625 37.292969 89.917969 34.953125 88.125 C 34.027344 87.410156 30.511719 82.085938 26.9375 77.363281 L 32.671875 74.675781 C 32.671875 74.675781 42.351562 80.054688 43.214844 81.730469 C 44.570312 84.300781 45.433594 88.722656 46.542969 91.890625 Z M 46.542969 91.890625 "/>
<path style=" stroke:none;fill-rule:nonzero;fill:rgb(21.960784%,25.098041%,27.843139%);fill-opacity:1;" d="M 41.917969 83.164062 C 41.917969 82.800781 41.769531 82.449219 41.503906 82.191406 C 41.238281 81.933594 40.875 81.789062 40.5 81.789062 C 40.125 81.789062 39.765625 81.933594 39.496094 82.191406 C 39.230469 82.449219 39.082031 82.800781 39.082031 83.164062 C 39.082031 83.527344 39.230469 83.878906 39.496094 84.136719 C 39.765625 84.394531 40.125 84.539062 40.5 84.539062 C 40.875 84.539062 41.238281 84.394531 41.503906 84.136719 C 41.769531 83.878906 41.917969 83.527344 41.917969 83.164062 Z M 41.917969 83.164062 "/>
<path style=" stroke:none;fill-rule:nonzero;fill:rgb(93.333334%,86.666667%,86.666667%);fill-opacity:1;" d="M 66.953125 89.738281 L 44.445312 64.988281 L 45.554688 65.167969 L 67.566406 89.320312 L 67.753906 89.5 Z M 66.953125 89.738281 "/>
<path style=" stroke:none;fill-rule:nonzero;fill:rgb(21.960784%,25.098041%,27.843139%);fill-opacity:1;" d="M 38.324219 114.808594 C 38.324219 114.808594 35.792969 117.027344 36.164062 119.898438 C 36.164062 119.898438 43.140625 119.183594 44.625 115.167969 Z M 39.4375 102.769531 C 39.4375 102.769531 41.90625 103.070312 42.339844 102.171875 C 42.769531 101.273438 43.328125 99.535156 44.070312 100.074219 C 44.808594 100.613281 44.316406 101.09375 44.128906 101.09375 C 43.945312 101.09375 45.550781 100.855469 44.128906 99.597656 C 42.769531 98.277344 41.535156 101.214844 41.414062 101.691406 C 41.289062 102.171875 39.3125 101.691406 39.3125 101.691406 Z M 41.660156 98.699219 C 41.660156 98.699219 42.402344 97.558594 42.09375 97.558594 C 41.78125 97.558594 40.734375 96.902344 40.734375 96.0625 C 40.734375 96.0625 39.683594 97.5 41.660156 98.699219 Z M 41.660156 98.699219 "/>
<path style=" stroke:none;fill-rule:nonzero;fill:rgb(21.960784%,25.098041%,27.843139%);fill-opacity:1;" d="M 68.347656 87.980469 C 68.472656 87.875 68.546875 87.726562 68.542969 87.566406 L 68.601562 87.566406 C 68.507812 87.769531 68.550781 88.007812 68.714844 88.167969 C 68.820312 88.273438 68.964844 88.335938 69.113281 88.339844 C 69.265625 88.34375 69.414062 88.285156 69.519531 88.179688 C 69.714844 87.980469 69.71875 87.667969 69.53125 87.460938 C 69.410156 87.324219 69.226562 87.253906 69.042969 87.273438 L 69.042969 87.214844 C 69.183594 87.203125 69.320312 87.140625 69.414062 87.039062 C 69.609375 86.839844 69.617188 86.527344 69.429688 86.320312 C 69.222656 86.132812 68.902344 86.128906 68.6875 86.308594 C 68.492188 86.507812 68.488281 86.820312 68.675781 87.027344 C 68.550781 87.027344 68.367188 86.902344 68.070312 86.359375 L 67.820312 86.535156 C 68.429688 86.902344 68.425781 87.144531 68.425781 87.144531 C 68.324219 87.035156 68.179688 86.972656 68.027344 86.96875 C 67.875 86.96875 67.730469 87.027344 67.621094 87.128906 C 67.511719 87.230469 67.445312 87.371094 67.445312 87.515625 C 67.441406 87.664062 67.5 87.804688 67.609375 87.910156 C 67.816406 88.097656 68.136719 88.101562 68.351562 87.921875 Z M 66.535156 85.792969 C 66.625 85.695312 66.667969 85.566406 66.664062 85.4375 L 66.726562 85.4375 C 66.628906 85.640625 66.675781 85.882812 66.839844 86.039062 C 66.941406 86.144531 67.085938 86.207031 67.238281 86.210938 C 67.390625 86.214844 67.535156 86.15625 67.640625 86.050781 C 67.753906 85.953125 67.816406 85.8125 67.820312 85.664062 C 67.824219 85.519531 67.765625 85.378906 67.65625 85.273438 C 67.523438 85.15625 67.339844 85.109375 67.164062 85.144531 L 67.167969 85.027344 C 67.300781 85.035156 67.433594 84.996094 67.539062 84.914062 C 67.652344 84.8125 67.714844 84.671875 67.71875 84.527344 C 67.71875 84.378906 67.660156 84.238281 67.554688 84.132812 C 67.347656 83.945312 67.023438 83.9375 66.8125 84.121094 C 66.617188 84.320312 66.609375 84.632812 66.800781 84.839844 C 66.675781 84.835938 66.492188 84.773438 66.191406 84.230469 L 65.941406 84.40625 C 66.554688 84.777344 66.550781 84.957031 66.550781 85.015625 C 66.445312 84.90625 66.300781 84.84375 66.152344 84.84375 C 66 84.839844 65.851562 84.898438 65.746094 85 C 65.550781 85.203125 65.546875 85.511719 65.734375 85.71875 C 65.941406 85.910156 66.261719 85.914062 66.472656 85.734375 Z M 64.597656 83.605469 C 64.703125 83.515625 64.773438 83.386719 64.789062 83.25 L 64.851562 83.25 C 64.753906 83.453125 64.800781 83.691406 64.964844 83.851562 C 65.066406 83.957031 65.210938 84.019531 65.363281 84.023438 C 65.515625 84.027344 65.660156 83.96875 65.765625 83.863281 C 65.960938 83.664062 65.96875 83.351562 65.78125 83.144531 C 65.660156 83.007812 65.472656 82.9375 65.289062 82.957031 L 65.289062 82.898438 C 65.425781 82.90625 65.554688 82.867188 65.664062 82.785156 C 65.773438 82.683594 65.839844 82.542969 65.839844 82.398438 C 65.84375 82.25 65.785156 82.109375 65.675781 82.003906 C 65.46875 81.816406 65.148438 81.8125 64.933594 81.992188 C 64.738281 82.191406 64.734375 82.503906 64.921875 82.710938 C 64.800781 82.710938 64.617188 82.585938 64.316406 82.042969 L 64.066406 82.21875 C 64.675781 82.585938 64.671875 82.828125 64.671875 82.886719 C 64.570312 82.777344 64.425781 82.714844 64.273438 82.714844 C 64.121094 82.710938 63.976562 82.769531 63.871094 82.875 C 63.683594 82.988281 63.613281 83.347656 63.855469 83.59375 C 64.097656 83.835938 64.347656 83.839844 64.597656 83.605469 Z M 62.71875 81.476562 C 62.828125 81.386719 62.898438 81.257812 62.914062 81.121094 L 62.972656 81.121094 C 62.878906 81.324219 62.921875 81.5625 63.085938 81.722656 C 63.191406 81.828125 63.332031 81.890625 63.484375 81.894531 C 63.636719 81.898438 63.78125 81.839844 63.890625 81.734375 C 64.085938 81.535156 64.089844 81.222656 63.902344 81.015625 C 63.78125 80.878906 63.597656 80.808594 63.410156 80.828125 L 63.414062 80.769531 C 63.554688 80.757812 63.691406 80.695312 63.785156 80.59375 C 63.980469 80.394531 63.988281 80.082031 63.800781 79.878906 C 63.605469 79.671875 63.292969 79.640625 63.058594 79.804688 C 62.949219 79.90625 62.882812 80.042969 62.882812 80.191406 C 62.878906 80.339844 62.9375 80.480469 63.046875 80.582031 C 62.921875 80.582031 62.738281 80.457031 62.441406 79.914062 L 62.191406 80.089844 C 62.800781 80.460938 62.796875 80.699219 62.796875 80.699219 C 62.695312 80.589844 62.550781 80.527344 62.398438 80.527344 C 62.246094 80.523438 62.101562 80.582031 61.992188 80.683594 C 61.796875 80.886719 61.792969 81.195312 61.980469 81.402344 C 62.175781 81.609375 62.488281 81.640625 62.71875 81.476562 Z M 60.84375 79.347656 C 60.949219 79.257812 61.019531 79.128906 61.035156 78.992188 L 61.097656 78.992188 C 61 79.195312 61.046875 79.4375 61.210938 79.59375 C 61.3125 79.703125 61.457031 79.765625 61.609375 79.765625 C 61.761719 79.769531 61.90625 79.710938 62.011719 79.605469 C 62.125 79.507812 62.1875 79.367188 62.191406 79.222656 C 62.195312 79.074219 62.132812 78.933594 62.027344 78.828125 C 61.894531 78.710938 61.710938 78.664062 61.535156 78.699219 L 61.539062 78.582031 C 61.671875 78.589844 61.804688 78.550781 61.910156 78.46875 C 62.019531 78.367188 62.085938 78.226562 62.089844 78.082031 C 62.089844 77.933594 62.03125 77.792969 61.925781 77.6875 C 61.804688 77.507812 61.433594 77.441406 61.183594 77.675781 C 60.929688 77.910156 60.925781 78.210938 61.167969 78.394531 C 61.046875 78.394531 60.863281 78.328125 60.5625 77.785156 L 60.3125 77.960938 C 60.925781 78.269531 60.921875 78.511719 60.917969 78.570312 C 60.738281 78.328125 60.367188 78.320312 60.117188 78.558594 C 59.867188 78.792969 59.859375 79.03125 60.105469 79.273438 C 60.308594 79.464844 60.632812 79.46875 60.84375 79.289062 Z M 58.96875 77.160156 C 59.074219 77.070312 59.144531 76.941406 59.160156 76.804688 L 59.222656 76.804688 C 59.125 77.007812 59.171875 77.246094 59.335938 77.40625 C 59.4375 77.511719 59.582031 77.574219 59.734375 77.578125 C 59.882812 77.582031 60.03125 77.523438 60.136719 77.417969 C 60.332031 77.21875 60.339844 76.90625 60.148438 76.699219 C 60.03125 76.5625 59.84375 76.492188 59.660156 76.511719 L 59.660156 76.453125 C 59.800781 76.441406 59.941406 76.378906 60.035156 76.277344 C 60.230469 76.078125 60.234375 75.765625 60.046875 75.558594 C 59.839844 75.371094 59.519531 75.367188 59.304688 75.546875 C 59.109375 75.75 59.105469 76.058594 59.292969 76.265625 C 59.167969 76.265625 58.988281 76.140625 58.6875 75.597656 L 58.4375 75.773438 C 59.046875 76.140625 59.042969 76.382812 59.042969 76.382812 C 58.941406 76.273438 58.796875 76.210938 58.644531 76.210938 C 58.492188 76.207031 58.347656 76.265625 58.242188 76.367188 C 58.128906 76.46875 58.066406 76.609375 58.0625 76.753906 C 58.058594 76.902344 58.121094 77.042969 58.226562 77.148438 C 58.433594 77.335938 58.753906 77.339844 58.96875 77.160156 Z M 57.089844 75.03125 C 57.199219 74.941406 57.269531 74.8125 57.28125 74.675781 L 57.34375 74.675781 C 57.25 74.878906 57.292969 75.121094 57.457031 75.277344 C 57.5625 75.386719 57.703125 75.449219 57.855469 75.449219 C 58.007812 75.453125 58.152344 75.394531 58.261719 75.289062 C 58.371094 75.191406 58.4375 75.050781 58.4375 74.902344 C 58.441406 74.757812 58.382812 74.617188 58.273438 74.511719 C 58.140625 74.394531 57.957031 74.347656 57.78125 74.382812 L 57.785156 74.265625 C 57.921875 74.273438 58.050781 74.234375 58.15625 74.152344 C 58.351562 73.949219 58.359375 73.640625 58.171875 73.433594 C 57.976562 73.226562 57.660156 73.195312 57.429688 73.359375 C 57.234375 73.558594 57.230469 73.871094 57.417969 74.078125 C 57.292969 74.078125 57.109375 74.011719 56.8125 73.46875 L 56.558594 73.644531 C 57.171875 74.015625 57.167969 74.253906 57.167969 74.253906 C 57.0625 74.144531 56.921875 74.082031 56.769531 74.082031 C 56.617188 74.078125 56.472656 74.136719 56.363281 74.238281 C 56.175781 74.417969 56.109375 74.773438 56.351562 74.957031 C 56.59375 75.144531 56.839844 75.207031 57.089844 75.03125 Z M 55.152344 72.902344 C 55.257812 72.8125 55.328125 72.683594 55.34375 72.546875 L 55.40625 72.546875 C 55.339844 72.730469 55.378906 72.941406 55.519531 73.085938 C 55.625 73.195312 55.765625 73.257812 55.917969 73.261719 C 56.070312 73.261719 56.214844 73.207031 56.324219 73.101562 C 56.519531 72.902344 56.523438 72.589844 56.335938 72.382812 C 56.214844 72.242188 56.03125 72.171875 55.84375 72.195312 C 55.988281 72.183594 56.125 72.121094 56.21875 72.019531 C 56.332031 71.921875 56.394531 71.78125 56.398438 71.636719 C 56.398438 71.488281 56.339844 71.347656 56.234375 71.242188 C 56.027344 71.054688 55.707031 71.046875 55.492188 71.230469 C 55.296875 71.429688 55.289062 71.742188 55.480469 71.949219 C 55.355469 71.945312 55.171875 71.882812 54.871094 71.339844 L 54.621094 71.457031 C 55.234375 71.824219 55.230469 72.066406 55.230469 72.125 C 55.125 72.015625 54.980469 71.953125 54.832031 71.953125 C 54.679688 71.949219 54.53125 72.007812 54.425781 72.109375 C 54.230469 72.3125 54.226562 72.621094 54.414062 72.828125 C 54.621094 73.019531 54.941406 73.023438 55.152344 72.84375 Z M 53.277344 70.714844 C 53.382812 70.625 53.453125 70.496094 53.46875 70.355469 L 53.53125 70.359375 C 53.433594 70.5625 53.480469 70.800781 53.644531 70.960938 C 53.746094 71.066406 53.890625 71.128906 54.042969 71.132812 C 54.191406 71.136719 54.339844 71.078125 54.445312 70.972656 C 54.640625 70.773438 54.648438 70.460938 54.460938 70.253906 C 54.339844 70.117188 54.152344 70.042969 53.96875 70.066406 L 53.96875 70.007812 C 54.113281 69.996094 54.25 69.933594 54.34375 69.832031 C 54.539062 69.632812 54.542969 69.320312 54.355469 69.113281 C 54.148438 68.925781 53.828125 68.917969 53.613281 69.101562 C 53.417969 69.300781 53.414062 69.613281 53.601562 69.820312 C 53.480469 69.820312 53.296875 69.695312 52.996094 69.152344 L 52.746094 69.328125 C 53.355469 69.695312 53.351562 69.9375 53.351562 69.9375 C 53.25 69.828125 53.105469 69.765625 52.953125 69.761719 C 52.804688 69.761719 52.65625 69.816406 52.550781 69.921875 C 52.4375 70.023438 52.375 70.160156 52.371094 70.308594 C 52.367188 70.457031 52.429688 70.597656 52.535156 70.699219 C 52.742188 70.890625 53.0625 70.894531 53.277344 70.714844 Z M 51.402344 68.523438 C 51.496094 68.449219 51.566406 68.347656 51.59375 68.230469 L 51.652344 68.230469 C 51.558594 68.433594 51.601562 68.671875 51.765625 68.832031 C 51.871094 68.9375 52.011719 69 52.164062 69.003906 C 52.316406 69.007812 52.460938 68.949219 52.570312 68.84375 C 52.679688 68.746094 52.746094 68.605469 52.746094 68.457031 C 52.75 68.3125 52.691406 68.167969 52.582031 68.066406 C 52.449219 67.949219 52.265625 67.902344 52.089844 67.9375 L 52.09375 67.816406 C 52.230469 67.828125 52.359375 67.785156 52.464844 67.703125 C 52.578125 67.605469 52.640625 67.464844 52.644531 67.320312 C 52.648438 67.171875 52.589844 67.03125 52.480469 66.925781 C 52.273438 66.738281 51.953125 66.730469 51.738281 66.914062 C 51.542969 67.113281 51.539062 67.425781 51.726562 67.632812 C 51.601562 67.628906 51.417969 67.566406 51.121094 67.023438 L 50.871094 67.199219 C 51.480469 67.566406 51.476562 67.746094 51.476562 67.808594 C 51.292969 67.625 50.925781 67.558594 50.671875 67.792969 C 50.421875 68.03125 50.417969 68.328125 50.660156 68.511719 C 50.867188 68.703125 51.1875 68.707031 51.402344 68.523438 Z M 51.402344 68.523438 "/>
<path style=" stroke:none;fill-rule:nonzero;fill:rgb(26.666668%,60.000002%,40.000001%);fill-opacity:1;" d="M 59.800781 113.476562 C 52.804688 113.792969 45.796875 113.59375 38.835938 112.878906 L 38.34375 114.730469 C 38.34375 114.730469 46.851562 115.925781 59.921875 115.328125 Z M 59.800781 113.476562 "/>
<path style=" stroke:none;fill-rule:nonzero;fill:rgb(93.333334%,86.666667%,86.666667%);fill-opacity:1;" d="M 74.390625 87.5 C 74.300781 87.351562 74.300781 87.167969 74.390625 87.019531 L 74.265625 87.019531 C 74.25 87.15625 74.183594 87.28125 74.082031 87.378906 C 73.835938 87.558594 73.464844 87.558594 73.339844 87.378906 C 73.21875 87.199219 73.21875 86.78125 73.464844 86.660156 C 73.710938 86.480469 74.019531 86.480469 74.207031 86.660156 C 74.207031 86.601562 74.144531 86.421875 73.648438 86.0625 L 73.898438 85.882812 C 74.144531 86.421875 74.328125 86.480469 74.390625 86.480469 C 74.207031 86.300781 74.265625 86 74.515625 85.820312 C 74.761719 85.640625 75.070312 85.582031 75.253906 85.820312 C 75.378906 86 75.378906 86.300781 75.132812 86.480469 C 75.035156 86.578125 74.902344 86.644531 74.761719 86.660156 C 74.886719 86.660156 75.070312 86.660156 75.195312 86.78125 C 75.015625 87.113281 74.734375 87.386719 74.390625 87.558594 Z M 72.414062 85.460938 C 72.515625 85.367188 72.582031 85.238281 72.597656 85.101562 L 72.722656 85.101562 C 72.609375 85.265625 72.609375 85.480469 72.722656 85.640625 C 72.910156 85.820312 73.21875 85.820312 73.464844 85.640625 C 73.710938 85.460938 73.773438 85.164062 73.585938 84.921875 C 73.464844 84.804688 73.277344 84.742188 73.09375 84.804688 L 73.09375 84.742188 C 73.21875 84.742188 73.339844 84.742188 73.464844 84.625 C 73.710938 84.382812 73.773438 84.085938 73.585938 83.90625 C 73.402344 83.726562 73.09375 83.726562 72.847656 83.90625 C 72.628906 84.054688 72.574219 84.347656 72.722656 84.5625 C 72.660156 84.5625 72.476562 84.5625 72.230469 83.964844 L 71.980469 84.203125 C 72.476562 84.503906 72.597656 84.683594 72.539062 84.804688 C 72.351562 84.5625 72.042969 84.5625 71.796875 84.742188 C 71.550781 84.921875 71.488281 85.222656 71.671875 85.460938 C 71.859375 85.640625 72.167969 85.640625 72.414062 85.460938 Z M 70.746094 83.546875 C 70.835938 83.464844 70.902344 83.363281 70.933594 83.246094 L 71.054688 83.246094 C 70.96875 83.394531 70.96875 83.578125 71.054688 83.726562 C 71.242188 83.90625 71.550781 83.90625 71.796875 83.726562 C 72.042969 83.546875 72.105469 83.246094 71.921875 83.066406 C 71.796875 82.886719 71.609375 82.886719 71.425781 82.886719 L 71.796875 82.707031 C 72.042969 82.527344 72.105469 82.226562 71.921875 81.988281 C 71.734375 81.808594 71.425781 81.808594 71.179688 81.988281 C 70.933594 82.167969 70.871094 82.46875 71.054688 82.707031 C 70.992188 82.707031 70.808594 82.585938 70.5625 82.109375 L 70.3125 82.289062 C 70.808594 82.585938 70.933594 82.765625 70.871094 82.886719 C 70.683594 82.648438 70.375 82.648438 70.128906 82.886719 C 69.882812 83.125 69.820312 83.367188 70.003906 83.484375 C 70.191406 83.726562 70.5 83.726562 70.746094 83.546875 Z M 69.140625 81.628906 C 69.230469 81.550781 69.296875 81.445312 69.324219 81.328125 L 69.449219 81.328125 C 69.359375 81.476562 69.359375 81.660156 69.449219 81.808594 C 69.632812 82.046875 69.945312 82.046875 70.191406 81.808594 C 70.4375 81.570312 70.5 81.328125 70.3125 81.148438 C 70.191406 81.03125 70.003906 80.96875 69.820312 81.03125 L 69.820312 80.910156 C 69.945312 80.910156 70.066406 80.910156 70.191406 80.789062 C 70.4375 80.609375 70.5 80.3125 70.3125 80.070312 C 70.128906 79.890625 69.820312 79.890625 69.574219 80.070312 C 69.324219 80.25 69.265625 80.609375 69.449219 80.789062 C 69.386719 80.789062 69.203125 80.730469 68.957031 80.191406 L 68.707031 80.371094 C 69.203125 80.671875 69.324219 80.851562 69.265625 80.96875 C 69.078125 80.730469 68.769531 80.730469 68.523438 80.96875 C 68.277344 81.089844 68.214844 81.449219 68.398438 81.628906 C 68.585938 81.808594 68.894531 81.867188 69.140625 81.628906 Z M 67.472656 79.773438 C 67.574219 79.675781 67.640625 79.550781 67.65625 79.414062 L 67.78125 79.414062 C 67.695312 79.5625 67.695312 79.742188 67.78125 79.890625 C 67.96875 80.132812 68.277344 80.132812 68.523438 79.890625 C 68.769531 79.652344 68.832031 79.414062 68.644531 79.292969 C 68.523438 79.113281 68.335938 79.054688 68.152344 79.113281 L 68.152344 79.054688 C 68.292969 79.035156 68.425781 78.972656 68.523438 78.875 C 68.769531 78.695312 68.832031 78.394531 68.644531 78.214844 C 68.460938 77.976562 68.152344 77.976562 67.90625 78.214844 C 67.6875 78.367188 67.632812 78.65625 67.78125 78.875 C 67.71875 78.875 67.535156 78.8125 67.289062 78.273438 L 67.101562 78.453125 C 67.535156 78.8125 67.597656 78.992188 67.597656 79.054688 C 67.410156 78.875 67.101562 78.8125 66.855469 79.054688 C 66.609375 79.234375 66.546875 79.53125 66.730469 79.710938 C 66.917969 79.890625 67.226562 79.953125 67.472656 79.710938 Z M 65.867188 77.855469 C 65.96875 77.761719 66.035156 77.632812 66.050781 77.496094 L 66.175781 77.496094 C 66.0625 77.660156 66.0625 77.871094 66.175781 78.035156 C 66.359375 78.214844 66.667969 78.214844 66.917969 78.035156 C 67.164062 77.855469 67.226562 77.554688 67.039062 77.316406 C 66.917969 77.195312 66.730469 77.136719 66.546875 77.195312 L 66.546875 77.136719 C 66.667969 77.136719 66.792969 77.136719 66.917969 77.015625 C 67.164062 76.777344 67.226562 76.476562 67.039062 76.296875 C 66.855469 76.117188 66.546875 76.117188 66.300781 76.296875 C 66.050781 76.476562 65.992188 76.777344 66.175781 76.957031 C 66.113281 76.957031 65.929688 76.957031 65.679688 76.359375 L 65.433594 76.597656 C 65.929688 76.898438 66.050781 77.078125 65.992188 77.195312 C 65.804688 76.957031 65.496094 76.957031 65.25 77.136719 C 65.003906 77.316406 64.941406 77.617188 65.125 77.855469 C 65.3125 78.09375 65.621094 78.035156 65.867188 77.855469 Z M 64.199219 75.9375 C 64.289062 75.859375 64.355469 75.753906 64.382812 75.640625 L 64.507812 75.640625 C 64.417969 75.789062 64.417969 75.96875 64.507812 76.117188 C 64.691406 76.296875 65.003906 76.296875 65.25 76.117188 C 65.496094 75.9375 65.558594 75.640625 65.371094 75.460938 C 65.25 75.28125 65.0625 75.28125 64.878906 75.28125 L 65.25 75.101562 C 65.496094 74.921875 65.558594 74.5625 65.371094 74.382812 C 65.1875 74.203125 64.878906 74.203125 64.632812 74.382812 C 64.382812 74.5625 64.324219 74.859375 64.507812 75.101562 C 64.445312 75.101562 64.261719 74.980469 64.015625 74.5 L 63.765625 74.679688 C 64.261719 74.980469 64.382812 75.160156 64.324219 75.28125 C 64.136719 75.039062 63.828125 75.039062 63.582031 75.28125 C 63.335938 75.398438 63.273438 75.699219 63.457031 75.878906 C 63.644531 76.058594 63.953125 76.117188 64.199219 75.9375 Z M 62.59375 74.023438 C 62.683594 73.941406 62.75 73.839844 62.777344 73.722656 L 62.902344 73.722656 C 62.8125 73.871094 62.8125 74.054688 62.902344 74.203125 C 63.085938 74.441406 63.394531 74.441406 63.644531 74.203125 C 63.890625 73.960938 63.953125 73.722656 63.765625 73.542969 C 63.644531 73.421875 63.457031 73.363281 63.273438 73.421875 L 63.273438 73.304688 C 63.40625 73.304688 63.535156 73.261719 63.644531 73.183594 C 63.890625 73.003906 63.953125 72.703125 63.765625 72.464844 C 63.582031 72.285156 63.273438 72.285156 63.023438 72.464844 C 62.777344 72.644531 62.714844 73.003906 62.902344 73.183594 C 62.839844 73.183594 62.65625 73.125 62.40625 72.585938 L 62.160156 72.765625 C 62.65625 73.0625 62.777344 73.242188 62.714844 73.363281 C 62.53125 73.125 62.222656 73.125 61.976562 73.363281 C 61.726562 73.484375 61.667969 73.84375 61.851562 74.023438 C 62.039062 74.203125 62.347656 74.203125 62.59375 74.023438 Z M 60.925781 72.164062 L 61.109375 71.804688 L 61.234375 71.804688 C 61.144531 71.953125 61.144531 72.136719 61.234375 72.285156 C 61.417969 72.523438 61.726562 72.523438 61.976562 72.285156 C 62.222656 72.046875 62.285156 71.804688 62.097656 71.6875 C 61.976562 71.507812 61.789062 71.445312 61.605469 71.507812 L 61.605469 71.445312 L 61.976562 71.265625 C 62.222656 71.085938 62.285156 70.789062 62.097656 70.609375 C 61.914062 70.367188 61.605469 70.367188 61.359375 70.609375 C 61.109375 70.789062 61.050781 71.085938 61.234375 71.265625 C 61.171875 71.265625 60.988281 71.207031 60.738281 70.667969 L 60.492188 70.847656 C 60.988281 71.207031 61.109375 71.386719 61.050781 71.445312 C 60.863281 71.265625 60.554688 71.207031 60.308594 71.445312 C 60.0625 71.625 60 71.925781 60.183594 72.105469 C 60.371094 72.285156 60.679688 72.34375 60.925781 72.105469 Z M 59.320312 70.25 C 59.421875 70.152344 59.488281 70.027344 59.503906 69.890625 L 59.628906 69.890625 C 59.515625 70.050781 59.515625 70.265625 59.628906 70.429688 C 59.8125 70.609375 60.121094 70.609375 60.371094 70.429688 C 60.617188 70.25 60.679688 69.949219 60.492188 69.710938 C 60.371094 69.589844 60.183594 69.53125 60 69.589844 L 60 69.53125 C 60.121094 69.53125 60.246094 69.53125 60.371094 69.410156 C 60.617188 69.171875 60.679688 68.871094 60.492188 68.691406 C 60.308594 68.511719 60 68.511719 59.75 68.691406 C 59.503906 68.871094 59.441406 69.171875 59.628906 69.351562 C 59.566406 69.351562 59.382812 69.351562 59.132812 68.75 L 58.886719 68.992188 C 59.382812 69.289062 59.503906 69.46875 59.441406 69.589844 C 59.257812 69.351562 58.949219 69.351562 58.703125 69.53125 C 58.453125 69.710938 58.394531 70.007812 58.578125 70.25 C 58.761719 70.429688 59.074219 70.429688 59.320312 70.25 Z M 57.652344 68.332031 C 57.742188 68.253906 57.808594 68.148438 57.835938 68.03125 L 57.960938 68.03125 C 57.871094 68.179688 57.871094 68.363281 57.960938 68.511719 C 58.144531 68.691406 58.453125 68.691406 58.703125 68.511719 C 58.949219 68.332031 59.011719 68.03125 58.824219 67.851562 C 58.703125 67.671875 58.515625 67.671875 58.332031 67.671875 C 58.472656 67.65625 58.601562 67.59375 58.703125 67.492188 C 58.949219 67.3125 59.011719 66.953125 58.824219 66.773438 C 58.640625 66.59375 58.332031 66.59375 58.085938 66.773438 C 57.835938 66.953125 57.773438 67.253906 57.960938 67.492188 C 57.898438 67.492188 57.714844 67.375 57.464844 66.894531 L 57.21875 67.074219 C 57.714844 67.375 57.835938 67.554688 57.773438 67.671875 C 57.589844 67.433594 57.28125 67.433594 57.035156 67.671875 C 56.785156 67.792969 56.726562 68.09375 56.910156 68.273438 C 57.097656 68.453125 57.40625 68.511719 57.652344 68.332031 Z M 57.652344 68.332031 "/>
<path style=" stroke:none;fill-rule:nonzero;fill:rgb(33.333334%,46.666667%,53.333336%);fill-opacity:1;" d="M 17.75 72.101562 L 19.847656 69.414062 L 17.871094 64.628906 L 15.777344 67.199219 Z M 17.75 72.101562 "/>
<path style=" stroke:none;fill-rule:nonzero;fill:rgb(93.333334%,33.333334%,26.666668%);fill-opacity:1;" d="M 28.847656 77.78125 C 25.148438 73.238281 21.386719 68.816406 18.425781 62.121094 L 41.117188 64.628906 L 44.632812 68.933594 Z M 28.847656 77.78125 "/>
<path style=" stroke:none;fill-rule:nonzero;fill:rgb(90.588236%,72.156864%,57.254905%);fill-opacity:1;" d="M 21.386719 70.726562 L 25.640625 76.585938 L 23.238281 79.15625 C 23.238281 79.15625 21.695312 80.355469 20.957031 81.847656 C 20.707031 82.207031 19.476562 81.789062 20.585938 80.054688 L 21.386719 78.320312 L 17.441406 81.488281 C 17.441406 81.488281 15.222656 83.402344 15.160156 82.566406 C 15.097656 81.96875 15.960938 80.832031 16.332031 80.59375 C 16.703125 80.355469 19.351562 77.304688 19.351562 77.304688 L 16.085938 79.695312 C 16.085938 79.695312 13.679688 81.609375 13.496094 81.25 C 12.695312 80.054688 14.296875 79.039062 14.726562 78.738281 C 15.160156 78.5 18.304688 75.75 18.304688 75.75 L 13.988281 78.082031 C 13.988281 78.082031 12.445312 79.21875 12.324219 78.800781 C 12.015625 77.722656 13.1875 77.003906 13.371094 76.828125 L 17.007812 74.554688 L 15.898438 74.734375 C 15.898438 74.734375 12.570312 75.871094 12.570312 75.570312 C 12.445312 74.195312 18.367188 71.863281 18.367188 71.863281 C 18.367188 71.863281 20.585938 71.148438 21.386719 70.726562 Z M 21.386719 70.726562 "/>
<path style=" stroke:none;fill-rule:nonzero;fill:rgb(21.960784%,25.098041%,27.843139%);fill-opacity:1;" d="M 26.566406 79.039062 L 13.863281 61.640625 L 18.425781 62.121094 L 28.847656 77.78125 Z M 26.566406 79.039062 "/>
<path style=" stroke:none;fill-rule:nonzero;fill:rgb(33.333334%,46.666667%,53.333336%);fill-opacity:1;" d="M 26.445312 77.851562 C 26.535156 77.796875 26.601562 77.714844 26.636719 77.621094 L 26.699219 77.621094 C 26.617188 77.75 26.613281 77.910156 26.683594 78.039062 C 26.800781 78.222656 27.109375 78.292969 27.300781 78.121094 C 27.492188 77.949219 27.625 77.714844 27.507812 77.527344 C 27.402344 77.410156 27.238281 77.359375 27.078125 77.394531 L 27.082031 77.335938 C 27.195312 77.335938 27.304688 77.296875 27.394531 77.226562 C 27.644531 77.113281 27.71875 76.816406 27.539062 76.632812 C 27.421875 76.507812 27.175781 76.4375 26.921875 76.609375 C 26.734375 76.75 26.671875 77 26.777344 77.203125 C 26.777344 77.203125 26.597656 77.078125 26.429688 76.59375 L 26.238281 76.765625 C 26.597656 77.078125 26.652344 77.261719 26.585938 77.316406 C 26.472656 77.132812 26.226562 77.066406 25.972656 77.238281 C 25.785156 77.375 25.722656 77.625 25.828125 77.832031 C 25.945312 77.957031 26.253906 78.027344 26.445312 77.851562 Z M 25.207031 76.132812 C 25.308594 76.0625 25.378906 75.957031 25.40625 75.839844 L 25.464844 75.84375 C 25.359375 75.980469 25.351562 76.171875 25.449219 76.320312 C 25.566406 76.503906 25.875 76.515625 26.066406 76.339844 C 26.257812 76.167969 26.386719 75.992188 26.273438 75.75 C 26.167969 75.628906 26.003906 75.578125 25.84375 75.613281 C 25.960938 75.613281 26.070312 75.578125 26.160156 75.503906 C 26.410156 75.335938 26.480469 75.097656 26.304688 74.910156 C 26.125 74.726562 25.941406 74.71875 25.6875 74.832031 C 25.5 74.96875 25.4375 75.21875 25.542969 75.425781 C 25.542969 75.425781 25.359375 75.359375 25.195312 74.8125 L 25 75.046875 C 25.363281 75.300781 25.417969 75.480469 25.355469 75.539062 C 25.238281 75.355469 24.988281 75.347656 24.738281 75.519531 C 24.558594 75.636719 24.496094 75.863281 24.59375 76.050781 C 24.710938 76.234375 25.019531 76.246094 25.210938 76.074219 Z M 24.035156 74.355469 C 24.125 74.300781 24.191406 74.21875 24.230469 74.121094 L 24.292969 74.125 C 24.210938 74.25 24.203125 74.410156 24.277344 74.542969 C 24.394531 74.726562 24.699219 74.796875 24.890625 74.625 C 25.082031 74.449219 25.214844 74.214844 25.097656 74.03125 C 24.992188 73.914062 24.828125 73.859375 24.671875 73.898438 L 24.671875 73.835938 C 24.789062 73.835938 24.898438 73.796875 24.988281 73.726562 C 25.238281 73.617188 25.308594 73.320312 25.132812 73.132812 C 25.015625 72.949219 24.765625 72.941406 24.515625 73.113281 C 24.324219 73.226562 24.253906 73.464844 24.367188 73.707031 C 24.367188 73.707031 24.1875 73.582031 24.019531 73.097656 L 23.828125 73.269531 C 24.1875 73.582031 24.246094 73.703125 24.179688 73.820312 C 24.0625 73.636719 23.816406 73.570312 23.5625 73.738281 C 23.3125 73.910156 23.300781 74.152344 23.417969 74.335938 C 23.539062 74.457031 23.84375 74.527344 24.035156 74.355469 Z M 22.800781 72.636719 C 22.902344 72.566406 22.972656 72.460938 22.996094 72.34375 L 23.058594 72.34375 C 22.949219 72.484375 22.941406 72.675781 23.042969 72.824219 C 23.15625 73.007812 23.46875 73.015625 23.660156 72.84375 C 23.851562 72.671875 23.980469 72.496094 23.867188 72.25 C 23.757812 72.132812 23.59375 72.082031 23.4375 72.117188 C 23.550781 72.117188 23.664062 72.078125 23.75 72.007812 C 24.003906 71.835938 24.074219 71.601562 23.894531 71.414062 C 23.777344 71.230469 23.53125 71.222656 23.28125 71.332031 C 23.089844 71.472656 23.03125 71.722656 23.136719 71.925781 C 23.136719 71.925781 22.953125 71.863281 22.785156 71.316406 L 22.59375 71.550781 C 22.953125 71.800781 23.007812 71.984375 22.945312 72.039062 C 22.828125 71.855469 22.582031 71.847656 22.328125 72.019531 C 22.140625 72.132812 22.070312 72.371094 22.1875 72.554688 C 22.300781 72.738281 22.609375 72.75 22.804688 72.574219 Z M 21.566406 70.855469 C 21.65625 70.800781 21.722656 70.71875 21.761719 70.621094 L 21.824219 70.625 C 21.742188 70.75 21.734375 70.910156 21.808594 71.042969 C 21.925781 71.226562 22.230469 71.296875 22.421875 71.125 C 22.671875 71.011719 22.746094 70.714844 22.628906 70.53125 C 22.523438 70.414062 22.359375 70.363281 22.203125 70.398438 L 22.203125 70.335938 C 22.316406 70.335938 22.429688 70.300781 22.515625 70.230469 C 22.769531 70.117188 22.839844 69.820312 22.660156 69.632812 C 22.542969 69.449219 22.296875 69.441406 22.042969 69.613281 C 21.855469 69.726562 21.785156 69.964844 21.898438 70.207031 C 21.898438 70.207031 21.71875 70.082031 21.550781 69.597656 L 21.359375 69.769531 C 21.71875 70.082031 21.777344 70.203125 21.710938 70.320312 C 21.59375 70.078125 21.285156 70.066406 21.097656 70.179688 C 20.90625 70.292969 20.835938 70.589844 20.953125 70.773438 C 21.070312 70.957031 21.375 71.027344 21.566406 70.855469 Z M 20.332031 69.136719 C 20.433594 69.066406 20.5 68.960938 20.527344 68.84375 L 20.589844 68.84375 C 20.480469 68.984375 20.472656 69.175781 20.570312 69.324219 C 20.6875 69.507812 20.996094 69.519531 21.1875 69.34375 C 21.441406 69.234375 21.511719 68.996094 21.394531 68.753906 C 21.289062 68.632812 21.125 68.582031 20.96875 68.617188 C 21.082031 68.617188 21.191406 68.578125 21.28125 68.507812 C 21.535156 68.335938 21.605469 68.101562 21.425781 67.914062 C 21.308594 67.730469 21.0625 67.664062 20.8125 67.832031 C 20.621094 67.972656 20.5625 68.222656 20.664062 68.429688 C 20.664062 68.429688 20.484375 68.300781 20.316406 67.816406 L 20.125 67.988281 C 20.484375 68.300781 20.539062 68.484375 20.472656 68.601562 L 20.476562 68.542969 C 20.359375 68.359375 20.113281 68.347656 19.859375 68.460938 C 19.671875 68.597656 19.609375 68.847656 19.714844 69.054688 C 19.832031 69.238281 20.140625 69.25 20.332031 69.074219 Z M 19.15625 67.417969 C 19.257812 67.347656 19.328125 67.242188 19.351562 67.125 L 19.414062 67.128906 C 19.332031 67.253906 19.328125 67.414062 19.398438 67.546875 C 19.515625 67.730469 19.824219 67.738281 20.015625 67.566406 C 20.207031 67.394531 20.339844 67.21875 20.222656 67.035156 C 20.117188 66.914062 19.949219 66.863281 19.792969 66.898438 L 19.796875 66.839844 C 19.910156 66.839844 20.019531 66.800781 20.109375 66.730469 C 20.359375 66.621094 20.433594 66.324219 20.253906 66.136719 C 20.136719 65.953125 19.890625 65.945312 19.636719 66.117188 C 19.445312 66.230469 19.375 66.464844 19.492188 66.710938 C 19.492188 66.710938 19.308594 66.585938 19.140625 66.097656 L 18.949219 66.273438 C 19.308594 66.585938 19.367188 66.707031 19.304688 66.765625 C 19.1875 66.578125 18.941406 66.570312 18.6875 66.742188 C 18.496094 66.855469 18.425781 67.09375 18.542969 67.335938 C 18.660156 67.460938 18.96875 67.53125 19.160156 67.359375 Z M 17.925781 65.578125 C 18.011719 65.523438 18.082031 65.441406 18.117188 65.34375 L 18.179688 65.347656 C 18.097656 65.472656 18.09375 65.632812 18.164062 65.765625 C 18.28125 66.011719 18.589844 66.019531 18.78125 65.847656 C 19.03125 65.734375 19.101562 65.5 18.988281 65.253906 C 18.882812 65.136719 18.71875 65.085938 18.558594 65.121094 C 18.671875 65.121094 18.785156 65.082031 18.871094 65.011719 C 19.125 64.839844 19.195312 64.601562 19.015625 64.417969 C 18.902344 64.234375 18.65625 64.164062 18.402344 64.335938 C 18.214844 64.476562 18.152344 64.722656 18.257812 64.929688 C 18.257812 64.929688 18.078125 64.804688 17.910156 64.320312 L 17.71875 64.492188 C 18.078125 64.804688 18.132812 64.984375 18.066406 65.042969 C 17.949219 64.859375 17.644531 64.789062 17.453125 64.964844 C 17.261719 65.101562 17.203125 65.351562 17.308594 65.558594 C 17.425781 65.742188 17.734375 65.75 17.925781 65.578125 Z M 16.6875 63.859375 C 16.777344 63.804688 16.84375 63.722656 16.882812 63.625 L 16.945312 63.628906 C 16.863281 63.753906 16.855469 63.914062 16.929688 64.046875 C 17.046875 64.230469 17.355469 64.242188 17.546875 64.066406 C 17.738281 63.894531 17.867188 63.71875 17.75 63.535156 C 17.644531 63.417969 17.480469 63.363281 17.324219 63.402344 L 17.324219 63.339844 C 17.441406 63.339844 17.550781 63.300781 17.640625 63.230469 C 17.890625 63.058594 17.960938 62.824219 17.785156 62.636719 C 17.667969 62.453125 17.417969 62.445312 17.167969 62.617188 C 16.976562 62.730469 16.90625 62.96875 17.019531 63.210938 C 17.019531 63.210938 16.839844 63.085938 16.671875 62.597656 L 16.480469 62.773438 C 16.839844 63.085938 16.898438 63.207031 16.835938 63.265625 C 16.71875 63.082031 16.46875 63.070312 16.214844 63.242188 C 16.027344 63.355469 15.957031 63.59375 16.070312 63.835938 C 16.191406 63.960938 16.496094 64.03125 16.6875 63.859375 Z M 16.6875 63.859375 "/>
<path style=" stroke:none;fill-rule:nonzero;fill:rgb(33.333334%,46.666667%,53.333336%);fill-opacity:1;" d="M 14.542969 67.558594 L 16.578125 72.402344 L 12.941406 71.683594 L 10.660156 66.601562 Z M 32.671875 110.664062 C 32.671875 110.664062 28.476562 108.75 26.75 105.222656 L 30.945312 106.242188 L 33.039062 103.492188 C 33.039062 103.492188 34.273438 106.480469 32.671875 110.664062 Z M 32.671875 110.664062 "/>
<path style=" stroke:none;fill-rule:nonzero;fill:rgb(21.960784%,25.098041%,27.843139%);fill-opacity:1;" d="M 21.386719 117.957031 C 21.046875 117.761719 20.886719 117.363281 21.003906 116.992188 C 21.121094 116.625 21.484375 116.382812 21.878906 116.40625 L 21.878906 116.285156 C 21.484375 116.347656 21.09375 116.132812 20.941406 115.773438 C 20.792969 115.410156 20.917969 114.996094 21.25 114.773438 C 21.578125 114.550781 22.023438 114.574219 22.320312 114.835938 C 22.621094 115.097656 22.691406 115.527344 22.496094 115.867188 L 22.496094 115.925781 L 22.683594 115.746094 C 22.933594 115.347656 23.078125 114.898438 23.113281 114.429688 L 23.976562 115.03125 C 23.585938 115.253906 23.25 115.5625 22.988281 115.925781 L 22.867188 116.164062 C 23.0625 115.816406 23.484375 115.648438 23.875 115.761719 C 24.269531 115.878906 24.523438 116.242188 24.484375 116.640625 C 24.449219 117.035156 24.128906 117.351562 23.722656 117.394531 C 23.316406 117.441406 22.933594 117.199219 22.804688 116.824219 L 22.621094 116.824219 C 22.851562 117.160156 22.800781 117.613281 22.496094 117.894531 C 22.191406 118.175781 21.722656 118.203125 21.386719 117.957031 Z M 46.960938 122.335938 C 47.71875 122.335938 48.332031 121.742188 48.332031 121.007812 C 48.324219 120.539062 48.070312 120.109375 47.652344 119.871094 L 47.835938 119.734375 C 48.304688 120.109375 48.96875 120.140625 49.472656 119.816406 C 49.976562 119.488281 50.199219 118.878906 50.019531 118.320312 C 49.839844 117.757812 49.300781 117.378906 48.695312 117.386719 C 47.9375 117.386719 47.324219 117.980469 47.324219 118.710938 L 47.324219 118.800781 C 47.324219 118.800781 47.234375 118.621094 47.234375 118.304688 C 47.234375 117.421875 47.605469 116.859375 47.960938 116.332031 L 45.964844 116.332031 C 46.417969 116.902344 46.675781 117.601562 46.691406 118.324219 C 46.691406 118.621094 46.597656 118.800781 46.597656 118.800781 L 46.597656 118.710938 C 46.597656 118.089844 46.152344 117.554688 45.527344 117.417969 C 44.898438 117.285156 44.261719 117.589844 43.988281 118.152344 C 43.71875 118.714844 43.886719 119.386719 44.394531 119.765625 C 44.902344 120.144531 45.613281 120.132812 46.105469 119.734375 L 46.253906 119.878906 C 45.84375 120.117188 45.59375 120.546875 45.59375 121.007812 C 45.59375 121.742188 46.207031 122.335938 46.960938 122.335938 Z M 46.960938 122.335938 "/>
<path style=" stroke:none;fill-rule:nonzero;fill:rgb(93.333334%,86.666667%,86.666667%);fill-opacity:1;" d="M 44.507812 64.628906 L 45.558594 65.109375 L 45.308594 65.347656 L 44.445312 64.988281 Z M 44.507812 64.628906 "/>
<path style=" stroke:none;fill-rule:nonzero;fill:rgb(21.960784%,25.098041%,27.843139%);fill-opacity:1;" d="M 7.894531 21.671875 C 6.820312 21.671875 5.953125 22.519531 5.953125 23.570312 C 5.957031 24.238281 6.320312 24.855469 6.910156 25.191406 L 6.652344 25.394531 C 5.988281 24.863281 5.046875 24.820312 4.335938 25.289062 C 3.625 25.753906 3.3125 26.625 3.566406 27.425781 C 3.820312 28.226562 4.578125 28.769531 5.433594 28.765625 C 6.507812 28.765625 7.375 27.914062 7.375 26.863281 L 7.375 26.738281 C 7.375 26.738281 7.503906 26.992188 7.503906 27.445312 C 7.503906 28.714844 6.988281 29.523438 6.46875 30.285156 L 9.316406 30.285156 C 8.800781 29.523438 8.28125 28.6875 8.28125 27.421875 C 8.28125 26.992188 8.410156 26.738281 8.410156 26.738281 L 8.410156 26.863281 C 8.414062 27.753906 9.050781 28.519531 9.9375 28.710938 C 10.824219 28.902344 11.730469 28.464844 12.113281 27.65625 C 12.496094 26.851562 12.257812 25.890625 11.535156 25.347656 C 10.816406 24.804688 9.808594 24.824219 9.109375 25.394531 L 8.902344 25.191406 C 9.480469 24.847656 9.835938 24.234375 9.835938 23.570312 C 9.835938 22.519531 8.964844 21.671875 7.894531 21.671875 Z M 7.894531 21.671875 "/>
<path style=" stroke:none;fill-rule:nonzero;fill:rgb(21.960784%,25.098041%,27.843139%);fill-opacity:1;" d="M 82.105469 108.328125 C 83.179688 108.328125 84.046875 107.480469 84.046875 106.429688 C 84.042969 105.761719 83.679688 105.144531 83.089844 104.808594 L 83.347656 104.605469 C 84.011719 105.136719 84.953125 105.179688 85.664062 104.710938 C 86.375 104.246094 86.6875 103.375 86.433594 102.574219 C 86.179688 101.773438 85.421875 101.230469 84.566406 101.234375 C 83.492188 101.234375 82.625 102.085938 82.625 103.136719 L 82.625 103.261719 C 82.625 103.261719 82.496094 103.007812 82.496094 102.554688 C 82.496094 101.285156 83.011719 100.476562 83.53125 99.714844 L 80.683594 99.714844 C 81.199219 100.476562 81.71875 101.3125 81.71875 102.578125 C 81.71875 103.007812 81.589844 103.261719 81.589844 103.261719 L 81.589844 103.136719 C 81.585938 102.246094 80.949219 101.480469 80.0625 101.289062 C 79.175781 101.097656 78.269531 101.535156 77.886719 102.34375 C 77.503906 103.148438 77.742188 104.109375 78.464844 104.652344 C 79.183594 105.195312 80.191406 105.175781 80.890625 104.605469 L 81.097656 104.808594 C 80.519531 105.152344 80.164062 105.765625 80.164062 106.429688 C 80.164062 107.480469 81.035156 108.328125 82.105469 108.328125 Z M 82.105469 108.328125 "/>
<path style="fill-rule:nonzero;fill:rgb(21.960784%,25.098041%,27.843139%);fill-opacity:1;stroke-width:0.5;stroke-linecap:butt;stroke-linejoin:round;stroke:rgb(21.960784%,25.098041%,27.843139%);stroke-opacity:1;stroke-miterlimit:4;" d="M 1462.00163 -90.699279 L 1462.00163 -91.802645 L 1468.597117 -91.802645 L 1468.597117 -90.699279 C 1467.539825 -90.71226 1466.998593 -90.381251 1466.998593 -89.401202 L 1466.998593 -76.102403 C 1466.998593 -72.961057 1466.041995 -69.001922 1461.202368 -69.001922 C 1458.33887 -69.001922 1456.350154 -71.091826 1456.400501 -73.402403 C 1456.400501 -75.180769 1457.558488 -76.082932 1458.697594 -76.102403 C 1460.107316 -76.128365 1461.000979 -74.752403 1461.000979 -73.700961 C 1461.000979 -73.201201 1460.79959 -72.701442 1460.598201 -72.50024 C 1460.119903 -71.799278 1459.477976 -71.701922 1458.697594 -71.598076 C 1459.119252 -70.669951 1459.937394 -70.377884 1460.900285 -70.202643 C 1463.549808 -70.202643 1463.700849 -73.772355 1463.700849 -74.603124 L 1463.700849 -89.401202 C 1463.700849 -90.498078 1462.901587 -90.699279 1462.00163 -90.699279 Z M 1462.00163 -90.699279 " transform="matrix(0.62069,0,0,0.601852,-899.999997,60.185181)"/>
<path style="fill-rule:nonzero;fill:rgb(21.960784%,25.098041%,27.843139%);fill-opacity:1;stroke-width:0.5;stroke-linecap:butt;stroke-linejoin:round;stroke:rgb(21.960784%,25.098041%,27.843139%);stroke-opacity:1;stroke-miterlimit:4;" d="M 1462.001398 -90.699294 L 1462.001398 -91.802659 L 1468.596885 -91.802659 L 1468.596885 -90.699294 C 1467.539593 -90.712275 1466.99836 -90.381265 1466.99836 -89.401217 L 1466.99836 -76.102418 C 1466.99836 -72.961071 1466.041763 -69.001936 1461.202136 -69.001936 C 1458.338638 -69.001936 1456.349922 -71.09184 1456.400269 -73.402417 C 1456.400269 -75.180783 1457.558256 -76.082947 1458.697362 -76.102418 C 1460.107084 -76.128379 1461.000747 -74.752418 1461.000747 -73.700975 C 1461.000747 -73.201216 1460.799358 -72.701456 1460.597969 -72.500254 C 1460.119671 -71.799292 1459.477744 -71.701937 1458.697362 -71.59809 C 1459.11902 -70.669965 1459.937162 -70.377898 1460.900053 -70.202658 C 1463.549575 -70.202658 1463.700617 -73.772369 1463.700617 -74.603139 L 1463.700617 -89.401217 C 1463.700617 -90.498092 1462.901355 -90.699294 1462.001398 -90.699294 Z M 1462.001398 -90.699294 " transform="matrix(-0.62069,0.000000000000000074,-0.000000000000000076,-0.601852,989.999853,69.81481)"/>
</g>
</svg>
