<?xml version="1.0" encoding="UTF-8"?>
<svg xmlns="http://www.w3.org/2000/svg" xmlns:xlink="http://www.w3.org/1999/xlink" width="90px" height="130px" viewBox="0 0 90 130" version="1.1">
<defs>
<clipPath id="clip1">
  <path d="M 38 61 L 76 61 L 76 91 L 38 91 Z M 38 61 "/>
</clipPath>
<clipPath id="clip2">
  <path d="M 34.804688 91.847656 L 17.683594 88.320312 C 17.683594 88.320312 13.796875 88.441406 13.796875 84.367188 L 13.796875 68.738281 L 76.324219 61.746094 C 76.324219 61.746094 60.207031 84.367188 55.3125 88.441406 C 54.6875 88.867188 52.179688 89.414062 49.042969 89.902344 C 43.023438 90.933594 34.804688 91.847656 34.804688 91.847656 Z M 34.804688 91.847656 "/>
</clipPath>
<clipPath id="clip3">
  <path d="M 14 39 L 52 39 L 52 69 L 14 69 Z M 14 39 "/>
</clipPath>
<clipPath id="clip4">
  <path d="M 55.023438 38.222656 L 72.144531 41.75 C 72.144531 41.75 76.03125 41.628906 76.03125 45.703125 L 76.03125 61.332031 L 13.503906 68.324219 C 13.503906 68.324219 29.621094 45.703125 34.511719 41.628906 C 35.140625 41.203125 37.648438 40.65625 40.785156 40.167969 C 46.804688 39.136719 55.023438 38.222656 55.023438 38.222656 Z M 55.023438 38.222656 "/>
</clipPath>
</defs>
<g id="surface1">
<path style="fill-rule:nonzero;fill:rgb(100%,100%,100%);fill-opacity:1;stroke-width:3;stroke-linecap:butt;stroke-linejoin:miter;stroke:rgb(21.960784%,25.098041%,27.843139%);stroke-opacity:1;stroke-miterlimit:4;" d="M 9.503126 1.499278 L 135.49706 1.499278 C 139.921322 1.499278 143.502269 5.08197 143.502269 9.501922 L 143.502269 206.498092 C 143.502269 210.918044 139.921322 214.500737 135.49706 214.500737 L 9.503126 214.500737 C 5.078864 214.500737 1.497917 210.918044 1.497917 206.498092 L 1.497917 9.501922 C 1.497917 5.08197 5.078864 1.499278 9.503126 1.499278 Z M 9.503126 1.499278 " transform="matrix(0.62069,0,0,0.601852,-0.0000540769,0.000000826741)"/>
<path style=" stroke:none;fill-rule:nonzero;fill:rgb(21.960784%,25.098041%,27.843139%);fill-opacity:1;" d="M 18.988281 6.027344 C 16.78125 6.027344 14.992188 7.761719 14.992188 9.902344 C 15.003906 11.265625 15.753906 12.519531 16.964844 13.210938 L 16.429688 13.625 C 15.066406 12.539062 13.128906 12.449219 11.664062 13.40625 C 10.199219 14.359375 9.554688 16.132812 10.074219 17.765625 C 10.597656 19.398438 12.160156 20.511719 13.925781 20.5 C 16.132812 20.5 17.921875 18.761719 17.921875 16.621094 L 17.921875 16.363281 C 17.921875 16.363281 18.1875 16.878906 18.1875 17.808594 C 18.1875 20.394531 17.125 22.050781 16.058594 23.597656 L 21.921875 23.597656 C 20.855469 22.050781 19.789062 20.34375 19.789062 17.757812 C 19.789062 16.878906 20.054688 16.363281 20.054688 16.363281 L 20.054688 16.621094 C 20.0625 18.4375 21.371094 20 23.199219 20.390625 C 25.027344 20.777344 26.886719 19.882812 27.675781 18.238281 C 28.46875 16.59375 27.972656 14.636719 26.492188 13.53125 C 25.007812 12.421875 22.933594 12.460938 21.496094 13.625 L 21.066406 13.210938 C 22.257812 12.507812 22.984375 11.253906 22.988281 9.902344 C 22.988281 7.761719 21.195312 6.027344 18.988281 6.027344 Z M 18.988281 6.027344 "/>
<path style=" stroke:none;fill-rule:nonzero;fill:rgb(100%,100%,100%);fill-opacity:1;" d="M 4.59375 4.515625 L 13.160156 4.515625 L 13.160156 34.605469 L 4.59375 34.605469 Z M 4.59375 4.515625 "/>
<path style=" stroke:none;fill-rule:nonzero;fill:rgb(21.960784%,25.098041%,27.843139%);fill-opacity:1;" d="M 71.011719 123.972656 C 73.21875 123.972656 75.007812 122.238281 75.007812 120.097656 C 74.996094 118.734375 74.246094 117.480469 73.035156 116.789062 L 73.570312 116.375 C 74.933594 117.460938 76.871094 117.550781 78.335938 116.59375 C 79.800781 115.640625 80.445312 113.867188 79.925781 112.234375 C 79.402344 110.597656 77.839844 109.488281 76.074219 109.5 C 73.867188 109.5 72.078125 111.238281 72.078125 113.378906 L 72.078125 113.636719 C 72.078125 113.636719 71.808594 113.121094 71.808594 112.191406 C 71.808594 109.605469 72.875 107.949219 73.941406 106.402344 L 68.078125 106.402344 C 69.144531 107.949219 70.210938 109.65625 70.210938 112.242188 C 70.210938 113.121094 69.945312 113.636719 69.945312 113.636719 L 69.945312 113.378906 C 69.933594 111.5625 68.628906 110 66.800781 109.609375 C 64.972656 109.222656 63.113281 110.117188 62.324219 111.761719 C 61.53125 113.40625 62.027344 115.363281 63.507812 116.46875 C 64.992188 117.578125 67.066406 117.539062 68.503906 116.375 L 68.933594 116.789062 C 67.742188 117.492188 67.015625 118.746094 67.011719 120.097656 C 67.011719 122.238281 68.804688 123.972656 71.011719 123.972656 Z M 71.011719 123.972656 "/>
<path style=" stroke:none;fill-rule:nonzero;fill:rgb(21.960784%,25.098041%,27.843139%);fill-opacity:1;" d="M 13.664062 68.328125 L 54.363281 57.429688 L 76.226562 61.683594 L 23.730469 74.019531 Z M 13.664062 68.328125 "/>
<path style=" stroke:none;fill-rule:nonzero;fill:rgb(33.333334%,46.666667%,53.333336%);fill-opacity:1;" d="M 13.910156 68.269531 L 16.011719 67.492188 L 16.9375 67.96875 L 15.085938 68.988281 Z M 13.910156 68.269531 "/>
<path style=" stroke:none;fill-rule:nonzero;fill:rgb(26.666668%,60.000002%,40.000001%);fill-opacity:1;" d="M 29.164062 66.652344 L 39.480469 64.136719 L 41.207031 65.394531 L 38.800781 67.429688 Z M 29.164062 66.652344 "/>
<path style=" stroke:none;fill-rule:nonzero;fill:rgb(93.333334%,33.333334%,26.666668%);fill-opacity:1;" d="M 44.730469 63.238281 L 54.609375 64.015625 L 48.867188 67.492188 L 41.207031 65.394531 Z M 44.730469 63.238281 "/>
<path style=" stroke:none;fill-rule:nonzero;fill:rgb(21.960784%,25.098041%,27.843139%);fill-opacity:1;" d="M 34.929688 91.664062 L 17.121094 88.382812 C 17.121094 88.382812 13.609375 88.078125 13.609375 84.003906 L 13.609375 68.375 L 35.496094 72.628906 L 63.40625 63.203125 L 76.199219 61.746094 L 75.886719 62.351562 C 70.867188 69.46875 58.199219 86.253906 55.441406 88.257812 C 53.433594 89.035156 51.320312 89.527344 49.167969 89.71875 C 44.4375 90.472656 39.691406 91.121094 34.929688 91.664062 Z M 34.929688 91.664062 "/>
<path style=" stroke:none;fill-rule:nonzero;fill:rgb(93.725491%,83.529413%,74.117649%);fill-opacity:1;" d="M 39.070312 115.988281 L 51.363281 113.921875 L 50.796875 110.882812 L 51.988281 108.632812 L 53.117188 105.164062 L 50.863281 104.679688 L 51.113281 101.882812 L 49.667969 100.96875 L 49.796875 99.933594 C 49.796875 99.933594 48.164062 99.265625 49.167969 98.355469 C 50.046875 97.441406 50.863281 95.679688 46.410156 95.433594 C 43.710938 95.3125 42.332031 94.339844 44.589844 90.570312 C 44.589844 90.570312 43.210938 85.402344 39.382812 85.035156 C 34.839844 84.40625 30.4375 86.867188 28.722656 90.996094 Z M 39.070312 115.988281 "/>
<g clip-path="url(#clip1)" clip-rule="nonzero">
<g clip-path="url(#clip2)" clip-rule="nonzero">
<path style=" stroke:none;fill-rule:nonzero;fill:rgb(33.333334%,46.666667%,53.333336%);fill-opacity:1;" d="M 53.421875 90.726562 C 54.183594 90.796875 54.878906 90.292969 55.03125 89.5625 C 55.183594 88.832031 54.742188 88.109375 54.011719 87.882812 C 53.277344 87.660156 52.488281 88.003906 52.179688 88.683594 C 52.054688 88.503906 52.054688 87.894531 53.183594 86.496094 L 52.367188 86.132812 C 52.117188 87.957031 51.738281 88.320312 51.425781 88.441406 L 52.179688 89.839844 C 52.332031 90.199219 52.625 90.484375 52.992188 90.632812 C 53.128906 90.683594 53.273438 90.714844 53.421875 90.726562 Z M 56.128906 88.191406 C 56.710938 88.15625 57.222656 87.804688 57.445312 87.28125 L 58.953125 86.496094 L 59.390625 83.699219 C 58.738281 83.390625 57.953125 83.578125 57.519531 84.144531 C 57.089844 84.710938 57.136719 85.496094 57.632812 86.007812 L 57.445312 86.070312 C 57.28125 85.734375 56.988281 85.472656 56.632812 85.339844 C 56.257812 85.179688 55.832031 85.171875 55.453125 85.324219 C 55.074219 85.472656 54.777344 85.761719 54.625 86.132812 C 54.417969 86.605469 54.476562 87.148438 54.785156 87.570312 C 55.089844 87.988281 55.601562 88.226562 56.128906 88.191406 Z M 53.578125 85.789062 C 54.140625 85.816406 54.71875 85.542969 55 84.855469 C 55.21875 84.34375 55.125 83.757812 54.75 83.332031 L 54.9375 83.273438 C 55.105469 83.609375 55.394531 83.867188 55.753906 84.003906 C 56.519531 84.300781 57.386719 83.945312 57.703125 83.207031 C 58.019531 82.46875 57.664062 81.621094 56.90625 81.308594 C 56.148438 80.992188 55.273438 81.324219 54.9375 82.054688 C 54.8125 81.875 54.8125 81.265625 55.941406 79.867188 L 55.125 79.5625 C 54.875 81.328125 54.5 81.753906 54.183594 81.8125 C 54.980469 79.988281 52.160156 78.832031 51.363281 80.65625 C 51.199219 81.027344 51.203125 81.445312 51.371094 81.816406 C 51.535156 82.183594 51.851562 82.46875 52.242188 82.605469 C 52.605469 82.746094 53.007812 82.746094 53.371094 82.605469 L 53.433594 82.785156 C 52.855469 82.847656 52.367188 83.226562 52.179688 83.757812 C 51.707031 84.902344 52.636719 85.753906 53.578125 85.789062 Z M 49.714844 85.632812 C 50.242188 85.632812 50.761719 85.359375 51.050781 84.730469 C 51.210938 84.363281 51.210938 83.945312 51.042969 83.574219 C 50.878906 83.207031 50.5625 82.921875 50.171875 82.785156 C 49.808594 82.644531 49.402344 82.644531 49.042969 82.785156 L 48.980469 82.542969 C 50.722656 82.554688 51.085938 80.171875 49.417969 79.683594 C 47.914062 78.980469 46.519531 80.816406 47.664062 81.996094 L 47.476562 82.117188 C 47.320312 81.757812 47.027344 81.476562 46.660156 81.328125 C 45.894531 81.027344 45.023438 81.382812 44.707031 82.121094 C 44.390625 82.859375 44.746094 83.707031 45.503906 84.023438 C 46.261719 84.335938 47.140625 84.003906 47.476562 83.273438 C 47.726562 83.371094 47.976562 83.457031 48.226562 83.515625 C 47.683594 84.714844 48.710938 85.644531 49.714844 85.632812 Z M 61.835938 83.03125 L 62.964844 80.292969 C 62.601562 80.152344 62.199219 80.152344 61.835938 80.292969 L 61.773438 80.050781 C 62.460938 79.96875 63 79.441406 63.082031 78.777344 C 63.167969 78.109375 62.769531 77.476562 62.125 77.238281 C 61.476562 77 60.746094 77.21875 60.351562 77.769531 C 59.957031 78.320312 60 79.058594 60.457031 79.5625 L 60.269531 79.625 C 60.101562 79.289062 59.8125 79.027344 59.453125 78.894531 C 59.078125 78.734375 58.65625 78.726562 58.277344 78.875 C 57.898438 79.027344 57.597656 79.316406 57.445312 79.683594 C 57.117188 80.441406 57.480469 81.3125 58.261719 81.632812 C 59.042969 81.949219 59.941406 81.597656 60.269531 80.839844 L 60.957031 81.082031 C 60.796875 81.453125 60.796875 81.871094 60.964844 82.242188 C 61.128906 82.609375 61.445312 82.894531 61.835938 83.03125 Z M 44.082031 81.945312 C 44.683594 81.851562 45.164062 81.414062 45.304688 80.839844 C 45.441406 80.261719 45.210938 79.664062 44.714844 79.320312 L 44.964844 79.257812 C 45.132812 79.59375 45.421875 79.855469 45.78125 79.988281 C 46.558594 80.273438 47.425781 79.890625 47.71875 79.136719 C 48.011719 78.382812 47.621094 77.542969 46.84375 77.257812 C 46.066406 76.972656 45.199219 77.351562 44.902344 78.105469 C 44.777344 77.859375 44.839844 77.3125 45.90625 75.855469 L 45.089844 75.550781 C 44.839844 77.375 44.464844 77.738281 44.214844 77.859375 C 44.226562 77.839844 44.226562 77.820312 44.214844 77.800781 C 44.523438 77.042969 44.144531 76.1875 43.367188 75.882812 C 42.585938 75.582031 41.703125 75.949219 41.390625 76.703125 C 41.089844 77.445312 41.449219 78.28125 42.207031 78.589844 C 42.570312 78.730469 42.972656 78.730469 43.335938 78.589844 L 43.460938 78.832031 C 42.699219 78.792969 42.027344 79.316406 41.898438 80.046875 C 41.769531 80.777344 42.226562 81.484375 42.960938 81.691406 C 43.285156 81.917969 43.6875 82.011719 44.082031 81.945312 Z M 40.40625 81.519531 C 40.96875 81.300781 41.335938 80.777344 41.347656 80.191406 C 41.355469 79.605469 41.003906 79.070312 40.449219 78.832031 C 40.089844 78.691406 39.683594 78.691406 39.320312 78.832031 L 38.445312 79.625 C 38.21875 80.167969 38.347656 80.789062 38.777344 81.203125 C 39.207031 81.617188 39.847656 81.742188 40.40625 81.519531 Z M 56.253906 79.332031 C 56.878906 79.394531 57.472656 79.074219 57.753906 78.53125 C 58.03125 77.988281 57.933594 77.332031 57.507812 76.886719 L 57.699219 76.765625 C 57.851562 77.125 58.144531 77.410156 58.511719 77.554688 C 58.886719 77.71875 59.3125 77.722656 59.6875 77.574219 C 60.066406 77.425781 60.367188 77.132812 60.519531 76.765625 C 60.847656 76.011719 60.484375 75.140625 59.703125 74.820312 C 58.925781 74.5 58.027344 74.855469 57.699219 75.609375 C 57.570312 75.429688 57.570312 74.820312 58.699219 73.421875 L 57.886719 73.117188 C 57.632812 74.820312 57.257812 75.246094 56.945312 75.367188 C 57.109375 75.003906 57.117188 74.59375 56.964844 74.226562 C 56.808594 73.859375 56.507812 73.570312 56.128906 73.421875 C 55.753906 73.261719 55.332031 73.253906 54.953125 73.402344 C 54.574219 73.550781 54.273438 73.84375 54.121094 74.210938 C 53.960938 74.582031 53.960938 75 54.128906 75.367188 C 54.292969 75.738281 54.609375 76.023438 55 76.15625 C 55.363281 76.300781 55.769531 76.300781 56.128906 76.15625 L 56.191406 76.339844 C 55.441406 76.335938 54.804688 76.867188 54.695312 77.585938 C 54.585938 78.304688 55.035156 78.992188 55.753906 79.199219 C 55.910156 79.273438 56.082031 79.320312 56.253906 79.339844 Z M 50.046875 79.320312 C 50.296875 77.617188 50.671875 77.191406 50.988281 77.070312 C 50.710938 77.714844 50.945312 78.453125 51.542969 78.839844 C 52.140625 79.226562 52.933594 79.152344 53.441406 78.660156 C 53.949219 78.167969 54.027344 77.394531 53.628906 76.816406 C 53.230469 76.238281 52.464844 76.011719 51.800781 76.28125 L 51.738281 76.097656 C 52.453125 76 52.996094 75.429688 53.035156 74.730469 C 53.074219 74.035156 52.601562 73.40625 51.902344 73.234375 C 51.203125 73.066406 50.476562 73.398438 50.171875 74.027344 C 49.949219 74.542969 50.046875 75.128906 50.421875 75.550781 L 50.234375 75.671875 C 50.082031 75.3125 49.789062 75.027344 49.417969 74.878906 C 48.652344 74.582031 47.785156 74.9375 47.46875 75.675781 C 47.152344 76.414062 47.507812 77.261719 48.265625 77.578125 C 49.023438 77.890625 49.898438 77.558594 50.234375 76.828125 C 50.359375 77.007812 50.359375 77.617188 49.230469 79.015625 Z M 62.902344 76.582031 C 63.152344 74.820312 63.53125 74.453125 63.78125 74.332031 C 63.617188 74.695312 63.609375 75.105469 63.761719 75.472656 C 63.917969 75.839844 64.21875 76.132812 64.597656 76.28125 C 64.96875 76.441406 65.394531 76.445312 65.773438 76.296875 C 66.152344 76.148438 66.453125 75.855469 66.601562 75.488281 C 66.769531 75.125 66.777344 74.714844 66.621094 74.347656 C 66.46875 73.980469 66.167969 73.691406 65.789062 73.542969 C 65.425781 73.402344 65.019531 73.402344 64.660156 73.542969 L 64.535156 73.359375 C 65.226562 73.324219 65.808594 72.835938 65.933594 72.171875 C 66.0625 71.511719 65.707031 70.847656 65.074219 70.570312 C 64.441406 70.296875 63.691406 70.476562 63.265625 71.007812 C 62.839844 71.539062 62.84375 72.285156 63.277344 72.8125 L 63.027344 72.933594 C 62.875 72.578125 62.582031 72.292969 62.214844 72.144531 C 61.441406 71.875 60.589844 72.257812 60.300781 73 C 60.007812 73.742188 60.382812 74.574219 61.144531 74.871094 C 61.902344 75.167969 62.769531 74.820312 63.089844 74.089844 C 63.214844 74.273438 63.152344 74.878906 62.085938 76.28125 Z M 67.984375 73.714844 C 68.175781 73.710938 68.367188 73.675781 68.546875 73.605469 C 68.546875 73.605469 69.425781 72.753906 69.425781 72.8125 C 69.730469 72.070312 69.367188 71.226562 68.605469 70.921875 C 67.84375 70.613281 66.96875 70.960938 66.644531 71.695312 C 66.320312 72.429688 66.664062 73.28125 67.417969 73.605469 C 67.597656 73.675781 67.789062 73.710938 67.984375 73.714844 Z M 52.867188 72.753906 C 53.117188 70.929688 53.496094 70.5625 53.746094 70.441406 C 53.410156 71.175781 53.746094 72.035156 54.5 72.367188 C 55.257812 72.695312 56.144531 72.375 56.488281 71.644531 C 56.835938 70.914062 56.503906 70.050781 55.753906 69.710938 C 55.390625 69.570312 54.988281 69.570312 54.625 69.710938 L 54.5625 69.46875 L 53.074219 70.246094 C 53.175781 70.515625 53.113281 71.074219 52.054688 72.386719 Z M 53.074219 70.246094 L 53.054688 70.199219 L 53.054688 70.257812 Z M 59.878906 72.496094 C 60.277344 72.28125 60.550781 71.902344 60.625 71.46875 C 60.699219 71.035156 60.570312 70.589844 60.269531 70.257812 L 60.519531 70.199219 C 60.6875 70.53125 60.976562 70.792969 61.335938 70.929688 C 61.707031 71.089844 62.132812 71.09375 62.511719 70.945312 C 62.890625 70.796875 63.191406 70.503906 63.34375 70.136719 C 63.671875 69.382812 63.304688 68.511719 62.527344 68.191406 C 61.746094 67.871094 60.847656 68.226562 60.519531 68.980469 L 59.015625 69.773438 C 58.398438 69.820312 57.878906 70.226562 57.699219 70.800781 C 57.519531 71.371094 57.714844 71.992188 58.195312 72.367188 C 58.675781 72.738281 59.34375 72.792969 59.878906 72.496094 Z M 71.496094 70.214844 C 72.121094 70.28125 72.722656 69.960938 73 69.414062 C 73.28125 68.867188 73.179688 68.210938 72.75 67.765625 L 72.9375 66.488281 C 72.8125 66.304688 72.8125 65.699219 73.941406 64.300781 L 73.125 63.996094 C 72.875 65.699219 72.5 66.125 72.246094 66.246094 C 72.554688 65.503906 72.1875 64.660156 71.429688 64.355469 C 70.667969 64.046875 69.792969 64.390625 69.46875 65.125 C 69.140625 65.859375 69.488281 66.710938 70.242188 67.035156 C 70.601562 67.179688 71.007812 67.179688 71.371094 67.035156 L 71.433594 67.21875 C 70.683594 67.214844 70.042969 67.746094 69.933594 68.460938 C 69.824219 69.179688 70.273438 69.867188 70.992188 70.078125 C 71.152344 70.152344 71.320312 70.199219 71.496094 70.214844 Z M 65.664062 70.078125 C 65.914062 68.253906 66.289062 67.886719 66.601562 67.765625 C 66.328125 68.410156 66.5625 69.152344 67.15625 69.539062 C 67.753906 69.925781 68.550781 69.847656 69.058594 69.355469 C 69.566406 68.863281 69.644531 68.09375 69.246094 67.511719 C 68.847656 66.933594 68.082031 66.707031 67.417969 66.976562 L 67.355469 66.792969 C 68.050781 66.757812 68.628906 66.265625 68.757812 65.605469 C 68.886719 64.941406 68.53125 64.28125 67.894531 64.003906 C 67.261719 63.726562 66.515625 63.90625 66.089844 64.441406 C 65.664062 64.972656 65.667969 65.71875 66.101562 66.246094 L 65.851562 66.367188 C 65.699219 66.007812 65.40625 65.722656 65.035156 65.578125 C 64.652344 65.417969 64.222656 65.421875 63.84375 65.582031 C 63.460938 65.742188 63.167969 66.050781 63.027344 66.425781 C 62.714844 67.183594 63.097656 68.039062 63.875 68.34375 C 64.65625 68.644531 65.539062 68.277344 65.851562 67.523438 C 65.976562 67.703125 65.976562 68.3125 64.847656 69.710938 Z M 62.246094 66.246094 C 63.503906 66.246094 64.414062 64.507812 63.089844 63.570312 L 63.277344 63.507812 C 63.441406 63.84375 63.738281 64.117188 64.09375 64.238281 C 65.976562 65.011719 67.167969 62.292969 65.285156 61.5 L 61.273438 60.285156 L 61.335938 65.941406 C 61.640625 66.160156 61.949219 66.246094 62.246094 66.246094 Z M 68.421875 63.449219 C 68.671875 61.683594 69.050781 61.257812 69.300781 61.199219 C 68.992188 61.941406 69.359375 62.78125 70.121094 63.089844 C 70.878906 63.394531 71.753906 63.050781 72.078125 62.316406 C 72.40625 61.582031 72.058594 60.730469 71.308594 60.40625 L 68.609375 60.894531 C 68.734375 61.136719 68.734375 61.683594 67.605469 63.144531 Z M 75.058594 63.375 C 75.453125 63.160156 75.726562 62.78125 75.800781 62.347656 C 75.878906 61.910156 75.746094 61.46875 75.445312 61.136719 L 74.191406 60.652344 C 73.578125 60.699219 73.054688 61.105469 72.875 61.679688 C 72.695312 62.25 72.894531 62.871094 73.375 63.242188 C 73.855469 63.617188 74.519531 63.667969 75.058594 63.375 Z M 75.058594 63.375 "/>
</g>
</g>
<path style=" stroke:none;fill-rule:nonzero;fill:rgb(26.666668%,60.000002%,40.000001%);fill-opacity:1;" d="M 44.652344 90.570312 L 51.300781 89.71875 C 51.300781 89.71875 50.484375 82.300781 39.761719 82.054688 C 33.035156 82.164062 26.644531 84.929688 22.074219 89.71875 L 28.722656 90.933594 C 28.722656 90.933594 33.113281 86.859375 38.382812 87.710938 C 43.523438 88.625 44.652344 90.570312 44.652344 90.570312 Z M 44.652344 90.570312 "/>
<path style=" stroke:none;fill-rule:nonzero;fill:rgb(21.960784%,25.098041%,27.843139%);fill-opacity:1;" d="M 49.480469 112.21875 C 49.480469 112.21875 50.109375 111.003906 48.917969 110.335938 C 48.351562 109.96875 48.289062 110.335938 47.160156 110.636719 C 46.09375 110.882812 43.898438 110.394531 43.648438 110.03125 C 43.398438 109.605469 44.023438 112.035156 47.664062 111.429688 C 49.921875 111.125 49.480469 112.160156 49.480469 112.160156 Z M 48.917969 109.785156 C 48.917969 109.785156 47.914062 109.421875 46.847656 109.664062 C 45.84375 109.910156 44.464844 109.664062 43.835938 109.058594 C 43.835938 109.058594 44.589844 109.484375 45.84375 109.117188 C 45.9375 108.519531 46.472656 108.078125 47.097656 108.085938 C 47.851562 107.960938 47.726562 109.117188 47.726562 109.117188 C 47.726562 109.117188 48.605469 109.300781 48.917969 109.785156 Z M 40.261719 115.136719 C 40.261719 115.136719 38.445312 100.179688 40.953125 99.207031 C 40.953125 99.207031 43.648438 96.589844 42.394531 95.132812 C 40.828125 93.308594 33.113281 92.089844 25.398438 94.402344 C 25.398438 94.402344 21.386719 96.894531 26.214844 102.367188 C 27.65625 104.011719 29.726562 107.839844 27.84375 114.226562 Z M 40.261719 115.136719 "/>
<path style=" stroke:none;fill-rule:nonzero;fill:rgb(93.333334%,33.333334%,26.666668%);fill-opacity:1;" d="M 25.335938 89.902344 L 24.707031 89.78125 L 13.609375 68.375 L 17.246094 67.949219 L 26.964844 71.71875 L 35.246094 66.0625 L 48.605469 64.664062 Z M 25.335938 89.902344 "/>
<path style=" stroke:none;fill-rule:nonzero;fill:rgb(21.960784%,25.098041%,27.843139%);fill-opacity:1;" d="M 58.828125 103.828125 L 60.082031 103.828125 L 61.335938 102.609375 L 61.335938 66.730469 L 58.828125 66.730469 Z M 58.828125 103.828125 "/>
<path style=" stroke:none;fill-rule:nonzero;fill:rgb(93.725491%,83.529413%,74.117649%);fill-opacity:1;" d="M 59.957031 63.570312 L 54.5 69.042969 L 56.503906 71.777344 C 56.503906 71.777344 58.074219 73.054688 58.761719 74.578125 C 58.953125 75.003906 60.207031 74.578125 59.203125 72.753906 L 58.386719 71.050781 L 62.277344 74.394531 C 62.277344 74.394531 64.40625 76.460938 64.597656 75.609375 C 64.660156 75.003906 63.84375 73.785156 63.46875 73.542969 C 63.089844 73.300781 60.582031 70.078125 60.582031 70.078125 L 63.71875 72.628906 C 63.71875 72.628906 66.101562 74.636719 66.289062 74.332031 C 67.167969 73.117188 65.597656 72.023438 65.160156 71.71875 C 64.722656 71.414062 61.710938 68.554688 61.710938 68.554688 L 65.914062 71.050781 C 65.914062 71.050781 67.480469 72.265625 67.605469 71.839844 C 67.984375 70.804688 66.855469 70.015625 66.601562 69.832031 L 63.027344 67.402344 L 64.15625 67.582031 C 64.15625 67.582031 67.480469 68.921875 67.480469 68.617188 C 67.667969 67.21875 61.835938 64.542969 61.835938 64.542969 Z M 59.957031 63.570312 "/>
<path style=" stroke:none;fill-rule:nonzero;fill:rgb(26.666668%,60.000002%,40.000001%);fill-opacity:1;" d="M 25.460938 90.386719 L 21.824219 89.65625 L 48.605469 64.664062 L 60.644531 63.386719 Z M 25.460938 90.386719 "/>
<path style=" stroke:none;fill-rule:nonzero;fill:rgb(44.313726%,47.450981%,51.764709%);fill-opacity:1;" d="M 27.65625 115.261719 C 27.65625 115.261719 29.851562 106.867188 25.273438 101.820312 C 20.695312 96.773438 24.644531 93.671875 27.65625 93.792969 C 27.65625 93.792969 23.707031 94.582031 24.773438 98.234375 C 25.902344 101.941406 31.042969 103.585938 27.65625 115.261719 Z M 27.65625 115.261719 "/>
<path style=" stroke:none;fill-rule:nonzero;fill:rgb(44.313726%,47.450981%,51.764709%);fill-opacity:1;" d="M 40.324219 115.261719 C 40.324219 115.261719 38.316406 102.003906 41.015625 99.386719 C 43.710938 96.773438 43.398438 95.496094 41.640625 94.582031 C 41.640625 94.582031 42.894531 96.410156 40.703125 98.839844 C 36.9375 103.160156 40.324219 115.261719 40.324219 115.261719 Z M 36.6875 114.46875 C 36.6875 114.46875 35.121094 100.300781 36.375 98.839844 C 36.375 98.839844 37.816406 94.582031 36.1875 93.792969 C 36.1875 93.792969 36.8125 96.773438 35.433594 98.839844 C 34.054688 100.910156 36.6875 114.46875 36.6875 114.46875 Z M 30.605469 112.828125 C 30.605469 112.828125 31.230469 102.671875 29.476562 100.484375 C 27.71875 98.292969 28.597656 93.488281 29.976562 93.609375 C 29.976562 93.609375 28.09375 97.5625 30.417969 100.785156 C 32.171875 103.160156 30.605469 112.886719 30.605469 112.886719 Z M 30.605469 112.828125 "/>
<path style=" stroke:none;fill-rule:nonzero;fill:rgb(47.058824%,47.450981%,48.627451%);fill-opacity:1;" d="M 47.976562 107.660156 C 47.976562 107.660156 46.972656 106.199219 45.152344 107.414062 C 45.152344 107.414062 47.476562 106.929688 47.976562 107.660156 Z M 47.976562 107.660156 "/>
<path style=" stroke:none;fill-rule:nonzero;fill:rgb(21.960784%,25.098041%,27.843139%);fill-opacity:1;" d="M 51.113281 101.882812 C 51.113281 101.882812 49.355469 101.882812 48.164062 101.457031 C 48.164062 101.457031 47.285156 98.535156 47.726562 98.234375 L 48.980469 98.234375 C 48.980469 98.234375 49.984375 97.441406 49.984375 95.800781 C 49.984375 95.800781 48.980469 95.191406 48.605469 95.070312 L 43.585938 94.21875 L 46.660156 102.125 C 46.660156 102.125 47.601562 102.914062 49.167969 102.914062 L 50.988281 103.035156 Z M 51.113281 101.882812 "/>
<path style=" stroke:none;fill-rule:nonzero;fill:rgb(93.333334%,86.666667%,86.666667%);fill-opacity:1;" d="M 51.238281 89.71875 C 51.238281 89.71875 49.796875 81.207031 36.9375 82.300781 L 38.445312 81.265625 C 38.445312 81.265625 50.546875 79.441406 52.617188 89.535156 Z M 51.238281 89.71875 "/>
<path style=" stroke:none;fill-rule:nonzero;fill:rgb(33.333334%,46.666667%,53.333336%);fill-opacity:1;" d="M 26.339844 90.082031 L 17.183594 67.949219 L 30.039062 66.488281 C 33.800781 70.746094 34.742188 77.070312 35.683594 83.273438 Z M 26.339844 90.082031 "/>
<path style=" stroke:none;fill-rule:nonzero;fill:rgb(93.333334%,86.666667%,86.666667%);fill-opacity:1;" d="M 35.683594 83.210938 L 30.039062 66.488281 L 31.609375 66.367188 C 34.554688 70.625 37.378906 75.003906 37 82.300781 Z M 35.683594 83.210938 "/>
<path style=" stroke:none;fill-rule:nonzero;fill:rgb(21.960784%,25.098041%,27.843139%);fill-opacity:1;" d="M 36.9375 82.300781 L 31.542969 66.425781 L 35.183594 66.0625 L 39.761719 80.171875 Z M 36.9375 82.300781 "/>
<path style=" stroke:none;fill-rule:nonzero;fill:rgb(93.333334%,86.666667%,86.666667%);fill-opacity:1;" d="M 39.761719 80.109375 L 39.320312 78.710938 L 60.644531 63.386719 L 63.34375 63.082031 Z M 39.761719 80.109375 "/>
<path style=" stroke:none;fill-rule:nonzero;fill:rgb(59.215689%,60.000002%,60.784316%);fill-opacity:1;" d="M 60.082031 122.070312 L 65.097656 110.636719 L 61.335938 106.261719 C 61.335938 106.261719 65.535156 106.867188 65.535156 103.828125 C 65.535156 100.785156 62.839844 101.210938 62.839844 101.210938 C 62.839844 101.210938 64.21875 101.636719 64.21875 102.976562 C 64.21875 104.070312 63.089844 105.042969 61.335938 105.042969 L 59.578125 106.5625 L 58.828125 117.8125 L 58.828125 119.636719 Z M 60.082031 122.070312 "/>
<path style=" stroke:none;fill-rule:nonzero;fill:rgb(76.078433%,77.254903%,77.64706%);fill-opacity:1;" d="M 60.082031 122.070312 L 60.082031 120.246094 L 64.34375 110.941406 L 61.335938 106.261719 L 65.726562 110.636719 Z M 58.828125 117.8125 L 58.828125 103.828125 L 61.335938 102.609375 L 61.335938 105.042969 L 60.144531 107.355469 C 64.972656 112.097656 58.828125 117.8125 58.828125 117.8125 Z M 58.828125 117.8125 "/>
<path style=" stroke:none;fill-rule:nonzero;fill:rgb(33.333334%,46.666667%,53.333336%);fill-opacity:1;" d="M 51.363281 113.921875 L 52.617188 124.199219 L 48.792969 121.765625 L 46.09375 123.589844 C 46.09375 123.589844 40.386719 120.0625 36.5625 120.550781 C 32.738281 121.039062 30.039062 123.410156 30.039062 123.410156 L 29.097656 120.976562 L 24.707031 123.589844 C 24.707031 123.589844 27.03125 118.421875 27.84375 114.164062 C 27.84375 114.164062 41.078125 115.078125 51.363281 113.921875 Z M 51.363281 113.921875 "/>
<path style=" stroke:none;fill-rule:nonzero;fill:rgb(93.333334%,86.666667%,86.666667%);fill-opacity:1;" d="M 47.851562 117.632812 C 47.882812 118.046875 48.085938 118.433594 48.417969 118.695312 C 48.75 118.960938 49.179688 119.082031 49.605469 119.03125 C 49.984375 119.03125 50.359375 118.789062 50.609375 118.421875 L 50.796875 118.605469 C 50.300781 118.953125 50.039062 119.535156 50.109375 120.125 C 50.140625 120.527344 50.335938 120.902344 50.65625 121.167969 C 50.972656 121.429688 51.386719 121.558594 51.800781 121.523438 L 52.242188 121.402344 C 51.988281 118.96875 51.738281 116.71875 51.425781 114.652344 L 50.609375 114.652344 C 51.238281 116.476562 51.113281 117.085938 50.925781 117.265625 C 50.863281 116.414062 50.046875 115.746094 49.230469 115.867188 C 48.414062 115.988281 47.726562 116.78125 47.851562 117.632812 Z M 30.792969 117.8125 C 30.617188 118.355469 30.140625 118.746094 29.5625 118.824219 C 28.984375 118.902344 28.414062 118.652344 28.09375 118.179688 L 27.90625 118.300781 C 28.335938 118.753906 28.425781 119.421875 28.132812 119.964844 C 27.835938 120.511719 27.21875 120.820312 26.589844 120.734375 L 25.964844 120.550781 L 27.15625 116.839844 L 27.53125 115.503906 L 27.78125 114.652344 L 28.597656 114.835938 C 27.71875 116.355469 27.78125 116.902344 27.96875 117.085938 C 28.304688 116.5 29.007812 116.207031 29.675781 116.378906 C 30.34375 116.554688 30.804688 117.144531 30.792969 117.8125 Z M 30.792969 117.8125 "/>
<path style=" stroke:none;fill-rule:nonzero;fill:rgb(93.333334%,86.666667%,86.666667%);fill-opacity:1;" d="M 32.984375 83.375 C 33.117188 83.320312 33.226562 83.222656 33.292969 83.097656 L 33.410156 83.144531 C 33.242188 83.257812 33.164062 83.460938 33.210938 83.652344 C 33.316406 83.890625 33.609375 84 33.910156 83.914062 C 34.214844 83.832031 34.382812 83.570312 34.296875 83.277344 C 34.226562 83.121094 34.074219 83 33.875 82.988281 L 33.898438 82.933594 C 34.015625 82.976562 34.132812 83.019531 34.292969 82.949219 C 34.617188 82.808594 34.789062 82.546875 34.679688 82.3125 C 34.574219 82.078125 34.300781 81.910156 33.976562 82.050781 C 33.675781 82.132812 33.503906 82.394531 33.613281 82.632812 C 33.554688 82.609375 33.402344 82.488281 33.371094 81.890625 L 33.046875 82.03125 C 33.402344 82.488281 33.453125 82.703125 33.347656 82.792969 C 33.261719 82.5 32.96875 82.390625 32.667969 82.476562 C 32.367188 82.558594 32.195312 82.820312 32.304688 83.054688 C 32.414062 83.292969 32.683594 83.457031 33.007812 83.316406 Z M 32.121094 80.96875 C 32.238281 80.925781 32.339844 80.851562 32.410156 80.75 L 32.527344 80.792969 C 32.386719 80.902344 32.320312 81.078125 32.347656 81.25 C 32.457031 81.484375 32.75 81.59375 33.050781 81.511719 C 33.351562 81.425781 33.523438 81.164062 33.414062 80.929688 C 33.363281 80.714844 33.1875 80.648438 33.015625 80.585938 C 33.152344 80.617188 33.300781 80.605469 33.433594 80.542969 C 33.734375 80.460938 33.925781 80.144531 33.820312 79.90625 C 33.710938 79.671875 33.417969 79.5625 33.117188 79.644531 C 32.816406 79.730469 32.644531 79.992188 32.730469 80.285156 C 32.671875 80.261719 32.539062 80.082031 32.484375 79.542969 L 32.183594 79.625 C 32.539062 80.082031 32.589844 80.296875 32.488281 80.386719 C 32.402344 80.097656 32.109375 79.988281 31.785156 80.125 C 31.503906 80.152344 31.335938 80.414062 31.441406 80.652344 C 31.550781 80.886719 31.820312 81.050781 32.121094 80.96875 Z M 31.296875 78.644531 C 31.429688 78.589844 31.539062 78.492188 31.605469 78.367188 L 31.722656 78.410156 C 31.585938 78.519531 31.515625 78.695312 31.542969 78.863281 C 31.652344 79.101562 31.921875 79.265625 32.246094 79.125 C 32.570312 78.988281 32.71875 78.78125 32.613281 78.546875 C 32.5625 78.332031 32.386719 78.265625 32.1875 78.257812 L 32.234375 78.144531 C 32.351562 78.1875 32.46875 78.230469 32.628906 78.160156 C 32.929688 78.078125 33.101562 77.816406 33.015625 77.523438 C 32.90625 77.289062 32.613281 77.179688 32.3125 77.261719 C 32.011719 77.34375 31.839844 77.609375 31.925781 77.898438 C 31.867188 77.878906 31.738281 77.699219 31.683594 77.15625 L 31.382812 77.242188 C 31.738281 77.699219 31.789062 77.914062 31.683594 78.003906 C 31.597656 77.710938 31.304688 77.601562 30.980469 77.742188 C 30.703125 77.769531 30.507812 78.089844 30.617188 78.324219 C 30.726562 78.558594 31.019531 78.667969 31.320312 78.585938 Z M 30.433594 76.238281 C 30.566406 76.183594 30.679688 76.085938 30.746094 75.960938 L 30.863281 76.003906 C 30.722656 76.113281 30.65625 76.289062 30.683594 76.460938 C 30.769531 76.753906 31.0625 76.863281 31.386719 76.722656 C 31.710938 76.582031 31.859375 76.375 31.726562 76.199219 C 31.679688 75.984375 31.523438 75.859375 31.328125 75.851562 L 31.347656 75.796875 L 31.769531 75.757812 C 32.070312 75.671875 32.242188 75.410156 32.132812 75.175781 C 32.046875 74.882812 31.753906 74.773438 31.429688 74.914062 C 31.128906 74.996094 30.957031 75.257812 31.066406 75.496094 C 31.007812 75.472656 30.851562 75.351562 30.820312 74.753906 L 30.519531 74.835938 C 30.851562 75.351562 30.902344 75.566406 30.820312 75.601562 C 30.714844 75.363281 30.445312 75.199219 30.121094 75.339844 C 29.816406 75.421875 29.648438 75.683594 29.753906 75.917969 C 29.863281 76.15625 30.132812 76.320312 30.457031 76.179688 Z M 29.632812 73.855469 C 29.765625 73.800781 29.875 73.703125 29.941406 73.578125 L 30.058594 73.621094 C 29.890625 73.734375 29.808594 73.9375 29.859375 74.132812 C 29.964844 74.367188 30.257812 74.476562 30.558594 74.394531 C 30.863281 74.3125 31.03125 74.050781 30.945312 73.757812 C 30.875 73.601562 30.722656 73.476562 30.523438 73.46875 L 30.546875 73.414062 C 30.671875 73.460938 30.8125 73.464844 30.941406 73.429688 C 31.265625 73.289062 31.4375 73.027344 31.328125 72.792969 C 31.222656 72.554688 30.949219 72.390625 30.625 72.53125 C 30.363281 72.597656 30.199219 72.855469 30.261719 73.113281 C 30.203125 73.089844 30.050781 72.96875 30.019531 72.371094 L 29.695312 72.507812 C 30.050781 72.96875 30.101562 73.179688 29.996094 73.273438 C 29.910156 72.980469 29.617188 72.871094 29.316406 72.953125 C 29.015625 73.039062 28.84375 73.300781 28.953125 73.535156 C 29.039062 73.828125 29.332031 73.9375 29.65625 73.796875 Z M 28.769531 71.449219 C 28.910156 71.4375 29.011719 71.34375 29.082031 71.171875 L 29.199219 71.21875 C 29.027344 71.332031 28.949219 71.535156 28.996094 71.726562 C 29.105469 71.964844 29.398438 72.074219 29.699219 71.988281 C 30 71.90625 30.171875 71.644531 30.085938 71.351562 C 30.011719 71.195312 29.859375 71.074219 29.660156 71.0625 L 29.683594 71.007812 C 29.800781 71.050781 29.917969 71.09375 30.082031 71.023438 C 30.382812 70.941406 30.574219 70.621094 30.46875 70.386719 C 30.359375 70.152344 30.066406 70.042969 29.765625 70.125 C 29.464844 70.207031 29.292969 70.46875 29.398438 70.707031 C 29.34375 70.683594 29.167969 70.617188 29.15625 69.964844 L 28.832031 70.105469 C 29.1875 70.5625 29.238281 70.777344 29.136719 70.867188 C 29.050781 70.574219 28.757812 70.464844 28.433594 70.605469 C 28.152344 70.632812 27.980469 70.894531 28.089844 71.128906 C 28.199219 71.367188 28.46875 71.53125 28.769531 71.449219 Z M 27.96875 69.066406 C 28.082031 69.023438 28.183594 68.945312 28.253906 68.847656 L 28.371094 68.890625 C 28.234375 69 28.164062 69.171875 28.191406 69.34375 C 28.300781 69.582031 28.570312 69.746094 28.894531 69.605469 C 29.21875 69.464844 29.367188 69.261719 29.257812 69.027344 C 29.210938 68.8125 29.035156 68.746094 28.835938 68.738281 L 28.882812 68.625 C 29 68.667969 29.117188 68.710938 29.277344 68.640625 C 29.578125 68.558594 29.75 68.296875 29.664062 68.003906 C 29.554688 67.769531 29.261719 67.660156 28.960938 67.742188 C 28.660156 67.824219 28.488281 68.085938 28.574219 68.378906 C 28.515625 68.359375 28.386719 68.179688 28.332031 67.636719 L 28.03125 67.722656 C 28.386719 68.179688 28.433594 68.394531 28.332031 68.484375 C 28.246094 68.191406 27.953125 68.082031 27.628906 68.222656 C 27.351562 68.25 27.15625 68.566406 27.265625 68.804688 C 27.371094 69.039062 27.664062 69.148438 27.96875 69.066406 Z M 27.96875 69.066406 "/>
<path style=" stroke:none;fill-rule:nonzero;fill:rgb(26.666668%,60.000002%,40.000001%);fill-opacity:1;" d="M 48.679688 64.617188 L 52.570312 63.117188 L 60.722656 63.359375 L 49.976562 66.773438 Z M 48.679688 64.617188 "/>
<path style=" stroke:none;fill-rule:nonzero;fill:rgb(33.333334%,46.666667%,53.333336%);fill-opacity:1;" d="M 73.753906 61.441406 L 75.980469 61.742188 L 74.558594 62.699219 L 72.953125 62.039062 Z M 73.753906 61.441406 "/>
<path style=" stroke:none;fill-rule:nonzero;fill:rgb(21.960784%,25.098041%,27.843139%);fill-opacity:1;" d="M 54.894531 38.40625 L 72.707031 41.6875 C 72.707031 41.6875 76.21875 41.992188 76.21875 46.066406 L 76.21875 61.695312 L 54.332031 57.441406 L 26.421875 66.867188 L 13.628906 68.324219 L 13.941406 67.71875 C 18.960938 60.601562 31.628906 43.816406 34.386719 41.8125 C 36.394531 41.035156 38.507812 40.542969 40.660156 40.351562 C 45.390625 39.597656 50.136719 38.949219 54.894531 38.40625 Z M 54.894531 38.40625 "/>
<path style=" stroke:none;fill-rule:nonzero;fill:rgb(93.725491%,83.529413%,74.117649%);fill-opacity:1;" d="M 50.757812 14.082031 L 38.464844 16.148438 L 39.027344 19.1875 L 37.835938 21.4375 L 36.707031 24.90625 L 38.964844 25.390625 L 38.714844 28.1875 L 40.15625 29.101562 L 40.03125 30.136719 C 40.03125 30.136719 41.664062 30.804688 40.660156 31.714844 C 39.78125 32.628906 38.964844 34.390625 43.417969 34.636719 C 46.117188 34.757812 47.496094 35.730469 45.238281 39.5 C 45.238281 39.5 46.617188 44.667969 50.445312 45.035156 C 54.988281 45.664062 59.390625 43.203125 61.105469 39.074219 Z M 50.757812 14.082031 "/>
<g clip-path="url(#clip3)" clip-rule="nonzero">
<g clip-path="url(#clip4)" clip-rule="nonzero">
<path style=" stroke:none;fill-rule:nonzero;fill:rgb(33.333334%,46.666667%,53.333336%);fill-opacity:1;" d="M 36.40625 39.34375 C 35.644531 39.273438 34.949219 39.777344 34.796875 40.507812 C 34.644531 41.238281 35.085938 41.960938 35.816406 42.1875 C 36.550781 42.410156 37.339844 42.066406 37.648438 41.386719 C 37.773438 41.566406 37.773438 42.175781 36.644531 43.574219 L 37.460938 43.9375 C 37.710938 42.113281 38.089844 41.75 38.402344 41.628906 L 37.648438 40.230469 C 37.496094 39.871094 37.203125 39.585938 36.835938 39.4375 C 36.699219 39.386719 36.554688 39.355469 36.40625 39.34375 Z M 33.699219 41.878906 C 33.117188 41.914062 32.605469 42.265625 32.382812 42.789062 L 30.875 43.574219 L 30.4375 46.371094 C 31.089844 46.679688 31.875 46.492188 32.308594 45.925781 C 32.738281 45.359375 32.691406 44.574219 32.191406 44.0625 L 32.382812 44 C 32.546875 44.335938 32.839844 44.597656 33.195312 44.730469 C 33.570312 44.890625 33.996094 44.898438 34.375 44.746094 C 34.75 44.597656 35.050781 44.308594 35.203125 43.9375 C 35.410156 43.464844 35.351562 42.921875 35.042969 42.5 C 34.738281 42.082031 34.226562 41.84375 33.699219 41.878906 Z M 36.25 44.28125 C 35.6875 44.253906 35.109375 44.53125 34.828125 45.214844 C 34.609375 45.726562 34.703125 46.3125 35.078125 46.738281 L 34.890625 46.796875 C 34.722656 46.460938 34.433594 46.203125 34.074219 46.066406 C 33.308594 45.769531 32.441406 46.125 32.125 46.863281 C 31.808594 47.601562 32.164062 48.449219 32.921875 48.761719 C 33.679688 49.078125 34.554688 48.746094 34.890625 48.015625 C 35.015625 48.195312 35.015625 48.804688 33.886719 50.203125 L 34.703125 50.507812 C 34.953125 48.742188 35.328125 48.316406 35.644531 48.257812 C 34.847656 50.082031 37.667969 51.238281 38.464844 49.414062 C 38.628906 49.042969 38.625 48.625 38.457031 48.253906 C 38.292969 47.886719 37.976562 47.601562 37.585938 47.464844 C 37.222656 47.324219 36.820312 47.324219 36.457031 47.464844 L 36.394531 47.285156 C 36.972656 47.222656 37.460938 46.84375 37.648438 46.3125 C 38.121094 45.167969 37.191406 44.316406 36.25 44.28125 Z M 40.113281 44.4375 C 39.585938 44.4375 39.066406 44.710938 38.777344 45.339844 C 38.617188 45.707031 38.617188 46.125 38.785156 46.496094 C 38.949219 46.863281 39.265625 47.148438 39.65625 47.285156 C 40.019531 47.425781 40.421875 47.425781 40.785156 47.285156 L 40.847656 47.527344 C 39.105469 47.515625 38.742188 49.898438 40.410156 50.386719 C 41.914062 51.089844 43.304688 49.253906 42.164062 48.074219 L 42.351562 47.953125 C 42.507812 48.3125 42.800781 48.59375 43.167969 48.742188 C 43.933594 49.042969 44.804688 48.6875 45.121094 47.949219 C 45.433594 47.210938 45.082031 46.363281 44.324219 46.046875 C 43.566406 45.734375 42.6875 46.066406 42.351562 46.796875 C 42.101562 46.699219 41.851562 46.613281 41.601562 46.554688 C 42.144531 45.355469 41.117188 44.425781 40.113281 44.4375 Z M 27.992188 47.039062 L 26.863281 49.777344 C 27.222656 49.917969 27.628906 49.917969 27.992188 49.777344 L 28.054688 50.019531 C 27.367188 50.101562 26.828125 50.628906 26.746094 51.292969 C 26.660156 51.960938 27.058594 52.59375 27.703125 52.832031 C 28.347656 53.070312 29.082031 52.851562 29.476562 52.300781 C 29.871094 51.75 29.828125 51.011719 29.371094 50.507812 L 29.558594 50.445312 C 29.726562 50.78125 30.015625 51.042969 30.375 51.175781 C 30.746094 51.335938 31.171875 51.34375 31.550781 51.195312 C 31.929688 51.046875 32.230469 50.753906 32.382812 50.386719 C 32.710938 49.628906 32.34375 48.757812 31.566406 48.441406 C 30.785156 48.121094 29.886719 48.472656 29.558594 49.230469 L 28.871094 48.988281 C 29.03125 48.617188 29.03125 48.199219 28.863281 47.832031 C 28.695312 47.460938 28.382812 47.175781 27.992188 47.039062 Z M 45.746094 48.125 C 45.144531 48.21875 44.660156 48.65625 44.523438 49.230469 C 44.382812 49.808594 44.617188 50.40625 45.113281 50.75 L 44.863281 50.8125 C 44.695312 50.476562 44.402344 50.214844 44.046875 50.082031 C 43.269531 49.796875 42.402344 50.179688 42.109375 50.933594 C 41.816406 51.6875 42.207031 52.527344 42.984375 52.8125 C 43.761719 53.097656 44.628906 52.71875 44.925781 51.964844 C 45.050781 52.210938 44.988281 52.757812 43.921875 54.214844 L 44.738281 54.519531 C 44.988281 52.695312 45.363281 52.332031 45.613281 52.210938 C 45.601562 52.230469 45.601562 52.25 45.613281 52.269531 C 45.304688 53.027344 45.683594 53.882812 46.460938 54.1875 C 47.242188 54.488281 48.125 54.121094 48.4375 53.367188 C 48.738281 52.625 48.378906 51.789062 47.621094 51.480469 C 47.257812 51.339844 46.855469 51.339844 46.492188 51.480469 L 46.367188 51.238281 C 47.128906 51.277344 47.800781 50.753906 47.929688 50.023438 C 48.058594 49.292969 47.601562 48.585938 46.867188 48.378906 C 46.542969 48.152344 46.140625 48.0625 45.746094 48.125 Z M 49.421875 48.550781 C 48.859375 48.769531 48.492188 49.292969 48.480469 49.878906 C 48.472656 50.464844 48.824219 51 49.378906 51.238281 C 49.738281 51.378906 50.144531 51.378906 50.507812 51.238281 L 51.382812 50.445312 C 51.609375 49.902344 51.480469 49.28125 51.050781 48.867188 C 50.621094 48.453125 49.980469 48.328125 49.421875 48.550781 Z M 33.574219 50.738281 C 32.949219 50.675781 32.351562 50.996094 32.074219 51.539062 C 31.796875 52.082031 31.894531 52.738281 32.320312 53.183594 L 32.128906 53.304688 C 31.976562 52.945312 31.683594 52.664062 31.316406 52.515625 C 30.941406 52.351562 30.515625 52.347656 30.140625 52.496094 C 29.761719 52.644531 29.460938 52.9375 29.308594 53.304688 C 28.980469 54.058594 29.34375 54.929688 30.125 55.25 C 30.902344 55.570312 31.800781 55.214844 32.128906 54.460938 C 32.257812 54.640625 32.257812 55.25 31.128906 56.648438 L 31.941406 56.953125 C 32.191406 55.25 32.570312 54.824219 32.882812 54.703125 C 32.71875 55.066406 32.710938 55.476562 32.863281 55.84375 C 33.019531 56.210938 33.320312 56.5 33.699219 56.648438 C 34.070312 56.808594 34.496094 56.816406 34.875 56.667969 C 35.253906 56.519531 35.554688 56.226562 35.707031 55.859375 C 35.867188 55.488281 35.867188 55.070312 35.699219 54.703125 C 35.53125 54.332031 35.21875 54.046875 34.828125 53.914062 C 34.464844 53.769531 34.058594 53.769531 33.699219 53.914062 L 33.636719 53.730469 C 34.382812 53.734375 35.023438 53.203125 35.132812 52.484375 C 35.242188 51.765625 34.792969 51.078125 34.074219 50.871094 C 33.917969 50.796875 33.746094 50.75 33.574219 50.730469 Z M 39.78125 50.75 C 39.53125 52.453125 39.15625 52.878906 38.839844 53 C 39.117188 52.355469 38.882812 51.617188 38.285156 51.230469 C 37.6875 50.84375 36.894531 50.917969 36.386719 51.410156 C 35.878906 51.902344 35.800781 52.675781 36.199219 53.253906 C 36.597656 53.832031 37.363281 54.058594 38.027344 53.792969 L 38.089844 53.972656 C 37.375 54.070312 36.832031 54.640625 36.792969 55.339844 C 36.753906 56.035156 37.226562 56.664062 37.925781 56.835938 C 38.625 57.003906 39.347656 56.671875 39.65625 56.042969 C 39.878906 55.53125 39.78125 54.941406 39.40625 54.519531 L 39.59375 54.398438 C 39.746094 54.757812 40.039062 55.042969 40.410156 55.191406 C 41.175781 55.488281 42.042969 55.132812 42.359375 54.394531 C 42.675781 53.65625 42.320312 52.808594 41.5625 52.492188 C 40.804688 52.179688 39.929688 52.511719 39.59375 53.242188 C 39.46875 53.0625 39.46875 52.453125 40.597656 51.054688 Z M 26.925781 53.488281 C 26.675781 55.25 26.296875 55.617188 26.046875 55.738281 C 26.210938 55.375 26.21875 54.964844 26.066406 54.597656 C 25.910156 54.230469 25.609375 53.9375 25.230469 53.792969 C 24.859375 53.628906 24.433594 53.625 24.054688 53.773438 C 23.675781 53.921875 23.375 54.214844 23.222656 54.582031 C 23.058594 54.945312 23.050781 55.355469 23.207031 55.722656 C 23.359375 56.089844 23.660156 56.378906 24.039062 56.527344 C 24.402344 56.667969 24.808594 56.667969 25.167969 56.527344 L 25.292969 56.710938 C 24.601562 56.746094 24.019531 57.234375 23.894531 57.898438 C 23.765625 58.5625 24.121094 59.222656 24.753906 59.5 C 25.386719 59.773438 26.136719 59.59375 26.5625 59.0625 C 26.988281 58.53125 26.980469 57.785156 26.546875 57.257812 L 26.800781 57.136719 C 26.953125 57.492188 27.246094 57.777344 27.613281 57.925781 C 28.386719 58.195312 29.238281 57.8125 29.527344 57.070312 C 29.820312 56.328125 29.445312 55.496094 28.683594 55.199219 C 27.921875 54.902344 27.058594 55.25 26.738281 55.980469 C 26.613281 55.796875 26.675781 55.191406 27.742188 53.792969 Z M 21.84375 56.355469 C 21.652344 56.359375 21.460938 56.394531 21.28125 56.46875 C 21.28125 56.46875 20.402344 57.316406 20.402344 57.257812 C 20.09375 58 20.460938 58.84375 21.222656 59.148438 C 21.984375 59.457031 22.859375 59.109375 23.183594 58.375 C 23.507812 57.640625 23.164062 56.789062 22.410156 56.46875 C 22.230469 56.394531 22.039062 56.359375 21.84375 56.355469 Z M 36.960938 57.316406 C 36.707031 59.140625 36.332031 59.507812 36.082031 59.628906 C 36.417969 58.894531 36.082031 58.035156 35.328125 57.703125 C 34.570312 57.375 33.683594 57.695312 33.339844 58.425781 C 32.992188 59.15625 33.324219 60.019531 34.074219 60.359375 C 34.4375 60.5 34.839844 60.5 35.203125 60.359375 L 35.265625 60.601562 L 36.753906 59.824219 C 36.652344 59.554688 36.714844 58.996094 37.773438 57.683594 Z M 36.753906 59.824219 L 36.773438 59.871094 L 36.773438 59.8125 Z M 29.949219 57.574219 C 29.550781 57.789062 29.277344 58.167969 29.203125 58.601562 C 29.128906 59.035156 29.257812 59.480469 29.558594 59.8125 L 29.308594 59.871094 C 29.140625 59.539062 28.851562 59.277344 28.492188 59.140625 C 28.121094 58.980469 27.695312 58.976562 27.316406 59.125 C 26.9375 59.273438 26.636719 59.566406 26.484375 59.933594 C 26.15625 60.6875 26.523438 61.558594 27.300781 61.878906 C 28.082031 62.199219 28.980469 61.84375 29.308594 61.089844 L 30.8125 60.296875 C 31.425781 60.25 31.949219 59.84375 32.128906 59.269531 C 32.308594 58.699219 32.113281 58.078125 31.632812 57.703125 C 31.152344 57.332031 30.484375 57.277344 29.949219 57.574219 Z M 18.332031 59.855469 C 17.707031 59.789062 17.105469 60.109375 16.828125 60.65625 C 16.546875 61.203125 16.648438 61.859375 17.078125 62.304688 L 16.890625 63.582031 C 17.015625 63.765625 17.015625 64.371094 15.886719 65.769531 L 16.703125 66.074219 C 16.953125 64.371094 17.328125 63.945312 17.582031 63.824219 C 17.273438 64.566406 17.636719 65.410156 18.398438 65.714844 C 19.160156 66.023438 20.035156 65.679688 20.359375 64.945312 C 20.6875 64.210938 20.339844 63.359375 19.585938 63.035156 C 19.226562 62.890625 18.820312 62.890625 18.457031 63.035156 L 18.394531 62.851562 C 19.144531 62.855469 19.785156 62.324219 19.894531 61.609375 C 20.003906 60.890625 19.550781 60.203125 18.835938 59.992188 C 18.675781 59.917969 18.507812 59.871094 18.332031 59.855469 Z M 24.164062 59.992188 C 23.914062 61.816406 23.539062 62.183594 23.226562 62.304688 C 23.5 61.660156 23.265625 60.917969 22.671875 60.53125 C 22.074219 60.144531 21.277344 60.222656 20.769531 60.714844 C 20.261719 61.207031 20.183594 61.976562 20.582031 62.558594 C 20.980469 63.136719 21.746094 63.363281 22.410156 63.09375 L 22.472656 63.277344 C 21.777344 63.3125 21.199219 63.804688 21.070312 64.464844 C 20.941406 65.128906 21.296875 65.789062 21.933594 66.066406 C 22.566406 66.34375 23.3125 66.164062 23.738281 65.628906 C 24.164062 65.097656 24.160156 64.351562 23.726562 63.824219 L 23.976562 63.703125 C 24.128906 64.0625 24.421875 64.347656 24.792969 64.492188 C 25.175781 64.652344 25.605469 64.648438 25.984375 64.488281 C 26.367188 64.328125 26.660156 64.023438 26.800781 63.644531 C 27.109375 62.886719 26.730469 62.03125 25.953125 61.726562 C 25.171875 61.425781 24.289062 61.792969 23.976562 62.546875 C 23.851562 62.367188 23.851562 61.757812 24.980469 60.359375 Z M 27.582031 63.824219 C 26.324219 63.824219 25.414062 65.5625 26.738281 66.5 L 26.546875 66.5625 C 26.386719 66.226562 26.089844 65.953125 25.734375 65.832031 C 23.851562 65.058594 22.660156 67.777344 24.542969 68.570312 L 28.554688 69.785156 L 28.492188 64.128906 C 28.1875 63.910156 27.878906 63.824219 27.582031 63.824219 Z M 21.40625 66.621094 C 21.15625 68.386719 20.777344 68.8125 20.527344 68.871094 C 20.835938 68.128906 20.46875 67.289062 19.707031 66.980469 C 18.945312 66.675781 18.074219 67.019531 17.75 67.753906 C 17.421875 68.488281 17.765625 69.339844 18.519531 69.664062 L 21.21875 69.175781 C 21.09375 68.933594 21.09375 68.386719 22.222656 66.925781 Z M 14.769531 66.695312 C 14.375 66.910156 14.101562 67.289062 14.027344 67.722656 C 13.949219 68.160156 14.082031 68.601562 14.382812 68.933594 L 15.636719 69.417969 C 16.25 69.371094 16.773438 68.964844 16.953125 68.390625 C 17.132812 67.820312 16.933594 67.199219 16.453125 66.828125 C 15.972656 66.453125 15.308594 66.402344 14.769531 66.695312 Z M 14.769531 66.695312 "/>
</g>
</g>
<path style=" stroke:none;fill-rule:nonzero;fill:rgb(26.666668%,60.000002%,40.000001%);fill-opacity:1;" d="M 45.175781 39.5 L 38.527344 40.351562 C 38.527344 40.351562 39.34375 47.769531 50.066406 48.015625 C 56.792969 47.90625 63.183594 45.140625 67.753906 40.351562 L 61.105469 39.136719 C 61.105469 39.136719 56.714844 43.210938 51.445312 42.359375 C 46.304688 41.445312 45.175781 39.5 45.175781 39.5 Z M 45.175781 39.5 "/>
<path style=" stroke:none;fill-rule:nonzero;fill:rgb(21.960784%,25.098041%,27.843139%);fill-opacity:1;" d="M 40.347656 17.851562 C 40.347656 17.851562 39.71875 19.066406 40.910156 19.734375 C 41.476562 20.101562 41.539062 19.734375 42.667969 19.433594 C 43.734375 19.1875 45.929688 19.675781 46.179688 20.039062 C 46.429688 20.464844 45.800781 18.035156 42.164062 18.640625 C 39.90625 18.945312 40.347656 17.910156 40.347656 17.910156 Z M 40.910156 20.285156 C 40.910156 20.285156 41.914062 20.648438 42.980469 20.40625 C 43.984375 20.160156 45.363281 20.40625 45.992188 21.011719 C 45.992188 21.011719 45.238281 20.585938 43.984375 20.953125 C 43.890625 21.550781 43.355469 21.992188 42.730469 21.984375 C 41.976562 22.109375 42.101562 20.953125 42.101562 20.953125 C 42.101562 20.953125 41.222656 20.769531 40.910156 20.285156 Z M 49.566406 14.933594 C 49.566406 14.933594 51.382812 29.890625 48.875 30.863281 C 48.875 30.863281 46.179688 33.480469 47.433594 34.9375 C 49 36.761719 56.714844 37.980469 64.429688 35.667969 C 64.429688 35.667969 68.441406 33.175781 63.613281 27.703125 C 62.171875 26.0625 60.101562 22.230469 61.984375 15.84375 Z M 49.566406 14.933594 "/>
<path style=" stroke:none;fill-rule:nonzero;fill:rgb(93.333334%,33.333334%,26.666668%);fill-opacity:1;" d="M 64.492188 40.167969 L 65.117188 40.289062 L 76.21875 61.695312 L 72.582031 62.121094 L 62.859375 58.351562 L 54.582031 64.007812 L 41.222656 65.40625 Z M 64.492188 40.167969 "/>
<path style=" stroke:none;fill-rule:nonzero;fill:rgb(21.960784%,25.098041%,27.843139%);fill-opacity:1;" d="M 31 26.242188 L 29.746094 26.242188 L 28.492188 27.460938 L 28.492188 63.339844 L 31 63.339844 Z M 31 26.242188 "/>
<path style=" stroke:none;fill-rule:nonzero;fill:rgb(93.725491%,83.529413%,74.117649%);fill-opacity:1;" d="M 29.871094 66.5 L 35.328125 61.027344 L 33.320312 58.292969 C 33.320312 58.292969 31.753906 57.015625 31.0625 55.492188 C 30.875 55.066406 29.621094 55.492188 30.625 57.316406 L 31.441406 59.019531 L 27.550781 55.675781 C 27.550781 55.675781 25.421875 53.609375 25.230469 54.460938 C 25.167969 55.066406 25.984375 56.285156 26.359375 56.527344 C 26.738281 56.769531 29.246094 59.992188 29.246094 59.992188 L 26.109375 57.441406 C 26.109375 57.441406 23.726562 55.433594 23.539062 55.738281 C 22.660156 56.953125 24.226562 58.046875 24.667969 58.351562 C 25.105469 58.65625 28.117188 61.515625 28.117188 61.515625 L 23.914062 59.019531 C 23.914062 59.019531 22.347656 57.804688 22.222656 58.230469 C 21.84375 59.265625 22.972656 60.054688 23.226562 60.238281 L 26.800781 62.667969 L 25.671875 62.488281 C 25.671875 62.488281 22.347656 61.148438 22.347656 61.453125 C 22.160156 62.851562 27.992188 65.527344 27.992188 65.527344 Z M 29.871094 66.5 "/>
<path style=" stroke:none;fill-rule:nonzero;fill:rgb(26.666668%,60.000002%,40.000001%);fill-opacity:1;" d="M 64.367188 39.683594 L 68.003906 40.414062 L 41.222656 65.40625 L 29.183594 66.683594 Z M 64.367188 39.683594 "/>
<path style=" stroke:none;fill-rule:nonzero;fill:rgb(44.313726%,47.450981%,51.764709%);fill-opacity:1;" d="M 62.171875 14.808594 C 62.171875 14.808594 59.976562 23.203125 64.554688 28.25 C 69.132812 33.296875 65.183594 36.398438 62.171875 36.277344 C 62.171875 36.277344 66.121094 35.488281 65.054688 31.835938 C 63.925781 28.128906 58.785156 26.484375 62.171875 14.808594 Z M 62.171875 14.808594 "/>
<path style=" stroke:none;fill-rule:nonzero;fill:rgb(44.313726%,47.450981%,51.764709%);fill-opacity:1;" d="M 49.503906 14.808594 C 49.503906 14.808594 51.507812 28.066406 48.8125 30.683594 C 46.117188 33.296875 46.429688 34.574219 48.1875 35.488281 C 48.1875 35.488281 46.929688 33.664062 49.125 31.230469 C 52.890625 26.910156 49.503906 14.808594 49.503906 14.808594 Z M 53.140625 15.601562 C 53.140625 15.601562 54.707031 29.769531 53.453125 31.230469 C 53.453125 31.230469 52.011719 35.488281 53.640625 36.277344 C 53.640625 36.277344 53.015625 33.296875 54.394531 31.230469 C 55.773438 29.160156 53.140625 15.601562 53.140625 15.601562 Z M 59.222656 17.242188 C 59.222656 17.242188 58.597656 27.398438 60.351562 29.585938 C 62.109375 31.777344 61.230469 36.582031 59.851562 36.460938 C 59.851562 36.460938 61.734375 32.507812 59.410156 29.285156 C 57.65625 26.910156 59.222656 17.183594 59.222656 17.183594 Z M 59.222656 17.242188 "/>
<path style=" stroke:none;fill-rule:nonzero;fill:rgb(47.058824%,47.450981%,48.627451%);fill-opacity:1;" d="M 41.851562 22.410156 C 41.851562 22.410156 42.855469 23.871094 44.671875 22.65625 C 44.671875 22.65625 42.351562 23.140625 41.851562 22.410156 Z M 41.851562 22.410156 "/>
<path style=" stroke:none;fill-rule:nonzero;fill:rgb(21.960784%,25.098041%,27.843139%);fill-opacity:1;" d="M 38.714844 28.1875 C 38.714844 28.1875 40.472656 28.1875 41.664062 28.613281 C 41.664062 28.613281 42.542969 31.535156 42.101562 31.835938 L 40.847656 31.835938 C 40.847656 31.835938 39.84375 32.628906 39.84375 34.269531 C 39.84375 34.269531 40.847656 34.878906 41.222656 35 L 46.242188 35.851562 L 43.167969 27.945312 C 43.167969 27.945312 42.226562 27.15625 40.660156 27.15625 L 38.839844 27.035156 Z M 38.714844 28.1875 "/>
<path style=" stroke:none;fill-rule:nonzero;fill:rgb(93.333334%,86.666667%,86.666667%);fill-opacity:1;" d="M 38.589844 40.351562 C 38.589844 40.351562 40.03125 48.867188 52.890625 47.769531 L 51.382812 48.804688 C 51.382812 48.804688 39.28125 50.628906 37.210938 40.535156 Z M 38.589844 40.351562 "/>
<path style=" stroke:none;fill-rule:nonzero;fill:rgb(33.333334%,46.666667%,53.333336%);fill-opacity:1;" d="M 63.488281 39.988281 L 72.644531 62.121094 L 59.789062 63.582031 C 56.023438 59.324219 55.085938 53 54.144531 46.796875 Z M 63.488281 39.988281 "/>
<path style=" stroke:none;fill-rule:nonzero;fill:rgb(93.333334%,86.666667%,86.666667%);fill-opacity:1;" d="M 54.144531 46.859375 L 59.789062 63.582031 L 58.21875 63.703125 C 55.273438 59.445312 52.449219 55.066406 52.828125 47.769531 Z M 54.144531 46.859375 "/>
<path style=" stroke:none;fill-rule:nonzero;fill:rgb(21.960784%,25.098041%,27.843139%);fill-opacity:1;" d="M 52.890625 47.769531 L 58.28125 63.644531 L 54.644531 64.007812 L 50.066406 49.898438 Z M 52.890625 47.769531 "/>
<path style=" stroke:none;fill-rule:nonzero;fill:rgb(93.333334%,86.666667%,86.666667%);fill-opacity:1;" d="M 50.066406 49.960938 L 50.507812 51.359375 L 29.183594 66.683594 L 26.484375 66.988281 Z M 50.066406 49.960938 "/>
<path style=" stroke:none;fill-rule:nonzero;fill:rgb(59.215689%,60.000002%,60.784316%);fill-opacity:1;" d="M 29.746094 8 L 24.730469 19.433594 L 28.492188 23.808594 C 28.492188 23.808594 24.289062 23.203125 24.289062 26.242188 C 24.289062 29.285156 26.988281 28.859375 26.988281 28.859375 C 26.988281 28.859375 25.609375 28.433594 25.609375 27.09375 C 25.609375 26 26.738281 25.027344 28.492188 25.027344 L 30.25 23.507812 L 31 12.257812 L 31 10.433594 Z M 29.746094 8 "/>
<path style=" stroke:none;fill-rule:nonzero;fill:rgb(76.078433%,77.254903%,77.64706%);fill-opacity:1;" d="M 29.746094 8 L 29.746094 9.824219 L 25.484375 19.128906 L 28.492188 23.808594 L 24.101562 19.433594 Z M 31 12.257812 L 31 26.242188 L 28.492188 27.460938 L 28.492188 25.027344 L 29.683594 22.714844 C 24.855469 17.972656 31 12.257812 31 12.257812 Z M 31 12.257812 "/>
<path style=" stroke:none;fill-rule:nonzero;fill:rgb(33.333334%,46.666667%,53.333336%);fill-opacity:1;" d="M 38.464844 16.148438 L 37.210938 5.871094 L 41.035156 8.304688 L 43.734375 6.480469 C 43.734375 6.480469 49.441406 10.007812 53.265625 9.519531 C 57.089844 9.03125 59.789062 6.660156 59.789062 6.660156 L 60.730469 9.09375 L 65.117188 6.480469 C 65.117188 6.480469 62.796875 11.648438 61.984375 15.90625 C 61.984375 15.90625 48.75 14.992188 38.464844 16.148438 Z M 38.464844 16.148438 "/>
<path style=" stroke:none;fill-rule:nonzero;fill:rgb(93.333334%,86.666667%,86.666667%);fill-opacity:1;" d="M 41.976562 12.4375 C 41.945312 12.023438 41.742188 11.636719 41.410156 11.375 C 41.078125 11.109375 40.648438 10.988281 40.222656 11.039062 C 39.84375 11.039062 39.46875 11.28125 39.21875 11.648438 L 39.027344 11.464844 C 39.527344 11.117188 39.789062 10.535156 39.71875 9.945312 C 39.6875 9.542969 39.492188 9.167969 39.171875 8.90625 C 38.855469 8.640625 38.441406 8.511719 38.027344 8.546875 L 37.585938 8.667969 C 37.835938 11.101562 38.089844 13.351562 38.402344 15.417969 L 39.21875 15.417969 C 38.589844 13.59375 38.714844 12.984375 38.902344 12.804688 C 38.964844 13.65625 39.78125 14.324219 40.597656 14.203125 C 41.414062 14.082031 42.101562 13.289062 41.976562 12.4375 Z M 59.035156 12.257812 C 59.207031 11.714844 59.6875 11.324219 60.265625 11.246094 C 60.839844 11.167969 61.414062 11.417969 61.734375 11.890625 L 61.921875 11.769531 C 61.492188 11.316406 61.402344 10.648438 61.695312 10.105469 C 61.992188 9.558594 62.609375 9.25 63.238281 9.335938 L 63.863281 9.519531 L 62.671875 13.230469 L 62.296875 14.566406 L 62.046875 15.417969 L 61.230469 15.234375 C 62.109375 13.714844 62.046875 13.167969 61.859375 12.984375 C 61.523438 13.570312 60.820312 13.863281 60.152344 13.691406 C 59.484375 13.515625 59.023438 12.925781 59.035156 12.257812 Z M 59.035156 12.257812 "/>
<path style=" stroke:none;fill-rule:nonzero;fill:rgb(93.333334%,86.666667%,86.666667%);fill-opacity:1;" d="M 56.84375 46.695312 C 56.710938 46.75 56.601562 46.847656 56.535156 46.972656 L 56.417969 46.925781 C 56.585938 46.8125 56.664062 46.609375 56.617188 46.417969 C 56.511719 46.179688 56.21875 46.070312 55.914062 46.15625 C 55.613281 46.238281 55.441406 46.5 55.527344 46.792969 C 55.601562 46.949219 55.753906 47.070312 55.953125 47.082031 L 55.929688 47.136719 C 55.8125 47.09375 55.695312 47.050781 55.535156 47.121094 C 55.210938 47.261719 55.039062 47.523438 55.148438 47.757812 C 55.253906 47.992188 55.527344 48.160156 55.847656 48.019531 C 56.152344 47.9375 56.320312 47.675781 56.214844 47.4375 C 56.273438 47.460938 56.425781 47.582031 56.457031 48.179688 L 56.78125 48.039062 C 56.425781 47.582031 56.375 47.367188 56.480469 47.277344 C 56.566406 47.570312 56.859375 47.679688 57.160156 47.59375 C 57.460938 47.511719 57.632812 47.25 57.523438 47.015625 C 57.414062 46.777344 57.144531 46.613281 56.820312 46.753906 Z M 57.707031 49.101562 C 57.589844 49.144531 57.488281 49.222656 57.417969 49.320312 L 57.300781 49.277344 C 57.441406 49.167969 57.507812 48.992188 57.480469 48.820312 C 57.371094 48.585938 57.078125 48.476562 56.777344 48.558594 C 56.476562 48.644531 56.304688 48.90625 56.414062 49.140625 C 56.460938 49.355469 56.636719 49.421875 56.8125 49.484375 C 56.675781 49.453125 56.527344 49.464844 56.394531 49.527344 C 56.09375 49.609375 55.902344 49.925781 56.007812 50.164062 C 56.117188 50.398438 56.410156 50.507812 56.710938 50.425781 C 57.011719 50.339844 57.183594 50.078125 57.097656 49.785156 C 57.15625 49.808594 57.289062 49.988281 57.339844 50.527344 L 57.644531 50.445312 C 57.289062 49.988281 57.238281 49.773438 57.339844 49.683594 C 57.425781 49.976562 57.71875 50.082031 58.042969 49.945312 C 58.324219 49.917969 58.492188 49.65625 58.386719 49.417969 C 58.277344 49.183594 58.007812 49.019531 57.707031 49.101562 Z M 58.53125 51.429688 C 58.398438 51.480469 58.289062 51.578125 58.21875 51.703125 L 58.105469 51.660156 C 58.242188 51.550781 58.3125 51.375 58.285156 51.207031 C 58.175781 50.96875 57.90625 50.804688 57.582031 50.945312 C 57.257812 51.082031 57.109375 51.289062 57.214844 51.523438 C 57.265625 51.738281 57.441406 51.804688 57.640625 51.8125 L 57.59375 51.925781 C 57.476562 51.882812 57.359375 51.839844 57.199219 51.910156 C 56.898438 51.992188 56.726562 52.253906 56.8125 52.546875 C 56.921875 52.78125 57.210938 52.890625 57.515625 52.808594 C 57.816406 52.726562 57.988281 52.460938 57.902344 52.171875 C 57.960938 52.191406 58.089844 52.371094 58.144531 52.914062 L 58.445312 52.828125 C 58.089844 52.371094 58.039062 52.15625 58.144531 52.066406 C 58.230469 52.359375 58.523438 52.46875 58.847656 52.328125 C 59.125 52.300781 59.320312 51.980469 59.210938 51.746094 C 59.101562 51.511719 58.808594 51.402344 58.507812 51.484375 Z M 59.394531 53.832031 C 59.257812 53.886719 59.148438 53.984375 59.082031 54.109375 L 58.964844 54.066406 C 59.105469 53.957031 59.171875 53.78125 59.144531 53.609375 C 59.058594 53.316406 58.765625 53.210938 58.441406 53.347656 C 58.117188 53.488281 57.96875 53.695312 58.101562 53.875 C 58.148438 54.085938 58.304688 54.210938 58.5 54.21875 L 58.480469 54.273438 L 58.058594 54.3125 C 57.757812 54.398438 57.585938 54.660156 57.695312 54.894531 C 57.78125 55.1875 58.074219 55.296875 58.398438 55.15625 C 58.699219 55.074219 58.871094 54.8125 58.761719 54.574219 C 58.820312 54.597656 58.972656 54.71875 59.007812 55.316406 L 59.308594 55.234375 C 58.972656 54.71875 58.925781 54.503906 59.007812 54.46875 C 59.113281 54.707031 59.382812 54.871094 59.707031 54.730469 C 60.011719 54.648438 60.179688 54.386719 60.074219 54.152344 C 59.964844 53.914062 59.695312 53.75 59.371094 53.890625 Z M 60.195312 56.214844 C 60.0625 56.269531 59.953125 56.367188 59.886719 56.492188 L 59.769531 56.449219 C 59.9375 56.335938 60.019531 56.132812 59.96875 55.9375 C 59.863281 55.703125 59.570312 55.59375 59.269531 55.675781 C 58.964844 55.757812 58.796875 56.019531 58.882812 56.3125 C 58.953125 56.46875 59.105469 56.59375 59.304688 56.601562 L 59.28125 56.65625 C 59.15625 56.609375 59.015625 56.605469 58.886719 56.640625 C 58.5625 56.78125 58.390625 57.042969 58.5 57.277344 C 58.605469 57.515625 58.878906 57.679688 59.203125 57.539062 C 59.464844 57.472656 59.628906 57.214844 59.566406 56.957031 C 59.625 56.980469 59.777344 57.101562 59.808594 57.699219 L 60.132812 57.5625 C 59.777344 57.101562 59.726562 56.890625 59.832031 56.796875 C 59.917969 57.089844 60.210938 57.199219 60.511719 57.117188 C 60.8125 57.03125 60.984375 56.769531 60.875 56.535156 C 60.789062 56.242188 60.496094 56.132812 60.171875 56.273438 Z M 61.058594 58.621094 C 60.917969 58.632812 60.8125 58.726562 60.746094 58.898438 L 60.628906 58.851562 C 60.800781 58.738281 60.878906 58.535156 60.832031 58.34375 C 60.722656 58.105469 60.429688 57.996094 60.128906 58.082031 C 59.828125 58.164062 59.65625 58.425781 59.742188 58.71875 C 59.816406 58.875 59.96875 58.996094 60.167969 59.007812 L 60.144531 59.0625 C 60.027344 59.019531 59.910156 58.976562 59.746094 59.046875 C 59.445312 59.128906 59.253906 59.449219 59.359375 59.683594 C 59.46875 59.917969 59.761719 60.027344 60.0625 59.945312 C 60.363281 59.863281 60.535156 59.601562 60.425781 59.363281 C 60.484375 59.386719 60.660156 59.453125 60.671875 60.105469 L 60.996094 59.964844 C 60.640625 59.507812 60.589844 59.292969 60.691406 59.203125 C 60.777344 59.496094 61.070312 59.605469 61.394531 59.464844 C 61.675781 59.4375 61.847656 59.175781 61.738281 58.941406 C 61.628906 58.703125 61.359375 58.539062 61.058594 58.621094 Z M 61.859375 61.003906 C 61.746094 61.046875 61.644531 61.125 61.574219 61.222656 L 61.457031 61.179688 C 61.59375 61.070312 61.664062 60.898438 61.636719 60.726562 C 61.527344 60.488281 61.257812 60.324219 60.933594 60.464844 C 60.609375 60.605469 60.460938 60.808594 60.566406 61.046875 C 60.617188 61.257812 60.792969 61.324219 60.992188 61.332031 L 60.945312 61.445312 C 60.828125 61.402344 60.710938 61.359375 60.550781 61.429688 C 60.25 61.511719 60.078125 61.773438 60.164062 62.066406 C 60.273438 62.300781 60.566406 62.410156 60.867188 62.328125 C 61.167969 62.246094 61.339844 61.984375 61.253906 61.691406 C 61.3125 61.710938 61.441406 61.890625 61.496094 62.433594 L 61.796875 62.351562 C 61.441406 61.890625 61.394531 61.675781 61.496094 61.585938 C 61.582031 61.878906 61.875 61.988281 62.199219 61.847656 C 62.476562 61.820312 62.671875 61.503906 62.5625 61.265625 C 62.453125 61.03125 62.164062 60.921875 61.859375 61.003906 Z M 61.859375 61.003906 "/>
<path style=" stroke:none;fill-rule:nonzero;fill:rgb(100%,100%,100%);fill-opacity:1;" d="M 85.46875 125.425781 L 76.902344 125.425781 L 76.902344 95.332031 L 85.46875 95.332031 Z M 85.46875 125.425781 "/>
<path style=" stroke:none;fill-rule:nonzero;fill:rgb(21.960784%,25.098041%,27.843139%);fill-opacity:1;" d="M 7.894531 21.671875 C 6.820312 21.671875 5.953125 22.519531 5.953125 23.570312 C 5.957031 24.238281 6.320312 24.855469 6.910156 25.191406 L 6.652344 25.394531 C 5.988281 24.863281 5.046875 24.820312 4.335938 25.289062 C 3.625 25.753906 3.3125 26.625 3.566406 27.425781 C 3.820312 28.226562 4.578125 28.769531 5.433594 28.765625 C 6.507812 28.765625 7.375 27.914062 7.375 26.863281 L 7.375 26.738281 C 7.375 26.738281 7.503906 26.992188 7.503906 27.445312 C 7.503906 28.714844 6.988281 29.523438 6.46875 30.285156 L 9.316406 30.285156 C 8.800781 29.523438 8.28125 28.6875 8.28125 27.421875 C 8.28125 26.992188 8.410156 26.738281 8.410156 26.738281 L 8.410156 26.863281 C 8.414062 27.753906 9.050781 28.519531 9.9375 28.710938 C 10.824219 28.902344 11.730469 28.464844 12.113281 27.65625 C 12.496094 26.851562 12.257812 25.890625 11.535156 25.347656 C 10.816406 24.804688 9.808594 24.824219 9.109375 25.394531 L 8.902344 25.191406 C 9.480469 24.847656 9.835938 24.234375 9.835938 23.570312 C 9.835938 22.519531 8.964844 21.671875 7.894531 21.671875 Z M 7.894531 21.671875 "/>
<path style=" stroke:none;fill-rule:nonzero;fill:rgb(21.960784%,25.098041%,27.843139%);fill-opacity:1;" d="M 82.105469 108.328125 C 83.179688 108.328125 84.046875 107.480469 84.046875 106.429688 C 84.042969 105.761719 83.679688 105.144531 83.089844 104.808594 L 83.347656 104.605469 C 84.011719 105.136719 84.953125 105.179688 85.664062 104.710938 C 86.375 104.246094 86.6875 103.375 86.433594 102.574219 C 86.179688 101.773438 85.421875 101.230469 84.566406 101.234375 C 83.492188 101.234375 82.625 102.085938 82.625 103.136719 L 82.625 103.261719 C 82.625 103.261719 82.496094 103.007812 82.496094 102.554688 C 82.496094 101.285156 83.011719 100.476562 83.53125 99.714844 L 80.683594 99.714844 C 81.199219 100.476562 81.71875 101.3125 81.71875 102.578125 C 81.71875 103.007812 81.589844 103.261719 81.589844 103.261719 L 81.589844 103.136719 C 81.585938 102.246094 80.949219 101.480469 80.0625 101.289062 C 79.175781 101.097656 78.269531 101.535156 77.886719 102.34375 C 77.503906 103.148438 77.742188 104.109375 78.464844 104.652344 C 79.183594 105.195312 80.191406 105.175781 80.890625 104.605469 L 81.097656 104.808594 C 80.519531 105.152344 80.164062 105.765625 80.164062 106.429688 C 80.164062 107.480469 81.035156 108.328125 82.105469 108.328125 Z M 82.105469 108.328125 "/>
<path style="fill-rule:nonzero;fill:rgb(21.960784%,25.098041%,27.843139%);fill-opacity:1;stroke-width:0.5;stroke-linecap:butt;stroke-linejoin:round;stroke:rgb(21.960784%,25.098041%,27.843139%);stroke-opacity:1;stroke-miterlimit:4;" d="M 1745.92218 -91.698799 L 1745.92218 -90.679808 C 1746.960591 -90.692789 1747.432596 -90.277404 1747.432596 -89.349279 L 1747.432596 -71.851201 C 1747.432596 -70.780288 1746.809549 -70.572595 1745.92218 -70.520672 L 1745.92218 -69.488701 L 1751.567362 -69.488701 L 1751.567362 -70.520672 C 1750.409376 -70.520672 1750.15764 -71.078845 1750.15764 -71.851201 L 1750.15764 -77.679567 L 1751.101651 -79.321634 L 1754.500088 -71.948557 C 1754.990974 -70.890624 1754.298699 -70.520672 1753.549784 -70.520672 L 1753.549784 -69.488701 L 1759.390063 -69.488701 L 1759.390063 -70.520672 C 1758.452346 -70.520672 1758.062155 -71.072355 1757.690844 -71.851201 L 1752.612067 -82.488942 L 1756.381816 -89.349279 C 1756.941929 -90.36827 1757.130731 -90.569472 1758.081035 -90.679808 L 1758.081035 -91.698799 L 1754.122484 -91.698799 L 1754.122484 -90.679808 C 1755.060201 -90.679808 1755.29935 -90.082693 1755.060201 -89.647837 L 1750.15764 -80.950721 L 1750.15764 -89.349279 C 1750.15764 -89.829568 1750.252041 -90.666828 1751.479255 -90.666828 L 1751.479255 -91.698799 Z M 1745.92218 -91.698799 " transform="matrix(0.62069,0,0,0.601852,-1079.999968,60.185181)"/>
<path style="fill-rule:nonzero;fill:rgb(21.960784%,25.098041%,27.843139%);fill-opacity:1;stroke-width:0.5;stroke-linecap:butt;stroke-linejoin:round;stroke:rgb(21.960784%,25.098041%,27.843139%);stroke-opacity:1;stroke-miterlimit:4;" d="M 1745.921994 -91.698813 L 1745.921994 -90.679823 C 1746.960405 -90.692803 1747.432411 -90.277419 1747.432411 -89.349294 L 1747.432411 -71.851215 C 1747.432411 -70.780302 1746.809364 -70.57261 1745.921994 -70.520686 L 1745.921994 -69.488715 L 1751.567177 -69.488715 L 1751.567177 -70.520686 C 1750.40919 -70.520686 1750.157454 -71.07886 1750.157454 -71.851215 L 1750.157454 -77.679581 L 1751.101465 -79.321649 L 1754.499903 -71.948571 C 1754.990788 -70.890638 1754.298514 -70.520686 1753.549599 -70.520686 L 1753.549599 -69.488715 L 1759.389877 -69.488715 L 1759.389877 -70.520686 C 1758.45216 -70.520686 1758.061969 -71.072369 1757.690658 -71.851215 L 1752.611882 -82.488957 L 1756.38163 -89.349294 C 1756.941743 -90.368284 1757.130545 -90.569486 1758.080849 -90.679823 L 1758.080849 -91.698813 L 1754.122298 -91.698813 L 1754.122298 -90.679823 C 1755.060015 -90.679823 1755.299165 -90.082707 1755.060015 -89.647851 L 1750.157454 -80.950735 L 1750.157454 -89.349294 C 1750.157454 -89.829582 1750.251855 -90.666842 1751.479069 -90.666842 L 1751.479069 -91.698813 Z M 1745.921994 -91.698813 " transform="matrix(-0.62069,0.000000000000000074,-0.000000000000000076,-0.601852,1169.999853,69.81481)"/>
</g>
</svg>
