<?xml version="1.0" encoding="UTF-8"?>
<svg xmlns="http://www.w3.org/2000/svg" xmlns:xlink="http://www.w3.org/1999/xlink" width="90px" height="130px" viewBox="0 0 90 130" version="1.1">
<g id="surface1">
<path style="fill-rule:nonzero;fill:rgb(100%,100%,100%);fill-opacity:1;stroke-width:3;stroke-linecap:butt;stroke-linejoin:miter;stroke:rgb(21.960784%,25.098041%,27.843139%);stroke-opacity:1;stroke-miterlimit:4;" d="M 9.503034 1.499278 L 135.496968 1.499278 C 139.92123 1.499278 143.502177 5.08197 143.502177 9.501922 L 143.502177 206.498092 C 143.502177 210.918044 139.92123 214.500737 135.496968 214.500737 L 9.503034 214.500737 C 5.078772 214.500737 1.497825 210.918044 1.497825 206.498092 L 1.497825 9.501922 C 1.497825 5.08197 5.078772 1.499278 9.503034 1.499278 Z M 9.503034 1.499278 " transform="matrix(0.62069,0,0,0.601852,0.00000290271,0.000000826741)"/>
<path style=" stroke:none;fill-rule:nonzero;fill:rgb(21.960784%,25.098041%,27.843139%);fill-opacity:1;" d="M 27 9.328125 C 24.429688 9.328125 22.34375 11.351562 22.34375 13.84375 C 22.359375 15.429688 23.230469 16.890625 24.640625 17.695312 L 24.019531 18.175781 C 22.433594 16.914062 20.175781 16.808594 18.472656 17.921875 C 16.765625 19.03125 16.015625 21.09375 16.621094 23 C 17.226562 24.902344 19.050781 26.195312 21.101562 26.179688 C 23.675781 26.179688 25.757812 24.160156 25.757812 21.667969 L 25.757812 21.367188 C 25.757812 21.367188 26.070312 21.96875 26.070312 23.050781 C 26.070312 26.058594 24.828125 27.984375 23.585938 29.792969 L 30.414062 29.792969 C 29.171875 27.984375 27.929688 26 27.929688 22.992188 C 27.929688 21.96875 28.242188 21.367188 28.242188 21.367188 L 28.242188 21.667969 C 28.253906 23.78125 29.773438 25.601562 31.902344 26.054688 C 34.03125 26.503906 36.195312 25.464844 37.117188 23.550781 C 38.035156 21.632812 37.460938 19.355469 35.734375 18.066406 C 34.007812 16.777344 31.589844 16.824219 29.917969 18.175781 L 29.421875 17.695312 C 30.808594 16.875 31.652344 15.417969 31.65625 13.84375 C 31.65625 11.351562 29.570312 9.328125 27 9.328125 Z M 27 9.328125 "/>
<path style=" stroke:none;fill-rule:nonzero;fill:rgb(21.960784%,25.098041%,27.843139%);fill-opacity:1;" d="M 27 120.671875 C 24.429688 120.671875 22.34375 118.648438 22.34375 116.15625 C 22.359375 114.570312 23.230469 113.109375 24.640625 112.304688 L 24.019531 111.824219 C 22.433594 113.085938 20.175781 113.191406 18.472656 112.078125 C 16.765625 110.96875 16.015625 108.90625 16.621094 107 C 17.226562 105.097656 19.050781 103.804688 21.101562 103.820312 C 23.675781 103.820312 25.757812 105.839844 25.757812 108.332031 L 25.757812 108.632812 C 25.757812 108.632812 26.070312 108.03125 26.070312 106.949219 C 26.070312 103.941406 24.828125 102.015625 23.585938 100.207031 L 30.414062 100.207031 C 29.171875 102.015625 27.929688 104 27.929688 107.007812 C 27.929688 108.03125 28.242188 108.632812 28.242188 108.632812 L 28.242188 108.332031 C 28.253906 106.21875 29.773438 104.398438 31.902344 103.945312 C 34.03125 103.496094 36.195312 104.535156 37.117188 106.449219 C 38.035156 108.367188 37.460938 110.644531 35.734375 111.933594 C 34.007812 113.222656 31.589844 113.175781 29.917969 111.824219 L 29.421875 112.304688 C 30.808594 113.125 31.652344 114.582031 31.65625 116.15625 C 31.65625 118.648438 29.570312 120.671875 27 120.671875 Z M 27 120.671875 "/>
<path style=" stroke:none;fill-rule:nonzero;fill:rgb(21.960784%,25.098041%,27.843139%);fill-opacity:1;" d="M 27 54.769531 C 24.429688 54.769531 22.34375 56.789062 22.34375 59.28125 C 22.359375 60.867188 23.230469 62.332031 24.640625 63.132812 L 24.019531 63.617188 C 22.433594 62.351562 20.175781 62.25 18.472656 63.359375 C 16.765625 64.472656 16.015625 66.535156 16.621094 68.4375 C 17.226562 70.34375 19.050781 71.636719 21.101562 71.621094 C 23.675781 71.621094 25.757812 69.597656 25.757812 67.105469 L 25.757812 66.804688 C 25.757812 66.804688 26.070312 67.40625 26.070312 68.492188 C 26.070312 71.5 24.828125 73.425781 23.585938 75.230469 L 30.414062 75.230469 C 29.171875 73.425781 27.929688 71.441406 27.929688 68.429688 C 27.929688 67.40625 28.242188 66.804688 28.242188 66.804688 L 28.242188 67.105469 C 28.253906 69.21875 29.773438 71.042969 31.902344 71.492188 C 34.03125 71.945312 36.195312 70.90625 37.117188 68.988281 C 38.035156 67.074219 37.460938 64.796875 35.734375 63.507812 C 34.007812 62.21875 31.589844 62.261719 29.917969 63.617188 L 29.421875 63.132812 C 30.808594 62.316406 31.652344 60.855469 31.65625 59.28125 C 31.65625 56.789062 29.570312 54.769531 27 54.769531 Z M 27 54.769531 "/>
<path style=" stroke:none;fill-rule:nonzero;fill:rgb(21.960784%,25.098041%,27.843139%);fill-opacity:1;" d="M 63 9.328125 C 60.429688 9.328125 58.34375 11.351562 58.34375 13.84375 C 58.359375 15.429688 59.230469 16.890625 60.640625 17.695312 L 60.019531 18.175781 C 58.433594 16.914062 56.175781 16.808594 54.472656 17.921875 C 52.765625 19.03125 52.015625 21.09375 52.621094 23 C 53.226562 24.902344 55.050781 26.195312 57.101562 26.179688 C 59.675781 26.179688 61.757812 24.160156 61.757812 21.667969 L 61.757812 21.367188 C 61.757812 21.367188 62.070312 21.96875 62.070312 23.050781 C 62.070312 26.058594 60.828125 27.984375 59.585938 29.792969 L 66.414062 29.792969 C 65.171875 27.984375 63.929688 26 63.929688 22.992188 C 63.929688 21.96875 64.242188 21.367188 64.242188 21.367188 L 64.242188 21.667969 C 64.253906 23.78125 65.773438 25.601562 67.902344 26.054688 C 70.03125 26.503906 72.195312 25.464844 73.117188 23.550781 C 74.035156 21.632812 73.460938 19.355469 71.734375 18.066406 C 70.007812 16.777344 67.589844 16.824219 65.917969 18.175781 L 65.421875 17.695312 C 66.808594 16.875 67.652344 15.417969 67.65625 13.84375 C 67.65625 11.351562 65.570312 9.328125 63 9.328125 Z M 63 9.328125 "/>
<path style=" stroke:none;fill-rule:nonzero;fill:rgb(21.960784%,25.098041%,27.843139%);fill-opacity:1;" d="M 63 120.671875 C 60.429688 120.671875 58.34375 118.648438 58.34375 116.15625 C 58.359375 114.570312 59.230469 113.109375 60.640625 112.304688 L 60.019531 111.824219 C 58.433594 113.085938 56.175781 113.191406 54.472656 112.078125 C 52.765625 110.96875 52.015625 108.90625 52.621094 107 C 53.226562 105.097656 55.050781 103.804688 57.101562 103.820312 C 59.675781 103.820312 61.757812 105.839844 61.757812 108.332031 L 61.757812 108.632812 C 61.757812 108.632812 62.070312 108.03125 62.070312 106.949219 C 62.070312 103.941406 60.828125 102.015625 59.585938 100.207031 L 66.414062 100.207031 C 65.171875 102.015625 63.929688 104 63.929688 107.007812 C 63.929688 108.03125 64.242188 108.632812 64.242188 108.632812 L 64.242188 108.332031 C 64.253906 106.21875 65.773438 104.398438 67.902344 103.945312 C 70.03125 103.496094 72.195312 104.535156 73.117188 106.449219 C 74.035156 108.367188 73.460938 110.644531 71.734375 111.933594 C 70.007812 113.222656 67.589844 113.175781 65.917969 111.824219 L 65.421875 112.304688 C 66.808594 113.125 67.652344 114.582031 67.65625 116.15625 C 67.65625 118.648438 65.570312 120.671875 63 120.671875 Z M 63 120.671875 "/>
<path style=" stroke:none;fill-rule:nonzero;fill:rgb(21.960784%,25.098041%,27.843139%);fill-opacity:1;" d="M 63 75.230469 C 60.429688 75.230469 58.34375 73.210938 58.34375 70.71875 C 58.359375 69.132812 59.230469 67.667969 60.640625 66.867188 L 60.019531 66.382812 C 58.433594 67.648438 56.175781 67.75 54.472656 66.640625 C 52.765625 65.527344 52.015625 63.464844 52.621094 61.5625 C 53.226562 59.65625 55.050781 58.363281 57.101562 58.378906 C 59.675781 58.378906 61.757812 60.402344 61.757812 62.894531 L 61.757812 63.195312 C 61.757812 63.195312 62.070312 62.59375 62.070312 61.507812 C 62.070312 58.5 60.828125 56.574219 59.585938 54.769531 L 66.414062 54.769531 C 65.171875 56.574219 63.929688 58.558594 63.929688 61.570312 C 63.929688 62.59375 64.242188 63.195312 64.242188 63.195312 L 64.242188 62.894531 C 64.253906 60.78125 65.773438 58.957031 67.902344 58.507812 C 70.03125 58.054688 72.195312 59.09375 73.117188 61.011719 C 74.035156 62.925781 73.460938 65.203125 71.734375 66.492188 C 70.007812 67.78125 67.589844 67.738281 65.917969 66.382812 L 65.421875 66.867188 C 66.808594 67.683594 67.652344 69.144531 67.65625 70.71875 C 67.65625 73.210938 65.570312 75.230469 63 75.230469 Z M 63 75.230469 "/>
<path style=" stroke:none;fill-rule:nonzero;fill:rgb(21.960784%,25.098041%,27.843139%);fill-opacity:1;" d="M 7.894531 21.671875 C 6.820312 21.671875 5.953125 22.519531 5.953125 23.570312 C 5.957031 24.238281 6.320312 24.855469 6.910156 25.191406 L 6.652344 25.394531 C 5.988281 24.863281 5.046875 24.820312 4.335938 25.289062 C 3.625 25.753906 3.3125 26.625 3.566406 27.425781 C 3.820312 28.226562 4.578125 28.769531 5.433594 28.765625 C 6.507812 28.765625 7.375 27.914062 7.375 26.863281 L 7.375 26.738281 C 7.375 26.738281 7.503906 26.992188 7.503906 27.445312 C 7.503906 28.714844 6.988281 29.523438 6.46875 30.285156 L 9.316406 30.285156 C 8.800781 29.523438 8.28125 28.6875 8.28125 27.421875 C 8.28125 26.992188 8.410156 26.738281 8.410156 26.738281 L 8.410156 26.863281 C 8.414062 27.753906 9.050781 28.519531 9.9375 28.710938 C 10.824219 28.902344 11.730469 28.464844 12.113281 27.65625 C 12.496094 26.851562 12.257812 25.890625 11.535156 25.347656 C 10.816406 24.804688 9.808594 24.824219 9.109375 25.394531 L 8.902344 25.191406 C 9.480469 24.847656 9.835938 24.234375 9.835938 23.570312 C 9.835938 22.519531 8.964844 21.671875 7.894531 21.671875 Z M 7.894531 21.671875 "/>
<path style=" stroke:none;fill-rule:nonzero;fill:rgb(21.960784%,25.098041%,27.843139%);fill-opacity:1;" d="M 82.105469 108.328125 C 83.179688 108.328125 84.046875 107.480469 84.046875 106.429688 C 84.042969 105.761719 83.679688 105.144531 83.089844 104.808594 L 83.347656 104.605469 C 84.011719 105.136719 84.953125 105.179688 85.664062 104.710938 C 86.375 104.246094 86.6875 103.375 86.433594 102.574219 C 86.179688 101.773438 85.421875 101.230469 84.566406 101.234375 C 83.492188 101.234375 82.625 102.085938 82.625 103.136719 L 82.625 103.261719 C 82.625 103.261719 82.496094 103.007812 82.496094 102.554688 C 82.496094 101.285156 83.011719 100.476562 83.53125 99.714844 L 80.683594 99.714844 C 81.199219 100.476562 81.71875 101.3125 81.71875 102.578125 C 81.71875 103.007812 81.589844 103.261719 81.589844 103.261719 L 81.589844 103.136719 C 81.585938 102.246094 80.949219 101.480469 80.0625 101.289062 C 79.175781 101.097656 78.269531 101.535156 77.886719 102.34375 C 77.503906 103.148438 77.742188 104.109375 78.464844 104.652344 C 79.183594 105.195312 80.191406 105.175781 80.890625 104.605469 L 81.097656 104.808594 C 80.519531 105.152344 80.164062 105.765625 80.164062 106.429688 C 80.164062 107.480469 81.035156 108.328125 82.105469 108.328125 Z M 82.105469 108.328125 "/>
<path style="fill-rule:nonzero;fill:rgb(21.960784%,25.098041%,27.843139%);fill-opacity:1;stroke-width:0.5;stroke-linecap:butt;stroke-linejoin:round;stroke:rgb(21.960784%,25.098041%,27.843139%);stroke-opacity:1;stroke-miterlimit:4;" d="M 738.002166 -90.400722 C 734.207244 -89.881491 734.647783 -84.397116 734.597435 -81.502404 C 735.66102 -82.138461 736.667965 -82.521394 737.901472 -82.599279 C 741.230682 -82.599279 743.401907 -80.042067 743.401907 -75.998557 C 743.401907 -73.649038 742.722219 -69.30048 737.700083 -69.30048 C 734.408633 -69.30048 732.048607 -71.468268 731.897565 -78.601202 C 731.897565 -84.663221 732.199649 -91.802645 737.901472 -91.802645 C 740.601342 -91.802645 742.898434 -90.108654 742.898434 -87.298318 C 742.898434 -85.961298 742.180986 -84.702164 740.802731 -84.702164 C 739.80208 -84.702164 738.801429 -85.519952 738.801429 -86.798558 C 738.801429 -87.467068 739.292314 -88.602885 740.500648 -88.901443 C 740.047523 -89.939904 738.927297 -90.400722 738.002166 -90.400722 Z M 734.597435 -76.102403 C 734.597435 -75.232692 734.742184 -70.598557 737.599389 -70.598557 C 739.732852 -70.598557 740.802731 -72.428845 740.802731 -76.102403 C 740.802731 -77.692548 740.469181 -81.1 737.599389 -81.1 C 734.729597 -81.1 734.597435 -76.848798 734.597435 -76.102403 Z M 734.597435 -76.102403 " transform="matrix(0.62069,0,0,0.601852,-449.999961,60.185181)"/>
<path style="fill-rule:nonzero;fill:rgb(21.960784%,25.098041%,27.843139%);fill-opacity:1;stroke-width:0.5;stroke-linecap:butt;stroke-linejoin:round;stroke:rgb(21.960784%,25.098041%,27.843139%);stroke-opacity:1;stroke-miterlimit:4;" d="M 738.002164 -90.400736 C 734.207242 -89.881505 734.64778 -84.39713 734.597433 -81.502418 C 735.661018 -82.138476 736.667963 -82.521409 737.90147 -82.599293 C 741.23068 -82.599293 743.401904 -80.042081 743.401904 -75.998572 C 743.401904 -73.649052 742.722217 -69.300494 737.700081 -69.300494 C 734.408631 -69.300494 732.048605 -71.468283 731.897563 -78.601216 C 731.897563 -84.663236 732.199647 -91.802659 737.90147 -91.802659 C 740.60134 -91.802659 742.898432 -90.108669 742.898432 -87.298332 C 742.898432 -85.961313 742.180984 -84.702178 740.802729 -84.702178 C 739.802078 -84.702178 738.801427 -85.519967 738.801427 -86.798572 C 738.801427 -87.467082 739.292312 -88.602899 740.500645 -88.901457 C 740.04752 -89.939919 738.927295 -90.400736 738.002164 -90.400736 Z M 734.597433 -76.102418 C 734.597433 -75.232706 734.742181 -70.598571 737.599387 -70.598571 C 739.73285 -70.598571 740.802729 -72.42886 740.802729 -76.102418 C 740.802729 -77.692562 740.469178 -81.100014 737.599387 -81.100014 C 734.729595 -81.100014 734.597433 -76.848812 734.597433 -76.102418 Z M 734.597433 -76.102418 " transform="matrix(-0.62069,0.000000000000000074,-0.000000000000000076,-0.601852,539.99996,69.81481)"/>
</g>
</svg>
