<?xml version="1.0" encoding="UTF-8"?>
<svg xmlns="http://www.w3.org/2000/svg" xmlns:xlink="http://www.w3.org/1999/xlink" width="90px" height="130px" viewBox="0 0 90 130" version="1.1">
<g id="surface1">
<path style="fill-rule:nonzero;fill:rgb(100%,100%,100%);fill-opacity:1;stroke-width:3;stroke-linecap:butt;stroke-linejoin:miter;stroke:rgb(21.960784%,25.098041%,27.843139%);stroke-opacity:1;stroke-miterlimit:4;" d="M 9.503057 1.499278 L 135.496991 1.499278 C 139.921254 1.499278 143.5022 5.08197 143.5022 9.501922 L 143.5022 206.498092 C 143.5022 210.918044 139.921254 214.500737 135.496991 214.500737 L 9.503057 214.500737 C 5.078795 214.500737 1.497849 210.918044 1.497849 206.498092 L 1.497849 9.501922 C 1.497849 5.08197 5.078795 1.499278 9.503057 1.499278 Z M 9.503057 1.499278 " transform="matrix(0.62069,0,0,0.601852,-0.0000114995,0.000000826741)"/>
<path style=" stroke:none;fill-rule:nonzero;fill:rgb(21.960784%,25.098041%,27.843139%);fill-opacity:1;" d="M 27 9.328125 C 24.429688 9.328125 22.34375 11.351562 22.34375 13.84375 C 22.359375 15.429688 23.230469 16.890625 24.640625 17.695312 L 24.019531 18.175781 C 22.433594 16.914062 20.175781 16.808594 18.472656 17.921875 C 16.765625 19.03125 16.015625 21.09375 16.621094 23 C 17.226562 24.902344 19.050781 26.195312 21.101562 26.179688 C 23.675781 26.179688 25.757812 24.160156 25.757812 21.667969 L 25.757812 21.367188 C 25.757812 21.367188 26.070312 21.96875 26.070312 23.050781 C 26.070312 26.058594 24.828125 27.984375 23.585938 29.792969 L 30.414062 29.792969 C 29.171875 27.984375 27.929688 26 27.929688 22.992188 C 27.929688 21.96875 28.242188 21.367188 28.242188 21.367188 L 28.242188 21.667969 C 28.253906 23.78125 29.773438 25.601562 31.902344 26.054688 C 34.03125 26.503906 36.195312 25.464844 37.117188 23.550781 C 38.035156 21.632812 37.460938 19.355469 35.734375 18.066406 C 34.007812 16.777344 31.589844 16.824219 29.917969 18.175781 L 29.421875 17.695312 C 30.808594 16.875 31.652344 15.417969 31.65625 13.84375 C 31.65625 11.351562 29.570312 9.328125 27 9.328125 Z M 27 9.328125 "/>
<path style=" stroke:none;fill-rule:nonzero;fill:rgb(21.960784%,25.098041%,27.843139%);fill-opacity:1;" d="M 27 120.671875 C 24.429688 120.671875 22.34375 118.648438 22.34375 116.15625 C 22.359375 114.570312 23.230469 113.109375 24.640625 112.304688 L 24.019531 111.824219 C 22.433594 113.085938 20.175781 113.191406 18.472656 112.078125 C 16.765625 110.96875 16.015625 108.90625 16.621094 107 C 17.226562 105.097656 19.050781 103.804688 21.101562 103.820312 C 23.675781 103.820312 25.757812 105.839844 25.757812 108.332031 L 25.757812 108.632812 C 25.757812 108.632812 26.070312 108.03125 26.070312 106.949219 C 26.070312 103.941406 24.828125 102.015625 23.585938 100.207031 L 30.414062 100.207031 C 29.171875 102.015625 27.929688 104 27.929688 107.007812 C 27.929688 108.03125 28.242188 108.632812 28.242188 108.632812 L 28.242188 108.332031 C 28.253906 106.21875 29.773438 104.398438 31.902344 103.945312 C 34.03125 103.496094 36.195312 104.535156 37.117188 106.449219 C 38.035156 108.367188 37.460938 110.644531 35.734375 111.933594 C 34.007812 113.222656 31.589844 113.175781 29.917969 111.824219 L 29.421875 112.304688 C 30.808594 113.125 31.652344 114.582031 31.65625 116.15625 C 31.65625 118.648438 29.570312 120.671875 27 120.671875 Z M 27 120.671875 "/>
<path style=" stroke:none;fill-rule:nonzero;fill:rgb(21.960784%,25.098041%,27.843139%);fill-opacity:1;" d="M 63 9.328125 C 60.429688 9.328125 58.34375 11.351562 58.34375 13.84375 C 58.359375 15.429688 59.230469 16.890625 60.640625 17.695312 L 60.019531 18.175781 C 58.433594 16.914062 56.175781 16.808594 54.472656 17.921875 C 52.765625 19.03125 52.015625 21.09375 52.621094 23 C 53.226562 24.902344 55.050781 26.195312 57.101562 26.179688 C 59.675781 26.179688 61.757812 24.160156 61.757812 21.667969 L 61.757812 21.367188 C 61.757812 21.367188 62.070312 21.96875 62.070312 23.050781 C 62.070312 26.058594 60.828125 27.984375 59.585938 29.792969 L 66.414062 29.792969 C 65.171875 27.984375 63.929688 26 63.929688 22.992188 C 63.929688 21.96875 64.242188 21.367188 64.242188 21.367188 L 64.242188 21.667969 C 64.253906 23.78125 65.773438 25.601562 67.902344 26.054688 C 70.03125 26.503906 72.195312 25.464844 73.117188 23.550781 C 74.035156 21.632812 73.460938 19.355469 71.734375 18.066406 C 70.007812 16.777344 67.589844 16.824219 65.917969 18.175781 L 65.421875 17.695312 C 66.808594 16.875 67.652344 15.417969 67.65625 13.84375 C 67.65625 11.351562 65.570312 9.328125 63 9.328125 Z M 63 9.328125 "/>
<path style=" stroke:none;fill-rule:nonzero;fill:rgb(21.960784%,25.098041%,27.843139%);fill-opacity:1;" d="M 63 120.671875 C 60.429688 120.671875 58.34375 118.648438 58.34375 116.15625 C 58.359375 114.570312 59.230469 113.109375 60.640625 112.304688 L 60.019531 111.824219 C 58.433594 113.085938 56.175781 113.191406 54.472656 112.078125 C 52.765625 110.96875 52.015625 108.90625 52.621094 107 C 53.226562 105.097656 55.050781 103.804688 57.101562 103.820312 C 59.675781 103.820312 61.757812 105.839844 61.757812 108.332031 L 61.757812 108.632812 C 61.757812 108.632812 62.070312 108.03125 62.070312 106.949219 C 62.070312 103.941406 60.828125 102.015625 59.585938 100.207031 L 66.414062 100.207031 C 65.171875 102.015625 63.929688 104 63.929688 107.007812 C 63.929688 108.03125 64.242188 108.632812 64.242188 108.632812 L 64.242188 108.332031 C 64.253906 106.21875 65.773438 104.398438 67.902344 103.945312 C 70.03125 103.496094 72.195312 104.535156 73.117188 106.449219 C 74.035156 108.367188 73.460938 110.644531 71.734375 111.933594 C 70.007812 113.222656 67.589844 113.175781 65.917969 111.824219 L 65.421875 112.304688 C 66.808594 113.125 67.652344 114.582031 67.65625 116.15625 C 67.65625 118.648438 65.570312 120.671875 63 120.671875 Z M 63 120.671875 "/>
<path style=" stroke:none;fill-rule:nonzero;fill:rgb(21.960784%,25.098041%,27.843139%);fill-opacity:1;" d="M 7.894531 21.671875 C 6.820312 21.671875 5.953125 22.519531 5.953125 23.570312 C 5.957031 24.238281 6.320312 24.855469 6.910156 25.191406 L 6.652344 25.394531 C 5.988281 24.863281 5.046875 24.820312 4.335938 25.289062 C 3.625 25.753906 3.3125 26.625 3.566406 27.425781 C 3.820312 28.226562 4.578125 28.769531 5.433594 28.765625 C 6.507812 28.765625 7.375 27.914062 7.375 26.863281 L 7.375 26.738281 C 7.375 26.738281 7.503906 26.992188 7.503906 27.445312 C 7.503906 28.714844 6.988281 29.523438 6.46875 30.285156 L 9.316406 30.285156 C 8.800781 29.523438 8.28125 28.6875 8.28125 27.421875 C 8.28125 26.992188 8.410156 26.738281 8.410156 26.738281 L 8.410156 26.863281 C 8.414062 27.753906 9.050781 28.519531 9.9375 28.710938 C 10.824219 28.902344 11.730469 28.464844 12.113281 27.65625 C 12.496094 26.851562 12.257812 25.890625 11.535156 25.347656 C 10.816406 24.804688 9.808594 24.824219 9.109375 25.394531 L 8.902344 25.191406 C 9.480469 24.847656 9.835938 24.234375 9.835938 23.570312 C 9.835938 22.519531 8.964844 21.671875 7.894531 21.671875 Z M 7.894531 21.671875 "/>
<path style=" stroke:none;fill-rule:nonzero;fill:rgb(21.960784%,25.098041%,27.843139%);fill-opacity:1;" d="M 82.105469 108.328125 C 83.179688 108.328125 84.046875 107.480469 84.046875 106.429688 C 84.042969 105.761719 83.679688 105.144531 83.089844 104.808594 L 83.347656 104.605469 C 84.011719 105.136719 84.953125 105.179688 85.664062 104.710938 C 86.375 104.246094 86.6875 103.375 86.433594 102.574219 C 86.179688 101.773438 85.421875 101.230469 84.566406 101.234375 C 83.492188 101.234375 82.625 102.085938 82.625 103.136719 L 82.625 103.261719 C 82.625 103.261719 82.496094 103.007812 82.496094 102.554688 C 82.496094 101.285156 83.011719 100.476562 83.53125 99.714844 L 80.683594 99.714844 C 81.199219 100.476562 81.71875 101.3125 81.71875 102.578125 C 81.71875 103.007812 81.589844 103.261719 81.589844 103.261719 L 81.589844 103.136719 C 81.585938 102.246094 80.949219 101.480469 80.0625 101.289062 C 79.175781 101.097656 78.269531 101.535156 77.886719 102.34375 C 77.503906 103.148438 77.742188 104.109375 78.464844 104.652344 C 79.183594 105.195312 80.191406 105.175781 80.890625 104.605469 L 81.097656 104.808594 C 80.519531 105.152344 80.164062 105.765625 80.164062 106.429688 C 80.164062 107.480469 81.035156 108.328125 82.105469 108.328125 Z M 82.105469 108.328125 "/>
<path style="fill-rule:nonzero;fill:rgb(21.960784%,25.098041%,27.843139%);fill-opacity:1;stroke-width:0.5;stroke-linecap:butt;stroke-linejoin:round;stroke:rgb(21.960784%,25.098041%,27.843139%);stroke-opacity:1;stroke-miterlimit:4;" d="M 445.698804 -70.098797 C 446.498066 -70.098797 447.102233 -70.202643 447.398023 -70.501201 C 447.800801 -70.702403 448.00219 -71.098316 448.00219 -71.701922 L 448.00219 -75.297596 L 440.701842 -75.297596 L 440.701842 -76.699519 L 449.802103 -91.997357 L 451.199239 -91.997357 L 451.199239 -76.699519 L 452.19989 -76.699519 C 452.602667 -76.699519 452.898457 -76.900721 453.099846 -77.199278 C 453.301235 -77.40048 453.40193 -77.90024 453.40193 -78.497355 L 454.402581 -78.497355 L 454.402581 -73.499759 L 453.40193 -73.499759 C 453.40193 -74.096874 453.301235 -74.499278 453.099846 -74.797836 C 452.898457 -75.102884 452.602667 -75.297596 452.099195 -75.297596 L 451.098544 -75.297596 L 451.098544 -71.701922 C 451.098544 -71.098316 451.400627 -70.702403 451.702711 -70.501201 C 452.099195 -70.202643 452.697069 -70.098797 453.502624 -70.098797 L 453.502624 -69.099278 L 445.698804 -69.099278 Z M 442.703144 -76.699519 L 448.00219 -76.699519 L 448.00219 -86.097596 Z M 442.703144 -76.699519 " transform="matrix(0.62069,0,0,0.601852,-269.99999,60.185181)"/>
<path style="fill-rule:nonzero;fill:rgb(21.960784%,25.098041%,27.843139%);fill-opacity:1;stroke-width:0.5;stroke-linecap:butt;stroke-linejoin:round;stroke:rgb(21.960784%,25.098041%,27.843139%);stroke-opacity:1;stroke-miterlimit:4;" d="M 445.698756 -70.098811 C 446.498018 -70.098811 447.102184 -70.202658 447.397974 -70.501215 C 447.800752 -70.702417 448.002141 -71.098331 448.002141 -71.701937 L 448.002141 -75.29761 L 440.701793 -75.29761 L 440.701793 -76.699533 L 449.802054 -91.997371 L 451.19919 -91.997371 L 451.19919 -76.699533 L 452.199841 -76.699533 C 452.602619 -76.699533 452.898409 -76.900735 453.099798 -77.199293 C 453.301187 -77.400495 453.401881 -77.900254 453.401881 -78.49737 L 454.402532 -78.49737 L 454.402532 -73.499773 L 453.401881 -73.499773 C 453.401881 -74.096889 453.301187 -74.499293 453.099798 -74.79785 C 452.898409 -75.102898 452.602619 -75.29761 452.099147 -75.29761 L 451.098496 -75.29761 L 451.098496 -71.701937 C 451.098496 -71.098331 451.400579 -70.702417 451.702662 -70.501215 C 452.099147 -70.202658 452.69702 -70.098811 453.502576 -70.098811 L 453.502576 -69.099292 L 445.698756 -69.099292 Z M 442.703096 -76.699533 L 448.002141 -76.699533 L 448.002141 -86.097611 Z M 442.703096 -76.699533 " transform="matrix(-0.62069,0.000000000000000074,-0.000000000000000076,-0.601852,359.99996,69.81481)"/>
</g>
</svg>
