<?xml version="1.0" encoding="UTF-8"?>
<svg xmlns="http://www.w3.org/2000/svg" xmlns:xlink="http://www.w3.org/1999/xlink" width="90px" height="130px" viewBox="0 0 90 130" version="1.1">
<defs>
<filter id="alpha" filterUnits="objectBoundingBox" x="0%" y="0%" width="100%" height="100%">
  <feColorMatrix type="matrix" in="SourceGraphic" values="0 0 0 0 1 0 0 0 0 1 0 0 0 0 1 0 0 0 1 0"/>
</filter>
<mask id="mask0">
  <g filter="url(#alpha)">
<rect x="0" y="0" width="90" height="130" style="fill:rgb(0%,0%,0%);fill-opacity:0.2;stroke:none;"/>
  </g>
</mask>
<clipPath id="clip1">
  <rect x="0" y="0" width="90" height="130"/>
</clipPath>
<g id="surface5" clip-path="url(#clip1)">
<path style=" stroke:none;fill-rule:nonzero;fill:rgb(100%,100%,100%);fill-opacity:1;" d="M 49.945312 13.417969 C 49.945312 13.417969 55.375 15.992188 55.191406 19.164062 C 55.003906 22.398438 54.757812 24.554688 58.585938 25.75 C 62.414062 26.945312 61.671875 29.761719 60.746094 33.652344 C 59.820312 37.542969 64.328125 41.3125 69.820312 41.734375 C 69.820312 41.734375 61.054688 40.234375 61.859375 33.832031 C 62.722656 27.484375 63.402344 25.871094 58.710938 24.554688 C 53.957031 23.296875 56.734375 18.804688 56.734375 18.804688 C 56.734375 18.804688 59.082031 13.777344 49.945312 13.417969 Z M 49.945312 13.417969 "/>
</g>
<mask id="mask1">
  <g filter="url(#alpha)">
<rect x="0" y="0" width="90" height="130" style="fill:rgb(0%,0%,0%);fill-opacity:0.2;stroke:none;"/>
  </g>
</mask>
<clipPath id="clip2">
  <rect x="0" y="0" width="90" height="130"/>
</clipPath>
<g id="surface8" clip-path="url(#clip2)">
<path style=" stroke:none;fill-rule:nonzero;fill:rgb(100%,100%,100%);fill-opacity:1;" d="M 40.023438 117.136719 C 40.023438 117.136719 34.589844 114.5625 34.777344 111.390625 C 34.960938 108.15625 35.207031 106 31.378906 104.804688 C 27.554688 103.605469 28.292969 100.792969 29.21875 96.902344 C 30.144531 93.011719 25.640625 89.242188 20.144531 88.820312 C 20.144531 88.820312 28.910156 90.316406 28.109375 96.722656 C 27.246094 103.066406 26.566406 104.683594 31.257812 106 C 36.011719 107.257812 33.234375 111.746094 33.234375 111.746094 C 33.234375 111.746094 30.886719 116.777344 40.023438 117.136719 Z M 40.023438 117.136719 "/>
</g>
</defs>
<g id="surface1">
<path style="fill-rule:nonzero;fill:rgb(100%,100%,100%);fill-opacity:1;stroke-width:3;stroke-linecap:butt;stroke-linejoin:miter;stroke:rgb(21.960784%,25.098041%,27.843139%);stroke-opacity:1;stroke-miterlimit:4;" d="M 9.50308 1.499278 L 135.497014 1.499278 C 139.921276 1.499278 143.502223 5.08197 143.502223 9.501922 L 143.502223 206.498092 C 143.502223 210.918044 139.921276 214.500737 135.497014 214.500737 L 9.50308 214.500737 C 5.078817 214.500737 1.497871 210.918044 1.497871 206.498092 L 1.497871 9.501922 C 1.497871 5.08197 5.078817 1.499278 9.50308 1.499278 Z M 9.50308 1.499278 " transform="matrix(0.62069,0,0,0.601852,-0.0000254822,0.000000826741)"/>
<path style=" stroke:none;fill-rule:nonzero;fill:rgb(21.960784%,25.098041%,27.843139%);fill-opacity:1;" d="M 18.988281 6.027344 C 16.78125 6.027344 14.992188 7.761719 14.992188 9.902344 C 15.003906 11.265625 15.753906 12.519531 16.964844 13.210938 L 16.429688 13.625 C 15.066406 12.539062 13.128906 12.449219 11.664062 13.40625 C 10.199219 14.359375 9.554688 16.132812 10.074219 17.765625 C 10.597656 19.398438 12.160156 20.511719 13.925781 20.5 C 16.132812 20.5 17.921875 18.761719 17.921875 16.621094 L 17.921875 16.363281 C 17.921875 16.363281 18.1875 16.878906 18.1875 17.808594 C 18.1875 20.394531 17.125 22.050781 16.058594 23.597656 L 21.921875 23.597656 C 20.855469 22.050781 19.789062 20.34375 19.789062 17.757812 C 19.789062 16.878906 20.054688 16.363281 20.054688 16.363281 L 20.054688 16.621094 C 20.0625 18.4375 21.371094 20 23.199219 20.390625 C 25.027344 20.777344 26.886719 19.882812 27.675781 18.238281 C 28.46875 16.59375 27.972656 14.636719 26.492188 13.53125 C 25.007812 12.421875 22.933594 12.460938 21.496094 13.625 L 21.066406 13.210938 C 22.257812 12.507812 22.984375 11.253906 22.988281 9.902344 C 22.988281 7.761719 21.195312 6.027344 18.988281 6.027344 Z M 18.988281 6.027344 "/>
<path style=" stroke:none;fill-rule:nonzero;fill:rgb(100%,100%,100%);fill-opacity:1;" d="M 4.777344 4.515625 L 13.34375 4.515625 L 13.34375 34.605469 L 4.777344 34.605469 Z M 4.777344 4.515625 "/>
<path style=" stroke:none;fill-rule:nonzero;fill:rgb(21.960784%,25.098041%,27.843139%);fill-opacity:1;" d="M 71.011719 123.972656 C 73.21875 123.972656 75.007812 122.238281 75.007812 120.097656 C 74.996094 118.734375 74.246094 117.480469 73.035156 116.789062 L 73.570312 116.375 C 74.933594 117.460938 76.871094 117.550781 78.335938 116.59375 C 79.800781 115.640625 80.445312 113.867188 79.925781 112.234375 C 79.402344 110.597656 77.839844 109.488281 76.074219 109.5 C 73.867188 109.5 72.078125 111.238281 72.078125 113.378906 L 72.078125 113.636719 C 72.078125 113.636719 71.8125 113.121094 71.8125 112.191406 C 71.8125 109.605469 72.875 107.949219 73.941406 106.402344 L 68.078125 106.402344 C 69.144531 107.949219 70.210938 109.65625 70.210938 112.242188 C 70.210938 113.121094 69.945312 113.636719 69.945312 113.636719 L 69.945312 113.378906 C 69.9375 111.5625 68.628906 110 66.800781 109.609375 C 64.972656 109.222656 63.113281 110.117188 62.324219 111.761719 C 61.53125 113.40625 62.027344 115.363281 63.507812 116.46875 C 64.992188 117.578125 67.066406 117.539062 68.503906 116.375 L 68.933594 116.789062 C 67.742188 117.492188 67.015625 118.746094 67.011719 120.097656 C 67.011719 122.238281 68.804688 123.972656 71.011719 123.972656 Z M 71.011719 123.972656 "/>
<path style=" stroke:none;fill-rule:nonzero;fill:rgb(100%,100%,100%);fill-opacity:1;" d="M 85.21875 125.425781 L 76.65625 125.425781 L 76.65625 95.332031 L 85.21875 95.332031 Z M 85.21875 125.425781 "/>
<path style=" stroke:none;fill-rule:nonzero;fill:rgb(33.333334%,46.666667%,53.333336%);fill-opacity:1;" d="M 14.199219 68.574219 L 41.953125 59.042969 L 75.769531 61.859375 L 31.074219 72.289062 Z M 14.199219 68.574219 "/>
<path style=" stroke:none;fill-rule:nonzero;fill:rgb(21.960784%,25.098041%,27.843139%);fill-opacity:1;" d="M 19.949219 65.457031 L 37.441406 66.054688 L 26.5625 69.652344 L 14.199219 68.574219 Z M 19.949219 65.457031 "/>
<path style=" stroke:none;fill-rule:nonzero;fill:rgb(35.294119%,39.215687%,42.745098%);fill-opacity:1;" d="M 41.546875 32.394531 L 41.546875 41.554688 C 41.546875 41.554688 46.980469 41.734375 47.722656 38.738281 C 48.460938 35.746094 41.546875 32.394531 41.546875 32.394531 Z M 41.546875 32.394531 "/>
<path style=" stroke:none;fill-rule:nonzero;fill:rgb(21.960784%,25.098041%,27.843139%);fill-opacity:1;" d="M 48.214844 33.351562 L 43.585938 33.351562 L 43.585938 44.425781 L 48.214844 44.425781 Z M 48.214844 33.351562 "/>
<path style=" stroke:none;fill-rule:nonzero;fill:rgb(73.333335%,46.666667%,40.000001%);fill-opacity:1;" d="M 58.832031 40.773438 L 54.574219 25.03125 C 54.574219 25.03125 47.105469 8.871094 38.214844 14.136719 L 38.089844 19.34375 L 35.496094 24.433594 L 37.71875 25.210938 L 37.535156 26.769531 L 38.832031 28.203125 L 37.84375 29.460938 L 38.460938 30.480469 C 38.585938 30.777344 37.226562 33.832031 39.570312 33.832031 C 42.660156 33.832031 45.128906 33.234375 45.5 35.027344 C 46.117188 37.601562 47.226562 39.9375 45.25 40.414062 C 37.226562 42.210938 36.421875 42.210938 36.421875 42.210938 C 36.421875 42.210938 31.363281 59.273438 50.3125 60.46875 Z M 58.832031 40.773438 "/>
<path style=" stroke:none;fill-rule:nonzero;fill:rgb(21.960784%,25.098041%,27.843139%);fill-opacity:1;" d="M 39.632812 17.429688 C 39.632812 17.429688 39.695312 18.867188 40.003906 18.867188 C 40.3125 18.867188 43.707031 16.949219 45.808594 19.464844 C 45.808594 19.464844 44.449219 15.992188 40.4375 17.667969 C 40.4375 17.667969 39.941406 18.027344 39.632812 17.488281 Z M 39.632812 17.429688 "/>
<path style=" stroke:none;fill-rule:nonzero;fill:rgb(33.333334%,46.666667%,53.333336%);fill-opacity:1;" d="M 71.242188 42.988281 C 73.894531 44.425781 75.5625 47 75.6875 51.96875 L 75.75 61.90625 L 65.378906 62.984375 C 62.722656 58.015625 62.785156 46.28125 71.242188 42.988281 Z M 71.242188 42.988281 "/>
<path style=" stroke:none;fill-rule:nonzero;fill:rgb(89.411765%,54.901963%,62.352943%);fill-opacity:1;" d="M 42.289062 24.910156 C 42.289062 26.101562 43.285156 27.066406 44.511719 27.066406 C 45.738281 27.066406 46.734375 26.101562 46.734375 24.910156 C 46.734375 23.722656 45.738281 22.757812 44.511719 22.757812 C 43.285156 22.757812 42.289062 23.722656 42.289062 24.910156 Z M 42.289062 24.910156 "/>
<path style=" stroke:none;fill-rule:nonzero;fill:rgb(21.960784%,25.098041%,27.843139%);fill-opacity:1;" d="M 40.4375 20.421875 C 40.4375 20.421875 40.25 19.523438 41.792969 19.34375 C 43.335938 19.164062 40.746094 19.40625 40.4375 20.480469 Z M 37.84375 29.460938 L 38.214844 28.023438 C 39.324219 27.007812 40.4375 27.726562 41.300781 27.664062 C 41.300781 27.664062 39.324219 29.582031 37.84375 29.460938 Z M 37.84375 29.460938 "/>
<path style=" stroke:none;fill-rule:nonzero;fill:rgb(30.980393%,30.980393%,31.764707%);fill-opacity:1;" d="M 37.535156 26.769531 C 38.152344 26.886719 38.398438 26.46875 38.523438 26.46875 C 39.570312 26.410156 40.867188 27.007812 41.300781 27.664062 L 38.214844 28.023438 Z M 37.535156 26.769531 "/>
<path style=" stroke:none;fill-rule:nonzero;fill:rgb(26.666668%,60.000002%,40.000001%);fill-opacity:1;" d="M 57.785156 40.117188 C 62.167969 41.074219 67.660156 40.175781 71.363281 42.988281 C 65.191406 48.078125 65.316406 59.871094 65.4375 62.984375 L 55.871094 64.0625 L 53.832031 63.222656 L 51.238281 64.597656 L 46.300781 65.136719 C 49.386719 50.054688 57.785156 40.117188 57.785156 40.117188 Z M 57.785156 40.117188 "/>
<path style=" stroke:none;fill-rule:nonzero;fill:rgb(93.333334%,33.333334%,26.666668%);fill-opacity:1;" d="M 47.84375 48.078125 L 47.722656 47.957031 C 44.632812 45.804688 43.523438 40.414062 43.460938 40.175781 L 44.078125 40.058594 C 44.078125 40.117188 45.191406 45.324219 47.90625 47.359375 C 48.769531 47 53.03125 45.144531 55.929688 41.851562 L 56.488281 42.210938 C 53.03125 46.042969 48.214844 47.898438 48.03125 48.019531 Z M 47.84375 48.078125 "/>
<path style=" stroke:none;fill-rule:nonzero;fill:rgb(33.333334%,46.666667%,53.333336%);fill-opacity:1;" d="M 61.671875 40.535156 L 65.996094 41.3125 C 58.585938 47.839844 56.117188 62.503906 55.871094 64.0625 L 52.472656 64.417969 C 50.929688 58.3125 59.449219 41.851562 61.671875 40.535156 Z M 36.671875 41.851562 C 37.164062 44.90625 39.324219 50.351562 48.398438 52.027344 C 49.089844 52.164062 49.792969 52.246094 50.5 52.269531 C 48.628906 56.398438 47.21875 60.714844 46.300781 65.136719 L 38.707031 65.976562 L 31.484375 46.101562 C 32.460938 44.882812 33.488281 43.703125 34.570312 42.570312 C 34.878906 42.332031 35.621094 42.152344 36.671875 41.851562 Z M 36.671875 41.851562 "/>
<path style=" stroke:none;fill-rule:nonzero;fill:rgb(93.333334%,86.666667%,86.666667%);fill-opacity:1;" d="M 35.683594 42.09375 C 35.683594 42.09375 35.1875 51.910156 49.882812 53.464844 L 50.683594 52.089844 C 50.683594 52.089844 38.335938 51.96875 37.039062 41.671875 Z M 35.683594 42.09375 "/>
<path style=" stroke:none;fill-rule:nonzero;fill:rgb(26.666668%,60.000002%,40.000001%);fill-opacity:1;" d="M 38.523438 55.738281 C 38.523438 55.738281 40.992188 42.871094 33.273438 34.550781 L 32.347656 35.148438 C 32.347656 35.148438 39.695312 42.628906 37.289062 56.21875 Z M 38.523438 55.738281 "/>
<path style=" stroke:none;fill-rule:nonzero;fill:rgb(73.333335%,46.666667%,40.000001%);fill-opacity:1;" d="M 38.027344 62.804688 L 32.347656 55.917969 L 34.511719 54.601562 C 34.511719 54.601562 36.113281 53.40625 36.855469 51.96875 C 37.039062 51.550781 38.277344 51.96875 37.226562 53.765625 L 36.363281 55.5 L 40.375 52.269531 C 40.375 52.269531 42.535156 50.351562 42.660156 51.25 C 42.660156 51.847656 41.855469 52.988281 41.425781 53.226562 C 41.117188 53.464844 38.460938 56.457031 38.460938 56.457031 L 41.671875 54.0625 C 41.671875 54.0625 44.140625 52.207031 44.265625 52.507812 C 45.066406 53.703125 43.460938 54.78125 43.027344 55.023438 C 41.8125 55.992188 40.617188 56.988281 39.449219 58.015625 L 43.769531 55.738281 C 43.769531 55.738281 45.375 54.542969 45.4375 55.023438 C 45.746094 56.097656 44.632812 56.816406 44.386719 56.9375 L 40.808594 59.210938 L 41.917969 59.09375 C 41.917969 59.09375 45.191406 57.894531 45.191406 58.195312 C 45.3125 59.570312 39.449219 61.964844 39.449219 61.964844 Z M 38.027344 62.804688 "/>
<path style=" stroke:none;fill-rule:nonzero;fill:rgb(21.960784%,25.098041%,27.843139%);fill-opacity:1;" d="M 31.113281 45.863281 C 31.113281 45.863281 39.511719 56.21875 37.472656 66.097656 L 14.261719 68.671875 L 14.199219 68.609375 Z M 31.113281 45.863281 "/>
<path style=" stroke:none;fill-rule:nonzero;fill:rgb(33.333334%,46.666667%,53.333336%);fill-opacity:1;" d="M 40.4375 20.902344 C 40.4375 20.902344 40.558594 19.703125 42.164062 19.464844 C 43.707031 19.226562 44.324219 20.78125 44.324219 20.78125 C 44.324219 20.78125 42.71875 20.0625 40.4375 20.902344 Z M 40.4375 20.902344 "/>
<path style=" stroke:none;fill-rule:nonzero;fill:rgb(21.960784%,25.098041%,27.843139%);fill-opacity:1;" d="M 39.757812 20.601562 C 39.757812 20.601562 40.4375 20.839844 41.300781 20.601562 C 42.472656 20.242188 43.832031 19.523438 44.757812 20.839844 L 43.957031 20.660156 C 43.957031 20.660156 43.027344 20.601562 42.597656 21.082031 C 42.597656 21.082031 42.71875 22.277344 41.734375 22.21875 C 40.746094 22.21875 40.992188 21.261719 40.992188 21.261719 C 40.992188 21.261719 39.941406 21.320312 39.757812 20.660156 Z M 39.757812 20.601562 "/>
<path style=" stroke:none;fill-rule:nonzero;fill:rgb(93.333334%,86.666667%,86.666667%);fill-opacity:1;" d="M 59.328125 42.929688 L 59.820312 43.230469 C 59.820312 43.230469 52.96875 54.003906 52.472656 64.417969 L 51.238281 64.597656 C 51.179688 61.785156 52.289062 53.40625 59.328125 42.929688 Z M 30.375 48.019531 C 30.300781 48.078125 30.257812 48.164062 30.25 48.257812 L 30.1875 48.257812 C 30.238281 48.097656 30.171875 47.929688 30.027344 47.84375 C 29.878906 47.757812 29.691406 47.78125 29.570312 47.898438 C 29.449219 48.078125 29.449219 48.257812 29.570312 48.4375 C 29.675781 48.519531 29.816406 48.542969 29.941406 48.496094 L 29.941406 48.558594 C 29.847656 48.566406 29.757812 48.605469 29.695312 48.675781 C 29.507812 48.796875 29.507812 48.976562 29.632812 49.15625 C 29.757812 49.335938 29.941406 49.273438 30.125 49.15625 C 30.3125 49.035156 30.3125 48.796875 30.125 48.675781 C 30.25 48.675781 30.375 48.675781 30.558594 49.09375 L 30.683594 48.976562 C 30.375 48.738281 30.3125 48.617188 30.3125 48.558594 C 30.382812 48.632812 30.484375 48.679688 30.589844 48.679688 C 30.695312 48.679688 30.796875 48.632812 30.867188 48.558594 C 30.992188 48.421875 30.992188 48.214844 30.867188 48.078125 C 30.726562 47.957031 30.515625 47.957031 30.375 48.078125 Z M 31.546875 49.574219 C 31.464844 49.609375 31.398438 49.675781 31.363281 49.753906 C 31.425781 49.644531 31.425781 49.507812 31.363281 49.394531 C 31.304688 49.289062 31.195312 49.214844 31.070312 49.203125 C 30.945312 49.191406 30.824219 49.242188 30.742188 49.335938 C 30.621094 49.453125 30.621094 49.695312 30.742188 49.8125 C 30.820312 49.898438 30.9375 49.941406 31.054688 49.933594 L 31.054688 49.992188 C 30.945312 49.96875 30.832031 49.988281 30.742188 50.054688 C 30.621094 50.171875 30.558594 50.414062 30.621094 50.53125 C 30.683594 50.652344 30.992188 50.773438 31.175781 50.652344 C 31.363281 50.53125 31.363281 50.292969 31.300781 50.171875 C 31.300781 50.171875 31.484375 50.171875 31.609375 50.652344 L 31.792969 50.53125 C 31.421875 50.234375 31.421875 50.113281 31.421875 50.054688 C 31.546875 50.234375 31.792969 50.234375 31.980469 50.171875 C 32.164062 50.113281 32.164062 49.8125 32.039062 49.632812 C 31.917969 49.496094 31.703125 49.46875 31.546875 49.574219 Z M 32.597656 51.132812 C 32.5 51.179688 32.433594 51.269531 32.410156 51.371094 C 32.503906 51.246094 32.503906 51.078125 32.410156 50.953125 C 32.359375 50.855469 32.269531 50.789062 32.160156 50.765625 C 32.054688 50.742188 31.941406 50.765625 31.855469 50.832031 C 31.671875 50.953125 31.609375 51.191406 31.730469 51.371094 C 31.808594 51.457031 31.925781 51.5 32.039062 51.488281 L 32.039062 51.550781 C 31.960938 51.523438 31.875 51.523438 31.792969 51.550781 C 31.609375 51.730469 31.546875 51.910156 31.609375 52.089844 C 31.671875 52.269531 31.917969 52.328125 32.101562 52.207031 C 32.191406 52.167969 32.261719 52.097656 32.296875 52.007812 C 32.332031 51.917969 32.328125 51.816406 32.289062 51.730469 C 32.289062 51.730469 32.472656 51.847656 32.535156 52.207031 L 32.71875 52.148438 C 32.410156 51.847656 32.410156 51.667969 32.410156 51.609375 C 32.449219 51.714844 32.535156 51.796875 32.644531 51.832031 C 32.753906 51.867188 32.871094 51.851562 32.964844 51.789062 C 33.132812 51.6875 33.1875 51.476562 33.089844 51.308594 C 33.050781 51.222656 32.972656 51.152344 32.882812 51.121094 C 32.789062 51.085938 32.6875 51.089844 32.597656 51.132812 Z M 33.460938 52.808594 C 33.367188 52.855469 33.296875 52.945312 33.273438 53.046875 L 33.214844 53.046875 C 33.304688 52.921875 33.304688 52.753906 33.214844 52.628906 C 33.113281 52.496094 32.9375 52.449219 32.78125 52.507812 C 32.597656 52.566406 32.472656 52.808594 32.597656 52.925781 C 32.644531 53.058594 32.761719 53.152344 32.90625 53.167969 L 32.597656 53.167969 C 32.410156 53.285156 32.347656 53.523438 32.410156 53.644531 C 32.472656 53.765625 32.71875 53.882812 32.90625 53.824219 C 33.089844 53.765625 33.152344 53.523438 33.089844 53.347656 C 33.152344 53.347656 33.273438 53.464844 33.335938 53.945312 L 33.523438 53.824219 C 33.214844 53.464844 33.214844 53.347656 33.273438 53.285156 C 33.316406 53.375 33.390625 53.441406 33.484375 53.476562 C 33.578125 53.507812 33.679688 53.503906 33.769531 53.464844 C 33.953125 53.40625 34.015625 53.167969 33.953125 52.988281 C 33.890625 52.808594 33.644531 52.746094 33.460938 52.808594 Z M 34.203125 54.542969 C 34.117188 54.578125 34.054688 54.644531 34.015625 54.722656 L 33.953125 54.722656 C 34.039062 54.621094 34.0625 54.484375 34.015625 54.363281 C 33.976562 54.277344 33.902344 54.207031 33.808594 54.171875 C 33.714844 54.140625 33.613281 54.144531 33.523438 54.183594 C 33.363281 54.261719 33.289062 54.4375 33.335938 54.601562 C 33.382812 54.734375 33.503906 54.828125 33.644531 54.84375 C 33.546875 54.796875 33.433594 54.796875 33.335938 54.84375 C 33.152344 54.960938 33.027344 55.140625 33.089844 55.320312 C 33.152344 55.5 33.398438 55.621094 33.582031 55.558594 C 33.769531 55.441406 33.890625 55.261719 33.832031 55.082031 C 33.832031 55.082031 33.953125 55.203125 33.953125 55.621094 L 34.203125 55.558594 C 33.953125 55.203125 33.953125 55.082031 33.953125 54.960938 L 33.953125 55.023438 C 33.996094 55.109375 34.070312 55.179688 34.164062 55.210938 C 34.253906 55.246094 34.359375 55.242188 34.449219 55.203125 C 34.628906 55.144531 34.734375 54.960938 34.695312 54.78125 C 34.667969 54.683594 34.597656 54.601562 34.503906 54.554688 C 34.410156 54.511719 34.300781 54.503906 34.203125 54.542969 Z M 34.878906 56.339844 C 34.757812 56.339844 34.695312 56.398438 34.695312 56.519531 L 34.632812 56.519531 C 34.746094 56.40625 34.769531 56.238281 34.695312 56.097656 C 34.613281 55.945312 34.433594 55.871094 34.261719 55.917969 C 34.015625 55.917969 33.953125 56.160156 34.015625 56.339844 C 34.050781 56.453125 34.144531 56.542969 34.261719 56.578125 C 34.164062 56.535156 34.050781 56.535156 33.953125 56.578125 C 33.769531 56.636719 33.644531 56.878906 33.707031 57.058594 C 33.769531 57.238281 33.953125 57.296875 34.203125 57.238281 C 34.382812 57.179688 34.488281 57 34.449219 56.816406 C 34.449219 56.816406 34.570312 56.9375 34.570312 57.417969 L 34.820312 57.296875 C 34.570312 56.9375 34.570312 56.816406 34.632812 56.757812 C 34.691406 56.933594 34.878906 57.035156 35.066406 56.996094 C 35.164062 56.984375 35.253906 56.929688 35.3125 56.851562 C 35.367188 56.773438 35.390625 56.671875 35.375 56.578125 C 35.347656 56.480469 35.277344 56.398438 35.183594 56.351562 C 35.089844 56.304688 34.976562 56.300781 34.878906 56.339844 Z M 35.375 58.132812 C 35.269531 58.15625 35.179688 58.222656 35.128906 58.3125 C 35.261719 58.21875 35.3125 58.046875 35.25 57.894531 C 35.1875 57.714844 34.941406 57.597656 34.757812 57.65625 C 34.570312 57.714844 34.449219 57.894531 34.511719 58.074219 C 34.527344 58.210938 34.621094 58.328125 34.757812 58.375 C 34.660156 58.332031 34.546875 58.332031 34.449219 58.375 C 34.261719 58.375 34.140625 58.613281 34.203125 58.792969 C 34.261719 58.972656 34.449219 59.09375 34.632812 59.03125 C 34.730469 59.019531 34.820312 58.964844 34.878906 58.886719 C 34.9375 58.808594 34.960938 58.707031 34.941406 58.613281 C 34.941406 58.613281 35.066406 58.734375 35.003906 59.210938 L 35.25 59.152344 C 35.066406 58.734375 35.066406 58.613281 35.128906 58.554688 C 35.140625 58.648438 35.195312 58.734375 35.277344 58.792969 C 35.359375 58.847656 35.460938 58.871094 35.558594 58.851562 C 35.742188 58.796875 35.847656 58.613281 35.804688 58.433594 C 35.792969 58.339844 35.738281 58.253906 35.65625 58.195312 C 35.574219 58.140625 35.472656 58.117188 35.375 58.132812 Z M 35.804688 59.929688 C 35.699219 59.953125 35.609375 60.019531 35.558594 60.109375 C 35.667969 60.023438 35.714844 59.882812 35.683594 59.75 C 35.667969 59.65625 35.613281 59.570312 35.53125 59.511719 C 35.449219 59.457031 35.347656 59.433594 35.25 59.453125 C 35.152344 59.464844 35.0625 59.519531 35.003906 59.597656 C 34.945312 59.675781 34.925781 59.773438 34.941406 59.871094 C 34.957031 60.007812 35.054688 60.125 35.1875 60.167969 C 35.089844 60.125 34.976562 60.125 34.878906 60.167969 C 34.699219 60.199219 34.570312 60.351562 34.570312 60.527344 C 34.570312 60.707031 34.820312 60.828125 35.003906 60.828125 C 35.101562 60.8125 35.191406 60.761719 35.25 60.683594 C 35.308594 60.601562 35.332031 60.503906 35.3125 60.410156 C 35.375 60.410156 35.4375 60.527344 35.375 61.007812 L 35.621094 60.949219 C 35.4375 60.589844 35.4375 60.410156 35.496094 60.347656 C 35.53125 60.546875 35.726562 60.683594 35.929688 60.648438 C 36.132812 60.617188 36.273438 60.429688 36.238281 60.230469 C 36.179688 60.054688 35.992188 59.949219 35.804688 59.988281 Z M 36.113281 61.847656 C 36.019531 61.851562 35.929688 61.894531 35.867188 61.964844 C 35.976562 61.878906 36.023438 61.738281 35.992188 61.605469 C 35.976562 61.511719 35.921875 61.425781 35.839844 61.367188 C 35.757812 61.3125 35.65625 61.289062 35.558594 61.308594 C 35.375 61.308594 35.1875 61.488281 35.25 61.667969 C 35.265625 61.804688 35.363281 61.921875 35.496094 61.964844 C 35.398438 61.921875 35.285156 61.921875 35.1875 61.964844 C 35.003906 61.964844 34.820312 62.144531 34.878906 62.324219 C 34.910156 62.5 35.066406 62.625 35.25 62.625 C 35.496094 62.625 35.621094 62.445312 35.621094 62.265625 C 35.621094 62.265625 35.746094 62.382812 35.621094 62.804688 L 35.867188 62.804688 C 35.683594 62.382812 35.746094 62.203125 35.804688 62.203125 C 35.835938 62.378906 35.992188 62.507812 36.175781 62.503906 C 36.382812 62.503906 36.546875 62.34375 36.546875 62.144531 C 36.53125 62.050781 36.476562 61.964844 36.394531 61.90625 C 36.316406 61.851562 36.214844 61.828125 36.113281 61.847656 Z M 36.363281 63.703125 C 36.265625 63.710938 36.179688 63.753906 36.113281 63.820312 L 36.113281 63.761719 C 36.222656 63.675781 36.269531 63.535156 36.238281 63.402344 C 36.222656 63.304688 36.167969 63.21875 36.085938 63.164062 C 36.007812 63.109375 35.90625 63.085938 35.804688 63.101562 C 35.621094 63.101562 35.496094 63.34375 35.496094 63.523438 C 35.535156 63.636719 35.625 63.726562 35.746094 63.761719 L 35.746094 63.820312 C 35.65625 63.757812 35.542969 63.734375 35.4375 63.761719 C 35.1875 63.761719 35.066406 63.941406 35.066406 64.121094 C 35.066406 64.300781 35.25 64.480469 35.496094 64.417969 C 35.746094 64.359375 35.867188 64.242188 35.804688 64.0625 C 35.867188 64.0625 35.929688 64.242188 35.867188 64.660156 L 36.054688 64.660156 C 35.929688 64.242188 35.992188 64.0625 36.054688 64.0625 C 36.082031 64.234375 36.242188 64.363281 36.421875 64.359375 C 36.628906 64.359375 36.792969 64.199219 36.792969 64 C 36.777344 63.90625 36.722656 63.820312 36.644531 63.761719 C 36.5625 63.707031 36.460938 63.683594 36.363281 63.703125 Z M 35.992188 64.957031 C 36.195312 64.957031 36.363281 65.121094 36.363281 65.316406 C 36.355469 65.441406 36.289062 65.554688 36.175781 65.617188 C 36.25 65.570312 36.335938 65.546875 36.421875 65.558594 C 36.523438 65.539062 36.625 65.5625 36.703125 65.617188 C 36.785156 65.675781 36.839844 65.761719 36.855469 65.855469 C 36.851562 65.980469 36.78125 66.09375 36.671875 66.15625 L 36.363281 66.15625 C 36.242188 66.121094 36.152344 66.03125 36.113281 65.917969 L 36.113281 66.214844 L 35.992188 66.214844 L 35.929688 65.917969 C 35.929688 66.113281 35.765625 66.277344 35.558594 66.277344 C 35.375 66.277344 35.1875 66.15625 35.1875 65.917969 C 35.1875 65.738281 35.3125 65.617188 35.496094 65.617188 C 35.59375 65.574219 35.707031 65.574219 35.804688 65.617188 C 35.695312 65.554688 35.625 65.441406 35.621094 65.316406 C 35.621094 65.140625 35.75 64.988281 35.929688 64.957031 C 35.949219 64.957031 35.972656 64.957031 35.992188 64.957031 Z M 57.84375 43.589844 C 57.746094 43.542969 57.632812 43.542969 57.535156 43.589844 L 57.535156 43.46875 C 57.683594 43.472656 57.824219 43.40625 57.90625 43.289062 C 58.023438 43.117188 58 42.890625 57.84375 42.75 C 57.660156 42.628906 57.414062 42.691406 57.226562 42.871094 C 57.152344 43 57.152344 43.160156 57.226562 43.289062 C 57.207031 43.1875 57.136719 43.097656 57.042969 43.050781 C 56.859375 42.988281 56.609375 43.050781 56.425781 43.230469 C 56.363281 43.410156 56.425781 43.648438 56.550781 43.828125 C 56.671875 44.007812 56.980469 43.828125 57.167969 43.648438 C 57.167969 43.648438 57.167969 43.828125 56.734375 44.1875 L 56.980469 44.308594 C 57.105469 43.828125 57.226562 43.707031 57.289062 43.707031 C 57.167969 43.949219 57.226562 44.1875 57.414062 44.308594 C 57.597656 44.367188 57.84375 44.308594 57.96875 44.128906 C 58.074219 43.941406 58.019531 43.710938 57.84375 43.589844 Z M 56.671875 45.445312 C 56.574219 45.402344 56.460938 45.402344 56.363281 45.445312 L 56.363281 45.324219 C 56.511719 45.328125 56.648438 45.261719 56.734375 45.144531 C 56.804688 45.050781 56.828125 44.933594 56.804688 44.820312 C 56.78125 44.707031 56.710938 44.605469 56.609375 44.546875 C 56.425781 44.488281 56.179688 44.546875 56.054688 44.726562 C 55.976562 44.855469 55.976562 45.015625 56.054688 45.144531 C 56.003906 45.054688 55.914062 44.988281 55.808594 44.964844 C 55.621094 44.84375 55.375 44.90625 55.253906 45.085938 C 55.128906 45.324219 55.253906 45.5625 55.375 45.683594 C 55.5625 45.742188 55.808594 45.683594 55.992188 45.503906 C 55.992188 45.503906 55.992188 45.683594 55.621094 46.101562 L 55.808594 46.164062 C 55.929688 45.683594 56.054688 45.5625 56.117188 45.5625 C 55.992188 45.804688 56.117188 46.042969 56.242188 46.164062 C 56.425781 46.222656 56.671875 46.164062 56.859375 45.984375 C 56.921875 45.882812 56.9375 45.757812 56.902344 45.644531 C 56.867188 45.527344 56.785156 45.433594 56.671875 45.382812 Z M 55.621094 47.300781 C 55.523438 47.257812 55.414062 47.257812 55.3125 47.300781 L 55.3125 47.179688 C 55.460938 47.183594 55.601562 47.117188 55.683594 47 C 55.75 46.898438 55.765625 46.773438 55.730469 46.660156 C 55.695312 46.546875 55.609375 46.453125 55.5 46.402344 C 55.3125 46.402344 55.066406 46.402344 55.003906 46.640625 C 54.929688 46.769531 54.929688 46.929688 55.003906 47.058594 L 54.945312 47.058594 C 54.921875 46.957031 54.855469 46.871094 54.757812 46.820312 C 54.574219 46.761719 54.328125 46.820312 54.203125 47 C 54.078125 47.238281 54.203125 47.480469 54.386719 47.597656 C 54.574219 47.71875 54.820312 47.597656 54.882812 47.359375 C 54.882812 47.417969 54.882812 47.597656 54.574219 47.957031 L 54.757812 48.078125 C 54.882812 47.597656 55.003906 47.480469 55.066406 47.480469 C 54.945312 47.660156 55.066406 47.898438 55.253906 48.019531 C 55.441406 48.074219 55.644531 48 55.746094 47.839844 C 55.851562 47.65625 55.796875 47.425781 55.625 47.300781 Z M 54.574219 49.15625 C 54.476562 49.113281 54.363281 49.113281 54.265625 49.15625 C 54.425781 49.148438 54.566406 49.054688 54.636719 48.917969 C 54.699219 48.8125 54.714844 48.691406 54.679688 48.578125 C 54.644531 48.460938 54.5625 48.367188 54.449219 48.316406 C 54.265625 48.316406 54.019531 48.316406 53.894531 48.558594 C 53.816406 48.6875 53.816406 48.847656 53.894531 48.976562 C 53.859375 48.894531 53.792969 48.832031 53.710938 48.796875 C 53.523438 48.675781 53.277344 48.796875 53.152344 48.976562 C 53.03125 49.15625 53.152344 49.394531 53.339844 49.515625 C 53.523438 49.632812 53.769531 49.515625 53.894531 49.335938 C 53.894531 49.335938 53.894531 49.515625 53.523438 49.933594 L 53.769531 49.992188 C 53.832031 49.515625 53.957031 49.394531 54.019531 49.394531 C 53.957031 49.574219 54.019531 49.8125 54.203125 49.933594 C 54.386719 50.054688 54.636719 49.933594 54.757812 49.753906 C 54.824219 49.652344 54.839844 49.527344 54.804688 49.414062 C 54.769531 49.300781 54.683594 49.207031 54.574219 49.15625 Z M 53.648438 51.132812 C 53.550781 51.085938 53.4375 51.085938 53.339844 51.132812 C 53.511719 51.113281 53.660156 50.996094 53.710938 50.832031 C 53.800781 50.632812 53.722656 50.398438 53.523438 50.292969 C 53.277344 50.234375 53.09375 50.292969 52.96875 50.53125 C 52.890625 50.660156 52.890625 50.820312 52.96875 50.953125 C 52.929688 50.871094 52.867188 50.808594 52.78125 50.773438 C 52.535156 50.652344 52.351562 50.773438 52.164062 50.953125 C 52.164062 51.191406 52.164062 51.429688 52.414062 51.550781 C 52.597656 51.550781 52.84375 51.488281 52.96875 51.25 C 52.96875 51.308594 52.96875 51.488281 52.660156 51.847656 L 52.84375 51.96875 C 52.96875 51.488281 53.03125 51.371094 53.09375 51.371094 C 53.03125 51.550781 53.09375 51.789062 53.277344 51.910156 C 53.5 51.992188 53.746094 51.882812 53.832031 51.667969 C 53.925781 51.46875 53.84375 51.234375 53.648438 51.132812 Z M 52.78125 53.105469 C 52.683594 53.0625 52.574219 53.0625 52.472656 53.105469 L 52.472656 53.046875 C 52.609375 53.019531 52.726562 52.929688 52.78125 52.808594 C 52.875 52.609375 52.792969 52.375 52.597656 52.269531 C 52.414062 52.207031 52.164062 52.269531 52.105469 52.507812 C 52.027344 52.636719 52.027344 52.796875 52.105469 52.925781 C 52.054688 52.835938 51.960938 52.769531 51.855469 52.746094 C 51.671875 52.6875 51.425781 52.746094 51.363281 52.988281 C 51.238281 53.167969 51.363281 53.40625 51.546875 53.523438 C 51.734375 53.644531 51.980469 53.523438 52.105469 53.285156 C 52.105469 53.285156 52.105469 53.464844 51.796875 53.882812 L 52.042969 53.945312 C 52.042969 53.464844 52.226562 53.34375 52.289062 53.34375 C 52.230469 53.527344 52.308594 53.722656 52.472656 53.824219 C 52.664062 53.878906 52.863281 53.804688 52.96875 53.644531 C 53.0625 53.445312 52.980469 53.210938 52.78125 53.105469 Z M 51.980469 55.140625 C 51.882812 55.097656 51.769531 55.097656 51.671875 55.140625 L 51.671875 55.082031 C 51.824219 55.042969 51.941406 54.929688 51.980469 54.78125 C 52.042969 54.601562 51.980469 54.363281 51.796875 54.304688 C 51.546875 54.183594 51.363281 54.304688 51.238281 54.542969 C 51.179688 54.683594 51.203125 54.84375 51.300781 54.960938 C 51.25 54.871094 51.160156 54.804688 51.054688 54.78125 C 50.871094 54.722656 50.621094 54.78125 50.5625 55.023438 C 50.5 55.261719 50.5625 55.5 50.808594 55.558594 C 51.011719 55.605469 51.21875 55.503906 51.300781 55.320312 C 51.300781 55.320312 51.300781 55.5 51.054688 55.917969 L 51.238281 55.980469 C 51.300781 55.5 51.425781 55.382812 51.488281 55.382812 C 51.4375 55.578125 51.542969 55.777344 51.734375 55.859375 C 51.9375 55.90625 52.144531 55.804688 52.226562 55.621094 C 52.3125 55.40625 52.203125 55.164062 51.980469 55.082031 Z M 51.300781 57.117188 C 51.203125 57.074219 51.089844 57.074219 50.992188 57.117188 C 51.144531 57.078125 51.261719 56.964844 51.300781 56.816406 C 51.363281 56.636719 51.300781 56.398438 51.054688 56.339844 C 50.808594 56.277344 50.621094 56.339844 50.5625 56.578125 C 50.503906 56.71875 50.527344 56.878906 50.621094 56.996094 C 50.558594 56.929688 50.472656 56.886719 50.375 56.878906 C 50.191406 56.757812 49.945312 56.878906 49.882812 57.117188 C 49.820312 57.355469 49.882812 57.597656 50.128906 57.65625 C 50.347656 57.695312 50.5625 57.566406 50.621094 57.355469 L 50.4375 57.953125 L 50.621094 58.015625 C 50.621094 57.535156 50.746094 57.417969 50.808594 57.417969 C 50.746094 57.597656 50.808594 57.835938 51.054688 57.894531 C 51.300781 57.953125 51.488281 57.894531 51.546875 57.65625 C 51.609375 57.417969 51.546875 57.175781 51.300781 57.117188 Z M 50.621094 59.210938 C 50.523438 59.167969 50.410156 59.167969 50.3125 59.210938 C 50.484375 59.164062 50.605469 59.023438 50.621094 58.851562 C 50.621094 58.671875 50.5625 58.433594 50.3125 58.375 C 50.128906 58.375 49.882812 58.433594 49.820312 58.671875 C 49.777344 58.824219 49.824219 58.984375 49.945312 59.09375 C 49.890625 59 49.800781 58.933594 49.695312 58.914062 C 49.449219 58.914062 49.265625 59.03125 49.203125 59.273438 C 49.140625 59.453125 49.203125 59.691406 49.449219 59.75 C 49.667969 59.789062 49.882812 59.660156 49.945312 59.453125 L 49.757812 60.050781 L 50.003906 60.109375 C 50.003906 59.632812 50.066406 59.511719 50.128906 59.511719 C 50.128906 59.691406 50.191406 59.929688 50.4375 59.988281 C 50.636719 60 50.8125 59.875 50.871094 59.691406 C 50.917969 59.496094 50.8125 59.292969 50.621094 59.210938 Z M 50.128906 61.246094 C 50.023438 61.222656 49.910156 61.242188 49.820312 61.308594 C 49.964844 61.242188 50.058594 61.101562 50.066406 60.949219 C 50.128906 60.769531 50.003906 60.527344 49.820312 60.46875 C 49.574219 60.46875 49.386719 60.589844 49.324219 60.828125 C 49.304688 60.960938 49.351562 61.09375 49.449219 61.1875 C 49.371094 61.101562 49.257812 61.058594 49.140625 61.066406 C 48.957031 61.066406 48.769531 61.1875 48.707031 61.425781 C 48.707031 61.667969 48.769531 61.847656 49.015625 61.90625 C 49.203125 61.90625 49.449219 61.785156 49.449219 61.546875 C 49.511719 61.605469 49.511719 61.785156 49.324219 62.203125 L 49.574219 62.203125 C 49.574219 61.785156 49.574219 61.605469 49.695312 61.605469 C 49.65625 61.820312 49.789062 62.027344 50.003906 62.085938 C 50.222656 62.085938 50.40625 61.933594 50.4375 61.726562 C 50.476562 61.511719 50.34375 61.304688 50.128906 61.246094 Z M 49.695312 63.34375 C 49.578125 63.332031 49.464844 63.378906 49.386719 63.460938 L 49.386719 63.402344 C 49.53125 63.335938 49.628906 63.199219 49.632812 63.042969 C 49.632812 62.863281 49.511719 62.625 49.324219 62.625 C 49.078125 62.625 48.894531 62.742188 48.894531 62.984375 C 48.875 63.113281 48.917969 63.25 49.015625 63.34375 C 48.941406 63.257812 48.824219 63.214844 48.707031 63.222656 C 48.523438 63.222656 48.339844 63.34375 48.277344 63.582031 C 48.277344 63.820312 48.398438 64 48.648438 64.0625 C 48.832031 64.0625 49.015625 63.941406 49.078125 63.703125 C 49.078125 63.703125 49.140625 63.882812 48.957031 64.300781 L 49.203125 64.359375 L 49.203125 63.761719 C 49.203125 63.941406 49.386719 64.121094 49.574219 64.179688 C 49.789062 64.183594 49.972656 64.027344 50.003906 63.820312 C 50.046875 63.609375 49.910156 63.402344 49.695312 63.34375 Z M 49.695312 63.34375 "/>
<path style=" stroke:none;fill-rule:nonzero;fill:rgb(93.333334%,86.666667%,86.666667%);fill-opacity:1;" d="M 31.113281 45.683594 C 36.011719 51.382812 38.71875 58.554688 38.769531 65.976562 L 37.472656 66.097656 C 37.628906 59.011719 35.152344 52.105469 30.496094 46.640625 Z M 31.113281 45.683594 "/>
<path style=" stroke:none;fill-rule:nonzero;fill:rgb(21.960784%,25.098041%,27.843139%);fill-opacity:1;" d="M 55.5 9.527344 C 60.625 9.945312 62.90625 13.71875 63.648438 19.164062 C 64.265625 23.714844 66.921875 22.398438 68.464844 25.75 C 70.070312 29.339844 69.203125 32.394531 68.464844 34.128906 C 67.230469 37.363281 69.636719 38.800781 71.984375 41.253906 C 72.660156 41.914062 73.277344 43.410156 73.09375 43.289062 C 68.773438 41.851562 64.882812 42.691406 61.796875 43.167969 C 59.636719 43.527344 54.820312 43.167969 52.351562 40.414062 C 51.429688 39.449219 51.042969 38.113281 51.300781 36.824219 C 52.414062 30.957031 52.90625 29.042969 50.4375 28.445312 C 47.96875 27.84375 48.585938 25.089844 49.820312 21.859375 C 51.054688 18.625 47.351562 15.515625 44.386719 15.335938 C 42.972656 15.238281 41.660156 14.589844 40.746094 13.539062 C 40.25 14.734375 39.140625 16.652344 37.78125 17.011719 C 37.351562 15.753906 36.671875 13.121094 37.289062 11.441406 C 38.460938 8.691406 42.226562 7.074219 46.238281 7.433594 C 50.4375 7.792969 52.414062 9.050781 55.5 9.527344 Z M 55.5 9.527344 "/>
<use xlink:href="#surface5" transform="matrix(1,0,0,1,0,0)" mask="url(#mask0)"/>
<path style=" stroke:none;fill-rule:nonzero;fill:rgb(26.666668%,60.000002%,40.000001%);fill-opacity:1;" d="M 44.265625 6.234375 L 45.992188 9.886719 L 48.398438 7.910156 L 48.398438 11.382812 L 50.992188 10.125 L 50.4375 14.195312 C 47.351562 12.582031 40.683594 11.203125 36.855469 12.519531 L 36.855469 7.613281 L 39.140625 9.40625 L 40.1875 6.894531 L 41.425781 9.289062 Z M 44.265625 6.234375 "/>
<path style=" stroke:none;fill-rule:nonzero;fill:rgb(26.666668%,60.000002%,40.000001%);fill-opacity:1;" d="M 37.039062 41.613281 C 37.039062 41.613281 35.867188 39.996094 36.421875 37.84375 L 37.351562 33.832031 C 37.351562 33.832031 39.203125 38.441406 37.039062 41.613281 Z M 37.039062 41.613281 "/>
<path style=" stroke:none;fill-rule:nonzero;fill:rgb(0%,43.137255%,72.549021%);fill-opacity:1;" d="M 28.644531 26.769531 C 28.644531 26.769531 28.214844 28.625 29.140625 29.878906 C 30.003906 31.078125 31.671875 30.660156 31.363281 29.941406 C 31.054688 29.222656 31.484375 27.785156 28.644531 26.769531 Z M 28.644531 26.769531 "/>
<path style=" stroke:none;fill-rule:nonzero;fill:rgb(0%,70.19608%,92.941177%);fill-opacity:1;" d="M 32.472656 35.027344 C 32.472656 35.027344 35.558594 31.855469 29.015625 28.144531 C 29.015625 28.144531 28.398438 27.90625 28.398438 27.066406 C 28.398438 27.066406 26.609375 33.53125 32.472656 35.027344 Z M 32.472656 35.027344 "/>
<path style=" stroke:none;fill-rule:nonzero;fill:rgb(0%,57.254905%,84.313726%);fill-opacity:1;" d="M 32.472656 35.027344 C 32.472656 35.027344 35.929688 34.128906 33.707031 31.136719 C 31.917969 28.863281 31.054688 28.144531 31.238281 26.769531 C 31.238281 26.769531 29.199219 27.84375 30.992188 30.121094 C 32.84375 32.394531 33.273438 33.769531 32.472656 35.027344 Z M 32.472656 35.027344 "/>
<path style=" stroke:none;fill-rule:nonzero;fill:rgb(0%,57.254905%,84.313726%);fill-opacity:1;" d="M 32.65625 34.910156 C 32.65625 34.910156 29.941406 36.703125 28.335938 33.171875 C 27.101562 30.660156 27.472656 28.265625 27.472656 28.265625 C 27.472656 28.265625 29.695312 34.191406 32.65625 34.910156 Z M 32.65625 34.910156 "/>
<path style=" stroke:none;fill-rule:nonzero;fill:rgb(21.960784%,25.098041%,27.843139%);fill-opacity:1;" d="M 36.917969 8.628906 C 37.289062 8.628906 37.597656 8.929688 37.597656 9.347656 C 37.597656 9.585938 37.472656 9.828125 37.289062 9.945312 L 37.351562 10.066406 C 37.460938 9.953125 37.617188 9.886719 37.78125 9.886719 C 38.152344 9.886719 38.460938 10.1875 38.460938 10.605469 C 38.460938 11.023438 38.152344 11.324219 37.84375 11.324219 C 37.535156 11.324219 37.101562 11.023438 37.101562 10.605469 L 37.101562 10.785156 C 37.089844 11.199219 37.175781 11.605469 37.351562 11.980469 L 36.917969 11.980469 Z M 48.03125 45.863281 C 48.386719 45.960938 48.6875 46.191406 48.863281 46.507812 C 49.039062 46.824219 49.070312 47.199219 48.957031 47.539062 C 48.769531 47.957031 48.398438 48.316406 47.96875 48.378906 L 48.089844 48.617188 C 49.460938 48.125 50.554688 49.785156 49.523438 50.785156 C 48.492188 51.785156 46.78125 50.722656 47.289062 49.394531 L 47.289062 49.335938 C 47.289062 49.335938 47.164062 49.453125 47.105469 49.753906 C 46.894531 50.429688 46.851562 51.148438 46.980469 51.847656 L 45.4375 51.371094 C 45.9375 50.859375 46.320312 50.246094 46.546875 49.574219 C 46.671875 49.273438 46.609375 49.15625 46.609375 49.15625 C 46.234375 50.519531 44.195312 50.425781 43.960938 49.03125 C 43.71875 47.636719 45.609375 46.90625 46.425781 48.078125 L 46.609375 48.019531 C 46.300781 47.660156 46.175781 47.179688 46.300781 46.761719 C 46.398438 46.414062 46.640625 46.125 46.96875 45.953125 C 47.292969 45.785156 47.675781 45.75 48.03125 45.863281 Z M 43.957031 8.269531 C 44.351562 8.359375 44.617188 8.71875 44.574219 9.109375 C 44.574219 9.40625 44.386719 9.585938 44.140625 9.707031 L 44.203125 9.828125 C 44.765625 9.480469 45.589844 9.917969 45.4375 10.546875 C 45.183594 11.605469 43.851562 11.402344 43.894531 10.367188 L 43.894531 10.304688 C 43.652344 10.765625 43.789062 11.277344 43.957031 11.742188 L 42.96875 11.621094 C 43.21875 11.289062 43.386719 10.898438 43.460938 10.484375 L 43.460938 10.246094 C 43.417969 11.085938 42.234375 11.277344 41.910156 10.496094 C 41.589844 9.71875 42.585938 9.066406 43.214844 9.648438 L 43.335938 9.648438 C 42.703125 9.152344 43.148438 8.15625 43.957031 8.269531 Z M 43.957031 8.269531 "/>
<path style=" stroke:none;fill-rule:nonzero;fill:rgb(26.666668%,60.000002%,40.000001%);fill-opacity:1;" d="M 46.28125 65.097656 L 47.085938 64.4375 L 51.226562 64.558594 L 48.753906 67.136719 Z M 46.28125 65.097656 "/>
<path style=" stroke:none;fill-rule:nonzero;fill:rgb(35.294119%,39.215687%,42.745098%);fill-opacity:1;" d="M 48.417969 98.160156 L 48.417969 89 C 48.417969 89 42.988281 88.820312 42.246094 91.8125 C 41.503906 94.808594 48.417969 98.160156 48.417969 98.160156 Z M 48.417969 98.160156 "/>
<path style=" stroke:none;fill-rule:nonzero;fill:rgb(21.960784%,25.098041%,27.843139%);fill-opacity:1;" d="M 41.75 97.203125 L 46.382812 97.203125 L 46.382812 86.128906 L 41.75 86.128906 Z M 41.75 97.203125 "/>
<path style=" stroke:none;fill-rule:nonzero;fill:rgb(73.333335%,46.666667%,40.000001%);fill-opacity:1;" d="M 31.132812 89.777344 L 35.394531 105.523438 C 35.394531 105.523438 42.863281 121.683594 51.753906 116.417969 L 51.875 111.210938 L 54.46875 106.121094 L 52.246094 105.34375 L 52.433594 103.785156 L 51.136719 102.351562 L 52.125 101.09375 L 51.503906 100.074219 C 51.382812 99.777344 52.742188 96.722656 50.394531 96.722656 C 47.308594 96.722656 44.839844 97.320312 44.46875 95.527344 C 43.851562 92.953125 42.738281 90.617188 44.714844 90.136719 C 52.742188 88.34375 53.542969 88.34375 53.542969 88.34375 C 53.542969 88.34375 58.605469 71.28125 39.652344 70.085938 Z M 31.132812 89.777344 "/>
<path style=" stroke:none;fill-rule:nonzero;fill:rgb(21.960784%,25.098041%,27.843139%);fill-opacity:1;" d="M 50.332031 113.125 C 50.332031 113.125 50.269531 111.6875 49.960938 111.6875 C 49.652344 111.6875 46.257812 113.605469 44.160156 111.089844 C 44.160156 111.089844 45.515625 114.5625 49.53125 112.886719 C 49.53125 112.886719 50.023438 112.527344 50.332031 113.066406 Z M 50.332031 113.125 "/>
<path style=" stroke:none;fill-rule:nonzero;fill:rgb(33.333334%,46.666667%,53.333336%);fill-opacity:1;" d="M 18.726562 87.5625 C 16.070312 86.128906 14.402344 83.554688 14.28125 78.585938 L 14.21875 68.648438 L 24.589844 67.570312 C 27.246094 72.539062 27.183594 84.273438 18.726562 87.5625 Z M 18.726562 87.5625 "/>
<path style=" stroke:none;fill-rule:nonzero;fill:rgb(89.411765%,54.901963%,62.352943%);fill-opacity:1;" d="M 47.679688 105.640625 C 47.679688 104.453125 46.683594 103.488281 45.457031 103.488281 C 44.226562 103.488281 43.234375 104.453125 43.234375 105.640625 C 43.234375 106.832031 44.226562 107.796875 45.457031 107.796875 C 46.683594 107.796875 47.679688 106.832031 47.679688 105.640625 Z M 47.679688 105.640625 "/>
<path style=" stroke:none;fill-rule:nonzero;fill:rgb(21.960784%,25.098041%,27.843139%);fill-opacity:1;" d="M 49.53125 110.132812 C 49.53125 110.132812 49.714844 111.03125 48.171875 111.210938 C 46.628906 111.390625 49.222656 111.148438 49.53125 110.070312 Z M 52.125 101.09375 L 51.753906 102.53125 C 50.640625 103.546875 49.53125 102.828125 48.664062 102.886719 C 48.664062 102.886719 50.640625 100.972656 52.125 101.09375 Z M 52.125 101.09375 "/>
<path style=" stroke:none;fill-rule:nonzero;fill:rgb(30.980393%,30.980393%,31.764707%);fill-opacity:1;" d="M 52.433594 103.785156 C 51.8125 103.667969 51.566406 104.085938 51.445312 104.085938 C 50.394531 104.144531 49.097656 103.546875 48.664062 102.886719 L 51.753906 102.53125 Z M 52.433594 103.785156 "/>
<path style=" stroke:none;fill-rule:nonzero;fill:rgb(26.666668%,60.000002%,40.000001%);fill-opacity:1;" d="M 32.183594 90.4375 C 27.800781 89.480469 22.304688 90.378906 18.601562 87.5625 C 24.773438 82.476562 24.652344 70.683594 24.527344 67.570312 L 34.097656 66.492188 L 36.132812 67.332031 L 38.726562 65.953125 L 43.664062 65.414062 C 40.578125 80.5 32.183594 90.4375 32.183594 90.4375 Z M 32.183594 90.4375 "/>
<path style=" stroke:none;fill-rule:nonzero;fill:rgb(93.333334%,33.333334%,26.666668%);fill-opacity:1;" d="M 42.121094 82.476562 L 42.246094 82.597656 C 45.332031 84.75 46.445312 90.136719 46.503906 90.378906 L 45.886719 90.496094 C 45.886719 90.4375 44.777344 85.230469 42.058594 83.195312 C 41.195312 83.554688 36.9375 85.410156 34.035156 88.703125 L 33.480469 88.34375 C 36.9375 84.511719 41.75 82.65625 41.9375 82.535156 Z M 42.121094 82.476562 "/>
<path style=" stroke:none;fill-rule:nonzero;fill:rgb(33.333334%,46.666667%,53.333336%);fill-opacity:1;" d="M 28.292969 90.019531 L 23.972656 89.242188 C 31.378906 82.714844 33.851562 68.050781 34.097656 66.492188 L 37.492188 66.132812 C 39.035156 72.238281 30.515625 88.703125 28.292969 90.019531 Z M 53.296875 88.703125 C 52.800781 85.648438 50.640625 80.203125 41.566406 78.523438 C 40.875 78.386719 40.171875 78.308594 39.46875 78.285156 C 41.339844 74.15625 42.746094 69.839844 43.664062 65.414062 L 51.257812 64.578125 L 58.480469 84.453125 C 57.507812 85.671875 56.476562 86.851562 55.394531 87.984375 C 55.085938 88.222656 54.34375 88.402344 53.296875 88.703125 Z M 53.296875 88.703125 "/>
<path style=" stroke:none;fill-rule:nonzero;fill:rgb(93.333334%,86.666667%,86.666667%);fill-opacity:1;" d="M 54.285156 88.460938 C 54.285156 88.460938 54.777344 78.644531 40.085938 77.089844 L 39.28125 78.464844 C 39.28125 78.464844 51.628906 78.585938 52.925781 88.882812 Z M 54.285156 88.460938 "/>
<path style=" stroke:none;fill-rule:nonzero;fill:rgb(26.666668%,60.000002%,40.000001%);fill-opacity:1;" d="M 51.445312 74.8125 C 51.445312 74.8125 48.976562 87.683594 56.691406 96.003906 L 57.617188 95.40625 C 57.617188 95.40625 50.269531 87.921875 52.679688 74.335938 Z M 51.445312 74.8125 "/>
<path style=" stroke:none;fill-rule:nonzero;fill:rgb(73.333335%,46.666667%,40.000001%);fill-opacity:1;" d="M 51.9375 67.75 L 57.617188 74.632812 L 55.457031 75.953125 C 55.457031 75.953125 53.851562 77.148438 53.109375 78.585938 C 52.925781 79.003906 51.691406 78.585938 52.742188 76.789062 L 53.605469 75.054688 L 49.59375 78.285156 C 49.59375 78.285156 47.429688 80.203125 47.308594 79.304688 C 47.308594 78.703125 48.109375 77.566406 48.542969 77.328125 C 48.851562 77.089844 51.503906 74.09375 51.503906 74.09375 L 48.296875 76.488281 C 48.296875 76.488281 45.828125 78.347656 45.703125 78.046875 C 44.898438 76.847656 46.503906 75.773438 46.9375 75.53125 C 48.15625 74.5625 49.347656 73.566406 50.519531 72.539062 L 46.195312 74.8125 C 46.195312 74.8125 44.589844 76.011719 44.53125 75.53125 C 44.222656 74.453125 45.332031 73.738281 45.578125 73.617188 L 49.160156 71.34375 L 48.046875 71.460938 C 48.046875 71.460938 44.777344 72.660156 44.777344 72.359375 C 44.652344 70.984375 50.519531 68.589844 50.519531 68.589844 Z M 51.9375 67.75 "/>
<path style=" stroke:none;fill-rule:nonzero;fill:rgb(21.960784%,25.098041%,27.843139%);fill-opacity:1;" d="M 58.851562 84.691406 C 58.851562 84.691406 50.457031 74.335938 52.492188 64.457031 L 75.707031 61.882812 L 75.765625 61.945312 Z M 58.851562 84.691406 "/>
<path style=" stroke:none;fill-rule:nonzero;fill:rgb(33.333334%,46.666667%,53.333336%);fill-opacity:1;" d="M 49.53125 109.652344 C 49.53125 109.652344 49.40625 110.851562 47.800781 111.089844 C 46.257812 111.328125 45.640625 109.773438 45.640625 109.773438 C 45.640625 109.773438 47.246094 110.492188 49.53125 109.652344 Z M 49.53125 109.652344 "/>
<path style=" stroke:none;fill-rule:nonzero;fill:rgb(21.960784%,25.098041%,27.843139%);fill-opacity:1;" d="M 50.210938 109.953125 C 50.210938 109.953125 49.53125 109.710938 48.664062 109.953125 C 47.492188 110.3125 46.136719 111.03125 45.207031 109.710938 L 46.011719 109.890625 C 46.011719 109.890625 46.9375 109.953125 47.371094 109.472656 C 47.371094 109.472656 47.246094 108.277344 48.234375 108.335938 C 49.222656 108.335938 48.976562 109.292969 48.976562 109.292969 C 48.976562 109.292969 50.023438 109.234375 50.210938 109.890625 Z M 50.210938 109.953125 "/>
<path style=" stroke:none;fill-rule:nonzero;fill:rgb(93.333334%,86.666667%,86.666667%);fill-opacity:1;" d="M 30.640625 87.625 L 30.144531 87.324219 C 30.144531 87.324219 37 76.550781 37.492188 66.132812 L 38.726562 65.953125 C 38.789062 68.769531 37.675781 77.148438 30.640625 87.625 Z M 59.59375 82.535156 C 59.664062 82.472656 59.707031 82.390625 59.714844 82.296875 L 59.777344 82.296875 C 59.726562 82.453125 59.792969 82.625 59.941406 82.710938 C 60.085938 82.796875 60.277344 82.773438 60.394531 82.65625 C 60.519531 82.476562 60.519531 82.296875 60.394531 82.117188 C 60.292969 82.035156 60.152344 82.011719 60.023438 82.058594 L 60.023438 81.996094 C 60.121094 81.988281 60.207031 81.945312 60.273438 81.878906 C 60.457031 81.757812 60.457031 81.578125 60.332031 81.398438 C 60.210938 81.21875 60.023438 81.277344 59.839844 81.398438 C 59.65625 81.519531 59.65625 81.757812 59.839844 81.878906 C 59.714844 81.878906 59.59375 81.878906 59.40625 81.457031 L 59.285156 81.578125 C 59.59375 81.816406 59.65625 81.9375 59.65625 81.996094 C 59.585938 81.917969 59.484375 81.875 59.375 81.875 C 59.269531 81.875 59.167969 81.917969 59.097656 81.996094 C 58.972656 82.132812 58.972656 82.339844 59.097656 82.476562 C 59.238281 82.597656 59.453125 82.597656 59.59375 82.476562 Z M 58.421875 80.980469 C 58.503906 80.945312 58.566406 80.878906 58.605469 80.800781 C 58.539062 80.910156 58.539062 81.046875 58.605469 81.160156 C 58.664062 81.265625 58.773438 81.339844 58.898438 81.351562 C 59.023438 81.363281 59.144531 81.3125 59.222656 81.21875 C 59.347656 81.097656 59.347656 80.859375 59.222656 80.738281 C 59.144531 80.65625 59.03125 80.609375 58.914062 80.621094 L 58.914062 80.5625 C 59.019531 80.585938 59.132812 80.5625 59.222656 80.5 C 59.347656 80.382812 59.40625 80.140625 59.347656 80.023438 C 59.285156 79.902344 58.976562 79.78125 58.789062 79.902344 C 58.605469 80.023438 58.605469 80.261719 58.667969 80.382812 C 58.667969 80.382812 58.480469 80.382812 58.359375 79.902344 L 58.171875 80.023438 C 58.542969 80.320312 58.542969 80.441406 58.542969 80.5 C 58.421875 80.320312 58.171875 80.320312 57.988281 80.382812 C 57.800781 80.441406 57.800781 80.738281 57.925781 80.917969 C 58.050781 81.058594 58.265625 81.085938 58.417969 80.980469 Z M 57.371094 79.421875 C 57.464844 79.375 57.53125 79.285156 57.554688 79.183594 C 57.464844 79.308594 57.464844 79.476562 57.554688 79.601562 C 57.605469 79.699219 57.695312 79.765625 57.804688 79.789062 C 57.910156 79.8125 58.023438 79.789062 58.109375 79.722656 C 58.296875 79.601562 58.359375 79.363281 58.234375 79.183594 C 58.15625 79.097656 58.042969 79.054688 57.925781 79.0625 L 57.925781 79.003906 C 58.007812 79.03125 58.09375 79.03125 58.171875 79.003906 C 58.359375 78.824219 58.421875 78.644531 58.359375 78.464844 C 58.296875 78.285156 58.050781 78.226562 57.863281 78.347656 C 57.773438 78.386719 57.703125 78.457031 57.667969 78.546875 C 57.632812 78.636719 57.636719 78.738281 57.679688 78.824219 C 57.679688 78.824219 57.492188 78.703125 57.433594 78.347656 L 57.246094 78.40625 C 57.554688 78.703125 57.554688 78.882812 57.554688 78.945312 C 57.515625 78.839844 57.433594 78.757812 57.324219 78.722656 C 57.214844 78.6875 57.09375 78.703125 57 78.765625 C 56.835938 78.867188 56.78125 79.078125 56.875 79.242188 C 56.917969 79.332031 56.992188 79.398438 57.085938 79.433594 C 57.175781 79.46875 57.28125 79.464844 57.371094 79.421875 Z M 56.507812 77.746094 C 56.601562 77.695312 56.667969 77.609375 56.691406 77.507812 L 56.753906 77.507812 C 56.660156 77.632812 56.660156 77.800781 56.753906 77.925781 C 56.851562 78.054688 57.03125 78.105469 57.183594 78.046875 C 57.371094 77.988281 57.492188 77.746094 57.371094 77.628906 C 57.324219 77.496094 57.203125 77.402344 57.0625 77.386719 L 57.371094 77.386719 C 57.554688 77.269531 57.617188 77.027344 57.554688 76.910156 C 57.492188 76.789062 57.246094 76.667969 57.0625 76.730469 C 56.875 76.789062 56.816406 77.027344 56.875 77.207031 C 56.816406 77.207031 56.691406 77.089844 56.628906 76.609375 L 56.445312 76.730469 C 56.753906 77.089844 56.753906 77.207031 56.691406 77.269531 C 56.652344 77.179688 56.574219 77.113281 56.484375 77.078125 C 56.390625 77.042969 56.289062 77.046875 56.199219 77.089844 C 56.011719 77.148438 55.949219 77.386719 56.011719 77.566406 C 56.074219 77.746094 56.320312 77.808594 56.507812 77.746094 Z M 55.765625 76.011719 C 55.847656 75.976562 55.914062 75.910156 55.949219 75.832031 L 56.011719 75.832031 C 55.925781 75.929688 55.902344 76.070312 55.949219 76.191406 C 55.992188 76.277344 56.066406 76.347656 56.160156 76.378906 C 56.25 76.414062 56.355469 76.410156 56.445312 76.371094 C 56.601562 76.292969 56.679688 76.117188 56.628906 75.953125 C 56.582031 75.820312 56.460938 75.726562 56.320312 75.710938 C 56.417969 75.753906 56.53125 75.753906 56.628906 75.710938 C 56.816406 75.59375 56.9375 75.414062 56.875 75.234375 C 56.816406 75.054688 56.566406 74.933594 56.382812 74.992188 C 56.199219 75.113281 56.074219 75.292969 56.136719 75.472656 C 56.136719 75.472656 56.011719 75.351562 56.011719 74.933594 L 55.765625 74.992188 C 56.011719 75.351562 56.011719 75.472656 56.011719 75.59375 L 56.011719 75.53125 C 55.972656 75.445312 55.898438 75.375 55.804688 75.34375 C 55.710938 75.308594 55.609375 75.3125 55.519531 75.351562 C 55.335938 75.410156 55.230469 75.589844 55.273438 75.773438 C 55.300781 75.871094 55.367188 75.953125 55.464844 76 C 55.558594 76.042969 55.667969 76.050781 55.765625 76.011719 Z M 55.085938 74.214844 C 55.210938 74.214844 55.273438 74.15625 55.273438 74.035156 L 55.332031 74.035156 C 55.222656 74.148438 55.195312 74.316406 55.273438 74.453125 C 55.351562 74.605469 55.535156 74.683594 55.703125 74.632812 C 55.949219 74.632812 56.011719 74.394531 55.949219 74.214844 C 55.914062 74.101562 55.820312 74.011719 55.703125 73.976562 C 55.800781 74.019531 55.914062 74.019531 56.011719 73.976562 C 56.199219 73.917969 56.320312 73.675781 56.257812 73.496094 C 56.199219 73.316406 56.011719 73.257812 55.765625 73.316406 C 55.585938 73.375 55.476562 73.554688 55.519531 73.738281 C 55.519531 73.738281 55.394531 73.617188 55.394531 73.136719 L 55.148438 73.257812 C 55.394531 73.617188 55.394531 73.738281 55.332031 73.796875 C 55.273438 73.621094 55.085938 73.515625 54.902344 73.558594 C 54.800781 73.570312 54.714844 73.625 54.65625 73.703125 C 54.597656 73.78125 54.574219 73.878906 54.59375 73.976562 C 54.621094 74.074219 54.691406 74.15625 54.785156 74.203125 C 54.878906 74.25 54.988281 74.253906 55.085938 74.214844 Z M 54.59375 72.417969 C 54.699219 72.398438 54.789062 72.332031 54.839844 72.238281 C 54.707031 72.335938 54.65625 72.507812 54.714844 72.660156 C 54.777344 72.839844 55.023438 72.957031 55.210938 72.898438 C 55.394531 72.839844 55.519531 72.660156 55.457031 72.480469 C 55.441406 72.339844 55.34375 72.226562 55.210938 72.179688 C 55.308594 72.222656 55.421875 72.222656 55.519531 72.179688 C 55.703125 72.179688 55.828125 71.941406 55.765625 71.761719 C 55.703125 71.582031 55.519531 71.460938 55.332031 71.523438 C 55.234375 71.535156 55.144531 71.589844 55.085938 71.667969 C 55.03125 71.746094 55.007812 71.84375 55.023438 71.941406 C 55.023438 71.941406 54.902344 71.820312 54.960938 71.34375 L 54.714844 71.402344 C 54.902344 71.820312 54.902344 71.941406 54.839844 72 C 54.824219 71.90625 54.769531 71.820312 54.6875 71.761719 C 54.605469 71.707031 54.503906 71.683594 54.40625 71.703125 C 54.226562 71.757812 54.117188 71.941406 54.160156 72.121094 C 54.175781 72.214844 54.230469 72.300781 54.3125 72.359375 C 54.390625 72.414062 54.492188 72.4375 54.59375 72.417969 Z M 54.160156 70.625 C 54.265625 70.601562 54.355469 70.535156 54.40625 70.445312 C 54.300781 70.53125 54.25 70.671875 54.285156 70.804688 C 54.296875 70.898438 54.351562 70.984375 54.433594 71.042969 C 54.515625 71.097656 54.617188 71.121094 54.714844 71.101562 C 54.816406 71.089844 54.902344 71.035156 54.960938 70.957031 C 55.019531 70.878906 55.042969 70.777344 55.023438 70.683594 C 55.007812 70.546875 54.914062 70.429688 54.777344 70.382812 C 54.875 70.429688 54.988281 70.429688 55.085938 70.382812 C 55.265625 70.355469 55.398438 70.203125 55.394531 70.023438 C 55.394531 69.84375 55.148438 69.726562 54.960938 69.726562 C 54.863281 69.742188 54.773438 69.792969 54.71875 69.871094 C 54.660156 69.949219 54.636719 70.050781 54.652344 70.144531 C 54.59375 70.144531 54.53125 70.023438 54.59375 69.546875 L 54.34375 69.605469 C 54.53125 69.964844 54.53125 70.144531 54.46875 70.203125 C 54.433594 70.007812 54.242188 69.871094 54.035156 69.90625 C 53.832031 69.9375 53.695312 70.125 53.726562 70.324219 C 53.789062 70.5 53.972656 70.605469 54.160156 70.5625 Z M 53.851562 68.707031 C 53.945312 68.699219 54.035156 68.65625 54.097656 68.589844 C 53.992188 68.675781 53.941406 68.816406 53.976562 68.949219 C 53.988281 69.042969 54.042969 69.128906 54.125 69.1875 C 54.207031 69.242188 54.308594 69.265625 54.40625 69.246094 C 54.59375 69.246094 54.777344 69.066406 54.714844 68.886719 C 54.699219 68.75 54.605469 68.632812 54.46875 68.589844 C 54.566406 68.632812 54.679688 68.632812 54.777344 68.589844 C 54.960938 68.589844 55.148438 68.410156 55.085938 68.230469 C 55.054688 68.054688 54.898438 67.925781 54.714844 67.929688 C 54.46875 67.929688 54.34375 68.109375 54.34375 68.289062 C 54.34375 68.289062 54.222656 68.167969 54.34375 67.75 L 54.097656 67.75 C 54.285156 68.167969 54.222656 68.347656 54.160156 68.347656 C 54.128906 68.175781 53.972656 68.046875 53.789062 68.050781 C 53.585938 68.050781 53.417969 68.210938 53.417969 68.410156 C 53.433594 68.503906 53.488281 68.589844 53.570312 68.648438 C 53.652344 68.703125 53.753906 68.726562 53.851562 68.707031 Z M 53.605469 66.851562 C 53.699219 66.84375 53.789062 66.800781 53.851562 66.734375 L 53.851562 66.792969 C 53.742188 66.878906 53.695312 67.019531 53.726562 67.152344 C 53.742188 67.246094 53.796875 67.332031 53.878906 67.390625 C 53.960938 67.445312 54.0625 67.46875 54.160156 67.449219 C 54.34375 67.449219 54.46875 67.210938 54.46875 67.03125 C 54.433594 66.917969 54.339844 66.828125 54.222656 66.792969 L 54.222656 66.734375 C 54.3125 66.796875 54.421875 66.816406 54.53125 66.792969 C 54.777344 66.792969 54.902344 66.613281 54.902344 66.433594 C 54.902344 66.253906 54.714844 66.074219 54.46875 66.132812 C 54.222656 66.195312 54.097656 66.3125 54.160156 66.492188 C 54.097656 66.492188 54.035156 66.3125 54.097656 65.894531 L 53.914062 65.894531 C 54.035156 66.3125 53.976562 66.492188 53.914062 66.492188 C 53.882812 66.320312 53.726562 66.191406 53.542969 66.195312 C 53.339844 66.195312 53.171875 66.355469 53.171875 66.554688 C 53.1875 66.648438 53.242188 66.734375 53.324219 66.792969 C 53.40625 66.847656 53.507812 66.871094 53.605469 66.851562 Z M 53.976562 65.59375 C 53.769531 65.59375 53.605469 65.433594 53.605469 65.234375 C 53.609375 65.113281 53.679688 65 53.789062 64.9375 C 53.71875 64.984375 53.628906 65.003906 53.542969 64.996094 C 53.445312 65.015625 53.34375 64.992188 53.261719 64.9375 C 53.179688 64.878906 53.125 64.792969 53.109375 64.699219 C 53.117188 64.574219 53.183594 64.460938 53.296875 64.398438 L 53.605469 64.398438 C 53.722656 64.433594 53.816406 64.523438 53.851562 64.636719 L 53.851562 64.339844 L 53.976562 64.339844 L 54.035156 64.636719 C 54.035156 64.4375 54.203125 64.277344 54.40625 64.277344 C 54.59375 64.277344 54.777344 64.398438 54.777344 64.636719 C 54.777344 64.816406 54.652344 64.9375 54.46875 64.9375 C 54.371094 64.980469 54.257812 64.980469 54.160156 64.9375 C 54.269531 65 54.339844 65.113281 54.34375 65.234375 C 54.34375 65.414062 54.21875 65.566406 54.035156 65.59375 C 54.015625 65.597656 53.996094 65.597656 53.976562 65.59375 Z M 32.121094 86.964844 C 32.21875 87.007812 32.332031 87.007812 32.429688 86.964844 L 32.429688 87.085938 C 32.28125 87.078125 32.144531 87.148438 32.058594 87.265625 C 31.941406 87.433594 31.96875 87.664062 32.121094 87.804688 C 32.304688 87.921875 32.554688 87.863281 32.738281 87.683594 C 32.816406 87.554688 32.816406 87.394531 32.738281 87.265625 C 32.761719 87.367188 32.828125 87.453125 32.921875 87.503906 C 33.109375 87.5625 33.355469 87.503906 33.542969 87.324219 C 33.601562 87.144531 33.542969 86.90625 33.417969 86.726562 C 33.292969 86.546875 32.984375 86.726562 32.800781 86.90625 C 32.800781 86.90625 32.800781 86.726562 33.234375 86.367188 L 32.984375 86.246094 C 32.863281 86.726562 32.738281 86.847656 32.675781 86.847656 C 32.800781 86.605469 32.738281 86.367188 32.554688 86.246094 C 32.367188 86.1875 32.121094 86.246094 31.996094 86.425781 C 31.894531 86.609375 31.945312 86.839844 32.121094 86.964844 Z M 33.292969 85.109375 C 33.390625 85.152344 33.503906 85.152344 33.601562 85.109375 L 33.601562 85.230469 C 33.457031 85.222656 33.316406 85.292969 33.234375 85.410156 C 33.164062 85.503906 33.136719 85.621094 33.160156 85.734375 C 33.183594 85.847656 33.253906 85.945312 33.355469 86.007812 C 33.542969 86.066406 33.789062 86.007812 33.910156 85.828125 C 33.988281 85.699219 33.988281 85.539062 33.910156 85.410156 C 33.960938 85.5 34.054688 85.566406 34.160156 85.589844 C 34.34375 85.707031 34.589844 85.648438 34.714844 85.46875 C 34.835938 85.230469 34.714844 84.988281 34.589844 84.871094 C 34.40625 84.8125 34.160156 84.871094 33.972656 85.050781 C 33.972656 85.050781 33.972656 84.871094 34.34375 84.453125 L 34.160156 84.390625 C 34.035156 84.871094 33.910156 84.988281 33.851562 84.988281 C 33.972656 84.75 33.851562 84.511719 33.726562 84.390625 C 33.542969 84.332031 33.292969 84.390625 33.109375 84.570312 C 33.042969 84.671875 33.027344 84.796875 33.0625 84.910156 C 33.097656 85.023438 33.183594 85.121094 33.292969 85.167969 Z M 34.34375 83.253906 C 34.441406 83.296875 34.554688 83.296875 34.652344 83.253906 L 34.652344 83.375 C 34.503906 83.367188 34.367188 83.4375 34.28125 83.554688 C 34.21875 83.65625 34.199219 83.777344 34.234375 83.894531 C 34.273438 84.007812 34.355469 84.101562 34.46875 84.152344 C 34.652344 84.152344 34.898438 84.152344 34.960938 83.914062 C 35.039062 83.78125 35.039062 83.625 34.960938 83.492188 L 35.023438 83.492188 C 35.046875 83.597656 35.113281 83.683594 35.207031 83.734375 C 35.394531 83.792969 35.640625 83.734375 35.761719 83.554688 C 35.886719 83.3125 35.761719 83.074219 35.578125 82.953125 C 35.394531 82.835938 35.144531 82.953125 35.085938 83.195312 C 35.085938 83.132812 35.085938 82.953125 35.394531 82.597656 L 35.207031 82.476562 C 35.085938 82.953125 34.960938 83.074219 34.898438 83.074219 C 35.023438 82.894531 34.898438 82.65625 34.714844 82.535156 C 34.527344 82.480469 34.324219 82.554688 34.21875 82.714844 C 34.117188 82.898438 34.167969 83.128906 34.34375 83.253906 Z M 35.394531 81.398438 C 35.492188 81.441406 35.605469 81.441406 35.703125 81.398438 C 35.542969 81.40625 35.398438 81.496094 35.332031 81.636719 C 35.265625 81.738281 35.25 81.863281 35.285156 81.976562 C 35.320312 82.09375 35.40625 82.1875 35.515625 82.238281 C 35.703125 82.238281 35.949219 82.238281 36.070312 81.996094 C 36.148438 81.867188 36.148438 81.707031 36.070312 81.578125 C 36.109375 81.65625 36.175781 81.722656 36.257812 81.757812 C 36.441406 81.878906 36.6875 81.757812 36.8125 81.578125 C 36.9375 81.398438 36.8125 81.160156 36.628906 81.039062 C 36.441406 80.917969 36.195312 81.039062 36.070312 81.21875 C 36.070312 81.21875 36.070312 81.039062 36.441406 80.621094 L 36.195312 80.5625 C 36.132812 81.039062 36.011719 81.160156 35.949219 81.160156 C 36.011719 80.980469 35.949219 80.738281 35.761719 80.621094 C 35.578125 80.5 35.332031 80.621094 35.207031 80.800781 C 35.144531 80.902344 35.125 81.023438 35.164062 81.140625 C 35.199219 81.253906 35.28125 81.347656 35.394531 81.398438 Z M 36.320312 79.421875 C 36.417969 79.464844 36.53125 79.464844 36.628906 79.421875 C 36.453125 79.441406 36.308594 79.558594 36.257812 79.722656 C 36.164062 79.921875 36.246094 80.15625 36.441406 80.261719 C 36.691406 80.320312 36.875 80.261719 37 80.023438 C 37.074219 79.890625 37.074219 79.734375 37 79.601562 C 37.035156 79.683594 37.101562 79.746094 37.183594 79.78125 C 37.429688 79.902344 37.617188 79.78125 37.800781 79.601562 C 37.800781 79.363281 37.800781 79.125 37.554688 79.003906 C 37.367188 79.003906 37.121094 79.0625 37 79.304688 C 37 79.242188 37 79.0625 37.308594 78.703125 L 37.121094 78.585938 C 37 79.0625 36.9375 79.183594 36.875 79.183594 C 36.9375 79.003906 36.875 78.765625 36.691406 78.644531 C 36.46875 78.5625 36.21875 78.671875 36.132812 78.882812 C 36.042969 79.082031 36.121094 79.316406 36.320312 79.421875 Z M 37.183594 77.449219 C 37.28125 77.492188 37.394531 77.492188 37.492188 77.449219 L 37.492188 77.507812 C 37.355469 77.535156 37.242188 77.625 37.183594 77.746094 C 37.089844 77.945312 37.171875 78.179688 37.367188 78.285156 C 37.554688 78.347656 37.800781 78.285156 37.863281 78.046875 C 37.941406 77.917969 37.941406 77.757812 37.863281 77.628906 C 37.914062 77.71875 38.003906 77.785156 38.109375 77.808594 C 38.292969 77.867188 38.542969 77.808594 38.601562 77.566406 C 38.726562 77.386719 38.601562 77.148438 38.417969 77.027344 C 38.234375 76.910156 37.984375 77.027344 37.863281 77.269531 C 37.863281 77.269531 37.863281 77.089844 38.171875 76.667969 L 37.925781 76.609375 C 37.925781 77.089844 37.738281 77.207031 37.675781 77.207031 C 37.734375 77.027344 37.660156 76.828125 37.492188 76.730469 C 37.304688 76.671875 37.101562 76.746094 37 76.910156 C 36.90625 77.109375 36.988281 77.34375 37.183594 77.449219 Z M 37.984375 75.414062 C 38.082031 75.457031 38.195312 75.457031 38.292969 75.414062 L 38.292969 75.472656 C 38.144531 75.511719 38.027344 75.625 37.984375 75.773438 C 37.925781 75.953125 37.984375 76.191406 38.171875 76.25 C 38.417969 76.371094 38.601562 76.25 38.726562 76.011719 C 38.785156 75.871094 38.761719 75.710938 38.664062 75.59375 C 38.714844 75.683594 38.804688 75.75 38.910156 75.773438 C 39.097656 75.832031 39.34375 75.773438 39.40625 75.53125 C 39.46875 75.292969 39.40625 75.054688 39.160156 74.992188 C 38.957031 74.949219 38.75 75.046875 38.664062 75.234375 C 38.664062 75.234375 38.664062 75.054688 38.910156 74.632812 L 38.726562 74.574219 C 38.664062 75.054688 38.542969 75.171875 38.480469 75.171875 C 38.527344 74.976562 38.421875 74.777344 38.234375 74.695312 C 38.03125 74.648438 37.824219 74.75 37.738281 74.933594 C 37.65625 75.148438 37.765625 75.390625 37.984375 75.472656 Z M 38.664062 73.4375 C 38.761719 73.480469 38.875 73.480469 38.972656 73.4375 C 38.824219 73.476562 38.703125 73.589844 38.664062 73.738281 C 38.601562 73.917969 38.664062 74.15625 38.910156 74.214844 C 39.160156 74.273438 39.34375 74.214844 39.40625 73.976562 C 39.464844 73.835938 39.441406 73.675781 39.34375 73.558594 C 39.40625 73.625 39.496094 73.667969 39.589844 73.675781 C 39.777344 73.796875 40.023438 73.675781 40.085938 73.4375 C 40.148438 73.199219 40.085938 72.957031 39.839844 72.898438 C 39.617188 72.859375 39.402344 72.988281 39.34375 73.199219 L 39.527344 72.597656 L 39.34375 72.539062 C 39.34375 73.019531 39.21875 73.136719 39.160156 73.136719 C 39.21875 72.957031 39.160156 72.71875 38.910156 72.660156 C 38.664062 72.597656 38.480469 72.660156 38.417969 72.898438 C 38.355469 73.136719 38.417969 73.378906 38.664062 73.4375 Z M 39.34375 71.34375 C 39.441406 71.386719 39.554688 71.386719 39.652344 71.34375 C 39.484375 71.390625 39.363281 71.53125 39.34375 71.703125 C 39.34375 71.878906 39.40625 72.121094 39.652344 72.179688 C 39.839844 72.179688 40.085938 72.121094 40.148438 71.878906 C 40.1875 71.730469 40.140625 71.566406 40.023438 71.460938 C 40.074219 71.554688 40.164062 71.621094 40.269531 71.640625 C 40.515625 71.640625 40.703125 71.523438 40.765625 71.28125 C 40.824219 71.101562 40.765625 70.863281 40.515625 70.804688 C 40.296875 70.765625 40.082031 70.894531 40.023438 71.101562 L 40.207031 70.503906 L 39.960938 70.445312 C 39.960938 70.921875 39.898438 71.042969 39.839844 71.042969 C 39.839844 70.863281 39.777344 70.625 39.527344 70.5625 C 39.332031 70.554688 39.152344 70.679688 39.097656 70.863281 C 39.050781 71.058594 39.152344 71.261719 39.34375 71.34375 Z M 39.839844 69.308594 C 39.945312 69.332031 40.058594 69.308594 40.148438 69.246094 C 40.003906 69.3125 39.90625 69.453125 39.898438 69.605469 C 39.839844 69.785156 39.960938 70.023438 40.148438 70.085938 C 40.394531 70.085938 40.578125 69.964844 40.640625 69.726562 C 40.660156 69.59375 40.613281 69.460938 40.515625 69.367188 C 40.59375 69.453125 40.710938 69.496094 40.824219 69.488281 C 41.011719 69.488281 41.195312 69.367188 41.257812 69.128906 C 41.257812 68.886719 41.195312 68.707031 40.949219 68.648438 C 40.765625 68.648438 40.515625 68.769531 40.515625 69.007812 C 40.457031 68.949219 40.457031 68.769531 40.640625 68.347656 L 40.394531 68.347656 C 40.394531 68.769531 40.394531 68.949219 40.269531 68.949219 C 40.308594 68.734375 40.175781 68.527344 39.960938 68.46875 C 39.746094 68.464844 39.558594 68.621094 39.527344 68.828125 C 39.488281 69.039062 39.621094 69.25 39.839844 69.308594 Z M 40.269531 67.210938 C 40.386719 67.222656 40.5 67.175781 40.578125 67.09375 L 40.578125 67.152344 C 40.433594 67.21875 40.339844 67.355469 40.332031 67.511719 C 40.332031 67.691406 40.457031 67.929688 40.640625 67.929688 C 40.886719 67.929688 41.074219 67.808594 41.074219 67.570312 C 41.09375 67.4375 41.046875 67.304688 40.949219 67.210938 C 41.027344 67.296875 41.140625 67.339844 41.257812 67.332031 C 41.441406 67.332031 41.628906 67.210938 41.691406 66.972656 C 41.691406 66.734375 41.566406 66.554688 41.320312 66.492188 C 41.132812 66.492188 40.949219 66.613281 40.886719 66.851562 C 40.886719 66.851562 40.824219 66.671875 41.011719 66.253906 L 40.765625 66.195312 L 40.765625 66.792969 C 40.765625 66.613281 40.578125 66.433594 40.394531 66.375 C 40.175781 66.371094 39.992188 66.523438 39.960938 66.734375 C 39.921875 66.945312 40.054688 67.152344 40.269531 67.210938 Z M 40.269531 67.210938 "/>
<path style=" stroke:none;fill-rule:nonzero;fill:rgb(93.333334%,86.666667%,86.666667%);fill-opacity:1;" d="M 58.851562 84.871094 C 53.953125 79.171875 51.246094 71.996094 51.195312 64.578125 L 52.492188 64.457031 C 52.339844 71.542969 54.816406 78.449219 59.46875 83.914062 Z M 58.851562 84.871094 "/>
<path style=" stroke:none;fill-rule:nonzero;fill:rgb(21.960784%,25.098041%,27.843139%);fill-opacity:1;" d="M 34.46875 121.027344 C 29.34375 120.605469 27.058594 116.835938 26.316406 111.390625 C 25.699219 106.839844 23.046875 108.15625 21.503906 104.804688 C 19.898438 101.210938 20.761719 98.160156 21.503906 96.421875 C 22.738281 93.191406 20.328125 91.753906 17.984375 89.300781 C 17.304688 88.640625 16.6875 87.144531 16.871094 87.265625 C 21.195312 88.703125 25.082031 87.863281 28.171875 87.382812 C 30.332031 87.027344 35.144531 87.382812 37.617188 90.136719 C 38.535156 91.105469 38.925781 92.4375 38.664062 93.730469 C 37.554688 99.597656 37.058594 101.511719 39.527344 102.109375 C 42 102.707031 41.382812 105.460938 40.148438 108.695312 C 38.910156 111.925781 42.617188 115.039062 45.578125 115.21875 C 46.992188 115.316406 48.308594 115.964844 49.222656 117.015625 C 49.714844 115.820312 50.828125 113.902344 52.183594 113.542969 C 52.617188 114.800781 53.296875 117.433594 52.679688 119.109375 C 51.503906 121.863281 47.738281 123.480469 43.726562 123.121094 C 39.527344 122.761719 37.554688 121.503906 34.46875 121.027344 Z M 34.46875 121.027344 "/>
<use xlink:href="#surface8" transform="matrix(1,0,0,1,0,0)" mask="url(#mask1)"/>
<path style=" stroke:none;fill-rule:nonzero;fill:rgb(26.666668%,60.000002%,40.000001%);fill-opacity:1;" d="M 45.703125 124.320312 L 43.972656 120.667969 L 41.566406 122.640625 L 41.566406 119.171875 L 38.972656 120.425781 L 39.527344 116.355469 C 42.617188 117.972656 49.285156 119.351562 53.109375 118.035156 L 53.109375 122.941406 L 50.828125 121.144531 L 49.777344 123.660156 L 48.542969 121.265625 Z M 45.703125 124.320312 "/>
<path style=" stroke:none;fill-rule:nonzero;fill:rgb(26.666668%,60.000002%,40.000001%);fill-opacity:1;" d="M 52.925781 88.941406 C 52.925781 88.941406 54.097656 90.558594 53.542969 92.710938 L 52.617188 96.722656 C 52.617188 96.722656 50.765625 92.113281 52.925781 88.941406 Z M 52.925781 88.941406 "/>
<path style=" stroke:none;fill-rule:nonzero;fill:rgb(0%,43.137255%,72.549021%);fill-opacity:1;" d="M 61.320312 103.785156 C 61.320312 103.785156 61.753906 101.929688 60.828125 100.671875 C 59.964844 99.476562 58.296875 99.894531 58.605469 100.613281 C 58.914062 101.332031 58.480469 102.769531 61.320312 103.785156 Z M 61.320312 103.785156 "/>
<path style=" stroke:none;fill-rule:nonzero;fill:rgb(0%,70.19608%,92.941177%);fill-opacity:1;" d="M 57.492188 95.527344 C 57.492188 95.527344 54.40625 98.699219 60.949219 102.410156 C 60.949219 102.410156 61.570312 102.648438 61.570312 103.488281 C 61.570312 103.488281 63.359375 97.023438 57.492188 95.527344 Z M 57.492188 95.527344 "/>
<path style=" stroke:none;fill-rule:nonzero;fill:rgb(0%,57.254905%,84.313726%);fill-opacity:1;" d="M 57.492188 95.527344 C 57.492188 95.527344 54.035156 96.421875 56.257812 99.417969 C 58.050781 101.691406 58.914062 102.410156 58.730469 103.785156 C 58.730469 103.785156 60.765625 102.707031 58.976562 100.433594 C 57.125 98.160156 56.691406 96.78125 57.492188 95.527344 Z M 57.492188 95.527344 "/>
<path style=" stroke:none;fill-rule:nonzero;fill:rgb(0%,57.254905%,84.313726%);fill-opacity:1;" d="M 57.308594 95.644531 C 57.308594 95.644531 60.023438 93.847656 61.628906 97.382812 C 62.863281 99.894531 62.496094 102.289062 62.496094 102.289062 C 62.496094 102.289062 60.273438 96.363281 57.308594 95.644531 Z M 57.308594 95.644531 "/>
<path style=" stroke:none;fill-rule:nonzero;fill:rgb(21.960784%,25.098041%,27.843139%);fill-opacity:1;" d="M 53.050781 121.925781 C 52.679688 121.925781 52.371094 121.625 52.371094 121.207031 C 52.371094 120.964844 52.492188 120.726562 52.679688 120.605469 L 52.617188 120.488281 C 52.503906 120.601562 52.347656 120.667969 52.183594 120.667969 C 51.8125 120.667969 51.503906 120.367188 51.503906 119.949219 C 51.503906 119.53125 51.8125 119.230469 52.125 119.230469 C 52.433594 119.230469 52.863281 119.53125 52.863281 119.949219 L 52.863281 119.769531 C 52.875 119.355469 52.789062 118.949219 52.617188 118.570312 L 53.050781 118.570312 Z M 41.9375 84.691406 C 41.578125 84.59375 41.277344 84.363281 41.105469 84.042969 C 40.929688 83.726562 40.894531 83.355469 41.011719 83.015625 C 41.195312 82.597656 41.566406 82.238281 42 82.175781 L 41.875 81.9375 C 40.503906 82.429688 39.410156 80.769531 40.441406 79.769531 C 41.472656 78.769531 43.183594 79.832031 42.679688 81.160156 L 42.679688 81.21875 C 42.679688 81.21875 42.800781 81.097656 42.863281 80.800781 C 43.074219 80.125 43.117188 79.40625 42.988281 78.703125 L 44.53125 79.183594 C 44.027344 79.695312 43.648438 80.308594 43.417969 80.980469 C 43.296875 81.277344 43.355469 81.398438 43.355469 81.398438 C 43.734375 80.035156 45.769531 80.128906 46.003906 81.523438 C 46.246094 82.917969 44.355469 83.648438 43.542969 82.476562 L 43.355469 82.535156 C 43.664062 82.894531 43.789062 83.375 43.664062 83.792969 C 43.566406 84.140625 43.324219 84.429688 43 84.601562 C 42.671875 84.769531 42.289062 84.804688 41.9375 84.691406 Z M 46.011719 122.285156 C 45.617188 122.195312 45.351562 121.835938 45.394531 121.445312 C 45.394531 121.144531 45.578125 120.964844 45.828125 120.847656 L 45.765625 120.726562 C 45.203125 121.074219 44.375 120.636719 44.53125 120.007812 C 44.78125 118.949219 46.117188 119.152344 46.074219 120.1875 L 46.074219 120.25 C 46.3125 119.789062 46.179688 119.277344 46.011719 118.8125 L 47 118.929688 C 46.746094 119.265625 46.578125 119.65625 46.503906 120.070312 L 46.503906 120.308594 C 46.546875 119.46875 47.734375 119.277344 48.054688 120.054688 C 48.375 120.835938 47.382812 121.488281 46.753906 120.90625 L 46.628906 120.90625 C 47.265625 121.402344 46.820312 122.398438 46.011719 122.285156 Z M 46.011719 122.285156 "/>
<path style=" stroke:none;fill-rule:nonzero;fill:rgb(93.333334%,86.666667%,86.666667%);fill-opacity:1;" d="M 51.226562 64.558594 L 51.84375 63.660156 L 52.523438 64.4375 L 51.78125 65.335938 Z M 37.503906 66.054688 L 38.121094 65.15625 L 38.800781 65.9375 L 38.058594 66.835938 Z M 37.503906 66.054688 "/>
<path style=" stroke:none;fill-rule:nonzero;fill:rgb(21.960784%,25.098041%,27.843139%);fill-opacity:1;" d="M 7.894531 21.671875 C 6.820312 21.671875 5.953125 22.519531 5.953125 23.570312 C 5.957031 24.238281 6.320312 24.855469 6.910156 25.191406 L 6.652344 25.394531 C 5.988281 24.863281 5.046875 24.820312 4.335938 25.289062 C 3.625 25.753906 3.3125 26.625 3.566406 27.425781 C 3.820312 28.226562 4.578125 28.769531 5.433594 28.765625 C 6.507812 28.765625 7.375 27.914062 7.375 26.863281 L 7.375 26.738281 C 7.375 26.738281 7.503906 26.992188 7.503906 27.445312 C 7.503906 28.714844 6.988281 29.523438 6.46875 30.285156 L 9.316406 30.285156 C 8.800781 29.523438 8.28125 28.6875 8.28125 27.421875 C 8.28125 26.992188 8.410156 26.738281 8.410156 26.738281 L 8.410156 26.863281 C 8.414062 27.753906 9.050781 28.519531 9.9375 28.710938 C 10.824219 28.902344 11.730469 28.464844 12.113281 27.65625 C 12.496094 26.851562 12.257812 25.890625 11.535156 25.347656 C 10.816406 24.804688 9.808594 24.824219 9.109375 25.394531 L 8.902344 25.191406 C 9.480469 24.847656 9.835938 24.234375 9.835938 23.570312 C 9.835938 22.519531 8.964844 21.671875 7.894531 21.671875 Z M 7.894531 21.671875 "/>
<path style=" stroke:none;fill-rule:nonzero;fill:rgb(21.960784%,25.098041%,27.843139%);fill-opacity:1;" d="M 82.105469 108.328125 C 83.179688 108.328125 84.046875 107.480469 84.046875 106.429688 C 84.042969 105.761719 83.679688 105.144531 83.089844 104.808594 L 83.347656 104.605469 C 84.011719 105.136719 84.953125 105.179688 85.664062 104.710938 C 86.375 104.246094 86.6875 103.375 86.433594 102.574219 C 86.179688 101.773438 85.421875 101.230469 84.566406 101.234375 C 83.492188 101.234375 82.625 102.085938 82.625 103.136719 L 82.625 103.261719 C 82.625 103.261719 82.496094 103.007812 82.496094 102.554688 C 82.496094 101.285156 83.011719 100.476562 83.53125 99.714844 L 80.683594 99.714844 C 81.199219 100.476562 81.71875 101.3125 81.71875 102.578125 C 81.71875 103.007812 81.589844 103.261719 81.589844 103.261719 L 81.589844 103.136719 C 81.585938 102.246094 80.949219 101.480469 80.0625 101.289062 C 79.175781 101.097656 78.269531 101.535156 77.886719 102.34375 C 77.503906 103.148438 77.742188 104.109375 78.464844 104.652344 C 79.183594 105.195312 80.191406 105.175781 80.890625 104.605469 L 81.097656 104.808594 C 80.519531 105.152344 80.164062 105.765625 80.164062 106.429688 C 80.164062 107.480469 81.035156 108.328125 82.105469 108.328125 Z M 82.105469 108.328125 "/>
<path style="fill-rule:nonzero;fill:rgb(21.960784%,25.098041%,27.843139%);fill-opacity:1;stroke-width:0.5;stroke-linecap:butt;stroke-linejoin:round;stroke:rgb(21.960784%,25.098041%,27.843139%);stroke-opacity:1;stroke-miterlimit:4;" d="M 1607.700129 -91.802645 C 1601.570354 -91.71178 1601.759156 -86.091106 1601.80321 -85.500481 L 1601.80321 -75.498798 C 1601.80321 -69.242066 1606.90716 -69.261537 1607.700129 -69.30048 C 1608.039973 -69.30697 1608.36723 -69.352403 1608.70078 -69.397835 L 1609.701431 -66.899037 C 1610.299304 -65.899518 1612.099218 -65.399758 1613.401952 -66.697835 C 1612.60269 -66.801681 1611.797134 -67.100239 1611.602039 -67.697355 L 1610.802777 -70.001441 C 1612.350954 -70.890624 1613.502647 -72.558653 1613.502647 -75.602644 L 1613.502647 -85.597837 C 1613.502647 -90.679808 1609.839886 -91.828606 1607.700129 -91.802645 Z M 1607.700129 -90.601924 C 1609.147612 -90.601924 1610.19861 -89.342789 1610.19861 -87.798077 L 1610.19861 -73.298557 C 1610.19861 -72.902643 1610.19861 -72.50024 1609.997221 -72.097836 C 1609.500042 -73.097355 1608.902169 -73.700961 1608.002212 -73.798317 C 1607.20295 -73.798317 1606.498089 -73.402403 1606.202299 -72.50024 C 1606.699478 -72.50024 1607.297351 -72.299038 1607.599434 -72.00048 C 1607.901518 -71.701922 1608.102907 -71.202163 1608.298002 -70.598557 C 1608.102907 -70.540143 1607.901518 -70.507691 1607.700129 -70.501201 C 1606.271526 -70.501201 1605.157594 -71.760336 1605.201648 -73.298557 L 1605.201648 -87.798077 C 1605.201648 -89.342789 1606.252646 -90.601924 1607.700129 -90.601924 Z M 1607.700129 -90.601924 " transform="matrix(0.62069,0,0,0.601852,-989.999947,60.185181)"/>
<path style="fill-rule:nonzero;fill:rgb(21.960784%,25.098041%,27.843139%);fill-opacity:1;stroke-width:0.5;stroke-linecap:butt;stroke-linejoin:round;stroke:rgb(21.960784%,25.098041%,27.843139%);stroke-opacity:1;stroke-miterlimit:4;" d="M 1607.700035 -91.802659 C 1601.57026 -91.711794 1601.759063 -86.09112 1601.803116 -85.500495 L 1601.803116 -75.498812 C 1601.803116 -69.242081 1606.907066 -69.261552 1607.700035 -69.300494 C 1608.039879 -69.306984 1608.367136 -69.352417 1608.700686 -69.39785 L 1609.701338 -66.899052 C 1610.299211 -65.899532 1612.099124 -65.399773 1613.401859 -66.69785 C 1612.602596 -66.801696 1611.797041 -67.100254 1611.601945 -67.697369 L 1610.802683 -70.001456 C 1612.35086 -70.890638 1613.502553 -72.558667 1613.502553 -75.602658 L 1613.502553 -85.597851 C 1613.502553 -90.679823 1609.839792 -91.828621 1607.700035 -91.802659 Z M 1607.700035 -90.601938 C 1609.147518 -90.601938 1610.198516 -89.342803 1610.198516 -87.798092 L 1610.198516 -73.298571 C 1610.198516 -72.902658 1610.198516 -72.500254 1609.997127 -72.09785 C 1609.499949 -73.097369 1608.902075 -73.700975 1608.002119 -73.798331 C 1607.202856 -73.798331 1606.497995 -73.402417 1606.202205 -72.500254 C 1606.699384 -72.500254 1607.297257 -72.299052 1607.599341 -72.000494 C 1607.901424 -71.701937 1608.102813 -71.202177 1608.297909 -70.598571 C 1608.102813 -70.540158 1607.901424 -70.507706 1607.700035 -70.501215 C 1606.271433 -70.501215 1605.1575 -71.76035 1605.201554 -73.298571 L 1605.201554 -87.798092 C 1605.201554 -89.342803 1606.252553 -90.601938 1607.700035 -90.601938 Z M 1607.700035 -90.601938 " transform="matrix(-0.62069,0.000000000000000074,-0.000000000000000076,-0.601852,1079.999889,69.81481)"/>
</g>
</svg>
