<?xml version="1.0" encoding="UTF-8"?>
<svg xmlns="http://www.w3.org/2000/svg" xmlns:xlink="http://www.w3.org/1999/xlink" width="90px" height="130px" viewBox="0 0 90 130" version="1.1">
<g id="surface1">
<path style="fill-rule:nonzero;fill:rgb(100%,100%,100%);fill-opacity:1;stroke-width:3;stroke-linecap:butt;stroke-linejoin:miter;stroke:rgb(21.960784%,25.098041%,27.843139%);stroke-opacity:1;stroke-miterlimit:4;" d="M 9.503126 1.499278 L 135.49706 1.499278 C 139.921323 1.499278 143.502269 5.08197 143.502269 9.501922 L 143.502269 206.498092 C 143.502269 210.918044 139.921323 214.500737 135.49706 214.500737 L 9.503126 214.500737 C 5.078864 214.500737 1.497917 210.918044 1.497917 206.498092 L 1.497917 9.501922 C 1.497917 5.08197 5.078864 1.499278 9.503126 1.499278 Z M 9.503126 1.499278 " transform="matrix(0.62069,0,0,0.601852,-0.0000542867,0.000000826741)"/>
<path style=" stroke:none;fill-rule:nonzero;fill:rgb(21.960784%,25.098041%,27.843139%);fill-opacity:1;" d="M 27 9.328125 C 24.429688 9.328125 22.34375 11.351562 22.34375 13.84375 C 22.359375 15.429688 23.230469 16.890625 24.640625 17.695312 L 24.019531 18.175781 C 22.433594 16.914062 20.175781 16.808594 18.472656 17.921875 C 16.765625 19.03125 16.015625 21.09375 16.621094 23 C 17.226562 24.902344 19.050781 26.195312 21.101562 26.179688 C 23.675781 26.179688 25.757812 24.160156 25.757812 21.667969 L 25.757812 21.367188 C 25.757812 21.367188 26.070312 21.96875 26.070312 23.050781 C 26.070312 26.058594 24.828125 27.984375 23.585938 29.792969 L 30.414062 29.792969 C 29.171875 27.984375 27.929688 26 27.929688 22.992188 C 27.929688 21.96875 28.242188 21.367188 28.242188 21.367188 L 28.242188 21.667969 C 28.253906 23.78125 29.773438 25.601562 31.902344 26.054688 C 34.03125 26.503906 36.195312 25.464844 37.117188 23.550781 C 38.035156 21.632812 37.460938 19.355469 35.734375 18.066406 C 34.007812 16.777344 31.589844 16.824219 29.917969 18.175781 L 29.421875 17.695312 C 30.808594 16.875 31.652344 15.417969 31.65625 13.84375 C 31.65625 11.351562 29.570312 9.328125 27 9.328125 Z M 27 9.328125 "/>
<path style=" stroke:none;fill-rule:nonzero;fill:rgb(21.960784%,25.098041%,27.843139%);fill-opacity:1;" d="M 27 120.671875 C 24.429688 120.671875 22.34375 118.648438 22.34375 116.15625 C 22.359375 114.570312 23.230469 113.109375 24.640625 112.304688 L 24.019531 111.824219 C 22.433594 113.085938 20.175781 113.191406 18.472656 112.078125 C 16.765625 110.96875 16.015625 108.90625 16.621094 107 C 17.226562 105.097656 19.050781 103.804688 21.101562 103.820312 C 23.675781 103.820312 25.757812 105.839844 25.757812 108.332031 L 25.757812 108.632812 C 25.757812 108.632812 26.070312 108.03125 26.070312 106.949219 C 26.070312 103.941406 24.828125 102.015625 23.585938 100.207031 L 30.414062 100.207031 C 29.171875 102.015625 27.929688 104 27.929688 107.007812 C 27.929688 108.03125 28.242188 108.632812 28.242188 108.632812 L 28.242188 108.332031 C 28.253906 106.21875 29.773438 104.398438 31.902344 103.945312 C 34.03125 103.496094 36.195312 104.535156 37.117188 106.449219 C 38.035156 108.367188 37.460938 110.644531 35.734375 111.933594 C 34.007812 113.222656 31.589844 113.175781 29.917969 111.824219 L 29.421875 112.304688 C 30.808594 113.125 31.652344 114.582031 31.65625 116.15625 C 31.65625 118.648438 29.570312 120.671875 27 120.671875 Z M 27 120.671875 "/>
<path style=" stroke:none;fill-rule:nonzero;fill:rgb(21.960784%,25.098041%,27.843139%);fill-opacity:1;" d="M 27 54.769531 C 24.429688 54.769531 22.34375 56.789062 22.34375 59.28125 C 22.359375 60.867188 23.230469 62.332031 24.640625 63.132812 L 24.019531 63.617188 C 22.433594 62.351562 20.175781 62.25 18.472656 63.359375 C 16.765625 64.472656 16.015625 66.535156 16.621094 68.4375 C 17.226562 70.34375 19.050781 71.636719 21.101562 71.621094 C 23.675781 71.621094 25.757812 69.597656 25.757812 67.105469 L 25.757812 66.804688 C 25.757812 66.804688 26.070312 67.40625 26.070312 68.492188 C 26.070312 71.5 24.828125 73.425781 23.585938 75.230469 L 30.414062 75.230469 C 29.171875 73.425781 27.929688 71.441406 27.929688 68.429688 C 27.929688 67.40625 28.242188 66.804688 28.242188 66.804688 L 28.242188 67.105469 C 28.253906 69.21875 29.773438 71.042969 31.902344 71.492188 C 34.03125 71.945312 36.195312 70.90625 37.117188 68.988281 C 38.035156 67.074219 37.460938 64.796875 35.734375 63.507812 C 34.007812 62.21875 31.589844 62.261719 29.917969 63.617188 L 29.421875 63.132812 C 30.808594 62.316406 31.652344 60.855469 31.65625 59.28125 C 31.65625 56.789062 29.570312 54.769531 27 54.769531 Z M 27 54.769531 "/>
<path style=" stroke:none;fill-rule:nonzero;fill:rgb(21.960784%,25.098041%,27.843139%);fill-opacity:1;" d="M 63 9.328125 C 60.429688 9.328125 58.34375 11.351562 58.34375 13.84375 C 58.359375 15.429688 59.230469 16.890625 60.640625 17.695312 L 60.019531 18.175781 C 58.433594 16.914062 56.175781 16.808594 54.472656 17.921875 C 52.765625 19.03125 52.015625 21.09375 52.621094 23 C 53.226562 24.902344 55.050781 26.195312 57.101562 26.179688 C 59.675781 26.179688 61.757812 24.160156 61.757812 21.667969 L 61.757812 21.367188 C 61.757812 21.367188 62.070312 21.96875 62.070312 23.050781 C 62.070312 26.058594 60.828125 27.984375 59.585938 29.792969 L 66.414062 29.792969 C 65.171875 27.984375 63.929688 26 63.929688 22.992188 C 63.929688 21.96875 64.242188 21.367188 64.242188 21.367188 L 64.242188 21.667969 C 64.253906 23.78125 65.773438 25.601562 67.902344 26.054688 C 70.03125 26.503906 72.195312 25.464844 73.117188 23.550781 C 74.035156 21.632812 73.460938 19.355469 71.734375 18.066406 C 70.007812 16.777344 67.589844 16.824219 65.917969 18.175781 L 65.421875 17.695312 C 66.808594 16.875 67.652344 15.417969 67.65625 13.84375 C 67.65625 11.351562 65.570312 9.328125 63 9.328125 Z M 63 9.328125 "/>
<path style=" stroke:none;fill-rule:nonzero;fill:rgb(21.960784%,25.098041%,27.843139%);fill-opacity:1;" d="M 63 120.671875 C 60.429688 120.671875 58.34375 118.648438 58.34375 116.15625 C 58.359375 114.570312 59.230469 113.109375 60.640625 112.304688 L 60.019531 111.824219 C 58.433594 113.085938 56.175781 113.191406 54.472656 112.078125 C 52.765625 110.96875 52.015625 108.90625 52.621094 107 C 53.226562 105.097656 55.050781 103.804688 57.101562 103.820312 C 59.675781 103.820312 61.757812 105.839844 61.757812 108.332031 L 61.757812 108.632812 C 61.757812 108.632812 62.070312 108.03125 62.070312 106.949219 C 62.070312 103.941406 60.828125 102.015625 59.585938 100.207031 L 66.414062 100.207031 C 65.171875 102.015625 63.929688 104 63.929688 107.007812 C 63.929688 108.03125 64.242188 108.632812 64.242188 108.632812 L 64.242188 108.332031 C 64.253906 106.21875 65.773438 104.398438 67.902344 103.945312 C 70.03125 103.496094 72.195312 104.535156 73.117188 106.449219 C 74.035156 108.367188 73.460938 110.644531 71.734375 111.933594 C 70.007812 113.222656 67.589844 113.175781 65.917969 111.824219 L 65.421875 112.304688 C 66.808594 113.125 67.652344 114.582031 67.65625 116.15625 C 67.65625 118.648438 65.570312 120.671875 63 120.671875 Z M 63 120.671875 "/>
<path style=" stroke:none;fill-rule:nonzero;fill:rgb(21.960784%,25.098041%,27.843139%);fill-opacity:1;" d="M 63 75.230469 C 60.429688 75.230469 58.34375 73.210938 58.34375 70.71875 C 58.359375 69.132812 59.230469 67.667969 60.640625 66.867188 L 60.019531 66.382812 C 58.433594 67.648438 56.175781 67.75 54.472656 66.640625 C 52.765625 65.527344 52.015625 63.464844 52.621094 61.5625 C 53.226562 59.65625 55.050781 58.363281 57.101562 58.378906 C 59.675781 58.378906 61.757812 60.402344 61.757812 62.894531 L 61.757812 63.195312 C 61.757812 63.195312 62.070312 62.59375 62.070312 61.507812 C 62.070312 58.5 60.828125 56.574219 59.585938 54.769531 L 66.414062 54.769531 C 65.171875 56.574219 63.929688 58.558594 63.929688 61.570312 C 63.929688 62.59375 64.242188 63.195312 64.242188 63.195312 L 64.242188 62.894531 C 64.253906 60.78125 65.773438 58.957031 67.902344 58.507812 C 70.03125 58.054688 72.195312 59.09375 73.117188 61.011719 C 74.035156 62.925781 73.460938 65.203125 71.734375 66.492188 C 70.007812 67.78125 67.589844 67.738281 65.917969 66.382812 L 65.421875 66.867188 C 66.808594 67.683594 67.652344 69.144531 67.65625 70.71875 C 67.65625 73.210938 65.570312 75.230469 63 75.230469 Z M 63 75.230469 "/>
<path style=" stroke:none;fill-rule:nonzero;fill:rgb(21.960784%,25.098041%,27.843139%);fill-opacity:1;" d="M 45 32.078125 C 42.429688 32.078125 40.34375 34.101562 40.34375 36.59375 C 40.359375 38.179688 41.230469 39.640625 42.640625 40.445312 L 42.019531 40.925781 C 40.433594 39.664062 38.175781 39.558594 36.472656 40.671875 C 34.765625 41.78125 34.015625 43.84375 34.621094 45.75 C 35.226562 47.652344 37.050781 48.945312 39.101562 48.929688 C 41.675781 48.929688 43.757812 46.910156 43.757812 44.417969 L 43.757812 44.117188 C 43.757812 44.117188 44.070312 44.71875 44.070312 45.800781 C 44.070312 48.808594 42.828125 50.734375 41.585938 52.542969 L 48.414062 52.542969 C 47.171875 50.734375 45.929688 48.75 45.929688 45.742188 C 45.929688 44.71875 46.242188 44.117188 46.242188 44.117188 L 46.242188 44.417969 C 46.253906 46.53125 47.773438 48.351562 49.902344 48.804688 C 52.03125 49.253906 54.195312 48.214844 55.117188 46.300781 C 56.035156 44.382812 55.460938 42.105469 53.734375 40.816406 C 52.007812 39.527344 49.589844 39.574219 47.917969 40.925781 L 47.421875 40.445312 C 48.808594 39.625 49.652344 38.167969 49.65625 36.59375 C 49.65625 34.101562 47.570312 32.078125 45 32.078125 Z M 45 32.078125 "/>
<path style=" stroke:none;fill-rule:nonzero;fill:rgb(21.960784%,25.098041%,27.843139%);fill-opacity:1;" d="M 45 97.980469 C 42.429688 97.980469 40.34375 95.960938 40.34375 93.46875 C 40.359375 91.882812 41.230469 90.417969 42.640625 89.617188 L 42.019531 89.132812 C 40.433594 90.398438 38.175781 90.5 36.472656 89.390625 C 34.765625 88.277344 34.015625 86.214844 34.621094 84.3125 C 35.226562 82.40625 37.050781 81.113281 39.101562 81.128906 C 41.675781 81.128906 43.757812 83.152344 43.757812 85.644531 L 43.757812 85.945312 C 43.757812 85.945312 44.070312 85.34375 44.070312 84.257812 C 44.070312 81.25 42.828125 79.324219 41.585938 77.519531 L 48.414062 77.519531 C 47.171875 79.324219 45.929688 81.308594 45.929688 84.320312 C 45.929688 85.34375 46.242188 85.945312 46.242188 85.945312 L 46.242188 85.644531 C 46.253906 83.53125 47.773438 81.707031 49.902344 81.257812 C 52.03125 80.804688 54.195312 81.84375 55.117188 83.761719 C 56.035156 85.675781 55.460938 87.953125 53.734375 89.242188 C 52.007812 90.53125 49.589844 90.488281 47.917969 89.132812 L 47.421875 89.617188 C 48.808594 90.433594 49.652344 91.894531 49.65625 93.46875 C 49.65625 95.960938 47.570312 97.980469 45 97.980469 Z M 45 97.980469 "/>
<path style=" stroke:none;fill-rule:nonzero;fill:rgb(21.960784%,25.098041%,27.843139%);fill-opacity:1;" d="M 7.894531 21.671875 C 6.820312 21.671875 5.953125 22.519531 5.953125 23.570312 C 5.957031 24.238281 6.320312 24.855469 6.910156 25.191406 L 6.652344 25.394531 C 5.988281 24.863281 5.046875 24.820312 4.335938 25.289062 C 3.625 25.753906 3.3125 26.625 3.566406 27.425781 C 3.820312 28.226562 4.578125 28.769531 5.433594 28.765625 C 6.507812 28.765625 7.375 27.914062 7.375 26.863281 L 7.375 26.738281 C 7.375 26.738281 7.503906 26.992188 7.503906 27.445312 C 7.503906 28.714844 6.988281 29.523438 6.46875 30.285156 L 9.316406 30.285156 C 8.800781 29.523438 8.28125 28.6875 8.28125 27.421875 C 8.28125 26.992188 8.410156 26.738281 8.410156 26.738281 L 8.410156 26.863281 C 8.414062 27.753906 9.050781 28.519531 9.9375 28.710938 C 10.824219 28.902344 11.730469 28.464844 12.113281 27.65625 C 12.496094 26.851562 12.257812 25.890625 11.535156 25.347656 C 10.816406 24.804688 9.808594 24.824219 9.109375 25.394531 L 8.902344 25.191406 C 9.480469 24.847656 9.835938 24.234375 9.835938 23.570312 C 9.835938 22.519531 8.964844 21.671875 7.894531 21.671875 Z M 7.894531 21.671875 "/>
<path style=" stroke:none;fill-rule:nonzero;fill:rgb(21.960784%,25.098041%,27.843139%);fill-opacity:1;" d="M 82.105469 108.328125 C 83.179688 108.328125 84.046875 107.480469 84.046875 106.429688 C 84.042969 105.761719 83.679688 105.144531 83.089844 104.808594 L 83.347656 104.605469 C 84.011719 105.136719 84.953125 105.179688 85.664062 104.710938 C 86.375 104.246094 86.6875 103.375 86.433594 102.574219 C 86.179688 101.773438 85.421875 101.230469 84.566406 101.234375 C 83.492188 101.234375 82.625 102.085938 82.625 103.136719 L 82.625 103.261719 C 82.625 103.261719 82.496094 103.007812 82.496094 102.554688 C 82.496094 101.285156 83.011719 100.476562 83.53125 99.714844 L 80.683594 99.714844 C 81.199219 100.476562 81.71875 101.3125 81.71875 102.578125 C 81.71875 103.007812 81.589844 103.261719 81.589844 103.261719 L 81.589844 103.136719 C 81.585938 102.246094 80.949219 101.480469 80.0625 101.289062 C 79.175781 101.097656 78.269531 101.535156 77.886719 102.34375 C 77.503906 103.148438 77.742188 104.109375 78.464844 104.652344 C 79.183594 105.195312 80.191406 105.175781 80.890625 104.605469 L 81.097656 104.808594 C 80.519531 105.152344 80.164062 105.765625 80.164062 106.429688 C 80.164062 107.480469 81.035156 108.328125 82.105469 108.328125 Z M 82.105469 108.328125 "/>
<path style="fill-rule:nonzero;fill:rgb(21.960784%,25.098041%,27.843139%);fill-opacity:1;stroke-width:0.25;stroke-linecap:butt;stroke-linejoin:miter;stroke:rgb(21.960784%,25.098041%,27.843139%);stroke-opacity:1;stroke-miterlimit:4;" d="M 1027.599481 -91.997357 C 1024.087762 -91.997357 1022.338196 -89.628366 1022.300435 -86.597356 C 1022.268968 -84.377644 1023.62205 -82.742067 1025.000305 -81.898317 C 1022.067579 -80.399038 1021.740322 -77.497836 1021.796963 -75.901201 C 1021.796963 -72.701442 1022.879428 -69.203124 1027.599481 -69.203124 C 1031.482511 -69.203124 1033.401999 -71.578605 1033.401999 -75.797355 C 1033.401999 -78.977644 1032.571269 -80.392548 1030.198656 -81.898317 C 1031.451044 -82.657692 1032.898526 -84.092067 1032.898526 -86.597356 C 1032.898526 -90.381251 1030.418925 -91.997357 1027.599481 -91.997357 Z M 1027.599481 -90.699279 C 1029.827346 -90.647356 1029.959507 -88.252404 1029.997267 -86.5 C 1029.997267 -85.377164 1029.789585 -82.501923 1027.599481 -82.501923 C 1025.560418 -82.501923 1025.201694 -84.890385 1025.201694 -86.597356 C 1025.201694 -87.882452 1025.440843 -90.751203 1027.599481 -90.699279 Z M 1027.599481 -81.301202 C 1030.24271 -81.301202 1030.400045 -76.861778 1030.400045 -75.797355 C 1030.400045 -74.622596 1030.230123 -70.397355 1027.599481 -70.397355 C 1024.962545 -70.397355 1024.798916 -74.622596 1024.798916 -75.797355 C 1024.849264 -77.861298 1025.101 -80.970192 1027.599481 -81.301202 Z M 1027.599481 -81.301202 " transform="matrix(0.62069,0,0,0.601852,-630.000004,60.185181)"/>
<path style="fill-rule:nonzero;fill:rgb(21.960784%,25.098041%,27.843139%);fill-opacity:1;stroke-width:0.25;stroke-linecap:butt;stroke-linejoin:miter;stroke:rgb(21.960784%,25.098041%,27.843139%);stroke-opacity:1;stroke-miterlimit:4;" d="M 1027.599294 -91.997371 C 1024.087575 -91.997371 1022.338009 -89.62838 1022.300249 -86.59737 C 1022.268782 -84.377659 1023.621864 -82.742082 1025.000119 -81.898332 C 1022.067393 -80.399053 1021.740136 -77.497851 1021.796777 -75.901216 C 1021.796777 -72.701456 1022.879242 -69.203138 1027.599294 -69.203138 C 1031.482324 -69.203138 1033.401812 -71.578619 1033.401812 -75.79737 C 1033.401812 -78.977658 1032.571083 -80.392562 1030.19847 -81.898332 C 1031.450857 -82.657707 1032.89834 -84.092082 1032.89834 -86.59737 C 1032.89834 -90.381265 1030.418739 -91.997371 1027.599294 -91.997371 Z M 1027.599294 -90.699294 C 1029.827159 -90.647371 1029.959321 -88.252419 1029.997081 -86.500015 C 1029.997081 -85.377178 1029.789399 -82.501937 1027.599294 -82.501937 C 1025.560232 -82.501937 1025.201508 -84.890399 1025.201508 -86.59737 C 1025.201508 -87.882467 1025.440657 -90.751217 1027.599294 -90.699294 Z M 1027.599294 -81.301216 C 1030.242524 -81.301216 1030.399859 -76.861793 1030.399859 -75.79737 C 1030.399859 -74.62261 1030.229937 -70.397369 1027.599294 -70.397369 C 1024.962358 -70.397369 1024.79873 -74.62261 1024.79873 -75.79737 C 1024.849077 -77.861312 1025.100813 -80.970207 1027.599294 -81.301216 Z M 1027.599294 -81.301216 " transform="matrix(-0.62069,0.000000000000000074,-0.000000000000000076,-0.601852,719.999889,69.81481)"/>
</g>
</svg>
