<?xml version="1.0" encoding="UTF-8"?>
<svg xmlns="http://www.w3.org/2000/svg" xmlns:xlink="http://www.w3.org/1999/xlink" width="90px" height="130px" viewBox="0 0 90 130" version="1.1">
<g id="surface1">
<path style="fill-rule:nonzero;fill:rgb(100%,100%,100%);fill-opacity:1;stroke-width:3;stroke-linecap:butt;stroke-linejoin:miter;stroke:rgb(21.960784%,25.098041%,27.843139%);stroke-opacity:1;stroke-miterlimit:4;" d="M 9.503035 1.499279 L 135.496968 1.499279 C 139.921231 1.499279 143.502177 5.081972 143.502177 9.501924 L 143.502177 206.498093 C 143.502177 210.918046 139.921231 214.500738 135.496968 214.500738 L 9.503035 214.500738 C 5.078772 214.500738 1.497826 210.918046 1.497826 206.498093 L 1.497826 9.501924 C 1.497826 5.081972 5.078772 1.499279 9.503035 1.499279 Z M 9.503035 1.499279 " transform="matrix(0.62069,0,0,0.601852,0.00000269297,0)"/>
<path style=" stroke:none;fill-rule:nonzero;fill:rgb(21.960784%,25.098041%,27.843139%);fill-opacity:1;" d="M 45 44.234375 C 39.859375 44.234375 35.691406 48.277344 35.691406 53.265625 C 35.71875 56.4375 37.460938 59.359375 40.28125 60.96875 L 39.042969 61.929688 C 35.863281 59.40625 31.355469 59.199219 27.945312 61.421875 C 24.535156 63.644531 23.03125 67.769531 24.242188 71.578125 C 25.457031 75.382812 29.097656 77.96875 33.207031 77.941406 C 38.347656 77.941406 42.515625 73.898438 42.515625 68.910156 L 42.515625 68.308594 C 42.515625 68.308594 43.136719 69.515625 43.136719 71.679688 C 43.136719 77.699219 40.65625 81.550781 38.171875 85.160156 L 51.828125 85.160156 C 49.34375 81.550781 46.863281 77.578125 46.863281 71.558594 C 46.863281 69.515625 47.484375 68.308594 47.484375 68.308594 L 47.484375 68.910156 C 47.503906 73.136719 50.546875 76.785156 54.804688 77.6875 C 59.0625 78.589844 63.394531 76.507812 65.234375 72.675781 C 67.074219 68.847656 65.925781 64.289062 62.472656 61.714844 C 59.019531 59.136719 54.183594 59.226562 50.835938 61.929688 L 49.839844 60.96875 C 52.613281 59.332031 54.308594 56.410156 54.308594 53.265625 C 54.308594 48.277344 50.140625 44.234375 45 44.234375 Z M 45 44.234375 "/>
<path style=" stroke:none;fill-rule:nonzero;fill:rgb(21.960784%,25.098041%,27.843139%);fill-opacity:1;" d="M 7.894531 21.671875 C 6.820312 21.671875 5.953125 22.519531 5.953125 23.570312 C 5.957031 24.238281 6.320312 24.855469 6.910156 25.191406 L 6.652344 25.394531 C 5.988281 24.863281 5.046875 24.820312 4.335938 25.289062 C 3.625 25.753906 3.3125 26.625 3.566406 27.425781 C 3.820312 28.226562 4.578125 28.769531 5.433594 28.765625 C 6.507812 28.765625 7.375 27.914062 7.375 26.863281 L 7.375 26.738281 C 7.375 26.738281 7.503906 26.992188 7.503906 27.445312 C 7.503906 28.714844 6.988281 29.523438 6.46875 30.285156 L 9.316406 30.285156 C 8.800781 29.523438 8.28125 28.6875 8.28125 27.421875 C 8.28125 26.992188 8.410156 26.738281 8.410156 26.738281 L 8.410156 26.863281 C 8.414062 27.753906 9.050781 28.519531 9.9375 28.710938 C 10.824219 28.902344 11.730469 28.464844 12.113281 27.65625 C 12.496094 26.851562 12.257812 25.890625 11.535156 25.347656 C 10.816406 24.804688 9.808594 24.824219 9.109375 25.394531 L 8.902344 25.191406 C 9.480469 24.847656 9.835938 24.234375 9.835938 23.570312 C 9.835938 22.519531 8.964844 21.671875 7.894531 21.671875 Z M 7.894531 21.671875 "/>
<path style=" stroke:none;fill-rule:nonzero;fill:rgb(21.960784%,25.098041%,27.843139%);fill-opacity:1;" d="M 82.105469 108.328125 C 83.179688 108.328125 84.046875 107.480469 84.046875 106.429688 C 84.042969 105.761719 83.679688 105.144531 83.089844 104.808594 L 83.347656 104.605469 C 84.011719 105.136719 84.953125 105.179688 85.664062 104.710938 C 86.375 104.246094 86.6875 103.375 86.433594 102.574219 C 86.179688 101.773438 85.421875 101.230469 84.566406 101.234375 C 83.492188 101.234375 82.625 102.085938 82.625 103.136719 L 82.625 103.261719 C 82.625 103.261719 82.496094 103.007812 82.496094 102.554688 C 82.496094 101.285156 83.011719 100.476562 83.53125 99.714844 L 80.683594 99.714844 C 81.199219 100.476562 81.71875 101.3125 81.71875 102.578125 C 81.71875 103.007812 81.589844 103.261719 81.589844 103.261719 L 81.589844 103.136719 C 81.585938 102.246094 80.949219 101.480469 80.0625 101.289062 C 79.175781 101.097656 78.269531 101.535156 77.886719 102.34375 C 77.503906 103.148438 77.742188 104.109375 78.464844 104.652344 C 79.183594 105.195312 80.191406 105.175781 80.890625 104.605469 L 81.097656 104.808594 C 80.519531 105.152344 80.164062 105.765625 80.164062 106.429688 C 80.164062 107.480469 81.035156 108.328125 82.105469 108.328125 Z M 82.105469 108.328125 "/>
<path style="fill-rule:nonzero;fill:rgb(21.960784%,25.098041%,27.843139%);fill-opacity:1;stroke-width:0.5;stroke-linecap:butt;stroke-linejoin:round;stroke:rgb(21.960784%,25.098041%,27.843139%);stroke-opacity:1;stroke-miterlimit:4;" d="M 8.798173 -71.903123 C 8.559024 -70.747834 9.597436 -70.66995 10.598087 -70.598555 L 10.598087 -69.50168 L 5.701819 -69.50168 L 5.701819 -70.5012 C 6.658416 -70.5012 7.281463 -70.929565 7.501732 -71.903123 L 12.001516 -91.997355 L 13.398651 -91.997355 L 17.898435 -71.799277 C 18.11241 -70.871152 18.64735 -70.760815 19.597653 -70.598555 L 19.597653 -69.50168 L 13.002167 -69.50168 L 13.002167 -70.5012 C 14.147566 -70.540142 14.909068 -70.728363 14.701386 -71.799277 L 14.097219 -74.797835 L 9.40234 -74.797835 Z M 9.69813 -75.9012 L 13.902123 -75.9012 L 11.800127 -85.597835 Z M 9.69813 -75.9012 " transform="matrix(0.62069,0,0,0.601852,0.00000269297,60.18518)"/>
<path style="fill-rule:nonzero;fill:rgb(21.960784%,25.098041%,27.843139%);fill-opacity:1;stroke-width:0.5;stroke-linecap:butt;stroke-linejoin:round;stroke:rgb(21.960784%,25.098041%,27.843139%);stroke-opacity:1;stroke-miterlimit:4;" d="M 8.798171 -71.90314 C 8.559021 -70.747851 9.597433 -70.669967 10.598084 -70.598572 L 10.598084 -69.501697 L 5.701816 -69.501697 L 5.701816 -70.501217 C 6.658414 -70.501217 7.28146 -70.929582 7.50173 -71.90314 L 12.001513 -91.997372 L 13.398648 -91.997372 L 17.898432 -71.799294 C 18.112407 -70.871169 18.647347 -70.760832 19.597651 -70.598572 L 19.597651 -69.501697 L 13.002164 -69.501697 L 13.002164 -70.501217 C 14.147563 -70.540159 14.909065 -70.72838 14.701383 -71.799294 L 14.097216 -74.797852 L 9.402337 -74.797852 Z M 9.698127 -75.901217 L 13.902121 -75.901217 L 11.800124 -85.597853 Z M 9.698127 -75.901217 " transform="matrix(-0.62069,0.000000000000000074,-0.000000000000000076,-0.601852,89.999996,69.814809)"/>
</g>
</svg>
