<?xml version="1.0" encoding="UTF-8"?>
<svg xmlns="http://www.w3.org/2000/svg" xmlns:xlink="http://www.w3.org/1999/xlink" width="90px" height="130px" viewBox="0 0 90 130" version="1.1">
<g id="surface1">
<path style="fill-rule:nonzero;fill:rgb(100%,100%,100%);fill-opacity:1;stroke-width:3;stroke-linecap:butt;stroke-linejoin:miter;stroke:rgb(21.960784%,25.098041%,27.843139%);stroke-opacity:1;stroke-miterlimit:4;" d="M 9.50304 1.499278 L 135.496974 1.499278 C 139.921236 1.499278 143.502183 5.08197 143.502183 9.501922 L 143.502183 206.498092 C 143.502183 210.918044 139.921236 214.500737 135.496974 214.500737 L 9.50304 214.500737 C 5.078778 214.500737 1.497831 210.918044 1.497831 206.498092 L 1.497831 9.501922 C 1.497831 5.08197 5.078778 1.499278 9.50304 1.499278 Z M 9.50304 1.499278 " transform="matrix(0.62069,0,0,0.601852,-0.000000802713,0.000000826741)"/>
<path style=" stroke:none;fill-rule:nonzero;fill:rgb(21.960784%,25.098041%,27.843139%);fill-opacity:1;" d="M 45 9.328125 C 42.429688 9.328125 40.34375 11.351562 40.34375 13.84375 C 40.359375 15.429688 41.230469 16.890625 42.640625 17.695312 L 42.019531 18.175781 C 40.433594 16.914062 38.175781 16.808594 36.472656 17.921875 C 34.765625 19.03125 34.015625 21.09375 34.621094 23 C 35.226562 24.902344 37.050781 26.195312 39.101562 26.179688 C 41.675781 26.179688 43.757812 24.160156 43.757812 21.667969 L 43.757812 21.367188 C 43.757812 21.367188 44.070312 21.96875 44.070312 23.050781 C 44.070312 26.058594 42.828125 27.984375 41.585938 29.792969 L 48.414062 29.792969 C 47.171875 27.984375 45.929688 26 45.929688 22.992188 C 45.929688 21.96875 46.242188 21.367188 46.242188 21.367188 L 46.242188 21.667969 C 46.253906 23.78125 47.773438 25.601562 49.902344 26.054688 C 52.03125 26.503906 54.195312 25.464844 55.117188 23.550781 C 56.035156 21.632812 55.460938 19.355469 53.734375 18.066406 C 52.007812 16.777344 49.589844 16.824219 47.917969 18.175781 L 47.421875 17.695312 C 48.808594 16.875 49.652344 15.417969 49.65625 13.84375 C 49.65625 11.351562 47.570312 9.328125 45 9.328125 Z M 45 9.328125 "/>
<path style=" stroke:none;fill-rule:nonzero;fill:rgb(21.960784%,25.098041%,27.843139%);fill-opacity:1;" d="M 45 120.671875 C 42.429688 120.671875 40.34375 118.648438 40.34375 116.15625 C 40.359375 114.570312 41.230469 113.109375 42.640625 112.304688 L 42.019531 111.824219 C 40.433594 113.085938 38.175781 113.191406 36.472656 112.078125 C 34.765625 110.96875 34.015625 108.90625 34.621094 107 C 35.226562 105.097656 37.050781 103.804688 39.101562 103.820312 C 41.675781 103.820312 43.757812 105.839844 43.757812 108.332031 L 43.757812 108.632812 C 43.757812 108.632812 44.070312 108.03125 44.070312 106.949219 C 44.070312 103.941406 42.828125 102.015625 41.585938 100.207031 L 48.414062 100.207031 C 47.171875 102.015625 45.929688 104 45.929688 107.007812 C 45.929688 108.03125 46.242188 108.632812 46.242188 108.632812 L 46.242188 108.332031 C 46.253906 106.21875 47.773438 104.398438 49.902344 103.945312 C 52.03125 103.496094 54.195312 104.535156 55.117188 106.449219 C 56.035156 108.367188 55.460938 110.644531 53.734375 111.933594 C 52.007812 113.222656 49.589844 113.175781 47.917969 111.824219 L 47.421875 112.304688 C 48.808594 113.125 49.652344 114.582031 49.65625 116.15625 C 49.65625 118.648438 47.570312 120.671875 45 120.671875 Z M 45 120.671875 "/>
<path style=" stroke:none;fill-rule:nonzero;fill:rgb(21.960784%,25.098041%,27.843139%);fill-opacity:1;" d="M 45 54.769531 C 42.429688 54.769531 40.34375 56.789062 40.34375 59.28125 C 40.359375 60.867188 41.230469 62.332031 42.640625 63.132812 L 42.019531 63.617188 C 40.433594 62.351562 38.175781 62.25 36.472656 63.359375 C 34.765625 64.472656 34.015625 66.535156 34.621094 68.4375 C 35.226562 70.34375 37.050781 71.636719 39.101562 71.621094 C 41.675781 71.621094 43.757812 69.597656 43.757812 67.105469 L 43.757812 66.804688 C 43.757812 66.804688 44.070312 67.40625 44.070312 68.492188 C 44.070312 71.5 42.828125 73.425781 41.585938 75.230469 L 48.414062 75.230469 C 47.171875 73.425781 45.929688 71.441406 45.929688 68.429688 C 45.929688 67.40625 46.242188 66.804688 46.242188 66.804688 L 46.242188 67.105469 C 46.253906 69.21875 47.773438 71.042969 49.902344 71.492188 C 52.03125 71.945312 54.195312 70.90625 55.117188 68.988281 C 56.035156 67.074219 55.460938 64.796875 53.734375 63.507812 C 52.007812 62.21875 49.589844 62.261719 47.917969 63.617188 L 47.421875 63.132812 C 48.808594 62.316406 49.652344 60.855469 49.65625 59.28125 C 49.65625 56.789062 47.570312 54.769531 45 54.769531 Z M 45 54.769531 "/>
<path style=" stroke:none;fill-rule:nonzero;fill:rgb(21.960784%,25.098041%,27.843139%);fill-opacity:1;" d="M 7.894531 21.671875 C 6.820312 21.671875 5.953125 22.519531 5.953125 23.570312 C 5.957031 24.238281 6.320312 24.855469 6.910156 25.191406 L 6.652344 25.394531 C 5.988281 24.863281 5.046875 24.820312 4.335938 25.289062 C 3.625 25.753906 3.3125 26.625 3.566406 27.425781 C 3.820312 28.226562 4.578125 28.769531 5.433594 28.765625 C 6.507812 28.765625 7.375 27.914062 7.375 26.863281 L 7.375 26.738281 C 7.375 26.738281 7.503906 26.992188 7.503906 27.445312 C 7.503906 28.714844 6.988281 29.523438 6.46875 30.285156 L 9.316406 30.285156 C 8.800781 29.523438 8.28125 28.6875 8.28125 27.421875 C 8.28125 26.992188 8.410156 26.738281 8.410156 26.738281 L 8.410156 26.863281 C 8.414062 27.753906 9.050781 28.519531 9.9375 28.710938 C 10.824219 28.902344 11.730469 28.464844 12.113281 27.65625 C 12.496094 26.851562 12.257812 25.890625 11.535156 25.347656 C 10.816406 24.804688 9.808594 24.824219 9.109375 25.394531 L 8.902344 25.191406 C 9.480469 24.847656 9.835938 24.234375 9.835938 23.570312 C 9.835938 22.519531 8.964844 21.671875 7.894531 21.671875 Z M 7.894531 21.671875 "/>
<path style=" stroke:none;fill-rule:nonzero;fill:rgb(21.960784%,25.098041%,27.843139%);fill-opacity:1;" d="M 82.105469 108.328125 C 83.179688 108.328125 84.046875 107.480469 84.046875 106.429688 C 84.042969 105.761719 83.679688 105.144531 83.089844 104.808594 L 83.347656 104.605469 C 84.011719 105.136719 84.953125 105.179688 85.664062 104.710938 C 86.375 104.246094 86.6875 103.375 86.433594 102.574219 C 86.179688 101.773438 85.421875 101.230469 84.566406 101.234375 C 83.492188 101.234375 82.625 102.085938 82.625 103.136719 L 82.625 103.261719 C 82.625 103.261719 82.496094 103.007812 82.496094 102.554688 C 82.496094 101.285156 83.011719 100.476562 83.53125 99.714844 L 80.683594 99.714844 C 81.199219 100.476562 81.71875 101.3125 81.71875 102.578125 C 81.71875 103.007812 81.589844 103.261719 81.589844 103.261719 L 81.589844 103.136719 C 81.585938 102.246094 80.949219 101.480469 80.0625 101.289062 C 79.175781 101.097656 78.269531 101.535156 77.886719 102.34375 C 77.503906 103.148438 77.742188 104.109375 78.464844 104.652344 C 79.183594 105.195312 80.191406 105.175781 80.890625 104.605469 L 81.097656 104.808594 C 80.519531 105.152344 80.164062 105.765625 80.164062 106.429688 C 80.164062 107.480469 81.035156 108.328125 82.105469 108.328125 Z M 82.105469 108.328125 "/>
<path style="fill-rule:nonzero;fill:rgb(21.960784%,25.098041%,27.843139%);fill-opacity:1;stroke-width:0.5;stroke-linecap:butt;stroke-linejoin:round;stroke:rgb(21.960784%,25.098041%,27.843139%);stroke-opacity:1;stroke-miterlimit:4;" d="M 302.001521 -90.498078 C 300.742841 -90.498078 299.880644 -89.647837 299.597441 -89.102645 C 300.151261 -88.888462 301.397355 -88.103125 301.397355 -86.798558 C 301.397355 -85.721154 300.579212 -84.702164 299.200957 -84.702164 C 297.898222 -84.702164 296.998266 -85.857452 296.998266 -87.298318 C 296.998266 -89.920433 299.18837 -91.900001 302.398006 -91.900001 C 306.721574 -91.900001 307.89844 -88.881972 307.89844 -86.597356 C 307.89844 -85.260337 307.508249 -83.001683 305.097876 -81.697115 C 305.978952 -81.229808 308.502607 -79.58774 308.502607 -76.199759 C 308.502607 -72.578124 307.149525 -69.203124 302.102216 -69.203124 C 298.722658 -69.203124 296.702476 -71.422836 296.702476 -73.798317 C 296.702476 -75.148317 297.703127 -76.400961 298.999568 -76.400961 C 300.201608 -76.400961 301.202259 -75.440384 301.202259 -74.298076 C 301.202259 -73.35697 300.239368 -72.448316 299.301651 -72.097836 C 299.830297 -71.169711 300.698787 -70.702403 301.900827 -70.702403 C 304.172745 -70.702403 305.299265 -72.402884 305.299265 -75.797355 C 305.299265 -78.867307 304.330081 -80.399038 302.398006 -80.399038 L 301.598744 -81.59976 C 303.68186 -82.566827 304.997181 -84.572356 304.997181 -86.597356 C 304.997181 -89.53101 303.530818 -90.498078 302.001521 -90.498078 Z M 302.001521 -90.498078 " transform="matrix(0.62069,0,0,0.601852,-179.999987,60.185181)"/>
<path style="fill-rule:nonzero;fill:rgb(21.960784%,25.098041%,27.843139%);fill-opacity:1;stroke-width:0.5;stroke-linecap:butt;stroke-linejoin:round;stroke:rgb(21.960784%,25.098041%,27.843139%);stroke-opacity:1;stroke-miterlimit:4;" d="M 302.001507 -90.498092 C 300.742827 -90.498092 299.88063 -89.647851 299.597427 -89.102659 C 300.151247 -88.888476 301.397341 -88.10314 301.397341 -86.798572 C 301.397341 -85.721168 300.579198 -84.702178 299.200943 -84.702178 C 297.898208 -84.702178 296.998252 -85.857467 296.998252 -87.298332 C 296.998252 -89.920448 299.188356 -91.900015 302.397992 -91.900015 C 306.72156 -91.900015 307.898426 -88.881986 307.898426 -86.59737 C 307.898426 -85.260351 307.508235 -83.001697 305.097862 -81.69713 C 305.978938 -81.229822 308.502593 -79.587755 308.502593 -76.199773 C 308.502593 -72.578139 307.149511 -69.203138 302.102202 -69.203138 C 298.722644 -69.203138 296.702462 -71.42285 296.702462 -73.798331 C 296.702462 -75.148331 297.703113 -76.400975 298.999554 -76.400975 C 300.201594 -76.400975 301.202245 -75.440398 301.202245 -74.298091 C 301.202245 -73.356985 300.239354 -72.448331 299.301637 -72.09785 C 299.830283 -71.169725 300.698773 -70.702417 301.900813 -70.702417 C 304.172731 -70.702417 305.299251 -72.402898 305.299251 -75.79737 C 305.299251 -78.867322 304.330066 -80.399053 302.397992 -80.399053 L 301.598729 -81.599774 C 303.681846 -82.566841 304.997167 -84.57237 304.997167 -86.59737 C 304.997167 -89.531025 303.530804 -90.498092 302.001507 -90.498092 Z M 302.001507 -90.498092 " transform="matrix(-0.62069,0.000000000000000074,-0.000000000000000076,-0.601852,269.999978,69.81481)"/>
</g>
</svg>
