<?xml version="1.0" encoding="UTF-8"?>
<svg xmlns="http://www.w3.org/2000/svg" xmlns:xlink="http://www.w3.org/1999/xlink" width="90px" height="130px" viewBox="0 0 90 130" version="1.1">
<g id="surface1">
<path style="fill-rule:nonzero;fill:rgb(100%,100%,100%);fill-opacity:1;stroke-width:3;stroke-linecap:butt;stroke-linejoin:miter;stroke:rgb(21.960784%,25.098041%,27.843139%);stroke-opacity:1;stroke-miterlimit:4;" d="M 9.50304 1.499282 L 135.496974 1.499282 C 139.921236 1.499282 143.502183 5.081974 143.502183 9.501927 L 143.502183 206.498096 C 143.502183 210.918048 139.921236 214.500741 135.496974 214.500741 L 9.50304 214.500741 C 5.078778 214.500741 1.497831 210.918048 1.497831 206.498096 L 1.497831 9.501927 C 1.497831 5.081974 5.078778 1.499282 9.50304 1.499282 Z M 9.50304 1.499282 " transform="matrix(0.62069,0,0,0.601852,-0.000000802713,-0.000001627)"/>
<path style=" stroke:none;fill-rule:nonzero;fill:rgb(93.333334%,33.333334%,26.666668%);fill-opacity:1;" d="M 45 8.90625 C 42.515625 13.722656 38.484375 18.175781 35.691406 20.582031 C 38.484375 22.992188 42.515625 27.566406 45 32.378906 C 47.484375 27.566406 51.515625 22.992188 54.308594 20.582031 C 51.515625 18.175781 47.484375 13.722656 45 8.90625 Z M 45 8.90625 "/>
<path style=" stroke:none;fill-rule:nonzero;fill:rgb(93.333334%,33.333334%,26.666668%);fill-opacity:1;" d="M 45 97.378906 C 42.515625 102.195312 38.484375 106.648438 35.691406 109.054688 C 38.484375 111.464844 42.515625 116.035156 45 120.851562 C 47.484375 116.035156 51.515625 111.464844 54.308594 109.054688 C 51.515625 106.648438 47.484375 102.195312 45 97.378906 Z M 45 97.378906 "/>
<path style=" stroke:none;fill-rule:nonzero;fill:rgb(93.333334%,33.333334%,26.666668%);fill-opacity:1;" d="M 45 53.324219 C 42.515625 58.140625 38.484375 62.59375 35.691406 65 C 38.484375 67.40625 42.515625 71.980469 45 76.796875 C 47.484375 71.980469 51.515625 67.40625 54.308594 65 C 51.515625 62.59375 47.484375 58.140625 45 53.324219 Z M 45 53.324219 "/>
<path style=" stroke:none;fill-rule:nonzero;fill:rgb(93.333334%,33.333334%,26.666668%);fill-opacity:1;" d="M 7.914062 21.617188 C 6.726562 23.898438 4.804688 26.011719 3.472656 27.152344 C 4.804688 28.292969 6.726562 30.460938 7.914062 32.742188 C 9.097656 30.460938 11.019531 28.292969 12.351562 27.152344 C 11.019531 26.011719 9.097656 23.898438 7.914062 21.617188 Z M 7.914062 21.617188 "/>
<path style=" stroke:none;fill-rule:nonzero;fill:rgb(93.333334%,33.333334%,26.666668%);fill-opacity:1;" d="M 82.085938 108.382812 C 83.273438 106.101562 85.195312 103.988281 86.527344 102.847656 C 85.195312 101.707031 83.273438 99.539062 82.085938 97.257812 C 80.902344 99.539062 78.980469 101.707031 77.648438 102.847656 C 78.980469 103.988281 80.902344 106.101562 82.085938 108.382812 Z M 82.085938 108.382812 "/>
<path style="fill-rule:nonzero;fill:rgb(93.333334%,33.333334%,26.666668%);fill-opacity:1;stroke-width:0.5;stroke-linecap:butt;stroke-linejoin:round;stroke:rgb(93.333334%,33.333334%,26.666668%);stroke-opacity:1;stroke-miterlimit:4;" d="M 302.001521 -90.498073 C 300.742841 -90.498073 299.880644 -89.647833 299.597441 -89.102641 C 300.151261 -88.888458 301.397355 -88.103121 301.397355 -86.798554 C 301.397355 -85.72115 300.579212 -84.70216 299.200957 -84.70216 C 297.898222 -84.70216 296.998266 -85.857448 296.998266 -87.298314 C 296.998266 -89.920429 299.18837 -91.899997 302.398006 -91.899997 C 306.721574 -91.899997 307.89844 -88.881968 307.89844 -86.597352 C 307.89844 -85.260333 307.508249 -83.001679 305.097876 -81.697111 C 305.978952 -81.229804 308.502607 -79.587736 308.502607 -76.199755 C 308.502607 -72.57812 307.149525 -69.20312 302.102216 -69.20312 C 298.722658 -69.20312 296.702476 -71.422832 296.702476 -73.798313 C 296.702476 -75.148313 297.703127 -76.400957 298.999568 -76.400957 C 300.201608 -76.400957 301.202259 -75.44038 301.202259 -74.298072 C 301.202259 -73.356966 300.239368 -72.448312 299.301651 -72.097832 C 299.830297 -71.169707 300.698787 -70.702399 301.900827 -70.702399 C 304.172745 -70.702399 305.299265 -72.40288 305.299265 -75.797351 C 305.299265 -78.867303 304.330081 -80.399034 302.398006 -80.399034 L 301.598744 -81.599755 C 303.68186 -82.566823 304.997181 -84.572352 304.997181 -86.597352 C 304.997181 -89.531006 303.530818 -90.498073 302.001521 -90.498073 Z M 302.001521 -90.498073 " transform="matrix(0.62069,0,0,0.601852,-179.999987,60.185179)"/>
<path style="fill-rule:nonzero;fill:rgb(93.333334%,33.333334%,26.666668%);fill-opacity:1;stroke-width:0.5;stroke-linecap:butt;stroke-linejoin:round;stroke:rgb(93.333334%,33.333334%,26.666668%);stroke-opacity:1;stroke-miterlimit:4;" d="M 302.001507 -90.498096 C 300.742827 -90.498096 299.88063 -89.647856 299.597427 -89.102663 C 300.151247 -88.88848 301.397341 -88.103144 301.397341 -86.798576 C 301.397341 -85.721173 300.579198 -84.702182 299.200943 -84.702182 C 297.898208 -84.702182 296.998252 -85.857471 296.998252 -87.298336 C 296.998252 -89.920452 299.188356 -91.900019 302.397992 -91.900019 C 306.72156 -91.900019 307.898426 -88.88199 307.898426 -86.597375 C 307.898426 -85.260355 307.508235 -83.001701 305.097862 -81.697134 C 305.978938 -81.229826 308.502593 -79.587759 308.502593 -76.199778 C 308.502593 -72.578143 307.149511 -69.203142 302.102202 -69.203142 C 298.722644 -69.203142 296.702462 -71.422854 296.702462 -73.798335 C 296.702462 -75.148335 297.703113 -76.400979 298.999554 -76.400979 C 300.201594 -76.400979 301.202245 -75.440402 301.202245 -74.298095 C 301.202245 -73.356989 300.239354 -72.448335 299.301637 -72.097854 C 299.830283 -71.169729 300.698773 -70.702421 301.900813 -70.702421 C 304.172731 -70.702421 305.299251 -72.402902 305.299251 -75.797374 C 305.299251 -78.867326 304.330066 -80.399057 302.397992 -80.399057 L 301.598729 -81.599778 C 303.681846 -82.566845 304.997167 -84.572374 304.997167 -86.597375 C 304.997167 -89.531029 303.530804 -90.498096 302.001507 -90.498096 Z M 302.001507 -90.498096 " transform="matrix(-0.62069,0.000000000000000074,-0.000000000000000076,-0.601852,269.999978,69.814808)"/>
</g>
</svg>
