<?xml version="1.0" encoding="UTF-8"?>
<svg xmlns="http://www.w3.org/2000/svg" xmlns:xlink="http://www.w3.org/1999/xlink" width="90px" height="130px" viewBox="0 0 90 130" version="1.1">
<g id="surface1">
<path style="fill-rule:nonzero;fill:rgb(100%,100%,100%);fill-opacity:1;stroke-width:3;stroke-linecap:butt;stroke-linejoin:miter;stroke:rgb(21.960784%,25.098041%,27.843139%);stroke-opacity:1;stroke-miterlimit:4;" d="M 9.503126 1.499282 L 135.49706 1.499282 C 139.921322 1.499282 143.502269 5.081974 143.502269 9.501927 L 143.502269 206.498096 C 143.502269 210.918048 139.921322 214.500741 135.49706 214.500741 L 9.503126 214.500741 C 5.078864 214.500741 1.497917 210.918048 1.497917 206.498096 L 1.497917 9.501927 C 1.497917 5.081974 5.078864 1.499282 9.503126 1.499282 Z M 9.503126 1.499282 " transform="matrix(0.62069,0,0,0.601852,-0.0000540769,-0.000001627)"/>
<path style=" stroke:none;fill-rule:nonzero;fill:rgb(93.333334%,33.333334%,26.666668%);fill-opacity:1;" d="M 18.21875 6.035156 C 16.0625 10.203125 12.5625 14.058594 10.140625 16.140625 C 12.5625 18.222656 16.0625 22.183594 18.21875 26.347656 C 20.375 22.183594 23.875 18.222656 26.300781 16.140625 C 23.875 14.058594 20.375 10.203125 18.21875 6.035156 Z M 18.21875 6.035156 "/>
<path style=" stroke:none;fill-rule:nonzero;fill:rgb(100%,100%,100%);fill-opacity:1;" d="M 4.59375 4.394531 L 13.160156 4.394531 L 13.160156 34.484375 L 4.59375 34.484375 Z M 4.59375 4.394531 "/>
<path style=" stroke:none;fill-rule:nonzero;fill:rgb(93.333334%,33.333334%,26.666668%);fill-opacity:1;" d="M 71.78125 123.964844 C 73.933594 119.796875 77.4375 115.941406 79.859375 113.859375 C 77.4375 111.777344 73.933594 107.816406 71.78125 103.652344 C 69.625 107.816406 66.125 111.777344 63.699219 113.859375 C 66.125 115.941406 69.625 119.796875 71.78125 123.964844 Z M 71.78125 123.964844 "/>
<path style=" stroke:none;fill-rule:nonzero;fill:rgb(21.960784%,25.098041%,27.843139%);fill-opacity:1;" d="M 13.660156 61.4375 L 50.09375 48.324219 L 76.402344 68.503906 L 31.632812 77.128906 Z M 13.660156 61.4375 "/>
<path style=" stroke:none;fill-rule:nonzero;fill:rgb(21.960784%,25.098041%,27.843139%);fill-opacity:1;" d="M 22.683594 43.945312 L 64.449219 67.152344 L 76.414062 68.496094 C 76.414062 68.496094 60.351562 45.835938 55.628906 41.5 C 55.0625 41.011719 52.542969 40.460938 49.394531 39.972656 C 43.347656 38.9375 22.683594 43.945312 22.683594 43.945312 Z M 22.683594 43.945312 "/>
<path style=" stroke:none;fill-rule:nonzero;fill:rgb(93.333334%,33.333334%,26.666668%);fill-opacity:1;" d="M 76.507812 68.492188 L 72.058594 62.285156 L 70.710938 65.289062 L 71.925781 67.96875 Z M 71.320312 67.902344 L 70.511719 65.941406 L 69.703125 67.707031 C 70.375 69.929688 70.78125 68.035156 71.320312 67.902344 Z M 69.164062 67.640625 L 70.105469 65.484375 L 68.21875 61.042969 L 66.332031 65.484375 L 67.207031 67.445312 C 67.613281 69.011719 68.285156 68.753906 69.230469 67.640625 Z M 66.46875 67.378906 L 65.996094 66.269531 L 65.523438 67.25 C 66.0625 69.011719 66.265625 68.554688 66.46875 67.378906 Z M 64.984375 67.183594 L 65.660156 65.617188 L 63.773438 61.171875 L 61.886719 65.617188 L 64.582031 67.117188 C 64.648438 67.574219 64.648438 68.6875 64.984375 67.183594 Z M 61.078125 65.484375 L 59.191406 61.042969 L 57.304688 65.484375 Z M 70.441406 64.832031 L 71.789062 61.828125 C 70.984375 60.734375 70.175781 59.644531 69.363281 58.558594 L 68.554688 60.390625 Z M 61.480469 64.832031 L 63.433594 60.390625 L 61.480469 56.011719 L 59.59375 60.390625 Z M 65.996094 64.832031 L 67.949219 60.390625 L 65.996094 56.011719 L 64.109375 60.390625 Z M 54.40625 60.714844 L 52.453125 56.339844 L 50.566406 60.714844 Z M 50.296875 60.0625 L 52.183594 55.621094 L 50.296875 51.242188 L 48.34375 55.621094 Z M 54.742188 59.933594 L 56.628906 55.488281 L 54.742188 51.113281 L 52.855469 55.488281 Z M 68.21875 59.734375 L 68.960938 58.035156 C 68.15625 56.945312 67.347656 55.855469 66.535156 54.769531 L 66.332031 55.359375 Z M 59.324219 59.734375 L 61.210938 55.292969 L 59.324219 50.914062 L 57.371094 55.292969 Z M 63.773438 59.605469 L 65.660156 55.164062 L 64.109375 51.570312 L 63.636719 50.980469 L 61.886719 55.164062 Z M 47.601562 55.816406 L 45.78125 51.4375 L 43.828125 55.816406 Z M 48.074219 55.164062 L 49.960938 50.785156 L 48.074219 46.40625 L 46.1875 50.785156 Z M 43.558594 55.164062 L 45.445312 50.785156 L 43.558594 46.34375 L 41.671875 50.785156 Z M 57.035156 54.835938 L 58.921875 50.457031 L 57.035156 46.015625 L 55.148438 50.457031 Z M 52.519531 54.835938 L 54.40625 50.394531 L 52.519531 46.015625 L 50.632812 50.394531 Z M 65.996094 54.507812 L 66.128906 54.183594 L 65.457031 53.332031 Z M 61.550781 54.507812 L 63.300781 50.523438 C 62.480469 49.492188 61.648438 48.46875 60.808594 47.453125 L 59.664062 50.066406 Z M 40.929688 51.113281 L 39.042969 46.667969 L 37.15625 51.113281 Z M 41.265625 50.261719 L 43.222656 45.882812 L 39.378906 45.882812 Z M 45.847656 50.132812 L 47.804688 45.6875 L 43.960938 45.6875 Z M 50.296875 50 L 52.25 45.558594 L 50.296875 41.179688 L 48.410156 45.558594 Z M 54.878906 49.738281 L 56.765625 45.363281 L 55.148438 41.574219 L 54.609375 41.441406 L 52.925781 45.363281 Z M 59.324219 49.609375 L 60.472656 46.996094 C 59.640625 45.996094 58.789062 45.015625 57.910156 44.054688 L 57.371094 45.230469 Z M 52.585938 44.90625 L 54.070312 41.3125 C 53.195312 41.050781 52.046875 40.855469 50.699219 40.59375 Z M 57.101562 44.578125 L 57.507812 43.597656 C 57.058594 43.097656 56.585938 42.617188 56.089844 42.160156 Z M 57.101562 44.578125 "/>
<path style=" stroke:none;fill-rule:nonzero;fill:rgb(92.941177%,10.980392%,14.117648%);fill-opacity:1;" d="M 56.890625 66.3125 L 56.824219 66.304688 L 56.824219 66.269531 Z M 56.890625 66.3125 "/>
<path style=" stroke:none;fill-rule:nonzero;fill:rgb(93.333334%,80.000001%,26.666668%);fill-opacity:1;" d="M 48.007812 39.425781 L 51.21875 40.21875 C 51.21875 40.21875 50.714844 47.425781 39.945312 47.667969 C 29.171875 47.914062 22.308594 40.828125 22.308594 40.828125 L 27.21875 39.425781 Z M 48.007812 39.425781 "/>
<path style=" stroke:none;fill-rule:nonzero;fill:rgb(86.666667%,73.333335%,60.000002%);fill-opacity:1;" d="M 39 14.808594 L 51.410156 15.785156 L 50.96875 17.800781 L 52.855469 25.5 L 50.839844 25.863281 L 51.21875 27.878906 L 49.769531 28.734375 L 49.898438 29.835938 C 49.898438 29.835938 48.257812 30.445312 49.265625 31.421875 C 50.148438 32.339844 50.96875 34.109375 46.496094 34.355469 C 43.785156 34.476562 42.402344 35.699219 44.667969 39.484375 L 39.820312 42.113281 L 29.234375 40.339844 Z M 39 14.808594 "/>
<path style=" stroke:none;fill-rule:nonzero;fill:rgb(56.078434%,57.254905%,58.039218%);fill-opacity:1;" d="M 49.644531 17.679688 C 49.644531 17.679688 50.148438 18.472656 48.890625 19.023438 C 48.890625 19.023438 48.195312 19.269531 47.125 18.839844 C 46.117188 18.414062 43.851562 18.71875 43.597656 19.023438 C 43.28125 19.390625 44.226562 17.007812 47.753906 18.046875 C 49.960938 18.65625 49.644531 17.679688 49.644531 17.679688 Z M 49.644531 17.679688 "/>
<path style=" stroke:none;fill-rule:nonzero;fill:rgb(21.960784%,25.098041%,27.843139%);fill-opacity:1;" d="M 49.078125 19.878906 C 49.078125 19.878906 48.007812 20.125 47 19.757812 C 46.054688 19.328125 44.605469 19.453125 43.914062 20.0625 C 43.914062 20.0625 45.425781 19.695312 46.621094 20.246094 C 46.621094 20.246094 46.179688 21.46875 46.9375 21.589844 C 47.691406 21.773438 47.816406 20.429688 47.816406 20.429688 C 47.816406 20.429688 48.699219 20.367188 49.078125 19.878906 Z M 49.078125 19.878906 "/>
<path style=" stroke:none;fill-rule:nonzero;fill:rgb(61.56863%,62.352943%,62.7451%);fill-opacity:1;" d="M 40.449219 14.503906 C 40.449219 14.503906 38.875 31.179688 41.394531 32.15625 C 41.394531 32.15625 44.480469 34.78125 43.21875 36.371094 C 41.644531 38.203125 37.738281 38.570312 28.101562 37.773438 C 25.582031 37.714844 21.238281 34.84375 26.714844 28.859375 C 28.226562 27.269531 30.308594 21.101562 28.480469 14.503906 Z M 40.449219 14.503906 "/>
<path style=" stroke:none;fill-rule:nonzero;fill:rgb(21.960784%,25.098041%,27.843139%);fill-opacity:1;" d="M 59.21875 21.40625 L 56.699219 19.574219 L 56.699219 62.023438 L 59.21875 62.023438 Z M 59.21875 21.40625 "/>
<path style=" stroke:none;fill-rule:nonzero;fill:rgb(86.666667%,73.333335%,60.000002%);fill-opacity:1;" d="M 55.3125 64.222656 L 51.347656 58.054688 L 53.867188 55.183594 C 53.867188 55.183594 55.378906 53.898438 56.070312 52.371094 C 56.257812 51.945312 57.519531 52.371094 56.574219 54.207031 L 55.753906 55.976562 L 59.660156 52.554688 C 59.660156 52.554688 61.800781 50.480469 61.929688 51.394531 C 62.054688 52.007812 61.171875 53.226562 60.855469 53.472656 C 60.542969 53.714844 57.898438 56.894531 57.898438 56.894531 L 61.109375 54.328125 C 61.109375 54.328125 63.441406 52.3125 63.691406 52.617188 C 64.511719 53.839844 63 54.9375 62.558594 55.242188 C 62.117188 55.550781 59.03125 58.480469 59.03125 58.480469 L 63.25 55.914062 C 63.25 55.914062 64.886719 54.695312 65.015625 55.121094 C 65.328125 56.160156 64.195312 56.953125 63.945312 57.136719 L 60.417969 59.578125 L 61.550781 59.398438 C 61.550781 59.398438 64.824219 58.113281 64.886719 58.359375 C 65.078125 59.761719 59.21875 62.449219 59.21875 62.449219 C 59.21875 62.449219 56.070312 63.792969 55.3125 64.28125 Z M 55.3125 64.222656 "/>
<path style=" stroke:none;fill-rule:nonzero;fill:rgb(21.960784%,25.098041%,27.843139%);fill-opacity:1;" d="M 37.171875 47.667969 L 61.738281 66.847656 L 34.78125 63.792969 L 33.644531 62.265625 L 31.753906 63.488281 L 27.347656 63 L 22.179688 60.679688 L 16.386719 61.71875 L 13.488281 61.414062 L 13.675781 45.714844 C 13.742188 41.621094 17.207031 41.316406 17.207031 41.316406 C 19.859375 40.746094 22.507812 40.132812 25.140625 39.484375 L 28.921875 43.089844 L 33.078125 44.921875 Z M 43.785156 37.714844 L 48.007812 39.425781 C 47.0625 40.949219 44.417969 44.1875 38.242188 44.003906 C 34.140625 43.722656 30.257812 42.109375 27.21875 39.425781 L 30.179688 37.957031 C 30.179688 37.957031 33.960938 40.707031 38.621094 40.707031 C 42.84375 40.769531 43.785156 37.773438 43.785156 37.773438 Z M 43.785156 37.714844 "/>
<path style=" stroke:none;fill-rule:nonzero;fill:rgb(93.333334%,33.333334%,26.666668%);fill-opacity:1;" d="M 26.78125 62.9375 L 33.113281 44.90625 L 25.164062 39.417969 L 17.953125 59.867188 L 17.75 61.109375 L 18.492188 61.957031 Z M 26.78125 62.9375 "/>
<path style=" stroke:none;fill-rule:nonzero;fill:rgb(93.333334%,80.000001%,26.666668%);fill-opacity:1;" d="M 18.558594 62.023438 L 18.019531 59.800781 L 16.269531 61.042969 L 16.472656 61.695312 Z M 18.019531 59.800781 L 19.773438 58.625 L 19.234375 56.402344 L 17.480469 57.644531 Z M 19.234375 56.402344 L 20.984375 55.226562 L 20.445312 53.007812 L 18.695312 54.246094 Z M 20.445312 53.070312 L 22.199219 51.832031 L 21.59375 49.675781 L 19.839844 50.851562 Z M 21.59375 49.609375 L 23.34375 48.433594 L 22.804688 46.210938 L 21.054688 47.453125 Z M 22.804688 46.277344 L 24.558594 45.035156 L 24.019531 42.8125 L 22.265625 44.054688 Z M 24.019531 42.8125 L 25.769531 41.636719 L 25.230469 39.417969 L 23.480469 40.65625 Z M 27.386719 63.003906 L 27.117188 61.890625 L 25.769531 62.804688 Z M 27.117188 61.890625 L 28.871094 60.714844 L 28.332031 58.496094 L 26.578125 59.671875 Z M 28.332031 58.496094 L 30.082031 57.320312 L 29.542969 55.097656 L 27.792969 56.273438 Z M 29.542969 55.097656 L 31.296875 53.921875 L 30.6875 51.699219 L 28.9375 52.875 Z M 30.6875 51.699219 L 32.441406 50.523438 L 31.902344 48.300781 L 30.148438 49.476562 Z M 31.902344 48.300781 L 33.652344 47.125 L 33.113281 44.90625 L 31.363281 46.082031 Z M 31.902344 48.300781 "/>
<path style=" stroke:none;fill-rule:nonzero;fill:rgb(93.333334%,80.000001%,26.666668%);fill-opacity:1;" d="M 43.0625 39.398438 L 43.441406 40.976562 L 45.335938 41.28125 L 44.957031 39.644531 Z M 34.78125 40.402344 L 33.265625 41.378906 L 33.707031 42.964844 L 35.21875 41.988281 Z M 39.25 40.949219 L 38.621094 42.476562 L 39.945312 43.699219 L 40.636719 42.171875 Z M 39.25 40.949219 "/>
<path style=" stroke:none;fill-rule:nonzero;fill:rgb(93.333334%,33.333334%,26.666668%);fill-opacity:1;" d="M 32.636719 39.546875 L 31 40.402344 L 31.316406 41.988281 L 32.953125 41.195312 Z M 41.457031 40.460938 L 41.265625 42.113281 L 42.90625 42.90625 L 43.09375 41.257812 Z M 37.046875 40.890625 L 35.914062 42.171875 L 36.859375 43.636719 L 37.992188 42.292969 Z M 37.046875 40.890625 "/>
<path style=" stroke:none;fill-rule:nonzero;fill:rgb(83.137256%,83.137256%,83.137256%);fill-opacity:1;" d="M 40.449219 14.503906 C 40.449219 14.503906 39.0625 29.46875 41.769531 32.15625 C 44.480469 34.84375 44.164062 36.125 42.402344 37.042969 C 42.402344 37.042969 43.347656 35.210938 41.203125 32.707031 C 37.425781 28.246094 40.449219 14.503906 40.449219 14.503906 Z M 28.480469 14.503906 C 31.753906 26.535156 26.402344 29.46875 25.332031 33.316406 C 24.261719 37.164062 28.101562 37.773438 28.101562 37.773438 C 25.140625 37.898438 21.171875 34.84375 25.773438 29.652344 C 30.371094 24.460938 28.480469 14.503906 28.480469 14.503906 Z M 36.921875 15.113281 C 36.921875 15.113281 35.347656 30.996094 36.605469 32.523438 C 36.605469 32.523438 37.992188 36.980469 36.417969 37.714844 C 36.417969 37.714844 37.046875 34.660156 35.660156 32.523438 C 34.273438 30.382812 36.921875 15.113281 36.921875 15.113281 Z M 31.441406 16.824219 C 31.441406 16.824219 33.015625 28.125 31.25 30.566406 C 28.921875 33.867188 30.8125 37.652344 30.8125 37.652344 C 29.425781 37.835938 28.605469 33.132812 30.308594 30.875 C 32.007812 28.613281 31.441406 16.824219 31.441406 16.824219 Z M 31.441406 16.824219 "/>
<path style=" stroke:none;fill-rule:nonzero;fill:rgb(93.333334%,80.000001%,26.666668%);fill-opacity:1;" d="M 51.410156 15.726562 C 51.410156 15.726562 36.542969 14.992188 28.226562 15.113281 L 26.210938 8.703125 C 26.210938 8.824219 29.929688 9.921875 31.441406 6.746094 C 31.441406 6.746094 35.03125 10.046875 38.558594 6.074219 C 38.433594 6.074219 42.589844 9.3125 46.433594 5.832031 C 46.433594 5.832031 50.210938 10.839844 53.992188 7.296875 Z M 51.410156 15.726562 "/>
<path style=" stroke:none;fill-rule:nonzero;fill:rgb(93.333334%,33.333334%,26.666668%);fill-opacity:1;" d="M 51.472656 15.421875 C 51.472656 15.421875 44.164062 13.464844 28.226562 15.054688 L 28.480469 15.96875 C 28.480469 15.96875 41.394531 14.808594 51.21875 16.457031 Z M 51.472656 15.421875 "/>
<path style=" stroke:none;fill-rule:nonzero;fill:rgb(93.333334%,33.333334%,26.666668%);fill-opacity:1;" d="M 46.472656 5.832031 C 43.867188 7.035156 41.382812 7.636719 38.589844 6.011719 C 40.019531 7.816406 42.003906 8.417969 44.117188 7.515625 C 45.03125 7.117188 45.835938 6.519531 46.472656 5.769531 Z M 38.589844 6.011719 C 38.589844 6.011719 36.109375 9.382812 31.390625 6.550781 C 31.390625 6.550781 29.34375 9.441406 26.238281 8.71875 C 27.160156 9.234375 28.257812 9.34375 29.265625 9.023438 C 30.273438 8.699219 31.09375 7.976562 31.515625 7.035156 C 31.390625 7.457031 36.296875 10.707031 38.589844 6.011719 Z M 46.472656 5.890625 C 49.144531 10.34375 52.742188 9.019531 52.742188 9.019531 L 51.253906 16.421875 L 54.171875 6.792969 C 50.261719 10.222656 46.472656 5.832031 46.472656 5.832031 Z M 46.472656 5.890625 "/>
<path style=" stroke:none;fill-rule:nonzero;fill:rgb(21.960784%,25.098041%,27.843139%);fill-opacity:1;" d="M 48.007812 21.832031 C 48.007812 21.832031 47 23.300781 45.171875 22.078125 C 45.171875 22.078125 47.503906 22.566406 48.007812 21.832031 Z M 48.007812 21.832031 "/>
<path style=" stroke:none;fill-rule:nonzero;fill:rgb(56.078434%,57.254905%,58.039218%);fill-opacity:1;" d="M 51.21875 27.878906 C 51.21875 27.878906 49.328125 27.515625 48.195312 27.941406 C 48.195312 27.941406 47.566406 31.117188 48.007812 31.421875 L 49.265625 31.421875 C 49.265625 31.421875 50.335938 32.21875 50.335938 33.867188 C 50.335938 33.867188 49.457031 33.683594 49.078125 33.742188 L 46.558594 32.949219 L 47.1875 27.636719 C 47.1875 27.636719 47.882812 26.71875 49.457031 26.71875 L 51.03125 26.597656 Z M 51.21875 27.878906 "/>
<path style=" stroke:none;fill-rule:nonzero;fill:rgb(21.960784%,25.098041%,27.843139%);fill-opacity:1;" d="M 51.21875 40.21875 C 51.21875 40.21875 49.644531 48.464844 36.730469 47.488281 L 38.242188 48.464844 C 38.242188 48.464844 50.464844 50.601562 52.605469 40.523438 Z M 51.21875 40.21875 "/>
<path style=" stroke:none;fill-rule:nonzero;fill:rgb(93.333334%,80.000001%,26.666668%);fill-opacity:1;" d="M 37.171875 47.667969 L 40.007812 49.683594 L 34.78125 63.792969 L 31.753906 63.429688 Z M 37.171875 47.667969 "/>
<path style=" stroke:none;fill-rule:nonzero;fill:rgb(46.666667%,46.666667%,80.000001%);fill-opacity:1;" d="M 39.566406 53.289062 L 41.394531 53.410156 L 41.898438 54.9375 L 40.070312 54.816406 Z M 42.210938 55.121094 L 44.039062 55.242188 L 44.542969 56.769531 L 42.714844 56.648438 Z M 44.792969 56.894531 L 46.621094 57.015625 L 47.125 58.542969 L 45.296875 58.417969 Z M 47.25 58.664062 L 49.078125 58.726562 L 49.582031 60.25 L 47.753906 60.191406 Z M 49.898438 60.496094 L 51.722656 60.558594 L 52.226562 62.085938 L 50.402344 62.023438 Z M 52.542969 62.328125 L 54.371094 62.390625 L 54.875 63.917969 L 53.109375 63.855469 Z M 55.125 64.101562 L 56.953125 64.160156 L 57.457031 65.75 L 55.628906 65.625 Z M 55.125 64.101562 "/>
<path style=" stroke:none;fill-rule:nonzero;fill:rgb(73.725492%,75.294119%,76.078433%);fill-opacity:1;" d="M 59.847656 22.628906 L 56.070312 22.628906 L 56.070312 28.734375 L 59.847656 28.734375 Z M 59.847656 22.628906 "/>
<path style=" stroke:none;fill-rule:nonzero;fill:rgb(81.568629%,81.960785%,82.352942%);fill-opacity:1;" d="M 65.328125 14.808594 C 65.328125 14.808594 69.550781 18.535156 70.117188 24.519531 L 69.800781 24.519531 C 69.089844 24.519531 68.511719 25.082031 68.511719 25.773438 C 68.511719 26.464844 69.089844 27.023438 69.800781 27.023438 C 69.90625 27.039062 70.011719 27.039062 70.117188 27.023438 C 69.710938 30.679688 67.914062 34.054688 65.078125 36.492188 C 65.078125 26.84375 59.03125 26.84375 59.03125 26.84375 L 59.03125 24.886719 C 65.769531 23.972656 65.328125 14.808594 65.328125 14.808594 Z M 65.328125 14.808594 "/>
<path style=" stroke:none;fill-rule:nonzero;fill:rgb(76.862746%,77.254903%,79.215688%);fill-opacity:1;" d="M 65.328125 14.808594 C 65.328125 14.808594 70.054688 19.574219 70.117188 24.519531 L 69.800781 24.519531 C 69.800781 24.519531 68.917969 18.535156 65.328125 14.808594 Z M 65.328125 14.808594 "/>
<path style=" stroke:none;fill-rule:nonzero;fill:rgb(70.19608%,70.588237%,71.764708%);fill-opacity:1;" d="M 65.832031 17.007812 C 65.832031 17.007812 68.542969 20.796875 68.730469 23.605469 C 68.730469 23.605469 66.398438 25.679688 68.667969 28.125 C 68.667969 28.125 68.289062 31.789062 65.960938 34.597656 C 65.960938 34.597656 68.480469 24.03125 65.832031 17.007812 Z M 65.832031 17.007812 "/>
<path style=" stroke:none;fill-rule:nonzero;fill:rgb(46.666667%,46.666667%,80.000001%);fill-opacity:1;" d="M 40.007812 49.683594 L 64.574219 67.152344 L 61.738281 66.847656 L 39.566406 50.90625 Z M 40.007812 49.683594 "/>
<path style=" stroke:none;fill-rule:nonzero;fill:rgb(93.333334%,33.333334%,26.666668%);fill-opacity:1;" d="M 45.675781 13.769531 L 48.257812 10.960938 L 46.304688 7.664062 L 43.722656 10.472656 Z M 32.324219 13.769531 L 30.054688 11.511719 L 31.503906 8.703125 L 33.835938 10.960938 Z M 39.25 13.527344 L 41.140625 10.472656 L 38.683594 7.785156 L 36.792969 10.839844 Z M 39.25 13.527344 "/>
<path style=" stroke:none;fill-rule:nonzero;fill:rgb(93.333334%,80.000001%,26.666668%);fill-opacity:1;" d="M 16.4375 61.738281 L 17.675781 61.140625 L 18.539062 61.976562 L 17.425781 63.476562 Z M 25.703125 62.816406 L 26.9375 62.21875 L 27.371094 62.996094 L 25.949219 64.851562 Z M 31.691406 63.476562 L 32.929688 62.875 L 34.78125 63.832031 L 31.941406 65.511719 Z M 31.691406 63.476562 "/>
<path style=" stroke:none;fill-rule:nonzero;fill:rgb(46.666667%,46.666667%,80.000001%);fill-opacity:1;" d="M 61.765625 66.828125 L 62.941406 66.230469 L 64.546875 67.128906 L 61.953125 68.921875 Z M 61.765625 66.828125 "/>
<path style=" stroke:none;fill-rule:nonzero;fill:rgb(93.333334%,33.333334%,26.666668%);fill-opacity:1;" d="M 71.773438 67.964844 L 73.007812 67.367188 L 76.464844 68.503906 L 73.4375 70.300781 Z M 71.773438 67.964844 "/>
<path style=" stroke:none;fill-rule:nonzero;fill:rgb(21.960784%,25.098041%,27.843139%);fill-opacity:1;" d="M 67.253906 86 L 25.492188 62.789062 L 13.523438 61.445312 C 13.523438 61.445312 29.585938 84.105469 34.3125 88.441406 C 34.878906 88.929688 37.398438 89.480469 40.546875 89.96875 C 46.59375 91.007812 67.253906 86 67.253906 86 Z M 67.253906 86 "/>
<path style=" stroke:none;fill-rule:nonzero;fill:rgb(93.333334%,33.333334%,26.666668%);fill-opacity:1;" d="M 13.433594 61.453125 L 17.878906 67.660156 L 19.226562 64.652344 L 18.015625 61.976562 Z M 18.621094 62.039062 L 19.429688 64 L 20.238281 62.238281 C 19.5625 60.015625 19.160156 61.910156 18.621094 62.039062 Z M 20.777344 62.300781 L 19.832031 64.457031 L 21.71875 68.902344 L 23.605469 64.457031 L 22.730469 62.496094 C 22.328125 60.929688 21.652344 61.191406 20.710938 62.300781 Z M 23.472656 62.5625 L 23.945312 63.675781 L 24.414062 62.695312 C 23.875 60.929688 23.675781 61.386719 23.472656 62.5625 Z M 24.953125 62.757812 L 24.28125 64.328125 L 26.167969 68.769531 L 28.054688 64.328125 L 25.359375 62.824219 C 25.292969 62.367188 25.292969 61.257812 24.953125 62.757812 Z M 28.863281 64.457031 L 30.75 68.902344 L 32.636719 64.457031 Z M 19.496094 65.113281 L 18.148438 68.117188 C 18.953125 69.207031 19.761719 70.296875 20.574219 71.382812 L 21.382812 69.554688 Z M 28.457031 65.113281 L 26.503906 69.554688 L 28.457031 73.933594 L 30.34375 69.554688 Z M 23.945312 65.113281 L 21.988281 69.554688 L 23.945312 73.933594 L 25.832031 69.554688 Z M 35.535156 69.226562 L 37.488281 73.605469 L 39.375 69.226562 Z M 39.644531 69.882812 L 37.757812 74.324219 L 39.644531 78.699219 L 41.597656 74.324219 Z M 35.195312 70.011719 L 33.308594 74.453125 L 35.195312 78.832031 L 37.082031 74.453125 Z M 21.71875 70.207031 L 20.980469 71.90625 C 21.78125 73 22.589844 74.085938 23.40625 75.171875 L 23.605469 74.585938 Z M 30.613281 70.207031 L 28.726562 74.648438 L 30.613281 79.027344 L 32.570312 74.648438 Z M 26.167969 70.339844 L 24.28125 74.78125 L 25.832031 78.375 L 26.300781 78.960938 L 28.054688 74.78125 Z M 42.339844 74.128906 L 44.15625 78.503906 L 46.113281 74.128906 Z M 41.867188 74.78125 L 39.980469 79.160156 L 41.867188 83.535156 L 43.753906 79.160156 Z M 46.382812 74.78125 L 44.496094 79.160156 L 46.382812 83.601562 L 48.269531 79.160156 Z M 32.90625 75.109375 L 31.019531 79.484375 L 32.90625 83.929688 L 34.792969 79.484375 Z M 37.421875 75.109375 L 35.535156 79.550781 L 37.421875 83.929688 L 39.308594 79.550781 Z M 23.945312 75.433594 L 23.808594 75.761719 L 24.484375 76.609375 Z M 28.390625 75.433594 L 26.640625 79.417969 C 27.460938 80.453125 28.289062 81.476562 29.132812 82.492188 L 30.277344 79.878906 Z M 49.007812 78.832031 L 50.894531 83.273438 L 52.78125 78.832031 Z M 48.671875 79.679688 L 46.71875 84.058594 L 50.558594 84.058594 Z M 44.089844 79.8125 L 42.136719 84.253906 L 45.976562 84.253906 Z M 39.644531 79.941406 L 37.691406 84.386719 L 39.644531 88.761719 L 41.53125 84.386719 Z M 35.0625 80.203125 L 33.175781 84.582031 L 34.792969 88.371094 L 35.332031 88.5 L 37.015625 84.582031 Z M 30.613281 80.335938 L 29.46875 82.949219 C 30.296875 83.949219 31.152344 84.929688 32.03125 85.886719 L 32.570312 84.710938 Z M 37.351562 85.039062 L 35.871094 88.632812 C 36.746094 88.894531 37.890625 89.089844 39.238281 89.351562 Z M 32.839844 85.367188 L 32.433594 86.34375 C 32.882812 86.84375 33.355469 87.324219 33.847656 87.78125 Z M 32.839844 85.367188 "/>
<path style=" stroke:none;fill-rule:nonzero;fill:rgb(92.941177%,10.980392%,14.117648%);fill-opacity:1;" d="M 33.050781 63.632812 L 33.113281 63.636719 L 33.113281 63.675781 Z M 33.050781 63.632812 "/>
<path style=" stroke:none;fill-rule:nonzero;fill:rgb(93.333334%,80.000001%,26.666668%);fill-opacity:1;" d="M 41.933594 90.519531 L 38.71875 89.726562 C 38.71875 89.726562 39.222656 82.519531 49.996094 82.273438 C 60.765625 82.027344 67.632812 89.113281 67.632812 89.113281 L 62.71875 90.519531 Z M 41.933594 90.519531 "/>
<path style=" stroke:none;fill-rule:nonzero;fill:rgb(86.666667%,73.333335%,60.000002%);fill-opacity:1;" d="M 50.941406 115.132812 L 38.53125 114.15625 L 38.972656 112.140625 L 37.082031 104.445312 L 39.097656 104.078125 L 38.71875 102.0625 L 40.167969 101.207031 L 40.042969 100.109375 C 40.042969 100.109375 41.679688 99.496094 40.671875 98.519531 C 39.792969 97.605469 38.972656 95.832031 43.445312 95.589844 C 46.152344 95.464844 47.539062 94.246094 45.269531 90.457031 L 50.121094 87.832031 L 60.703125 89.601562 Z M 50.941406 115.132812 "/>
<path style=" stroke:none;fill-rule:nonzero;fill:rgb(56.078434%,57.254905%,58.039218%);fill-opacity:1;" d="M 40.296875 112.261719 C 40.296875 112.261719 39.792969 111.46875 41.050781 110.917969 C 41.050781 110.917969 41.742188 110.675781 42.816406 111.101562 C 43.824219 111.53125 46.089844 111.226562 46.34375 110.917969 C 46.65625 110.554688 45.710938 112.933594 42.183594 111.898438 C 39.980469 111.285156 40.296875 112.261719 40.296875 112.261719 Z M 40.296875 112.261719 "/>
<path style=" stroke:none;fill-rule:nonzero;fill:rgb(21.960784%,25.098041%,27.843139%);fill-opacity:1;" d="M 40.863281 110.0625 C 40.863281 110.0625 41.933594 109.820312 42.941406 110.1875 C 43.886719 110.613281 45.335938 110.492188 46.027344 109.882812 C 46.027344 109.882812 44.515625 110.246094 43.320312 109.699219 C 43.320312 109.699219 43.757812 108.476562 43.003906 108.355469 C 42.246094 108.171875 42.121094 109.515625 42.121094 109.515625 C 42.121094 109.515625 41.238281 109.574219 40.863281 110.0625 Z M 40.863281 110.0625 "/>
<path style=" stroke:none;fill-rule:nonzero;fill:rgb(61.56863%,62.352943%,62.7451%);fill-opacity:1;" d="M 49.492188 115.4375 C 49.492188 115.4375 51.066406 98.765625 48.546875 97.789062 C 48.546875 97.789062 45.460938 95.160156 46.71875 93.574219 C 48.292969 91.742188 52.199219 91.375 61.835938 92.167969 C 64.355469 92.230469 68.703125 95.101562 63.222656 101.085938 C 61.710938 102.671875 59.632812 108.84375 61.460938 115.4375 Z M 49.492188 115.4375 "/>
<path style=" stroke:none;fill-rule:nonzero;fill:rgb(21.960784%,25.098041%,27.843139%);fill-opacity:1;" d="M 30.71875 108.539062 L 33.242188 110.371094 L 33.242188 67.921875 L 30.71875 67.921875 Z M 30.71875 108.539062 "/>
<path style=" stroke:none;fill-rule:nonzero;fill:rgb(86.666667%,73.333335%,60.000002%);fill-opacity:1;" d="M 34.625 65.722656 L 38.59375 71.890625 L 36.074219 74.761719 C 36.074219 74.761719 34.5625 76.042969 33.871094 77.570312 C 33.679688 78 32.421875 77.570312 33.367188 75.738281 L 34.183594 73.96875 L 30.28125 77.386719 C 30.28125 77.386719 28.136719 79.464844 28.011719 78.546875 C 27.886719 77.9375 28.769531 76.714844 29.082031 76.472656 C 29.398438 76.226562 32.042969 73.050781 32.042969 73.050781 L 28.832031 75.617188 C 28.832031 75.617188 26.5 77.632812 26.25 77.328125 C 25.429688 76.105469 26.941406 75.003906 27.382812 74.699219 C 27.824219 74.394531 30.910156 71.460938 30.910156 71.460938 L 26.6875 74.027344 C 26.6875 74.027344 25.050781 75.25 24.925781 74.820312 C 24.609375 73.785156 25.746094 72.988281 25.996094 72.804688 L 29.523438 70.363281 L 28.390625 70.546875 C 28.390625 70.546875 25.113281 71.828125 25.050781 71.585938 C 24.863281 70.179688 30.71875 67.492188 30.71875 67.492188 C 30.71875 67.492188 33.871094 66.148438 34.625 65.660156 Z M 34.625 65.722656 "/>
<path style=" stroke:none;fill-rule:nonzero;fill:rgb(21.960784%,25.098041%,27.843139%);fill-opacity:1;" d="M 52.765625 82.273438 L 28.199219 63.09375 L 55.160156 66.148438 L 56.292969 67.675781 L 58.183594 66.453125 L 62.59375 66.941406 L 67.757812 69.265625 L 73.554688 68.226562 L 76.453125 68.53125 L 76.261719 84.226562 C 76.199219 88.320312 72.734375 88.625 72.734375 88.625 C 70.078125 89.199219 67.433594 89.808594 64.796875 90.457031 L 61.019531 86.855469 L 56.863281 85.023438 Z M 46.152344 92.230469 L 41.933594 90.519531 C 42.878906 88.992188 45.523438 85.753906 51.695312 85.9375 C 55.796875 86.21875 59.679688 87.832031 62.71875 90.519531 L 59.757812 91.984375 C 59.757812 91.984375 55.980469 89.238281 51.316406 89.238281 C 47.097656 89.175781 46.152344 92.167969 46.152344 92.167969 Z M 46.152344 92.230469 "/>
<path style=" stroke:none;fill-rule:nonzero;fill:rgb(93.333334%,33.333334%,26.666668%);fill-opacity:1;" d="M 63.160156 67.007812 L 56.824219 85.039062 L 64.777344 90.527344 L 71.984375 70.078125 L 72.1875 68.835938 L 71.445312 67.984375 Z M 63.160156 67.007812 "/>
<path style=" stroke:none;fill-rule:nonzero;fill:rgb(93.333334%,80.000001%,26.666668%);fill-opacity:1;" d="M 71.378906 67.921875 L 71.917969 70.140625 L 73.671875 68.902344 L 73.46875 68.246094 Z M 71.917969 70.140625 L 70.167969 71.316406 L 70.707031 73.539062 L 72.457031 72.296875 Z M 70.707031 73.539062 L 68.953125 74.714844 L 69.492188 76.9375 L 71.246094 75.695312 Z M 69.492188 76.871094 L 67.742188 78.113281 L 68.347656 80.269531 L 70.097656 79.09375 Z M 68.347656 80.335938 L 66.597656 81.511719 L 67.136719 83.730469 L 68.886719 82.492188 Z M 67.136719 83.667969 L 65.382812 84.90625 L 65.921875 87.128906 L 67.675781 85.886719 Z M 65.921875 87.128906 L 64.171875 88.304688 L 64.710938 90.527344 L 66.460938 89.285156 Z M 62.554688 66.941406 L 62.824219 68.050781 L 64.171875 67.136719 Z M 62.824219 68.050781 L 61.070312 69.226562 L 61.609375 71.449219 L 63.363281 70.273438 Z M 61.609375 71.449219 L 59.859375 72.625 L 60.398438 74.847656 L 62.148438 73.671875 Z M 60.398438 74.847656 L 58.644531 76.023438 L 59.25 78.242188 L 61.003906 77.066406 Z M 59.25 78.242188 L 57.5 79.417969 L 58.039062 81.640625 L 59.789062 80.464844 Z M 58.039062 81.640625 L 56.285156 82.816406 L 56.824219 85.039062 L 58.578125 83.863281 Z M 58.039062 81.640625 "/>
<path style=" stroke:none;fill-rule:nonzero;fill:rgb(93.333334%,80.000001%,26.666668%);fill-opacity:1;" d="M 46.878906 90.542969 L 46.5 88.96875 L 44.601562 88.664062 L 44.980469 90.300781 Z M 55.160156 89.542969 L 56.671875 88.566406 L 56.230469 86.976562 L 54.71875 87.953125 Z M 50.6875 88.992188 L 51.316406 87.464844 L 49.996094 86.242188 L 49.300781 87.769531 Z M 50.6875 88.992188 "/>
<path style=" stroke:none;fill-rule:nonzero;fill:rgb(93.333334%,33.333334%,26.666668%);fill-opacity:1;" d="M 57.300781 90.398438 L 58.941406 89.542969 L 58.625 87.953125 L 56.988281 88.746094 Z M 48.484375 89.480469 L 48.671875 87.832031 L 47.035156 87.039062 L 46.847656 88.6875 Z M 52.894531 89.054688 L 54.027344 87.769531 L 53.082031 86.304688 L 51.949219 87.648438 Z M 52.894531 89.054688 "/>
<path style=" stroke:none;fill-rule:nonzero;fill:rgb(83.137256%,83.137256%,83.137256%);fill-opacity:1;" d="M 49.492188 115.4375 C 49.492188 115.4375 50.878906 100.476562 48.167969 97.789062 C 45.460938 95.101562 45.773438 93.816406 47.539062 92.902344 C 47.539062 92.902344 46.59375 94.734375 48.734375 97.238281 C 52.515625 101.695312 49.492188 115.4375 49.492188 115.4375 Z M 61.460938 115.4375 C 58.183594 103.40625 63.539062 100.476562 64.609375 96.628906 C 65.679688 92.777344 61.835938 92.167969 61.835938 92.167969 C 64.796875 92.046875 68.765625 95.101562 64.167969 100.292969 C 59.570312 105.484375 61.460938 115.4375 61.460938 115.4375 Z M 53.019531 114.828125 C 53.019531 114.828125 54.59375 98.949219 53.335938 97.421875 C 53.335938 97.421875 51.949219 92.960938 53.523438 92.230469 C 53.523438 92.230469 52.894531 95.285156 54.277344 97.421875 C 55.664062 99.558594 53.019531 114.828125 53.019531 114.828125 Z M 58.5 113.117188 C 58.5 113.117188 56.925781 101.820312 58.6875 99.375 C 61.019531 96.078125 59.128906 92.289062 59.128906 92.289062 C 60.515625 92.105469 61.332031 96.808594 59.632812 99.070312 C 57.933594 101.328125 58.5 113.117188 58.5 113.117188 Z M 58.5 113.117188 "/>
<path style=" stroke:none;fill-rule:nonzero;fill:rgb(93.333334%,80.000001%,26.666668%);fill-opacity:1;" d="M 38.53125 114.21875 C 38.53125 114.21875 53.398438 114.949219 61.710938 114.828125 L 63.726562 121.242188 C 63.726562 121.121094 60.011719 120.019531 58.5 123.195312 C 58.5 123.195312 54.910156 119.898438 51.382812 123.867188 C 51.507812 123.867188 47.351562 120.628906 43.507812 124.113281 C 43.507812 124.113281 39.726562 119.105469 35.949219 122.644531 Z M 38.53125 114.21875 "/>
<path style=" stroke:none;fill-rule:nonzero;fill:rgb(93.333334%,33.333334%,26.666668%);fill-opacity:1;" d="M 38.46875 114.523438 C 38.46875 114.523438 45.773438 116.476562 61.710938 114.890625 L 61.460938 113.972656 C 61.460938 113.972656 48.546875 115.132812 38.71875 113.484375 Z M 38.46875 114.523438 "/>
<path style=" stroke:none;fill-rule:nonzero;fill:rgb(93.333334%,33.333334%,26.666668%);fill-opacity:1;" d="M 43.464844 124.113281 C 46.074219 122.910156 48.554688 122.308594 51.347656 123.933594 C 49.921875 122.125 47.933594 121.523438 45.824219 122.429688 C 44.910156 122.824219 44.101562 123.421875 43.464844 124.171875 Z M 51.347656 123.933594 C 51.347656 123.933594 53.832031 120.5625 58.546875 123.390625 C 58.546875 123.390625 60.597656 120.5 63.699219 121.222656 C 62.78125 120.710938 61.679688 120.601562 60.671875 120.921875 C 59.664062 121.242188 58.847656 121.964844 58.425781 122.910156 C 58.546875 122.488281 53.644531 119.238281 51.347656 123.933594 Z M 43.464844 124.054688 C 40.796875 119.597656 37.195312 120.921875 37.195312 120.921875 L 38.6875 113.519531 L 35.769531 123.148438 C 39.679688 119.71875 43.464844 124.113281 43.464844 124.113281 Z M 43.464844 124.054688 "/>
<path style=" stroke:none;fill-rule:nonzero;fill:rgb(21.960784%,25.098041%,27.843139%);fill-opacity:1;" d="M 41.933594 108.109375 C 41.933594 108.109375 42.941406 106.644531 44.765625 107.867188 C 44.765625 107.867188 42.4375 107.375 41.933594 108.109375 Z M 41.933594 108.109375 "/>
<path style=" stroke:none;fill-rule:nonzero;fill:rgb(56.078434%,57.254905%,58.039218%);fill-opacity:1;" d="M 38.71875 102.0625 C 38.71875 102.0625 40.609375 102.429688 41.742188 102 C 41.742188 102 42.375 98.824219 41.933594 98.519531 L 40.671875 98.519531 C 40.671875 98.519531 39.601562 97.726562 39.601562 96.078125 C 39.601562 96.078125 40.484375 96.261719 40.863281 96.199219 L 43.382812 96.992188 L 42.75 102.308594 C 42.75 102.308594 42.058594 103.222656 40.484375 103.222656 L 38.910156 103.34375 Z M 38.71875 102.0625 "/>
<path style=" stroke:none;fill-rule:nonzero;fill:rgb(21.960784%,25.098041%,27.843139%);fill-opacity:1;" d="M 38.71875 89.726562 C 38.71875 89.726562 40.296875 81.480469 53.207031 82.457031 L 51.695312 81.480469 C 51.695312 81.480469 39.476562 79.34375 37.335938 89.417969 Z M 38.71875 89.726562 "/>
<path style=" stroke:none;fill-rule:nonzero;fill:rgb(93.333334%,80.000001%,26.666668%);fill-opacity:1;" d="M 52.765625 82.273438 L 49.933594 80.257812 L 55.160156 66.148438 L 58.183594 66.515625 Z M 52.765625 82.273438 "/>
<path style=" stroke:none;fill-rule:nonzero;fill:rgb(46.666667%,46.666667%,80.000001%);fill-opacity:1;" d="M 50.375 76.65625 L 48.546875 76.53125 L 48.042969 75.003906 L 49.871094 75.128906 Z M 47.726562 74.820312 L 45.902344 74.699219 L 45.398438 73.171875 L 47.222656 73.296875 Z M 45.144531 73.050781 L 43.320312 72.929688 L 42.816406 71.402344 L 44.640625 71.523438 Z M 42.6875 71.28125 L 40.863281 71.21875 L 40.359375 69.691406 L 42.183594 69.753906 Z M 40.042969 69.445312 L 38.214844 69.386719 L 37.710938 67.859375 L 39.539062 67.921875 Z M 37.398438 67.613281 L 35.570312 67.554688 L 35.066406 66.027344 L 36.832031 66.085938 Z M 34.816406 65.84375 L 32.988281 65.78125 L 32.484375 64.195312 L 34.3125 64.316406 Z M 34.816406 65.84375 "/>
<path style=" stroke:none;fill-rule:nonzero;fill:rgb(73.725492%,75.294119%,76.078433%);fill-opacity:1;" d="M 30.089844 107.316406 L 33.871094 107.316406 L 33.871094 101.207031 L 30.089844 101.207031 Z M 30.089844 107.316406 "/>
<path style=" stroke:none;fill-rule:nonzero;fill:rgb(81.568629%,81.960785%,82.352942%);fill-opacity:1;" d="M 24.609375 115.132812 C 24.609375 115.132812 20.390625 111.40625 19.824219 105.421875 L 20.136719 105.421875 C 20.851562 105.421875 21.429688 104.863281 21.429688 104.171875 C 21.429688 103.480469 20.851562 102.917969 20.136719 102.917969 C 20.035156 102.90625 19.929688 102.90625 19.824219 102.917969 C 20.230469 99.265625 22.027344 95.890625 24.863281 93.449219 C 24.863281 103.101562 30.910156 103.101562 30.910156 103.101562 L 30.910156 105.054688 C 24.167969 105.972656 24.609375 115.132812 24.609375 115.132812 Z M 24.609375 115.132812 "/>
<path style=" stroke:none;fill-rule:nonzero;fill:rgb(76.862746%,77.254903%,79.215688%);fill-opacity:1;" d="M 24.609375 115.132812 C 24.609375 115.132812 19.886719 110.371094 19.824219 105.421875 L 20.136719 105.421875 C 20.136719 105.421875 21.019531 111.40625 24.609375 115.132812 Z M 24.609375 115.132812 "/>
<path style=" stroke:none;fill-rule:nonzero;fill:rgb(70.19608%,70.588237%,71.764708%);fill-opacity:1;" d="M 24.105469 112.933594 C 24.105469 112.933594 21.398438 109.148438 21.210938 106.339844 C 21.210938 106.339844 23.539062 104.261719 21.273438 101.820312 C 21.273438 101.820312 21.648438 98.152344 23.980469 95.34375 C 23.980469 95.34375 21.460938 105.910156 24.105469 112.933594 Z M 24.105469 112.933594 "/>
<path style=" stroke:none;fill-rule:nonzero;fill:rgb(46.666667%,46.666667%,80.000001%);fill-opacity:1;" d="M 49.933594 80.257812 L 25.367188 62.789062 L 28.199219 63.09375 L 50.375 79.035156 Z M 49.933594 80.257812 "/>
<path style=" stroke:none;fill-rule:nonzero;fill:rgb(93.333334%,33.333334%,26.666668%);fill-opacity:1;" d="M 44.261719 116.171875 L 41.679688 118.980469 L 43.632812 122.28125 L 46.214844 119.46875 Z M 57.617188 116.171875 L 59.886719 118.433594 L 58.4375 121.242188 L 56.105469 118.980469 Z M 50.6875 116.417969 L 48.796875 119.46875 L 51.253906 122.15625 L 53.144531 119.105469 Z M 50.6875 116.417969 "/>
<path style=" stroke:none;fill-rule:nonzero;fill:rgb(93.333334%,33.333334%,26.666668%);fill-opacity:1;" d="M 7.914062 21.617188 C 6.726562 23.898438 4.804688 26.011719 3.472656 27.152344 C 4.804688 28.292969 6.726562 30.460938 7.914062 32.742188 C 9.097656 30.460938 11.019531 28.292969 12.351562 27.152344 C 11.019531 26.011719 9.097656 23.898438 7.914062 21.617188 Z M 7.914062 21.617188 "/>
<path style=" stroke:none;fill-rule:nonzero;fill:rgb(100%,100%,100%);fill-opacity:1;" d="M 85.40625 125.605469 L 76.839844 125.605469 L 76.839844 95.515625 L 85.40625 95.515625 Z M 85.40625 125.605469 "/>
<path style=" stroke:none;fill-rule:nonzero;fill:rgb(93.333334%,33.333334%,26.666668%);fill-opacity:1;" d="M 82.085938 108.382812 C 83.273438 106.101562 85.195312 103.988281 86.527344 102.847656 C 85.195312 101.707031 83.273438 99.539062 82.085938 97.257812 C 80.902344 99.539062 78.980469 101.707031 77.648438 102.847656 C 78.980469 103.988281 80.902344 106.101562 82.085938 108.382812 Z M 82.085938 108.382812 "/>
<path style="fill-rule:nonzero;fill:rgb(93.333334%,33.333334%,26.666668%);fill-opacity:1;stroke-width:0.5;stroke-linecap:butt;stroke-linejoin:round;stroke:rgb(93.333334%,33.333334%,26.666668%);stroke-opacity:1;stroke-miterlimit:4;" d="M 1745.92218 -91.698795 L 1745.92218 -90.679804 C 1746.960591 -90.692785 1747.432596 -90.2774 1747.432596 -89.349275 L 1747.432596 -71.851197 C 1747.432596 -70.780283 1746.809549 -70.572591 1745.92218 -70.520668 L 1745.92218 -69.488697 L 1751.567362 -69.488697 L 1751.567362 -70.520668 C 1750.409376 -70.520668 1750.15764 -71.078841 1750.15764 -71.851197 L 1750.15764 -77.679563 L 1751.101651 -79.32163 L 1754.500088 -71.948553 C 1754.990974 -70.89062 1754.298699 -70.520668 1753.549784 -70.520668 L 1753.549784 -69.488697 L 1759.390063 -69.488697 L 1759.390063 -70.520668 C 1758.452346 -70.520668 1758.062155 -71.072351 1757.690844 -71.851197 L 1752.612067 -82.488938 L 1756.381816 -89.349275 C 1756.941929 -90.368266 1757.130731 -90.569468 1758.081035 -90.679804 L 1758.081035 -91.698795 L 1754.122484 -91.698795 L 1754.122484 -90.679804 C 1755.060201 -90.679804 1755.29935 -90.082689 1755.060201 -89.647833 L 1750.15764 -80.950717 L 1750.15764 -89.349275 C 1750.15764 -89.829564 1750.252041 -90.666823 1751.479255 -90.666823 L 1751.479255 -91.698795 Z M 1745.92218 -91.698795 " transform="matrix(0.62069,0,0,0.601852,-1079.999968,60.185179)"/>
<path style="fill-rule:nonzero;fill:rgb(93.333334%,33.333334%,26.666668%);fill-opacity:1;stroke-width:0.5;stroke-linecap:butt;stroke-linejoin:round;stroke:rgb(93.333334%,33.333334%,26.666668%);stroke-opacity:1;stroke-miterlimit:4;" d="M 1745.921994 -91.698817 L 1745.921994 -90.679827 C 1746.960405 -90.692808 1747.432411 -90.277423 1747.432411 -89.349298 L 1747.432411 -71.85122 C 1747.432411 -70.780306 1746.809364 -70.572614 1745.921994 -70.520691 L 1745.921994 -69.488719 L 1751.567177 -69.488719 L 1751.567177 -70.520691 C 1750.40919 -70.520691 1750.157454 -71.078864 1750.157454 -71.85122 L 1750.157454 -77.679585 L 1751.101465 -79.321653 L 1754.499903 -71.948575 C 1754.990788 -70.890643 1754.298514 -70.520691 1753.549599 -70.520691 L 1753.549599 -69.488719 L 1759.389877 -69.488719 L 1759.389877 -70.520691 C 1758.45216 -70.520691 1758.061969 -71.072373 1757.690658 -71.85122 L 1752.611882 -82.488961 L 1756.38163 -89.349298 C 1756.941743 -90.368288 1757.130545 -90.56949 1758.080849 -90.679827 L 1758.080849 -91.698817 L 1754.122298 -91.698817 L 1754.122298 -90.679827 C 1755.060015 -90.679827 1755.299165 -90.082711 1755.060015 -89.647856 L 1750.157454 -80.950739 L 1750.157454 -89.349298 C 1750.157454 -89.829586 1750.251855 -90.666846 1751.479069 -90.666846 L 1751.479069 -91.698817 Z M 1745.921994 -91.698817 " transform="matrix(-0.62069,0.000000000000000074,-0.000000000000000076,-0.601852,1169.999853,69.814808)"/>
</g>
</svg>
