<?xml version="1.0" encoding="UTF-8"?>
<svg xmlns="http://www.w3.org/2000/svg" xmlns:xlink="http://www.w3.org/1999/xlink" width="90px" height="130px" viewBox="0 0 90 130" version="1.1">
<g id="surface1">
<path style="fill-rule:nonzero;fill:rgb(100%,100%,100%);fill-opacity:1;stroke-width:3;stroke-linecap:butt;stroke-linejoin:miter;stroke:rgb(21.960784%,25.098041%,27.843139%);stroke-opacity:1;stroke-miterlimit:4;" d="M 9.503057 1.499282 L 135.496991 1.499282 C 139.921254 1.499282 143.5022 5.081974 143.5022 9.501927 L 143.5022 206.498096 C 143.5022 210.918048 139.921254 214.500741 135.496991 214.500741 L 9.503057 214.500741 C 5.078795 214.500741 1.497849 210.918048 1.497849 206.498096 L 1.497849 9.501927 C 1.497849 5.081974 5.078795 1.499282 9.503057 1.499282 Z M 9.503057 1.499282 " transform="matrix(0.62069,0,0,0.601852,-0.0000114995,-0.000001627)"/>
<path style=" stroke:none;fill-rule:nonzero;fill:rgb(93.333334%,33.333334%,26.666668%);fill-opacity:1;" d="M 27 8.90625 C 24.515625 13.722656 20.484375 18.175781 17.691406 20.582031 C 20.484375 22.992188 24.515625 27.566406 27 32.378906 C 29.484375 27.566406 33.515625 22.992188 36.308594 20.582031 C 33.515625 18.175781 29.484375 13.722656 27 8.90625 Z M 27 8.90625 "/>
<path style=" stroke:none;fill-rule:nonzero;fill:rgb(93.333334%,33.333334%,26.666668%);fill-opacity:1;" d="M 27 97.378906 C 24.515625 102.195312 20.484375 106.648438 17.691406 109.054688 C 20.484375 111.464844 24.515625 116.035156 27 120.851562 C 29.484375 116.035156 33.515625 111.464844 36.308594 109.054688 C 33.515625 106.648438 29.484375 102.195312 27 97.378906 Z M 27 97.378906 "/>
<path style=" stroke:none;fill-rule:nonzero;fill:rgb(93.333334%,33.333334%,26.666668%);fill-opacity:1;" d="M 63 8.90625 C 60.515625 13.722656 56.484375 18.175781 53.691406 20.582031 C 56.484375 22.992188 60.515625 27.566406 63 32.378906 C 65.484375 27.566406 69.515625 22.992188 72.308594 20.582031 C 69.515625 18.175781 65.484375 13.722656 63 8.90625 Z M 63 8.90625 "/>
<path style=" stroke:none;fill-rule:nonzero;fill:rgb(93.333334%,33.333334%,26.666668%);fill-opacity:1;" d="M 63 97.378906 C 60.515625 102.195312 56.484375 106.648438 53.691406 109.054688 C 56.484375 111.464844 60.515625 116.035156 63 120.851562 C 65.484375 116.035156 69.515625 111.464844 72.308594 109.054688 C 69.515625 106.648438 65.484375 102.195312 63 97.378906 Z M 63 97.378906 "/>
<path style=" stroke:none;fill-rule:nonzero;fill:rgb(93.333334%,33.333334%,26.666668%);fill-opacity:1;" d="M 7.914062 21.617188 C 6.726562 23.898438 4.804688 26.011719 3.472656 27.152344 C 4.804688 28.292969 6.726562 30.460938 7.914062 32.742188 C 9.097656 30.460938 11.019531 28.292969 12.351562 27.152344 C 11.019531 26.011719 9.097656 23.898438 7.914062 21.617188 Z M 7.914062 21.617188 "/>
<path style=" stroke:none;fill-rule:nonzero;fill:rgb(93.333334%,33.333334%,26.666668%);fill-opacity:1;" d="M 82.085938 108.382812 C 83.273438 106.101562 85.195312 103.988281 86.527344 102.847656 C 85.195312 101.707031 83.273438 99.539062 82.085938 97.257812 C 80.902344 99.539062 78.980469 101.707031 77.648438 102.847656 C 78.980469 103.988281 80.902344 106.101562 82.085938 108.382812 Z M 82.085938 108.382812 "/>
<path style="fill-rule:nonzero;fill:rgb(93.333334%,33.333334%,26.666668%);fill-opacity:1;stroke-width:0.5;stroke-linecap:butt;stroke-linejoin:round;stroke:rgb(93.333334%,33.333334%,26.666668%);stroke-opacity:1;stroke-miterlimit:4;" d="M 445.698804 -70.098793 C 446.498066 -70.098793 447.102233 -70.202639 447.398023 -70.501197 C 447.800801 -70.702399 448.00219 -71.098312 448.00219 -71.701918 L 448.00219 -75.297591 L 440.701842 -75.297591 L 440.701842 -76.699515 L 449.802103 -91.997352 L 451.199239 -91.997352 L 451.199239 -76.699515 L 452.19989 -76.699515 C 452.602667 -76.699515 452.898457 -76.900717 453.099846 -77.199274 C 453.301235 -77.400476 453.40193 -77.900236 453.40193 -78.497351 L 454.402581 -78.497351 L 454.402581 -73.499755 L 453.40193 -73.499755 C 453.40193 -74.09687 453.301235 -74.499274 453.099846 -74.797832 C 452.898457 -75.10288 452.602667 -75.297591 452.099195 -75.297591 L 451.098544 -75.297591 L 451.098544 -71.701918 C 451.098544 -71.098312 451.400627 -70.702399 451.702711 -70.501197 C 452.099195 -70.202639 452.697069 -70.098793 453.502624 -70.098793 L 453.502624 -69.099274 L 445.698804 -69.099274 Z M 442.703144 -76.699515 L 448.00219 -76.699515 L 448.00219 -86.097592 Z M 442.703144 -76.699515 " transform="matrix(0.62069,0,0,0.601852,-269.99999,60.185179)"/>
<path style="fill-rule:nonzero;fill:rgb(93.333334%,33.333334%,26.666668%);fill-opacity:1;stroke-width:0.5;stroke-linecap:butt;stroke-linejoin:round;stroke:rgb(93.333334%,33.333334%,26.666668%);stroke-opacity:1;stroke-miterlimit:4;" d="M 445.698756 -70.098816 C 446.498018 -70.098816 447.102184 -70.202662 447.397974 -70.501219 C 447.800752 -70.702421 448.002141 -71.098335 448.002141 -71.701941 L 448.002141 -75.297614 L 440.701793 -75.297614 L 440.701793 -76.699537 L 449.802054 -91.997375 L 451.19919 -91.997375 L 451.19919 -76.699537 L 452.199841 -76.699537 C 452.602619 -76.699537 452.898409 -76.900739 453.099798 -77.199297 C 453.301187 -77.400499 453.401881 -77.900258 453.401881 -78.497374 L 454.402532 -78.497374 L 454.402532 -73.499777 L 453.401881 -73.499777 C 453.401881 -74.096893 453.301187 -74.499297 453.099798 -74.797854 C 452.898409 -75.102902 452.602619 -75.297614 452.099147 -75.297614 L 451.098496 -75.297614 L 451.098496 -71.701941 C 451.098496 -71.098335 451.400579 -70.702421 451.702662 -70.501219 C 452.099147 -70.202662 452.69702 -70.098816 453.502576 -70.098816 L 453.502576 -69.099296 L 445.698756 -69.099296 Z M 442.703096 -76.699537 L 448.002141 -76.699537 L 448.002141 -86.097615 Z M 442.703096 -76.699537 " transform="matrix(-0.62069,0.000000000000000074,-0.000000000000000076,-0.601852,359.99996,69.814808)"/>
</g>
</svg>
