<?xml version="1.0" encoding="UTF-8"?>
<svg xmlns="http://www.w3.org/2000/svg" xmlns:xlink="http://www.w3.org/1999/xlink" width="90px" height="130px" viewBox="0 0 90 130" version="1.1">
<g id="surface1">
<path style="fill-rule:nonzero;fill:rgb(100%,100%,100%);fill-opacity:1;stroke-width:3;stroke-linecap:butt;stroke-linejoin:miter;stroke:rgb(21.960784%,25.098041%,27.843139%);stroke-opacity:1;stroke-miterlimit:4;" d="M 9.503034 1.499282 L 135.496967 1.499282 C 139.92123 1.499282 143.502176 5.081974 143.502176 9.501927 L 143.502176 206.498096 C 143.502176 210.918048 139.92123 214.500741 135.496967 214.500741 L 9.503034 214.500741 C 5.078771 214.500741 1.497825 210.918048 1.497825 206.498096 L 1.497825 9.501927 C 1.497825 5.081974 5.078771 1.499282 9.503034 1.499282 Z M 9.503034 1.499282 " transform="matrix(0.62069,0,0,0.601852,0.00000326533,-0.000001627)"/>
<path style=" stroke:none;fill-rule:nonzero;fill:rgb(93.333334%,33.333334%,26.666668%);fill-opacity:1;" d="M 45 41.589844 C 40.035156 51.21875 31.964844 60.125 26.378906 64.941406 C 31.964844 69.753906 40.035156 78.902344 45 88.53125 C 49.964844 78.902344 58.035156 69.753906 63.621094 64.941406 C 58.035156 60.125 49.964844 51.21875 45 41.589844 Z M 45 41.589844 "/>
<path style=" stroke:none;fill-rule:nonzero;fill:rgb(93.333334%,33.333334%,26.666668%);fill-opacity:1;" d="M 82.085938 108.382812 C 83.273438 106.101562 85.195312 103.988281 86.527344 102.847656 C 85.195312 101.707031 83.273438 99.539062 82.085938 97.257812 C 80.902344 99.539062 78.980469 101.707031 77.648438 102.847656 C 78.980469 103.988281 80.902344 106.101562 82.085938 108.382812 Z M 82.085938 108.382812 "/>
<path style=" stroke:none;fill-rule:nonzero;fill:rgb(93.333334%,33.333334%,26.666668%);fill-opacity:1;" d="M 7.914062 21.617188 C 6.726562 23.898438 4.804688 26.011719 3.472656 27.152344 C 4.804688 28.292969 6.726562 30.460938 7.914062 32.742188 C 9.097656 30.460938 11.019531 28.292969 12.351562 27.152344 C 11.019531 26.011719 9.097656 23.898438 7.914062 21.617188 Z M 7.914062 21.617188 "/>
<path style="fill-rule:nonzero;fill:rgb(93.333334%,33.333334%,26.666668%);fill-opacity:1;stroke-width:0.5;stroke-linecap:butt;stroke-linejoin:round;stroke:rgb(93.333334%,33.333334%,26.666668%);stroke-opacity:1;stroke-miterlimit:4;" d="M 8.798173 -71.90312 C 8.559023 -70.747832 9.597435 -70.669947 10.598086 -70.598553 L 10.598086 -69.501678 L 5.701818 -69.501678 L 5.701818 -70.501197 C 6.658415 -70.501197 7.281462 -70.929562 7.501731 -71.90312 L 12.001515 -91.997352 L 13.39865 -91.997352 L 17.898434 -71.799274 C 18.112409 -70.871149 18.647349 -70.760812 19.597653 -70.598553 L 19.597653 -69.501678 L 13.002166 -69.501678 L 13.002166 -70.501197 C 14.147565 -70.540139 14.909067 -70.72836 14.701385 -71.799274 L 14.097218 -74.797832 L 9.402339 -74.797832 Z M 9.698129 -75.901197 L 13.902123 -75.901197 L 11.800126 -85.597833 Z M 9.698129 -75.901197 " transform="matrix(0.62069,0,0,0.601852,0.00000326533,60.185179)"/>
<path style="fill-rule:nonzero;fill:rgb(93.333334%,33.333334%,26.666668%);fill-opacity:1;stroke-width:0.5;stroke-linecap:butt;stroke-linejoin:round;stroke:rgb(93.333334%,33.333334%,26.666668%);stroke-opacity:1;stroke-miterlimit:4;" d="M 8.798172 -71.903143 C 8.559022 -70.747854 9.597434 -70.669969 10.598085 -70.598575 L 10.598085 -69.5017 L 5.701817 -69.5017 L 5.701817 -70.501219 C 6.658414 -70.501219 7.281461 -70.929585 7.50173 -71.903143 L 12.001514 -91.997375 L 13.398649 -91.997375 L 17.898433 -71.799296 C 18.112408 -70.871171 18.647348 -70.760835 19.597652 -70.598575 L 19.597652 -69.5017 L 13.002165 -69.5017 L 13.002165 -70.501219 C 14.147564 -70.540162 14.909066 -70.728383 14.701384 -71.799296 L 14.097217 -74.797854 L 9.402338 -74.797854 Z M 9.698128 -75.90122 L 13.902122 -75.90122 L 11.800125 -85.597855 Z M 9.698128 -75.90122 " transform="matrix(-0.62069,0.000000000000000074,-0.000000000000000076,-0.601852,89.999996,69.814808)"/>
</g>
</svg>
