<?xml version="1.0" encoding="UTF-8"?>
<svg xmlns="http://www.w3.org/2000/svg" xmlns:xlink="http://www.w3.org/1999/xlink" width="90px" height="130px" viewBox="0 0 90 130" version="1.1">
<g id="surface1">
<path style="fill-rule:nonzero;fill:rgb(100%,100%,100%);fill-opacity:1;stroke-width:3;stroke-linecap:butt;stroke-linejoin:miter;stroke:rgb(21.960784%,25.098041%,27.843139%);stroke-opacity:1;stroke-miterlimit:4;" d="M 9.503103 1.499282 L 135.497037 1.499282 C 139.921299 1.499282 143.502246 5.081974 143.502246 9.501927 L 143.502246 206.498096 C 143.502246 210.918048 139.921299 214.500741 135.497037 214.500741 L 9.503103 214.500741 C 5.078841 214.500741 1.497894 210.918048 1.497894 206.498096 L 1.497894 9.501927 C 1.497894 5.081974 5.078841 1.499282 9.503103 1.499282 Z M 9.503103 1.499282 " transform="matrix(0.62069,0,0,0.601852,-0.0000398845,-0.000001627)"/>
<path style=" stroke:none;fill-rule:nonzero;fill:rgb(93.333334%,33.333334%,26.666668%);fill-opacity:1;" d="M 27 8.90625 C 24.515625 13.722656 20.484375 18.175781 17.691406 20.582031 C 20.484375 22.992188 24.515625 27.566406 27 32.378906 C 29.484375 27.566406 33.515625 22.992188 36.308594 20.582031 C 33.515625 18.175781 29.484375 13.722656 27 8.90625 Z M 27 8.90625 "/>
<path style=" stroke:none;fill-rule:nonzero;fill:rgb(93.333334%,33.333334%,26.666668%);fill-opacity:1;" d="M 27 97.378906 C 24.515625 102.195312 20.484375 106.648438 17.691406 109.054688 C 20.484375 111.464844 24.515625 116.035156 27 120.851562 C 29.484375 116.035156 33.515625 111.464844 36.308594 109.054688 C 33.515625 106.648438 29.484375 102.195312 27 97.378906 Z M 27 97.378906 "/>
<path style=" stroke:none;fill-rule:nonzero;fill:rgb(93.333334%,33.333334%,26.666668%);fill-opacity:1;" d="M 27 67.949219 C 24.515625 72.765625 20.484375 77.21875 17.691406 79.625 C 20.484375 82.03125 24.515625 86.605469 27 91.421875 C 29.484375 86.605469 33.515625 82.03125 36.308594 79.625 C 33.515625 77.21875 29.484375 72.765625 27 67.949219 Z M 27 67.949219 "/>
<path style=" stroke:none;fill-rule:nonzero;fill:rgb(93.333334%,33.333334%,26.666668%);fill-opacity:1;" d="M 63 8.90625 C 60.515625 13.722656 56.484375 18.175781 53.691406 20.582031 C 56.484375 22.992188 60.515625 27.566406 63 32.378906 C 65.484375 27.566406 69.515625 22.992188 72.308594 20.582031 C 69.515625 18.175781 65.484375 13.722656 63 8.90625 Z M 63 8.90625 "/>
<path style=" stroke:none;fill-rule:nonzero;fill:rgb(93.333334%,33.333334%,26.666668%);fill-opacity:1;" d="M 63 97.378906 C 60.515625 102.195312 56.484375 106.648438 53.691406 109.054688 C 56.484375 111.464844 60.515625 116.035156 63 120.851562 C 65.484375 116.035156 69.515625 111.464844 72.308594 109.054688 C 69.515625 106.648438 65.484375 102.195312 63 97.378906 Z M 63 97.378906 "/>
<path style=" stroke:none;fill-rule:nonzero;fill:rgb(93.333334%,33.333334%,26.666668%);fill-opacity:1;" d="M 63 67.949219 C 60.515625 72.765625 56.484375 77.21875 53.691406 79.625 C 56.484375 82.03125 60.515625 86.605469 63 91.421875 C 65.484375 86.605469 69.515625 82.03125 72.308594 79.625 C 69.515625 77.21875 65.484375 72.765625 63 67.949219 Z M 63 67.949219 "/>
<path style=" stroke:none;fill-rule:nonzero;fill:rgb(93.333334%,33.333334%,26.666668%);fill-opacity:1;" d="M 27 38.457031 C 24.515625 43.273438 20.484375 47.726562 17.691406 50.132812 C 20.484375 52.542969 24.515625 57.117188 27 61.929688 C 29.484375 57.117188 33.515625 52.542969 36.308594 50.132812 C 33.515625 47.726562 29.484375 43.273438 27 38.457031 Z M 27 38.457031 "/>
<path style=" stroke:none;fill-rule:nonzero;fill:rgb(93.333334%,33.333334%,26.666668%);fill-opacity:1;" d="M 63 38.457031 C 60.515625 43.273438 56.484375 47.726562 53.691406 50.132812 C 56.484375 52.542969 60.515625 57.117188 63 61.929688 C 65.484375 57.117188 69.515625 52.542969 72.308594 50.132812 C 69.515625 47.726562 65.484375 43.273438 63 38.457031 Z M 63 38.457031 "/>
<path style=" stroke:none;fill-rule:nonzero;fill:rgb(93.333334%,33.333334%,26.666668%);fill-opacity:1;" d="M 45 23.652344 C 42.515625 28.46875 38.484375 32.921875 35.691406 35.328125 C 38.484375 37.734375 42.515625 42.308594 45 47.125 C 47.484375 42.308594 51.515625 37.734375 54.308594 35.328125 C 51.515625 32.921875 47.484375 28.46875 45 23.652344 Z M 45 23.652344 "/>
<path style=" stroke:none;fill-rule:nonzero;fill:rgb(93.333334%,33.333334%,26.666668%);fill-opacity:1;" d="M 45 82.632812 C 42.515625 87.449219 38.484375 91.902344 35.691406 94.308594 C 38.484375 96.71875 42.515625 101.292969 45 106.105469 C 47.484375 101.292969 51.515625 96.71875 54.308594 94.308594 C 51.515625 91.902344 47.484375 87.449219 45 82.632812 Z M 45 82.632812 "/>
<path style=" stroke:none;fill-rule:nonzero;fill:rgb(93.333334%,33.333334%,26.666668%);fill-opacity:1;" d="M 7.914062 21.617188 C 6.726562 23.898438 4.804688 26.011719 3.472656 27.152344 C 4.804688 28.292969 6.726562 30.460938 7.914062 32.742188 C 9.097656 30.460938 11.019531 28.292969 12.351562 27.152344 C 11.019531 26.011719 9.097656 23.898438 7.914062 21.617188 Z M 7.914062 21.617188 "/>
<path style=" stroke:none;fill-rule:nonzero;fill:rgb(93.333334%,33.333334%,26.666668%);fill-opacity:1;" d="M 82.085938 108.382812 C 83.273438 106.101562 85.195312 103.988281 86.527344 102.847656 C 85.195312 101.707031 83.273438 99.539062 82.085938 97.257812 C 80.902344 99.539062 78.980469 101.707031 77.648438 102.847656 C 78.980469 103.988281 80.902344 106.101562 82.085938 108.382812 Z M 82.085938 108.382812 "/>
<path style="fill-rule:nonzero;fill:rgb(93.333334%,33.333334%,26.666668%);fill-opacity:1;stroke-width:0.6;stroke-linecap:butt;stroke-linejoin:round;stroke:rgb(93.333334%,33.333334%,26.666668%);stroke-opacity:1;stroke-miterlimit:4;" d="M 1313.099674 -91.698795 C 1312.401107 -90.10216 1311.79694 -88.602881 1309.801931 -87.901919 L 1309.801931 -86.798554 L 1311.79694 -86.798554 L 1311.79694 -71.799274 C 1311.79694 -71.202158 1311.702539 -70.799755 1311.299761 -70.501197 C 1310.997678 -70.299995 1310.500499 -70.202639 1309.801931 -70.202639 L 1309.801931 -69.001918 L 1316.000933 -69.001918 L 1316.000933 -70.098793 C 1315.302365 -70.098793 1314.798893 -70.299995 1314.503103 -70.501197 C 1314.100325 -70.799755 1313.999631 -71.202158 1313.999631 -71.701918 L 1313.999631 -91.698795 Z M 1320.8028 -91.698795 C 1318.027409 -91.711775 1317.121159 -89.459612 1316.598806 -87.097112 C 1315.831011 -82.566823 1315.831011 -77.932688 1316.598806 -73.402399 C 1317.247027 -69.501678 1319.179102 -68.826678 1320.8028 -68.800716 C 1323.766993 -68.755283 1324.692123 -71.929082 1324.899805 -73.298553 C 1325.61096 -77.880765 1325.548026 -82.52139 1324.899805 -87.097112 C 1324.692123 -88.570429 1324.119423 -91.698795 1320.8028 -91.698795 Z M 1320.8028 -90.498073 C 1321.602062 -90.498073 1322.199935 -89.6024 1322.602713 -87.999275 C 1323.427149 -82.85889 1323.389389 -77.62764 1322.502019 -72.500236 C 1322.199935 -70.89711 1321.602062 -70.098793 1320.8028 -70.098793 C 1319.997244 -70.098793 1319.399371 -70.89711 1319.097288 -72.500236 C 1317.888954 -78.737496 1318.688216 -86.461054 1319.097288 -88.103121 C 1319.399371 -89.699756 1320.097939 -90.498073 1320.8028 -90.498073 Z M 1320.8028 -90.498073 " transform="matrix(0.62069,0,0,0.601852,-809.999976,60.185179)"/>
<path style="fill-rule:nonzero;fill:rgb(93.333334%,33.333334%,26.666668%);fill-opacity:1;stroke-width:0.6;stroke-linecap:butt;stroke-linejoin:round;stroke:rgb(93.333334%,33.333334%,26.666668%);stroke-opacity:1;stroke-miterlimit:4;" d="M 1313.099534 -91.698817 C 1312.400967 -90.102183 1311.803093 -88.602904 1309.801791 -87.901942 L 1309.801791 -86.798576 L 1311.803093 -86.798576 L 1311.803093 -71.799296 C 1311.803093 -71.202181 1311.702399 -70.799777 1311.299621 -70.501219 C 1310.997538 -70.300017 1310.500359 -70.202662 1309.801791 -70.202662 L 1309.801791 -69.00194 L 1316.000793 -69.00194 L 1316.000793 -70.098816 C 1315.302225 -70.098816 1314.798753 -70.300017 1314.502963 -70.501219 C 1314.100185 -70.799777 1313.999491 -71.202181 1313.999491 -71.701941 L 1313.999491 -91.698817 Z M 1320.80266 -91.698817 C 1318.027269 -91.711798 1317.121019 -89.459634 1316.598666 -87.097134 C 1315.830871 -82.566845 1315.830871 -77.93271 1316.598666 -73.402422 C 1317.246887 -69.5017 1319.178962 -68.8267 1320.80266 -68.800739 C 1323.766853 -68.755306 1324.691983 -71.929104 1324.899665 -73.298575 C 1325.61082 -77.880787 1325.547886 -82.521413 1324.899665 -87.097134 C 1324.691983 -88.570452 1324.119283 -91.698817 1320.80266 -91.698817 Z M 1320.80266 -90.498096 C 1321.601922 -90.498096 1322.199795 -89.602423 1322.602573 -87.999298 C 1323.427009 -82.858913 1323.389249 -77.627662 1322.501879 -72.500258 C 1322.199795 -70.897133 1321.601922 -70.098816 1320.80266 -70.098816 C 1319.997104 -70.098816 1319.399231 -70.897133 1319.097148 -72.500258 C 1317.888814 -78.737518 1318.688076 -86.461076 1319.097148 -88.103144 C 1319.399231 -89.699779 1320.097799 -90.498096 1320.80266 -90.498096 Z M 1320.80266 -90.498096 " transform="matrix(-0.62069,0.000000000000000074,-0.000000000000000076,-0.601852,899.999889,69.814808)"/>
</g>
</svg>
