<?xml version="1.0" encoding="UTF-8"?>
<svg xmlns="http://www.w3.org/2000/svg" xmlns:xlink="http://www.w3.org/1999/xlink" width="90px" height="130px" viewBox="0 0 90 130" version="1.1">
<defs>
<filter id="alpha" filterUnits="objectBoundingBox" x="0%" y="0%" width="100%" height="100%">
  <feColorMatrix type="matrix" in="SourceGraphic" values="0 0 0 0 1 0 0 0 0 1 0 0 0 0 1 0 0 0 1 0"/>
</filter>
<mask id="mask0">
  <g filter="url(#alpha)">
<rect x="0" y="0" width="90" height="130" style="fill:rgb(0%,0%,0%);fill-opacity:0.2;stroke:none;"/>
  </g>
</mask>
<clipPath id="clip1">
  <rect x="0" y="0" width="90" height="130"/>
</clipPath>
<g id="surface5" clip-path="url(#clip1)">
<path style=" stroke:none;fill-rule:nonzero;fill:rgb(100%,100%,100%);fill-opacity:1;" d="M 47.351562 8.640625 C 52.285156 8.757812 51.976562 11.988281 51.976562 11.988281 L 51.421875 11.808594 C 51.421875 11.808594 46.855469 8.519531 41.796875 10.613281 C 36.738281 12.707031 34.828125 14.980469 34.394531 30.054688 C 34.394531 30.054688 34.394531 38.429688 27.546875 41.421875 C 27.546875 41.421875 32.851562 37.535156 32.976562 30.355469 C 33.160156 23.175781 31.125 12.109375 41.796875 9.417969 C 43.605469 8.914062 45.472656 8.652344 47.351562 8.640625 Z M 32.175781 13.1875 C 29.089844 14.5625 28.039062 25.152344 28.84375 32.328125 C 29.644531 39.507812 24.894531 42.078125 24.894531 42.078125 C 26.3125 14.144531 32.175781 13.125 32.175781 13.125 Z M 32.175781 13.1875 "/>
</g>
<mask id="mask1">
  <g filter="url(#alpha)">
<rect x="0" y="0" width="90" height="130" style="fill:rgb(0%,0%,0%);fill-opacity:0.2;stroke:none;"/>
  </g>
</mask>
<clipPath id="clip2">
  <rect x="0" y="0" width="90" height="130"/>
</clipPath>
<g id="surface8" clip-path="url(#clip2)">
<path style=" stroke:none;fill-rule:nonzero;fill:rgb(100%,100%,100%);fill-opacity:1;" d="M 42.636719 121.304688 C 37.703125 121.183594 38.011719 117.953125 38.011719 117.953125 L 38.566406 118.132812 C 38.566406 118.132812 43.132812 121.421875 48.191406 119.328125 C 53.25 117.234375 55.164062 114.960938 55.59375 99.886719 C 55.59375 99.886719 55.59375 91.511719 62.441406 88.523438 C 62.441406 88.523438 57.136719 92.410156 57.011719 99.589844 C 56.828125 106.765625 58.863281 117.832031 48.191406 120.527344 C 46.386719 121.03125 44.515625 121.292969 42.636719 121.304688 Z M 57.816406 116.757812 C 60.898438 115.382812 61.949219 104.792969 61.148438 97.613281 C 60.34375 90.4375 65.09375 87.863281 65.09375 87.863281 C 63.675781 115.800781 57.816406 116.816406 57.816406 116.816406 Z M 57.816406 116.757812 "/>
</g>
</defs>
<g id="surface1">
<path style="fill-rule:nonzero;fill:rgb(100%,100%,100%);fill-opacity:1;stroke-width:3;stroke-linecap:butt;stroke-linejoin:miter;stroke:rgb(21.960784%,25.098041%,27.843139%);stroke-opacity:1;stroke-miterlimit:4;" d="M 9.50308 1.499282 L 135.497014 1.499282 C 139.921276 1.499282 143.502223 5.081974 143.502223 9.501927 L 143.502223 206.498096 C 143.502223 210.918048 139.921276 214.500741 135.497014 214.500741 L 9.50308 214.500741 C 5.078817 214.500741 1.497871 210.918048 1.497871 206.498096 L 1.497871 9.501927 C 1.497871 5.081974 5.078817 1.499282 9.50308 1.499282 Z M 9.50308 1.499282 " transform="matrix(0.62069,0,0,0.601852,-0.0000254822,-0.000001627)"/>
<path style=" stroke:none;fill-rule:nonzero;fill:rgb(93.333334%,33.333334%,26.666668%);fill-opacity:1;" d="M 18.21875 6.035156 C 16.066406 10.203125 12.5625 14.058594 10.140625 16.140625 C 12.5625 18.222656 16.066406 22.183594 18.21875 26.347656 C 20.375 22.183594 23.875 18.222656 26.300781 16.140625 C 23.875 14.058594 20.375 10.203125 18.21875 6.035156 Z M 18.21875 6.035156 "/>
<path style=" stroke:none;fill-rule:nonzero;fill:rgb(100%,100%,100%);fill-opacity:1;" d="M 4.777344 4.394531 L 13.34375 4.394531 L 13.34375 34.484375 L 4.777344 34.484375 Z M 4.777344 4.394531 "/>
<path style=" stroke:none;fill-rule:nonzero;fill:rgb(93.333334%,33.333334%,26.666668%);fill-opacity:1;" d="M 71.78125 123.964844 C 73.933594 119.796875 77.4375 115.941406 79.859375 113.859375 C 77.4375 111.777344 73.933594 107.816406 71.78125 103.652344 C 69.625 107.816406 66.125 111.777344 63.699219 113.859375 C 66.125 115.941406 69.625 119.796875 71.78125 123.964844 Z M 71.78125 123.964844 "/>
<path style=" stroke:none;fill-rule:nonzero;fill:rgb(21.960784%,25.098041%,27.843139%);fill-opacity:1;" d="M 14.242188 61.558594 L 46.539062 58.566406 L 75.6875 68.386719 L 45.304688 71.738281 Z M 14.242188 61.558594 "/>
<path style=" stroke:none;fill-rule:nonzero;fill:rgb(93.333334%,80.000001%,26.666668%);fill-opacity:1;" d="M 34.125 63.773438 C 36.472656 62.398438 36.597656 62.15625 38.140625 64.191406 C 36.347656 65.03125 35.730469 64.613281 34.125 63.773438 Z M 34.125 63.773438 "/>
<path style=" stroke:none;fill-rule:nonzero;fill:rgb(59.215689%,43.921569%,40.784314%);fill-opacity:1;" d="M 48.398438 32.089844 L 48.398438 41.242188 C 48.398438 41.242188 42.96875 41.421875 42.230469 38.429688 C 41.488281 35.441406 48.398438 32.089844 48.398438 32.089844 Z M 48.398438 32.089844 "/>
<path style=" stroke:none;fill-rule:nonzero;fill:rgb(49.411765%,30.588236%,26.666668%);fill-opacity:1;" d="M 46.363281 33.046875 L 41.738281 33.046875 L 41.738281 44.113281 L 46.363281 44.113281 Z M 46.363281 33.046875 "/>
<path style=" stroke:none;fill-rule:nonzero;fill:rgb(49.411765%,30.588236%,26.666668%);fill-opacity:1;" d="M 51.917969 17.195312 C 51.917969 17.195312 56.109375 12.945312 51.917969 11.988281 C 51.917969 11.988281 54.136719 8.878906 47.96875 7.921875 C 41.796875 6.964844 21.808594 4.035156 23.785156 44.414062 L 35.9375 41.542969 Z M 51.917969 17.195312 "/>
<path style=" stroke:none;fill-rule:nonzero;fill:rgb(89.803922%,69.01961%,54.11765%);fill-opacity:1;" d="M 31.804688 40.164062 C 31.804688 40.164062 39.023438 33.226562 38.777344 25.328125 C 38.527344 17.433594 42.847656 8.578125 51.730469 13.84375 L 52.101562 18.75 L 54.261719 24.3125 L 52.101562 25.03125 L 52.226562 27.304688 L 51.300781 28.261719 L 52.101562 29.277344 L 51.484375 30.054688 C 51.359375 30.296875 52.71875 33.824219 50.433594 33.824219 C 47.351562 33.824219 44.511719 33.703125 44.082031 35.441406 C 43.464844 38.070312 42.722656 39.628906 44.699219 40.105469 C 52.71875 41.898438 53.519531 41.898438 53.519531 41.898438 C 53.519531 41.898438 58.578125 58.949219 39.640625 60.144531 Z M 31.804688 40.164062 "/>
<path style=" stroke:none;fill-rule:nonzero;fill:rgb(21.960784%,25.098041%,27.843139%);fill-opacity:1;" d="M 50.496094 20.066406 C 50.496094 20.066406 49.820312 20.304688 48.953125 20.066406 C 47.78125 19.707031 46.425781 18.871094 45.5 20.183594 L 46.300781 19.945312 C 46.300781 19.945312 47.226562 19.945312 47.660156 20.425781 C 47.660156 20.425781 47.535156 21.621094 48.523438 21.5625 C 49.511719 21.5625 49.261719 20.605469 49.261719 20.605469 C 49.261719 20.605469 50.3125 20.785156 50.496094 20.066406 Z M 50.375 18.390625 C 50.066406 18.390625 46.734375 16.476562 44.636719 18.988281 C 44.636719 18.988281 45.683594 15.820312 49.941406 17.492188 C 50.558594 17.734375 50.375 18.390625 50.375 18.390625 Z M 50.375 18.390625 "/>
<path style=" stroke:none;fill-rule:nonzero;fill:rgb(93.333334%,33.333334%,26.666668%);fill-opacity:1;" d="M 39.761719 53.148438 C 48.832031 51.472656 52.78125 45.011719 53.335938 41.542969 C 54.382812 41.839844 55.1875 42.019531 55.371094 42.257812 C 56.417969 43.335938 58.207031 45.488281 60.304688 48.121094 L 51.359375 65.648438 L 43.710938 64.8125 L 33.101562 61.042969 Z M 39.761719 53.148438 "/>
<path style=" stroke:none;fill-rule:nonzero;fill:rgb(96.078432%,73.725492%,76.078433%);fill-opacity:1;" d="M 43.277344 24.671875 C 43.277344 25.828125 44.246094 26.765625 45.4375 26.765625 C 46.632812 26.765625 47.597656 25.828125 47.597656 24.671875 C 47.597656 23.515625 46.632812 22.578125 45.4375 22.578125 C 44.246094 22.578125 43.277344 23.515625 43.277344 24.671875 Z M 43.277344 24.671875 "/>
<path style=" stroke:none;fill-rule:nonzero;fill:rgb(21.960784%,25.098041%,27.843139%);fill-opacity:1;" d="M 49.757812 19.707031 C 49.757812 19.707031 49.941406 18.871094 48.523438 18.691406 C 46.980469 18.570312 49.449219 18.691406 49.757812 19.765625 Z M 49.757812 19.707031 "/>
<path style=" stroke:none;fill-rule:nonzero;fill:rgb(94.117647%,40.000001%,61.960787%);fill-opacity:1;" d="M 52.101562 29.277344 L 51.609375 28.082031 L 50.558594 27.960938 L 48.089844 27.664062 C 48.089844 27.664062 50.3125 29.578125 52.101562 29.277344 Z M 52.101562 29.277344 "/>
<path style=" stroke:none;fill-rule:nonzero;fill:rgb(91.37255%,52.549022%,70.588237%);fill-opacity:1;" d="M 52.226562 27.304688 C 51.914062 27.085938 51.554688 26.945312 51.175781 26.886719 C 49.941406 26.886719 49.449219 27.242188 48.089844 27.664062 C 48.089844 27.664062 50.433594 28.140625 51.609375 28.140625 Z M 52.226562 27.304688 "/>
<use xlink:href="#surface5" transform="matrix(1,0,0,1,0,0)" mask="url(#mask0)"/>
<path style=" stroke:none;fill-rule:nonzero;fill:rgb(93.333334%,33.333334%,26.666668%);fill-opacity:1;" d="M 52.53125 5.828125 L 52.53125 6.726562 L 51.917969 9.417969 L 52.53125 11.808594 L 52.53125 12.410156 C 49.449219 12.410156 41.429688 12.410156 41.121094 22.578125 C 41.121094 22.578125 40.875 24.613281 42.722656 26.765625 L 37.910156 29.039062 C 35.875 21.980469 37.726562 9.417969 46.980469 7.621094 C 50.066406 7.023438 50.992188 7.265625 52.53125 5.828125 Z M 47.660156 40.644531 C 47.660156 40.644531 47.351562 47.164062 34.273438 45.789062 L 32.113281 42.796875 C 32.113281 42.796875 42.722656 44.652344 44.699219 40.105469 Z M 47.660156 40.644531 "/>
<path style=" stroke:none;fill-rule:nonzero;fill:rgb(93.333334%,80.000001%,26.666668%);fill-opacity:1;" d="M 17.738281 42.140625 L 25.449219 48.0625 L 22.363281 62.417969 L 14.285156 61.519531 L 14.285156 47.761719 C 14.179688 45.390625 15.539062 43.183594 17.738281 42.140625 Z M 17.738281 42.140625 "/>
<path style=" stroke:none;fill-rule:nonzero;fill:rgb(21.960784%,25.098041%,27.843139%);fill-opacity:1;" d="M 31.804688 39.804688 C 31.804688 39.804688 40.566406 49.738281 43.648438 64.8125 L 38.097656 64.214844 L 35.875 63.257812 L 34.085938 63.734375 L 22.242188 62.417969 C 22.304688 62 24.09375 50.753906 17.675781 42.078125 Z M 31.804688 39.804688 "/>
<path style=" stroke:none;fill-rule:nonzero;fill:rgb(93.333334%,80.000001%,26.666668%);fill-opacity:1;" d="M 28.289062 40.226562 C 28.289062 40.226562 37.171875 51.710938 38.160156 64.214844 L 34.148438 63.792969 C 34.023438 63.195312 31.679688 47.703125 23.96875 41.003906 Z M 28.289062 40.226562 "/>
<path style=" stroke:none;fill-rule:nonzero;fill:rgb(93.333334%,33.333334%,26.666668%);fill-opacity:1;" d="M 40.8125 45.371094 L 43.648438 47.582031 L 42.601562 50.992188 L 39.699219 48.78125 Z M 40.8125 45.371094 "/>
<path style=" stroke:none;fill-rule:nonzero;fill:rgb(21.960784%,25.098041%,27.843139%);fill-opacity:1;" d="M 54.261719 41.78125 C 54.261719 41.78125 55.496094 52.070312 39.761719 53.148438 L 38.960938 51.769531 C 38.960938 51.769531 51.667969 51.652344 52.902344 41.363281 Z M 54.261719 41.78125 "/>
<path style=" stroke:none;fill-rule:nonzero;fill:rgb(93.333334%,80.000001%,26.666668%);fill-opacity:1;" d="M 53.328125 41.847656 C 53.023438 42.324219 52.648438 42.75 52.210938 43.113281 C 52.453125 43.632812 52.640625 44.179688 52.769531 44.738281 C 53.304688 44.386719 53.804688 43.980469 54.257812 43.535156 C 54.011719 42.933594 53.636719 42.332031 53.328125 41.847656 Z M 52.707031 44.976562 C 52.238281 45.304688 51.742188 45.585938 51.21875 45.820312 C 51.253906 46.382812 51.234375 46.949219 51.15625 47.503906 C 51.796875 47.347656 52.421875 47.125 53.015625 46.84375 C 52.976562 46.214844 52.871094 45.589844 52.707031 44.976562 Z M 51.03125 47.6875 C 50.464844 47.859375 49.882812 47.980469 49.292969 48.046875 C 49.15625 48.605469 48.96875 49.148438 48.734375 49.671875 C 49.378906 49.6875 50.023438 49.648438 50.660156 49.550781 C 50.824219 48.941406 50.925781 48.316406 50.96875 47.6875 Z M 46.871094 49.671875 C 46.574219 50.175781 46.242188 50.65625 45.878906 51.117188 C 46.492188 51.257812 47.113281 51.359375 47.742188 51.417969 C 48.074219 50.878906 48.367188 50.316406 48.609375 49.734375 C 48.03125 49.753906 47.449219 49.734375 46.871094 49.671875 Z M 43.957031 50.695312 C 43.5625 51.117188 43.148438 51.519531 42.714844 51.898438 C 43.320312 52.171875 43.941406 52.414062 44.578125 52.621094 C 44.976562 52.160156 45.347656 51.675781 45.695312 51.175781 C 45.105469 51.046875 44.523438 50.886719 43.957031 50.695312 Z M 40.914062 51.296875 C 40.472656 51.652344 40.015625 51.996094 39.550781 52.320312 C 40.074219 52.660156 40.613281 52.980469 41.164062 53.28125 C 41.65625 52.863281 42.132812 52.421875 42.589844 51.960938 C 42.023438 51.761719 41.464844 51.539062 40.914062 51.296875 Z M 40.914062 51.296875 "/>
<path style=" stroke:none;fill-rule:nonzero;fill:rgb(90.588236%,72.156864%,57.254905%);fill-opacity:1;" d="M 58.457031 52.789062 L 56.171875 51.710938 C 56.171875 51.710938 54.445312 50.695312 53.582031 49.316406 C 53.273438 48.960938 52.164062 49.496094 53.398438 51.113281 L 54.382812 52.789062 Z M 58.457031 52.789062 "/>
<path style=" stroke:none;fill-rule:nonzero;fill:rgb(26.666668%,60.000002%,40.000001%);fill-opacity:1;" d="M 48.074219 57.371094 C 48.074219 57.371094 59.167969 46.496094 59.855469 36.15625 L 59.050781 36.121094 C 58.621094 39.117188 56.683594 47.222656 46.777344 57.292969 Z M 48.074219 57.371094 "/>
<path style=" stroke:none;fill-rule:nonzero;fill:rgb(89.803922%,69.01961%,54.11765%);fill-opacity:1;" d="M 53.707031 60.386719 L 58.640625 52.90625 L 54.570312 52.90625 L 50.25 50.15625 C 50.25 50.15625 47.90625 48.421875 47.90625 49.316406 C 47.90625 49.917969 48.894531 50.933594 49.261719 51.113281 C 49.632812 51.351562 52.59375 54.105469 52.59375 54.105469 L 49.140625 52.070312 C 49.140625 52.070312 46.546875 50.394531 46.363281 50.753906 C 45.746094 52.011719 47.414062 52.90625 47.90625 53.148438 C 48.339844 53.324219 51.730469 55.777344 51.730469 55.777344 L 47.289062 53.863281 C 47.289062 53.863281 45.5625 52.90625 45.4375 53.386719 C 45.316406 54.460938 46.546875 55.0625 46.796875 55.179688 L 50.558594 57.035156 L 49.449219 57.035156 C 49.449219 57.035156 46.054688 56.199219 46.117188 56.496094 C 46.117188 57.871094 52.226562 59.667969 52.226562 59.667969 L 53.707031 60.324219 Z M 53.707031 60.386719 "/>
<path style=" stroke:none;fill-rule:nonzero;fill:rgb(21.960784%,25.098041%,27.843139%);fill-opacity:1;" d="M 58.824219 45.550781 L 75.636719 68.429688 L 51.359375 65.648438 C 51.238281 52.96875 58.824219 45.550781 58.824219 45.550781 Z M 58.824219 45.550781 "/>
<path style=" stroke:none;fill-rule:nonzero;fill:rgb(93.333334%,33.333334%,26.666668%);fill-opacity:1;" d="M 59.691406 46.625 C 59.691406 46.625 52.902344 55.078125 52.902344 65.847656 L 54.691406 66.027344 C 54.691406 66.027344 55 54.480469 60.863281 48.199219 Z M 59.691406 46.625 "/>
<path style=" stroke:none;fill-rule:nonzero;fill:rgb(93.333334%,80.000001%,26.666668%);fill-opacity:1;" d="M 52.53125 6.726562 C 51.917969 7.921875 50.992188 9.238281 50.992188 9.238281 C 50.992188 9.238281 51.917969 10.613281 52.53125 11.808594 Z M 52.53125 6.726562 "/>
<path style=" stroke:none;fill-rule:nonzero;fill:rgb(75.686276%,28.627452%,18.82353%);fill-opacity:1;" d="M 42.722656 26.707031 C 42.722656 26.707031 41.058594 28.738281 37.910156 29.039062 C 37.910156 29.039062 41.488281 27.003906 41.488281 24.792969 C 41.824219 25.472656 42.238281 26.117188 42.722656 26.707031 Z M 42.722656 26.707031 "/>
<path style=" stroke:none;fill-rule:nonzero;fill:rgb(93.333334%,33.333334%,26.666668%);fill-opacity:1;" d="M 26.515625 40.824219 C 26.660156 41.523438 26.785156 42.226562 26.886719 42.933594 C 27.515625 43.320312 28.136719 43.722656 28.75 44.136719 C 28.726562 43.371094 28.683594 42.609375 28.625 41.847656 C 27.933594 41.46875 27.230469 41.105469 26.515625 40.765625 Z M 29 44.4375 L 29.183594 46.601562 C 29.792969 47.03125 30.394531 47.472656 30.984375 47.925781 C 31 47.164062 31 46.402344 30.984375 45.640625 C 30.308594 45.226562 29.628906 44.824219 28.9375 44.4375 Z M 31.109375 48.167969 C 31.125 48.890625 31.125 49.613281 31.109375 50.335938 C 31.679688 50.804688 32.238281 51.285156 32.785156 51.777344 C 32.863281 51.019531 32.925781 50.253906 32.96875 49.492188 C 32.359375 49.039062 31.738281 48.597656 31.109375 48.167969 Z M 32.96875 52.019531 C 32.929688 52.761719 32.867188 53.503906 32.785156 54.246094 C 33.316406 54.753906 33.835938 55.273438 34.335938 55.8125 L 34.707031 53.523438 C 34.121094 53.007812 33.519531 52.503906 32.910156 52.019531 Z M 34.398438 56.050781 C 34.300781 56.777344 34.175781 57.5 34.027344 58.21875 C 34.480469 58.785156 34.917969 59.367188 35.328125 59.964844 C 35.585938 59.230469 35.8125 58.488281 36.011719 57.738281 C 35.492188 57.15625 34.957031 56.59375 34.398438 56.050781 Z M 35.390625 60.203125 C 35.195312 60.894531 34.96875 61.578125 34.707031 62.25 C 35.023438 62.777344 35.3125 63.320312 35.578125 63.875 C 35.640625 63.933594 35.578125 64.175781 35.886719 63.875 L 36.757812 62.070312 C 36.332031 61.425781 35.875 60.804688 35.390625 60.203125 Z M 35.390625 60.203125 "/>
<path style=" stroke:none;fill-rule:nonzero;fill:rgb(46.666667%,46.666667%,80.000001%);fill-opacity:1;" d="M 30.054688 40.40625 L 30.175781 42.8125 C 30.972656 43.109375 31.761719 43.429688 32.535156 43.773438 C 32.628906 42.894531 32.691406 42.011719 32.722656 41.125 C 31.84375 40.847656 30.953125 40.605469 30.054688 40.40625 Z M 32.785156 44.074219 C 32.765625 44.898438 32.722656 45.722656 32.660156 46.542969 C 33.414062 46.90625 34.160156 47.289062 34.894531 47.6875 L 35.328125 45.097656 C 34.492188 44.734375 33.640625 44.394531 32.785156 44.074219 Z M 35.019531 47.925781 C 34.914062 48.730469 34.789062 49.535156 34.644531 50.335938 C 35.382812 50.757812 36.105469 51.199219 36.820312 51.65625 C 37.050781 50.800781 37.253906 49.9375 37.4375 49.070312 C 36.621094 48.648438 35.796875 48.246094 34.957031 47.867188 Z M 37.003906 51.898438 C 36.820312 52.707031 36.613281 53.507812 36.382812 54.304688 C 37.101562 54.789062 37.804688 55.292969 38.492188 55.8125 C 38.785156 54.976562 39.054688 54.132812 39.300781 53.28125 C 38.527344 52.800781 37.742188 52.339844 36.941406 51.898438 Z M 38.492188 56.113281 C 38.265625 56.878906 38.015625 57.640625 37.75 58.398438 C 38.386719 58.945312 39.007812 59.503906 39.609375 60.082031 C 40.007812 59.273438 40.378906 58.449219 40.726562 57.617188 C 40 57.074219 39.253906 56.554688 38.492188 56.050781 Z M 39.734375 60.324219 C 39.425781 61.09375 39.09375 61.855469 38.742188 62.609375 C 39.335938 63.199219 39.917969 63.800781 40.480469 64.417969 C 40.917969 63.625 41.332031 62.824219 41.722656 62.007812 C 41.074219 61.429688 40.414062 60.867188 39.734375 60.324219 Z M 39.734375 60.324219 "/>
<path style=" stroke:none;fill-rule:nonzero;fill:rgb(93.333334%,80.000001%,26.666668%);fill-opacity:1;" d="M 59.035156 46.183594 C 58.402344 46.386719 57.78125 46.628906 57.175781 46.902344 C 57.0625 47.542969 56.980469 48.183594 56.925781 48.828125 L 58.789062 48.109375 C 58.789062 47.503906 58.914062 46.84375 59.035156 46.183594 Z M 56.679688 49.070312 C 56.085938 49.371094 55.507812 49.691406 54.941406 50.035156 C 54.917969 50.675781 54.917969 51.316406 54.941406 51.960938 C 55.527344 51.617188 56.128906 51.292969 56.742188 50.996094 C 56.695312 50.355469 56.671875 49.714844 56.679688 49.070312 Z M 54.816406 52.140625 C 54.285156 52.523438 53.765625 52.925781 53.265625 53.34375 L 53.574219 55.269531 C 54.097656 54.847656 54.636719 54.445312 55.1875 54.066406 C 55.0625 53.425781 54.957031 52.785156 54.878906 52.140625 Z M 53.511719 55.449219 C 53.019531 55.894531 52.542969 56.355469 52.085938 56.832031 C 52.230469 57.441406 52.394531 58.042969 52.582031 58.640625 C 53.0625 58.179688 53.558594 57.738281 54.070312 57.316406 C 53.863281 56.71875 53.675781 56.117188 53.511719 55.507812 Z M 52.519531 58.878906 C 52.089844 59.367188 51.675781 59.867188 51.277344 60.382812 C 51.503906 60.996094 51.753906 61.597656 52.023438 62.191406 C 52.4375 61.671875 52.871094 61.167969 53.328125 60.683594 C 53.035156 60.09375 52.765625 59.492188 52.519531 58.878906 Z M 52.085938 62.429688 C 51.714844 62.960938 51.363281 63.503906 51.03125 64.054688 C 51.34375 64.628906 51.675781 65.1875 52.023438 65.742188 C 52.335938 65.136719 52.707031 64.65625 53.078125 64.117188 C 52.726562 63.566406 52.398438 63.003906 52.085938 62.429688 Z M 52.085938 62.429688 "/>
<path style=" stroke:none;fill-rule:nonzero;fill:rgb(93.333334%,33.333334%,26.666668%);fill-opacity:1;" d="M 58.328125 33.367188 C 57.839844 34.042969 58.011719 34.976562 58.707031 35.449219 C 59.40625 35.925781 60.367188 35.761719 60.855469 35.082031 C 61.34375 34.40625 61.175781 33.472656 60.476562 33 C 59.78125 32.527344 58.816406 32.691406 58.328125 33.367188 Z M 58.328125 33.367188 "/>
<path style=" stroke:none;fill-rule:nonzero;fill:rgb(26.666668%,60.000002%,40.000001%);fill-opacity:1;" d="M 60.738281 35.660156 C 60.738281 35.660156 62.054688 35.824219 62.554688 37.113281 L 63.210938 39.019531 C 63.210938 39.019531 60.5 38.496094 60.738281 35.660156 Z M 60.738281 35.660156 "/>
<path style=" stroke:none;fill-rule:nonzero;fill:rgb(93.333334%,80.000001%,26.666668%);fill-opacity:1;" d="M 57.433594 33.5625 C 57.792969 33.589844 57.410156 31.722656 54.648438 30.433594 C 54.648438 30.433594 53.953125 33.171875 57.433594 33.5625 Z M 57.433594 33.5625 "/>
<path style=" stroke:none;fill-rule:nonzero;fill:rgb(26.666668%,60.000002%,40.000001%);fill-opacity:1;" d="M 58.238281 35.789062 C 58.296875 35.390625 56.382812 36.0625 55.425781 38.847656 C 55.425781 38.847656 58.261719 39.09375 58.273438 35.738281 Z M 58.238281 35.789062 "/>
<path style=" stroke:none;fill-rule:nonzero;fill:rgb(93.333334%,80.000001%,26.666668%);fill-opacity:1;" d="M 61.558594 33.589844 C 61.558594 33.589844 63.332031 32.382812 63.953125 29.957031 C 63.953125 29.957031 62.109375 30.53125 60.796875 32.558594 C 60.796875 32.558594 61.148438 32.800781 61.558594 33.589844 Z M 59.996094 32.308594 C 59.996094 32.308594 60.578125 29.417969 58.882812 28.121094 C 58.882812 28.121094 57.714844 30.464844 58.277344 32.601562 C 58.277344 32.601562 59.457031 32.015625 59.996094 32.308594 Z M 61.753906 34.671875 C 61.523438 34.367188 63.417969 33.828125 65.929688 35.460938 C 65.929688 35.460938 63.796875 37.371094 61.753906 34.671875 Z M 57.269531 34.839844 C 57.597656 34.695312 56.105469 33.320312 53.148438 33.867188 C 53.148438 33.867188 54.148438 36.445312 57.269531 34.839844 Z M 57.269531 34.839844 "/>
<path style=" stroke:none;fill-rule:nonzero;fill:rgb(93.333334%,80.000001%,26.666668%);fill-opacity:1;" d="M 46.855469 8.339844 L 48.769531 9.777344 L 48.152344 12.050781 L 46.179688 10.671875 Z M 42.601562 10.554688 L 44.636719 11.390625 L 44.636719 13.546875 L 42.539062 12.765625 Z M 42.601562 10.554688 "/>
<path style=" stroke:none;fill-rule:nonzero;fill:rgb(93.333334%,80.000001%,26.666668%);fill-opacity:1;" d="M 14.242188 61.558594 C 18.8125 58.683594 18.132812 59.34375 22.269531 62.457031 C 18.6875 64.191406 17.515625 63.355469 14.242188 61.558594 Z M 14.242188 61.558594 "/>
<path style=" stroke:none;fill-rule:nonzero;fill:rgb(93.333334%,33.333334%,26.666668%);fill-opacity:1;" d="M 43.699219 64.851562 C 44.933594 63.953125 51.355469 64.3125 51.355469 65.691406 C 50.550781 66.527344 43.699219 66.167969 43.699219 64.851562 Z M 43.699219 64.851562 "/>
<path style=" stroke:none;fill-rule:nonzero;fill:rgb(59.215689%,43.921569%,40.784314%);fill-opacity:1;" d="M 41.589844 97.855469 L 41.589844 88.703125 C 41.589844 88.703125 47.019531 88.523438 47.757812 91.511719 C 48.5 94.503906 41.589844 97.855469 41.589844 97.855469 Z M 41.589844 97.855469 "/>
<path style=" stroke:none;fill-rule:nonzero;fill:rgb(49.411765%,30.588236%,26.666668%);fill-opacity:1;" d="M 43.625 96.898438 L 48.253906 96.898438 L 48.253906 85.828125 L 43.625 85.828125 Z M 43.625 96.898438 "/>
<path style=" stroke:none;fill-rule:nonzero;fill:rgb(49.411765%,30.588236%,26.666668%);fill-opacity:1;" d="M 38.074219 112.75 C 38.074219 112.75 33.878906 116.996094 38.074219 117.953125 C 38.074219 117.953125 35.851562 121.0625 42.023438 122.019531 C 48.191406 122.976562 68.179688 125.910156 66.207031 85.53125 L 54.050781 88.402344 Z M 38.074219 112.75 "/>
<path style=" stroke:none;fill-rule:nonzero;fill:rgb(89.803922%,69.01961%,54.11765%);fill-opacity:1;" d="M 58.183594 89.777344 C 58.183594 89.777344 50.96875 96.71875 51.214844 104.613281 C 51.460938 112.511719 47.140625 121.363281 38.257812 116.097656 L 37.886719 111.195312 L 35.730469 105.628906 L 37.886719 104.914062 L 37.765625 102.640625 L 38.691406 101.683594 L 37.886719 100.664062 L 38.503906 99.886719 C 38.628906 99.648438 37.269531 96.117188 39.554688 96.117188 C 42.636719 96.117188 45.476562 96.238281 45.910156 94.503906 C 46.523438 91.871094 47.265625 90.316406 45.292969 89.835938 C 37.269531 88.042969 36.46875 88.042969 36.46875 88.042969 C 36.46875 88.042969 31.410156 70.996094 50.351562 69.796875 Z M 58.183594 89.777344 "/>
<path style=" stroke:none;fill-rule:nonzero;fill:rgb(21.960784%,25.098041%,27.843139%);fill-opacity:1;" d="M 39.492188 109.878906 C 39.492188 109.878906 40.171875 109.636719 41.035156 109.878906 C 42.207031 110.238281 43.5625 111.074219 44.488281 109.757812 L 43.6875 109.996094 C 43.6875 109.996094 42.761719 109.996094 42.332031 109.519531 C 42.332031 109.519531 42.453125 108.324219 41.464844 108.382812 C 40.480469 108.382812 40.726562 109.339844 40.726562 109.339844 C 40.726562 109.339844 39.675781 109.160156 39.492188 109.878906 Z M 39.617188 111.550781 C 39.925781 111.550781 43.253906 113.46875 45.351562 110.953125 C 45.351562 110.953125 44.304688 114.125 40.046875 112.449219 C 39.429688 112.210938 39.617188 111.550781 39.617188 111.550781 Z M 39.617188 111.550781 "/>
<path style=" stroke:none;fill-rule:nonzero;fill:rgb(93.333334%,33.333334%,26.666668%);fill-opacity:1;" d="M 50.226562 76.796875 C 41.15625 78.472656 37.210938 84.933594 36.65625 88.402344 C 35.605469 88.101562 34.804688 87.921875 34.617188 87.683594 C 33.570312 86.609375 31.78125 84.453125 29.683594 81.820312 L 38.628906 64.292969 L 46.277344 65.132812 L 56.890625 68.902344 Z M 50.226562 76.796875 "/>
<path style=" stroke:none;fill-rule:nonzero;fill:rgb(96.078432%,73.725492%,76.078433%);fill-opacity:1;" d="M 46.710938 105.273438 C 46.710938 104.113281 45.742188 103.179688 44.550781 103.179688 C 43.359375 103.179688 42.390625 104.113281 42.390625 105.273438 C 42.390625 106.429688 43.359375 107.367188 44.550781 107.367188 C 45.742188 107.367188 46.710938 106.429688 46.710938 105.273438 Z M 46.710938 105.273438 "/>
<path style=" stroke:none;fill-rule:nonzero;fill:rgb(21.960784%,25.098041%,27.843139%);fill-opacity:1;" d="M 40.234375 110.238281 C 40.234375 110.238281 40.046875 111.074219 41.464844 111.253906 C 43.007812 111.375 40.542969 111.253906 40.234375 110.175781 Z M 40.234375 110.238281 "/>
<path style=" stroke:none;fill-rule:nonzero;fill:rgb(94.117647%,40.000001%,61.960787%);fill-opacity:1;" d="M 37.886719 100.664062 L 38.382812 101.863281 L 39.429688 101.980469 L 41.898438 102.28125 C 41.898438 102.28125 39.675781 100.367188 37.886719 100.664062 Z M 37.886719 100.664062 "/>
<path style=" stroke:none;fill-rule:nonzero;fill:rgb(91.37255%,52.549022%,70.588237%);fill-opacity:1;" d="M 37.765625 102.640625 C 38.078125 102.855469 38.433594 103 38.8125 103.058594 C 40.046875 103.058594 40.542969 102.699219 41.898438 102.28125 C 41.898438 102.28125 39.554688 101.800781 38.382812 101.800781 Z M 37.765625 102.640625 "/>
<use xlink:href="#surface8" transform="matrix(1,0,0,1,0,0)" mask="url(#mask1)"/>
<path style=" stroke:none;fill-rule:nonzero;fill:rgb(93.333334%,33.333334%,26.666668%);fill-opacity:1;" d="M 37.457031 124.113281 L 37.457031 123.21875 L 38.074219 120.527344 L 37.457031 118.132812 L 37.457031 117.535156 C 40.542969 117.535156 48.5625 117.535156 48.871094 107.367188 C 48.871094 107.367188 49.117188 105.332031 47.265625 103.179688 L 52.078125 100.90625 C 54.113281 107.964844 52.261719 120.527344 43.007812 122.320312 C 39.925781 122.917969 39 122.679688 37.457031 124.113281 Z M 42.332031 89.300781 C 42.332031 89.300781 42.636719 82.777344 55.71875 84.15625 L 57.875 87.144531 C 57.875 87.144531 47.265625 85.292969 45.292969 89.835938 Z M 42.332031 89.300781 "/>
<path style=" stroke:none;fill-rule:nonzero;fill:rgb(93.333334%,80.000001%,26.666668%);fill-opacity:1;" d="M 72.25 87.804688 L 64.539062 81.882812 L 67.625 67.523438 L 75.707031 68.421875 L 75.707031 82.179688 C 75.808594 84.554688 74.453125 86.761719 72.25 87.804688 Z M 72.25 87.804688 "/>
<path style=" stroke:none;fill-rule:nonzero;fill:rgb(21.960784%,25.098041%,27.843139%);fill-opacity:1;" d="M 58.183594 90.136719 C 58.183594 90.136719 49.425781 80.207031 46.339844 65.132812 L 51.894531 65.730469 L 54.113281 66.6875 L 55.902344 66.207031 L 67.746094 67.523438 C 67.6875 67.945312 65.898438 79.191406 72.3125 87.863281 Z M 58.183594 90.136719 "/>
<path style=" stroke:none;fill-rule:nonzero;fill:rgb(93.333334%,80.000001%,26.666668%);fill-opacity:1;" d="M 61.703125 89.71875 C 61.703125 89.71875 52.816406 78.234375 51.832031 65.730469 L 55.839844 66.148438 C 55.964844 66.746094 58.308594 82.242188 66.019531 88.941406 Z M 61.703125 89.71875 "/>
<path style=" stroke:none;fill-rule:nonzero;fill:rgb(93.333334%,33.333334%,26.666668%);fill-opacity:1;" d="M 49.179688 84.574219 L 46.339844 82.359375 L 47.390625 78.949219 L 50.289062 81.164062 Z M 49.179688 84.574219 "/>
<path style=" stroke:none;fill-rule:nonzero;fill:rgb(21.960784%,25.098041%,27.843139%);fill-opacity:1;" d="M 35.730469 88.164062 C 35.730469 88.164062 34.496094 77.875 50.226562 76.796875 L 51.027344 78.171875 C 51.027344 78.171875 38.320312 78.292969 37.085938 88.582031 Z M 35.730469 88.164062 "/>
<path style=" stroke:none;fill-rule:nonzero;fill:rgb(93.333334%,80.000001%,26.666668%);fill-opacity:1;" d="M 36.664062 88.09375 C 36.964844 87.621094 37.34375 87.195312 37.78125 86.832031 C 37.535156 86.308594 37.347656 85.765625 37.21875 85.207031 C 36.683594 85.558594 36.183594 85.960938 35.730469 86.410156 C 35.980469 87.011719 36.351562 87.613281 36.664062 88.09375 Z M 37.28125 84.964844 C 37.75 84.636719 38.25 84.355469 38.773438 84.121094 C 38.738281 83.558594 38.757812 82.996094 38.835938 82.4375 C 38.191406 82.597656 37.570312 82.820312 36.972656 83.097656 C 37.011719 83.730469 37.117188 84.355469 37.28125 84.964844 Z M 38.957031 82.257812 C 39.523438 82.082031 40.105469 81.960938 40.695312 81.894531 C 40.832031 81.339844 41.019531 80.796875 41.253906 80.269531 C 40.609375 80.253906 39.96875 80.296875 39.332031 80.390625 C 39.167969 81.003906 39.0625 81.628906 39.019531 82.257812 Z M 43.117188 80.269531 C 43.414062 79.769531 43.746094 79.285156 44.109375 78.828125 C 43.496094 78.6875 42.875 78.585938 42.246094 78.527344 C 41.914062 79.066406 41.625 79.628906 41.378906 80.210938 C 41.960938 80.191406 42.539062 80.210938 43.117188 80.269531 Z M 46.035156 79.25 C 46.425781 78.828125 46.839844 78.425781 47.273438 78.042969 C 46.667969 77.773438 46.046875 77.53125 45.414062 77.324219 C 45.015625 77.785156 44.640625 78.265625 44.296875 78.765625 C 44.882812 78.894531 45.464844 79.054688 46.035156 79.25 Z M 49.074219 78.644531 C 49.519531 78.289062 49.972656 77.949219 50.441406 77.625 C 49.914062 77.285156 49.375 76.964844 48.828125 76.660156 C 48.332031 77.082031 47.855469 77.523438 47.398438 77.984375 C 47.964844 78.183594 48.527344 78.40625 49.074219 78.644531 Z M 49.074219 78.644531 "/>
<path style=" stroke:none;fill-rule:nonzero;fill:rgb(90.588236%,72.156864%,57.254905%);fill-opacity:1;" d="M 31.535156 77.15625 L 33.816406 78.234375 C 33.816406 78.234375 35.542969 79.25 36.40625 80.625 C 36.714844 80.984375 37.828125 80.445312 36.59375 78.832031 L 35.605469 77.15625 Z M 31.535156 77.15625 "/>
<path style=" stroke:none;fill-rule:nonzero;fill:rgb(26.666668%,60.000002%,40.000001%);fill-opacity:1;" d="M 41.914062 72.574219 C 41.914062 72.574219 30.824219 83.445312 30.132812 93.785156 L 30.9375 93.820312 C 31.367188 90.828125 33.304688 82.722656 43.210938 72.652344 Z M 41.914062 72.574219 "/>
<path style=" stroke:none;fill-rule:nonzero;fill:rgb(89.803922%,69.01961%,54.11765%);fill-opacity:1;" d="M 36.285156 69.558594 L 31.347656 77.035156 L 35.421875 77.035156 L 39.738281 79.789062 C 39.738281 79.789062 42.082031 81.523438 42.082031 80.625 C 42.082031 80.027344 41.097656 79.011719 40.726562 78.832031 C 40.355469 78.589844 37.394531 75.839844 37.394531 75.839844 L 40.847656 77.875 C 40.847656 77.875 43.441406 79.546875 43.625 79.191406 C 44.242188 77.933594 42.578125 77.035156 42.082031 76.796875 C 41.652344 76.617188 38.257812 74.164062 38.257812 74.164062 L 42.699219 76.078125 C 42.699219 76.078125 44.425781 77.035156 44.550781 76.558594 C 44.675781 75.480469 43.441406 74.882812 43.195312 74.761719 L 39.429688 72.910156 L 40.542969 72.910156 C 40.542969 72.910156 43.933594 73.746094 43.871094 73.445312 C 43.871094 72.070312 37.765625 70.277344 37.765625 70.277344 L 36.285156 69.617188 Z M 36.285156 69.558594 "/>
<path style=" stroke:none;fill-rule:nonzero;fill:rgb(21.960784%,25.098041%,27.843139%);fill-opacity:1;" d="M 31.164062 84.394531 L 14.351562 61.511719 L 38.628906 64.292969 C 38.753906 76.976562 31.164062 84.394531 31.164062 84.394531 Z M 31.164062 84.394531 "/>
<path style=" stroke:none;fill-rule:nonzero;fill:rgb(93.333334%,33.333334%,26.666668%);fill-opacity:1;" d="M 30.300781 83.316406 C 30.300781 83.316406 37.085938 74.863281 37.085938 64.097656 L 35.296875 63.917969 C 35.296875 63.917969 34.988281 75.460938 29.128906 81.742188 Z M 30.300781 83.316406 "/>
<path style=" stroke:none;fill-rule:nonzero;fill:rgb(93.333334%,80.000001%,26.666668%);fill-opacity:1;" d="M 37.457031 123.21875 C 38.074219 122.019531 39 120.707031 39 120.707031 C 39 120.707031 38.074219 119.328125 37.457031 118.132812 Z M 37.457031 123.21875 "/>
<path style=" stroke:none;fill-rule:nonzero;fill:rgb(75.686276%,28.627452%,18.82353%);fill-opacity:1;" d="M 47.265625 103.238281 C 47.265625 103.238281 48.929688 101.203125 52.078125 100.90625 C 52.078125 100.90625 48.5 102.9375 48.5 105.152344 C 48.167969 104.46875 47.753906 103.828125 47.265625 103.238281 Z M 47.265625 103.238281 "/>
<path style=" stroke:none;fill-rule:nonzero;fill:rgb(93.333334%,33.333334%,26.666668%);fill-opacity:1;" d="M 63.472656 89.117188 C 63.332031 88.417969 63.207031 87.714844 63.101562 87.011719 C 62.472656 86.621094 61.851562 86.21875 61.238281 85.808594 C 61.265625 86.570312 61.304688 87.332031 61.363281 88.09375 C 62.054688 88.476562 62.757812 88.835938 63.472656 89.175781 Z M 60.992188 85.507812 L 60.804688 83.339844 C 60.195312 82.910156 59.597656 82.46875 59.003906 82.015625 C 58.992188 82.777344 58.992188 83.539062 59.003906 84.304688 C 59.679688 84.71875 60.363281 85.121094 61.054688 85.507812 Z M 58.882812 81.777344 C 58.863281 81.054688 58.863281 80.332031 58.882812 79.609375 C 58.3125 79.140625 57.753906 78.660156 57.207031 78.164062 C 57.125 78.925781 57.0625 79.6875 57.019531 80.453125 C 57.628906 80.90625 58.25 81.347656 58.882812 81.777344 Z M 57.019531 77.925781 C 57.0625 77.179688 57.121094 76.4375 57.207031 75.699219 C 56.671875 75.191406 56.15625 74.667969 55.652344 74.132812 L 55.28125 76.417969 C 55.867188 76.9375 56.46875 77.4375 57.082031 77.925781 Z M 55.589844 73.890625 C 55.691406 73.167969 55.816406 72.445312 55.964844 71.726562 C 55.507812 71.160156 55.074219 70.578125 54.660156 69.980469 C 54.402344 70.714844 54.175781 71.457031 53.976562 72.207031 C 54.496094 72.785156 55.035156 73.347656 55.589844 73.890625 Z M 54.597656 69.738281 C 54.792969 69.046875 55.023438 68.367188 55.28125 67.695312 C 54.96875 67.164062 54.679688 66.621094 54.414062 66.070312 C 54.351562 66.007812 54.414062 65.769531 54.101562 66.070312 L 53.234375 67.875 C 53.65625 68.515625 54.113281 69.140625 54.597656 69.738281 Z M 54.597656 69.738281 "/>
<path style=" stroke:none;fill-rule:nonzero;fill:rgb(46.666667%,46.666667%,80.000001%);fill-opacity:1;" d="M 59.9375 89.539062 L 59.8125 87.132812 C 59.015625 86.835938 58.230469 86.511719 57.453125 86.167969 C 57.363281 87.050781 57.300781 87.933594 57.265625 88.816406 C 58.144531 89.097656 59.035156 89.339844 59.9375 89.539062 Z M 57.207031 85.867188 C 57.222656 85.042969 57.265625 84.222656 57.328125 83.402344 C 56.574219 83.039062 55.828125 82.65625 55.09375 82.257812 L 54.660156 84.84375 C 55.5 85.207031 56.347656 85.550781 57.207031 85.867188 Z M 54.972656 82.015625 C 55.074219 81.210938 55.199219 80.410156 55.34375 79.609375 C 54.609375 79.1875 53.882812 78.746094 53.171875 78.285156 C 52.941406 79.140625 52.734375 80.003906 52.550781 80.871094 C 53.367188 81.296875 54.195312 81.695312 55.03125 82.078125 Z M 52.984375 78.042969 C 53.171875 77.238281 53.378906 76.433594 53.605469 75.636719 C 52.890625 75.152344 52.183594 74.652344 51.496094 74.132812 C 51.203125 74.96875 50.933594 75.8125 50.6875 76.660156 C 51.460938 77.140625 52.246094 77.605469 53.046875 78.042969 Z M 51.496094 73.832031 C 51.722656 73.0625 51.972656 72.300781 52.238281 71.546875 C 51.605469 71 50.984375 70.4375 50.378906 69.859375 C 49.980469 70.671875 49.609375 71.496094 49.261719 72.328125 C 49.992188 72.867188 50.734375 73.390625 51.496094 73.890625 Z M 50.253906 69.621094 C 50.5625 68.847656 50.894531 68.085938 51.246094 67.332031 C 50.652344 66.746094 50.070312 66.144531 49.507812 65.527344 C 49.074219 66.316406 48.660156 67.121094 48.269531 67.933594 C 48.914062 68.511719 49.578125 69.074219 50.253906 69.621094 Z M 50.253906 69.621094 "/>
<path style=" stroke:none;fill-rule:nonzero;fill:rgb(93.333334%,80.000001%,26.666668%);fill-opacity:1;" d="M 30.953125 83.761719 C 31.585938 83.554688 32.207031 83.3125 32.8125 83.039062 C 32.925781 82.402344 33.007812 81.757812 33.0625 81.113281 L 31.199219 81.835938 C 31.199219 82.4375 31.078125 83.097656 30.953125 83.761719 Z M 33.3125 80.871094 C 33.902344 80.574219 34.480469 80.253906 35.046875 79.910156 C 35.074219 79.269531 35.074219 78.625 35.046875 77.984375 C 34.460938 78.328125 33.863281 78.648438 33.25 78.945312 C 33.296875 79.589844 33.316406 80.230469 33.3125 80.871094 Z M 35.171875 77.804688 C 35.703125 77.421875 36.222656 77.019531 36.722656 76.601562 L 36.414062 74.675781 C 35.890625 75.09375 35.355469 75.496094 34.800781 75.878906 C 34.929688 76.515625 35.03125 77.160156 35.109375 77.804688 Z M 36.476562 74.492188 C 36.96875 74.050781 37.445312 73.585938 37.902344 73.109375 C 37.761719 72.503906 37.59375 71.898438 37.40625 71.304688 C 36.929688 71.765625 36.429688 72.207031 35.917969 72.628906 C 36.125 73.222656 36.3125 73.824219 36.476562 74.433594 Z M 37.46875 71.0625 C 37.902344 70.578125 38.316406 70.074219 38.710938 69.558594 C 38.484375 68.949219 38.238281 68.347656 37.964844 67.753906 C 37.550781 68.273438 37.117188 68.773438 36.664062 69.257812 C 36.953125 69.851562 37.222656 70.453125 37.46875 71.0625 Z M 37.902344 67.511719 C 38.273438 66.984375 38.625 66.441406 38.957031 65.886719 C 38.644531 65.316406 38.316406 64.753906 37.964844 64.203125 C 37.65625 64.804688 37.28125 65.285156 36.910156 65.828125 C 37.261719 66.378906 37.59375 66.941406 37.902344 67.511719 Z M 37.902344 67.511719 "/>
<path style=" stroke:none;fill-rule:nonzero;fill:rgb(93.333334%,33.333334%,26.666668%);fill-opacity:1;" d="M 31.660156 96.574219 C 32.148438 95.898438 31.980469 94.964844 31.28125 94.492188 C 30.582031 94.019531 29.621094 94.183594 29.132812 94.859375 C 28.644531 95.535156 28.816406 96.46875 29.511719 96.941406 C 30.210938 97.417969 31.171875 97.253906 31.660156 96.574219 Z M 31.660156 96.574219 "/>
<path style=" stroke:none;fill-rule:nonzero;fill:rgb(26.666668%,60.000002%,40.000001%);fill-opacity:1;" d="M 29.25 94.28125 C 29.25 94.28125 27.9375 94.121094 27.4375 92.832031 L 26.777344 90.925781 C 26.777344 90.925781 29.488281 91.449219 29.25 94.28125 Z M 29.25 94.28125 "/>
<path style=" stroke:none;fill-rule:nonzero;fill:rgb(93.333334%,80.000001%,26.666668%);fill-opacity:1;" d="M 32.554688 96.378906 C 32.195312 96.355469 32.578125 98.222656 35.339844 99.511719 C 35.339844 99.511719 36.035156 96.773438 32.554688 96.378906 Z M 32.554688 96.378906 "/>
<path style=" stroke:none;fill-rule:nonzero;fill:rgb(26.666668%,60.000002%,40.000001%);fill-opacity:1;" d="M 31.75 94.15625 C 31.691406 94.550781 33.605469 93.878906 34.5625 91.097656 C 34.5625 91.097656 31.726562 90.851562 31.714844 94.203125 Z M 31.75 94.15625 "/>
<path style=" stroke:none;fill-rule:nonzero;fill:rgb(93.333334%,80.000001%,26.666668%);fill-opacity:1;" d="M 28.429688 96.355469 C 28.429688 96.355469 26.65625 97.558594 26.035156 99.984375 C 26.035156 99.984375 27.878906 99.414062 29.195312 97.382812 C 29.195312 97.382812 28.839844 97.144531 28.429688 96.355469 Z M 29.992188 97.632812 C 29.992188 97.632812 29.410156 100.523438 31.109375 101.824219 C 31.109375 101.824219 32.277344 99.476562 31.710938 97.339844 C 31.710938 97.339844 30.53125 97.929688 29.992188 97.632812 Z M 28.234375 95.269531 C 28.464844 95.574219 26.570312 96.113281 24.058594 94.480469 C 24.058594 94.480469 26.191406 92.570312 28.234375 95.269531 Z M 32.722656 95.105469 C 32.394531 95.246094 33.882812 96.625 36.839844 96.078125 C 36.839844 96.078125 35.839844 93.5 32.722656 95.105469 Z M 32.722656 95.105469 "/>
<path style=" stroke:none;fill-rule:nonzero;fill:rgb(93.333334%,80.000001%,26.666668%);fill-opacity:1;" d="M 43.132812 121.601562 L 41.21875 120.167969 L 41.835938 117.894531 L 43.8125 119.269531 Z M 47.390625 119.390625 L 45.351562 118.550781 L 45.351562 116.398438 L 47.449219 117.175781 Z M 47.390625 119.390625 "/>
<path style=" stroke:none;fill-rule:nonzero;fill:rgb(93.333334%,33.333334%,26.666668%);fill-opacity:1;" d="M 7.914062 21.617188 C 6.726562 23.898438 4.804688 26.011719 3.472656 27.152344 C 4.804688 28.292969 6.726562 30.460938 7.914062 32.742188 C 9.097656 30.460938 11.019531 28.292969 12.351562 27.152344 C 11.019531 26.011719 9.097656 23.898438 7.914062 21.617188 Z M 7.914062 21.617188 "/>
<path style=" stroke:none;fill-rule:nonzero;fill:rgb(100%,100%,100%);fill-opacity:1;" d="M 85.21875 125.605469 L 76.65625 125.605469 L 76.65625 95.515625 L 85.21875 95.515625 Z M 85.21875 125.605469 "/>
<path style=" stroke:none;fill-rule:nonzero;fill:rgb(93.333334%,33.333334%,26.666668%);fill-opacity:1;" d="M 82.085938 108.382812 C 83.273438 106.101562 85.195312 103.988281 86.527344 102.847656 C 85.195312 101.707031 83.273438 99.539062 82.085938 97.257812 C 80.902344 99.539062 78.980469 101.707031 77.648438 102.847656 C 78.980469 103.988281 80.902344 106.101562 82.085938 108.382812 Z M 82.085938 108.382812 "/>
<path style="fill-rule:nonzero;fill:rgb(93.333334%,33.333334%,26.666668%);fill-opacity:1;stroke-width:0.5;stroke-linecap:butt;stroke-linejoin:round;stroke:rgb(93.333334%,33.333334%,26.666668%);stroke-opacity:1;stroke-miterlimit:4;" d="M 1607.700129 -91.802641 C 1601.570354 -91.711775 1601.759156 -86.091102 1601.80321 -85.500477 L 1601.80321 -75.498793 C 1601.80321 -69.242062 1606.90716 -69.261533 1607.700129 -69.300476 C 1608.039973 -69.306966 1608.36723 -69.352399 1608.70078 -69.397831 L 1609.701431 -66.899033 C 1610.299304 -65.899514 1612.099218 -65.399754 1613.401952 -66.697831 C 1612.60269 -66.801677 1611.797134 -67.100235 1611.602039 -67.697351 L 1610.802777 -70.001437 C 1612.350954 -70.89062 1613.502647 -72.558649 1613.502647 -75.60264 L 1613.502647 -85.597833 C 1613.502647 -90.679804 1609.839886 -91.828602 1607.700129 -91.802641 Z M 1607.700129 -90.60192 C 1609.147612 -90.60192 1610.19861 -89.342785 1610.19861 -87.798073 L 1610.19861 -73.298553 C 1610.19861 -72.902639 1610.19861 -72.500236 1609.997221 -72.097832 C 1609.500042 -73.097351 1608.902169 -73.700957 1608.002212 -73.798313 C 1607.20295 -73.798313 1606.498089 -73.402399 1606.202299 -72.500236 C 1606.699478 -72.500236 1607.297351 -72.299034 1607.599434 -72.000476 C 1607.901518 -71.701918 1608.102907 -71.202158 1608.298002 -70.598553 C 1608.102907 -70.540139 1607.901518 -70.507687 1607.700129 -70.501197 C 1606.271526 -70.501197 1605.157594 -71.760332 1605.201648 -73.298553 L 1605.201648 -87.798073 C 1605.201648 -89.342785 1606.252646 -90.60192 1607.700129 -90.60192 Z M 1607.700129 -90.60192 " transform="matrix(0.62069,0,0,0.601852,-989.999947,60.185179)"/>
<path style="fill-rule:nonzero;fill:rgb(93.333334%,33.333334%,26.666668%);fill-opacity:1;stroke-width:0.5;stroke-linecap:butt;stroke-linejoin:round;stroke:rgb(93.333334%,33.333334%,26.666668%);stroke-opacity:1;stroke-miterlimit:4;" d="M 1607.700035 -91.802663 C 1601.57026 -91.711798 1601.759063 -86.091124 1601.803116 -85.500499 L 1601.803116 -75.498816 C 1601.803116 -69.242085 1606.907066 -69.261556 1607.700035 -69.300498 C 1608.039879 -69.306989 1608.367136 -69.352421 1608.700686 -69.397854 L 1609.701338 -66.899056 C 1610.299211 -65.899536 1612.099124 -65.399777 1613.401859 -66.697854 C 1612.602596 -66.8017 1611.797041 -67.100258 1611.601945 -67.697373 L 1610.802683 -70.00146 C 1612.35086 -70.890643 1613.502553 -72.558671 1613.502553 -75.602662 L 1613.502553 -85.597855 C 1613.502553 -90.679827 1609.839792 -91.828625 1607.700035 -91.802663 Z M 1607.700035 -90.601942 C 1609.147518 -90.601942 1610.198516 -89.342807 1610.198516 -87.798096 L 1610.198516 -73.298575 C 1610.198516 -72.902662 1610.198516 -72.500258 1609.997127 -72.097854 C 1609.499949 -73.097373 1608.902075 -73.700979 1608.002119 -73.798335 C 1607.202856 -73.798335 1606.497995 -73.402422 1606.202205 -72.500258 C 1606.699384 -72.500258 1607.297257 -72.299056 1607.599341 -72.000498 C 1607.901424 -71.701941 1608.102813 -71.202181 1608.297909 -70.598575 C 1608.102813 -70.540162 1607.901424 -70.50771 1607.700035 -70.501219 C 1606.271433 -70.501219 1605.1575 -71.760354 1605.201554 -73.298575 L 1605.201554 -87.798096 C 1605.201554 -89.342807 1606.252553 -90.601942 1607.700035 -90.601942 Z M 1607.700035 -90.601942 " transform="matrix(-0.62069,0.000000000000000074,-0.000000000000000076,-0.601852,1079.999889,69.814808)"/>
</g>
</svg>
