<?xml version="1.0" encoding="UTF-8"?>
<svg xmlns="http://www.w3.org/2000/svg" xmlns:xlink="http://www.w3.org/1999/xlink" width="90px" height="130px" viewBox="0 0 90 130" version="1.1">
<g id="surface1">
<path style="fill-rule:nonzero;fill:rgb(100%,100%,100%);fill-opacity:1;stroke-width:3;stroke-linecap:butt;stroke-linejoin:miter;stroke:rgb(21.960784%,25.098041%,27.843139%);stroke-opacity:1;stroke-miterlimit:4;" d="M 9.50308 1.499282 L 135.497014 1.499282 C 139.921276 1.499282 143.502223 5.081974 143.502223 9.501927 L 143.502223 206.498096 C 143.502223 210.918048 139.921276 214.500741 135.497014 214.500741 L 9.50308 214.500741 C 5.078818 214.500741 1.497871 210.918048 1.497871 206.498096 L 1.497871 9.501927 C 1.497871 5.081974 5.078818 1.499282 9.50308 1.499282 Z M 9.50308 1.499282 " transform="matrix(0.62069,0,0,0.601852,-0.000025692,-0.000001627)"/>
<path style=" stroke:none;fill-rule:nonzero;fill:rgb(93.333334%,33.333334%,26.666668%);fill-opacity:1;" d="M 45 8.90625 C 42.515625 13.722656 38.484375 18.175781 35.691406 20.582031 C 38.484375 22.992188 42.515625 27.566406 45 32.378906 C 47.484375 27.566406 51.515625 22.992188 54.308594 20.582031 C 51.515625 18.175781 47.484375 13.722656 45 8.90625 Z M 45 8.90625 "/>
<path style=" stroke:none;fill-rule:nonzero;fill:rgb(93.333334%,33.333334%,26.666668%);fill-opacity:1;" d="M 45 97.378906 C 42.515625 102.195312 38.484375 106.648438 35.691406 109.054688 C 38.484375 111.464844 42.515625 116.035156 45 120.851562 C 47.484375 116.035156 51.515625 111.464844 54.308594 109.054688 C 51.515625 106.648438 47.484375 102.195312 45 97.378906 Z M 45 97.378906 "/>
<path style=" stroke:none;fill-rule:nonzero;fill:rgb(93.333334%,33.333334%,26.666668%);fill-opacity:1;" d="M 45 53.324219 C 42.515625 58.140625 38.484375 62.59375 35.691406 65 C 38.484375 67.40625 42.515625 71.980469 45 76.796875 C 47.484375 71.980469 51.515625 67.40625 54.308594 65 C 51.515625 62.59375 47.484375 58.140625 45 53.324219 Z M 45 53.324219 "/>
<path style=" stroke:none;fill-rule:nonzero;fill:rgb(93.333334%,33.333334%,26.666668%);fill-opacity:1;" d="M 27 31.117188 C 24.515625 35.929688 20.484375 40.382812 17.691406 42.792969 C 20.484375 45.199219 24.515625 49.773438 27 54.589844 C 29.484375 49.773438 33.515625 45.199219 36.308594 42.792969 C 33.515625 40.382812 29.484375 35.929688 27 31.117188 Z M 27 31.117188 "/>
<path style=" stroke:none;fill-rule:nonzero;fill:rgb(93.333334%,33.333334%,26.666668%);fill-opacity:1;" d="M 27 74.75 C 24.515625 79.566406 20.484375 84.019531 17.691406 86.425781 C 20.484375 88.832031 24.515625 93.40625 27 98.222656 C 29.484375 93.40625 33.515625 88.832031 36.308594 86.425781 C 33.515625 84.019531 29.484375 79.566406 27 74.75 Z M 27 74.75 "/>
<path style=" stroke:none;fill-rule:nonzero;fill:rgb(93.333334%,33.333334%,26.666668%);fill-opacity:1;" d="M 63 31.117188 C 60.515625 35.929688 56.484375 40.382812 53.691406 42.792969 C 56.484375 45.199219 60.515625 49.773438 63 54.589844 C 65.484375 49.773438 69.515625 45.199219 72.308594 42.792969 C 69.515625 40.382812 65.484375 35.929688 63 31.117188 Z M 63 31.117188 "/>
<path style=" stroke:none;fill-rule:nonzero;fill:rgb(93.333334%,33.333334%,26.666668%);fill-opacity:1;" d="M 63 75.351562 C 60.515625 80.167969 56.484375 84.621094 53.691406 87.027344 C 56.484375 89.433594 60.515625 94.007812 63 98.824219 C 65.484375 94.007812 69.515625 89.433594 72.308594 87.027344 C 69.515625 84.621094 65.484375 80.167969 63 75.351562 Z M 63 75.351562 "/>
<path style=" stroke:none;fill-rule:nonzero;fill:rgb(93.333334%,33.333334%,26.666668%);fill-opacity:1;" d="M 7.914062 21.617188 C 6.726562 23.898438 4.804688 26.011719 3.472656 27.152344 C 4.804688 28.292969 6.726562 30.460938 7.914062 32.742188 C 9.097656 30.460938 11.019531 28.292969 12.351562 27.152344 C 11.019531 26.011719 9.097656 23.898438 7.914062 21.617188 Z M 7.914062 21.617188 "/>
<path style=" stroke:none;fill-rule:nonzero;fill:rgb(93.333334%,33.333334%,26.666668%);fill-opacity:1;" d="M 82.085938 108.382812 C 83.273438 106.101562 85.195312 103.988281 86.527344 102.847656 C 85.195312 101.707031 83.273438 99.539062 82.085938 97.257812 C 80.902344 99.539062 78.980469 101.707031 77.648438 102.847656 C 78.980469 103.988281 80.902344 106.101562 82.085938 108.382812 Z M 82.085938 108.382812 "/>
<path style="fill-rule:nonzero;fill:rgb(93.333334%,33.333334%,26.666668%);fill-opacity:1;stroke-width:0.5;stroke-linecap:butt;stroke-linejoin:round;stroke:rgb(93.333334%,33.333334%,26.666668%);stroke-opacity:1;stroke-miterlimit:4;" d="M 879.100303 -80.197832 L 879.100303 -81.599755 L 881.900867 -81.599755 C 883.058853 -84.410092 884.808419 -87.298314 885.601388 -88.499035 L 881.598784 -88.499035 C 878.728992 -88.499035 878.370268 -87.622833 877.401084 -85.201919 L 876.400433 -85.403121 L 877.602473 -91.997352 L 878.603124 -91.997352 C 878.609417 -91.78966 878.987021 -91.497593 879.200997 -91.497593 L 888.899131 -91.497593 L 888.798437 -90.199516 C 887.501996 -88.447112 885.431466 -85.338217 884.097265 -81.599755 L 886.299956 -81.599755 L 886.299956 -80.197832 L 883.70078 -80.197832 C 882.719009 -76.62163 882.309938 -72.90913 882.49874 -69.20312 L 879.200997 -69.20312 C 879.591188 -72.928601 880.327516 -76.608649 881.397395 -80.197832 Z M 879.100303 -80.197832 " transform="matrix(0.62069,0,0,0.601852,-539.999983,60.185179)"/>
<path style="fill-rule:nonzero;fill:rgb(93.333334%,33.333334%,26.666668%);fill-opacity:1;stroke-width:0.5;stroke-linecap:butt;stroke-linejoin:round;stroke:rgb(93.333334%,33.333334%,26.666668%);stroke-opacity:1;stroke-miterlimit:4;" d="M 879.100208 -80.197855 L 879.100208 -81.599778 L 881.900773 -81.599778 C 883.058759 -84.410115 884.808325 -87.298336 885.601294 -88.499057 L 881.598689 -88.499057 C 878.728897 -88.499057 878.370173 -87.622855 877.400989 -85.201942 L 876.400338 -85.403144 L 877.602378 -91.997375 L 878.603029 -91.997375 C 878.609323 -91.789683 878.986927 -91.497615 879.200903 -91.497615 L 888.899037 -91.497615 L 888.798343 -90.199538 C 887.501902 -88.447134 885.431372 -85.33824 884.09717 -81.599778 L 886.299862 -81.599778 L 886.299862 -80.197855 L 883.700686 -80.197855 C 882.718915 -76.621653 882.309844 -72.909152 882.498646 -69.203142 L 879.200903 -69.203142 C 879.591094 -72.928623 880.327422 -76.608672 881.3973 -80.197855 Z M 879.100208 -80.197855 " transform="matrix(-0.62069,0.000000000000000074,-0.000000000000000076,-0.601852,629.999924,69.814808)"/>
</g>
</svg>
