<?xml version="1.0" encoding="UTF-8"?>
<svg xmlns="http://www.w3.org/2000/svg" xmlns:xlink="http://www.w3.org/1999/xlink" width="90px" height="130px" viewBox="0 0 90 130" version="1.1">
<g id="surface1">
<path style="fill-rule:nonzero;fill:rgb(100%,100%,100%);fill-opacity:1;stroke-width:3;stroke-linecap:butt;stroke-linejoin:miter;stroke:rgb(21.960784%,25.098041%,27.843139%);stroke-opacity:1;stroke-miterlimit:4;" d="M 9.503037 1.499282 L 135.496971 1.499282 C 139.921234 1.499282 143.50218 5.081974 143.50218 9.501927 L 143.50218 206.498096 C 143.50218 210.918048 139.921234 214.500741 135.496971 214.500741 L 9.503037 214.500741 C 5.078775 214.500741 1.497828 210.918048 1.497828 206.498096 L 1.497828 9.501927 C 1.497828 5.081974 5.078775 1.499282 9.503037 1.499282 Z M 9.503037 1.499282 " transform="matrix(0.62069,0,0,0.601852,0.000000945129,-0.000001627)"/>
<path style=" stroke:none;fill-rule:nonzero;fill:rgb(93.333334%,33.333334%,26.666668%);fill-opacity:1;" d="M 45 8.90625 C 42.515625 13.722656 38.484375 18.175781 35.691406 20.582031 C 38.484375 22.992188 42.515625 27.566406 45 32.378906 C 47.484375 27.566406 51.515625 22.992188 54.308594 20.582031 C 51.515625 18.175781 47.484375 13.722656 45 8.90625 Z M 45 8.90625 "/>
<path style=" stroke:none;fill-rule:nonzero;fill:rgb(93.333334%,33.333334%,26.666668%);fill-opacity:1;" d="M 45 97.378906 C 42.515625 102.195312 38.484375 106.648438 35.691406 109.054688 C 38.484375 111.464844 42.515625 116.035156 45 120.851562 C 47.484375 116.035156 51.515625 111.464844 54.308594 109.054688 C 51.515625 106.648438 47.484375 102.195312 45 97.378906 Z M 45 97.378906 "/>
<path style=" stroke:none;fill-rule:nonzero;fill:rgb(93.333334%,33.333334%,26.666668%);fill-opacity:1;" d="M 7.914062 21.617188 C 6.726562 23.898438 4.804688 26.011719 3.472656 27.152344 C 4.804688 28.292969 6.726562 30.460938 7.914062 32.742188 C 9.097656 30.460938 11.019531 28.292969 12.351562 27.152344 C 11.019531 26.011719 9.097656 23.898438 7.914062 21.617188 Z M 7.914062 21.617188 "/>
<path style=" stroke:none;fill-rule:nonzero;fill:rgb(93.333334%,33.333334%,26.666668%);fill-opacity:1;" d="M 82.085938 108.382812 C 83.273438 106.101562 85.195312 103.988281 86.527344 102.847656 C 85.195312 101.707031 83.273438 99.539062 82.085938 97.257812 C 80.902344 99.539062 78.980469 101.707031 77.648438 102.847656 C 78.980469 103.988281 80.902344 106.101562 82.085938 108.382812 Z M 82.085938 108.382812 "/>
<path style="fill-rule:nonzero;fill:rgb(93.333334%,33.333334%,26.666668%);fill-opacity:1;stroke-width:0.5;stroke-linecap:butt;stroke-linejoin:round;stroke:rgb(93.333334%,33.333334%,26.666668%);stroke-opacity:1;stroke-miterlimit:4;" d="M 159.802083 -86.000237 C 159.802083 -88.187496 158.65039 -90.400718 156.699435 -90.400718 C 155.572916 -90.400718 154.7296 -89.92692 154.200954 -88.998795 C 155.327473 -88.719708 156.000867 -87.778602 156.000867 -86.9024 C 156.000867 -85.792544 155.239366 -84.799515 153.798176 -84.799515 C 152.457681 -84.799515 151.601779 -86.097592 151.601779 -87.40216 C 151.601779 -89.920429 153.867404 -91.899997 157.001519 -91.899997 C 159.751736 -91.899997 162.898437 -90.017785 162.898437 -86.000237 C 162.898437 -80.119948 156.422525 -78.698553 153.697482 -72.701437 L 158.499349 -72.701437 C 160.909722 -72.701437 161.778212 -73.863216 162.602647 -75.901197 L 163.597005 -75.699995 L 162.401259 -69.20312 L 161.400607 -69.20312 C 161.400607 -69.527639 161.249566 -69.800235 160.097873 -69.800235 L 151.601779 -69.800235 L 151.601779 -71.500716 C 151.708766 -77.491342 159.802083 -79.730525 159.802083 -86.000237 Z M 159.802083 -86.000237 " transform="matrix(0.62069,0,0,0.601852,-89.999992,60.185179)"/>
<path style="fill-rule:nonzero;fill:rgb(93.333334%,33.333334%,26.666668%);fill-opacity:1;stroke-width:0.5;stroke-linecap:butt;stroke-linejoin:round;stroke:rgb(93.333334%,33.333334%,26.666668%);stroke-opacity:1;stroke-miterlimit:4;" d="M 159.802075 -86.000259 C 159.802075 -88.187519 158.650382 -90.40074 156.699427 -90.40074 C 155.572908 -90.40074 154.729591 -89.926942 154.200946 -88.998817 C 155.327465 -88.71973 156.000859 -87.778625 156.000859 -86.902423 C 156.000859 -85.792567 155.239357 -84.799538 153.798168 -84.799538 C 152.457673 -84.799538 151.60177 -86.097615 151.60177 -87.402182 C 151.60177 -89.920452 153.867395 -91.900019 157.00151 -91.900019 C 159.751727 -91.900019 162.898429 -90.017807 162.898429 -86.000259 C 162.898429 -80.11997 156.422517 -78.698576 153.697473 -72.70146 L 158.49934 -72.70146 C 160.909714 -72.70146 161.778203 -73.863239 162.602639 -75.90122 L 163.596997 -75.700018 L 162.40125 -69.203142 L 161.400599 -69.203142 C 161.400599 -69.527662 161.249557 -69.800258 160.097864 -69.800258 L 151.60177 -69.800258 L 151.60177 -71.500739 C 151.708758 -77.491364 159.802075 -79.730547 159.802075 -86.000259 Z M 159.802075 -86.000259 " transform="matrix(-0.62069,0.000000000000000074,-0.000000000000000076,-0.601852,179.999987,69.814808)"/>
</g>
</svg>
