<?xml version="1.0" encoding="UTF-8"?>
<svg xmlns="http://www.w3.org/2000/svg" xmlns:xlink="http://www.w3.org/1999/xlink" width="90px" height="130px" viewBox="0 0 90 130" version="1.1">
<g id="surface1">
<path style="fill-rule:nonzero;fill:rgb(100%,100%,100%);fill-opacity:1;stroke-width:3;stroke-linecap:butt;stroke-linejoin:miter;stroke:rgb(21.960784%,25.098041%,27.843139%);stroke-opacity:1;stroke-miterlimit:4;" d="M 9.503046 1.499282 L 135.496979 1.499282 C 139.921242 1.499282 143.502188 5.081974 143.502188 9.501927 L 143.502188 206.498096 C 143.502188 210.918048 139.921242 214.500741 135.496979 214.500741 L 9.503046 214.500741 C 5.078783 214.500741 1.497837 210.918048 1.497837 206.498096 L 1.497837 9.501927 C 1.497837 5.081974 5.078783 1.499282 9.503046 1.499282 Z M 9.503046 1.499282 " transform="matrix(0.62069,0,0,0.601852,-0.0000042984,-0.000001627)"/>
<path style=" stroke:none;fill-rule:nonzero;fill:rgb(93.333334%,33.333334%,26.666668%);fill-opacity:1;" d="M 45 53.324219 C 42.515625 58.140625 38.484375 62.59375 35.691406 65 C 38.484375 67.40625 42.515625 71.980469 45 76.796875 C 47.484375 71.980469 51.515625 67.40625 54.308594 65 C 51.515625 62.59375 47.484375 58.140625 45 53.324219 Z M 45 53.324219 "/>
<path style=" stroke:none;fill-rule:nonzero;fill:rgb(93.333334%,33.333334%,26.666668%);fill-opacity:1;" d="M 27 8.90625 C 24.515625 13.722656 20.484375 18.175781 17.691406 20.582031 C 20.484375 22.992188 24.515625 27.566406 27 32.378906 C 29.484375 27.566406 33.515625 22.992188 36.308594 20.582031 C 33.515625 18.175781 29.484375 13.722656 27 8.90625 Z M 27 8.90625 "/>
<path style=" stroke:none;fill-rule:nonzero;fill:rgb(93.333334%,33.333334%,26.666668%);fill-opacity:1;" d="M 27 97.378906 C 24.515625 102.195312 20.484375 106.648438 17.691406 109.054688 C 20.484375 111.464844 24.515625 116.035156 27 120.851562 C 29.484375 116.035156 33.515625 111.464844 36.308594 109.054688 C 33.515625 106.648438 29.484375 102.195312 27 97.378906 Z M 27 97.378906 "/>
<path style=" stroke:none;fill-rule:nonzero;fill:rgb(93.333334%,33.333334%,26.666668%);fill-opacity:1;" d="M 63 8.90625 C 60.515625 13.722656 56.484375 18.175781 53.691406 20.582031 C 56.484375 22.992188 60.515625 27.566406 63 32.378906 C 65.484375 27.566406 69.515625 22.992188 72.308594 20.582031 C 69.515625 18.175781 65.484375 13.722656 63 8.90625 Z M 63 8.90625 "/>
<path style=" stroke:none;fill-rule:nonzero;fill:rgb(93.333334%,33.333334%,26.666668%);fill-opacity:1;" d="M 63 97.378906 C 60.515625 102.195312 56.484375 106.648438 53.691406 109.054688 C 56.484375 111.464844 60.515625 116.035156 63 120.851562 C 65.484375 116.035156 69.515625 111.464844 72.308594 109.054688 C 69.515625 106.648438 65.484375 102.195312 63 97.378906 Z M 63 97.378906 "/>
<path style=" stroke:none;fill-rule:nonzero;fill:rgb(93.333334%,33.333334%,26.666668%);fill-opacity:1;" d="M 7.914062 21.617188 C 6.726562 23.898438 4.804688 26.011719 3.472656 27.152344 C 4.804688 28.292969 6.726562 30.460938 7.914062 32.742188 C 9.097656 30.460938 11.019531 28.292969 12.351562 27.152344 C 11.019531 26.011719 9.097656 23.898438 7.914062 21.617188 Z M 7.914062 21.617188 "/>
<path style=" stroke:none;fill-rule:nonzero;fill:rgb(93.333334%,33.333334%,26.666668%);fill-opacity:1;" d="M 82.085938 108.382812 C 83.273438 106.101562 85.195312 103.988281 86.527344 102.847656 C 85.195312 101.707031 83.273438 99.539062 82.085938 97.257812 C 80.902344 99.539062 78.980469 101.707031 77.648438 102.847656 C 78.980469 103.988281 80.902344 106.101562 82.085938 108.382812 Z M 82.085938 108.382812 "/>
<path style="fill-rule:nonzero;fill:rgb(93.333334%,33.333334%,26.666668%);fill-opacity:1;stroke-width:0.5;stroke-linecap:butt;stroke-linejoin:round;stroke:rgb(93.333334%,33.333334%,26.666668%);stroke-opacity:1;stroke-miterlimit:4;" d="M 588.999574 -79.698073 L 587.998922 -80.898794 L 588.999574 -91.400237 L 595.29927 -91.400237 L 595.601354 -91.997352 L 596.602005 -91.997352 L 597.602656 -85.299275 L 596.702699 -85.000717 C 596.287335 -86.40264 595.551006 -88.75216 592.398011 -88.700237 L 590.302308 -88.700237 L 589.698141 -82.196871 C 591.699444 -83.001679 593.700746 -82.897832 595.399965 -81.898313 C 601.259123 -77.731486 598.452265 -68.391822 591.800138 -68.800716 C 589.018454 -68.781245 586.450745 -70.611533 586.501093 -73.402399 C 586.501093 -75.232688 587.829001 -76.056967 588.69749 -76.102399 C 589.84289 -76.141342 590.698792 -75.291101 590.698792 -73.999514 C 590.698792 -72.999995 590.201614 -72.299034 589.100268 -71.799274 C 589.798836 -70.799755 590.598098 -70.202639 591.598749 -70.202639 C 597.281692 -70.338937 596.318802 -82.508409 591.000876 -81.00264 C 590.107213 -80.749515 589.597447 -80.301678 588.999574 -79.698073 Z M 588.999574 -79.698073 " transform="matrix(0.62069,0,0,0.601852,-359.999976,60.185179)"/>
<path style="fill-rule:nonzero;fill:rgb(93.333334%,33.333334%,26.666668%);fill-opacity:1;stroke-width:0.5;stroke-linecap:butt;stroke-linejoin:round;stroke:rgb(93.333334%,33.333334%,26.666668%);stroke-opacity:1;stroke-miterlimit:4;" d="M 588.999548 -79.698095 L 587.998897 -80.898816 L 588.999548 -91.40026 L 595.299245 -91.40026 L 595.601328 -91.997375 L 596.601979 -91.997375 L 597.602631 -85.299298 L 596.702674 -85.00074 C 596.287309 -86.402663 595.550981 -88.752182 592.397986 -88.700259 L 590.302283 -88.700259 L 589.698116 -82.196893 C 591.699418 -83.001701 593.700721 -82.897855 595.399939 -81.898336 C 601.259098 -77.731508 598.45224 -68.391844 591.800113 -68.800739 C 589.018428 -68.781267 586.45072 -70.611556 586.501067 -73.402422 C 586.501067 -75.23271 587.828975 -76.056989 588.697465 -76.102422 C 589.842864 -76.141364 590.698767 -75.291124 590.698767 -73.999537 C 590.698767 -73.000018 590.201588 -72.299056 589.100243 -71.799296 C 589.79881 -70.799777 590.598073 -70.202662 591.598724 -70.202662 C 597.281667 -70.33896 596.318776 -82.508432 591.000851 -81.002663 C 590.107187 -80.749538 589.597422 -80.301701 588.999548 -79.698095 Z M 588.999548 -79.698095 " transform="matrix(-0.62069,0.000000000000000074,-0.000000000000000076,-0.601852,449.99996,69.814808)"/>
</g>
</svg>
