<?xml version="1.0" encoding="UTF-8"?>
<svg xmlns="http://www.w3.org/2000/svg" xmlns:xlink="http://www.w3.org/1999/xlink" width="90px" height="130px" viewBox="0 0 90 130" version="1.1">
<g id="surface1">
<path style="fill-rule:nonzero;fill:rgb(100%,100%,100%);fill-opacity:1;stroke-width:3;stroke-linecap:butt;stroke-linejoin:miter;stroke:rgb(21.960784%,25.098041%,27.843139%);stroke-opacity:1;stroke-miterlimit:4;" d="M 9.496856 1.499282 L 135.497083 1.499282 C 139.921345 1.499282 143.502292 5.081974 143.502292 9.501927 L 143.502292 206.498096 C 143.502292 210.918048 139.921345 214.500741 135.497083 214.500741 L 9.496856 214.500741 C 5.078887 214.500741 1.49794 210.918048 1.49794 206.498096 L 1.49794 9.501927 C 1.49794 5.081974 5.078887 1.499282 9.496856 1.499282 Z M 9.496856 1.499282 " transform="matrix(0.62069,0,0,0.601852,-0.0000684791,-0.000001627)"/>
<path style=" stroke:none;fill-rule:nonzero;fill:rgb(93.333334%,33.333334%,26.666668%);fill-opacity:1;" d="M 18.21875 6.035156 C 16.0625 10.203125 12.5625 14.058594 10.140625 16.140625 C 12.5625 18.222656 16.0625 22.183594 18.21875 26.347656 C 20.375 22.183594 23.875 18.222656 26.296875 16.140625 C 23.875 14.058594 20.375 10.203125 18.21875 6.035156 Z M 18.21875 6.035156 "/>
<path style=" stroke:none;fill-rule:nonzero;fill:rgb(100%,100%,100%);fill-opacity:1;" d="M 3.722656 4.394531 L 12.289062 4.394531 L 12.289062 34.484375 L 3.722656 34.484375 Z M 3.722656 4.394531 "/>
<path style=" stroke:none;fill-rule:nonzero;fill:rgb(93.333334%,33.333334%,26.666668%);fill-opacity:1;" d="M 71.78125 123.964844 C 73.933594 119.796875 77.4375 115.941406 79.859375 113.859375 C 77.4375 111.777344 73.933594 107.816406 71.78125 103.652344 C 69.625 107.816406 66.125 111.777344 63.699219 113.859375 C 66.125 115.941406 69.625 119.796875 71.78125 123.964844 Z M 71.78125 123.964844 "/>
<path style=" stroke:none;fill-rule:nonzero;fill:rgb(21.960784%,25.098041%,27.843139%);fill-opacity:1;" d="M 50.128906 55.589844 L 76.371094 61.445312 L 37.191406 74.703125 L 13.785156 68.550781 Z M 50.128906 55.589844 "/>
<path style=" stroke:none;fill-rule:nonzero;fill:rgb(93.333334%,33.333334%,26.666668%);fill-opacity:1;" d="M 45.445312 64.96875 L 48.402344 63.535156 L 53.332031 64.132812 L 49.390625 67.117188 Z M 45.445312 64.96875 "/>
<path style=" stroke:none;fill-rule:nonzero;fill:rgb(93.333334%,86.666667%,86.666667%);fill-opacity:1;" d="M 29.554688 67.476562 L 29.367188 66.820312 L 30.476562 65.746094 L 30.539062 66.640625 Z M 29.554688 67.476562 "/>
<path style=" stroke:none;fill-rule:nonzero;fill:rgb(21.960784%,25.098041%,27.843139%);fill-opacity:1;" d="M 13.675781 68.652344 L 27.320312 64.351562 L 60.660156 63.308594 L 76.324219 61.484375 L 76.324219 44.863281 L 38.949219 40.429688 C 38.949219 40.429688 35.117188 41.214844 34.582031 41.605469 C 29.605469 45.710938 13.675781 68.652344 13.675781 68.652344 Z M 13.675781 68.652344 "/>
<path style=" stroke:none;fill-rule:nonzero;fill:rgb(93.333334%,33.333334%,26.666668%);fill-opacity:1;" d="M 29.613281 47.109375 C 29.613281 47.109375 28.609375 57.875 40.902344 59.515625 L 34.632812 64.382812 C 34.632812 64.382812 24.410156 60.914062 23.96875 54.410156 C 25.726562 51.886719 27.609375 49.453125 29.613281 47.109375 Z M 29.613281 47.109375 "/>
<path style=" stroke:none;fill-rule:nonzero;fill:rgb(93.333334%,80.000001%,26.666668%);fill-opacity:1;" d="M 42.410156 39.691406 L 38.960938 40.421875 C 38.960938 40.421875 39.773438 47.535156 50.3125 47.78125 C 60.910156 48.023438 67.871094 40.179688 67.871094 40.179688 L 62.855469 39.691406 Z M 42.410156 39.691406 "/>
<path style=" stroke:none;fill-rule:nonzero;fill:rgb(80.000001%,46.666667%,33.333334%);fill-opacity:1;" d="M 51.125 14.027344 L 38.769531 16.035156 L 39.210938 18.285156 L 37.203125 25.765625 L 39.210938 26.191406 L 38.960938 28.078125 L 40.402344 28.988281 L 40.277344 30.082031 C 40.277344 30.082031 41.90625 30.691406 40.902344 31.605469 C 40.023438 32.515625 39.210938 34.28125 43.664062 34.523438 C 46.359375 34.707031 47.738281 35.921875 45.480469 39.691406 L 50.3125 42.308594 L 61.035156 40.359375 Z M 51.125 14.027344 "/>
<path style=" stroke:none;fill-rule:nonzero;fill:rgb(21.960784%,25.098041%,27.843139%);fill-opacity:1;" d="M 40.902344 19.199219 C 41.34375 19.5625 41.53125 19.199219 42.722656 19.015625 C 43.789062 18.773438 45.859375 19.441406 46.171875 19.804688 C 46.484375 20.171875 45.921875 17.738281 42.21875 18.164062 C 42.21875 18.164062 39.960938 18.589844 40.902344 19.199219 Z M 40.464844 20.230469 C 40.464844 20.230469 41.46875 20.535156 42.535156 20.230469 C 43.539062 19.867188 44.917969 19.929688 45.605469 20.535156 C 45.605469 20.535156 44.101562 20.292969 42.910156 20.71875 C 42.910156 20.71875 43.222656 21.933594 42.472656 22.054688 C 41.71875 22.238281 41.65625 20.839844 41.65625 20.839844 C 41.65625 20.839844 40.839844 20.71875 40.464844 20.230469 Z M 49.683594 14.757812 C 49.683594 14.757812 49.683594 29.292969 48.242188 32.636719 C 48.242188 32.636719 44.476562 41.273438 64.859375 37.929688 C 64.859375 37.929688 66.429688 34.21875 62.664062 33.609375 C 63.855469 27.40625 63.230469 20.960938 63.292969 14.757812 Z M 49.683594 14.757812 "/>
<path style=" stroke:none;fill-rule:nonzero;fill:rgb(43.529412%,48.235294%,52.549022%);fill-opacity:1;" d="M 58.777344 14.332031 L 59.78125 14.332031 C 60.390625 20 59.945312 25.726562 58.464844 31.238281 C 60.03125 21.996094 58.777344 14.332031 58.777344 14.332031 Z M 48.867188 14.941406 L 50.183594 15.0625 C 50.714844 20.878906 50.097656 26.742188 48.367188 32.332031 C 48.804688 26.980469 48.867188 15.003906 48.867188 15.003906 Z M 48.367188 32.332031 C 46.925781 38.414062 56.707031 38.71875 56.707031 38.71875 C 52.003906 38.902344 48.992188 37.746094 48.054688 35.679688 C 47.113281 33.609375 48.367188 32.332031 48.367188 32.332031 Z M 53.382812 15.003906 L 54.386719 15.0625 C 54.988281 20.710938 54.542969 26.414062 53.070312 31.90625 C 54.636719 22.664062 53.382812 15.003906 53.382812 15.003906 Z M 63.167969 15.550781 C 65.050781 18.589844 63.667969 31.785156 62.726562 33.488281 C 65.175781 34.097656 65.988281 35.496094 64.859375 37.929688 C 64.859375 37.929688 65.613281 36.105469 62.980469 34.707031 C 62.351562 34.460938 61.726562 34.339844 61.601562 34.707031 C 62.539062 35.800781 62.855469 37.199219 59.96875 38.355469 C 59.96875 38.355469 62.289062 36.894531 60.785156 34.582031 C 60.535156 35.007812 56.582031 33.488281 56.207031 34.28125 C 57.460938 35.3125 58.464844 37.015625 55.203125 38.414062 C 55.203125 38.414062 57.710938 36.773438 55.828125 34.339844 C 54.890625 34.097656 52.378906 33.609375 52.191406 34.460938 C 52.820312 35.191406 52.945312 36.164062 50.4375 37.015625 C 50.4375 37.015625 53.886719 35.738281 50.5 33.367188 C 50.5 33.367188 53.886719 32.882812 57.460938 32.882812 C 59.339844 32.882812 61.222656 33.0625 62.664062 33.488281 C 63.230469 29.109375 62.164062 16.15625 62.164062 16.15625 Z M 63.167969 15.550781 "/>
<path style=" stroke:none;fill-rule:nonzero;fill:rgb(21.960784%,25.098041%,27.843139%);fill-opacity:1;" d="M 39.148438 26.738281 C 39.148438 26.738281 41.089844 25.828125 42.910156 27.226562 C 43.789062 27.957031 44.792969 28.078125 45.292969 27.46875 C 45.292969 27.46875 44.980469 29.171875 42.847656 28.199219 C 40.714844 27.285156 38.960938 28.078125 38.960938 28.078125 Z M 39.148438 26.738281 "/>
<path style=" stroke:none;fill-rule:nonzero;fill:rgb(93.333334%,33.333334%,26.666668%);fill-opacity:1;" d="M 38.457031 14.394531 L 36.011719 7.949219 L 35.511719 6.730469 C 35.511719 6.730469 43.914062 9.042969 48.179688 6.550781 C 48.179688 6.550781 54.699219 10.5625 65.550781 8.617188 L 63.417969 14.027344 Z M 38.457031 14.394531 "/>
<path style=" stroke:none;fill-rule:nonzero;fill:rgb(93.333334%,80.000001%,26.666668%);fill-opacity:1;" d="M 63.042969 15.0625 C 63.042969 15.0625 47.550781 15.0625 38.769531 16.035156 L 38.457031 14.394531 C 38.457031 14.394531 50.375 13.601562 63.167969 13.90625 Z M 63.042969 15.0625 "/>
<path style=" stroke:none;fill-rule:nonzero;fill:rgb(93.333334%,33.333334%,26.666668%);fill-opacity:1;" d="M 67.871094 40.179688 L 72.761719 41.394531 C 66.992188 48.996094 60.09375 56.597656 53.320312 64.136719 L 45.230469 65.050781 Z M 67.871094 40.179688 "/>
<path style=" stroke:none;fill-rule:nonzero;fill:rgb(21.960784%,25.098041%,27.843139%);fill-opacity:1;" d="M 66.929688 44.984375 L 69.753906 44.070312 L 70.003906 41.457031 L 67.117188 42.308594 Z M 63.480469 48.933594 L 66.304688 48.085938 L 66.492188 45.410156 L 63.667969 46.320312 Z M 60.03125 52.949219 L 62.855469 52.035156 L 63.105469 49.421875 L 60.21875 50.273438 Z M 56.644531 56.902344 L 59.46875 55.988281 L 59.71875 53.375 L 56.832031 54.226562 Z M 53.195312 60.855469 L 56.019531 60.003906 L 56.207031 57.328125 L 53.382812 58.238281 Z M 52.820312 61.28125 L 52.632812 63.957031 L 51.25 64.382812 L 49.808594 64.503906 L 49.996094 62.191406 Z M 52.820312 61.28125 "/>
<path style=" stroke:none;fill-rule:nonzero;fill:rgb(93.333334%,80.000001%,26.666668%);fill-opacity:1;" d="M 73.578125 41.578125 C 73.578125 41.578125 76.335938 42.003906 76.335938 43.523438 L 60.03125 63.347656 L 54.011719 64.015625 Z M 73.578125 41.578125 "/>
<path style=" stroke:none;fill-rule:nonzero;fill:rgb(21.960784%,25.098041%,27.843139%);fill-opacity:1;" d="M 64.984375 39.570312 L 67.933594 40.179688 L 45.417969 64.988281 L 41.027344 65.539062 C 36.636719 60.671875 56.269531 48.023438 64.984375 39.570312 Z M 64.984375 39.570312 "/>
<path style=" stroke:none;fill-rule:nonzero;fill:rgb(46.666667%,46.666667%,80.000001%);fill-opacity:1;" d="M 64.984375 39.570312 L 65.800781 42.550781 L 60.785156 44.253906 L 60.09375 48.691406 L 55.328125 50.03125 L 54.953125 54.285156 L 50.121094 55.625 C 54.121094 49.507812 59.144531 44.082031 64.984375 39.570312 Z M 50.121094 55.625 L 49.246094 60.488281 L 45.230469 60.914062 C 46.5 58.867188 48.160156 57.070312 50.121094 55.625 Z M 50.121094 55.625 "/>
<path style=" stroke:none;fill-rule:nonzero;fill:rgb(93.333334%,33.333334%,26.666668%);fill-opacity:1;" d="M 64.171875 39.449219 L 64.984375 39.570312 L 45.230469 60.914062 L 33.753906 61.339844 Z M 64.171875 39.449219 "/>
<path style=" stroke:none;fill-rule:nonzero;fill:rgb(21.960784%,25.098041%,27.843139%);fill-opacity:1;" d="M 46.296875 38.050781 L 42.410156 39.691406 C 42.410156 39.691406 45.734375 44.496094 51.816406 44.132812 C 57.960938 43.828125 62.855469 39.691406 62.855469 39.691406 L 59.90625 38.050781 C 59.90625 38.050781 55.957031 40.785156 51.503906 40.910156 C 47.050781 40.96875 46.296875 38.050781 46.296875 38.050781 Z M 46.296875 38.050781 "/>
<path style=" stroke:none;fill-rule:nonzero;fill:rgb(93.333334%,80.000001%,26.666668%);fill-opacity:1;" d="M 35.636719 7.175781 L 38.332031 14.097656 L 39.085938 9.742188 Z M 65.488281 8.554688 C 65.488281 8.554688 57.085938 10.378906 48.117188 6.125 C 48.117188 6.125 43.914062 8.375 35.445312 6.730469 C 35.445312 6.730469 42.15625 9.46875 48.117188 7.097656 C 48.117188 7.097656 53.445312 10.746094 65.488281 8.617188 Z M 65.488281 8.554688 "/>
<path style=" stroke:none;fill-rule:nonzero;fill:rgb(93.333334%,33.333334%,26.666668%);fill-opacity:1;" d="M 62.164062 12.875 C 61.285156 17.679688 63.480469 20.71875 63.480469 20.71875 L 64.109375 19.867188 L 65.363281 20.476562 C 63.355469 17.070312 63.355469 14.027344 63.355469 14.027344 Z M 47.113281 39.632812 L 45.230469 39.996094 L 44.917969 41.578125 L 46.796875 41.273438 Z M 57.460938 39.632812 L 57.210938 41.273438 L 58.777344 42.183594 L 59.089844 40.542969 Z M 55.390625 40.484375 L 54.953125 42.125 L 56.457031 43.097656 L 56.894531 41.515625 Z M 48.617188 40.542969 L 46.988281 41.332031 L 47.175781 42.976562 L 48.804688 42.183594 Z M 53.132812 41.03125 L 52.191406 42.429688 L 53.320312 43.828125 L 54.261719 42.367188 Z M 50.875 41.152344 L 49.496094 42.308594 L 50.183594 43.828125 L 51.503906 42.671875 Z M 50.875 41.152344 "/>
<path style=" stroke:none;fill-rule:nonzero;fill:rgb(29.803923%,32.941177%,36.078432%);fill-opacity:1;" d="M 32.5 60.1875 C 32.5 60.1875 36.511719 61.28125 34.882812 66.207031 L 13.683594 68.640625 Z M 32.5 60.1875 "/>
<path style=" stroke:none;fill-rule:nonzero;fill:rgb(80.000001%,46.666667%,33.333334%);fill-opacity:1;" d="M 36.574219 58.605469 C 36.574219 58.605469 40.839844 57.265625 42.21875 55.5625 C 42.21875 55.5625 43.664062 55.441406 43.726562 55.5625 C 43.726562 55.746094 43.789062 56.71875 44.039062 56.78125 C 44.289062 56.902344 45.230469 57.085938 45.292969 57.386719 C 45.292969 57.753906 45.105469 58.847656 45.292969 59.03125 C 45.542969 59.273438 46.046875 59.515625 45.921875 60.246094 C 45.667969 61.039062 46.296875 61.644531 46.296875 61.828125 C 46.296875 62.011719 44.101562 63.894531 40.652344 65.171875 C 40.652344 65.171875 37.515625 59.089844 36.574219 58.605469 Z M 36.574219 58.605469 "/>
<path style=" stroke:none;fill-rule:nonzero;fill:rgb(21.960784%,25.098041%,27.843139%);fill-opacity:1;" d="M 35.511719 57.996094 C 35.511719 57.996094 37.640625 62.4375 38.769531 65.78125 L 40.964844 65.539062 C 41.28125 65.414062 42.09375 59.457031 37.703125 56.78125 Z M 35.511719 57.996094 "/>
<path style=" stroke:none;fill-rule:nonzero;fill:rgb(93.333334%,86.666667%,86.666667%);fill-opacity:1;" d="M 76.335938 43.523438 L 76.335938 44.859375 L 60.660156 63.289062 L 59.46875 63.410156 Z M 72.761719 41.394531 L 73.578125 41.578125 L 54.636719 63.957031 L 53.382812 64.136719 Z M 72.761719 41.394531 "/>
<path style=" stroke:none;fill-rule:nonzero;fill:rgb(93.333334%,80.000001%,26.666668%);fill-opacity:1;" d="M 36.261719 58.605469 C 38.832031 60.734375 38.769531 64.988281 38.769531 65.78125 L 34.882812 66.207031 C 35.070312 64.136719 33.753906 61.339844 32.5 60.125 Z M 36.261719 58.605469 "/>
<path style=" stroke:none;fill-rule:nonzero;fill:rgb(65.098041%,66.666669%,67.058825%);fill-opacity:1;" d="M 37.894531 58.300781 L 41.65625 54.589844 L 30.492188 33.488281 C 30.492188 33.488281 27.355469 27.652344 19.644531 27.957031 Z M 37.894531 58.300781 "/>
<path style=" stroke:none;fill-rule:nonzero;fill:rgb(82.745099%,83.137256%,83.137256%);fill-opacity:1;" d="M 23.34375 30.753906 C 27.734375 32.089844 28.609375 34.402344 28.609375 34.402344 L 40.339844 55.261719 L 39.210938 55.867188 Z M 23.34375 30.753906 "/>
<path style=" stroke:none;fill-rule:nonzero;fill:rgb(59.215689%,60.000002%,60.784316%);fill-opacity:1;" d="M 39.648438 56.171875 L 39.023438 57.023438 L 23.34375 30.753906 Z M 39.648438 56.171875 "/>
<path style=" stroke:none;fill-rule:nonzero;fill:rgb(81.960785%,82.352942%,82.352942%);fill-opacity:1;" d="M 43.476562 52.460938 C 43.476562 52.460938 44.601562 52.460938 46.296875 53.191406 C 46.296875 53.191406 43.035156 54.226562 41.34375 56.71875 C 39.710938 59.152344 34.882812 59.761719 33.503906 59.210938 L 34.820312 58.238281 L 37.140625 56.839844 Z M 43.476562 52.460938 "/>
<path style=" stroke:none;fill-rule:nonzero;fill:rgb(71.764708%,72.549021%,72.549021%);fill-opacity:1;" d="M 42.785156 52.339844 C 42.996094 52.367188 43.207031 52.40625 43.410156 52.460938 C 43.410156 52.460938 41.21875 54.105469 40.023438 55.988281 C 38.894531 57.9375 34.820312 58.300781 34.820312 58.300781 L 36.511719 56.476562 L 37.640625 56.476562 C 38.960938 55.6875 39.898438 54.589844 40.902344 53.4375 L 40.589844 52.644531 C 40.589844 52.644531 41.78125 52.402344 42.785156 52.402344 Z M 42.785156 52.339844 "/>
<path style=" stroke:none;fill-rule:nonzero;fill:rgb(83.92157%,84.313726%,84.313726%);fill-opacity:1;" d="M 18.386719 27.40625 L 36.511719 56.535156 L 37.640625 56.414062 L 20.960938 28.804688 C 20.519531 28.320312 18.386719 27.46875 18.386719 27.46875 Z M 18.386719 27.40625 "/>
<path style=" stroke:none;fill-rule:nonzero;fill:rgb(71.372551%,72.549021%,72.941178%);fill-opacity:1;" d="M 20.960938 28.804688 C 20.960938 28.804688 26.980469 28.078125 30.492188 33.488281 C 30.492188 33.488281 27.921875 26.375 18.386719 27.40625 "/>
<path style=" stroke:none;fill-rule:nonzero;fill:rgb(93.333334%,86.666667%,86.666667%);fill-opacity:1;" d="M 72.449219 45.410156 L 74.957031 44.617188 L 75.144531 42.183594 L 72.636719 43.035156 Z M 69.375 49.058594 L 71.886719 48.207031 L 72.074219 45.835938 L 69.566406 46.625 Z M 66.367188 52.644531 L 68.875 51.855469 L 69.0625 49.421875 L 66.554688 50.273438 Z M 63.292969 56.234375 L 65.800781 55.441406 L 65.988281 53.011719 L 63.480469 53.859375 Z M 60.21875 59.882812 L 62.726562 59.03125 L 62.917969 56.660156 L 60.40625 57.449219 Z M 57.335938 63.289062 L 59.84375 62.496094 L 60.03125 60.0625 L 57.523438 60.914062 Z M 57.335938 63.289062 "/>
<path style=" stroke:none;fill-rule:nonzero;fill:rgb(93.333334%,80.000001%,26.666668%);fill-opacity:1;" d="M 48.242188 13.054688 L 49.996094 10.625 L 48.117188 8.191406 L 46.359375 10.625 Z M 48.242188 13.054688 "/>
<path style=" stroke:none;fill-rule:nonzero;fill:rgb(93.333334%,86.666667%,86.666667%);fill-opacity:1;" d="M 35.589844 66.699219 L 35.40625 66.101562 L 36.515625 64.90625 L 36.699219 65.984375 Z M 35.589844 66.699219 "/>
<path style=" stroke:none;fill-rule:nonzero;fill:rgb(93.333334%,80.000001%,26.666668%);fill-opacity:1;" d="M 35.835938 63.472656 L 38.792969 65.746094 L 37.191406 67.835938 L 34.972656 66.164062 Z M 54.625 63.953125 L 57.398438 63.296875 L 59.554688 63.355469 L 56.226562 65.566406 Z M 54.625 63.953125 "/>
<path style=" stroke:none;fill-rule:nonzero;fill:rgb(93.333334%,86.666667%,86.666667%);fill-opacity:1;" d="M 60.660156 62.460938 L 60.722656 63.234375 L 59.738281 64.191406 L 59.675781 63.296875 Z M 54.378906 63.296875 L 54.6875 63.894531 L 53.453125 65.027344 L 53.394531 64.070312 Z M 54.378906 63.296875 "/>
<path style=" stroke:none;fill-rule:nonzero;fill:rgb(21.960784%,25.098041%,27.843139%);fill-opacity:1;" d="M 76.355469 61.402344 L 62.710938 65.703125 L 29.371094 66.746094 L 13.707031 68.570312 L 13.707031 85.191406 L 51.082031 89.625 C 51.082031 89.625 54.914062 88.84375 55.449219 88.449219 C 60.425781 84.34375 76.355469 61.402344 76.355469 61.402344 Z M 76.355469 61.402344 "/>
<path style=" stroke:none;fill-rule:nonzero;fill:rgb(93.333334%,33.333334%,26.666668%);fill-opacity:1;" d="M 60.414062 82.945312 C 60.414062 82.945312 61.417969 72.179688 49.128906 70.539062 L 55.398438 65.671875 C 55.398438 65.671875 65.621094 69.140625 66.058594 75.644531 C 64.304688 78.167969 62.421875 80.605469 60.414062 82.945312 Z M 60.414062 82.945312 "/>
<path style=" stroke:none;fill-rule:nonzero;fill:rgb(93.333334%,80.000001%,26.666668%);fill-opacity:1;" d="M 47.621094 90.363281 L 51.070312 89.632812 C 51.070312 89.632812 50.257812 82.519531 39.71875 82.273438 C 29.121094 82.03125 22.160156 89.875 22.160156 89.875 L 27.175781 90.363281 Z M 47.621094 90.363281 "/>
<path style=" stroke:none;fill-rule:nonzero;fill:rgb(80.000001%,46.666667%,33.333334%);fill-opacity:1;" d="M 38.90625 116.027344 L 51.257812 114.019531 L 50.820312 111.769531 L 52.828125 104.289062 L 50.820312 103.863281 L 51.070312 101.976562 L 49.628906 101.066406 L 49.753906 99.972656 C 49.753906 99.972656 48.125 99.363281 49.128906 98.449219 C 50.003906 97.539062 50.820312 95.773438 46.367188 95.53125 C 43.671875 95.351562 42.289062 94.132812 44.546875 90.363281 L 39.71875 87.75 L 28.996094 89.695312 Z M 38.90625 116.027344 "/>
<path style=" stroke:none;fill-rule:nonzero;fill:rgb(21.960784%,25.098041%,27.843139%);fill-opacity:1;" d="M 49.128906 110.855469 C 48.6875 110.492188 48.5 110.855469 47.308594 111.039062 C 46.242188 111.28125 44.171875 110.613281 43.859375 110.25 C 43.546875 109.882812 44.109375 112.316406 47.808594 111.890625 C 47.808594 111.890625 50.066406 111.464844 49.128906 110.855469 Z M 49.566406 109.824219 C 49.566406 109.824219 48.5625 109.519531 47.496094 109.824219 C 46.492188 110.1875 45.113281 110.128906 44.421875 109.519531 C 44.421875 109.519531 45.929688 109.761719 47.121094 109.335938 C 47.121094 109.335938 46.804688 108.121094 47.558594 108 C 48.3125 107.816406 48.375 109.214844 48.375 109.214844 C 48.375 109.214844 49.191406 109.335938 49.566406 109.824219 Z M 40.347656 115.296875 C 40.347656 115.296875 40.347656 100.761719 41.789062 97.417969 C 41.789062 97.417969 45.550781 88.78125 25.167969 92.125 C 25.167969 92.125 23.601562 95.835938 27.363281 96.445312 C 26.171875 102.648438 26.800781 109.09375 26.738281 115.296875 Z M 40.347656 115.296875 "/>
<path style=" stroke:none;fill-rule:nonzero;fill:rgb(43.529412%,48.235294%,52.549022%);fill-opacity:1;" d="M 31.253906 115.722656 L 30.25 115.722656 C 29.640625 110.054688 30.085938 104.328125 31.566406 98.816406 C 30 108.058594 31.253906 115.722656 31.253906 115.722656 Z M 41.164062 115.113281 L 39.84375 114.992188 C 39.316406 109.175781 39.933594 103.3125 41.664062 97.722656 C 41.226562 103.074219 41.164062 115.054688 41.164062 115.054688 Z M 41.664062 97.722656 C 43.105469 91.640625 33.324219 91.335938 33.324219 91.335938 C 38.027344 91.152344 41.035156 92.308594 41.976562 94.375 C 42.917969 96.445312 41.664062 97.722656 41.664062 97.722656 Z M 36.648438 115.054688 L 35.644531 114.992188 C 35.042969 109.347656 35.488281 103.640625 36.960938 98.148438 C 35.390625 107.390625 36.648438 115.054688 36.648438 115.054688 Z M 26.863281 114.503906 C 24.980469 111.464844 26.359375 98.269531 27.300781 96.566406 C 24.855469 95.957031 24.039062 94.558594 25.167969 92.125 C 25.167969 92.125 24.417969 93.949219 27.050781 95.351562 C 27.679688 95.59375 28.304688 95.714844 28.429688 95.351562 C 27.488281 94.253906 27.175781 92.855469 30.0625 91.699219 C 30.0625 91.699219 27.742188 93.160156 29.246094 95.472656 C 29.496094 95.046875 33.449219 96.566406 33.824219 95.773438 C 32.570312 94.742188 31.566406 93.039062 34.828125 91.640625 C 34.828125 91.640625 32.320312 93.28125 34.199219 95.714844 C 35.140625 95.957031 37.648438 96.445312 37.839844 95.59375 C 37.210938 94.863281 37.085938 93.890625 39.59375 93.039062 C 39.59375 93.039062 36.144531 94.316406 39.53125 96.6875 C 39.53125 96.6875 36.144531 97.175781 32.570312 97.175781 C 30.6875 97.175781 28.808594 96.992188 27.363281 96.566406 C 26.800781 100.945312 27.867188 113.898438 27.867188 113.898438 Z M 26.863281 114.503906 "/>
<path style=" stroke:none;fill-rule:nonzero;fill:rgb(21.960784%,25.098041%,27.843139%);fill-opacity:1;" d="M 50.882812 103.316406 C 50.882812 103.316406 48.9375 104.226562 47.121094 102.828125 C 46.242188 102.101562 45.238281 101.976562 44.738281 102.585938 C 44.738281 102.585938 45.050781 100.882812 47.183594 101.855469 C 49.316406 102.769531 51.070312 101.976562 51.070312 101.976562 Z M 50.882812 103.316406 "/>
<path style=" stroke:none;fill-rule:nonzero;fill:rgb(93.333334%,33.333334%,26.666668%);fill-opacity:1;" d="M 51.574219 115.660156 L 54.019531 122.105469 L 54.519531 123.324219 C 54.519531 123.324219 46.117188 121.011719 41.851562 123.507812 C 41.851562 123.507812 35.328125 119.492188 24.480469 121.4375 L 26.613281 116.027344 Z M 51.574219 115.660156 "/>
<path style=" stroke:none;fill-rule:nonzero;fill:rgb(93.333334%,80.000001%,26.666668%);fill-opacity:1;" d="M 26.988281 114.992188 C 26.988281 114.992188 42.480469 114.992188 51.257812 114.019531 L 51.574219 115.660156 C 51.574219 115.660156 39.65625 116.453125 26.863281 116.148438 Z M 26.988281 114.992188 "/>
<path style=" stroke:none;fill-rule:nonzero;fill:rgb(93.333334%,33.333334%,26.666668%);fill-opacity:1;" d="M 22.160156 89.875 L 17.265625 88.660156 C 23.039062 81.058594 29.9375 73.457031 36.710938 65.917969 L 44.800781 65.003906 Z M 22.160156 89.875 "/>
<path style=" stroke:none;fill-rule:nonzero;fill:rgb(21.960784%,25.098041%,27.843139%);fill-opacity:1;" d="M 23.101562 85.074219 L 20.277344 85.984375 L 20.027344 88.597656 L 22.910156 87.75 Z M 26.550781 81.121094 L 23.726562 81.972656 L 23.539062 84.648438 L 26.359375 83.734375 Z M 30 77.105469 L 27.175781 78.019531 L 26.925781 80.632812 L 29.8125 79.78125 Z M 33.386719 73.152344 L 30.5625 74.066406 L 30.3125 76.679688 L 33.195312 75.828125 Z M 36.835938 69.199219 L 34.011719 70.050781 L 33.824219 72.726562 L 36.648438 71.816406 Z M 37.210938 68.773438 L 37.398438 66.097656 L 38.777344 65.671875 L 40.222656 65.550781 L 40.03125 67.863281 Z M 37.210938 68.773438 "/>
<path style=" stroke:none;fill-rule:nonzero;fill:rgb(93.333334%,80.000001%,26.666668%);fill-opacity:1;" d="M 16.453125 88.476562 C 16.453125 88.476562 13.691406 88.050781 13.691406 86.53125 L 30 66.707031 L 36.019531 66.039062 Z M 16.453125 88.476562 "/>
<path style=" stroke:none;fill-rule:nonzero;fill:rgb(21.960784%,25.098041%,27.843139%);fill-opacity:1;" d="M 25.042969 90.484375 L 22.097656 89.875 L 44.613281 65.066406 L 49 64.519531 C 53.390625 69.382812 33.761719 82.03125 25.042969 90.484375 Z M 25.042969 90.484375 "/>
<path style=" stroke:none;fill-rule:nonzero;fill:rgb(46.666667%,46.666667%,80.000001%);fill-opacity:1;" d="M 25.042969 90.484375 L 24.230469 87.503906 L 29.246094 85.800781 L 29.9375 81.363281 L 34.703125 80.023438 L 35.078125 75.769531 L 39.90625 74.429688 C 35.910156 80.546875 30.886719 85.972656 25.042969 90.484375 Z M 39.90625 74.429688 L 40.785156 69.566406 L 44.800781 69.140625 C 43.53125 71.191406 41.871094 72.984375 39.90625 74.429688 Z M 39.90625 74.429688 "/>
<path style=" stroke:none;fill-rule:nonzero;fill:rgb(93.333334%,33.333334%,26.666668%);fill-opacity:1;" d="M 25.859375 90.605469 L 25.042969 90.484375 L 44.800781 69.140625 L 56.277344 68.714844 Z M 25.859375 90.605469 "/>
<path style=" stroke:none;fill-rule:nonzero;fill:rgb(21.960784%,25.098041%,27.843139%);fill-opacity:1;" d="M 43.734375 92.003906 L 47.621094 90.363281 C 47.621094 90.363281 44.296875 85.558594 38.214844 85.921875 C 32.066406 86.226562 27.175781 90.363281 27.175781 90.363281 L 30.125 92.003906 C 30.125 92.003906 34.074219 89.269531 38.527344 89.148438 C 42.980469 89.085938 43.734375 92.003906 43.734375 92.003906 Z M 43.734375 92.003906 "/>
<path style=" stroke:none;fill-rule:nonzero;fill:rgb(93.333334%,80.000001%,26.666668%);fill-opacity:1;" d="M 54.394531 122.878906 L 51.699219 115.960938 L 50.945312 120.3125 Z M 24.542969 121.5 C 24.542969 121.5 32.945312 119.675781 41.914062 123.929688 C 41.914062 123.929688 46.117188 121.679688 54.582031 123.324219 C 54.582031 123.324219 47.871094 120.585938 41.914062 122.957031 C 41.914062 122.957031 36.582031 119.308594 24.542969 121.4375 Z M 24.542969 121.5 "/>
<path style=" stroke:none;fill-rule:nonzero;fill:rgb(93.333334%,33.333334%,26.666668%);fill-opacity:1;" d="M 27.867188 117.179688 C 28.746094 112.378906 26.550781 109.335938 26.550781 109.335938 L 25.921875 110.1875 L 24.667969 109.578125 C 26.675781 112.984375 26.675781 116.027344 26.675781 116.027344 Z M 42.917969 90.425781 L 44.800781 90.058594 L 45.113281 88.476562 L 43.230469 88.78125 Z M 32.570312 90.425781 L 32.820312 88.78125 L 31.253906 87.871094 L 30.9375 89.511719 Z M 34.640625 89.574219 L 35.078125 87.929688 L 33.574219 86.957031 L 33.132812 88.539062 Z M 41.414062 89.511719 L 43.042969 88.722656 L 42.855469 87.078125 L 41.226562 87.871094 Z M 36.898438 89.023438 L 37.839844 87.625 L 36.710938 86.226562 L 35.769531 87.6875 Z M 39.15625 88.902344 L 40.535156 87.75 L 39.84375 86.226562 L 38.527344 87.382812 Z M 39.15625 88.902344 "/>
<path style=" stroke:none;fill-rule:nonzero;fill:rgb(29.803923%,32.941177%,36.078432%);fill-opacity:1;" d="M 57.53125 69.871094 C 57.53125 69.871094 53.515625 68.773438 55.148438 63.847656 L 76.347656 61.417969 Z M 57.53125 69.871094 "/>
<path style=" stroke:none;fill-rule:nonzero;fill:rgb(80.000001%,46.666667%,33.333334%);fill-opacity:1;" d="M 53.453125 71.449219 C 53.453125 71.449219 49.191406 72.789062 47.808594 74.492188 C 47.808594 74.492188 46.367188 74.613281 46.304688 74.492188 C 46.304688 74.308594 46.242188 73.335938 45.992188 73.273438 C 45.742188 73.152344 44.800781 72.96875 44.738281 72.667969 C 44.738281 72.300781 44.925781 71.207031 44.738281 71.023438 C 44.484375 70.78125 43.984375 70.539062 44.109375 69.808594 C 44.359375 69.019531 43.734375 68.410156 43.734375 68.226562 C 43.734375 68.042969 45.929688 66.160156 49.378906 64.882812 C 49.378906 64.882812 52.515625 70.964844 53.453125 71.449219 Z M 53.453125 71.449219 "/>
<path style=" stroke:none;fill-rule:nonzero;fill:rgb(21.960784%,25.098041%,27.843139%);fill-opacity:1;" d="M 54.519531 72.058594 C 54.519531 72.058594 52.386719 67.621094 51.257812 64.273438 L 49.0625 64.519531 C 48.75 64.640625 47.933594 70.597656 52.324219 73.273438 Z M 54.519531 72.058594 "/>
<path style=" stroke:none;fill-rule:nonzero;fill:rgb(93.333334%,86.666667%,86.666667%);fill-opacity:1;" d="M 13.691406 86.53125 L 13.691406 85.195312 L 29.371094 66.769531 L 30.5625 66.644531 Z M 17.265625 88.660156 L 16.453125 88.476562 L 35.390625 66.097656 L 36.648438 65.917969 Z M 17.265625 88.660156 "/>
<path style=" stroke:none;fill-rule:nonzero;fill:rgb(93.333334%,80.000001%,26.666668%);fill-opacity:1;" d="M 53.769531 71.449219 C 51.195312 69.320312 51.257812 65.066406 51.257812 64.273438 L 55.148438 63.847656 C 54.960938 65.917969 56.277344 68.714844 57.53125 69.929688 Z M 53.769531 71.449219 "/>
<path style=" stroke:none;fill-rule:nonzero;fill:rgb(65.098041%,66.666669%,67.058825%);fill-opacity:1;" d="M 52.136719 71.753906 L 48.375 75.464844 L 59.539062 96.566406 C 59.539062 96.566406 62.671875 102.402344 70.386719 102.101562 Z M 52.136719 71.753906 "/>
<path style=" stroke:none;fill-rule:nonzero;fill:rgb(82.745099%,83.137256%,83.137256%);fill-opacity:1;" d="M 66.6875 99.300781 C 62.296875 97.964844 61.417969 95.652344 61.417969 95.652344 L 49.691406 74.796875 L 50.820312 74.1875 Z M 66.6875 99.300781 "/>
<path style=" stroke:none;fill-rule:nonzero;fill:rgb(59.215689%,60.000002%,60.784316%);fill-opacity:1;" d="M 50.382812 73.882812 L 51.007812 73.03125 L 66.6875 99.300781 Z M 50.382812 73.882812 "/>
<path style=" stroke:none;fill-rule:nonzero;fill:rgb(81.960785%,82.352942%,82.352942%);fill-opacity:1;" d="M 46.554688 77.59375 C 46.554688 77.59375 45.425781 77.59375 43.734375 76.863281 C 43.734375 76.863281 46.996094 75.828125 48.6875 73.335938 C 50.320312 70.902344 55.148438 70.292969 56.527344 70.84375 L 55.210938 71.816406 L 52.890625 73.214844 Z M 46.554688 77.59375 "/>
<path style=" stroke:none;fill-rule:nonzero;fill:rgb(71.764708%,72.549021%,72.549021%);fill-opacity:1;" d="M 47.246094 77.714844 C 47.035156 77.691406 46.824219 77.648438 46.617188 77.59375 C 46.617188 77.59375 48.8125 75.949219 50.003906 74.066406 C 51.132812 72.121094 55.210938 71.753906 55.210938 71.753906 L 53.515625 73.578125 L 52.386719 73.578125 C 51.070312 74.371094 50.128906 75.464844 49.128906 76.621094 L 49.441406 77.410156 C 49.441406 77.410156 48.25 77.652344 47.246094 77.652344 Z M 47.246094 77.714844 "/>
<path style=" stroke:none;fill-rule:nonzero;fill:rgb(83.92157%,84.313726%,84.313726%);fill-opacity:1;" d="M 71.640625 102.648438 L 53.515625 73.519531 L 52.386719 73.640625 L 69.070312 101.25 C 69.507812 101.734375 71.640625 102.585938 71.640625 102.585938 Z M 71.640625 102.648438 "/>
<path style=" stroke:none;fill-rule:nonzero;fill:rgb(71.372551%,72.549021%,72.941178%);fill-opacity:1;" d="M 69.070312 101.25 C 69.070312 101.25 63.050781 101.976562 59.539062 96.566406 C 59.539062 96.566406 62.109375 103.679688 71.640625 102.648438 "/>
<path style=" stroke:none;fill-rule:nonzero;fill:rgb(93.333334%,86.666667%,86.666667%);fill-opacity:1;" d="M 17.582031 84.648438 L 15.074219 85.4375 L 14.882812 87.871094 L 17.394531 87.019531 Z M 20.652344 80.996094 L 18.144531 81.847656 L 17.957031 84.222656 L 20.464844 83.429688 Z M 23.664062 77.410156 L 21.15625 78.199219 L 20.96875 80.632812 L 23.476562 79.78125 Z M 26.738281 73.820312 L 24.230469 74.613281 L 24.039062 77.046875 L 26.550781 76.195312 Z M 29.8125 70.171875 L 27.300781 71.023438 L 27.113281 73.394531 L 29.621094 72.605469 Z M 32.695312 66.769531 L 30.1875 67.558594 L 30 69.992188 L 32.507812 69.140625 Z M 32.695312 66.769531 "/>
<path style=" stroke:none;fill-rule:nonzero;fill:rgb(93.333334%,80.000001%,26.666668%);fill-opacity:1;" d="M 41.789062 117 L 40.03125 119.429688 L 41.914062 121.863281 L 43.671875 119.429688 Z M 41.789062 117 "/>
<path style=" stroke:none;fill-rule:nonzero;fill:rgb(93.333334%,33.333334%,26.666668%);fill-opacity:1;" d="M 7.914062 21.617188 C 6.726562 23.898438 4.804688 26.011719 3.472656 27.152344 C 4.804688 28.292969 6.726562 30.460938 7.914062 32.742188 C 9.097656 30.460938 11.019531 28.292969 12.351562 27.152344 C 11.019531 26.011719 9.097656 23.898438 7.914062 21.617188 Z M 7.914062 21.617188 "/>
<path style=" stroke:none;fill-rule:nonzero;fill:rgb(100%,100%,100%);fill-opacity:1;" d="M 86.277344 125.605469 L 77.710938 125.605469 L 77.710938 95.515625 L 86.277344 95.515625 Z M 86.277344 125.605469 "/>
<path style=" stroke:none;fill-rule:nonzero;fill:rgb(93.333334%,33.333334%,26.666668%);fill-opacity:1;" d="M 82.085938 108.382812 C 83.273438 106.101562 85.195312 103.988281 86.527344 102.847656 C 85.195312 101.707031 83.273438 99.539062 82.085938 97.257812 C 80.902344 99.539062 78.980469 101.707031 77.648438 102.847656 C 78.980469 103.988281 80.902344 106.101562 82.085938 108.382812 Z M 82.085938 108.382812 "/>
<path style="fill-rule:nonzero;fill:rgb(93.333334%,33.333334%,26.666668%);fill-opacity:1;stroke-width:0.5;stroke-linecap:butt;stroke-linejoin:round;stroke:rgb(93.333334%,33.333334%,26.666668%);stroke-opacity:1;stroke-miterlimit:4;" d="M 1462.00163 -90.699275 L 1462.00163 -91.802641 L 1468.597117 -91.802641 L 1468.597117 -90.699275 C 1467.539825 -90.712256 1466.998593 -90.381247 1466.998593 -89.401198 L 1466.998593 -76.102399 C 1466.998593 -72.961053 1466.041995 -69.001918 1461.202368 -69.001918 C 1458.33887 -69.001918 1456.350154 -71.091822 1456.400501 -73.402399 C 1456.400501 -75.180765 1457.558488 -76.082928 1458.697594 -76.102399 C 1460.107316 -76.128361 1461.000979 -74.752399 1461.000979 -73.700957 C 1461.000979 -73.201197 1460.79959 -72.701437 1460.598201 -72.500236 C 1460.119903 -71.799274 1459.477976 -71.701918 1458.697594 -71.598072 C 1459.119252 -70.669947 1459.937394 -70.37788 1460.900285 -70.202639 C 1463.549808 -70.202639 1463.700849 -73.772351 1463.700849 -74.60312 L 1463.700849 -89.401198 C 1463.700849 -90.498073 1462.901587 -90.699275 1462.00163 -90.699275 Z M 1462.00163 -90.699275 " transform="matrix(0.62069,0,0,0.601852,-899.999997,60.185179)"/>
<path style="fill-rule:nonzero;fill:rgb(93.333334%,33.333334%,26.666668%);fill-opacity:1;stroke-width:0.5;stroke-linecap:butt;stroke-linejoin:round;stroke:rgb(93.333334%,33.333334%,26.666668%);stroke-opacity:1;stroke-miterlimit:4;" d="M 1462.001398 -90.699298 L 1462.001398 -91.802663 L 1468.596885 -91.802663 L 1468.596885 -90.699298 C 1467.539593 -90.712279 1466.99836 -90.381269 1466.99836 -89.401221 L 1466.99836 -76.102422 C 1466.99836 -72.961075 1466.041763 -69.00194 1461.202136 -69.00194 C 1458.338638 -69.00194 1456.349922 -71.091844 1456.400269 -73.402422 C 1456.400269 -75.180787 1457.558256 -76.082951 1458.697362 -76.102422 C 1460.107084 -76.128383 1461.000747 -74.752422 1461.000747 -73.700979 C 1461.000747 -73.20122 1460.799358 -72.70146 1460.597969 -72.500258 C 1460.119671 -71.799296 1459.477744 -71.701941 1458.697362 -71.598094 C 1459.11902 -70.669969 1459.937162 -70.377902 1460.900053 -70.202662 C 1463.549575 -70.202662 1463.700617 -73.772374 1463.700617 -74.603143 L 1463.700617 -89.401221 C 1463.700617 -90.498096 1462.901355 -90.699298 1462.001398 -90.699298 Z M 1462.001398 -90.699298 " transform="matrix(-0.62069,0.000000000000000074,-0.000000000000000076,-0.601852,989.999853,69.814808)"/>
</g>
</svg>
