<?xml version="1.0" encoding="UTF-8"?>
<svg xmlns="http://www.w3.org/2000/svg" xmlns:xlink="http://www.w3.org/1999/xlink" width="90px" height="130px" viewBox="0 0 90 130" version="1.1">
<g id="surface1">
<path style="fill-rule:nonzero;fill:rgb(100%,100%,100%);fill-opacity:1;stroke-width:3;stroke-linecap:butt;stroke-linejoin:miter;stroke:rgb(21.960784%,25.098041%,27.843139%);stroke-opacity:1;stroke-miterlimit:4;" d="M 9.503126 1.499282 L 135.49706 1.499282 C 139.921323 1.499282 143.502269 5.081974 143.502269 9.501927 L 143.502269 206.498096 C 143.502269 210.918048 139.921323 214.500741 135.49706 214.500741 L 9.503126 214.500741 C 5.078864 214.500741 1.497917 210.918048 1.497917 206.498096 L 1.497917 9.501927 C 1.497917 5.081974 5.078864 1.499282 9.503126 1.499282 Z M 9.503126 1.499282 " transform="matrix(0.62069,0,0,0.601852,-0.0000542867,-0.000001627)"/>
<path style=" stroke:none;fill-rule:nonzero;fill:rgb(93.333334%,33.333334%,26.666668%);fill-opacity:1;" d="M 45 31.117188 C 42.515625 35.929688 38.484375 40.382812 35.691406 42.792969 C 38.484375 45.199219 42.515625 49.773438 45 54.589844 C 47.484375 49.773438 51.515625 45.199219 54.308594 42.792969 C 51.515625 40.382812 47.484375 35.929688 45 31.117188 Z M 45 31.117188 "/>
<path style=" stroke:none;fill-rule:nonzero;fill:rgb(93.333334%,33.333334%,26.666668%);fill-opacity:1;" d="M 45 75.351562 C 42.515625 80.167969 38.484375 84.621094 35.691406 87.027344 C 38.484375 89.433594 42.515625 94.007812 45 98.824219 C 47.484375 94.007812 51.515625 89.433594 54.308594 87.027344 C 51.515625 84.621094 47.484375 80.167969 45 75.351562 Z M 45 75.351562 "/>
<path style=" stroke:none;fill-rule:nonzero;fill:rgb(93.333334%,33.333334%,26.666668%);fill-opacity:1;" d="M 27 8.90625 C 24.515625 13.722656 20.484375 18.175781 17.691406 20.582031 C 20.484375 22.992188 24.515625 27.566406 27 32.378906 C 29.484375 27.566406 33.515625 22.992188 36.308594 20.582031 C 33.515625 18.175781 29.484375 13.722656 27 8.90625 Z M 27 8.90625 "/>
<path style=" stroke:none;fill-rule:nonzero;fill:rgb(93.333334%,33.333334%,26.666668%);fill-opacity:1;" d="M 27 97.378906 C 24.515625 102.195312 20.484375 106.648438 17.691406 109.054688 C 20.484375 111.464844 24.515625 116.035156 27 120.851562 C 29.484375 116.035156 33.515625 111.464844 36.308594 109.054688 C 33.515625 106.648438 29.484375 102.195312 27 97.378906 Z M 27 97.378906 "/>
<path style=" stroke:none;fill-rule:nonzero;fill:rgb(93.333334%,33.333334%,26.666668%);fill-opacity:1;" d="M 27 53.324219 C 24.515625 58.140625 20.484375 62.59375 17.691406 65 C 20.484375 67.40625 24.515625 71.980469 27 76.796875 C 29.484375 71.980469 33.515625 67.40625 36.308594 65 C 33.515625 62.59375 29.484375 58.140625 27 53.324219 Z M 27 53.324219 "/>
<path style=" stroke:none;fill-rule:nonzero;fill:rgb(93.333334%,33.333334%,26.666668%);fill-opacity:1;" d="M 63 8.90625 C 60.515625 13.722656 56.484375 18.175781 53.691406 20.582031 C 56.484375 22.992188 60.515625 27.566406 63 32.378906 C 65.484375 27.566406 69.515625 22.992188 72.308594 20.582031 C 69.515625 18.175781 65.484375 13.722656 63 8.90625 Z M 63 8.90625 "/>
<path style=" stroke:none;fill-rule:nonzero;fill:rgb(93.333334%,33.333334%,26.666668%);fill-opacity:1;" d="M 63 97.378906 C 60.515625 102.195312 56.484375 106.648438 53.691406 109.054688 C 56.484375 111.464844 60.515625 116.035156 63 120.851562 C 65.484375 116.035156 69.515625 111.464844 72.308594 109.054688 C 69.515625 106.648438 65.484375 102.195312 63 97.378906 Z M 63 97.378906 "/>
<path style=" stroke:none;fill-rule:nonzero;fill:rgb(93.333334%,33.333334%,26.666668%);fill-opacity:1;" d="M 63 53.324219 C 60.515625 58.140625 56.484375 62.59375 53.691406 65 C 56.484375 67.40625 60.515625 71.980469 63 76.796875 C 65.484375 71.980469 69.515625 67.40625 72.308594 65 C 69.515625 62.59375 65.484375 58.140625 63 53.324219 Z M 63 53.324219 "/>
<path style=" stroke:none;fill-rule:nonzero;fill:rgb(93.333334%,33.333334%,26.666668%);fill-opacity:1;" d="M 7.914062 21.617188 C 6.726562 23.898438 4.804688 26.011719 3.472656 27.152344 C 4.804688 28.292969 6.726562 30.460938 7.914062 32.742188 C 9.097656 30.460938 11.019531 28.292969 12.351562 27.152344 C 11.019531 26.011719 9.097656 23.898438 7.914062 21.617188 Z M 7.914062 21.617188 "/>
<path style=" stroke:none;fill-rule:nonzero;fill:rgb(93.333334%,33.333334%,26.666668%);fill-opacity:1;" d="M 82.085938 108.382812 C 83.273438 106.101562 85.195312 103.988281 86.527344 102.847656 C 85.195312 101.707031 83.273438 99.539062 82.085938 97.257812 C 80.902344 99.539062 78.980469 101.707031 77.648438 102.847656 C 78.980469 103.988281 80.902344 106.101562 82.085938 108.382812 Z M 82.085938 108.382812 "/>
<path style="fill-rule:nonzero;fill:rgb(93.333334%,33.333334%,26.666668%);fill-opacity:1;stroke-width:0.25;stroke-linecap:butt;stroke-linejoin:miter;stroke:rgb(93.333334%,33.333334%,26.666668%);stroke-opacity:1;stroke-miterlimit:4;" d="M 1027.599481 -91.997352 C 1024.087762 -91.997352 1022.338196 -89.628362 1022.300435 -86.597352 C 1022.268968 -84.37764 1023.62205 -82.742063 1025.000305 -81.898313 C 1022.067579 -80.399034 1021.740322 -77.497832 1021.796963 -75.901197 C 1021.796963 -72.701437 1022.879428 -69.20312 1027.599481 -69.20312 C 1031.482511 -69.20312 1033.401999 -71.578601 1033.401999 -75.797351 C 1033.401999 -78.97764 1032.571269 -80.392544 1030.198656 -81.898313 C 1031.451044 -82.657688 1032.898526 -84.092063 1032.898526 -86.597352 C 1032.898526 -90.381247 1030.418925 -91.997352 1027.599481 -91.997352 Z M 1027.599481 -90.699275 C 1029.827346 -90.647352 1029.959507 -88.2524 1029.997267 -86.499996 C 1029.997267 -85.37716 1029.789585 -82.501919 1027.599481 -82.501919 C 1025.560418 -82.501919 1025.201694 -84.890381 1025.201694 -86.597352 C 1025.201694 -87.882448 1025.440843 -90.751198 1027.599481 -90.699275 Z M 1027.599481 -81.301198 C 1030.24271 -81.301198 1030.400045 -76.861774 1030.400045 -75.797351 C 1030.400045 -74.622591 1030.230123 -70.397351 1027.599481 -70.397351 C 1024.962545 -70.397351 1024.798916 -74.622591 1024.798916 -75.797351 C 1024.849264 -77.861294 1025.101 -80.970188 1027.599481 -81.301198 Z M 1027.599481 -81.301198 " transform="matrix(0.62069,0,0,0.601852,-630.000004,60.185179)"/>
<path style="fill-rule:nonzero;fill:rgb(93.333334%,33.333334%,26.666668%);fill-opacity:1;stroke-width:0.25;stroke-linecap:butt;stroke-linejoin:miter;stroke:rgb(93.333334%,33.333334%,26.666668%);stroke-opacity:1;stroke-miterlimit:4;" d="M 1027.599294 -91.997375 C 1024.087575 -91.997375 1022.338009 -89.628384 1022.300249 -86.597375 C 1022.268782 -84.377663 1023.621864 -82.742086 1025.000119 -81.898336 C 1022.067393 -80.399057 1021.740136 -77.497855 1021.796777 -75.90122 C 1021.796777 -72.70146 1022.879242 -69.203142 1027.599294 -69.203142 C 1031.482324 -69.203142 1033.401812 -71.578623 1033.401812 -75.797374 C 1033.401812 -78.977662 1032.571083 -80.392566 1030.19847 -81.898336 C 1031.450857 -82.657711 1032.89834 -84.092086 1032.89834 -86.597375 C 1032.89834 -90.381269 1030.418739 -91.997375 1027.599294 -91.997375 Z M 1027.599294 -90.699298 C 1029.827159 -90.647375 1029.959321 -88.252423 1029.997081 -86.500019 C 1029.997081 -85.377182 1029.789399 -82.501942 1027.599294 -82.501942 C 1025.560232 -82.501942 1025.201508 -84.890403 1025.201508 -86.597375 C 1025.201508 -87.882471 1025.440657 -90.751221 1027.599294 -90.699298 Z M 1027.599294 -81.30122 C 1030.242524 -81.30122 1030.399859 -76.861797 1030.399859 -75.797374 C 1030.399859 -74.622614 1030.229937 -70.397373 1027.599294 -70.397373 C 1024.962358 -70.397373 1024.79873 -74.622614 1024.79873 -75.797374 C 1024.849077 -77.861316 1025.100813 -80.970211 1027.599294 -81.30122 Z M 1027.599294 -81.30122 " transform="matrix(-0.62069,0.000000000000000074,-0.000000000000000076,-0.601852,719.999889,69.814808)"/>
</g>
</svg>
