<?xml version="1.0" encoding="UTF-8"?>
<svg xmlns="http://www.w3.org/2000/svg" xmlns:xlink="http://www.w3.org/1999/xlink" width="90px" height="130px" viewBox="0 0 90 130" version="1.1">
<g id="surface1">
<path style="fill-rule:nonzero;fill:rgb(100%,100%,100%);fill-opacity:1;stroke-width:3;stroke-linecap:butt;stroke-linejoin:miter;stroke:rgb(21.960784%,25.098041%,27.843139%);stroke-opacity:1;stroke-miterlimit:4;" d="M 9.503057 1.499282 L 135.496991 1.499282 C 139.921253 1.499282 143.5022 5.081974 143.5022 9.501927 L 143.5022 206.498096 C 143.5022 210.918048 139.921253 214.500741 135.496991 214.500741 L 9.503057 214.500741 C 5.078795 214.500741 1.497848 210.918048 1.497848 206.498096 L 1.497848 9.501927 C 1.497848 5.081974 5.078795 1.499282 9.503057 1.499282 Z M 9.503057 1.499282 " transform="matrix(0.62069,0,0,0.601852,-0.0000112898,-0.000001627)"/>
<path style=" stroke:none;fill-rule:nonzero;fill:rgb(93.333334%,33.333334%,26.666668%);fill-opacity:1;" d="M 27 8.90625 C 24.515625 13.722656 20.484375 18.175781 17.691406 20.582031 C 20.484375 22.992188 24.515625 27.566406 27 32.378906 C 29.484375 27.566406 33.515625 22.992188 36.308594 20.582031 C 33.515625 18.175781 29.484375 13.722656 27 8.90625 Z M 27 8.90625 "/>
<path style=" stroke:none;fill-rule:nonzero;fill:rgb(93.333334%,33.333334%,26.666668%);fill-opacity:1;" d="M 27 97.378906 C 24.515625 102.195312 20.484375 106.648438 17.691406 109.054688 C 20.484375 111.464844 24.515625 116.035156 27 120.851562 C 29.484375 116.035156 33.515625 111.464844 36.308594 109.054688 C 33.515625 106.648438 29.484375 102.195312 27 97.378906 Z M 27 97.378906 "/>
<path style=" stroke:none;fill-rule:nonzero;fill:rgb(93.333334%,33.333334%,26.666668%);fill-opacity:1;" d="M 27 67.949219 C 24.515625 72.765625 20.484375 77.21875 17.691406 79.625 C 20.484375 82.03125 24.515625 86.605469 27 91.421875 C 29.484375 86.605469 33.515625 82.03125 36.308594 79.625 C 33.515625 77.21875 29.484375 72.765625 27 67.949219 Z M 27 67.949219 "/>
<path style=" stroke:none;fill-rule:nonzero;fill:rgb(93.333334%,33.333334%,26.666668%);fill-opacity:1;" d="M 63 8.90625 C 60.515625 13.722656 56.484375 18.175781 53.691406 20.582031 C 56.484375 22.992188 60.515625 27.566406 63 32.378906 C 65.484375 27.566406 69.515625 22.992188 72.308594 20.582031 C 69.515625 18.175781 65.484375 13.722656 63 8.90625 Z M 63 8.90625 "/>
<path style=" stroke:none;fill-rule:nonzero;fill:rgb(93.333334%,33.333334%,26.666668%);fill-opacity:1;" d="M 63 97.378906 C 60.515625 102.195312 56.484375 106.648438 53.691406 109.054688 C 56.484375 111.464844 60.515625 116.035156 63 120.851562 C 65.484375 116.035156 69.515625 111.464844 72.308594 109.054688 C 69.515625 106.648438 65.484375 102.195312 63 97.378906 Z M 63 97.378906 "/>
<path style=" stroke:none;fill-rule:nonzero;fill:rgb(93.333334%,33.333334%,26.666668%);fill-opacity:1;" d="M 63 67.949219 C 60.515625 72.765625 56.484375 77.21875 53.691406 79.625 C 56.484375 82.03125 60.515625 86.605469 63 91.421875 C 65.484375 86.605469 69.515625 82.03125 72.308594 79.625 C 69.515625 77.21875 65.484375 72.765625 63 67.949219 Z M 63 67.949219 "/>
<path style=" stroke:none;fill-rule:nonzero;fill:rgb(93.333334%,33.333334%,26.666668%);fill-opacity:1;" d="M 27 38.457031 C 24.515625 43.273438 20.484375 47.726562 17.691406 50.132812 C 20.484375 52.542969 24.515625 57.117188 27 61.929688 C 29.484375 57.117188 33.515625 52.542969 36.308594 50.132812 C 33.515625 47.726562 29.484375 43.273438 27 38.457031 Z M 27 38.457031 "/>
<path style=" stroke:none;fill-rule:nonzero;fill:rgb(93.333334%,33.333334%,26.666668%);fill-opacity:1;" d="M 63 38.457031 C 60.515625 43.273438 56.484375 47.726562 53.691406 50.132812 C 56.484375 52.542969 60.515625 57.117188 63 61.929688 C 65.484375 57.117188 69.515625 52.542969 72.308594 50.132812 C 69.515625 47.726562 65.484375 43.273438 63 38.457031 Z M 63 38.457031 "/>
<path style=" stroke:none;fill-rule:nonzero;fill:rgb(93.333334%,33.333334%,26.666668%);fill-opacity:1;" d="M 45 53.324219 C 42.515625 58.140625 38.484375 62.59375 35.691406 65 C 38.484375 67.40625 42.515625 71.980469 45 76.796875 C 47.484375 71.980469 51.515625 67.40625 54.308594 65 C 51.515625 62.59375 47.484375 58.140625 45 53.324219 Z M 45 53.324219 "/>
<path style=" stroke:none;fill-rule:nonzero;fill:rgb(93.333334%,33.333334%,26.666668%);fill-opacity:1;" d="M 7.914062 21.617188 C 6.726562 23.898438 4.804688 26.011719 3.472656 27.152344 C 4.804688 28.292969 6.726562 30.460938 7.914062 32.742188 C 9.097656 30.460938 11.019531 28.292969 12.351562 27.152344 C 11.019531 26.011719 9.097656 23.898438 7.914062 21.617188 Z M 7.914062 21.617188 "/>
<path style=" stroke:none;fill-rule:nonzero;fill:rgb(93.333334%,33.333334%,26.666668%);fill-opacity:1;" d="M 82.085938 108.382812 C 83.273438 106.101562 85.195312 103.988281 86.527344 102.847656 C 85.195312 101.707031 83.273438 99.539062 82.085938 97.257812 C 80.902344 99.539062 78.980469 101.707031 77.648438 102.847656 C 78.980469 103.988281 80.902344 106.101562 82.085938 108.382812 Z M 82.085938 108.382812 "/>
<path style="fill-rule:nonzero;fill:rgb(93.333334%,33.333334%,26.666668%);fill-opacity:1;stroke-width:0.5;stroke-linecap:butt;stroke-linejoin:round;stroke:rgb(93.333334%,33.333334%,26.666668%);stroke-opacity:1;stroke-miterlimit:4;" d="M 1172.297328 -70.702399 C 1174.997198 -70.702399 1175.506964 -73.642543 1175.702059 -79.600717 C 1174.638474 -78.958169 1173.63153 -78.581726 1172.398023 -78.497351 C 1169.068812 -78.497351 1166.897588 -81.061053 1166.897588 -85.098073 C 1166.897588 -89.407689 1168.980705 -91.802641 1172.498717 -91.802641 C 1176.551669 -91.802641 1178.269768 -88.680766 1178.401929 -82.501919 C 1178.401929 -75.343024 1177.55232 -69.300476 1172.398023 -69.300476 C 1169.698153 -69.300476 1167.40106 -70.987976 1167.40106 -73.798313 C 1167.40106 -75.27812 1168.256963 -76.400957 1169.402363 -76.400957 C 1170.510002 -76.400957 1171.397372 -75.687015 1171.397372 -74.298072 C 1171.397372 -73.097351 1170.642163 -72.448312 1169.698153 -72.097832 C 1170.107224 -71.481245 1171.038648 -70.702399 1172.297328 -70.702399 Z M 1175.702059 -85.000717 C 1175.702059 -85.818506 1175.557311 -90.27091 1172.599412 -90.498073 C 1170.528882 -90.498073 1169.503057 -88.667785 1169.503057 -85.000717 C 1169.503057 -83.339179 1169.842901 -80.003121 1172.599412 -80.003121 C 1174.588127 -80.003121 1175.702059 -81.982688 1175.702059 -85.000717 Z M 1175.702059 -85.000717 " transform="matrix(0.62069,0,0,0.601852,-719.999954,60.185179)"/>
<path style="fill-rule:nonzero;fill:rgb(93.333334%,33.333334%,26.666668%);fill-opacity:1;stroke-width:0.5;stroke-linecap:butt;stroke-linejoin:round;stroke:rgb(93.333334%,33.333334%,26.666668%);stroke-opacity:1;stroke-miterlimit:4;" d="M 1172.29728 -70.702421 C 1174.99715 -70.702421 1175.506916 -73.642566 1175.702011 -79.600739 C 1174.638426 -78.958191 1173.631482 -78.581749 1172.397975 -78.497374 C 1169.068764 -78.497374 1166.89754 -81.061076 1166.89754 -85.098096 C 1166.89754 -89.407711 1168.980657 -91.802663 1172.498669 -91.802663 C 1176.551621 -91.802663 1178.26972 -88.680788 1178.401881 -82.501942 C 1178.401881 -75.343047 1177.552272 -69.300498 1172.397975 -69.300498 C 1169.698105 -69.300498 1167.401013 -70.987998 1167.401013 -73.798335 C 1167.401013 -75.278143 1168.256915 -76.400979 1169.402315 -76.400979 C 1170.509954 -76.400979 1171.397324 -75.687037 1171.397324 -74.298095 C 1171.397324 -73.097373 1170.642115 -72.448335 1169.698105 -72.097854 C 1170.107176 -71.481268 1171.0386 -70.702421 1172.29728 -70.702421 Z M 1175.702011 -85.00074 C 1175.702011 -85.818528 1175.557263 -90.270933 1172.599364 -90.498096 C 1170.528834 -90.498096 1169.503009 -88.667807 1169.503009 -85.00074 C 1169.503009 -83.339201 1169.842853 -80.003143 1172.599364 -80.003143 C 1174.588079 -80.003143 1175.702011 -81.982711 1175.702011 -85.00074 Z M 1175.702011 -85.00074 " transform="matrix(-0.62069,0.000000000000000074,-0.000000000000000076,-0.601852,809.999925,69.814808)"/>
</g>
</svg>
