<?xml version="1.0" encoding="UTF-8"?>
<svg xmlns="http://www.w3.org/2000/svg" xmlns:xlink="http://www.w3.org/1999/xlink" width="90px" height="130px" viewBox="0 0 90 130" version="1.1">
<g id="surface1">
<path style="fill-rule:nonzero;fill:rgb(100%,100%,100%);fill-opacity:1;stroke-width:3;stroke-linecap:butt;stroke-linejoin:miter;stroke:rgb(21.960784%,25.098041%,27.843139%);stroke-opacity:1;stroke-miterlimit:4;" d="M 9.503034 1.499282 L 135.496968 1.499282 C 139.92123 1.499282 143.502177 5.081974 143.502177 9.501927 L 143.502177 206.498096 C 143.502177 210.918048 139.92123 214.500741 135.496968 214.500741 L 9.503034 214.500741 C 5.078772 214.500741 1.497825 210.918048 1.497825 206.498096 L 1.497825 9.501927 C 1.497825 5.081974 5.078772 1.499282 9.503034 1.499282 Z M 9.503034 1.499282 " transform="matrix(0.62069,0,0,0.601852,0.00000290271,-0.000001627)"/>
<path style=" stroke:none;fill-rule:nonzero;fill:rgb(93.333334%,33.333334%,26.666668%);fill-opacity:1;" d="M 27 8.90625 C 24.515625 13.722656 20.484375 18.175781 17.691406 20.582031 C 20.484375 22.992188 24.515625 27.566406 27 32.378906 C 29.484375 27.566406 33.515625 22.992188 36.308594 20.582031 C 33.515625 18.175781 29.484375 13.722656 27 8.90625 Z M 27 8.90625 "/>
<path style=" stroke:none;fill-rule:nonzero;fill:rgb(93.333334%,33.333334%,26.666668%);fill-opacity:1;" d="M 27 97.378906 C 24.515625 102.195312 20.484375 106.648438 17.691406 109.054688 C 20.484375 111.464844 24.515625 116.035156 27 120.851562 C 29.484375 116.035156 33.515625 111.464844 36.308594 109.054688 C 33.515625 106.648438 29.484375 102.195312 27 97.378906 Z M 27 97.378906 "/>
<path style=" stroke:none;fill-rule:nonzero;fill:rgb(93.333334%,33.333334%,26.666668%);fill-opacity:1;" d="M 27 53.324219 C 24.515625 58.140625 20.484375 62.59375 17.691406 65 C 20.484375 67.40625 24.515625 71.980469 27 76.796875 C 29.484375 71.980469 33.515625 67.40625 36.308594 65 C 33.515625 62.59375 29.484375 58.140625 27 53.324219 Z M 27 53.324219 "/>
<path style=" stroke:none;fill-rule:nonzero;fill:rgb(93.333334%,33.333334%,26.666668%);fill-opacity:1;" d="M 63 8.90625 C 60.515625 13.722656 56.484375 18.175781 53.691406 20.582031 C 56.484375 22.992188 60.515625 27.566406 63 32.378906 C 65.484375 27.566406 69.515625 22.992188 72.308594 20.582031 C 69.515625 18.175781 65.484375 13.722656 63 8.90625 Z M 63 8.90625 "/>
<path style=" stroke:none;fill-rule:nonzero;fill:rgb(93.333334%,33.333334%,26.666668%);fill-opacity:1;" d="M 63 97.378906 C 60.515625 102.195312 56.484375 106.648438 53.691406 109.054688 C 56.484375 111.464844 60.515625 116.035156 63 120.851562 C 65.484375 116.035156 69.515625 111.464844 72.308594 109.054688 C 69.515625 106.648438 65.484375 102.195312 63 97.378906 Z M 63 97.378906 "/>
<path style=" stroke:none;fill-rule:nonzero;fill:rgb(93.333334%,33.333334%,26.666668%);fill-opacity:1;" d="M 63 53.324219 C 60.515625 58.140625 56.484375 62.59375 53.691406 65 C 56.484375 67.40625 60.515625 71.980469 63 76.796875 C 65.484375 71.980469 69.515625 67.40625 72.308594 65 C 69.515625 62.59375 65.484375 58.140625 63 53.324219 Z M 63 53.324219 "/>
<path style=" stroke:none;fill-rule:nonzero;fill:rgb(93.333334%,33.333334%,26.666668%);fill-opacity:1;" d="M 7.914062 21.617188 C 6.726562 23.898438 4.804688 26.011719 3.472656 27.152344 C 4.804688 28.292969 6.726562 30.460938 7.914062 32.742188 C 9.097656 30.460938 11.019531 28.292969 12.351562 27.152344 C 11.019531 26.011719 9.097656 23.898438 7.914062 21.617188 Z M 7.914062 21.617188 "/>
<path style=" stroke:none;fill-rule:nonzero;fill:rgb(93.333334%,33.333334%,26.666668%);fill-opacity:1;" d="M 82.085938 108.382812 C 83.273438 106.101562 85.195312 103.988281 86.527344 102.847656 C 85.195312 101.707031 83.273438 99.539062 82.085938 97.257812 C 80.902344 99.539062 78.980469 101.707031 77.648438 102.847656 C 78.980469 103.988281 80.902344 106.101562 82.085938 108.382812 Z M 82.085938 108.382812 "/>
<path style="fill-rule:nonzero;fill:rgb(93.333334%,33.333334%,26.666668%);fill-opacity:1;stroke-width:0.5;stroke-linecap:butt;stroke-linejoin:round;stroke:rgb(93.333334%,33.333334%,26.666668%);stroke-opacity:1;stroke-miterlimit:4;" d="M 738.002166 -90.400718 C 734.207244 -89.881487 734.647783 -84.397111 734.597435 -81.5024 C 735.66102 -82.138457 736.667965 -82.52139 737.901472 -82.599275 C 741.230682 -82.599275 743.401907 -80.042063 743.401907 -75.998553 C 743.401907 -73.649034 742.722219 -69.300476 737.700083 -69.300476 C 734.408633 -69.300476 732.048607 -71.468264 731.897565 -78.601198 C 731.897565 -84.663217 732.199649 -91.802641 737.901472 -91.802641 C 740.601342 -91.802641 742.898434 -90.10865 742.898434 -87.298314 C 742.898434 -85.961294 742.180986 -84.70216 740.802731 -84.70216 C 739.80208 -84.70216 738.801429 -85.519948 738.801429 -86.798554 C 738.801429 -87.467064 739.292314 -88.602881 740.500648 -88.901439 C 740.047523 -89.9399 738.927297 -90.400718 738.002166 -90.400718 Z M 734.597435 -76.102399 C 734.597435 -75.232688 734.742184 -70.598553 737.599389 -70.598553 C 739.732852 -70.598553 740.802731 -72.428841 740.802731 -76.102399 C 740.802731 -77.692544 740.469181 -81.099996 737.599389 -81.099996 C 734.729597 -81.099996 734.597435 -76.848794 734.597435 -76.102399 Z M 734.597435 -76.102399 " transform="matrix(0.62069,0,0,0.601852,-449.999961,60.185179)"/>
<path style="fill-rule:nonzero;fill:rgb(93.333334%,33.333334%,26.666668%);fill-opacity:1;stroke-width:0.5;stroke-linecap:butt;stroke-linejoin:round;stroke:rgb(93.333334%,33.333334%,26.666668%);stroke-opacity:1;stroke-miterlimit:4;" d="M 738.002164 -90.40074 C 734.207242 -89.881509 734.64778 -84.397134 734.597433 -81.502422 C 735.661018 -82.13848 736.667963 -82.521413 737.90147 -82.599297 C 741.23068 -82.599297 743.401904 -80.042086 743.401904 -75.998576 C 743.401904 -73.649056 742.722217 -69.300498 737.700081 -69.300498 C 734.408631 -69.300498 732.048605 -71.468287 731.897563 -78.60122 C 731.897563 -84.66324 732.199647 -91.802663 737.90147 -91.802663 C 740.60134 -91.802663 742.898432 -90.108673 742.898432 -87.298336 C 742.898432 -85.961317 742.180984 -84.702182 740.802729 -84.702182 C 739.802078 -84.702182 738.801427 -85.519971 738.801427 -86.798576 C 738.801427 -87.467086 739.292312 -88.602904 740.500645 -88.901461 C 740.04752 -89.939923 738.927295 -90.40074 738.002164 -90.40074 Z M 734.597433 -76.102422 C 734.597433 -75.23271 734.742181 -70.598575 737.599387 -70.598575 C 739.73285 -70.598575 740.802729 -72.428864 740.802729 -76.102422 C 740.802729 -77.692566 740.469178 -81.100018 737.599387 -81.100018 C 734.729595 -81.100018 734.597433 -76.848816 734.597433 -76.102422 Z M 734.597433 -76.102422 " transform="matrix(-0.62069,0.000000000000000074,-0.000000000000000076,-0.601852,539.99996,69.814808)"/>
</g>
</svg>
