<?xml version="1.0" encoding="UTF-8"?>
<svg xmlns="http://www.w3.org/2000/svg" xmlns:xlink="http://www.w3.org/1999/xlink" width="90px" height="130px" viewBox="0 0 90 130" version="1.1">
<defs>
<clipPath id="clip1">
  <path d="M 13 40 L 71 40 L 71 69 L 13 69 Z M 13 40 "/>
</clipPath>
<clipPath id="clip2">
  <path d="M 16.949219 41.953125 L 23.253906 40.800781 C 26.378906 45.886719 32.433594 53.273438 41.113281 51.699219 C 50.292969 50.003906 52.480469 44.433594 52.980469 41.40625 C 54.042969 41.648438 54.851562 41.890625 55.039062 42.132812 C 59.347656 46.371094 75.648438 68.472656 75.648438 68.472656 L 13.449219 61.632812 L 13.449219 46.25 L 16.949219 42.011719 Z M 16.949219 41.953125 "/>
</clipPath>
<clipPath id="clip3">
  <path d="M 19 61 L 77 61 L 77 90 L 19 90 Z M 19 61 "/>
</clipPath>
<clipPath id="clip4">
  <path d="M 73.085938 88.121094 L 66.78125 89.273438 C 63.65625 84.1875 57.601562 76.800781 48.917969 78.375 C 39.738281 80.070312 37.554688 85.640625 37.054688 88.667969 C 35.992188 88.425781 35.179688 88.183594 34.996094 87.941406 C 30.683594 83.703125 14.386719 61.601562 14.386719 61.601562 L 76.582031 68.441406 L 76.582031 83.824219 L 73.085938 88.0625 Z M 73.085938 88.121094 "/>
</clipPath>
</defs>
<g id="surface1">
<path style="fill-rule:nonzero;fill:rgb(100%,100%,100%);fill-opacity:1;stroke-width:3;stroke-linecap:butt;stroke-linejoin:miter;stroke:rgb(21.960784%,25.098041%,27.843139%);stroke-opacity:1;stroke-miterlimit:4;" d="M 9.50308 1.499313 L 135.497014 1.499313 C 139.921276 1.499313 143.502223 5.082006 143.502223 9.501958 L 143.502223 206.498128 C 143.502223 210.91808 139.921276 214.500772 135.497014 214.500772 L 9.50308 214.500772 C 5.078817 214.500772 1.497871 210.91808 1.497871 206.498128 L 1.497871 9.501958 C 1.497871 5.082006 5.078817 1.499313 9.50308 1.499313 Z M 9.50308 1.499313 " transform="matrix(0.62069,0,0,0.601852,-0.0000254822,-0.0000206087)"/>
<path style=" stroke:none;fill-rule:nonzero;fill:rgb(93.333334%,33.333334%,26.666668%);fill-opacity:1;" d="M 15.246094 6.269531 C 12.785156 6.269531 11.183594 8.394531 11.183594 11.191406 C 11.183594 14.042969 13.054688 16.53125 14.816406 18.605469 C 16.582031 20.675781 18.183594 22.851562 19.253906 24.925781 C 20.320312 22.851562 21.820312 20.625 23.636719 18.550781 C 25.453125 16.480469 27.269531 14.042969 27.269531 11.191406 C 27.269531 8.394531 25.667969 6.269531 23.207031 6.269531 C 21.390625 6.269531 19.789062 7.824219 19.253906 9.898438 C 18.71875 7.824219 17.117188 6.269531 15.191406 6.269531 Z M 15.246094 6.269531 "/>
<path style=" stroke:none;fill-rule:nonzero;fill:rgb(100%,100%,100%);fill-opacity:1;" d="M 4.777344 4.214844 L 13.34375 4.214844 L 13.34375 34.304688 L 4.777344 34.304688 Z M 4.777344 4.214844 "/>
<path style=" stroke:none;fill-rule:nonzero;fill:rgb(93.333334%,33.333334%,26.666668%);fill-opacity:1;" d="M 74.753906 123.730469 C 77.214844 123.730469 78.816406 121.605469 78.816406 118.808594 C 78.816406 115.957031 76.945312 113.46875 75.183594 111.394531 C 73.417969 109.324219 71.816406 107.148438 70.746094 105.074219 C 69.675781 107.148438 68.179688 109.375 66.363281 111.449219 C 64.546875 113.519531 62.730469 115.957031 62.730469 118.808594 C 62.730469 121.605469 64.332031 123.730469 66.792969 123.730469 C 68.609375 123.730469 70.210938 122.175781 70.746094 120.101562 C 71.28125 122.175781 72.882812 123.730469 74.808594 123.730469 Z M 74.753906 123.730469 "/>
<path style=" stroke:none;fill-rule:nonzero;fill:rgb(21.960784%,25.098041%,27.843139%);fill-opacity:1;" d="M 14.628906 61.5625 L 46.808594 45.390625 L 75.40625 68.453125 L 43.226562 84.863281 Z M 14.628906 61.5625 "/>
<path style=" stroke:none;fill-rule:nonzero;fill:rgb(90.980393%,50.196081%,41.960785%);fill-opacity:1;" d="M 47.859375 31.660156 L 47.859375 40.921875 C 47.859375 40.921875 42.363281 41.105469 41.613281 38.078125 C 40.863281 35.050781 47.859375 31.660156 47.859375 31.660156 Z M 47.859375 31.660156 "/>
<path style=" stroke:none;fill-rule:nonzero;fill:rgb(93.333334%,33.333334%,26.666668%);fill-opacity:1;" d="M 45.734375 32.628906 L 41.050781 32.628906 L 41.050781 43.828125 L 45.734375 43.828125 Z M 45.734375 32.628906 "/>
<path style=" stroke:none;fill-rule:nonzero;fill:rgb(86.274511%,37.64706%,28.235295%);fill-opacity:1;" d="M 51.417969 16.882812 C 51.417969 16.882812 55.664062 12.585938 51.417969 11.617188 C 51.417969 11.617188 52.730469 8.46875 46.546875 7.5 C 40.304688 6.53125 24.066406 5.863281 24.003906 43.464844 L 35.246094 41.527344 Z M 51.417969 16.882812 "/>
<path style=" stroke:none;fill-rule:nonzero;fill:rgb(93.333334%,81.960785%,70.980394%);fill-opacity:1;" d="M 31.0625 39.46875 C 31.0625 39.46875 39.179688 33.839844 38.742188 24.816406 C 38.367188 16.21875 43.363281 9.921875 51.167969 13.554688 L 51.542969 18.699219 L 53.542969 23.785156 L 51.542969 24.390625 L 51.730469 26.328125 L 47.546875 27.117188 L 51.605469 28.75 L 50.980469 29.597656 C 50.792969 29.839844 52.230469 33.414062 49.917969 33.414062 C 46.734375 33.414062 43.863281 33.292969 43.488281 35.050781 C 42.863281 37.714844 42.050781 39.289062 44.113281 39.773438 C 52.230469 41.589844 53.042969 41.589844 53.042969 41.589844 C 53.042969 41.589844 58.164062 58.847656 38.992188 60.058594 Z M 31.0625 39.46875 "/>
<path style=" stroke:none;fill-rule:nonzero;fill:rgb(21.960784%,25.098041%,27.843139%);fill-opacity:1;" d="M 49.671875 19.488281 C 49.671875 19.488281 48.984375 19.730469 48.109375 19.488281 C 46.921875 19.125 45.546875 18.277344 44.613281 19.609375 L 45.421875 19.367188 C 45.421875 19.367188 46.359375 19.367188 46.796875 19.851562 C 46.796875 19.851562 46.671875 21.0625 47.671875 21 C 48.671875 21 48.421875 20.03125 48.421875 20.03125 C 48.421875 20.03125 49.484375 20.214844 49.671875 19.488281 Z M 49.671875 19.488281 "/>
<path style=" stroke:none;fill-rule:nonzero;fill:rgb(86.274511%,37.64706%,28.235295%);fill-opacity:1;" d="M 49.917969 16.460938 C 49.917969 16.460938 49.855469 17.730469 49.546875 17.730469 C 49.234375 17.730469 45.734375 15.371094 43.550781 17.972656 C 43.550781 17.972656 45.050781 14.945312 49.171875 16.703125 C 49.171875 16.703125 49.609375 17.003906 49.917969 16.460938 Z M 49.917969 16.460938 "/>
<path style=" stroke:none;fill-rule:nonzero;fill:rgb(21.960784%,25.098041%,27.843139%);fill-opacity:1;" d="M 52.980469 41.40625 C 53.710938 41.515625 54.410156 41.761719 55.039062 42.132812 C 59.347656 46.371094 75.648438 68.535156 75.648438 68.535156 L 55.226562 66.234375 L 41.488281 63.507812 C 39.742188 59.027344 35.121094 58.058594 38.679688 51.941406 C 39.496094 51.9375 40.3125 51.855469 41.113281 51.699219 C 50.292969 50.003906 52.480469 44.496094 52.980469 41.40625 Z M 16.886719 42.011719 C 20.765625 48.085938 22.375 55.269531 21.445312 62.359375 L 14.386719 61.570312 L 13.511719 47.644531 C 13.199219 42.679688 15.449219 42.800781 16.886719 42.011719 Z M 16.886719 42.011719 "/>
<g clip-path="url(#clip1)" clip-rule="nonzero">
<g clip-path="url(#clip2)" clip-rule="nonzero">
<path style=" stroke:none;fill-rule:nonzero;fill:rgb(93.333334%,33.333334%,26.666668%);fill-opacity:1;" d="M 53.980469 40.378906 L 51.605469 43.222656 C 52.042969 44.253906 53.105469 44.738281 54.042969 45.644531 C 54.386719 45.964844 54.679688 46.332031 54.914062 46.734375 L 55.101562 47.097656 L 55.164062 47.097656 L 55.164062 46.976562 C 55.25 46.425781 55.441406 45.890625 55.726562 45.402344 C 56.351562 44.3125 57.226562 43.527344 57.351562 42.496094 Z M 19.320312 46.007812 C 18.953125 46.082031 18.636719 46.300781 18.445312 46.613281 C 18.0625 47.214844 17.992188 47.957031 18.257812 48.613281 C 18.695312 49.582031 19.757812 50.125 20.695312 51.035156 Z M 15.511719 46.734375 C 14.824219 46.855469 14.324219 47.523438 14.261719 48.308594 C 14.160156 48.0625 14.011719 47.839844 13.824219 47.644531 C 13.734375 47.53125 13.628906 47.429688 13.511719 47.339844 L 13.511719 47.703125 L 13.761719 51.882812 L 13.949219 52.125 C 14.296875 52.445312 14.589844 52.8125 14.824219 53.214844 L 15.074219 53.578125 L 15.136719 53.578125 L 15.136719 53.394531 C 15.230469 52.863281 15.421875 52.351562 15.699219 51.882812 C 16.324219 50.730469 17.199219 49.945312 17.324219 48.914062 C 17.378906 48.199219 17.074219 47.5 16.511719 47.039062 C 16.265625 46.84375 15.957031 46.734375 15.636719 46.734375 C 15.59375 46.734375 15.554688 46.734375 15.511719 46.734375 Z M 18.695312 59.453125 C 18.007812 59.574219 17.511719 60.238281 17.449219 61.027344 C 17.363281 60.785156 17.234375 60.558594 17.074219 60.359375 C 16.699219 59.996094 16.261719 59.816406 15.824219 59.816406 C 15.433594 59.871094 15.089844 60.09375 14.886719 60.421875 C 14.660156 60.785156 14.550781 61.207031 14.574219 61.632812 L 20.320312 62.238281 C 20.667969 61.363281 20.417969 60.375 19.695312 59.753906 C 19.449219 59.558594 19.140625 59.449219 18.820312 59.453125 C 18.78125 59.449219 18.738281 59.449219 18.695312 59.453125 Z M 57.789062 45.222656 L 57.789062 45.34375 C 57.699219 45.898438 57.511719 46.433594 57.226562 46.917969 L 57.226562 46.855469 C 56.601562 48.007812 55.726562 48.792969 55.601562 49.882812 C 55.550781 50.570312 55.828125 51.238281 56.351562 51.699219 C 56.613281 51.957031 56.976562 52.089844 57.351562 52.0625 C 58.101562 51.941406 58.601562 51.277344 58.601562 50.429688 L 59.035156 51.15625 C 59.410156 51.519531 59.847656 51.640625 60.285156 51.640625 C 60.660156 51.578125 60.972656 51.335938 61.160156 51.035156 C 61.542969 50.433594 61.613281 49.695312 61.347656 49.035156 C 60.910156 48.066406 59.847656 47.523438 58.910156 46.675781 C 58.5625 46.335938 58.265625 45.949219 58.039062 45.523438 L 57.851562 45.222656 Z M 51.105469 46.25 L 51.105469 46.433594 C 51.011719 46.964844 50.820312 47.480469 50.542969 47.945312 C 49.917969 49.097656 49.046875 49.882812 48.921875 50.914062 C 48.851562 51.617188 49.128906 52.316406 49.671875 52.789062 C 49.945312 53.023438 50.308594 53.132812 50.667969 53.09375 C 51.417969 53.03125 51.917969 52.304688 51.917969 51.519531 L 52.355469 52.183594 C 52.730469 52.546875 53.167969 52.730469 53.605469 52.730469 C 53.980469 52.667969 54.289062 52.425781 54.476562 52.125 C 54.863281 51.523438 54.929688 50.785156 54.664062 50.125 C 54.226562 49.15625 53.167969 48.613281 52.230469 47.703125 C 51.886719 47.382812 51.589844 47.015625 51.355469 46.613281 L 51.167969 46.25 Z M 43.925781 49.035156 C 43.300781 50.1875 42.425781 50.972656 42.300781 52.003906 C 42.230469 52.707031 42.507812 53.40625 43.050781 53.878906 C 43.324219 54.113281 43.6875 54.222656 44.050781 54.183594 C 44.800781 54.0625 45.296875 53.394531 45.296875 52.609375 L 45.734375 53.273438 C 46.109375 53.636719 46.546875 53.820312 46.984375 53.757812 C 47.359375 53.757812 47.671875 53.515625 47.859375 53.152344 C 48.222656 52.570312 48.292969 51.855469 48.046875 51.214844 C 47.609375 50.1875 46.546875 49.703125 45.609375 48.792969 C 44.019531 47.074219 44.972656 47.03125 43.925781 49.035156 Z M 38.929688 49.882812 L 37.242188 50.125 L 38.617188 53.636719 C 38.742188 53.941406 38.867188 54.183594 39.054688 54.363281 C 39.429688 54.726562 39.867188 54.847656 40.304688 54.847656 C 40.675781 54.789062 40.988281 54.546875 41.175781 54.242188 C 41.5625 53.644531 41.628906 52.902344 41.363281 52.246094 C 40.925781 51.277344 39.867188 50.792969 38.929688 49.882812 Z M 17.757812 51.640625 L 17.757812 51.761719 C 17.671875 52.320312 17.484375 52.851562 17.199219 53.335938 C 16.574219 54.425781 15.699219 55.273438 15.574219 56.242188 C 15.484375 56.96875 15.761719 57.691406 16.324219 58.179688 C 16.597656 58.410156 16.960938 58.519531 17.324219 58.484375 C 18.070312 58.363281 18.570312 57.695312 18.570312 56.90625 C 18.675781 57.152344 18.820312 57.378906 19.007812 57.574219 C 19.382812 57.9375 19.820312 58.121094 20.257812 58.058594 C 20.632812 58.058594 20.945312 57.816406 21.132812 57.453125 C 21.515625 56.851562 21.585938 56.113281 21.320312 55.453125 C 20.882812 54.484375 19.820312 54 18.882812 53.09375 C 18.539062 52.773438 18.246094 52.40625 18.007812 52.003906 L 17.820312 51.640625 Z M 65.09375 51.941406 C 64.34375 52.003906 63.84375 52.667969 63.84375 53.515625 L 63.410156 52.789062 C 63.035156 52.425781 62.597656 52.304688 62.160156 52.304688 C 61.789062 52.378906 61.472656 52.597656 61.285156 52.910156 C 60.898438 53.515625 60.828125 54.25 61.097656 54.910156 C 61.535156 55.878906 62.597656 56.421875 63.53125 57.273438 C 63.882812 57.609375 64.175781 58 64.40625 58.421875 L 64.59375 58.726562 L 64.65625 58.726562 L 64.65625 58.605469 C 64.742188 58.050781 64.933594 57.515625 65.21875 57.03125 L 65.21875 57.089844 C 65.84375 55.9375 66.71875 55.152344 66.84375 54.0625 C 66.894531 53.378906 66.617188 52.707031 66.09375 52.246094 C 65.816406 52.015625 65.457031 51.90625 65.09375 51.941406 Z M 58.414062 52.972656 C 57.664062 53.09375 57.164062 53.757812 57.164062 54.605469 C 57.0625 54.339844 56.914062 54.09375 56.726562 53.878906 C 56.351562 53.515625 55.914062 53.335938 55.476562 53.394531 C 55.109375 53.46875 54.789062 53.6875 54.601562 54 C 54.222656 54.605469 54.148438 55.339844 54.414062 56 C 54.851562 56.96875 55.914062 57.453125 56.851562 58.300781 C 57.207031 58.65625 57.5 59.066406 57.726562 59.511719 L 57.914062 59.816406 L 57.976562 59.816406 L 57.976562 59.695312 C 58.0625 59.140625 58.253906 58.605469 58.539062 58.121094 C 59.160156 56.96875 60.035156 56.242188 60.160156 55.152344 C 60.210938 54.46875 59.933594 53.796875 59.410156 53.335938 C 59.148438 53.082031 58.789062 52.949219 58.414062 52.972656 Z M 51.730469 54.0625 C 50.980469 54.183594 50.480469 54.847656 50.480469 55.636719 C 50.375 55.394531 50.230469 55.164062 50.042969 54.96875 C 49.671875 54.605469 49.234375 54.425781 48.796875 54.484375 C 48.425781 54.558594 48.109375 54.777344 47.921875 55.089844 C 47.558594 55.679688 47.484375 56.386719 47.734375 57.03125 C 48.171875 58.058594 49.234375 58.542969 50.167969 59.453125 C 50.515625 59.769531 50.808594 60.136719 51.042969 60.542969 L 51.230469 60.90625 L 51.292969 60.90625 L 51.292969 60.722656 C 51.386719 60.191406 51.578125 59.675781 51.855469 59.210938 C 52.480469 58.058594 53.355469 57.273438 53.480469 56.242188 C 53.550781 55.535156 53.273438 54.839844 52.730469 54.363281 C 52.453125 54.132812 52.09375 54.023438 51.730469 54.0625 Z M 45.050781 55.152344 C 44.300781 55.210938 43.800781 55.878906 43.800781 56.726562 C 43.695312 56.484375 43.550781 56.253906 43.363281 56.058594 C 42.988281 55.695312 42.550781 55.515625 42.113281 55.515625 C 41.746094 55.589844 41.425781 55.804688 41.238281 56.121094 C 40.835938 56.738281 40.765625 57.503906 41.050781 58.179688 C 41.488281 59.089844 42.550781 59.632812 43.488281 60.480469 C 43.835938 60.820312 44.132812 61.207031 44.363281 61.632812 L 44.550781 61.933594 L 44.613281 61.933594 L 44.613281 61.8125 C 44.699219 61.257812 44.886719 60.726562 45.171875 60.238281 C 45.796875 59.148438 46.671875 58.363281 46.796875 57.332031 C 46.867188 56.625 46.589844 55.929688 46.046875 55.453125 C 45.773438 55.222656 45.410156 55.113281 45.050781 55.152344 Z M 67.34375 56.847656 L 67.21875 56.96875 C 67.222656 57.089844 67.222656 57.210938 67.21875 57.332031 C 67.109375 57.757812 66.941406 58.160156 66.71875 58.542969 C 66.09375 59.695312 65.21875 60.421875 65.09375 61.511719 C 65.042969 62.195312 65.320312 62.863281 65.84375 63.328125 C 66.21875 63.570312 66.53125 63.691406 66.84375 63.691406 C 67.59375 63.570312 68.089844 62.902344 68.089844 62.054688 C 68.214844 62.359375 68.339844 62.601562 68.527344 62.78125 C 68.902344 63.144531 69.339844 63.328125 69.777344 63.265625 C 70.152344 63.265625 70.464844 62.964844 70.652344 62.660156 C 71.035156 62.058594 71.105469 61.320312 70.839844 60.664062 C 70.402344 59.695312 69.339844 59.210938 68.402344 58.300781 C 68.054688 57.960938 67.761719 57.574219 67.53125 57.152344 Z M 60.597656 57.9375 L 60.597656 58.058594 C 60.511719 58.609375 60.324219 59.148438 60.035156 59.632812 L 60.035156 59.574219 C 59.410156 60.722656 58.539062 61.511719 58.414062 62.601562 C 58.363281 63.285156 58.636719 63.953125 59.160156 64.417969 C 59.425781 64.671875 59.785156 64.804688 60.160156 64.78125 C 60.910156 64.660156 61.410156 63.992188 61.410156 63.144531 L 61.847656 63.871094 C 62.222656 64.234375 62.660156 64.355469 63.097656 64.355469 C 63.46875 64.296875 63.78125 64.054688 63.96875 63.75 C 64.355469 63.148438 64.421875 62.410156 64.15625 61.753906 C 63.71875 60.785156 62.660156 60.238281 61.722656 59.390625 C 61.371094 59.050781 61.078125 58.664062 60.847656 58.242188 L 60.660156 57.9375 Z M 53.980469 58.96875 L 53.980469 59.148438 C 53.890625 59.699219 53.703125 60.238281 53.417969 60.722656 C 52.792969 61.8125 51.917969 62.601562 51.792969 63.628906 C 51.722656 64.335938 52 65.03125 52.542969 65.507812 C 52.816406 65.738281 53.179688 65.847656 53.542969 65.808594 C 54.289062 65.75 54.789062 65.082031 54.789062 64.234375 L 55.226562 64.902344 C 55.601562 65.265625 56.039062 65.445312 56.476562 65.445312 C 56.851562 65.386719 57.164062 65.144531 57.351562 64.839844 C 57.753906 64.226562 57.824219 63.457031 57.539062 62.78125 C 57.101562 61.875 56.039062 61.328125 55.101562 60.480469 C 54.753906 60.140625 54.457031 59.753906 54.226562 59.332031 L 54.042969 58.96875 Z M 66.71875 65.203125 C 65.96875 65.324219 65.46875 65.992188 65.46875 66.839844 C 65.367188 66.570312 65.21875 66.324219 65.03125 66.113281 C 64.65625 65.75 64.21875 65.566406 63.78125 65.628906 C 63.414062 65.699219 63.097656 65.917969 62.910156 66.234375 C 62.527344 66.839844 62.453125 67.570312 62.722656 68.230469 L 66.84375 70.351562 C 67.570312 69.46875 68.121094 68.460938 68.464844 67.382812 C 68.515625 66.699219 68.242188 66.027344 67.71875 65.566406 C 67.453125 65.3125 67.09375 65.179688 66.71875 65.203125 Z M 66.71875 65.203125 "/>
</g>
</g>
<path style=" stroke:none;fill-rule:nonzero;fill:rgb(94.117647%,65.882355%,67.450982%);fill-opacity:1;" d="M 40.988281 23.726562 C 40.988281 24.417969 41.273438 25.078125 41.777344 25.566406 C 42.28125 26.054688 42.964844 26.328125 43.675781 26.328125 C 44.386719 26.328125 45.070312 26.054688 45.574219 25.566406 C 46.078125 25.078125 46.359375 24.417969 46.359375 23.726562 C 46.359375 23.035156 46.078125 22.375 45.574219 21.886719 C 45.070312 21.398438 44.386719 21.121094 43.675781 21.121094 C 42.964844 21.121094 42.28125 21.398438 41.777344 21.886719 C 41.273438 22.375 40.988281 23.035156 40.988281 23.726562 Z M 40.988281 23.726562 "/>
<path style=" stroke:none;fill-rule:nonzero;fill:rgb(21.960784%,25.098041%,27.843139%);fill-opacity:1;" d="M 48.734375 19.183594 C 48.734375 19.183594 48.984375 18.277344 47.171875 18.09375 C 45.359375 17.914062 48.359375 18.09375 48.734375 19.183594 Z M 48.734375 19.183594 "/>
<path style=" stroke:none;fill-rule:nonzero;fill:rgb(93.333334%,33.333334%,26.666668%);fill-opacity:1;" d="M 51.605469 28.75 L 51.105469 27.722656 L 48.234375 26.933594 L 47.546875 27.117188 C 47.546875 27.117188 50.042969 29.054688 51.605469 28.75 Z M 51.605469 28.75 "/>
<path style=" stroke:none;fill-rule:nonzero;fill:rgb(90.980393%,30.588236%,16.862746%);fill-opacity:1;" d="M 51.730469 26.328125 L 50.855469 25.90625 C 50.480469 25.722656 47.859375 26.449219 47.546875 27.117188 L 51.042969 26.996094 Z M 51.730469 26.328125 "/>
<path style=" stroke:none;fill-rule:nonzero;fill:rgb(93.333334%,86.666667%,86.666667%);fill-opacity:1;" d="M 37.554688 10.527344 C 37.332031 10.539062 37.125 10.652344 36.992188 10.828125 C 36.742188 11.070312 36.804688 11.433594 36.742188 11.796875 C 36.699219 11.925781 36.636719 12.046875 36.554688 12.160156 C 36.554688 12.222656 36.492188 12.28125 36.554688 12.28125 C 36.714844 12.214844 36.882812 12.171875 37.054688 12.160156 C 37.492188 12.160156 37.804688 12.28125 38.117188 12.101562 C 38.304688 12.039062 38.492188 11.859375 38.492188 11.617188 C 38.519531 11.511719 38.5 11.398438 38.429688 11.3125 C 38.304688 11.191406 37.992188 11.132812 37.804688 11.253906 L 37.867188 11.070312 L 37.867188 10.648438 C 37.789062 10.5625 37.671875 10.515625 37.554688 10.527344 Z M 36.09375 12.136719 C 36.058594 12.140625 36.027344 12.148438 35.992188 12.160156 C 35.789062 12.226562 35.625 12.382812 35.558594 12.585938 C 35.433594 12.886719 35.621094 13.25 35.621094 13.613281 C 35.640625 13.753906 35.640625 13.898438 35.621094 14.039062 C 35.621094 14.039062 35.558594 14.160156 35.621094 14.160156 C 35.746094 14.03125 35.890625 13.929688 36.054688 13.855469 C 36.429688 13.734375 36.804688 13.734375 37.054688 13.554688 C 37.242188 13.371094 37.242188 13.128906 37.242188 12.949219 C 37.253906 12.832031 37.207031 12.722656 37.117188 12.644531 C 36.867188 12.523438 36.617188 12.585938 36.492188 12.765625 L 36.492188 12.523438 L 36.304688 12.160156 C 36.238281 12.136719 36.164062 12.128906 36.09375 12.136719 Z M 34.914062 13.84375 C 34.878906 13.84375 34.84375 13.847656 34.808594 13.855469 C 34.585938 13.933594 34.421875 14.117188 34.371094 14.339844 C 34.246094 14.582031 34.433594 14.945312 34.433594 15.308594 C 34.453125 15.449219 34.453125 15.59375 34.433594 15.734375 C 34.433594 15.792969 34.371094 15.855469 34.433594 15.855469 C 34.5625 15.75 34.710938 15.667969 34.871094 15.613281 C 35.246094 15.429688 35.621094 15.429688 35.871094 15.25 C 36.054688 15.066406 36.054688 14.886719 36.054688 14.644531 C 36.042969 14.550781 36 14.464844 35.929688 14.402344 C 35.683594 14.28125 35.433594 14.339844 35.308594 14.523438 L 35.308594 14.28125 C 35.308594 14.097656 35.246094 13.976562 35.121094 13.917969 C 35.058594 13.871094 34.988281 13.847656 34.914062 13.84375 Z M 33.558594 15.625 C 33.492188 15.625 33.429688 15.640625 33.371094 15.671875 C 33.183594 15.792969 33.058594 16.035156 33.058594 16.21875 C 33.058594 16.582031 33.308594 16.824219 33.433594 17.1875 L 33.558594 17.609375 L 33.558594 17.671875 C 33.660156 17.527344 33.789062 17.40625 33.933594 17.308594 C 34.246094 17.125 34.621094 17.003906 34.808594 16.703125 C 34.871094 16.519531 34.933594 16.277344 34.808594 16.097656 C 34.769531 16.015625 34.703125 15.953125 34.621094 15.914062 C 34.382812 15.871094 34.136719 15.964844 33.996094 16.15625 C 34.011719 16.078125 34.011719 15.996094 33.996094 15.914062 C 33.933594 15.792969 33.871094 15.671875 33.746094 15.671875 C 33.6875 15.640625 33.625 15.625 33.558594 15.625 Z M 33.027344 17.585938 C 32.925781 17.574219 32.824219 17.605469 32.746094 17.671875 C 32.574219 17.777344 32.457031 17.957031 32.433594 18.15625 C 32.433594 18.519531 32.683594 18.761719 32.808594 19.125 L 32.933594 19.546875 L 32.933594 19.667969 C 33.03125 19.503906 33.15625 19.363281 33.308594 19.246094 C 33.621094 19.0625 33.996094 18.941406 34.183594 18.640625 C 34.246094 18.519531 34.308594 18.277344 34.183594 18.035156 C 34.144531 17.953125 34.078125 17.890625 33.996094 17.851562 C 33.746094 17.792969 33.496094 17.914062 33.371094 18.15625 L 33.371094 17.914062 C 33.308594 17.730469 33.246094 17.609375 33.121094 17.609375 C 33.089844 17.597656 33.058594 17.589844 33.027344 17.585938 Z M 32.246094 19.503906 C 32.203125 19.511719 32.160156 19.527344 32.121094 19.546875 C 31.914062 19.679688 31.792969 19.910156 31.808594 20.152344 C 31.808594 20.457031 32.058594 20.757812 32.183594 21.0625 L 32.308594 21.484375 L 32.308594 21.605469 C 32.410156 21.464844 32.539062 21.34375 32.683594 21.242188 C 32.996094 21 33.371094 20.878906 33.558594 20.636719 C 33.621094 20.457031 33.683594 20.214844 33.558594 20.03125 C 33.53125 19.933594 33.460938 19.847656 33.371094 19.789062 C 33.121094 19.730469 32.871094 19.851562 32.746094 20.09375 C 32.761719 20.011719 32.761719 19.929688 32.746094 19.851562 C 32.71875 19.714844 32.625 19.605469 32.496094 19.546875 C 32.421875 19.507812 32.332031 19.492188 32.246094 19.503906 Z M 31.558594 21.503906 C 31.515625 21.511719 31.472656 21.523438 31.433594 21.546875 C 31.246094 21.667969 31.128906 21.871094 31.125 22.089844 C 31.125 22.453125 31.371094 22.695312 31.496094 23.058594 L 31.621094 23.484375 L 31.621094 23.542969 C 31.722656 23.402344 31.851562 23.28125 31.996094 23.179688 C 32.308594 23 32.683594 22.878906 32.871094 22.574219 C 32.933594 22.394531 32.996094 22.152344 32.871094 21.96875 C 32.84375 21.871094 32.777344 21.785156 32.683594 21.726562 C 32.433594 21.667969 32.183594 21.789062 32.058594 22.03125 C 32.074219 21.949219 32.074219 21.867188 32.058594 21.789062 C 32.015625 21.675781 31.925781 21.589844 31.808594 21.546875 C 31.734375 21.503906 31.644531 21.488281 31.558594 21.503906 Z M 30.9375 23.449219 C 30.894531 23.453125 30.851562 23.464844 30.8125 23.484375 C 30.625 23.605469 30.5 23.847656 30.5 24.027344 C 30.5 24.390625 30.75 24.632812 30.875 24.996094 L 31 25.421875 L 31 25.542969 C 31.101562 25.402344 31.226562 25.277344 31.371094 25.179688 L 31.371094 25.117188 C 31.683594 24.9375 32.058594 24.816406 32.246094 24.511719 C 32.308594 24.390625 32.371094 24.148438 32.246094 23.90625 C 32.210938 23.828125 32.144531 23.761719 32.058594 23.726562 C 31.820312 23.683594 31.578125 23.777344 31.433594 23.96875 C 31.449219 23.886719 31.449219 23.804688 31.433594 23.726562 C 31.371094 23.605469 31.3125 23.484375 31.1875 23.484375 C 31.109375 23.449219 31.019531 23.433594 30.9375 23.449219 Z M 30.398438 25.535156 C 30.34375 25.546875 30.292969 25.570312 30.25 25.601562 C 30.0625 25.75 29.96875 25.976562 30 26.207031 C 30.125 26.511719 30.375 26.753906 30.625 27.117188 C 30.714844 27.265625 30.777344 27.429688 30.8125 27.601562 L 30.875 27.601562 L 30.875 27.480469 L 31.125 27.117188 C 31.371094 26.875 31.683594 26.691406 31.808594 26.390625 C 31.890625 26.191406 31.867188 25.964844 31.746094 25.785156 C 31.683594 25.675781 31.566406 25.605469 31.433594 25.601562 C 31.25 25.601562 31 25.722656 31 25.964844 C 30.972656 25.878906 30.933594 25.796875 30.875 25.722656 C 30.800781 25.621094 30.6875 25.554688 30.5625 25.542969 C 30.507812 25.53125 30.453125 25.53125 30.398438 25.542969 Z M 30.375 27.535156 C 30.257812 27.523438 30.140625 27.570312 30.0625 27.65625 C 29.875 27.800781 29.78125 28.03125 29.8125 28.261719 C 29.9375 28.5625 30.1875 28.804688 30.4375 29.109375 C 30.527344 29.257812 30.589844 29.421875 30.625 29.59375 L 30.6875 29.59375 L 30.6875 29.472656 L 30.9375 29.175781 C 31.1875 28.871094 31.496094 28.691406 31.621094 28.386719 C 31.683594 28.207031 31.683594 27.964844 31.558594 27.78125 C 31.480469 27.695312 31.367188 27.652344 31.25 27.660156 C 31.0625 27.601562 30.8125 27.78125 30.8125 28.023438 C 30.789062 27.9375 30.746094 27.851562 30.6875 27.78125 C 30.625 27.660156 30.5 27.539062 30.375 27.539062 Z M 30.1875 29.59375 C 30.066406 29.585938 29.953125 29.632812 29.875 29.71875 C 29.6875 29.867188 29.59375 30.097656 29.625 30.324219 L 30.25 31.171875 L 30.4375 31.539062 L 30.4375 31.660156 L 30.5 31.660156 L 30.5 31.539062 L 30.75 31.234375 C 31 30.929688 31.3125 30.75 31.4375 30.445312 C 31.515625 30.246094 31.492188 30.023438 31.375 29.839844 C 31.300781 29.738281 31.1875 29.671875 31.0625 29.660156 C 30.875 29.660156 30.625 29.839844 30.625 30.082031 C 30.601562 29.996094 30.558594 29.914062 30.5 29.839844 C 30.4375 29.71875 30.3125 29.597656 30.1875 29.597656 Z M 29.832031 31.652344 C 29.757812 31.652344 29.6875 31.671875 29.625 31.710938 C 29.5 31.894531 29.375 32.144531 29.375 32.324219 C 29.5 32.628906 29.75 32.871094 30 33.234375 L 30.1875 33.597656 L 30.1875 33.71875 L 30.25 33.71875 L 30.25 33.65625 C 30.308594 33.503906 30.390625 33.359375 30.5 33.234375 C 30.75 32.992188 31.0625 32.808594 31.1875 32.507812 C 31.265625 32.304688 31.242188 32.082031 31.125 31.902344 C 31.058594 31.792969 30.941406 31.722656 30.8125 31.71875 C 30.625 31.71875 30.375 31.902344 30.375 32.144531 C 30.347656 32.054688 30.308594 31.972656 30.25 31.902344 C 30.1875 31.71875 30.0625 31.660156 29.9375 31.660156 C 29.902344 31.648438 29.867188 31.644531 29.832031 31.644531 Z M 29.75 33.65625 C 29.632812 33.648438 29.515625 33.691406 29.4375 33.777344 C 29.25 33.921875 29.15625 34.152344 29.1875 34.382812 C 29.3125 34.6875 29.5625 34.929688 29.8125 35.230469 L 30 35.65625 L 30 35.714844 L 30.0625 35.714844 L 30.0625 35.59375 L 30.3125 35.292969 C 30.5625 35.050781 30.875 34.867188 31 34.566406 C 31.0625 34.324219 31.0625 34.082031 30.9375 33.960938 C 30.871094 33.851562 30.753906 33.78125 30.625 33.777344 C 30.4375 33.71875 30.1875 33.898438 30.1875 34.140625 C 30.164062 34.050781 30.121094 33.96875 30.0625 33.898438 C 30 33.777344 29.875 33.65625 29.75 33.65625 Z M 29.5 35.714844 C 29.382812 35.714844 29.269531 35.757812 29.1875 35.835938 C 29 35.980469 28.90625 36.210938 28.9375 36.441406 L 29.5625 37.289062 L 29.75 37.714844 L 29.75 37.773438 L 29.8125 37.773438 L 29.8125 37.652344 L 30.0625 37.351562 C 30.3125 37.046875 30.625 36.867188 30.75 36.5625 C 30.8125 36.382812 30.8125 36.140625 30.6875 35.957031 C 30.621094 35.847656 30.503906 35.78125 30.375 35.777344 C 30.1875 35.777344 29.9375 35.957031 29.9375 36.199219 C 29.914062 36.113281 29.871094 36.027344 29.8125 35.957031 C 29.75 35.835938 29.625 35.714844 29.5 35.714844 Z M 29.207031 37.761719 C 29.132812 37.765625 29.058594 37.789062 29 37.835938 C 28.8125 37.980469 28.71875 38.210938 28.75 38.441406 C 28.875 38.742188 29.125 38.984375 29.375 39.347656 L 29.5625 39.710938 L 29.5625 39.832031 L 29.625 39.832031 L 29.625 39.710938 L 29.875 39.347656 C 30.125 39.105469 30.4375 38.925781 30.5625 38.621094 C 30.640625 38.421875 30.621094 38.195312 30.5 38.015625 C 30.425781 37.914062 30.3125 37.847656 30.1875 37.835938 C 30 37.835938 29.75 38.015625 29.75 38.257812 C 29.726562 38.167969 29.683594 38.085938 29.625 38.015625 C 29.5625 37.835938 29.4375 37.773438 29.3125 37.773438 C 29.277344 37.765625 29.242188 37.761719 29.207031 37.761719 Z M 29.207031 37.761719 "/>
<path style=" stroke:none;fill-rule:nonzero;fill:rgb(21.960784%,25.098041%,27.843139%);fill-opacity:1;" d="M 39.367188 13.613281 C 39.367188 13.613281 41.613281 8.527344 46.609375 7.742188 C 50.105469 7.136719 51.105469 5.925781 51.105469 5.925781 C 51.105469 5.925781 52.542969 10.101562 52.417969 12.039062 C 52.417969 12.039062 46.171875 9.800781 39.367188 13.613281 Z M 39.367188 13.613281 "/>
<path style=" stroke:none;fill-rule:nonzero;fill:rgb(93.333334%,86.666667%,86.666667%);fill-opacity:1;" d="M 50.542969 10.164062 C 50.402344 10.363281 50.296875 10.589844 50.230469 10.828125 L 50.230469 10.890625 L 50.105469 10.707031 C 50.003906 10.53125 49.878906 10.367188 49.730469 10.222656 C 49.296875 9.738281 48.859375 9.496094 48.671875 9.011719 C 48.546875 8.710938 48.609375 8.347656 48.796875 8.042969 C 48.898438 7.90625 49.058594 7.820312 49.234375 7.800781 C 49.421875 7.800781 49.671875 7.921875 49.792969 8.105469 C 49.875 8.195312 49.9375 8.296875 49.980469 8.40625 C 49.980469 8.042969 50.292969 7.742188 50.605469 7.679688 C 50.792969 7.664062 50.976562 7.730469 51.105469 7.863281 C 51.347656 8.101562 51.464844 8.4375 51.417969 8.769531 C 51.292969 9.253906 50.855469 9.617188 50.542969 10.101562 Z M 47.609375 10.164062 C 47.484375 10.347656 47.402344 10.550781 47.359375 10.769531 L 47.296875 10.707031 C 47.214844 10.550781 47.109375 10.410156 46.984375 10.285156 C 46.671875 9.921875 46.296875 9.679688 46.171875 9.375 C 46.109375 9.132812 46.171875 8.832031 46.296875 8.648438 C 46.363281 8.527344 46.476562 8.441406 46.609375 8.40625 C 46.796875 8.40625 46.921875 8.46875 47.046875 8.648438 L 47.171875 8.890625 C 47.164062 8.597656 47.375 8.34375 47.671875 8.285156 C 47.816406 8.289062 47.953125 8.355469 48.046875 8.46875 C 48.234375 8.648438 48.296875 8.953125 48.234375 9.195312 C 48.234375 9.558594 47.859375 9.800781 47.609375 10.222656 Z M 45.484375 10.464844 L 45.359375 10.828125 L 45.359375 10.949219 L 45.296875 10.949219 C 45.214844 10.8125 45.109375 10.6875 44.988281 10.585938 C 44.675781 10.34375 44.363281 10.222656 44.175781 9.980469 C 44.113281 9.800781 44.050781 9.558594 44.175781 9.375 C 44.210938 9.257812 44.304688 9.167969 44.425781 9.132812 C 44.550781 9.132812 44.675781 9.132812 44.800781 9.253906 C 44.871094 9.300781 44.9375 9.363281 44.988281 9.4375 C 44.988281 9.195312 45.046875 9.011719 45.296875 8.953125 C 45.398438 8.90625 45.511719 8.90625 45.609375 8.953125 C 45.796875 9.097656 45.890625 9.328125 45.859375 9.558594 C 45.859375 9.859375 45.609375 10.164062 45.484375 10.464844 Z M 43.613281 11.011719 L 43.613281 11.433594 L 43.488281 11.375 C 43.425781 11.3125 43.363281 11.191406 43.238281 11.191406 C 42.988281 11.011719 42.675781 10.949219 42.550781 10.769531 C 42.453125 10.625 42.429688 10.445312 42.488281 10.285156 C 42.519531 10.199219 42.589844 10.132812 42.675781 10.101562 L 42.988281 10.101562 C 43.042969 10.152344 43.085938 10.214844 43.113281 10.285156 C 43.050781 10.101562 43.113281 9.921875 43.300781 9.859375 C 43.378906 9.824219 43.46875 9.824219 43.550781 9.859375 C 43.699219 9.953125 43.789062 10.113281 43.800781 10.285156 Z M 43.613281 11.011719 "/>
<path style=" stroke:none;fill-rule:nonzero;fill:rgb(93.333334%,33.333334%,26.666668%);fill-opacity:1;" d="M 38.679688 45.464844 C 39.214844 45.453125 39.742188 45.347656 40.242188 45.160156 C 44.238281 43.769531 43.800781 39.710938 43.800781 39.652344 L 43.675781 39.589844 C 43.675781 39.589844 43.925781 43.527344 40.117188 44.859375 C 36.367188 46.191406 32.621094 41.648438 32.621094 41.589844 L 32.371094 41.832031 C 32.496094 42.011719 35.308594 45.464844 38.679688 45.464844 Z M 42.550781 49.097656 C 42.425781 49.398438 42.363281 49.761719 42.363281 50.1875 L 42.363281 50.609375 C 42.238281 50.609375 42.113281 50.429688 42.113281 50.367188 C 41.84375 50.0625 41.527344 49.796875 41.175781 49.582031 C 40.242188 48.976562 39.242188 48.671875 38.679688 47.945312 C 38.367188 47.460938 38.304688 46.734375 38.492188 46.191406 C 38.617188 45.886719 38.867188 45.644531 39.117188 45.585938 C 39.554688 45.464844 39.929688 45.585938 40.304688 45.765625 C 40.484375 45.917969 40.632812 46.105469 40.738281 46.3125 C 40.675781 45.585938 40.988281 44.980469 41.550781 44.738281 C 41.867188 44.640625 42.210938 44.6875 42.488281 44.859375 C 43.015625 45.175781 43.363281 45.710938 43.425781 46.3125 C 43.488281 47.21875 42.863281 48.007812 42.550781 49.035156 Z M 42.550781 49.097656 "/>
<path style=" stroke:none;fill-rule:nonzero;fill:rgb(93.333334%,80.000001%,26.666668%);fill-opacity:1;" d="M 63.160156 51.941406 L 63.78125 52.789062 C 63.78125 52.789062 56.789062 55.210938 53.292969 65.992188 L 52.355469 65.871094 C 52.605469 64.175781 54.289062 55.574219 63.160156 51.941406 Z M 63.160156 51.941406 "/>
<path style=" stroke:none;fill-rule:nonzero;fill:rgb(26.666668%,60.000002%,40.000001%);fill-opacity:1;" d="M 51.855469 63.691406 C 51.855469 63.691406 59.660156 49.519531 58.601562 38.378906 L 57.476562 38.378906 C 57.476562 38.378906 57.601562 50.367188 50.792969 63.507812 Z M 51.855469 63.691406 "/>
<path style=" stroke:none;fill-rule:nonzero;fill:rgb(93.333334%,80.000001%,26.666668%);fill-opacity:1;" d="M 64.84375 54.183594 L 65.34375 54.847656 C 64.53125 55.210938 59.285156 57.695312 56.539062 66.355469 L 55.726562 66.234375 C 56.460938 60.960938 59.890625 56.40625 64.84375 54.121094 Z M 64.84375 54.183594 "/>
<path style=" stroke:none;fill-rule:nonzero;fill:rgb(93.333334%,81.960785%,70.980394%);fill-opacity:1;" d="M 51.855469 58.121094 C 52.292969 58.121094 53.042969 59.089844 51.480469 60.058594 L 49.855469 61.207031 L 54.976562 60.117188 C 54.976562 60.117188 57.851562 59.390625 57.476562 60.238281 C 57.289062 60.722656 55.976562 61.390625 55.539062 61.449219 C 55.101562 61.449219 51.292969 63.023438 51.292969 63.023438 L 55.289062 62.359375 C 55.289062 62.359375 58.414062 61.753906 58.414062 62.054688 C 58.539062 63.507812 56.601562 63.75 56.101562 63.8125 C 55.601562 63.8125 51.417969 64.902344 51.417969 64.902344 L 56.414062 64.71875 C 56.414062 64.71875 58.351562 64.417969 58.289062 64.902344 C 58.039062 65.929688 56.664062 66.113281 56.414062 66.113281 C 56.226562 66.113281 55.789062 66.113281 55.226562 66.234375 L 42.988281 64.839844 L 41.425781 63.507812 L 47.046875 60.300781 C 48.484375 59.390625 50.292969 59.089844 51.667969 58.179688 C 51.71875 58.136719 51.789062 58.113281 51.855469 58.121094 Z M 51.855469 58.121094 "/>
<path style=" stroke:none;fill-rule:nonzero;fill:rgb(93.333334%,33.333334%,26.666668%);fill-opacity:1;" d="M 31.0625 39.46875 C 31.0625 39.46875 39.804688 49.761719 42.988281 64.839844 L 37.367188 64.234375 L 35.371094 63.386719 L 33.308594 63.691406 L 21.445312 62.359375 C 21.695312 60.300781 22.691406 49.761719 16.761719 41.769531 Z M 31.0625 39.46875 "/>
<path style=" stroke:none;fill-rule:nonzero;fill:rgb(21.960784%,25.098041%,27.843139%);fill-opacity:1;" d="M 27.5 39.894531 C 27.5 39.894531 36.242188 51.699219 37.492188 64.175781 L 33.371094 63.691406 C 32.871094 60.964844 30.25 46.917969 23.128906 40.679688 Z M 27.5 39.894531 "/>
<path style=" stroke:none;fill-rule:nonzero;fill:rgb(90.196079%,61.56863%,37.254903%);fill-opacity:1;" d="M 38.679688 20.636719 C 38.679688 20.636719 38.054688 27.902344 41.800781 28.328125 C 41.800781 28.328125 35.992188 30.144531 38.679688 20.636719 Z M 38.679688 20.636719 "/>
<path style=" stroke:none;fill-rule:nonzero;fill:rgb(21.960784%,25.098041%,27.843139%);fill-opacity:1;" d="M 52.792969 41.285156 C 52.792969 41.285156 51.855469 50.367188 38.492188 51.699219 L 38.742188 52.183594 C 38.742188 52.183594 53.105469 51.398438 53.292969 41.285156 Z M 52.792969 41.285156 "/>
<path style=" stroke:none;fill-rule:nonzero;fill:rgb(79.215688%,14.901961%,12.941177%);fill-opacity:1;" d="M 58.972656 38.03125 C 58.972656 38.03125 60.203125 34.574219 60.835938 34.160156 C 60.835938 34.160156 60.933594 32.054688 59.625 31.378906 C 59.625 31.378906 57.152344 32.601562 57.347656 33.882812 C 57.542969 35.167969 58.972656 38.03125 58.972656 38.03125 Z M 58.972656 38.03125 "/>
<path style=" stroke:none;fill-rule:nonzero;fill:rgb(87.058824%,18.431373%,14.901961%);fill-opacity:1;" d="M 59.207031 37.835938 C 59.207031 37.835938 61.707031 33.554688 58.4375 31.960938 L 55.753906 32.171875 C 55.753906 32.171875 53.726562 33.746094 54.984375 36.171875 C 56.246094 38.597656 58.691406 39.972656 59.234375 37.753906 Z M 59.207031 37.835938 "/>
<path style=" stroke:none;fill-rule:nonzero;fill:rgb(84.313726%,30.980393%,25.882354%);fill-opacity:1;" d="M 58.335938 38.445312 C 58.335938 38.445312 53.234375 37.195312 53.140625 35.390625 C 53.050781 33.585938 55.851562 32.582031 56.667969 33.726562 C 57.457031 34.949219 60.011719 37.859375 58.335938 38.445312 Z M 58.335938 38.445312 "/>
<path style=" stroke:none;fill-rule:nonzero;fill:rgb(93.333334%,33.333334%,26.666668%);fill-opacity:1;" d="M 61.84375 32.019531 C 61.84375 32.019531 61.734375 39.898438 56.792969 38.894531 C 54.832031 38.441406 53.277344 37.304688 52.269531 36.460938 C 52.269531 36.460938 54.625 33.054688 57.726562 36.261719 C 60.757812 39.441406 58.222656 38.308594 58.222656 38.308594 C 58.222656 38.308594 60.019531 33.484375 61.871094 31.9375 Z M 61.84375 32.019531 "/>
<path style=" stroke:none;fill-rule:nonzero;fill:rgb(94.509804%,45.09804%,35.294119%);fill-opacity:1;" d="M 59.460938 38.492188 C 59.460938 38.492188 58.199219 36.996094 57.101562 36.867188 C 56.007812 36.738281 54.492188 37.105469 54.488281 37.570312 C 54.484375 38.035156 54.976562 38.496094 55.550781 38.710938 C 56.796875 39.195312 58.195312 39.117188 59.460938 38.492188 Z M 59.460938 38.492188 "/>
<path style=" stroke:none;fill-rule:nonzero;fill:rgb(26.666668%,60.000002%,40.000001%);fill-opacity:1;" d="M 56.351562 50.449219 C 56.351562 50.449219 55.503906 45.542969 52.550781 43.566406 C 52.550781 43.566406 52.011719 48.828125 56.351562 50.449219 Z M 56.351562 50.449219 "/>
<path style=" stroke:none;fill-rule:nonzero;fill:rgb(93.333334%,80.000001%,26.666668%);fill-opacity:1;" d="M 30.1875 39.652344 C 29.875 39.773438 29.6875 40.257812 29.875 40.679688 C 28.75 39.652344 28.0625 40.984375 29 41.890625 C 29.4375 42.253906 30.1875 42.316406 30.8125 42.558594 C 31.0625 42.617188 31.3125 42.738281 31.496094 42.921875 L 31.683594 43.042969 L 31.683594 42.980469 C 31.683594 42.921875 31.621094 42.859375 31.621094 42.800781 L 31.621094 42.011719 C 31.621094 40.621094 31.125 39.289062 30.1875 39.652344 Z M 16.761719 41.832031 L 16.449219 42.011719 C 16.449219 42.011719 23.066406 51.277344 21.195312 62.359375 L 22.070312 62.417969 C 22.253906 60.785156 23.378906 49.460938 16.949219 42.011719 Z M 32.433594 42.679688 C 32.058594 42.800781 31.996094 43.34375 32.121094 43.769531 C 31.996094 43.648438 31.871094 43.527344 31.746094 43.464844 C 31.496094 43.34375 31.25 43.34375 31.0625 43.464844 C 30.875 43.585938 30.75 43.769531 30.6875 43.949219 C 30.625 44.375 30.75 44.796875 31.0625 45.101562 C 31.433594 45.523438 32.121094 45.585938 32.808594 45.828125 L 33.496094 46.25 L 33.621094 46.371094 C 33.683594 46.371094 33.621094 46.3125 33.621094 46.3125 L 33.621094 45.34375 C 33.808594 44.070312 33.808594 42.316406 32.433594 42.679688 Z M 34.621094 45.949219 C 34.496094 45.949219 34.433594 45.949219 34.308594 46.007812 C 33.996094 46.191406 33.871094 46.675781 33.996094 47.097656 C 33.871094 46.976562 33.746094 46.855469 33.621094 46.796875 C 33.371094 46.675781 33.121094 46.675781 32.933594 46.796875 C 32.746094 46.917969 32.558594 47.097656 32.558594 47.339844 C 32.496094 47.703125 32.621094 48.128906 32.933594 48.429688 C 33.308594 48.855469 33.996094 48.914062 34.683594 49.15625 C 34.933594 49.277344 35.183594 49.460938 35.371094 49.640625 L 35.496094 49.761719 C 35.558594 49.703125 35.496094 49.703125 35.496094 49.640625 L 35.496094 48.734375 C 35.558594 48.007812 35.871094 47.402344 35.746094 46.796875 C 35.558594 46.433594 35.308594 46.070312 34.933594 46.007812 C 34.808594 45.949219 34.746094 45.949219 34.621094 45.949219 Z M 36.429688 49.398438 C 36.367188 49.398438 36.242188 49.398438 36.179688 49.460938 C 35.808594 49.582031 35.683594 50.066406 35.808594 50.488281 C 35.683594 50.367188 35.558594 50.246094 35.433594 50.1875 C 35.183594 50.066406 34.933594 50.003906 34.683594 50.125 C 34.496094 50.246094 34.371094 50.429688 34.308594 50.609375 C 34.183594 50.972656 34.308594 51.398438 34.558594 51.699219 C 34.933594 52.183594 35.621094 52.304688 36.242188 52.667969 C 36.492188 52.789062 36.679688 52.910156 36.867188 53.09375 L 37.054688 53.273438 L 37.054688 52.972656 L 37.117188 52.246094 L 37.117188 52.183594 C 37.242188 51.578125 37.617188 50.972656 37.492188 50.367188 C 37.429688 50.003906 37.179688 49.640625 36.804688 49.460938 C 36.679688 49.398438 36.554688 49.398438 36.429688 49.398438 Z M 38.054688 52.910156 C 37.992188 52.910156 37.929688 52.972656 37.867188 52.972656 C 37.492188 53.09375 37.367188 53.578125 37.492188 54 C 37.367188 53.878906 37.242188 53.757812 37.117188 53.699219 C 36.867188 53.578125 36.617188 53.515625 36.367188 53.636719 C 36.179688 53.757812 36.054688 53.941406 35.992188 54.121094 C 35.871094 54.484375 35.992188 54.910156 36.242188 55.210938 C 36.617188 55.695312 37.304688 55.816406 37.929688 56.121094 C 38.179688 56.242188 38.367188 56.421875 38.554688 56.605469 L 38.742188 56.785156 L 38.742188 56.484375 L 38.804688 55.757812 L 38.804688 55.695312 C 38.929688 55.089844 39.304688 54.484375 39.179688 53.878906 C 39.117188 53.515625 38.867188 53.152344 38.492188 52.972656 C 38.367188 52.910156 38.242188 52.910156 38.054688 52.910156 Z M 39.679688 56.605469 L 39.492188 56.605469 C 39.117188 56.664062 38.929688 57.089844 38.929688 57.574219 C 38.867188 57.453125 38.742188 57.332031 38.617188 57.210938 C 38.429688 56.96875 38.179688 56.96875 37.929688 56.96875 C 37.742188 57.03125 37.554688 57.210938 37.492188 57.394531 C 37.304688 57.757812 37.304688 58.179688 37.492188 58.542969 C 37.742188 59.089844 38.429688 59.269531 38.992188 59.695312 L 39.554688 60.300781 L 39.742188 60.480469 C 39.742188 60.179688 39.804688 59.816406 39.929688 59.511719 C 40.179688 58.847656 40.613281 58.363281 40.613281 57.757812 C 40.613281 57.332031 40.429688 56.96875 40.117188 56.726562 C 39.992188 56.664062 39.867188 56.605469 39.679688 56.605469 Z M 40.367188 60.300781 C 39.992188 60.421875 39.804688 60.84375 39.804688 61.269531 C 39.742188 61.148438 39.617188 61.027344 39.492188 60.90625 C 39.304688 60.722656 39.054688 60.664062 38.804688 60.722656 C 38.617188 60.785156 38.429688 60.964844 38.367188 61.148438 C 38.179688 61.511719 38.179688 61.875 38.367188 62.238281 C 38.617188 62.84375 39.242188 63.023438 39.867188 63.449219 C 40.054688 63.628906 40.304688 63.8125 40.429688 64.054688 L 40.613281 64.234375 L 40.613281 63.933594 C 40.613281 63.691406 40.675781 63.449219 40.800781 63.207031 L 40.800781 63.265625 C 41.050781 62.539062 41.488281 62.054688 41.488281 61.449219 C 41.488281 61.027344 41.300781 60.664062 40.988281 60.421875 C 40.800781 60.300781 40.550781 60.300781 40.367188 60.300781 Z M 40.367188 60.300781 "/>
<path style=" stroke:none;fill-rule:nonzero;fill:rgb(93.725491%,83.529413%,74.117649%);fill-opacity:1;" d="M 43.039062 64.796875 L 44.832031 63.601562 L 55.269531 66.175781 L 44.648438 66.773438 Z M 43.039062 64.796875 "/>
<path style=" stroke:none;fill-rule:nonzero;fill:rgb(93.333334%,33.333334%,26.666668%);fill-opacity:1;" d="M 22.101562 62.402344 L 28.773438 54.617188 L 33.34375 63.660156 L 26.054688 66.296875 Z M 37.421875 64.140625 L 40.570312 64.199219 L 43.039062 64.796875 L 39.582031 68.988281 Z M 62.558594 66.953125 L 66.449219 67.195312 L 68.367188 67.671875 L 63.238281 68.808594 Z M 62.558594 66.953125 "/>
<path style=" stroke:none;fill-rule:nonzero;fill:rgb(90.980393%,50.196081%,41.960785%);fill-opacity:1;" d="M 42.175781 98.417969 L 42.175781 89.152344 C 42.175781 89.152344 47.671875 88.96875 48.421875 91.996094 C 49.167969 95.027344 42.175781 98.417969 42.175781 98.417969 Z M 42.175781 98.417969 "/>
<path style=" stroke:none;fill-rule:nonzero;fill:rgb(93.333334%,33.333334%,26.666668%);fill-opacity:1;" d="M 44.300781 97.449219 L 48.980469 97.449219 L 48.980469 86.246094 L 44.300781 86.246094 Z M 44.300781 97.449219 "/>
<path style=" stroke:none;fill-rule:nonzero;fill:rgb(86.274511%,37.64706%,28.235295%);fill-opacity:1;" d="M 38.617188 113.191406 C 38.617188 113.191406 34.371094 117.488281 38.617188 118.457031 C 38.617188 118.457031 37.304688 121.609375 43.488281 122.578125 C 49.730469 123.546875 65.96875 124.210938 66.03125 86.609375 L 54.789062 88.546875 Z M 38.617188 113.191406 "/>
<path style=" stroke:none;fill-rule:nonzero;fill:rgb(93.333334%,81.960785%,70.980394%);fill-opacity:1;" d="M 58.972656 90.605469 C 58.972656 90.605469 50.855469 96.238281 51.292969 105.257812 C 51.667969 113.855469 46.671875 120.15625 38.867188 116.519531 L 38.492188 111.375 L 36.492188 106.289062 L 38.492188 105.683594 L 38.304688 103.746094 L 42.488281 102.957031 L 38.429688 101.324219 L 39.054688 100.476562 C 39.242188 100.234375 37.804688 96.660156 40.113281 96.660156 C 43.300781 96.660156 46.171875 96.78125 46.546875 95.027344 C 47.171875 92.359375 47.984375 90.785156 45.921875 90.300781 C 37.804688 88.484375 36.992188 88.484375 36.992188 88.484375 C 36.992188 88.484375 31.871094 71.230469 51.042969 70.019531 Z M 58.972656 90.605469 "/>
<path style=" stroke:none;fill-rule:nonzero;fill:rgb(21.960784%,25.098041%,27.843139%);fill-opacity:1;" d="M 40.363281 110.585938 C 40.363281 110.585938 41.050781 110.34375 41.925781 110.585938 C 43.113281 110.949219 44.484375 111.796875 45.421875 110.464844 L 44.609375 110.707031 C 44.609375 110.707031 43.675781 110.707031 43.238281 110.222656 C 43.238281 110.222656 43.363281 109.011719 42.363281 109.074219 C 41.363281 109.074219 41.613281 110.042969 41.613281 110.042969 C 41.613281 110.042969 40.550781 109.859375 40.363281 110.585938 Z M 40.363281 110.585938 "/>
<path style=" stroke:none;fill-rule:nonzero;fill:rgb(86.274511%,37.64706%,28.235295%);fill-opacity:1;" d="M 40.113281 113.613281 C 40.113281 113.613281 40.175781 112.34375 40.488281 112.34375 C 40.800781 112.34375 44.300781 114.703125 46.484375 112.101562 C 46.484375 112.101562 44.984375 115.128906 40.863281 113.371094 C 40.863281 113.371094 40.425781 113.070312 40.113281 113.613281 Z M 40.113281 113.613281 "/>
<path style=" stroke:none;fill-rule:nonzero;fill:rgb(21.960784%,25.098041%,27.843139%);fill-opacity:1;" d="M 37.054688 88.667969 C 36.324219 88.558594 35.625 88.3125 34.996094 87.941406 C 30.683594 83.703125 14.386719 61.539062 14.386719 61.539062 L 34.808594 63.839844 L 48.546875 66.566406 C 50.292969 71.046875 54.914062 72.015625 51.355469 78.132812 C 50.539062 78.136719 49.722656 78.21875 48.917969 78.375 C 39.738281 80.070312 37.554688 85.578125 37.054688 88.667969 Z M 73.148438 88.0625 C 69.269531 81.988281 67.660156 74.804688 68.589844 67.714844 L 75.648438 68.503906 L 76.519531 82.429688 C 76.832031 87.394531 74.585938 87.273438 73.148438 88.0625 Z M 73.148438 88.0625 "/>
<g clip-path="url(#clip3)" clip-rule="nonzero">
<g clip-path="url(#clip4)" clip-rule="nonzero">
<path style=" stroke:none;fill-rule:nonzero;fill:rgb(93.333334%,33.333334%,26.666668%);fill-opacity:1;" d="M 36.054688 89.695312 L 38.429688 86.851562 C 37.992188 85.820312 36.929688 85.335938 35.992188 84.429688 C 35.648438 84.109375 35.355469 83.742188 35.121094 83.339844 L 34.933594 82.976562 L 34.871094 82.976562 L 34.871094 83.097656 C 34.785156 83.652344 34.59375 84.183594 34.308594 84.671875 C 33.683594 85.761719 32.808594 86.546875 32.683594 87.578125 Z M 70.714844 84.066406 C 71.082031 83.992188 71.398438 83.773438 71.589844 83.460938 C 71.972656 82.859375 72.042969 82.121094 71.777344 81.460938 C 71.339844 80.492188 70.277344 79.949219 69.339844 79.039062 Z M 74.523438 83.339844 C 75.210938 83.21875 75.710938 82.550781 75.773438 81.765625 C 75.875 82.011719 76.023438 82.238281 76.210938 82.429688 C 76.300781 82.542969 76.40625 82.644531 76.519531 82.734375 L 76.519531 82.371094 L 76.273438 78.191406 L 76.085938 77.949219 C 75.738281 77.628906 75.445312 77.261719 75.210938 76.859375 L 74.960938 76.496094 L 74.898438 76.496094 L 74.898438 76.679688 C 74.804688 77.210938 74.613281 77.722656 74.335938 78.191406 C 73.710938 79.34375 72.835938 80.128906 72.710938 81.160156 C 72.65625 81.875 72.957031 82.574219 73.523438 83.035156 C 73.769531 83.234375 74.078125 83.339844 74.398438 83.339844 C 74.441406 83.339844 74.480469 83.339844 74.523438 83.339844 Z M 71.339844 70.625 C 72.023438 70.503906 72.523438 69.835938 72.585938 69.050781 C 72.671875 69.289062 72.800781 69.515625 72.960938 69.714844 C 73.335938 70.078125 73.773438 70.261719 74.210938 70.261719 C 74.601562 70.203125 74.945312 69.984375 75.148438 69.65625 C 75.375 69.289062 75.484375 68.867188 75.460938 68.441406 L 69.714844 67.835938 C 69.367188 68.710938 69.617188 69.699219 70.339844 70.320312 C 70.585938 70.515625 70.894531 70.625 71.214844 70.625 C 71.253906 70.625 71.296875 70.625 71.339844 70.625 Z M 32.246094 84.851562 L 32.246094 84.730469 C 32.335938 84.175781 32.519531 83.640625 32.808594 83.15625 L 32.808594 83.21875 C 33.433594 82.066406 34.308594 81.28125 34.433594 80.191406 C 34.484375 79.503906 34.207031 78.835938 33.683594 78.375 C 33.421875 78.121094 33.058594 77.984375 32.683594 78.011719 C 31.933594 78.132812 31.433594 78.796875 31.433594 79.644531 L 30.996094 78.917969 C 30.621094 78.554688 30.1875 78.433594 29.75 78.433594 C 29.375 78.496094 29.0625 78.738281 28.875 79.039062 C 28.492188 79.640625 28.421875 80.378906 28.6875 81.039062 C 29.125 82.007812 30.1875 82.550781 31.121094 83.398438 C 31.472656 83.738281 31.765625 84.125 31.996094 84.550781 L 32.183594 84.851562 Z M 38.929688 83.824219 L 38.929688 83.640625 C 39.023438 83.109375 39.214844 82.59375 39.492188 82.128906 C 40.113281 80.976562 40.988281 80.191406 41.113281 79.160156 C 41.183594 78.457031 40.90625 77.757812 40.363281 77.285156 C 40.089844 77.054688 39.726562 76.941406 39.367188 76.980469 C 38.617188 77.042969 38.117188 77.769531 38.117188 78.554688 L 37.679688 77.890625 C 37.304688 77.527344 36.867188 77.34375 36.429688 77.34375 C 36.054688 77.40625 35.742188 77.648438 35.554688 77.949219 C 35.171875 78.550781 35.101562 79.289062 35.367188 79.949219 C 35.804688 80.917969 36.867188 81.460938 37.804688 82.371094 C 38.148438 82.691406 38.441406 83.058594 38.679688 83.460938 L 38.867188 83.824219 Z M 46.109375 81.039062 C 46.734375 79.886719 47.609375 79.101562 47.734375 78.070312 C 47.804688 77.367188 47.527344 76.667969 46.984375 76.195312 C 46.707031 75.964844 46.347656 75.851562 45.984375 75.890625 C 45.234375 76.011719 44.734375 76.679688 44.734375 77.464844 L 44.300781 76.800781 C 43.925781 76.4375 43.488281 76.253906 43.050781 76.316406 C 42.675781 76.316406 42.363281 76.558594 42.175781 76.921875 C 41.8125 77.503906 41.742188 78.21875 41.988281 78.859375 C 42.425781 79.886719 43.488281 80.371094 44.421875 81.28125 C 46.015625 83 45.0625 83.042969 46.109375 81.039062 Z M 51.105469 80.191406 L 52.792969 79.949219 L 51.417969 76.4375 C 51.292969 76.132812 51.167969 75.890625 50.980469 75.710938 C 50.605469 75.347656 50.167969 75.226562 49.730469 75.226562 C 49.355469 75.285156 49.042969 75.527344 48.855469 75.832031 C 48.472656 76.429688 48.40625 77.171875 48.671875 77.828125 C 49.105469 78.796875 50.167969 79.28125 51.105469 80.191406 Z M 72.273438 78.433594 L 72.273438 78.3125 C 72.363281 77.757812 72.550781 77.222656 72.835938 76.738281 C 73.460938 75.648438 74.335938 74.800781 74.460938 73.832031 C 74.550781 73.105469 74.273438 72.382812 73.710938 71.894531 C 73.4375 71.664062 73.074219 71.554688 72.710938 71.59375 C 71.960938 71.714844 71.464844 72.378906 71.464844 73.167969 C 71.355469 72.925781 71.214844 72.695312 71.027344 72.5 C 70.652344 72.136719 70.214844 71.957031 69.777344 72.015625 C 69.402344 72.015625 69.089844 72.257812 68.902344 72.621094 C 68.519531 73.222656 68.449219 73.960938 68.714844 74.621094 C 69.152344 75.589844 70.214844 76.074219 71.152344 76.980469 C 71.496094 77.300781 71.789062 77.667969 72.023438 78.070312 L 72.210938 78.433594 Z M 24.941406 78.132812 C 25.691406 78.070312 26.1875 77.40625 26.1875 76.558594 L 26.625 77.285156 C 27 77.648438 27.4375 77.769531 27.875 77.769531 C 28.242188 77.695312 28.5625 77.476562 28.75 77.164062 C 29.136719 76.558594 29.207031 75.824219 28.9375 75.164062 C 28.5 74.195312 27.4375 73.652344 26.5 72.804688 C 26.152344 72.464844 25.859375 72.078125 25.628906 71.652344 L 25.441406 71.351562 L 25.378906 71.351562 L 25.378906 71.472656 C 25.292969 72.023438 25.101562 72.558594 24.816406 73.046875 L 24.816406 72.984375 C 24.191406 74.136719 23.316406 74.921875 23.191406 76.011719 C 23.140625 76.695312 23.417969 77.367188 23.941406 77.828125 C 24.214844 78.058594 24.578125 78.167969 24.941406 78.132812 Z M 31.621094 77.101562 C 32.371094 76.980469 32.871094 76.316406 32.871094 75.46875 C 32.972656 75.734375 33.121094 75.980469 33.308594 76.195312 C 33.683594 76.558594 34.121094 76.738281 34.558594 76.679688 C 34.925781 76.605469 35.242188 76.386719 35.429688 76.074219 C 35.8125 75.46875 35.886719 74.734375 35.617188 74.074219 C 35.179688 73.105469 34.121094 72.621094 33.183594 71.773438 C 32.828125 71.417969 32.53125 71.007812 32.308594 70.5625 L 32.121094 70.261719 L 32.058594 70.261719 L 32.058594 70.382812 C 31.972656 70.933594 31.78125 71.46875 31.496094 71.957031 C 30.871094 73.105469 30 73.832031 29.875 74.921875 C 29.824219 75.605469 30.097656 76.277344 30.621094 76.738281 C 30.886719 76.992188 31.246094 77.125 31.621094 77.101562 Z M 38.304688 76.011719 C 39.054688 75.890625 39.554688 75.226562 39.554688 74.4375 C 39.660156 74.679688 39.800781 74.910156 39.988281 75.105469 C 40.363281 75.46875 40.800781 75.648438 41.238281 75.589844 C 41.605469 75.515625 41.925781 75.296875 42.113281 74.984375 C 42.476562 74.394531 42.550781 73.6875 42.300781 73.046875 C 41.863281 72.015625 40.800781 71.53125 39.863281 70.625 C 39.519531 70.304688 39.226562 69.9375 38.992188 69.535156 L 38.804688 69.171875 L 38.742188 69.171875 L 38.742188 69.351562 C 38.648438 69.882812 38.457031 70.398438 38.179688 70.867188 C 37.554688 72.015625 36.679688 72.804688 36.554688 73.832031 C 36.484375 74.539062 36.761719 75.234375 37.304688 75.710938 C 37.582031 75.941406 37.941406 76.050781 38.304688 76.011719 Z M 44.984375 74.921875 C 45.734375 74.863281 46.234375 74.195312 46.234375 73.347656 C 46.339844 73.589844 46.484375 73.820312 46.671875 74.015625 C 47.046875 74.378906 47.484375 74.558594 47.921875 74.558594 C 48.289062 74.488281 48.609375 74.269531 48.796875 73.953125 C 49.199219 73.335938 49.269531 72.570312 48.980469 71.894531 C 48.546875 70.988281 47.484375 70.441406 46.546875 69.59375 C 46.199219 69.253906 45.902344 68.867188 45.671875 68.441406 L 45.484375 68.140625 L 45.421875 68.140625 L 45.421875 68.261719 C 45.335938 68.816406 45.148438 69.347656 44.859375 69.835938 C 44.238281 70.925781 43.363281 71.714844 43.238281 72.742188 C 43.167969 73.449219 43.445312 74.144531 43.988281 74.621094 C 44.261719 74.851562 44.625 74.960938 44.984375 74.921875 Z M 22.691406 73.226562 L 22.816406 73.105469 C 22.8125 72.984375 22.8125 72.863281 22.816406 72.742188 C 22.921875 72.320312 23.09375 71.914062 23.316406 71.53125 C 23.941406 70.382812 24.816406 69.65625 24.941406 68.566406 C 24.992188 67.878906 24.714844 67.210938 24.191406 66.746094 C 23.816406 66.503906 23.503906 66.382812 23.191406 66.382812 C 22.441406 66.503906 21.941406 67.171875 21.941406 68.019531 C 21.816406 67.714844 21.691406 67.472656 21.503906 67.292969 C 21.132812 66.929688 20.695312 66.746094 20.257812 66.808594 C 19.882812 66.808594 19.570312 67.109375 19.382812 67.414062 C 19 68.015625 18.929688 68.753906 19.195312 69.414062 C 19.632812 70.382812 20.695312 70.867188 21.628906 71.773438 C 21.980469 72.113281 22.273438 72.5 22.503906 72.925781 Z M 29.4375 72.136719 L 29.4375 72.015625 C 29.523438 71.464844 29.710938 70.925781 30 70.441406 L 30 70.503906 C 30.621094 69.351562 31.496094 68.566406 31.621094 67.472656 C 31.671875 66.789062 31.394531 66.121094 30.871094 65.65625 C 30.609375 65.402344 30.25 65.269531 29.875 65.292969 C 29.125 65.414062 28.625 66.082031 28.625 66.929688 L 28.1875 66.203125 C 27.8125 65.839844 27.375 65.71875 26.9375 65.71875 C 26.5625 65.777344 26.25 66.019531 26.0625 66.324219 C 25.679688 66.925781 25.609375 67.664062 25.878906 68.320312 C 26.3125 69.292969 27.375 69.835938 28.3125 70.683594 C 28.664062 71.023438 28.957031 71.410156 29.1875 71.835938 L 29.375 72.136719 Z M 36.054688 71.109375 L 36.054688 70.925781 C 36.144531 70.375 36.332031 69.835938 36.617188 69.351562 C 37.242188 68.261719 38.117188 67.472656 38.242188 66.445312 C 38.3125 65.738281 38.035156 65.042969 37.492188 64.566406 C 37.21875 64.335938 36.855469 64.226562 36.492188 64.265625 C 35.742188 64.324219 35.242188 64.992188 35.242188 65.839844 L 34.808594 65.171875 C 34.433594 64.808594 33.996094 64.628906 33.558594 64.628906 C 33.183594 64.6875 32.871094 64.929688 32.683594 65.234375 C 32.277344 65.851562 32.210938 66.617188 32.496094 67.292969 C 32.933594 68.199219 33.996094 68.746094 34.933594 69.59375 C 35.28125 69.933594 35.578125 70.320312 35.804688 70.746094 L 35.992188 71.109375 Z M 23.316406 64.871094 C 24.066406 64.75 24.566406 64.082031 24.566406 63.234375 C 24.664062 63.503906 24.816406 63.75 25.003906 63.960938 C 25.378906 64.324219 25.816406 64.507812 26.25 64.445312 C 26.621094 64.375 26.9375 64.15625 27.125 63.839844 C 27.507812 63.234375 27.582031 62.503906 27.3125 61.84375 L 23.191406 59.722656 C 22.464844 60.605469 21.914062 61.613281 21.566406 62.691406 C 21.519531 63.375 21.792969 64.046875 22.316406 64.507812 C 22.578125 64.761719 22.941406 64.894531 23.316406 64.871094 Z M 23.316406 64.871094 "/>
</g>
</g>
<path style=" stroke:none;fill-rule:nonzero;fill:rgb(94.117647%,65.882355%,67.450982%);fill-opacity:1;" d="M 49.042969 106.347656 C 49.042969 105.65625 48.761719 104.996094 48.257812 104.507812 C 47.753906 104.019531 47.070312 103.746094 46.359375 103.746094 C 45.648438 103.746094 44.964844 104.019531 44.460938 104.507812 C 43.957031 104.996094 43.675781 105.65625 43.675781 106.347656 C 43.675781 107.039062 43.957031 107.703125 44.460938 108.191406 C 44.964844 108.679688 45.648438 108.953125 46.359375 108.953125 C 47.070312 108.953125 47.753906 108.679688 48.257812 108.191406 C 48.761719 107.703125 49.042969 107.039062 49.042969 106.347656 Z M 49.042969 106.347656 "/>
<path style=" stroke:none;fill-rule:nonzero;fill:rgb(21.960784%,25.098041%,27.843139%);fill-opacity:1;" d="M 41.300781 110.890625 C 41.300781 110.890625 41.050781 111.796875 42.863281 111.980469 C 44.671875 112.160156 41.675781 111.980469 41.300781 110.890625 Z M 41.300781 110.890625 "/>
<path style=" stroke:none;fill-rule:nonzero;fill:rgb(93.333334%,33.333334%,26.666668%);fill-opacity:1;" d="M 38.429688 101.324219 L 38.929688 102.351562 L 41.800781 103.140625 L 42.488281 102.957031 C 42.488281 102.957031 39.988281 101.019531 38.429688 101.324219 Z M 38.429688 101.324219 "/>
<path style=" stroke:none;fill-rule:nonzero;fill:rgb(90.980393%,30.588236%,16.862746%);fill-opacity:1;" d="M 38.304688 103.746094 L 39.179688 104.167969 C 39.554688 104.351562 42.175781 103.625 42.488281 102.957031 L 38.992188 103.078125 Z M 38.304688 103.746094 "/>
<path style=" stroke:none;fill-rule:nonzero;fill:rgb(93.333334%,86.666667%,86.666667%);fill-opacity:1;" d="M 52.480469 119.546875 C 52.703125 119.535156 52.910156 119.421875 53.042969 119.246094 C 53.292969 119.003906 53.230469 118.640625 53.292969 118.277344 C 53.335938 118.148438 53.398438 118.027344 53.480469 117.914062 C 53.480469 117.851562 53.539062 117.792969 53.480469 117.792969 C 53.320312 117.859375 53.152344 117.902344 52.980469 117.914062 C 52.542969 117.914062 52.230469 117.792969 51.917969 117.972656 C 51.730469 118.035156 51.542969 118.214844 51.542969 118.457031 C 51.515625 118.5625 51.535156 118.675781 51.605469 118.761719 C 51.730469 118.882812 52.042969 118.941406 52.230469 118.820312 L 52.167969 119.003906 L 52.167969 119.425781 C 52.246094 119.511719 52.363281 119.558594 52.480469 119.546875 Z M 53.941406 117.9375 C 53.976562 117.933594 54.007812 117.925781 54.039062 117.914062 C 54.246094 117.847656 54.410156 117.691406 54.476562 117.488281 C 54.601562 117.1875 54.414062 116.824219 54.414062 116.460938 C 54.394531 116.320312 54.394531 116.175781 54.414062 116.035156 C 54.414062 116.035156 54.476562 115.914062 54.414062 115.914062 C 54.289062 116.042969 54.140625 116.144531 53.976562 116.21875 C 53.601562 116.339844 53.230469 116.339844 52.980469 116.519531 C 52.792969 116.703125 52.792969 116.945312 52.792969 117.125 C 52.78125 117.242188 52.828125 117.351562 52.917969 117.429688 C 53.167969 117.550781 53.414062 117.488281 53.539062 117.308594 L 53.539062 117.550781 L 53.726562 117.914062 C 53.796875 117.9375 53.867188 117.945312 53.941406 117.9375 Z M 55.121094 116.230469 C 55.15625 116.230469 55.191406 116.226562 55.226562 116.21875 C 55.449219 116.140625 55.613281 115.957031 55.664062 115.734375 C 55.789062 115.492188 55.601562 115.128906 55.601562 114.765625 C 55.582031 114.625 55.582031 114.480469 55.601562 114.339844 C 55.601562 114.28125 55.664062 114.21875 55.601562 114.21875 C 55.472656 114.324219 55.324219 114.40625 55.164062 114.460938 C 54.789062 114.644531 54.414062 114.644531 54.164062 114.824219 C 53.976562 115.007812 53.976562 115.1875 53.976562 115.429688 C 53.992188 115.523438 54.035156 115.609375 54.101562 115.671875 C 54.351562 115.792969 54.601562 115.734375 54.726562 115.550781 L 54.726562 115.792969 C 54.726562 115.976562 54.789062 116.097656 54.914062 116.15625 C 54.972656 116.203125 55.046875 116.226562 55.121094 116.230469 Z M 56.476562 114.449219 C 56.542969 114.449219 56.605469 114.433594 56.664062 114.402344 C 56.851562 114.28125 56.976562 114.039062 56.976562 113.855469 C 56.976562 113.492188 56.726562 113.25 56.601562 112.886719 L 56.476562 112.464844 L 56.476562 112.402344 C 56.375 112.546875 56.246094 112.667969 56.101562 112.765625 C 55.789062 112.949219 55.414062 113.070312 55.226562 113.371094 C 55.164062 113.554688 55.101562 113.796875 55.226562 113.976562 C 55.265625 114.058594 55.332031 114.125 55.414062 114.160156 C 55.652344 114.203125 55.898438 114.109375 56.039062 113.917969 C 56.023438 113.996094 56.023438 114.078125 56.039062 114.160156 C 56.101562 114.28125 56.164062 114.402344 56.289062 114.402344 C 56.34375 114.433594 56.410156 114.449219 56.476562 114.449219 Z M 57.007812 112.488281 C 57.109375 112.5 57.210938 112.46875 57.289062 112.402344 C 57.460938 112.296875 57.578125 112.117188 57.601562 111.917969 C 57.601562 111.554688 57.351562 111.3125 57.226562 110.949219 L 57.101562 110.527344 L 57.101562 110.40625 C 57.003906 110.570312 56.878906 110.714844 56.726562 110.828125 C 56.414062 111.011719 56.039062 111.132812 55.851562 111.433594 C 55.789062 111.554688 55.726562 111.796875 55.851562 112.039062 C 55.890625 112.121094 55.957031 112.1875 56.039062 112.222656 C 56.289062 112.28125 56.539062 112.160156 56.664062 111.917969 L 56.664062 112.160156 C 56.726562 112.34375 56.789062 112.464844 56.914062 112.464844 C 56.941406 112.476562 56.976562 112.484375 57.007812 112.488281 Z M 57.789062 110.570312 C 57.832031 110.5625 57.875 110.546875 57.914062 110.527344 C 58.121094 110.394531 58.242188 110.164062 58.222656 109.921875 C 58.222656 109.617188 57.976562 109.316406 57.851562 109.011719 L 57.726562 108.589844 L 57.726562 108.46875 C 57.625 108.609375 57.496094 108.734375 57.351562 108.832031 C 57.039062 109.074219 56.664062 109.195312 56.476562 109.4375 C 56.414062 109.617188 56.351562 109.859375 56.476562 110.042969 C 56.503906 110.140625 56.570312 110.230469 56.664062 110.285156 C 56.914062 110.34375 57.164062 110.222656 57.289062 109.980469 C 57.273438 110.0625 57.273438 110.144531 57.289062 110.222656 C 57.316406 110.359375 57.410156 110.472656 57.539062 110.527344 C 57.613281 110.570312 57.703125 110.582031 57.789062 110.570312 Z M 58.472656 108.570312 C 58.519531 108.5625 58.558594 108.550781 58.597656 108.527344 C 58.789062 108.40625 58.90625 108.203125 58.910156 107.984375 C 58.910156 107.621094 58.660156 107.378906 58.535156 107.015625 L 58.410156 106.589844 L 58.410156 106.53125 C 58.308594 106.671875 58.183594 106.796875 58.039062 106.894531 C 57.726562 107.074219 57.351562 107.195312 57.164062 107.5 C 57.101562 107.679688 57.039062 107.921875 57.164062 108.105469 C 57.191406 108.203125 57.257812 108.292969 57.351562 108.347656 C 57.601562 108.40625 57.851562 108.285156 57.976562 108.042969 C 57.960938 108.125 57.960938 108.207031 57.976562 108.285156 C 58.019531 108.398438 58.109375 108.484375 58.222656 108.527344 C 58.300781 108.570312 58.386719 108.585938 58.472656 108.570312 Z M 59.097656 106.628906 C 59.140625 106.621094 59.183594 106.609375 59.222656 106.589844 C 59.410156 106.46875 59.535156 106.226562 59.535156 106.046875 C 59.535156 105.683594 59.285156 105.441406 59.160156 105.078125 L 59.035156 104.652344 L 59.035156 104.53125 C 58.933594 104.671875 58.808594 104.796875 58.660156 104.894531 L 58.660156 104.957031 C 58.347656 105.136719 57.976562 105.257812 57.789062 105.5625 C 57.726562 105.683594 57.664062 105.925781 57.789062 106.167969 C 57.824219 106.246094 57.890625 106.3125 57.976562 106.347656 C 58.214844 106.394531 58.457031 106.296875 58.597656 106.105469 C 58.585938 106.1875 58.585938 106.269531 58.597656 106.347656 C 58.660156 106.46875 58.722656 106.589844 58.847656 106.589844 C 58.925781 106.625 59.011719 106.640625 59.097656 106.628906 Z M 59.636719 104.539062 C 59.691406 104.527344 59.742188 104.503906 59.785156 104.472656 C 59.972656 104.324219 60.066406 104.097656 60.035156 103.867188 C 59.910156 103.5625 59.660156 103.320312 59.410156 102.957031 C 59.320312 102.808594 59.257812 102.644531 59.222656 102.472656 L 59.160156 102.472656 L 59.160156 102.59375 L 58.910156 102.957031 C 58.660156 103.199219 58.347656 103.382812 58.222656 103.683594 C 58.144531 103.882812 58.167969 104.109375 58.285156 104.289062 C 58.351562 104.398438 58.46875 104.46875 58.597656 104.472656 C 58.785156 104.472656 59.035156 104.351562 59.035156 104.109375 C 59.0625 104.195312 59.101562 104.277344 59.160156 104.351562 C 59.234375 104.453125 59.347656 104.519531 59.472656 104.53125 C 59.527344 104.542969 59.582031 104.542969 59.636719 104.53125 Z M 59.660156 102.539062 C 59.777344 102.550781 59.894531 102.503906 59.972656 102.417969 C 60.160156 102.273438 60.253906 102.042969 60.222656 101.8125 C 60.097656 101.511719 59.847656 101.269531 59.597656 100.964844 C 59.507812 100.816406 59.445312 100.652344 59.410156 100.480469 L 59.347656 100.480469 L 59.347656 100.601562 L 59.097656 100.898438 C 58.847656 101.203125 58.535156 101.382812 58.410156 101.6875 C 58.347656 101.867188 58.347656 102.109375 58.472656 102.292969 C 58.554688 102.378906 58.667969 102.421875 58.785156 102.414062 C 58.972656 102.472656 59.222656 102.292969 59.222656 102.050781 C 59.246094 102.136719 59.289062 102.222656 59.347656 102.292969 C 59.410156 102.414062 59.535156 102.535156 59.660156 102.535156 Z M 59.847656 100.480469 C 59.96875 100.488281 60.082031 100.441406 60.160156 100.355469 C 60.347656 100.207031 60.441406 99.980469 60.410156 99.75 L 59.785156 98.902344 L 59.597656 98.539062 L 59.597656 98.417969 L 59.535156 98.417969 L 59.535156 98.539062 L 59.285156 98.839844 C 59.035156 99.144531 58.722656 99.324219 58.597656 99.628906 C 58.519531 99.828125 58.539062 100.050781 58.660156 100.234375 C 58.734375 100.335938 58.847656 100.402344 58.972656 100.414062 C 59.160156 100.414062 59.410156 100.234375 59.410156 99.992188 C 59.433594 100.078125 59.476562 100.164062 59.535156 100.234375 C 59.597656 100.355469 59.722656 100.476562 59.847656 100.476562 Z M 60.203125 98.421875 C 60.277344 98.421875 60.347656 98.402344 60.410156 98.363281 C 60.535156 98.179688 60.660156 97.933594 60.660156 97.75 C 60.535156 97.449219 60.285156 97.207031 60.035156 96.84375 L 59.847656 96.480469 L 59.847656 96.359375 L 59.785156 96.359375 L 59.785156 96.417969 C 59.726562 96.570312 59.644531 96.714844 59.535156 96.84375 C 59.285156 97.085938 58.972656 97.265625 58.847656 97.570312 C 58.769531 97.769531 58.789062 97.992188 58.910156 98.175781 C 58.976562 98.28125 59.09375 98.351562 59.222656 98.355469 C 59.410156 98.355469 59.660156 98.175781 59.660156 97.933594 C 59.683594 98.019531 59.726562 98.101562 59.785156 98.175781 C 59.847656 98.355469 59.972656 98.417969 60.097656 98.417969 C 60.132812 98.425781 60.167969 98.429688 60.203125 98.429688 Z M 60.285156 96.417969 C 60.402344 96.429688 60.519531 96.382812 60.597656 96.296875 C 60.785156 96.152344 60.878906 95.921875 60.847656 95.691406 C 60.722656 95.390625 60.472656 95.148438 60.222656 94.84375 L 60.035156 94.421875 L 60.035156 94.359375 L 59.972656 94.359375 L 59.972656 94.480469 L 59.722656 94.785156 C 59.472656 95.027344 59.160156 95.207031 59.035156 95.511719 C 58.972656 95.753906 58.972656 95.996094 59.097656 96.117188 C 59.164062 96.222656 59.28125 96.292969 59.410156 96.296875 C 59.597656 96.359375 59.847656 96.175781 59.847656 95.933594 C 59.871094 96.023438 59.914062 96.105469 59.972656 96.175781 C 60.035156 96.296875 60.160156 96.417969 60.285156 96.417969 Z M 60.535156 94.359375 C 60.652344 94.359375 60.765625 94.316406 60.847656 94.238281 C 61.035156 94.09375 61.128906 93.863281 61.097656 93.632812 L 60.472656 92.785156 L 60.285156 92.359375 L 60.285156 92.300781 L 60.222656 92.300781 L 60.222656 92.421875 L 59.972656 92.722656 C 59.722656 93.027344 59.410156 93.207031 59.285156 93.511719 C 59.222656 93.691406 59.222656 93.933594 59.347656 94.117188 C 59.414062 94.226562 59.53125 94.292969 59.660156 94.300781 C 59.847656 94.300781 60.097656 94.117188 60.097656 93.875 C 60.121094 93.964844 60.164062 94.046875 60.222656 94.117188 C 60.285156 94.238281 60.410156 94.359375 60.535156 94.359375 Z M 60.828125 92.3125 C 60.902344 92.308594 60.976562 92.285156 61.035156 92.238281 C 61.222656 92.09375 61.316406 91.863281 61.285156 91.632812 C 61.160156 91.332031 60.910156 91.089844 60.660156 90.726562 L 60.472656 90.363281 L 60.472656 90.242188 L 60.410156 90.242188 L 60.410156 90.363281 L 60.160156 90.726562 C 59.910156 90.96875 59.597656 91.148438 59.472656 91.453125 C 59.390625 91.652344 59.414062 91.878906 59.535156 92.058594 C 59.609375 92.160156 59.722656 92.226562 59.847656 92.238281 C 60.035156 92.238281 60.285156 92.058594 60.285156 91.816406 C 60.308594 91.90625 60.351562 91.988281 60.410156 92.058594 C 60.472656 92.238281 60.597656 92.300781 60.722656 92.300781 C 60.757812 92.308594 60.792969 92.3125 60.828125 92.3125 Z M 60.828125 92.3125 "/>
<path style=" stroke:none;fill-rule:nonzero;fill:rgb(21.960784%,25.098041%,27.843139%);fill-opacity:1;" d="M 50.667969 116.460938 C 50.667969 116.460938 48.421875 121.546875 43.425781 122.335938 C 39.925781 122.941406 38.929688 124.152344 38.929688 124.152344 C 38.929688 124.152344 37.492188 119.972656 37.617188 118.035156 C 37.617188 118.035156 43.863281 120.277344 50.667969 116.460938 Z M 50.667969 116.460938 "/>
<path style=" stroke:none;fill-rule:nonzero;fill:rgb(93.333334%,86.666667%,86.666667%);fill-opacity:1;" d="M 39.492188 119.914062 C 39.632812 119.710938 39.738281 119.484375 39.804688 119.246094 L 39.804688 119.183594 L 39.925781 119.367188 C 40.03125 119.542969 40.15625 119.707031 40.300781 119.851562 C 40.738281 120.335938 41.175781 120.578125 41.363281 121.0625 C 41.488281 121.367188 41.425781 121.730469 41.238281 122.03125 C 41.132812 122.167969 40.976562 122.257812 40.800781 122.273438 C 40.613281 122.273438 40.363281 122.152344 40.238281 121.972656 C 40.160156 121.878906 40.097656 121.777344 40.050781 121.667969 C 40.050781 122.03125 39.738281 122.335938 39.429688 122.394531 C 39.242188 122.410156 39.058594 122.34375 38.929688 122.214844 C 38.683594 121.972656 38.570312 121.636719 38.617188 121.304688 C 38.742188 120.820312 39.179688 120.457031 39.492188 119.972656 Z M 42.425781 119.914062 C 42.546875 119.726562 42.632812 119.523438 42.675781 119.304688 L 42.738281 119.367188 C 42.820312 119.523438 42.925781 119.664062 43.050781 119.792969 C 43.363281 120.15625 43.738281 120.398438 43.863281 120.699219 C 43.925781 120.941406 43.863281 121.246094 43.738281 121.425781 C 43.671875 121.546875 43.558594 121.632812 43.425781 121.667969 C 43.238281 121.667969 43.113281 121.609375 42.988281 121.425781 L 42.863281 121.183594 C 42.867188 121.476562 42.660156 121.730469 42.363281 121.789062 C 42.214844 121.785156 42.078125 121.71875 41.988281 121.609375 C 41.800781 121.425781 41.738281 121.125 41.800781 120.882812 C 41.800781 120.519531 42.175781 120.277344 42.425781 119.851562 Z M 44.546875 119.609375 L 44.671875 119.246094 L 44.671875 119.125 L 44.734375 119.125 C 44.816406 119.261719 44.921875 119.386719 45.046875 119.488281 C 45.359375 119.730469 45.671875 119.851562 45.859375 120.09375 C 45.921875 120.277344 45.984375 120.519531 45.859375 120.699219 C 45.824219 120.816406 45.730469 120.90625 45.609375 120.941406 C 45.484375 120.941406 45.359375 120.941406 45.234375 120.820312 C 45.160156 120.773438 45.097656 120.710938 45.046875 120.640625 C 45.046875 120.882812 44.984375 121.0625 44.734375 121.125 C 44.636719 121.167969 44.523438 121.167969 44.421875 121.125 C 44.238281 120.976562 44.144531 120.746094 44.175781 120.519531 C 44.175781 120.214844 44.421875 119.914062 44.546875 119.609375 Z M 46.421875 119.0625 L 46.421875 118.640625 L 46.546875 118.699219 C 46.609375 118.761719 46.671875 118.882812 46.796875 118.882812 C 47.046875 119.0625 47.359375 119.125 47.484375 119.304688 C 47.582031 119.449219 47.605469 119.628906 47.546875 119.792969 C 47.515625 119.875 47.445312 119.941406 47.359375 119.972656 L 47.046875 119.972656 C 46.992188 119.921875 46.949219 119.859375 46.921875 119.792969 C 46.984375 119.972656 46.921875 120.15625 46.734375 120.214844 C 46.65625 120.25 46.5625 120.25 46.484375 120.214844 C 46.335938 120.121094 46.246094 119.960938 46.234375 119.792969 Z M 46.421875 119.0625 "/>
<path style=" stroke:none;fill-rule:nonzero;fill:rgb(93.333334%,33.333334%,26.666668%);fill-opacity:1;" d="M 51.355469 84.609375 C 50.820312 84.625 50.292969 84.726562 49.792969 84.914062 C 45.796875 86.304688 46.234375 90.363281 46.234375 90.421875 L 46.359375 90.484375 C 46.359375 90.484375 46.109375 86.546875 49.917969 85.214844 C 53.664062 83.882812 57.414062 88.425781 57.414062 88.484375 L 57.664062 88.242188 C 57.539062 88.0625 54.726562 84.609375 51.355469 84.609375 Z M 47.484375 80.976562 C 47.609375 80.675781 47.671875 80.3125 47.671875 79.886719 L 47.671875 79.464844 C 47.796875 79.464844 47.921875 79.644531 47.921875 79.707031 C 48.191406 80.011719 48.507812 80.277344 48.855469 80.492188 C 49.792969 81.097656 50.792969 81.402344 51.355469 82.128906 C 51.667969 82.613281 51.730469 83.339844 51.542969 83.882812 C 51.417969 84.1875 51.167969 84.429688 50.917969 84.488281 C 50.480469 84.609375 50.105469 84.488281 49.730469 84.308594 C 49.550781 84.15625 49.402344 83.96875 49.292969 83.761719 C 49.355469 84.488281 49.042969 85.09375 48.484375 85.335938 C 48.167969 85.433594 47.824219 85.386719 47.546875 85.214844 C 47.019531 84.898438 46.671875 84.363281 46.609375 83.761719 C 46.546875 82.855469 47.171875 82.066406 47.484375 81.039062 Z M 47.484375 80.976562 "/>
<path style=" stroke:none;fill-rule:nonzero;fill:rgb(93.333334%,80.000001%,26.666668%);fill-opacity:1;" d="M 26.875 78.132812 L 26.25 77.285156 C 26.25 77.285156 33.246094 74.863281 36.742188 64.082031 L 37.679688 64.203125 C 37.429688 65.898438 35.742188 74.5 26.875 78.132812 Z M 26.875 78.132812 "/>
<path style=" stroke:none;fill-rule:nonzero;fill:rgb(26.666668%,60.000002%,40.000001%);fill-opacity:1;" d="M 38.179688 66.382812 C 38.179688 66.382812 30.375 80.554688 31.433594 91.695312 L 32.558594 91.695312 C 32.558594 91.695312 32.433594 79.707031 39.242188 66.566406 Z M 38.179688 66.382812 "/>
<path style=" stroke:none;fill-rule:nonzero;fill:rgb(93.333334%,80.000001%,26.666668%);fill-opacity:1;" d="M 25.191406 75.890625 L 24.691406 75.226562 C 25.503906 74.863281 30.746094 72.378906 33.496094 63.71875 L 34.308594 63.839844 C 33.574219 69.113281 30.144531 73.667969 25.191406 75.953125 Z M 25.191406 75.890625 "/>
<path style=" stroke:none;fill-rule:nonzero;fill:rgb(93.333334%,81.960785%,70.980394%);fill-opacity:1;" d="M 38.179688 71.957031 C 37.742188 71.957031 36.992188 70.988281 38.554688 70.019531 L 40.175781 68.867188 L 35.058594 69.957031 C 35.058594 69.957031 32.183594 70.683594 32.558594 69.835938 C 32.746094 69.351562 34.058594 68.6875 34.496094 68.625 C 34.933594 68.625 38.742188 67.050781 38.742188 67.050781 L 34.746094 67.714844 C 34.746094 67.714844 31.621094 68.320312 31.621094 68.019531 C 31.496094 66.566406 33.433594 66.324219 33.933594 66.261719 C 34.433594 66.261719 38.617188 65.171875 38.617188 65.171875 L 33.621094 65.355469 C 33.621094 65.355469 31.683594 65.65625 31.746094 65.171875 C 31.996094 64.144531 33.371094 63.960938 33.621094 63.960938 C 33.808594 63.960938 34.246094 63.960938 34.808594 63.839844 L 47.046875 65.234375 L 48.609375 66.566406 L 42.988281 69.777344 C 41.550781 70.683594 39.738281 70.988281 38.367188 71.894531 C 38.316406 71.9375 38.246094 71.960938 38.179688 71.957031 Z M 38.179688 71.957031 "/>
<path style=" stroke:none;fill-rule:nonzero;fill:rgb(93.333334%,33.333334%,26.666668%);fill-opacity:1;" d="M 58.972656 90.605469 C 58.972656 90.605469 50.230469 80.3125 47.046875 65.234375 L 52.667969 65.839844 L 54.664062 66.6875 L 56.726562 66.382812 L 68.589844 67.714844 C 68.339844 69.777344 67.339844 80.3125 73.273438 88.304688 Z M 58.972656 90.605469 "/>
<path style=" stroke:none;fill-rule:nonzero;fill:rgb(21.960784%,25.098041%,27.843139%);fill-opacity:1;" d="M 62.535156 90.179688 C 62.535156 90.179688 53.789062 78.375 52.542969 65.898438 L 56.664062 66.382812 C 57.164062 69.109375 59.785156 83.15625 66.90625 89.394531 Z M 62.535156 90.179688 "/>
<path style=" stroke:none;fill-rule:nonzero;fill:rgb(90.196079%,61.56863%,37.254903%);fill-opacity:1;" d="M 51.355469 109.4375 C 51.355469 109.4375 51.980469 102.171875 48.234375 101.746094 C 48.234375 101.746094 54.039062 99.929688 51.355469 109.4375 Z M 51.355469 109.4375 "/>
<path style=" stroke:none;fill-rule:nonzero;fill:rgb(21.960784%,25.098041%,27.843139%);fill-opacity:1;" d="M 37.242188 88.789062 C 37.242188 88.789062 38.179688 79.707031 51.542969 78.375 L 51.292969 77.890625 C 51.292969 77.890625 36.929688 78.675781 36.742188 88.789062 Z M 37.242188 88.789062 "/>
<path style=" stroke:none;fill-rule:nonzero;fill:rgb(79.215688%,14.901961%,12.941177%);fill-opacity:1;" d="M 31.0625 92.042969 C 31.0625 92.042969 29.832031 95.5 29.195312 95.914062 C 29.195312 95.914062 29.101562 98.019531 30.410156 98.695312 C 30.410156 98.695312 32.882812 97.472656 32.6875 96.191406 C 32.492188 94.90625 31.0625 92.042969 31.0625 92.042969 Z M 31.0625 92.042969 "/>
<path style=" stroke:none;fill-rule:nonzero;fill:rgb(87.058824%,18.431373%,14.901961%);fill-opacity:1;" d="M 30.828125 92.238281 C 30.828125 92.238281 28.328125 96.519531 31.597656 98.113281 L 34.28125 97.902344 C 34.28125 97.902344 36.308594 96.328125 35.050781 93.902344 C 33.789062 91.480469 31.34375 90.101562 30.800781 92.320312 Z M 30.828125 92.238281 "/>
<path style=" stroke:none;fill-rule:nonzero;fill:rgb(84.313726%,30.980393%,25.882354%);fill-opacity:1;" d="M 31.699219 91.628906 C 31.699219 91.628906 36.800781 92.878906 36.894531 94.683594 C 36.984375 96.488281 34.183594 97.492188 33.363281 96.347656 C 32.578125 95.125 30.019531 92.214844 31.699219 91.628906 Z M 31.699219 91.628906 "/>
<path style=" stroke:none;fill-rule:nonzero;fill:rgb(93.333334%,33.333334%,26.666668%);fill-opacity:1;" d="M 28.191406 98.054688 C 28.191406 98.054688 28.296875 90.175781 33.242188 91.179688 C 35.203125 91.632812 36.757812 92.769531 37.761719 93.613281 C 37.761719 93.613281 35.410156 97.019531 32.308594 93.8125 C 29.277344 90.632812 31.8125 91.765625 31.8125 91.765625 C 31.8125 91.765625 30.015625 96.589844 28.164062 98.136719 Z M 28.191406 98.054688 "/>
<path style=" stroke:none;fill-rule:nonzero;fill:rgb(94.509804%,45.09804%,35.294119%);fill-opacity:1;" d="M 30.574219 91.582031 C 30.574219 91.582031 31.835938 93.078125 32.929688 93.207031 C 34.027344 93.335938 35.542969 92.96875 35.546875 92.503906 C 35.546875 92.039062 35.058594 91.578125 34.484375 91.363281 C 33.238281 90.878906 31.839844 90.957031 30.574219 91.582031 Z M 30.574219 91.582031 "/>
<path style=" stroke:none;fill-rule:nonzero;fill:rgb(26.666668%,60.000002%,40.000001%);fill-opacity:1;" d="M 33.679688 79.625 C 33.679688 79.625 34.53125 84.53125 37.484375 86.507812 C 37.484375 86.507812 38.023438 81.246094 33.679688 79.625 Z M 33.679688 79.625 "/>
<path style=" stroke:none;fill-rule:nonzero;fill:rgb(93.333334%,80.000001%,26.666668%);fill-opacity:1;" d="M 59.847656 90.421875 C 60.160156 90.300781 60.347656 89.816406 60.160156 89.394531 C 61.285156 90.421875 61.972656 89.089844 61.035156 88.183594 C 60.597656 87.820312 59.847656 87.757812 59.222656 87.515625 C 58.972656 87.457031 58.722656 87.335938 58.535156 87.152344 L 58.347656 87.03125 L 58.347656 87.09375 C 58.347656 87.152344 58.410156 87.214844 58.410156 87.273438 L 58.410156 88.0625 C 58.410156 89.453125 58.910156 90.785156 59.847656 90.421875 Z M 73.273438 88.242188 L 73.585938 88.0625 C 73.585938 88.0625 66.96875 78.796875 68.839844 67.714844 L 67.964844 67.65625 C 67.777344 69.292969 66.65625 80.613281 73.085938 88.0625 Z M 57.601562 87.394531 C 57.976562 87.273438 58.039062 86.730469 57.914062 86.304688 C 58.039062 86.425781 58.160156 86.546875 58.285156 86.609375 C 58.535156 86.730469 58.785156 86.730469 58.972656 86.609375 C 59.160156 86.488281 59.285156 86.304688 59.347656 86.125 C 59.410156 85.699219 59.285156 85.277344 58.972656 84.972656 C 58.597656 84.550781 57.914062 84.488281 57.226562 84.246094 L 56.539062 83.824219 L 56.414062 83.703125 C 56.351562 83.703125 56.414062 83.761719 56.414062 83.761719 L 56.414062 84.730469 C 56.226562 86.003906 56.226562 87.757812 57.601562 87.394531 Z M 55.414062 84.125 C 55.539062 84.125 55.601562 84.125 55.726562 84.066406 C 56.039062 83.882812 56.164062 83.398438 56.039062 82.976562 C 56.164062 83.097656 56.289062 83.21875 56.414062 83.277344 C 56.664062 83.398438 56.914062 83.398438 57.101562 83.277344 C 57.289062 83.15625 57.476562 82.976562 57.476562 82.734375 C 57.539062 82.371094 57.414062 81.945312 57.101562 81.644531 C 56.726562 81.21875 56.039062 81.160156 55.351562 80.917969 C 55.101562 80.796875 54.851562 80.613281 54.664062 80.433594 L 54.539062 80.3125 C 54.476562 80.371094 54.539062 80.371094 54.539062 80.433594 L 54.539062 81.339844 C 54.476562 82.066406 54.164062 82.671875 54.289062 83.277344 C 54.476562 83.640625 54.726562 84.003906 55.101562 84.066406 C 55.226562 84.125 55.289062 84.125 55.414062 84.125 Z M 53.601562 80.675781 C 53.664062 80.675781 53.789062 80.675781 53.851562 80.613281 C 54.226562 80.492188 54.351562 80.007812 54.226562 79.585938 C 54.351562 79.707031 54.476562 79.828125 54.601562 79.886719 C 54.851562 80.007812 55.101562 80.070312 55.351562 79.949219 C 55.539062 79.828125 55.664062 79.644531 55.726562 79.464844 C 55.851562 79.101562 55.726562 78.675781 55.476562 78.375 C 55.101562 77.890625 54.414062 77.769531 53.789062 77.40625 C 53.539062 77.285156 53.355469 77.164062 53.167969 76.980469 L 52.980469 76.800781 L 52.980469 77.101562 L 52.917969 77.828125 L 52.917969 77.890625 C 52.792969 78.496094 52.417969 79.101562 52.542969 79.707031 C 52.605469 80.070312 52.855469 80.433594 53.230469 80.613281 C 53.355469 80.675781 53.480469 80.675781 53.601562 80.675781 Z M 51.980469 77.164062 C 52.042969 77.164062 52.105469 77.101562 52.167969 77.101562 C 52.542969 76.980469 52.667969 76.496094 52.542969 76.074219 C 52.667969 76.195312 52.792969 76.316406 52.917969 76.375 C 53.167969 76.496094 53.414062 76.558594 53.664062 76.4375 C 53.851562 76.316406 53.976562 76.132812 54.039062 75.953125 C 54.164062 75.589844 54.039062 75.164062 53.789062 74.863281 C 53.414062 74.378906 52.730469 74.257812 52.105469 73.953125 C 51.855469 73.832031 51.667969 73.652344 51.480469 73.46875 L 51.292969 73.289062 L 51.292969 73.589844 L 51.230469 74.316406 L 51.230469 74.378906 C 51.105469 74.984375 50.730469 75.589844 50.855469 76.195312 C 50.917969 76.558594 51.167969 76.921875 51.542969 77.101562 C 51.667969 77.164062 51.792969 77.164062 51.980469 77.164062 Z M 50.355469 73.46875 L 50.542969 73.46875 C 50.917969 73.410156 51.105469 72.984375 51.105469 72.5 C 51.167969 72.621094 51.292969 72.742188 51.417969 72.863281 C 51.605469 73.105469 51.855469 73.105469 52.105469 73.105469 C 52.292969 73.046875 52.480469 72.863281 52.542969 72.683594 C 52.730469 72.320312 52.730469 71.894531 52.542969 71.53125 C 52.292969 70.988281 51.605469 70.804688 51.042969 70.382812 L 50.480469 69.777344 L 50.292969 69.59375 C 50.292969 69.898438 50.230469 70.261719 50.105469 70.5625 C 49.855469 71.230469 49.417969 71.714844 49.417969 72.320312 C 49.417969 72.742188 49.605469 73.105469 49.917969 73.347656 C 50.042969 73.410156 50.167969 73.46875 50.355469 73.46875 Z M 49.667969 69.777344 C 50.042969 69.65625 50.230469 69.230469 50.230469 68.808594 C 50.292969 68.929688 50.417969 69.050781 50.542969 69.171875 C 50.730469 69.351562 50.980469 69.414062 51.230469 69.351562 C 51.417969 69.292969 51.605469 69.109375 51.667969 68.929688 C 51.855469 68.566406 51.855469 68.199219 51.667969 67.835938 C 51.417969 67.230469 50.792969 67.050781 50.167969 66.625 C 49.980469 66.445312 49.730469 66.261719 49.605469 66.019531 L 49.417969 65.839844 L 49.417969 66.140625 C 49.417969 66.382812 49.355469 66.625 49.230469 66.867188 L 49.230469 66.808594 C 48.980469 67.535156 48.546875 68.019531 48.546875 68.625 C 48.546875 69.050781 48.734375 69.414062 49.042969 69.65625 C 49.230469 69.777344 49.480469 69.777344 49.667969 69.777344 Z M 49.667969 69.777344 "/>
<path style=" stroke:none;fill-rule:nonzero;fill:rgb(93.333334%,33.333334%,26.666668%);fill-opacity:1;" d="M 5.640625 22.269531 C 4.332031 22.269531 3.480469 23.371094 3.480469 24.824219 C 3.480469 26.304688 4.476562 27.59375 5.414062 28.671875 C 6.351562 29.746094 7.203125 30.875 7.773438 31.953125 C 8.339844 30.875 9.136719 29.71875 10.105469 28.644531 C 11.070312 27.566406 12.039062 26.304688 12.039062 24.824219 C 12.039062 23.371094 11.183594 22.269531 9.875 22.269531 C 8.910156 22.269531 8.058594 23.074219 7.773438 24.152344 C 7.488281 23.074219 6.636719 22.269531 5.613281 22.269531 Z M 5.640625 22.269531 "/>
<path style=" stroke:none;fill-rule:nonzero;fill:rgb(100%,100%,100%);fill-opacity:1;" d="M 85.21875 125.785156 L 76.65625 125.785156 L 76.65625 95.695312 L 85.21875 95.695312 Z M 85.21875 125.785156 "/>
<path style=" stroke:none;fill-rule:nonzero;fill:rgb(93.333334%,33.333334%,26.666668%);fill-opacity:1;" d="M 84.359375 107.730469 C 85.667969 107.730469 86.519531 106.628906 86.519531 105.175781 C 86.519531 103.695312 85.523438 102.40625 84.585938 101.328125 C 83.648438 100.253906 82.796875 99.125 82.226562 98.046875 C 81.660156 99.125 80.863281 100.28125 79.894531 101.355469 C 78.929688 102.433594 77.960938 103.695312 77.960938 105.175781 C 77.960938 106.628906 78.816406 107.730469 80.125 107.730469 C 81.089844 107.730469 81.941406 106.925781 82.226562 105.847656 C 82.511719 106.925781 83.363281 107.730469 84.386719 107.730469 Z M 84.359375 107.730469 "/>
<path style="fill-rule:nonzero;fill:rgb(93.333334%,33.333334%,26.666668%);fill-opacity:1;stroke-width:0.5;stroke-linecap:butt;stroke-linejoin:round;stroke:rgb(93.333334%,33.333334%,26.666668%);stroke-opacity:1;stroke-miterlimit:4;" d="M 1607.700129 -91.802609 C 1601.570354 -91.711744 1601.759156 -86.09107 1601.80321 -85.500445 L 1601.80321 -75.498762 C 1601.80321 -69.242031 1606.90716 -69.261502 1607.700129 -69.300444 C 1608.039973 -69.306934 1608.36723 -69.352367 1608.70078 -69.3978 L 1609.701431 -66.899002 C 1610.299304 -65.899482 1612.099218 -65.399723 1613.401952 -66.6978 C 1612.60269 -66.801646 1611.797134 -67.100204 1611.602039 -67.697319 L 1610.802777 -70.001406 C 1612.350954 -70.890588 1613.502647 -72.558617 1613.502647 -75.602608 L 1613.502647 -85.597801 C 1613.502647 -90.679773 1609.839886 -91.828571 1607.700129 -91.802609 Z M 1607.700129 -90.601888 C 1609.147612 -90.601888 1610.19861 -89.342753 1610.19861 -87.798042 L 1610.19861 -73.298521 C 1610.19861 -72.902608 1610.19861 -72.500204 1609.997221 -72.0978 C 1609.500042 -73.097319 1608.902169 -73.700925 1608.002212 -73.798281 C 1607.20295 -73.798281 1606.498089 -73.402367 1606.202299 -72.500204 C 1606.699478 -72.500204 1607.297351 -72.299002 1607.599434 -72.000444 C 1607.901518 -71.701887 1608.102907 -71.202127 1608.298002 -70.598521 C 1608.102907 -70.540108 1607.901518 -70.507656 1607.700129 -70.501165 C 1606.271526 -70.501165 1605.157594 -71.7603 1605.201648 -73.298521 L 1605.201648 -87.798042 C 1605.201648 -89.342753 1606.252646 -90.601888 1607.700129 -90.601888 Z M 1607.700129 -90.601888 " transform="matrix(0.62069,0,0,0.601852,-989.999947,60.18516)"/>
<path style="fill-rule:nonzero;fill:rgb(93.333334%,33.333334%,26.666668%);fill-opacity:1;stroke-width:0.5;stroke-linecap:butt;stroke-linejoin:round;stroke:rgb(93.333334%,33.333334%,26.666668%);stroke-opacity:1;stroke-miterlimit:4;" d="M 1607.700035 -91.802695 C 1601.57026 -91.71183 1601.759063 -86.091156 1601.803116 -85.500531 L 1601.803116 -75.498847 C 1601.803116 -69.242116 1606.907066 -69.261587 1607.700035 -69.30053 C 1608.039879 -69.30702 1608.367136 -69.352453 1608.700686 -69.397885 L 1609.701338 -66.899087 C 1610.299211 -65.899568 1612.099124 -65.399808 1613.401859 -66.697885 C 1612.602596 -66.801731 1611.797041 -67.100289 1611.601945 -67.697405 L 1610.802683 -70.001491 C 1612.35086 -70.890674 1613.502553 -72.558703 1613.502553 -75.602694 L 1613.502553 -85.597887 C 1613.502553 -90.679858 1609.839792 -91.828656 1607.700035 -91.802695 Z M 1607.700035 -90.601974 C 1609.147518 -90.601974 1610.198516 -89.342839 1610.198516 -87.798127 L 1610.198516 -73.298607 C 1610.198516 -72.902693 1610.198516 -72.50029 1609.997127 -72.097886 C 1609.499949 -73.097405 1608.902075 -73.701011 1608.002119 -73.798367 C 1607.202856 -73.798367 1606.497995 -73.402453 1606.202205 -72.50029 C 1606.699384 -72.50029 1607.297257 -72.299088 1607.599341 -72.00053 C 1607.901424 -71.701972 1608.102813 -71.202213 1608.297909 -70.598607 C 1608.102813 -70.540193 1607.901424 -70.507741 1607.700035 -70.501251 C 1606.271433 -70.501251 1605.1575 -71.760386 1605.201554 -73.298607 L 1605.201554 -87.798127 C 1605.201554 -89.342839 1606.252553 -90.601974 1607.700035 -90.601974 Z M 1607.700035 -90.601974 " transform="matrix(-0.62069,0.000000000000000074,-0.000000000000000076,-0.601852,1079.999889,69.814789)"/>
</g>
</svg>
