<?xml version="1.0" encoding="UTF-8"?>
<svg xmlns="http://www.w3.org/2000/svg" xmlns:xlink="http://www.w3.org/1999/xlink" width="90px" height="130px" viewBox="0 0 90 130" version="1.1">
<g id="surface1">
<path style="fill-rule:nonzero;fill:rgb(100%,100%,100%);fill-opacity:1;stroke-width:3;stroke-linecap:butt;stroke-linejoin:miter;stroke:rgb(21.960784%,25.098041%,27.843139%);stroke-opacity:1;stroke-miterlimit:4;" d="M 9.503126 1.499313 L 135.49706 1.499313 C 139.921323 1.499313 143.502269 5.082006 143.502269 9.501958 L 143.502269 206.498128 C 143.502269 210.91808 139.921323 214.500772 135.49706 214.500772 L 9.503126 214.500772 C 5.078864 214.500772 1.497917 210.91808 1.497917 206.498128 L 1.497917 9.501958 C 1.497917 5.082006 5.078864 1.499313 9.503126 1.499313 Z M 9.503126 1.499313 " transform="matrix(0.62069,0,0,0.601852,-0.0000542867,-0.0000206087)"/>
<path style=" stroke:none;fill-rule:nonzero;fill:rgb(93.333334%,33.333334%,26.666668%);fill-opacity:1;" d="M 40.40625 31.597656 C 37.550781 31.597656 35.691406 34.066406 35.691406 37.316406 C 35.691406 40.625 37.863281 43.515625 39.910156 45.921875 C 41.957031 48.328125 43.820312 50.855469 45.0625 53.265625 C 46.304688 50.855469 48.042969 48.269531 50.152344 45.859375 C 52.261719 43.453125 54.371094 40.625 54.371094 37.316406 C 54.371094 34.066406 52.511719 31.597656 49.65625 31.597656 C 47.542969 31.597656 45.683594 33.402344 45.0625 35.808594 C 44.441406 33.402344 42.578125 31.597656 40.34375 31.597656 Z M 40.40625 31.597656 "/>
<path style=" stroke:none;fill-rule:nonzero;fill:rgb(93.333334%,33.333334%,26.666668%);fill-opacity:1;" d="M 40.40625 98.101562 C 37.550781 98.101562 35.691406 95.632812 35.691406 92.382812 C 35.691406 89.074219 37.863281 86.183594 39.910156 83.777344 C 41.957031 81.371094 43.820312 78.84375 45.0625 76.433594 C 46.304688 78.84375 48.042969 81.429688 50.152344 83.839844 C 52.261719 86.246094 54.371094 89.074219 54.371094 92.382812 C 54.371094 95.632812 52.511719 98.101562 49.65625 98.101562 C 47.542969 98.101562 45.683594 96.296875 45.0625 93.890625 C 44.441406 96.296875 42.578125 98.101562 40.34375 98.101562 Z M 40.40625 98.101562 "/>
<path style=" stroke:none;fill-rule:nonzero;fill:rgb(93.333334%,33.333334%,26.666668%);fill-opacity:1;" d="M 22.40625 55.371094 C 19.550781 55.371094 17.691406 57.839844 17.691406 61.089844 C 17.691406 64.398438 19.863281 67.285156 21.910156 69.695312 C 23.957031 72.101562 25.820312 74.628906 27.0625 77.035156 C 28.304688 74.628906 30.042969 72.042969 32.152344 69.632812 C 34.261719 67.226562 36.371094 64.398438 36.371094 61.089844 C 36.371094 57.839844 34.511719 55.371094 31.65625 55.371094 C 29.542969 55.371094 27.683594 57.175781 27.0625 59.582031 C 26.441406 57.175781 24.578125 55.371094 22.34375 55.371094 Z M 22.40625 55.371094 "/>
<path style=" stroke:none;fill-rule:nonzero;fill:rgb(93.333334%,33.333334%,26.666668%);fill-opacity:1;" d="M 22.40625 9.027344 C 19.550781 9.027344 17.691406 11.496094 17.691406 14.746094 C 17.691406 18.054688 19.863281 20.945312 21.910156 23.351562 C 23.957031 25.757812 25.820312 28.285156 27.0625 30.695312 C 28.304688 28.285156 30.042969 25.699219 32.152344 23.292969 C 34.261719 20.882812 36.371094 18.054688 36.371094 14.746094 C 36.371094 11.496094 34.511719 9.027344 31.65625 9.027344 C 29.542969 9.027344 27.683594 10.832031 27.0625 13.242188 C 26.441406 10.832031 24.578125 9.027344 22.34375 9.027344 Z M 22.40625 9.027344 "/>
<path style=" stroke:none;fill-rule:nonzero;fill:rgb(93.333334%,33.333334%,26.666668%);fill-opacity:1;" d="M 22.40625 120.371094 C 19.550781 120.371094 17.691406 117.902344 17.691406 114.652344 C 17.691406 111.34375 19.863281 108.453125 21.910156 106.046875 C 23.957031 103.640625 25.820312 101.109375 27.0625 98.703125 C 28.304688 101.109375 30.042969 103.699219 32.152344 106.105469 C 34.261719 108.515625 36.371094 111.34375 36.371094 114.652344 C 36.371094 117.902344 34.511719 120.371094 31.65625 120.371094 C 29.542969 120.371094 27.683594 118.566406 27.0625 116.15625 C 26.441406 118.566406 24.578125 120.371094 22.34375 120.371094 Z M 22.40625 120.371094 "/>
<path style=" stroke:none;fill-rule:nonzero;fill:rgb(93.333334%,33.333334%,26.666668%);fill-opacity:1;" d="M 58.40625 74.628906 C 55.550781 74.628906 53.691406 72.160156 53.691406 68.910156 C 53.691406 65.601562 55.863281 62.714844 57.910156 60.304688 C 59.957031 57.898438 61.820312 55.371094 63.0625 52.964844 C 64.304688 55.371094 66.042969 57.957031 68.152344 60.367188 C 70.261719 62.773438 72.371094 65.601562 72.371094 68.910156 C 72.371094 72.160156 70.511719 74.628906 67.65625 74.628906 C 65.542969 74.628906 63.683594 72.824219 63.0625 70.417969 C 62.441406 72.824219 60.578125 74.628906 58.34375 74.628906 Z M 58.40625 74.628906 "/>
<path style=" stroke:none;fill-rule:nonzero;fill:rgb(93.333334%,33.333334%,26.666668%);fill-opacity:1;" d="M 58.40625 9.027344 C 55.550781 9.027344 53.691406 11.496094 53.691406 14.746094 C 53.691406 18.054688 55.863281 20.945312 57.910156 23.351562 C 59.957031 25.757812 61.820312 28.285156 63.0625 30.695312 C 64.304688 28.285156 66.042969 25.699219 68.152344 23.292969 C 70.261719 20.882812 72.371094 18.054688 72.371094 14.746094 C 72.371094 11.496094 70.511719 9.027344 67.65625 9.027344 C 65.542969 9.027344 63.683594 10.832031 63.0625 13.242188 C 62.441406 10.832031 60.578125 9.027344 58.34375 9.027344 Z M 58.40625 9.027344 "/>
<path style=" stroke:none;fill-rule:nonzero;fill:rgb(93.333334%,33.333334%,26.666668%);fill-opacity:1;" d="M 58.40625 120.371094 C 55.550781 120.371094 53.691406 117.902344 53.691406 114.652344 C 53.691406 111.34375 55.863281 108.453125 57.910156 106.046875 C 59.957031 103.640625 61.820312 101.109375 63.0625 98.703125 C 64.304688 101.109375 66.042969 103.699219 68.152344 106.105469 C 70.261719 108.515625 72.371094 111.34375 72.371094 114.652344 C 72.371094 117.902344 70.511719 120.371094 67.65625 120.371094 C 65.542969 120.371094 63.683594 118.566406 63.0625 116.15625 C 62.441406 118.566406 60.578125 120.371094 58.34375 120.371094 Z M 58.40625 120.371094 "/>
<path style=" stroke:none;fill-rule:nonzero;fill:rgb(93.333334%,33.333334%,26.666668%);fill-opacity:1;" d="M 5.640625 22.269531 C 4.332031 22.269531 3.480469 23.371094 3.480469 24.824219 C 3.480469 26.304688 4.476562 27.59375 5.414062 28.671875 C 6.351562 29.746094 7.203125 30.875 7.773438 31.953125 C 8.339844 30.875 9.136719 29.71875 10.105469 28.644531 C 11.070312 27.566406 12.039062 26.304688 12.039062 24.824219 C 12.039062 23.371094 11.183594 22.269531 9.875 22.269531 C 8.910156 22.269531 8.058594 23.074219 7.773438 24.152344 C 7.488281 23.074219 6.636719 22.269531 5.613281 22.269531 Z M 5.640625 22.269531 "/>
<path style=" stroke:none;fill-rule:nonzero;fill:rgb(93.333334%,33.333334%,26.666668%);fill-opacity:1;" d="M 84.359375 107.730469 C 85.667969 107.730469 86.519531 106.628906 86.519531 105.175781 C 86.519531 103.695312 85.523438 102.40625 84.585938 101.328125 C 83.648438 100.253906 82.796875 99.125 82.226562 98.046875 C 81.660156 99.125 80.863281 100.28125 79.894531 101.355469 C 78.929688 102.433594 77.960938 103.695312 77.960938 105.175781 C 77.960938 106.628906 78.816406 107.730469 80.125 107.730469 C 81.089844 107.730469 81.941406 106.925781 82.226562 105.847656 C 82.511719 106.925781 83.363281 107.730469 84.386719 107.730469 Z M 84.359375 107.730469 "/>
<path style="fill-rule:nonzero;fill:rgb(93.333334%,33.333334%,26.666668%);fill-opacity:1;stroke-width:0.25;stroke-linecap:butt;stroke-linejoin:miter;stroke:rgb(93.333334%,33.333334%,26.666668%);stroke-opacity:1;stroke-miterlimit:4;" d="M 1027.599481 -91.997321 C 1024.087762 -91.997321 1022.338196 -89.62833 1022.300435 -86.59732 C 1022.268968 -84.377609 1023.62205 -82.742032 1025.000305 -81.898282 C 1022.067579 -80.399003 1021.740322 -77.497801 1021.796963 -75.901166 C 1021.796963 -72.701406 1022.879428 -69.203088 1027.599481 -69.203088 C 1031.482511 -69.203088 1033.401999 -71.578569 1033.401999 -75.79732 C 1033.401999 -78.977608 1032.571269 -80.392512 1030.198656 -81.898282 C 1031.451044 -82.657657 1032.898526 -84.092032 1032.898526 -86.59732 C 1032.898526 -90.381215 1030.418925 -91.997321 1027.599481 -91.997321 Z M 1027.599481 -90.699244 C 1029.827346 -90.647321 1029.959507 -88.252369 1029.997267 -86.499965 C 1029.997267 -85.377128 1029.789585 -82.501887 1027.599481 -82.501887 C 1025.560418 -82.501887 1025.201694 -84.890349 1025.201694 -86.59732 C 1025.201694 -87.882417 1025.440843 -90.751167 1027.599481 -90.699244 Z M 1027.599481 -81.301166 C 1030.24271 -81.301166 1030.400045 -76.861743 1030.400045 -75.79732 C 1030.400045 -74.62256 1030.230123 -70.397319 1027.599481 -70.397319 C 1024.962545 -70.397319 1024.798916 -74.62256 1024.798916 -75.79732 C 1024.849264 -77.861262 1025.101 -80.970157 1027.599481 -81.301166 Z M 1027.599481 -81.301166 " transform="matrix(0.62069,0,0,0.601852,-630.000004,60.18516)"/>
<path style="fill-rule:nonzero;fill:rgb(93.333334%,33.333334%,26.666668%);fill-opacity:1;stroke-width:0.25;stroke-linecap:butt;stroke-linejoin:miter;stroke:rgb(93.333334%,33.333334%,26.666668%);stroke-opacity:1;stroke-miterlimit:4;" d="M 1027.599294 -91.997406 C 1024.087575 -91.997406 1022.338009 -89.628416 1022.300249 -86.597406 C 1022.268782 -84.377694 1023.621864 -82.742117 1025.000119 -81.898367 C 1022.067393 -80.399088 1021.740136 -77.497886 1021.796777 -75.901251 C 1021.796777 -72.701492 1022.879242 -69.203174 1027.599294 -69.203174 C 1031.482324 -69.203174 1033.401812 -71.578655 1033.401812 -75.797405 C 1033.401812 -78.977694 1032.571083 -80.392598 1030.19847 -81.898367 C 1031.450857 -82.657742 1032.89834 -84.092117 1032.89834 -86.597406 C 1032.89834 -90.381301 1030.418739 -91.997406 1027.599294 -91.997406 Z M 1027.599294 -90.699329 C 1029.827159 -90.647406 1029.959321 -88.252454 1029.997081 -86.50005 C 1029.997081 -85.377214 1029.789399 -82.501973 1027.599294 -82.501973 C 1025.560232 -82.501973 1025.201508 -84.890435 1025.201508 -86.597406 C 1025.201508 -87.882502 1025.440657 -90.751253 1027.599294 -90.699329 Z M 1027.599294 -81.301252 C 1030.242524 -81.301252 1030.399859 -76.861828 1030.399859 -75.797405 C 1030.399859 -74.622646 1030.229937 -70.397405 1027.599294 -70.397405 C 1024.962358 -70.397405 1024.79873 -74.622646 1024.79873 -75.797405 C 1024.849077 -77.861348 1025.100813 -80.970242 1027.599294 -81.301252 Z M 1027.599294 -81.301252 " transform="matrix(-0.62069,0.000000000000000074,-0.000000000000000076,-0.601852,719.999889,69.814789)"/>
</g>
</svg>
