<?xml version="1.0" encoding="UTF-8"?>
<svg xmlns="http://www.w3.org/2000/svg" xmlns:xlink="http://www.w3.org/1999/xlink" width="90px" height="130px" viewBox="0 0 90 130" version="1.1">
<g id="surface1">
<path style="fill-rule:nonzero;fill:rgb(100%,100%,100%);fill-opacity:1;stroke-width:3;stroke-linecap:butt;stroke-linejoin:miter;stroke:rgb(21.960784%,25.098041%,27.843139%);stroke-opacity:1;stroke-miterlimit:4;" d="M 9.503057 1.499313 L 135.496991 1.499313 C 139.921254 1.499313 143.5022 5.082006 143.5022 9.501958 L 143.5022 206.498128 C 143.5022 210.91808 139.921254 214.500772 135.496991 214.500772 L 9.503057 214.500772 C 5.078795 214.500772 1.497849 210.91808 1.497849 206.498128 L 1.497849 9.501958 C 1.497849 5.082006 5.078795 1.499313 9.503057 1.499313 Z M 9.503057 1.499313 " transform="matrix(0.62069,0,0,0.601852,-0.0000114995,-0.0000206087)"/>
<path style=" stroke:none;fill-rule:nonzero;fill:rgb(93.333334%,33.333334%,26.666668%);fill-opacity:1;" d="M 22.40625 9.027344 C 19.550781 9.027344 17.691406 11.496094 17.691406 14.746094 C 17.691406 18.054688 19.863281 20.945312 21.910156 23.351562 C 23.957031 25.757812 25.820312 28.285156 27.0625 30.695312 C 28.304688 28.285156 30.042969 25.699219 32.152344 23.292969 C 34.261719 20.882812 36.371094 18.054688 36.371094 14.746094 C 36.371094 11.496094 34.511719 9.027344 31.65625 9.027344 C 29.542969 9.027344 27.683594 10.832031 27.0625 13.242188 C 26.441406 10.832031 24.578125 9.027344 22.34375 9.027344 Z M 22.40625 9.027344 "/>
<path style=" stroke:none;fill-rule:nonzero;fill:rgb(93.333334%,33.333334%,26.666668%);fill-opacity:1;" d="M 22.40625 120.371094 C 19.550781 120.371094 17.691406 117.902344 17.691406 114.652344 C 17.691406 111.34375 19.863281 108.453125 21.910156 106.046875 C 23.957031 103.640625 25.820312 101.109375 27.0625 98.703125 C 28.304688 101.109375 30.042969 103.699219 32.152344 106.105469 C 34.261719 108.515625 36.371094 111.34375 36.371094 114.652344 C 36.371094 117.902344 34.511719 120.371094 31.65625 120.371094 C 29.542969 120.371094 27.683594 118.566406 27.0625 116.15625 C 26.441406 118.566406 24.578125 120.371094 22.34375 120.371094 Z M 22.40625 120.371094 "/>
<path style=" stroke:none;fill-rule:nonzero;fill:rgb(93.333334%,33.333334%,26.666668%);fill-opacity:1;" d="M 58.40625 9.027344 C 55.550781 9.027344 53.691406 11.496094 53.691406 14.746094 C 53.691406 18.054688 55.863281 20.945312 57.910156 23.351562 C 59.957031 25.757812 61.820312 28.285156 63.0625 30.695312 C 64.304688 28.285156 66.042969 25.699219 68.152344 23.292969 C 70.261719 20.882812 72.371094 18.054688 72.371094 14.746094 C 72.371094 11.496094 70.511719 9.027344 67.65625 9.027344 C 65.542969 9.027344 63.683594 10.832031 63.0625 13.242188 C 62.441406 10.832031 60.578125 9.027344 58.34375 9.027344 Z M 58.40625 9.027344 "/>
<path style=" stroke:none;fill-rule:nonzero;fill:rgb(93.333334%,33.333334%,26.666668%);fill-opacity:1;" d="M 58.40625 120.371094 C 55.550781 120.371094 53.691406 117.902344 53.691406 114.652344 C 53.691406 111.34375 55.863281 108.453125 57.910156 106.046875 C 59.957031 103.640625 61.820312 101.109375 63.0625 98.703125 C 64.304688 101.109375 66.042969 103.699219 68.152344 106.105469 C 70.261719 108.515625 72.371094 111.34375 72.371094 114.652344 C 72.371094 117.902344 70.511719 120.371094 67.65625 120.371094 C 65.542969 120.371094 63.683594 118.566406 63.0625 116.15625 C 62.441406 118.566406 60.578125 120.371094 58.34375 120.371094 Z M 58.40625 120.371094 "/>
<path style=" stroke:none;fill-rule:nonzero;fill:rgb(93.333334%,33.333334%,26.666668%);fill-opacity:1;" d="M 5.703125 22.269531 C 4.394531 22.269531 3.542969 23.371094 3.542969 24.824219 C 3.542969 26.304688 4.539062 27.59375 5.476562 28.671875 C 6.414062 29.746094 7.265625 30.875 7.835938 31.953125 C 8.402344 30.875 9.199219 29.71875 10.167969 28.644531 C 11.132812 27.566406 12.097656 26.304688 12.097656 24.824219 C 12.097656 23.371094 11.246094 22.269531 9.9375 22.269531 C 8.972656 22.269531 8.121094 23.074219 7.835938 24.152344 C 7.550781 23.074219 6.699219 22.269531 5.675781 22.269531 Z M 5.703125 22.269531 "/>
<path style=" stroke:none;fill-rule:nonzero;fill:rgb(93.333334%,33.333334%,26.666668%);fill-opacity:1;" d="M 84.296875 107.730469 C 85.605469 107.730469 86.457031 106.628906 86.457031 105.175781 C 86.457031 103.695312 85.460938 102.40625 84.523438 101.328125 C 83.585938 100.253906 82.734375 99.125 82.164062 98.046875 C 81.597656 99.125 80.800781 100.28125 79.832031 101.355469 C 78.867188 102.433594 77.902344 103.695312 77.902344 105.175781 C 77.902344 106.628906 78.753906 107.730469 80.0625 107.730469 C 81.027344 107.730469 81.878906 106.925781 82.164062 105.847656 C 82.449219 106.925781 83.300781 107.730469 84.324219 107.730469 Z M 84.296875 107.730469 "/>
<path style="fill-rule:nonzero;fill:rgb(93.333334%,33.333334%,26.666668%);fill-opacity:1;stroke-width:0.5;stroke-linecap:butt;stroke-linejoin:round;stroke:rgb(93.333334%,33.333334%,26.666668%);stroke-opacity:1;stroke-miterlimit:4;" d="M 445.698804 -70.098761 C 446.498066 -70.098761 447.102233 -70.202608 447.398023 -70.501165 C 447.800801 -70.702367 448.00219 -71.098281 448.00219 -71.701887 L 448.00219 -75.29756 L 440.701842 -75.29756 L 440.701842 -76.699483 L 449.802103 -91.997321 L 451.199239 -91.997321 L 451.199239 -76.699483 L 452.19989 -76.699483 C 452.602667 -76.699483 452.898457 -76.900685 453.099846 -77.199243 C 453.301235 -77.400445 453.40193 -77.900204 453.40193 -78.49732 L 454.402581 -78.49732 L 454.402581 -73.499723 L 453.40193 -73.499723 C 453.40193 -74.096839 453.301235 -74.499243 453.099846 -74.7978 C 452.898457 -75.102848 452.602667 -75.29756 452.099195 -75.29756 L 451.098544 -75.29756 L 451.098544 -71.701887 C 451.098544 -71.098281 451.400627 -70.702367 451.702711 -70.501165 C 452.099195 -70.202608 452.697069 -70.098761 453.502624 -70.098761 L 453.502624 -69.099242 L 445.698804 -69.099242 Z M 442.703144 -76.699483 L 448.00219 -76.699483 L 448.00219 -86.097561 Z M 442.703144 -76.699483 " transform="matrix(0.62069,0,0,0.601852,-269.99999,60.18516)"/>
<path style="fill-rule:nonzero;fill:rgb(93.333334%,33.333334%,26.666668%);fill-opacity:1;stroke-width:0.5;stroke-linecap:butt;stroke-linejoin:round;stroke:rgb(93.333334%,33.333334%,26.666668%);stroke-opacity:1;stroke-miterlimit:4;" d="M 445.698756 -70.098847 C 446.498018 -70.098847 447.102184 -70.202693 447.397974 -70.501251 C 447.800752 -70.702453 448.002141 -71.098366 448.002141 -71.701972 L 448.002141 -75.297646 L 440.701793 -75.297646 L 440.701793 -76.699569 L 449.802054 -91.997406 L 451.19919 -91.997406 L 451.19919 -76.699569 L 452.199841 -76.699569 C 452.602619 -76.699569 452.898409 -76.900771 453.099798 -77.199328 C 453.301187 -77.40053 453.401881 -77.90029 453.401881 -78.497405 L 454.402532 -78.497405 L 454.402532 -73.499809 L 453.401881 -73.499809 C 453.401881 -74.096924 453.301187 -74.499328 453.099798 -74.797886 C 452.898409 -75.102934 452.602619 -75.297646 452.099147 -75.297646 L 451.098496 -75.297646 L 451.098496 -71.701972 C 451.098496 -71.098366 451.400579 -70.702453 451.702662 -70.501251 C 452.099147 -70.202693 452.69702 -70.098847 453.502576 -70.098847 L 453.502576 -69.099328 L 445.698756 -69.099328 Z M 442.703096 -76.699569 L 448.002141 -76.699569 L 448.002141 -86.097646 Z M 442.703096 -76.699569 " transform="matrix(-0.62069,0.000000000000000074,-0.000000000000000076,-0.601852,359.99996,69.814789)"/>
</g>
</svg>
