<?xml version="1.0" encoding="UTF-8"?>
<svg xmlns="http://www.w3.org/2000/svg" xmlns:xlink="http://www.w3.org/1999/xlink" width="90px" height="130px" viewBox="0 0 90 130" version="1.1">
<g id="surface1">
<path style="fill-rule:nonzero;fill:rgb(100%,100%,100%);fill-opacity:1;stroke-width:3;stroke-linecap:butt;stroke-linejoin:miter;stroke:rgb(21.960784%,25.098041%,27.843139%);stroke-opacity:1;stroke-miterlimit:4;" d="M 9.503103 1.499313 L 135.497037 1.499313 C 139.921299 1.499313 143.502246 5.082006 143.502246 9.501958 L 143.502246 206.498128 C 143.502246 210.91808 139.921299 214.500772 135.497037 214.500772 L 9.503103 214.500772 C 5.078841 214.500772 1.497894 210.91808 1.497894 206.498128 L 1.497894 9.501958 C 1.497894 5.082006 5.078841 1.499313 9.503103 1.499313 Z M 9.503103 1.499313 " transform="matrix(0.62069,0,0,0.601852,-0.0000398845,-0.0000206087)"/>
<path style=" stroke:none;fill-rule:nonzero;fill:rgb(93.333334%,33.333334%,26.666668%);fill-opacity:1;" d="M 22.40625 38.941406 C 19.550781 38.941406 17.691406 41.40625 17.691406 44.65625 C 17.691406 47.96875 19.863281 50.855469 21.910156 53.265625 C 23.957031 55.671875 25.820312 58.199219 27.0625 60.605469 C 28.304688 58.199219 30.042969 55.609375 32.152344 53.203125 C 34.261719 50.796875 36.371094 47.96875 36.371094 44.65625 C 36.371094 41.40625 34.511719 38.941406 31.65625 38.941406 C 29.542969 38.941406 27.683594 40.746094 27.0625 43.152344 C 26.441406 40.746094 24.578125 38.941406 22.34375 38.941406 Z M 22.40625 38.941406 "/>
<path style=" stroke:none;fill-rule:nonzero;fill:rgb(93.333334%,33.333334%,26.666668%);fill-opacity:1;" d="M 22.40625 9.027344 C 19.550781 9.027344 17.691406 11.496094 17.691406 14.746094 C 17.691406 18.054688 19.863281 20.945312 21.910156 23.351562 C 23.957031 25.757812 25.820312 28.285156 27.0625 30.695312 C 28.304688 28.285156 30.042969 25.699219 32.152344 23.292969 C 34.261719 20.882812 36.371094 18.054688 36.371094 14.746094 C 36.371094 11.496094 34.511719 9.027344 31.65625 9.027344 C 29.542969 9.027344 27.683594 10.832031 27.0625 13.242188 C 26.441406 10.832031 24.578125 9.027344 22.34375 9.027344 Z M 22.40625 9.027344 "/>
<path style=" stroke:none;fill-rule:nonzero;fill:rgb(93.333334%,33.333334%,26.666668%);fill-opacity:1;" d="M 22.40625 120.371094 C 19.550781 120.371094 17.691406 117.902344 17.691406 114.652344 C 17.691406 111.34375 19.863281 108.453125 21.910156 106.046875 C 23.957031 103.640625 25.820312 101.109375 27.0625 98.703125 C 28.304688 101.109375 30.042969 103.699219 32.152344 106.105469 C 34.261719 108.515625 36.371094 111.34375 36.371094 114.652344 C 36.371094 117.902344 34.511719 120.371094 31.65625 120.371094 C 29.542969 120.371094 27.683594 118.566406 27.0625 116.15625 C 26.441406 118.566406 24.578125 120.371094 22.34375 120.371094 Z M 22.40625 120.371094 "/>
<path style=" stroke:none;fill-rule:nonzero;fill:rgb(93.333334%,33.333334%,26.666668%);fill-opacity:1;" d="M 58.40625 38.941406 C 55.550781 38.941406 53.691406 41.40625 53.691406 44.65625 C 53.691406 47.96875 55.863281 50.855469 57.910156 53.265625 C 59.957031 55.671875 61.820312 58.199219 63.0625 60.605469 C 64.304688 58.199219 66.042969 55.609375 68.152344 53.203125 C 70.261719 50.796875 72.371094 47.96875 72.371094 44.65625 C 72.371094 41.40625 70.511719 38.941406 67.65625 38.941406 C 65.542969 38.941406 63.683594 40.746094 63.0625 43.152344 C 62.441406 40.746094 60.578125 38.941406 58.34375 38.941406 Z M 58.40625 38.941406 "/>
<path style=" stroke:none;fill-rule:nonzero;fill:rgb(93.333334%,33.333334%,26.666668%);fill-opacity:1;" d="M 58.40625 9.027344 C 55.550781 9.027344 53.691406 11.496094 53.691406 14.746094 C 53.691406 18.054688 55.863281 20.945312 57.910156 23.351562 C 59.957031 25.757812 61.820312 28.285156 63.0625 30.695312 C 64.304688 28.285156 66.042969 25.699219 68.152344 23.292969 C 70.261719 20.882812 72.371094 18.054688 72.371094 14.746094 C 72.371094 11.496094 70.511719 9.027344 67.65625 9.027344 C 65.542969 9.027344 63.683594 10.832031 63.0625 13.242188 C 62.441406 10.832031 60.578125 9.027344 58.34375 9.027344 Z M 58.40625 9.027344 "/>
<path style=" stroke:none;fill-rule:nonzero;fill:rgb(93.333334%,33.333334%,26.666668%);fill-opacity:1;" d="M 58.40625 120.371094 C 55.550781 120.371094 53.691406 117.902344 53.691406 114.652344 C 53.691406 111.34375 55.863281 108.453125 57.910156 106.046875 C 59.957031 103.640625 61.820312 101.109375 63.0625 98.703125 C 64.304688 101.109375 66.042969 103.699219 68.152344 106.105469 C 70.261719 108.515625 72.371094 111.34375 72.371094 114.652344 C 72.371094 117.902344 70.511719 120.371094 67.65625 120.371094 C 65.542969 120.371094 63.683594 118.566406 63.0625 116.15625 C 62.441406 118.566406 60.578125 120.371094 58.34375 120.371094 Z M 58.40625 120.371094 "/>
<path style=" stroke:none;fill-rule:nonzero;fill:rgb(93.333334%,33.333334%,26.666668%);fill-opacity:1;" d="M 22.40625 90.457031 C 19.550781 90.457031 17.691406 87.992188 17.691406 84.742188 C 17.691406 81.429688 19.863281 78.542969 21.910156 76.132812 C 23.957031 73.726562 25.820312 71.199219 27.0625 68.792969 C 28.304688 71.199219 30.042969 73.785156 32.152344 76.195312 C 34.261719 78.601562 36.371094 81.429688 36.371094 84.742188 C 36.371094 87.992188 34.511719 90.457031 31.65625 90.457031 C 29.542969 90.457031 27.683594 88.652344 27.0625 86.246094 C 26.441406 88.652344 24.578125 90.457031 22.34375 90.457031 Z M 22.40625 90.457031 "/>
<path style=" stroke:none;fill-rule:nonzero;fill:rgb(93.333334%,33.333334%,26.666668%);fill-opacity:1;" d="M 58.40625 90.457031 C 55.550781 90.457031 53.691406 87.992188 53.691406 84.742188 C 53.691406 81.429688 55.863281 78.542969 57.910156 76.132812 C 59.957031 73.726562 61.820312 71.199219 63.0625 68.792969 C 64.304688 71.199219 66.042969 73.785156 68.152344 76.195312 C 70.261719 78.601562 72.371094 81.429688 72.371094 84.742188 C 72.371094 87.992188 70.511719 90.457031 67.65625 90.457031 C 65.542969 90.457031 63.683594 88.652344 63.0625 86.246094 C 62.441406 88.652344 60.578125 90.457031 58.34375 90.457031 Z M 58.40625 90.457031 "/>
<path style=" stroke:none;fill-rule:nonzero;fill:rgb(93.333334%,33.333334%,26.666668%);fill-opacity:1;" d="M 40.40625 105.445312 C 37.550781 105.445312 35.691406 102.976562 35.691406 99.726562 C 35.691406 96.417969 37.863281 93.527344 39.910156 91.121094 C 41.957031 88.714844 43.820312 86.183594 45.0625 83.777344 C 46.304688 86.183594 48.042969 88.773438 50.152344 91.179688 C 52.261719 93.589844 54.371094 96.417969 54.371094 99.726562 C 54.371094 102.976562 52.511719 105.445312 49.65625 105.445312 C 47.542969 105.445312 45.683594 103.640625 45.0625 101.230469 C 44.441406 103.640625 42.578125 105.445312 40.34375 105.445312 Z M 40.40625 105.445312 "/>
<path style=" stroke:none;fill-rule:nonzero;fill:rgb(93.333334%,33.333334%,26.666668%);fill-opacity:1;" d="M 40.40625 23.953125 C 37.550781 23.953125 35.691406 26.421875 35.691406 29.671875 C 35.691406 32.980469 37.863281 35.871094 39.910156 38.277344 C 41.957031 40.683594 43.820312 43.214844 45.0625 45.621094 C 46.304688 43.214844 48.042969 40.625 50.152344 38.21875 C 52.261719 35.808594 54.371094 32.980469 54.371094 29.671875 C 54.371094 26.421875 52.511719 23.953125 49.65625 23.953125 C 47.542969 23.953125 45.683594 25.757812 45.0625 28.167969 C 44.441406 25.757812 42.578125 23.953125 40.34375 23.953125 Z M 40.40625 23.953125 "/>
<path style=" stroke:none;fill-rule:nonzero;fill:rgb(93.333334%,33.333334%,26.666668%);fill-opacity:1;" d="M 5.640625 22.269531 C 4.332031 22.269531 3.480469 23.371094 3.480469 24.824219 C 3.480469 26.304688 4.476562 27.59375 5.414062 28.671875 C 6.351562 29.746094 7.203125 30.875 7.773438 31.953125 C 8.339844 30.875 9.136719 29.71875 10.105469 28.644531 C 11.070312 27.566406 12.039062 26.304688 12.039062 24.824219 C 12.039062 23.371094 11.183594 22.269531 9.875 22.269531 C 8.910156 22.269531 8.058594 23.074219 7.773438 24.152344 C 7.488281 23.074219 6.636719 22.269531 5.613281 22.269531 Z M 5.640625 22.269531 "/>
<path style=" stroke:none;fill-rule:nonzero;fill:rgb(93.333334%,33.333334%,26.666668%);fill-opacity:1;" d="M 84.359375 107.730469 C 85.667969 107.730469 86.519531 106.628906 86.519531 105.175781 C 86.519531 103.695312 85.523438 102.40625 84.585938 101.328125 C 83.648438 100.253906 82.796875 99.125 82.226562 98.046875 C 81.660156 99.125 80.863281 100.28125 79.894531 101.355469 C 78.929688 102.433594 77.960938 103.695312 77.960938 105.175781 C 77.960938 106.628906 78.816406 107.730469 80.125 107.730469 C 81.089844 107.730469 81.941406 106.925781 82.226562 105.847656 C 82.511719 106.925781 83.363281 107.730469 84.386719 107.730469 Z M 84.359375 107.730469 "/>
<path style="fill-rule:nonzero;fill:rgb(93.333334%,33.333334%,26.666668%);fill-opacity:1;stroke-width:0.6;stroke-linecap:butt;stroke-linejoin:round;stroke:rgb(93.333334%,33.333334%,26.666668%);stroke-opacity:1;stroke-miterlimit:4;" d="M 1313.099674 -91.698763 C 1312.401107 -90.102128 1311.79694 -88.602849 1309.801931 -87.901888 L 1309.801931 -86.798522 L 1311.79694 -86.798522 L 1311.79694 -71.799242 C 1311.79694 -71.202127 1311.702539 -70.799723 1311.299761 -70.501165 C 1310.997678 -70.299963 1310.500499 -70.202608 1309.801931 -70.202608 L 1309.801931 -69.001886 L 1316.000933 -69.001886 L 1316.000933 -70.098761 C 1315.302365 -70.098761 1314.798893 -70.299963 1314.503103 -70.501165 C 1314.100325 -70.799723 1313.999631 -71.202127 1313.999631 -71.701887 L 1313.999631 -91.698763 Z M 1320.8028 -91.698763 C 1318.027409 -91.711744 1317.121159 -89.45958 1316.598806 -87.09708 C 1315.831011 -82.566791 1315.831011 -77.932656 1316.598806 -73.402367 C 1317.247027 -69.501646 1319.179102 -68.826646 1320.8028 -68.800684 C 1323.766993 -68.755252 1324.692123 -71.92905 1324.899805 -73.298521 C 1325.61096 -77.880733 1325.548026 -82.521359 1324.899805 -87.09708 C 1324.692123 -88.570398 1324.119423 -91.698763 1320.8028 -91.698763 Z M 1320.8028 -90.498042 C 1321.602062 -90.498042 1322.199935 -89.602369 1322.602713 -87.999244 C 1323.427149 -82.858859 1323.389389 -77.627608 1322.502019 -72.500204 C 1322.199935 -70.897079 1321.602062 -70.098761 1320.8028 -70.098761 C 1319.997244 -70.098761 1319.399371 -70.897079 1319.097288 -72.500204 C 1317.888954 -78.737464 1318.688216 -86.461022 1319.097288 -88.10309 C 1319.399371 -89.699725 1320.097939 -90.498042 1320.8028 -90.498042 Z M 1320.8028 -90.498042 " transform="matrix(0.62069,0,0,0.601852,-809.999976,60.18516)"/>
<path style="fill-rule:nonzero;fill:rgb(93.333334%,33.333334%,26.666668%);fill-opacity:1;stroke-width:0.6;stroke-linecap:butt;stroke-linejoin:round;stroke:rgb(93.333334%,33.333334%,26.666668%);stroke-opacity:1;stroke-miterlimit:4;" d="M 1313.099534 -91.698849 C 1312.400967 -90.102214 1311.803093 -88.602935 1309.801791 -87.901973 L 1309.801791 -86.798608 L 1311.803093 -86.798608 L 1311.803093 -71.799328 C 1311.803093 -71.202213 1311.702399 -70.799809 1311.299621 -70.501251 C 1310.997538 -70.300049 1310.500359 -70.202693 1309.801791 -70.202693 L 1309.801791 -69.001972 L 1316.000793 -69.001972 L 1316.000793 -70.098847 C 1315.302225 -70.098847 1314.798753 -70.300049 1314.502963 -70.501251 C 1314.100185 -70.799809 1313.999491 -71.202213 1313.999491 -71.701972 L 1313.999491 -91.698849 Z M 1320.80266 -91.698849 C 1318.027269 -91.71183 1317.121019 -89.459666 1316.598666 -87.097166 C 1315.830871 -82.566877 1315.830871 -77.932742 1316.598666 -73.402453 C 1317.246887 -69.501732 1319.178962 -68.826732 1320.80266 -68.80077 C 1323.766853 -68.755337 1324.691983 -71.929136 1324.899665 -73.298607 C 1325.61082 -77.880819 1325.547886 -82.521444 1324.899665 -87.097166 C 1324.691983 -88.570483 1324.119283 -91.698849 1320.80266 -91.698849 Z M 1320.80266 -90.498128 C 1321.601922 -90.498128 1322.199795 -89.602454 1322.602573 -87.999329 C 1323.427009 -82.858944 1323.389249 -77.627694 1322.501879 -72.50029 C 1322.199795 -70.897164 1321.601922 -70.098847 1320.80266 -70.098847 C 1319.997104 -70.098847 1319.399231 -70.897164 1319.097148 -72.50029 C 1317.888814 -78.73755 1318.688076 -86.461108 1319.097148 -88.103175 C 1319.399231 -89.69981 1320.097799 -90.498128 1320.80266 -90.498128 Z M 1320.80266 -90.498128 " transform="matrix(-0.62069,0.000000000000000074,-0.000000000000000076,-0.601852,899.999889,69.814789)"/>
</g>
</svg>
