<?xml version="1.0" encoding="UTF-8"?>
<svg xmlns="http://www.w3.org/2000/svg" xmlns:xlink="http://www.w3.org/1999/xlink" width="90px" height="130px" viewBox="0 0 90 130" version="1.1">
<g id="surface1">
<path style="fill-rule:nonzero;fill:rgb(100%,100%,100%);fill-opacity:1;stroke-width:3;stroke-linecap:butt;stroke-linejoin:miter;stroke:rgb(21.960784%,25.098041%,27.843139%);stroke-opacity:1;stroke-miterlimit:4;" d="M 9.503057 1.499313 L 135.496991 1.499313 C 139.921253 1.499313 143.5022 5.082006 143.5022 9.501958 L 143.5022 206.498128 C 143.5022 210.91808 139.921253 214.500772 135.496991 214.500772 L 9.503057 214.500772 C 5.078795 214.500772 1.497848 210.91808 1.497848 206.498128 L 1.497848 9.501958 C 1.497848 5.082006 5.078795 1.499313 9.503057 1.499313 Z M 9.503057 1.499313 " transform="matrix(0.62069,0,0,0.601852,-0.0000112898,-0.0000206087)"/>
<path style=" stroke:none;fill-rule:nonzero;fill:rgb(93.333334%,33.333334%,26.666668%);fill-opacity:1;" d="M 22.40625 38.941406 C 19.550781 38.941406 17.691406 41.40625 17.691406 44.65625 C 17.691406 47.96875 19.863281 50.855469 21.910156 53.265625 C 23.957031 55.671875 25.820312 58.199219 27.0625 60.605469 C 28.304688 58.199219 30.042969 55.609375 32.152344 53.203125 C 34.261719 50.796875 36.371094 47.96875 36.371094 44.65625 C 36.371094 41.40625 34.511719 38.941406 31.65625 38.941406 C 29.542969 38.941406 27.683594 40.746094 27.0625 43.152344 C 26.441406 40.746094 24.578125 38.941406 22.34375 38.941406 Z M 22.40625 38.941406 "/>
<path style=" stroke:none;fill-rule:nonzero;fill:rgb(93.333334%,33.333334%,26.666668%);fill-opacity:1;" d="M 22.40625 9.027344 C 19.550781 9.027344 17.691406 11.496094 17.691406 14.746094 C 17.691406 18.054688 19.863281 20.945312 21.910156 23.351562 C 23.957031 25.757812 25.820312 28.285156 27.0625 30.695312 C 28.304688 28.285156 30.042969 25.699219 32.152344 23.292969 C 34.261719 20.882812 36.371094 18.054688 36.371094 14.746094 C 36.371094 11.496094 34.511719 9.027344 31.65625 9.027344 C 29.542969 9.027344 27.683594 10.832031 27.0625 13.242188 C 26.441406 10.832031 24.578125 9.027344 22.34375 9.027344 Z M 22.40625 9.027344 "/>
<path style=" stroke:none;fill-rule:nonzero;fill:rgb(93.333334%,33.333334%,26.666668%);fill-opacity:1;" d="M 22.40625 120.371094 C 19.550781 120.371094 17.691406 117.902344 17.691406 114.652344 C 17.691406 111.34375 19.863281 108.453125 21.910156 106.046875 C 23.957031 103.640625 25.820312 101.109375 27.0625 98.703125 C 28.304688 101.109375 30.042969 103.699219 32.152344 106.105469 C 34.261719 108.515625 36.371094 111.34375 36.371094 114.652344 C 36.371094 117.902344 34.511719 120.371094 31.65625 120.371094 C 29.542969 120.371094 27.683594 118.566406 27.0625 116.15625 C 26.441406 118.566406 24.578125 120.371094 22.34375 120.371094 Z M 22.40625 120.371094 "/>
<path style=" stroke:none;fill-rule:nonzero;fill:rgb(93.333334%,33.333334%,26.666668%);fill-opacity:1;" d="M 58.40625 38.941406 C 55.550781 38.941406 53.691406 41.40625 53.691406 44.65625 C 53.691406 47.96875 55.863281 50.855469 57.910156 53.265625 C 59.957031 55.671875 61.820312 58.199219 63.0625 60.605469 C 64.304688 58.199219 66.042969 55.609375 68.152344 53.203125 C 70.261719 50.796875 72.371094 47.96875 72.371094 44.65625 C 72.371094 41.40625 70.511719 38.941406 67.65625 38.941406 C 65.542969 38.941406 63.683594 40.746094 63.0625 43.152344 C 62.441406 40.746094 60.578125 38.941406 58.34375 38.941406 Z M 58.40625 38.941406 "/>
<path style=" stroke:none;fill-rule:nonzero;fill:rgb(93.333334%,33.333334%,26.666668%);fill-opacity:1;" d="M 58.40625 9.027344 C 55.550781 9.027344 53.691406 11.496094 53.691406 14.746094 C 53.691406 18.054688 55.863281 20.945312 57.910156 23.351562 C 59.957031 25.757812 61.820312 28.285156 63.0625 30.695312 C 64.304688 28.285156 66.042969 25.699219 68.152344 23.292969 C 70.261719 20.882812 72.371094 18.054688 72.371094 14.746094 C 72.371094 11.496094 70.511719 9.027344 67.65625 9.027344 C 65.542969 9.027344 63.683594 10.832031 63.0625 13.242188 C 62.441406 10.832031 60.578125 9.027344 58.34375 9.027344 Z M 58.40625 9.027344 "/>
<path style=" stroke:none;fill-rule:nonzero;fill:rgb(93.333334%,33.333334%,26.666668%);fill-opacity:1;" d="M 58.40625 120.371094 C 55.550781 120.371094 53.691406 117.902344 53.691406 114.652344 C 53.691406 111.34375 55.863281 108.453125 57.910156 106.046875 C 59.957031 103.640625 61.820312 101.109375 63.0625 98.703125 C 64.304688 101.109375 66.042969 103.699219 68.152344 106.105469 C 70.261719 108.515625 72.371094 111.34375 72.371094 114.652344 C 72.371094 117.902344 70.511719 120.371094 67.65625 120.371094 C 65.542969 120.371094 63.683594 118.566406 63.0625 116.15625 C 62.441406 118.566406 60.578125 120.371094 58.34375 120.371094 Z M 58.40625 120.371094 "/>
<path style=" stroke:none;fill-rule:nonzero;fill:rgb(93.333334%,33.333334%,26.666668%);fill-opacity:1;" d="M 22.40625 90.457031 C 19.550781 90.457031 17.691406 87.992188 17.691406 84.742188 C 17.691406 81.429688 19.863281 78.542969 21.910156 76.132812 C 23.957031 73.726562 25.820312 71.199219 27.0625 68.792969 C 28.304688 71.199219 30.042969 73.785156 32.152344 76.195312 C 34.261719 78.601562 36.371094 81.429688 36.371094 84.742188 C 36.371094 87.992188 34.511719 90.457031 31.65625 90.457031 C 29.542969 90.457031 27.683594 88.652344 27.0625 86.246094 C 26.441406 88.652344 24.578125 90.457031 22.34375 90.457031 Z M 22.40625 90.457031 "/>
<path style=" stroke:none;fill-rule:nonzero;fill:rgb(93.333334%,33.333334%,26.666668%);fill-opacity:1;" d="M 58.40625 90.457031 C 55.550781 90.457031 53.691406 87.992188 53.691406 84.742188 C 53.691406 81.429688 55.863281 78.542969 57.910156 76.132812 C 59.957031 73.726562 61.820312 71.199219 63.0625 68.792969 C 64.304688 71.199219 66.042969 73.785156 68.152344 76.195312 C 70.261719 78.601562 72.371094 81.429688 72.371094 84.742188 C 72.371094 87.992188 70.511719 90.457031 67.65625 90.457031 C 65.542969 90.457031 63.683594 88.652344 63.0625 86.246094 C 62.441406 88.652344 60.578125 90.457031 58.34375 90.457031 Z M 58.40625 90.457031 "/>
<path style=" stroke:none;fill-rule:nonzero;fill:rgb(93.333334%,33.333334%,26.666668%);fill-opacity:1;" d="M 40.34375 56.574219 C 37.488281 56.574219 35.628906 59.042969 35.628906 62.292969 C 35.628906 65.601562 37.800781 68.492188 39.847656 70.898438 C 41.898438 73.304688 43.757812 75.832031 45 78.242188 C 46.242188 75.832031 47.980469 73.246094 50.089844 70.839844 C 52.199219 68.429688 54.308594 65.601562 54.308594 62.292969 C 54.308594 59.042969 52.449219 56.574219 49.59375 56.574219 C 47.484375 56.574219 45.621094 58.378906 45 60.785156 C 44.378906 58.378906 42.515625 56.574219 40.28125 56.574219 Z M 40.34375 56.574219 "/>
<path style=" stroke:none;fill-rule:nonzero;fill:rgb(93.333334%,33.333334%,26.666668%);fill-opacity:1;" d="M 5.640625 22.269531 C 4.332031 22.269531 3.480469 23.371094 3.480469 24.824219 C 3.480469 26.304688 4.476562 27.59375 5.414062 28.671875 C 6.351562 29.746094 7.203125 30.875 7.773438 31.953125 C 8.339844 30.875 9.136719 29.71875 10.105469 28.644531 C 11.070312 27.566406 12.039062 26.304688 12.039062 24.824219 C 12.039062 23.371094 11.183594 22.269531 9.875 22.269531 C 8.910156 22.269531 8.058594 23.074219 7.773438 24.152344 C 7.488281 23.074219 6.636719 22.269531 5.613281 22.269531 Z M 5.640625 22.269531 "/>
<path style=" stroke:none;fill-rule:nonzero;fill:rgb(93.333334%,33.333334%,26.666668%);fill-opacity:1;" d="M 84.359375 107.730469 C 85.667969 107.730469 86.519531 106.628906 86.519531 105.175781 C 86.519531 103.695312 85.523438 102.40625 84.585938 101.328125 C 83.648438 100.253906 82.796875 99.125 82.226562 98.046875 C 81.660156 99.125 80.863281 100.28125 79.894531 101.355469 C 78.929688 102.433594 77.960938 103.695312 77.960938 105.175781 C 77.960938 106.628906 78.816406 107.730469 80.125 107.730469 C 81.089844 107.730469 81.941406 106.925781 82.226562 105.847656 C 82.511719 106.925781 83.363281 107.730469 84.386719 107.730469 Z M 84.359375 107.730469 "/>
<path style="fill-rule:nonzero;fill:rgb(93.333334%,33.333334%,26.666668%);fill-opacity:1;stroke-width:0.5;stroke-linecap:butt;stroke-linejoin:round;stroke:rgb(93.333334%,33.333334%,26.666668%);stroke-opacity:1;stroke-miterlimit:4;" d="M 1172.297328 -70.702367 C 1174.997198 -70.702367 1175.506964 -73.642512 1175.702059 -79.600685 C 1174.638474 -78.958137 1173.63153 -78.581695 1172.398023 -78.49732 C 1169.068812 -78.49732 1166.897588 -81.061022 1166.897588 -85.098041 C 1166.897588 -89.407657 1168.980705 -91.802609 1172.498717 -91.802609 C 1176.551669 -91.802609 1178.269768 -88.680734 1178.401929 -82.501887 C 1178.401929 -75.342993 1177.55232 -69.300444 1172.398023 -69.300444 C 1169.698153 -69.300444 1167.40106 -70.987944 1167.40106 -73.798281 C 1167.40106 -75.278089 1168.256963 -76.400925 1169.402363 -76.400925 C 1170.510002 -76.400925 1171.397372 -75.686983 1171.397372 -74.298041 C 1171.397372 -73.097319 1170.642163 -72.448281 1169.698153 -72.0978 C 1170.107224 -71.481213 1171.038648 -70.702367 1172.297328 -70.702367 Z M 1175.702059 -85.000686 C 1175.702059 -85.818474 1175.557311 -90.270878 1172.599412 -90.498042 C 1170.528882 -90.498042 1169.503057 -88.667753 1169.503057 -85.000686 C 1169.503057 -83.339147 1169.842901 -80.003089 1172.599412 -80.003089 C 1174.588127 -80.003089 1175.702059 -81.982657 1175.702059 -85.000686 Z M 1175.702059 -85.000686 " transform="matrix(0.62069,0,0,0.601852,-719.999954,60.18516)"/>
<path style="fill-rule:nonzero;fill:rgb(93.333334%,33.333334%,26.666668%);fill-opacity:1;stroke-width:0.5;stroke-linecap:butt;stroke-linejoin:round;stroke:rgb(93.333334%,33.333334%,26.666668%);stroke-opacity:1;stroke-miterlimit:4;" d="M 1172.29728 -70.702453 C 1174.99715 -70.702453 1175.506916 -73.642597 1175.702011 -79.600771 C 1174.638426 -78.958223 1173.631482 -78.58178 1172.397975 -78.497405 C 1169.068764 -78.497405 1166.89754 -81.061108 1166.89754 -85.098127 C 1166.89754 -89.407743 1168.980657 -91.802695 1172.498669 -91.802695 C 1176.551621 -91.802695 1178.26972 -88.68082 1178.401881 -82.501973 C 1178.401881 -75.343078 1177.552272 -69.30053 1172.397975 -69.30053 C 1169.698105 -69.30053 1167.401013 -70.98803 1167.401013 -73.798367 C 1167.401013 -75.278174 1168.256915 -76.401011 1169.402315 -76.401011 C 1170.509954 -76.401011 1171.397324 -75.687069 1171.397324 -74.298126 C 1171.397324 -73.097405 1170.642115 -72.448366 1169.698105 -72.097886 C 1170.107176 -71.481299 1171.0386 -70.702453 1172.29728 -70.702453 Z M 1175.702011 -85.000771 C 1175.702011 -85.81856 1175.557263 -90.270964 1172.599364 -90.498128 C 1170.528834 -90.498128 1169.503009 -88.667839 1169.503009 -85.000771 C 1169.503009 -83.339233 1169.842853 -80.003175 1172.599364 -80.003175 C 1174.588079 -80.003175 1175.702011 -81.982742 1175.702011 -85.000771 Z M 1175.702011 -85.000771 " transform="matrix(-0.62069,0.000000000000000074,-0.000000000000000076,-0.601852,809.999925,69.814789)"/>
</g>
</svg>
