<?xml version="1.0" encoding="UTF-8"?>
<svg xmlns="http://www.w3.org/2000/svg" xmlns:xlink="http://www.w3.org/1999/xlink" width="90px" height="130px" viewBox="0 0 90 130" version="1.1">
<g id="surface1">
<path style="fill-rule:nonzero;fill:rgb(100%,100%,100%);fill-opacity:1;stroke-width:3;stroke-linecap:butt;stroke-linejoin:miter;stroke:rgb(21.960784%,25.098041%,27.843139%);stroke-opacity:1;stroke-miterlimit:4;" d="M 9.503046 1.499313 L 135.496979 1.499313 C 139.921242 1.499313 143.502188 5.082006 143.502188 9.501958 L 143.502188 206.498128 C 143.502188 210.91808 139.921242 214.500772 135.496979 214.500772 L 9.503046 214.500772 C 5.078783 214.500772 1.497837 210.91808 1.497837 206.498128 L 1.497837 9.501958 C 1.497837 5.082006 5.078783 1.499313 9.503046 1.499313 Z M 9.503046 1.499313 " transform="matrix(0.62069,0,0,0.601852,-0.0000042984,-0.0000206087)"/>
<path style=" stroke:none;fill-rule:nonzero;fill:rgb(93.333334%,33.333334%,26.666668%);fill-opacity:1;" d="M 40.40625 55.371094 C 37.550781 55.371094 35.691406 57.839844 35.691406 61.089844 C 35.691406 64.398438 37.863281 67.285156 39.910156 69.695312 C 41.957031 72.101562 43.820312 74.628906 45.0625 77.035156 C 46.304688 74.628906 48.042969 72.042969 50.152344 69.632812 C 52.261719 67.226562 54.371094 64.398438 54.371094 61.089844 C 54.371094 57.839844 52.511719 55.371094 49.65625 55.371094 C 47.542969 55.371094 45.683594 57.175781 45.0625 59.582031 C 44.441406 57.175781 42.578125 55.371094 40.34375 55.371094 Z M 40.40625 55.371094 "/>
<path style=" stroke:none;fill-rule:nonzero;fill:rgb(93.333334%,33.333334%,26.666668%);fill-opacity:1;" d="M 22.40625 9.027344 C 19.550781 9.027344 17.691406 11.496094 17.691406 14.746094 C 17.691406 18.054688 19.863281 20.945312 21.910156 23.351562 C 23.957031 25.757812 25.820312 28.285156 27.0625 30.695312 C 28.304688 28.285156 30.042969 25.699219 32.152344 23.292969 C 34.261719 20.882812 36.371094 18.054688 36.371094 14.746094 C 36.371094 11.496094 34.511719 9.027344 31.65625 9.027344 C 29.542969 9.027344 27.683594 10.832031 27.0625 13.242188 C 26.441406 10.832031 24.578125 9.027344 22.34375 9.027344 Z M 22.40625 9.027344 "/>
<path style=" stroke:none;fill-rule:nonzero;fill:rgb(93.333334%,33.333334%,26.666668%);fill-opacity:1;" d="M 22.40625 120.371094 C 19.550781 120.371094 17.691406 117.902344 17.691406 114.652344 C 17.691406 111.34375 19.863281 108.453125 21.910156 106.046875 C 23.957031 103.640625 25.820312 101.109375 27.0625 98.703125 C 28.304688 101.109375 30.042969 103.699219 32.152344 106.105469 C 34.261719 108.515625 36.371094 111.34375 36.371094 114.652344 C 36.371094 117.902344 34.511719 120.371094 31.65625 120.371094 C 29.542969 120.371094 27.683594 118.566406 27.0625 116.15625 C 26.441406 118.566406 24.578125 120.371094 22.34375 120.371094 Z M 22.40625 120.371094 "/>
<path style=" stroke:none;fill-rule:nonzero;fill:rgb(93.333334%,33.333334%,26.666668%);fill-opacity:1;" d="M 58.40625 9.027344 C 55.550781 9.027344 53.691406 11.496094 53.691406 14.746094 C 53.691406 18.054688 55.863281 20.945312 57.910156 23.351562 C 59.957031 25.757812 61.820312 28.285156 63.0625 30.695312 C 64.304688 28.285156 66.042969 25.699219 68.152344 23.292969 C 70.261719 20.882812 72.371094 18.054688 72.371094 14.746094 C 72.371094 11.496094 70.511719 9.027344 67.65625 9.027344 C 65.542969 9.027344 63.683594 10.832031 63.0625 13.242188 C 62.441406 10.832031 60.578125 9.027344 58.34375 9.027344 Z M 58.40625 9.027344 "/>
<path style=" stroke:none;fill-rule:nonzero;fill:rgb(93.333334%,33.333334%,26.666668%);fill-opacity:1;" d="M 58.40625 120.371094 C 55.550781 120.371094 53.691406 117.902344 53.691406 114.652344 C 53.691406 111.34375 55.863281 108.453125 57.910156 106.046875 C 59.957031 103.640625 61.820312 101.109375 63.0625 98.703125 C 64.304688 101.109375 66.042969 103.699219 68.152344 106.105469 C 70.261719 108.515625 72.371094 111.34375 72.371094 114.652344 C 72.371094 117.902344 70.511719 120.371094 67.65625 120.371094 C 65.542969 120.371094 63.683594 118.566406 63.0625 116.15625 C 62.441406 118.566406 60.578125 120.371094 58.34375 120.371094 Z M 58.40625 120.371094 "/>
<path style=" stroke:none;fill-rule:nonzero;fill:rgb(93.333334%,33.333334%,26.666668%);fill-opacity:1;" d="M 5.703125 22.269531 C 4.394531 22.269531 3.542969 23.371094 3.542969 24.824219 C 3.542969 26.304688 4.539062 27.59375 5.476562 28.671875 C 6.414062 29.746094 7.265625 30.875 7.835938 31.953125 C 8.402344 30.875 9.199219 29.71875 10.167969 28.644531 C 11.132812 27.566406 12.097656 26.304688 12.097656 24.824219 C 12.097656 23.371094 11.246094 22.269531 9.9375 22.269531 C 8.972656 22.269531 8.121094 23.074219 7.835938 24.152344 C 7.550781 23.074219 6.699219 22.269531 5.675781 22.269531 Z M 5.703125 22.269531 "/>
<path style=" stroke:none;fill-rule:nonzero;fill:rgb(93.333334%,33.333334%,26.666668%);fill-opacity:1;" d="M 84.296875 107.730469 C 85.605469 107.730469 86.457031 106.628906 86.457031 105.175781 C 86.457031 103.695312 85.460938 102.40625 84.523438 101.328125 C 83.585938 100.253906 82.734375 99.125 82.164062 98.046875 C 81.597656 99.125 80.800781 100.28125 79.832031 101.355469 C 78.867188 102.433594 77.902344 103.695312 77.902344 105.175781 C 77.902344 106.628906 78.753906 107.730469 80.0625 107.730469 C 81.027344 107.730469 81.878906 106.925781 82.164062 105.847656 C 82.449219 106.925781 83.300781 107.730469 84.324219 107.730469 Z M 84.296875 107.730469 "/>
<path style="fill-rule:nonzero;fill:rgb(93.333334%,33.333334%,26.666668%);fill-opacity:1;stroke-width:0.5;stroke-linecap:butt;stroke-linejoin:round;stroke:rgb(93.333334%,33.333334%,26.666668%);stroke-opacity:1;stroke-miterlimit:4;" d="M 588.999574 -79.698041 L 587.998922 -80.898762 L 588.999574 -91.400205 L 595.29927 -91.400205 L 595.601354 -91.997321 L 596.602005 -91.997321 L 597.602656 -85.299243 L 596.702699 -85.000686 C 596.287335 -86.402609 595.551006 -88.752128 592.398011 -88.700205 L 590.302308 -88.700205 L 589.698141 -82.196839 C 591.699444 -83.001647 593.700746 -82.897801 595.399965 -81.898282 C 601.259123 -77.731454 598.452265 -68.39179 591.800138 -68.800684 C 589.018454 -68.781213 586.450745 -70.611502 586.501093 -73.402367 C 586.501093 -75.232656 587.829001 -76.056935 588.69749 -76.102368 C 589.84289 -76.14131 590.698792 -75.29107 590.698792 -73.999483 C 590.698792 -72.999964 590.201614 -72.299002 589.100268 -71.799242 C 589.798836 -70.799723 590.598098 -70.202608 591.598749 -70.202608 C 597.281692 -70.338906 596.318802 -82.508378 591.000876 -81.002608 C 590.107213 -80.749483 589.597447 -80.301647 588.999574 -79.698041 Z M 588.999574 -79.698041 " transform="matrix(0.62069,0,0,0.601852,-359.999976,60.18516)"/>
<path style="fill-rule:nonzero;fill:rgb(93.333334%,33.333334%,26.666668%);fill-opacity:1;stroke-width:0.5;stroke-linecap:butt;stroke-linejoin:round;stroke:rgb(93.333334%,33.333334%,26.666668%);stroke-opacity:1;stroke-miterlimit:4;" d="M 588.999548 -79.698127 L 587.998897 -80.898848 L 588.999548 -91.400291 L 595.299245 -91.400291 L 595.601328 -91.997406 L 596.601979 -91.997406 L 597.602631 -85.299329 L 596.702674 -85.000771 C 596.287309 -86.402695 595.550981 -88.752214 592.397986 -88.700291 L 590.302283 -88.700291 L 589.698116 -82.196925 C 591.699418 -83.001733 593.700721 -82.897887 595.399939 -81.898367 C 601.259098 -77.73154 598.45224 -68.391876 591.800113 -68.80077 C 589.018428 -68.781299 586.45072 -70.611587 586.501067 -73.402453 C 586.501067 -75.232742 587.828975 -76.057021 588.697465 -76.102453 C 589.842864 -76.141396 590.698767 -75.291155 590.698767 -73.999569 C 590.698767 -73.000049 590.201588 -72.299088 589.100243 -71.799328 C 589.79881 -70.799809 590.598073 -70.202693 591.598724 -70.202693 C 597.281667 -70.338991 596.318776 -82.508463 591.000851 -81.002694 C 590.107187 -80.749569 589.597422 -80.301732 588.999548 -79.698127 Z M 588.999548 -79.698127 " transform="matrix(-0.62069,0.000000000000000074,-0.000000000000000076,-0.601852,449.99996,69.814789)"/>
</g>
</svg>
