<?xml version="1.0" encoding="UTF-8"?>
<svg xmlns="http://www.w3.org/2000/svg" xmlns:xlink="http://www.w3.org/1999/xlink" width="90px" height="130px" viewBox="0 0 90 130" version="1.1">
<g id="surface1">
<path style="fill-rule:nonzero;fill:rgb(100%,100%,100%);fill-opacity:1;stroke-width:3;stroke-linecap:butt;stroke-linejoin:miter;stroke:rgb(21.960784%,25.098041%,27.843139%);stroke-opacity:1;stroke-miterlimit:4;" d="M 9.503037 1.499313 L 135.496971 1.499313 C 139.921234 1.499313 143.50218 5.082006 143.50218 9.501958 L 143.50218 206.498128 C 143.50218 210.91808 139.921234 214.500772 135.496971 214.500772 L 9.503037 214.500772 C 5.078775 214.500772 1.497828 210.91808 1.497828 206.498128 L 1.497828 9.501958 C 1.497828 5.082006 5.078775 1.499313 9.503037 1.499313 Z M 9.503037 1.499313 " transform="matrix(0.62069,0,0,0.601852,0.000000945129,-0.0000206087)"/>
<path style=" stroke:none;fill-rule:nonzero;fill:rgb(93.333334%,33.333334%,26.666668%);fill-opacity:1;" d="M 40.21875 9.027344 C 37.367188 9.027344 35.503906 11.496094 35.503906 14.746094 C 35.503906 18.054688 37.675781 20.945312 39.722656 23.351562 C 41.773438 25.757812 43.632812 28.285156 44.875 30.695312 C 46.117188 28.285156 47.855469 25.699219 49.964844 23.292969 C 52.074219 20.882812 54.1875 18.054688 54.1875 14.746094 C 54.1875 11.496094 52.324219 9.027344 49.46875 9.027344 C 47.359375 9.027344 45.496094 10.832031 44.875 13.242188 C 44.253906 10.832031 42.394531 9.027344 40.160156 9.027344 Z M 40.21875 9.027344 "/>
<path style=" stroke:none;fill-rule:nonzero;fill:rgb(93.333334%,33.333334%,26.666668%);fill-opacity:1;" d="M 40.21875 120.371094 C 37.367188 120.371094 35.503906 117.902344 35.503906 114.652344 C 35.503906 111.34375 37.675781 108.453125 39.722656 106.046875 C 41.773438 103.640625 43.632812 101.109375 44.875 98.703125 C 46.117188 101.109375 47.855469 103.699219 49.964844 106.105469 C 52.074219 108.515625 54.1875 111.34375 54.1875 114.652344 C 54.1875 117.902344 52.324219 120.371094 49.46875 120.371094 C 47.359375 120.371094 45.496094 118.566406 44.875 116.15625 C 44.253906 118.566406 42.394531 120.371094 40.160156 120.371094 Z M 40.21875 120.371094 "/>
<path style=" stroke:none;fill-rule:nonzero;fill:rgb(93.333334%,33.333334%,26.666668%);fill-opacity:1;" d="M 5.703125 22.269531 C 4.394531 22.269531 3.542969 23.371094 3.542969 24.824219 C 3.542969 26.304688 4.539062 27.59375 5.476562 28.671875 C 6.414062 29.746094 7.265625 30.875 7.835938 31.953125 C 8.402344 30.875 9.199219 29.71875 10.167969 28.644531 C 11.132812 27.566406 12.097656 26.304688 12.097656 24.824219 C 12.097656 23.371094 11.246094 22.269531 9.9375 22.269531 C 8.972656 22.269531 8.121094 23.074219 7.835938 24.152344 C 7.550781 23.074219 6.699219 22.269531 5.675781 22.269531 Z M 5.703125 22.269531 "/>
<path style=" stroke:none;fill-rule:nonzero;fill:rgb(93.333334%,33.333334%,26.666668%);fill-opacity:1;" d="M 84.296875 107.730469 C 85.605469 107.730469 86.457031 106.628906 86.457031 105.175781 C 86.457031 103.695312 85.460938 102.40625 84.523438 101.328125 C 83.585938 100.253906 82.734375 99.125 82.164062 98.046875 C 81.597656 99.125 80.800781 100.28125 79.832031 101.355469 C 78.867188 102.433594 77.902344 103.695312 77.902344 105.175781 C 77.902344 106.628906 78.753906 107.730469 80.0625 107.730469 C 81.027344 107.730469 81.878906 106.925781 82.164062 105.847656 C 82.449219 106.925781 83.300781 107.730469 84.324219 107.730469 Z M 84.296875 107.730469 "/>
<path style="fill-rule:nonzero;fill:rgb(93.333334%,33.333334%,26.666668%);fill-opacity:1;stroke-width:0.5;stroke-linecap:butt;stroke-linejoin:round;stroke:rgb(93.333334%,33.333334%,26.666668%);stroke-opacity:1;stroke-miterlimit:4;" d="M 159.802083 -86.000205 C 159.802083 -88.187465 158.65039 -90.400686 156.699435 -90.400686 C 155.572916 -90.400686 154.7296 -89.926888 154.200954 -88.998763 C 155.327473 -88.719676 156.000867 -87.778571 156.000867 -86.902369 C 156.000867 -85.792513 155.239366 -84.799484 153.798176 -84.799484 C 152.457681 -84.799484 151.601779 -86.097561 151.601779 -87.402128 C 151.601779 -89.920398 153.867404 -91.899965 157.001519 -91.899965 C 159.751736 -91.899965 162.898437 -90.017753 162.898437 -86.000205 C 162.898437 -80.119916 156.422525 -78.698522 153.697482 -72.701406 L 158.499349 -72.701406 C 160.909722 -72.701406 161.778212 -73.863185 162.602647 -75.901166 L 163.597005 -75.699964 L 162.401259 -69.203088 L 161.400607 -69.203088 C 161.400607 -69.527608 161.249566 -69.800204 160.097873 -69.800204 L 151.601779 -69.800204 L 151.601779 -71.500685 C 151.708766 -77.49131 159.802083 -79.730493 159.802083 -86.000205 Z M 159.802083 -86.000205 " transform="matrix(0.62069,0,0,0.601852,-89.999992,60.18516)"/>
<path style="fill-rule:nonzero;fill:rgb(93.333334%,33.333334%,26.666668%);fill-opacity:1;stroke-width:0.5;stroke-linecap:butt;stroke-linejoin:round;stroke:rgb(93.333334%,33.333334%,26.666668%);stroke-opacity:1;stroke-miterlimit:4;" d="M 159.802075 -86.000291 C 159.802075 -88.18755 158.650382 -90.400772 156.699427 -90.400772 C 155.572908 -90.400772 154.729591 -89.926974 154.200946 -88.998849 C 155.327465 -88.719762 156.000859 -87.778656 156.000859 -86.902454 C 156.000859 -85.792598 155.239357 -84.799569 153.798168 -84.799569 C 152.457673 -84.799569 151.60177 -86.097646 151.60177 -87.402214 C 151.60177 -89.920483 153.867395 -91.900051 157.00151 -91.900051 C 159.751727 -91.900051 162.898429 -90.017839 162.898429 -86.000291 C 162.898429 -80.120002 156.422517 -78.698607 153.697473 -72.701492 L 158.49934 -72.701492 C 160.909714 -72.701492 161.778203 -73.85678 162.602639 -75.901251 L 163.596997 -75.700049 L 162.40125 -69.203174 L 161.400599 -69.203174 C 161.400599 -69.527693 161.249557 -69.800289 160.097864 -69.800289 L 151.60177 -69.800289 L 151.60177 -71.50077 C 151.708758 -77.491396 159.802075 -79.730579 159.802075 -86.000291 Z M 159.802075 -86.000291 " transform="matrix(-0.62069,0.000000000000000074,-0.000000000000000076,-0.601852,179.999987,69.814789)"/>
</g>
</svg>
