<?xml version="1.0" encoding="UTF-8"?>
<svg xmlns="http://www.w3.org/2000/svg" xmlns:xlink="http://www.w3.org/1999/xlink" width="90px" height="130px" viewBox="0 0 90 130" version="1.1">
<g id="surface1">
<path style="fill-rule:nonzero;fill:rgb(100%,100%,100%);fill-opacity:1;stroke-width:3;stroke-linecap:butt;stroke-linejoin:miter;stroke:rgb(21.960784%,25.098041%,27.843139%);stroke-opacity:1;stroke-miterlimit:4;" d="M 9.503034 1.499313 L 135.496967 1.499313 C 139.92123 1.499313 143.502176 5.082006 143.502176 9.501958 L 143.502176 206.498128 C 143.502176 210.91808 139.92123 214.500772 135.496967 214.500772 L 9.503034 214.500772 C 5.078771 214.500772 1.497825 210.91808 1.497825 206.498128 L 1.497825 9.501958 C 1.497825 5.082006 5.078771 1.499313 9.503034 1.499313 Z M 9.503034 1.499313 " transform="matrix(0.62069,0,0,0.601852,0.00000326533,-0.0000206087)"/>
<path style=" stroke:none;fill-rule:nonzero;fill:rgb(93.333334%,33.333334%,26.666668%);fill-opacity:1;" d="M 35.75 46.945312 C 30.042969 46.945312 26.316406 51.878906 26.316406 58.378906 C 26.316406 65 30.660156 70.777344 34.757812 75.59375 C 38.855469 80.40625 42.578125 85.464844 45.0625 90.277344 C 47.542969 85.464844 51.019531 80.285156 55.242188 75.472656 C 59.460938 70.65625 63.683594 65 63.683594 58.378906 C 63.683594 51.878906 59.957031 46.945312 54.25 46.945312 C 50.027344 46.945312 46.304688 50.554688 45.0625 55.371094 C 43.820312 50.554688 40.097656 46.945312 35.628906 46.945312 Z M 35.75 46.945312 "/>
<path style=" stroke:none;fill-rule:nonzero;fill:rgb(93.333334%,33.333334%,26.666668%);fill-opacity:1;" d="M 5.703125 22.269531 C 4.394531 22.269531 3.542969 23.371094 3.542969 24.824219 C 3.542969 26.304688 4.539062 27.59375 5.476562 28.671875 C 6.414062 29.746094 7.265625 30.875 7.835938 31.953125 C 8.402344 30.875 9.199219 29.71875 10.167969 28.644531 C 11.132812 27.566406 12.097656 26.304688 12.097656 24.824219 C 12.097656 23.371094 11.246094 22.269531 9.9375 22.269531 C 8.972656 22.269531 8.121094 23.074219 7.835938 24.152344 C 7.550781 23.074219 6.699219 22.269531 5.675781 22.269531 Z M 5.703125 22.269531 "/>
<path style=" stroke:none;fill-rule:nonzero;fill:rgb(93.333334%,33.333334%,26.666668%);fill-opacity:1;" d="M 84.296875 107.730469 C 85.605469 107.730469 86.457031 106.628906 86.457031 105.175781 C 86.457031 103.695312 85.460938 102.40625 84.523438 101.328125 C 83.585938 100.253906 82.734375 99.125 82.164062 98.046875 C 81.597656 99.125 80.800781 100.28125 79.832031 101.355469 C 78.867188 102.433594 77.902344 103.695312 77.902344 105.175781 C 77.902344 106.628906 78.753906 107.730469 80.0625 107.730469 C 81.027344 107.730469 81.878906 106.925781 82.164062 105.847656 C 82.449219 106.925781 83.300781 107.730469 84.324219 107.730469 Z M 84.296875 107.730469 "/>
<path style="fill-rule:nonzero;fill:rgb(93.333334%,33.333334%,26.666668%);fill-opacity:1;stroke-width:0.5;stroke-linecap:butt;stroke-linejoin:round;stroke:rgb(93.333334%,33.333334%,26.666668%);stroke-opacity:1;stroke-miterlimit:4;" d="M 8.798173 -71.903089 C 8.559023 -70.7478 9.597435 -70.669915 10.598086 -70.598521 L 10.598086 -69.501646 L 5.701818 -69.501646 L 5.701818 -70.501165 C 6.658415 -70.501165 7.281462 -70.929531 7.501731 -71.903089 L 12.001515 -91.997321 L 13.39865 -91.997321 L 17.898434 -71.799242 C 18.112409 -70.871117 18.647349 -70.760781 19.597653 -70.598521 L 19.597653 -69.501646 L 13.002166 -69.501646 L 13.002166 -70.501165 C 14.147565 -70.540108 14.909067 -70.728329 14.701385 -71.799242 L 14.097218 -74.7978 L 9.402339 -74.7978 Z M 9.698129 -75.901166 L 13.902123 -75.901166 L 11.800126 -85.597801 Z M 9.698129 -75.901166 " transform="matrix(0.62069,0,0,0.601852,0.00000326533,60.18516)"/>
<path style="fill-rule:nonzero;fill:rgb(93.333334%,33.333334%,26.666668%);fill-opacity:1;stroke-width:0.5;stroke-linecap:butt;stroke-linejoin:round;stroke:rgb(93.333334%,33.333334%,26.666668%);stroke-opacity:1;stroke-miterlimit:4;" d="M 8.798172 -71.903174 C 8.559022 -70.747886 9.597434 -70.670001 10.598085 -70.598607 L 10.598085 -69.501732 L 5.701817 -69.501732 L 5.701817 -70.501251 C 6.658414 -70.501251 7.281461 -70.929616 7.50173 -71.903174 L 12.001514 -91.997406 L 13.398649 -91.997406 L 17.898433 -71.799328 C 18.112408 -70.871203 18.647348 -70.760866 19.597652 -70.598607 L 19.597652 -69.501732 L 13.002165 -69.501732 L 13.002165 -70.501251 C 14.147564 -70.540193 14.909066 -70.728414 14.701384 -71.799328 L 14.097217 -74.797886 L 9.402338 -74.797886 Z M 9.698128 -75.901251 L 13.902122 -75.901251 L 11.800125 -85.597887 Z M 9.698128 -75.901251 " transform="matrix(-0.62069,0.000000000000000074,-0.000000000000000076,-0.601852,89.999996,69.814789)"/>
</g>
</svg>
