<?xml version="1.0" encoding="UTF-8"?>
<svg xmlns="http://www.w3.org/2000/svg" xmlns:xlink="http://www.w3.org/1999/xlink" width="90px" height="130px" viewBox="0 0 90 130" version="1.1">
<g id="surface1">
<path style="fill-rule:nonzero;fill:rgb(100%,100%,100%);fill-opacity:1;stroke-width:3;stroke-linecap:butt;stroke-linejoin:miter;stroke:rgb(21.960784%,25.098041%,27.843139%);stroke-opacity:1;stroke-miterlimit:4;" d="M 9.50308 1.499313 L 135.497014 1.499313 C 139.921276 1.499313 143.502223 5.082006 143.502223 9.501958 L 143.502223 206.498128 C 143.502223 210.91808 139.921276 214.500772 135.497014 214.500772 L 9.50308 214.500772 C 5.078818 214.500772 1.497871 210.91808 1.497871 206.498128 L 1.497871 9.501958 C 1.497871 5.082006 5.078818 1.499313 9.50308 1.499313 Z M 9.50308 1.499313 " transform="matrix(0.62069,0,0,0.601852,-0.000025692,-0.0000206087)"/>
<path style=" stroke:none;fill-rule:nonzero;fill:rgb(93.333334%,33.333334%,26.666668%);fill-opacity:1;" d="M 40.40625 55.371094 C 37.550781 55.371094 35.691406 57.839844 35.691406 61.089844 C 35.691406 64.398438 37.863281 67.285156 39.910156 69.695312 C 41.957031 72.101562 43.820312 74.628906 45.0625 77.035156 C 46.304688 74.628906 48.042969 72.042969 50.152344 69.632812 C 52.261719 67.226562 54.371094 64.398438 54.371094 61.089844 C 54.371094 57.839844 52.511719 55.371094 49.65625 55.371094 C 47.542969 55.371094 45.683594 57.175781 45.0625 59.582031 C 44.441406 57.175781 42.578125 55.371094 40.34375 55.371094 Z M 40.40625 55.371094 "/>
<path style=" stroke:none;fill-rule:nonzero;fill:rgb(93.333334%,33.333334%,26.666668%);fill-opacity:1;" d="M 40.40625 9.027344 C 37.550781 9.027344 35.691406 11.496094 35.691406 14.746094 C 35.691406 18.054688 37.863281 20.945312 39.910156 23.351562 C 41.957031 25.757812 43.820312 28.285156 45.0625 30.695312 C 46.304688 28.285156 48.042969 25.699219 50.152344 23.292969 C 52.261719 20.882812 54.371094 18.054688 54.371094 14.746094 C 54.371094 11.496094 52.511719 9.027344 49.65625 9.027344 C 47.542969 9.027344 45.683594 10.832031 45.0625 13.242188 C 44.441406 10.832031 42.578125 9.027344 40.34375 9.027344 Z M 40.40625 9.027344 "/>
<path style=" stroke:none;fill-rule:nonzero;fill:rgb(93.333334%,33.333334%,26.666668%);fill-opacity:1;" d="M 40.40625 120.371094 C 37.550781 120.371094 35.691406 117.902344 35.691406 114.652344 C 35.691406 111.34375 37.863281 108.453125 39.910156 106.046875 C 41.957031 103.640625 43.820312 101.109375 45.0625 98.703125 C 46.304688 101.109375 48.042969 103.699219 50.152344 106.105469 C 52.261719 108.515625 54.371094 111.34375 54.371094 114.652344 C 54.371094 117.902344 52.511719 120.371094 49.65625 120.371094 C 47.542969 120.371094 45.683594 118.566406 45.0625 116.15625 C 44.441406 118.566406 42.578125 120.371094 40.34375 120.371094 Z M 40.40625 120.371094 "/>
<path style=" stroke:none;fill-rule:nonzero;fill:rgb(93.333334%,33.333334%,26.666668%);fill-opacity:1;" d="M 22.40625 31.597656 C 19.550781 31.597656 17.691406 34.066406 17.691406 37.316406 C 17.691406 40.625 19.863281 43.515625 21.910156 45.921875 C 23.957031 48.328125 25.820312 50.855469 27.0625 53.265625 C 28.304688 50.855469 30.042969 48.269531 32.152344 45.859375 C 34.261719 43.453125 36.371094 40.625 36.371094 37.316406 C 36.371094 34.066406 34.511719 31.597656 31.65625 31.597656 C 29.542969 31.597656 27.683594 33.402344 27.0625 35.808594 C 26.441406 33.402344 24.578125 31.597656 22.34375 31.597656 Z M 22.40625 31.597656 "/>
<path style=" stroke:none;fill-rule:nonzero;fill:rgb(93.333334%,33.333334%,26.666668%);fill-opacity:1;" d="M 22.40625 98.101562 C 19.550781 98.101562 17.691406 95.632812 17.691406 92.382812 C 17.691406 89.074219 19.863281 86.183594 21.910156 83.777344 C 23.957031 81.371094 25.820312 78.84375 27.0625 76.433594 C 28.304688 78.84375 30.042969 81.429688 32.152344 83.839844 C 34.261719 86.246094 36.371094 89.074219 36.371094 92.382812 C 36.371094 95.632812 34.511719 98.101562 31.65625 98.101562 C 29.542969 98.101562 27.683594 96.296875 27.0625 93.890625 C 26.441406 96.296875 24.578125 98.101562 22.34375 98.101562 Z M 22.40625 98.101562 "/>
<path style=" stroke:none;fill-rule:nonzero;fill:rgb(93.333334%,33.333334%,26.666668%);fill-opacity:1;" d="M 58.40625 31.597656 C 55.550781 31.597656 53.691406 34.066406 53.691406 37.316406 C 53.691406 40.625 55.863281 43.515625 57.910156 45.921875 C 59.957031 48.328125 61.820312 50.855469 63.0625 53.265625 C 64.304688 50.855469 66.042969 48.269531 68.152344 45.859375 C 70.261719 43.453125 72.371094 40.625 72.371094 37.316406 C 72.371094 34.066406 70.511719 31.597656 67.65625 31.597656 C 65.542969 31.597656 63.683594 33.402344 63.0625 35.808594 C 62.441406 33.402344 60.578125 31.597656 58.34375 31.597656 Z M 58.40625 31.597656 "/>
<path style=" stroke:none;fill-rule:nonzero;fill:rgb(93.333334%,33.333334%,26.666668%);fill-opacity:1;" d="M 58.40625 98.101562 C 55.550781 98.101562 53.691406 95.632812 53.691406 92.382812 C 53.691406 89.074219 55.863281 86.183594 57.910156 83.777344 C 59.957031 81.371094 61.820312 78.84375 63.0625 76.433594 C 64.304688 78.84375 66.042969 81.429688 68.152344 83.839844 C 70.261719 86.246094 72.371094 89.074219 72.371094 92.382812 C 72.371094 95.632812 70.511719 98.101562 67.65625 98.101562 C 65.542969 98.101562 63.683594 96.296875 63.0625 93.890625 C 62.441406 96.296875 60.578125 98.101562 58.34375 98.101562 Z M 58.40625 98.101562 "/>
<path style=" stroke:none;fill-rule:nonzero;fill:rgb(93.333334%,33.333334%,26.666668%);fill-opacity:1;" d="M 5.703125 22.269531 C 4.394531 22.269531 3.542969 23.371094 3.542969 24.824219 C 3.542969 26.304688 4.539062 27.59375 5.476562 28.671875 C 6.414062 29.746094 7.265625 30.875 7.835938 31.953125 C 8.402344 30.875 9.199219 29.71875 10.167969 28.644531 C 11.132812 27.566406 12.097656 26.304688 12.097656 24.824219 C 12.097656 23.371094 11.246094 22.269531 9.9375 22.269531 C 8.972656 22.269531 8.121094 23.074219 7.835938 24.152344 C 7.550781 23.074219 6.699219 22.269531 5.675781 22.269531 Z M 5.703125 22.269531 "/>
<path style=" stroke:none;fill-rule:nonzero;fill:rgb(93.333334%,33.333334%,26.666668%);fill-opacity:1;" d="M 84.296875 107.730469 C 85.605469 107.730469 86.457031 106.628906 86.457031 105.175781 C 86.457031 103.695312 85.460938 102.40625 84.523438 101.328125 C 83.585938 100.253906 82.734375 99.125 82.164062 98.046875 C 81.597656 99.125 80.800781 100.28125 79.832031 101.355469 C 78.867188 102.433594 77.902344 103.695312 77.902344 105.175781 C 77.902344 106.628906 78.753906 107.730469 80.0625 107.730469 C 81.027344 107.730469 81.878906 106.925781 82.164062 105.847656 C 82.449219 106.925781 83.300781 107.730469 84.324219 107.730469 Z M 84.296875 107.730469 "/>
<path style="fill-rule:nonzero;fill:rgb(93.333334%,33.333334%,26.666668%);fill-opacity:1;stroke-width:0.5;stroke-linecap:butt;stroke-linejoin:round;stroke:rgb(93.333334%,33.333334%,26.666668%);stroke-opacity:1;stroke-miterlimit:4;" d="M 879.100303 -80.197801 L 879.100303 -81.599724 L 881.900867 -81.599724 C 883.058853 -84.410061 884.808419 -87.298282 885.601388 -88.499003 L 881.598784 -88.499003 C 878.728992 -88.499003 878.370268 -87.622801 877.401084 -85.201888 L 876.400433 -85.40309 L 877.602473 -91.997321 L 878.603124 -91.997321 C 878.609417 -91.789629 878.987021 -91.497561 879.200997 -91.497561 L 888.899131 -91.497561 L 888.798437 -90.199484 C 887.501996 -88.44708 885.431466 -85.338186 884.097265 -81.599724 L 886.299956 -81.599724 L 886.299956 -80.197801 L 883.70078 -80.197801 C 882.719009 -76.621599 882.309938 -72.909098 882.49874 -69.203088 L 879.200997 -69.203088 C 879.591188 -72.928569 880.327516 -76.608618 881.397395 -80.197801 Z M 879.100303 -80.197801 " transform="matrix(0.62069,0,0,0.601852,-539.999983,60.18516)"/>
<path style="fill-rule:nonzero;fill:rgb(93.333334%,33.333334%,26.666668%);fill-opacity:1;stroke-width:0.5;stroke-linecap:butt;stroke-linejoin:round;stroke:rgb(93.333334%,33.333334%,26.666668%);stroke-opacity:1;stroke-miterlimit:4;" d="M 879.100208 -80.197886 L 879.100208 -81.59981 L 881.900773 -81.59981 C 883.058759 -84.410146 884.808325 -87.298368 885.601294 -88.499089 L 881.598689 -88.499089 C 878.728897 -88.499089 878.370173 -87.622887 877.400989 -85.201973 L 876.400338 -85.403175 L 877.602378 -91.997406 L 878.603029 -91.997406 C 878.609323 -91.789714 878.986927 -91.497647 879.200903 -91.497647 L 888.899037 -91.497647 L 888.798343 -90.19957 C 887.501902 -88.447166 885.431372 -85.338271 884.09717 -81.59981 L 886.299862 -81.59981 L 886.299862 -80.197886 L 883.700686 -80.197886 C 882.718915 -76.621684 882.309844 -72.909184 882.498646 -69.203174 L 879.200903 -69.203174 C 879.591094 -72.928655 880.327422 -76.608703 881.3973 -80.197886 Z M 879.100208 -80.197886 " transform="matrix(-0.62069,0.000000000000000074,-0.000000000000000076,-0.601852,629.999924,69.814789)"/>
</g>
</svg>
