<?xml version="1.0" encoding="UTF-8"?>
<svg xmlns="http://www.w3.org/2000/svg" xmlns:xlink="http://www.w3.org/1999/xlink" width="90px" height="130px" viewBox="0 0 90 130" version="1.1">
<defs>
<clipPath id="clip1">
  <path d="M 55 40 L 77 40 L 77 65 L 55 65 Z M 55 40 "/>
</clipPath>
<clipPath id="clip2">
  <path d="M 64.851562 39.53125 L 40.597656 65.730469 L 76.289062 61.464844 L 76.289062 43.492188 C 76.289062 43.492188 74.78125 41.847656 72.769531 41.417969 C 70.695312 41.054688 64.851562 39.59375 64.851562 39.59375 Z M 64.851562 39.53125 "/>
</clipPath>
<clipPath id="clip3">
  <path d="M 13 65 L 35 65 L 35 89 L 13 89 Z M 13 65 "/>
</clipPath>
<clipPath id="clip4">
  <path d="M 25.085938 90.449219 L 49.339844 64.25 L 13.652344 68.515625 L 13.652344 86.488281 C 13.652344 86.488281 15.160156 88.132812 17.171875 88.5625 C 19.242188 88.925781 25.085938 90.386719 25.085938 90.386719 Z M 25.085938 90.449219 "/>
</clipPath>
</defs>
<g id="surface1">
<path style="fill-rule:nonzero;fill:rgb(100%,100%,100%);fill-opacity:1;stroke-width:3;stroke-linecap:butt;stroke-linejoin:miter;stroke:rgb(21.960784%,25.098041%,27.843139%);stroke-opacity:1;stroke-miterlimit:4;" d="M 9.496856 1.499313 L 135.497083 1.499313 C 139.921345 1.499313 143.502292 5.082006 143.502292 9.501958 L 143.502292 206.498128 C 143.502292 210.91808 139.921345 214.500772 135.497083 214.500772 L 9.496856 214.500772 C 5.078887 214.500772 1.49794 210.91808 1.49794 206.498128 L 1.49794 9.501958 C 1.49794 5.082006 5.078887 1.499313 9.496856 1.499313 Z M 9.496856 1.499313 " transform="matrix(0.62069,0,0,0.601852,-0.0000684791,-0.0000206087)"/>
<path style=" stroke:none;fill-rule:nonzero;fill:rgb(93.333334%,33.333334%,26.666668%);fill-opacity:1;" d="M 15.246094 6.269531 C 12.785156 6.269531 11.183594 8.394531 11.183594 11.191406 C 11.183594 14.042969 13.054688 16.53125 14.816406 18.605469 C 16.582031 20.675781 18.183594 22.851562 19.253906 24.925781 C 20.320312 22.851562 21.820312 20.625 23.636719 18.550781 C 25.453125 16.480469 27.269531 14.042969 27.269531 11.191406 C 27.269531 8.394531 25.667969 6.269531 23.207031 6.269531 C 21.390625 6.269531 19.789062 7.824219 19.253906 9.898438 C 18.71875 7.824219 17.117188 6.269531 15.191406 6.269531 Z M 15.246094 6.269531 "/>
<path style=" stroke:none;fill-rule:nonzero;fill:rgb(100%,100%,100%);fill-opacity:1;" d="M 3.722656 4.214844 L 12.289062 4.214844 L 12.289062 34.304688 L 3.722656 34.304688 Z M 3.722656 4.214844 "/>
<path style=" stroke:none;fill-rule:nonzero;fill:rgb(93.333334%,33.333334%,26.666668%);fill-opacity:1;" d="M 74.753906 123.730469 C 77.214844 123.730469 78.816406 121.605469 78.816406 118.808594 C 78.816406 115.957031 76.945312 113.46875 75.183594 111.394531 C 73.417969 109.324219 71.816406 107.148438 70.746094 105.074219 C 69.675781 107.148438 68.179688 109.375 66.363281 111.449219 C 64.546875 113.519531 62.730469 115.957031 62.730469 118.808594 C 62.730469 121.605469 64.332031 123.730469 66.792969 123.730469 C 68.609375 123.730469 70.210938 122.175781 70.746094 120.101562 C 71.28125 122.175781 72.882812 123.730469 74.808594 123.730469 Z M 74.753906 123.730469 "/>
<path style=" stroke:none;fill-rule:nonzero;fill:rgb(93.333334%,33.333334%,26.666668%);fill-opacity:1;" d="M 27.023438 60.746094 L 76.234375 61.402344 L 42.503906 75.753906 L 13.703125 68.578125 Z M 27.023438 60.746094 "/>
<path style=" stroke:none;fill-rule:nonzero;fill:rgb(33.333334%,46.666667%,53.333336%);fill-opacity:1;" d="M 54.925781 38.25 L 68.371094 45.257812 C 68.371094 45.257812 49.648438 60.488281 40.097656 65.667969 L 31.175781 66.644531 L 38.839844 40.507812 Z M 54.925781 38.25 "/>
<path style=" stroke:none;fill-rule:nonzero;fill:rgb(75.294119%,63.921571%,40.784314%);fill-opacity:1;" d="M 51.03125 15.101562 L 38.839844 16.5625 L 39.34375 20.582031 L 36.957031 25.761719 L 39.089844 26.1875 L 38.839844 28.136719 L 40.285156 28.992188 L 39.78125 30.085938 C 39.78125 30.085938 41.480469 30.695312 40.535156 31.671875 C 39.59375 32.585938 38.777344 34.351562 43.238281 34.597656 C 45.941406 34.71875 47.636719 35.9375 45.375 39.714844 C 45.375 39.347656 47.070312 44.039062 49.960938 44.222656 C 54.484375 44.464844 60.957031 40.445312 60.957031 40.445312 Z M 51.03125 15.101562 "/>
<path style=" stroke:none;fill-rule:nonzero;fill:rgb(60.784316%,33.333334%,26.274511%);fill-opacity:1;" d="M 40.472656 18.390625 C 40.472656 18.390625 40.222656 19.488281 41.480469 20.035156 C 42.109375 20.277344 42.234375 20.15625 43.238281 19.730469 C 44.304688 19.304688 46.191406 19.546875 46.503906 19.851562 C 46.820312 20.21875 45.878906 17.902344 42.359375 18.878906 C 40.160156 19.488281 40.472656 18.390625 40.472656 18.390625 Z M 40.472656 18.390625 "/>
<path style=" stroke:none;fill-rule:nonzero;fill:rgb(21.960784%,25.098041%,27.843139%);fill-opacity:1;" d="M 41.164062 20.828125 L 43.238281 20.765625 C 44.304688 20.644531 45.625 20.765625 46.253906 21.375 C 46.253906 21.375 44.808594 20.949219 43.550781 21.316406 C 43.550781 21.316406 43.804688 22.53125 42.988281 22.53125 C 42.234375 22.65625 42.109375 21.316406 42.109375 21.316406 C 42.109375 21.316406 41.480469 21.316406 41.164062 20.828125 Z M 41.164062 20.828125 "/>
<path style=" stroke:none;fill-rule:nonzero;fill:rgb(60.784316%,33.333334%,26.274511%);fill-opacity:1;" d="M 49.585938 14.734375 C 49.585938 14.734375 49.332031 25.09375 48.265625 29.964844 C 48.265625 29.964844 44.371094 38.617188 64.789062 35.207031 C 64.789062 35.207031 66.359375 31.550781 62.589844 30.941406 C 62.589844 30.941406 64.289062 14.308594 61.207031 14.796875 Z M 49.585938 14.734375 "/>
<path style=" stroke:none;fill-rule:nonzero;fill:rgb(69.01961%,45.09804%,38.82353%);fill-opacity:1;" d="M 64.789062 35.207031 C 64.789062 35.207031 67.554688 28.992188 50.402344 30.636719 C 50.402344 30.636719 68.246094 27.894531 64.789062 35.207031 Z M 48.769531 12.847656 C 48.769531 12.847656 48.578125 25.09375 48.140625 30.515625 C 48.140625 30.515625 50.902344 19 50.085938 12.90625 Z M 53.230469 12.542969 C 53.230469 12.542969 54.484375 19.914062 52.914062 29.171875 C 52.914062 29.171875 55.492188 20.339844 54.296875 12.601562 Z M 58.695312 11.871094 C 58.695312 11.871094 59.953125 19.242188 58.382812 28.503906 C 58.382812 28.503906 60.957031 19.667969 59.699219 11.933594 Z M 58.695312 11.871094 "/>
<path style=" stroke:none;fill-rule:nonzero;fill:rgb(69.01961%,45.09804%,38.82353%);fill-opacity:1;" d="M 54.675781 30.574219 C 54.675781 30.574219 59.511719 33.5 55.113281 35.691406 C 55.113281 35.691406 58.382812 33.621094 54.675781 30.574219 Z M 59.449219 30.515625 C 59.449219 30.515625 64.289062 33.4375 59.890625 35.691406 C 59.890625 35.691406 63.15625 33.621094 59.449219 30.515625 Z M 59.449219 30.515625 "/>
<path style=" stroke:none;fill-rule:nonzero;fill:rgb(93.333334%,33.333334%,26.666668%);fill-opacity:1;" d="M 63.34375 15.710938 C 63.34375 15.710938 49.523438 14.796875 38.902344 15.160156 C 39.089844 12.296875 38.273438 10.410156 37.269531 7.484375 C 37.269531 7.484375 42.734375 5.230469 45.625 7.300781 C 45.625 7.300781 49.019531 8.886719 50.96875 8.15625 C 52.976562 7.363281 54.109375 5.71875 57.0625 6.753906 C 60.015625 7.789062 63.03125 12.054688 65.542969 11.628906 Z M 63.34375 15.710938 "/>
<path style=" stroke:none;fill-rule:nonzero;fill:rgb(21.960784%,25.098041%,27.843139%);fill-opacity:1;" d="M 63.535156 16.5 C 63.535156 16.5 53.667969 14.976562 38.839844 16.5625 L 38.902344 15.160156 C 38.902344 15.160156 53.355469 13.152344 63.972656 14.855469 Z M 63.535156 16.5 "/>
<path style=" stroke:none;fill-rule:nonzero;fill:rgb(93.333334%,33.333334%,26.666668%);fill-opacity:1;" d="M 45.816406 38.921875 L 38.777344 40.507812 C 38.777344 40.507812 39.65625 47.632812 50.210938 47.816406 C 60.769531 48 67.804688 40.75 67.804688 40.75 L 60.707031 39.042969 C 60.707031 39.042969 55.679688 43.125 50.527344 42.273438 C 45.375 41.417969 45.816406 38.921875 45.816406 38.921875 Z M 45.816406 38.921875 "/>
<path style=" stroke:none;fill-rule:nonzero;fill:rgb(93.333334%,80.000001%,26.666668%);fill-opacity:1;" d="M 63.910156 39.898438 L 72.707031 41.542969 C 72.707031 41.542969 76.289062 41.847656 76.289062 45.929688 L 76.289062 61.402344 L 71.890625 62.011719 L 55.300781 63.960938 Z M 63.910156 39.898438 "/>
<g clip-path="url(#clip1)" clip-rule="nonzero">
<g clip-path="url(#clip2)" clip-rule="nonzero">
<path style=" stroke:none;fill-rule:nonzero;fill:rgb(93.333334%,33.333334%,26.666668%);fill-opacity:1;" d="M 72.582031 40.992188 L 72.015625 43.246094 C 72.054688 43.398438 72.117188 43.542969 72.203125 43.675781 C 72.328125 43.917969 72.582031 44.101562 72.894531 44.101562 C 73.148438 44.101562 73.335938 44.039062 73.523438 43.855469 C 73.835938 43.550781 73.835938 43.066406 73.835938 42.636719 C 73.648438 42.027344 73.019531 41.601562 72.582031 40.992188 Z M 74.589844 42.210938 C 74.511719 42.324219 74.445312 42.449219 74.402344 42.578125 C 74.339844 43.003906 74.402344 43.492188 74.65625 43.796875 C 74.84375 43.980469 75.03125 44.101562 75.28125 44.101562 C 75.535156 44.101562 75.722656 43.980469 75.910156 43.796875 C 75.617188 43.167969 75.164062 42.621094 74.589844 42.210938 Z M 73.210938 44.953125 C 72.957031 44.953125 72.707031 45.074219 72.582031 45.195312 C 72.261719 45.519531 72.121094 45.972656 72.203125 46.414062 C 72.394531 47.085938 73.019531 47.511719 73.460938 48.121094 L 73.902344 48.851562 L 73.964844 49.097656 L 74.027344 49.097656 L 74.027344 49.035156 C 74.132812 48.703125 74.304688 48.394531 74.527344 48.121094 C 75.03125 47.511719 75.660156 47.148438 75.785156 46.539062 C 75.910156 46.109375 75.847656 45.625 75.597656 45.320312 C 75.410156 45.136719 75.15625 45.015625 74.96875 45.015625 C 74.527344 45.015625 74.152344 45.378906 74.027344 45.867188 C 73.996094 45.695312 73.929688 45.53125 73.835938 45.378906 C 73.710938 45.136719 73.460938 44.953125 73.210938 44.953125 Z M 70.757812 45.015625 L 67.996094 46.414062 C 68.183594 47.085938 68.8125 47.511719 69.25 48.121094 L 69.691406 48.851562 L 69.753906 49.097656 L 69.816406 49.097656 L 69.816406 49.035156 C 69.925781 48.703125 70.09375 48.394531 70.320312 48.121094 C 70.820312 47.511719 71.449219 47.148438 71.574219 46.539062 C 71.703125 46.109375 71.640625 45.625 71.386719 45.320312 C 71.199219 45.136719 70.949219 45.015625 70.757812 45.015625 Z M 71.636719 48.242188 L 71.636719 48.304688 C 71.53125 48.636719 71.359375 48.945312 71.136719 49.21875 C 70.632812 49.828125 70.003906 50.191406 69.878906 50.800781 C 69.753906 51.230469 69.816406 51.714844 70.066406 52.019531 C 70.257812 52.203125 70.507812 52.324219 70.695312 52.324219 C 71.136719 52.324219 71.511719 51.960938 71.636719 51.472656 C 71.667969 51.644531 71.734375 51.808594 71.828125 51.960938 C 71.953125 52.203125 72.203125 52.386719 72.457031 52.386719 C 72.707031 52.386719 72.957031 52.265625 73.082031 52.082031 C 73.460938 51.777344 73.460938 51.289062 73.460938 50.863281 C 73.273438 50.253906 72.644531 49.828125 72.203125 49.21875 C 72.015625 48.976562 71.867188 48.710938 71.765625 48.425781 L 71.703125 48.242188 Z M 75.785156 48.242188 L 75.785156 48.304688 C 75.679688 48.636719 75.507812 48.945312 75.28125 49.21875 L 75.28125 49.15625 C 74.78125 49.765625 74.152344 50.191406 74.027344 50.800781 C 73.902344 51.230469 73.964844 51.714844 74.214844 52.019531 C 74.402344 52.203125 74.65625 52.324219 74.84375 52.324219 C 75.28125 52.324219 75.660156 51.960938 75.785156 51.472656 C 75.824219 51.625 75.886719 51.769531 75.972656 51.898438 C 76.101562 52.203125 76.351562 52.386719 76.664062 52.386719 L 76.351562 49.21875 C 76.164062 48.976562 76.015625 48.710938 75.910156 48.425781 L 75.847656 48.242188 Z M 67.554688 48.425781 L 65.605469 50.800781 C 65.480469 51.230469 65.605469 51.714844 65.859375 52.019531 C 66.046875 52.203125 66.234375 52.324219 66.488281 52.324219 C 66.925781 52.324219 67.304688 51.960938 67.367188 51.472656 C 67.417969 51.648438 67.5 51.816406 67.617188 51.960938 C 67.742188 52.203125 67.996094 52.386719 68.246094 52.386719 C 68.496094 52.386719 68.683594 52.265625 68.875 52.082031 C 69.203125 51.761719 69.324219 51.292969 69.1875 50.863281 C 69.0625 50.253906 68.433594 49.828125 67.996094 49.21875 C 67.804688 48.976562 67.660156 48.710938 67.554688 48.425781 Z M 65.230469 52.933594 C 64.976562 52.933594 64.726562 53.054688 64.601562 53.238281 C 64.28125 53.5625 64.140625 54.015625 64.222656 54.457031 C 64.414062 55.066406 65.042969 55.492188 65.480469 56.101562 L 65.921875 56.894531 L 65.984375 57.078125 L 66.046875 57.078125 L 66.046875 57.015625 C 66.160156 56.707031 66.332031 56.417969 66.550781 56.164062 L 66.550781 56.101562 C 67.050781 55.492188 67.679688 55.128906 67.804688 54.519531 C 67.929688 54.09375 67.867188 53.605469 67.617188 53.300781 C 67.429688 53.117188 67.175781 52.996094 66.988281 52.996094 C 66.550781 52.996094 66.171875 53.359375 66.046875 53.847656 C 66.015625 53.675781 65.953125 53.511719 65.859375 53.359375 C 65.734375 53.117188 65.480469 52.933594 65.230469 52.933594 Z M 69.441406 52.933594 C 69.1875 52.933594 68.9375 53.054688 68.8125 53.238281 C 68.492188 53.5625 68.351562 54.015625 68.433594 54.457031 C 68.621094 55.066406 69.25 55.492188 69.691406 56.101562 L 70.128906 56.894531 L 70.195312 57.078125 L 70.257812 57.078125 L 70.257812 57.015625 C 70.371094 56.707031 70.542969 56.417969 70.757812 56.164062 L 70.757812 56.101562 C 71.261719 55.492188 71.890625 55.128906 72.015625 54.519531 C 72.140625 54.09375 72.078125 53.605469 71.828125 53.300781 C 71.640625 53.117188 71.386719 52.996094 71.199219 52.996094 C 70.757812 52.996094 70.382812 53.359375 70.257812 53.847656 C 70.226562 53.675781 70.160156 53.511719 70.066406 53.359375 C 69.941406 53.117188 69.691406 52.933594 69.441406 52.933594 Z M 73.585938 52.933594 C 73.335938 52.933594 73.082031 53.054688 72.957031 53.238281 C 72.636719 53.5625 72.5 54.015625 72.582031 54.457031 C 72.769531 55.066406 73.398438 55.492188 73.835938 56.101562 L 74.277344 56.894531 L 74.339844 57.078125 L 74.402344 57.078125 L 74.402344 57.015625 C 74.519531 56.707031 74.6875 56.417969 74.90625 56.164062 L 74.90625 56.101562 C 75.410156 55.492188 76.035156 55.128906 76.164062 54.519531 C 76.289062 54.09375 76.226562 53.605469 75.972656 53.300781 C 75.785156 53.117188 75.535156 52.996094 75.347656 52.996094 C 74.90625 52.996094 74.527344 53.359375 74.402344 53.847656 C 74.371094 53.675781 74.308594 53.511719 74.214844 53.359375 C 74.089844 53.117188 73.835938 52.933594 73.585938 52.933594 Z M 63.40625 53.300781 L 61.335938 56.101562 L 61.773438 56.894531 L 61.835938 57.078125 L 61.898438 57.078125 L 61.898438 57.015625 C 62.015625 56.707031 62.183594 56.417969 62.402344 56.164062 L 62.402344 56.101562 C 62.90625 55.492188 63.535156 55.128906 63.660156 54.519531 C 63.785156 54.09375 63.722656 53.605469 63.40625 53.300781 Z M 63.660156 56.226562 L 63.660156 56.285156 C 63.550781 56.617188 63.382812 56.929688 63.15625 57.199219 C 62.652344 57.808594 62.023438 58.175781 61.898438 58.785156 C 61.773438 59.210938 61.835938 59.699219 62.089844 60.003906 C 62.277344 60.183594 62.527344 60.308594 62.714844 60.308594 C 63.15625 60.308594 63.535156 59.941406 63.660156 59.453125 C 63.691406 59.625 63.753906 59.792969 63.847656 59.941406 C 63.972656 60.183594 64.222656 60.367188 64.476562 60.367188 C 64.726562 60.367188 64.976562 60.246094 65.105469 60.125 C 65.480469 59.757812 65.480469 59.269531 65.480469 58.90625 C 65.292969 58.234375 64.664062 57.808594 64.222656 57.199219 C 64.042969 56.976562 63.894531 56.730469 63.785156 56.46875 L 63.722656 56.226562 Z M 67.867188 56.226562 L 67.867188 56.285156 C 67.761719 56.617188 67.589844 56.929688 67.367188 57.199219 C 66.863281 57.808594 66.234375 58.175781 66.109375 58.785156 C 65.984375 59.210938 66.046875 59.699219 66.296875 60.003906 C 66.488281 60.183594 66.738281 60.308594 66.925781 60.308594 C 67.367188 60.308594 67.742188 59.941406 67.867188 59.453125 C 67.898438 59.625 67.964844 59.792969 68.058594 59.941406 C 68.183594 60.183594 68.433594 60.367188 68.683594 60.367188 C 68.9375 60.367188 69.1875 60.246094 69.3125 60.125 C 69.691406 59.757812 69.691406 59.269531 69.691406 58.90625 C 69.503906 58.234375 68.875 57.808594 68.433594 57.199219 C 68.25 56.976562 68.105469 56.730469 67.996094 56.46875 L 67.929688 56.226562 Z M 72.015625 56.226562 L 72.015625 56.285156 C 71.90625 56.617188 71.738281 56.929688 71.511719 57.199219 C 71.011719 57.808594 70.382812 58.175781 70.257812 58.785156 C 70.128906 59.210938 70.195312 59.699219 70.445312 60.003906 C 70.632812 60.183594 70.882812 60.308594 71.074219 60.308594 C 71.511719 60.308594 71.890625 59.941406 72.015625 59.453125 C 72.046875 59.625 72.109375 59.792969 72.203125 59.941406 C 72.328125 60.183594 72.582031 60.367188 72.832031 60.367188 C 73.082031 60.367188 73.335938 60.246094 73.460938 60.125 C 73.835938 59.757812 73.835938 59.269531 73.835938 58.90625 C 73.648438 58.234375 73.019531 57.808594 72.582031 57.199219 C 72.398438 56.976562 72.25 56.730469 72.140625 56.46875 L 72.078125 56.226562 Z M 76.164062 56.226562 L 76.164062 56.285156 C 76.054688 56.617188 75.882812 56.929688 75.660156 57.199219 C 75.15625 57.808594 74.527344 58.175781 74.402344 58.785156 C 74.277344 59.210938 74.339844 59.699219 74.589844 60.003906 C 74.78125 60.183594 75.03125 60.308594 75.21875 60.308594 C 75.660156 60.308594 76.035156 59.941406 76.164062 59.453125 C 76.175781 59.621094 76.214844 59.789062 76.289062 59.941406 L 76.289062 56.46875 L 76.226562 56.226562 Z M 60.078125 57.199219 L 57.941406 60.003906 C 58.128906 60.183594 58.382812 60.308594 58.570312 60.308594 C 59.007812 60.308594 59.386719 60.003906 59.511719 59.453125 C 59.542969 59.625 59.605469 59.792969 59.699219 59.941406 C 59.828125 60.183594 60.078125 60.367188 60.390625 60.367188 C 60.644531 60.367188 60.832031 60.246094 61.019531 60.0625 C 61.335938 59.757812 61.335938 59.269531 61.335938 58.84375 C 61.144531 58.234375 60.515625 57.808594 60.078125 57.199219 Z M 56.558594 61.21875 C 56.308594 61.21875 56.054688 61.28125 55.929688 61.464844 C 55.609375 61.789062 55.472656 62.242188 55.554688 62.683594 C 55.742188 63.292969 56.371094 63.78125 56.808594 64.386719 L 57.878906 64.386719 C 58.382812 63.78125 59.007812 63.351562 59.136719 62.742188 C 59.261719 62.378906 59.199219 61.890625 58.945312 61.523438 C 58.757812 61.34375 58.507812 61.21875 58.316406 61.21875 C 57.878906 61.21875 57.5 61.585938 57.375 62.074219 C 57.339844 61.921875 57.273438 61.777344 57.1875 61.648438 C 57.0625 61.402344 56.808594 61.21875 56.558594 61.21875 Z M 60.707031 61.21875 C 60.453125 61.21875 60.203125 61.28125 60.078125 61.464844 C 59.757812 61.789062 59.617188 62.242188 59.699219 62.683594 C 59.890625 63.292969 60.515625 63.78125 60.957031 64.386719 L 62.023438 64.386719 C 62.527344 63.78125 63.15625 63.351562 63.28125 62.742188 C 63.40625 62.378906 63.34375 61.890625 63.09375 61.523438 C 62.90625 61.34375 62.652344 61.21875 62.464844 61.21875 C 62.023438 61.21875 61.648438 61.585938 61.523438 62.074219 C 61.484375 61.921875 61.421875 61.777344 61.335938 61.648438 C 61.207031 61.402344 60.957031 61.21875 60.707031 61.21875 Z M 64.789062 61.21875 C 64.539062 61.21875 64.351562 61.28125 64.160156 61.464844 C 63.863281 61.800781 63.75 62.25 63.847656 62.683594 C 64.035156 63.292969 64.664062 63.78125 65.105469 64.386719 L 67.429688 62.742188 C 67.554688 62.378906 67.492188 61.890625 67.242188 61.523438 C 67.050781 61.34375 66.800781 61.21875 66.613281 61.21875 C 66.171875 61.21875 65.796875 61.585938 65.667969 62.074219 C 65.632812 61.921875 65.566406 61.777344 65.480469 61.648438 C 65.355469 61.402344 65.105469 61.21875 64.789062 61.21875 Z M 69 61.21875 C 68.75 61.21875 68.558594 61.28125 68.371094 61.464844 C 68.074219 61.800781 67.957031 62.25 68.058594 62.683594 L 71.636719 62.742188 C 71.765625 62.378906 71.636719 61.890625 71.386719 61.523438 C 71.199219 61.34375 71.011719 61.21875 70.757812 61.21875 C 70.320312 61.21875 69.941406 61.585938 69.878906 62.074219 C 69.820312 61.917969 69.738281 61.773438 69.628906 61.648438 C 69.503906 61.402344 69.25 61.21875 69 61.21875 Z M 73.210938 61.21875 C 72.957031 61.21875 72.769531 61.28125 72.582031 61.464844 C 72.285156 61.800781 72.167969 62.25 72.265625 62.683594 L 74.078125 62.054688 C 74.019531 61.90625 73.941406 61.769531 73.835938 61.648438 C 73.710938 61.402344 73.460938 61.21875 73.210938 61.21875 Z M 74.078125 62.054688 C 74.082031 62.0625 74.085938 62.066406 74.089844 62.074219 L 74.089844 62.050781 L 74.078125 62.050781 Z M 74.09375 62.050781 L 75.597656 61.523438 C 75.410156 61.34375 75.21875 61.21875 74.96875 61.21875 C 74.535156 61.21875 74.164062 61.574219 74.089844 62.050781 Z M 74.09375 62.050781 "/>
</g>
</g>
<path style=" stroke:none;fill-rule:nonzero;fill:rgb(93.333334%,33.333334%,26.666668%);fill-opacity:1;" d="M 64.097656 39.652344 L 72.015625 41.238281 C 67.617188 48.121094 60.515625 57.136719 52.914062 64.207031 L 40.035156 65.667969 Z M 64.097656 39.652344 "/>
<path style=" stroke:none;fill-rule:nonzero;fill:rgb(21.960784%,25.098041%,27.843139%);fill-opacity:1;" d="M 59.199219 48.765625 L 54.484375 50.070312 L 54.109375 54.398438 L 49.269531 55.621094 L 48.328125 60.519531 L 44.304688 61.007812 L 64.097656 39.628906 L 64.976562 42.566406 L 59.953125 44.277344 Z M 59.199219 48.765625 "/>
<path style=" stroke:none;fill-rule:nonzero;fill:rgb(93.333334%,80.000001%,26.666668%);fill-opacity:1;" d="M 65.542969 11.628906 C 65.167969 11.628906 64.035156 13.152344 59.890625 9.496094 C 53.605469 4.863281 54.046875 9.191406 50.339844 9.070312 C 46.695312 8.886719 43.425781 5.414062 37.269531 7.484375 C 37.269531 7.484375 42.546875 4.863281 50.277344 7.789062 C 50.277344 7.789062 51.21875 7.851562 52.347656 6.570312 C 53.480469 5.292969 57.5625 6.203125 61.269531 9.191406 C 64.976562 12.175781 65.542969 11.628906 65.542969 11.628906 Z M 65.542969 11.628906 "/>
<path style=" stroke:none;fill-rule:nonzero;fill:rgb(21.960784%,25.098041%,27.843139%);fill-opacity:1;" d="M 67.679688 40.6875 C 67.175781 40.75 66.800781 41.113281 66.550781 41.480469 C 66.296875 42.089844 66.488281 42.820312 66.421875 43.675781 C 66.402344 43.964844 66.339844 44.253906 66.234375 44.527344 L 66.171875 44.769531 L 66.296875 44.769531 C 66.605469 44.574219 66.945312 44.429688 67.304688 44.34375 C 68.121094 44.160156 68.875 44.222656 69.441406 43.855469 C 69.816406 43.613281 70.066406 43.125 70.066406 42.636719 C 70.066406 42.394531 70.003906 42.210938 69.753906 42.027344 C 69.441406 41.785156 68.9375 41.847656 68.496094 42.152344 L 68.621094 41.664062 C 68.683594 41.359375 68.558594 41.054688 68.308594 40.871094 C 68.183594 40.6875 67.929688 40.6875 67.679688 40.6875 Z M 64.726562 44.039062 C 64.222656 44.101562 63.847656 44.40625 63.597656 44.832031 C 63.34375 45.441406 63.535156 46.171875 63.46875 46.964844 C 63.457031 47.277344 63.394531 47.585938 63.28125 47.878906 L 63.21875 48.121094 L 63.34375 48.121094 C 63.652344 47.921875 63.992188 47.777344 64.351562 47.695312 C 65.167969 47.511719 65.921875 47.574219 66.488281 47.207031 C 66.863281 46.902344 67.113281 46.476562 67.113281 45.988281 C 67.113281 45.746094 67.050781 45.5 66.863281 45.378906 C 66.488281 45.074219 65.984375 45.136719 65.480469 45.5 L 65.667969 45.015625 C 65.734375 44.648438 65.605469 44.40625 65.355469 44.222656 C 65.230469 44.039062 64.976562 44.039062 64.726562 44.039062 Z M 62.023438 47.367188 C 61.960938 47.367188 61.898438 47.371094 61.835938 47.390625 C 61.335938 47.453125 60.957031 47.757812 60.707031 48.183594 C 60.453125 48.792969 60.582031 49.523438 60.582031 50.316406 C 60.566406 50.628906 60.5 50.933594 60.390625 51.230469 L 60.328125 51.472656 L 60.453125 51.472656 C 60.761719 51.273438 61.101562 51.128906 61.460938 51.046875 C 62.277344 50.800781 63.09375 50.925781 63.597656 50.558594 C 63.972656 50.253906 64.222656 49.765625 64.222656 49.339844 C 64.222656 49.097656 64.160156 48.851562 63.910156 48.671875 C 63.597656 48.425781 63.09375 48.488281 62.652344 48.792969 L 62.78125 48.304688 C 62.84375 48 62.714844 47.695312 62.464844 47.511719 C 62.34375 47.410156 62.1875 47.359375 62.023438 47.367188 Z M 58.882812 50.679688 C 58.382812 50.742188 58.003906 51.105469 57.753906 51.472656 C 57.5 52.082031 57.628906 52.8125 57.628906 53.664062 C 57.613281 53.976562 57.550781 54.285156 57.4375 54.578125 L 57.375 54.761719 L 57.5 54.761719 C 57.804688 54.5625 58.148438 54.414062 58.507812 54.335938 C 59.324219 54.152344 60.078125 54.214844 60.644531 53.847656 C 61.019531 53.605469 61.269531 53.117188 61.269531 52.628906 C 61.269531 52.386719 61.207031 52.203125 60.957031 52.019531 C 60.644531 51.777344 60.140625 51.839844 59.699219 52.144531 L 59.828125 51.65625 C 59.890625 51.351562 59.761719 51.046875 59.511719 50.863281 C 59.386719 50.679688 59.136719 50.679688 58.882812 50.679688 Z M 55.992188 54.03125 C 55.492188 54.09375 55.113281 54.398438 54.863281 54.824219 C 54.609375 55.433594 54.800781 56.164062 54.738281 56.957031 C 54.722656 57.269531 54.65625 57.574219 54.546875 57.871094 L 54.484375 58.113281 L 54.609375 58.113281 C 54.917969 57.917969 55.257812 57.773438 55.617188 57.6875 C 56.433594 57.503906 57.25 57.566406 57.753906 57.199219 C 58.128906 56.894531 58.382812 56.46875 58.382812 55.980469 C 58.382812 55.738281 58.316406 55.492188 58.066406 55.371094 C 57.753906 55.066406 57.25 55.128906 56.808594 55.492188 L 56.9375 55.007812 C 57 54.640625 56.871094 54.398438 56.621094 54.214844 C 56.496094 54.03125 56.246094 54.03125 55.992188 54.03125 Z M 53.230469 57.359375 C 53.164062 57.359375 53.101562 57.371094 53.039062 57.382812 C 52.550781 57.449219 52.128906 57.746094 51.910156 58.175781 C 51.65625 58.785156 51.847656 59.515625 51.785156 60.308594 C 51.769531 60.617188 51.707031 60.925781 51.59375 61.21875 L 51.53125 61.464844 L 51.65625 61.464844 L 51.847656 61.34375 C 52.101562 61.203125 52.378906 61.101562 52.664062 61.039062 C 53.480469 60.792969 54.296875 60.914062 54.800781 60.550781 C 55.175781 60.246094 55.429688 59.757812 55.429688 59.332031 C 55.429688 59.089844 55.363281 58.84375 55.113281 58.722656 C 54.800781 58.417969 54.296875 58.480469 53.855469 58.84375 L 53.984375 58.296875 C 54.046875 57.992188 53.917969 57.6875 53.667969 57.503906 C 53.546875 57.402344 53.390625 57.351562 53.230469 57.359375 Z M 50.148438 60.671875 C 49.648438 60.734375 49.269531 61.097656 49.019531 61.464844 C 48.769531 62.074219 48.957031 62.804688 48.894531 63.65625 C 48.878906 63.96875 48.816406 64.277344 48.703125 64.570312 L 48.640625 64.753906 L 48.769531 64.753906 C 49.074219 64.554688 49.414062 64.410156 49.773438 64.328125 C 50.589844 64.144531 51.34375 64.207031 51.910156 63.839844 C 52.285156 63.597656 52.539062 63.109375 52.539062 62.621094 C 52.539062 62.378906 52.476562 62.195312 52.285156 62.011719 C 51.910156 61.769531 51.34375 61.828125 50.902344 62.132812 C 51.03125 61.953125 51.09375 61.828125 51.09375 61.648438 C 51.15625 61.34375 51.03125 61.039062 50.777344 60.855469 C 50.652344 60.671875 50.402344 60.671875 50.148438 60.671875 Z M 50.148438 60.671875 "/>
<path style=" stroke:none;fill-rule:nonzero;fill:rgb(93.333334%,86.666667%,86.666667%);fill-opacity:1;" d="M 43.113281 40.078125 C 42.863281 40.0625 42.621094 40.175781 42.484375 40.382812 C 42.234375 40.628906 42.234375 40.992188 42.109375 41.417969 C 42.042969 41.570312 41.964844 41.71875 41.855469 41.847656 L 41.855469 41.90625 L 41.917969 41.90625 C 42.082031 41.859375 42.253906 41.835938 42.421875 41.847656 L 42.421875 41.90625 C 42.863281 41.90625 43.175781 42.027344 43.488281 41.90625 C 43.679688 41.847656 43.867188 41.664062 43.929688 41.417969 C 43.964844 41.296875 43.945312 41.160156 43.867188 41.054688 C 43.742188 40.933594 43.488281 40.871094 43.238281 40.933594 C 43.363281 40.871094 43.363281 40.8125 43.363281 40.6875 C 43.433594 40.554688 43.433594 40.394531 43.363281 40.261719 C 43.308594 40.171875 43.21875 40.109375 43.113281 40.078125 Z M 44.339844 41.695312 C 44.28125 41.695312 44.230469 41.707031 44.179688 41.722656 C 43.960938 41.808594 43.804688 41.992188 43.742188 42.210938 C 43.679688 42.515625 43.804688 42.882812 43.804688 43.308594 C 43.828125 43.472656 43.828125 43.632812 43.804688 43.796875 L 43.804688 43.855469 L 43.867188 43.855469 C 44 43.753906 44.148438 43.667969 44.304688 43.613281 C 44.683594 43.429688 45.0625 43.371094 45.3125 43.125 C 45.4375 43.003906 45.5 42.761719 45.5 42.515625 C 45.484375 42.394531 45.417969 42.28125 45.3125 42.210938 C 45.125 42.089844 44.871094 42.152344 44.683594 42.394531 L 44.683594 42.089844 C 44.683594 41.96875 44.621094 41.785156 44.496094 41.722656 C 44.445312 41.707031 44.394531 41.695312 44.339844 41.695312 Z M 58.632812 42.578125 C 58.574219 42.527344 58.511719 42.484375 58.445312 42.457031 C 57.984375 42.308594 57.867188 42.523438 57.816406 42.761719 C 57.777344 42.949219 57.851562 43.203125 58.003906 43.371094 C 58.480469 43.882812 58.652344 43.648438 59.386719 44.101562 L 59.449219 44.101562 C 59.417969 43.917969 59.417969 43.734375 59.449219 43.550781 C 59.511719 43.066406 59.648438 42.761719 59.574219 42.457031 C 59.359375 41.578125 58.300781 41.929688 58.632812 42.578125 Z M 46.003906 42.710938 C 45.933594 42.710938 45.871094 42.730469 45.816406 42.761719 C 45.640625 42.894531 45.527344 43.089844 45.5 43.308594 C 45.4375 43.675781 45.625 43.980469 45.75 44.40625 L 45.816406 44.890625 L 45.816406 44.953125 L 45.878906 44.953125 C 45.976562 44.8125 46.109375 44.683594 46.253906 44.589844 C 46.570312 44.40625 46.945312 44.285156 47.132812 43.980469 C 47.257812 43.796875 47.257812 43.550781 47.257812 43.308594 C 47.214844 43.199219 47.121094 43.109375 47.007812 43.066406 C 46.820312 43.003906 46.570312 43.125 46.441406 43.371094 L 46.441406 43.066406 C 46.378906 42.882812 46.316406 42.761719 46.191406 42.761719 C 46.132812 42.726562 46.070312 42.710938 46.003906 42.710938 Z M 57.1875 42.941406 C 56.992188 42.992188 56.871094 43.246094 56.871094 43.550781 C 56.796875 43.382812 56.621094 43.035156 56.308594 43.125 C 55.84375 43.257812 55.824219 43.675781 55.992188 44.101562 C 56.125 44.429688 56.496094 44.589844 56.808594 44.832031 L 57.125 45.195312 L 57.125 45.257812 C 57.289062 44.507812 57.816406 44.089844 57.816406 43.675781 C 57.835938 43.289062 57.527344 42.851562 57.1875 42.941406 Z M 48.039062 43.503906 C 47.980469 43.507812 47.933594 43.527344 47.886719 43.550781 C 47.667969 43.6875 47.53125 43.910156 47.511719 44.160156 C 47.511719 44.464844 47.699219 44.832031 47.824219 45.195312 L 47.886719 45.683594 L 47.886719 45.804688 L 47.949219 45.804688 C 48.050781 45.667969 48.183594 45.539062 48.328125 45.441406 L 48.328125 45.378906 C 48.640625 45.195312 49.019531 45.136719 49.207031 44.769531 C 49.332031 44.648438 49.332031 44.34375 49.332031 44.160156 C 49.289062 44.050781 49.195312 43.960938 49.082031 43.917969 C 48.894531 43.796875 48.640625 43.917969 48.515625 44.160156 C 48.527344 44.082031 48.527344 44 48.515625 43.917969 C 48.453125 43.734375 48.390625 43.613281 48.265625 43.550781 C 48.195312 43.515625 48.121094 43.496094 48.039062 43.503906 Z M 55.175781 43.675781 C 54.988281 43.734375 54.863281 43.980469 54.863281 44.285156 C 54.820312 44.191406 54.753906 44.105469 54.675781 44.039062 C 54.546875 43.917969 54.421875 43.917969 54.296875 43.917969 C 54.183594 43.960938 54.089844 44.050781 54.046875 44.160156 C 53.945312 44.375 53.945312 44.617188 54.046875 44.832031 C 54.234375 45.136719 54.546875 45.257812 54.863281 45.5625 C 54.957031 45.652344 55.042969 45.757812 55.113281 45.867188 L 55.238281 45.988281 C 55.238281 45.78125 55.285156 45.574219 55.363281 45.378906 C 55.554688 45.015625 55.804688 44.710938 55.804688 44.40625 C 55.804688 44.160156 55.679688 43.917969 55.492188 43.796875 C 55.410156 43.710938 55.296875 43.660156 55.175781 43.675781 Z M 50.023438 44.039062 C 49.890625 44.046875 49.773438 44.113281 49.710938 44.222656 C 49.523438 44.40625 49.523438 44.648438 49.523438 44.890625 C 49.648438 45.195312 49.960938 45.441406 50.148438 45.746094 L 50.402344 46.171875 L 50.464844 46.292969 C 50.519531 46.117188 50.601562 45.953125 50.714844 45.804688 C 50.96875 45.441406 51.28125 45.195312 51.34375 44.832031 C 51.386719 44.617188 51.34375 44.398438 51.21875 44.222656 C 51.09375 44.101562 51.03125 44.039062 50.902344 44.039062 C 50.714844 44.039062 50.464844 44.285156 50.464844 44.527344 C 50.4375 44.441406 50.394531 44.355469 50.339844 44.285156 C 50.277344 44.160156 50.148438 44.039062 50.023438 44.039062 Z M 52.222656 44.160156 C 52.078125 44.179688 51.960938 44.269531 51.910156 44.40625 C 51.847656 44.527344 51.785156 44.832031 51.847656 45.015625 C 51.910156 45.378906 52.222656 45.5625 52.539062 45.867188 L 52.789062 46.292969 L 52.789062 46.414062 C 52.832031 46.195312 52.914062 45.988281 53.039062 45.804688 L 53.039062 45.867188 C 53.292969 45.5 53.605469 45.257812 53.605469 44.890625 C 53.667969 44.710938 53.605469 44.464844 53.417969 44.285156 C 53.335938 44.199219 53.222656 44.148438 53.101562 44.160156 C 52.914062 44.160156 52.726562 44.34375 52.726562 44.648438 C 52.699219 44.5625 52.65625 44.476562 52.601562 44.40625 C 52.476562 44.285156 52.347656 44.160156 52.222656 44.160156 Z M 38.402344 53.96875 C 38.402344 53.96875 47.386719 54.882812 51.972656 56.527344 L 53.542969 55.066406 C 53.542969 55.066406 41.792969 52.265625 38.589844 52.449219 Z M 38.402344 53.96875 "/>
<path style=" stroke:none;fill-rule:nonzero;fill:rgb(21.960784%,25.098041%,27.843139%);fill-opacity:1;" d="M 52.414062 55.554688 C 52.769531 55.894531 52.789062 55.835938 52.285156 55.980469 C 51.972656 56.042969 51.785156 56.226562 51.46875 56.226562 C 51.292969 56.207031 51.132812 56.117188 51.03125 55.980469 C 50.996094 55.902344 50.996094 55.816406 51.03125 55.738281 C 51.0625 55.652344 51.128906 55.585938 51.21875 55.554688 C 51.300781 55.535156 51.386719 55.535156 51.46875 55.554688 C 51.28125 55.433594 51.15625 55.25 51.21875 55.066406 C 51.25 54.980469 51.320312 54.914062 51.40625 54.882812 C 51.566406 54.816406 51.75 54.816406 51.910156 54.882812 Z M 50.777344 55.066406 L 51.03125 55.3125 L 51.03125 55.371094 L 51.09375 55.371094 L 51.03125 55.371094 L 50.652344 55.492188 C 50.339844 55.617188 50.148438 55.796875 49.835938 55.796875 C 49.660156 55.78125 49.5 55.691406 49.394531 55.554688 C 49.339844 55.460938 49.339844 55.34375 49.394531 55.25 C 49.429688 55.164062 49.496094 55.097656 49.585938 55.066406 C 49.667969 55.046875 49.753906 55.046875 49.835938 55.066406 C 49.648438 54.945312 49.523438 54.761719 49.585938 54.578125 C 49.617188 54.496094 49.683594 54.425781 49.773438 54.398438 C 49.929688 54.320312 50.117188 54.320312 50.277344 54.398438 Z M 49.082031 54.640625 C 49.15625 54.710938 49.242188 54.773438 49.332031 54.824219 L 49.394531 54.824219 L 49.394531 54.882812 L 49.019531 55.007812 C 48.703125 55.128906 48.515625 55.371094 48.265625 55.371094 C 48.078125 55.386719 47.894531 55.320312 47.761719 55.1875 C 47.695312 55.105469 47.675781 54.992188 47.714844 54.894531 C 47.753906 54.792969 47.84375 54.722656 47.949219 54.703125 C 48.011719 54.691406 48.078125 54.691406 48.140625 54.703125 C 47.949219 54.578125 47.824219 54.398438 47.824219 54.273438 C 47.839844 54.167969 47.910156 54.074219 48.011719 54.03125 C 48.171875 53.957031 48.359375 53.957031 48.515625 54.03125 C 48.769531 54.152344 48.894531 54.398438 49.082031 54.640625 Z M 47.449219 54.335938 C 47.542969 54.414062 47.648438 54.472656 47.761719 54.519531 L 47.761719 54.578125 L 47.386719 54.703125 C 47.070312 54.824219 46.882812 55.066406 46.632812 55.066406 C 46.441406 55.089844 46.253906 55.023438 46.128906 54.882812 C 46.074219 54.816406 46.050781 54.726562 46.066406 54.640625 C 46.089844 54.535156 46.15625 54.449219 46.253906 54.398438 C 46.332031 54.359375 46.417969 54.335938 46.503906 54.335938 C 46.316406 54.273438 46.191406 54.09375 46.191406 53.910156 C 46.222656 53.824219 46.292969 53.757812 46.378906 53.726562 C 46.539062 53.660156 46.722656 53.660156 46.882812 53.726562 C 47.132812 53.789062 47.257812 54.09375 47.449219 54.335938 Z M 45.75 53.96875 C 45.828125 54.042969 45.910156 54.101562 46.003906 54.152344 L 46.066406 54.152344 L 46.066406 54.214844 L 45.6875 54.398438 C 45.4375 54.519531 45.1875 54.761719 44.933594 54.761719 C 44.746094 54.785156 44.558594 54.71875 44.433594 54.578125 C 44.398438 54.503906 44.398438 54.414062 44.433594 54.335938 C 44.445312 54.226562 44.519531 54.136719 44.621094 54.09375 C 44.683594 54.082031 44.746094 54.082031 44.808594 54.09375 C 44.558594 53.96875 44.433594 53.789062 44.496094 53.664062 C 44.496094 53.566406 44.527344 53.453125 44.621094 53.421875 C 45.148438 53.265625 45.414062 53.605469 45.75 53.96875 Z M 44.054688 53.726562 C 44.128906 53.796875 44.214844 53.859375 44.304688 53.910156 L 44.371094 53.910156 C 44.371094 53.910156 44.433594 53.96875 44.371094 53.96875 C 44.179688 53.96875 44.117188 54.09375 43.992188 54.152344 L 43.238281 54.519531 C 43.050781 54.535156 42.867188 54.464844 42.734375 54.335938 C 42.699219 54.257812 42.699219 54.171875 42.734375 54.09375 C 42.734375 53.996094 42.78125 53.90625 42.863281 53.847656 C 42.9375 53.808594 43.023438 53.785156 43.113281 53.789062 C 42.863281 53.726562 42.734375 53.542969 42.796875 53.421875 C 42.796875 53.328125 42.84375 53.234375 42.925781 53.179688 C 43.472656 53.042969 43.714844 53.332031 44.054688 53.726562 Z M 42.359375 53.421875 C 42.46875 53.523438 42.597656 53.605469 42.734375 53.664062 L 42.671875 53.664062 L 42.296875 53.847656 C 42.042969 54.03125 41.855469 54.214844 41.605469 54.273438 C 41.417969 54.300781 41.226562 54.230469 41.101562 54.09375 C 41.023438 54.035156 40.976562 53.945312 40.976562 53.847656 C 41.011719 53.730469 41.105469 53.640625 41.226562 53.605469 C 41.289062 53.59375 41.355469 53.59375 41.417969 53.605469 C 41.226562 53.484375 41.039062 53.359375 41.101562 53.179688 C 41.101562 53.082031 41.132812 52.964844 41.226562 52.933594 C 41.742188 52.777344 42.007812 53.074219 42.359375 53.421875 Z M 40.664062 53.238281 C 40.738281 53.3125 40.820312 53.371094 40.914062 53.421875 L 40.976562 53.421875 L 40.976562 53.484375 L 40.597656 53.605469 C 40.285156 53.789062 40.097656 53.96875 39.84375 54.03125 C 39.65625 54.046875 39.472656 53.980469 39.34375 53.847656 C 39.308594 53.769531 39.308594 53.683594 39.34375 53.605469 C 39.34375 53.507812 39.390625 53.417969 39.46875 53.359375 C 39.546875 53.324219 39.632812 53.300781 39.71875 53.300781 C 39.46875 53.238281 39.34375 53.054688 39.40625 52.875 C 39.425781 52.800781 39.457031 52.710938 39.53125 52.691406 C 40.078125 52.539062 40.324219 52.84375 40.664062 53.238281 Z M 38.964844 52.933594 L 39.21875 53.179688 L 39.28125 53.179688 C 39.28125 53.179688 39.34375 53.179688 39.28125 53.179688 L 39.28125 53.238281 L 38.902344 53.359375 C 38.589844 53.542969 38.402344 53.726562 38.148438 53.726562 C 37.4375 53.789062 37.46875 52.917969 38.023438 53.054688 C 37.3125 52.714844 37.867188 52.253906 38.335938 52.386719 C 38.695312 52.558594 38.820312 52.792969 38.964844 52.933594 Z M 38.964844 52.933594 "/>
<path style=" stroke:none;fill-rule:nonzero;fill:rgb(93.333334%,33.333334%,26.666668%);fill-opacity:1;" d="M 38.777344 40.507812 C 38.777344 40.507812 39.15625 52.019531 38.589844 53.542969 C 38.148438 54.945312 32.179688 64.875 31.175781 66.644531 L 13.644531 68.59375 C 13.644531 68.59375 29.917969 44.832031 34.378906 41.664062 C 34.378906 41.664062 36.136719 40.566406 38.777344 40.507812 Z M 38.777344 40.507812 "/>
<path style=" stroke:none;fill-rule:nonzero;fill:rgb(21.960784%,25.098041%,27.843139%);fill-opacity:1;" d="M 27.027344 44.34375 L 24.515625 44.34375 L 24.515625 66.277344 L 27.027344 66.277344 Z M 27.027344 44.34375 "/>
<path style=" stroke:none;fill-rule:nonzero;fill:rgb(93.333334%,86.666667%,86.666667%);fill-opacity:1;" d="M 35.574219 52.691406 C 35.574219 52.996094 35.699219 53.292969 35.921875 53.507812 C 36.144531 53.726562 36.449219 53.847656 36.765625 53.847656 C 37.082031 53.847656 37.386719 53.726562 37.609375 53.507812 C 37.835938 53.292969 37.960938 52.996094 37.960938 52.691406 C 37.960938 52.382812 37.835938 52.089844 37.609375 51.871094 C 37.386719 51.65625 37.082031 51.535156 36.765625 51.535156 C 36.449219 51.535156 36.144531 51.65625 35.921875 51.871094 C 35.699219 52.089844 35.574219 52.382812 35.574219 52.691406 Z M 35.574219 52.691406 "/>
<path style=" stroke:none;fill-rule:nonzero;fill:rgb(21.960784%,25.098041%,27.843139%);fill-opacity:1;" d="M 72.015625 41.238281 L 73.773438 41.722656 L 55.300781 63.960938 L 52.789062 64.265625 Z M 66.550781 40.140625 L 67.429688 40.324219 L 44.496094 65.179688 L 42.609375 65.363281 Z M 34.378906 41.664062 C 34.378906 41.664062 35.007812 51.410156 34.628906 52.691406 C 31.707031 57.636719 28.628906 62.492188 25.394531 67.253906 L 24.703125 67.253906 L 33.875 52.449219 C 33.875 52.449219 34.128906 48.730469 33.6875 42.210938 Z M 34.378906 41.664062 "/>
<path style=" stroke:none;fill-rule:nonzero;fill:rgb(93.333334%,86.666667%,86.666667%);fill-opacity:1;" d="M 38.902344 15.160156 C 38.640625 12.757812 38.113281 10.386719 37.332031 8.09375 C 37.835938 8.09375 38.273438 8.398438 38.589844 8.824219 C 38.726562 9.09375 38.8125 9.382812 38.839844 9.675781 C 39.089844 8.765625 39.71875 8.15625 40.472656 8.15625 C 40.914062 8.15625 41.226562 8.398438 41.542969 8.703125 C 42.027344 9.308594 42.1875 10.097656 41.980469 10.835938 C 41.667969 11.933594 40.597656 12.664062 39.71875 13.699219 C 39.410156 14.066406 39.15625 14.476562 38.964844 14.917969 Z M 56.183594 12.296875 C 55.992188 12.480469 55.804688 12.722656 55.679688 13.027344 L 55.554688 13.273438 L 55.554688 13.332031 C 55.429688 13.332031 55.429688 13.152344 55.363281 13.089844 C 55.242188 12.78125 55.074219 12.496094 54.863281 12.238281 C 54.296875 11.503906 53.605469 11.019531 53.417969 10.347656 C 53.292969 9.859375 53.417969 9.3125 53.792969 9.007812 C 53.964844 8.800781 54.214844 8.667969 54.484375 8.640625 C 54.863281 8.640625 55.113281 8.824219 55.363281 9.128906 L 55.617188 9.675781 C 55.742188 9.070312 56.183594 8.703125 56.683594 8.703125 C 57 8.703125 57.25 8.824219 57.4375 9.007812 C 57.753906 9.375 57.878906 9.921875 57.753906 10.410156 C 57.5625 11.078125 56.808594 11.566406 56.183594 12.238281 Z M 56.183594 12.296875 "/>
<path style=" stroke:none;fill-rule:nonzero;fill:rgb(71.372551%,72.156864%,72.941178%);fill-opacity:1;" d="M 27.65625 37.640625 L 23.886719 37.640625 L 23.886719 44.953125 L 27.65625 44.953125 Z M 27.65625 37.640625 "/>
<path style=" stroke:none;fill-rule:nonzero;fill:rgb(61.960787%,62.7451%,63.921571%);fill-opacity:1;" d="M 31.175781 38.375 L 30.230469 36.121094 L 29.101562 37.15625 Z M 33.9375 32.707031 L 31.613281 31.855469 L 31.613281 33.378906 Z M 31.488281 27.101562 L 29.226562 28.136719 L 30.359375 29.234375 Z M 25.769531 24.789062 L 24.953125 27.101562 L 26.523438 27.101562 Z M 19.925781 27.347656 L 21.121094 29.476562 L 22.125 28.382812 Z M 17.855469 33.132812 L 20.242188 33.742188 L 20.117188 32.28125 Z M 20.746094 38.617188 L 22.878906 37.398438 L 21.625 36.425781 Z M 20.746094 38.617188 "/>
<path style=" stroke:none;fill-rule:nonzero;fill:rgb(80.392158%,81.176472%,81.568629%);fill-opacity:1;" d="M 19.800781 32.464844 C 19.800781 35.660156 22.472656 38.25 25.769531 38.25 C 29.066406 38.25 31.738281 35.660156 31.738281 32.464844 C 31.738281 29.265625 29.066406 26.675781 25.769531 26.675781 C 22.472656 26.675781 19.800781 29.265625 19.800781 32.464844 Z M 19.800781 32.464844 "/>
<path style=" stroke:none;fill-rule:nonzero;fill:rgb(61.960787%,62.7451%,63.921571%);fill-opacity:1;" d="M 25.078125 32.585938 C 25.078125 32.988281 25.417969 33.316406 25.832031 33.316406 C 26.25 33.316406 26.589844 32.988281 26.589844 32.585938 C 26.589844 32.183594 26.25 31.855469 25.832031 31.855469 C 25.417969 31.855469 25.078125 32.183594 25.078125 32.585938 Z M 25.078125 32.585938 "/>
<path style=" stroke:none;fill-rule:nonzero;fill:rgb(75.294119%,63.921571%,40.784314%);fill-opacity:1;" d="M 26.839844 58.785156 C 26.839844 58.722656 27.027344 58.785156 27.089844 58.90625 C 28.160156 60.125 30.296875 61.160156 31.613281 62.5625 C 32.585938 63.757812 33.46875 65.019531 34.253906 66.339844 L 21.058594 67.800781 C 20.554688 67.496094 19.992188 67.070312 20.117188 66.765625 C 20.554688 66.035156 23.195312 66.886719 24.703125 66.765625 L 20.683594 65.363281 C 20.429688 65.300781 19.109375 64.753906 19.171875 63.65625 C 19.171875 63.230469 21.058594 64.023438 21.058594 64.023438 L 25.769531 65.425781 L 21.5625 63.171875 C 21.058594 63.046875 19.300781 62.257812 19.800781 60.914062 C 19.925781 60.609375 22.691406 62.011719 22.691406 62.011719 L 26.460938 63.65625 C 26.460938 63.65625 23.132812 61.21875 22.691406 61.039062 C 22.316406 60.914062 21.246094 59.941406 21.183594 59.332031 C 21.058594 58.417969 23.699219 59.941406 23.699219 59.941406 L 28.285156 62.257812 L 27.089844 60.734375 C 25.898438 59.515625 26.839844 59.148438 26.839844 58.785156 Z M 26.839844 58.785156 "/>
<path style=" stroke:none;fill-rule:nonzero;fill:rgb(33.333334%,46.666667%,53.333336%);fill-opacity:1;" d="M 35.015625 91.730469 L 21.570312 84.722656 C 21.570312 84.722656 40.292969 69.492188 49.84375 64.3125 L 58.765625 63.335938 L 51.101562 89.476562 Z M 35.015625 91.730469 "/>
<path style=" stroke:none;fill-rule:nonzero;fill:rgb(75.294119%,63.921571%,40.784314%);fill-opacity:1;" d="M 38.910156 114.878906 L 51.101562 113.417969 L 50.597656 109.398438 L 52.984375 104.21875 L 50.847656 103.792969 L 51.101562 101.84375 L 49.65625 100.988281 L 50.15625 99.894531 C 50.15625 99.894531 48.460938 99.285156 49.402344 98.308594 C 50.347656 97.394531 51.164062 95.628906 46.703125 95.382812 C 44 95.261719 42.304688 94.042969 44.566406 90.265625 C 44.566406 90.632812 42.867188 85.941406 39.980469 85.757812 C 35.453125 85.515625 28.984375 89.535156 28.984375 89.535156 Z M 38.910156 114.878906 "/>
<path style=" stroke:none;fill-rule:nonzero;fill:rgb(60.784316%,33.333334%,26.274511%);fill-opacity:1;" d="M 49.464844 111.589844 C 49.464844 111.589844 49.71875 110.492188 48.460938 109.945312 C 47.832031 109.703125 47.707031 109.824219 46.703125 110.25 C 45.632812 110.675781 43.75 110.433594 43.433594 110.128906 C 43.121094 109.761719 44.0625 112.078125 47.582031 111.101562 C 49.78125 110.492188 49.464844 111.589844 49.464844 111.589844 Z M 49.464844 111.589844 "/>
<path style=" stroke:none;fill-rule:nonzero;fill:rgb(21.960784%,25.098041%,27.843139%);fill-opacity:1;" d="M 48.773438 109.152344 L 46.703125 109.214844 C 45.632812 109.335938 44.3125 109.214844 43.6875 108.605469 C 43.6875 108.605469 45.132812 109.03125 46.386719 108.667969 C 46.386719 108.667969 46.136719 107.449219 46.953125 107.449219 C 47.707031 107.324219 47.832031 108.667969 47.832031 108.667969 C 47.832031 108.667969 48.460938 108.667969 48.773438 109.152344 Z M 48.773438 109.152344 "/>
<path style=" stroke:none;fill-rule:nonzero;fill:rgb(60.784316%,33.333334%,26.274511%);fill-opacity:1;" d="M 40.355469 115.246094 C 40.355469 115.246094 40.605469 104.890625 41.675781 100.015625 C 41.675781 100.015625 45.570312 91.363281 25.148438 94.773438 C 25.148438 94.773438 23.578125 98.429688 27.347656 99.039062 C 27.347656 99.039062 25.652344 115.671875 28.730469 115.183594 Z M 40.355469 115.246094 "/>
<path style=" stroke:none;fill-rule:nonzero;fill:rgb(69.01961%,45.09804%,38.82353%);fill-opacity:1;" d="M 25.148438 94.773438 C 25.148438 94.773438 22.386719 100.988281 39.539062 99.34375 C 39.539062 99.34375 21.695312 102.085938 25.148438 94.773438 Z M 41.171875 117.136719 C 41.171875 117.136719 41.359375 104.890625 41.800781 99.464844 C 41.800781 99.464844 39.035156 110.980469 39.851562 117.074219 Z M 36.710938 117.4375 C 36.710938 117.4375 35.453125 110.066406 37.027344 100.808594 C 37.027344 100.808594 34.449219 109.640625 35.644531 117.378906 Z M 31.246094 118.109375 C 31.246094 118.109375 29.988281 110.738281 31.558594 101.476562 C 31.558594 101.476562 28.984375 110.3125 30.238281 118.046875 Z M 31.246094 118.109375 "/>
<path style=" stroke:none;fill-rule:nonzero;fill:rgb(69.01961%,45.09804%,38.82353%);fill-opacity:1;" d="M 35.265625 99.40625 C 35.265625 99.40625 30.429688 96.480469 34.828125 94.289062 C 34.828125 94.289062 31.558594 96.359375 35.265625 99.40625 Z M 30.492188 99.464844 C 30.492188 99.464844 25.652344 96.542969 30.050781 94.289062 C 30.050781 94.289062 26.785156 96.359375 30.492188 99.464844 Z M 30.492188 99.464844 "/>
<path style=" stroke:none;fill-rule:nonzero;fill:rgb(93.333334%,33.333334%,26.666668%);fill-opacity:1;" d="M 26.59375 114.269531 C 26.59375 114.269531 40.417969 115.183594 51.035156 114.820312 C 50.847656 117.683594 51.664062 119.570312 52.671875 122.496094 C 52.671875 122.496094 47.203125 124.75 44.3125 122.679688 C 44.3125 122.679688 40.921875 121.09375 38.972656 121.824219 C 36.960938 122.617188 35.832031 124.261719 32.878906 123.226562 C 29.925781 122.191406 26.910156 117.925781 24.394531 118.351562 Z M 26.59375 114.269531 "/>
<path style=" stroke:none;fill-rule:nonzero;fill:rgb(21.960784%,25.098041%,27.843139%);fill-opacity:1;" d="M 26.40625 113.480469 C 26.40625 113.480469 36.273438 115.003906 51.101562 113.417969 L 51.035156 114.820312 C 51.035156 114.820312 36.585938 116.832031 25.96875 115.125 Z M 26.40625 113.480469 "/>
<path style=" stroke:none;fill-rule:nonzero;fill:rgb(93.333334%,33.333334%,26.666668%);fill-opacity:1;" d="M 44.125 91.058594 L 51.164062 89.476562 C 51.164062 89.476562 50.28125 82.347656 39.726562 82.164062 C 29.171875 81.980469 22.132812 89.230469 22.132812 89.230469 L 29.234375 90.9375 C 29.234375 90.9375 34.261719 86.855469 39.414062 87.707031 C 44.566406 88.5625 44.125 91.058594 44.125 91.058594 Z M 44.125 91.058594 "/>
<path style=" stroke:none;fill-rule:nonzero;fill:rgb(93.333334%,80.000001%,26.666668%);fill-opacity:1;" d="M 26.03125 90.082031 L 17.234375 88.4375 C 17.234375 88.4375 13.652344 88.132812 13.652344 84.050781 L 13.652344 68.578125 L 18.050781 67.96875 L 34.636719 66.019531 Z M 26.03125 90.082031 "/>
<g clip-path="url(#clip3)" clip-rule="nonzero">
<g clip-path="url(#clip4)" clip-rule="nonzero">
<path style=" stroke:none;fill-rule:nonzero;fill:rgb(93.333334%,33.333334%,26.666668%);fill-opacity:1;" d="M 17.359375 88.988281 L 17.925781 86.734375 C 17.886719 86.582031 17.824219 86.4375 17.734375 86.304688 C 17.609375 86.0625 17.359375 85.878906 17.042969 85.878906 C 16.792969 85.878906 16.605469 85.941406 16.417969 86.125 C 16.101562 86.429688 16.101562 86.914062 16.101562 87.34375 C 16.289062 87.953125 16.917969 88.378906 17.359375 88.988281 Z M 15.347656 87.769531 C 15.429688 87.65625 15.492188 87.535156 15.535156 87.402344 C 15.601562 86.976562 15.535156 86.488281 15.285156 86.183594 C 15.097656 86 14.910156 85.878906 14.65625 85.878906 C 14.40625 85.878906 14.21875 86 14.027344 86.183594 C 14.320312 86.8125 14.777344 87.359375 15.347656 87.769531 Z M 16.730469 85.027344 C 16.980469 85.027344 17.234375 84.90625 17.359375 84.785156 C 17.679688 84.460938 17.820312 84.007812 17.734375 83.566406 C 17.546875 82.894531 16.917969 82.46875 16.480469 81.859375 L 16.039062 81.128906 L 15.976562 80.882812 L 15.914062 80.882812 L 15.914062 80.945312 C 15.804688 81.277344 15.636719 81.585938 15.410156 81.859375 C 14.910156 82.46875 14.28125 82.832031 14.15625 83.441406 C 14.027344 83.871094 14.089844 84.355469 14.34375 84.660156 C 14.53125 84.84375 14.78125 84.964844 14.972656 84.964844 C 15.410156 84.964844 15.789062 84.601562 15.914062 84.113281 C 15.945312 84.285156 16.007812 84.449219 16.101562 84.601562 C 16.226562 84.84375 16.480469 85.027344 16.730469 85.027344 Z M 19.179688 84.964844 L 21.945312 83.566406 C 21.757812 82.894531 21.128906 82.46875 20.6875 81.859375 L 20.25 81.128906 L 20.1875 80.882812 L 20.125 80.882812 L 20.125 80.945312 C 20.015625 81.277344 19.84375 81.585938 19.621094 81.859375 C 19.117188 82.46875 18.488281 82.832031 18.363281 83.441406 C 18.238281 83.871094 18.300781 84.355469 18.550781 84.660156 C 18.742188 84.84375 18.992188 84.964844 19.179688 84.964844 Z M 18.300781 81.738281 L 18.300781 81.675781 C 18.410156 81.34375 18.578125 81.035156 18.804688 80.761719 C 19.308594 80.152344 19.933594 79.789062 20.0625 79.179688 C 20.1875 78.75 20.125 78.265625 19.871094 77.960938 C 19.683594 77.777344 19.433594 77.65625 19.242188 77.65625 C 18.804688 77.65625 18.425781 78.019531 18.300781 78.507812 C 18.269531 78.335938 18.207031 78.171875 18.113281 78.019531 C 17.988281 77.777344 17.734375 77.59375 17.484375 77.59375 C 17.234375 77.59375 16.980469 77.714844 16.855469 77.898438 C 16.480469 78.203125 16.480469 78.691406 16.480469 79.117188 C 16.667969 79.726562 17.296875 80.152344 17.734375 80.761719 C 17.925781 81.003906 18.070312 81.269531 18.175781 81.554688 L 18.238281 81.738281 Z M 14.15625 81.738281 L 14.15625 81.675781 C 14.261719 81.34375 14.433594 81.035156 14.65625 80.761719 L 14.65625 80.824219 C 15.160156 80.214844 15.789062 79.789062 15.914062 79.179688 C 16.039062 78.75 15.976562 78.265625 15.726562 77.960938 C 15.535156 77.777344 15.285156 77.65625 15.097656 77.65625 C 14.65625 77.65625 14.28125 78.019531 14.15625 78.507812 C 14.117188 78.355469 14.054688 78.210938 13.964844 78.082031 C 13.839844 77.777344 13.589844 77.59375 13.273438 77.59375 L 13.589844 80.761719 C 13.777344 81.003906 13.925781 81.269531 14.027344 81.554688 L 14.089844 81.738281 Z M 22.386719 81.554688 L 24.332031 79.179688 C 24.460938 78.75 24.332031 78.265625 24.082031 77.960938 C 23.894531 77.777344 23.703125 77.65625 23.453125 77.65625 C 23.015625 77.65625 22.636719 78.019531 22.574219 78.507812 C 22.523438 78.332031 22.4375 78.164062 22.324219 78.019531 C 22.195312 77.777344 21.945312 77.59375 21.695312 77.59375 C 21.441406 77.59375 21.253906 77.714844 21.066406 77.898438 C 20.738281 78.21875 20.617188 78.6875 20.75 79.117188 C 20.878906 79.726562 21.507812 80.152344 21.945312 80.761719 C 22.132812 81.003906 22.28125 81.269531 22.386719 81.554688 Z M 24.710938 77.046875 C 24.960938 77.046875 25.214844 76.925781 25.339844 76.742188 C 25.65625 76.417969 25.796875 75.964844 25.714844 75.523438 C 25.527344 74.914062 24.898438 74.488281 24.460938 73.878906 L 24.019531 73.085938 L 23.957031 72.902344 L 23.894531 72.902344 L 23.894531 72.964844 C 23.777344 73.273438 23.609375 73.5625 23.390625 73.816406 L 23.390625 73.878906 C 22.886719 74.488281 22.261719 74.851562 22.132812 75.460938 C 22.007812 75.886719 22.070312 76.375 22.324219 76.679688 C 22.511719 76.863281 22.761719 76.984375 22.949219 76.984375 C 23.390625 76.984375 23.769531 76.621094 23.894531 76.132812 C 23.925781 76.304688 23.988281 76.46875 24.082031 76.621094 C 24.207031 76.863281 24.460938 77.046875 24.710938 77.046875 Z M 20.5 77.046875 C 20.75 77.046875 21.003906 76.925781 21.128906 76.742188 C 21.449219 76.417969 21.589844 75.964844 21.507812 75.523438 C 21.316406 74.914062 20.6875 74.488281 20.25 73.878906 L 19.808594 73.085938 L 19.746094 72.902344 L 19.683594 72.902344 L 19.683594 72.964844 C 19.570312 73.273438 19.398438 73.5625 19.179688 73.816406 L 19.179688 73.878906 C 18.679688 74.488281 18.050781 74.851562 17.925781 75.460938 C 17.800781 75.886719 17.863281 76.375 18.113281 76.679688 C 18.300781 76.863281 18.550781 76.984375 18.742188 76.984375 C 19.179688 76.984375 19.558594 76.621094 19.683594 76.132812 C 19.714844 76.304688 19.777344 76.46875 19.871094 76.621094 C 19.996094 76.863281 20.25 77.046875 20.5 77.046875 Z M 16.355469 77.046875 C 16.605469 77.046875 16.855469 76.925781 16.980469 76.742188 C 17.300781 76.417969 17.441406 75.964844 17.359375 75.523438 C 17.171875 74.914062 16.542969 74.488281 16.101562 73.878906 L 15.664062 73.085938 L 15.601562 72.902344 L 15.535156 72.902344 L 15.535156 72.964844 C 15.421875 73.273438 15.253906 73.5625 15.035156 73.816406 L 15.035156 73.878906 C 14.53125 74.488281 13.902344 74.851562 13.777344 75.460938 C 13.652344 75.886719 13.714844 76.375 13.964844 76.679688 C 14.15625 76.863281 14.40625 76.984375 14.59375 76.984375 C 15.035156 76.984375 15.410156 76.621094 15.535156 76.132812 C 15.566406 76.304688 15.632812 76.46875 15.726562 76.621094 C 15.851562 76.863281 16.101562 77.046875 16.355469 77.046875 Z M 26.53125 76.679688 L 28.605469 73.878906 L 28.167969 73.085938 L 28.101562 72.902344 L 28.039062 72.902344 L 28.039062 72.964844 C 27.925781 73.273438 27.753906 73.5625 27.539062 73.816406 L 27.539062 73.878906 C 27.035156 74.488281 26.40625 74.851562 26.28125 75.460938 C 26.15625 75.886719 26.21875 76.375 26.53125 76.679688 Z M 26.28125 73.757812 L 26.28125 73.695312 C 26.390625 73.363281 26.558594 73.054688 26.785156 72.78125 C 27.285156 72.171875 27.914062 71.804688 28.039062 71.195312 C 28.167969 70.769531 28.101562 70.285156 27.851562 69.980469 C 27.664062 69.796875 27.414062 69.675781 27.222656 69.675781 C 26.785156 69.675781 26.40625 70.039062 26.28125 70.527344 C 26.25 70.355469 26.1875 70.1875 26.09375 70.039062 C 25.96875 69.796875 25.714844 69.613281 25.464844 69.613281 C 25.214844 69.613281 24.960938 69.734375 24.835938 69.855469 C 24.460938 70.222656 24.460938 70.710938 24.460938 71.074219 C 24.648438 71.746094 25.277344 72.171875 25.714844 72.78125 C 25.898438 73.003906 26.046875 73.25 26.15625 73.511719 L 26.21875 73.757812 Z M 22.070312 73.757812 L 22.070312 73.695312 C 22.179688 73.363281 22.347656 73.054688 22.574219 72.78125 C 23.078125 72.171875 23.703125 71.804688 23.832031 71.195312 C 23.957031 70.769531 23.894531 70.285156 23.640625 69.980469 C 23.453125 69.796875 23.203125 69.675781 23.015625 69.675781 C 22.574219 69.675781 22.195312 70.039062 22.070312 70.527344 C 22.039062 70.355469 21.976562 70.1875 21.882812 70.039062 C 21.757812 69.796875 21.507812 69.613281 21.253906 69.613281 C 21.003906 69.613281 20.75 69.734375 20.625 69.855469 C 20.25 70.222656 20.25 70.710938 20.25 71.074219 C 20.4375 71.746094 21.066406 72.171875 21.507812 72.78125 C 21.6875 73.003906 21.835938 73.25 21.945312 73.511719 L 22.007812 73.757812 Z M 17.925781 73.757812 L 17.925781 73.695312 C 18.03125 73.363281 18.203125 73.054688 18.425781 72.78125 C 18.929688 72.171875 19.558594 71.804688 19.683594 71.195312 C 19.808594 70.769531 19.746094 70.285156 19.496094 69.980469 C 19.308594 69.796875 19.054688 69.675781 18.867188 69.675781 C 18.425781 69.675781 18.050781 70.039062 17.925781 70.527344 C 17.894531 70.355469 17.828125 70.1875 17.734375 70.039062 C 17.609375 69.796875 17.359375 69.613281 17.109375 69.613281 C 16.855469 69.613281 16.605469 69.734375 16.480469 69.855469 C 16.101562 70.222656 16.101562 70.710938 16.101562 71.074219 C 16.289062 71.746094 16.917969 72.171875 17.359375 72.78125 C 17.542969 73.003906 17.691406 73.25 17.800781 73.511719 L 17.863281 73.757812 Z M 13.777344 73.757812 L 13.777344 73.695312 C 13.886719 73.363281 14.054688 73.054688 14.28125 72.78125 C 14.78125 72.171875 15.410156 71.804688 15.535156 71.195312 C 15.664062 70.769531 15.601562 70.285156 15.347656 69.980469 C 15.160156 69.796875 14.910156 69.675781 14.71875 69.675781 C 14.28125 69.675781 13.902344 70.039062 13.777344 70.527344 C 13.765625 70.359375 13.722656 70.191406 13.652344 70.039062 L 13.652344 73.511719 L 13.714844 73.757812 Z M 29.863281 72.78125 L 32 69.980469 C 31.808594 69.796875 31.558594 69.675781 31.371094 69.675781 C 30.929688 69.675781 30.554688 69.980469 30.429688 70.527344 C 30.398438 70.355469 30.332031 70.1875 30.238281 70.039062 C 30.113281 69.796875 29.863281 69.613281 29.546875 69.613281 C 29.296875 69.613281 29.109375 69.734375 28.921875 69.917969 C 28.605469 70.222656 28.605469 70.710938 28.605469 71.136719 C 28.792969 71.746094 29.421875 72.171875 29.863281 72.78125 Z M 33.382812 68.761719 C 33.632812 68.761719 33.882812 68.699219 34.007812 68.515625 C 34.328125 68.191406 34.46875 67.738281 34.386719 67.296875 C 34.199219 66.6875 33.570312 66.203125 33.128906 65.59375 L 32.0625 65.59375 C 31.558594 66.203125 30.929688 66.628906 30.804688 67.238281 C 30.679688 67.601562 30.742188 68.089844 30.992188 68.457031 C 31.183594 68.636719 31.433594 68.761719 31.621094 68.761719 C 32.0625 68.761719 32.4375 68.394531 32.5625 67.90625 C 32.601562 68.058594 32.667969 68.203125 32.753906 68.332031 C 32.878906 68.578125 33.128906 68.761719 33.382812 68.761719 Z M 29.234375 68.761719 C 29.484375 68.761719 29.738281 68.699219 29.863281 68.515625 C 30.183594 68.191406 30.324219 67.738281 30.238281 67.296875 C 30.050781 66.6875 29.421875 66.203125 28.984375 65.59375 L 27.914062 65.59375 C 27.414062 66.203125 26.785156 66.628906 26.65625 67.238281 C 26.53125 67.601562 26.59375 68.089844 26.847656 68.457031 C 27.035156 68.636719 27.285156 68.761719 27.476562 68.761719 C 27.914062 68.761719 28.292969 68.394531 28.417969 67.90625 C 28.457031 68.058594 28.519531 68.203125 28.605469 68.332031 C 28.730469 68.578125 28.984375 68.761719 29.234375 68.761719 Z M 25.148438 68.761719 C 25.402344 68.761719 25.589844 68.699219 25.777344 68.515625 C 26.074219 68.179688 26.191406 67.730469 26.09375 67.296875 C 25.902344 66.6875 25.277344 66.203125 24.835938 65.59375 L 22.511719 67.238281 C 22.386719 67.601562 22.449219 68.089844 22.699219 68.457031 C 22.886719 68.636719 23.140625 68.761719 23.328125 68.761719 C 23.769531 68.761719 24.144531 68.394531 24.269531 67.90625 C 24.308594 68.058594 24.371094 68.203125 24.460938 68.332031 C 24.585938 68.578125 24.835938 68.761719 25.148438 68.761719 Z M 20.941406 68.761719 C 21.191406 68.761719 21.378906 68.699219 21.570312 68.515625 C 21.867188 68.179688 21.980469 67.730469 21.882812 67.296875 L 18.300781 67.238281 C 18.175781 67.601562 18.300781 68.089844 18.554688 68.457031 C 18.742188 68.636719 18.929688 68.761719 19.179688 68.761719 C 19.621094 68.761719 19.996094 68.394531 20.0625 67.90625 C 20.117188 68.0625 20.203125 68.207031 20.3125 68.332031 C 20.4375 68.578125 20.6875 68.761719 20.941406 68.761719 Z M 16.730469 68.761719 C 16.980469 68.761719 17.171875 68.699219 17.359375 68.515625 C 17.65625 68.179688 17.773438 67.730469 17.671875 67.296875 L 15.863281 67.925781 C 15.917969 68.074219 16 68.210938 16.101562 68.332031 C 16.226562 68.578125 16.480469 68.761719 16.730469 68.761719 Z M 15.863281 67.925781 C 15.855469 67.917969 15.855469 67.914062 15.851562 67.90625 L 15.851562 67.929688 L 15.863281 67.929688 Z M 15.84375 67.929688 L 14.34375 68.457031 C 14.53125 68.636719 14.71875 68.761719 14.972656 68.761719 C 15.40625 68.761719 15.777344 68.40625 15.851562 67.929688 Z M 15.84375 67.929688 "/>
</g>
</g>
<path style=" stroke:none;fill-rule:nonzero;fill:rgb(93.333334%,33.333334%,26.666668%);fill-opacity:1;" d="M 25.839844 90.328125 L 17.925781 88.742188 C 22.324219 81.859375 29.421875 72.84375 37.027344 65.773438 L 49.90625 64.3125 Z M 25.839844 90.328125 "/>
<path style=" stroke:none;fill-rule:nonzero;fill:rgb(21.960784%,25.098041%,27.843139%);fill-opacity:1;" d="M 30.742188 81.214844 L 35.453125 79.910156 L 35.832031 75.582031 L 40.667969 74.359375 L 41.613281 69.460938 L 45.632812 68.972656 L 25.839844 90.351562 L 24.960938 87.414062 L 29.988281 85.703125 Z M 30.742188 81.214844 "/>
<path style=" stroke:none;fill-rule:nonzero;fill:rgb(93.333334%,80.000001%,26.666668%);fill-opacity:1;" d="M 24.394531 118.351562 C 24.773438 118.351562 25.902344 116.832031 30.050781 120.484375 C 36.335938 125.117188 35.894531 120.789062 39.601562 120.914062 C 43.246094 121.09375 46.511719 124.566406 52.671875 122.496094 C 52.671875 122.496094 47.394531 125.117188 39.664062 122.191406 C 39.664062 122.191406 38.722656 122.128906 37.589844 123.410156 C 36.460938 124.691406 32.375 123.777344 28.667969 120.789062 C 24.960938 117.804688 24.394531 118.351562 24.394531 118.351562 Z M 24.394531 118.351562 "/>
<path style=" stroke:none;fill-rule:nonzero;fill:rgb(21.960784%,25.098041%,27.843139%);fill-opacity:1;" d="M 22.261719 89.292969 C 22.761719 89.230469 23.140625 88.867188 23.390625 88.5 C 23.640625 87.890625 23.453125 87.160156 23.515625 86.304688 C 23.539062 86.015625 23.601562 85.726562 23.703125 85.453125 L 23.769531 85.210938 L 23.640625 85.210938 C 23.335938 85.40625 22.996094 85.550781 22.636719 85.636719 C 21.820312 85.820312 21.066406 85.757812 20.5 86.125 C 20.125 86.367188 19.871094 86.855469 19.871094 87.34375 C 19.871094 87.585938 19.933594 87.769531 20.1875 87.953125 C 20.5 88.195312 21.003906 88.132812 21.441406 87.828125 L 21.316406 88.316406 C 21.253906 88.621094 21.378906 88.925781 21.632812 89.109375 C 21.757812 89.292969 22.007812 89.292969 22.261719 89.292969 Z M 25.214844 85.941406 C 25.714844 85.878906 26.09375 85.574219 26.34375 85.148438 C 26.59375 84.539062 26.40625 83.808594 26.46875 83.015625 C 26.484375 82.703125 26.546875 82.394531 26.65625 82.101562 L 26.722656 81.859375 L 26.59375 81.859375 C 26.289062 82.058594 25.949219 82.203125 25.589844 82.285156 C 24.773438 82.46875 24.019531 82.40625 23.453125 82.773438 C 23.078125 83.078125 22.824219 83.503906 22.824219 83.992188 C 22.824219 84.234375 22.886719 84.480469 23.078125 84.601562 C 23.453125 84.90625 23.957031 84.84375 24.460938 84.480469 L 24.269531 84.964844 C 24.207031 85.332031 24.332031 85.574219 24.585938 85.757812 C 24.710938 85.941406 24.960938 85.941406 25.214844 85.941406 Z M 27.914062 82.613281 C 27.976562 82.613281 28.039062 82.609375 28.101562 82.589844 C 28.605469 82.527344 28.984375 82.222656 29.234375 81.796875 C 29.484375 81.1875 29.359375 80.457031 29.359375 79.664062 C 29.375 79.355469 29.4375 79.046875 29.546875 78.75 L 29.609375 78.507812 L 29.484375 78.507812 C 29.179688 78.707031 28.839844 78.851562 28.480469 78.933594 C 27.664062 79.179688 26.847656 79.054688 26.34375 79.421875 C 25.96875 79.726562 25.714844 80.214844 25.714844 80.640625 C 25.714844 80.882812 25.777344 81.128906 26.03125 81.3125 C 26.34375 81.554688 26.847656 81.492188 27.285156 81.1875 L 27.160156 81.675781 C 27.097656 81.980469 27.222656 82.285156 27.476562 82.46875 C 27.597656 82.570312 27.753906 82.621094 27.914062 82.613281 Z M 31.054688 79.300781 C 31.558594 79.238281 31.9375 78.875 32.1875 78.507812 C 32.4375 77.898438 32.3125 77.167969 32.3125 76.316406 C 32.328125 76.003906 32.390625 75.695312 32.5 75.402344 L 32.5625 75.21875 L 32.4375 75.21875 C 32.132812 75.421875 31.792969 75.566406 31.433594 75.644531 C 30.617188 75.828125 29.863281 75.765625 29.296875 76.132812 C 28.921875 76.375 28.667969 76.863281 28.667969 77.351562 C 28.667969 77.59375 28.730469 77.777344 28.984375 77.960938 C 29.296875 78.203125 29.800781 78.140625 30.238281 77.839844 L 30.113281 78.324219 C 30.050781 78.628906 30.175781 78.933594 30.429688 79.117188 C 30.554688 79.300781 30.804688 79.300781 31.054688 79.300781 Z M 33.945312 75.949219 C 34.449219 75.886719 34.828125 75.582031 35.078125 75.15625 C 35.328125 74.546875 35.140625 73.816406 35.203125 73.023438 C 35.21875 72.710938 35.28125 72.40625 35.390625 72.109375 L 35.453125 71.867188 L 35.328125 71.867188 C 35.023438 72.0625 34.679688 72.207031 34.324219 72.292969 C 33.507812 72.476562 32.691406 72.414062 32.1875 72.78125 C 31.808594 73.085938 31.558594 73.511719 31.558594 74 C 31.558594 74.242188 31.621094 74.488281 31.875 74.609375 C 32.1875 74.914062 32.691406 74.851562 33.128906 74.488281 L 33.003906 74.972656 C 32.941406 75.339844 33.066406 75.582031 33.320312 75.765625 C 33.445312 75.949219 33.695312 75.949219 33.945312 75.949219 Z M 36.710938 72.621094 C 36.773438 72.621094 36.835938 72.609375 36.898438 72.597656 C 37.386719 72.53125 37.808594 72.234375 38.03125 71.804688 C 38.28125 71.195312 38.09375 70.464844 38.15625 69.675781 C 38.171875 69.363281 38.234375 69.054688 38.34375 68.761719 L 38.40625 68.515625 L 38.28125 68.515625 L 38.09375 68.636719 C 37.835938 68.777344 37.5625 68.878906 37.277344 68.941406 C 36.460938 69.1875 35.644531 69.066406 35.140625 69.429688 C 34.761719 69.734375 34.511719 70.222656 34.511719 70.648438 C 34.511719 70.890625 34.574219 71.136719 34.828125 71.257812 C 35.140625 71.5625 35.644531 71.5 36.082031 71.136719 L 35.957031 71.683594 C 35.894531 71.988281 36.019531 72.292969 36.273438 72.476562 C 36.394531 72.578125 36.550781 72.628906 36.710938 72.621094 Z M 39.789062 69.308594 C 40.292969 69.246094 40.667969 68.882812 40.921875 68.515625 C 41.171875 67.90625 40.984375 67.175781 41.046875 66.324219 C 41.0625 66.011719 41.125 65.703125 41.234375 65.410156 L 41.296875 65.226562 L 41.171875 65.226562 C 40.867188 65.425781 40.523438 65.570312 40.167969 65.652344 C 39.351562 65.835938 38.597656 65.773438 38.03125 66.140625 C 37.652344 66.382812 37.402344 66.871094 37.402344 67.359375 C 37.402344 67.601562 37.464844 67.785156 37.652344 67.96875 C 38.03125 68.210938 38.597656 68.152344 39.035156 67.847656 C 38.910156 68.027344 38.847656 68.152344 38.847656 68.332031 C 38.785156 68.636719 38.910156 68.941406 39.160156 69.125 C 39.289062 69.308594 39.539062 69.308594 39.789062 69.308594 Z M 39.789062 69.308594 "/>
<path style=" stroke:none;fill-rule:nonzero;fill:rgb(93.333334%,86.666667%,86.666667%);fill-opacity:1;" d="M 46.828125 89.902344 C 47.078125 89.917969 47.316406 89.804688 47.457031 89.597656 C 47.707031 89.351562 47.707031 88.988281 47.832031 88.5625 C 47.894531 88.410156 47.976562 88.261719 48.082031 88.132812 L 48.082031 88.074219 L 48.019531 88.074219 C 47.859375 88.121094 47.6875 88.148438 47.519531 88.132812 L 47.519531 88.074219 C 47.078125 88.074219 46.765625 87.953125 46.449219 88.074219 C 46.261719 88.132812 46.074219 88.316406 46.011719 88.5625 C 45.972656 88.6875 45.996094 88.820312 46.074219 88.925781 C 46.199219 89.046875 46.449219 89.109375 46.703125 89.046875 C 46.574219 89.109375 46.574219 89.171875 46.574219 89.292969 C 46.507812 89.425781 46.507812 89.585938 46.574219 89.71875 C 46.632812 89.808594 46.71875 89.871094 46.828125 89.902344 Z M 45.601562 88.285156 C 45.660156 88.285156 45.707031 88.273438 45.757812 88.257812 C 45.980469 88.171875 46.136719 87.988281 46.199219 87.769531 C 46.261719 87.464844 46.136719 87.097656 46.136719 86.671875 C 46.109375 86.507812 46.109375 86.347656 46.136719 86.183594 L 46.136719 86.125 L 46.074219 86.125 C 45.941406 86.226562 45.789062 86.3125 45.632812 86.367188 C 45.257812 86.550781 44.878906 86.609375 44.628906 86.855469 C 44.503906 86.976562 44.441406 87.21875 44.441406 87.464844 C 44.453125 87.585938 44.523438 87.699219 44.628906 87.769531 C 44.816406 87.890625 45.066406 87.828125 45.257812 87.585938 L 45.257812 87.890625 C 45.257812 88.011719 45.320312 88.195312 45.445312 88.257812 C 45.496094 88.273438 45.546875 88.285156 45.601562 88.285156 Z M 31.308594 87.402344 C 31.363281 87.453125 31.425781 87.496094 31.496094 87.523438 C 31.953125 87.671875 32.074219 87.457031 32.125 87.21875 C 32.164062 87.03125 32.085938 86.777344 31.9375 86.609375 C 31.457031 86.097656 31.289062 86.332031 30.554688 85.878906 L 30.492188 85.878906 C 30.523438 86.0625 30.523438 86.246094 30.492188 86.429688 C 30.429688 86.914062 30.289062 87.21875 30.367188 87.523438 C 30.578125 88.402344 31.640625 88.050781 31.308594 87.402344 Z M 43.9375 87.269531 C 44.007812 87.269531 44.070312 87.25 44.125 87.21875 C 44.300781 87.085938 44.414062 86.890625 44.441406 86.671875 C 44.503906 86.304688 44.3125 86 44.1875 85.574219 L 44.125 85.089844 L 44.125 85.027344 L 44.0625 85.027344 C 43.960938 85.167969 43.832031 85.296875 43.6875 85.394531 C 43.371094 85.574219 42.996094 85.699219 42.804688 86 C 42.679688 86.183594 42.679688 86.429688 42.679688 86.671875 C 42.722656 86.78125 42.820312 86.875 42.933594 86.914062 C 43.121094 86.976562 43.371094 86.855469 43.496094 86.609375 L 43.496094 86.914062 C 43.558594 87.097656 43.621094 87.21875 43.75 87.21875 C 43.804688 87.253906 43.871094 87.269531 43.9375 87.269531 Z M 32.753906 87.039062 C 32.949219 86.988281 33.066406 86.734375 33.066406 86.429688 C 33.140625 86.597656 33.320312 86.945312 33.632812 86.855469 C 34.097656 86.722656 34.117188 86.304688 33.945312 85.878906 C 33.816406 85.550781 33.445312 85.394531 33.128906 85.148438 L 32.816406 84.785156 L 32.816406 84.722656 C 32.652344 85.472656 32.125 85.890625 32.125 86.304688 C 32.105469 86.691406 32.414062 87.128906 32.753906 87.039062 Z M 41.902344 86.476562 C 41.957031 86.472656 42.007812 86.453125 42.050781 86.429688 C 42.273438 86.292969 42.410156 86.070312 42.429688 85.820312 C 42.429688 85.515625 42.242188 85.148438 42.113281 84.785156 L 42.050781 84.296875 L 42.050781 84.175781 L 41.988281 84.175781 C 41.890625 84.3125 41.757812 84.441406 41.613281 84.539062 L 41.613281 84.601562 C 41.296875 84.785156 40.921875 84.84375 40.734375 85.210938 C 40.605469 85.332031 40.605469 85.636719 40.605469 85.820312 C 40.652344 85.929688 40.746094 86.019531 40.859375 86.0625 C 41.046875 86.183594 41.296875 86.0625 41.421875 85.820312 C 41.410156 85.898438 41.410156 85.980469 41.421875 86.0625 C 41.488281 86.246094 41.550781 86.367188 41.675781 86.429688 C 41.742188 86.464844 41.820312 86.484375 41.902344 86.476562 Z M 34.761719 86.304688 C 34.953125 86.246094 35.078125 86 35.078125 85.699219 C 35.121094 85.789062 35.183594 85.875 35.265625 85.941406 C 35.390625 86.0625 35.515625 86.0625 35.644531 86.0625 C 35.757812 86.019531 35.851562 85.929688 35.894531 85.820312 C 35.996094 85.605469 35.996094 85.363281 35.894531 85.148438 C 35.707031 84.84375 35.390625 84.722656 35.078125 84.417969 C 34.984375 84.328125 34.894531 84.222656 34.828125 84.113281 L 34.699219 83.992188 C 34.699219 84.199219 34.65625 84.40625 34.574219 84.601562 C 34.386719 84.964844 34.136719 85.269531 34.136719 85.574219 C 34.136719 85.820312 34.261719 86.0625 34.449219 86.183594 C 34.53125 86.269531 34.644531 86.320312 34.761719 86.304688 Z M 39.914062 85.941406 C 40.046875 85.933594 40.167969 85.867188 40.230469 85.757812 C 40.417969 85.574219 40.417969 85.332031 40.417969 85.089844 C 40.292969 84.785156 39.980469 84.539062 39.789062 84.234375 L 39.539062 83.808594 L 39.476562 83.6875 C 39.417969 83.863281 39.335938 84.027344 39.226562 84.175781 C 38.972656 84.539062 38.660156 84.785156 38.597656 85.148438 C 38.550781 85.363281 38.597656 85.582031 38.722656 85.757812 C 38.847656 85.878906 38.910156 85.941406 39.035156 85.941406 C 39.226562 85.941406 39.476562 85.699219 39.476562 85.453125 C 39.5 85.539062 39.546875 85.625 39.601562 85.699219 C 39.664062 85.820312 39.789062 85.941406 39.914062 85.941406 Z M 37.714844 85.820312 C 37.859375 85.800781 37.980469 85.710938 38.03125 85.574219 C 38.09375 85.453125 38.15625 85.148438 38.09375 84.964844 C 38.03125 84.601562 37.714844 84.417969 37.402344 84.113281 L 37.152344 83.6875 L 37.152344 83.566406 C 37.105469 83.785156 37.027344 83.992188 36.898438 84.175781 L 36.898438 84.113281 C 36.648438 84.480469 36.335938 84.722656 36.335938 85.089844 C 36.273438 85.269531 36.335938 85.515625 36.523438 85.699219 C 36.605469 85.78125 36.71875 85.832031 36.835938 85.820312 C 37.027344 85.820312 37.214844 85.636719 37.214844 85.332031 C 37.238281 85.417969 37.28125 85.503906 37.339844 85.574219 C 37.464844 85.699219 37.589844 85.820312 37.714844 85.820312 Z M 51.539062 76.011719 C 51.539062 76.011719 42.554688 75.097656 37.96875 73.453125 L 36.398438 74.914062 C 36.398438 74.914062 48.148438 77.714844 51.351562 77.535156 Z M 51.539062 76.011719 "/>
<path style=" stroke:none;fill-rule:nonzero;fill:rgb(21.960784%,25.098041%,27.843139%);fill-opacity:1;" d="M 37.527344 74.425781 C 37.171875 74.085938 37.152344 74.144531 37.652344 74 C 37.96875 73.9375 38.15625 73.757812 38.46875 73.757812 C 38.644531 73.773438 38.804688 73.863281 38.910156 74 C 38.945312 74.078125 38.945312 74.164062 38.910156 74.242188 C 38.878906 74.328125 38.808594 74.394531 38.722656 74.425781 C 38.640625 74.445312 38.554688 74.445312 38.46875 74.425781 C 38.660156 74.546875 38.785156 74.730469 38.722656 74.914062 C 38.691406 75 38.621094 75.066406 38.535156 75.097656 C 38.375 75.164062 38.191406 75.164062 38.03125 75.097656 Z M 39.160156 74.914062 L 38.910156 74.667969 L 38.910156 74.609375 L 38.847656 74.609375 L 38.910156 74.609375 L 39.289062 74.488281 C 39.601562 74.363281 39.789062 74.183594 40.105469 74.183594 C 40.28125 74.199219 40.4375 74.289062 40.542969 74.425781 C 40.601562 74.519531 40.601562 74.636719 40.542969 74.730469 C 40.511719 74.816406 40.445312 74.882812 40.355469 74.914062 C 40.273438 74.933594 40.1875 74.933594 40.105469 74.914062 C 40.292969 75.035156 40.417969 75.21875 40.355469 75.402344 C 40.324219 75.484375 40.253906 75.554688 40.167969 75.582031 C 40.007812 75.660156 39.824219 75.660156 39.664062 75.582031 Z M 40.859375 75.339844 C 40.78125 75.269531 40.699219 75.207031 40.605469 75.15625 L 40.542969 75.15625 L 40.542969 75.097656 L 40.921875 74.972656 C 41.234375 74.851562 41.421875 74.609375 41.675781 74.609375 C 41.863281 74.59375 42.046875 74.660156 42.175781 74.792969 C 42.246094 74.875 42.261719 74.988281 42.226562 75.085938 C 42.1875 75.1875 42.097656 75.257812 41.988281 75.277344 C 41.925781 75.289062 41.863281 75.289062 41.800781 75.277344 C 41.988281 75.402344 42.113281 75.582031 42.113281 75.707031 C 42.101562 75.8125 42.03125 75.90625 41.925781 75.949219 C 41.769531 76.027344 41.582031 76.027344 41.421875 75.949219 C 41.171875 75.828125 41.046875 75.582031 40.859375 75.339844 Z M 42.492188 75.644531 C 42.398438 75.570312 42.292969 75.507812 42.179688 75.460938 L 42.179688 75.402344 L 42.554688 75.277344 C 42.867188 75.15625 43.058594 74.914062 43.308594 74.914062 C 43.496094 74.890625 43.6875 74.957031 43.8125 75.097656 C 43.867188 75.164062 43.890625 75.253906 43.875 75.339844 C 43.851562 75.445312 43.78125 75.53125 43.6875 75.582031 C 43.609375 75.621094 43.523438 75.644531 43.433594 75.644531 C 43.621094 75.707031 43.75 75.886719 43.75 76.070312 C 43.714844 76.15625 43.648438 76.222656 43.558594 76.253906 C 43.398438 76.320312 43.21875 76.320312 43.058594 76.253906 C 42.804688 76.191406 42.679688 75.886719 42.492188 75.644531 Z M 44.1875 76.011719 C 44.113281 75.9375 44.027344 75.878906 43.9375 75.828125 L 43.875 75.828125 L 43.875 75.765625 L 44.25 75.582031 C 44.503906 75.460938 44.753906 75.21875 45.003906 75.21875 C 45.195312 75.195312 45.382812 75.261719 45.507812 75.402344 C 45.542969 75.480469 45.542969 75.566406 45.507812 75.644531 C 45.496094 75.753906 45.421875 75.84375 45.320312 75.886719 C 45.257812 75.898438 45.191406 75.898438 45.128906 75.886719 C 45.382812 76.011719 45.507812 76.191406 45.445312 76.316406 C 45.445312 76.414062 45.414062 76.527344 45.320312 76.558594 C 44.792969 76.71875 44.527344 76.375 44.1875 76.011719 Z M 45.886719 76.253906 C 45.808594 76.183594 45.726562 76.121094 45.632812 76.070312 L 45.570312 76.070312 C 45.570312 76.070312 45.507812 76.011719 45.570312 76.011719 C 45.757812 76.011719 45.820312 75.886719 45.949219 75.828125 L 46.703125 75.460938 C 46.890625 75.445312 47.074219 75.515625 47.203125 75.644531 C 47.238281 75.722656 47.238281 75.8125 47.203125 75.886719 C 47.203125 75.984375 47.15625 76.074219 47.078125 76.132812 C 47 76.171875 46.914062 76.195312 46.828125 76.191406 C 47.078125 76.253906 47.203125 76.4375 47.140625 76.558594 C 47.140625 76.65625 47.09375 76.746094 47.015625 76.800781 C 46.46875 76.9375 46.222656 76.648438 45.886719 76.253906 Z M 47.582031 76.558594 C 47.472656 76.457031 47.34375 76.375 47.203125 76.316406 L 47.265625 76.316406 L 47.644531 76.132812 C 47.894531 75.949219 48.082031 75.765625 48.335938 75.707031 C 48.523438 75.679688 48.710938 75.75 48.839844 75.886719 C 48.917969 75.945312 48.964844 76.035156 48.964844 76.132812 C 48.925781 76.25 48.832031 76.339844 48.710938 76.375 C 48.648438 76.386719 48.585938 76.386719 48.523438 76.375 C 48.710938 76.496094 48.902344 76.621094 48.839844 76.800781 C 48.839844 76.898438 48.804688 77.015625 48.710938 77.046875 C 48.195312 77.203125 47.933594 76.90625 47.582031 76.558594 Z M 49.277344 76.742188 C 49.203125 76.667969 49.117188 76.609375 49.027344 76.558594 L 48.964844 76.558594 L 48.964844 76.496094 L 49.339844 76.375 C 49.65625 76.191406 49.84375 76.011719 50.09375 75.949219 C 50.28125 75.933594 50.464844 76 50.597656 76.132812 C 50.632812 76.210938 50.632812 76.296875 50.597656 76.375 C 50.597656 76.472656 50.550781 76.5625 50.472656 76.621094 C 50.394531 76.660156 50.308594 76.679688 50.21875 76.679688 C 50.472656 76.742188 50.597656 76.925781 50.535156 77.105469 C 50.515625 77.179688 50.484375 77.269531 50.410156 77.289062 C 49.863281 77.441406 49.617188 77.136719 49.277344 76.742188 Z M 50.972656 77.046875 L 50.722656 76.800781 L 50.660156 76.800781 C 50.660156 76.800781 50.597656 76.800781 50.660156 76.800781 L 50.660156 76.742188 L 51.035156 76.621094 C 51.351562 76.4375 51.539062 76.253906 51.792969 76.253906 C 52.5 76.191406 52.46875 77.0625 51.917969 76.925781 C 52.625 77.265625 52.074219 77.726562 51.601562 77.59375 C 51.246094 77.421875 51.117188 77.1875 50.972656 77.046875 Z M 50.972656 77.046875 "/>
<path style=" stroke:none;fill-rule:nonzero;fill:rgb(93.333334%,33.333334%,26.666668%);fill-opacity:1;" d="M 51.164062 89.476562 C 51.164062 89.476562 50.785156 77.960938 51.351562 76.4375 C 51.792969 75.035156 57.761719 65.105469 58.765625 63.335938 L 76.296875 61.386719 C 76.296875 61.386719 60.023438 85.148438 55.5625 88.316406 C 55.5625 88.316406 53.800781 89.414062 51.164062 89.476562 Z M 51.164062 89.476562 "/>
<path style=" stroke:none;fill-rule:nonzero;fill:rgb(21.960784%,25.098041%,27.843139%);fill-opacity:1;" d="M 62.914062 85.636719 L 65.425781 85.636719 L 65.425781 63.703125 L 62.914062 63.703125 Z M 62.914062 85.636719 "/>
<path style=" stroke:none;fill-rule:nonzero;fill:rgb(93.333334%,86.666667%,86.666667%);fill-opacity:1;" d="M 54.367188 77.289062 C 54.367188 76.984375 54.242188 76.6875 54.015625 76.472656 C 53.792969 76.253906 53.488281 76.132812 53.171875 76.132812 C 52.855469 76.132812 52.554688 76.253906 52.328125 76.472656 C 52.105469 76.6875 51.980469 76.984375 51.980469 77.289062 C 51.980469 77.597656 52.105469 77.890625 52.328125 78.109375 C 52.554688 78.324219 52.855469 78.445312 53.171875 78.445312 C 53.488281 78.445312 53.792969 78.324219 54.015625 78.109375 C 54.242188 77.890625 54.367188 77.597656 54.367188 77.289062 Z M 54.367188 77.289062 "/>
<path style=" stroke:none;fill-rule:nonzero;fill:rgb(21.960784%,25.098041%,27.843139%);fill-opacity:1;" d="M 17.925781 88.742188 L 16.164062 88.257812 L 34.636719 66.019531 L 37.152344 65.714844 Z M 23.390625 89.839844 L 22.511719 89.65625 L 45.445312 64.800781 L 47.328125 64.617188 Z M 55.5625 88.316406 C 55.5625 88.316406 54.933594 78.570312 55.308594 77.289062 C 58.230469 72.34375 61.3125 67.488281 64.546875 62.726562 L 65.238281 62.726562 L 56.0625 77.535156 C 56.0625 77.535156 55.8125 81.25 56.253906 87.769531 Z M 55.5625 88.316406 "/>
<path style=" stroke:none;fill-rule:nonzero;fill:rgb(93.333334%,86.666667%,86.666667%);fill-opacity:1;" d="M 51.035156 114.820312 C 51.296875 117.222656 51.824219 119.59375 52.609375 121.886719 C 52.105469 121.886719 51.664062 121.582031 51.351562 121.15625 C 51.214844 120.890625 51.128906 120.601562 51.101562 120.304688 C 50.847656 121.214844 50.21875 121.824219 49.464844 121.824219 C 49.027344 121.824219 48.710938 121.582031 48.398438 121.277344 C 47.914062 120.671875 47.75 119.882812 47.957031 119.144531 C 48.273438 118.046875 49.339844 117.316406 50.21875 116.28125 C 50.53125 115.914062 50.785156 115.503906 50.972656 115.0625 Z M 33.757812 117.683594 C 33.945312 117.5 34.136719 117.257812 34.261719 116.953125 L 34.386719 116.707031 L 34.386719 116.648438 C 34.511719 116.648438 34.511719 116.832031 34.574219 116.890625 C 34.695312 117.199219 34.867188 117.484375 35.078125 117.742188 C 35.644531 118.476562 36.335938 118.960938 36.523438 119.632812 C 36.648438 120.121094 36.523438 120.667969 36.144531 120.972656 C 35.976562 121.179688 35.726562 121.3125 35.453125 121.339844 C 35.078125 121.339844 34.828125 121.15625 34.574219 120.851562 L 34.324219 120.304688 C 34.199219 120.914062 33.757812 121.277344 33.253906 121.277344 C 32.941406 121.277344 32.691406 121.15625 32.5 120.972656 C 32.1875 120.609375 32.0625 120.058594 32.1875 119.570312 C 32.375 118.902344 33.128906 118.414062 33.757812 117.742188 Z M 33.757812 117.683594 "/>
<path style=" stroke:none;fill-rule:nonzero;fill:rgb(71.372551%,72.156864%,72.941178%);fill-opacity:1;" d="M 62.285156 92.339844 L 66.054688 92.339844 L 66.054688 85.027344 L 62.285156 85.027344 Z M 62.285156 92.339844 "/>
<path style=" stroke:none;fill-rule:nonzero;fill:rgb(61.960787%,62.7451%,63.921571%);fill-opacity:1;" d="M 58.765625 91.605469 L 59.707031 93.859375 L 60.839844 92.824219 Z M 56 97.273438 L 58.324219 98.125 L 58.324219 96.601562 Z M 58.453125 102.878906 L 60.714844 101.84375 L 59.582031 100.746094 Z M 64.167969 105.195312 L 64.984375 102.878906 L 63.414062 102.878906 Z M 70.011719 102.632812 L 68.820312 100.503906 L 67.8125 101.597656 Z M 72.085938 96.847656 L 69.699219 96.238281 L 69.824219 97.699219 Z M 69.195312 91.363281 L 67.058594 92.582031 L 68.316406 93.558594 Z M 69.195312 91.363281 "/>
<path style=" stroke:none;fill-rule:nonzero;fill:rgb(80.392158%,81.176472%,81.568629%);fill-opacity:1;" d="M 70.136719 97.515625 C 70.136719 94.320312 67.464844 91.730469 64.167969 91.730469 C 60.871094 91.730469 58.199219 94.320312 58.199219 97.515625 C 58.199219 100.714844 60.871094 103.304688 64.167969 103.304688 C 67.464844 103.304688 70.136719 100.714844 70.136719 97.515625 Z M 70.136719 97.515625 "/>
<path style=" stroke:none;fill-rule:nonzero;fill:rgb(61.960787%,62.7451%,63.921571%);fill-opacity:1;" d="M 64.859375 97.394531 C 64.859375 96.992188 64.523438 96.664062 64.105469 96.664062 C 63.691406 96.664062 63.351562 96.992188 63.351562 97.394531 C 63.351562 97.796875 63.691406 98.125 64.105469 98.125 C 64.523438 98.125 64.859375 97.796875 64.859375 97.394531 Z M 64.859375 97.394531 "/>
<path style=" stroke:none;fill-rule:nonzero;fill:rgb(75.294119%,63.921571%,40.784314%);fill-opacity:1;" d="M 63.101562 71.195312 C 63.101562 71.257812 62.914062 71.195312 62.847656 71.074219 C 61.78125 69.855469 59.644531 68.820312 58.324219 67.417969 C 57.355469 66.222656 56.472656 64.960938 55.6875 63.640625 L 68.882812 62.179688 C 69.382812 62.484375 69.949219 62.910156 69.824219 63.214844 C 69.382812 63.945312 66.746094 63.09375 65.238281 63.214844 L 69.257812 64.617188 C 69.507812 64.679688 70.828125 65.226562 70.765625 66.324219 C 70.765625 66.75 68.882812 65.957031 68.882812 65.957031 L 64.167969 64.554688 L 68.378906 66.808594 C 68.882812 66.933594 70.640625 67.722656 70.136719 69.066406 C 70.011719 69.371094 67.246094 67.96875 67.246094 67.96875 L 63.476562 66.324219 C 63.476562 66.324219 66.808594 68.761719 67.246094 68.941406 C 67.625 69.066406 68.691406 70.039062 68.753906 70.648438 C 68.882812 71.5625 66.242188 70.039062 66.242188 70.039062 L 61.65625 67.722656 L 62.847656 69.246094 C 64.042969 70.464844 63.101562 70.832031 63.101562 71.195312 Z M 63.101562 71.195312 "/>
<path style=" stroke:none;fill-rule:nonzero;fill:rgb(93.333334%,33.333334%,26.666668%);fill-opacity:1;" d="M 5.640625 22.269531 C 4.332031 22.269531 3.480469 23.371094 3.480469 24.824219 C 3.480469 26.304688 4.476562 27.59375 5.414062 28.671875 C 6.351562 29.746094 7.203125 30.875 7.773438 31.953125 C 8.339844 30.875 9.136719 29.71875 10.105469 28.644531 C 11.070312 27.566406 12.039062 26.304688 12.039062 24.824219 C 12.039062 23.371094 11.183594 22.269531 9.875 22.269531 C 8.910156 22.269531 8.058594 23.074219 7.773438 24.152344 C 7.488281 23.074219 6.636719 22.269531 5.613281 22.269531 Z M 5.640625 22.269531 "/>
<path style=" stroke:none;fill-rule:nonzero;fill:rgb(100%,100%,100%);fill-opacity:1;" d="M 86.277344 125.785156 L 77.710938 125.785156 L 77.710938 95.695312 L 86.277344 95.695312 Z M 86.277344 125.785156 "/>
<path style=" stroke:none;fill-rule:nonzero;fill:rgb(93.333334%,33.333334%,26.666668%);fill-opacity:1;" d="M 84.359375 107.730469 C 85.667969 107.730469 86.519531 106.628906 86.519531 105.175781 C 86.519531 103.695312 85.523438 102.40625 84.585938 101.328125 C 83.648438 100.253906 82.796875 99.125 82.226562 98.046875 C 81.660156 99.125 80.863281 100.28125 79.894531 101.355469 C 78.929688 102.433594 77.960938 103.695312 77.960938 105.175781 C 77.960938 106.628906 78.816406 107.730469 80.125 107.730469 C 81.089844 107.730469 81.941406 106.925781 82.226562 105.847656 C 82.511719 106.925781 83.363281 107.730469 84.386719 107.730469 Z M 84.359375 107.730469 "/>
<path style="fill-rule:nonzero;fill:rgb(93.333334%,33.333334%,26.666668%);fill-opacity:1;stroke-width:0.5;stroke-linecap:butt;stroke-linejoin:round;stroke:rgb(93.333334%,33.333334%,26.666668%);stroke-opacity:1;stroke-miterlimit:4;" d="M 1462.00163 -90.699244 L 1462.00163 -91.802609 L 1468.597117 -91.802609 L 1468.597117 -90.699244 C 1467.539825 -90.712225 1466.998593 -90.381215 1466.998593 -89.401167 L 1466.998593 -76.102368 C 1466.998593 -72.961021 1466.041995 -69.001886 1461.202368 -69.001886 C 1458.33887 -69.001886 1456.350154 -71.09179 1456.400501 -73.402367 C 1456.400501 -75.180733 1457.558488 -76.082897 1458.697594 -76.102368 C 1460.107316 -76.128329 1461.000979 -74.752368 1461.000979 -73.700925 C 1461.000979 -73.201166 1460.79959 -72.701406 1460.598201 -72.500204 C 1460.119903 -71.799242 1459.477976 -71.701887 1458.697594 -71.59804 C 1459.119252 -70.669915 1459.937394 -70.377848 1460.900285 -70.202608 C 1463.549808 -70.202608 1463.700849 -73.772319 1463.700849 -74.603089 L 1463.700849 -89.401167 C 1463.700849 -90.498042 1462.901587 -90.699244 1462.00163 -90.699244 Z M 1462.00163 -90.699244 " transform="matrix(0.62069,0,0,0.601852,-899.999997,60.18516)"/>
<path style="fill-rule:nonzero;fill:rgb(93.333334%,33.333334%,26.666668%);fill-opacity:1;stroke-width:0.5;stroke-linecap:butt;stroke-linejoin:round;stroke:rgb(93.333334%,33.333334%,26.666668%);stroke-opacity:1;stroke-miterlimit:4;" d="M 1462.001398 -90.699329 L 1462.001398 -91.802695 L 1468.596885 -91.802695 L 1468.596885 -90.699329 C 1467.539593 -90.71231 1466.99836 -90.381301 1466.99836 -89.401252 L 1466.99836 -76.102453 C 1466.99836 -72.961107 1466.041763 -69.001972 1461.202136 -69.001972 C 1458.338638 -69.001972 1456.349922 -71.091876 1456.400269 -73.402453 C 1456.400269 -75.180819 1457.558256 -76.082982 1458.697362 -76.102453 C 1460.107084 -76.128415 1461.000747 -74.752453 1461.000747 -73.701011 C 1461.000747 -73.201251 1460.799358 -72.701492 1460.597969 -72.50029 C 1460.119671 -71.799328 1459.477744 -71.701972 1458.697362 -71.598126 C 1459.11902 -70.670001 1459.937162 -70.377934 1460.900053 -70.202693 C 1463.549575 -70.202693 1463.700617 -73.772405 1463.700617 -74.603174 L 1463.700617 -89.401252 C 1463.700617 -90.498128 1462.901355 -90.699329 1462.001398 -90.699329 Z M 1462.001398 -90.699329 " transform="matrix(-0.62069,0.000000000000000074,-0.000000000000000076,-0.601852,989.999853,69.814789)"/>
</g>
</svg>
