<?xml version="1.0" encoding="UTF-8"?>
<svg xmlns="http://www.w3.org/2000/svg" xmlns:xlink="http://www.w3.org/1999/xlink" width="90px" height="130px" viewBox="0 0 90 130" version="1.1">
<g id="surface1">
<path style="fill-rule:nonzero;fill:rgb(100%,100%,100%);fill-opacity:1;stroke-width:3;stroke-linecap:butt;stroke-linejoin:miter;stroke:rgb(21.960784%,25.098041%,27.843139%);stroke-opacity:1;stroke-miterlimit:4;" d="M 9.50304 1.499313 L 135.496974 1.499313 C 139.921236 1.499313 143.502183 5.082006 143.502183 9.501958 L 143.502183 206.498128 C 143.502183 210.91808 139.921236 214.500772 135.496974 214.500772 L 9.50304 214.500772 C 5.078778 214.500772 1.497831 210.91808 1.497831 206.498128 L 1.497831 9.501958 C 1.497831 5.082006 5.078778 1.499313 9.50304 1.499313 Z M 9.50304 1.499313 " transform="matrix(0.62069,0,0,0.601852,-0.000000802713,-0.0000206087)"/>
<path style=" stroke:none;fill-rule:nonzero;fill:rgb(93.333334%,33.333334%,26.666668%);fill-opacity:1;" d="M 40.40625 55.371094 C 37.550781 55.371094 35.691406 57.839844 35.691406 61.089844 C 35.691406 64.398438 37.863281 67.285156 39.910156 69.695312 C 41.957031 72.101562 43.820312 74.628906 45.0625 77.035156 C 46.304688 74.628906 48.042969 72.042969 50.152344 69.632812 C 52.261719 67.226562 54.371094 64.398438 54.371094 61.089844 C 54.371094 57.839844 52.511719 55.371094 49.65625 55.371094 C 47.542969 55.371094 45.683594 57.175781 45.0625 59.582031 C 44.441406 57.175781 42.578125 55.371094 40.34375 55.371094 Z M 40.40625 55.371094 "/>
<path style=" stroke:none;fill-rule:nonzero;fill:rgb(93.333334%,33.333334%,26.666668%);fill-opacity:1;" d="M 40.40625 9.027344 C 37.550781 9.027344 35.691406 11.496094 35.691406 14.746094 C 35.691406 18.054688 37.863281 20.945312 39.910156 23.351562 C 41.957031 25.757812 43.820312 28.285156 45.0625 30.695312 C 46.304688 28.285156 48.042969 25.699219 50.152344 23.292969 C 52.261719 20.882812 54.371094 18.054688 54.371094 14.746094 C 54.371094 11.496094 52.511719 9.027344 49.65625 9.027344 C 47.542969 9.027344 45.683594 10.832031 45.0625 13.242188 C 44.441406 10.832031 42.578125 9.027344 40.34375 9.027344 Z M 40.40625 9.027344 "/>
<path style=" stroke:none;fill-rule:nonzero;fill:rgb(93.333334%,33.333334%,26.666668%);fill-opacity:1;" d="M 40.40625 120.371094 C 37.550781 120.371094 35.691406 117.902344 35.691406 114.652344 C 35.691406 111.34375 37.863281 108.453125 39.910156 106.046875 C 41.957031 103.640625 43.820312 101.109375 45.0625 98.703125 C 46.304688 101.109375 48.042969 103.699219 50.152344 106.105469 C 52.261719 108.515625 54.371094 111.34375 54.371094 114.652344 C 54.371094 117.902344 52.511719 120.371094 49.65625 120.371094 C 47.542969 120.371094 45.683594 118.566406 45.0625 116.15625 C 44.441406 118.566406 42.578125 120.371094 40.34375 120.371094 Z M 40.40625 120.371094 "/>
<path style=" stroke:none;fill-rule:nonzero;fill:rgb(93.333334%,33.333334%,26.666668%);fill-opacity:1;" d="M 5.703125 22.269531 C 4.394531 22.269531 3.542969 23.371094 3.542969 24.824219 C 3.542969 26.304688 4.539062 27.59375 5.476562 28.671875 C 6.414062 29.746094 7.265625 30.875 7.835938 31.953125 C 8.402344 30.875 9.199219 29.71875 10.167969 28.644531 C 11.132812 27.566406 12.097656 26.304688 12.097656 24.824219 C 12.097656 23.371094 11.246094 22.269531 9.9375 22.269531 C 8.972656 22.269531 8.121094 23.074219 7.835938 24.152344 C 7.550781 23.074219 6.699219 22.269531 5.675781 22.269531 Z M 5.703125 22.269531 "/>
<path style=" stroke:none;fill-rule:nonzero;fill:rgb(93.333334%,33.333334%,26.666668%);fill-opacity:1;" d="M 84.296875 107.730469 C 85.605469 107.730469 86.457031 106.628906 86.457031 105.175781 C 86.457031 103.695312 85.460938 102.40625 84.523438 101.328125 C 83.585938 100.253906 82.734375 99.125 82.164062 98.046875 C 81.597656 99.125 80.800781 100.28125 79.832031 101.355469 C 78.867188 102.433594 77.902344 103.695312 77.902344 105.175781 C 77.902344 106.628906 78.753906 107.730469 80.0625 107.730469 C 81.027344 107.730469 81.878906 106.925781 82.164062 105.847656 C 82.449219 106.925781 83.300781 107.730469 84.324219 107.730469 Z M 84.296875 107.730469 "/>
<path style="fill-rule:nonzero;fill:rgb(93.333334%,33.333334%,26.666668%);fill-opacity:1;stroke-width:0.5;stroke-linecap:butt;stroke-linejoin:round;stroke:rgb(93.333334%,33.333334%,26.666668%);stroke-opacity:1;stroke-miterlimit:4;" d="M 302.001521 -90.498042 C 300.742841 -90.498042 299.880644 -89.647801 299.597441 -89.102609 C 300.151261 -88.888426 301.397355 -88.10309 301.397355 -86.798522 C 301.397355 -85.721118 300.579212 -84.702128 299.200957 -84.702128 C 297.898222 -84.702128 296.998266 -85.857417 296.998266 -87.298282 C 296.998266 -89.920398 299.18837 -91.899965 302.398006 -91.899965 C 306.721574 -91.899965 307.89844 -88.881936 307.89844 -86.59732 C 307.89844 -85.260301 307.508249 -83.001647 305.097876 -81.69708 C 305.978952 -81.229772 308.502607 -79.587705 308.502607 -76.199723 C 308.502607 -72.578089 307.149525 -69.203088 302.102216 -69.203088 C 298.722658 -69.203088 296.702476 -71.4228 296.702476 -73.798281 C 296.702476 -75.148281 297.703127 -76.400925 298.999568 -76.400925 C 300.201608 -76.400925 301.202259 -75.440348 301.202259 -74.298041 C 301.202259 -73.356935 300.239368 -72.448281 299.301651 -72.0978 C 299.830297 -71.169675 300.698787 -70.702367 301.900827 -70.702367 C 304.172745 -70.702367 305.299265 -72.402848 305.299265 -75.79732 C 305.299265 -78.867272 304.330081 -80.399003 302.398006 -80.399003 L 301.598744 -81.599724 C 303.68186 -82.566791 304.997181 -84.57232 304.997181 -86.59732 C 304.997181 -89.530975 303.530818 -90.498042 302.001521 -90.498042 Z M 302.001521 -90.498042 " transform="matrix(0.62069,0,0,0.601852,-179.999987,60.18516)"/>
<path style="fill-rule:nonzero;fill:rgb(93.333334%,33.333334%,26.666668%);fill-opacity:1;stroke-width:0.5;stroke-linecap:butt;stroke-linejoin:round;stroke:rgb(93.333334%,33.333334%,26.666668%);stroke-opacity:1;stroke-miterlimit:4;" d="M 302.001507 -90.498128 C 300.742827 -90.498128 299.88063 -89.647887 299.597427 -89.102695 C 300.151247 -88.888512 301.397341 -88.103175 301.397341 -86.798608 C 301.397341 -85.721204 300.579198 -84.702214 299.200943 -84.702214 C 297.898208 -84.702214 296.998252 -85.857502 296.998252 -87.298368 C 296.998252 -89.920483 299.188356 -91.900051 302.397992 -91.900051 C 306.72156 -91.900051 307.898426 -88.882022 307.898426 -86.597406 C 307.898426 -85.260387 307.508235 -83.001733 305.097862 -81.697165 C 305.978938 -81.229858 308.502593 -79.58779 308.502593 -76.199809 C 308.502593 -72.578174 307.149511 -69.203174 302.102202 -69.203174 C 298.722644 -69.203174 296.702462 -71.422886 296.702462 -73.798367 C 296.702462 -75.148367 297.703113 -76.401011 298.999554 -76.401011 C 300.201594 -76.401011 301.202245 -75.440434 301.202245 -74.298126 C 301.202245 -73.35702 300.239354 -72.448366 299.301637 -72.097886 C 299.830283 -71.169761 300.698773 -70.702453 301.900813 -70.702453 C 304.172731 -70.702453 305.299251 -72.402934 305.299251 -75.797405 C 305.299251 -78.867357 304.330066 -80.399088 302.397992 -80.399088 L 301.598729 -81.59981 C 303.681846 -82.566877 304.997167 -84.572406 304.997167 -86.597406 C 304.997167 -89.53106 303.530804 -90.498128 302.001507 -90.498128 Z M 302.001507 -90.498128 " transform="matrix(-0.62069,0.000000000000000074,-0.000000000000000076,-0.601852,269.999978,69.814789)"/>
</g>
</svg>
