<?xml version="1.0" encoding="UTF-8"?>
<svg xmlns="http://www.w3.org/2000/svg" xmlns:xlink="http://www.w3.org/1999/xlink" width="90px" height="130px" viewBox="0 0 90 130" version="1.1">
<g id="surface1">
<path style="fill-rule:nonzero;fill:rgb(100%,100%,100%);fill-opacity:1;stroke-width:3;stroke-linecap:butt;stroke-linejoin:miter;stroke:rgb(21.960784%,25.098041%,27.843139%);stroke-opacity:1;stroke-miterlimit:4;" d="M 9.503034 1.499313 L 135.496968 1.499313 C 139.92123 1.499313 143.502177 5.082006 143.502177 9.501958 L 143.502177 206.498128 C 143.502177 210.91808 139.92123 214.500772 135.496968 214.500772 L 9.503034 214.500772 C 5.078772 214.500772 1.497825 210.91808 1.497825 206.498128 L 1.497825 9.501958 C 1.497825 5.082006 5.078772 1.499313 9.503034 1.499313 Z M 9.503034 1.499313 " transform="matrix(0.62069,0,0,0.601852,0.00000290271,-0.0000206087)"/>
<path style=" stroke:none;fill-rule:nonzero;fill:rgb(93.333334%,33.333334%,26.666668%);fill-opacity:1;" d="M 22.40625 55.371094 C 19.550781 55.371094 17.691406 57.839844 17.691406 61.089844 C 17.691406 64.398438 19.863281 67.285156 21.910156 69.695312 C 23.957031 72.101562 25.820312 74.628906 27.0625 77.035156 C 28.304688 74.628906 30.042969 72.042969 32.152344 69.632812 C 34.261719 67.226562 36.371094 64.398438 36.371094 61.089844 C 36.371094 57.839844 34.511719 55.371094 31.65625 55.371094 C 29.542969 55.371094 27.683594 57.175781 27.0625 59.582031 C 26.441406 57.175781 24.578125 55.371094 22.34375 55.371094 Z M 22.40625 55.371094 "/>
<path style=" stroke:none;fill-rule:nonzero;fill:rgb(93.333334%,33.333334%,26.666668%);fill-opacity:1;" d="M 22.40625 9.027344 C 19.550781 9.027344 17.691406 11.496094 17.691406 14.746094 C 17.691406 18.054688 19.863281 20.945312 21.910156 23.351562 C 23.957031 25.757812 25.820312 28.285156 27.0625 30.695312 C 28.304688 28.285156 30.042969 25.699219 32.152344 23.292969 C 34.261719 20.882812 36.371094 18.054688 36.371094 14.746094 C 36.371094 11.496094 34.511719 9.027344 31.65625 9.027344 C 29.542969 9.027344 27.683594 10.832031 27.0625 13.242188 C 26.441406 10.832031 24.578125 9.027344 22.34375 9.027344 Z M 22.40625 9.027344 "/>
<path style=" stroke:none;fill-rule:nonzero;fill:rgb(93.333334%,33.333334%,26.666668%);fill-opacity:1;" d="M 22.40625 120.371094 C 19.550781 120.371094 17.691406 117.902344 17.691406 114.652344 C 17.691406 111.34375 19.863281 108.453125 21.910156 106.046875 C 23.957031 103.640625 25.820312 101.109375 27.0625 98.703125 C 28.304688 101.109375 30.042969 103.699219 32.152344 106.105469 C 34.261719 108.515625 36.371094 111.34375 36.371094 114.652344 C 36.371094 117.902344 34.511719 120.371094 31.65625 120.371094 C 29.542969 120.371094 27.683594 118.566406 27.0625 116.15625 C 26.441406 118.566406 24.578125 120.371094 22.34375 120.371094 Z M 22.40625 120.371094 "/>
<path style=" stroke:none;fill-rule:nonzero;fill:rgb(93.333334%,33.333334%,26.666668%);fill-opacity:1;" d="M 58.40625 74.628906 C 55.550781 74.628906 53.691406 72.160156 53.691406 68.910156 C 53.691406 65.601562 55.863281 62.714844 57.910156 60.304688 C 59.957031 57.898438 61.820312 55.371094 63.0625 52.964844 C 64.304688 55.371094 66.042969 57.957031 68.152344 60.367188 C 70.261719 62.773438 72.371094 65.601562 72.371094 68.910156 C 72.371094 72.160156 70.511719 74.628906 67.65625 74.628906 C 65.542969 74.628906 63.683594 72.824219 63.0625 70.417969 C 62.441406 72.824219 60.578125 74.628906 58.34375 74.628906 Z M 58.40625 74.628906 "/>
<path style=" stroke:none;fill-rule:nonzero;fill:rgb(93.333334%,33.333334%,26.666668%);fill-opacity:1;" d="M 58.40625 9.027344 C 55.550781 9.027344 53.691406 11.496094 53.691406 14.746094 C 53.691406 18.054688 55.863281 20.945312 57.910156 23.351562 C 59.957031 25.757812 61.820312 28.285156 63.0625 30.695312 C 64.304688 28.285156 66.042969 25.699219 68.152344 23.292969 C 70.261719 20.882812 72.371094 18.054688 72.371094 14.746094 C 72.371094 11.496094 70.511719 9.027344 67.65625 9.027344 C 65.542969 9.027344 63.683594 10.832031 63.0625 13.242188 C 62.441406 10.832031 60.578125 9.027344 58.34375 9.027344 Z M 58.40625 9.027344 "/>
<path style=" stroke:none;fill-rule:nonzero;fill:rgb(93.333334%,33.333334%,26.666668%);fill-opacity:1;" d="M 58.40625 120.371094 C 55.550781 120.371094 53.691406 117.902344 53.691406 114.652344 C 53.691406 111.34375 55.863281 108.453125 57.910156 106.046875 C 59.957031 103.640625 61.820312 101.109375 63.0625 98.703125 C 64.304688 101.109375 66.042969 103.699219 68.152344 106.105469 C 70.261719 108.515625 72.371094 111.34375 72.371094 114.652344 C 72.371094 117.902344 70.511719 120.371094 67.65625 120.371094 C 65.542969 120.371094 63.683594 118.566406 63.0625 116.15625 C 62.441406 118.566406 60.578125 120.371094 58.34375 120.371094 Z M 58.40625 120.371094 "/>
<path style=" stroke:none;fill-rule:nonzero;fill:rgb(93.333334%,33.333334%,26.666668%);fill-opacity:1;" d="M 5.703125 22.269531 C 4.394531 22.269531 3.542969 23.371094 3.542969 24.824219 C 3.542969 26.304688 4.539062 27.59375 5.476562 28.671875 C 6.414062 29.746094 7.265625 30.875 7.835938 31.953125 C 8.402344 30.875 9.199219 29.71875 10.167969 28.644531 C 11.132812 27.566406 12.097656 26.304688 12.097656 24.824219 C 12.097656 23.371094 11.246094 22.269531 9.9375 22.269531 C 8.972656 22.269531 8.121094 23.074219 7.835938 24.152344 C 7.550781 23.074219 6.699219 22.269531 5.675781 22.269531 Z M 5.703125 22.269531 "/>
<path style=" stroke:none;fill-rule:nonzero;fill:rgb(93.333334%,33.333334%,26.666668%);fill-opacity:1;" d="M 84.296875 107.730469 C 85.605469 107.730469 86.457031 106.628906 86.457031 105.175781 C 86.457031 103.695312 85.460938 102.40625 84.523438 101.328125 C 83.585938 100.253906 82.734375 99.125 82.164062 98.046875 C 81.597656 99.125 80.800781 100.28125 79.832031 101.355469 C 78.867188 102.433594 77.902344 103.695312 77.902344 105.175781 C 77.902344 106.628906 78.753906 107.730469 80.0625 107.730469 C 81.027344 107.730469 81.878906 106.925781 82.164062 105.847656 C 82.449219 106.925781 83.300781 107.730469 84.324219 107.730469 Z M 84.296875 107.730469 "/>
<path style="fill-rule:nonzero;fill:rgb(93.333334%,33.333334%,26.666668%);fill-opacity:1;stroke-width:0.5;stroke-linecap:butt;stroke-linejoin:round;stroke:rgb(93.333334%,33.333334%,26.666668%);stroke-opacity:1;stroke-miterlimit:4;" d="M 738.002166 -90.400686 C 734.207244 -89.881455 734.647783 -84.39708 734.597435 -81.502368 C 735.66102 -82.138426 736.667965 -82.521359 737.901472 -82.599243 C 741.230682 -82.599243 743.401907 -80.042031 743.401907 -75.998522 C 743.401907 -73.649002 742.722219 -69.300444 737.700083 -69.300444 C 734.408633 -69.300444 732.048607 -71.468233 731.897565 -78.601166 C 731.897565 -84.663186 732.199649 -91.802609 737.901472 -91.802609 C 740.601342 -91.802609 742.898434 -90.108619 742.898434 -87.298282 C 742.898434 -85.961263 742.180986 -84.702128 740.802731 -84.702128 C 739.80208 -84.702128 738.801429 -85.519917 738.801429 -86.798522 C 738.801429 -87.467032 739.292314 -88.602849 740.500648 -88.901407 C 740.047523 -89.939869 738.927297 -90.400686 738.002166 -90.400686 Z M 734.597435 -76.102368 C 734.597435 -75.232656 734.742184 -70.598521 737.599389 -70.598521 C 739.732852 -70.598521 740.802731 -72.42881 740.802731 -76.102368 C 740.802731 -77.692512 740.469181 -81.099964 737.599389 -81.099964 C 734.729597 -81.099964 734.597435 -76.848762 734.597435 -76.102368 Z M 734.597435 -76.102368 " transform="matrix(0.62069,0,0,0.601852,-449.999961,60.18516)"/>
<path style="fill-rule:nonzero;fill:rgb(93.333334%,33.333334%,26.666668%);fill-opacity:1;stroke-width:0.5;stroke-linecap:butt;stroke-linejoin:round;stroke:rgb(93.333334%,33.333334%,26.666668%);stroke-opacity:1;stroke-miterlimit:4;" d="M 738.002164 -90.400772 C 734.207242 -89.881541 734.64778 -84.397166 734.597433 -81.502454 C 735.661018 -82.138511 736.667963 -82.521444 737.90147 -82.599329 C 741.23068 -82.599329 743.401904 -80.042117 743.401904 -75.998607 C 743.401904 -73.649088 742.722217 -69.30053 737.700081 -69.30053 C 734.408631 -69.30053 732.048605 -71.468318 731.897563 -78.601252 C 731.897563 -84.656781 732.199647 -91.802695 737.90147 -91.802695 C 740.60134 -91.802695 742.898432 -90.108704 742.898432 -87.298368 C 742.898432 -85.961348 742.180984 -84.702214 740.802729 -84.702214 C 739.802078 -84.702214 738.801427 -85.520002 738.801427 -86.798608 C 738.801427 -87.467118 739.292312 -88.602935 740.500645 -88.901493 C 740.04752 -89.939954 738.927295 -90.400772 738.002164 -90.400772 Z M 734.597433 -76.102453 C 734.597433 -75.232742 734.742181 -70.598607 737.599387 -70.598607 C 739.73285 -70.598607 740.802729 -72.428895 740.802729 -76.102453 C 740.802729 -77.692598 740.469178 -81.10005 737.599387 -81.10005 C 734.729595 -81.10005 734.597433 -76.848848 734.597433 -76.102453 Z M 734.597433 -76.102453 " transform="matrix(-0.62069,0.000000000000000074,-0.000000000000000076,-0.601852,539.99996,69.814789)"/>
</g>
</svg>
