<?xml version="1.0" encoding="UTF-8"?>
<svg xmlns="http://www.w3.org/2000/svg" xmlns:xlink="http://www.w3.org/1999/xlink" width="90px" height="130px" viewBox="0 0 90 130" version="1.1">
<defs>
<clipPath id="clip1">
  <path d="M 35 39 L 62 39 L 62 60 L 35 60 Z M 35 39 "/>
</clipPath>
<clipPath id="clip2">
  <path d="M 34.886719 37.980469 L 17.054688 41.269531 C 17.054688 41.269531 13.535156 41.570312 13.535156 45.652344 L 13.535156 61.300781 L 76.085938 68.367188 C 76.085938 68.367188 60.324219 45.53125 55.359375 41.449219 C 53.410156 40.621094 51.332031 40.105469 49.207031 39.929688 C 44.449219 39.171875 39.675781 38.523438 34.886719 37.980469 Z M 34.886719 37.980469 "/>
</clipPath>
<clipPath id="clip3">
  <path d="M 68 49 L 74 49 L 74 57 L 68 57 Z M 68 49 "/>
</clipPath>
<clipPath id="clip4">
  <path d="M 34.886719 37.980469 L 17.054688 41.269531 C 17.054688 41.269531 13.535156 41.570312 13.535156 45.652344 L 13.535156 61.300781 L 76.085938 68.367188 C 76.085938 68.367188 60.324219 45.53125 55.359375 41.449219 C 53.410156 40.621094 51.332031 40.105469 49.207031 39.929688 C 44.449219 39.171875 39.675781 38.523438 34.886719 37.980469 Z M 34.886719 37.980469 "/>
</clipPath>
<clipPath id="clip5">
  <path d="M 28 70 L 55 70 L 55 91 L 28 91 Z M 28 70 "/>
</clipPath>
<clipPath id="clip6">
  <path d="M 55.21875 92.097656 L 73.054688 88.808594 C 73.054688 88.808594 76.574219 88.503906 76.574219 84.425781 L 76.574219 68.777344 L 14.023438 61.710938 C 14.023438 61.710938 29.785156 84.546875 34.746094 88.628906 C 36.699219 89.457031 38.777344 89.972656 40.902344 90.148438 C 45.660156 90.90625 50.433594 91.554688 55.21875 92.097656 Z M 55.21875 92.097656 "/>
</clipPath>
<clipPath id="clip7">
  <path d="M 16 73 L 23 73 L 23 81 L 16 81 Z M 16 73 "/>
</clipPath>
<clipPath id="clip8">
  <path d="M 55.21875 92.097656 L 73.054688 88.808594 C 73.054688 88.808594 76.574219 88.503906 76.574219 84.425781 L 76.574219 68.777344 L 14.023438 61.710938 C 14.023438 61.710938 29.785156 84.546875 34.746094 88.628906 C 36.699219 89.457031 38.777344 89.972656 40.902344 90.148438 C 45.660156 90.90625 50.433594 91.554688 55.21875 92.097656 Z M 55.21875 92.097656 "/>
</clipPath>
</defs>
<g id="surface1">
<path style="fill-rule:nonzero;fill:rgb(100%,100%,100%);fill-opacity:1;stroke-width:3;stroke-linecap:butt;stroke-linejoin:miter;stroke:rgb(21.960784%,25.098041%,27.843139%);stroke-opacity:1;stroke-miterlimit:4;" d="M 9.503126 1.499313 L 135.49706 1.499313 C 139.921322 1.499313 143.502269 5.082006 143.502269 9.501958 L 143.502269 206.498128 C 143.502269 210.91808 139.921322 214.500772 135.49706 214.500772 L 9.503126 214.500772 C 5.078864 214.500772 1.497917 210.91808 1.497917 206.498128 L 1.497917 9.501958 C 1.497917 5.082006 5.078864 1.499313 9.503126 1.499313 Z M 9.503126 1.499313 " transform="matrix(0.62069,0,0,0.601852,-0.0000540769,-0.0000206087)"/>
<path style=" stroke:none;fill-rule:nonzero;fill:rgb(93.333334%,33.333334%,26.666668%);fill-opacity:1;" d="M 15.246094 6.269531 C 12.785156 6.269531 11.183594 8.394531 11.183594 11.191406 C 11.183594 14.042969 13.054688 16.53125 14.816406 18.605469 C 16.582031 20.675781 18.183594 22.851562 19.253906 24.925781 C 20.320312 22.851562 21.820312 20.625 23.636719 18.550781 C 25.453125 16.480469 27.269531 14.042969 27.269531 11.191406 C 27.269531 8.394531 25.667969 6.269531 23.207031 6.269531 C 21.390625 6.269531 19.789062 7.824219 19.253906 9.898438 C 18.71875 7.824219 17.117188 6.269531 15.191406 6.269531 Z M 15.246094 6.269531 "/>
<path style=" stroke:none;fill-rule:nonzero;fill:rgb(100%,100%,100%);fill-opacity:1;" d="M 4.59375 4.214844 L 13.160156 4.214844 L 13.160156 34.304688 L 4.59375 34.304688 Z M 4.59375 4.214844 "/>
<path style=" stroke:none;fill-rule:nonzero;fill:rgb(70.19608%,70.19608%,70.19608%);fill-opacity:1;" d="M 65.832031 22.328125 L 70.019531 21.902344 L 70.226562 23.839844 L 71.386719 25.804688 L 69.765625 26.582031 L 68.164062 28.09375 L 67.054688 28.941406 Z M 65.832031 22.328125 "/>
<path style=" stroke:none;fill-rule:nonzero;fill:rgb(61.176473%,61.176473%,61.176473%);fill-opacity:1;" d="M 60.839844 23.449219 L 59.195312 24.597656 L 57.28125 24.976562 L 58.257812 27.019531 L 58.109375 29.117188 L 60 29.105469 L 61.941406 29.523438 Z M 60.839844 23.449219 "/>
<path style=" stroke:none;fill-rule:nonzero;fill:rgb(21.960784%,25.098041%,27.843139%);fill-opacity:1;" d="M 71.277344 62.0625 L 74.179688 61.460938 L 66.980469 31.152344 L 65.449219 31 L 63.964844 31.886719 Z M 71.277344 62.0625 "/>
<path style=" stroke:none;fill-rule:nonzero;fill:rgb(52.549022%,52.549022%,52.549022%);fill-opacity:1;" d="M 67.542969 23.914062 C 67.542969 23.914062 69.929688 26.347656 66.539062 29.453125 L 66.980469 31.21875 L 63.902344 31.949219 L 63.460938 30.125 C 58.878906 28.84375 60.324219 25.253906 60.324219 25.253906 Z M 67.542969 23.914062 "/>
<path style=" stroke:none;fill-rule:nonzero;fill:rgb(81.960785%,81.960785%,81.960785%);fill-opacity:1;" d="M 70.019531 21.902344 L 69.628906 22.984375 L 65.054688 22.714844 L 65.832031 22.328125 Z M 70.019531 21.902344 "/>
<path style=" stroke:none;fill-rule:nonzero;fill:rgb(72.941178%,72.941178%,72.941178%);fill-opacity:1;" d="M 60.839844 23.449219 L 58.121094 25.746094 L 57.28125 24.976562 Z M 60.839844 23.449219 "/>
<path style=" stroke:none;fill-rule:nonzero;fill:rgb(45.09804%,45.09804%,45.09804%);fill-opacity:1;" d="M 62.003906 29.515625 L 58.964844 28.292969 L 58.109375 29.117188 Z M 62.003906 29.515625 "/>
<path style=" stroke:none;fill-rule:nonzero;fill:rgb(50.980395%,50.980395%,50.980395%);fill-opacity:1;" d="M 71.394531 25.863281 L 70.328125 25.359375 L 68.226562 28.085938 Z M 71.394531 25.863281 "/>
<path style=" stroke:none;fill-rule:nonzero;fill:rgb(47.058824%,47.450981%,48.627451%);fill-opacity:1;" d="M 58.183594 25.742188 L 58.964844 28.292969 L 58.109375 29.117188 L 57.28125 24.976562 Z M 58.183594 25.742188 "/>
<path style=" stroke:none;fill-rule:nonzero;fill:rgb(61.56863%,61.56863%,62.7451%);fill-opacity:1;" d="M 70.019531 21.902344 L 71.394531 25.863281 L 70.328125 25.359375 L 69.691406 22.976562 Z M 70.019531 21.902344 "/>
<path style=" stroke:none;fill-rule:nonzero;fill:rgb(33.333334%,46.666667%,53.333336%);fill-opacity:1;" d="M 34.886719 38.101562 L 25.65625 46.140625 L 46.191406 62.519531 L 63.460938 50.828125 C 63.460938 50.828125 59.316406 45.164062 55.425781 41.511719 C 54.796875 41.085938 52.285156 40.535156 49.144531 39.988281 C 44.40625 39.253906 39.65625 38.625 34.886719 38.101562 Z M 34.886719 38.101562 "/>
<g clip-path="url(#clip1)" clip-rule="nonzero">
<g clip-path="url(#clip2)" clip-rule="nonzero">
<path style=" stroke:none;fill-rule:nonzero;fill:rgb(21.960784%,25.098041%,27.843139%);fill-opacity:1;" d="M 52.09375 39.683594 C 51.6875 40.304688 51.617188 41.074219 51.90625 41.753906 C 52.347656 42.667969 53.414062 43.214844 54.355469 44.070312 C 54.707031 44.410156 55.003906 44.800781 55.234375 45.226562 L 55.425781 45.589844 L 55.488281 45.589844 L 55.488281 45.410156 C 55.582031 44.871094 55.773438 44.355469 56.050781 43.886719 L 56.050781 43.824219 C 56.679688 42.730469 57.558594 41.9375 57.683594 40.902344 Z M 50.964844 42 L 47.636719 45.164062 C 47.988281 45.503906 48.285156 45.894531 48.515625 46.320312 L 48.703125 46.625 L 48.765625 46.625 L 48.765625 46.503906 C 48.855469 45.949219 49.046875 45.410156 49.332031 44.921875 C 49.960938 43.824219 50.839844 43.035156 50.964844 42 Z M 58.1875 43.640625 L 58.1875 43.824219 C 58.09375 44.359375 57.90625 44.878906 57.621094 45.347656 C 56.992188 46.503906 56.113281 47.296875 55.988281 48.332031 C 55.917969 49.039062 56.199219 49.742188 56.742188 50.21875 C 57.019531 50.453125 57.382812 50.5625 57.746094 50.523438 C 58.5 50.402344 59.003906 49.730469 59.003906 48.941406 L 59.441406 49.609375 C 59.820312 49.976562 60.257812 50.15625 60.699219 50.097656 C 61.074219 50.097656 61.390625 49.855469 61.578125 49.488281 C 61.945312 48.902344 62.011719 48.183594 61.765625 47.539062 C 61.15625 46.1875 59.417969 45.683594 58.4375 44.007812 L 58.25 43.640625 Z M 51.46875 44.738281 L 51.46875 44.859375 C 51.378906 45.414062 51.191406 45.957031 50.902344 46.445312 C 50.273438 47.601562 49.394531 48.390625 49.269531 49.425781 C 49.199219 50.136719 49.476562 50.835938 50.023438 51.316406 C 50.300781 51.546875 50.664062 51.65625 51.027344 51.621094 C 51.78125 51.496094 52.285156 50.828125 52.285156 50.035156 L 52.722656 50.707031 C 53.101562 51.070312 53.539062 51.253906 53.980469 51.191406 C 54.355469 51.191406 54.671875 50.949219 54.859375 50.585938 C 55.246094 49.980469 55.316406 49.234375 55.046875 48.574219 C 54.609375 47.601562 53.539062 47.113281 52.597656 46.199219 C 52.25 45.878906 51.957031 45.507812 51.71875 45.105469 L 51.53125 44.738281 Z M 45 46.140625 L 44.683594 46.320312 C 44.578125 46.75 44.410156 47.15625 44.183594 47.539062 L 44.183594 47.480469 C 43.554688 48.636719 42.675781 49.425781 42.550781 50.523438 C 42.5 51.210938 42.777344 51.886719 43.304688 52.351562 C 43.574219 52.605469 43.929688 52.738281 44.308594 52.714844 C 45.0625 52.59375 45.5625 51.925781 45.5625 51.070312 C 45.691406 51.375 45.816406 51.621094 46.003906 51.800781 C 46.378906 52.167969 46.820312 52.289062 47.261719 52.289062 C 47.636719 52.230469 47.949219 51.984375 48.140625 51.679688 C 48.523438 51.078125 48.59375 50.332031 48.328125 49.671875 C 47.886719 48.695312 46.820312 48.148438 45.878906 47.296875 C 45.527344 46.957031 45.230469 46.566406 45 46.140625 Z M 38.28125 47.234375 L 37.964844 47.417969 C 37.859375 47.84375 37.6875 48.257812 37.464844 48.636719 C 36.835938 49.730469 35.957031 50.523438 35.832031 51.558594 L 41.417969 52.777344 C 41.804688 52.171875 41.875 51.429688 41.609375 50.765625 C 41.167969 49.792969 40.101562 49.246094 39.160156 48.390625 C 38.808594 48.050781 38.511719 47.660156 38.28125 47.234375 Z M 58.753906 51.496094 C 58.0625 51.558594 57.496094 52.289062 57.496094 53.082031 C 57.390625 52.835938 57.246094 52.605469 57.058594 52.410156 C 56.742188 52.046875 56.304688 51.863281 55.800781 51.925781 C 55.429688 51.996094 55.109375 52.214844 54.921875 52.53125 C 54.558594 53.117188 54.480469 53.835938 54.734375 54.480469 C 55.171875 55.457031 56.242188 56.003906 57.183594 56.917969 L 60.511719 53.691406 C 60.582031 52.980469 60.300781 52.28125 59.757812 51.800781 C 59.480469 51.570312 59.117188 51.460938 58.753906 51.496094 Z M 52.09375 52.59375 C 51.34375 52.65625 50.839844 53.324219 50.839844 54.117188 C 50.726562 53.890625 50.582031 53.691406 50.398438 53.507812 C 50.023438 53.140625 49.582031 52.960938 49.144531 52.960938 C 48.773438 53.03125 48.453125 53.25 48.265625 53.566406 C 47.882812 54.175781 47.8125 54.914062 48.078125 55.578125 C 48.515625 56.550781 49.582031 57.101562 50.527344 57.953125 C 52.113281 59.699219 51.179688 59.742188 52.222656 57.707031 L 52.222656 57.769531 C 52.847656 56.613281 53.726562 55.820312 53.855469 54.726562 C 53.90625 54.035156 53.628906 53.363281 53.101562 52.898438 C 52.824219 52.667969 52.460938 52.554688 52.09375 52.59375 Z M 45.3125 53.628906 C 44.683594 53.75 44.121094 54.421875 44.058594 55.273438 L 45.5 58.804688 L 45.5 58.867188 C 46.128906 57.648438 47.007812 56.917969 47.132812 55.820312 C 47.183594 55.132812 46.90625 54.460938 46.378906 53.996094 C 46.101562 53.722656 45.707031 53.589844 45.3125 53.628906 Z M 45.3125 53.628906 "/>
</g>
</g>
<g clip-path="url(#clip3)" clip-rule="nonzero">
<g clip-path="url(#clip4)" clip-rule="nonzero">
<path style=" stroke:none;fill-rule:nonzero;fill:rgb(84.313726%,15.294118%,18.82353%);fill-opacity:1;" d="M 72.316406 54.480469 C 72.03125 54.972656 71.839844 55.507812 71.75 56.066406 L 71.75 56.1875 L 71.6875 56.1875 L 71.5 55.882812 C 71.269531 55.457031 70.972656 55.066406 70.621094 54.726562 C 69.679688 53.8125 68.613281 53.324219 68.171875 52.351562 C 67.90625 51.6875 67.976562 50.945312 68.359375 50.339844 C 68.550781 50.027344 68.871094 49.804688 69.238281 49.730469 C 69.679688 49.730469 70.117188 49.855469 70.496094 50.21875 C 70.6875 50.433594 70.835938 50.679688 70.933594 50.949219 C 70.933594 50.097656 71.4375 49.425781 72.191406 49.304688 C 72.503906 49.304688 72.820312 49.425781 73.195312 49.671875 C 73.722656 50.136719 74 50.808594 73.949219 51.496094 C 73.824219 52.59375 72.945312 53.324219 72.316406 54.542969 Z M 72.316406 54.480469 "/>
</g>
</g>
<path style=" stroke:none;fill-rule:nonzero;fill:rgb(53.333336%,40.000001%,33.333334%);fill-opacity:1;" d="M 39.914062 14.839844 L 52.03125 17.03125 L 51.53125 20.683594 L 53.414062 25.738281 L 51.71875 26.164062 L 51.96875 28.054688 L 50.527344 28.722656 L 50.964844 29.820312 C 50.964844 29.820312 49.019531 30.429688 49.960938 31.402344 C 50.902344 32.378906 51.71875 34.082031 47.261719 34.324219 C 44.558594 34.449219 43.179688 35.664062 45.375 39.441406 C 45.4375 39.074219 43.492188 45.164062 40.476562 45.347656 C 36.019531 45.589844 29.800781 40.109375 29.800781 40.109375 Z M 39.914062 14.839844 "/>
<path style=" stroke:none;fill-rule:nonzero;fill:rgb(78.823531%,79.215688%,80.000001%);fill-opacity:1;" d="M 41.546875 14.472656 C 41.546875 14.472656 45.628906 16.242188 42.863281 32.132812 C 42.863281 32.132812 42.363281 34.933594 44.308594 36.273438 C 46.253906 37.675781 38.152344 38.589844 27.980469 37.125 C 27.980469 37.125 25.027344 32.253906 28.105469 28.722656 C 29.914062 24.183594 30.976562 19.394531 31.246094 14.535156 Z M 41.546875 14.472656 "/>
<path style=" stroke:none;fill-rule:nonzero;fill:rgb(93.333334%,33.333334%,26.666668%);fill-opacity:1;" d="M 45.3125 39.195312 L 52.222656 40.109375 C 52.222656 40.109375 49.394531 46.808594 40.730469 47.539062 C 33.996094 47.785156 27.503906 45.105469 23.019531 40.234375 L 30.554688 38.589844 C 30.554688 38.589844 33.253906 41.9375 38.59375 42.121094 C 43.867188 42.242188 45.3125 39.195312 45.3125 39.195312 Z M 51.027344 5.523438 L 51.71875 9.726562 L 53.792969 9.117188 L 52.03125 17.457031 C 45.753906 15.449219 38.34375 15.996094 30.054688 16.726562 L 29.675781 12.464844 C 29.675781 12.464844 34.324219 8.386719 41.734375 7.289062 L 44.246094 9.117188 L 46.378906 6.679688 L 47.824219 8.871094 Z M 51.027344 5.523438 "/>
<path style=" stroke:none;fill-rule:nonzero;fill:rgb(53.333336%,40.000001%,33.333334%);fill-opacity:1;" d="M 68.738281 59.597656 L 63.273438 52.472656 L 65.785156 50.460938 C 65.785156 50.460938 67.671875 49.367188 68.613281 47.90625 C 68.863281 47.480469 70.117188 48.085938 68.800781 49.855469 L 67.734375 51.558594 L 72.316406 48.515625 C 72.316406 48.515625 74.828125 46.6875 74.828125 47.660156 C 74.828125 48.269531 73.824219 49.425781 73.382812 49.671875 C 72.945312 49.914062 69.867188 52.835938 69.867188 52.835938 L 73.574219 50.644531 C 73.574219 50.644531 76.335938 48.820312 76.523438 49.183594 C 77.152344 50.523438 75.394531 51.496094 74.953125 51.742188 C 74.453125 51.984375 70.808594 54.664062 70.808594 54.664062 L 75.582031 52.59375 C 75.582031 52.59375 77.464844 51.496094 77.464844 51.984375 C 77.71875 53.140625 76.398438 53.8125 76.148438 53.933594 L 72.066406 56.003906 L 73.320312 56.003906 C 73.320312 56.003906 76.902344 55.089844 76.902344 55.394531 C 76.902344 56.855469 70.371094 58.867188 70.371094 58.867188 Z M 68.738281 59.597656 "/>
<path style=" stroke:none;fill-rule:nonzero;fill:rgb(21.960784%,25.098041%,27.843139%);fill-opacity:1;" d="M 15.984375 41.511719 C 23.710938 48.820312 31.6875 55.941406 38.28125 64.226562 L 30.742188 63.3125 C 21.953125 59.292969 18.433594 52.59375 13.597656 45.652344 C 13.597656 42.242188 15.984375 41.511719 15.984375 41.511719 Z M 15.984375 41.511719 "/>
<path style=" stroke:none;fill-rule:nonzero;fill:rgb(93.333334%,86.666667%,86.666667%);fill-opacity:1;" d="M 15.984375 41.511719 L 17.742188 41.207031 L 40.539062 64.101562 L 38.34375 64.226562 Z M 15.984375 41.511719 "/>
<path style=" stroke:none;fill-rule:nonzero;fill:rgb(21.960784%,25.098041%,27.843139%);fill-opacity:1;" d="M 40.289062 64.347656 L 49.898438 59.78125 L 26.976562 39.074219 L 17.554688 41.207031 Z M 40.289062 64.347656 "/>
<path style=" stroke:none;fill-rule:nonzero;fill:rgb(93.333334%,86.666667%,86.666667%);fill-opacity:1;" d="M 42.363281 62.945312 L 46.945312 60.996094 L 24.652344 39.625 L 19.816406 40.660156 Z M 42.363281 62.945312 "/>
<path style=" stroke:none;fill-rule:nonzero;fill:rgb(93.333334%,33.333334%,26.666668%);fill-opacity:1;" d="M 59.632812 52.960938 C 64.972656 56.710938 68.972656 61.992188 71.0625 68.0625 L 38.28125 64.226562 Z M 59.632812 52.960938 "/>
<path style=" stroke:none;fill-rule:nonzero;fill:rgb(93.333334%,80.000001%,26.666668%);fill-opacity:1;" d="M 63.460938 50.828125 L 76.398438 68.667969 L 71.0625 68.0625 L 59.632812 52.898438 Z M 63.460938 50.828125 "/>
<path style=" stroke:none;fill-rule:nonzero;fill:rgb(87.843138%,88.235295%,88.627452%);fill-opacity:1;" d="M 41.734375 37.613281 C 41.734375 37.613281 39.347656 37.125 39.222656 33.777344 C 39.097656 30.429688 42.234375 23.304688 40.476562 17.761719 C 40.476562 17.761719 40.039062 28.601562 38.59375 33.65625 C 37.148438 38.710938 41.734375 37.613281 41.734375 37.613281 Z M 41.734375 37.613281 "/>
<path style=" stroke:none;fill-rule:nonzero;fill:rgb(87.843138%,88.235295%,88.627452%);fill-opacity:1;" d="M 38.152344 37.734375 C 38.152344 37.734375 35.769531 37.125 35.640625 33.777344 C 35.515625 30.429688 38.34375 23.304688 36.585938 17.761719 C 36.585938 17.761719 36.457031 28.601562 35.015625 33.65625 C 33.570312 38.710938 38.152344 37.734375 38.152344 37.734375 Z M 30.367188 16.542969 C 30.367188 16.542969 30.492188 23.914062 28.609375 26.957031 C 26.722656 30.003906 24.839844 34.996094 27.980469 37.066406 C 27.980469 37.066406 25.78125 33.777344 28.609375 29.757812 C 30.742188 26.59375 31.75 22.085938 31.308594 16.363281 Z M 34.261719 37.734375 C 34.261719 37.734375 31.875 37.125 31.75 33.777344 C 31.621094 30.429688 34.886719 23.304688 33.003906 17.761719 C 33.003906 17.761719 32.566406 27.933594 31.121094 32.984375 C 29.675781 38.039062 34.261719 37.734375 34.261719 37.734375 Z M 34.261719 37.734375 "/>
<path style=" stroke:none;fill-rule:nonzero;fill:rgb(21.960784%,25.098041%,27.843139%);fill-opacity:1;" d="M 52.285156 16.910156 C 52.285156 16.910156 45.691406 14.71875 29.800781 16.300781 L 30.054688 17.519531 C 30.054688 17.519531 42.171875 16.300781 51.96875 17.945312 Z M 52.285156 16.910156 "/>
<path style=" stroke:none;fill-rule:nonzero;fill:rgb(93.333334%,33.333334%,26.666668%);fill-opacity:1;" d="M 24.023438 40.109375 C 23.789062 40.101562 23.558594 40.1875 23.394531 40.355469 C 23.082031 40.660156 23.144531 41.144531 23.394531 41.570312 C 23.261719 41.488281 23.113281 41.425781 22.957031 41.390625 C 22.640625 41.328125 22.328125 41.390625 22.140625 41.632812 C 21.953125 41.753906 21.953125 42 21.953125 42.242188 C 22.003906 42.671875 22.257812 43.054688 22.640625 43.277344 C 23.207031 43.519531 23.960938 43.398438 24.714844 43.519531 C 25.019531 43.558594 25.316406 43.640625 25.59375 43.765625 L 25.78125 43.824219 C 25.84375 43.824219 25.78125 43.765625 25.78125 43.765625 C 25.617188 43.460938 25.511719 43.128906 25.46875 42.789062 C 25.34375 42 25.46875 41.328125 25.15625 40.78125 C 24.902344 40.414062 24.464844 40.109375 24.023438 40.109375 Z M 27.039062 43.035156 C 26.804688 43.023438 26.574219 43.113281 26.410156 43.277344 C 26.097656 43.519531 26.160156 44.070312 26.410156 44.496094 C 26.277344 44.410156 26.128906 44.347656 25.972656 44.3125 C 25.65625 44.25 25.34375 44.3125 25.15625 44.496094 C 24.964844 44.675781 24.964844 44.859375 24.964844 45.105469 C 25.019531 45.535156 25.273438 45.917969 25.65625 46.140625 C 26.222656 46.445312 26.976562 46.320312 27.730469 46.445312 C 28.035156 46.480469 28.328125 46.5625 28.609375 46.6875 L 28.796875 46.75 C 28.859375 46.75 28.796875 46.6875 28.796875 46.625 C 28.628906 46.324219 28.523438 45.992188 28.484375 45.652344 L 28.484375 45.714844 C 28.355469 44.921875 28.484375 44.25 28.167969 43.640625 C 27.917969 43.339844 27.476562 43.035156 27.039062 43.035156 Z M 30.054688 45.894531 C 29.816406 45.886719 29.589844 45.972656 29.425781 46.140625 C 29.109375 46.445312 29.171875 46.929688 29.425781 47.355469 C 29.289062 47.273438 29.140625 47.210938 28.984375 47.175781 C 28.671875 47.113281 28.355469 47.175781 28.167969 47.417969 C 28.019531 47.585938 27.953125 47.808594 27.980469 48.027344 C 28.035156 48.457031 28.289062 48.839844 28.671875 49.0625 C 29.238281 49.304688 29.988281 49.183594 30.742188 49.304688 C 31.046875 49.34375 31.34375 49.425781 31.621094 49.550781 L 31.8125 49.609375 C 31.875 49.609375 31.8125 49.550781 31.8125 49.550781 C 31.648438 49.246094 31.539062 48.914062 31.496094 48.574219 C 31.371094 47.785156 31.496094 47.113281 31.183594 46.566406 C 30.933594 46.199219 30.492188 45.894531 30.054688 45.894531 Z M 33.128906 48.820312 C 32.894531 48.808594 32.664062 48.898438 32.503906 49.0625 C 32.1875 49.304688 32.25 49.855469 32.503906 50.28125 C 32.367188 50.195312 32.21875 50.132812 32.0625 50.097656 C 31.75 50.035156 31.433594 50.097656 31.246094 50.28125 C 31.058594 50.460938 31.058594 50.644531 31.058594 50.890625 C 31.109375 51.320312 31.367188 51.699219 31.75 51.925781 C 32.3125 52.230469 33.066406 52.105469 33.820312 52.230469 C 34.125 52.265625 34.421875 52.347656 34.699219 52.472656 L 34.886719 52.53125 C 34.953125 52.53125 34.886719 52.472656 34.886719 52.410156 C 34.730469 52.128906 34.621094 51.816406 34.574219 51.496094 C 34.449219 50.707031 34.574219 50.035156 34.199219 49.425781 C 34.007812 49.121094 33.570312 48.820312 33.128906 48.820312 Z M 36.144531 51.679688 C 35.910156 51.667969 35.679688 51.757812 35.515625 51.925781 C 35.203125 52.230469 35.265625 52.714844 35.515625 53.140625 C 35.382812 53.058594 35.234375 52.996094 35.078125 52.960938 C 34.761719 52.898438 34.449219 52.960938 34.261719 53.203125 C 34.070312 53.324219 34.070312 53.566406 34.070312 53.8125 C 34.125 54.242188 34.378906 54.625 34.761719 54.847656 C 35.328125 55.152344 36.082031 55.03125 36.835938 55.089844 C 37.144531 55.148438 37.441406 55.25 37.714844 55.394531 L 37.902344 55.394531 C 37.964844 55.394531 37.902344 55.335938 37.902344 55.335938 L 37.839844 55.152344 C 37.71875 54.902344 37.632812 54.632812 37.589844 54.359375 C 37.464844 53.566406 37.589844 52.898438 37.273438 52.351562 C 37.023438 51.984375 36.582031 51.679688 36.144531 51.679688 Z M 62.898438 51.742188 C 62.738281 51.710938 62.574219 51.757812 62.457031 51.863281 C 62.207031 52.046875 62.144531 52.351562 62.332031 52.714844 C 62.242188 52.636719 62.132812 52.574219 62.019531 52.53125 C 61.832031 52.464844 61.621094 52.488281 61.453125 52.59375 C 61.34375 52.6875 61.277344 52.820312 61.265625 52.960938 C 61.203125 53.265625 61.390625 53.566406 61.578125 53.75 C 61.957031 54.054688 62.457031 53.996094 62.960938 54.175781 L 63.589844 54.480469 C 63.652344 54.480469 63.652344 54.421875 63.589844 54.421875 C 63.589844 54.378906 63.589844 54.339844 63.589844 54.300781 L 63.523438 53.75 C 63.523438 53.203125 63.714844 52.714844 63.523438 52.351562 C 63.398438 52.046875 63.148438 51.800781 62.898438 51.742188 Z M 64.53125 54.054688 C 64.371094 54.023438 64.207031 54.070312 64.089844 54.175781 C 63.839844 54.359375 63.777344 54.664062 63.964844 54.96875 C 63.839844 54.847656 63.777344 54.847656 63.652344 54.847656 C 63.476562 54.75 63.261719 54.75 63.085938 54.847656 C 62.960938 54.953125 62.890625 55.109375 62.898438 55.273438 C 62.898438 55.578125 63.023438 55.882812 63.273438 56.066406 C 63.589844 56.308594 64.089844 56.308594 64.53125 56.429688 C 64.757812 56.492188 64.96875 56.597656 65.15625 56.734375 L 65.285156 56.796875 C 65.1875 56.542969 65.144531 56.273438 65.15625 56.003906 C 65.15625 55.515625 65.347656 55.03125 65.15625 54.664062 C 65.03125 54.359375 64.78125 54.117188 64.53125 54.054688 Z M 39.160156 54.601562 C 38.921875 54.59375 38.695312 54.679688 38.53125 54.847656 C 38.214844 55.089844 38.28125 55.636719 38.53125 56.066406 C 38.394531 55.980469 38.246094 55.917969 38.089844 55.882812 C 37.777344 55.820312 37.464844 55.882812 37.273438 56.066406 C 37.128906 56.234375 37.058594 56.453125 37.085938 56.671875 C 37.140625 57.105469 37.394531 57.484375 37.777344 57.707031 C 38.34375 58.011719 39.097656 57.890625 39.847656 58.011719 C 40.152344 58.050781 40.449219 58.132812 40.730469 58.257812 L 40.917969 58.316406 C 40.980469 58.316406 40.917969 58.257812 40.917969 58.195312 C 40.753906 57.890625 40.648438 57.5625 40.601562 57.222656 L 40.601562 57.28125 C 40.476562 56.492188 40.601562 55.820312 40.289062 55.210938 C 40.039062 54.90625 39.597656 54.601562 39.160156 54.601562 Z M 66 56.355469 C 65.925781 56.367188 65.851562 56.390625 65.785156 56.429688 C 65.535156 56.613281 65.472656 56.976562 65.660156 57.28125 C 65.535156 57.222656 65.472656 57.101562 65.347656 57.101562 C 65.160156 57.03125 64.949219 57.054688 64.78125 57.160156 C 64.65625 57.269531 64.585938 57.425781 64.59375 57.585938 C 64.59375 57.832031 64.71875 58.136719 64.90625 58.316406 C 65.285156 58.621094 65.785156 58.621094 66.289062 58.746094 C 66.476562 58.804688 66.664062 58.867188 66.789062 59.046875 L 66.980469 59.046875 L 66.980469 58.988281 C 66.898438 58.773438 66.855469 58.546875 66.855469 58.316406 C 66.855469 57.769531 67.042969 57.34375 66.855469 56.917969 C 66.726562 56.671875 66.476562 56.371094 66.226562 56.371094 C 66.152344 56.351562 66.074219 56.347656 66 56.355469 Z M 42.234375 57.464844 C 42 57.453125 41.769531 57.542969 41.609375 57.707031 C 41.292969 58.011719 41.355469 58.5 41.609375 58.925781 C 41.472656 58.839844 41.324219 58.78125 41.167969 58.746094 C 40.871094 58.683594 40.5625 58.773438 40.351562 58.988281 C 40.164062 59.109375 40.164062 59.351562 40.164062 59.597656 C 40.214844 60.027344 40.472656 60.410156 40.855469 60.632812 C 41.417969 60.9375 42.171875 60.816406 42.925781 60.875 C 43.234375 60.933594 43.53125 61.035156 43.804688 61.179688 L 43.996094 61.179688 C 44.058594 61.179688 43.996094 61.117188 43.996094 61.117188 C 43.972656 61.058594 43.949219 60.996094 43.929688 60.9375 C 43.808594 60.683594 43.726562 60.417969 43.679688 60.144531 C 43.554688 59.351562 43.679688 58.683594 43.367188 58.136719 C 43.113281 57.769531 42.675781 57.464844 42.234375 57.464844 Z M 67.632812 58.664062 C 67.554688 58.675781 67.484375 58.703125 67.417969 58.746094 C 67.167969 58.925781 67.105469 59.230469 67.292969 59.597656 L 66.980469 59.414062 C 66.792969 59.34375 66.582031 59.367188 66.414062 59.476562 C 66.304688 59.570312 66.238281 59.699219 66.226562 59.839844 C 66.226562 60.144531 66.351562 60.449219 66.601562 60.632812 C 66.917969 60.9375 67.417969 60.875 67.859375 61.058594 L 68.488281 61.300781 L 68.613281 61.363281 L 68.613281 61.300781 C 68.53125 61.085938 68.488281 60.859375 68.488281 60.632812 C 68.488281 60.082031 68.675781 59.597656 68.488281 59.230469 C 68.359375 58.925781 68.109375 58.683594 67.859375 58.683594 C 67.785156 58.660156 67.707031 58.65625 67.632812 58.664062 Z M 69.554688 60.9375 C 69.394531 60.90625 69.230469 60.953125 69.113281 61.058594 C 68.863281 61.242188 68.800781 61.546875 68.988281 61.851562 L 68.675781 61.726562 C 68.488281 61.605469 68.296875 61.667969 68.109375 61.726562 C 67.984375 61.835938 67.914062 61.992188 67.921875 62.152344 C 67.859375 62.457031 68.046875 62.761719 68.234375 62.945312 C 68.613281 63.1875 69.113281 63.1875 69.617188 63.371094 C 69.84375 63.4375 70.054688 63.542969 70.246094 63.675781 L 70.246094 63.617188 C 70.246094 63.574219 70.246094 63.535156 70.246094 63.492188 L 70.183594 62.945312 C 70.183594 62.398438 70.371094 61.910156 70.183594 61.546875 C 70.054688 61.242188 69.804688 60.996094 69.554688 60.9375 Z M 71.1875 63.25 C 71.039062 63.203125 70.875 63.226562 70.746094 63.3125 C 70.496094 63.554688 70.433594 63.859375 70.621094 64.164062 C 70.523438 64.105469 70.417969 64.0625 70.308594 64.042969 C 70.136719 63.929688 69.914062 63.929688 69.742188 64.042969 C 69.617188 64.148438 69.546875 64.304688 69.554688 64.46875 C 69.527344 64.765625 69.644531 65.054688 69.867188 65.261719 C 70.246094 65.503906 70.746094 65.503906 71.25 65.625 L 71.75 65.929688 C 71.816406 65.929688 71.878906 65.992188 71.878906 65.929688 C 71.941406 65.929688 71.941406 65.929688 71.878906 65.867188 C 71.878906 65.847656 71.878906 65.828125 71.878906 65.808594 L 71.816406 65.199219 C 71.816406 64.710938 72.003906 64.226562 71.816406 63.859375 C 71.6875 63.554688 71.4375 63.25 71.1875 63.25 Z M 72.882812 65.5625 C 72.734375 65.515625 72.570312 65.539062 72.441406 65.625 C 72.191406 65.808594 72.128906 66.171875 72.316406 66.476562 C 72.226562 66.398438 72.117188 66.335938 72.003906 66.296875 C 71.816406 66.226562 71.605469 66.25 71.4375 66.355469 C 71.328125 66.449219 71.261719 66.582031 71.25 66.722656 C 71.25 67.027344 71.375 67.332031 71.625 67.511719 C 71.941406 67.816406 72.441406 67.757812 72.882812 67.9375 L 73.511719 68.183594 L 73.636719 68.242188 L 73.636719 68.183594 C 73.554688 67.96875 73.515625 67.742188 73.511719 67.511719 C 73.511719 66.964844 73.699219 66.476562 73.511719 66.113281 C 73.382812 65.808594 73.132812 65.5625 72.882812 65.5625 Z M 72.882812 65.5625 "/>
<path style=" stroke:none;fill-rule:nonzero;fill:rgb(78.823531%,79.215688%,80.000001%);fill-opacity:1;" d="M 49.644531 30.609375 L 50.902344 31.890625 L 50.839844 33.71875 L 46.507812 34.570312 C 46.507812 34.570312 46.191406 32.984375 46.445312 32.5 C 46.695312 32.011719 48.203125 30.976562 49.644531 30.671875 Z M 51.96875 28.054688 L 48.828125 27.808594 L 49.269531 27.019531 L 51.78125 26.164062 Z M 51.96875 28.054688 "/>
<path style=" stroke:none;fill-rule:nonzero;fill:rgb(93.333334%,86.666667%,86.666667%);fill-opacity:1;" d="M 41.484375 9.664062 C 41.4375 9.664062 41.394531 9.652344 41.355469 9.664062 C 40.855469 9.78125 40.351562 10.273438 40.226562 10.882812 C 40.039062 10.273438 39.597656 9.90625 38.96875 9.90625 C 38.28125 9.96875 37.902344 10.636719 37.902344 11.429688 C 38.027344 12.222656 38.59375 12.890625 39.160156 13.4375 C 39.785156 13.988281 40.289062 14.535156 40.667969 15.144531 C 40.964844 14.453125 41.34375 13.800781 41.796875 13.195312 C 42.234375 12.585938 42.738281 11.855469 42.613281 11.003906 C 42.613281 10.261719 42.109375 9.683594 41.484375 9.664062 Z M 48.222656 10.015625 C 47.707031 10.046875 47.304688 10.566406 47.195312 11.308594 C 47.070312 12.160156 47.449219 12.953125 47.824219 13.621094 C 48.203125 14.351562 48.515625 15.082031 48.703125 15.691406 C 49.121094 15.09375 49.605469 14.542969 50.148438 14.046875 C 50.773438 13.523438 51.214844 12.820312 51.40625 12.039062 C 51.53125 11.1875 51.214844 10.457031 50.589844 10.332031 C 50.085938 10.210938 49.582031 10.636719 49.332031 11.246094 C 49.332031 10.636719 48.957031 10.089844 48.453125 10.027344 C 48.371094 10.015625 48.296875 10.011719 48.222656 10.015625 Z M 34.636719 11.160156 C 34.574219 11.160156 34.511719 11.167969 34.449219 11.1875 C 34.007812 11.308594 33.757812 11.671875 33.757812 12.160156 C 33.507812 11.734375 33.066406 11.492188 32.628906 11.613281 C 32.125 11.734375 31.875 12.222656 32 12.832031 C 32.1875 13.4375 32.816406 13.867188 33.253906 14.230469 C 33.695312 14.597656 34.199219 14.960938 34.511719 15.328125 C 34.636719 14.839844 34.886719 14.292969 35.140625 13.804688 C 35.453125 13.257812 35.703125 12.648438 35.578125 12.039062 C 35.464844 11.503906 35.070312 11.160156 34.636719 11.160156 Z M 34.636719 11.160156 "/>
<path style=" stroke:none;fill-rule:nonzero;fill:rgb(93.333334%,80.000001%,26.666668%);fill-opacity:1;" d="M 60.195312 25.496094 C 60.195312 27.582031 61.941406 29.273438 64.089844 29.273438 C 66.242188 29.273438 67.984375 27.582031 67.984375 25.496094 C 67.984375 23.410156 66.242188 21.722656 64.089844 21.722656 C 61.941406 21.722656 60.195312 23.410156 60.195312 25.496094 Z M 60.195312 25.496094 "/>
<path style=" stroke:none;fill-rule:nonzero;fill:rgb(93.333334%,33.333334%,26.666668%);fill-opacity:1;" d="M 30.742188 63.3125 L 13.597656 61.363281 L 13.597656 45.652344 Z M 30.742188 63.3125 "/>
<path style=" stroke:none;fill-rule:nonzero;fill:rgb(78.823531%,79.215688%,80.000001%);fill-opacity:1;" d="M 49.835938 19.347656 C 50.460938 19.347656 50.839844 20.015625 49.644531 20.257812 C 49.332031 20.382812 49.019531 20.503906 47.886719 20.257812 C 46.820312 20.015625 44.621094 20.503906 44.371094 20.867188 C 44.183594 21.292969 45 19.101562 48.078125 19.40625 C 48.703125 19.527344 49.457031 19.347656 49.835938 19.347656 Z M 49.835938 19.347656 "/>
<path style=" stroke:none;fill-rule:nonzero;fill:rgb(21.960784%,25.098041%,27.843139%);fill-opacity:1;" d="M 47.949219 20.988281 C 46.695312 21.171875 45.3125 21.292969 44.683594 22.085938 C 44.683594 22.085938 46.066406 21.476562 47.636719 21.78125 C 47.636719 21.78125 47.449219 23.121094 48.390625 23.183594 C 49.332031 23.242188 49.207031 21.722656 49.207031 21.722656 C 50.902344 21.171875 49.773438 20.808594 47.949219 20.988281 Z M 49.207031 23.488281 C 49.207031 23.488281 48.078125 24.828125 46.378906 23.488281 C 46.378906 23.488281 48.640625 24.097656 49.207031 23.488281 Z M 49.207031 23.488281 "/>
<path style=" stroke:none;fill-rule:nonzero;fill:rgb(93.333334%,33.333334%,26.666668%);fill-opacity:1;" d="M 13.621094 61.324219 L 19.550781 57.433594 L 30.789062 63.363281 L 23.441406 69.351562 Z M 38.324219 64.261719 L 53.949219 61.503906 L 71.117188 68.09375 L 52.773438 77.671875 Z M 38.324219 64.261719 "/>
<path style=" stroke:none;fill-rule:nonzero;fill:rgb(93.333334%,80.000001%,26.666668%);fill-opacity:1;" d="M 71.117188 68.03125 L 73.710938 68.273438 L 76.488281 68.691406 L 73.523438 70.1875 Z M 71.117188 68.03125 "/>
<path style=" stroke:none;fill-rule:nonzero;fill:rgb(21.960784%,25.098041%,27.843139%);fill-opacity:1;" d="M 30.789062 63.363281 L 33.320312 61.566406 L 38.261719 64.261719 L 42.027344 71.566406 Z M 30.789062 63.363281 "/>
<path style=" stroke:none;fill-rule:nonzero;fill:rgb(70.19608%,70.19608%,70.19608%);fill-opacity:1;" d="M 24.277344 107.75 L 20.089844 108.175781 L 19.882812 106.238281 L 18.722656 104.273438 L 20.34375 103.496094 L 21.945312 101.984375 L 23.054688 101.136719 Z M 24.277344 107.75 "/>
<path style=" stroke:none;fill-rule:nonzero;fill:rgb(61.176473%,61.176473%,61.176473%);fill-opacity:1;" d="M 29.269531 106.628906 L 30.914062 105.480469 L 32.828125 105.101562 L 31.851562 103.058594 L 32 100.960938 L 30.109375 100.96875 L 28.167969 100.554688 Z M 29.269531 106.628906 "/>
<path style=" stroke:none;fill-rule:nonzero;fill:rgb(21.960784%,25.098041%,27.843139%);fill-opacity:1;" d="M 18.832031 68.015625 L 15.929688 68.617188 L 23.128906 98.925781 L 24.660156 99.074219 L 26.144531 98.191406 Z M 18.832031 68.015625 "/>
<path style=" stroke:none;fill-rule:nonzero;fill:rgb(52.549022%,52.549022%,52.549022%);fill-opacity:1;" d="M 22.566406 106.164062 C 22.566406 106.164062 20.179688 103.730469 23.570312 100.625 L 23.128906 98.855469 L 26.207031 98.125 L 26.648438 99.953125 C 31.230469 101.230469 29.785156 104.824219 29.785156 104.824219 Z M 22.566406 106.164062 "/>
<path style=" stroke:none;fill-rule:nonzero;fill:rgb(81.960785%,81.960785%,81.960785%);fill-opacity:1;" d="M 20.089844 108.175781 L 20.480469 107.09375 L 25.054688 107.363281 L 24.277344 107.75 Z M 20.089844 108.175781 "/>
<path style=" stroke:none;fill-rule:nonzero;fill:rgb(72.941178%,72.941178%,72.941178%);fill-opacity:1;" d="M 29.269531 106.628906 L 31.988281 104.328125 L 32.828125 105.101562 Z M 29.269531 106.628906 "/>
<path style=" stroke:none;fill-rule:nonzero;fill:rgb(45.09804%,45.09804%,45.09804%);fill-opacity:1;" d="M 28.105469 100.5625 L 31.144531 101.78125 L 32 100.960938 Z M 28.105469 100.5625 "/>
<path style=" stroke:none;fill-rule:nonzero;fill:rgb(50.980395%,50.980395%,50.980395%);fill-opacity:1;" d="M 18.714844 104.214844 L 19.78125 104.714844 L 21.882812 101.992188 Z M 18.714844 104.214844 "/>
<path style=" stroke:none;fill-rule:nonzero;fill:rgb(47.058824%,47.450981%,48.627451%);fill-opacity:1;" d="M 31.925781 104.335938 L 31.144531 101.78125 L 32 100.960938 L 32.828125 105.101562 Z M 31.925781 104.335938 "/>
<path style=" stroke:none;fill-rule:nonzero;fill:rgb(61.56863%,61.56863%,62.7451%);fill-opacity:1;" d="M 20.089844 108.175781 L 18.714844 104.214844 L 19.78125 104.714844 L 20.417969 107.101562 Z M 20.089844 108.175781 "/>
<path style=" stroke:none;fill-rule:nonzero;fill:rgb(33.333334%,46.666667%,53.333336%);fill-opacity:1;" d="M 55.21875 91.976562 L 64.453125 83.9375 L 43.917969 67.558594 L 26.648438 79.25 C 26.648438 79.25 30.792969 84.914062 34.683594 88.566406 C 35.3125 88.992188 37.824219 89.539062 40.964844 90.089844 C 45.703125 90.824219 50.453125 91.453125 55.21875 91.976562 Z M 55.21875 91.976562 "/>
<g clip-path="url(#clip5)" clip-rule="nonzero">
<g clip-path="url(#clip6)" clip-rule="nonzero">
<path style=" stroke:none;fill-rule:nonzero;fill:rgb(21.960784%,25.098041%,27.843139%);fill-opacity:1;" d="M 38.011719 90.394531 C 38.421875 89.773438 38.492188 89 38.203125 88.324219 C 37.761719 87.410156 36.695312 86.859375 35.753906 86.007812 C 35.402344 85.667969 35.105469 85.277344 34.875 84.851562 L 34.683594 84.484375 L 34.621094 84.484375 L 34.621094 84.667969 C 34.527344 85.203125 34.335938 85.71875 34.058594 86.191406 L 34.058594 86.253906 C 33.429688 87.347656 32.550781 88.140625 32.425781 89.175781 Z M 39.144531 88.078125 L 42.472656 84.914062 C 42.121094 84.570312 41.824219 84.183594 41.59375 83.753906 L 41.40625 83.449219 L 41.34375 83.449219 L 41.34375 83.574219 C 41.253906 84.128906 41.0625 84.667969 40.777344 85.15625 C 40.148438 86.253906 39.269531 87.042969 39.144531 88.078125 Z M 31.921875 86.433594 L 31.921875 86.253906 C 32.015625 85.714844 32.203125 85.199219 32.488281 84.730469 C 33.113281 83.574219 33.996094 82.78125 34.121094 81.746094 C 34.191406 81.035156 33.910156 80.335938 33.367188 79.859375 C 33.089844 79.625 32.726562 79.515625 32.363281 79.554688 C 31.609375 79.675781 31.105469 80.34375 31.105469 81.136719 L 30.664062 80.46875 C 30.289062 80.101562 29.847656 79.917969 29.410156 79.980469 C 29.03125 79.980469 28.71875 80.222656 28.53125 80.589844 C 28.164062 81.175781 28.09375 81.894531 28.34375 82.539062 C 28.953125 83.890625 30.691406 84.394531 31.671875 86.070312 L 31.859375 86.433594 Z M 38.640625 85.339844 L 38.640625 85.21875 C 38.730469 84.664062 38.917969 84.121094 39.207031 83.632812 C 39.835938 82.476562 40.714844 81.683594 40.839844 80.648438 C 40.910156 79.941406 40.628906 79.242188 40.085938 78.761719 C 39.808594 78.53125 39.445312 78.417969 39.082031 78.457031 C 38.328125 78.578125 37.824219 79.25 37.824219 80.039062 L 37.386719 79.371094 C 37.007812 79.003906 36.570312 78.824219 36.128906 78.882812 C 35.753906 78.882812 35.4375 79.128906 35.25 79.492188 C 34.863281 80.097656 34.792969 80.839844 35.0625 81.503906 C 35.5 82.476562 36.570312 82.964844 37.511719 83.878906 C 37.855469 84.199219 38.152344 84.570312 38.390625 84.972656 L 38.578125 85.339844 Z M 45.109375 83.9375 L 45.425781 83.753906 C 45.53125 83.328125 45.699219 82.921875 45.925781 82.539062 L 45.925781 82.597656 C 46.554688 81.441406 47.433594 80.648438 47.558594 79.554688 C 47.609375 78.863281 47.332031 78.191406 46.804688 77.726562 C 46.535156 77.472656 46.175781 77.335938 45.800781 77.363281 C 45.046875 77.484375 44.542969 78.152344 44.542969 79.003906 C 44.417969 78.703125 44.292969 78.457031 44.105469 78.273438 C 43.726562 77.910156 43.289062 77.789062 42.847656 77.789062 C 42.472656 77.847656 42.160156 78.09375 41.96875 78.398438 C 41.582031 79 41.515625 79.746094 41.78125 80.40625 C 42.222656 81.378906 43.289062 81.929688 44.230469 82.78125 C 44.582031 83.121094 44.878906 83.511719 45.109375 83.9375 Z M 51.828125 82.84375 L 52.144531 82.660156 C 52.25 82.234375 52.417969 81.820312 52.644531 81.441406 C 53.273438 80.34375 54.152344 79.554688 54.277344 78.519531 L 48.6875 77.300781 C 48.304688 77.90625 48.234375 78.648438 48.5 79.308594 C 48.941406 80.285156 50.007812 80.832031 50.949219 81.683594 C 51.300781 82.023438 51.597656 82.414062 51.828125 82.84375 Z M 31.355469 78.578125 C 32.046875 78.519531 32.613281 77.789062 32.613281 76.996094 C 32.71875 77.238281 32.863281 77.472656 33.050781 77.667969 C 33.367188 78.03125 33.804688 78.214844 34.308594 78.152344 C 34.679688 78.082031 35 77.859375 35.1875 77.542969 C 35.550781 76.960938 35.628906 76.242188 35.375 75.597656 C 34.9375 74.621094 33.867188 74.074219 32.925781 73.160156 L 29.597656 76.386719 C 29.527344 77.097656 29.808594 77.796875 30.351562 78.273438 C 30.628906 78.507812 30.992188 78.617188 31.355469 78.578125 Z M 38.011719 77.484375 C 38.765625 77.421875 39.269531 76.753906 39.269531 75.960938 C 39.382812 76.1875 39.527344 76.386719 39.710938 76.570312 C 40.085938 76.933594 40.527344 77.117188 40.964844 77.117188 C 41.335938 77.046875 41.65625 76.824219 41.84375 76.507812 C 42.226562 75.898438 42.296875 75.164062 42.03125 74.5 C 41.59375 73.523438 40.527344 72.976562 39.582031 72.125 C 37.996094 70.378906 38.929688 70.335938 37.886719 72.367188 L 37.886719 72.308594 C 37.261719 73.464844 36.378906 74.257812 36.253906 75.351562 C 36.203125 76.039062 36.480469 76.714844 37.007812 77.179688 C 37.285156 77.410156 37.648438 77.523438 38.011719 77.484375 Z M 44.796875 76.449219 C 45.425781 76.328125 45.988281 75.65625 46.050781 74.804688 L 44.609375 71.273438 L 44.609375 71.210938 C 43.980469 72.429688 43.101562 73.160156 42.976562 74.257812 C 42.921875 74.945312 43.203125 75.617188 43.726562 76.082031 C 44.007812 76.355469 44.402344 76.488281 44.796875 76.449219 Z M 44.796875 76.449219 "/>
</g>
</g>
<g clip-path="url(#clip7)" clip-rule="nonzero">
<g clip-path="url(#clip8)" clip-rule="nonzero">
<path style=" stroke:none;fill-rule:nonzero;fill:rgb(84.313726%,15.294118%,18.82353%);fill-opacity:1;" d="M 17.792969 75.597656 C 18.078125 75.105469 18.269531 74.570312 18.355469 74.011719 L 18.355469 73.890625 L 18.421875 73.890625 L 18.609375 74.195312 C 18.839844 74.621094 19.136719 75.011719 19.488281 75.351562 C 20.429688 76.265625 21.496094 76.753906 21.9375 77.726562 C 22.203125 78.386719 22.132812 79.132812 21.75 79.738281 C 21.558594 80.050781 21.238281 80.273438 20.871094 80.34375 C 20.429688 80.34375 19.988281 80.222656 19.613281 79.859375 C 19.421875 79.644531 19.269531 79.394531 19.171875 79.128906 C 19.171875 79.980469 18.671875 80.648438 17.917969 80.773438 C 17.605469 80.773438 17.289062 80.648438 16.914062 80.40625 C 16.386719 79.941406 16.109375 79.269531 16.160156 78.578125 C 16.285156 77.484375 17.164062 76.753906 17.792969 75.535156 Z M 17.792969 75.597656 "/>
</g>
</g>
<path style=" stroke:none;fill-rule:nonzero;fill:rgb(53.333336%,40.000001%,33.333334%);fill-opacity:1;" d="M 50.195312 115.238281 L 38.078125 113.046875 L 38.578125 109.390625 L 36.695312 104.335938 L 38.390625 103.910156 L 38.140625 102.023438 L 39.582031 101.355469 L 39.144531 100.257812 C 39.144531 100.257812 41.089844 99.648438 40.148438 98.675781 C 39.207031 97.699219 38.390625 95.996094 42.847656 95.75 C 45.550781 95.628906 46.929688 94.410156 44.734375 90.636719 C 44.671875 91 46.617188 84.914062 49.632812 84.730469 C 54.089844 84.484375 60.308594 89.964844 60.308594 89.964844 Z M 50.195312 115.238281 "/>
<path style=" stroke:none;fill-rule:nonzero;fill:rgb(78.823531%,79.215688%,80.000001%);fill-opacity:1;" d="M 48.5625 115.601562 C 48.5625 115.601562 44.480469 113.835938 47.246094 97.945312 C 47.246094 97.945312 47.746094 95.144531 45.800781 93.804688 C 43.855469 92.402344 51.953125 91.488281 62.128906 92.949219 C 62.128906 92.949219 65.082031 97.820312 62.003906 101.355469 C 60.195312 105.894531 59.132812 110.683594 58.863281 115.542969 Z M 48.5625 115.601562 "/>
<path style=" stroke:none;fill-rule:nonzero;fill:rgb(93.333334%,33.333334%,26.666668%);fill-opacity:1;" d="M 44.796875 90.878906 L 37.886719 89.964844 C 37.886719 89.964844 40.714844 83.269531 49.378906 82.539062 C 56.113281 82.292969 62.605469 84.972656 67.089844 89.84375 L 59.554688 91.488281 C 59.554688 91.488281 56.851562 88.140625 51.515625 87.957031 C 46.242188 87.835938 44.796875 90.878906 44.796875 90.878906 Z M 39.082031 124.554688 L 38.390625 120.351562 L 36.316406 120.960938 L 38.078125 112.621094 C 44.355469 114.628906 51.765625 114.082031 60.054688 113.351562 L 60.433594 117.613281 C 60.433594 117.613281 55.785156 121.691406 48.375 122.789062 L 45.863281 120.960938 L 43.726562 123.398438 L 42.285156 121.207031 Z M 39.082031 124.554688 "/>
<path style=" stroke:none;fill-rule:nonzero;fill:rgb(53.333336%,40.000001%,33.333334%);fill-opacity:1;" d="M 21.371094 70.480469 L 26.835938 77.605469 L 24.324219 79.613281 C 24.324219 79.613281 22.4375 80.710938 21.496094 82.171875 C 21.246094 82.597656 19.988281 81.988281 21.308594 80.222656 L 22.375 78.519531 L 17.792969 81.5625 C 17.792969 81.5625 15.28125 83.390625 15.28125 82.414062 C 15.28125 81.808594 16.285156 80.648438 16.722656 80.40625 C 17.164062 80.164062 20.242188 77.238281 20.242188 77.238281 L 16.535156 79.433594 C 16.535156 79.433594 13.773438 81.257812 13.585938 80.894531 C 12.957031 79.554688 14.714844 78.578125 15.15625 78.335938 C 15.65625 78.09375 19.300781 75.414062 19.300781 75.414062 L 14.527344 77.484375 C 14.527344 77.484375 12.640625 78.578125 12.640625 78.09375 C 12.390625 76.933594 13.710938 76.265625 13.960938 76.144531 L 18.042969 74.074219 L 16.789062 74.074219 C 16.789062 74.074219 13.207031 74.988281 13.207031 74.683594 C 13.207031 73.222656 19.738281 71.210938 19.738281 71.210938 Z M 21.371094 70.480469 "/>
<path style=" stroke:none;fill-rule:nonzero;fill:rgb(21.960784%,25.098041%,27.843139%);fill-opacity:1;" d="M 74.125 88.566406 C 66.398438 81.257812 58.421875 74.132812 51.828125 65.851562 L 59.367188 66.765625 C 68.15625 70.785156 71.675781 77.484375 76.507812 84.425781 C 76.507812 87.835938 74.125 88.566406 74.125 88.566406 Z M 74.125 88.566406 "/>
<path style=" stroke:none;fill-rule:nonzero;fill:rgb(93.333334%,86.666667%,86.666667%);fill-opacity:1;" d="M 74.125 88.566406 L 72.363281 88.871094 L 49.570312 65.972656 L 51.765625 65.851562 Z M 74.125 88.566406 "/>
<path style=" stroke:none;fill-rule:nonzero;fill:rgb(21.960784%,25.098041%,27.843139%);fill-opacity:1;" d="M 49.820312 65.730469 L 40.210938 70.296875 L 63.132812 91 L 72.554688 88.871094 Z M 49.820312 65.730469 "/>
<path style=" stroke:none;fill-rule:nonzero;fill:rgb(93.333334%,86.666667%,86.666667%);fill-opacity:1;" d="M 47.746094 67.132812 L 43.164062 69.078125 L 65.457031 90.453125 L 70.292969 89.417969 Z M 47.746094 67.132812 "/>
<path style=" stroke:none;fill-rule:nonzero;fill:rgb(93.333334%,33.333334%,26.666668%);fill-opacity:1;" d="M 30.476562 77.117188 C 25.132812 73.363281 21.136719 68.085938 19.046875 62.015625 L 51.828125 65.851562 Z M 30.476562 77.117188 "/>
<path style=" stroke:none;fill-rule:nonzero;fill:rgb(93.333334%,80.000001%,26.666668%);fill-opacity:1;" d="M 26.648438 79.25 L 13.710938 61.40625 L 19.046875 62.015625 L 30.476562 77.179688 Z M 26.648438 79.25 "/>
<path style=" stroke:none;fill-rule:nonzero;fill:rgb(87.843138%,88.235295%,88.627452%);fill-opacity:1;" d="M 48.375 92.464844 C 48.375 92.464844 50.761719 92.949219 50.886719 96.300781 C 51.011719 99.648438 47.871094 106.773438 49.632812 112.316406 C 49.632812 112.316406 50.070312 101.476562 51.515625 96.421875 C 52.960938 91.367188 48.375 92.464844 48.375 92.464844 Z M 48.375 92.464844 "/>
<path style=" stroke:none;fill-rule:nonzero;fill:rgb(87.843138%,88.235295%,88.627452%);fill-opacity:1;" d="M 51.953125 92.339844 C 51.953125 92.339844 54.339844 92.949219 54.46875 96.300781 C 54.59375 99.648438 51.765625 106.773438 53.523438 112.316406 C 53.523438 112.316406 53.652344 101.476562 55.09375 96.421875 C 56.539062 91.367188 51.953125 92.339844 51.953125 92.339844 Z M 59.742188 113.53125 C 59.742188 113.53125 59.617188 106.164062 61.5 103.121094 C 63.382812 100.074219 65.269531 95.082031 62.128906 93.011719 C 62.128906 93.011719 64.328125 96.300781 61.5 100.320312 C 59.367188 103.484375 58.359375 107.992188 58.800781 113.714844 Z M 55.847656 92.339844 C 55.847656 92.339844 58.234375 92.949219 58.359375 96.300781 C 58.484375 99.648438 55.21875 106.773438 57.105469 112.316406 C 57.105469 112.316406 57.542969 102.144531 58.988281 97.089844 C 60.433594 92.035156 55.847656 92.339844 55.847656 92.339844 Z M 55.847656 92.339844 "/>
<path style=" stroke:none;fill-rule:nonzero;fill:rgb(21.960784%,25.098041%,27.843139%);fill-opacity:1;" d="M 37.824219 113.167969 C 37.824219 113.167969 44.417969 115.359375 60.308594 113.777344 L 60.054688 112.558594 C 60.054688 112.558594 47.9375 113.777344 38.140625 112.132812 Z M 37.824219 113.167969 "/>
<path style=" stroke:none;fill-rule:nonzero;fill:rgb(93.333334%,33.333334%,26.666668%);fill-opacity:1;" d="M 66.085938 89.964844 C 66.320312 89.976562 66.550781 89.886719 66.714844 89.722656 C 67.027344 89.417969 66.964844 88.929688 66.714844 88.503906 C 66.847656 88.589844 66.996094 88.652344 67.152344 88.6875 C 67.464844 88.75 67.78125 88.6875 67.96875 88.445312 C 68.15625 88.324219 68.15625 88.078125 68.15625 87.835938 C 68.105469 87.40625 67.847656 87.023438 67.464844 86.800781 C 66.902344 86.554688 66.148438 86.679688 65.394531 86.554688 C 65.089844 86.519531 64.792969 86.4375 64.515625 86.3125 L 64.328125 86.253906 C 64.265625 86.253906 64.328125 86.3125 64.328125 86.3125 C 64.492188 86.617188 64.597656 86.945312 64.640625 87.289062 C 64.765625 88.078125 64.640625 88.75 64.953125 89.296875 C 65.207031 89.664062 65.644531 89.964844 66.085938 89.964844 Z M 63.070312 87.042969 C 63.304688 87.054688 63.535156 86.964844 63.699219 86.800781 C 64.011719 86.554688 63.949219 86.007812 63.699219 85.582031 C 63.832031 85.667969 63.980469 85.730469 64.136719 85.765625 C 64.453125 85.824219 64.765625 85.765625 64.953125 85.582031 C 65.144531 85.398438 65.144531 85.21875 65.144531 84.972656 C 65.089844 84.542969 64.835938 84.160156 64.453125 83.9375 C 63.886719 83.632812 63.132812 83.753906 62.378906 83.632812 C 62.074219 83.597656 61.777344 83.515625 61.5 83.390625 L 61.3125 83.328125 C 61.25 83.328125 61.3125 83.390625 61.3125 83.449219 C 61.480469 83.753906 61.585938 84.085938 61.625 84.425781 L 61.625 84.363281 C 61.75 85.15625 61.625 85.824219 61.941406 86.433594 C 62.191406 86.738281 62.632812 87.042969 63.070312 87.042969 Z M 60.054688 84.183594 C 60.292969 84.191406 60.519531 84.105469 60.683594 83.9375 C 61 83.632812 60.933594 83.148438 60.683594 82.71875 C 60.820312 82.804688 60.96875 82.867188 61.125 82.902344 C 61.4375 82.964844 61.75 82.902344 61.941406 82.660156 C 62.089844 82.492188 62.15625 82.269531 62.128906 82.050781 C 62.074219 81.621094 61.820312 81.238281 61.4375 81.015625 C 60.871094 80.773438 60.117188 80.894531 59.367188 80.773438 C 59.0625 80.734375 58.765625 80.652344 58.484375 80.527344 L 58.296875 80.46875 C 58.234375 80.46875 58.296875 80.527344 58.296875 80.527344 C 58.460938 80.832031 58.566406 81.160156 58.613281 81.503906 C 58.738281 82.292969 58.613281 82.964844 58.925781 83.511719 C 59.175781 83.878906 59.617188 84.183594 60.054688 84.183594 Z M 56.980469 81.257812 C 57.214844 81.269531 57.445312 81.179688 57.605469 81.015625 C 57.921875 80.773438 57.859375 80.222656 57.605469 79.796875 C 57.742188 79.882812 57.890625 79.945312 58.046875 79.980469 C 58.359375 80.039062 58.675781 79.980469 58.863281 79.796875 C 59.050781 79.613281 59.050781 79.433594 59.050781 79.1875 C 59 78.757812 58.742188 78.375 58.359375 78.152344 C 57.796875 77.847656 57.042969 77.96875 56.289062 77.847656 C 55.984375 77.8125 55.6875 77.730469 55.410156 77.605469 L 55.21875 77.542969 C 55.15625 77.542969 55.21875 77.605469 55.21875 77.667969 C 55.378906 77.949219 55.488281 78.257812 55.535156 78.578125 C 55.660156 79.371094 55.535156 80.039062 55.910156 80.648438 C 56.101562 80.953125 56.539062 81.257812 56.980469 81.257812 Z M 53.964844 78.398438 C 54.199219 78.40625 54.429688 78.320312 54.59375 78.152344 C 54.90625 77.847656 54.84375 77.363281 54.59375 76.933594 C 54.726562 77.019531 54.875 77.082031 55.03125 77.117188 C 55.347656 77.179688 55.660156 77.117188 55.847656 76.875 C 56.035156 76.753906 56.035156 76.507812 56.035156 76.265625 C 55.984375 75.835938 55.730469 75.453125 55.347656 75.230469 C 54.78125 74.925781 54.027344 75.046875 53.273438 74.988281 C 52.964844 74.929688 52.667969 74.828125 52.394531 74.683594 L 52.207031 74.683594 C 52.144531 74.683594 52.207031 74.742188 52.207031 74.742188 L 52.269531 74.925781 C 52.390625 75.175781 52.476562 75.441406 52.519531 75.71875 C 52.644531 76.507812 52.519531 77.179688 52.835938 77.726562 C 53.085938 78.09375 53.523438 78.398438 53.964844 78.398438 Z M 27.210938 78.335938 C 27.371094 78.367188 27.535156 78.320312 27.652344 78.214844 C 27.902344 78.03125 27.964844 77.726562 27.777344 77.363281 C 27.867188 77.441406 27.976562 77.503906 28.089844 77.542969 C 28.277344 77.613281 28.488281 77.589844 28.65625 77.484375 C 28.765625 77.390625 28.832031 77.257812 28.84375 77.117188 C 28.90625 76.8125 28.71875 76.507812 28.53125 76.328125 C 28.152344 76.023438 27.652344 76.082031 27.148438 75.898438 L 26.519531 75.597656 C 26.457031 75.597656 26.457031 75.65625 26.519531 75.65625 C 26.519531 75.695312 26.519531 75.738281 26.519531 75.777344 L 26.582031 76.328125 C 26.582031 76.875 26.394531 77.363281 26.582031 77.726562 C 26.710938 78.03125 26.960938 78.273438 27.210938 78.335938 Z M 25.578125 76.023438 C 25.738281 76.050781 25.902344 76.007812 26.019531 75.898438 C 26.269531 75.71875 26.332031 75.414062 26.144531 75.109375 C 26.269531 75.230469 26.332031 75.230469 26.457031 75.230469 C 26.632812 75.328125 26.847656 75.328125 27.023438 75.230469 C 27.148438 75.121094 27.21875 74.964844 27.210938 74.804688 C 27.210938 74.5 27.085938 74.195312 26.835938 74.011719 C 26.519531 73.769531 26.019531 73.769531 25.578125 73.648438 C 25.351562 73.585938 25.140625 73.480469 24.949219 73.34375 L 24.824219 73.28125 C 24.921875 73.535156 24.960938 73.804688 24.949219 74.074219 C 24.949219 74.558594 24.761719 75.046875 24.949219 75.414062 C 25.078125 75.71875 25.328125 75.960938 25.578125 76.023438 Z M 50.949219 75.472656 C 51.1875 75.484375 51.414062 75.394531 51.578125 75.230469 C 51.890625 74.988281 51.828125 74.4375 51.578125 74.011719 C 51.710938 74.097656 51.863281 74.160156 52.019531 74.195312 C 52.332031 74.257812 52.644531 74.195312 52.835938 74.011719 C 52.980469 73.84375 53.050781 73.625 53.023438 73.402344 C 52.96875 72.972656 52.714844 72.589844 52.332031 72.367188 C 51.765625 72.0625 51.011719 72.1875 50.257812 72.0625 C 49.957031 72.027344 49.660156 71.945312 49.378906 71.820312 L 49.191406 71.757812 C 49.128906 71.757812 49.191406 71.820312 49.191406 71.882812 C 49.355469 72.183594 49.460938 72.515625 49.503906 72.855469 L 49.503906 72.792969 C 49.632812 73.585938 49.503906 74.257812 49.820312 74.863281 C 50.070312 75.167969 50.511719 75.472656 50.949219 75.472656 Z M 24.109375 73.71875 C 24.183594 73.710938 24.257812 73.683594 24.324219 73.648438 C 24.574219 73.464844 24.636719 73.097656 24.449219 72.792969 C 24.574219 72.855469 24.636719 72.976562 24.761719 72.976562 C 24.949219 73.046875 25.160156 73.023438 25.328125 72.917969 C 25.453125 72.808594 25.523438 72.652344 25.515625 72.488281 C 25.515625 72.246094 25.390625 71.941406 25.203125 71.757812 C 24.824219 71.453125 24.324219 71.453125 23.820312 71.332031 C 23.632812 71.273438 23.445312 71.210938 23.320312 71.027344 L 23.128906 71.027344 L 23.128906 71.089844 C 23.210938 71.304688 23.253906 71.53125 23.253906 71.757812 C 23.253906 72.308594 23.066406 72.734375 23.253906 73.160156 C 23.382812 73.402344 23.632812 73.707031 23.882812 73.707031 C 23.957031 73.726562 24.035156 73.730469 24.109375 73.71875 Z M 47.871094 72.613281 C 48.109375 72.621094 48.335938 72.535156 48.5 72.367188 C 48.816406 72.0625 48.753906 71.578125 48.5 71.152344 C 48.636719 71.234375 48.785156 71.296875 48.941406 71.332031 C 49.238281 71.394531 49.546875 71.300781 49.757812 71.089844 C 49.945312 70.96875 49.945312 70.722656 49.945312 70.480469 C 49.894531 70.050781 49.636719 69.667969 49.253906 69.445312 C 48.6875 69.140625 47.9375 69.261719 47.183594 69.203125 C 46.875 69.144531 46.578125 69.042969 46.304688 68.898438 L 46.113281 68.898438 C 46.050781 68.898438 46.113281 68.957031 46.113281 68.957031 C 46.136719 69.019531 46.160156 69.078125 46.175781 69.140625 C 46.300781 69.390625 46.382812 69.660156 46.429688 69.933594 C 46.554688 70.722656 46.429688 71.394531 46.742188 71.941406 C 46.992188 72.308594 47.433594 72.613281 47.871094 72.613281 Z M 22.476562 71.414062 C 22.554688 71.402344 22.625 71.375 22.691406 71.332031 C 22.941406 71.152344 23.003906 70.847656 22.816406 70.480469 L 23.128906 70.664062 C 23.316406 70.730469 23.527344 70.710938 23.695312 70.601562 C 23.804688 70.507812 23.871094 70.378906 23.882812 70.238281 C 23.882812 69.933594 23.757812 69.628906 23.507812 69.445312 C 23.191406 69.140625 22.691406 69.203125 22.25 69.019531 L 21.621094 68.777344 L 21.496094 68.714844 L 21.496094 68.777344 C 21.578125 68.992188 21.621094 69.21875 21.621094 69.445312 C 21.621094 69.992188 21.433594 70.480469 21.621094 70.847656 C 21.75 71.152344 22 71.394531 22.25 71.394531 C 22.324219 71.417969 22.402344 71.421875 22.476562 71.414062 Z M 20.554688 69.140625 C 20.714844 69.171875 20.875 69.125 20.996094 69.019531 C 21.246094 68.835938 21.308594 68.53125 21.121094 68.226562 L 21.433594 68.347656 C 21.621094 68.472656 21.8125 68.410156 22 68.347656 C 22.125 68.242188 22.191406 68.085938 22.1875 67.921875 C 22.25 67.617188 22.0625 67.3125 21.875 67.132812 C 21.496094 66.886719 20.996094 66.886719 20.492188 66.707031 C 20.265625 66.640625 20.054688 66.535156 19.863281 66.402344 L 19.863281 66.460938 C 19.863281 66.503906 19.863281 66.542969 19.863281 66.582031 L 19.925781 67.132812 C 19.925781 67.679688 19.738281 68.167969 19.925781 68.53125 C 20.050781 68.835938 20.304688 69.078125 20.554688 69.140625 Z M 18.921875 66.828125 C 19.070312 66.875 19.234375 66.851562 19.363281 66.765625 C 19.613281 66.523438 19.675781 66.21875 19.488281 65.914062 C 19.582031 65.972656 19.691406 66.011719 19.800781 66.035156 C 19.972656 66.148438 20.195312 66.148438 20.367188 66.035156 C 20.492188 65.925781 20.558594 65.769531 20.554688 65.609375 C 20.582031 65.3125 20.464844 65.019531 20.242188 64.816406 C 19.863281 64.574219 19.363281 64.574219 18.859375 64.453125 L 18.355469 64.148438 C 18.292969 64.148438 18.230469 64.085938 18.230469 64.148438 C 18.167969 64.148438 18.167969 64.148438 18.230469 64.207031 C 18.230469 64.230469 18.230469 64.25 18.230469 64.269531 L 18.292969 64.878906 C 18.292969 65.367188 18.105469 65.851562 18.292969 66.21875 C 18.421875 66.523438 18.671875 66.828125 18.921875 66.828125 Z M 17.226562 64.511719 C 17.375 64.558594 17.539062 64.539062 17.667969 64.453125 C 17.917969 64.269531 17.980469 63.902344 17.792969 63.601562 C 17.882812 63.679688 17.988281 63.742188 18.105469 63.78125 C 18.292969 63.851562 18.503906 63.828125 18.671875 63.722656 C 18.78125 63.628906 18.847656 63.496094 18.859375 63.355469 C 18.859375 63.050781 18.734375 62.746094 18.484375 62.5625 C 18.167969 62.261719 17.667969 62.320312 17.226562 62.136719 L 16.597656 61.894531 L 16.472656 61.832031 L 16.472656 61.894531 C 16.554688 62.109375 16.59375 62.335938 16.597656 62.5625 C 16.597656 63.113281 16.410156 63.601562 16.597656 63.964844 C 16.722656 64.269531 16.976562 64.511719 17.226562 64.511719 Z M 17.226562 64.511719 "/>
<path style=" stroke:none;fill-rule:nonzero;fill:rgb(78.823531%,79.215688%,80.000001%);fill-opacity:1;" d="M 40.460938 99.464844 L 39.207031 98.1875 L 39.269531 96.359375 L 43.601562 95.507812 C 43.601562 95.507812 43.917969 97.089844 43.664062 97.578125 C 43.414062 98.066406 41.90625 99.101562 40.460938 99.40625 Z M 38.140625 102.023438 L 41.277344 102.265625 L 40.839844 103.058594 L 38.328125 103.910156 Z M 38.140625 102.023438 "/>
<path style=" stroke:none;fill-rule:nonzero;fill:rgb(93.333334%,86.666667%,86.666667%);fill-opacity:1;" d="M 48.625 120.414062 C 48.671875 120.414062 48.714844 120.425781 48.753906 120.414062 C 49.253906 120.296875 49.757812 119.804688 49.882812 119.195312 C 50.070312 119.804688 50.511719 120.171875 51.136719 120.171875 C 51.828125 120.109375 52.207031 119.4375 52.207031 118.648438 C 52.082031 117.855469 51.515625 117.1875 50.949219 116.636719 C 50.320312 116.089844 49.820312 115.542969 49.441406 114.933594 C 49.144531 115.625 48.765625 116.277344 48.3125 116.882812 C 47.871094 117.492188 47.371094 118.222656 47.496094 119.074219 C 47.496094 119.816406 48 120.394531 48.625 120.414062 Z M 41.886719 120.058594 C 42.402344 120.03125 42.804688 119.511719 42.910156 118.769531 C 43.039062 117.917969 42.660156 117.125 42.285156 116.457031 C 41.90625 115.726562 41.59375 114.992188 41.40625 114.386719 C 40.988281 114.984375 40.503906 115.535156 39.960938 116.027344 C 39.335938 116.554688 38.894531 117.257812 38.703125 118.039062 C 38.578125 118.890625 38.894531 119.621094 39.519531 119.742188 C 40.023438 119.867188 40.527344 119.4375 40.777344 118.832031 C 40.777344 119.4375 41.152344 119.988281 41.65625 120.046875 C 41.738281 120.058594 41.8125 120.066406 41.886719 120.058594 Z M 55.472656 118.914062 C 55.535156 118.914062 55.597656 118.910156 55.660156 118.890625 C 56.101562 118.769531 56.351562 118.402344 56.351562 117.917969 C 56.601562 118.34375 57.042969 118.585938 57.480469 118.464844 C 57.984375 118.34375 58.234375 117.855469 58.109375 117.246094 C 57.921875 116.636719 57.292969 116.210938 56.851562 115.847656 C 56.414062 115.480469 55.910156 115.117188 55.597656 114.75 C 55.472656 115.238281 55.21875 115.785156 54.96875 116.273438 C 54.65625 116.820312 54.402344 117.429688 54.53125 118.039062 C 54.644531 118.574219 55.039062 118.914062 55.472656 118.914062 Z M 55.472656 118.914062 "/>
<path style=" stroke:none;fill-rule:nonzero;fill:rgb(93.333334%,80.000001%,26.666668%);fill-opacity:1;" d="M 29.914062 104.582031 C 29.914062 102.496094 28.167969 100.804688 26.019531 100.804688 C 23.867188 100.804688 22.125 102.496094 22.125 104.582031 C 22.125 106.667969 23.867188 108.355469 26.019531 108.355469 C 28.167969 108.355469 29.914062 106.667969 29.914062 104.582031 Z M 29.914062 104.582031 "/>
<path style=" stroke:none;fill-rule:nonzero;fill:rgb(93.333334%,33.333334%,26.666668%);fill-opacity:1;" d="M 59.367188 66.765625 L 76.507812 68.714844 L 76.507812 84.425781 Z M 59.367188 66.765625 "/>
<path style=" stroke:none;fill-rule:nonzero;fill:rgb(78.823531%,79.215688%,80.000001%);fill-opacity:1;" d="M 40.273438 110.730469 C 39.644531 110.730469 39.269531 110.0625 40.460938 109.816406 C 40.777344 109.695312 41.089844 109.574219 42.222656 109.816406 C 43.289062 110.0625 45.488281 109.574219 45.738281 109.207031 C 45.925781 108.78125 45.109375 110.976562 42.03125 110.671875 C 41.40625 110.546875 40.652344 110.730469 40.273438 110.730469 Z M 40.273438 110.730469 "/>
<path style=" stroke:none;fill-rule:nonzero;fill:rgb(21.960784%,25.098041%,27.843139%);fill-opacity:1;" d="M 42.160156 109.085938 C 43.414062 108.90625 44.796875 108.78125 45.421875 107.992188 C 45.421875 107.992188 44.042969 108.601562 42.472656 108.296875 C 42.472656 108.296875 42.660156 106.957031 41.71875 106.894531 C 40.777344 106.835938 40.902344 108.355469 40.902344 108.355469 C 39.207031 108.90625 40.335938 109.269531 42.160156 109.085938 Z M 40.902344 106.589844 C 40.902344 106.589844 42.03125 105.25 43.726562 106.589844 C 43.726562 106.589844 41.46875 105.980469 40.902344 106.589844 Z M 40.902344 106.589844 "/>
<path style=" stroke:none;fill-rule:nonzero;fill:rgb(21.960784%,25.098041%,27.843139%);fill-opacity:1;" d="M 27.144531 72.761719 L 61.417969 55.277344 L 62.65625 56.894531 L 28.378906 74.441406 Z M 27.144531 72.761719 "/>
<path style=" stroke:none;fill-rule:nonzero;fill:rgb(93.333334%,33.333334%,26.666668%);fill-opacity:1;" d="M 74.753906 123.730469 C 77.214844 123.730469 78.816406 121.605469 78.816406 118.808594 C 78.816406 115.957031 76.945312 113.46875 75.183594 111.394531 C 73.417969 109.324219 71.816406 107.148438 70.746094 105.074219 C 69.675781 107.148438 68.179688 109.375 66.363281 111.449219 C 64.546875 113.519531 62.730469 115.957031 62.730469 118.808594 C 62.730469 121.605469 64.332031 123.730469 66.792969 123.730469 C 68.609375 123.730469 70.210938 122.175781 70.746094 120.101562 C 71.28125 122.175781 72.882812 123.730469 74.808594 123.730469 Z M 74.753906 123.730469 "/>
<path style=" stroke:none;fill-rule:nonzero;fill:rgb(93.333334%,33.333334%,26.666668%);fill-opacity:1;" d="M 5.640625 22.269531 C 4.332031 22.269531 3.480469 23.371094 3.480469 24.824219 C 3.480469 26.304688 4.476562 27.59375 5.414062 28.671875 C 6.351562 29.746094 7.203125 30.875 7.773438 31.953125 C 8.339844 30.875 9.136719 29.71875 10.105469 28.644531 C 11.070312 27.566406 12.039062 26.304688 12.039062 24.824219 C 12.039062 23.371094 11.183594 22.269531 9.875 22.269531 C 8.910156 22.269531 8.058594 23.074219 7.773438 24.152344 C 7.488281 23.074219 6.636719 22.269531 5.613281 22.269531 Z M 5.640625 22.269531 "/>
<path style=" stroke:none;fill-rule:nonzero;fill:rgb(100%,100%,100%);fill-opacity:1;" d="M 85.40625 125.785156 L 76.839844 125.785156 L 76.839844 95.695312 L 85.40625 95.695312 Z M 85.40625 125.785156 "/>
<path style=" stroke:none;fill-rule:nonzero;fill:rgb(93.333334%,33.333334%,26.666668%);fill-opacity:1;" d="M 84.359375 107.730469 C 85.667969 107.730469 86.519531 106.628906 86.519531 105.175781 C 86.519531 103.695312 85.523438 102.40625 84.585938 101.328125 C 83.648438 100.253906 82.796875 99.125 82.226562 98.046875 C 81.660156 99.125 80.863281 100.28125 79.894531 101.355469 C 78.929688 102.433594 77.960938 103.695312 77.960938 105.175781 C 77.960938 106.628906 78.816406 107.730469 80.125 107.730469 C 81.089844 107.730469 81.941406 106.925781 82.226562 105.847656 C 82.511719 106.925781 83.363281 107.730469 84.386719 107.730469 Z M 84.359375 107.730469 "/>
<path style="fill-rule:nonzero;fill:rgb(93.333334%,33.333334%,26.666668%);fill-opacity:1;stroke-width:0.5;stroke-linecap:butt;stroke-linejoin:round;stroke:rgb(93.333334%,33.333334%,26.666668%);stroke-opacity:1;stroke-miterlimit:4;" d="M 1745.92218 -91.698763 L 1745.92218 -90.679773 C 1746.960591 -90.692753 1747.432596 -90.277369 1747.432596 -89.349244 L 1747.432596 -71.851165 C 1747.432596 -70.780252 1746.809549 -70.57256 1745.92218 -70.520636 L 1745.92218 -69.488665 L 1751.567362 -69.488665 L 1751.567362 -70.520636 C 1750.409376 -70.520636 1750.15764 -71.07881 1750.15764 -71.851165 L 1750.15764 -77.679531 L 1751.101651 -79.321599 L 1754.500088 -71.948521 C 1754.990974 -70.890588 1754.298699 -70.520636 1753.549784 -70.520636 L 1753.549784 -69.488665 L 1759.390063 -69.488665 L 1759.390063 -70.520636 C 1758.452346 -70.520636 1758.062155 -71.072319 1757.690844 -71.851165 L 1752.612067 -82.488907 L 1756.381816 -89.349244 C 1756.941929 -90.368234 1757.130731 -90.569436 1758.081035 -90.679773 L 1758.081035 -91.698763 L 1754.122484 -91.698763 L 1754.122484 -90.679773 C 1755.060201 -90.679773 1755.29935 -90.082657 1755.060201 -89.647801 L 1750.15764 -80.950685 L 1750.15764 -89.349244 C 1750.15764 -89.829532 1750.252041 -90.666792 1751.479255 -90.666792 L 1751.479255 -91.698763 Z M 1745.92218 -91.698763 " transform="matrix(0.62069,0,0,0.601852,-1079.999968,60.18516)"/>
<path style="fill-rule:nonzero;fill:rgb(93.333334%,33.333334%,26.666668%);fill-opacity:1;stroke-width:0.5;stroke-linecap:butt;stroke-linejoin:round;stroke:rgb(93.333334%,33.333334%,26.666668%);stroke-opacity:1;stroke-miterlimit:4;" d="M 1745.921994 -91.698849 L 1745.921994 -90.679858 C 1746.960405 -90.692839 1747.432411 -90.277454 1747.432411 -89.349329 L 1747.432411 -71.851251 C 1747.432411 -70.780338 1746.809364 -70.572645 1745.921994 -70.520722 L 1745.921994 -69.488751 L 1751.567177 -69.488751 L 1751.567177 -70.520722 C 1750.40919 -70.520722 1750.157454 -71.078895 1750.157454 -71.851251 L 1750.157454 -77.679617 L 1751.101465 -79.321684 L 1754.499903 -71.948607 C 1754.990788 -70.890674 1754.298514 -70.520722 1753.549599 -70.520722 L 1753.549599 -69.488751 L 1759.389877 -69.488751 L 1759.389877 -70.520722 C 1758.45216 -70.520722 1758.061969 -71.072405 1757.690658 -71.851251 L 1752.611882 -82.488992 L 1756.38163 -89.349329 C 1756.941743 -90.36832 1757.130545 -90.569522 1758.080849 -90.679858 L 1758.080849 -91.698849 L 1754.122298 -91.698849 L 1754.122298 -90.679858 C 1755.060015 -90.679858 1755.299165 -90.082743 1755.060015 -89.647887 L 1750.157454 -80.950771 L 1750.157454 -89.349329 C 1750.157454 -89.829618 1750.251855 -90.666878 1751.479069 -90.666878 L 1751.479069 -91.698849 Z M 1745.921994 -91.698849 " transform="matrix(-0.62069,0.000000000000000074,-0.000000000000000076,-0.601852,1169.999853,69.814789)"/>
</g>
</svg>
