<?xml version="1.0" encoding="UTF-8"?>
<svg xmlns="http://www.w3.org/2000/svg" xmlns:xlink="http://www.w3.org/1999/xlink" width="90px" height="130px" viewBox="0 0 90 130" version="1.1">
<g id="surface1">
<path style="fill-rule:nonzero;fill:rgb(100%,100%,100%);fill-opacity:1;stroke-width:3;stroke-linecap:butt;stroke-linejoin:miter;stroke:rgb(21.960784%,25.098041%,27.843139%);stroke-opacity:1;stroke-miterlimit:4;" d="M 9.503034 1.499301 L 135.496968 1.499301 C 139.92123 1.499301 143.502177 5.081994 143.502177 9.501946 L 143.502177 206.498116 C 143.502177 210.918068 139.92123 214.500761 135.496968 214.500761 L 9.503034 214.500761 C 5.078772 214.500761 1.497825 210.918068 1.497825 206.498116 L 1.497825 9.501946 C 1.497825 5.081994 5.078772 1.499301 9.503034 1.499301 Z M 9.503034 1.499301 " transform="matrix(0.62069,0,0,0.601852,0.00000290271,-0.0000135584)"/>
<path style=" stroke:none;fill-rule:nonzero;fill:rgb(21.960784%,25.098041%,27.843139%);fill-opacity:1;" d="M 27 9.207031 C 27 9.207031 17.070312 14.625 17.070312 21.546875 C 17.070312 24.132812 19.054688 26.058594 21.476562 26.058594 C 23.152344 26.058594 24.578125 25.339844 25.199219 23.894531 C 25.757812 22.75 25.449219 20.644531 24.207031 19.679688 C 25.757812 20.160156 26.070312 21.667969 26.070312 22.871094 C 26.070312 25.578125 25.199219 28.285156 23.710938 30.273438 L 30.289062 30.273438 C 28.730469 28.101562 27.90625 25.515625 27.929688 22.871094 C 27.929688 21.667969 28.242188 20.160156 29.792969 19.679688 C 28.550781 20.582031 28.242188 22.75 28.800781 23.894531 C 29.421875 25.339844 30.847656 26.058594 32.523438 26.058594 C 35.007812 26.058594 36.929688 24.132812 36.929688 21.546875 C 36.929688 14.625 27 9.207031 27 9.207031 Z M 27 9.207031 "/>
<path style=" stroke:none;fill-rule:nonzero;fill:rgb(21.960784%,25.098041%,27.843139%);fill-opacity:1;" d="M 27 120.792969 C 27 120.792969 36.929688 115.375 36.929688 108.453125 C 36.929688 105.867188 34.945312 103.941406 32.523438 103.941406 C 30.847656 103.941406 29.421875 104.660156 28.800781 106.105469 C 28.242188 107.25 28.550781 109.355469 29.792969 110.320312 C 28.242188 109.839844 27.929688 108.332031 27.929688 107.128906 C 27.929688 104.421875 28.800781 101.714844 30.289062 99.726562 L 23.710938 99.726562 C 25.269531 101.898438 26.09375 104.484375 26.070312 107.128906 C 26.070312 108.332031 25.757812 109.839844 24.207031 110.320312 C 25.449219 109.417969 25.757812 107.25 25.199219 106.105469 C 24.578125 104.660156 23.152344 103.941406 21.476562 103.941406 C 18.992188 103.941406 17.070312 105.867188 17.070312 108.453125 C 17.070312 115.375 27 120.792969 27 120.792969 Z M 27 120.792969 "/>
<path style=" stroke:none;fill-rule:nonzero;fill:rgb(21.960784%,25.098041%,27.843139%);fill-opacity:1;" d="M 27 54.46875 C 27 54.46875 17.070312 59.882812 17.070312 66.804688 C 17.070312 69.394531 19.054688 71.320312 21.476562 71.320312 C 23.152344 71.320312 24.578125 70.597656 25.199219 69.152344 C 25.757812 68.007812 25.449219 65.902344 24.207031 64.941406 C 25.757812 65.421875 26.070312 66.925781 26.070312 68.128906 C 26.070312 70.839844 25.199219 73.546875 23.710938 75.53125 L 30.289062 75.53125 C 28.730469 73.363281 27.90625 70.773438 27.929688 68.128906 C 27.929688 66.925781 28.242188 65.421875 29.792969 64.941406 C 28.550781 65.84375 28.242188 68.007812 28.800781 69.152344 C 29.421875 70.597656 30.847656 71.320312 32.523438 71.320312 C 35.007812 71.320312 36.929688 69.394531 36.929688 66.804688 C 36.929688 59.882812 27 54.46875 27 54.46875 Z M 27 54.46875 "/>
<path style=" stroke:none;fill-rule:nonzero;fill:rgb(21.960784%,25.098041%,27.843139%);fill-opacity:1;" d="M 63 9.207031 C 63 9.207031 53.070312 14.625 53.070312 21.546875 C 53.070312 24.132812 55.054688 26.058594 57.476562 26.058594 C 59.152344 26.058594 60.578125 25.339844 61.199219 23.894531 C 61.757812 22.75 61.449219 20.644531 60.207031 19.679688 C 61.757812 20.160156 62.070312 21.667969 62.070312 22.871094 C 62.070312 25.578125 61.199219 28.285156 59.710938 30.273438 L 66.289062 30.273438 C 64.730469 28.101562 63.90625 25.515625 63.929688 22.871094 C 63.929688 21.667969 64.242188 20.160156 65.792969 19.679688 C 64.550781 20.582031 64.242188 22.75 64.800781 23.894531 C 65.421875 25.339844 66.847656 26.058594 68.523438 26.058594 C 71.007812 26.058594 72.929688 24.132812 72.929688 21.546875 C 72.929688 14.625 63 9.207031 63 9.207031 Z M 63 9.207031 "/>
<path style=" stroke:none;fill-rule:nonzero;fill:rgb(21.960784%,25.098041%,27.843139%);fill-opacity:1;" d="M 63 120.792969 C 63 120.792969 72.929688 115.375 72.929688 108.453125 C 72.929688 105.867188 70.945312 103.941406 68.523438 103.941406 C 66.847656 103.941406 65.421875 104.660156 64.800781 106.105469 C 64.242188 107.25 64.550781 109.355469 65.792969 110.320312 C 64.242188 109.839844 63.929688 108.332031 63.929688 107.128906 C 63.929688 104.421875 64.800781 101.714844 66.289062 99.726562 L 59.710938 99.726562 C 61.269531 101.898438 62.09375 104.484375 62.070312 107.128906 C 62.070312 108.332031 61.757812 109.839844 60.207031 110.320312 C 61.449219 109.417969 61.757812 107.25 61.199219 106.105469 C 60.578125 104.660156 59.152344 103.941406 57.476562 103.941406 C 54.992188 103.941406 53.070312 105.867188 53.070312 108.453125 C 53.070312 115.375 63 120.792969 63 120.792969 Z M 63 120.792969 "/>
<path style=" stroke:none;fill-rule:nonzero;fill:rgb(21.960784%,25.098041%,27.843139%);fill-opacity:1;" d="M 63 75.53125 C 63 75.53125 53.070312 70.117188 53.070312 63.195312 C 53.070312 60.605469 55.054688 58.679688 57.476562 58.679688 C 59.152344 58.679688 60.578125 59.402344 61.199219 60.847656 C 61.757812 61.992188 61.449219 64.097656 60.207031 65.058594 C 61.757812 64.578125 62.070312 63.074219 62.070312 61.871094 C 62.070312 59.160156 61.199219 56.453125 59.710938 54.46875 L 66.289062 54.46875 C 64.730469 56.636719 63.90625 59.226562 63.929688 61.871094 C 63.929688 63.074219 64.242188 64.578125 65.792969 65.058594 C 64.550781 64.15625 64.242188 61.992188 64.800781 60.847656 C 65.421875 59.402344 66.847656 58.679688 68.523438 58.679688 C 71.007812 58.679688 72.929688 60.605469 72.929688 63.195312 C 72.929688 70.117188 63 75.53125 63 75.53125 Z M 63 75.53125 "/>
<path style=" stroke:none;fill-rule:nonzero;fill:rgb(21.960784%,25.098041%,27.843139%);fill-opacity:1;" d="M 7.949219 21.355469 C 7.949219 21.355469 3.597656 23.679688 3.597656 26.648438 C 3.597656 27.761719 4.46875 28.585938 5.527344 28.585938 C 6.261719 28.585938 6.886719 28.277344 7.160156 27.65625 C 7.402344 27.167969 7.269531 26.261719 6.722656 25.851562 C 7.402344 26.054688 7.539062 26.703125 7.539062 27.21875 C 7.539062 28.378906 7.160156 29.542969 6.507812 30.394531 L 9.390625 30.394531 C 8.707031 29.460938 8.34375 28.351562 8.355469 27.21875 C 8.355469 26.703125 8.492188 26.054688 9.171875 25.851562 C 8.628906 26.238281 8.492188 27.167969 8.734375 27.65625 C 9.007812 28.277344 9.632812 28.585938 10.367188 28.585938 C 11.453125 28.585938 12.296875 27.761719 12.296875 26.648438 C 12.296875 23.679688 7.949219 21.355469 7.949219 21.355469 Z M 7.949219 21.355469 "/>
<path style=" stroke:none;fill-rule:nonzero;fill:rgb(21.960784%,25.098041%,27.843139%);fill-opacity:1;" d="M 82.050781 108.644531 C 82.050781 108.644531 86.402344 106.320312 86.402344 103.351562 C 86.402344 102.238281 85.53125 101.414062 84.472656 101.414062 C 83.738281 101.414062 83.113281 101.722656 82.839844 102.34375 C 82.597656 102.832031 82.730469 103.738281 83.277344 104.148438 C 82.597656 103.945312 82.460938 103.296875 82.460938 102.78125 C 82.460938 101.621094 82.839844 100.457031 83.492188 99.605469 L 80.609375 99.605469 C 81.292969 100.539062 81.65625 101.648438 81.644531 102.78125 C 81.644531 103.296875 81.507812 103.945312 80.828125 104.148438 C 81.371094 103.761719 81.507812 102.832031 81.261719 102.34375 C 80.992188 101.722656 80.367188 101.414062 79.632812 101.414062 C 78.546875 101.414062 77.703125 102.238281 77.703125 103.351562 C 77.703125 106.320312 82.050781 108.644531 82.050781 108.644531 Z M 82.050781 108.644531 "/>
<path style="fill-rule:nonzero;fill:rgb(21.960784%,25.098041%,27.843139%);fill-opacity:1;stroke-width:0.5;stroke-linecap:butt;stroke-linejoin:round;stroke:rgb(21.960784%,25.098041%,27.843139%);stroke-opacity:1;stroke-miterlimit:4;" d="M 738.002166 -90.400698 C 734.207244 -89.881467 734.647783 -84.397092 734.597435 -81.50238 C 735.66102 -82.138438 736.667965 -82.52137 737.901472 -82.599255 C 741.230682 -82.599255 743.401907 -80.042043 743.401907 -75.998533 C 743.401907 -73.649014 742.722219 -69.300456 737.700083 -69.300456 C 734.408633 -69.300456 732.048607 -71.468244 731.897565 -78.601178 C 731.897565 -84.663197 732.199649 -91.802621 737.901472 -91.802621 C 740.601342 -91.802621 742.898434 -90.108631 742.898434 -87.298294 C 742.898434 -85.961274 742.180986 -84.70214 740.802731 -84.70214 C 739.80208 -84.70214 738.801429 -85.519928 738.801429 -86.798534 C 738.801429 -87.467044 739.292314 -88.602861 740.500648 -88.901419 C 740.047523 -89.939881 738.927297 -90.400698 738.002166 -90.400698 Z M 734.597435 -76.102379 C 734.597435 -75.232668 734.742184 -70.598533 737.599389 -70.598533 C 739.732852 -70.598533 740.802731 -72.428821 740.802731 -76.102379 C 740.802731 -77.692524 740.469181 -81.099976 737.599389 -81.099976 C 734.729597 -81.099976 734.597435 -76.848774 734.597435 -76.102379 Z M 734.597435 -76.102379 " transform="matrix(0.62069,0,0,0.601852,-449.999961,60.185167)"/>
<path style="fill-rule:nonzero;fill:rgb(21.960784%,25.098041%,27.843139%);fill-opacity:1;stroke-width:0.5;stroke-linecap:butt;stroke-linejoin:round;stroke:rgb(21.960784%,25.098041%,27.843139%);stroke-opacity:1;stroke-miterlimit:4;" d="M 738.002164 -90.40076 C 734.207242 -89.881529 734.64778 -84.397154 734.597433 -81.502442 C 735.661018 -82.1385 736.667963 -82.521432 737.90147 -82.599317 C 741.23068 -82.599317 743.401904 -80.042105 743.401904 -75.998595 C 743.401904 -73.649076 742.722217 -69.300518 737.700081 -69.300518 C 734.408631 -69.300518 732.048605 -71.468307 731.897563 -78.60124 C 731.897563 -84.656769 732.199647 -91.802683 737.90147 -91.802683 C 740.60134 -91.802683 742.898432 -90.108693 742.898432 -87.298356 C 742.898432 -85.961337 742.180984 -84.702202 740.802729 -84.702202 C 739.802078 -84.702202 738.801427 -85.51999 738.801427 -86.798596 C 738.801427 -87.467106 739.292312 -88.602923 740.500645 -88.901481 C 740.04752 -89.939943 738.927295 -90.40076 738.002164 -90.40076 Z M 734.597433 -76.102442 C 734.597433 -75.23273 734.742181 -70.598595 737.599387 -70.598595 C 739.73285 -70.598595 740.802729 -72.428884 740.802729 -76.102442 C 740.802729 -77.692586 740.469178 -81.100038 737.599387 -81.100038 C 734.729595 -81.100038 734.597433 -76.848836 734.597433 -76.102442 Z M 734.597433 -76.102442 " transform="matrix(-0.62069,0.000000000000000074,-0.000000000000000076,-0.601852,539.99996,69.814796)"/>
</g>
</svg>
