<?xml version="1.0" encoding="UTF-8"?>
<svg xmlns="http://www.w3.org/2000/svg" xmlns:xlink="http://www.w3.org/1999/xlink" width="90px" height="130px" viewBox="0 0 90 130" version="1.1">
<g id="surface1">
<path style="fill-rule:nonzero;fill:rgb(100%,100%,100%);fill-opacity:1;stroke-width:3;stroke-linecap:butt;stroke-linejoin:miter;stroke:rgb(21.960784%,25.098041%,27.843139%);stroke-opacity:1;stroke-miterlimit:4;" d="M 9.50308 1.499301 L 135.497014 1.499301 C 139.921276 1.499301 143.502223 5.081994 143.502223 9.501946 L 143.502223 206.498116 C 143.502223 210.918068 139.921276 214.500761 135.497014 214.500761 L 9.50308 214.500761 C 5.078818 214.500761 1.497871 210.918068 1.497871 206.498116 L 1.497871 9.501946 C 1.497871 5.081994 5.078818 1.499301 9.50308 1.499301 Z M 9.50308 1.499301 " transform="matrix(0.62069,0,0,0.601852,-0.000025692,-0.0000135584)"/>
<path style=" stroke:none;fill-rule:nonzero;fill:rgb(21.960784%,25.098041%,27.843139%);fill-opacity:1;" d="M 45 9.207031 C 45 9.207031 35.070312 14.625 35.070312 21.546875 C 35.070312 24.132812 37.054688 26.058594 39.476562 26.058594 C 41.152344 26.058594 42.578125 25.339844 43.199219 23.894531 C 43.757812 22.75 43.449219 20.644531 42.207031 19.679688 C 43.757812 20.160156 44.070312 21.667969 44.070312 22.871094 C 44.070312 25.578125 43.199219 28.285156 41.710938 30.273438 L 48.289062 30.273438 C 46.730469 28.101562 45.90625 25.515625 45.929688 22.871094 C 45.929688 21.667969 46.242188 20.160156 47.792969 19.679688 C 46.550781 20.582031 46.242188 22.75 46.800781 23.894531 C 47.421875 25.339844 48.847656 26.058594 50.523438 26.058594 C 53.007812 26.058594 54.929688 24.132812 54.929688 21.546875 C 54.929688 14.625 45 9.207031 45 9.207031 Z M 45 9.207031 "/>
<path style=" stroke:none;fill-rule:nonzero;fill:rgb(21.960784%,25.098041%,27.843139%);fill-opacity:1;" d="M 45 120.792969 C 45 120.792969 54.929688 115.375 54.929688 108.453125 C 54.929688 105.867188 52.945312 103.941406 50.523438 103.941406 C 48.847656 103.941406 47.421875 104.660156 46.800781 106.105469 C 46.242188 107.25 46.550781 109.355469 47.792969 110.320312 C 46.242188 109.839844 45.929688 108.332031 45.929688 107.128906 C 45.929688 104.421875 46.800781 101.714844 48.289062 99.726562 L 41.710938 99.726562 C 43.269531 101.898438 44.09375 104.484375 44.070312 107.128906 C 44.070312 108.332031 43.757812 109.839844 42.207031 110.320312 C 43.449219 109.417969 43.757812 107.25 43.199219 106.105469 C 42.578125 104.660156 41.152344 103.941406 39.476562 103.941406 C 36.992188 103.941406 35.070312 105.867188 35.070312 108.453125 C 35.070312 115.375 45 120.792969 45 120.792969 Z M 45 120.792969 "/>
<path style=" stroke:none;fill-rule:nonzero;fill:rgb(21.960784%,25.098041%,27.843139%);fill-opacity:1;" d="M 45 54.46875 C 45 54.46875 35.070312 59.882812 35.070312 66.804688 C 35.070312 69.394531 37.054688 71.320312 39.476562 71.320312 C 41.152344 71.320312 42.578125 70.597656 43.199219 69.152344 C 43.757812 68.007812 43.449219 65.902344 42.207031 64.941406 C 43.757812 65.421875 44.070312 66.925781 44.070312 68.128906 C 44.070312 70.839844 43.199219 73.546875 41.710938 75.53125 L 48.289062 75.53125 C 46.730469 73.363281 45.90625 70.773438 45.929688 68.128906 C 45.929688 66.925781 46.242188 65.421875 47.792969 64.941406 C 46.550781 65.84375 46.242188 68.007812 46.800781 69.152344 C 47.421875 70.597656 48.847656 71.320312 50.523438 71.320312 C 53.007812 71.320312 54.929688 69.394531 54.929688 66.804688 C 54.929688 59.882812 45 54.46875 45 54.46875 Z M 45 54.46875 "/>
<path style=" stroke:none;fill-rule:nonzero;fill:rgb(21.960784%,25.098041%,27.843139%);fill-opacity:1;" d="M 27 98.160156 C 27 98.160156 36.929688 92.746094 36.929688 85.824219 C 36.929688 83.234375 34.945312 81.308594 32.523438 81.308594 C 30.847656 81.308594 29.421875 82.03125 28.800781 83.476562 C 28.242188 84.621094 28.550781 86.726562 29.792969 87.691406 C 28.242188 87.207031 27.929688 85.703125 27.929688 84.5 C 27.929688 81.792969 28.800781 79.082031 30.289062 77.097656 L 23.710938 77.097656 C 25.269531 79.269531 26.09375 81.855469 26.070312 84.5 C 26.070312 85.703125 25.757812 87.207031 24.207031 87.691406 C 25.449219 86.785156 25.757812 84.621094 25.199219 83.476562 C 24.578125 82.03125 23.152344 81.308594 21.476562 81.308594 C 18.992188 81.308594 17.070312 83.234375 17.070312 85.824219 C 17.070312 92.746094 27 98.160156 27 98.160156 Z M 27 98.160156 "/>
<path style=" stroke:none;fill-rule:nonzero;fill:rgb(21.960784%,25.098041%,27.843139%);fill-opacity:1;" d="M 27 31.839844 C 27 31.839844 17.070312 37.253906 17.070312 44.175781 C 17.070312 46.765625 19.054688 48.691406 21.476562 48.691406 C 23.152344 48.691406 24.578125 47.96875 25.199219 46.523438 C 25.757812 45.378906 25.449219 43.273438 24.207031 42.308594 C 25.757812 42.792969 26.070312 44.296875 26.070312 45.5 C 26.070312 48.207031 25.199219 50.917969 23.710938 52.902344 L 30.289062 52.902344 C 28.730469 50.730469 27.90625 48.144531 27.929688 45.5 C 27.929688 44.296875 28.242188 42.792969 29.792969 42.308594 C 28.550781 43.214844 28.242188 45.378906 28.800781 46.523438 C 29.421875 47.96875 30.847656 48.691406 32.523438 48.691406 C 35.007812 48.691406 36.929688 46.765625 36.929688 44.175781 C 36.929688 37.253906 27 31.839844 27 31.839844 Z M 27 31.839844 "/>
<path style=" stroke:none;fill-rule:nonzero;fill:rgb(21.960784%,25.098041%,27.843139%);fill-opacity:1;" d="M 63 98.160156 C 63 98.160156 72.929688 92.746094 72.929688 85.824219 C 72.929688 83.234375 70.945312 81.308594 68.523438 81.308594 C 66.847656 81.308594 65.421875 82.03125 64.800781 83.476562 C 64.242188 84.621094 64.550781 86.726562 65.792969 87.691406 C 64.242188 87.207031 63.929688 85.703125 63.929688 84.5 C 63.929688 81.792969 64.800781 79.082031 66.289062 77.097656 L 59.710938 77.097656 C 61.269531 79.269531 62.09375 81.855469 62.070312 84.5 C 62.070312 85.703125 61.757812 87.207031 60.207031 87.691406 C 61.449219 86.785156 61.757812 84.621094 61.199219 83.476562 C 60.578125 82.03125 59.152344 81.308594 57.476562 81.308594 C 54.992188 81.308594 53.070312 83.234375 53.070312 85.824219 C 53.070312 92.746094 63 98.160156 63 98.160156 Z M 63 98.160156 "/>
<path style=" stroke:none;fill-rule:nonzero;fill:rgb(21.960784%,25.098041%,27.843139%);fill-opacity:1;" d="M 63 31.839844 C 63 31.839844 53.070312 37.253906 53.070312 44.175781 C 53.070312 46.765625 55.054688 48.691406 57.476562 48.691406 C 59.152344 48.691406 60.578125 47.96875 61.199219 46.523438 C 61.757812 45.378906 61.449219 43.273438 60.207031 42.308594 C 61.757812 42.792969 62.070312 44.296875 62.070312 45.5 C 62.070312 48.207031 61.199219 50.917969 59.710938 52.902344 L 66.289062 52.902344 C 64.730469 50.730469 63.90625 48.144531 63.929688 45.5 C 63.929688 44.296875 64.242188 42.792969 65.792969 42.308594 C 64.550781 43.214844 64.242188 45.378906 64.800781 46.523438 C 65.421875 47.96875 66.847656 48.691406 68.523438 48.691406 C 71.007812 48.691406 72.929688 46.765625 72.929688 44.175781 C 72.929688 37.253906 63 31.839844 63 31.839844 Z M 63 31.839844 "/>
<path style=" stroke:none;fill-rule:nonzero;fill:rgb(21.960784%,25.098041%,27.843139%);fill-opacity:1;" d="M 7.949219 21.355469 C 7.949219 21.355469 3.597656 23.679688 3.597656 26.648438 C 3.597656 27.761719 4.46875 28.585938 5.527344 28.585938 C 6.261719 28.585938 6.886719 28.277344 7.160156 27.65625 C 7.402344 27.167969 7.269531 26.261719 6.722656 25.851562 C 7.402344 26.054688 7.539062 26.703125 7.539062 27.21875 C 7.539062 28.378906 7.160156 29.542969 6.507812 30.394531 L 9.390625 30.394531 C 8.707031 29.460938 8.34375 28.351562 8.355469 27.21875 C 8.355469 26.703125 8.492188 26.054688 9.171875 25.851562 C 8.628906 26.238281 8.492188 27.167969 8.734375 27.65625 C 9.007812 28.277344 9.632812 28.585938 10.367188 28.585938 C 11.453125 28.585938 12.296875 27.761719 12.296875 26.648438 C 12.296875 23.679688 7.949219 21.355469 7.949219 21.355469 Z M 7.949219 21.355469 "/>
<path style=" stroke:none;fill-rule:nonzero;fill:rgb(21.960784%,25.098041%,27.843139%);fill-opacity:1;" d="M 82.050781 108.644531 C 82.050781 108.644531 86.402344 106.320312 86.402344 103.351562 C 86.402344 102.238281 85.53125 101.414062 84.472656 101.414062 C 83.738281 101.414062 83.113281 101.722656 82.839844 102.34375 C 82.597656 102.832031 82.730469 103.738281 83.277344 104.148438 C 82.597656 103.945312 82.460938 103.296875 82.460938 102.78125 C 82.460938 101.621094 82.839844 100.457031 83.492188 99.605469 L 80.609375 99.605469 C 81.292969 100.539062 81.65625 101.648438 81.644531 102.78125 C 81.644531 103.296875 81.507812 103.945312 80.828125 104.148438 C 81.371094 103.761719 81.507812 102.832031 81.261719 102.34375 C 80.992188 101.722656 80.367188 101.414062 79.632812 101.414062 C 78.546875 101.414062 77.703125 102.238281 77.703125 103.351562 C 77.703125 106.320312 82.050781 108.644531 82.050781 108.644531 Z M 82.050781 108.644531 "/>
<path style="fill-rule:nonzero;fill:rgb(21.960784%,25.098041%,27.843139%);fill-opacity:1;stroke-width:0.5;stroke-linecap:butt;stroke-linejoin:round;stroke:rgb(21.960784%,25.098041%,27.843139%);stroke-opacity:1;stroke-miterlimit:4;" d="M 879.100303 -80.197812 L 879.100303 -81.599736 L 881.900867 -81.599736 C 883.058853 -84.410072 884.808419 -87.298294 885.601388 -88.499015 L 881.598784 -88.499015 C 878.728992 -88.499015 878.370268 -87.622813 877.401084 -85.201899 L 876.400433 -85.403101 L 877.602473 -91.997333 L 878.603124 -91.997333 C 878.609417 -91.78964 878.987021 -91.497573 879.200997 -91.497573 L 888.899131 -91.497573 L 888.798437 -90.199496 C 887.501996 -88.447092 885.431466 -85.338197 884.097265 -81.599736 L 886.299956 -81.599736 L 886.299956 -80.197812 L 883.70078 -80.197812 C 882.719009 -76.62161 882.309938 -72.90911 882.49874 -69.2031 L 879.200997 -69.2031 C 879.591188 -72.928581 880.327516 -76.608629 881.397395 -80.197812 Z M 879.100303 -80.197812 " transform="matrix(0.62069,0,0,0.601852,-539.999983,60.185167)"/>
<path style="fill-rule:nonzero;fill:rgb(21.960784%,25.098041%,27.843139%);fill-opacity:1;stroke-width:0.5;stroke-linecap:butt;stroke-linejoin:round;stroke:rgb(21.960784%,25.098041%,27.843139%);stroke-opacity:1;stroke-miterlimit:4;" d="M 879.100208 -80.197875 L 879.100208 -81.599798 L 881.900773 -81.599798 C 883.058759 -84.410135 884.808325 -87.298356 885.601294 -88.499077 L 881.598689 -88.499077 C 878.728897 -88.499077 878.370173 -87.622875 877.400989 -85.201962 L 876.400338 -85.403163 L 877.602378 -91.997395 L 878.603029 -91.997395 C 878.609323 -91.789702 878.986927 -91.497635 879.200903 -91.497635 L 888.899037 -91.497635 L 888.798343 -90.199558 C 887.501902 -88.447154 885.431372 -85.33826 884.09717 -81.599798 L 886.299862 -81.599798 L 886.299862 -80.197875 L 883.700686 -80.197875 C 882.718915 -76.621672 882.309844 -72.909172 882.498646 -69.203162 L 879.200903 -69.203162 C 879.591094 -72.928643 880.327422 -76.608692 881.3973 -80.197875 Z M 879.100208 -80.197875 " transform="matrix(-0.62069,0.000000000000000074,-0.000000000000000076,-0.601852,629.999924,69.814796)"/>
</g>
</svg>
