<?xml version="1.0" encoding="UTF-8"?>
<svg xmlns="http://www.w3.org/2000/svg" xmlns:xlink="http://www.w3.org/1999/xlink" width="90px" height="130px" viewBox="0 0 90 130" version="1.1">
<g id="surface1">
<path style="fill-rule:nonzero;fill:rgb(100%,100%,100%);fill-opacity:1;stroke-width:3;stroke-linecap:butt;stroke-linejoin:miter;stroke:rgb(21.960784%,25.098041%,27.843139%);stroke-opacity:1;stroke-miterlimit:4;" d="M 9.503034 1.499301 L 135.496967 1.499301 C 139.92123 1.499301 143.502176 5.081994 143.502176 9.501946 L 143.502176 206.498116 C 143.502176 210.918068 139.92123 214.500761 135.496967 214.500761 L 9.503034 214.500761 C 5.078771 214.500761 1.497825 210.918068 1.497825 206.498116 L 1.497825 9.501946 C 1.497825 5.081994 5.078771 1.499301 9.503034 1.499301 Z M 9.503034 1.499301 " transform="matrix(0.62069,0,0,0.601852,0.00000326533,-0.0000135584)"/>
<path style=" stroke:none;fill-rule:nonzero;fill:rgb(21.960784%,25.098041%,27.843139%);fill-opacity:1;" d="M 45 44.417969 C 45 44.417969 25.136719 55.25 25.136719 69.09375 C 25.136719 74.269531 29.109375 78.121094 33.953125 78.121094 C 37.304688 78.121094 40.160156 76.675781 41.398438 73.789062 C 42.515625 71.5 41.898438 67.285156 39.414062 65.359375 C 42.515625 66.324219 43.136719 69.332031 43.136719 71.742188 C 43.136719 77.15625 41.398438 82.574219 38.421875 86.546875 L 51.578125 86.546875 C 48.460938 82.203125 46.8125 77.03125 46.863281 71.742188 C 46.863281 69.332031 47.484375 66.324219 50.585938 65.359375 C 48.101562 67.167969 47.484375 71.5 48.601562 73.789062 C 49.839844 76.675781 52.695312 78.121094 56.046875 78.121094 C 61.015625 78.121094 64.863281 74.269531 64.863281 69.09375 C 64.863281 55.25 45 44.417969 45 44.417969 Z M 45 44.417969 "/>
<path style=" stroke:none;fill-rule:nonzero;fill:rgb(21.960784%,25.098041%,27.843139%);fill-opacity:1;" d="M 7.949219 21.355469 C 7.949219 21.355469 3.597656 23.679688 3.597656 26.648438 C 3.597656 27.761719 4.46875 28.585938 5.527344 28.585938 C 6.261719 28.585938 6.886719 28.277344 7.160156 27.65625 C 7.402344 27.167969 7.269531 26.261719 6.722656 25.851562 C 7.402344 26.054688 7.539062 26.703125 7.539062 27.21875 C 7.539062 28.378906 7.160156 29.542969 6.507812 30.394531 L 9.390625 30.394531 C 8.707031 29.460938 8.34375 28.351562 8.355469 27.21875 C 8.355469 26.703125 8.492188 26.054688 9.171875 25.851562 C 8.628906 26.238281 8.492188 27.167969 8.734375 27.65625 C 9.007812 28.277344 9.632812 28.585938 10.367188 28.585938 C 11.453125 28.585938 12.296875 27.761719 12.296875 26.648438 C 12.296875 23.679688 7.949219 21.355469 7.949219 21.355469 Z M 7.949219 21.355469 "/>
<path style=" stroke:none;fill-rule:nonzero;fill:rgb(21.960784%,25.098041%,27.843139%);fill-opacity:1;" d="M 82.050781 108.644531 C 82.050781 108.644531 86.402344 106.320312 86.402344 103.351562 C 86.402344 102.238281 85.53125 101.414062 84.472656 101.414062 C 83.738281 101.414062 83.113281 101.722656 82.839844 102.34375 C 82.597656 102.832031 82.730469 103.738281 83.277344 104.148438 C 82.597656 103.945312 82.460938 103.296875 82.460938 102.78125 C 82.460938 101.621094 82.839844 100.457031 83.492188 99.605469 L 80.609375 99.605469 C 81.292969 100.539062 81.65625 101.648438 81.644531 102.78125 C 81.644531 103.296875 81.507812 103.945312 80.828125 104.148438 C 81.371094 103.761719 81.507812 102.832031 81.261719 102.34375 C 80.992188 101.722656 80.367188 101.414062 79.632812 101.414062 C 78.546875 101.414062 77.703125 102.238281 77.703125 103.351562 C 77.703125 106.320312 82.050781 108.644531 82.050781 108.644531 Z M 82.050781 108.644531 "/>
<path style="fill-rule:nonzero;fill:rgb(21.960784%,25.098041%,27.843139%);fill-opacity:1;stroke-width:0.5;stroke-linecap:butt;stroke-linejoin:round;stroke:rgb(21.960784%,25.098041%,27.843139%);stroke-opacity:1;stroke-miterlimit:4;" d="M 8.798173 -71.9031 C 8.559023 -70.747812 9.597435 -70.669927 10.598086 -70.598533 L 10.598086 -69.501658 L 5.701818 -69.501658 L 5.701818 -70.501177 C 6.658415 -70.501177 7.281462 -70.929542 7.501731 -71.9031 L 12.001515 -91.997333 L 13.39865 -91.997333 L 17.898434 -71.799254 C 18.112409 -70.871129 18.647349 -70.760792 19.597653 -70.598533 L 19.597653 -69.501658 L 13.002166 -69.501658 L 13.002166 -70.501177 C 14.147565 -70.540119 14.909067 -70.728341 14.701385 -71.799254 L 14.097218 -74.797812 L 9.402339 -74.797812 Z M 9.698129 -75.901177 L 13.902123 -75.901177 L 11.800126 -85.597813 Z M 9.698129 -75.901177 " transform="matrix(0.62069,0,0,0.601852,0.00000326533,60.185167)"/>
<path style="fill-rule:nonzero;fill:rgb(21.960784%,25.098041%,27.843139%);fill-opacity:1;stroke-width:0.5;stroke-linecap:butt;stroke-linejoin:round;stroke:rgb(21.960784%,25.098041%,27.843139%);stroke-opacity:1;stroke-miterlimit:4;" d="M 8.798172 -71.903162 C 8.559022 -70.747874 9.597434 -70.669989 10.598085 -70.598595 L 10.598085 -69.50172 L 5.701817 -69.50172 L 5.701817 -70.501239 C 6.658414 -70.501239 7.281461 -70.929605 7.50173 -71.903162 L 12.001514 -91.997395 L 13.398649 -91.997395 L 17.898433 -71.799316 C 18.112408 -70.871191 18.647348 -70.760855 19.597652 -70.598595 L 19.597652 -69.50172 L 13.002165 -69.50172 L 13.002165 -70.501239 C 14.147564 -70.540182 14.909066 -70.728403 14.701384 -71.799316 L 14.097217 -74.797874 L 9.402338 -74.797874 Z M 9.698128 -75.90124 L 13.902122 -75.90124 L 11.800125 -85.597875 Z M 9.698128 -75.90124 " transform="matrix(-0.62069,0.000000000000000074,-0.000000000000000076,-0.601852,89.999996,69.814796)"/>
</g>
</svg>
