<?xml version="1.0" encoding="UTF-8"?>
<svg xmlns="http://www.w3.org/2000/svg" xmlns:xlink="http://www.w3.org/1999/xlink" width="90px" height="130px" viewBox="0 0 90 130" version="1.1">
<g id="surface1">
<path style="fill-rule:nonzero;fill:rgb(100%,100%,100%);fill-opacity:1;stroke-width:3;stroke-linecap:butt;stroke-linejoin:miter;stroke:rgb(21.960784%,25.098041%,27.843139%);stroke-opacity:1;stroke-miterlimit:4;" d="M 9.503046 1.499301 L 135.496979 1.499301 C 139.921242 1.499301 143.502188 5.081994 143.502188 9.501946 L 143.502188 206.498116 C 143.502188 210.918068 139.921242 214.500761 135.496979 214.500761 L 9.503046 214.500761 C 5.078783 214.500761 1.497837 210.918068 1.497837 206.498116 L 1.497837 9.501946 C 1.497837 5.081994 5.078783 1.499301 9.503046 1.499301 Z M 9.503046 1.499301 " transform="matrix(0.62069,0,0,0.601852,-0.0000042984,-0.0000135584)"/>
<path style=" stroke:none;fill-rule:nonzero;fill:rgb(21.960784%,25.098041%,27.843139%);fill-opacity:1;" d="M 45 54.46875 C 45 54.46875 35.070312 59.882812 35.070312 66.804688 C 35.070312 69.394531 37.054688 71.320312 39.476562 71.320312 C 41.152344 71.320312 42.578125 70.597656 43.199219 69.152344 C 43.757812 68.007812 43.449219 65.902344 42.207031 64.941406 C 43.757812 65.421875 44.070312 66.925781 44.070312 68.128906 C 44.070312 70.839844 43.199219 73.546875 41.710938 75.53125 L 48.289062 75.53125 C 46.730469 73.363281 45.90625 70.773438 45.929688 68.128906 C 45.929688 66.925781 46.242188 65.421875 47.792969 64.941406 C 46.550781 65.84375 46.242188 68.007812 46.800781 69.152344 C 47.421875 70.597656 48.847656 71.320312 50.523438 71.320312 C 53.007812 71.320312 54.929688 69.394531 54.929688 66.804688 C 54.929688 59.882812 45 54.46875 45 54.46875 Z M 45 54.46875 "/>
<path style=" stroke:none;fill-rule:nonzero;fill:rgb(21.960784%,25.098041%,27.843139%);fill-opacity:1;" d="M 27 9.207031 C 27 9.207031 17.070312 14.625 17.070312 21.546875 C 17.070312 24.132812 19.054688 26.058594 21.476562 26.058594 C 23.152344 26.058594 24.578125 25.339844 25.199219 23.894531 C 25.757812 22.75 25.449219 20.644531 24.207031 19.679688 C 25.757812 20.160156 26.070312 21.667969 26.070312 22.871094 C 26.070312 25.578125 25.199219 28.285156 23.710938 30.273438 L 30.289062 30.273438 C 28.730469 28.101562 27.90625 25.515625 27.929688 22.871094 C 27.929688 21.667969 28.242188 20.160156 29.792969 19.679688 C 28.550781 20.582031 28.242188 22.75 28.800781 23.894531 C 29.421875 25.339844 30.847656 26.058594 32.523438 26.058594 C 35.007812 26.058594 36.929688 24.132812 36.929688 21.546875 C 36.929688 14.625 27 9.207031 27 9.207031 Z M 27 9.207031 "/>
<path style=" stroke:none;fill-rule:nonzero;fill:rgb(21.960784%,25.098041%,27.843139%);fill-opacity:1;" d="M 27 120.792969 C 27 120.792969 36.929688 115.375 36.929688 108.453125 C 36.929688 105.867188 34.945312 103.941406 32.523438 103.941406 C 30.847656 103.941406 29.421875 104.660156 28.800781 106.105469 C 28.242188 107.25 28.550781 109.355469 29.792969 110.320312 C 28.242188 109.839844 27.929688 108.332031 27.929688 107.128906 C 27.929688 104.421875 28.800781 101.714844 30.289062 99.726562 L 23.710938 99.726562 C 25.269531 101.898438 26.09375 104.484375 26.070312 107.128906 C 26.070312 108.332031 25.757812 109.839844 24.207031 110.320312 C 25.449219 109.417969 25.757812 107.25 25.199219 106.105469 C 24.578125 104.660156 23.152344 103.941406 21.476562 103.941406 C 18.992188 103.941406 17.070312 105.867188 17.070312 108.453125 C 17.070312 115.375 27 120.792969 27 120.792969 Z M 27 120.792969 "/>
<path style=" stroke:none;fill-rule:nonzero;fill:rgb(21.960784%,25.098041%,27.843139%);fill-opacity:1;" d="M 63 9.207031 C 63 9.207031 53.070312 14.625 53.070312 21.546875 C 53.070312 24.132812 55.054688 26.058594 57.476562 26.058594 C 59.152344 26.058594 60.578125 25.339844 61.199219 23.894531 C 61.757812 22.75 61.449219 20.644531 60.207031 19.679688 C 61.757812 20.160156 62.070312 21.667969 62.070312 22.871094 C 62.070312 25.578125 61.199219 28.285156 59.710938 30.273438 L 66.289062 30.273438 C 64.730469 28.101562 63.90625 25.515625 63.929688 22.871094 C 63.929688 21.667969 64.242188 20.160156 65.792969 19.679688 C 64.550781 20.582031 64.242188 22.75 64.800781 23.894531 C 65.421875 25.339844 66.847656 26.058594 68.523438 26.058594 C 71.007812 26.058594 72.929688 24.132812 72.929688 21.546875 C 72.929688 14.625 63 9.207031 63 9.207031 Z M 63 9.207031 "/>
<path style=" stroke:none;fill-rule:nonzero;fill:rgb(21.960784%,25.098041%,27.843139%);fill-opacity:1;" d="M 63 120.792969 C 63 120.792969 72.929688 115.375 72.929688 108.453125 C 72.929688 105.867188 70.945312 103.941406 68.523438 103.941406 C 66.847656 103.941406 65.421875 104.660156 64.800781 106.105469 C 64.242188 107.25 64.550781 109.355469 65.792969 110.320312 C 64.242188 109.839844 63.929688 108.332031 63.929688 107.128906 C 63.929688 104.421875 64.800781 101.714844 66.289062 99.726562 L 59.710938 99.726562 C 61.269531 101.898438 62.09375 104.484375 62.070312 107.128906 C 62.070312 108.332031 61.757812 109.839844 60.207031 110.320312 C 61.449219 109.417969 61.757812 107.25 61.199219 106.105469 C 60.578125 104.660156 59.152344 103.941406 57.476562 103.941406 C 54.992188 103.941406 53.070312 105.867188 53.070312 108.453125 C 53.070312 115.375 63 120.792969 63 120.792969 Z M 63 120.792969 "/>
<path style=" stroke:none;fill-rule:nonzero;fill:rgb(21.960784%,25.098041%,27.843139%);fill-opacity:1;" d="M 7.949219 21.355469 C 7.949219 21.355469 3.597656 23.679688 3.597656 26.648438 C 3.597656 27.761719 4.46875 28.585938 5.527344 28.585938 C 6.261719 28.585938 6.886719 28.277344 7.160156 27.65625 C 7.402344 27.167969 7.269531 26.261719 6.722656 25.851562 C 7.402344 26.054688 7.539062 26.703125 7.539062 27.21875 C 7.539062 28.378906 7.160156 29.542969 6.507812 30.394531 L 9.390625 30.394531 C 8.707031 29.460938 8.34375 28.351562 8.355469 27.21875 C 8.355469 26.703125 8.492188 26.054688 9.171875 25.851562 C 8.628906 26.238281 8.492188 27.167969 8.734375 27.65625 C 9.007812 28.277344 9.632812 28.585938 10.367188 28.585938 C 11.453125 28.585938 12.296875 27.761719 12.296875 26.648438 C 12.296875 23.679688 7.949219 21.355469 7.949219 21.355469 Z M 7.949219 21.355469 "/>
<path style=" stroke:none;fill-rule:nonzero;fill:rgb(21.960784%,25.098041%,27.843139%);fill-opacity:1;" d="M 82.050781 108.644531 C 82.050781 108.644531 86.402344 106.320312 86.402344 103.351562 C 86.402344 102.238281 85.53125 101.414062 84.472656 101.414062 C 83.738281 101.414062 83.113281 101.722656 82.839844 102.34375 C 82.597656 102.832031 82.730469 103.738281 83.277344 104.148438 C 82.597656 103.945312 82.460938 103.296875 82.460938 102.78125 C 82.460938 101.621094 82.839844 100.457031 83.492188 99.605469 L 80.609375 99.605469 C 81.292969 100.539062 81.65625 101.648438 81.644531 102.78125 C 81.644531 103.296875 81.507812 103.945312 80.828125 104.148438 C 81.371094 103.761719 81.507812 102.832031 81.261719 102.34375 C 80.992188 101.722656 80.367188 101.414062 79.632812 101.414062 C 78.546875 101.414062 77.703125 102.238281 77.703125 103.351562 C 77.703125 106.320312 82.050781 108.644531 82.050781 108.644531 Z M 82.050781 108.644531 "/>
<path style="fill-rule:nonzero;fill:rgb(21.960784%,25.098041%,27.843139%);fill-opacity:1;stroke-width:0.5;stroke-linecap:butt;stroke-linejoin:round;stroke:rgb(21.960784%,25.098041%,27.843139%);stroke-opacity:1;stroke-miterlimit:4;" d="M 588.999574 -79.698053 L 587.998922 -80.898774 L 588.999574 -91.400217 L 595.29927 -91.400217 L 595.601354 -91.997333 L 596.602005 -91.997333 L 597.602656 -85.299255 L 596.702699 -85.000697 C 596.287335 -86.402621 595.551006 -88.75214 592.398011 -88.700217 L 590.302308 -88.700217 L 589.698141 -82.196851 C 591.699444 -83.001659 593.700746 -82.897813 595.399965 -81.898293 C 601.259123 -77.731466 598.452265 -68.391802 591.800138 -68.800696 C 589.018454 -68.781225 586.450745 -70.611514 586.501093 -73.402379 C 586.501093 -75.232668 587.829001 -76.056947 588.69749 -76.102379 C 589.84289 -76.141322 590.698792 -75.291081 590.698792 -73.999495 C 590.698792 -72.999975 590.201614 -72.299014 589.100268 -71.799254 C 589.798836 -70.799735 590.598098 -70.202619 591.598749 -70.202619 C 597.281692 -70.338917 596.318802 -82.50839 591.000876 -81.00262 C 590.107213 -80.749495 589.597447 -80.301659 588.999574 -79.698053 Z M 588.999574 -79.698053 " transform="matrix(0.62069,0,0,0.601852,-359.999976,60.185167)"/>
<path style="fill-rule:nonzero;fill:rgb(21.960784%,25.098041%,27.843139%);fill-opacity:1;stroke-width:0.5;stroke-linecap:butt;stroke-linejoin:round;stroke:rgb(21.960784%,25.098041%,27.843139%);stroke-opacity:1;stroke-miterlimit:4;" d="M 588.999548 -79.698115 L 587.998897 -80.898836 L 588.999548 -91.400279 L 595.299245 -91.400279 L 595.601328 -91.997395 L 596.601979 -91.997395 L 597.602631 -85.299317 L 596.702674 -85.00076 C 596.287309 -86.402683 595.550981 -88.752202 592.397986 -88.700279 L 590.302283 -88.700279 L 589.698116 -82.196913 C 591.699418 -83.001721 593.700721 -82.897875 595.399939 -81.898356 C 601.259098 -77.731528 598.45224 -68.391864 591.800113 -68.800758 C 589.018428 -68.781287 586.45072 -70.611576 586.501067 -73.402441 C 586.501067 -75.23273 587.828975 -76.057009 588.697465 -76.102442 C 589.842864 -76.141384 590.698767 -75.291143 590.698767 -73.999557 C 590.698767 -73.000038 590.201588 -72.299076 589.100243 -71.799316 C 589.79881 -70.799797 590.598073 -70.202682 591.598724 -70.202682 C 597.281667 -70.33898 596.318776 -82.508452 591.000851 -81.002682 C 590.107187 -80.749557 589.597422 -80.301721 588.999548 -79.698115 Z M 588.999548 -79.698115 " transform="matrix(-0.62069,0.000000000000000074,-0.000000000000000076,-0.601852,449.99996,69.814796)"/>
</g>
</svg>
