<?xml version="1.0" encoding="UTF-8"?>
<svg xmlns="http://www.w3.org/2000/svg" xmlns:xlink="http://www.w3.org/1999/xlink" width="90px" height="130px" viewBox="0 0 90 130" version="1.1">
<g id="surface1">
<path style="fill-rule:nonzero;fill:rgb(100%,100%,100%);fill-opacity:1;stroke-width:3;stroke-linecap:butt;stroke-linejoin:miter;stroke:rgb(21.960784%,25.098041%,27.843139%);stroke-opacity:1;stroke-miterlimit:4;" d="M 9.503103 1.499301 L 135.497037 1.499301 C 139.921299 1.499301 143.502246 5.081994 143.502246 9.501946 L 143.502246 206.498116 C 143.502246 210.918068 139.921299 214.500761 135.497037 214.500761 L 9.503103 214.500761 C 5.078841 214.500761 1.497894 210.918068 1.497894 206.498116 L 1.497894 9.501946 C 1.497894 5.081994 5.078841 1.499301 9.503103 1.499301 Z M 9.503103 1.499301 " transform="matrix(0.62069,0,0,0.601852,-0.0000398845,-0.0000135584)"/>
<path style=" stroke:none;fill-rule:nonzero;fill:rgb(21.960784%,25.098041%,27.843139%);fill-opacity:1;" d="M 45 24.316406 C 45 24.316406 35.070312 29.730469 35.070312 36.652344 C 35.070312 39.242188 37.054688 41.167969 39.476562 41.167969 C 41.152344 41.167969 42.578125 40.445312 43.199219 39 C 43.757812 37.855469 43.449219 35.75 42.207031 34.785156 C 43.757812 35.269531 44.070312 36.773438 44.070312 37.976562 C 44.070312 40.683594 43.199219 43.394531 41.710938 45.378906 L 48.289062 45.378906 C 46.730469 43.207031 45.90625 40.621094 45.929688 37.976562 C 45.929688 36.773438 46.242188 35.269531 47.792969 34.785156 C 46.550781 35.691406 46.242188 37.855469 46.800781 39 C 47.421875 40.445312 48.847656 41.167969 50.523438 41.167969 C 53.007812 41.167969 54.929688 39.242188 54.929688 36.652344 C 54.929688 29.730469 45 24.316406 45 24.316406 Z M 45 24.316406 "/>
<path style=" stroke:none;fill-rule:nonzero;fill:rgb(21.960784%,25.098041%,27.843139%);fill-opacity:1;" d="M 27 9.207031 C 27 9.207031 17.070312 14.625 17.070312 21.546875 C 17.070312 24.132812 19.054688 26.058594 21.476562 26.058594 C 23.152344 26.058594 24.578125 25.339844 25.199219 23.894531 C 25.757812 22.75 25.449219 20.644531 24.207031 19.679688 C 25.757812 20.160156 26.070312 21.667969 26.070312 22.871094 C 26.070312 25.578125 25.199219 28.285156 23.710938 30.273438 L 30.289062 30.273438 C 28.730469 28.101562 27.90625 25.515625 27.929688 22.871094 C 27.929688 21.667969 28.242188 20.160156 29.792969 19.679688 C 28.550781 20.582031 28.242188 22.75 28.800781 23.894531 C 29.421875 25.339844 30.847656 26.058594 32.523438 26.058594 C 35.007812 26.058594 36.929688 24.132812 36.929688 21.546875 C 36.929688 14.625 27 9.207031 27 9.207031 Z M 27 9.207031 "/>
<path style=" stroke:none;fill-rule:nonzero;fill:rgb(21.960784%,25.098041%,27.843139%);fill-opacity:1;" d="M 27 120.792969 C 27 120.792969 36.929688 115.375 36.929688 108.453125 C 36.929688 105.867188 34.945312 103.941406 32.523438 103.941406 C 30.847656 103.941406 29.421875 104.660156 28.800781 106.105469 C 28.242188 107.25 28.550781 109.355469 29.792969 110.320312 C 28.242188 109.839844 27.929688 108.332031 27.929688 107.128906 C 27.929688 104.421875 28.800781 101.714844 30.289062 99.726562 L 23.710938 99.726562 C 25.269531 101.898438 26.09375 104.484375 26.070312 107.128906 C 26.070312 108.332031 25.757812 109.839844 24.207031 110.320312 C 25.449219 109.417969 25.757812 107.25 25.199219 106.105469 C 24.578125 104.660156 23.152344 103.941406 21.476562 103.941406 C 18.992188 103.941406 17.070312 105.867188 17.070312 108.453125 C 17.070312 115.375 27 120.792969 27 120.792969 Z M 27 120.792969 "/>
<path style=" stroke:none;fill-rule:nonzero;fill:rgb(21.960784%,25.098041%,27.843139%);fill-opacity:1;" d="M 27 39.421875 C 27 39.421875 17.070312 44.839844 17.070312 51.757812 C 17.070312 54.347656 19.054688 56.273438 21.476562 56.273438 C 23.152344 56.273438 24.578125 55.550781 25.199219 54.105469 C 25.757812 52.964844 25.449219 50.855469 24.207031 49.894531 C 25.757812 50.375 26.070312 51.878906 26.070312 53.082031 C 26.070312 55.792969 25.199219 58.5 23.710938 60.484375 L 30.289062 60.484375 C 28.730469 58.316406 27.90625 55.726562 27.929688 53.082031 C 27.929688 51.878906 28.242188 50.375 29.792969 49.894531 C 28.550781 50.796875 28.242188 52.964844 28.800781 54.105469 C 29.421875 55.550781 30.847656 56.273438 32.523438 56.273438 C 35.007812 56.273438 36.929688 54.347656 36.929688 51.757812 C 36.929688 44.839844 27 39.421875 27 39.421875 Z M 27 39.421875 "/>
<path style=" stroke:none;fill-rule:nonzero;fill:rgb(21.960784%,25.098041%,27.843139%);fill-opacity:1;" d="M 63 9.207031 C 63 9.207031 53.070312 14.625 53.070312 21.546875 C 53.070312 24.132812 55.054688 26.058594 57.476562 26.058594 C 59.152344 26.058594 60.578125 25.339844 61.199219 23.894531 C 61.757812 22.75 61.449219 20.644531 60.207031 19.679688 C 61.757812 20.160156 62.070312 21.667969 62.070312 22.871094 C 62.070312 25.578125 61.199219 28.285156 59.710938 30.273438 L 66.289062 30.273438 C 64.730469 28.101562 63.90625 25.515625 63.929688 22.871094 C 63.929688 21.667969 64.242188 20.160156 65.792969 19.679688 C 64.550781 20.582031 64.242188 22.75 64.800781 23.894531 C 65.421875 25.339844 66.847656 26.058594 68.523438 26.058594 C 71.007812 26.058594 72.929688 24.132812 72.929688 21.546875 C 72.929688 14.625 63 9.207031 63 9.207031 Z M 63 9.207031 "/>
<path style=" stroke:none;fill-rule:nonzero;fill:rgb(21.960784%,25.098041%,27.843139%);fill-opacity:1;" d="M 63 120.792969 C 63 120.792969 72.929688 115.375 72.929688 108.453125 C 72.929688 105.867188 70.945312 103.941406 68.523438 103.941406 C 66.847656 103.941406 65.421875 104.660156 64.800781 106.105469 C 64.242188 107.25 64.550781 109.355469 65.792969 110.320312 C 64.242188 109.839844 63.929688 108.332031 63.929688 107.128906 C 63.929688 104.421875 64.800781 101.714844 66.289062 99.726562 L 59.710938 99.726562 C 61.269531 101.898438 62.09375 104.484375 62.070312 107.128906 C 62.070312 108.332031 61.757812 109.839844 60.207031 110.320312 C 61.449219 109.417969 61.757812 107.25 61.199219 106.105469 C 60.578125 104.660156 59.152344 103.941406 57.476562 103.941406 C 54.992188 103.941406 53.070312 105.867188 53.070312 108.453125 C 53.070312 115.375 63 120.792969 63 120.792969 Z M 63 120.792969 "/>
<path style=" stroke:none;fill-rule:nonzero;fill:rgb(21.960784%,25.098041%,27.843139%);fill-opacity:1;" d="M 63 39.421875 C 63 39.421875 53.070312 44.839844 53.070312 51.757812 C 53.070312 54.347656 55.054688 56.273438 57.476562 56.273438 C 59.152344 56.273438 60.578125 55.550781 61.199219 54.105469 C 61.757812 52.964844 61.449219 50.855469 60.207031 49.894531 C 61.757812 50.375 62.070312 51.878906 62.070312 53.082031 C 62.070312 55.792969 61.199219 58.5 59.710938 60.484375 L 66.289062 60.484375 C 64.730469 58.316406 63.90625 55.726562 63.929688 53.082031 C 63.929688 51.878906 64.242188 50.375 65.792969 49.894531 C 64.550781 50.796875 64.242188 52.964844 64.800781 54.105469 C 65.421875 55.550781 66.847656 56.273438 68.523438 56.273438 C 71.007812 56.273438 72.929688 54.347656 72.929688 51.757812 C 72.929688 44.839844 63 39.421875 63 39.421875 Z M 63 39.421875 "/>
<path style=" stroke:none;fill-rule:nonzero;fill:rgb(21.960784%,25.098041%,27.843139%);fill-opacity:1;" d="M 27 90.640625 C 27 90.640625 36.929688 85.222656 36.929688 78.300781 C 36.929688 75.714844 34.945312 73.785156 32.523438 73.785156 C 30.847656 73.785156 29.421875 74.507812 28.800781 75.953125 C 28.242188 77.097656 28.550781 79.203125 29.792969 80.167969 C 28.242188 79.683594 27.929688 78.179688 27.929688 76.976562 C 27.929688 74.269531 28.800781 71.558594 30.289062 69.574219 L 23.710938 69.574219 C 25.269531 71.746094 26.09375 74.332031 26.070312 76.976562 C 26.070312 78.179688 25.757812 79.683594 24.207031 80.167969 C 25.449219 79.265625 25.757812 77.097656 25.199219 75.953125 C 24.578125 74.507812 23.152344 73.785156 21.476562 73.785156 C 18.992188 73.785156 17.070312 75.714844 17.070312 78.300781 C 17.070312 85.222656 27 90.640625 27 90.640625 Z M 27 90.640625 "/>
<path style=" stroke:none;fill-rule:nonzero;fill:rgb(21.960784%,25.098041%,27.843139%);fill-opacity:1;" d="M 63 90.640625 C 63 90.640625 72.929688 85.222656 72.929688 78.300781 C 72.929688 75.714844 70.945312 73.785156 68.523438 73.785156 C 66.847656 73.785156 65.421875 74.507812 64.800781 75.953125 C 64.242188 77.097656 64.550781 79.203125 65.792969 80.167969 C 64.242188 79.683594 63.929688 78.179688 63.929688 76.976562 C 63.929688 74.269531 64.800781 71.558594 66.289062 69.574219 L 59.710938 69.574219 C 61.269531 71.746094 62.09375 74.332031 62.070312 76.976562 C 62.070312 78.179688 61.757812 79.683594 60.207031 80.167969 C 61.449219 79.265625 61.757812 77.097656 61.199219 75.953125 C 60.578125 74.507812 59.152344 73.785156 57.476562 73.785156 C 54.992188 73.785156 53.070312 75.714844 53.070312 78.300781 C 53.070312 85.222656 63 90.640625 63 90.640625 Z M 63 90.640625 "/>
<path style=" stroke:none;fill-rule:nonzero;fill:rgb(21.960784%,25.098041%,27.843139%);fill-opacity:1;" d="M 45 105.746094 C 45 105.746094 54.929688 100.328125 54.929688 93.40625 C 54.929688 90.820312 52.945312 88.894531 50.523438 88.894531 C 48.847656 88.894531 47.421875 89.617188 46.800781 91.058594 C 46.242188 92.203125 46.550781 94.308594 47.792969 95.273438 C 46.242188 94.792969 45.929688 93.285156 45.929688 92.082031 C 45.929688 89.375 46.800781 86.667969 48.289062 84.679688 L 41.710938 84.679688 C 43.269531 86.851562 44.09375 89.4375 44.070312 92.082031 C 44.070312 93.285156 43.757812 94.792969 42.207031 95.273438 C 43.449219 94.371094 43.757812 92.203125 43.199219 91.058594 C 42.578125 89.617188 41.152344 88.894531 39.476562 88.894531 C 36.992188 88.894531 35.070312 90.820312 35.070312 93.40625 C 35.070312 100.328125 45 105.746094 45 105.746094 Z M 45 105.746094 "/>
<path style=" stroke:none;fill-rule:nonzero;fill:rgb(21.960784%,25.098041%,27.843139%);fill-opacity:1;" d="M 7.949219 21.355469 C 7.949219 21.355469 3.597656 23.679688 3.597656 26.648438 C 3.597656 27.761719 4.46875 28.585938 5.527344 28.585938 C 6.261719 28.585938 6.886719 28.277344 7.160156 27.65625 C 7.402344 27.167969 7.269531 26.261719 6.722656 25.851562 C 7.402344 26.054688 7.539062 26.703125 7.539062 27.21875 C 7.539062 28.378906 7.160156 29.542969 6.507812 30.394531 L 9.390625 30.394531 C 8.707031 29.460938 8.34375 28.351562 8.355469 27.21875 C 8.355469 26.703125 8.492188 26.054688 9.171875 25.851562 C 8.628906 26.238281 8.492188 27.167969 8.734375 27.65625 C 9.007812 28.277344 9.632812 28.585938 10.367188 28.585938 C 11.453125 28.585938 12.296875 27.761719 12.296875 26.648438 C 12.296875 23.679688 7.949219 21.355469 7.949219 21.355469 Z M 7.949219 21.355469 "/>
<path style=" stroke:none;fill-rule:nonzero;fill:rgb(21.960784%,25.098041%,27.843139%);fill-opacity:1;" d="M 82.050781 108.644531 C 82.050781 108.644531 86.402344 106.320312 86.402344 103.351562 C 86.402344 102.238281 85.53125 101.414062 84.472656 101.414062 C 83.738281 101.414062 83.113281 101.722656 82.839844 102.34375 C 82.597656 102.832031 82.730469 103.738281 83.277344 104.148438 C 82.597656 103.945312 82.460938 103.296875 82.460938 102.78125 C 82.460938 101.621094 82.839844 100.457031 83.492188 99.605469 L 80.609375 99.605469 C 81.292969 100.539062 81.65625 101.648438 81.644531 102.78125 C 81.644531 103.296875 81.507812 103.945312 80.828125 104.148438 C 81.371094 103.761719 81.507812 102.832031 81.261719 102.34375 C 80.992188 101.722656 80.367188 101.414062 79.632812 101.414062 C 78.546875 101.414062 77.703125 102.238281 77.703125 103.351562 C 77.703125 106.320312 82.050781 108.644531 82.050781 108.644531 Z M 82.050781 108.644531 "/>
<path style="fill-rule:nonzero;fill:rgb(21.960784%,25.098041%,27.843139%);fill-opacity:1;stroke-width:0.6;stroke-linecap:butt;stroke-linejoin:round;stroke:rgb(21.960784%,25.098041%,27.843139%);stroke-opacity:1;stroke-miterlimit:4;" d="M 1313.099674 -91.698775 C 1312.401107 -90.10214 1311.79694 -88.602861 1309.801931 -87.9019 L 1309.801931 -86.798534 L 1311.79694 -86.798534 L 1311.79694 -71.799254 C 1311.79694 -71.202139 1311.702539 -70.799735 1311.299761 -70.501177 C 1310.997678 -70.299975 1310.500499 -70.202619 1309.801931 -70.202619 L 1309.801931 -69.001898 L 1316.000933 -69.001898 L 1316.000933 -70.098773 C 1315.302365 -70.098773 1314.798893 -70.299975 1314.503103 -70.501177 C 1314.100325 -70.799735 1313.999631 -71.202139 1313.999631 -71.701898 L 1313.999631 -91.698775 Z M 1320.8028 -91.698775 C 1318.027409 -91.711756 1317.121159 -89.459592 1316.598806 -87.097092 C 1315.831011 -82.566803 1315.831011 -77.932668 1316.598806 -73.402379 C 1317.247027 -69.501658 1319.179102 -68.826658 1320.8028 -68.800696 C 1323.766993 -68.755263 1324.692123 -71.929062 1324.899805 -73.298533 C 1325.61096 -77.880745 1325.548026 -82.52137 1324.899805 -87.097092 C 1324.692123 -88.570409 1324.119423 -91.698775 1320.8028 -91.698775 Z M 1320.8028 -90.498054 C 1321.602062 -90.498054 1322.199935 -89.60238 1322.602713 -87.999255 C 1323.427149 -82.85887 1323.389389 -77.62762 1322.502019 -72.500216 C 1322.199935 -70.897091 1321.602062 -70.098773 1320.8028 -70.098773 C 1319.997244 -70.098773 1319.399371 -70.897091 1319.097288 -72.500216 C 1317.888954 -78.737476 1318.688216 -86.461034 1319.097288 -88.103102 C 1319.399371 -89.699736 1320.097939 -90.498054 1320.8028 -90.498054 Z M 1320.8028 -90.498054 " transform="matrix(0.62069,0,0,0.601852,-809.999976,60.185167)"/>
<path style="fill-rule:nonzero;fill:rgb(21.960784%,25.098041%,27.843139%);fill-opacity:1;stroke-width:0.6;stroke-linecap:butt;stroke-linejoin:round;stroke:rgb(21.960784%,25.098041%,27.843139%);stroke-opacity:1;stroke-miterlimit:4;" d="M 1313.099534 -91.698837 C 1312.400967 -90.102202 1311.803093 -88.602923 1309.801791 -87.901962 L 1309.801791 -86.798596 L 1311.803093 -86.798596 L 1311.803093 -71.799316 C 1311.803093 -71.202201 1311.702399 -70.799797 1311.299621 -70.501239 C 1310.997538 -70.300037 1310.500359 -70.202682 1309.801791 -70.202682 L 1309.801791 -69.00196 L 1316.000793 -69.00196 L 1316.000793 -70.098835 C 1315.302225 -70.098835 1314.798753 -70.300037 1314.502963 -70.501239 C 1314.100185 -70.799797 1313.999491 -71.202201 1313.999491 -71.70196 L 1313.999491 -91.698837 Z M 1320.80266 -91.698837 C 1318.027269 -91.711818 1317.121019 -89.459654 1316.598666 -87.097154 C 1315.830871 -82.566865 1315.830871 -77.93273 1316.598666 -73.402441 C 1317.246887 -69.50172 1319.178962 -68.82672 1320.80266 -68.800758 C 1323.766853 -68.755326 1324.691983 -71.929124 1324.899665 -73.298595 C 1325.61082 -77.880807 1325.547886 -82.521432 1324.899665 -87.097154 C 1324.691983 -88.570471 1324.119283 -91.698837 1320.80266 -91.698837 Z M 1320.80266 -90.498116 C 1321.601922 -90.498116 1322.199795 -89.602443 1322.602573 -87.999318 C 1323.427009 -82.858933 1323.389249 -77.627682 1322.501879 -72.500278 C 1322.199795 -70.897153 1321.601922 -70.098835 1320.80266 -70.098835 C 1319.997104 -70.098835 1319.399231 -70.897153 1319.097148 -72.500278 C 1317.888814 -78.737538 1318.688076 -86.461096 1319.097148 -88.103164 C 1319.399231 -89.699798 1320.097799 -90.498116 1320.80266 -90.498116 Z M 1320.80266 -90.498116 " transform="matrix(-0.62069,0.000000000000000074,-0.000000000000000076,-0.601852,899.999889,69.814796)"/>
</g>
</svg>
