<?xml version="1.0" encoding="UTF-8"?>
<svg xmlns="http://www.w3.org/2000/svg" xmlns:xlink="http://www.w3.org/1999/xlink" width="90px" height="130px" viewBox="0 0 90 130" version="1.1">
<defs>
<clipPath id="clip1">
  <path d="M 25 40 L 52 40 L 52 58 L 25 58 Z M 25 40 "/>
</clipPath>
<clipPath id="clip2">
  <path d="M 54.71875 38.59375 L 72.195312 41.816406 C 72.195312 41.816406 75.640625 42.175781 75.640625 46.171875 L 75.640625 61.503906 L 14.355469 68.367188 C 14.355469 68.367188 29.800781 45.992188 34.660156 41.996094 C 35.152344 41.519531 37.675781 41.039062 40.691406 40.503906 C 45.351562 39.78125 50.03125 39.167969 54.71875 38.652344 Z M 54.71875 38.59375 "/>
</clipPath>
<clipPath id="clip3">
  <path d="M 54 44 L 72 44 L 72 64 L 54 64 Z M 54 44 "/>
</clipPath>
<clipPath id="clip4">
  <path d="M 63.398438 39.847656 L 72.320312 61.753906 L 59.210938 63.320312 L 53.980469 46.691406 Z M 63.398438 39.847656 "/>
</clipPath>
<clipPath id="clip5">
  <path d="M 38 72 L 65 72 L 65 90 L 38 90 Z M 38 72 "/>
</clipPath>
<clipPath id="clip6">
  <path d="M 35.257812 91.351562 L 17.78125 88.128906 C 17.78125 88.128906 14.335938 87.769531 14.335938 83.773438 L 14.335938 68.441406 L 75.621094 61.578125 C 75.621094 61.578125 60.175781 83.953125 55.316406 87.949219 C 54.824219 88.425781 52.300781 88.90625 49.285156 89.441406 C 44.625 90.164062 39.945312 90.777344 35.257812 91.292969 Z M 35.257812 91.351562 "/>
</clipPath>
<clipPath id="clip7">
  <path d="M 18 66 L 36 66 L 36 86 L 18 86 Z M 18 66 "/>
</clipPath>
<clipPath id="clip8">
  <path d="M 26.582031 90.097656 L 17.660156 68.1875 L 30.765625 66.625 L 35.996094 83.253906 Z M 26.582031 90.097656 "/>
</clipPath>
</defs>
<g id="surface1">
<path style="fill-rule:nonzero;fill:rgb(100%,100%,100%);fill-opacity:1;stroke-width:3;stroke-linecap:butt;stroke-linejoin:miter;stroke:rgb(21.960784%,25.098041%,27.843139%);stroke-opacity:1;stroke-miterlimit:4;" d="M 9.503126 1.499301 L 135.49706 1.499301 C 139.921322 1.499301 143.502269 5.081994 143.502269 9.501946 L 143.502269 206.498116 C 143.502269 210.918068 139.921322 214.500761 135.49706 214.500761 L 9.503126 214.500761 C 5.078864 214.500761 1.497917 210.918068 1.497917 206.498116 L 1.497917 9.501946 C 1.497917 5.081994 5.078864 1.499301 9.503126 1.499301 Z M 9.503126 1.499301 " transform="matrix(0.62069,0,0,0.601852,-0.0000540769,-0.0000135584)"/>
<path style=" stroke:none;fill-rule:nonzero;fill:rgb(21.960784%,25.098041%,27.843139%);fill-opacity:1;" d="M 18.164062 5.441406 C 18.164062 5.441406 9.496094 10.085938 9.496094 16.015625 C 9.496094 18.234375 11.230469 19.886719 13.339844 19.886719 C 14.804688 19.886719 16.050781 19.265625 16.59375 18.027344 C 17.078125 17.046875 16.808594 15.242188 15.726562 14.417969 C 17.078125 14.832031 17.351562 16.121094 17.351562 17.152344 C 17.351562 19.472656 16.59375 21.792969 15.292969 23.496094 L 21.035156 23.496094 C 19.675781 21.636719 18.953125 19.417969 18.976562 17.152344 C 18.976562 16.121094 19.246094 14.832031 20.601562 14.417969 C 19.519531 15.191406 19.246094 17.046875 19.734375 18.027344 C 20.277344 19.265625 21.523438 19.886719 22.984375 19.886719 C 25.152344 19.886719 26.832031 18.234375 26.832031 16.015625 C 26.832031 10.085938 18.164062 5.441406 18.164062 5.441406 Z M 18.164062 5.441406 "/>
<path style=" stroke:none;fill-rule:nonzero;fill:rgb(100%,100%,100%);fill-opacity:1;" d="M 4.59375 4.09375 L 13.160156 4.09375 L 13.160156 34.183594 L 4.59375 34.183594 Z M 4.59375 4.09375 "/>
<path style=" stroke:none;fill-rule:nonzero;fill:rgb(21.960784%,25.098041%,27.843139%);fill-opacity:1;" d="M 71.710938 124.558594 C 71.710938 124.558594 80.378906 119.914062 80.378906 113.984375 C 80.378906 111.765625 78.648438 110.113281 76.535156 110.113281 C 75.070312 110.113281 73.824219 110.734375 73.285156 111.972656 C 72.796875 112.953125 73.066406 114.757812 74.148438 115.582031 C 72.796875 115.167969 72.523438 113.878906 72.523438 112.847656 C 72.523438 110.527344 73.285156 108.207031 74.582031 106.503906 L 68.839844 106.503906 C 70.203125 108.363281 70.921875 110.582031 70.898438 112.847656 C 70.898438 113.878906 70.628906 115.167969 69.273438 115.582031 C 70.359375 114.808594 70.628906 112.953125 70.140625 111.972656 C 69.597656 110.734375 68.351562 110.113281 66.890625 110.113281 C 64.722656 110.113281 63.042969 111.765625 63.042969 113.984375 C 63.042969 119.914062 71.710938 124.558594 71.710938 124.558594 Z M 71.710938 124.558594 "/>
<path style=" stroke:none;fill-rule:nonzero;fill:rgb(21.960784%,25.098041%,27.843139%);fill-opacity:1;" d="M 51.703125 39.230469 L 75.605469 61.566406 L 36.917969 89.164062 L 14.3125 68.4375 Z M 51.703125 39.230469 "/>
<path style=" stroke:none;fill-rule:nonzero;fill:rgb(46.666667%,46.666667%,80.000001%);fill-opacity:1;" d="M 62.472656 47.246094 L 35.09375 62.160156 L 26.230469 52.019531 C 26.230469 52.019531 30.847656 45.394531 34.601562 41.996094 C 35.152344 41.578125 37.675781 41.039062 40.691406 40.503906 C 46.597656 39.546875 62.472656 47.246094 62.472656 47.246094 Z M 62.472656 47.246094 "/>
<g clip-path="url(#clip1)" clip-rule="nonzero">
<g clip-path="url(#clip2)" clip-rule="nonzero">
<path style=" stroke:none;fill-rule:nonzero;fill:rgb(21.960784%,25.098041%,27.843139%);fill-opacity:1;" d="M 37.0625 40.742188 C 37.0625 40.742188 39.398438 43.007812 38.660156 45.097656 C 38.546875 45.429688 38.304688 45.707031 37.980469 45.863281 C 37.65625 46.019531 37.28125 46.046875 36.9375 45.933594 C 36.484375 45.769531 36.15625 45.382812 36.078125 44.917969 C 36.078125 44.621094 36.136719 44.144531 36.570312 43.964844 C 36.570312 43.964844 35.769531 43.964844 35.585938 45.515625 L 35.460938 46.289062 L 34.722656 46.050781 C 34.875 45.8125 35.03125 45.574219 35.152344 45.335938 C 35.953125 44.023438 35.339844 43.546875 35.339844 43.546875 C 35.585938 43.964844 35.339844 44.382812 35.09375 44.621094 C 34.785156 44.917969 34.292969 45.039062 33.859375 44.859375 C 33.515625 44.75 33.230469 44.511719 33.070312 44.199219 C 32.910156 43.882812 32.882812 43.519531 33 43.1875 C 33.738281 41.101562 37.0625 40.742188 37.0625 40.742188 Z M 49.984375 44.976562 C 49.984375 44.976562 52.320312 47.304688 51.582031 49.394531 C 51.472656 49.726562 51.222656 50 50.894531 50.148438 C 50.570312 50.292969 50.191406 50.300781 49.859375 50.167969 C 49.421875 50.015625 49.097656 49.65625 49 49.214844 C 49 48.855469 49.058594 48.4375 49.492188 48.199219 C 49.492188 48.199219 48.691406 48.199219 48.503906 49.75 L 48.382812 50.527344 L 47.644531 50.289062 C 47.796875 50.074219 47.941406 49.859375 48.074219 49.632812 C 48.875 48.320312 48.257812 47.84375 48.257812 47.84375 C 48.503906 48.257812 48.257812 48.617188 48.011719 48.855469 C 47.667969 49.125 47.214844 49.214844 46.78125 49.09375 C 46.097656 48.867188 45.71875 48.15625 45.921875 47.484375 C 46.660156 45.394531 49.984375 44.976562 49.984375 44.976562 Z M 43.523438 42.890625 C 43.523438 42.890625 45.859375 45.15625 45.121094 47.246094 C 45.011719 47.578125 44.761719 47.851562 44.433594 48 C 44.109375 48.144531 43.730469 48.15625 43.398438 48.019531 C 42.960938 47.867188 42.636719 47.507812 42.539062 47.066406 C 42.539062 46.707031 42.597656 46.289062 43.03125 46.113281 C 43.03125 46.113281 42.230469 46.113281 42.046875 47.601562 L 41.921875 48.378906 L 41.183594 48.140625 C 41.335938 47.929688 41.480469 47.710938 41.613281 47.484375 C 42.414062 46.171875 41.800781 45.695312 41.800781 45.695312 C 42.046875 46.113281 41.800781 46.46875 41.554688 46.769531 C 41.207031 47.035156 40.753906 47.125 40.320312 47.007812 C 39.976562 46.898438 39.691406 46.660156 39.53125 46.347656 C 39.371094 46.03125 39.34375 45.667969 39.460938 45.335938 C 40.199219 43.246094 43.523438 42.890625 43.523438 42.890625 Z M 32.324219 44.800781 C 32.324219 44.800781 34.660156 47.066406 33.921875 49.15625 C 33.824219 49.5 33.582031 49.785156 33.253906 49.945312 C 32.925781 50.105469 32.542969 50.121094 32.199219 49.988281 C 31.746094 49.824219 31.417969 49.4375 31.339844 48.976562 C 31.339844 48.675781 31.398438 48.199219 31.832031 48.019531 C 31.832031 48.019531 31.03125 48.019531 30.847656 49.511719 L 30.722656 50.289062 L 29.984375 50.050781 C 30.136719 49.855469 30.28125 49.65625 30.414062 49.453125 C 31.214844 48.082031 30.601562 47.601562 30.601562 47.601562 C 30.847656 48.019531 30.601562 48.4375 30.355469 48.675781 C 30.046875 48.976562 29.554688 49.035156 29.125 48.914062 C 28.78125 48.808594 28.496094 48.570312 28.332031 48.253906 C 28.171875 47.941406 28.144531 47.578125 28.261719 47.246094 C 29 45.15625 32.324219 44.800781 32.324219 44.800781 Z M 45.183594 49.035156 C 45.183594 49.035156 47.519531 51.363281 46.78125 53.449219 C 46.671875 53.785156 46.425781 54.058594 46.097656 54.203125 C 45.769531 54.351562 45.394531 54.359375 45.058594 54.226562 C 44.621094 54.074219 44.296875 53.710938 44.199219 53.273438 C 44.199219 52.914062 44.261719 52.496094 44.691406 52.257812 C 44.691406 52.257812 43.890625 52.257812 43.707031 53.808594 L 43.582031 54.585938 L 42.84375 54.34375 C 43 54.132812 43.144531 53.914062 43.277344 53.6875 C 44.074219 52.375 43.460938 51.898438 43.460938 51.898438 C 43.707031 52.316406 43.460938 52.675781 43.214844 52.914062 C 42.871094 53.183594 42.414062 53.273438 41.984375 53.152344 C 41.296875 52.925781 40.917969 52.214844 41.121094 51.542969 C 41.859375 49.453125 45.183594 49.035156 45.183594 49.035156 Z M 38.722656 46.945312 C 38.722656 46.945312 41.058594 49.214844 40.320312 51.300781 C 40.210938 51.636719 39.964844 51.910156 39.636719 52.054688 C 39.308594 52.203125 38.933594 52.210938 38.597656 52.078125 C 38.160156 51.925781 37.835938 51.5625 37.738281 51.125 C 37.738281 50.765625 37.800781 50.347656 38.230469 50.167969 C 38.230469 50.167969 37.429688 50.167969 37.246094 51.660156 L 37.121094 52.4375 L 36.382812 52.199219 L 36.816406 51.542969 C 37.613281 50.230469 37 49.75 37 49.75 C 37.246094 50.167969 37 50.527344 36.753906 50.824219 C 36.410156 51.09375 35.953125 51.183594 35.523438 51.0625 C 35.179688 50.953125 34.894531 50.71875 34.730469 50.402344 C 34.570312 50.089844 34.542969 49.726562 34.660156 49.394531 C 35.398438 47.304688 38.722656 46.945312 38.722656 46.945312 Z M 33.492188 50.824219 C 33.492188 50.824219 35.832031 53.09375 35.09375 55.179688 C 34.980469 55.515625 34.734375 55.789062 34.410156 55.949219 C 34.085938 56.105469 33.710938 56.128906 33.367188 56.015625 C 32.914062 55.851562 32.585938 55.464844 32.507812 55 C 32.507812 54.703125 32.570312 54.226562 33 54.046875 C 33 54.046875 32.199219 54.046875 32.015625 55.597656 L 31.890625 56.375 L 31.152344 56.136719 C 31.308594 55.902344 31.457031 55.664062 31.585938 55.417969 C 32.382812 54.105469 31.769531 53.628906 31.769531 53.628906 C 32.015625 54.046875 31.769531 54.464844 31.523438 54.703125 C 31.179688 54.972656 30.722656 55.0625 30.292969 54.941406 C 29.949219 54.832031 29.664062 54.59375 29.5 54.28125 C 29.339844 53.96875 29.3125 53.605469 29.429688 53.273438 C 30.167969 51.183594 33.492188 50.824219 33.492188 50.824219 Z M 27.09375 48.738281 C 27.09375 48.738281 29.429688 51.003906 28.691406 53.09375 L 25.183594 52.554688 Z M 39.953125 52.914062 C 39.953125 52.914062 42.292969 55.300781 41.554688 57.328125 L 35.890625 55.417969 C 36.628906 53.332031 39.953125 52.972656 39.953125 52.972656 Z M 39.953125 52.914062 "/>
</g>
</g>
<path style=" stroke:none;fill-rule:nonzero;fill:rgb(26.666668%,60.000002%,40.000001%);fill-opacity:1;" d="M 54.042969 53.628906 L 56.320312 63.652344 L 39.398438 65.5625 Z M 54.042969 53.628906 "/>
<path style=" stroke:none;fill-rule:nonzero;fill:rgb(46.666667%,46.666667%,80.000001%);fill-opacity:1;" d="M 45.429688 39.429688 L 37.921875 40.980469 C 37.921875 40.980469 39.523438 47.664062 50.042969 47.902344 C 56.363281 47.976562 62.445312 45.566406 66.902344 41.21875 L 60.996094 38.832031 Z M 45.429688 39.429688 "/>
<path style=" stroke:none;fill-rule:nonzero;fill:rgb(86.274511%,61.56863%,43.921569%);fill-opacity:1;" d="M 50.78125 15.445312 L 38.84375 16.398438 L 39.460938 19.980469 L 37.613281 25.945312 L 39.277344 26.363281 L 38.96875 28.449219 L 40.445312 29.046875 L 39.953125 30.121094 C 39.953125 30.121094 41.492188 30.777344 40.566406 31.671875 C 39.644531 32.566406 38.84375 34.296875 43.214844 34.535156 C 45.859375 34.65625 47.644531 35.910156 45.429688 39.546875 C 45.429688 39.25 46.351562 41.816406 50.167969 42.175781 C 58.289062 42.890625 60.996094 38.832031 60.996094 38.832031 Z M 50.78125 15.445312 "/>
<path style=" stroke:none;fill-rule:nonzero;fill:rgb(53.725493%,44.705883%,32.156864%);fill-opacity:1;" d="M 41.429688 20.277344 C 41.429688 20.277344 40.875 20.574219 42.046875 21.230469 C 42.046875 21.230469 42.660156 21.230469 43.769531 20.933594 C 44.8125 20.636719 46.96875 21.171875 47.214844 21.53125 C 47.460938 21.886719 46.84375 19.5 43.277344 20.097656 C 41.058594 20.457031 41.429688 20.277344 41.429688 20.277344 Z M 41.429688 20.277344 "/>
<path style=" stroke:none;fill-rule:nonzero;fill:rgb(21.960784%,25.098041%,27.843139%);fill-opacity:1;" d="M 41.554688 22.066406 L 43.644531 21.949219 C 44.691406 21.828125 45.984375 22.125 46.535156 22.84375 C 46.535156 22.84375 45.121094 22.246094 43.890625 22.484375 C 43.890625 22.484375 44.015625 23.679688 43.277344 23.679688 C 42.476562 23.679688 42.660156 22.425781 42.660156 22.425781 Z M 41.554688 22.066406 "/>
<path style=" stroke:none;fill-rule:nonzero;fill:rgb(91.37255%,87.058824%,70.588237%);fill-opacity:1;" d="M 50.167969 15.144531 C 50.167969 15.144531 51.890625 28.449219 49.429688 29.464844 C 49.429688 29.464844 46.90625 32.210938 50.289062 34 C 52.382812 35.074219 52.503906 34.835938 62.472656 33.402344 C 62.472656 33.402344 62.410156 23.558594 61.550781 15.144531 Z M 50.167969 15.144531 "/>
<path style=" stroke:none;fill-rule:nonzero;fill:rgb(21.960784%,25.098041%,27.843139%);fill-opacity:1;" d="M 64.320312 39.488281 L 72.378906 42.054688 L 39.335938 65.5625 L 38.722656 65.683594 L 35.03125 62.222656 Z M 64.320312 39.488281 "/>
<path style=" stroke:none;fill-rule:nonzero;fill:rgb(53.725493%,44.705883%,32.156864%);fill-opacity:1;" d="M 49.984375 15.144531 C 49.984375 15.144531 51.828125 26.839844 49.183594 29.464844 C 46.351562 32.867188 49.183594 34.714844 51.828125 34.714844 C 51.828125 34.714844 47.398438 32.390625 49.492188 29.941406 C 53.183594 25.648438 49.984375 15.144531 49.984375 15.144531 Z M 38.96875 28.449219 C 38.96875 28.449219 41.800781 27.734375 42.96875 28.152344 C 42.96875 28.152344 44.199219 31.554688 43.769531 31.851562 L 40.566406 31.671875 C 40.566406 31.671875 39.460938 32.507812 39.460938 34.121094 C 39.460938 34.121094 40.507812 34.714844 40.875 34.777344 L 44.320312 34.953125 L 44.445312 32.089844 L 43.214844 27.914062 C 43.214844 27.914062 42.292969 27.078125 40.753906 27.136719 C 40.074219 27.136719 39.214844 26.960938 39.214844 26.960938 Z M 38.96875 28.449219 "/>
<path style=" stroke:none;fill-rule:nonzero;fill:rgb(93.333334%,33.333334%,26.666668%);fill-opacity:1;" d="M 39.214844 40.621094 C 39.214844 40.621094 41.121094 48.378906 53.734375 47.484375 L 52.320312 48.675781 C 52.320312 48.675781 39.890625 49.871094 37.859375 40.859375 Z M 39.214844 40.621094 "/>
<path style=" stroke:none;fill-rule:nonzero;fill:rgb(33.333334%,46.666667%,53.333336%);fill-opacity:1;" d="M 72.195312 61.921875 L 59.273438 63.355469 C 56.382812 58.222656 53.304688 53.210938 54.042969 46.945312 L 63.457031 40.027344 Z M 72.195312 61.921875 "/>
<path style=" stroke:none;fill-rule:nonzero;fill:rgb(21.960784%,25.098041%,27.843139%);fill-opacity:1;" d="M 54.472656 48.082031 L 59.273438 63.355469 L 56.320312 63.652344 L 51.765625 49.574219 Z M 54.472656 48.082031 "/>
<g clip-path="url(#clip3)" clip-rule="nonzero">
<g clip-path="url(#clip4)" clip-rule="nonzero">
<path style=" stroke:none;fill-rule:nonzero;fill:rgb(86.666667%,86.666667%,86.666667%);fill-opacity:1;" d="M 62.78125 44.679688 C 62.78125 44.679688 64.566406 45.574219 64.566406 46.886719 C 64.566406 47.316406 64.207031 47.664062 63.765625 47.664062 C 63.480469 47.652344 63.222656 47.492188 63.089844 47.246094 C 62.964844 47.066406 62.964844 46.769531 63.152344 46.648438 C 63.152344 46.648438 62.71875 46.769531 62.90625 47.664062 C 62.917969 47.800781 62.941406 47.945312 62.964844 48.082031 L 62.535156 48.082031 C 62.582031 47.941406 62.625 47.804688 62.660156 47.664062 C 62.84375 46.769531 62.410156 46.589844 62.410156 46.589844 C 62.597656 46.769531 62.535156 47.066406 62.410156 47.246094 C 62.289062 47.484375 62.042969 47.601562 61.796875 47.601562 C 61.355469 47.601562 60.996094 47.257812 60.996094 46.828125 C 60.996094 45.515625 62.78125 44.679688 62.78125 44.679688 Z M 58.78125 44.679688 C 58.78125 44.679688 60.566406 45.574219 60.566406 46.886719 C 60.566406 47.316406 60.210938 47.664062 59.765625 47.664062 C 59.480469 47.652344 59.222656 47.492188 59.089844 47.246094 C 58.964844 47.066406 58.964844 46.769531 59.152344 46.648438 C 59.152344 46.648438 58.71875 46.769531 58.90625 47.664062 C 58.917969 47.800781 58.941406 47.945312 58.964844 48.082031 L 58.535156 48.082031 C 58.582031 47.941406 58.625 47.804688 58.660156 47.664062 C 58.84375 46.769531 58.414062 46.589844 58.414062 46.589844 C 58.597656 46.769531 58.535156 47.066406 58.414062 47.246094 C 58.289062 47.484375 58.042969 47.601562 57.796875 47.601562 C 57.355469 47.601562 56.996094 47.257812 56.996094 46.828125 C 56.996094 45.515625 58.78125 44.679688 58.78125 44.679688 Z M 64.6875 47.84375 C 64.6875 47.84375 66.472656 48.738281 66.472656 50.050781 C 66.472656 50.480469 66.117188 50.824219 65.671875 50.824219 C 65.386719 50.8125 65.128906 50.65625 64.996094 50.40625 C 64.875 50.230469 64.875 49.988281 65.058594 49.8125 C 65.058594 49.8125 64.628906 49.929688 64.8125 50.824219 C 64.824219 50.984375 64.84375 51.144531 64.875 51.300781 L 64.441406 51.300781 C 64.492188 51.144531 64.535156 50.984375 64.566406 50.824219 C 64.75 49.929688 64.320312 49.75 64.320312 49.75 C 64.503906 49.988281 64.441406 50.230469 64.320312 50.40625 C 64.195312 50.644531 63.949219 50.765625 63.703125 50.765625 C 63.261719 50.765625 62.90625 50.417969 62.90625 49.988281 C 62.90625 48.675781 64.6875 47.84375 64.6875 47.84375 Z M 60.6875 47.84375 C 60.6875 47.84375 62.472656 48.738281 62.472656 50.050781 C 62.472656 50.480469 62.117188 50.824219 61.671875 50.824219 C 61.386719 50.8125 61.128906 50.65625 60.996094 50.40625 C 60.875 50.230469 60.875 49.988281 61.058594 49.8125 C 61.058594 49.8125 60.628906 49.929688 60.8125 50.824219 C 60.824219 50.984375 60.84375 51.144531 60.875 51.300781 L 60.441406 51.300781 C 60.492188 51.144531 60.535156 50.984375 60.566406 50.824219 C 60.75 49.929688 60.320312 49.75 60.320312 49.75 C 60.503906 49.988281 60.441406 50.230469 60.320312 50.40625 C 60.195312 50.644531 59.949219 50.765625 59.703125 50.765625 C 59.261719 50.765625 58.90625 50.417969 58.90625 49.988281 C 58.90625 48.675781 60.6875 47.84375 60.6875 47.84375 Z M 56.628906 47.84375 C 56.628906 47.84375 58.414062 48.738281 58.414062 50.050781 C 58.414062 50.480469 58.054688 50.824219 57.613281 50.824219 C 57.324219 50.8125 57.066406 50.65625 56.9375 50.40625 C 56.8125 50.230469 56.8125 49.988281 56.996094 49.8125 C 56.996094 49.8125 56.566406 49.929688 56.75 50.824219 C 56.761719 50.984375 56.78125 51.144531 56.8125 51.300781 L 56.382812 51.300781 C 56.429688 51.144531 56.472656 50.984375 56.503906 50.824219 C 56.691406 49.929688 56.257812 49.75 56.257812 49.75 C 56.445312 49.988281 56.382812 50.230469 56.257812 50.40625 C 56.136719 50.644531 55.890625 50.765625 55.644531 50.765625 C 55.199219 50.765625 54.84375 50.417969 54.84375 49.988281 C 54.84375 48.675781 56.628906 47.84375 56.628906 47.84375 Z M 66.84375 51.0625 C 66.84375 51.0625 68.625 51.898438 68.625 53.210938 C 68.625 53.640625 68.269531 53.988281 67.828125 53.988281 C 67.539062 53.976562 67.28125 53.816406 67.148438 53.570312 C 67.027344 53.390625 67.027344 53.152344 67.210938 52.972656 C 67.210938 52.972656 66.78125 53.09375 66.964844 53.988281 C 66.976562 54.148438 66.996094 54.308594 67.027344 54.464844 L 66.597656 54.464844 C 66.644531 54.308594 66.6875 54.148438 66.71875 53.988281 C 66.902344 53.09375 66.472656 52.914062 66.472656 52.914062 C 66.65625 53.152344 66.597656 53.390625 66.472656 53.570312 C 66.351562 53.808594 66.105469 53.988281 65.859375 53.988281 C 65.414062 53.988281 65.058594 53.640625 65.058594 53.210938 C 65.058594 51.898438 66.84375 51.0625 66.84375 51.0625 Z M 62.78125 51.0625 C 62.78125 51.0625 64.566406 51.898438 64.566406 53.210938 C 64.566406 53.640625 64.207031 53.988281 63.765625 53.988281 C 63.480469 53.976562 63.222656 53.816406 63.089844 53.570312 C 62.964844 53.390625 62.964844 53.152344 63.152344 52.972656 C 63.152344 52.972656 62.71875 53.09375 62.90625 53.988281 C 62.914062 54.148438 62.9375 54.308594 62.964844 54.464844 L 62.535156 54.464844 C 62.585938 54.308594 62.625 54.148438 62.660156 53.988281 C 62.84375 53.09375 62.410156 52.914062 62.410156 52.914062 C 62.597656 53.152344 62.535156 53.390625 62.410156 53.570312 C 62.289062 53.808594 62.042969 53.988281 61.796875 53.988281 C 61.355469 53.988281 60.996094 53.640625 60.996094 53.210938 C 60.996094 51.898438 62.78125 51.0625 62.78125 51.0625 Z M 58.78125 51.0625 C 58.78125 51.0625 60.566406 51.898438 60.566406 53.210938 C 60.566406 53.640625 60.210938 53.988281 59.765625 53.988281 C 59.480469 53.976562 59.222656 53.816406 59.089844 53.570312 C 58.964844 53.390625 58.964844 53.152344 59.152344 52.972656 C 59.152344 52.972656 58.71875 53.09375 58.90625 53.988281 C 58.914062 54.148438 58.9375 54.308594 58.964844 54.464844 L 58.535156 54.464844 C 58.585938 54.308594 58.625 54.148438 58.660156 53.988281 C 58.84375 53.09375 58.414062 52.914062 58.414062 52.914062 C 58.597656 53.152344 58.535156 53.390625 58.414062 53.570312 C 58.289062 53.808594 58.042969 53.988281 57.796875 53.988281 C 57.355469 53.988281 56.996094 53.640625 56.996094 53.210938 C 56.996094 51.898438 58.78125 51.0625 58.78125 51.0625 Z M 54.71875 51.0625 C 54.71875 51.0625 56.503906 51.898438 56.503906 53.210938 C 56.503906 53.640625 56.148438 53.988281 55.707031 53.988281 Z M 68.75 54.226562 C 68.75 54.226562 70.535156 55.0625 70.535156 56.375 C 70.535156 56.804688 70.175781 57.148438 69.734375 57.148438 C 69.449219 57.136719 69.191406 56.980469 69.058594 56.730469 C 68.933594 56.554688 68.933594 56.3125 69.117188 56.136719 C 69.117188 56.136719 68.6875 56.253906 68.871094 57.148438 C 68.882812 57.308594 68.90625 57.46875 68.933594 57.628906 L 68.503906 57.628906 C 68.554688 57.46875 68.59375 57.3125 68.625 57.148438 C 68.8125 56.253906 68.378906 56.074219 68.378906 56.074219 C 68.566406 56.3125 68.503906 56.554688 68.378906 56.730469 C 68.320312 56.972656 68.011719 57.148438 67.765625 57.148438 C 67.324219 57.148438 66.964844 56.804688 66.964844 56.375 C 66.964844 55.0625 68.75 54.226562 68.75 54.226562 Z M 64.6875 54.226562 C 64.6875 54.226562 66.472656 55.0625 66.472656 56.375 C 66.472656 56.804688 66.117188 57.148438 65.671875 57.148438 C 65.386719 57.136719 65.128906 56.980469 64.996094 56.730469 C 64.875 56.554688 64.875 56.3125 65.058594 56.136719 C 65.058594 56.136719 64.628906 56.253906 64.8125 57.148438 C 64.824219 57.308594 64.84375 57.46875 64.875 57.628906 L 64.441406 57.628906 C 64.492188 57.46875 64.535156 57.3125 64.566406 57.148438 C 64.75 56.253906 64.320312 56.074219 64.320312 56.074219 C 64.503906 56.3125 64.441406 56.554688 64.320312 56.730469 C 64.195312 56.972656 63.949219 57.148438 63.703125 57.148438 C 63.261719 57.148438 62.90625 56.804688 62.90625 56.375 C 62.90625 55.0625 64.6875 54.226562 64.6875 54.226562 Z M 60.6875 54.226562 C 60.6875 54.226562 62.472656 55.0625 62.472656 56.375 C 62.472656 56.804688 62.117188 57.148438 61.671875 57.148438 C 61.386719 57.136719 61.128906 56.980469 60.996094 56.730469 C 60.875 56.554688 60.875 56.3125 61.058594 56.136719 C 61.058594 56.136719 60.628906 56.253906 60.8125 57.148438 C 60.824219 57.308594 60.84375 57.46875 60.875 57.628906 L 60.441406 57.628906 C 60.492188 57.46875 60.535156 57.3125 60.566406 57.148438 C 60.75 56.253906 60.320312 56.074219 60.320312 56.074219 C 60.503906 56.3125 60.441406 56.554688 60.320312 56.730469 C 60.195312 56.972656 59.949219 57.148438 59.703125 57.148438 C 59.261719 57.148438 58.90625 56.804688 58.90625 56.375 C 58.90625 55.0625 60.6875 54.226562 60.6875 54.226562 Z M 56.628906 54.226562 C 56.628906 54.226562 58.414062 55.0625 58.414062 56.375 C 58.414062 56.804688 58.054688 57.148438 57.613281 57.148438 C 57.324219 57.136719 57.066406 56.980469 56.9375 56.730469 C 56.8125 56.554688 56.8125 56.3125 56.996094 56.136719 L 54.84375 56.375 C 54.84375 55.0625 56.628906 54.226562 56.628906 54.226562 Z M 66.84375 57.386719 C 66.84375 57.386719 68.625 58.222656 68.625 59.535156 C 68.625 59.882812 68.394531 60.1875 68.050781 60.285156 C 67.707031 60.382812 67.339844 60.246094 67.148438 59.953125 C 67.03125 59.742188 67.058594 59.484375 67.210938 59.296875 C 67.210938 59.296875 66.78125 59.476562 66.964844 60.3125 C 66.976562 60.472656 66.996094 60.632812 67.027344 60.789062 L 66.597656 60.789062 C 66.644531 60.632812 66.6875 60.472656 66.71875 60.3125 C 66.902344 59.476562 66.472656 59.296875 66.472656 59.296875 C 66.65625 59.476562 66.597656 59.714844 66.472656 59.894531 C 66.351562 60.132812 66.105469 60.3125 65.859375 60.3125 C 65.414062 60.3125 65.058594 59.964844 65.058594 59.535156 C 65.058594 58.222656 66.84375 57.386719 66.84375 57.386719 Z M 62.78125 57.386719 C 62.78125 57.386719 64.566406 58.222656 64.566406 59.535156 C 64.566406 59.882812 64.332031 60.1875 63.988281 60.285156 C 63.648438 60.382812 63.277344 60.246094 63.089844 59.953125 C 62.972656 59.742188 62.996094 59.484375 63.152344 59.296875 C 63.152344 59.296875 62.71875 59.476562 62.90625 60.3125 C 62.914062 60.472656 62.9375 60.632812 62.964844 60.789062 L 62.535156 60.789062 C 62.585938 60.632812 62.625 60.472656 62.660156 60.3125 C 62.84375 59.476562 62.410156 59.296875 62.410156 59.296875 C 62.597656 59.476562 62.535156 59.714844 62.410156 59.894531 C 62.289062 60.132812 62.042969 60.3125 61.796875 60.3125 C 61.355469 60.3125 60.996094 59.964844 60.996094 59.535156 C 60.996094 58.222656 62.78125 57.386719 62.78125 57.386719 Z M 70.902344 57.386719 L 71.886719 60.371094 C 71.601562 60.359375 71.34375 60.199219 71.210938 59.953125 C 71.09375 59.742188 71.117188 59.484375 71.273438 59.296875 C 71.273438 59.296875 70.84375 59.476562 71.027344 60.3125 C 71.039062 60.472656 71.058594 60.632812 71.089844 60.789062 L 70.65625 60.789062 C 70.707031 60.632812 70.746094 60.472656 70.78125 60.3125 C 70.964844 59.476562 70.535156 59.296875 70.535156 59.296875 C 70.71875 59.476562 70.65625 59.714844 70.535156 59.894531 C 70.472656 60.132812 70.164062 60.3125 69.917969 60.3125 C 69.476562 60.3125 69.117188 59.964844 69.117188 59.535156 C 69.117188 58.222656 70.902344 57.386719 70.902344 57.386719 Z M 58.78125 57.386719 C 58.78125 57.386719 60.566406 58.222656 60.566406 59.535156 C 60.566406 59.882812 60.332031 60.1875 59.988281 60.285156 C 59.648438 60.382812 59.28125 60.246094 59.089844 59.953125 C 58.972656 59.742188 58.996094 59.484375 59.152344 59.296875 C 59.152344 59.296875 58.71875 59.476562 58.90625 60.3125 C 58.914062 60.472656 58.9375 60.632812 58.964844 60.789062 L 58.535156 60.789062 C 58.585938 60.632812 58.625 60.472656 58.660156 60.3125 C 58.84375 59.476562 58.414062 59.296875 58.414062 59.296875 C 58.597656 59.476562 58.535156 59.714844 58.414062 59.894531 C 58.289062 60.132812 58.042969 60.3125 57.796875 60.3125 C 57.355469 60.3125 56.996094 59.964844 56.996094 59.535156 C 56.996094 58.222656 58.78125 57.386719 58.78125 57.386719 Z M 68.75 60.550781 C 68.75 60.550781 70.535156 61.386719 70.535156 62.699219 L 66.964844 62.699219 C 66.964844 61.386719 68.75 60.550781 68.75 60.550781 Z M 64.6875 60.550781 C 64.6875 60.550781 66.472656 61.386719 66.472656 62.699219 C 66.472656 63.042969 66.238281 63.351562 65.898438 63.449219 C 65.554688 63.542969 65.1875 63.410156 64.996094 63.117188 C 64.878906 62.90625 64.902344 62.648438 65.058594 62.460938 C 65.058594 62.460938 64.628906 62.640625 64.8125 63.535156 L 64.566406 63.535156 C 64.75 62.640625 64.320312 62.460938 64.320312 62.460938 C 64.503906 62.640625 64.441406 62.9375 64.320312 63.054688 C 64.195312 63.296875 63.949219 63.472656 63.703125 63.472656 C 63.261719 63.472656 62.90625 63.128906 62.90625 62.699219 C 62.90625 61.386719 64.6875 60.550781 64.6875 60.550781 Z M 60.6875 60.550781 C 60.6875 60.550781 62.472656 61.386719 62.472656 62.699219 C 62.472656 63.042969 62.242188 63.351562 61.898438 63.449219 C 61.554688 63.542969 61.1875 63.410156 60.996094 63.117188 C 60.878906 62.90625 60.902344 62.648438 61.058594 62.460938 C 61.058594 62.460938 60.628906 62.640625 60.8125 63.535156 C 60.824219 63.671875 60.847656 63.8125 60.875 63.953125 L 60.441406 63.953125 C 60.492188 63.792969 60.535156 63.636719 60.566406 63.472656 C 60.75 62.640625 60.320312 62.460938 60.320312 62.460938 C 60.503906 62.640625 60.441406 62.9375 60.320312 63.054688 C 60.195312 63.296875 59.949219 63.472656 59.703125 63.472656 C 59.261719 63.472656 58.90625 63.128906 58.90625 62.699219 C 58.90625 61.386719 60.6875 60.550781 60.6875 60.550781 Z M 60.6875 60.550781 "/>
</g>
</g>
<path style=" stroke:none;fill-rule:nonzero;fill:rgb(33.333334%,46.666667%,53.333336%);fill-opacity:1;" d="M 29.125 66.339844 L 54.90625 48.140625 L 54.226562 46.886719 L 26.539062 66.578125 Z M 29.125 66.339844 "/>
<path style=" stroke:none;fill-rule:nonzero;fill:rgb(53.725493%,44.705883%,32.156864%);fill-opacity:1;" d="M 61.734375 16.519531 C 61.734375 16.519531 64.011719 28.75 62.472656 33.34375 Z M 55.089844 32.925781 C 55.089844 32.925781 56.320312 22.007812 54.78125 16.519531 Z M 59.089844 32.925781 C 59.089844 32.925781 60.320312 22.007812 58.78125 16.519531 Z M 59.089844 32.925781 "/>
<path style=" stroke:none;fill-rule:nonzero;fill:rgb(21.960784%,25.098041%,27.843139%);fill-opacity:1;" d="M 60.996094 38.832031 L 70.65625 40.324219 C 73.117188 40.800781 75.519531 42.054688 75.578125 47.722656 C 75.703125 53.273438 75.640625 61.503906 75.640625 61.503906 L 72.257812 61.921875 Z M 60.996094 38.832031 "/>
<path style=" stroke:none;fill-rule:nonzero;fill:rgb(93.333334%,80.000001%,26.666668%);fill-opacity:1;" d="M 67.273438 45.695312 C 67.273438 46.417969 67.878906 47.007812 68.625 47.007812 C 69.375 47.007812 69.980469 46.417969 69.980469 45.695312 C 69.980469 44.96875 69.375 44.382812 68.625 44.382812 C 67.878906 44.382812 67.273438 44.96875 67.273438 45.695312 Z M 67.273438 45.695312 "/>
<path style=" stroke:none;fill-rule:nonzero;fill:rgb(80.000001%,80.000001%,80.000001%);fill-opacity:1;" d="M 17.925781 11.625 L 23.339844 19.261719 L 38.351562 55.957031 C 38.351562 56.015625 36.816406 56.730469 35.832031 56.195312 L 20.324219 20.394531 Z M 17.925781 11.625 "/>
<path style=" stroke:none;fill-rule:nonzero;fill:rgb(86.274511%,61.56863%,43.921569%);fill-opacity:1;" d="M 33.308594 58.042969 C 33.308594 58.042969 37.492188 56.730469 38.84375 55 C 38.84375 55 40.261719 54.882812 40.320312 55.0625 C 40.320312 55.242188 40.382812 56.195312 40.628906 56.253906 C 40.875 56.375 41.800781 56.554688 41.859375 56.851562 C 41.859375 57.210938 41.675781 58.285156 41.859375 58.460938 C 42.105469 58.699219 42.597656 58.941406 42.476562 59.65625 C 42.230469 60.429688 42.84375 61.027344 42.84375 61.207031 C 42.84375 61.386719 41.308594 63.296875 37.921875 64.546875 C 37.921875 64.546875 34.230469 58.523438 33.308594 57.984375 Z M 33.308594 58.042969 "/>
<path style=" stroke:none;fill-rule:nonzero;fill:rgb(21.960784%,25.098041%,27.843139%);fill-opacity:1;" d="M 31.890625 66.398438 C 31.890625 66.398438 32.691406 59.835938 23.15625 55.898438 L 14.292969 68.425781 Z M 31.890625 66.398438 "/>
<path style=" stroke:none;fill-rule:nonzero;fill:rgb(93.333334%,33.333334%,26.666668%);fill-opacity:1;" d="M 26.292969 51.542969 C 34.355469 54.703125 37.984375 63.472656 38.722656 65.683594 L 34.96875 66.097656 C 33.738281 61.804688 24.753906 53.75 24.753906 53.75 Z M 26.292969 51.542969 "/>
<path style=" stroke:none;fill-rule:nonzero;fill:rgb(86.666667%,86.666667%,86.666667%);fill-opacity:1;" d="M 24.753906 53.75 C 32.691406 57.925781 34.601562 64.488281 34.96875 66.039062 L 33.121094 66.277344 C 30.65625 62.0625 27.589844 58.207031 24.015625 54.824219 Z M 24.753906 53.75 "/>
<path style=" stroke:none;fill-rule:nonzero;fill:rgb(65.882355%,65.882355%,65.882355%);fill-opacity:1;" d="M 28.199219 56.851562 C 28.199219 56.851562 30.109375 54.882812 28.570312 53.273438 C 28.570312 53.273438 30.90625 54.046875 30.292969 56.851562 C 30.292969 56.851562 33 57.566406 35.832031 56.253906 L 38.351562 55.957031 C 38.351562 55.957031 33.984375 60.253906 28.199219 56.851562 Z M 28.199219 56.851562 "/>
<path style=" stroke:none;fill-rule:nonzero;fill:rgb(76.862746%,76.862746%,76.862746%);fill-opacity:1;" d="M 35.832031 56.195312 C 35.832031 56.195312 34.539062 57.746094 30.292969 56.792969 C 30.292969 56.792969 30.539062 54.046875 28.570312 53.332031 C 28.570312 53.332031 30.785156 53.6875 30.785156 56.433594 C 30.785156 56.433594 33.984375 57.210938 35.832031 56.195312 Z M 35.832031 56.195312 "/>
<path style=" stroke:none;fill-rule:nonzero;fill:rgb(65.882355%,65.882355%,65.882355%);fill-opacity:1;" d="M 43.152344 51.125 C 43.152344 51.125 40.566406 50.886719 40.382812 48.855469 C 40.382812 48.855469 39.460938 50.765625 41.800781 52.375 C 41.800781 52.375 40.8125 54.523438 38.105469 55.179688 L 37.0625 56.433594 C 37.0625 56.433594 41.984375 56.972656 43.152344 51.125 Z M 43.152344 51.125 "/>
<path style=" stroke:none;fill-rule:nonzero;fill:rgb(76.862746%,76.862746%,76.862746%);fill-opacity:1;" d="M 38.046875 55.179688 C 38.046875 55.179688 40.136719 55.71875 41.859375 52.375 C 41.859375 52.375 39.769531 50.644531 40.382812 48.855469 C 40.382812 48.855469 39.277344 50.40625 41.183594 52.375 C 41.183594 52.375 39.953125 54.761719 38.046875 55.179688 Z M 38.046875 55.179688 "/>
<path style=" stroke:none;fill-rule:nonzero;fill:rgb(65.882355%,65.882355%,65.882355%);fill-opacity:1;" d="M 19.09375 14.011719 C 19.09375 14.011719 30.414062 42.890625 36.816406 55.359375 C 36.816406 55.359375 26.355469 25.527344 19.09375 14.070312 Z M 19.09375 14.011719 "/>
<path style=" stroke:none;fill-rule:nonzero;fill:rgb(46.666667%,46.666667%,80.000001%);fill-opacity:1;" d="M 24.015625 54.824219 C 24.015625 54.824219 31.769531 59.476562 33.183594 66.277344 L 31.953125 66.398438 C 30.28125 62.078125 27.214844 58.394531 23.214844 55.898438 Z M 24.015625 54.824219 "/>
<path style=" stroke:none;fill-rule:nonzero;fill:rgb(21.960784%,25.098041%,27.843139%);fill-opacity:1;" d="M 62.105469 16.636719 L 63.949219 7.269531 C 63.949219 7.269531 58.414062 8.402344 56.691406 11.625 C 56.691406 11.625 56.011719 7.628906 50.660156 5.660156 C 50.660156 5.660156 44.753906 7.628906 44.015625 12.101562 C 44.015625 12.101562 41.859375 6.613281 36.753906 6.496094 L 38.785156 17.234375 Z M 62.105469 16.636719 "/>
<path style=" stroke:none;fill-rule:nonzero;fill:rgb(86.666667%,86.666667%,86.666667%);fill-opacity:1;" d="M 50.660156 6.914062 C 50.660156 6.914062 46.660156 9 46.660156 11.507812 C 46.644531 11.96875 46.824219 12.421875 47.164062 12.75 C 47.5 13.078125 47.964844 13.253906 48.445312 13.238281 C 49.058594 13.238281 49.675781 12.996094 49.921875 12.402344 C 50.105469 11.984375 49.984375 11.207031 49.492188 10.851562 C 50.105469 11.027344 50.289062 11.566406 50.289062 12.042969 C 50.289062 13.058594 49.921875 14.070312 49.304688 14.789062 L 52.011719 14.789062 C 51.386719 14 51.042969 13.039062 51.027344 12.042969 C 51.027344 11.566406 51.214844 11.027344 51.828125 10.851562 C 51.335938 11.207031 51.214844 12.042969 51.398438 12.402344 C 51.707031 12.996094 52.257812 13.238281 52.875 13.238281 C 53.351562 13.269531 53.824219 13.109375 54.171875 12.792969 C 54.523438 12.476562 54.722656 12.03125 54.71875 11.566406 C 54.71875 9.058594 50.660156 6.914062 50.660156 6.914062 Z M 50.660156 6.914062 "/>
<path style=" stroke:none;fill-rule:nonzero;fill:rgb(86.666667%,86.666667%,86.666667%);fill-opacity:1;" d="M 37.035156 7.957031 L 38.398438 15.421875 L 38.835938 15.421875 C 38.671875 15.085938 38.527344 14.746094 38.398438 14.398438 C 37.65625 12.53125 38.585938 11.992188 38.585938 11.992188 C 38.214844 12.53125 38.398438 13.074219 38.648438 13.433594 C 39.132812 14.070312 40.003906 14.292969 40.746094 13.976562 C 41.488281 13.660156 41.90625 12.882812 41.75 12.109375 C 41.253906 9.222656 37.035156 7.957031 37.035156 7.957031 Z M 37.035156 7.957031 "/>
<path style=" stroke:none;fill-rule:nonzero;fill:rgb(86.666667%,86.666667%,86.666667%);fill-opacity:1;" d="M 62.351562 14.488281 L 61.917969 15.445312 L 62.351562 15.503906 L 63.765625 8.105469 C 63.765625 8.105469 59.519531 9.296875 59.027344 12.164062 C 58.945312 12.902344 59.359375 13.613281 60.054688 13.925781 C 60.753906 14.234375 61.578125 14.078125 62.105469 13.535156 C 62.351562 13.117188 62.535156 12.582031 62.164062 12.101562 C 62.164062 12.101562 63.089844 12.582031 62.351562 14.488281 Z M 62.351562 14.488281 "/>
<path style=" stroke:none;fill-rule:nonzero;fill:rgb(46.666667%,46.666667%,80.000001%);fill-opacity:1;" d="M 38.722656 17.234375 C 38.722656 17.234375 46.722656 15.085938 62.289062 16.636719 L 62.042969 17.769531 C 62.042969 17.769531 48.628906 16.578125 39.03125 18.1875 Z M 38.722656 17.234375 "/>
<path style=" stroke:none;fill-rule:nonzero;fill:rgb(26.666668%,60.000002%,40.000001%);fill-opacity:1;" d="M 49.976562 61.984375 L 56.261719 63.71875 L 45.542969 70.707031 L 39.382812 65.628906 Z M 49.976562 61.984375 "/>
<path style=" stroke:none;fill-rule:nonzero;fill:rgb(46.666667%,46.666667%,80.000001%);fill-opacity:1;" d="M 31.746094 64.496094 L 33.160156 66.285156 L 32.730469 66.945312 L 31.929688 66.464844 Z M 31.746094 64.496094 "/>
<path style=" stroke:none;fill-rule:nonzero;fill:rgb(86.666667%,86.666667%,86.666667%);fill-opacity:1;" d="M 33.347656 64.433594 L 35.007812 66.105469 L 34.148438 67.480469 L 33.160156 66.285156 Z M 33.347656 64.433594 "/>
<path style=" stroke:none;fill-rule:nonzero;fill:rgb(93.333334%,33.333334%,26.666668%);fill-opacity:1;" d="M 35.5625 64.375 L 38.644531 65.6875 L 36.917969 66.882812 L 35.007812 66.105469 Z M 35.5625 64.375 "/>
<path style=" stroke:none;fill-rule:nonzero;fill:rgb(46.666667%,46.666667%,80.000001%);fill-opacity:1;" d="M 27.503906 82.699219 L 54.886719 67.785156 L 63.746094 77.925781 C 63.746094 77.925781 59.132812 84.550781 55.378906 87.949219 C 54.824219 88.367188 52.300781 88.90625 49.285156 89.441406 C 43.378906 90.394531 27.503906 82.699219 27.503906 82.699219 Z M 27.503906 82.699219 "/>
<g clip-path="url(#clip5)" clip-rule="nonzero">
<g clip-path="url(#clip6)" clip-rule="nonzero">
<path style=" stroke:none;fill-rule:nonzero;fill:rgb(21.960784%,25.098041%,27.843139%);fill-opacity:1;" d="M 52.917969 89.203125 C 52.917969 89.203125 50.578125 86.9375 51.316406 84.847656 C 51.429688 84.515625 51.675781 84.238281 52 84.082031 C 52.320312 83.925781 52.695312 83.898438 53.039062 84.011719 C 53.492188 84.175781 53.820312 84.5625 53.902344 85.027344 C 53.902344 85.324219 53.839844 85.800781 53.410156 85.980469 C 53.410156 85.980469 54.207031 85.980469 54.394531 84.429688 L 54.515625 83.65625 L 55.253906 83.894531 C 55.101562 84.132812 54.945312 84.371094 54.824219 84.609375 C 54.023438 85.921875 54.640625 86.398438 54.640625 86.398438 C 54.394531 85.980469 54.640625 85.5625 54.886719 85.324219 C 55.191406 85.027344 55.683594 84.90625 56.117188 85.085938 C 56.460938 85.195312 56.746094 85.433594 56.90625 85.746094 C 57.070312 86.0625 57.09375 86.425781 56.976562 86.757812 C 56.238281 88.84375 52.917969 89.203125 52.917969 89.203125 Z M 39.996094 84.96875 C 39.996094 84.96875 37.65625 82.640625 38.394531 80.550781 C 38.503906 80.21875 38.753906 79.945312 39.082031 79.796875 C 39.410156 79.652344 39.785156 79.644531 40.117188 79.777344 C 40.554688 79.929688 40.878906 80.289062 40.980469 80.730469 C 40.980469 81.089844 40.917969 81.507812 40.488281 81.746094 C 40.488281 81.746094 41.285156 81.746094 41.472656 80.195312 L 41.59375 79.417969 L 42.332031 79.65625 C 42.179688 79.871094 42.039062 80.085938 41.902344 80.3125 C 41.101562 81.625 41.71875 82.101562 41.71875 82.101562 C 41.472656 81.683594 41.71875 81.328125 41.964844 81.089844 C 42.308594 80.820312 42.765625 80.730469 43.195312 80.851562 C 43.878906 81.078125 44.257812 81.785156 44.054688 82.460938 C 43.316406 84.550781 39.996094 84.96875 39.996094 84.96875 Z M 46.457031 87.054688 C 46.457031 87.054688 44.117188 84.789062 44.855469 82.699219 C 44.964844 82.367188 45.214844 82.09375 45.542969 81.945312 C 45.871094 81.796875 46.246094 81.789062 46.578125 81.925781 C 47.015625 82.078125 47.339844 82.4375 47.441406 82.878906 C 47.441406 83.238281 47.378906 83.652344 46.949219 83.832031 C 46.949219 83.832031 47.746094 83.832031 47.933594 82.339844 L 48.054688 81.566406 L 48.792969 81.804688 C 48.640625 82.015625 48.496094 82.234375 48.363281 82.460938 C 47.5625 83.773438 48.179688 84.25 48.179688 84.25 C 47.933594 83.832031 48.179688 83.476562 48.425781 83.175781 C 48.769531 82.910156 49.222656 82.820312 49.65625 82.9375 C 50 83.046875 50.285156 83.285156 50.445312 83.597656 C 50.609375 83.914062 50.632812 84.277344 50.515625 84.609375 C 49.777344 86.695312 46.457031 87.054688 46.457031 87.054688 Z M 57.65625 85.144531 C 57.65625 85.144531 55.316406 82.878906 56.054688 80.789062 C 56.152344 80.445312 56.394531 80.160156 56.722656 80 C 57.050781 79.839844 57.4375 79.824219 57.777344 79.957031 C 58.230469 80.121094 58.558594 80.507812 58.640625 80.96875 C 58.640625 81.269531 58.578125 81.746094 58.148438 81.925781 C 58.148438 81.925781 58.945312 81.925781 59.132812 80.433594 L 59.253906 79.65625 L 59.992188 79.894531 C 59.839844 80.089844 59.695312 80.289062 59.5625 80.492188 C 58.761719 81.863281 59.378906 82.339844 59.378906 82.339844 C 59.132812 81.925781 59.378906 81.507812 59.625 81.269531 C 59.929688 80.96875 60.421875 80.910156 60.855469 81.027344 C 61.199219 81.136719 61.484375 81.375 61.644531 81.691406 C 61.804688 82.003906 61.832031 82.367188 61.714844 82.699219 C 60.976562 84.789062 57.65625 85.144531 57.65625 85.144531 Z M 44.792969 80.910156 C 44.792969 80.910156 42.457031 78.582031 43.195312 76.496094 C 43.304688 76.160156 43.554688 75.886719 43.878906 75.742188 C 44.207031 75.59375 44.582031 75.585938 44.917969 75.71875 C 45.355469 75.871094 45.679688 76.234375 45.777344 76.671875 C 45.777344 77.03125 45.71875 77.449219 45.285156 77.6875 C 45.285156 77.6875 46.085938 77.6875 46.269531 76.136719 L 46.394531 75.359375 L 47.132812 75.601562 C 46.976562 75.8125 46.835938 76.03125 46.703125 76.257812 C 45.902344 77.570312 46.515625 78.046875 46.515625 78.046875 C 46.269531 77.628906 46.515625 77.269531 46.761719 77.03125 C 47.109375 76.761719 47.5625 76.671875 47.992188 76.792969 C 48.679688 77.019531 49.058594 77.730469 48.855469 78.402344 C 48.117188 80.492188 44.792969 80.910156 44.792969 80.910156 Z M 51.253906 82.996094 C 51.253906 82.996094 48.917969 80.730469 49.65625 78.640625 C 49.765625 78.308594 50.015625 78.035156 50.339844 77.890625 C 50.667969 77.742188 51.042969 77.734375 51.378906 77.867188 C 51.816406 78.019531 52.140625 78.382812 52.238281 78.820312 C 52.238281 79.179688 52.179688 79.597656 51.746094 79.777344 C 51.746094 79.777344 52.546875 79.777344 52.730469 78.285156 L 52.855469 77.507812 L 53.59375 77.746094 L 53.164062 78.402344 C 52.363281 79.714844 52.976562 80.195312 52.976562 80.195312 C 52.730469 79.777344 52.976562 79.417969 53.222656 79.121094 C 53.570312 78.851562 54.023438 78.761719 54.453125 78.882812 C 54.796875 78.988281 55.082031 79.226562 55.246094 79.542969 C 55.40625 79.855469 55.433594 80.21875 55.316406 80.550781 C 54.578125 82.640625 51.253906 82.996094 51.253906 82.996094 Z M 56.484375 79.121094 C 56.484375 79.121094 54.148438 76.851562 54.886719 74.765625 C 54.996094 74.429688 55.242188 74.15625 55.566406 73.996094 C 55.890625 73.839844 56.265625 73.816406 56.609375 73.929688 C 57.0625 74.09375 57.390625 74.480469 57.46875 74.941406 C 57.46875 75.242188 57.410156 75.71875 56.976562 75.898438 C 56.976562 75.898438 57.777344 75.898438 57.960938 74.347656 L 58.085938 73.570312 L 58.824219 73.808594 C 58.667969 74.042969 58.523438 74.28125 58.394531 74.527344 C 57.59375 75.839844 58.207031 76.316406 58.207031 76.316406 C 57.960938 75.898438 58.207031 75.480469 58.453125 75.242188 C 58.800781 74.972656 59.253906 74.882812 59.683594 75.003906 C 60.027344 75.113281 60.3125 75.351562 60.476562 75.664062 C 60.636719 75.976562 60.664062 76.339844 60.546875 76.671875 C 59.808594 78.761719 56.484375 79.121094 56.484375 79.121094 Z M 62.882812 81.207031 C 62.882812 81.207031 60.546875 78.941406 61.285156 76.851562 L 64.792969 77.390625 Z M 50.023438 77.03125 C 50.023438 77.03125 47.6875 74.644531 48.425781 72.617188 L 54.085938 74.527344 C 53.347656 76.613281 50.023438 76.972656 50.023438 76.972656 Z M 50.023438 77.03125 "/>
</g>
</g>
<path style=" stroke:none;fill-rule:nonzero;fill:rgb(26.666668%,60.000002%,40.000001%);fill-opacity:1;" d="M 35.933594 76.316406 L 33.65625 66.292969 L 50.578125 64.382812 Z M 35.933594 76.316406 "/>
<path style=" stroke:none;fill-rule:nonzero;fill:rgb(46.666667%,46.666667%,80.000001%);fill-opacity:1;" d="M 44.546875 90.515625 L 52.054688 88.964844 C 52.054688 88.964844 50.457031 82.28125 39.933594 82.042969 C 33.613281 81.96875 27.53125 84.378906 23.074219 88.726562 L 28.980469 91.113281 Z M 44.546875 90.515625 "/>
<path style=" stroke:none;fill-rule:nonzero;fill:rgb(86.274511%,61.56863%,43.921569%);fill-opacity:1;" d="M 39.195312 114.5 L 51.132812 113.546875 L 50.515625 109.964844 L 52.363281 104 L 50.703125 103.582031 L 51.007812 101.492188 L 49.53125 100.898438 L 50.023438 99.824219 C 50.023438 99.824219 48.484375 99.167969 49.410156 98.273438 C 50.332031 97.378906 51.132812 95.648438 46.761719 95.40625 C 44.117188 95.289062 42.332031 94.035156 44.546875 90.394531 C 44.546875 90.695312 43.625 88.128906 39.808594 87.769531 C 31.6875 87.054688 28.980469 91.113281 28.980469 91.113281 Z M 39.195312 114.5 "/>
<path style=" stroke:none;fill-rule:nonzero;fill:rgb(53.725493%,44.705883%,32.156864%);fill-opacity:1;" d="M 48.546875 109.667969 C 48.546875 109.667969 49.101562 109.371094 47.933594 108.714844 C 47.933594 108.714844 47.316406 108.714844 46.210938 109.011719 C 45.164062 109.308594 43.007812 108.773438 42.765625 108.414062 C 42.515625 108.058594 43.132812 110.445312 46.703125 109.847656 C 48.917969 109.488281 48.546875 109.667969 48.546875 109.667969 Z M 48.546875 109.667969 "/>
<path style=" stroke:none;fill-rule:nonzero;fill:rgb(21.960784%,25.098041%,27.843139%);fill-opacity:1;" d="M 48.425781 107.878906 L 46.332031 107.996094 C 45.285156 108.117188 43.996094 107.820312 43.441406 107.101562 C 43.441406 107.101562 44.855469 107.699219 46.085938 107.460938 C 46.085938 107.460938 45.964844 106.265625 46.703125 106.265625 C 47.5 106.265625 47.316406 107.519531 47.316406 107.519531 Z M 48.425781 107.878906 "/>
<path style=" stroke:none;fill-rule:nonzero;fill:rgb(91.37255%,87.058824%,70.588237%);fill-opacity:1;" d="M 39.808594 114.800781 C 39.808594 114.800781 38.085938 101.492188 40.546875 100.480469 C 40.546875 100.480469 43.070312 97.734375 39.6875 95.945312 C 37.59375 94.871094 37.472656 95.109375 27.503906 96.542969 C 27.503906 96.542969 27.566406 106.386719 28.425781 114.800781 Z M 39.808594 114.800781 "/>
<path style=" stroke:none;fill-rule:nonzero;fill:rgb(21.960784%,25.098041%,27.843139%);fill-opacity:1;" d="M 25.65625 90.457031 L 17.597656 87.890625 L 50.640625 64.382812 L 51.253906 64.261719 L 54.945312 67.722656 Z M 25.65625 90.457031 "/>
<path style=" stroke:none;fill-rule:nonzero;fill:rgb(53.725493%,44.705883%,32.156864%);fill-opacity:1;" d="M 39.996094 114.800781 C 39.996094 114.800781 38.148438 103.105469 40.792969 100.480469 C 43.625 97.078125 40.792969 95.230469 38.148438 95.230469 C 38.148438 95.230469 42.578125 97.554688 40.488281 100.003906 C 36.796875 104.296875 39.996094 114.800781 39.996094 114.800781 Z M 51.007812 101.492188 C 51.007812 101.492188 48.179688 102.210938 47.007812 101.792969 C 47.007812 101.792969 45.777344 98.390625 46.210938 98.09375 L 49.410156 98.273438 C 49.410156 98.273438 50.515625 97.4375 50.515625 95.824219 C 50.515625 95.824219 49.46875 95.230469 49.101562 95.167969 L 45.65625 94.992188 L 45.53125 97.855469 L 46.761719 102.03125 C 46.761719 102.03125 47.6875 102.867188 49.226562 102.804688 C 49.902344 102.804688 50.761719 102.984375 50.761719 102.984375 Z M 51.007812 101.492188 "/>
<path style=" stroke:none;fill-rule:nonzero;fill:rgb(93.333334%,33.333334%,26.666668%);fill-opacity:1;" d="M 50.761719 89.324219 C 50.761719 89.324219 48.855469 81.566406 36.242188 82.460938 L 37.65625 81.269531 C 37.65625 81.269531 50.085938 80.074219 52.117188 89.082031 Z M 50.761719 89.324219 "/>
<path style=" stroke:none;fill-rule:nonzero;fill:rgb(33.333334%,46.666667%,53.333336%);fill-opacity:1;" d="M 17.78125 68.023438 L 30.703125 66.589844 C 33.59375 71.722656 36.671875 76.734375 35.933594 82.996094 L 26.519531 89.917969 Z M 17.78125 68.023438 "/>
<path style=" stroke:none;fill-rule:nonzero;fill:rgb(21.960784%,25.098041%,27.843139%);fill-opacity:1;" d="M 35.503906 81.863281 L 30.703125 66.589844 L 33.65625 66.292969 L 38.210938 80.371094 Z M 35.503906 81.863281 "/>
<g clip-path="url(#clip7)" clip-rule="nonzero">
<g clip-path="url(#clip8)" clip-rule="nonzero">
<path style=" stroke:none;fill-rule:nonzero;fill:rgb(86.666667%,86.666667%,86.666667%);fill-opacity:1;" d="M 27.195312 85.265625 C 27.195312 85.265625 25.410156 84.371094 25.410156 83.058594 C 25.410156 82.628906 25.769531 82.28125 26.210938 82.28125 C 26.496094 82.292969 26.757812 82.453125 26.886719 82.699219 C 27.011719 82.878906 27.011719 83.175781 26.828125 83.296875 C 26.828125 83.296875 27.257812 83.175781 27.074219 82.28125 C 27.0625 82.144531 27.035156 82 27.011719 81.863281 L 27.441406 81.863281 C 27.394531 82 27.355469 82.140625 27.320312 82.28125 C 27.132812 83.175781 27.566406 83.355469 27.566406 83.355469 C 27.378906 83.175781 27.441406 82.878906 27.566406 82.699219 C 27.6875 82.460938 27.933594 82.339844 28.179688 82.339844 C 28.625 82.339844 28.980469 82.6875 28.980469 83.117188 C 28.980469 84.429688 27.195312 85.265625 27.195312 85.265625 Z M 31.195312 85.265625 C 31.195312 85.265625 29.410156 84.371094 29.410156 83.058594 C 29.410156 82.628906 29.769531 82.28125 30.210938 82.28125 C 30.496094 82.292969 30.757812 82.453125 30.886719 82.699219 C 31.011719 82.878906 31.011719 83.175781 30.828125 83.296875 C 30.828125 83.296875 31.257812 83.175781 31.074219 82.28125 C 31.058594 82.144531 31.035156 82 31.011719 81.863281 L 31.441406 81.863281 C 31.394531 82 31.351562 82.140625 31.320312 82.28125 C 31.132812 83.175781 31.566406 83.355469 31.566406 83.355469 C 31.378906 83.175781 31.441406 82.878906 31.566406 82.699219 C 31.6875 82.460938 31.933594 82.339844 32.179688 82.339844 C 32.625 82.339844 32.980469 82.6875 32.980469 83.117188 C 32.980469 84.429688 31.195312 85.265625 31.195312 85.265625 Z M 25.289062 82.101562 C 25.289062 82.101562 23.503906 81.207031 23.503906 79.894531 C 23.503906 79.464844 23.859375 79.121094 24.304688 79.121094 C 24.589844 79.132812 24.847656 79.289062 24.980469 79.539062 C 25.105469 79.714844 25.105469 79.957031 24.917969 80.132812 C 24.917969 80.132812 25.351562 80.015625 25.164062 79.121094 C 25.152344 78.960938 25.132812 78.800781 25.105469 78.640625 L 25.535156 78.640625 C 25.484375 78.800781 25.445312 78.957031 25.410156 79.121094 C 25.226562 80.015625 25.65625 80.195312 25.65625 80.195312 C 25.472656 79.957031 25.535156 79.714844 25.65625 79.539062 C 25.78125 79.296875 26.027344 79.179688 26.273438 79.179688 C 26.714844 79.179688 27.074219 79.527344 27.074219 79.957031 C 27.074219 81.269531 25.289062 82.101562 25.289062 82.101562 Z M 29.289062 82.101562 C 29.289062 82.101562 27.503906 81.207031 27.503906 79.894531 C 27.503906 79.464844 27.859375 79.121094 28.304688 79.121094 C 28.589844 79.132812 28.847656 79.289062 28.980469 79.539062 C 29.105469 79.714844 29.105469 79.957031 28.917969 80.132812 C 28.917969 80.132812 29.351562 80.015625 29.164062 79.121094 C 29.152344 78.960938 29.132812 78.800781 29.105469 78.640625 L 29.535156 78.640625 C 29.484375 78.800781 29.445312 78.957031 29.410156 79.121094 C 29.226562 80.015625 29.65625 80.195312 29.65625 80.195312 C 29.472656 79.957031 29.535156 79.714844 29.65625 79.539062 C 29.78125 79.296875 30.027344 79.179688 30.273438 79.179688 C 30.714844 79.179688 31.074219 79.527344 31.074219 79.957031 C 31.074219 81.269531 29.289062 82.101562 29.289062 82.101562 Z M 33.347656 82.101562 C 33.347656 82.101562 31.566406 81.207031 31.566406 79.894531 C 31.566406 79.464844 31.921875 79.121094 32.363281 79.121094 C 32.652344 79.132812 32.910156 79.289062 33.042969 79.539062 C 33.164062 79.714844 33.164062 79.957031 32.980469 80.132812 C 32.980469 80.132812 33.410156 80.015625 33.226562 79.121094 C 33.214844 78.960938 33.195312 78.800781 33.164062 78.640625 L 33.59375 78.640625 C 33.546875 78.800781 33.503906 78.957031 33.472656 79.121094 C 33.289062 80.015625 33.71875 80.195312 33.71875 80.195312 C 33.535156 79.957031 33.59375 79.714844 33.71875 79.539062 C 33.839844 79.296875 34.085938 79.179688 34.332031 79.179688 C 34.777344 79.179688 35.132812 79.527344 35.132812 79.957031 C 35.132812 81.269531 33.347656 82.101562 33.347656 82.101562 Z M 23.136719 78.882812 C 23.136719 78.882812 21.351562 78.046875 21.351562 76.734375 C 21.351562 76.304688 21.707031 75.957031 22.152344 75.957031 C 22.4375 75.96875 22.695312 76.128906 22.828125 76.375 C 22.949219 76.554688 22.949219 76.792969 22.765625 76.972656 C 22.765625 76.972656 23.195312 76.851562 23.011719 75.957031 C 23 75.796875 22.980469 75.636719 22.949219 75.480469 L 23.382812 75.480469 C 23.332031 75.636719 23.289062 75.796875 23.257812 75.957031 C 23.074219 76.851562 23.503906 77.03125 23.503906 77.03125 C 23.320312 76.792969 23.382812 76.554688 23.503906 76.375 C 23.628906 76.136719 23.875 75.957031 24.121094 75.957031 C 24.5625 75.957031 24.917969 76.304688 24.917969 76.734375 C 24.917969 78.046875 23.136719 78.882812 23.136719 78.882812 Z M 27.195312 78.882812 C 27.195312 78.882812 25.410156 78.046875 25.410156 76.734375 C 25.410156 76.304688 25.769531 75.957031 26.210938 75.957031 C 26.496094 75.96875 26.757812 76.128906 26.886719 76.375 C 27.011719 76.554688 27.011719 76.792969 26.828125 76.972656 C 26.828125 76.972656 27.257812 76.851562 27.074219 75.957031 C 27.0625 75.796875 27.042969 75.636719 27.011719 75.480469 L 27.441406 75.480469 C 27.394531 75.636719 27.351562 75.796875 27.320312 75.957031 C 27.132812 76.851562 27.566406 77.03125 27.566406 77.03125 C 27.378906 76.792969 27.441406 76.554688 27.566406 76.375 C 27.6875 76.136719 27.933594 75.957031 28.179688 75.957031 C 28.625 75.957031 28.980469 76.304688 28.980469 76.734375 C 28.980469 78.046875 27.195312 78.882812 27.195312 78.882812 Z M 31.195312 78.882812 C 31.195312 78.882812 29.410156 78.046875 29.410156 76.734375 C 29.410156 76.304688 29.769531 75.957031 30.210938 75.957031 C 30.496094 75.96875 30.757812 76.128906 30.886719 76.375 C 31.011719 76.554688 31.011719 76.792969 30.828125 76.972656 C 30.828125 76.972656 31.257812 76.851562 31.074219 75.957031 C 31.0625 75.796875 31.042969 75.636719 31.011719 75.480469 L 31.441406 75.480469 C 31.390625 75.636719 31.351562 75.796875 31.320312 75.957031 C 31.132812 76.851562 31.566406 77.03125 31.566406 77.03125 C 31.378906 76.792969 31.441406 76.554688 31.566406 76.375 C 31.6875 76.136719 31.933594 75.957031 32.179688 75.957031 C 32.625 75.957031 32.980469 76.304688 32.980469 76.734375 C 32.980469 78.046875 31.195312 78.882812 31.195312 78.882812 Z M 35.257812 78.882812 C 35.257812 78.882812 33.472656 78.046875 33.472656 76.734375 C 33.472656 76.304688 33.828125 75.957031 34.273438 75.957031 Z M 21.226562 75.71875 C 21.226562 75.71875 19.441406 74.882812 19.441406 73.570312 C 19.441406 73.140625 19.800781 72.796875 20.242188 72.796875 C 20.53125 72.808594 20.789062 72.964844 20.917969 73.214844 C 21.042969 73.390625 21.042969 73.628906 20.859375 73.808594 C 20.859375 73.808594 21.289062 73.691406 21.105469 72.796875 C 21.09375 72.636719 21.074219 72.476562 21.042969 72.316406 L 21.472656 72.316406 C 21.425781 72.476562 21.382812 72.632812 21.351562 72.796875 C 21.164062 73.691406 21.597656 73.871094 21.597656 73.871094 C 21.410156 73.628906 21.472656 73.390625 21.597656 73.214844 C 21.65625 72.972656 21.964844 72.796875 22.210938 72.796875 C 22.65625 72.796875 23.011719 73.140625 23.011719 73.570312 C 23.011719 74.882812 21.226562 75.71875 21.226562 75.71875 Z M 25.289062 75.71875 C 25.289062 75.71875 23.503906 74.882812 23.503906 73.570312 C 23.503906 73.140625 23.859375 72.796875 24.304688 72.796875 C 24.589844 72.808594 24.847656 72.964844 24.980469 73.214844 C 25.105469 73.390625 25.105469 73.628906 24.917969 73.808594 C 24.917969 73.808594 25.351562 73.691406 25.164062 72.796875 C 25.152344 72.636719 25.132812 72.476562 25.105469 72.316406 L 25.535156 72.316406 C 25.484375 72.476562 25.445312 72.632812 25.410156 72.796875 C 25.226562 73.691406 25.65625 73.871094 25.65625 73.871094 C 25.472656 73.628906 25.535156 73.390625 25.65625 73.214844 C 25.78125 72.972656 26.027344 72.796875 26.273438 72.796875 C 26.714844 72.796875 27.074219 73.140625 27.074219 73.570312 C 27.074219 74.882812 25.289062 75.71875 25.289062 75.71875 Z M 29.289062 75.71875 C 29.289062 75.71875 27.503906 74.882812 27.503906 73.570312 C 27.503906 73.140625 27.859375 72.796875 28.304688 72.796875 C 28.589844 72.808594 28.847656 72.964844 28.980469 73.214844 C 29.105469 73.390625 29.105469 73.628906 28.917969 73.808594 C 28.917969 73.808594 29.351562 73.691406 29.164062 72.796875 C 29.152344 72.636719 29.132812 72.476562 29.105469 72.316406 L 29.535156 72.316406 C 29.484375 72.476562 29.445312 72.632812 29.410156 72.796875 C 29.226562 73.691406 29.65625 73.871094 29.65625 73.871094 C 29.472656 73.628906 29.535156 73.390625 29.65625 73.214844 C 29.78125 72.972656 30.027344 72.796875 30.273438 72.796875 C 30.714844 72.796875 31.074219 73.140625 31.074219 73.570312 C 31.074219 74.882812 29.289062 75.71875 29.289062 75.71875 Z M 33.347656 75.71875 C 33.347656 75.71875 31.566406 74.882812 31.566406 73.570312 C 31.566406 73.140625 31.921875 72.796875 32.363281 72.796875 C 32.652344 72.808594 32.910156 72.964844 33.042969 73.214844 C 33.164062 73.390625 33.164062 73.628906 32.980469 73.808594 L 35.132812 73.570312 C 35.132812 74.882812 33.347656 75.71875 33.347656 75.71875 Z M 23.136719 72.558594 C 23.136719 72.558594 21.351562 71.722656 21.351562 70.410156 C 21.351562 70.0625 21.582031 69.757812 21.925781 69.660156 C 22.269531 69.5625 22.636719 69.699219 22.828125 69.992188 C 22.945312 70.203125 22.921875 70.460938 22.765625 70.648438 C 22.765625 70.648438 23.195312 70.46875 23.011719 69.632812 C 23 69.472656 22.980469 69.3125 22.949219 69.15625 L 23.382812 69.15625 C 23.332031 69.3125 23.289062 69.472656 23.257812 69.632812 C 23.074219 70.46875 23.503906 70.648438 23.503906 70.648438 C 23.320312 70.46875 23.382812 70.230469 23.503906 70.050781 C 23.628906 69.8125 23.875 69.632812 24.121094 69.632812 C 24.5625 69.632812 24.917969 69.980469 24.917969 70.410156 C 24.917969 71.722656 23.136719 72.558594 23.136719 72.558594 Z M 27.195312 72.558594 C 27.195312 72.558594 25.410156 71.722656 25.410156 70.410156 C 25.410156 70.0625 25.644531 69.757812 25.988281 69.660156 C 26.332031 69.5625 26.699219 69.699219 26.886719 69.992188 C 27.003906 70.203125 26.980469 70.460938 26.828125 70.648438 C 26.828125 70.648438 27.257812 70.46875 27.074219 69.632812 C 27.0625 69.472656 27.042969 69.3125 27.011719 69.15625 L 27.441406 69.15625 C 27.394531 69.3125 27.351562 69.472656 27.320312 69.632812 C 27.132812 70.46875 27.566406 70.648438 27.566406 70.648438 C 27.378906 70.46875 27.441406 70.230469 27.566406 70.050781 C 27.6875 69.8125 27.933594 69.632812 28.179688 69.632812 C 28.625 69.632812 28.980469 69.980469 28.980469 70.410156 C 28.980469 71.722656 27.195312 72.558594 27.195312 72.558594 Z M 19.074219 72.558594 L 18.089844 69.574219 C 18.375 69.585938 18.632812 69.746094 18.765625 69.992188 C 18.882812 70.203125 18.859375 70.460938 18.703125 70.648438 C 18.703125 70.648438 19.136719 70.46875 18.949219 69.632812 C 18.941406 69.472656 18.917969 69.3125 18.890625 69.15625 L 19.320312 69.15625 C 19.269531 69.3125 19.230469 69.472656 19.195312 69.632812 C 19.011719 70.46875 19.441406 70.648438 19.441406 70.648438 C 19.257812 70.46875 19.320312 70.230469 19.441406 70.050781 C 19.503906 69.8125 19.8125 69.632812 20.058594 69.632812 C 20.5 69.632812 20.859375 69.980469 20.859375 70.410156 C 20.859375 71.722656 19.074219 72.558594 19.074219 72.558594 Z M 31.195312 72.558594 C 31.195312 72.558594 29.410156 71.722656 29.410156 70.410156 C 29.410156 70.0625 29.644531 69.757812 29.988281 69.660156 C 30.328125 69.5625 30.699219 69.699219 30.886719 69.992188 C 31.003906 70.203125 30.980469 70.460938 30.828125 70.648438 C 30.828125 70.648438 31.257812 70.46875 31.074219 69.632812 C 31.0625 69.472656 31.042969 69.3125 31.011719 69.15625 L 31.441406 69.15625 C 31.390625 69.3125 31.351562 69.472656 31.320312 69.632812 C 31.132812 70.46875 31.566406 70.648438 31.566406 70.648438 C 31.378906 70.46875 31.441406 70.230469 31.566406 70.050781 C 31.6875 69.8125 31.933594 69.632812 32.179688 69.632812 C 32.625 69.632812 32.980469 69.980469 32.980469 70.410156 C 32.980469 71.722656 31.195312 72.558594 31.195312 72.558594 Z M 21.226562 69.394531 C 21.226562 69.394531 19.441406 68.558594 19.441406 67.246094 L 23.011719 67.246094 C 23.011719 68.558594 21.226562 69.394531 21.226562 69.394531 Z M 25.289062 69.394531 C 25.289062 69.394531 23.503906 68.558594 23.503906 67.246094 C 23.503906 66.898438 23.738281 66.59375 24.082031 66.496094 C 24.421875 66.402344 24.789062 66.535156 24.980469 66.828125 C 25.097656 67.039062 25.074219 67.296875 24.917969 67.484375 C 24.917969 67.484375 25.351562 67.304688 25.164062 66.410156 L 25.410156 66.410156 C 25.226562 67.304688 25.65625 67.484375 25.65625 67.484375 C 25.472656 67.304688 25.535156 67.007812 25.65625 66.886719 C 25.78125 66.648438 26.027344 66.472656 26.273438 66.472656 C 26.714844 66.472656 27.074219 66.816406 27.074219 67.246094 C 27.074219 68.558594 25.289062 69.394531 25.289062 69.394531 Z M 29.289062 69.394531 C 29.289062 69.394531 27.503906 68.558594 27.503906 67.246094 C 27.503906 66.898438 27.738281 66.59375 28.078125 66.496094 C 28.421875 66.402344 28.789062 66.535156 28.980469 66.828125 C 29.097656 67.039062 29.074219 67.296875 28.917969 67.484375 C 28.917969 67.484375 29.351562 67.304688 29.164062 66.410156 C 29.152344 66.273438 29.128906 66.128906 29.105469 65.992188 L 29.535156 65.992188 C 29.484375 66.152344 29.445312 66.308594 29.410156 66.472656 C 29.226562 67.304688 29.65625 67.484375 29.65625 67.484375 C 29.472656 67.304688 29.535156 67.007812 29.65625 66.886719 C 29.78125 66.648438 30.027344 66.472656 30.273438 66.472656 C 30.714844 66.472656 31.074219 66.816406 31.074219 67.246094 C 31.074219 68.558594 29.289062 69.394531 29.289062 69.394531 Z M 29.289062 69.394531 "/>
</g>
</g>
<path style=" stroke:none;fill-rule:nonzero;fill:rgb(33.333334%,46.666667%,53.333336%);fill-opacity:1;" d="M 60.855469 63.605469 L 35.070312 81.804688 L 35.75 83.058594 L 63.4375 63.367188 Z M 60.855469 63.605469 "/>
<path style=" stroke:none;fill-rule:nonzero;fill:rgb(53.725493%,44.705883%,32.156864%);fill-opacity:1;" d="M 28.242188 113.425781 C 28.242188 113.425781 25.964844 101.195312 27.503906 96.601562 Z M 34.886719 97.019531 C 34.886719 97.019531 33.65625 107.9375 35.195312 113.425781 Z M 30.886719 97.019531 C 30.886719 97.019531 29.65625 107.9375 31.195312 113.425781 Z M 30.886719 97.019531 "/>
<path style=" stroke:none;fill-rule:nonzero;fill:rgb(21.960784%,25.098041%,27.843139%);fill-opacity:1;" d="M 28.980469 91.113281 L 19.320312 89.621094 C 16.859375 89.144531 14.457031 87.890625 14.398438 82.222656 C 14.273438 76.671875 14.335938 68.441406 14.335938 68.441406 L 17.71875 68.023438 Z M 28.980469 91.113281 "/>
<path style=" stroke:none;fill-rule:nonzero;fill:rgb(93.333334%,80.000001%,26.666668%);fill-opacity:1;" d="M 22.703125 84.25 C 22.703125 83.527344 22.097656 82.9375 21.351562 82.9375 C 20.601562 82.9375 19.996094 83.527344 19.996094 84.25 C 19.996094 84.976562 20.601562 85.5625 21.351562 85.5625 C 22.097656 85.5625 22.703125 84.976562 22.703125 84.25 Z M 22.703125 84.25 "/>
<path style=" stroke:none;fill-rule:nonzero;fill:rgb(80.000001%,80.000001%,80.000001%);fill-opacity:1;" d="M 72.054688 118.320312 L 66.636719 110.683594 L 51.625 73.988281 C 51.625 73.929688 53.164062 73.214844 54.148438 73.75 L 69.652344 109.546875 Z M 72.054688 118.320312 "/>
<path style=" stroke:none;fill-rule:nonzero;fill:rgb(86.274511%,61.56863%,43.921569%);fill-opacity:1;" d="M 56.667969 71.898438 C 56.667969 71.898438 52.484375 73.214844 51.132812 74.941406 C 51.132812 74.941406 49.714844 75.0625 49.65625 74.882812 C 49.65625 74.703125 49.59375 73.75 49.347656 73.691406 C 49.101562 73.570312 48.179688 73.390625 48.117188 73.09375 C 48.117188 72.734375 48.300781 71.660156 48.117188 71.484375 C 47.871094 71.242188 47.378906 71.003906 47.5 70.289062 C 47.746094 69.515625 47.132812 68.917969 47.132812 68.738281 C 47.132812 68.558594 48.671875 66.648438 52.054688 65.398438 C 52.054688 65.398438 55.746094 71.421875 56.667969 71.960938 Z M 56.667969 71.898438 "/>
<path style=" stroke:none;fill-rule:nonzero;fill:rgb(21.960784%,25.098041%,27.843139%);fill-opacity:1;" d="M 58.085938 63.546875 C 58.085938 63.546875 57.285156 70.109375 66.824219 74.046875 L 75.683594 61.519531 Z M 58.085938 63.546875 "/>
<path style=" stroke:none;fill-rule:nonzero;fill:rgb(93.333334%,33.333334%,26.666668%);fill-opacity:1;" d="M 63.683594 78.402344 C 55.625 75.242188 51.992188 66.472656 51.253906 64.261719 L 55.007812 63.84375 C 56.238281 68.140625 65.222656 76.195312 65.222656 76.195312 Z M 63.683594 78.402344 "/>
<path style=" stroke:none;fill-rule:nonzero;fill:rgb(86.666667%,86.666667%,86.666667%);fill-opacity:1;" d="M 65.222656 76.195312 C 57.285156 72.019531 55.378906 65.457031 55.007812 63.90625 L 56.855469 63.667969 C 59.320312 67.878906 62.386719 71.738281 65.960938 75.121094 Z M 65.222656 76.195312 "/>
<path style=" stroke:none;fill-rule:nonzero;fill:rgb(65.882355%,65.882355%,65.882355%);fill-opacity:1;" d="M 61.777344 73.09375 C 61.777344 73.09375 59.871094 75.0625 61.40625 76.671875 C 61.40625 76.671875 59.070312 75.898438 59.683594 73.09375 C 59.683594 73.09375 56.976562 72.378906 54.148438 73.691406 L 51.625 73.988281 C 51.625 73.988281 55.992188 69.691406 61.777344 73.09375 Z M 61.777344 73.09375 "/>
<path style=" stroke:none;fill-rule:nonzero;fill:rgb(76.862746%,76.862746%,76.862746%);fill-opacity:1;" d="M 54.148438 73.75 C 54.148438 73.75 55.4375 72.199219 59.683594 73.152344 C 59.683594 73.152344 59.4375 75.898438 61.40625 76.613281 C 61.40625 76.613281 59.191406 76.257812 59.191406 73.511719 C 59.191406 73.511719 55.992188 72.734375 54.148438 73.75 Z M 54.148438 73.75 "/>
<path style=" stroke:none;fill-rule:nonzero;fill:rgb(65.882355%,65.882355%,65.882355%);fill-opacity:1;" d="M 46.824219 78.820312 C 46.824219 78.820312 49.410156 79.058594 49.59375 81.089844 C 49.59375 81.089844 50.515625 79.179688 48.179688 77.570312 C 48.179688 77.570312 49.164062 75.421875 51.871094 74.765625 L 52.917969 73.511719 C 52.917969 73.511719 47.992188 72.972656 46.824219 78.820312 Z M 46.824219 78.820312 "/>
<path style=" stroke:none;fill-rule:nonzero;fill:rgb(76.862746%,76.862746%,76.862746%);fill-opacity:1;" d="M 51.933594 74.765625 C 51.933594 74.765625 49.839844 74.226562 48.117188 77.570312 C 48.117188 77.570312 50.210938 79.296875 49.59375 81.089844 C 49.59375 81.089844 50.703125 79.539062 48.792969 77.570312 C 48.792969 77.570312 50.023438 75.183594 51.933594 74.765625 Z M 51.933594 74.765625 "/>
<path style=" stroke:none;fill-rule:nonzero;fill:rgb(65.882355%,65.882355%,65.882355%);fill-opacity:1;" d="M 70.882812 115.933594 C 70.882812 115.933594 59.5625 87.054688 53.164062 74.585938 C 53.164062 74.585938 63.621094 104.417969 70.882812 115.875 Z M 70.882812 115.933594 "/>
<path style=" stroke:none;fill-rule:nonzero;fill:rgb(46.666667%,46.666667%,80.000001%);fill-opacity:1;" d="M 65.960938 75.121094 C 65.960938 75.121094 58.207031 70.46875 56.792969 63.667969 L 58.023438 63.546875 C 59.695312 67.867188 62.761719 71.550781 66.761719 74.046875 Z M 65.960938 75.121094 "/>
<path style=" stroke:none;fill-rule:nonzero;fill:rgb(21.960784%,25.098041%,27.843139%);fill-opacity:1;" d="M 27.871094 113.308594 L 26.027344 122.675781 C 26.027344 122.675781 31.566406 121.542969 33.289062 118.320312 C 33.289062 118.320312 33.964844 122.316406 39.316406 124.285156 C 39.316406 124.285156 45.226562 122.316406 45.964844 117.84375 C 45.964844 117.84375 48.117188 123.332031 53.222656 123.449219 L 51.195312 112.710938 Z M 27.871094 113.308594 "/>
<path style=" stroke:none;fill-rule:nonzero;fill:rgb(86.666667%,86.666667%,86.666667%);fill-opacity:1;" d="M 39.316406 123.03125 C 39.316406 123.03125 43.316406 120.945312 43.316406 118.4375 C 43.335938 117.976562 43.152344 117.523438 42.8125 117.195312 C 42.476562 116.867188 42.011719 116.691406 41.53125 116.707031 C 40.917969 116.707031 40.300781 116.945312 40.054688 117.542969 C 39.871094 117.960938 39.996094 118.738281 40.488281 119.09375 C 39.871094 118.914062 39.6875 118.378906 39.6875 117.902344 C 39.6875 116.886719 40.054688 115.875 40.671875 115.15625 L 37.964844 115.15625 C 38.589844 115.945312 38.933594 116.90625 38.949219 117.902344 C 38.949219 118.378906 38.765625 118.914062 38.148438 119.09375 C 38.640625 118.738281 38.765625 117.902344 38.578125 117.542969 C 38.273438 116.945312 37.71875 116.707031 37.101562 116.707031 C 36.625 116.675781 36.15625 116.835938 35.804688 117.152344 C 35.453125 117.46875 35.253906 117.914062 35.257812 118.378906 C 35.257812 120.886719 39.316406 123.03125 39.316406 123.03125 Z M 39.316406 123.03125 "/>
<path style=" stroke:none;fill-rule:nonzero;fill:rgb(86.666667%,86.666667%,86.666667%);fill-opacity:1;" d="M 52.941406 121.988281 L 51.578125 114.523438 L 51.144531 114.523438 C 51.304688 114.859375 51.449219 115.199219 51.578125 115.546875 C 52.320312 117.414062 51.390625 117.953125 51.390625 117.953125 C 51.761719 117.414062 51.578125 116.871094 51.328125 116.511719 C 50.847656 115.875 49.976562 115.652344 49.230469 115.96875 C 48.488281 116.285156 48.070312 117.0625 48.226562 117.835938 C 48.722656 120.722656 52.941406 121.988281 52.941406 121.988281 Z M 52.941406 121.988281 "/>
<path style=" stroke:none;fill-rule:nonzero;fill:rgb(86.666667%,86.666667%,86.666667%);fill-opacity:1;" d="M 27.625 115.457031 L 28.058594 114.5 L 27.625 114.441406 L 26.210938 121.839844 C 26.210938 121.839844 30.457031 120.644531 30.949219 117.78125 C 31.035156 117.042969 30.621094 116.332031 29.921875 116.019531 C 29.222656 115.707031 28.398438 115.867188 27.871094 116.410156 C 27.625 116.828125 27.441406 117.363281 27.8125 117.84375 C 27.8125 117.84375 26.886719 117.363281 27.625 115.457031 Z M 27.625 115.457031 "/>
<path style=" stroke:none;fill-rule:nonzero;fill:rgb(46.666667%,46.666667%,80.000001%);fill-opacity:1;" d="M 51.253906 112.710938 C 51.253906 112.710938 43.257812 114.859375 27.6875 113.308594 L 27.933594 112.175781 C 27.933594 112.175781 41.347656 113.367188 50.949219 111.757812 Z M 51.253906 112.710938 "/>
<path style=" stroke:none;fill-rule:nonzero;fill:rgb(21.960784%,25.098041%,27.843139%);fill-opacity:1;" d="M 7.949219 21.355469 C 7.949219 21.355469 3.597656 23.679688 3.597656 26.648438 C 3.597656 27.761719 4.46875 28.585938 5.527344 28.585938 C 6.261719 28.585938 6.886719 28.277344 7.160156 27.65625 C 7.402344 27.167969 7.269531 26.261719 6.722656 25.851562 C 7.402344 26.054688 7.539062 26.703125 7.539062 27.21875 C 7.539062 28.378906 7.160156 29.542969 6.507812 30.394531 L 9.390625 30.394531 C 8.707031 29.460938 8.34375 28.351562 8.355469 27.21875 C 8.355469 26.703125 8.492188 26.054688 9.171875 25.851562 C 8.628906 26.238281 8.492188 27.167969 8.734375 27.65625 C 9.007812 28.277344 9.632812 28.585938 10.367188 28.585938 C 11.453125 28.585938 12.296875 27.761719 12.296875 26.648438 C 12.296875 23.679688 7.949219 21.355469 7.949219 21.355469 Z M 7.949219 21.355469 "/>
<path style=" stroke:none;fill-rule:nonzero;fill:rgb(100%,100%,100%);fill-opacity:1;" d="M 85.40625 125.90625 L 76.839844 125.90625 L 76.839844 95.816406 L 85.40625 95.816406 Z M 85.40625 125.90625 "/>
<path style=" stroke:none;fill-rule:nonzero;fill:rgb(21.960784%,25.098041%,27.843139%);fill-opacity:1;" d="M 82.050781 108.644531 C 82.050781 108.644531 86.402344 106.320312 86.402344 103.351562 C 86.402344 102.238281 85.53125 101.414062 84.472656 101.414062 C 83.738281 101.414062 83.113281 101.722656 82.839844 102.34375 C 82.597656 102.832031 82.730469 103.738281 83.273438 104.148438 C 82.597656 103.945312 82.460938 103.296875 82.460938 102.78125 C 82.460938 101.621094 82.839844 100.457031 83.492188 99.605469 L 80.609375 99.605469 C 81.292969 100.539062 81.65625 101.648438 81.644531 102.78125 C 81.644531 103.296875 81.507812 103.945312 80.828125 104.148438 C 81.371094 103.761719 81.507812 102.832031 81.261719 102.34375 C 80.992188 101.722656 80.367188 101.414062 79.632812 101.414062 C 78.546875 101.414062 77.703125 102.238281 77.703125 103.351562 C 77.703125 106.320312 82.050781 108.644531 82.050781 108.644531 Z M 82.050781 108.644531 "/>
<path style="fill-rule:nonzero;fill:rgb(21.960784%,25.098041%,27.843139%);fill-opacity:1;stroke-width:0.5;stroke-linecap:butt;stroke-linejoin:round;stroke:rgb(21.960784%,25.098041%,27.843139%);stroke-opacity:1;stroke-miterlimit:4;" d="M 1745.92218 -91.698775 L 1745.92218 -90.679784 C 1746.960591 -90.692765 1747.432596 -90.277381 1747.432596 -89.349255 L 1747.432596 -71.851177 C 1747.432596 -70.780264 1746.809549 -70.572571 1745.92218 -70.520648 L 1745.92218 -69.488677 L 1751.567362 -69.488677 L 1751.567362 -70.520648 C 1750.409376 -70.520648 1750.15764 -71.078821 1750.15764 -71.851177 L 1750.15764 -77.679543 L 1751.101651 -79.32161 L 1754.500088 -71.948533 C 1754.990974 -70.8906 1754.298699 -70.520648 1753.549784 -70.520648 L 1753.549784 -69.488677 L 1759.390063 -69.488677 L 1759.390063 -70.520648 C 1758.452346 -70.520648 1758.062155 -71.072331 1757.690844 -71.851177 L 1752.612067 -82.488918 L 1756.381816 -89.349255 C 1756.941929 -90.368246 1757.130731 -90.569448 1758.081035 -90.679784 L 1758.081035 -91.698775 L 1754.122484 -91.698775 L 1754.122484 -90.679784 C 1755.060201 -90.679784 1755.29935 -90.082669 1755.060201 -89.647813 L 1750.15764 -80.950697 L 1750.15764 -89.349255 C 1750.15764 -89.829544 1750.252041 -90.666804 1751.479255 -90.666804 L 1751.479255 -91.698775 Z M 1745.92218 -91.698775 " transform="matrix(0.62069,0,0,0.601852,-1079.999968,60.185167)"/>
<path style="fill-rule:nonzero;fill:rgb(21.960784%,25.098041%,27.843139%);fill-opacity:1;stroke-width:0.5;stroke-linecap:butt;stroke-linejoin:round;stroke:rgb(21.960784%,25.098041%,27.843139%);stroke-opacity:1;stroke-miterlimit:4;" d="M 1745.921994 -91.698837 L 1745.921994 -90.679847 C 1746.960405 -90.692827 1747.432411 -90.277443 1747.432411 -89.349318 L 1747.432411 -71.851239 C 1747.432411 -70.780326 1746.809364 -70.572633 1745.921994 -70.52071 L 1745.921994 -69.488739 L 1751.567177 -69.488739 L 1751.567177 -70.52071 C 1750.40919 -70.52071 1750.157454 -71.078884 1750.157454 -71.851239 L 1750.157454 -77.679605 L 1751.101465 -79.321673 L 1754.499903 -71.948595 C 1754.990788 -70.890662 1754.298514 -70.52071 1753.549599 -70.52071 L 1753.549599 -69.488739 L 1759.389877 -69.488739 L 1759.389877 -70.52071 C 1758.45216 -70.52071 1758.061969 -71.072393 1757.690658 -71.851239 L 1752.611882 -82.488981 L 1756.38163 -89.349318 C 1756.941743 -90.368308 1757.130545 -90.56951 1758.080849 -90.679847 L 1758.080849 -91.698837 L 1754.122298 -91.698837 L 1754.122298 -90.679847 C 1755.060015 -90.679847 1755.299165 -90.082731 1755.060015 -89.647875 L 1750.157454 -80.950759 L 1750.157454 -89.349318 C 1750.157454 -89.829606 1750.251855 -90.666866 1751.479069 -90.666866 L 1751.479069 -91.698837 Z M 1745.921994 -91.698837 " transform="matrix(-0.62069,0.000000000000000074,-0.000000000000000076,-0.601852,1169.999853,69.814796)"/>
</g>
</svg>
