<?xml version="1.0" encoding="UTF-8"?>
<svg xmlns="http://www.w3.org/2000/svg" xmlns:xlink="http://www.w3.org/1999/xlink" width="90px" height="130px" viewBox="0 0 90 130" version="1.1">
<g id="surface1">
<path style="fill-rule:nonzero;fill:rgb(100%,100%,100%);fill-opacity:1;stroke-width:3;stroke-linecap:butt;stroke-linejoin:miter;stroke:rgb(21.960784%,25.098041%,27.843139%);stroke-opacity:1;stroke-miterlimit:4;" d="M 9.503057 1.499301 L 135.496991 1.499301 C 139.921253 1.499301 143.5022 5.081994 143.5022 9.501946 L 143.5022 206.498116 C 143.5022 210.918068 139.921253 214.500761 135.496991 214.500761 L 9.503057 214.500761 C 5.078795 214.500761 1.497848 210.918068 1.497848 206.498116 L 1.497848 9.501946 C 1.497848 5.081994 5.078795 1.499301 9.503057 1.499301 Z M 9.503057 1.499301 " transform="matrix(0.62069,0,0,0.601852,-0.0000112898,-0.0000135584)"/>
<path style=" stroke:none;fill-rule:nonzero;fill:rgb(21.960784%,25.098041%,27.843139%);fill-opacity:1;" d="M 45 54.46875 C 45 54.46875 35.070312 59.882812 35.070312 66.804688 C 35.070312 69.394531 37.054688 71.320312 39.476562 71.320312 C 41.152344 71.320312 42.578125 70.597656 43.199219 69.152344 C 43.757812 68.007812 43.449219 65.902344 42.207031 64.941406 C 43.757812 65.421875 44.070312 66.925781 44.070312 68.128906 C 44.070312 70.839844 43.199219 73.546875 41.710938 75.53125 L 48.289062 75.53125 C 46.730469 73.363281 45.90625 70.773438 45.929688 68.128906 C 45.929688 66.925781 46.242188 65.421875 47.792969 64.941406 C 46.550781 65.84375 46.242188 68.007812 46.800781 69.152344 C 47.421875 70.597656 48.847656 71.320312 50.523438 71.320312 C 53.007812 71.320312 54.929688 69.394531 54.929688 66.804688 C 54.929688 59.882812 45 54.46875 45 54.46875 Z M 45 54.46875 "/>
<path style=" stroke:none;fill-rule:nonzero;fill:rgb(21.960784%,25.098041%,27.843139%);fill-opacity:1;" d="M 27 9.207031 C 27 9.207031 17.070312 14.625 17.070312 21.546875 C 17.070312 24.132812 19.054688 26.058594 21.476562 26.058594 C 23.152344 26.058594 24.578125 25.339844 25.199219 23.894531 C 25.757812 22.75 25.449219 20.644531 24.207031 19.679688 C 25.757812 20.160156 26.070312 21.667969 26.070312 22.871094 C 26.070312 25.578125 25.199219 28.285156 23.710938 30.273438 L 30.289062 30.273438 C 28.730469 28.101562 27.90625 25.515625 27.929688 22.871094 C 27.929688 21.667969 28.242188 20.160156 29.792969 19.679688 C 28.550781 20.582031 28.242188 22.75 28.800781 23.894531 C 29.421875 25.339844 30.847656 26.058594 32.523438 26.058594 C 35.007812 26.058594 36.929688 24.132812 36.929688 21.546875 C 36.929688 14.625 27 9.207031 27 9.207031 Z M 27 9.207031 "/>
<path style=" stroke:none;fill-rule:nonzero;fill:rgb(21.960784%,25.098041%,27.843139%);fill-opacity:1;" d="M 27 120.792969 C 27 120.792969 36.929688 115.375 36.929688 108.453125 C 36.929688 105.867188 34.945312 103.941406 32.523438 103.941406 C 30.847656 103.941406 29.421875 104.660156 28.800781 106.105469 C 28.242188 107.25 28.550781 109.355469 29.792969 110.320312 C 28.242188 109.839844 27.929688 108.332031 27.929688 107.128906 C 27.929688 104.421875 28.800781 101.714844 30.289062 99.726562 L 23.710938 99.726562 C 25.269531 101.898438 26.09375 104.484375 26.070312 107.128906 C 26.070312 108.332031 25.757812 109.839844 24.207031 110.320312 C 25.449219 109.417969 25.757812 107.25 25.199219 106.105469 C 24.578125 104.660156 23.152344 103.941406 21.476562 103.941406 C 18.992188 103.941406 17.070312 105.867188 17.070312 108.453125 C 17.070312 115.375 27 120.792969 27 120.792969 Z M 27 120.792969 "/>
<path style=" stroke:none;fill-rule:nonzero;fill:rgb(21.960784%,25.098041%,27.843139%);fill-opacity:1;" d="M 27 39.421875 C 27 39.421875 17.070312 44.839844 17.070312 51.757812 C 17.070312 54.347656 19.054688 56.273438 21.476562 56.273438 C 23.152344 56.273438 24.578125 55.550781 25.199219 54.105469 C 25.757812 52.964844 25.449219 50.855469 24.207031 49.894531 C 25.757812 50.375 26.070312 51.878906 26.070312 53.082031 C 26.070312 55.792969 25.199219 58.5 23.710938 60.484375 L 30.289062 60.484375 C 28.730469 58.316406 27.90625 55.726562 27.929688 53.082031 C 27.929688 51.878906 28.242188 50.375 29.792969 49.894531 C 28.550781 50.796875 28.242188 52.964844 28.800781 54.105469 C 29.421875 55.550781 30.847656 56.273438 32.523438 56.273438 C 35.007812 56.273438 36.929688 54.347656 36.929688 51.757812 C 36.929688 44.839844 27 39.421875 27 39.421875 Z M 27 39.421875 "/>
<path style=" stroke:none;fill-rule:nonzero;fill:rgb(21.960784%,25.098041%,27.843139%);fill-opacity:1;" d="M 63 9.207031 C 63 9.207031 53.070312 14.625 53.070312 21.546875 C 53.070312 24.132812 55.054688 26.058594 57.476562 26.058594 C 59.152344 26.058594 60.578125 25.339844 61.199219 23.894531 C 61.757812 22.75 61.449219 20.644531 60.207031 19.679688 C 61.757812 20.160156 62.070312 21.667969 62.070312 22.871094 C 62.070312 25.578125 61.199219 28.285156 59.710938 30.273438 L 66.289062 30.273438 C 64.730469 28.101562 63.90625 25.515625 63.929688 22.871094 C 63.929688 21.667969 64.242188 20.160156 65.792969 19.679688 C 64.550781 20.582031 64.242188 22.75 64.800781 23.894531 C 65.421875 25.339844 66.847656 26.058594 68.523438 26.058594 C 71.007812 26.058594 72.929688 24.132812 72.929688 21.546875 C 72.929688 14.625 63 9.207031 63 9.207031 Z M 63 9.207031 "/>
<path style=" stroke:none;fill-rule:nonzero;fill:rgb(21.960784%,25.098041%,27.843139%);fill-opacity:1;" d="M 63 120.792969 C 63 120.792969 72.929688 115.375 72.929688 108.453125 C 72.929688 105.867188 70.945312 103.941406 68.523438 103.941406 C 66.847656 103.941406 65.421875 104.660156 64.800781 106.105469 C 64.242188 107.25 64.550781 109.355469 65.792969 110.320312 C 64.242188 109.839844 63.929688 108.332031 63.929688 107.128906 C 63.929688 104.421875 64.800781 101.714844 66.289062 99.726562 L 59.710938 99.726562 C 61.269531 101.898438 62.09375 104.484375 62.070312 107.128906 C 62.070312 108.332031 61.757812 109.839844 60.207031 110.320312 C 61.449219 109.417969 61.757812 107.25 61.199219 106.105469 C 60.578125 104.660156 59.152344 103.941406 57.476562 103.941406 C 54.992188 103.941406 53.070312 105.867188 53.070312 108.453125 C 53.070312 115.375 63 120.792969 63 120.792969 Z M 63 120.792969 "/>
<path style=" stroke:none;fill-rule:nonzero;fill:rgb(21.960784%,25.098041%,27.843139%);fill-opacity:1;" d="M 63 39.421875 C 63 39.421875 53.070312 44.839844 53.070312 51.757812 C 53.070312 54.347656 55.054688 56.273438 57.476562 56.273438 C 59.152344 56.273438 60.578125 55.550781 61.199219 54.105469 C 61.757812 52.964844 61.449219 50.855469 60.207031 49.894531 C 61.757812 50.375 62.070312 51.878906 62.070312 53.082031 C 62.070312 55.792969 61.199219 58.5 59.710938 60.484375 L 66.289062 60.484375 C 64.730469 58.316406 63.90625 55.726562 63.929688 53.082031 C 63.929688 51.878906 64.242188 50.375 65.792969 49.894531 C 64.550781 50.796875 64.242188 52.964844 64.800781 54.105469 C 65.421875 55.550781 66.847656 56.273438 68.523438 56.273438 C 71.007812 56.273438 72.929688 54.347656 72.929688 51.757812 C 72.929688 44.839844 63 39.421875 63 39.421875 Z M 63 39.421875 "/>
<path style=" stroke:none;fill-rule:nonzero;fill:rgb(21.960784%,25.098041%,27.843139%);fill-opacity:1;" d="M 27 90.640625 C 27 90.640625 36.929688 85.222656 36.929688 78.300781 C 36.929688 75.714844 34.945312 73.785156 32.523438 73.785156 C 30.847656 73.785156 29.421875 74.507812 28.800781 75.953125 C 28.242188 77.097656 28.550781 79.203125 29.792969 80.167969 C 28.242188 79.683594 27.929688 78.179688 27.929688 76.976562 C 27.929688 74.269531 28.800781 71.558594 30.289062 69.574219 L 23.710938 69.574219 C 25.269531 71.746094 26.09375 74.332031 26.070312 76.976562 C 26.070312 78.179688 25.757812 79.683594 24.207031 80.167969 C 25.449219 79.265625 25.757812 77.097656 25.199219 75.953125 C 24.578125 74.507812 23.152344 73.785156 21.476562 73.785156 C 18.992188 73.785156 17.070312 75.714844 17.070312 78.300781 C 17.070312 85.222656 27 90.640625 27 90.640625 Z M 27 90.640625 "/>
<path style=" stroke:none;fill-rule:nonzero;fill:rgb(21.960784%,25.098041%,27.843139%);fill-opacity:1;" d="M 63 90.640625 C 63 90.640625 72.929688 85.222656 72.929688 78.300781 C 72.929688 75.714844 70.945312 73.785156 68.523438 73.785156 C 66.847656 73.785156 65.421875 74.507812 64.800781 75.953125 C 64.242188 77.097656 64.550781 79.203125 65.792969 80.167969 C 64.242188 79.683594 63.929688 78.179688 63.929688 76.976562 C 63.929688 74.269531 64.800781 71.558594 66.289062 69.574219 L 59.710938 69.574219 C 61.269531 71.746094 62.09375 74.332031 62.070312 76.976562 C 62.070312 78.179688 61.757812 79.683594 60.207031 80.167969 C 61.449219 79.265625 61.757812 77.097656 61.199219 75.953125 C 60.578125 74.507812 59.152344 73.785156 57.476562 73.785156 C 54.992188 73.785156 53.070312 75.714844 53.070312 78.300781 C 53.070312 85.222656 63 90.640625 63 90.640625 Z M 63 90.640625 "/>
<path style=" stroke:none;fill-rule:nonzero;fill:rgb(21.960784%,25.098041%,27.843139%);fill-opacity:1;" d="M 7.949219 21.355469 C 7.949219 21.355469 3.597656 23.679688 3.597656 26.648438 C 3.597656 27.761719 4.46875 28.585938 5.527344 28.585938 C 6.261719 28.585938 6.886719 28.277344 7.160156 27.65625 C 7.402344 27.167969 7.269531 26.261719 6.722656 25.851562 C 7.402344 26.054688 7.539062 26.703125 7.539062 27.21875 C 7.539062 28.378906 7.160156 29.542969 6.507812 30.394531 L 9.390625 30.394531 C 8.707031 29.460938 8.34375 28.351562 8.355469 27.21875 C 8.355469 26.703125 8.492188 26.054688 9.171875 25.851562 C 8.628906 26.238281 8.492188 27.167969 8.734375 27.65625 C 9.007812 28.277344 9.632812 28.585938 10.367188 28.585938 C 11.453125 28.585938 12.296875 27.761719 12.296875 26.648438 C 12.296875 23.679688 7.949219 21.355469 7.949219 21.355469 Z M 7.949219 21.355469 "/>
<path style=" stroke:none;fill-rule:nonzero;fill:rgb(21.960784%,25.098041%,27.843139%);fill-opacity:1;" d="M 82.050781 108.644531 C 82.050781 108.644531 86.402344 106.320312 86.402344 103.351562 C 86.402344 102.238281 85.53125 101.414062 84.472656 101.414062 C 83.738281 101.414062 83.113281 101.722656 82.839844 102.34375 C 82.597656 102.832031 82.730469 103.738281 83.277344 104.148438 C 82.597656 103.945312 82.460938 103.296875 82.460938 102.78125 C 82.460938 101.621094 82.839844 100.457031 83.492188 99.605469 L 80.609375 99.605469 C 81.292969 100.539062 81.65625 101.648438 81.644531 102.78125 C 81.644531 103.296875 81.507812 103.945312 80.828125 104.148438 C 81.371094 103.761719 81.507812 102.832031 81.261719 102.34375 C 80.992188 101.722656 80.367188 101.414062 79.632812 101.414062 C 78.546875 101.414062 77.703125 102.238281 77.703125 103.351562 C 77.703125 106.320312 82.050781 108.644531 82.050781 108.644531 Z M 82.050781 108.644531 "/>
<path style="fill-rule:nonzero;fill:rgb(21.960784%,25.098041%,27.843139%);fill-opacity:1;stroke-width:0.5;stroke-linecap:butt;stroke-linejoin:round;stroke:rgb(21.960784%,25.098041%,27.843139%);stroke-opacity:1;stroke-miterlimit:4;" d="M 1172.297328 -70.702379 C 1174.997198 -70.702379 1175.506964 -73.642523 1175.702059 -79.600697 C 1174.638474 -78.958149 1173.63153 -78.581707 1172.398023 -78.497332 C 1169.068812 -78.497332 1166.897588 -81.061034 1166.897588 -85.098053 C 1166.897588 -89.407669 1168.980705 -91.802621 1172.498717 -91.802621 C 1176.551669 -91.802621 1178.269768 -88.680746 1178.401929 -82.501899 C 1178.401929 -75.343004 1177.55232 -69.300456 1172.398023 -69.300456 C 1169.698153 -69.300456 1167.40106 -70.987956 1167.40106 -73.798293 C 1167.40106 -75.278101 1168.256963 -76.400937 1169.402363 -76.400937 C 1170.510002 -76.400937 1171.397372 -75.686995 1171.397372 -74.298052 C 1171.397372 -73.097331 1170.642163 -72.448293 1169.698153 -72.097812 C 1170.107224 -71.481225 1171.038648 -70.702379 1172.297328 -70.702379 Z M 1175.702059 -85.000697 C 1175.702059 -85.818486 1175.557311 -90.27089 1172.599412 -90.498054 C 1170.528882 -90.498054 1169.503057 -88.667765 1169.503057 -85.000697 C 1169.503057 -83.339159 1169.842901 -80.003101 1172.599412 -80.003101 C 1174.588127 -80.003101 1175.702059 -81.982668 1175.702059 -85.000697 Z M 1175.702059 -85.000697 " transform="matrix(0.62069,0,0,0.601852,-719.999954,60.185167)"/>
<path style="fill-rule:nonzero;fill:rgb(21.960784%,25.098041%,27.843139%);fill-opacity:1;stroke-width:0.5;stroke-linecap:butt;stroke-linejoin:round;stroke:rgb(21.960784%,25.098041%,27.843139%);stroke-opacity:1;stroke-miterlimit:4;" d="M 1172.29728 -70.702441 C 1174.99715 -70.702441 1175.506916 -73.642586 1175.702011 -79.600759 C 1174.638426 -78.958211 1173.631482 -78.581769 1172.397975 -78.497394 C 1169.068764 -78.497394 1166.89754 -81.061096 1166.89754 -85.098115 C 1166.89754 -89.407731 1168.980657 -91.802683 1172.498669 -91.802683 C 1176.551621 -91.802683 1178.26972 -88.680808 1178.401881 -82.501961 C 1178.401881 -75.343067 1177.552272 -69.300518 1172.397975 -69.300518 C 1169.698105 -69.300518 1167.401013 -70.988018 1167.401013 -73.798355 C 1167.401013 -75.278163 1168.256915 -76.400999 1169.402315 -76.400999 C 1170.509954 -76.400999 1171.397324 -75.687057 1171.397324 -74.298115 C 1171.397324 -73.097393 1170.642115 -72.448355 1169.698105 -72.097874 C 1170.107176 -71.481287 1171.0386 -70.702441 1172.29728 -70.702441 Z M 1175.702011 -85.00076 C 1175.702011 -85.818548 1175.557263 -90.270952 1172.599364 -90.498116 C 1170.528834 -90.498116 1169.503009 -88.667827 1169.503009 -85.00076 C 1169.503009 -83.339221 1169.842853 -80.003163 1172.599364 -80.003163 C 1174.588079 -80.003163 1175.702011 -81.982731 1175.702011 -85.00076 Z M 1175.702011 -85.00076 " transform="matrix(-0.62069,0.000000000000000074,-0.000000000000000076,-0.601852,809.999925,69.814796)"/>
</g>
</svg>
