<?xml version="1.0" encoding="UTF-8"?>
<svg xmlns="http://www.w3.org/2000/svg" xmlns:xlink="http://www.w3.org/1999/xlink" width="90px" height="130px" viewBox="0 0 90 130" version="1.1">
<g id="surface1">
<path style="fill-rule:nonzero;fill:rgb(100%,100%,100%);fill-opacity:1;stroke-width:3;stroke-linecap:butt;stroke-linejoin:miter;stroke:rgb(21.960784%,25.098041%,27.843139%);stroke-opacity:1;stroke-miterlimit:4;" d="M 9.503037 1.499301 L 135.496971 1.499301 C 139.921234 1.499301 143.50218 5.081994 143.50218 9.501946 L 143.50218 206.498116 C 143.50218 210.918068 139.921234 214.500761 135.496971 214.500761 L 9.503037 214.500761 C 5.078775 214.500761 1.497828 210.918068 1.497828 206.498116 L 1.497828 9.501946 C 1.497828 5.081994 5.078775 1.499301 9.503037 1.499301 Z M 9.503037 1.499301 " transform="matrix(0.62069,0,0,0.601852,0.000000945129,-0.0000135584)"/>
<path style=" stroke:none;fill-rule:nonzero;fill:rgb(21.960784%,25.098041%,27.843139%);fill-opacity:1;" d="M 45 9.207031 C 45 9.207031 35.070312 14.625 35.070312 21.546875 C 35.070312 24.132812 37.054688 26.058594 39.476562 26.058594 C 41.152344 26.058594 42.578125 25.339844 43.199219 23.894531 C 43.757812 22.75 43.449219 20.644531 42.207031 19.679688 C 43.757812 20.160156 44.070312 21.667969 44.070312 22.871094 C 44.070312 25.578125 43.199219 28.285156 41.710938 30.273438 L 48.289062 30.273438 C 46.730469 28.101562 45.90625 25.515625 45.929688 22.871094 C 45.929688 21.667969 46.242188 20.160156 47.792969 19.679688 C 46.550781 20.582031 46.242188 22.75 46.800781 23.894531 C 47.421875 25.339844 48.847656 26.058594 50.523438 26.058594 C 53.007812 26.058594 54.929688 24.132812 54.929688 21.546875 C 54.929688 14.625 45 9.207031 45 9.207031 Z M 45 9.207031 "/>
<path style=" stroke:none;fill-rule:nonzero;fill:rgb(21.960784%,25.098041%,27.843139%);fill-opacity:1;" d="M 45 120.792969 C 45 120.792969 54.929688 115.375 54.929688 108.453125 C 54.929688 105.867188 52.945312 103.941406 50.523438 103.941406 C 48.847656 103.941406 47.421875 104.660156 46.800781 106.105469 C 46.242188 107.25 46.550781 109.355469 47.792969 110.320312 C 46.242188 109.839844 45.929688 108.332031 45.929688 107.128906 C 45.929688 104.421875 46.800781 101.714844 48.289062 99.726562 L 41.710938 99.726562 C 43.269531 101.898438 44.09375 104.484375 44.070312 107.128906 C 44.070312 108.332031 43.757812 109.839844 42.207031 110.320312 C 43.449219 109.417969 43.757812 107.25 43.199219 106.105469 C 42.578125 104.660156 41.152344 103.941406 39.476562 103.941406 C 36.992188 103.941406 35.070312 105.867188 35.070312 108.453125 C 35.070312 115.375 45 120.792969 45 120.792969 Z M 45 120.792969 "/>
<path style=" stroke:none;fill-rule:nonzero;fill:rgb(21.960784%,25.098041%,27.843139%);fill-opacity:1;" d="M 7.949219 21.355469 C 7.949219 21.355469 3.597656 23.679688 3.597656 26.648438 C 3.597656 27.761719 4.46875 28.585938 5.527344 28.585938 C 6.261719 28.585938 6.886719 28.277344 7.160156 27.65625 C 7.402344 27.167969 7.269531 26.261719 6.722656 25.851562 C 7.402344 26.054688 7.539062 26.703125 7.539062 27.21875 C 7.539062 28.378906 7.160156 29.542969 6.507812 30.394531 L 9.390625 30.394531 C 8.707031 29.460938 8.34375 28.351562 8.355469 27.21875 C 8.355469 26.703125 8.492188 26.054688 9.171875 25.851562 C 8.628906 26.238281 8.492188 27.167969 8.734375 27.65625 C 9.007812 28.277344 9.632812 28.585938 10.367188 28.585938 C 11.453125 28.585938 12.296875 27.761719 12.296875 26.648438 C 12.296875 23.679688 7.949219 21.355469 7.949219 21.355469 Z M 7.949219 21.355469 "/>
<path style=" stroke:none;fill-rule:nonzero;fill:rgb(21.960784%,25.098041%,27.843139%);fill-opacity:1;" d="M 82.050781 108.644531 C 82.050781 108.644531 86.402344 106.320312 86.402344 103.351562 C 86.402344 102.238281 85.53125 101.414062 84.472656 101.414062 C 83.738281 101.414062 83.113281 101.722656 82.839844 102.34375 C 82.597656 102.832031 82.730469 103.738281 83.277344 104.148438 C 82.597656 103.945312 82.460938 103.296875 82.460938 102.78125 C 82.460938 101.621094 82.839844 100.457031 83.492188 99.605469 L 80.609375 99.605469 C 81.292969 100.539062 81.65625 101.648438 81.644531 102.78125 C 81.644531 103.296875 81.507812 103.945312 80.828125 104.148438 C 81.371094 103.761719 81.507812 102.832031 81.261719 102.34375 C 80.992188 101.722656 80.367188 101.414062 79.632812 101.414062 C 78.546875 101.414062 77.703125 102.238281 77.703125 103.351562 C 77.703125 106.320312 82.050781 108.644531 82.050781 108.644531 Z M 82.050781 108.644531 "/>
<path style="fill-rule:nonzero;fill:rgb(21.960784%,25.098041%,27.843139%);fill-opacity:1;stroke-width:0.5;stroke-linecap:butt;stroke-linejoin:round;stroke:rgb(21.960784%,25.098041%,27.843139%);stroke-opacity:1;stroke-miterlimit:4;" d="M 159.802083 -86.000217 C 159.802083 -88.187477 158.65039 -90.400698 156.699435 -90.400698 C 155.572916 -90.400698 154.7296 -89.9269 154.200954 -88.998775 C 155.327473 -88.719688 156.000867 -87.778582 156.000867 -86.90238 C 156.000867 -85.792524 155.239366 -84.799495 153.798176 -84.799495 C 152.457681 -84.799495 151.601779 -86.097573 151.601779 -87.40214 C 151.601779 -89.920409 153.867404 -91.899977 157.001519 -91.899977 C 159.751736 -91.899977 162.898437 -90.017765 162.898437 -86.000217 C 162.898437 -80.119928 156.422525 -78.698533 153.697482 -72.701418 L 158.499349 -72.701418 C 160.909722 -72.701418 161.778212 -73.863197 162.602647 -75.901177 L 163.597005 -75.699976 L 162.401259 -69.2031 L 161.400607 -69.2031 C 161.400607 -69.527619 161.249566 -69.800215 160.097873 -69.800215 L 151.601779 -69.800215 L 151.601779 -71.500696 C 151.708766 -77.491322 159.802083 -79.730505 159.802083 -86.000217 Z M 159.802083 -86.000217 " transform="matrix(0.62069,0,0,0.601852,-89.999992,60.185167)"/>
<path style="fill-rule:nonzero;fill:rgb(21.960784%,25.098041%,27.843139%);fill-opacity:1;stroke-width:0.5;stroke-linecap:butt;stroke-linejoin:round;stroke:rgb(21.960784%,25.098041%,27.843139%);stroke-opacity:1;stroke-miterlimit:4;" d="M 159.802075 -86.000279 C 159.802075 -88.187539 158.650382 -90.40076 156.699427 -90.40076 C 155.572908 -90.40076 154.729591 -89.926962 154.200946 -88.998837 C 155.327465 -88.71975 156.000859 -87.778644 156.000859 -86.902442 C 156.000859 -85.792587 155.239357 -84.799558 153.798168 -84.799558 C 152.457673 -84.799558 151.60177 -86.097635 151.60177 -87.402202 C 151.60177 -89.920472 153.867395 -91.900039 157.00151 -91.900039 C 159.751727 -91.900039 162.898429 -90.017827 162.898429 -86.000279 C 162.898429 -80.11999 156.422517 -78.698596 153.697473 -72.70148 L 158.49934 -72.70148 C 160.909714 -72.70148 161.778203 -73.856768 162.602639 -75.90124 L 163.596997 -75.700038 L 162.40125 -69.203162 L 161.400599 -69.203162 C 161.400599 -69.527681 161.249557 -69.800278 160.097864 -69.800278 L 151.60177 -69.800278 L 151.60177 -71.500759 C 151.708758 -77.491384 159.802075 -79.730567 159.802075 -86.000279 Z M 159.802075 -86.000279 " transform="matrix(-0.62069,0.000000000000000074,-0.000000000000000076,-0.601852,179.999987,69.814796)"/>
</g>
</svg>
