<?xml version="1.0" encoding="UTF-8"?>
<svg xmlns="http://www.w3.org/2000/svg" xmlns:xlink="http://www.w3.org/1999/xlink" width="90px" height="130px" viewBox="0 0 90 130" version="1.1">
<defs>
<clipPath id="clip1">
  <path d="M 45 53 L 74 53 L 74 69 L 45 69 Z M 45 53 "/>
</clipPath>
<clipPath id="clip2">
  <path d="M 45.226562 60.34375 L 63.574219 50.738281 L 76.429688 68.347656 L 49.097656 65.527344 L 45.351562 60.828125 "/>
</clipPath>
<clipPath id="clip3">
  <path d="M 16 61 L 45 61 L 45 77 L 16 77 Z M 16 61 "/>
</clipPath>
<clipPath id="clip4">
  <path d="M 44.78125 69.648438 L 26.4375 79.253906 L 13.582031 61.644531 L 40.914062 64.464844 L 44.660156 69.164062 "/>
</clipPath>
</defs>
<g id="surface1">
<path style="fill-rule:nonzero;fill:rgb(100%,100%,100%);fill-opacity:1;stroke-width:3;stroke-linecap:butt;stroke-linejoin:miter;stroke:rgb(21.960784%,25.098041%,27.843139%);stroke-opacity:1;stroke-miterlimit:4;" d="M 9.496856 1.499301 L 135.497083 1.499301 C 139.921345 1.499301 143.502292 5.081994 143.502292 9.501946 L 143.502292 206.498116 C 143.502292 210.918068 139.921345 214.500761 135.497083 214.500761 L 9.496856 214.500761 C 5.078887 214.500761 1.49794 210.918068 1.49794 206.498116 L 1.49794 9.501946 C 1.49794 5.081994 5.078887 1.499301 9.496856 1.499301 Z M 9.496856 1.499301 " transform="matrix(0.62069,0,0,0.601852,-0.0000684791,-0.0000135584)"/>
<path style=" stroke:none;fill-rule:nonzero;fill:rgb(21.960784%,25.098041%,27.843139%);fill-opacity:1;" d="M 18.226562 5.441406 C 18.226562 5.441406 9.558594 10.085938 9.558594 16.015625 C 9.558594 18.234375 11.289062 19.886719 13.402344 19.886719 C 14.867188 19.886719 16.113281 19.265625 16.65625 18.027344 C 17.140625 17.046875 16.871094 15.242188 15.789062 14.417969 C 17.140625 14.832031 17.414062 16.121094 17.414062 17.152344 C 17.414062 19.472656 16.65625 21.792969 15.355469 23.496094 L 21.097656 23.496094 C 19.738281 21.636719 19.015625 19.417969 19.039062 17.152344 C 19.039062 16.121094 19.308594 14.832031 20.664062 14.417969 C 19.578125 15.191406 19.308594 17.046875 19.796875 18.027344 C 20.339844 19.265625 21.585938 19.886719 23.046875 19.886719 C 25.214844 19.886719 26.894531 18.234375 26.894531 16.015625 C 26.894531 10.085938 18.226562 5.441406 18.226562 5.441406 Z M 18.226562 5.441406 "/>
<path style=" stroke:none;fill-rule:nonzero;fill:rgb(100%,100%,100%);fill-opacity:1;" d="M 3.722656 4.09375 L 12.289062 4.09375 L 12.289062 34.183594 L 3.722656 34.183594 Z M 3.722656 4.09375 "/>
<path style=" stroke:none;fill-rule:nonzero;fill:rgb(21.960784%,25.098041%,27.843139%);fill-opacity:1;" d="M 71.773438 124.558594 C 71.773438 124.558594 80.441406 119.914062 80.441406 113.984375 C 80.441406 111.765625 78.707031 110.113281 76.597656 110.113281 C 75.132812 110.113281 73.886719 110.734375 73.34375 111.972656 C 72.859375 112.953125 73.128906 114.757812 74.210938 115.582031 C 72.859375 115.167969 72.585938 113.878906 72.585938 112.847656 C 72.585938 110.527344 73.34375 108.207031 74.644531 106.503906 L 68.902344 106.503906 C 70.261719 108.363281 70.984375 110.582031 70.960938 112.847656 C 70.960938 113.878906 70.691406 115.167969 69.335938 115.582031 C 70.417969 114.808594 70.691406 112.953125 70.203125 111.972656 C 69.660156 110.734375 68.414062 110.113281 66.953125 110.113281 C 64.785156 110.113281 63.105469 111.765625 63.105469 113.984375 C 63.105469 119.914062 71.773438 124.558594 71.773438 124.558594 Z M 71.773438 124.558594 "/>
<path style=" stroke:none;fill-rule:nonzero;fill:rgb(46.666667%,46.666667%,80.000001%);fill-opacity:1;" d="M 13.636719 61.644531 L 22.15625 56.671875 L 29.9375 63.378906 L 20.183594 64.578125 Z M 13.636719 61.644531 "/>
<path style=" stroke:none;fill-rule:nonzero;fill:rgb(33.333334%,46.666667%,53.333336%);fill-opacity:1;" d="M 48.957031 65.355469 L 62.480469 63.738281 L 72.976562 67.929688 L 63.285156 72.242188 Z M 48.957031 65.355469 "/>
<path style=" stroke:none;fill-rule:nonzero;fill:rgb(21.960784%,25.098041%,27.843139%);fill-opacity:1;" d="M 51.550781 15.539062 C 51.550781 15.539062 60.8125 5.957031 43.523438 6.316406 C 37.101562 6.4375 35.433594 9.070312 35.433594 9.070312 C 35.433594 9.070312 23.394531 7.636719 29.507812 14.820312 Z M 34.691406 38.230469 L 28.703125 40.386719 L 25.988281 55.355469 L 45.375 63.140625 L 62.417969 53.199219 C 62.417969 53.199219 59.949219 45.714844 55.070312 41.644531 C 54.515625 41.164062 51.984375 40.625 48.894531 40.148438 C 42.90625 39.128906 34.691406 38.230469 34.691406 38.230469 Z M 34.691406 38.230469 "/>
<path style=" stroke:none;fill-rule:nonzero;fill:rgb(33.333334%,46.666667%,53.333336%);fill-opacity:1;" d="M 40.804688 13.980469 C 40.804688 13.980469 38.214844 8.953125 30.804688 10.6875 C 27.652344 11.46875 30.617188 14.519531 30.617188 14.519531 Z M 40.804688 13.980469 "/>
<path style=" stroke:none;fill-rule:nonzero;fill:rgb(91.764706%,77.64706%,66.274512%);fill-opacity:1;" d="M 38.582031 14.160156 L 51.117188 16.199219 L 50.75 19.550781 L 53.09375 25.539062 L 50.625 25.957031 L 50.871094 27.875 L 49.453125 28.472656 L 50.253906 29.847656 C 50.253906 29.847656 48.402344 30.449219 49.328125 31.40625 C 50.253906 32.304688 51.058594 34.039062 46.671875 34.28125 C 43.957031 34.398438 41.917969 35.957031 44.203125 39.667969 C 44.203125 39.371094 42.351562 42.125 39.449219 42.304688 C 34.941406 42.542969 28.703125 40.328125 28.703125 40.328125 Z M 38.582031 14.160156 "/>
<path style=" stroke:none;fill-rule:nonzero;fill:rgb(78.431374%,66.274512%,47.058824%);fill-opacity:1;" d="M 49.390625 20.269531 C 49.390625 20.269531 50.007812 19.070312 48.835938 18.472656 C 48.277344 18.113281 48.214844 18.472656 47.042969 18.773438 C 45.992188 19.011719 43.832031 18.472656 43.585938 18.171875 C 43.339844 17.753906 43.957031 20.148438 47.597656 19.550781 C 49.820312 19.191406 49.390625 20.269531 49.390625 20.269531 Z M 49.390625 20.269531 "/>
<path style=" stroke:none;fill-rule:nonzero;fill:rgb(21.960784%,25.098041%,27.843139%);fill-opacity:1;" d="M 48.773438 20.867188 C 48.773438 20.867188 47.660156 20.746094 46.734375 20.808594 C 45.683594 20.925781 44.328125 20.925781 43.707031 21.644531 C 43.707031 21.644531 45.191406 21.167969 46.425781 21.464844 C 46.425781 21.464844 46.242188 22.664062 47.042969 22.785156 C 47.847656 22.902344 47.660156 21.464844 47.660156 21.464844 C 47.660156 21.464844 48.773438 21.464844 48.773438 20.867188 Z M 48.773438 20.867188 "/>
<path style=" stroke:none;fill-rule:nonzero;fill:rgb(92.941177%,86.666667%,69.803923%);fill-opacity:1;" d="M 40.992188 15.179688 C 40.992188 15.179688 42.84375 17.574219 42.101562 18.652344 C 39.632812 22.246094 40.4375 27.035156 41.484375 32.421875 C 41.484375 32.421875 45.4375 40.984375 25.121094 37.632812 C 25.121094 37.632812 29.753906 35.179688 28.703125 28.652344 C 28.085938 25.179688 28.703125 15 31.730469 15.480469 Z M 40.992188 15.179688 "/>
<path style=" stroke:none;fill-rule:nonzero;fill:rgb(78.431374%,66.274512%,47.058824%);fill-opacity:1;" d="M 40.558594 15.597656 C 40.804688 16.675781 42.597656 16.796875 39.941406 20.746094 C 37.902344 23.742188 39.757812 25.179688 40.4375 27.574219 C 42.289062 33.5 41.175781 36.675781 35.496094 38.292969 C 35.496094 38.292969 44.695312 38.769531 41.980469 30.386719 C 39.261719 22.003906 41.980469 21.886719 42.597656 19.789062 C 43.03125 18.414062 42.410156 16.675781 41.609375 15.597656 Z M 40.558594 15.597656 "/>
<path style=" stroke:none;fill-rule:nonzero;fill:rgb(46.666667%,46.666667%,80.000001%);fill-opacity:1;" d="M 13.882812 43.980469 C 20.972656 48.980469 26.59375 55.6875 30.1875 63.4375 L 13.636719 61.644531 L 13.511719 45.835938 C 13.507812 45.199219 13.632812 44.570312 13.882812 43.980469 Z M 13.882812 43.980469 "/>
<path style=" stroke:none;fill-rule:nonzero;fill:rgb(86.666667%,86.666667%,86.666667%);fill-opacity:1;" d="M 48.09375 39.550781 C 48.09375 39.550781 43.957031 53.738281 41.054688 58.828125 L 46.859375 64.515625 C 46.859375 64.515625 53.15625 47.214844 53.527344 40.746094 C 52.539062 39.667969 48.09375 39.550781 48.09375 39.550781 Z M 48.09375 39.550781 "/>
<path style=" stroke:none;fill-rule:nonzero;fill:rgb(93.333334%,80.000001%,26.666668%);fill-opacity:1;" d="M 21.847656 40.328125 C 29.628906 48.410156 38.398438 55.714844 44.636719 64.9375 L 34.941406 63.917969 C 28.148438 59.308594 22.15625 50.746094 16.414062 41.644531 C 16.617188 41.570312 16.824219 41.511719 17.03125 41.464844 Z M 21.847656 40.328125 "/>
<path style=" stroke:none;fill-rule:nonzero;fill:rgb(21.960784%,25.098041%,27.843139%);fill-opacity:1;" d="M 16.355469 41.644531 L 34.878906 63.917969 L 30.125 63.4375 L 13.882812 43.980469 C 14.324219 42.894531 15.222656 42.042969 16.355469 41.644531 Z M 16.355469 41.644531 "/>
<path style=" stroke:none;fill-rule:nonzero;fill:rgb(33.333334%,46.666667%,53.333336%);fill-opacity:1;" d="M 51.734375 15.480469 C 51.734375 15.480469 54.019531 13.082031 54.019531 10.210938 C 54.019531 10.210938 47.042969 10.929688 45.746094 14.339844 C 46.242188 14.519531 51.734375 15.480469 51.734375 15.480469 Z M 51.734375 15.480469 "/>
<path style=" stroke:none;fill-rule:nonzero;fill:rgb(46.666667%,46.666667%,80.000001%);fill-opacity:1;" d="M 51.78125 15.324219 L 51.28125 16.835938 C 43.417969 15.867188 38.300781 15.445312 29.6875 16.230469 L 29.441406 14.777344 C 36.835938 13.363281 44.464844 13.546875 51.78125 15.324219 Z M 51.78125 15.324219 "/>
<path style=" stroke:none;fill-rule:nonzero;fill:rgb(33.333334%,46.666667%,53.333336%);fill-opacity:1;" d="M 43.292969 37.832031 L 47.289062 39.707031 C 47.289062 39.707031 46.476562 44.792969 37.613281 45.277344 C 30.125 45.636719 24.507812 39.769531 24.507812 39.769531 L 29.191406 38.921875 C 29.191406 38.921875 32.496094 41.039062 37.800781 40.617188 C 42.296875 40.3125 43.292969 37.832031 43.292969 37.832031 Z M 43.292969 37.832031 "/>
<path style=" stroke:none;fill-rule:nonzero;fill:rgb(21.960784%,25.098041%,27.843139%);fill-opacity:1;" d="M 25.367188 39.550781 L 48.585938 64.875 L 44.449219 64.875 L 21.847656 40.328125 Z M 25.367188 39.550781 "/>
<path style=" stroke:none;fill-rule:nonzero;fill:rgb(78.431374%,66.274512%,47.058824%);fill-opacity:1;" d="M 48.972656 30.753906 C 48.972656 30.753906 48.222656 31.84375 48.535156 31.84375 C 48.847656 31.84375 49.910156 32.566406 49.910156 33.355469 C 49.910156 33.355469 50.96875 31.964844 48.972656 30.753906 Z M 37.300781 15.867188 C 37.300781 15.867188 38.488281 17.925781 35.679688 21.980469 C 32.371094 26.820312 37.988281 29.601562 34.804688 34.203125 C 31.625 38.800781 26.695312 37.710938 25.195312 37.652344 C 25.195312 37.652344 32.246094 38.5 34.183594 33.960938 C 36.117188 29.421875 32.308594 25.550781 34.867188 21.496094 C 37.425781 17.441406 37.300781 16.53125 37.300781 15.867188 Z M 37.300781 15.867188 "/>
<path style=" stroke:none;fill-rule:nonzero;fill:rgb(91.764706%,77.64706%,66.274512%);fill-opacity:1;" d="M 70.445312 61.703125 L 63.652344 55.714844 L 71.0625 50.867188 L 76.808594 56.671875 Z M 70.445312 61.703125 "/>
<path style=" stroke:none;fill-rule:nonzero;fill:rgb(33.333334%,46.666667%,53.333336%);fill-opacity:1;" d="M 44.820312 60.683594 L 61.121094 51.882812 C 66.246094 56.3125 70.222656 61.824219 72.917969 67.929688 L 49.019531 65.535156 "/>
<path style=" stroke:none;fill-rule:nonzero;fill:rgb(46.666667%,46.666667%,80.000001%);fill-opacity:1;" d="M 25.429688 39.550781 L 40.496094 55.59375 L 35.621094 54.398438 L 35.25 50.027344 L 30.433594 48.710938 L 29.691406 44.21875 L 24.566406 42.421875 Z M 40.558594 55.714844 L 49.019531 65.535156 L 45.621094 65.054688 C 45.253906 66.671875 44.820312 66.492188 44.386719 64.9375 L 45.003906 61.105469 L 40.683594 59.90625 Z M 40.558594 55.714844 "/>
<g clip-path="url(#clip1)" clip-rule="nonzero">
<g clip-path="url(#clip2)" clip-rule="nonzero">
<path style=" stroke:none;fill-rule:nonzero;fill:rgb(21.960784%,25.098041%,27.843139%);fill-opacity:1;" d="M 66.007812 56.289062 L 66.382812 58.164062 C 66.382812 58.164062 65.945312 58.347656 66.132812 59.253906 C 66.144531 59.417969 66.164062 59.582031 66.195312 59.738281 L 65.757812 59.738281 C 65.808594 59.582031 65.851562 59.417969 65.882812 59.253906 C 66.070312 58.347656 65.632812 58.164062 65.632812 58.164062 C 65.820312 58.347656 65.757812 58.648438 65.632812 58.828125 C 65.507812 59.070312 65.261719 59.191406 65.011719 59.191406 C 64.5625 59.191406 64.199219 58.84375 64.199219 58.40625 C 64.199219 57.074219 66.007812 56.226562 66.007812 56.226562 Z M 61.890625 56.289062 C 61.890625 56.289062 63.699219 57.136719 63.699219 58.464844 C 63.699219 58.902344 63.335938 59.253906 62.886719 59.253906 C 62.222656 59.230469 61.910156 58.453125 62.265625 58.226562 C 62.019531 58.308594 61.863281 58.605469 62.078125 59.675781 L 61.640625 59.675781 C 61.710938 59.476562 62.039062 58.425781 61.515625 58.164062 C 61.816406 58.453125 61.507812 59.191406 60.890625 59.191406 C 60.441406 59.191406 60.082031 58.84375 60.082031 58.40625 C 60.082031 57.074219 61.890625 56.226562 61.890625 56.226562 Z M 49.660156 56.289062 C 49.660156 56.289062 51.46875 57.136719 51.46875 58.464844 C 51.46875 58.902344 51.105469 59.253906 50.65625 59.253906 C 49.988281 59.230469 49.675781 58.453125 50.03125 58.226562 C 49.789062 58.308594 49.632812 58.605469 49.847656 59.675781 L 49.410156 59.675781 C 49.476562 59.476562 49.808594 58.425781 49.285156 58.164062 C 49.550781 58.425781 49.351562 59.191406 48.660156 59.191406 C 48.210938 59.191406 47.847656 58.84375 47.847656 58.40625 Z M 57.832031 56.289062 C 57.832031 56.289062 59.644531 57.136719 59.644531 58.464844 C 59.644531 58.902344 59.28125 59.253906 58.832031 59.253906 C 58.164062 59.230469 57.851562 58.453125 58.207031 58.226562 C 57.972656 58.308594 57.808594 58.605469 58.019531 59.675781 L 57.585938 59.675781 C 57.652344 59.476562 57.984375 58.425781 57.460938 58.164062 C 57.757812 58.453125 57.453125 59.191406 56.835938 59.191406 C 56.386719 59.191406 56.023438 58.84375 56.023438 58.40625 C 56.023438 57.074219 57.832031 56.226562 57.832031 56.226562 Z M 53.777344 56.289062 C 53.777344 56.289062 55.585938 57.136719 55.585938 58.464844 C 55.585938 58.902344 55.226562 59.253906 54.777344 59.253906 C 54.109375 59.230469 53.796875 58.453125 54.152344 58.226562 C 53.914062 58.308594 53.753906 58.605469 53.964844 59.675781 L 53.527344 59.675781 C 53.597656 59.476562 53.925781 58.425781 53.402344 58.164062 C 53.703125 58.453125 53.398438 59.191406 52.777344 59.191406 C 52.328125 59.191406 51.96875 58.84375 51.96875 58.40625 C 51.96875 57.074219 53.777344 56.226562 53.777344 56.226562 Z M 55.648438 57.136719 C 55.648438 57.136719 53.839844 56.289062 53.839844 54.898438 L 55.273438 55.199219 C 55.273438 55.199219 55.710938 55.019531 55.523438 54.109375 L 55.773438 54.109375 C 55.585938 55.019531 56.023438 55.199219 56.023438 55.199219 C 55.699219 54.882812 56.105469 54.238281 56.648438 54.171875 C 57.097656 54.171875 57.460938 54.519531 57.460938 54.957031 C 57.460938 56.289062 55.648438 57.136719 55.648438 57.136719 Z M 59.769531 57.136719 C 59.769531 57.136719 57.957031 56.289062 57.957031 54.898438 C 57.992188 54.484375 58.34375 54.167969 58.769531 54.171875 C 59.398438 54.164062 59.769531 54.835938 59.394531 55.199219 C 59.394531 55.199219 59.832031 55.019531 59.644531 54.109375 L 59.582031 53.6875 L 60.019531 53.6875 L 59.894531 54.109375 C 59.707031 55.019531 60.140625 55.199219 60.140625 55.199219 C 59.816406 54.882812 60.222656 54.238281 60.765625 54.171875 C 61.214844 54.171875 61.578125 54.519531 61.578125 54.957031 C 61.578125 56.289062 59.769531 57.136719 59.769531 57.136719 Z M 63.824219 57.136719 C 63.824219 57.136719 62.015625 56.289062 62.015625 54.898438 C 62.046875 54.484375 62.402344 54.167969 62.824219 54.171875 L 65.632812 54.957031 C 65.632812 56.289062 63.824219 57.136719 63.824219 57.136719 Z M 66.007812 61.976562 C 66.007812 61.976562 67.820312 62.824219 67.820312 64.15625 C 67.820312 64.589844 67.457031 64.941406 67.007812 64.941406 C 66.445312 64.917969 65.996094 64.289062 66.382812 63.914062 C 66.382812 63.914062 65.945312 64.035156 66.132812 64.941406 C 66.144531 65.105469 66.164062 65.269531 66.195312 65.425781 L 65.757812 65.425781 C 65.808594 65.269531 65.851562 65.105469 65.882812 64.941406 C 66.070312 64.035156 65.632812 63.851562 65.632812 63.851562 C 65.988281 64.3125 65.441406 64.941406 65.011719 64.941406 C 64.5625 64.941406 64.199219 64.589844 64.199219 64.15625 C 64.199219 62.824219 66.007812 61.976562 66.007812 61.976562 Z M 61.890625 61.976562 C 61.890625 61.976562 63.699219 62.824219 63.699219 64.15625 C 63.699219 64.589844 63.335938 64.941406 62.886719 64.941406 C 62.328125 64.917969 61.878906 64.289062 62.265625 63.914062 C 62.265625 63.914062 61.828125 64.035156 62.015625 64.941406 C 62.027344 65.105469 62.046875 65.269531 62.078125 65.425781 L 61.640625 65.425781 C 61.691406 65.269531 61.734375 65.105469 61.765625 64.941406 C 61.953125 64.035156 61.515625 63.851562 61.515625 63.851562 C 61.871094 64.3125 61.320312 64.941406 60.890625 64.941406 C 60.441406 64.941406 60.082031 64.589844 60.082031 64.15625 C 60.082031 62.824219 61.890625 61.976562 61.890625 61.976562 Z M 70.128906 61.976562 L 70.5 63.914062 C 70.5 63.914062 70.066406 64.035156 70.253906 64.941406 C 70.265625 65.105469 70.285156 65.269531 70.316406 65.425781 L 69.878906 65.425781 C 69.925781 65.269531 69.972656 65.105469 70.003906 64.941406 C 70.191406 64.035156 69.753906 63.914062 69.753906 63.914062 C 69.941406 64.09375 69.878906 64.335938 69.753906 64.519531 C 69.628906 64.761719 69.378906 64.941406 69.128906 64.941406 C 68.679688 64.941406 68.316406 64.589844 68.316406 64.15625 C 68.316406 62.824219 70.128906 61.976562 70.128906 61.976562 Z M 49.660156 61.976562 C 49.660156 61.976562 51.46875 62.824219 51.46875 64.15625 C 51.46875 64.589844 51.105469 64.941406 50.65625 64.941406 C 50.09375 64.917969 49.644531 64.289062 50.03125 63.914062 C 50.03125 63.914062 49.597656 64.035156 49.785156 64.941406 C 49.796875 65.105469 49.816406 65.269531 49.847656 65.425781 L 49.410156 65.425781 C 49.460938 65.269531 49.503906 65.105469 49.535156 64.941406 C 49.722656 64.035156 49.285156 63.851562 49.285156 63.851562 C 49.613281 64.277344 49.164062 64.941406 48.660156 64.941406 C 48.210938 64.941406 47.847656 64.589844 47.847656 64.15625 C 47.847656 62.824219 49.660156 61.976562 49.660156 61.976562 Z M 57.832031 61.976562 C 57.832031 61.976562 59.644531 62.824219 59.644531 64.15625 C 59.644531 64.589844 59.28125 64.941406 58.832031 64.941406 C 58.269531 64.917969 57.820312 64.289062 58.207031 63.914062 C 58.207031 63.914062 57.769531 64.035156 57.957031 64.941406 C 57.972656 65.105469 57.988281 65.269531 58.019531 65.425781 L 57.585938 65.425781 C 57.632812 65.269531 57.675781 65.105469 57.707031 64.941406 C 57.894531 64.035156 57.460938 63.851562 57.460938 63.851562 C 57.816406 64.3125 57.265625 64.941406 56.835938 64.941406 C 56.386719 64.941406 56.023438 64.589844 56.023438 64.15625 C 56.023438 62.824219 57.832031 61.976562 57.832031 61.976562 Z M 53.777344 61.976562 C 53.777344 61.976562 55.585938 62.824219 55.585938 64.15625 C 55.585938 64.589844 55.226562 64.941406 54.777344 64.941406 C 54.214844 64.917969 53.765625 64.289062 54.152344 63.914062 C 54.152344 63.914062 53.714844 64.035156 53.902344 64.941406 C 53.914062 65.105469 53.933594 65.269531 53.964844 65.425781 L 53.527344 65.425781 C 53.578125 65.269531 53.621094 65.105469 53.652344 64.941406 C 53.839844 64.035156 53.402344 63.851562 53.402344 63.851562 C 53.757812 64.3125 53.210938 64.941406 52.777344 64.941406 C 52.328125 64.941406 51.96875 64.589844 51.96875 64.15625 C 51.96875 62.824219 53.777344 61.976562 53.777344 61.976562 Z M 55.648438 62.824219 C 55.648438 62.824219 53.839844 61.976562 53.839844 60.644531 C 53.839844 60.210938 54.203125 59.859375 54.652344 59.859375 C 55.332031 59.859375 55.628906 60.542969 55.273438 60.886719 C 55.273438 60.886719 55.710938 60.765625 55.523438 59.859375 L 55.460938 59.375 L 55.898438 59.375 L 55.773438 59.859375 C 55.585938 60.765625 56.023438 60.886719 56.023438 60.886719 C 55.492188 59.960938 57.246094 59.40625 57.460938 60.644531 C 57.460938 61.976562 55.648438 62.824219 55.648438 62.824219 Z M 59.769531 62.824219 C 59.769531 62.824219 57.957031 61.976562 57.957031 60.644531 C 57.957031 60.210938 58.320312 59.859375 58.769531 59.859375 C 59.394531 59.851562 59.769531 60.523438 59.394531 60.886719 C 59.394531 60.886719 59.832031 60.765625 59.644531 59.859375 L 59.582031 59.375 L 60.019531 59.375 L 59.894531 59.859375 C 59.707031 60.765625 60.140625 60.886719 60.140625 60.886719 C 59.824219 60.578125 60.222656 59.925781 60.765625 59.859375 C 61.214844 59.859375 61.578125 60.210938 61.578125 60.644531 C 61.578125 61.976562 59.769531 62.824219 59.769531 62.824219 Z M 47.414062 62.824219 C 47.414062 62.824219 45.601562 61.976562 45.601562 60.644531 C 45.601562 60.210938 45.964844 59.859375 46.414062 59.859375 C 47.039062 59.851562 47.414062 60.523438 47.039062 60.886719 C 47.039062 60.886719 47.476562 60.765625 47.289062 59.859375 L 47.226562 59.375 L 47.660156 59.375 L 47.535156 59.859375 C 47.351562 60.765625 47.785156 60.886719 47.785156 60.886719 C 47.46875 60.578125 47.867188 59.925781 48.410156 59.859375 C 48.859375 59.859375 49.222656 60.210938 49.222656 60.644531 C 49.222656 61.976562 47.414062 62.824219 47.414062 62.824219 Z M 51.53125 62.824219 C 51.53125 62.824219 49.722656 61.976562 49.722656 60.644531 C 49.722656 60.210938 50.082031 59.859375 50.53125 59.859375 C 51.210938 59.859375 51.511719 60.542969 51.15625 60.886719 C 51.15625 60.886719 51.59375 60.765625 51.40625 59.859375 L 51.34375 59.375 L 51.78125 59.375 L 51.65625 59.859375 C 51.46875 60.765625 51.90625 60.886719 51.90625 60.886719 C 51.585938 60.578125 51.988281 59.925781 52.53125 59.859375 C 52.980469 59.859375 53.339844 60.210938 53.339844 60.644531 C 53.339844 61.976562 51.53125 62.824219 51.53125 62.824219 Z M 63.824219 62.824219 C 63.824219 62.824219 62.015625 61.976562 62.015625 60.644531 C 62.015625 60.210938 62.375 59.859375 62.824219 59.859375 C 63.449219 59.851562 63.824219 60.523438 63.449219 60.886719 C 63.449219 60.886719 63.886719 60.765625 63.699219 59.859375 L 63.636719 59.375 L 64.074219 59.375 L 63.949219 59.859375 C 63.761719 60.765625 64.199219 60.886719 64.199219 60.886719 C 63.878906 60.578125 64.28125 59.925781 64.824219 59.859375 C 65.273438 59.859375 65.632812 60.210938 65.632812 60.644531 C 65.632812 61.976562 63.824219 62.824219 63.824219 62.824219 Z M 67.941406 62.824219 C 67.941406 62.824219 66.132812 61.976562 66.132812 60.644531 C 66.132812 60.210938 66.496094 59.859375 66.945312 59.859375 L 69.753906 60.644531 C 69.753906 61.976562 67.941406 62.824219 67.941406 62.824219 Z M 53.839844 66.332031 C 53.839844 65.898438 54.203125 65.546875 54.652344 65.546875 C 54.964844 65.546875 55.210938 65.726562 55.335938 65.96875 C 55.398438 66.152344 55.460938 66.394531 55.273438 66.574219 C 55.273438 66.574219 55.710938 66.453125 55.523438 65.546875 C 55.523438 65.425781 55.523438 65.242188 55.398438 65.0625 L 55.898438 65.0625 L 55.773438 65.546875 C 55.585938 66.453125 56.023438 66.636719 56.023438 66.636719 C 55.835938 66.453125 55.898438 66.152344 55.960938 65.96875 C 56.398438 65.296875 57.464844 65.601562 57.460938 66.394531 Z M 59.769531 68.570312 C 59.769531 68.570312 57.957031 67.664062 57.957031 66.332031 C 57.957031 65.898438 58.320312 65.546875 58.769531 65.546875 C 59.332031 65.570312 59.78125 66.199219 59.394531 66.574219 C 59.394531 66.574219 59.832031 66.453125 59.644531 65.546875 L 59.582031 65.0625 L 60.019531 65.0625 L 59.894531 65.546875 C 59.707031 66.453125 60.140625 66.636719 60.140625 66.636719 C 59.804688 66.207031 60.25 65.644531 60.765625 65.605469 C 61.214844 65.605469 61.578125 65.957031 61.578125 66.394531 C 61.578125 67.726562 59.769531 68.570312 59.769531 68.570312 Z M 51.40625 65.546875 C 51.40625 65.425781 51.40625 65.242188 51.28125 65.0625 L 51.78125 65.0625 L 51.65625 65.546875 C 51.46875 66.453125 51.90625 66.636719 51.90625 66.636719 C 51.71875 66.394531 51.71875 66.152344 51.84375 65.96875 C 51.972656 65.722656 52.234375 65.558594 52.53125 65.546875 C 52.980469 65.546875 53.339844 65.898438 53.339844 66.332031 C 52.714844 66.695312 51.46875 66.210938 51.40625 65.546875 Z M 72.0625 68.570312 C 72.0625 68.570312 70.253906 67.664062 70.253906 66.332031 C 70.253906 65.898438 70.613281 65.546875 71.0625 65.546875 L 73.871094 66.394531 C 73.871094 68.207031 72.0625 68.570312 72.0625 68.570312 Z M 63.824219 68.570312 C 63.824219 68.570312 62.015625 67.664062 62.015625 66.332031 C 62.015625 65.898438 62.375 65.546875 62.824219 65.546875 C 63.386719 65.570312 63.835938 66.199219 63.449219 66.574219 C 63.449219 66.574219 63.886719 66.453125 63.699219 65.546875 L 63.636719 65.0625 L 64.074219 65.0625 L 63.949219 65.546875 C 63.761719 66.453125 64.199219 66.636719 64.199219 66.636719 C 63.863281 66.207031 64.304688 65.644531 64.824219 65.605469 C 65.273438 65.605469 65.632812 65.957031 65.632812 66.394531 C 65.632812 67.726562 63.824219 68.570312 63.824219 68.570312 Z M 67.941406 68.570312 C 67.941406 68.570312 66.132812 67.664062 66.132812 66.332031 C 66.132812 65.898438 66.496094 65.546875 66.945312 65.546875 C 67.574219 65.546875 67.929688 66.222656 67.570312 66.574219 C 67.570312 66.574219 68.003906 66.453125 67.820312 65.546875 L 67.757812 65.0625 L 68.191406 65.0625 L 68.066406 65.546875 C 67.878906 66.453125 68.316406 66.636719 68.316406 66.636719 C 67.980469 66.207031 68.421875 65.644531 68.941406 65.605469 C 69.390625 65.605469 69.753906 65.957031 69.753906 66.394531 C 69.753906 67.726562 67.941406 68.570312 67.941406 68.570312 Z M 67.941406 68.570312 "/>
</g>
</g>
<path style=" stroke:none;fill-rule:nonzero;fill:rgb(26.666668%,60.000002%,40.000001%);fill-opacity:1;" d="M 63.40625 50.625 L 61.121094 51.882812 L 73.039062 67.988281 L 76.4375 68.347656 Z M 63.40625 50.625 "/>
<path style=" stroke:none;fill-rule:nonzero;fill:rgb(21.960784%,25.098041%,27.843139%);fill-opacity:1;" d="M 35.78125 60.808594 C 35.78125 60.808594 37.832031 60.289062 38.726562 61.363281 C 38.949219 61.640625 38.957031 62.027344 38.742188 62.3125 C 38.53125 62.59375 38.148438 62.710938 37.808594 62.589844 C 37.621094 62.59375 37.429688 62.355469 37.421875 62.050781 C 37.421875 62.050781 37.183594 62.480469 37.941406 63.070312 L 38.382812 63.367188 L 38.015625 63.675781 L 37.757812 63.253906 C 37.304688 62.417969 36.808594 62.605469 36.808594 62.605469 C 37.121094 62.601562 37.25 62.839844 37.316406 63.019531 C 37.417969 63.382812 37.242188 63.765625 36.898438 63.933594 C 36.550781 64.097656 36.128906 64.007812 35.894531 63.710938 C 34.9375 62.636719 35.777344 60.808594 35.777344 60.808594 Z M 33.296875 58.007812 C 33.296875 58.007812 35.347656 57.546875 36.242188 58.5625 C 36.546875 58.824219 36.601562 59.269531 36.371094 59.597656 C 36.136719 59.921875 35.691406 60.03125 35.328125 59.847656 C 35.140625 59.789062 34.886719 59.613281 34.941406 59.25 C 34.941406 59.25 34.703125 59.738281 35.460938 60.328125 L 35.902344 60.625 L 35.535156 60.933594 L 35.277344 60.453125 C 34.824219 59.675781 34.328125 59.804688 34.328125 59.804688 C 34.640625 59.796875 34.769531 60.097656 34.835938 60.28125 C 34.894531 60.628906 34.703125 60.972656 34.371094 61.121094 C 34.039062 61.269531 33.644531 61.179688 33.410156 60.910156 C 32.457031 59.894531 33.296875 58.007812 33.296875 58.007812 Z M 30.875 55.261719 C 30.875 55.261719 32.925781 54.746094 33.820312 55.820312 C 34.042969 56.09375 34.050781 56.480469 33.835938 56.765625 C 33.625 57.050781 33.242188 57.164062 32.902344 57.042969 C 32.714844 57.046875 32.460938 56.808594 32.519531 56.507812 C 32.519531 56.507812 32.277344 56.933594 33.035156 57.527344 C 33.179688 57.632812 33.328125 57.730469 33.476562 57.820312 L 33.109375 58.128906 C 33.03125 57.988281 32.945312 57.847656 32.851562 57.710938 C 32.398438 56.871094 31.902344 57.0625 31.902344 57.0625 C 32.214844 57.054688 32.34375 57.296875 32.410156 57.476562 C 32.511719 57.839844 32.335938 58.21875 31.992188 58.386719 C 31.644531 58.554688 31.226562 58.460938 30.988281 58.164062 C 30.03125 57.09375 30.875 55.261719 30.875 55.261719 Z M 28.453125 52.460938 C 28.453125 52.460938 30.503906 52 31.398438 53.015625 C 31.703125 53.277344 31.761719 53.722656 31.527344 54.050781 C 31.296875 54.378906 30.847656 54.484375 30.484375 54.300781 C 30.296875 54.242188 30.105469 54.066406 30.097656 53.703125 C 30.097656 53.703125 29.859375 54.191406 30.617188 54.785156 C 30.761719 54.886719 30.90625 54.988281 31.058594 55.078125 L 30.691406 55.386719 L 30.433594 54.90625 C 29.980469 54.128906 29.484375 54.257812 29.484375 54.257812 C 29.796875 54.253906 29.925781 54.554688 29.992188 54.734375 C 30.050781 55.082031 29.859375 55.429688 29.527344 55.574219 C 29.195312 55.722656 28.800781 55.636719 28.570312 55.363281 C 27.613281 54.351562 28.453125 52.460938 28.453125 52.460938 Z M 26.03125 49.71875 C 26.03125 49.71875 28.082031 49.199219 28.976562 50.273438 C 29.199219 50.546875 29.207031 50.933594 28.992188 51.21875 C 28.78125 51.503906 28.398438 51.617188 28.058594 51.5 C 27.871094 51.5 27.617188 51.261719 27.675781 50.960938 C 27.675781 50.960938 27.433594 51.386719 28.191406 51.980469 C 28.335938 52.085938 28.484375 52.183594 28.636719 52.273438 L 28.265625 52.585938 L 28.007812 52.164062 C 27.558594 51.324219 27.0625 51.515625 27.0625 51.515625 C 27.375 51.511719 27.503906 51.75 27.566406 51.929688 C 27.667969 52.292969 27.492188 52.671875 27.148438 52.839844 C 26.800781 53.007812 26.382812 52.914062 26.144531 52.621094 C 25.191406 51.546875 26.03125 49.71875 26.03125 49.71875 Z M 23.609375 46.914062 C 23.609375 46.914062 25.660156 46.394531 26.554688 47.46875 C 26.859375 47.734375 26.917969 48.175781 26.683594 48.503906 C 26.453125 48.832031 26.003906 48.9375 25.640625 48.753906 C 25.453125 48.699219 25.199219 48.519531 25.257812 48.15625 C 25.257812 48.15625 25.015625 48.644531 25.773438 49.238281 C 25.917969 49.34375 26.066406 49.441406 26.21875 49.53125 L 25.847656 49.839844 L 25.589844 49.363281 C 25.140625 48.582031 24.640625 48.710938 24.640625 48.710938 C 24.953125 48.707031 25.082031 48.945312 25.148438 49.1875 C 25.207031 49.539062 25.019531 49.882812 24.683594 50.027344 C 24.351562 50.175781 23.960938 50.089844 23.726562 49.816406 C 22.769531 48.804688 23.609375 46.914062 23.609375 46.914062 Z M 21.1875 44.109375 C 21.1875 44.109375 23.238281 43.652344 24.132812 44.664062 C 24.515625 44.910156 24.621094 45.410156 24.371094 45.78125 C 24.117188 46.152344 23.605469 46.257812 23.21875 46.011719 C 23.03125 45.894531 22.777344 45.71875 22.835938 45.414062 C 22.835938 45.414062 22.59375 45.839844 23.351562 46.433594 C 23.496094 46.539062 23.644531 46.636719 23.792969 46.730469 L 23.425781 47.039062 L 23.167969 46.617188 C 22.714844 45.777344 22.222656 45.96875 22.222656 45.96875 C 22.53125 45.964844 22.660156 46.203125 22.726562 46.382812 C 22.828125 46.746094 22.652344 47.125 22.308594 47.292969 C 21.960938 47.460938 21.542969 47.371094 21.304688 47.074219 C 20.347656 46 21.191406 44.171875 21.191406 44.171875 Z M 18.707031 41.367188 C 18.707031 41.367188 20.757812 40.910156 21.648438 41.925781 C 21.957031 42.1875 22.011719 42.632812 21.777344 42.957031 C 21.546875 43.285156 21.097656 43.394531 20.734375 43.210938 C 20.546875 43.152344 20.292969 42.976562 20.351562 42.613281 C 20.351562 42.613281 20.109375 43.101562 20.871094 43.691406 L 21.3125 43.988281 L 20.941406 44.296875 L 20.683594 43.875 C 20.234375 43.039062 19.738281 43.167969 19.738281 43.167969 C 20.046875 43.160156 20.179688 43.460938 20.246094 43.640625 C 20.304688 43.992188 20.113281 44.335938 19.78125 44.484375 C 19.445312 44.632812 19.054688 44.542969 18.820312 44.273438 C 17.867188 43.257812 18.707031 41.367188 18.707031 41.367188 Z M 18.707031 41.367188 "/>
<path style=" stroke:none;fill-rule:nonzero;fill:rgb(66.666669%,67.450982%,69.01961%);fill-opacity:1;" d="M 70.261719 47.75 C 74.398438 47.75 77.734375 51.046875 77.734375 55.058594 C 77.714844 56.972656 76.914062 58.800781 75.511719 60.144531 L 70.878906 55.65625 C 70.570312 55.355469 70.261719 55.058594 69.644531 55.058594 L 62.789062 55.058594 C 62.789062 51.046875 66.125 47.75 70.261719 47.75 Z M 70.261719 47.75 "/>
<path style=" stroke:none;fill-rule:nonzero;fill:rgb(77.254903%,78.039217%,78.823531%);fill-opacity:1;" d="M 69.027344 6.496094 L 69.027344 49.789062 C 69.027344 49.789062 70.074219 49.488281 70.570312 49.488281 C 71.0625 49.488281 72.113281 49.789062 72.113281 49.789062 L 72.113281 31.886719 C 72.113281 7.695312 69.027344 6.496094 69.027344 6.496094 Z M 69.027344 6.496094 "/>
<path style=" stroke:none;fill-rule:nonzero;fill:rgb(21.960784%,25.098041%,27.843139%);fill-opacity:1;" d="M 48.402344 48.109375 C 48.402344 48.109375 50.75 49.90625 50.316406 51.941406 C 50.191406 52.550781 49.585938 52.949219 48.957031 52.839844 C 48.523438 52.78125 48.15625 52.480469 48.09375 52.121094 C 47.96875 51.824219 48.15625 51.285156 48.523438 51.105469 C 48.09375 51.105469 47.96875 51.464844 47.90625 51.761719 C 47.777344 52.363281 47.820312 52.984375 48.03125 53.558594 L 46.609375 53.261719 C 47.019531 52.820312 47.296875 52.28125 47.414062 51.703125 C 47.476562 51.40625 47.476562 51.046875 47.105469 50.867188 C 47.351562 51.105469 47.351562 51.703125 47.105469 51.941406 C 46.917969 52.300781 46.488281 52.363281 46.054688 52.300781 C 45.742188 52.246094 45.464844 52.066406 45.289062 51.804688 C 45.113281 51.546875 45.054688 51.226562 45.128906 50.925781 C 45.5625 48.949219 48.402344 48.109375 48.402344 48.109375 Z M 48.402344 48.109375 "/>
<path style=" stroke:none;fill-rule:nonzero;fill:rgb(86.666667%,86.666667%,86.666667%);fill-opacity:1;" d="M 43.183594 7.597656 C 43.183594 7.597656 45.925781 8.875 45.925781 10.929688 C 45.925781 11.570312 45.390625 12.089844 44.726562 12.089844 C 44.269531 12.089844 43.871094 11.921875 43.695312 11.539062 C 43.53125 11.257812 43.640625 10.648438 43.988281 10.425781 C 43.585938 10.539062 43.414062 10.929688 43.414062 11.203125 C 43.414062 11.867188 43.695312 12.585938 44.042969 13.144531 L 42.324219 13.144531 C 42.671875 12.585938 42.898438 11.867188 42.898438 11.203125 C 42.898438 10.929688 42.78125 10.539062 42.382812 10.425781 C 42.726562 10.648438 42.78125 11.261719 42.671875 11.539062 C 42.5 11.921875 42.097656 12.089844 41.640625 12.089844 C 40.953125 12.089844 40.496094 11.59375 40.496094 10.929688 C 40.496094 8.875 43.183594 7.597656 43.183594 7.597656 Z M 43.183594 7.597656 "/>
<path style=" stroke:none;fill-rule:nonzero;fill:rgb(66.666669%,67.450982%,69.01961%);fill-opacity:1;" d="M 71.25 31.347656 C 71.25 21.046875 70.015625 13.144531 70.015625 13.144531 L 70.015625 49.667969 L 71.25 49.667969 Z M 71.25 31.347656 "/>
<path style=" stroke:none;fill-rule:nonzero;fill:rgb(86.666667%,86.666667%,86.666667%);fill-opacity:1;" d="M 39.011719 41.304688 C 39.011719 41.304688 37.761719 42.273438 38.011719 43.363281 C 38.074219 43.671875 38.375 43.882812 38.699219 43.847656 C 38.949219 43.785156 39.136719 43.664062 39.199219 43.421875 C 39.199219 43.300781 39.136719 43 38.949219 42.878906 C 39.199219 42.878906 39.261719 43.121094 39.261719 43.242188 C 39.332031 43.5625 39.3125 43.898438 39.199219 44.210938 L 39.945312 44.027344 C 39.734375 43.804688 39.585938 43.535156 39.507812 43.242188 C 39.507812 43.058594 39.507812 42.878906 39.695312 42.757812 C 39.570312 42.9375 39.570312 43.242188 39.695312 43.363281 C 39.820312 43.542969 40.007812 43.605469 40.257812 43.542969 C 40.425781 43.515625 40.574219 43.421875 40.667969 43.285156 C 40.761719 43.148438 40.792969 42.980469 40.757812 42.816406 C 40.570312 41.789062 39.011719 41.304688 39.011719 41.304688 Z M 34.765625 41.367188 C 34.765625 41.367188 33.269531 41.910156 33.082031 42.9375 C 33.046875 43.101562 33.074219 43.269531 33.171875 43.40625 C 33.265625 43.542969 33.414062 43.636719 33.582031 43.664062 C 33.808594 43.722656 34.050781 43.652344 34.207031 43.484375 C 34.269531 43.300781 34.269531 43 34.144531 42.878906 C 34.332031 42.9375 34.332031 43.121094 34.332031 43.300781 C 34.265625 43.664062 34.144531 43.90625 33.894531 44.148438 L 34.703125 44.269531 C 34.582031 43.984375 34.539062 43.671875 34.578125 43.363281 C 34.578125 43.179688 34.640625 43 34.890625 43 C 34.703125 43.058594 34.578125 43.363281 34.640625 43.542969 C 34.703125 43.726562 34.890625 43.847656 35.140625 43.90625 C 35.308594 43.925781 35.472656 43.875 35.601562 43.773438 C 35.730469 43.671875 35.8125 43.523438 35.828125 43.363281 C 36.015625 42.332031 34.765625 41.367188 34.765625 41.367188 Z M 42.253906 39.914062 C 42.253906 39.914062 41.632812 41.246094 42.316406 42.03125 C 42.523438 42.296875 42.914062 42.351562 43.191406 42.152344 C 43.378906 41.972656 43.441406 41.789062 43.378906 41.609375 C 43.378906 41.425781 43.128906 41.246094 42.941406 41.246094 C 43.105469 41.246094 43.261719 41.3125 43.378906 41.425781 C 43.574219 41.652344 43.703125 41.921875 43.753906 42.210938 L 44.316406 41.789062 C 44.019531 41.675781 43.761719 41.488281 43.566406 41.246094 C 43.441406 41.125 43.378906 41.003906 43.503906 40.820312 C 43.503906 41.003906 43.628906 41.246094 43.753906 41.304688 C 43.941406 41.425781 44.191406 41.367188 44.378906 41.246094 C 44.613281 41.007812 44.613281 40.632812 44.378906 40.398438 C 43.753906 39.609375 42.253906 39.914062 42.253906 39.914062 Z M 42.253906 39.914062 "/>
<path style=" stroke:none;fill-rule:nonzero;fill:rgb(26.666668%,60.000002%,40.000001%);fill-opacity:1;" d="M 72.976562 67.988281 L 73.84375 66.375 L 76.4375 68.347656 L 74.832031 69.90625 Z M 72.976562 67.988281 "/>
<path style=" stroke:none;fill-rule:nonzero;fill:rgb(21.960784%,25.098041%,27.843139%);fill-opacity:1;" d="M 38.460938 114.453125 C 38.460938 114.453125 29.199219 124.035156 46.488281 123.675781 C 52.910156 123.554688 54.578125 120.921875 54.578125 120.921875 C 54.578125 120.921875 66.617188 122.355469 60.503906 115.171875 Z M 55.316406 91.761719 L 61.308594 89.605469 L 64.023438 74.636719 L 44.636719 66.851562 L 27.59375 76.792969 C 27.59375 76.792969 30.0625 84.277344 34.941406 88.347656 C 35.496094 88.828125 38.027344 89.367188 41.117188 89.84375 C 47.105469 90.863281 55.316406 91.761719 55.316406 91.761719 Z M 55.316406 91.761719 "/>
<path style=" stroke:none;fill-rule:nonzero;fill:rgb(33.333334%,46.666667%,53.333336%);fill-opacity:1;" d="M 49.203125 116.011719 C 49.203125 116.011719 51.796875 121.039062 59.207031 119.304688 C 62.355469 118.523438 59.394531 115.472656 59.394531 115.472656 Z M 49.203125 116.011719 "/>
<path style=" stroke:none;fill-rule:nonzero;fill:rgb(91.764706%,77.64706%,66.274512%);fill-opacity:1;" d="M 51.425781 115.832031 L 38.890625 113.796875 L 39.261719 110.441406 L 36.917969 104.453125 L 39.386719 104.035156 L 39.140625 102.117188 L 40.558594 101.519531 L 39.757812 100.144531 C 39.757812 100.144531 41.609375 99.542969 40.683594 98.585938 C 39.757812 97.6875 38.953125 95.953125 43.339844 95.710938 C 46.054688 95.59375 48.09375 94.035156 45.808594 90.324219 C 45.808594 90.621094 47.660156 87.867188 50.5625 87.6875 C 55.070312 87.449219 61.308594 89.664062 61.308594 89.664062 Z M 51.425781 115.832031 "/>
<path style=" stroke:none;fill-rule:nonzero;fill:rgb(78.431374%,66.274512%,47.058824%);fill-opacity:1;" d="M 40.621094 109.722656 C 40.621094 109.722656 40.003906 110.921875 41.175781 111.519531 C 41.734375 111.878906 41.792969 111.519531 42.96875 111.21875 C 44.015625 110.980469 46.179688 111.519531 46.425781 111.820312 C 46.671875 112.238281 46.054688 109.84375 42.410156 110.441406 C 40.1875 110.800781 40.621094 109.722656 40.621094 109.722656 Z M 40.621094 109.722656 "/>
<path style=" stroke:none;fill-rule:nonzero;fill:rgb(21.960784%,25.098041%,27.843139%);fill-opacity:1;" d="M 41.238281 109.125 C 41.238281 109.125 42.351562 109.246094 43.277344 109.183594 C 44.328125 109.066406 45.683594 109.066406 46.300781 108.347656 C 46.300781 108.347656 44.820312 108.824219 43.585938 108.527344 C 43.585938 108.527344 43.769531 107.328125 42.96875 107.207031 C 42.164062 107.089844 42.351562 108.527344 42.351562 108.527344 C 42.351562 108.527344 41.238281 108.527344 41.238281 109.125 Z M 41.238281 109.125 "/>
<path style=" stroke:none;fill-rule:nonzero;fill:rgb(92.941177%,86.666667%,69.803923%);fill-opacity:1;" d="M 49.019531 114.8125 C 49.019531 114.8125 47.167969 112.417969 47.90625 111.339844 C 50.378906 107.746094 49.574219 102.957031 48.523438 97.570312 C 48.523438 97.570312 44.574219 89.007812 64.890625 92.359375 C 64.890625 92.359375 60.257812 94.8125 61.308594 101.339844 C 61.925781 104.8125 61.308594 114.992188 58.28125 114.511719 Z M 49.019531 114.8125 "/>
<path style=" stroke:none;fill-rule:nonzero;fill:rgb(78.431374%,66.274512%,47.058824%);fill-opacity:1;" d="M 49.453125 114.394531 C 49.203125 113.316406 47.414062 113.195312 50.070312 109.246094 C 52.105469 106.25 50.253906 104.8125 49.574219 102.417969 C 47.722656 96.492188 48.835938 93.316406 54.515625 91.699219 C 54.515625 91.699219 45.3125 91.222656 48.03125 99.605469 C 50.75 107.988281 48.03125 108.105469 47.414062 110.203125 C 46.980469 111.578125 47.597656 113.316406 48.402344 114.394531 Z M 49.453125 114.394531 "/>
<path style=" stroke:none;fill-rule:nonzero;fill:rgb(46.666667%,46.666667%,80.000001%);fill-opacity:1;" d="M 76.128906 86.011719 C 69.039062 81.011719 63.417969 74.304688 59.824219 66.554688 L 76.375 68.347656 L 76.496094 84.15625 C 76.503906 84.792969 76.375 85.425781 76.128906 86.011719 Z M 76.128906 86.011719 "/>
<path style=" stroke:none;fill-rule:nonzero;fill:rgb(86.666667%,86.666667%,86.666667%);fill-opacity:1;" d="M 41.917969 90.441406 C 41.917969 90.441406 46.054688 76.253906 48.957031 71.164062 L 43.152344 65.476562 C 43.152344 65.476562 36.855469 82.777344 36.484375 89.246094 C 37.472656 90.324219 41.917969 90.441406 41.917969 90.441406 Z M 41.917969 90.441406 "/>
<path style=" stroke:none;fill-rule:nonzero;fill:rgb(93.333334%,80.000001%,26.666668%);fill-opacity:1;" d="M 68.160156 89.664062 C 60.382812 81.582031 51.613281 74.277344 45.375 65.054688 L 55.070312 66.074219 C 61.863281 70.683594 67.851562 79.246094 73.59375 88.347656 C 73.394531 88.421875 73.1875 88.480469 72.976562 88.527344 Z M 68.160156 89.664062 "/>
<path style=" stroke:none;fill-rule:nonzero;fill:rgb(21.960784%,25.098041%,27.843139%);fill-opacity:1;" d="M 73.65625 88.347656 L 55.132812 66.074219 L 59.886719 66.554688 L 76.128906 86.011719 C 75.6875 87.097656 74.789062 87.949219 73.65625 88.347656 Z M 73.65625 88.347656 "/>
<path style=" stroke:none;fill-rule:nonzero;fill:rgb(33.333334%,46.666667%,53.333336%);fill-opacity:1;" d="M 38.273438 114.511719 C 38.273438 114.511719 35.988281 116.910156 35.988281 119.78125 C 35.988281 119.78125 42.96875 119.0625 44.265625 115.652344 C 43.769531 115.472656 38.273438 114.511719 38.273438 114.511719 Z M 38.273438 114.511719 "/>
<path style=" stroke:none;fill-rule:nonzero;fill:rgb(46.666667%,46.666667%,80.000001%);fill-opacity:1;" d="M 38.230469 114.667969 L 38.730469 113.15625 C 46.59375 114.125 51.710938 114.546875 60.320312 113.761719 L 60.570312 115.214844 C 53.175781 116.628906 45.546875 116.445312 38.230469 114.667969 Z M 38.230469 114.667969 "/>
<path style=" stroke:none;fill-rule:nonzero;fill:rgb(33.333334%,46.666667%,53.333336%);fill-opacity:1;" d="M 46.71875 92.160156 L 42.722656 90.285156 C 42.722656 90.285156 43.535156 85.199219 52.394531 84.714844 C 59.886719 84.355469 65.5 90.222656 65.5 90.222656 L 60.820312 91.070312 C 60.820312 91.070312 57.511719 88.953125 52.210938 89.375 C 47.714844 89.679688 46.71875 92.160156 46.71875 92.160156 Z M 46.71875 92.160156 "/>
<path style=" stroke:none;fill-rule:nonzero;fill:rgb(21.960784%,25.098041%,27.843139%);fill-opacity:1;" d="M 64.640625 90.441406 L 41.425781 65.117188 L 45.5625 65.117188 L 68.160156 89.664062 Z M 64.640625 90.441406 "/>
<path style=" stroke:none;fill-rule:nonzero;fill:rgb(78.431374%,66.274512%,47.058824%);fill-opacity:1;" d="M 41.039062 99.238281 C 41.039062 99.238281 41.789062 98.148438 41.476562 98.148438 C 41.164062 98.148438 40.101562 97.425781 40.101562 96.636719 C 40.101562 96.636719 39.042969 98.027344 41.039062 99.238281 Z M 52.707031 114.125 C 52.707031 114.125 51.523438 112.066406 54.332031 108.011719 C 57.636719 103.171875 52.023438 100.390625 55.203125 95.789062 C 58.386719 91.191406 63.316406 92.28125 64.816406 92.339844 C 64.816406 92.339844 57.761719 91.492188 55.828125 96.03125 C 53.894531 100.570312 57.699219 104.441406 55.140625 108.496094 C 52.582031 112.550781 52.707031 113.460938 52.707031 114.125 Z M 52.707031 114.125 "/>
<path style=" stroke:none;fill-rule:nonzero;fill:rgb(91.764706%,77.64706%,66.274512%);fill-opacity:1;" d="M 19.566406 68.289062 L 26.355469 74.277344 L 18.945312 79.125 L 13.203125 73.320312 Z M 19.566406 68.289062 "/>
<path style=" stroke:none;fill-rule:nonzero;fill:rgb(33.333334%,46.666667%,53.333336%);fill-opacity:1;" d="M 45.191406 69.308594 L 28.890625 78.109375 C 23.761719 73.679688 19.785156 68.167969 17.09375 62.0625 L 40.992188 64.457031 "/>
<path style=" stroke:none;fill-rule:nonzero;fill:rgb(46.666667%,46.666667%,80.000001%);fill-opacity:1;" d="M 64.582031 90.441406 L 49.511719 74.398438 L 54.390625 75.59375 L 54.761719 79.964844 L 59.578125 81.28125 L 60.320312 85.773438 L 65.445312 87.570312 Z M 49.453125 74.277344 L 40.992188 64.457031 L 44.386719 64.9375 C 44.757812 63.320312 45.191406 63.5 45.625 65.054688 L 45.003906 68.886719 L 49.328125 70.085938 Z M 49.453125 74.277344 "/>
<g clip-path="url(#clip3)" clip-rule="nonzero">
<g clip-path="url(#clip4)" clip-rule="nonzero">
<path style=" stroke:none;fill-rule:nonzero;fill:rgb(21.960784%,25.098041%,27.843139%);fill-opacity:1;" d="M 24.003906 73.703125 L 23.628906 71.828125 C 23.628906 71.828125 24.066406 71.644531 23.878906 70.738281 C 23.863281 70.574219 23.847656 70.414062 23.816406 70.253906 L 24.25 70.253906 C 24.203125 70.414062 24.160156 70.574219 24.128906 70.738281 C 23.941406 71.644531 24.375 71.828125 24.375 71.828125 C 24.191406 71.644531 24.25 71.34375 24.375 71.164062 C 24.5 70.921875 24.75 70.800781 25 70.800781 C 25.449219 70.800781 25.8125 71.148438 25.8125 71.585938 C 25.8125 72.917969 24.003906 73.765625 24.003906 73.765625 Z M 28.121094 73.703125 C 28.121094 73.703125 26.3125 72.855469 26.3125 71.527344 C 26.3125 71.089844 26.671875 70.738281 27.121094 70.738281 C 27.789062 70.761719 28.101562 71.539062 27.746094 71.765625 C 27.988281 71.683594 28.144531 71.386719 27.933594 70.316406 L 28.371094 70.316406 C 28.300781 70.515625 27.972656 71.566406 28.496094 71.828125 C 28.195312 71.539062 28.5 70.800781 29.121094 70.800781 C 29.570312 70.800781 29.929688 71.148438 29.929688 71.585938 C 29.929688 72.917969 28.121094 73.765625 28.121094 73.765625 Z M 40.351562 73.703125 C 40.351562 73.703125 38.542969 72.855469 38.542969 71.527344 C 38.542969 71.089844 38.90625 70.738281 39.355469 70.738281 C 40.023438 70.761719 40.332031 71.539062 39.976562 71.765625 C 40.222656 71.683594 40.378906 71.386719 40.164062 70.316406 L 40.601562 70.316406 C 40.535156 70.515625 40.203125 71.566406 40.726562 71.828125 C 40.457031 71.566406 40.65625 70.800781 41.351562 70.800781 C 41.800781 70.800781 42.160156 71.148438 42.160156 71.585938 Z M 32.175781 73.703125 C 32.175781 73.703125 30.367188 72.855469 30.367188 71.527344 C 30.367188 71.089844 30.730469 70.738281 31.179688 70.738281 C 31.847656 70.761719 32.160156 71.539062 31.804688 71.765625 C 32.039062 71.683594 32.203125 71.386719 31.988281 70.316406 L 32.425781 70.316406 C 32.359375 70.515625 32.027344 71.566406 32.550781 71.828125 C 32.253906 71.539062 32.558594 70.800781 33.175781 70.800781 C 33.625 70.800781 33.988281 71.148438 33.988281 71.585938 C 33.988281 72.917969 32.175781 73.765625 32.175781 73.765625 Z M 36.234375 73.703125 C 36.234375 73.703125 34.425781 72.855469 34.425781 71.527344 C 34.425781 71.089844 34.785156 70.738281 35.234375 70.738281 C 35.902344 70.761719 36.214844 71.539062 35.859375 71.765625 C 36.097656 71.683594 36.257812 71.386719 36.046875 70.316406 L 36.484375 70.316406 C 36.414062 70.515625 36.082031 71.566406 36.609375 71.828125 C 36.308594 71.539062 36.613281 70.800781 37.230469 70.800781 C 37.679688 70.800781 38.042969 71.148438 38.042969 71.585938 C 38.042969 72.917969 36.234375 73.765625 36.234375 73.765625 Z M 34.363281 72.855469 C 34.363281 72.855469 36.171875 73.703125 36.171875 75.09375 L 34.734375 74.792969 C 34.734375 74.792969 34.300781 74.972656 34.484375 75.882812 L 34.238281 75.882812 C 34.425781 74.972656 33.988281 74.792969 33.988281 74.792969 C 34.3125 75.109375 33.90625 75.753906 33.363281 75.820312 C 32.914062 75.820312 32.550781 75.472656 32.550781 75.035156 C 32.550781 73.703125 34.363281 72.855469 34.363281 72.855469 Z M 30.242188 72.855469 C 30.242188 72.855469 32.050781 73.703125 32.050781 75.09375 C 32.019531 75.507812 31.664062 75.824219 31.242188 75.820312 C 30.609375 75.828125 30.242188 75.15625 30.617188 74.792969 C 30.617188 74.792969 30.179688 74.972656 30.367188 75.882812 L 30.429688 76.304688 L 29.992188 76.304688 L 30.117188 75.882812 C 30.304688 74.972656 29.867188 74.792969 29.867188 74.792969 C 30.191406 75.109375 29.789062 75.753906 29.246094 75.820312 C 28.796875 75.820312 28.433594 75.472656 28.433594 75.035156 C 28.433594 73.703125 30.242188 72.855469 30.242188 72.855469 Z M 26.1875 72.855469 C 26.1875 72.855469 27.996094 73.703125 27.996094 75.09375 C 27.964844 75.507812 27.609375 75.824219 27.183594 75.820312 L 24.375 75.035156 C 24.375 73.703125 26.1875 72.855469 26.1875 72.855469 Z M 24.003906 68.015625 C 24.003906 68.015625 22.191406 67.167969 22.191406 65.835938 C 22.191406 65.402344 22.554688 65.050781 23.003906 65.050781 C 23.566406 65.074219 24.015625 65.703125 23.628906 66.078125 C 23.628906 66.078125 24.066406 65.957031 23.878906 65.050781 C 23.863281 64.886719 23.847656 64.722656 23.816406 64.566406 L 24.25 64.566406 C 24.203125 64.722656 24.160156 64.886719 24.128906 65.050781 C 23.941406 65.957031 24.375 66.140625 24.375 66.140625 C 24.019531 65.679688 24.570312 65.050781 25 65.050781 C 25.449219 65.050781 25.8125 65.402344 25.8125 65.835938 C 25.8125 67.167969 24.003906 68.015625 24.003906 68.015625 Z M 28.121094 68.015625 C 28.121094 68.015625 26.3125 67.167969 26.3125 65.835938 C 26.3125 65.402344 26.671875 65.050781 27.121094 65.050781 C 27.683594 65.074219 28.132812 65.703125 27.746094 66.078125 C 27.746094 66.078125 28.183594 65.957031 27.996094 65.050781 C 27.984375 64.886719 27.964844 64.722656 27.933594 64.566406 L 28.371094 64.566406 C 28.320312 64.722656 28.277344 64.886719 28.246094 65.050781 C 28.058594 65.957031 28.496094 66.140625 28.496094 66.140625 C 28.140625 65.679688 28.6875 65.050781 29.121094 65.050781 C 29.570312 65.050781 29.929688 65.402344 29.929688 65.835938 C 29.929688 67.167969 28.121094 68.015625 28.121094 68.015625 Z M 19.882812 68.015625 L 19.507812 66.078125 C 19.507812 66.078125 19.945312 65.957031 19.757812 65.050781 C 19.746094 64.886719 19.726562 64.722656 19.695312 64.566406 L 20.132812 64.566406 C 20.082031 64.722656 20.039062 64.886719 20.007812 65.050781 C 19.820312 65.957031 20.257812 66.078125 20.257812 66.078125 C 20.070312 65.898438 20.132812 65.65625 20.257812 65.472656 C 20.382812 65.230469 20.632812 65.050781 20.882812 65.050781 C 21.332031 65.050781 21.695312 65.402344 21.695312 65.835938 C 21.695312 67.167969 19.882812 68.015625 19.882812 68.015625 Z M 40.351562 68.015625 C 40.351562 68.015625 38.542969 67.167969 38.542969 65.835938 C 38.542969 65.402344 38.90625 65.050781 39.355469 65.050781 C 39.914062 65.074219 40.363281 65.703125 39.976562 66.078125 C 39.976562 66.078125 40.414062 65.957031 40.226562 65.050781 C 40.214844 64.886719 40.195312 64.722656 40.164062 64.566406 L 40.601562 64.566406 C 40.550781 64.722656 40.507812 64.886719 40.476562 65.050781 C 40.289062 65.957031 40.726562 66.140625 40.726562 66.140625 C 40.394531 65.714844 40.84375 65.050781 41.351562 65.050781 C 41.800781 65.050781 42.160156 65.402344 42.160156 65.835938 C 42.160156 67.167969 40.351562 68.015625 40.351562 68.015625 Z M 32.175781 68.015625 C 32.175781 68.015625 30.367188 67.167969 30.367188 65.835938 C 30.367188 65.402344 30.730469 65.050781 31.179688 65.050781 C 31.742188 65.074219 32.191406 65.703125 31.804688 66.078125 C 31.804688 66.078125 32.238281 65.957031 32.050781 65.050781 C 32.039062 64.886719 32.019531 64.722656 31.988281 64.566406 L 32.425781 64.566406 C 32.378906 64.722656 32.332031 64.886719 32.300781 65.050781 C 32.113281 65.957031 32.550781 66.140625 32.550781 66.140625 C 32.195312 65.679688 32.746094 65.050781 33.175781 65.050781 C 33.625 65.050781 33.988281 65.402344 33.988281 65.835938 C 33.988281 67.167969 32.175781 68.015625 32.175781 68.015625 Z M 36.234375 68.015625 C 36.234375 68.015625 34.425781 67.167969 34.425781 65.835938 C 34.425781 65.402344 34.785156 65.050781 35.234375 65.050781 C 35.796875 65.074219 36.246094 65.703125 35.859375 66.078125 C 35.859375 66.078125 36.296875 65.957031 36.109375 65.050781 C 36.097656 64.886719 36.078125 64.722656 36.046875 64.566406 L 36.484375 64.566406 C 36.433594 64.722656 36.390625 64.886719 36.359375 65.050781 C 36.171875 65.957031 36.609375 66.140625 36.609375 66.140625 C 36.253906 65.679688 36.800781 65.050781 37.230469 65.050781 C 37.679688 65.050781 38.042969 65.402344 38.042969 65.835938 C 38.042969 67.167969 36.234375 68.015625 36.234375 68.015625 Z M 34.363281 67.167969 C 34.363281 67.167969 36.171875 68.015625 36.171875 69.347656 C 36.171875 69.78125 35.808594 70.132812 35.359375 70.132812 C 34.679688 70.132812 34.378906 69.449219 34.734375 69.105469 C 34.734375 69.105469 34.300781 69.226562 34.484375 70.132812 L 34.546875 70.617188 L 34.113281 70.617188 L 34.238281 70.132812 C 34.425781 69.226562 33.988281 69.105469 33.988281 69.105469 C 34.515625 70.03125 32.765625 70.585938 32.550781 69.347656 C 32.550781 68.015625 34.363281 67.167969 34.363281 67.167969 Z M 30.242188 67.167969 C 30.242188 67.167969 32.050781 68.015625 32.050781 69.347656 C 32.050781 69.78125 31.691406 70.132812 31.242188 70.132812 C 30.617188 70.140625 30.242188 69.46875 30.617188 69.105469 C 30.617188 69.105469 30.179688 69.226562 30.367188 70.132812 L 30.429688 70.617188 L 29.992188 70.617188 L 30.117188 70.132812 C 30.304688 69.226562 29.867188 69.105469 29.867188 69.105469 C 30.1875 69.414062 29.789062 70.066406 29.246094 70.132812 C 28.796875 70.132812 28.433594 69.78125 28.433594 69.347656 C 28.433594 68.015625 30.242188 67.167969 30.242188 67.167969 Z M 42.597656 67.167969 C 42.597656 67.167969 44.410156 68.015625 44.410156 69.347656 C 44.410156 69.78125 44.046875 70.132812 43.597656 70.132812 C 42.972656 70.140625 42.597656 69.46875 42.972656 69.105469 C 42.972656 69.105469 42.535156 69.226562 42.722656 70.132812 L 42.785156 70.617188 L 42.347656 70.617188 L 42.472656 70.132812 C 42.660156 69.226562 42.222656 69.105469 42.222656 69.105469 C 42.542969 69.414062 42.144531 70.066406 41.601562 70.132812 C 41.152344 70.132812 40.789062 69.78125 40.789062 69.347656 C 40.789062 68.015625 42.597656 67.167969 42.597656 67.167969 Z M 38.480469 67.167969 C 38.480469 67.167969 40.289062 68.015625 40.289062 69.347656 C 40.289062 69.78125 39.929688 70.132812 39.480469 70.132812 C 38.796875 70.132812 38.5 69.449219 38.855469 69.105469 C 38.855469 69.105469 38.417969 69.226562 38.605469 70.132812 L 38.667969 70.617188 L 38.230469 70.617188 L 38.355469 70.132812 C 38.542969 69.226562 38.105469 69.105469 38.105469 69.105469 C 38.425781 69.414062 38.023438 70.066406 37.480469 70.132812 C 37.03125 70.132812 36.671875 69.78125 36.671875 69.347656 C 36.671875 68.015625 38.480469 67.167969 38.480469 67.167969 Z M 26.1875 67.167969 C 26.1875 67.167969 27.996094 68.015625 27.996094 69.347656 C 27.996094 69.78125 27.632812 70.132812 27.183594 70.132812 C 26.5625 70.140625 26.1875 69.46875 26.5625 69.105469 C 26.5625 69.105469 26.125 69.226562 26.3125 70.132812 L 26.375 70.617188 L 25.9375 70.617188 L 26.0625 70.132812 C 26.25 69.226562 25.8125 69.105469 25.8125 69.105469 C 26.128906 69.414062 25.730469 70.066406 25.1875 70.132812 C 24.738281 70.132812 24.375 69.78125 24.375 69.347656 C 24.375 68.015625 26.1875 67.167969 26.1875 67.167969 Z M 22.066406 67.167969 C 22.066406 67.167969 23.878906 68.015625 23.878906 69.347656 C 23.878906 69.78125 23.515625 70.132812 23.066406 70.132812 L 20.257812 69.347656 C 20.257812 68.015625 22.066406 67.167969 22.066406 67.167969 Z M 36.171875 63.660156 C 36.171875 64.09375 35.808594 64.445312 35.359375 64.445312 C 35.046875 64.445312 34.796875 64.265625 34.671875 64.023438 C 34.609375 63.839844 34.546875 63.597656 34.734375 63.417969 C 34.734375 63.417969 34.300781 63.539062 34.484375 64.445312 C 34.484375 64.566406 34.484375 64.75 34.609375 64.929688 L 34.113281 64.929688 L 34.238281 64.445312 C 34.425781 63.539062 33.988281 63.355469 33.988281 63.355469 C 34.175781 63.539062 34.113281 63.839844 34.050781 64.023438 C 33.613281 64.695312 32.546875 64.390625 32.550781 63.597656 Z M 30.242188 61.421875 C 30.242188 61.421875 32.050781 62.328125 32.050781 63.660156 C 32.050781 64.09375 31.691406 64.445312 31.242188 64.445312 C 30.679688 64.421875 30.230469 63.792969 30.617188 63.417969 C 30.617188 63.417969 30.179688 63.539062 30.367188 64.445312 L 30.429688 64.929688 L 29.992188 64.929688 L 30.117188 64.445312 C 30.304688 63.539062 29.867188 63.355469 29.867188 63.355469 C 30.207031 63.785156 29.761719 64.347656 29.246094 64.386719 C 28.796875 64.386719 28.433594 64.035156 28.433594 63.597656 C 28.433594 62.265625 30.242188 61.421875 30.242188 61.421875 Z M 38.605469 64.445312 C 38.605469 64.566406 38.605469 64.75 38.730469 64.929688 L 38.230469 64.929688 L 38.355469 64.445312 C 38.542969 63.539062 38.105469 63.355469 38.105469 63.355469 C 38.292969 63.597656 38.292969 63.839844 38.167969 64.023438 C 38.035156 64.269531 37.773438 64.433594 37.480469 64.445312 C 37.03125 64.445312 36.671875 64.09375 36.671875 63.660156 C 37.292969 63.296875 38.542969 63.78125 38.605469 64.445312 Z M 17.949219 61.421875 C 17.949219 61.421875 19.757812 62.328125 19.757812 63.660156 C 19.757812 64.09375 19.398438 64.445312 18.949219 64.445312 L 16.140625 63.597656 C 16.140625 61.785156 17.949219 61.421875 17.949219 61.421875 Z M 26.1875 61.421875 C 26.1875 61.421875 27.996094 62.328125 27.996094 63.660156 C 27.996094 64.09375 27.632812 64.445312 27.183594 64.445312 C 26.625 64.421875 26.175781 63.792969 26.5625 63.417969 C 26.5625 63.417969 26.125 63.539062 26.3125 64.445312 L 26.375 64.929688 L 25.9375 64.929688 L 26.0625 64.445312 C 26.25 63.539062 25.8125 63.355469 25.8125 63.355469 C 26.148438 63.785156 25.707031 64.347656 25.1875 64.386719 C 24.738281 64.386719 24.375 64.035156 24.375 63.597656 C 24.375 62.265625 26.1875 61.421875 26.1875 61.421875 Z M 22.066406 61.421875 C 22.066406 61.421875 23.878906 62.328125 23.878906 63.660156 C 23.878906 64.09375 23.515625 64.445312 23.066406 64.445312 C 22.4375 64.445312 22.082031 63.769531 22.441406 63.417969 C 22.441406 63.417969 22.003906 63.539062 22.191406 64.445312 L 22.253906 64.929688 L 21.816406 64.929688 L 21.941406 64.445312 C 22.128906 63.539062 21.695312 63.355469 21.695312 63.355469 C 22.03125 63.785156 21.585938 64.347656 21.070312 64.386719 C 20.621094 64.386719 20.257812 64.035156 20.257812 63.597656 C 20.257812 62.265625 22.066406 61.421875 22.066406 61.421875 Z M 22.066406 61.421875 "/>
</g>
</g>
<path style=" stroke:none;fill-rule:nonzero;fill:rgb(26.666668%,60.000002%,40.000001%);fill-opacity:1;" d="M 26.605469 79.367188 L 28.890625 78.109375 L 16.972656 62.003906 L 13.574219 61.644531 Z M 26.605469 79.367188 "/>
<path style=" stroke:none;fill-rule:nonzero;fill:rgb(21.960784%,25.098041%,27.843139%);fill-opacity:1;" d="M 54.230469 69.183594 C 54.230469 69.183594 52.179688 69.703125 51.285156 68.628906 C 51.0625 68.351562 51.054688 67.964844 51.269531 67.679688 C 51.480469 67.398438 51.863281 67.28125 52.203125 67.402344 C 52.390625 67.398438 52.582031 67.636719 52.585938 67.941406 C 52.585938 67.941406 52.828125 67.511719 52.070312 66.921875 L 51.628906 66.625 L 51.996094 66.316406 L 52.253906 66.738281 C 52.707031 67.574219 53.203125 67.386719 53.203125 67.386719 C 52.890625 67.390625 52.761719 67.152344 52.695312 66.972656 C 52.59375 66.609375 52.769531 66.226562 53.113281 66.058594 C 53.460938 65.894531 53.878906 65.984375 54.117188 66.28125 C 55.074219 67.355469 54.230469 69.183594 54.230469 69.183594 Z M 56.714844 71.988281 C 56.714844 71.988281 54.664062 72.445312 53.769531 71.429688 C 53.464844 71.167969 53.40625 70.722656 53.640625 70.394531 C 53.871094 70.070312 54.320312 69.960938 54.683594 70.144531 C 54.871094 70.203125 55.125 70.378906 55.070312 70.742188 C 55.070312 70.742188 55.308594 70.253906 54.550781 69.664062 L 54.109375 69.367188 L 54.476562 69.058594 L 54.734375 69.539062 C 55.1875 70.316406 55.683594 70.1875 55.683594 70.1875 C 55.371094 70.195312 55.242188 69.894531 55.175781 69.710938 C 55.117188 69.363281 55.308594 69.019531 55.640625 68.871094 C 55.972656 68.722656 56.367188 68.8125 56.597656 69.082031 C 57.554688 70.097656 56.714844 71.988281 56.714844 71.988281 Z M 59.136719 74.730469 C 59.136719 74.730469 57.085938 75.246094 56.191406 74.171875 C 55.96875 73.898438 55.960938 73.511719 56.175781 73.226562 C 56.386719 72.941406 56.769531 72.828125 57.109375 72.949219 C 57.296875 72.945312 57.550781 73.183594 57.492188 73.484375 C 57.492188 73.484375 57.734375 73.058594 56.976562 72.464844 C 56.832031 72.363281 56.683594 72.261719 56.53125 72.171875 L 56.902344 71.863281 C 56.980469 72.003906 57.066406 72.144531 57.160156 72.28125 C 57.609375 73.121094 58.105469 72.929688 58.105469 72.929688 C 57.792969 72.9375 57.664062 72.695312 57.601562 72.515625 C 57.5 72.152344 57.675781 71.773438 58.019531 71.605469 C 58.367188 71.4375 58.785156 71.53125 59.023438 71.828125 C 59.980469 72.898438 59.136719 74.730469 59.136719 74.730469 Z M 61.558594 77.53125 C 61.558594 77.53125 59.507812 77.992188 58.613281 76.976562 C 58.308594 76.714844 58.25 76.269531 58.484375 75.941406 C 58.714844 75.613281 59.164062 75.507812 59.527344 75.691406 C 59.714844 75.75 59.90625 75.925781 59.910156 76.289062 C 59.910156 76.289062 60.152344 75.800781 59.394531 75.207031 C 59.25 75.105469 59.101562 75.003906 58.949219 74.914062 L 59.320312 74.605469 L 59.578125 75.085938 C 60.027344 75.863281 60.527344 75.734375 60.527344 75.734375 C 60.214844 75.738281 60.085938 75.4375 60.019531 75.257812 C 59.960938 74.910156 60.148438 74.5625 60.484375 74.417969 C 60.816406 74.269531 61.207031 74.355469 61.441406 74.628906 C 62.398438 75.640625 61.558594 77.53125 61.558594 77.53125 Z M 63.976562 80.273438 C 63.976562 80.273438 61.929688 80.792969 61.035156 79.71875 C 60.8125 79.445312 60.804688 79.058594 61.019531 78.773438 C 61.230469 78.488281 61.609375 78.375 61.953125 78.492188 C 62.136719 78.492188 62.394531 78.730469 62.335938 79.03125 C 62.335938 79.03125 62.578125 78.605469 61.816406 78.011719 C 61.675781 77.90625 61.527344 77.808594 61.375 77.71875 L 61.746094 77.410156 L 62 77.828125 C 62.453125 78.667969 62.949219 78.476562 62.949219 78.476562 C 62.636719 78.484375 62.507812 78.242188 62.441406 78.0625 C 62.339844 77.699219 62.515625 77.320312 62.863281 77.152344 C 63.207031 76.984375 63.628906 77.078125 63.867188 77.371094 C 64.820312 78.445312 63.980469 80.273438 63.980469 80.273438 Z M 66.398438 83.078125 C 66.398438 83.078125 64.351562 83.597656 63.457031 82.523438 C 63.148438 82.257812 63.09375 81.816406 63.328125 81.488281 C 63.558594 81.160156 64.007812 81.054688 64.371094 81.238281 C 64.558594 81.292969 64.8125 81.472656 64.753906 81.835938 C 64.753906 81.835938 64.996094 81.347656 64.238281 80.753906 C 64.09375 80.648438 63.945312 80.550781 63.792969 80.460938 L 64.164062 80.152344 L 64.421875 80.632812 C 64.871094 81.410156 65.371094 81.28125 65.371094 81.28125 C 65.058594 81.285156 64.929688 81.046875 64.863281 80.804688 C 64.800781 80.453125 64.992188 80.109375 65.324219 79.964844 C 65.660156 79.816406 66.050781 79.902344 66.285156 80.175781 C 67.238281 81.1875 66.398438 83.078125 66.398438 83.078125 Z M 68.824219 85.882812 C 68.824219 85.882812 66.769531 86.339844 65.878906 85.328125 C 65.496094 85.082031 65.386719 84.582031 65.640625 84.210938 C 65.890625 83.839844 66.40625 83.734375 66.789062 83.980469 C 66.980469 84.097656 67.234375 84.273438 67.175781 84.578125 C 67.175781 84.578125 67.417969 84.152344 66.660156 83.558594 C 66.515625 83.453125 66.367188 83.355469 66.214844 83.261719 L 66.585938 82.953125 L 66.84375 83.375 C 67.292969 84.214844 67.789062 84.023438 67.789062 84.023438 C 67.476562 84.027344 67.347656 83.789062 67.285156 83.609375 C 67.183594 83.246094 67.359375 82.867188 67.703125 82.699219 C 68.050781 82.53125 68.46875 82.621094 68.707031 82.917969 C 69.660156 83.992188 68.820312 85.820312 68.820312 85.820312 Z M 71.304688 88.625 C 71.304688 88.625 69.253906 89.082031 68.363281 88.066406 C 68.054688 87.804688 68 87.359375 68.230469 87.035156 C 68.464844 86.707031 68.910156 86.597656 69.273438 86.78125 C 69.464844 86.839844 69.714844 87.015625 69.660156 87.378906 C 69.660156 87.378906 69.902344 86.890625 69.140625 86.300781 L 68.699219 86.003906 L 69.070312 85.695312 L 69.324219 86.117188 C 69.777344 86.953125 70.273438 86.824219 70.273438 86.824219 C 69.960938 86.832031 69.832031 86.53125 69.765625 86.351562 C 69.707031 86 69.898438 85.65625 70.230469 85.507812 C 70.5625 85.359375 70.957031 85.449219 71.191406 85.722656 C 72.144531 86.734375 71.304688 88.625 71.304688 88.625 Z M 71.304688 88.625 "/>
<path style=" stroke:none;fill-rule:nonzero;fill:rgb(66.666669%,67.450982%,69.01961%);fill-opacity:1;" d="M 19.75 82.242188 C 15.613281 82.242188 12.277344 78.945312 12.277344 74.933594 C 12.296875 73.019531 13.09375 71.191406 14.5 69.847656 L 19.132812 74.335938 C 19.441406 74.636719 19.75 74.933594 20.367188 74.933594 L 27.222656 74.933594 C 27.222656 78.945312 23.886719 82.242188 19.75 82.242188 Z M 19.75 82.242188 "/>
<path style=" stroke:none;fill-rule:nonzero;fill:rgb(77.254903%,78.039217%,78.823531%);fill-opacity:1;" d="M 20.984375 123.496094 L 20.984375 80.203125 C 20.984375 80.203125 19.933594 80.503906 19.441406 80.503906 C 18.945312 80.503906 17.898438 80.203125 17.898438 80.203125 L 17.898438 98.109375 C 17.898438 122.296875 20.984375 123.496094 20.984375 123.496094 Z M 20.984375 123.496094 "/>
<path style=" stroke:none;fill-rule:nonzero;fill:rgb(21.960784%,25.098041%,27.843139%);fill-opacity:1;" d="M 41.609375 81.882812 C 41.609375 81.882812 39.261719 80.085938 39.695312 78.050781 C 39.820312 77.441406 40.425781 77.042969 41.054688 77.152344 C 41.484375 77.210938 41.855469 77.511719 41.917969 77.871094 C 42.042969 78.167969 41.855469 78.707031 41.484375 78.886719 C 41.917969 78.886719 42.042969 78.527344 42.101562 78.230469 C 42.234375 77.628906 42.191406 77.007812 41.980469 76.433594 L 43.398438 76.730469 C 42.992188 77.171875 42.714844 77.710938 42.597656 78.289062 C 42.535156 78.589844 42.535156 78.945312 42.90625 79.125 C 42.660156 78.886719 42.660156 78.289062 42.90625 78.050781 C 43.089844 77.691406 43.523438 77.628906 43.957031 77.691406 C 44.269531 77.746094 44.546875 77.925781 44.722656 78.1875 C 44.898438 78.445312 44.953125 78.765625 44.882812 79.066406 C 44.449219 81.042969 41.609375 81.882812 41.609375 81.882812 Z M 41.609375 81.882812 "/>
<path style=" stroke:none;fill-rule:nonzero;fill:rgb(86.666667%,86.666667%,86.666667%);fill-opacity:1;" d="M 46.828125 122.394531 C 46.828125 122.394531 44.085938 121.117188 44.085938 119.0625 C 44.085938 118.421875 44.621094 117.902344 45.285156 117.902344 C 45.742188 117.902344 46.140625 118.070312 46.316406 118.453125 C 46.480469 118.734375 46.371094 119.34375 46.023438 119.566406 C 46.425781 119.453125 46.597656 119.0625 46.597656 118.789062 C 46.597656 118.125 46.316406 117.40625 45.96875 116.847656 L 47.683594 116.847656 C 47.339844 117.40625 47.109375 118.125 47.109375 118.789062 C 47.109375 119.0625 47.230469 119.453125 47.628906 119.566406 C 47.285156 119.34375 47.230469 118.730469 47.339844 118.453125 C 47.511719 118.070312 47.914062 117.902344 48.371094 117.902344 C 49.054688 117.902344 49.511719 118.398438 49.511719 119.0625 C 49.511719 121.117188 46.828125 122.394531 46.828125 122.394531 Z M 46.828125 122.394531 "/>
<path style=" stroke:none;fill-rule:nonzero;fill:rgb(66.666669%,67.450982%,69.01961%);fill-opacity:1;" d="M 18.761719 98.644531 C 18.761719 108.945312 19.996094 116.847656 19.996094 116.847656 L 19.996094 80.324219 L 18.761719 80.324219 Z M 18.761719 98.644531 "/>
<path style=" stroke:none;fill-rule:nonzero;fill:rgb(86.666667%,86.666667%,86.666667%);fill-opacity:1;" d="M 51 88.6875 C 51 88.6875 52.25 87.71875 52 86.628906 C 51.9375 86.320312 51.636719 86.109375 51.3125 86.144531 C 51.0625 86.207031 50.875 86.328125 50.8125 86.570312 C 50.8125 86.691406 50.875 86.992188 51.0625 87.113281 C 50.8125 87.113281 50.75 86.871094 50.75 86.75 C 50.675781 86.429688 50.699219 86.09375 50.8125 85.78125 L 50.066406 85.964844 C 50.277344 86.1875 50.425781 86.457031 50.5 86.75 C 50.5 86.933594 50.5 87.113281 50.3125 87.234375 C 50.4375 87.054688 50.4375 86.75 50.3125 86.628906 C 50.1875 86.449219 50.003906 86.386719 49.753906 86.449219 C 49.585938 86.476562 49.4375 86.570312 49.34375 86.707031 C 49.25 86.84375 49.214844 87.011719 49.253906 87.175781 C 49.441406 88.203125 51 88.6875 51 88.6875 Z M 55.242188 88.625 C 55.242188 88.625 56.742188 88.082031 56.929688 87.054688 C 56.964844 86.890625 56.933594 86.722656 56.839844 86.585938 C 56.746094 86.449219 56.597656 86.355469 56.429688 86.328125 C 56.203125 86.269531 55.960938 86.339844 55.804688 86.507812 C 55.742188 86.691406 55.742188 86.992188 55.867188 87.113281 C 55.679688 87.054688 55.679688 86.871094 55.679688 86.691406 C 55.742188 86.328125 55.867188 86.085938 56.117188 85.84375 L 55.304688 85.722656 C 55.425781 86.007812 55.46875 86.320312 55.429688 86.628906 C 55.429688 86.8125 55.367188 86.992188 55.121094 86.992188 C 55.304688 86.933594 55.429688 86.628906 55.367188 86.449219 C 55.304688 86.265625 55.121094 86.144531 54.871094 86.085938 C 54.703125 86.066406 54.539062 86.117188 54.410156 86.21875 C 54.28125 86.320312 54.199219 86.46875 54.183594 86.628906 C 53.996094 87.660156 55.246094 88.625 55.246094 88.625 Z M 47.753906 90.078125 C 47.753906 90.078125 48.378906 88.746094 47.691406 87.960938 C 47.484375 87.695312 47.09375 87.640625 46.820312 87.839844 C 46.632812 88.019531 46.570312 88.203125 46.632812 88.382812 C 46.632812 88.566406 46.882812 88.746094 47.070312 88.746094 C 46.90625 88.746094 46.746094 88.679688 46.632812 88.566406 C 46.4375 88.339844 46.308594 88.070312 46.257812 87.78125 L 45.695312 88.203125 C 45.992188 88.316406 46.25 88.503906 46.445312 88.746094 C 46.570312 88.867188 46.632812 88.988281 46.507812 89.171875 C 46.507812 88.988281 46.382812 88.746094 46.257812 88.6875 C 46.070312 88.566406 45.820312 88.625 45.632812 88.746094 C 45.394531 88.984375 45.394531 89.359375 45.632812 89.59375 C 46.257812 90.382812 47.753906 90.078125 47.753906 90.078125 Z M 47.753906 90.078125 "/>
<path style=" stroke:none;fill-rule:nonzero;fill:rgb(21.960784%,25.098041%,27.843139%);fill-opacity:1;" d="M 7.949219 21.355469 C 7.949219 21.355469 3.597656 23.679688 3.597656 26.648438 C 3.597656 27.761719 4.46875 28.585938 5.527344 28.585938 C 6.261719 28.585938 6.886719 28.277344 7.160156 27.65625 C 7.402344 27.167969 7.269531 26.261719 6.722656 25.851562 C 7.402344 26.054688 7.539062 26.703125 7.539062 27.21875 C 7.539062 28.378906 7.160156 29.542969 6.507812 30.394531 L 9.390625 30.394531 C 8.707031 29.460938 8.34375 28.351562 8.355469 27.21875 C 8.355469 26.703125 8.492188 26.054688 9.171875 25.851562 C 8.628906 26.238281 8.492188 27.167969 8.734375 27.65625 C 9.007812 28.277344 9.632812 28.585938 10.367188 28.585938 C 11.453125 28.585938 12.296875 27.761719 12.296875 26.648438 C 12.296875 23.679688 7.949219 21.355469 7.949219 21.355469 Z M 7.949219 21.355469 "/>
<path style=" stroke:none;fill-rule:nonzero;fill:rgb(100%,100%,100%);fill-opacity:1;" d="M 86.277344 125.90625 L 77.710938 125.90625 L 77.710938 95.816406 L 86.277344 95.816406 Z M 86.277344 125.90625 "/>
<path style=" stroke:none;fill-rule:nonzero;fill:rgb(21.960784%,25.098041%,27.843139%);fill-opacity:1;" d="M 82.050781 108.644531 C 82.050781 108.644531 86.402344 106.320312 86.402344 103.351562 C 86.402344 102.238281 85.53125 101.414062 84.472656 101.414062 C 83.738281 101.414062 83.113281 101.722656 82.839844 102.34375 C 82.597656 102.832031 82.730469 103.738281 83.273438 104.148438 C 82.597656 103.945312 82.460938 103.296875 82.460938 102.78125 C 82.460938 101.621094 82.839844 100.457031 83.492188 99.605469 L 80.609375 99.605469 C 81.292969 100.539062 81.65625 101.648438 81.644531 102.78125 C 81.644531 103.296875 81.507812 103.945312 80.828125 104.148438 C 81.371094 103.761719 81.507812 102.832031 81.261719 102.34375 C 80.992188 101.722656 80.367188 101.414062 79.632812 101.414062 C 78.546875 101.414062 77.703125 102.238281 77.703125 103.351562 C 77.703125 106.320312 82.050781 108.644531 82.050781 108.644531 Z M 82.050781 108.644531 "/>
<path style="fill-rule:nonzero;fill:rgb(21.960784%,25.098041%,27.843139%);fill-opacity:1;stroke-width:0.5;stroke-linecap:butt;stroke-linejoin:round;stroke:rgb(21.960784%,25.098041%,27.843139%);stroke-opacity:1;stroke-miterlimit:4;" d="M 1462.00163 -90.699256 L 1462.00163 -91.802621 L 1468.597117 -91.802621 L 1468.597117 -90.699256 C 1467.539825 -90.712236 1466.998593 -90.381227 1466.998593 -89.401179 L 1466.998593 -76.102379 C 1466.998593 -72.961033 1466.041995 -69.001898 1461.202368 -69.001898 C 1458.33887 -69.001898 1456.350154 -71.091802 1456.400501 -73.402379 C 1456.400501 -75.180745 1457.558488 -76.082908 1458.697594 -76.102379 C 1460.107316 -76.128341 1461.000979 -74.752379 1461.000979 -73.700937 C 1461.000979 -73.201177 1460.79959 -72.701418 1460.598201 -72.500216 C 1460.119903 -71.799254 1459.477976 -71.701898 1458.697594 -71.598052 C 1459.119252 -70.669927 1459.937394 -70.37786 1460.900285 -70.202619 C 1463.549808 -70.202619 1463.700849 -73.772331 1463.700849 -74.6031 L 1463.700849 -89.401179 C 1463.700849 -90.498054 1462.901587 -90.699256 1462.00163 -90.699256 Z M 1462.00163 -90.699256 " transform="matrix(0.62069,0,0,0.601852,-899.999997,60.185167)"/>
<path style="fill-rule:nonzero;fill:rgb(21.960784%,25.098041%,27.843139%);fill-opacity:1;stroke-width:0.5;stroke-linecap:butt;stroke-linejoin:round;stroke:rgb(21.960784%,25.098041%,27.843139%);stroke-opacity:1;stroke-miterlimit:4;" d="M 1462.001398 -90.699318 L 1462.001398 -91.802683 L 1468.596885 -91.802683 L 1468.596885 -90.699318 C 1467.539593 -90.712299 1466.99836 -90.381289 1466.99836 -89.401241 L 1466.99836 -76.102442 C 1466.99836 -72.961095 1466.041763 -69.00196 1461.202136 -69.00196 C 1458.338638 -69.00196 1456.349922 -71.091864 1456.400269 -73.402441 C 1456.400269 -75.180807 1457.558256 -76.08297 1458.697362 -76.102442 C 1460.107084 -76.128403 1461.000747 -74.752441 1461.000747 -73.700999 C 1461.000747 -73.201239 1460.799358 -72.70148 1460.597969 -72.500278 C 1460.119671 -71.799316 1459.477744 -71.70196 1458.697362 -71.598114 C 1459.11902 -70.669989 1459.937162 -70.377922 1460.900053 -70.202682 C 1463.549575 -70.202682 1463.700617 -73.772393 1463.700617 -74.603163 L 1463.700617 -89.401241 C 1463.700617 -90.498116 1462.901355 -90.699318 1462.001398 -90.699318 Z M 1462.001398 -90.699318 " transform="matrix(-0.62069,0.000000000000000074,-0.000000000000000076,-0.601852,989.999853,69.814796)"/>
</g>
</svg>
