<?xml version="1.0" encoding="UTF-8"?>
<svg xmlns="http://www.w3.org/2000/svg" xmlns:xlink="http://www.w3.org/1999/xlink" width="90px" height="130px" viewBox="0 0 90 130" version="1.1">
<g id="surface1">
<path style="fill-rule:nonzero;fill:rgb(100%,100%,100%);fill-opacity:1;stroke-width:3;stroke-linecap:butt;stroke-linejoin:miter;stroke:rgb(21.960784%,25.098041%,27.843139%);stroke-opacity:1;stroke-miterlimit:4;" d="M 9.503057 1.499301 L 135.496991 1.499301 C 139.921254 1.499301 143.5022 5.081994 143.5022 9.501946 L 143.5022 206.498116 C 143.5022 210.918068 139.921254 214.500761 135.496991 214.500761 L 9.503057 214.500761 C 5.078795 214.500761 1.497849 210.918068 1.497849 206.498116 L 1.497849 9.501946 C 1.497849 5.081994 5.078795 1.499301 9.503057 1.499301 Z M 9.503057 1.499301 " transform="matrix(0.62069,0,0,0.601852,-0.0000114995,-0.0000135584)"/>
<path style=" stroke:none;fill-rule:nonzero;fill:rgb(21.960784%,25.098041%,27.843139%);fill-opacity:1;" d="M 27 9.207031 C 27 9.207031 17.070312 14.625 17.070312 21.546875 C 17.070312 24.132812 19.054688 26.058594 21.476562 26.058594 C 23.152344 26.058594 24.578125 25.339844 25.199219 23.894531 C 25.757812 22.75 25.449219 20.644531 24.207031 19.679688 C 25.757812 20.160156 26.070312 21.667969 26.070312 22.871094 C 26.070312 25.578125 25.199219 28.285156 23.710938 30.273438 L 30.289062 30.273438 C 28.730469 28.101562 27.90625 25.515625 27.929688 22.871094 C 27.929688 21.667969 28.242188 20.160156 29.792969 19.679688 C 28.550781 20.582031 28.242188 22.75 28.800781 23.894531 C 29.421875 25.339844 30.847656 26.058594 32.523438 26.058594 C 35.007812 26.058594 36.929688 24.132812 36.929688 21.546875 C 36.929688 14.625 27 9.207031 27 9.207031 Z M 27 9.207031 "/>
<path style=" stroke:none;fill-rule:nonzero;fill:rgb(21.960784%,25.098041%,27.843139%);fill-opacity:1;" d="M 27 120.792969 C 27 120.792969 36.929688 115.375 36.929688 108.453125 C 36.929688 105.867188 34.945312 103.941406 32.523438 103.941406 C 30.847656 103.941406 29.421875 104.660156 28.800781 106.105469 C 28.242188 107.25 28.550781 109.355469 29.792969 110.320312 C 28.242188 109.839844 27.929688 108.332031 27.929688 107.128906 C 27.929688 104.421875 28.800781 101.714844 30.289062 99.726562 L 23.710938 99.726562 C 25.269531 101.898438 26.09375 104.484375 26.070312 107.128906 C 26.070312 108.332031 25.757812 109.839844 24.207031 110.320312 C 25.449219 109.417969 25.757812 107.25 25.199219 106.105469 C 24.578125 104.660156 23.152344 103.941406 21.476562 103.941406 C 18.992188 103.941406 17.070312 105.867188 17.070312 108.453125 C 17.070312 115.375 27 120.792969 27 120.792969 Z M 27 120.792969 "/>
<path style=" stroke:none;fill-rule:nonzero;fill:rgb(21.960784%,25.098041%,27.843139%);fill-opacity:1;" d="M 63 9.207031 C 63 9.207031 53.070312 14.625 53.070312 21.546875 C 53.070312 24.132812 55.054688 26.058594 57.476562 26.058594 C 59.152344 26.058594 60.578125 25.339844 61.199219 23.894531 C 61.757812 22.75 61.449219 20.644531 60.207031 19.679688 C 61.757812 20.160156 62.070312 21.667969 62.070312 22.871094 C 62.070312 25.578125 61.199219 28.285156 59.710938 30.273438 L 66.289062 30.273438 C 64.730469 28.101562 63.90625 25.515625 63.929688 22.871094 C 63.929688 21.667969 64.242188 20.160156 65.792969 19.679688 C 64.550781 20.582031 64.242188 22.75 64.800781 23.894531 C 65.421875 25.339844 66.847656 26.058594 68.523438 26.058594 C 71.007812 26.058594 72.929688 24.132812 72.929688 21.546875 C 72.929688 14.625 63 9.207031 63 9.207031 Z M 63 9.207031 "/>
<path style=" stroke:none;fill-rule:nonzero;fill:rgb(21.960784%,25.098041%,27.843139%);fill-opacity:1;" d="M 63 120.792969 C 63 120.792969 72.929688 115.375 72.929688 108.453125 C 72.929688 105.867188 70.945312 103.941406 68.523438 103.941406 C 66.847656 103.941406 65.421875 104.660156 64.800781 106.105469 C 64.242188 107.25 64.550781 109.355469 65.792969 110.320312 C 64.242188 109.839844 63.929688 108.332031 63.929688 107.128906 C 63.929688 104.421875 64.800781 101.714844 66.289062 99.726562 L 59.710938 99.726562 C 61.269531 101.898438 62.09375 104.484375 62.070312 107.128906 C 62.070312 108.332031 61.757812 109.839844 60.207031 110.320312 C 61.449219 109.417969 61.757812 107.25 61.199219 106.105469 C 60.578125 104.660156 59.152344 103.941406 57.476562 103.941406 C 54.992188 103.941406 53.070312 105.867188 53.070312 108.453125 C 53.070312 115.375 63 120.792969 63 120.792969 Z M 63 120.792969 "/>
<path style=" stroke:none;fill-rule:nonzero;fill:rgb(21.960784%,25.098041%,27.843139%);fill-opacity:1;" d="M 7.949219 21.355469 C 7.949219 21.355469 3.597656 23.679688 3.597656 26.648438 C 3.597656 27.761719 4.46875 28.585938 5.527344 28.585938 C 6.261719 28.585938 6.886719 28.277344 7.160156 27.65625 C 7.402344 27.167969 7.269531 26.261719 6.722656 25.851562 C 7.402344 26.054688 7.539062 26.703125 7.539062 27.21875 C 7.539062 28.378906 7.160156 29.542969 6.507812 30.394531 L 9.390625 30.394531 C 8.707031 29.460938 8.34375 28.351562 8.355469 27.21875 C 8.355469 26.703125 8.492188 26.054688 9.171875 25.851562 C 8.628906 26.238281 8.492188 27.167969 8.734375 27.65625 C 9.007812 28.277344 9.632812 28.585938 10.367188 28.585938 C 11.453125 28.585938 12.296875 27.761719 12.296875 26.648438 C 12.296875 23.679688 7.949219 21.355469 7.949219 21.355469 Z M 7.949219 21.355469 "/>
<path style=" stroke:none;fill-rule:nonzero;fill:rgb(21.960784%,25.098041%,27.843139%);fill-opacity:1;" d="M 82.050781 108.644531 C 82.050781 108.644531 86.402344 106.320312 86.402344 103.351562 C 86.402344 102.238281 85.53125 101.414062 84.472656 101.414062 C 83.738281 101.414062 83.113281 101.722656 82.839844 102.34375 C 82.597656 102.832031 82.730469 103.738281 83.277344 104.148438 C 82.597656 103.945312 82.460938 103.296875 82.460938 102.78125 C 82.460938 101.621094 82.839844 100.457031 83.492188 99.605469 L 80.609375 99.605469 C 81.292969 100.539062 81.65625 101.648438 81.644531 102.78125 C 81.644531 103.296875 81.507812 103.945312 80.828125 104.148438 C 81.371094 103.761719 81.507812 102.832031 81.261719 102.34375 C 80.992188 101.722656 80.367188 101.414062 79.632812 101.414062 C 78.546875 101.414062 77.703125 102.238281 77.703125 103.351562 C 77.703125 106.320312 82.050781 108.644531 82.050781 108.644531 Z M 82.050781 108.644531 "/>
<path style="fill-rule:nonzero;fill:rgb(21.960784%,25.098041%,27.843139%);fill-opacity:1;stroke-width:0.5;stroke-linecap:butt;stroke-linejoin:round;stroke:rgb(21.960784%,25.098041%,27.843139%);stroke-opacity:1;stroke-miterlimit:4;" d="M 445.698804 -70.098773 C 446.498066 -70.098773 447.102233 -70.202619 447.398023 -70.501177 C 447.800801 -70.702379 448.00219 -71.098292 448.00219 -71.701898 L 448.00219 -75.297572 L 440.701842 -75.297572 L 440.701842 -76.699495 L 449.802103 -91.997333 L 451.199239 -91.997333 L 451.199239 -76.699495 L 452.19989 -76.699495 C 452.602667 -76.699495 452.898457 -76.900697 453.099846 -77.199255 C 453.301235 -77.400456 453.40193 -77.900216 453.40193 -78.497332 L 454.402581 -78.497332 L 454.402581 -73.499735 L 453.40193 -73.499735 C 453.40193 -74.09685 453.301235 -74.499254 453.099846 -74.797812 C 452.898457 -75.10286 452.602667 -75.297572 452.099195 -75.297572 L 451.098544 -75.297572 L 451.098544 -71.701898 C 451.098544 -71.098292 451.400627 -70.702379 451.702711 -70.501177 C 452.099195 -70.202619 452.697069 -70.098773 453.502624 -70.098773 L 453.502624 -69.099254 L 445.698804 -69.099254 Z M 442.703144 -76.699495 L 448.00219 -76.699495 L 448.00219 -86.097573 Z M 442.703144 -76.699495 " transform="matrix(0.62069,0,0,0.601852,-269.99999,60.185167)"/>
<path style="fill-rule:nonzero;fill:rgb(21.960784%,25.098041%,27.843139%);fill-opacity:1;stroke-width:0.5;stroke-linecap:butt;stroke-linejoin:round;stroke:rgb(21.960784%,25.098041%,27.843139%);stroke-opacity:1;stroke-miterlimit:4;" d="M 445.698756 -70.098835 C 446.498018 -70.098835 447.102184 -70.202682 447.397974 -70.501239 C 447.800752 -70.702441 448.002141 -71.098355 448.002141 -71.70196 L 448.002141 -75.297634 L 440.701793 -75.297634 L 440.701793 -76.699557 L 449.802054 -91.997395 L 451.19919 -91.997395 L 451.19919 -76.699557 L 452.199841 -76.699557 C 452.602619 -76.699557 452.898409 -76.900759 453.099798 -77.199317 C 453.301187 -77.400519 453.401881 -77.900278 453.401881 -78.497394 L 454.402532 -78.497394 L 454.402532 -73.499797 L 453.401881 -73.499797 C 453.401881 -74.096913 453.301187 -74.499316 453.099798 -74.797874 C 452.898409 -75.102922 452.602619 -75.297634 452.099147 -75.297634 L 451.098496 -75.297634 L 451.098496 -71.70196 C 451.098496 -71.098355 451.400579 -70.702441 451.702662 -70.501239 C 452.099147 -70.202682 452.69702 -70.098835 453.502576 -70.098835 L 453.502576 -69.099316 L 445.698756 -69.099316 Z M 442.703096 -76.699557 L 448.002141 -76.699557 L 448.002141 -86.097635 Z M 442.703096 -76.699557 " transform="matrix(-0.62069,0.000000000000000074,-0.000000000000000076,-0.601852,359.99996,69.814796)"/>
</g>
</svg>
