<?xml version="1.0" encoding="UTF-8"?>
<svg xmlns="http://www.w3.org/2000/svg" xmlns:xlink="http://www.w3.org/1999/xlink" width="90px" height="130px" viewBox="0 0 90 130" version="1.1">
<g id="surface1">
<path style="fill-rule:nonzero;fill:rgb(100%,100%,100%);fill-opacity:1;stroke-width:3;stroke-linecap:butt;stroke-linejoin:miter;stroke:rgb(21.960784%,25.098041%,27.843139%);stroke-opacity:1;stroke-miterlimit:4;" d="M 9.503126 1.499301 L 135.49706 1.499301 C 139.921323 1.499301 143.502269 5.081994 143.502269 9.501946 L 143.502269 206.498116 C 143.502269 210.918068 139.921323 214.500761 135.49706 214.500761 L 9.503126 214.500761 C 5.078864 214.500761 1.497917 210.918068 1.497917 206.498116 L 1.497917 9.501946 C 1.497917 5.081994 5.078864 1.499301 9.503126 1.499301 Z M 9.503126 1.499301 " transform="matrix(0.62069,0,0,0.601852,-0.0000542867,-0.0000135584)"/>
<path style=" stroke:none;fill-rule:nonzero;fill:rgb(21.960784%,25.098041%,27.843139%);fill-opacity:1;" d="M 45 98.160156 C 45 98.160156 54.929688 92.746094 54.929688 85.824219 C 54.929688 83.234375 52.945312 81.308594 50.523438 81.308594 C 48.847656 81.308594 47.421875 82.03125 46.800781 83.476562 C 46.242188 84.621094 46.550781 86.726562 47.792969 87.691406 C 46.242188 87.207031 45.929688 85.703125 45.929688 84.5 C 45.929688 81.792969 46.800781 79.082031 48.289062 77.097656 L 41.710938 77.097656 C 43.269531 79.269531 44.09375 81.855469 44.070312 84.5 C 44.070312 85.703125 43.757812 87.207031 42.207031 87.691406 C 43.449219 86.785156 43.757812 84.621094 43.199219 83.476562 C 42.578125 82.03125 41.152344 81.308594 39.476562 81.308594 C 36.992188 81.308594 35.070312 83.234375 35.070312 85.824219 C 35.070312 92.746094 45 98.160156 45 98.160156 Z M 45 98.160156 "/>
<path style=" stroke:none;fill-rule:nonzero;fill:rgb(21.960784%,25.098041%,27.843139%);fill-opacity:1;" d="M 45 31.839844 C 45 31.839844 35.070312 37.253906 35.070312 44.175781 C 35.070312 46.765625 37.054688 48.691406 39.476562 48.691406 C 41.152344 48.691406 42.578125 47.96875 43.199219 46.523438 C 43.757812 45.378906 43.449219 43.273438 42.207031 42.308594 C 43.757812 42.792969 44.070312 44.296875 44.070312 45.5 C 44.070312 48.207031 43.199219 50.917969 41.710938 52.902344 L 48.289062 52.902344 C 46.730469 50.730469 45.90625 48.144531 45.929688 45.5 C 45.929688 44.296875 46.242188 42.792969 47.792969 42.308594 C 46.550781 43.214844 46.242188 45.378906 46.800781 46.523438 C 47.421875 47.96875 48.847656 48.691406 50.523438 48.691406 C 53.007812 48.691406 54.929688 46.765625 54.929688 44.175781 C 54.929688 37.253906 45 31.839844 45 31.839844 Z M 45 31.839844 "/>
<path style=" stroke:none;fill-rule:nonzero;fill:rgb(21.960784%,25.098041%,27.843139%);fill-opacity:1;" d="M 27 9.207031 C 27 9.207031 17.070312 14.625 17.070312 21.546875 C 17.070312 24.132812 19.054688 26.058594 21.476562 26.058594 C 23.152344 26.058594 24.578125 25.339844 25.199219 23.894531 C 25.757812 22.75 25.449219 20.644531 24.207031 19.679688 C 25.757812 20.160156 26.070312 21.667969 26.070312 22.871094 C 26.070312 25.578125 25.199219 28.285156 23.710938 30.273438 L 30.289062 30.273438 C 28.730469 28.101562 27.90625 25.515625 27.929688 22.871094 C 27.929688 21.667969 28.242188 20.160156 29.792969 19.679688 C 28.550781 20.582031 28.242188 22.75 28.800781 23.894531 C 29.421875 25.339844 30.847656 26.058594 32.523438 26.058594 C 35.007812 26.058594 36.929688 24.132812 36.929688 21.546875 C 36.929688 14.625 27 9.207031 27 9.207031 Z M 27 9.207031 "/>
<path style=" stroke:none;fill-rule:nonzero;fill:rgb(21.960784%,25.098041%,27.843139%);fill-opacity:1;" d="M 27 120.792969 C 27 120.792969 36.929688 115.375 36.929688 108.453125 C 36.929688 105.867188 34.945312 103.941406 32.523438 103.941406 C 30.847656 103.941406 29.421875 104.660156 28.800781 106.105469 C 28.242188 107.25 28.550781 109.355469 29.792969 110.320312 C 28.242188 109.839844 27.929688 108.332031 27.929688 107.128906 C 27.929688 104.421875 28.800781 101.714844 30.289062 99.726562 L 23.710938 99.726562 C 25.269531 101.898438 26.09375 104.484375 26.070312 107.128906 C 26.070312 108.332031 25.757812 109.839844 24.207031 110.320312 C 25.449219 109.417969 25.757812 107.25 25.199219 106.105469 C 24.578125 104.660156 23.152344 103.941406 21.476562 103.941406 C 18.992188 103.941406 17.070312 105.867188 17.070312 108.453125 C 17.070312 115.375 27 120.792969 27 120.792969 Z M 27 120.792969 "/>
<path style=" stroke:none;fill-rule:nonzero;fill:rgb(21.960784%,25.098041%,27.843139%);fill-opacity:1;" d="M 27 54.46875 C 27 54.46875 17.070312 59.882812 17.070312 66.804688 C 17.070312 69.394531 19.054688 71.320312 21.476562 71.320312 C 23.152344 71.320312 24.578125 70.597656 25.199219 69.152344 C 25.757812 68.007812 25.449219 65.902344 24.207031 64.941406 C 25.757812 65.421875 26.070312 66.925781 26.070312 68.128906 C 26.070312 70.839844 25.199219 73.546875 23.710938 75.53125 L 30.289062 75.53125 C 28.730469 73.363281 27.90625 70.773438 27.929688 68.128906 C 27.929688 66.925781 28.242188 65.421875 29.792969 64.941406 C 28.550781 65.84375 28.242188 68.007812 28.800781 69.152344 C 29.421875 70.597656 30.847656 71.320312 32.523438 71.320312 C 35.007812 71.320312 36.929688 69.394531 36.929688 66.804688 C 36.929688 59.882812 27 54.46875 27 54.46875 Z M 27 54.46875 "/>
<path style=" stroke:none;fill-rule:nonzero;fill:rgb(21.960784%,25.098041%,27.843139%);fill-opacity:1;" d="M 63 9.207031 C 63 9.207031 53.070312 14.625 53.070312 21.546875 C 53.070312 24.132812 55.054688 26.058594 57.476562 26.058594 C 59.152344 26.058594 60.578125 25.339844 61.199219 23.894531 C 61.757812 22.75 61.449219 20.644531 60.207031 19.679688 C 61.757812 20.160156 62.070312 21.667969 62.070312 22.871094 C 62.070312 25.578125 61.199219 28.285156 59.710938 30.273438 L 66.289062 30.273438 C 64.730469 28.101562 63.90625 25.515625 63.929688 22.871094 C 63.929688 21.667969 64.242188 20.160156 65.792969 19.679688 C 64.550781 20.582031 64.242188 22.75 64.800781 23.894531 C 65.421875 25.339844 66.847656 26.058594 68.523438 26.058594 C 71.007812 26.058594 72.929688 24.132812 72.929688 21.546875 C 72.929688 14.625 63 9.207031 63 9.207031 Z M 63 9.207031 "/>
<path style=" stroke:none;fill-rule:nonzero;fill:rgb(21.960784%,25.098041%,27.843139%);fill-opacity:1;" d="M 63 120.792969 C 63 120.792969 72.929688 115.375 72.929688 108.453125 C 72.929688 105.867188 70.945312 103.941406 68.523438 103.941406 C 66.847656 103.941406 65.421875 104.660156 64.800781 106.105469 C 64.242188 107.25 64.550781 109.355469 65.792969 110.320312 C 64.242188 109.839844 63.929688 108.332031 63.929688 107.128906 C 63.929688 104.421875 64.800781 101.714844 66.289062 99.726562 L 59.710938 99.726562 C 61.269531 101.898438 62.09375 104.484375 62.070312 107.128906 C 62.070312 108.332031 61.757812 109.839844 60.207031 110.320312 C 61.449219 109.417969 61.757812 107.25 61.199219 106.105469 C 60.578125 104.660156 59.152344 103.941406 57.476562 103.941406 C 54.992188 103.941406 53.070312 105.867188 53.070312 108.453125 C 53.070312 115.375 63 120.792969 63 120.792969 Z M 63 120.792969 "/>
<path style=" stroke:none;fill-rule:nonzero;fill:rgb(21.960784%,25.098041%,27.843139%);fill-opacity:1;" d="M 63 75.53125 C 63 75.53125 53.070312 70.117188 53.070312 63.195312 C 53.070312 60.605469 55.054688 58.679688 57.476562 58.679688 C 59.152344 58.679688 60.578125 59.402344 61.199219 60.847656 C 61.757812 61.992188 61.449219 64.097656 60.207031 65.058594 C 61.757812 64.578125 62.070312 63.074219 62.070312 61.871094 C 62.070312 59.160156 61.199219 56.453125 59.710938 54.46875 L 66.289062 54.46875 C 64.730469 56.636719 63.90625 59.226562 63.929688 61.871094 C 63.929688 63.074219 64.242188 64.578125 65.792969 65.058594 C 64.550781 64.15625 64.242188 61.992188 64.800781 60.847656 C 65.421875 59.402344 66.847656 58.679688 68.523438 58.679688 C 71.007812 58.679688 72.929688 60.605469 72.929688 63.195312 C 72.929688 70.117188 63 75.53125 63 75.53125 Z M 63 75.53125 "/>
<path style=" stroke:none;fill-rule:nonzero;fill:rgb(21.960784%,25.098041%,27.843139%);fill-opacity:1;" d="M 7.949219 21.355469 C 7.949219 21.355469 3.597656 23.679688 3.597656 26.648438 C 3.597656 27.761719 4.46875 28.585938 5.527344 28.585938 C 6.261719 28.585938 6.886719 28.277344 7.160156 27.65625 C 7.402344 27.167969 7.269531 26.261719 6.722656 25.851562 C 7.402344 26.054688 7.539062 26.703125 7.539062 27.21875 C 7.539062 28.378906 7.160156 29.542969 6.507812 30.394531 L 9.390625 30.394531 C 8.707031 29.460938 8.34375 28.351562 8.355469 27.21875 C 8.355469 26.703125 8.492188 26.054688 9.171875 25.851562 C 8.628906 26.238281 8.492188 27.167969 8.734375 27.65625 C 9.007812 28.277344 9.632812 28.585938 10.367188 28.585938 C 11.453125 28.585938 12.296875 27.761719 12.296875 26.648438 C 12.296875 23.679688 7.949219 21.355469 7.949219 21.355469 Z M 7.949219 21.355469 "/>
<path style=" stroke:none;fill-rule:nonzero;fill:rgb(21.960784%,25.098041%,27.843139%);fill-opacity:1;" d="M 82.050781 108.644531 C 82.050781 108.644531 86.402344 106.320312 86.402344 103.351562 C 86.402344 102.238281 85.53125 101.414062 84.472656 101.414062 C 83.738281 101.414062 83.113281 101.722656 82.839844 102.34375 C 82.597656 102.832031 82.730469 103.738281 83.273438 104.148438 C 82.597656 103.945312 82.460938 103.296875 82.460938 102.78125 C 82.460938 101.621094 82.839844 100.457031 83.492188 99.605469 L 80.609375 99.605469 C 81.292969 100.539062 81.65625 101.648438 81.644531 102.78125 C 81.644531 103.296875 81.507812 103.945312 80.828125 104.148438 C 81.371094 103.761719 81.507812 102.832031 81.261719 102.34375 C 80.992188 101.722656 80.367188 101.414062 79.632812 101.414062 C 78.546875 101.414062 77.703125 102.238281 77.703125 103.351562 C 77.703125 106.320312 82.050781 108.644531 82.050781 108.644531 Z M 82.050781 108.644531 "/>
<path style="fill-rule:nonzero;fill:rgb(21.960784%,25.098041%,27.843139%);fill-opacity:1;stroke-width:0.25;stroke-linecap:butt;stroke-linejoin:miter;stroke:rgb(21.960784%,25.098041%,27.843139%);stroke-opacity:1;stroke-miterlimit:4;" d="M 1027.599481 -91.997333 C 1024.087762 -91.997333 1022.338196 -89.628342 1022.300435 -86.597332 C 1022.268968 -84.37762 1023.62205 -82.742043 1025.000305 -81.898293 C 1022.067579 -80.399014 1021.740322 -77.497812 1021.796963 -75.901177 C 1021.796963 -72.701418 1022.879428 -69.2031 1027.599481 -69.2031 C 1031.482511 -69.2031 1033.401999 -71.578581 1033.401999 -75.797331 C 1033.401999 -78.97762 1032.571269 -80.392524 1030.198656 -81.898293 C 1031.451044 -82.657668 1032.898526 -84.092044 1032.898526 -86.597332 C 1032.898526 -90.381227 1030.418925 -91.997333 1027.599481 -91.997333 Z M 1027.599481 -90.699256 C 1029.827346 -90.647333 1029.959507 -88.25238 1029.997267 -86.499976 C 1029.997267 -85.37714 1029.789585 -82.501899 1027.599481 -82.501899 C 1025.560418 -82.501899 1025.201694 -84.890361 1025.201694 -86.597332 C 1025.201694 -87.882428 1025.440843 -90.751179 1027.599481 -90.699256 Z M 1027.599481 -81.301178 C 1030.24271 -81.301178 1030.400045 -76.861754 1030.400045 -75.797331 C 1030.400045 -74.622572 1030.230123 -70.397331 1027.599481 -70.397331 C 1024.962545 -70.397331 1024.798916 -74.622572 1024.798916 -75.797331 C 1024.849264 -77.861274 1025.101 -80.970168 1027.599481 -81.301178 Z M 1027.599481 -81.301178 " transform="matrix(0.62069,0,0,0.601852,-630.000004,60.185167)"/>
<path style="fill-rule:nonzero;fill:rgb(21.960784%,25.098041%,27.843139%);fill-opacity:1;stroke-width:0.25;stroke-linecap:butt;stroke-linejoin:miter;stroke:rgb(21.960784%,25.098041%,27.843139%);stroke-opacity:1;stroke-miterlimit:4;" d="M 1027.599294 -91.997395 C 1024.087575 -91.997395 1022.338009 -89.628404 1022.300249 -86.597394 C 1022.268782 -84.377683 1023.621864 -82.742106 1025.000119 -81.898356 C 1022.067393 -80.399077 1021.740136 -77.497874 1021.796777 -75.90124 C 1021.796777 -72.70148 1022.879242 -69.203162 1027.599294 -69.203162 C 1031.482324 -69.203162 1033.401812 -71.578643 1033.401812 -75.797393 C 1033.401812 -78.977682 1032.571083 -80.392586 1030.19847 -81.898356 C 1031.450857 -82.657731 1032.89834 -84.092106 1032.89834 -86.597394 C 1032.89834 -90.381289 1030.418739 -91.997395 1027.599294 -91.997395 Z M 1027.599294 -90.699318 C 1029.827159 -90.647395 1029.959321 -88.252443 1029.997081 -86.500039 C 1029.997081 -85.377202 1029.789399 -82.501961 1027.599294 -82.501961 C 1025.560232 -82.501961 1025.201508 -84.890423 1025.201508 -86.597394 C 1025.201508 -87.882491 1025.440657 -90.751241 1027.599294 -90.699318 Z M 1027.599294 -81.30124 C 1030.242524 -81.30124 1030.399859 -76.861817 1030.399859 -75.797393 C 1030.399859 -74.622634 1030.229937 -70.397393 1027.599294 -70.397393 C 1024.962358 -70.397393 1024.79873 -74.622634 1024.79873 -75.797393 C 1024.849077 -77.861336 1025.100813 -80.97023 1027.599294 -81.30124 Z M 1027.599294 -81.30124 " transform="matrix(-0.62069,0.000000000000000074,-0.000000000000000076,-0.601852,719.999889,69.814796)"/>
</g>
</svg>
