<?xml version="1.0" encoding="UTF-8"?>
<svg xmlns="http://www.w3.org/2000/svg" xmlns:xlink="http://www.w3.org/1999/xlink" width="90px" height="130px" viewBox="0 0 90 130" version="1.1">
<g id="surface1">
<path style="fill-rule:nonzero;fill:rgb(100%,100%,100%);fill-opacity:1;stroke-width:3;stroke-linecap:butt;stroke-linejoin:miter;stroke:rgb(21.960784%,25.098041%,27.843139%);stroke-opacity:1;stroke-miterlimit:4;" d="M 9.50304 1.499301 L 135.496974 1.499301 C 139.921236 1.499301 143.502183 5.081994 143.502183 9.501946 L 143.502183 206.498116 C 143.502183 210.918068 139.921236 214.500761 135.496974 214.500761 L 9.50304 214.500761 C 5.078778 214.500761 1.497831 210.918068 1.497831 206.498116 L 1.497831 9.501946 C 1.497831 5.081994 5.078778 1.499301 9.50304 1.499301 Z M 9.50304 1.499301 " transform="matrix(0.62069,0,0,0.601852,-0.000000802713,-0.0000135584)"/>
<path style=" stroke:none;fill-rule:nonzero;fill:rgb(21.960784%,25.098041%,27.843139%);fill-opacity:1;" d="M 45 9.207031 C 45 9.207031 35.070312 14.625 35.070312 21.546875 C 35.070312 24.132812 37.054688 26.058594 39.476562 26.058594 C 41.152344 26.058594 42.578125 25.339844 43.199219 23.894531 C 43.757812 22.75 43.449219 20.644531 42.207031 19.679688 C 43.757812 20.160156 44.070312 21.667969 44.070312 22.871094 C 44.070312 25.578125 43.199219 28.285156 41.710938 30.273438 L 48.289062 30.273438 C 46.730469 28.101562 45.90625 25.515625 45.929688 22.871094 C 45.929688 21.667969 46.242188 20.160156 47.792969 19.679688 C 46.550781 20.582031 46.242188 22.75 46.800781 23.894531 C 47.421875 25.339844 48.847656 26.058594 50.523438 26.058594 C 53.007812 26.058594 54.929688 24.132812 54.929688 21.546875 C 54.929688 14.625 45 9.207031 45 9.207031 Z M 45 9.207031 "/>
<path style=" stroke:none;fill-rule:nonzero;fill:rgb(21.960784%,25.098041%,27.843139%);fill-opacity:1;" d="M 45 120.792969 C 45 120.792969 54.929688 115.375 54.929688 108.453125 C 54.929688 105.867188 52.945312 103.941406 50.523438 103.941406 C 48.847656 103.941406 47.421875 104.660156 46.800781 106.105469 C 46.242188 107.25 46.550781 109.355469 47.792969 110.320312 C 46.242188 109.839844 45.929688 108.332031 45.929688 107.128906 C 45.929688 104.421875 46.800781 101.714844 48.289062 99.726562 L 41.710938 99.726562 C 43.269531 101.898438 44.09375 104.484375 44.070312 107.128906 C 44.070312 108.332031 43.757812 109.839844 42.207031 110.320312 C 43.449219 109.417969 43.757812 107.25 43.199219 106.105469 C 42.578125 104.660156 41.152344 103.941406 39.476562 103.941406 C 36.992188 103.941406 35.070312 105.867188 35.070312 108.453125 C 35.070312 115.375 45 120.792969 45 120.792969 Z M 45 120.792969 "/>
<path style=" stroke:none;fill-rule:nonzero;fill:rgb(21.960784%,25.098041%,27.843139%);fill-opacity:1;" d="M 45 54.46875 C 45 54.46875 35.070312 59.882812 35.070312 66.804688 C 35.070312 69.394531 37.054688 71.320312 39.476562 71.320312 C 41.152344 71.320312 42.578125 70.597656 43.199219 69.152344 C 43.757812 68.007812 43.449219 65.902344 42.207031 64.941406 C 43.757812 65.421875 44.070312 66.925781 44.070312 68.128906 C 44.070312 70.839844 43.199219 73.546875 41.710938 75.53125 L 48.289062 75.53125 C 46.730469 73.363281 45.90625 70.773438 45.929688 68.128906 C 45.929688 66.925781 46.242188 65.421875 47.792969 64.941406 C 46.550781 65.84375 46.242188 68.007812 46.800781 69.152344 C 47.421875 70.597656 48.847656 71.320312 50.523438 71.320312 C 53.007812 71.320312 54.929688 69.394531 54.929688 66.804688 C 54.929688 59.882812 45 54.46875 45 54.46875 Z M 45 54.46875 "/>
<path style=" stroke:none;fill-rule:nonzero;fill:rgb(21.960784%,25.098041%,27.843139%);fill-opacity:1;" d="M 7.949219 21.355469 C 7.949219 21.355469 3.597656 23.679688 3.597656 26.648438 C 3.597656 27.761719 4.46875 28.585938 5.527344 28.585938 C 6.261719 28.585938 6.886719 28.277344 7.160156 27.65625 C 7.402344 27.167969 7.269531 26.261719 6.722656 25.851562 C 7.402344 26.054688 7.539062 26.703125 7.539062 27.21875 C 7.539062 28.378906 7.160156 29.542969 6.507812 30.394531 L 9.390625 30.394531 C 8.707031 29.460938 8.34375 28.351562 8.355469 27.21875 C 8.355469 26.703125 8.492188 26.054688 9.171875 25.851562 C 8.628906 26.238281 8.492188 27.167969 8.734375 27.65625 C 9.007812 28.277344 9.632812 28.585938 10.367188 28.585938 C 11.453125 28.585938 12.296875 27.761719 12.296875 26.648438 C 12.296875 23.679688 7.949219 21.355469 7.949219 21.355469 Z M 7.949219 21.355469 "/>
<path style=" stroke:none;fill-rule:nonzero;fill:rgb(21.960784%,25.098041%,27.843139%);fill-opacity:1;" d="M 82.050781 108.644531 C 82.050781 108.644531 86.402344 106.320312 86.402344 103.351562 C 86.402344 102.238281 85.53125 101.414062 84.472656 101.414062 C 83.738281 101.414062 83.113281 101.722656 82.839844 102.34375 C 82.597656 102.832031 82.730469 103.738281 83.277344 104.148438 C 82.597656 103.945312 82.460938 103.296875 82.460938 102.78125 C 82.460938 101.621094 82.839844 100.457031 83.492188 99.605469 L 80.609375 99.605469 C 81.292969 100.539062 81.65625 101.648438 81.644531 102.78125 C 81.644531 103.296875 81.507812 103.945312 80.828125 104.148438 C 81.371094 103.761719 81.507812 102.832031 81.261719 102.34375 C 80.992188 101.722656 80.367188 101.414062 79.632812 101.414062 C 78.546875 101.414062 77.703125 102.238281 77.703125 103.351562 C 77.703125 106.320312 82.050781 108.644531 82.050781 108.644531 Z M 82.050781 108.644531 "/>
<path style="fill-rule:nonzero;fill:rgb(21.960784%,25.098041%,27.843139%);fill-opacity:1;stroke-width:0.5;stroke-linecap:butt;stroke-linejoin:round;stroke:rgb(21.960784%,25.098041%,27.843139%);stroke-opacity:1;stroke-miterlimit:4;" d="M 302.001521 -90.498054 C 300.742841 -90.498054 299.880644 -89.647813 299.597441 -89.102621 C 300.151261 -88.888438 301.397355 -88.103102 301.397355 -86.798534 C 301.397355 -85.72113 300.579212 -84.70214 299.200957 -84.70214 C 297.898222 -84.70214 296.998266 -85.857428 296.998266 -87.298294 C 296.998266 -89.920409 299.18837 -91.899977 302.398006 -91.899977 C 306.721574 -91.899977 307.89844 -88.881948 307.89844 -86.597332 C 307.89844 -85.260313 307.508249 -83.001659 305.097876 -81.697091 C 305.978952 -81.229784 308.502607 -79.587716 308.502607 -76.199735 C 308.502607 -72.5781 307.149525 -69.2031 302.102216 -69.2031 C 298.722658 -69.2031 296.702476 -71.422812 296.702476 -73.798293 C 296.702476 -75.148293 297.703127 -76.400937 298.999568 -76.400937 C 300.201608 -76.400937 301.202259 -75.44036 301.202259 -74.298052 C 301.202259 -73.356947 300.239368 -72.448293 299.301651 -72.097812 C 299.830297 -71.169687 300.698787 -70.702379 301.900827 -70.702379 C 304.172745 -70.702379 305.299265 -72.40286 305.299265 -75.797331 C 305.299265 -78.867283 304.330081 -80.399014 302.398006 -80.399014 L 301.598744 -81.599736 C 303.68186 -82.566803 304.997181 -84.572332 304.997181 -86.597332 C 304.997181 -89.530986 303.530818 -90.498054 302.001521 -90.498054 Z M 302.001521 -90.498054 " transform="matrix(0.62069,0,0,0.601852,-179.999987,60.185167)"/>
<path style="fill-rule:nonzero;fill:rgb(21.960784%,25.098041%,27.843139%);fill-opacity:1;stroke-width:0.5;stroke-linecap:butt;stroke-linejoin:round;stroke:rgb(21.960784%,25.098041%,27.843139%);stroke-opacity:1;stroke-miterlimit:4;" d="M 302.001507 -90.498116 C 300.742827 -90.498116 299.88063 -89.647875 299.597427 -89.102683 C 300.151247 -88.8885 301.397341 -88.103164 301.397341 -86.798596 C 301.397341 -85.721192 300.579198 -84.702202 299.200943 -84.702202 C 297.898208 -84.702202 296.998252 -85.85749 296.998252 -87.298356 C 296.998252 -89.920472 299.188356 -91.900039 302.397992 -91.900039 C 306.72156 -91.900039 307.898426 -88.88201 307.898426 -86.597394 C 307.898426 -85.260375 307.508235 -83.001721 305.097862 -81.697154 C 305.978938 -81.229846 308.502593 -79.587778 308.502593 -76.199797 C 308.502593 -72.578162 307.149511 -69.203162 302.102202 -69.203162 C 298.722644 -69.203162 296.702462 -71.422874 296.702462 -73.798355 C 296.702462 -75.148355 297.703113 -76.400999 298.999554 -76.400999 C 300.201594 -76.400999 301.202245 -75.440422 301.202245 -74.298115 C 301.202245 -73.357009 300.239354 -72.448355 299.301637 -72.097874 C 299.830283 -71.169749 300.698773 -70.702441 301.900813 -70.702441 C 304.172731 -70.702441 305.299251 -72.402922 305.299251 -75.797393 C 305.299251 -78.867346 304.330066 -80.399077 302.397992 -80.399077 L 301.598729 -81.599798 C 303.681846 -82.566865 304.997167 -84.572394 304.997167 -86.597394 C 304.997167 -89.531048 303.530804 -90.498116 302.001507 -90.498116 Z M 302.001507 -90.498116 " transform="matrix(-0.62069,0.000000000000000074,-0.000000000000000076,-0.601852,269.999978,69.814796)"/>
</g>
</svg>
