<?xml version="1.0" encoding="UTF-8"?>
<svg xmlns="http://www.w3.org/2000/svg" xmlns:xlink="http://www.w3.org/1999/xlink" width="90px" height="130px" viewBox="0 0 90 130" version="1.1">
<g id="surface1">
<path style="fill-rule:nonzero;fill:rgb(100%,100%,100%);fill-opacity:1;stroke-width:1;stroke-linecap:butt;stroke-linejoin:miter;stroke:rgb(0%,0%,0%);stroke-opacity:1;stroke-miterlimit:4;" d="M 30.4375 512.865218 L 329.5625 512.865218 C 346.09375 512.865218 359.5 526.267862 359.5 542.802117 L 359.5 1021.922309 C 359.5 1038.456564 346.09375 1051.859208 329.5625 1051.859208 L 30.4375 1051.859208 C 13.90625 1051.859208 0.5 1038.456564 0.5 1021.922309 L 0.5 542.802117 C 0.5 526.267862 13.90625 512.865218 30.4375 512.865218 Z M 30.4375 512.865218 " transform="matrix(0.25,0,0,0.240741,0,-123.346459)"/>
<path style=" stroke:none;fill-rule:nonzero;fill:rgb(0%,0%,0%);fill-opacity:1;" d="M 3.75 7.222656 L 2.5 8.90625 L 2.5 10.59375 L 3.75 8.90625 L 3.75 19.257812 L 5 19.257812 L 5 7.222656 Z M 3.75 7.222656 "/>
<path style=" stroke:none;fill-rule:nonzero;fill:rgb(0%,0%,0%);fill-opacity:1;" d="M 8.75 7.222656 C 7.363281 7.222656 6.25 8.296875 6.25 9.628906 L 6.25 16.851562 C 6.25 18.1875 7.363281 19.257812 8.75 19.257812 C 10.136719 19.257812 11.25 18.1875 11.25 16.851562 L 11.25 9.628906 C 11.25 8.296875 10.136719 7.222656 8.75 7.222656 Z M 8.75 8.425781 C 9.441406 8.425781 10 8.960938 10 9.628906 L 10 16.851562 C 10 17.519531 9.441406 18.054688 8.75 18.054688 C 8.058594 18.054688 7.5 17.519531 7.5 16.851562 L 7.5 9.628906 C 7.5 8.960938 8.058594 8.425781 8.75 8.425781 Z M 8.75 8.425781 "/>
<path style=" stroke:none;fill-rule:nonzero;fill:rgb(0%,0%,0%);fill-opacity:1;" d="M 86.25 122.777344 L 87.5 121.09375 L 87.5 119.40625 L 86.25 121.09375 L 86.25 110.742188 L 85 110.742188 L 85 122.777344 Z M 86.25 122.777344 "/>
<path style=" stroke:none;fill-rule:nonzero;fill:rgb(0%,0%,0%);fill-opacity:1;" d="M 81.25 122.777344 C 82.636719 122.777344 83.75 121.703125 83.75 120.371094 L 83.75 113.148438 C 83.75 111.8125 82.636719 110.742188 81.25 110.742188 C 79.863281 110.742188 78.75 111.8125 78.75 113.148438 L 78.75 120.371094 C 78.75 121.703125 79.863281 122.777344 81.25 122.777344 Z M 81.25 121.574219 C 80.558594 121.574219 80 121.039062 80 120.371094 L 80 113.148438 C 80 112.480469 80.558594 111.945312 81.25 111.945312 C 81.941406 111.945312 82.5 112.480469 82.5 113.148438 L 82.5 120.371094 C 82.5 121.039062 81.941406 121.574219 81.25 121.574219 Z M 81.25 121.574219 "/>
<path style=" stroke:none;fill-rule:nonzero;fill:rgb(0%,0%,0%);fill-opacity:1;" d="M 8.125 28.40625 C 8.375 28.890625 9 29.609375 9.625 29.609375 C 10.75 29.609375 11.25 28.648438 11.25 27.445312 C 11.25 26.242188 10.75 25.15625 9.625 25.15625 C 9 25.15625 8.625 25.757812 8.25 26.121094 C 8.125 26.242188 8 26.121094 8.125 26 C 8.5 25.640625 9.125 24.675781 9.125 23.832031 C 9.125 22.871094 8.5 21.667969 7.5 21.667969 C 6.5 21.667969 5.875 22.871094 5.875 23.832031 C 5.875 24.675781 6.5 25.640625 6.875 26 C 7 26.121094 6.875 26.242188 6.75 26.121094 C 6.375 25.757812 6 25.15625 5.375 25.15625 C 4.25 25.15625 3.75 26.242188 3.75 27.445312 C 3.75 28.648438 4.25 29.609375 5.375 29.609375 C 6 29.609375 6.625 28.890625 6.875 28.40625 C 7 28.285156 7 28.40625 7 28.527344 C 6.875 29.492188 6.875 29.730469 6.75 30.453125 C 6.625 31.175781 6.25 32.5 6.25 32.5 C 6.875 32.257812 8.125 32.257812 8.75 32.5 C 8.75 32.5 8.375 31.175781 8.25 30.453125 C 8.125 29.730469 8.125 29.492188 8 28.527344 C 8 28.40625 8 28.285156 8.125 28.40625 Z M 8.125 28.40625 "/>
<path style=" stroke:none;fill-rule:nonzero;fill:rgb(0%,0%,0%);fill-opacity:1;" d="M 83.125 101.59375 C 83.375 101.109375 84 100.390625 84.625 100.390625 C 85.75 100.390625 86.25 101.351562 86.25 102.554688 C 86.25 103.757812 85.75 104.84375 84.625 104.84375 C 84 104.84375 83.625 104.242188 83.25 103.878906 C 83.125 103.757812 83 103.878906 83.125 104 C 83.5 104.359375 84.125 105.324219 84.125 106.167969 C 84.125 107.128906 83.5 108.332031 82.5 108.332031 C 81.5 108.332031 80.875 107.128906 80.875 106.167969 C 80.875 105.324219 81.5 104.359375 81.875 104 C 82 103.878906 81.875 103.757812 81.75 103.878906 C 81.375 104.242188 81 104.84375 80.375 104.84375 C 79.25 104.84375 78.75 103.757812 78.75 102.554688 C 78.75 101.351562 79.25 100.390625 80.375 100.390625 C 81 100.390625 81.625 101.109375 81.875 101.59375 C 82 101.714844 82 101.59375 82 101.472656 C 81.875 100.507812 81.875 100.269531 81.75 99.546875 C 81.625 98.824219 81.25 97.5 81.25 97.5 C 81.875 97.742188 83.125 97.742188 83.75 97.5 C 83.75 97.5 83.375 98.824219 83.25 99.546875 C 83.125 100.269531 83.125 100.507812 83 101.472656 C 83 101.59375 83 101.714844 83.125 101.59375 Z M 83.125 101.59375 "/>
<path style=" stroke:none;fill-rule:nonzero;fill:rgb(0%,0%,0%);fill-opacity:1;" d="M 23.75 24.316406 C 24.25 25.277344 25.5 26.722656 26.75 26.722656 C 29 26.722656 30 24.796875 30 22.390625 C 30 19.980469 29 17.816406 26.75 17.816406 C 25.5 17.816406 24.75 19.019531 24 19.742188 C 23.75 19.980469 23.5 19.742188 23.75 19.5 C 24.5 18.777344 25.75 16.851562 25.75 15.167969 C 25.75 13.242188 24.5 10.832031 22.5 10.832031 C 20.5 10.832031 19.25 13.242188 19.25 15.167969 C 19.25 16.851562 20.5 18.777344 21.25 19.5 C 21.5 19.742188 21.25 19.980469 21 19.742188 C 20.25 19.019531 19.5 17.816406 18.25 17.816406 C 16 17.816406 15 19.980469 15 22.390625 C 15 24.796875 16 26.722656 18.25 26.722656 C 19.5 26.722656 20.75 25.277344 21.25 24.316406 C 21.5 24.074219 21.5 24.316406 21.5 24.554688 C 21.25 26.480469 21.25 26.964844 21 28.40625 C 20.75 29.851562 20 32.5 20 32.5 C 21.25 32.019531 23.75 32.019531 25 32.5 C 25 32.5 24.25 29.851562 24 28.40625 C 23.75 26.964844 23.75 26.480469 23.5 24.554688 C 23.5 24.316406 23.5 24.074219 23.75 24.316406 Z M 23.75 24.316406 "/>
<path style=" stroke:none;fill-rule:nonzero;fill:rgb(0%,0%,0%);fill-opacity:1;" d="M 68.75 24.316406 C 69.25 25.277344 70.5 26.722656 71.75 26.722656 C 74 26.722656 75 24.796875 75 22.390625 C 75 19.980469 74 17.816406 71.75 17.816406 C 70.5 17.816406 69.75 19.019531 69 19.742188 C 68.75 19.980469 68.5 19.742188 68.75 19.5 C 69.5 18.777344 70.75 16.851562 70.75 15.167969 C 70.75 13.242188 69.5 10.832031 67.5 10.832031 C 65.5 10.832031 64.25 13.242188 64.25 15.167969 C 64.25 16.851562 65.5 18.777344 66.25 19.5 C 66.5 19.742188 66.25 19.980469 66 19.742188 C 65.25 19.019531 64.5 17.816406 63.25 17.816406 C 61 17.816406 60 19.980469 60 22.390625 C 60 24.796875 61 26.722656 63.25 26.722656 C 64.5 26.722656 65.75 25.277344 66.25 24.316406 C 66.5 24.074219 66.5 24.316406 66.5 24.554688 C 66.25 26.480469 66.25 26.964844 66 28.40625 C 65.75 29.851562 65 32.5 65 32.5 C 66.25 32.019531 68.75 32.019531 70 32.5 C 70 32.5 69.25 29.851562 69 28.40625 C 68.75 26.964844 68.75 26.480469 68.5 24.554688 C 68.5 24.316406 68.5 24.074219 68.75 24.316406 Z M 68.75 24.316406 "/>
<path style=" stroke:none;fill-rule:nonzero;fill:rgb(0%,0%,0%);fill-opacity:1;" d="M 46.25 38.757812 C 46.75 39.722656 48 41.167969 49.25 41.167969 C 51.5 41.167969 52.5 39.242188 52.5 36.832031 C 52.5 34.425781 51.5 32.257812 49.25 32.257812 C 48 32.257812 47.25 33.464844 46.5 34.183594 C 46.25 34.425781 46 34.183594 46.25 33.945312 C 47 33.222656 48.25 31.296875 48.25 29.609375 C 48.25 27.683594 47 25.277344 45 25.277344 C 43 25.277344 41.75 27.683594 41.75 29.609375 C 41.75 31.296875 43 33.222656 43.75 33.945312 C 44 34.183594 43.75 34.425781 43.5 34.183594 C 42.75 33.464844 42 32.257812 40.75 32.257812 C 38.5 32.257812 37.5 34.425781 37.5 36.832031 C 37.5 39.242188 38.5 41.167969 40.75 41.167969 C 42 41.167969 43.25 39.722656 43.75 38.757812 C 44 38.519531 44 38.757812 44 39 C 43.75 40.925781 43.75 41.40625 43.5 42.851562 C 43.25 44.296875 42.5 46.945312 42.5 46.945312 C 43.75 46.464844 46.25 46.464844 47.5 46.945312 C 47.5 46.945312 46.75 44.296875 46.5 42.851562 C 46.25 41.40625 46.25 40.925781 46 39 C 46 38.757812 46 38.519531 46.25 38.757812 Z M 46.25 38.757812 "/>
<path style=" stroke:none;fill-rule:nonzero;fill:rgb(0%,0%,0%);fill-opacity:1;" d="M 23.75 53.203125 C 24.25 54.167969 25.5 55.609375 26.75 55.609375 C 29 55.609375 30 53.683594 30 51.277344 C 30 48.871094 29 46.703125 26.75 46.703125 C 25.5 46.703125 24.75 47.90625 24 48.628906 C 23.75 48.871094 23.5 48.628906 23.75 48.390625 C 24.5 47.667969 25.75 45.742188 25.75 44.054688 C 25.75 42.128906 24.5 39.722656 22.5 39.722656 C 20.5 39.722656 19.25 42.128906 19.25 44.054688 C 19.25 45.742188 20.5 47.667969 21.25 48.390625 C 21.5 48.628906 21.25 48.871094 21 48.628906 C 20.25 47.90625 19.5 46.703125 18.25 46.703125 C 16 46.703125 15 48.871094 15 51.277344 C 15 53.683594 16 55.609375 18.25 55.609375 C 19.5 55.609375 20.75 54.167969 21.25 53.203125 C 21.5 52.964844 21.5 53.203125 21.5 53.445312 C 21.25 55.371094 21.25 55.851562 21 57.296875 C 20.75 58.742188 20 61.390625 20 61.390625 C 21.25 60.90625 23.75 60.90625 25 61.390625 C 25 61.390625 24.25 58.742188 24 57.296875 C 23.75 55.851562 23.75 55.371094 23.5 53.445312 C 23.5 53.203125 23.5 52.964844 23.75 53.203125 Z M 23.75 53.203125 "/>
<path style=" stroke:none;fill-rule:nonzero;fill:rgb(0%,0%,0%);fill-opacity:1;" d="M 68.75 53.203125 C 69.25 54.167969 70.5 55.609375 71.75 55.609375 C 74 55.609375 75 53.683594 75 51.277344 C 75 48.871094 74 46.703125 71.75 46.703125 C 70.5 46.703125 69.75 47.90625 69 48.628906 C 68.75 48.871094 68.5 48.628906 68.75 48.390625 C 69.5 47.667969 70.75 45.742188 70.75 44.054688 C 70.75 42.128906 69.5 39.722656 67.5 39.722656 C 65.5 39.722656 64.25 42.128906 64.25 44.054688 C 64.25 45.742188 65.5 47.667969 66.25 48.390625 C 66.5 48.628906 66.25 48.871094 66 48.628906 C 65.25 47.90625 64.5 46.703125 63.25 46.703125 C 61 46.703125 60 48.871094 60 51.277344 C 60 53.683594 61 55.609375 63.25 55.609375 C 64.5 55.609375 65.75 54.167969 66.25 53.203125 C 66.5 52.964844 66.5 53.203125 66.5 53.445312 C 66.25 55.371094 66.25 55.851562 66 57.296875 C 65.75 58.742188 65 61.390625 65 61.390625 C 66.25 60.90625 68.75 60.90625 70 61.390625 C 70 61.390625 69.25 58.742188 69 57.296875 C 68.75 55.851562 68.75 55.371094 68.5 53.445312 C 68.5 53.203125 68.5 52.964844 68.75 53.203125 Z M 68.75 53.203125 "/>
<path style=" stroke:none;fill-rule:nonzero;fill:rgb(0%,0%,0%);fill-opacity:1;" d="M 23.75 76.796875 C 24.25 75.832031 25.5 74.390625 26.75 74.390625 C 29 74.390625 30 76.316406 30 78.722656 C 30 81.128906 29 83.296875 26.75 83.296875 C 25.5 83.296875 24.75 82.09375 24 81.371094 C 23.75 81.128906 23.5 81.371094 23.75 81.609375 C 24.5 82.332031 25.75 84.257812 25.75 85.945312 C 25.75 87.871094 24.5 90.277344 22.5 90.277344 C 20.5 90.277344 19.25 87.871094 19.25 85.945312 C 19.25 84.257812 20.5 82.332031 21.25 81.609375 C 21.5 81.371094 21.25 81.128906 21 81.371094 C 20.25 82.09375 19.5 83.296875 18.25 83.296875 C 16 83.296875 15 81.128906 15 78.722656 C 15 76.316406 16 74.390625 18.25 74.390625 C 19.5 74.390625 20.75 75.832031 21.25 76.796875 C 21.5 77.035156 21.5 76.796875 21.5 76.554688 C 21.25 74.628906 21.25 74.148438 21 72.703125 C 20.75 71.257812 20 68.609375 20 68.609375 C 21.25 69.09375 23.75 69.09375 25 68.609375 C 25 68.609375 24.25 71.257812 24 72.703125 C 23.75 74.148438 23.75 74.628906 23.5 76.554688 C 23.5 76.796875 23.5 77.035156 23.75 76.796875 Z M 23.75 76.796875 "/>
<path style=" stroke:none;fill-rule:nonzero;fill:rgb(0%,0%,0%);fill-opacity:1;" d="M 68.75 76.796875 C 69.25 75.832031 70.5 74.390625 71.75 74.390625 C 74 74.390625 75 76.316406 75 78.722656 C 75 81.128906 74 83.296875 71.75 83.296875 C 70.5 83.296875 69.75 82.09375 69 81.371094 C 68.75 81.128906 68.5 81.371094 68.75 81.609375 C 69.5 82.332031 70.75 84.257812 70.75 85.945312 C 70.75 87.871094 69.5 90.277344 67.5 90.277344 C 65.5 90.277344 64.25 87.871094 64.25 85.945312 C 64.25 84.257812 65.5 82.332031 66.25 81.609375 C 66.5 81.371094 66.25 81.128906 66 81.371094 C 65.25 82.09375 64.5 83.296875 63.25 83.296875 C 61 83.296875 60 81.128906 60 78.722656 C 60 76.316406 61 74.390625 63.25 74.390625 C 64.5 74.390625 65.75 75.832031 66.25 76.796875 C 66.5 77.035156 66.5 76.796875 66.5 76.554688 C 66.25 74.628906 66.25 74.148438 66 72.703125 C 65.75 71.257812 65 68.609375 65 68.609375 C 66.25 69.09375 68.75 69.09375 70 68.609375 C 70 68.609375 69.25 71.257812 69 72.703125 C 68.75 74.148438 68.75 74.628906 68.5 76.554688 C 68.5 76.796875 68.5 77.035156 68.75 76.796875 Z M 68.75 76.796875 "/>
<path style=" stroke:none;fill-rule:nonzero;fill:rgb(0%,0%,0%);fill-opacity:1;" d="M 46.25 91.242188 C 46.75 90.277344 48 88.832031 49.25 88.832031 C 51.5 88.832031 52.5 90.757812 52.5 93.167969 C 52.5 95.574219 51.5 97.742188 49.25 97.742188 C 48 97.742188 47.25 96.535156 46.5 95.816406 C 46.25 95.574219 46 95.816406 46.25 96.054688 C 47 96.777344 48.25 98.703125 48.25 100.390625 C 48.25 102.316406 47 104.722656 45 104.722656 C 43 104.722656 41.75 102.316406 41.75 100.390625 C 41.75 98.703125 43 96.777344 43.75 96.054688 C 44 95.816406 43.75 95.574219 43.5 95.816406 C 42.75 96.535156 42 97.742188 40.75 97.742188 C 38.5 97.742188 37.5 95.574219 37.5 93.167969 C 37.5 90.757812 38.5 88.832031 40.75 88.832031 C 42 88.832031 43.25 90.277344 43.75 91.242188 C 44 91.480469 44 91.242188 44 91 C 43.75 89.074219 43.75 88.59375 43.5 87.148438 C 43.25 85.703125 42.5 83.054688 42.5 83.054688 C 43.75 83.535156 46.25 83.535156 47.5 83.054688 C 47.5 83.054688 46.75 85.703125 46.5 87.148438 C 46.25 88.59375 46.25 89.074219 46 91 C 46 91.242188 46 91.480469 46.25 91.242188 Z M 46.25 91.242188 "/>
<path style=" stroke:none;fill-rule:nonzero;fill:rgb(0%,0%,0%);fill-opacity:1;" d="M 23.75 105.683594 C 24.25 104.722656 25.5 103.277344 26.75 103.277344 C 29 103.277344 30 105.203125 30 107.609375 C 30 110.019531 29 112.183594 26.75 112.183594 C 25.5 112.183594 24.75 110.980469 24 110.257812 C 23.75 110.019531 23.5 110.257812 23.75 110.5 C 24.5 111.222656 25.75 113.148438 25.75 114.832031 C 25.75 116.757812 24.5 119.167969 22.5 119.167969 C 20.5 119.167969 19.25 116.757812 19.25 114.832031 C 19.25 113.148438 20.5 111.222656 21.25 110.5 C 21.5 110.257812 21.25 110.019531 21 110.257812 C 20.25 110.980469 19.5 112.183594 18.25 112.183594 C 16 112.183594 15 110.019531 15 107.609375 C 15 105.203125 16 103.277344 18.25 103.277344 C 19.5 103.277344 20.75 104.722656 21.25 105.683594 C 21.5 105.925781 21.5 105.683594 21.5 105.445312 C 21.25 103.519531 21.25 103.035156 21 101.59375 C 20.75 100.148438 20 97.5 20 97.5 C 21.25 97.980469 23.75 97.980469 25 97.5 C 25 97.5 24.25 100.148438 24 101.59375 C 23.75 103.035156 23.75 103.519531 23.5 105.445312 C 23.5 105.683594 23.5 105.925781 23.75 105.683594 Z M 23.75 105.683594 "/>
<path style=" stroke:none;fill-rule:nonzero;fill:rgb(0%,0%,0%);fill-opacity:1;" d="M 68.75 105.683594 C 69.25 104.722656 70.5 103.277344 71.75 103.277344 C 74 103.277344 75 105.203125 75 107.609375 C 75 110.019531 74 112.183594 71.75 112.183594 C 70.5 112.183594 69.75 110.980469 69 110.257812 C 68.75 110.019531 68.5 110.257812 68.75 110.5 C 69.5 111.222656 70.75 113.148438 70.75 114.832031 C 70.75 116.757812 69.5 119.167969 67.5 119.167969 C 65.5 119.167969 64.25 116.757812 64.25 114.832031 C 64.25 113.148438 65.5 111.222656 66.25 110.5 C 66.5 110.257812 66.25 110.019531 66 110.257812 C 65.25 110.980469 64.5 112.183594 63.25 112.183594 C 61 112.183594 60 110.019531 60 107.609375 C 60 105.203125 61 103.277344 63.25 103.277344 C 64.5 103.277344 65.75 104.722656 66.25 105.683594 C 66.5 105.925781 66.5 105.683594 66.5 105.445312 C 66.25 103.519531 66.25 103.035156 66 101.59375 C 65.75 100.148438 65 97.5 65 97.5 C 66.25 97.980469 68.75 97.980469 70 97.5 C 70 97.5 69.25 100.148438 69 101.59375 C 68.75 103.035156 68.75 103.519531 68.5 105.445312 C 68.5 105.683594 68.5 105.925781 68.75 105.683594 Z M 68.75 105.683594 "/>
</g>
</svg>
