<?xml version="1.0" encoding="UTF-8"?>
<svg xmlns="http://www.w3.org/2000/svg" xmlns:xlink="http://www.w3.org/1999/xlink" width="90px" height="130px" viewBox="0 0 90 130" version="1.1">
<g id="surface1">
<path style="fill-rule:nonzero;fill:rgb(100%,100%,100%);fill-opacity:1;stroke-width:1;stroke-linecap:butt;stroke-linejoin:miter;stroke:rgb(0%,0%,0%);stroke-opacity:1;stroke-miterlimit:4;" d="M 30.4375 512.865218 L 329.5625 512.865218 C 346.09375 512.865218 359.5 526.267862 359.5 542.802117 L 359.5 1021.922309 C 359.5 1038.456564 346.09375 1051.859208 329.5625 1051.859208 L 30.4375 1051.859208 C 13.90625 1051.859208 0.5 1038.456564 0.5 1021.922309 L 0.5 542.802117 C 0.5 526.267862 13.90625 512.865218 30.4375 512.865218 Z M 30.4375 512.865218 " transform="matrix(0.25,0,0,0.240741,0,-123.346459)"/>
<path style=" stroke:none;fill-rule:nonzero;fill:rgb(0%,0%,0%);fill-opacity:1;" d="M 7.5 7.222656 C 6.113281 7.222656 5 8.296875 5 9.628906 L 5 10.832031 L 6.25 10.832031 L 6.25 9.628906 C 6.25 8.960938 6.808594 8.425781 7.5 8.425781 C 8.191406 8.425781 8.75 8.960938 8.75 9.628906 L 8.75 10.832031 C 8.75 11.5 8.191406 12.035156 7.5 12.035156 L 6.25 12.035156 L 6.25 13.242188 L 7.5 13.242188 C 8.191406 13.242188 8.75 13.777344 8.75 14.445312 L 8.75 16.851562 C 8.75 17.519531 8.191406 18.054688 7.5 18.054688 C 6.808594 18.054688 6.25 17.519531 6.25 16.851562 L 6.25 15.648438 L 5 15.648438 L 5 16.851562 C 5 18.183594 6.113281 19.257812 7.5 19.257812 C 8.886719 19.257812 10 18.183594 10 16.851562 L 10 14.445312 C 10 13.722656 9.667969 13.078125 9.148438 12.640625 C 9.667969 12.199219 10 11.554688 10 10.832031 L 10 9.628906 C 10 8.296875 8.886719 7.222656 7.5 7.222656 Z M 7.5 7.222656 "/>
<path style=" stroke:none;fill-rule:nonzero;fill:rgb(0%,0%,0%);fill-opacity:1;" d="M 82.5 122.777344 C 83.886719 122.777344 85 121.703125 85 120.371094 L 85 119.167969 L 83.75 119.167969 L 83.75 120.371094 C 83.75 121.039062 83.191406 121.574219 82.5 121.574219 C 81.808594 121.574219 81.25 121.039062 81.25 120.371094 L 81.25 119.167969 C 81.25 118.5 81.808594 117.964844 82.5 117.964844 L 83.75 117.964844 L 83.75 116.757812 L 82.5 116.757812 C 81.808594 116.757812 81.25 116.222656 81.25 115.554688 L 81.25 113.148438 C 81.25 112.480469 81.808594 111.945312 82.5 111.945312 C 83.191406 111.945312 83.75 112.480469 83.75 113.148438 L 83.75 114.351562 L 85 114.351562 L 85 113.148438 C 85 111.8125 83.886719 110.742188 82.5 110.742188 C 81.113281 110.742188 80 111.8125 80 113.148438 L 80 115.554688 C 80 116.277344 80.332031 116.921875 80.851562 117.359375 C 80.332031 117.800781 80 118.445312 80 119.167969 L 80 120.371094 C 80 121.703125 81.113281 122.777344 82.5 122.777344 Z M 82.5 122.777344 "/>
<path style=" stroke:none;fill-rule:nonzero;fill:rgb(0%,0%,0%);fill-opacity:1;" d="M 46.25 24.316406 C 46.75 25.277344 48 26.722656 49.25 26.722656 C 51.5 26.722656 52.5 24.796875 52.5 22.390625 C 52.5 19.980469 51.5 17.816406 49.25 17.816406 C 48 17.816406 47.25 19.019531 46.5 19.742188 C 46.25 19.980469 46 19.742188 46.25 19.5 C 47 18.777344 48.25 16.851562 48.25 15.167969 C 48.25 13.242188 47 10.832031 45 10.832031 C 43 10.832031 41.75 13.242188 41.75 15.167969 C 41.75 16.851562 43 18.777344 43.75 19.5 C 44 19.742188 43.75 19.980469 43.5 19.742188 C 42.75 19.019531 42 17.816406 40.75 17.816406 C 38.5 17.816406 37.5 19.980469 37.5 22.390625 C 37.5 24.796875 38.5 26.722656 40.75 26.722656 C 42 26.722656 43.25 25.277344 43.75 24.316406 C 44 24.074219 44 24.316406 44 24.554688 C 43.75 26.480469 43.75 26.964844 43.5 28.40625 C 43.25 29.851562 42.5 32.5 42.5 32.5 C 43.75 32.019531 46.25 32.019531 47.5 32.5 C 47.5 32.5 46.75 29.851562 46.5 28.40625 C 46.25 26.964844 46.25 26.480469 46 24.554688 C 46 24.316406 46 24.074219 46.25 24.316406 Z M 46.25 24.316406 "/>
<path style=" stroke:none;fill-rule:nonzero;fill:rgb(0%,0%,0%);fill-opacity:1;" d="M 46.25 67.648438 C 46.75 68.609375 48 70.054688 49.25 70.054688 C 51.5 70.054688 52.5 68.128906 52.5 65.722656 C 52.5 63.316406 51.5 61.148438 49.25 61.148438 C 48 61.148438 47.25 62.351562 46.5 63.074219 C 46.25 63.316406 46 63.074219 46.25 62.832031 C 47 62.109375 48.25 60.183594 48.25 58.5 C 48.25 56.574219 47 54.167969 45 54.167969 C 43 54.167969 41.75 56.574219 41.75 58.5 C 41.75 60.183594 43 62.109375 43.75 62.832031 C 44 63.074219 43.75 63.316406 43.5 63.074219 C 42.75 62.351562 42 61.148438 40.75 61.148438 C 38.5 61.148438 37.5 63.316406 37.5 65.722656 C 37.5 68.128906 38.5 70.054688 40.75 70.054688 C 42 70.054688 43.25 68.609375 43.75 67.648438 C 44 67.40625 44 67.648438 44 67.890625 C 43.75 69.816406 43.75 70.296875 43.5 71.742188 C 43.25 73.183594 42.5 75.832031 42.5 75.832031 C 43.75 75.351562 46.25 75.351562 47.5 75.832031 C 47.5 75.832031 46.75 73.183594 46.5 71.742188 C 46.25 70.296875 46.25 69.816406 46 67.890625 C 46 67.648438 46 67.40625 46.25 67.648438 Z M 46.25 67.648438 "/>
<path style=" stroke:none;fill-rule:nonzero;fill:rgb(0%,0%,0%);fill-opacity:1;" d="M 46.25 105.683594 C 46.75 104.722656 48 103.277344 49.25 103.277344 C 51.5 103.277344 52.5 105.203125 52.5 107.609375 C 52.5 110.019531 51.5 112.183594 49.25 112.183594 C 48 112.183594 47.25 110.980469 46.5 110.257812 C 46.25 110.019531 46 110.257812 46.25 110.5 C 47 111.222656 48.25 113.148438 48.25 114.832031 C 48.25 116.757812 47 119.167969 45 119.167969 C 43 119.167969 41.75 116.757812 41.75 114.832031 C 41.75 113.148438 43 111.222656 43.75 110.5 C 44 110.257812 43.75 110.019531 43.5 110.257812 C 42.75 110.980469 42 112.183594 40.75 112.183594 C 38.5 112.183594 37.5 110.019531 37.5 107.609375 C 37.5 105.203125 38.5 103.277344 40.75 103.277344 C 42 103.277344 43.25 104.722656 43.75 105.683594 C 44 105.925781 44 105.683594 44 105.445312 C 43.75 103.519531 43.75 103.035156 43.5 101.59375 C 43.25 100.148438 42.5 97.5 42.5 97.5 C 43.75 97.980469 46.25 97.980469 47.5 97.5 C 47.5 97.5 46.75 100.148438 46.5 101.59375 C 46.25 103.035156 46.25 103.519531 46 105.445312 C 46 105.683594 46 105.925781 46.25 105.683594 Z M 46.25 105.683594 "/>
<path style=" stroke:none;fill-rule:nonzero;fill:rgb(0%,0%,0%);fill-opacity:1;" d="M 8.125 28.40625 C 8.375 28.890625 9 29.609375 9.625 29.609375 C 10.75 29.609375 11.25 28.648438 11.25 27.445312 C 11.25 26.242188 10.75 25.15625 9.625 25.15625 C 9 25.15625 8.625 25.757812 8.25 26.121094 C 8.125 26.242188 8 26.121094 8.125 26 C 8.5 25.640625 9.125 24.675781 9.125 23.832031 C 9.125 22.871094 8.5 21.667969 7.5 21.667969 C 6.5 21.667969 5.875 22.871094 5.875 23.832031 C 5.875 24.675781 6.5 25.640625 6.875 26 C 7 26.121094 6.875 26.242188 6.75 26.121094 C 6.375 25.757812 6 25.15625 5.375 25.15625 C 4.25 25.15625 3.75 26.242188 3.75 27.445312 C 3.75 28.648438 4.25 29.609375 5.375 29.609375 C 6 29.609375 6.625 28.890625 6.875 28.40625 C 7 28.285156 7 28.40625 7 28.527344 C 6.875 29.492188 6.875 29.730469 6.75 30.453125 C 6.625 31.175781 6.25 32.5 6.25 32.5 C 6.875 32.257812 8.125 32.257812 8.75 32.5 C 8.75 32.5 8.375 31.175781 8.25 30.453125 C 8.125 29.730469 8.125 29.492188 8 28.527344 C 8 28.40625 8 28.285156 8.125 28.40625 Z M 8.125 28.40625 "/>
<path style=" stroke:none;fill-rule:nonzero;fill:rgb(0%,0%,0%);fill-opacity:1;" d="M 83.125 101.59375 C 83.375 101.109375 84 100.390625 84.625 100.390625 C 85.75 100.390625 86.25 101.351562 86.25 102.554688 C 86.25 103.757812 85.75 104.84375 84.625 104.84375 C 84 104.84375 83.625 104.242188 83.25 103.878906 C 83.125 103.757812 83 103.878906 83.125 104 C 83.5 104.359375 84.125 105.324219 84.125 106.167969 C 84.125 107.128906 83.5 108.332031 82.5 108.332031 C 81.5 108.332031 80.875 107.128906 80.875 106.167969 C 80.875 105.324219 81.5 104.359375 81.875 104 C 82 103.878906 81.875 103.757812 81.75 103.878906 C 81.375 104.242188 81 104.84375 80.375 104.84375 C 79.25 104.84375 78.75 103.757812 78.75 102.554688 C 78.75 101.351562 79.25 100.390625 80.375 100.390625 C 81 100.390625 81.625 101.109375 81.875 101.59375 C 82 101.714844 82 101.59375 82 101.472656 C 81.875 100.507812 81.875 100.269531 81.75 99.546875 C 81.625 98.824219 81.25 97.5 81.25 97.5 C 81.875 97.742188 83.125 97.742188 83.75 97.5 C 83.75 97.5 83.375 98.824219 83.25 99.546875 C 83.125 100.269531 83.125 100.507812 83 101.472656 C 83 101.59375 83 101.714844 83.125 101.59375 Z M 83.125 101.59375 "/>
</g>
</svg>
