<?xml version="1.0" encoding="UTF-8"?>
<svg xmlns="http://www.w3.org/2000/svg" xmlns:xlink="http://www.w3.org/1999/xlink" width="87pt" height="130pt" viewBox="0 0 87 130" version="1.1">
<g id="surface1">
<path style="fill-rule:nonzero;fill:rgb(100%,100%,100%);fill-opacity:1;stroke-width:1;stroke-linecap:butt;stroke-linejoin:miter;stroke:rgb(0%,0%,0%);stroke-opacity:1;stroke-miterlimit:4;" d="M 30.436422 512.865205 L 329.563578 512.865205 C 346.099138 512.865205 359.498922 526.267849 359.498922 542.802104 L 359.498922 1021.922296 C 359.498922 1038.456551 346.099138 1051.859195 329.563578 1051.859195 L 30.436422 1051.859195 C 13.900862 1051.859195 0.501078 1038.456551 0.501078 1021.922296 L 0.501078 542.802104 C 0.501078 526.267849 13.900862 512.865205 30.436422 512.865205 Z M 30.436422 512.865205 " transform="matrix(0.241667,0,0,0.240741,0,-123.346456)"/>
<path style=" stroke:none;fill-rule:nonzero;fill:rgb(0%,0%,0%);fill-opacity:1;" d="M 7.25 7.222656 C 5.910156 7.222656 4.832031 8.296875 4.832031 9.628906 L 4.832031 10.832031 C 4.832031 11.554688 5.152344 12.199219 5.65625 12.640625 C 5.152344 13.078125 4.832031 13.722656 4.832031 14.445312 L 4.832031 16.851562 C 4.832031 18.183594 5.910156 19.257812 7.25 19.257812 C 8.589844 19.257812 9.667969 18.183594 9.667969 16.851562 L 9.667969 14.445312 C 9.667969 13.722656 9.347656 13.078125 8.84375 12.640625 C 9.347656 12.199219 9.667969 11.554688 9.667969 10.832031 L 9.667969 9.628906 C 9.667969 8.296875 8.589844 7.222656 7.25 7.222656 Z M 7.25 8.425781 C 7.917969 8.425781 8.457031 8.960938 8.457031 9.628906 L 8.457031 10.832031 C 8.457031 11.5 7.917969 12.035156 7.25 12.035156 C 6.582031 12.035156 6.042969 11.5 6.042969 10.832031 L 6.042969 9.628906 C 6.042969 8.960938 6.582031 8.425781 7.25 8.425781 Z M 7.25 13.242188 C 7.917969 13.242188 8.457031 13.777344 8.457031 14.445312 L 8.457031 16.851562 C 8.457031 17.519531 7.917969 18.054688 7.25 18.054688 C 6.582031 18.054688 6.042969 17.519531 6.042969 16.851562 L 6.042969 14.445312 C 6.042969 13.777344 6.582031 13.242188 7.25 13.242188 Z M 7.25 13.242188 "/>
<path style=" stroke:none;fill-rule:nonzero;fill:rgb(0%,0%,0%);fill-opacity:1;" d="M 79.75 122.777344 C 78.410156 122.777344 77.332031 121.703125 77.332031 120.371094 L 77.332031 119.167969 C 77.332031 118.445312 77.652344 117.800781 78.15625 117.359375 C 77.652344 116.921875 77.332031 116.277344 77.332031 115.554688 L 77.332031 113.148438 C 77.332031 111.8125 78.410156 110.742188 79.75 110.742188 C 81.089844 110.742188 82.167969 111.8125 82.167969 113.148438 L 82.167969 115.554688 C 82.167969 116.277344 81.847656 116.921875 81.34375 117.359375 C 81.847656 117.800781 82.167969 118.445312 82.167969 119.167969 L 82.167969 120.371094 C 82.167969 121.703125 81.089844 122.777344 79.75 122.777344 Z M 79.75 121.574219 C 80.417969 121.574219 80.957031 121.039062 80.957031 120.371094 L 80.957031 119.167969 C 80.957031 118.5 80.417969 117.964844 79.75 117.964844 C 79.082031 117.964844 78.542969 118.5 78.542969 119.167969 L 78.542969 120.371094 C 78.542969 121.039062 79.082031 121.574219 79.75 121.574219 Z M 79.75 116.757812 C 80.417969 116.757812 80.957031 116.222656 80.957031 115.554688 L 80.957031 113.148438 C 80.957031 112.480469 80.417969 111.945312 79.75 111.945312 C 79.082031 111.945312 78.542969 112.480469 78.542969 113.148438 L 78.542969 115.554688 C 78.542969 116.222656 79.082031 116.757812 79.75 116.757812 Z M 79.75 116.757812 "/>
<path style=" stroke:none;fill-rule:nonzero;fill:rgb(0%,0%,0%);fill-opacity:1;" d="M 7.855469 28.40625 C 8.097656 28.890625 8.699219 29.609375 9.304688 29.609375 C 10.390625 29.609375 10.875 28.648438 10.875 27.445312 C 10.875 26.242188 10.390625 25.15625 9.304688 25.15625 C 8.699219 25.15625 8.335938 25.757812 7.976562 26.121094 C 7.855469 26.242188 7.734375 26.121094 7.855469 26 C 8.214844 25.640625 8.820312 24.675781 8.820312 23.832031 C 8.820312 22.871094 8.214844 21.667969 7.25 21.667969 C 6.285156 21.667969 5.679688 22.871094 5.679688 23.832031 C 5.679688 24.675781 6.285156 25.640625 6.644531 26 C 6.765625 26.121094 6.644531 26.242188 6.523438 26.121094 C 6.164062 25.757812 5.800781 25.15625 5.195312 25.15625 C 4.109375 25.15625 3.625 26.242188 3.625 27.445312 C 3.625 28.648438 4.109375 29.609375 5.195312 29.609375 C 5.800781 29.609375 6.402344 28.890625 6.644531 28.40625 C 6.765625 28.285156 6.765625 28.40625 6.765625 28.527344 C 6.644531 29.492188 6.644531 29.730469 6.523438 30.453125 C 6.402344 31.175781 6.042969 32.5 6.042969 32.5 C 6.644531 32.257812 7.855469 32.257812 8.457031 32.5 C 8.457031 32.5 8.097656 31.175781 7.976562 30.453125 C 7.855469 29.730469 7.855469 29.492188 7.734375 28.527344 C 7.734375 28.40625 7.734375 28.285156 7.855469 28.40625 Z M 7.855469 28.40625 "/>
<path style=" stroke:none;fill-rule:nonzero;fill:rgb(0%,0%,0%);fill-opacity:1;" d="M 80.355469 101.59375 C 80.597656 101.109375 81.199219 100.390625 81.804688 100.390625 C 82.890625 100.390625 83.375 101.351562 83.375 102.554688 C 83.375 103.757812 82.890625 104.84375 81.804688 104.84375 C 81.199219 104.84375 80.835938 104.242188 80.476562 103.878906 C 80.355469 103.757812 80.234375 103.878906 80.355469 104 C 80.714844 104.359375 81.320312 105.324219 81.320312 106.167969 C 81.320312 107.128906 80.714844 108.332031 79.75 108.332031 C 78.785156 108.332031 78.179688 107.128906 78.179688 106.167969 C 78.179688 105.324219 78.785156 104.359375 79.144531 104 C 79.265625 103.878906 79.144531 103.757812 79.023438 103.878906 C 78.664062 104.242188 78.300781 104.84375 77.695312 104.84375 C 76.609375 104.84375 76.125 103.757812 76.125 102.554688 C 76.125 101.351562 76.609375 100.390625 77.695312 100.390625 C 78.300781 100.390625 78.902344 101.109375 79.144531 101.59375 C 79.265625 101.714844 79.265625 101.59375 79.265625 101.472656 C 79.144531 100.507812 79.144531 100.269531 79.023438 99.546875 C 78.902344 98.824219 78.542969 97.5 78.542969 97.5 C 79.144531 97.742188 80.355469 97.742188 80.957031 97.5 C 80.957031 97.5 80.597656 98.824219 80.476562 99.546875 C 80.355469 100.269531 80.355469 100.507812 80.234375 101.472656 C 80.234375 101.59375 80.234375 101.714844 80.355469 101.59375 Z M 80.355469 101.59375 "/>
<path style=" stroke:none;fill-rule:nonzero;fill:rgb(0%,0%,0%);fill-opacity:1;" d="M 22.957031 24.316406 C 23.441406 25.277344 24.648438 26.722656 25.859375 26.722656 C 28.035156 26.722656 29 24.796875 29 22.390625 C 29 19.980469 28.035156 17.816406 25.859375 17.816406 C 24.648438 17.816406 23.925781 19.019531 23.199219 19.742188 C 22.957031 19.980469 22.714844 19.742188 22.957031 19.5 C 23.683594 18.777344 24.890625 16.851562 24.890625 15.167969 C 24.890625 13.242188 23.683594 10.832031 21.75 10.832031 C 19.816406 10.832031 18.609375 13.242188 18.609375 15.167969 C 18.609375 16.851562 19.816406 18.777344 20.542969 19.5 C 20.785156 19.742188 20.542969 19.980469 20.300781 19.742188 C 19.574219 19.019531 18.851562 17.816406 17.640625 17.816406 C 15.464844 17.816406 14.5 19.980469 14.5 22.390625 C 14.5 24.796875 15.464844 26.722656 17.640625 26.722656 C 18.851562 26.722656 20.058594 25.277344 20.542969 24.316406 C 20.785156 24.074219 20.785156 24.316406 20.785156 24.554688 C 20.542969 26.480469 20.542969 26.964844 20.300781 28.40625 C 20.058594 29.851562 19.332031 32.5 19.332031 32.5 C 20.542969 32.019531 22.957031 32.019531 24.167969 32.5 C 24.167969 32.5 23.441406 29.851562 23.199219 28.40625 C 22.957031 26.964844 22.957031 26.480469 22.714844 24.554688 C 22.714844 24.316406 22.714844 24.074219 22.957031 24.316406 Z M 22.957031 24.316406 "/>
<path style=" stroke:none;fill-rule:nonzero;fill:rgb(0%,0%,0%);fill-opacity:1;" d="M 66.457031 24.316406 C 66.941406 25.277344 68.148438 26.722656 69.359375 26.722656 C 71.535156 26.722656 72.5 24.796875 72.5 22.390625 C 72.5 19.980469 71.535156 17.816406 69.359375 17.816406 C 68.148438 17.816406 67.425781 19.019531 66.699219 19.742188 C 66.457031 19.980469 66.214844 19.742188 66.457031 19.5 C 67.183594 18.777344 68.390625 16.851562 68.390625 15.167969 C 68.390625 13.242188 67.183594 10.832031 65.25 10.832031 C 63.316406 10.832031 62.109375 13.242188 62.109375 15.167969 C 62.109375 16.851562 63.316406 18.777344 64.042969 19.5 C 64.285156 19.742188 64.042969 19.980469 63.800781 19.742188 C 63.074219 19.019531 62.351562 17.816406 61.140625 17.816406 C 58.964844 17.816406 58 19.980469 58 22.390625 C 58 24.796875 58.964844 26.722656 61.140625 26.722656 C 62.351562 26.722656 63.558594 25.277344 64.042969 24.316406 C 64.285156 24.074219 64.285156 24.316406 64.285156 24.554688 C 64.042969 26.480469 64.042969 26.964844 63.800781 28.40625 C 63.558594 29.851562 62.832031 32.5 62.832031 32.5 C 64.042969 32.019531 66.457031 32.019531 67.667969 32.5 C 67.667969 32.5 66.941406 29.851562 66.699219 28.40625 C 66.457031 26.964844 66.457031 26.480469 66.214844 24.554688 C 66.214844 24.316406 66.214844 24.074219 66.457031 24.316406 Z M 66.457031 24.316406 "/>
<path style=" stroke:none;fill-rule:nonzero;fill:rgb(0%,0%,0%);fill-opacity:1;" d="M 44.707031 45.980469 C 45.191406 46.945312 46.398438 48.390625 47.609375 48.390625 C 49.785156 48.390625 50.75 46.464844 50.75 44.054688 C 50.75 41.648438 49.785156 39.480469 47.609375 39.480469 C 46.398438 39.480469 45.675781 40.683594 44.949219 41.40625 C 44.707031 41.648438 44.464844 41.40625 44.707031 41.167969 C 45.433594 40.445312 46.640625 38.519531 46.640625 36.832031 C 46.640625 34.90625 45.433594 32.5 43.5 32.5 C 41.566406 32.5 40.359375 34.90625 40.359375 36.832031 C 40.359375 38.519531 41.566406 40.445312 42.292969 41.167969 C 42.535156 41.40625 42.292969 41.648438 42.050781 41.40625 C 41.324219 40.683594 40.601562 39.480469 39.390625 39.480469 C 37.214844 39.480469 36.25 41.648438 36.25 44.054688 C 36.25 46.464844 37.214844 48.390625 39.390625 48.390625 C 40.601562 48.390625 41.808594 46.945312 42.292969 45.980469 C 42.535156 45.742188 42.535156 45.980469 42.535156 46.222656 C 42.292969 48.148438 42.292969 48.628906 42.050781 50.074219 C 41.808594 51.519531 41.082031 54.167969 41.082031 54.167969 C 42.292969 53.683594 44.707031 53.683594 45.917969 54.167969 C 45.917969 54.167969 45.191406 51.519531 44.949219 50.074219 C 44.707031 48.628906 44.707031 48.148438 44.464844 46.222656 C 44.464844 45.980469 44.464844 45.742188 44.707031 45.980469 Z M 44.707031 45.980469 "/>
<path style=" stroke:none;fill-rule:nonzero;fill:rgb(0%,0%,0%);fill-opacity:1;" d="M 22.957031 67.648438 C 23.441406 68.609375 24.648438 70.054688 25.859375 70.054688 C 28.035156 70.054688 29 68.128906 29 65.722656 C 29 63.316406 28.035156 61.148438 25.859375 61.148438 C 24.648438 61.148438 23.925781 62.351562 23.199219 63.074219 C 22.957031 63.316406 22.714844 63.074219 22.957031 62.832031 C 23.683594 62.109375 24.890625 60.183594 24.890625 58.5 C 24.890625 56.574219 23.683594 54.167969 21.75 54.167969 C 19.816406 54.167969 18.609375 56.574219 18.609375 58.5 C 18.609375 60.183594 19.816406 62.109375 20.542969 62.832031 C 20.785156 63.074219 20.542969 63.316406 20.300781 63.074219 C 19.574219 62.351562 18.851562 61.148438 17.640625 61.148438 C 15.464844 61.148438 14.5 63.316406 14.5 65.722656 C 14.5 68.128906 15.464844 70.054688 17.640625 70.054688 C 18.851562 70.054688 20.058594 68.609375 20.542969 67.648438 C 20.785156 67.40625 20.785156 67.648438 20.785156 67.890625 C 20.542969 69.816406 20.542969 70.296875 20.300781 71.742188 C 20.058594 73.183594 19.332031 75.832031 19.332031 75.832031 C 20.542969 75.351562 22.957031 75.351562 24.167969 75.832031 C 24.167969 75.832031 23.441406 73.183594 23.199219 71.742188 C 22.957031 70.296875 22.957031 69.816406 22.714844 67.890625 C 22.714844 67.648438 22.714844 67.40625 22.957031 67.648438 Z M 22.957031 67.648438 "/>
<path style=" stroke:none;fill-rule:nonzero;fill:rgb(0%,0%,0%);fill-opacity:1;" d="M 66.457031 67.648438 C 66.941406 68.609375 68.148438 70.054688 69.359375 70.054688 C 71.535156 70.054688 72.5 68.128906 72.5 65.722656 C 72.5 63.316406 71.535156 61.148438 69.359375 61.148438 C 68.148438 61.148438 67.425781 62.351562 66.699219 63.074219 C 66.457031 63.316406 66.214844 63.074219 66.457031 62.832031 C 67.183594 62.109375 68.390625 60.183594 68.390625 58.5 C 68.390625 56.574219 67.183594 54.167969 65.25 54.167969 C 63.316406 54.167969 62.109375 56.574219 62.109375 58.5 C 62.109375 60.183594 63.316406 62.109375 64.042969 62.832031 C 64.285156 63.074219 64.042969 63.316406 63.800781 63.074219 C 63.074219 62.351562 62.351562 61.148438 61.140625 61.148438 C 58.964844 61.148438 58 63.316406 58 65.722656 C 58 68.128906 58.964844 70.054688 61.140625 70.054688 C 62.351562 70.054688 63.558594 68.609375 64.042969 67.648438 C 64.285156 67.40625 64.285156 67.648438 64.285156 67.890625 C 64.042969 69.816406 64.042969 70.296875 63.800781 71.742188 C 63.558594 73.183594 62.832031 75.832031 62.832031 75.832031 C 64.042969 75.351562 66.457031 75.351562 67.667969 75.832031 C 67.667969 75.832031 66.941406 73.183594 66.699219 71.742188 C 66.457031 70.296875 66.457031 69.816406 66.214844 67.890625 C 66.214844 67.648438 66.214844 67.40625 66.457031 67.648438 Z M 66.457031 67.648438 "/>
<path style=" stroke:none;fill-rule:nonzero;fill:rgb(0%,0%,0%);fill-opacity:1;" d="M 44.707031 84.019531 C 45.191406 83.054688 46.398438 81.609375 47.609375 81.609375 C 49.785156 81.609375 50.75 83.535156 50.75 85.945312 C 50.75 88.351562 49.785156 90.519531 47.609375 90.519531 C 46.398438 90.519531 45.675781 89.316406 44.949219 88.59375 C 44.707031 88.351562 44.464844 88.59375 44.707031 88.832031 C 45.433594 89.554688 46.640625 91.480469 46.640625 93.167969 C 46.640625 95.09375 45.433594 97.5 43.5 97.5 C 41.566406 97.5 40.359375 95.09375 40.359375 93.167969 C 40.359375 91.480469 41.566406 89.554688 42.292969 88.832031 C 42.535156 88.59375 42.292969 88.351562 42.050781 88.59375 C 41.324219 89.316406 40.601562 90.519531 39.390625 90.519531 C 37.214844 90.519531 36.25 88.351562 36.25 85.945312 C 36.25 83.535156 37.214844 81.609375 39.390625 81.609375 C 40.601562 81.609375 41.808594 83.054688 42.292969 84.019531 C 42.535156 84.257812 42.535156 84.019531 42.535156 83.777344 C 42.292969 81.851562 42.292969 81.371094 42.050781 79.925781 C 41.808594 78.480469 41.082031 75.832031 41.082031 75.832031 C 42.292969 76.316406 44.707031 76.316406 45.917969 75.832031 C 45.917969 75.832031 45.191406 78.480469 44.949219 79.925781 C 44.707031 81.371094 44.707031 81.851562 44.464844 83.777344 C 44.464844 84.019531 44.464844 84.257812 44.707031 84.019531 Z M 44.707031 84.019531 "/>
<path style=" stroke:none;fill-rule:nonzero;fill:rgb(0%,0%,0%);fill-opacity:1;" d="M 22.957031 105.683594 C 23.441406 104.722656 24.648438 103.277344 25.859375 103.277344 C 28.035156 103.277344 29 105.203125 29 107.609375 C 29 110.019531 28.035156 112.183594 25.859375 112.183594 C 24.648438 112.183594 23.925781 110.980469 23.199219 110.257812 C 22.957031 110.019531 22.714844 110.257812 22.957031 110.5 C 23.683594 111.222656 24.890625 113.148438 24.890625 114.832031 C 24.890625 116.757812 23.683594 119.167969 21.75 119.167969 C 19.816406 119.167969 18.609375 116.757812 18.609375 114.832031 C 18.609375 113.148438 19.816406 111.222656 20.542969 110.5 C 20.785156 110.257812 20.542969 110.019531 20.300781 110.257812 C 19.574219 110.980469 18.851562 112.183594 17.640625 112.183594 C 15.464844 112.183594 14.5 110.019531 14.5 107.609375 C 14.5 105.203125 15.464844 103.277344 17.640625 103.277344 C 18.851562 103.277344 20.058594 104.722656 20.542969 105.683594 C 20.785156 105.925781 20.785156 105.683594 20.785156 105.445312 C 20.542969 103.519531 20.542969 103.035156 20.300781 101.59375 C 20.058594 100.148438 19.332031 97.5 19.332031 97.5 C 20.542969 97.980469 22.957031 97.980469 24.167969 97.5 C 24.167969 97.5 23.441406 100.148438 23.199219 101.59375 C 22.957031 103.035156 22.957031 103.519531 22.714844 105.445312 C 22.714844 105.683594 22.714844 105.925781 22.957031 105.683594 Z M 22.957031 105.683594 "/>
<path style=" stroke:none;fill-rule:nonzero;fill:rgb(0%,0%,0%);fill-opacity:1;" d="M 66.457031 105.683594 C 66.941406 104.722656 68.148438 103.277344 69.359375 103.277344 C 71.535156 103.277344 72.5 105.203125 72.5 107.609375 C 72.5 110.019531 71.535156 112.183594 69.359375 112.183594 C 68.148438 112.183594 67.425781 110.980469 66.699219 110.257812 C 66.457031 110.019531 66.214844 110.257812 66.457031 110.5 C 67.183594 111.222656 68.390625 113.148438 68.390625 114.832031 C 68.390625 116.757812 67.183594 119.167969 65.25 119.167969 C 63.316406 119.167969 62.109375 116.757812 62.109375 114.832031 C 62.109375 113.148438 63.316406 111.222656 64.042969 110.5 C 64.285156 110.257812 64.042969 110.019531 63.800781 110.257812 C 63.074219 110.980469 62.351562 112.183594 61.140625 112.183594 C 58.964844 112.183594 58 110.019531 58 107.609375 C 58 105.203125 58.964844 103.277344 61.140625 103.277344 C 62.351562 103.277344 63.558594 104.722656 64.042969 105.683594 C 64.285156 105.925781 64.285156 105.683594 64.285156 105.445312 C 64.042969 103.519531 64.042969 103.035156 63.800781 101.59375 C 63.558594 100.148438 62.832031 97.5 62.832031 97.5 C 64.042969 97.980469 66.457031 97.980469 67.667969 97.5 C 67.667969 97.5 66.941406 100.148438 66.699219 101.59375 C 66.457031 103.035156 66.457031 103.519531 66.214844 105.445312 C 66.214844 105.683594 66.214844 105.925781 66.457031 105.683594 Z M 66.457031 105.683594 "/>
</g>
</svg>
