<?xml version="1.0" encoding="UTF-8"?>
<svg xmlns="http://www.w3.org/2000/svg" xmlns:xlink="http://www.w3.org/1999/xlink" width="90px" height="130px" viewBox="0 0 90 130" version="1.1">
<g id="surface1">
<path style="fill-rule:nonzero;fill:rgb(100%,100%,100%);fill-opacity:1;stroke-width:1;stroke-linecap:butt;stroke-linejoin:miter;stroke:rgb(0%,0%,0%);stroke-opacity:1;stroke-miterlimit:4;" d="M 30.4375 512.865218 L 329.5625 512.865218 C 346.09375 512.865218 359.5 526.267862 359.5 542.802117 L 359.5 1021.922309 C 359.5 1038.456564 346.09375 1051.859208 329.5625 1051.859208 L 30.4375 1051.859208 C 13.90625 1051.859208 0.5 1038.456564 0.5 1021.922309 L 0.5 542.802117 C 0.5 526.267862 13.90625 512.865218 30.4375 512.865218 Z M 30.4375 512.865218 " transform="matrix(0.25,0,0,0.240741,0,-123.346459)"/>
<path style=" stroke:none;fill-rule:nonzero;fill:rgb(0%,0%,0%);fill-opacity:1;" d="M 5 7.222656 L 5 9.628906 L 6.25 9.628906 L 6.25 8.425781 L 8.75 8.425781 L 6.25 19.257812 L 7.5 19.257812 L 10 8.425781 L 10 7.222656 Z M 5 7.222656 "/>
<path style=" stroke:none;fill-rule:nonzero;fill:rgb(0%,0%,0%);fill-opacity:1;" d="M 85 122.777344 L 85 120.371094 L 83.75 120.371094 L 83.75 121.574219 L 81.25 121.574219 L 83.75 110.742188 L 82.5 110.742188 L 80 121.574219 L 80 122.777344 Z M 85 122.777344 "/>
<path style=" stroke:none;fill-rule:nonzero;fill:rgb(0%,0%,0%);fill-opacity:1;" d="M 8.125 28.40625 C 8.375 28.890625 9 29.609375 9.625 29.609375 C 10.75 29.609375 11.25 28.648438 11.25 27.445312 C 11.25 26.242188 10.75 25.15625 9.625 25.15625 C 9 25.15625 8.625 25.757812 8.25 26.121094 C 8.125 26.242188 8 26.121094 8.125 26 C 8.5 25.640625 9.125 24.675781 9.125 23.832031 C 9.125 22.871094 8.5 21.667969 7.5 21.667969 C 6.5 21.667969 5.875 22.871094 5.875 23.832031 C 5.875 24.675781 6.5 25.640625 6.875 26 C 7 26.121094 6.875 26.242188 6.75 26.121094 C 6.375 25.757812 6 25.15625 5.375 25.15625 C 4.25 25.15625 3.75 26.242188 3.75 27.445312 C 3.75 28.648438 4.25 29.609375 5.375 29.609375 C 6 29.609375 6.625 28.890625 6.875 28.40625 C 7 28.285156 7 28.40625 7 28.527344 C 6.875 29.492188 6.875 29.730469 6.75 30.453125 C 6.625 31.175781 6.25 32.5 6.25 32.5 C 6.875 32.257812 8.125 32.257812 8.75 32.5 C 8.75 32.5 8.375 31.175781 8.25 30.453125 C 8.125 29.730469 8.125 29.492188 8 28.527344 C 8 28.40625 8 28.285156 8.125 28.40625 Z M 8.125 28.40625 "/>
<path style=" stroke:none;fill-rule:nonzero;fill:rgb(0%,0%,0%);fill-opacity:1;" d="M 83.125 101.59375 C 83.375 101.109375 84 100.390625 84.625 100.390625 C 85.75 100.390625 86.25 101.351562 86.25 102.554688 C 86.25 103.757812 85.75 104.84375 84.625 104.84375 C 84 104.84375 83.625 104.242188 83.25 103.878906 C 83.125 103.757812 83 103.878906 83.125 104 C 83.5 104.359375 84.125 105.324219 84.125 106.167969 C 84.125 107.128906 83.5 108.332031 82.5 108.332031 C 81.5 108.332031 80.875 107.128906 80.875 106.167969 C 80.875 105.324219 81.5 104.359375 81.875 104 C 82 103.878906 81.875 103.757812 81.75 103.878906 C 81.375 104.242188 81 104.84375 80.375 104.84375 C 79.25 104.84375 78.75 103.757812 78.75 102.554688 C 78.75 101.351562 79.25 100.390625 80.375 100.390625 C 81 100.390625 81.625 101.109375 81.875 101.59375 C 82 101.714844 82 101.59375 82 101.472656 C 81.875 100.507812 81.875 100.269531 81.75 99.546875 C 81.625 98.824219 81.25 97.5 81.25 97.5 C 81.875 97.742188 83.125 97.742188 83.75 97.5 C 83.75 97.5 83.375 98.824219 83.25 99.546875 C 83.125 100.269531 83.125 100.507812 83 101.472656 C 83 101.59375 83 101.714844 83.125 101.59375 Z M 83.125 101.59375 "/>
<path style=" stroke:none;fill-rule:nonzero;fill:rgb(0%,0%,0%);fill-opacity:1;" d="M 23.75 24.316406 C 24.25 25.277344 25.5 26.722656 26.75 26.722656 C 29 26.722656 30 24.796875 30 22.390625 C 30 19.980469 29 17.816406 26.75 17.816406 C 25.5 17.816406 24.75 19.019531 24 19.742188 C 23.75 19.980469 23.5 19.742188 23.75 19.5 C 24.5 18.777344 25.75 16.851562 25.75 15.167969 C 25.75 13.242188 24.5 10.832031 22.5 10.832031 C 20.5 10.832031 19.25 13.242188 19.25 15.167969 C 19.25 16.851562 20.5 18.777344 21.25 19.5 C 21.5 19.742188 21.25 19.980469 21 19.742188 C 20.25 19.019531 19.5 17.816406 18.25 17.816406 C 16 17.816406 15 19.980469 15 22.390625 C 15 24.796875 16 26.722656 18.25 26.722656 C 19.5 26.722656 20.75 25.277344 21.25 24.316406 C 21.5 24.074219 21.5 24.316406 21.5 24.554688 C 21.25 26.480469 21.25 26.964844 21 28.40625 C 20.75 29.851562 20 32.5 20 32.5 C 21.25 32.019531 23.75 32.019531 25 32.5 C 25 32.5 24.25 29.851562 24 28.40625 C 23.75 26.964844 23.75 26.480469 23.5 24.554688 C 23.5 24.316406 23.5 24.074219 23.75 24.316406 Z M 23.75 24.316406 "/>
<path style=" stroke:none;fill-rule:nonzero;fill:rgb(0%,0%,0%);fill-opacity:1;" d="M 68.75 24.316406 C 69.25 25.277344 70.5 26.722656 71.75 26.722656 C 74 26.722656 75 24.796875 75 22.390625 C 75 19.980469 74 17.816406 71.75 17.816406 C 70.5 17.816406 69.75 19.019531 69 19.742188 C 68.75 19.980469 68.5 19.742188 68.75 19.5 C 69.5 18.777344 70.75 16.851562 70.75 15.167969 C 70.75 13.242188 69.5 10.832031 67.5 10.832031 C 65.5 10.832031 64.25 13.242188 64.25 15.167969 C 64.25 16.851562 65.5 18.777344 66.25 19.5 C 66.5 19.742188 66.25 19.980469 66 19.742188 C 65.25 19.019531 64.5 17.816406 63.25 17.816406 C 61 17.816406 60 19.980469 60 22.390625 C 60 24.796875 61 26.722656 63.25 26.722656 C 64.5 26.722656 65.75 25.277344 66.25 24.316406 C 66.5 24.074219 66.5 24.316406 66.5 24.554688 C 66.25 26.480469 66.25 26.964844 66 28.40625 C 65.75 29.851562 65 32.5 65 32.5 C 66.25 32.019531 68.75 32.019531 70 32.5 C 70 32.5 69.25 29.851562 69 28.40625 C 68.75 26.964844 68.75 26.480469 68.5 24.554688 C 68.5 24.316406 68.5 24.074219 68.75 24.316406 Z M 68.75 24.316406 "/>
<path style=" stroke:none;fill-rule:nonzero;fill:rgb(0%,0%,0%);fill-opacity:1;" d="M 46.25 45.980469 C 46.75 46.945312 48 48.390625 49.25 48.390625 C 51.5 48.390625 52.5 46.464844 52.5 44.054688 C 52.5 41.648438 51.5 39.480469 49.25 39.480469 C 48 39.480469 47.25 40.683594 46.5 41.40625 C 46.25 41.648438 46 41.40625 46.25 41.167969 C 47 40.445312 48.25 38.519531 48.25 36.832031 C 48.25 34.90625 47 32.5 45 32.5 C 43 32.5 41.75 34.90625 41.75 36.832031 C 41.75 38.519531 43 40.445312 43.75 41.167969 C 44 41.40625 43.75 41.648438 43.5 41.40625 C 42.75 40.683594 42 39.480469 40.75 39.480469 C 38.5 39.480469 37.5 41.648438 37.5 44.054688 C 37.5 46.464844 38.5 48.390625 40.75 48.390625 C 42 48.390625 43.25 46.945312 43.75 45.980469 C 44 45.742188 44 45.980469 44 46.222656 C 43.75 48.148438 43.75 48.628906 43.5 50.074219 C 43.25 51.519531 42.5 54.167969 42.5 54.167969 C 43.75 53.683594 46.25 53.683594 47.5 54.167969 C 47.5 54.167969 46.75 51.519531 46.5 50.074219 C 46.25 48.628906 46.25 48.148438 46 46.222656 C 46 45.980469 46 45.742188 46.25 45.980469 Z M 46.25 45.980469 "/>
<path style=" stroke:none;fill-rule:nonzero;fill:rgb(0%,0%,0%);fill-opacity:1;" d="M 23.75 67.648438 C 24.25 68.609375 25.5 70.054688 26.75 70.054688 C 29 70.054688 30 68.128906 30 65.722656 C 30 63.316406 29 61.148438 26.75 61.148438 C 25.5 61.148438 24.75 62.351562 24 63.074219 C 23.75 63.316406 23.5 63.074219 23.75 62.832031 C 24.5 62.109375 25.75 60.183594 25.75 58.5 C 25.75 56.574219 24.5 54.167969 22.5 54.167969 C 20.5 54.167969 19.25 56.574219 19.25 58.5 C 19.25 60.183594 20.5 62.109375 21.25 62.832031 C 21.5 63.074219 21.25 63.316406 21 63.074219 C 20.25 62.351562 19.5 61.148438 18.25 61.148438 C 16 61.148438 15 63.316406 15 65.722656 C 15 68.128906 16 70.054688 18.25 70.054688 C 19.5 70.054688 20.75 68.609375 21.25 67.648438 C 21.5 67.40625 21.5 67.648438 21.5 67.890625 C 21.25 69.816406 21.25 70.296875 21 71.742188 C 20.75 73.183594 20 75.832031 20 75.832031 C 21.25 75.351562 23.75 75.351562 25 75.832031 C 25 75.832031 24.25 73.183594 24 71.742188 C 23.75 70.296875 23.75 69.816406 23.5 67.890625 C 23.5 67.648438 23.5 67.40625 23.75 67.648438 Z M 23.75 67.648438 "/>
<path style=" stroke:none;fill-rule:nonzero;fill:rgb(0%,0%,0%);fill-opacity:1;" d="M 68.75 67.648438 C 69.25 68.609375 70.5 70.054688 71.75 70.054688 C 74 70.054688 75 68.128906 75 65.722656 C 75 63.316406 74 61.148438 71.75 61.148438 C 70.5 61.148438 69.75 62.351562 69 63.074219 C 68.75 63.316406 68.5 63.074219 68.75 62.832031 C 69.5 62.109375 70.75 60.183594 70.75 58.5 C 70.75 56.574219 69.5 54.167969 67.5 54.167969 C 65.5 54.167969 64.25 56.574219 64.25 58.5 C 64.25 60.183594 65.5 62.109375 66.25 62.832031 C 66.5 63.074219 66.25 63.316406 66 63.074219 C 65.25 62.351562 64.5 61.148438 63.25 61.148438 C 61 61.148438 60 63.316406 60 65.722656 C 60 68.128906 61 70.054688 63.25 70.054688 C 64.5 70.054688 65.75 68.609375 66.25 67.648438 C 66.5 67.40625 66.5 67.648438 66.5 67.890625 C 66.25 69.816406 66.25 70.296875 66 71.742188 C 65.75 73.183594 65 75.832031 65 75.832031 C 66.25 75.351562 68.75 75.351562 70 75.832031 C 70 75.832031 69.25 73.183594 69 71.742188 C 68.75 70.296875 68.75 69.816406 68.5 67.890625 C 68.5 67.648438 68.5 67.40625 68.75 67.648438 Z M 68.75 67.648438 "/>
<path style=" stroke:none;fill-rule:nonzero;fill:rgb(0%,0%,0%);fill-opacity:1;" d="M 23.75 105.683594 C 24.25 104.722656 25.5 103.277344 26.75 103.277344 C 29 103.277344 30 105.203125 30 107.609375 C 30 110.019531 29 112.183594 26.75 112.183594 C 25.5 112.183594 24.75 110.980469 24 110.257812 C 23.75 110.019531 23.5 110.257812 23.75 110.5 C 24.5 111.222656 25.75 113.148438 25.75 114.832031 C 25.75 116.757812 24.5 119.167969 22.5 119.167969 C 20.5 119.167969 19.25 116.757812 19.25 114.832031 C 19.25 113.148438 20.5 111.222656 21.25 110.5 C 21.5 110.257812 21.25 110.019531 21 110.257812 C 20.25 110.980469 19.5 112.183594 18.25 112.183594 C 16 112.183594 15 110.019531 15 107.609375 C 15 105.203125 16 103.277344 18.25 103.277344 C 19.5 103.277344 20.75 104.722656 21.25 105.683594 C 21.5 105.925781 21.5 105.683594 21.5 105.445312 C 21.25 103.519531 21.25 103.035156 21 101.59375 C 20.75 100.148438 20 97.5 20 97.5 C 21.25 97.980469 23.75 97.980469 25 97.5 C 25 97.5 24.25 100.148438 24 101.59375 C 23.75 103.035156 23.75 103.519531 23.5 105.445312 C 23.5 105.683594 23.5 105.925781 23.75 105.683594 Z M 23.75 105.683594 "/>
<path style=" stroke:none;fill-rule:nonzero;fill:rgb(0%,0%,0%);fill-opacity:1;" d="M 68.75 105.683594 C 69.25 104.722656 70.5 103.277344 71.75 103.277344 C 74 103.277344 75 105.203125 75 107.609375 C 75 110.019531 74 112.183594 71.75 112.183594 C 70.5 112.183594 69.75 110.980469 69 110.257812 C 68.75 110.019531 68.5 110.257812 68.75 110.5 C 69.5 111.222656 70.75 113.148438 70.75 114.832031 C 70.75 116.757812 69.5 119.167969 67.5 119.167969 C 65.5 119.167969 64.25 116.757812 64.25 114.832031 C 64.25 113.148438 65.5 111.222656 66.25 110.5 C 66.5 110.257812 66.25 110.019531 66 110.257812 C 65.25 110.980469 64.5 112.183594 63.25 112.183594 C 61 112.183594 60 110.019531 60 107.609375 C 60 105.203125 61 103.277344 63.25 103.277344 C 64.5 103.277344 65.75 104.722656 66.25 105.683594 C 66.5 105.925781 66.5 105.683594 66.5 105.445312 C 66.25 103.519531 66.25 103.035156 66 101.59375 C 65.75 100.148438 65 97.5 65 97.5 C 66.25 97.980469 68.75 97.980469 70 97.5 C 70 97.5 69.25 100.148438 69 101.59375 C 68.75 103.035156 68.75 103.519531 68.5 105.445312 C 68.5 105.683594 68.5 105.925781 68.75 105.683594 Z M 68.75 105.683594 "/>
</g>
</svg>
