<?xml version="1.0" encoding="UTF-8"?>
<svg xmlns="http://www.w3.org/2000/svg" xmlns:xlink="http://www.w3.org/1999/xlink" width="87pt" height="130pt" viewBox="0 0 87 130" version="1.1">
<g id="surface1">
<path style="fill-rule:nonzero;fill:rgb(100%,100%,100%);fill-opacity:1;stroke-width:1;stroke-linecap:butt;stroke-linejoin:miter;stroke:rgb(0%,0%,0%);stroke-opacity:1;stroke-miterlimit:4;" d="M 30.436422 512.865205 L 329.563578 512.865205 C 346.099138 512.865205 359.498922 526.267849 359.498922 542.802104 L 359.498922 1021.922296 C 359.498922 1038.456551 346.099138 1051.859195 329.563578 1051.859195 L 30.436422 1051.859195 C 13.900862 1051.859195 0.501078 1038.456551 0.501078 1021.922296 L 0.501078 542.802104 C 0.501078 526.267849 13.900862 512.865205 30.436422 512.865205 Z M 30.436422 512.865205 " transform="matrix(0.241667,0,0,0.240741,0,-123.346456)"/>
<path style=" stroke:none;fill-rule:nonzero;fill:rgb(0%,0%,0%);fill-opacity:1;" d="M 7.25 7.222656 C 5.910156 7.222656 4.832031 8.296875 4.832031 9.628906 L 4.832031 10.832031 L 6.042969 10.832031 L 6.042969 9.628906 C 6.042969 8.960938 6.582031 8.425781 7.25 8.425781 C 7.917969 8.425781 8.457031 8.960938 8.457031 9.628906 L 8.457031 10.832031 C 8.457031 11.5 7.917969 12.035156 7.25 12.035156 L 6.042969 12.035156 L 6.042969 13.242188 L 7.25 13.242188 C 7.917969 13.242188 8.457031 13.777344 8.457031 14.445312 L 8.457031 16.851562 C 8.457031 17.519531 7.917969 18.054688 7.25 18.054688 C 6.582031 18.054688 6.042969 17.519531 6.042969 16.851562 L 6.042969 15.648438 L 4.832031 15.648438 L 4.832031 16.851562 C 4.832031 18.183594 5.910156 19.257812 7.25 19.257812 C 8.589844 19.257812 9.667969 18.183594 9.667969 16.851562 L 9.667969 14.445312 C 9.667969 13.722656 9.347656 13.078125 8.84375 12.640625 C 9.347656 12.199219 9.667969 11.554688 9.667969 10.832031 L 9.667969 9.628906 C 9.667969 8.296875 8.589844 7.222656 7.25 7.222656 Z M 7.25 7.222656 "/>
<path style=" stroke:none;fill-rule:nonzero;fill:rgb(0%,0%,0%);fill-opacity:1;" d="M 79.75 122.777344 C 81.089844 122.777344 82.167969 121.703125 82.167969 120.371094 L 82.167969 119.167969 L 80.957031 119.167969 L 80.957031 120.371094 C 80.957031 121.039062 80.417969 121.574219 79.75 121.574219 C 79.082031 121.574219 78.542969 121.039062 78.542969 120.371094 L 78.542969 119.167969 C 78.542969 118.5 79.082031 117.964844 79.75 117.964844 L 80.957031 117.964844 L 80.957031 116.757812 L 79.75 116.757812 C 79.082031 116.757812 78.542969 116.222656 78.542969 115.554688 L 78.542969 113.148438 C 78.542969 112.480469 79.082031 111.945312 79.75 111.945312 C 80.417969 111.945312 80.957031 112.480469 80.957031 113.148438 L 80.957031 114.351562 L 82.167969 114.351562 L 82.167969 113.148438 C 82.167969 111.8125 81.089844 110.742188 79.75 110.742188 C 78.410156 110.742188 77.332031 111.8125 77.332031 113.148438 L 77.332031 115.554688 C 77.332031 116.277344 77.652344 116.921875 78.15625 117.359375 C 77.652344 117.800781 77.332031 118.445312 77.332031 119.167969 L 77.332031 120.371094 C 77.332031 121.703125 78.410156 122.777344 79.75 122.777344 Z M 79.75 122.777344 "/>
<path style=" stroke:none;fill-rule:nonzero;fill:rgb(0%,0%,0%);fill-opacity:1;" d="M 44.707031 24.316406 C 45.191406 25.277344 46.398438 26.722656 47.609375 26.722656 C 49.785156 26.722656 50.75 24.796875 50.75 22.390625 C 50.75 19.980469 49.785156 17.816406 47.609375 17.816406 C 46.398438 17.816406 45.675781 19.019531 44.949219 19.742188 C 44.707031 19.980469 44.464844 19.742188 44.707031 19.5 C 45.433594 18.777344 46.640625 16.851562 46.640625 15.167969 C 46.640625 13.242188 45.433594 10.832031 43.5 10.832031 C 41.566406 10.832031 40.359375 13.242188 40.359375 15.167969 C 40.359375 16.851562 41.566406 18.777344 42.292969 19.5 C 42.535156 19.742188 42.292969 19.980469 42.050781 19.742188 C 41.324219 19.019531 40.601562 17.816406 39.390625 17.816406 C 37.214844 17.816406 36.25 19.980469 36.25 22.390625 C 36.25 24.796875 37.214844 26.722656 39.390625 26.722656 C 40.601562 26.722656 41.808594 25.277344 42.292969 24.316406 C 42.535156 24.074219 42.535156 24.316406 42.535156 24.554688 C 42.292969 26.480469 42.292969 26.964844 42.050781 28.40625 C 41.808594 29.851562 41.082031 32.5 41.082031 32.5 C 42.292969 32.019531 44.707031 32.019531 45.917969 32.5 C 45.917969 32.5 45.191406 29.851562 44.949219 28.40625 C 44.707031 26.964844 44.707031 26.480469 44.464844 24.554688 C 44.464844 24.316406 44.464844 24.074219 44.707031 24.316406 Z M 44.707031 24.316406 "/>
<path style=" stroke:none;fill-rule:nonzero;fill:rgb(0%,0%,0%);fill-opacity:1;" d="M 44.707031 67.648438 C 45.191406 68.609375 46.398438 70.054688 47.609375 70.054688 C 49.785156 70.054688 50.75 68.128906 50.75 65.722656 C 50.75 63.316406 49.785156 61.148438 47.609375 61.148438 C 46.398438 61.148438 45.675781 62.351562 44.949219 63.074219 C 44.707031 63.316406 44.464844 63.074219 44.707031 62.832031 C 45.433594 62.109375 46.640625 60.183594 46.640625 58.5 C 46.640625 56.574219 45.433594 54.167969 43.5 54.167969 C 41.566406 54.167969 40.359375 56.574219 40.359375 58.5 C 40.359375 60.183594 41.566406 62.109375 42.292969 62.832031 C 42.535156 63.074219 42.292969 63.316406 42.050781 63.074219 C 41.324219 62.351562 40.601562 61.148438 39.390625 61.148438 C 37.214844 61.148438 36.25 63.316406 36.25 65.722656 C 36.25 68.128906 37.214844 70.054688 39.390625 70.054688 C 40.601562 70.054688 41.808594 68.609375 42.292969 67.648438 C 42.535156 67.40625 42.535156 67.648438 42.535156 67.890625 C 42.292969 69.816406 42.292969 70.296875 42.050781 71.742188 C 41.808594 73.183594 41.082031 75.832031 41.082031 75.832031 C 42.292969 75.351562 44.707031 75.351562 45.917969 75.832031 C 45.917969 75.832031 45.191406 73.183594 44.949219 71.742188 C 44.707031 70.296875 44.707031 69.816406 44.464844 67.890625 C 44.464844 67.648438 44.464844 67.40625 44.707031 67.648438 Z M 44.707031 67.648438 "/>
<path style=" stroke:none;fill-rule:nonzero;fill:rgb(0%,0%,0%);fill-opacity:1;" d="M 44.707031 105.683594 C 45.191406 104.722656 46.398438 103.277344 47.609375 103.277344 C 49.785156 103.277344 50.75 105.203125 50.75 107.609375 C 50.75 110.019531 49.785156 112.183594 47.609375 112.183594 C 46.398438 112.183594 45.675781 110.980469 44.949219 110.257812 C 44.707031 110.019531 44.464844 110.257812 44.707031 110.5 C 45.433594 111.222656 46.640625 113.148438 46.640625 114.832031 C 46.640625 116.757812 45.433594 119.167969 43.5 119.167969 C 41.566406 119.167969 40.359375 116.757812 40.359375 114.832031 C 40.359375 113.148438 41.566406 111.222656 42.292969 110.5 C 42.535156 110.257812 42.292969 110.019531 42.050781 110.257812 C 41.324219 110.980469 40.601562 112.183594 39.390625 112.183594 C 37.214844 112.183594 36.25 110.019531 36.25 107.609375 C 36.25 105.203125 37.214844 103.277344 39.390625 103.277344 C 40.601562 103.277344 41.808594 104.722656 42.292969 105.683594 C 42.535156 105.925781 42.535156 105.683594 42.535156 105.445312 C 42.292969 103.519531 42.292969 103.035156 42.050781 101.59375 C 41.808594 100.148438 41.082031 97.5 41.082031 97.5 C 42.292969 97.980469 44.707031 97.980469 45.917969 97.5 C 45.917969 97.5 45.191406 100.148438 44.949219 101.59375 C 44.707031 103.035156 44.707031 103.519531 44.464844 105.445312 C 44.464844 105.683594 44.464844 105.925781 44.707031 105.683594 Z M 44.707031 105.683594 "/>
<path style=" stroke:none;fill-rule:nonzero;fill:rgb(0%,0%,0%);fill-opacity:1;" d="M 7.855469 28.40625 C 8.097656 28.890625 8.699219 29.609375 9.304688 29.609375 C 10.390625 29.609375 10.875 28.648438 10.875 27.445312 C 10.875 26.242188 10.390625 25.15625 9.304688 25.15625 C 8.699219 25.15625 8.335938 25.757812 7.976562 26.121094 C 7.855469 26.242188 7.734375 26.121094 7.855469 26 C 8.214844 25.640625 8.820312 24.675781 8.820312 23.832031 C 8.820312 22.871094 8.214844 21.667969 7.25 21.667969 C 6.285156 21.667969 5.679688 22.871094 5.679688 23.832031 C 5.679688 24.675781 6.285156 25.640625 6.644531 26 C 6.765625 26.121094 6.644531 26.242188 6.523438 26.121094 C 6.164062 25.757812 5.800781 25.15625 5.195312 25.15625 C 4.109375 25.15625 3.625 26.242188 3.625 27.445312 C 3.625 28.648438 4.109375 29.609375 5.195312 29.609375 C 5.800781 29.609375 6.402344 28.890625 6.644531 28.40625 C 6.765625 28.285156 6.765625 28.40625 6.765625 28.527344 C 6.644531 29.492188 6.644531 29.730469 6.523438 30.453125 C 6.402344 31.175781 6.042969 32.5 6.042969 32.5 C 6.644531 32.257812 7.855469 32.257812 8.457031 32.5 C 8.457031 32.5 8.097656 31.175781 7.976562 30.453125 C 7.855469 29.730469 7.855469 29.492188 7.734375 28.527344 C 7.734375 28.40625 7.734375 28.285156 7.855469 28.40625 Z M 7.855469 28.40625 "/>
<path style=" stroke:none;fill-rule:nonzero;fill:rgb(0%,0%,0%);fill-opacity:1;" d="M 80.355469 101.59375 C 80.597656 101.109375 81.199219 100.390625 81.804688 100.390625 C 82.890625 100.390625 83.375 101.351562 83.375 102.554688 C 83.375 103.757812 82.890625 104.84375 81.804688 104.84375 C 81.199219 104.84375 80.835938 104.242188 80.476562 103.878906 C 80.355469 103.757812 80.234375 103.878906 80.355469 104 C 80.714844 104.359375 81.320312 105.324219 81.320312 106.167969 C 81.320312 107.128906 80.714844 108.332031 79.75 108.332031 C 78.785156 108.332031 78.179688 107.128906 78.179688 106.167969 C 78.179688 105.324219 78.785156 104.359375 79.144531 104 C 79.265625 103.878906 79.144531 103.757812 79.023438 103.878906 C 78.664062 104.242188 78.300781 104.84375 77.695312 104.84375 C 76.609375 104.84375 76.125 103.757812 76.125 102.554688 C 76.125 101.351562 76.609375 100.390625 77.695312 100.390625 C 78.300781 100.390625 78.902344 101.109375 79.144531 101.59375 C 79.265625 101.714844 79.265625 101.59375 79.265625 101.472656 C 79.144531 100.507812 79.144531 100.269531 79.023438 99.546875 C 78.902344 98.824219 78.542969 97.5 78.542969 97.5 C 79.144531 97.742188 80.355469 97.742188 80.957031 97.5 C 80.957031 97.5 80.597656 98.824219 80.476562 99.546875 C 80.355469 100.269531 80.355469 100.507812 80.234375 101.472656 C 80.234375 101.59375 80.234375 101.714844 80.355469 101.59375 Z M 80.355469 101.59375 "/>
</g>
</svg>
