<?xml version="1.0" encoding="UTF-8"?>
<svg xmlns="http://www.w3.org/2000/svg" xmlns:xlink="http://www.w3.org/1999/xlink" width="90px" height="130px" viewBox="0 0 90 130" version="1.1">
<g id="surface1">
<path style="fill-rule:nonzero;fill:rgb(100%,100%,100%);fill-opacity:1;stroke-width:1;stroke-linecap:butt;stroke-linejoin:miter;stroke:rgb(0%,0%,0%);stroke-opacity:1;stroke-miterlimit:4;" d="M 30.4375 512.865187 L 329.5625 512.865187 C 346.09375 512.865187 359.5 526.267832 359.5 542.802086 L 359.5 1021.922279 C 359.5 1038.456534 346.09375 1051.859178 329.5625 1051.859178 L 30.4375 1051.859178 C 13.90625 1051.859178 0.5 1038.456534 0.5 1021.922279 L 0.5 542.802086 C 0.5 526.267832 13.90625 512.865187 30.4375 512.865187 Z M 30.4375 512.865187 " transform="matrix(0.25,0,0,0.240741,0,-123.346451)"/>
<path style=" stroke:none;fill-rule:nonzero;fill:rgb(100%,33.333334%,33.333334%);fill-opacity:1;" d="M 7.5 19.257812 C 8.886719 19.257812 10 18.183594 10 16.851562 L 10 9.628906 C 10 8.296875 8.886719 7.222656 7.5 7.222656 C 6.113281 7.222656 5 8.296875 5 9.628906 L 5 12.035156 C 5 13.371094 6.113281 14.445312 7.5 14.445312 C 7.957031 14.445312 8.382812 14.324219 8.75 14.121094 L 8.75 16.851562 C 8.75 17.519531 8.191406 18.054688 7.5 18.054688 C 6.808594 18.054688 6.25 17.519531 6.25 16.851562 L 6.25 16.609375 L 5 16.609375 L 5 16.851562 C 5 18.183594 6.113281 19.257812 7.5 19.257812 Z M 7.5 13.242188 C 6.808594 13.242188 6.25 12.703125 6.25 12.035156 L 6.25 9.628906 C 6.25 8.960938 6.808594 8.425781 7.5 8.425781 C 8.191406 8.425781 8.75 8.960938 8.75 9.628906 L 8.75 12.035156 C 8.75 12.703125 8.191406 13.242188 7.5 13.242188 Z M 7.5 13.242188 "/>
<path style=" stroke:none;fill-rule:nonzero;fill:rgb(100%,33.333334%,33.333334%);fill-opacity:1;" d="M 82.5 110.742188 C 81.113281 110.742188 80 111.8125 80 113.148438 L 80 120.371094 C 80 121.703125 81.113281 122.777344 82.5 122.777344 C 83.886719 122.777344 85 121.703125 85 120.371094 L 85 117.964844 C 85 116.628906 83.886719 115.554688 82.5 115.554688 C 82.042969 115.554688 81.617188 115.675781 81.25 115.878906 L 81.25 113.148438 C 81.25 112.480469 81.808594 111.945312 82.5 111.945312 C 83.191406 111.945312 83.75 112.480469 83.75 113.148438 L 83.75 113.390625 L 85 113.390625 L 85 113.148438 C 85 111.8125 83.886719 110.742188 82.5 110.742188 Z M 82.5 116.757812 C 83.191406 116.757812 83.75 117.296875 83.75 117.964844 L 83.75 120.371094 C 83.75 121.039062 83.191406 121.574219 82.5 121.574219 C 81.808594 121.574219 81.25 121.039062 81.25 120.371094 L 81.25 117.964844 C 81.25 117.296875 81.808594 116.757812 82.5 116.757812 Z M 82.5 116.757812 "/>
<path style=" stroke:none;fill-rule:nonzero;fill:rgb(100%,33.333334%,33.333334%);fill-opacity:1;" d="M 7.5 21.667969 C 7.5 21.667969 8.25 23.472656 9.125 24.675781 C 10 25.878906 11.25 27.082031 11.25 27.082031 C 11.25 27.082031 10 28.285156 9.125 29.492188 C 8.25 30.695312 7.5 32.5 7.5 32.5 C 7.5 32.5 6.75 30.695312 5.875 29.492188 C 5 28.285156 3.75 27.082031 3.75 27.082031 C 3.75 27.082031 5 25.878906 5.875 24.675781 C 6.75 23.472656 7.5 21.667969 7.5 21.667969 "/>
<path style=" stroke:none;fill-rule:nonzero;fill:rgb(100%,33.333334%,33.333334%);fill-opacity:1;" d="M 82.5 97.5 C 82.5 97.5 83.25 99.304688 84.125 100.507812 C 85 101.714844 86.25 102.917969 86.25 102.917969 C 86.25 102.917969 85 104.121094 84.125 105.324219 C 83.25 106.527344 82.5 108.332031 82.5 108.332031 C 82.5 108.332031 81.75 106.527344 80.875 105.324219 C 80 104.121094 78.75 102.917969 78.75 102.917969 C 78.75 102.917969 80 101.714844 80.875 100.507812 C 81.75 99.304688 82.5 97.5 82.5 97.5 "/>
<path style=" stroke:none;fill-rule:nonzero;fill:rgb(100%,33.333334%,33.333334%);fill-opacity:1;" d="M 22.5 10.832031 C 22.5 10.832031 24 14.445312 25.75 16.851562 C 27.5 19.257812 30 21.667969 30 21.667969 C 30 21.667969 27.5 24.074219 25.75 26.480469 C 24 28.890625 22.5 32.5 22.5 32.5 C 22.5 32.5 21 28.890625 19.25 26.480469 C 17.5 24.074219 15 21.667969 15 21.667969 C 15 21.667969 17.5 19.257812 19.25 16.851562 C 21 14.445312 22.5 10.832031 22.5 10.832031 "/>
<path style=" stroke:none;fill-rule:nonzero;fill:rgb(100%,33.333334%,33.333334%);fill-opacity:1;" d="M 22.5 39.722656 C 22.5 39.722656 24 43.332031 25.75 45.742188 C 27.5 48.148438 30 50.554688 30 50.554688 C 30 50.554688 27.5 52.964844 25.75 55.371094 C 24 57.777344 22.5 61.390625 22.5 61.390625 C 22.5 61.390625 21 57.777344 19.25 55.371094 C 17.5 52.964844 15 50.554688 15 50.554688 C 15 50.554688 17.5 48.148438 19.25 45.742188 C 21 43.332031 22.5 39.722656 22.5 39.722656 "/>
<path style=" stroke:none;fill-rule:nonzero;fill:rgb(100%,33.333334%,33.333334%);fill-opacity:1;" d="M 22.5 68.609375 C 22.5 68.609375 24 72.222656 25.75 74.628906 C 27.5 77.035156 30 79.445312 30 79.445312 C 30 79.445312 27.5 81.851562 25.75 84.257812 C 24 86.667969 22.5 90.277344 22.5 90.277344 C 22.5 90.277344 21 86.667969 19.25 84.257812 C 17.5 81.851562 15 79.445312 15 79.445312 C 15 79.445312 17.5 77.035156 19.25 74.628906 C 21 72.222656 22.5 68.609375 22.5 68.609375 "/>
<path style=" stroke:none;fill-rule:nonzero;fill:rgb(100%,33.333334%,33.333334%);fill-opacity:1;" d="M 22.5 97.5 C 22.5 97.5 24 101.109375 25.75 103.519531 C 27.5 105.925781 30 108.332031 30 108.332031 C 30 108.332031 27.5 110.742188 25.75 113.148438 C 24 115.554688 22.5 119.167969 22.5 119.167969 C 22.5 119.167969 21 115.554688 19.25 113.148438 C 17.5 110.742188 15 108.332031 15 108.332031 C 15 108.332031 17.5 105.925781 19.25 103.519531 C 21 101.109375 22.5 97.5 22.5 97.5 "/>
<path style=" stroke:none;fill-rule:nonzero;fill:rgb(100%,33.333334%,33.333334%);fill-opacity:1;" d="M 45 54.167969 C 45 54.167969 46.5 57.777344 48.25 60.183594 C 50 62.59375 52.5 65 52.5 65 C 52.5 65 50 67.40625 48.25 69.816406 C 46.5 72.222656 45 75.832031 45 75.832031 C 45 75.832031 43.5 72.222656 41.75 69.816406 C 40 67.40625 37.5 65 37.5 65 C 37.5 65 40 62.59375 41.75 60.183594 C 43.5 57.777344 45 54.167969 45 54.167969 "/>
<path style=" stroke:none;fill-rule:nonzero;fill:rgb(100%,33.333334%,33.333334%);fill-opacity:1;" d="M 67.5 10.832031 C 67.5 10.832031 69 14.445312 70.75 16.851562 C 72.5 19.257812 75 21.667969 75 21.667969 C 75 21.667969 72.5 24.074219 70.75 26.480469 C 69 28.890625 67.5 32.5 67.5 32.5 C 67.5 32.5 66 28.890625 64.25 26.480469 C 62.5 24.074219 60 21.667969 60 21.667969 C 60 21.667969 62.5 19.257812 64.25 16.851562 C 66 14.445312 67.5 10.832031 67.5 10.832031 "/>
<path style=" stroke:none;fill-rule:nonzero;fill:rgb(100%,33.333334%,33.333334%);fill-opacity:1;" d="M 67.5 39.722656 C 67.5 39.722656 69 43.332031 70.75 45.742188 C 72.5 48.148438 75 50.554688 75 50.554688 C 75 50.554688 72.5 52.964844 70.75 55.371094 C 69 57.777344 67.5 61.390625 67.5 61.390625 C 67.5 61.390625 66 57.777344 64.25 55.371094 C 62.5 52.964844 60 50.554688 60 50.554688 C 60 50.554688 62.5 48.148438 64.25 45.742188 C 66 43.332031 67.5 39.722656 67.5 39.722656 "/>
<path style=" stroke:none;fill-rule:nonzero;fill:rgb(100%,33.333334%,33.333334%);fill-opacity:1;" d="M 67.5 68.609375 C 67.5 68.609375 69 72.222656 70.75 74.628906 C 72.5 77.035156 75 79.445312 75 79.445312 C 75 79.445312 72.5 81.851562 70.75 84.257812 C 69 86.667969 67.5 90.277344 67.5 90.277344 C 67.5 90.277344 66 86.667969 64.25 84.257812 C 62.5 81.851562 60 79.445312 60 79.445312 C 60 79.445312 62.5 77.035156 64.25 74.628906 C 66 72.222656 67.5 68.609375 67.5 68.609375 "/>
<path style=" stroke:none;fill-rule:nonzero;fill:rgb(100%,33.333334%,33.333334%);fill-opacity:1;" d="M 67.5 97.5 C 67.5 97.5 69 101.109375 70.75 103.519531 C 72.5 105.925781 75 108.332031 75 108.332031 C 75 108.332031 72.5 110.742188 70.75 113.148438 C 69 115.554688 67.5 119.167969 67.5 119.167969 C 67.5 119.167969 66 115.554688 64.25 113.148438 C 62.5 110.742188 60 108.332031 60 108.332031 C 60 108.332031 62.5 105.925781 64.25 103.519531 C 66 101.109375 67.5 97.5 67.5 97.5 "/>
</g>
</svg>
