<?xml version="1.0" encoding="UTF-8"?>
<svg xmlns="http://www.w3.org/2000/svg" xmlns:xlink="http://www.w3.org/1999/xlink" width="87pt" height="130pt" viewBox="0 0 87 130" version="1.1">
<g id="surface1">
<path style="fill-rule:nonzero;fill:rgb(100%,100%,100%);fill-opacity:1;stroke-width:1;stroke-linecap:butt;stroke-linejoin:miter;stroke:rgb(0%,0%,0%);stroke-opacity:1;stroke-miterlimit:4;" d="M 30.436422 512.865185 L 329.563578 512.865185 C 346.099138 512.865185 359.498922 526.267829 359.498922 542.802084 L 359.498922 1021.922276 C 359.498922 1038.456531 346.099138 1051.859175 329.563578 1051.859175 L 30.436422 1051.859175 C 13.900862 1051.859175 0.501078 1038.456531 0.501078 1021.922276 L 0.501078 542.802084 C 0.501078 526.267829 13.900862 512.865185 30.436422 512.865185 Z M 30.436422 512.865185 " transform="matrix(0.241667,0,0,0.240741,0,-123.346451)"/>
<path style=" stroke:none;fill-rule:nonzero;fill:rgb(100%,33.333333%,33.333333%);fill-opacity:1;" d="M 7.25 7.222656 C 5.910156 7.222656 4.832031 8.296875 4.832031 9.628906 L 4.832031 16.851562 C 4.832031 18.183594 5.910156 19.257812 7.25 19.257812 C 8.589844 19.257812 9.667969 18.183594 9.667969 16.851562 L 9.667969 14.445312 C 9.667969 13.109375 8.589844 12.035156 7.25 12.035156 C 6.808594 12.035156 6.398438 12.15625 6.042969 12.359375 L 6.042969 9.628906 C 6.042969 8.960938 6.582031 8.425781 7.25 8.425781 C 7.917969 8.425781 8.457031 8.960938 8.457031 9.628906 L 8.457031 9.871094 L 9.667969 9.871094 L 9.667969 9.628906 C 9.667969 8.296875 8.589844 7.222656 7.25 7.222656 Z M 7.25 13.242188 C 7.917969 13.242188 8.457031 13.777344 8.457031 14.445312 L 8.457031 16.851562 C 8.457031 17.519531 7.917969 18.054688 7.25 18.054688 C 6.582031 18.054688 6.042969 17.519531 6.042969 16.851562 L 6.042969 14.445312 C 6.042969 13.777344 6.582031 13.242188 7.25 13.242188 Z M 7.25 13.242188 "/>
<path style=" stroke:none;fill-rule:nonzero;fill:rgb(100%,33.333333%,33.333333%);fill-opacity:1;" d="M 79.75 122.777344 C 81.089844 122.777344 82.167969 121.703125 82.167969 120.371094 L 82.167969 113.148438 C 82.167969 111.8125 81.089844 110.742188 79.75 110.742188 C 78.410156 110.742188 77.332031 111.8125 77.332031 113.148438 L 77.332031 115.554688 C 77.332031 116.890625 78.410156 117.964844 79.75 117.964844 C 80.191406 117.964844 80.601562 117.84375 80.957031 117.640625 L 80.957031 120.371094 C 80.957031 121.039062 80.417969 121.574219 79.75 121.574219 C 79.082031 121.574219 78.542969 121.039062 78.542969 120.371094 L 78.542969 120.128906 L 77.332031 120.128906 L 77.332031 120.371094 C 77.332031 121.703125 78.410156 122.777344 79.75 122.777344 Z M 79.75 116.757812 C 79.082031 116.757812 78.542969 116.222656 78.542969 115.554688 L 78.542969 113.148438 C 78.542969 112.480469 79.082031 111.945312 79.75 111.945312 C 80.417969 111.945312 80.957031 112.480469 80.957031 113.148438 L 80.957031 115.554688 C 80.957031 116.222656 80.417969 116.757812 79.75 116.757812 Z M 79.75 116.757812 "/>
<path style=" stroke:none;fill-rule:nonzero;fill:rgb(100%,33.333333%,33.333333%);fill-opacity:1;" d="M 21.75 10.832031 C 21.75 10.832031 23.199219 14.445312 24.890625 16.851562 C 26.582031 19.257812 29 21.667969 29 21.667969 C 29 21.667969 26.582031 24.074219 24.890625 26.480469 C 23.199219 28.890625 21.75 32.5 21.75 32.5 C 21.75 32.5 20.300781 28.890625 18.609375 26.480469 C 16.917969 24.074219 14.5 21.667969 14.5 21.667969 C 14.5 21.667969 16.917969 19.257812 18.609375 16.851562 C 20.300781 14.445312 21.75 10.832031 21.75 10.832031 "/>
<path style=" stroke:none;fill-rule:nonzero;fill:rgb(100%,33.333333%,33.333333%);fill-opacity:1;" d="M 65.25 10.832031 C 65.25 10.832031 66.699219 14.445312 68.390625 16.851562 C 70.082031 19.257812 72.5 21.667969 72.5 21.667969 C 72.5 21.667969 70.082031 24.074219 68.390625 26.480469 C 66.699219 28.890625 65.25 32.5 65.25 32.5 C 65.25 32.5 63.800781 28.890625 62.109375 26.480469 C 60.417969 24.074219 58 21.667969 58 21.667969 C 58 21.667969 60.417969 19.257812 62.109375 16.851562 C 63.800781 14.445312 65.25 10.832031 65.25 10.832031 "/>
<path style=" stroke:none;fill-rule:nonzero;fill:rgb(100%,33.333333%,33.333333%);fill-opacity:1;" d="M 21.75 54.167969 C 21.75 54.167969 23.199219 57.777344 24.890625 60.183594 C 26.582031 62.59375 29 65 29 65 C 29 65 26.582031 67.40625 24.890625 69.816406 C 23.199219 72.222656 21.75 75.832031 21.75 75.832031 C 21.75 75.832031 20.300781 72.222656 18.609375 69.816406 C 16.917969 67.40625 14.5 65 14.5 65 C 14.5 65 16.917969 62.59375 18.609375 60.183594 C 20.300781 57.777344 21.75 54.167969 21.75 54.167969 "/>
<path style=" stroke:none;fill-rule:nonzero;fill:rgb(100%,33.333333%,33.333333%);fill-opacity:1;" d="M 65.25 54.167969 C 65.25 54.167969 66.699219 57.777344 68.390625 60.183594 C 70.082031 62.59375 72.5 65 72.5 65 C 72.5 65 70.082031 67.40625 68.390625 69.816406 C 66.699219 72.222656 65.25 75.832031 65.25 75.832031 C 65.25 75.832031 63.800781 72.222656 62.109375 69.816406 C 60.417969 67.40625 58 65 58 65 C 58 65 60.417969 62.59375 62.109375 60.183594 C 63.800781 57.777344 65.25 54.167969 65.25 54.167969 "/>
<path style=" stroke:none;fill-rule:nonzero;fill:rgb(100%,33.333333%,33.333333%);fill-opacity:1;" d="M 21.75 97.5 C 21.75 97.5 23.199219 101.109375 24.890625 103.519531 C 26.582031 105.925781 29 108.332031 29 108.332031 C 29 108.332031 26.582031 110.742188 24.890625 113.148438 C 23.199219 115.554688 21.75 119.167969 21.75 119.167969 C 21.75 119.167969 20.300781 115.554688 18.609375 113.148438 C 16.917969 110.742188 14.5 108.332031 14.5 108.332031 C 14.5 108.332031 16.917969 105.925781 18.609375 103.519531 C 20.300781 101.109375 21.75 97.5 21.75 97.5 "/>
<path style=" stroke:none;fill-rule:nonzero;fill:rgb(100%,33.333333%,33.333333%);fill-opacity:1;" d="M 65.25 97.5 C 65.25 97.5 66.699219 101.109375 68.390625 103.519531 C 70.082031 105.925781 72.5 108.332031 72.5 108.332031 C 72.5 108.332031 70.082031 110.742188 68.390625 113.148438 C 66.699219 115.554688 65.25 119.167969 65.25 119.167969 C 65.25 119.167969 63.800781 115.554688 62.109375 113.148438 C 60.417969 110.742188 58 108.332031 58 108.332031 C 58 108.332031 60.417969 105.925781 62.109375 103.519531 C 63.800781 101.109375 65.25 97.5 65.25 97.5 "/>
<path style=" stroke:none;fill-rule:nonzero;fill:rgb(100%,33.333333%,33.333333%);fill-opacity:1;" d="M 7.25 21.667969 C 7.25 21.667969 7.976562 23.472656 8.820312 24.675781 C 9.667969 25.878906 10.875 27.082031 10.875 27.082031 C 10.875 27.082031 9.667969 28.285156 8.820312 29.492188 C 7.976562 30.695312 7.25 32.5 7.25 32.5 C 7.25 32.5 6.523438 30.695312 5.679688 29.492188 C 4.832031 28.285156 3.625 27.082031 3.625 27.082031 C 3.625 27.082031 4.832031 25.878906 5.679688 24.675781 C 6.523438 23.472656 7.25 21.667969 7.25 21.667969 "/>
<path style=" stroke:none;fill-rule:nonzero;fill:rgb(100%,33.333333%,33.333333%);fill-opacity:1;" d="M 79.75 97.5 C 79.75 97.5 80.476562 99.304688 81.320312 100.507812 C 82.167969 101.714844 83.375 102.917969 83.375 102.917969 C 83.375 102.917969 82.167969 104.121094 81.320312 105.324219 C 80.476562 106.527344 79.75 108.332031 79.75 108.332031 C 79.75 108.332031 79.023438 106.527344 78.179688 105.324219 C 77.332031 104.121094 76.125 102.917969 76.125 102.917969 C 76.125 102.917969 77.332031 101.714844 78.179688 100.507812 C 79.023438 99.304688 79.75 97.5 79.75 97.5 "/>
</g>
</svg>
