<?xml version="1.0" encoding="UTF-8"?>
<svg xmlns="http://www.w3.org/2000/svg" xmlns:xlink="http://www.w3.org/1999/xlink" width="90px" height="130px" viewBox="0 0 90 130" version="1.1">
<g id="surface1">
<path style="fill-rule:nonzero;fill:rgb(100%,100%,100%);fill-opacity:1;stroke-width:1;stroke-linecap:butt;stroke-linejoin:miter;stroke:rgb(0%,0%,0%);stroke-opacity:1;stroke-miterlimit:4;" d="M 30.448502 512.865187 L 329.557877 512.865187 C 346.089127 512.865187 359.495377 526.267832 359.495377 542.802086 L 359.495377 1021.922279 C 359.495377 1038.456534 346.089127 1051.859178 329.557877 1051.859178 L 30.448502 1051.859178 C 13.901627 1051.859178 0.495377 1038.456534 0.495377 1021.922279 L 0.495377 542.802086 C 0.495377 526.267832 13.901627 512.865187 30.448502 512.865187 Z M 30.448502 512.865187 " transform="matrix(0.25,0,0,0.240741,0.0909996,-123.346451)"/>
<path style=" stroke:none;fill-rule:nonzero;fill:rgb(100%,33.333334%,33.333334%);fill-opacity:1;" d="M 5.089844 7.222656 L 5.089844 12.035156 L 7.589844 12.035156 C 8.285156 12.035156 8.839844 12.574219 8.839844 13.242188 L 8.839844 16.851562 C 8.839844 17.519531 8.285156 18.054688 7.589844 18.054688 C 6.898438 18.054688 6.339844 17.519531 6.339844 16.851562 L 6.339844 15.648438 L 5.089844 15.648438 L 5.089844 16.851562 C 5.089844 18.183594 6.207031 19.257812 7.589844 19.257812 C 8.976562 19.257812 10.089844 18.183594 10.089844 16.851562 L 10.089844 13.242188 C 10.089844 11.90625 8.976562 10.832031 7.589844 10.832031 L 6.339844 10.832031 L 6.339844 8.425781 L 10.089844 8.425781 L 10.089844 7.222656 Z M 5.089844 7.222656 "/>
<path style=" stroke:none;fill-rule:nonzero;fill:rgb(100%,33.333334%,33.333334%);fill-opacity:1;" d="M 85.089844 122.777344 L 85.089844 117.964844 L 82.589844 117.964844 C 81.898438 117.964844 81.339844 117.425781 81.339844 116.757812 L 81.339844 113.148438 C 81.339844 112.480469 81.898438 111.945312 82.589844 111.945312 C 83.285156 111.945312 83.839844 112.480469 83.839844 113.148438 L 83.839844 114.351562 L 85.089844 114.351562 L 85.089844 113.148438 C 85.089844 111.8125 83.976562 110.742188 82.589844 110.742188 C 81.207031 110.742188 80.089844 111.8125 80.089844 113.148438 L 80.089844 116.757812 C 80.089844 118.09375 81.207031 119.167969 82.589844 119.167969 L 83.839844 119.167969 L 83.839844 121.574219 L 80.089844 121.574219 L 80.089844 122.777344 Z M 85.089844 122.777344 "/>
<path style=" stroke:none;fill-rule:nonzero;fill:rgb(100%,33.333334%,33.333334%);fill-opacity:1;" d="M 7.589844 21.667969 C 7.589844 21.667969 8.339844 23.472656 9.214844 24.675781 C 10.089844 25.878906 11.339844 27.082031 11.339844 27.082031 C 11.339844 27.082031 10.089844 28.285156 9.214844 29.492188 C 8.339844 30.695312 7.589844 32.5 7.589844 32.5 C 7.589844 32.5 6.839844 30.695312 5.964844 29.492188 C 5.089844 28.285156 3.839844 27.082031 3.839844 27.082031 C 3.839844 27.082031 5.089844 25.878906 5.964844 24.675781 C 6.839844 23.472656 7.589844 21.667969 7.589844 21.667969 "/>
<path style=" stroke:none;fill-rule:nonzero;fill:rgb(100%,33.333334%,33.333334%);fill-opacity:1;" d="M 82.589844 97.5 C 82.589844 97.5 83.339844 99.304688 84.214844 100.507812 C 85.089844 101.714844 86.339844 102.917969 86.339844 102.917969 C 86.339844 102.917969 85.089844 104.121094 84.214844 105.324219 C 83.339844 106.527344 82.589844 108.332031 82.589844 108.332031 C 82.589844 108.332031 81.839844 106.527344 80.964844 105.324219 C 80.089844 104.121094 78.839844 102.917969 78.839844 102.917969 C 78.839844 102.917969 80.089844 101.714844 80.964844 100.507812 C 81.839844 99.304688 82.589844 97.5 82.589844 97.5 "/>
<path style=" stroke:none;fill-rule:nonzero;fill:rgb(100%,33.333334%,33.333334%);fill-opacity:1;" d="M 22.589844 10.832031 C 22.589844 10.832031 24.089844 14.445312 25.839844 16.851562 C 27.589844 19.257812 30.089844 21.667969 30.089844 21.667969 C 30.089844 21.667969 27.589844 24.074219 25.839844 26.480469 C 24.089844 28.890625 22.589844 32.5 22.589844 32.5 C 22.589844 32.5 21.089844 28.890625 19.339844 26.480469 C 17.589844 24.074219 15.089844 21.667969 15.089844 21.667969 C 15.089844 21.667969 17.589844 19.257812 19.339844 16.851562 C 21.089844 14.445312 22.589844 10.832031 22.589844 10.832031 "/>
<path style=" stroke:none;fill-rule:nonzero;fill:rgb(100%,33.333334%,33.333334%);fill-opacity:1;" d="M 67.589844 10.832031 C 67.589844 10.832031 69.089844 14.445312 70.839844 16.851562 C 72.589844 19.257812 75.089844 21.667969 75.089844 21.667969 C 75.089844 21.667969 72.589844 24.074219 70.839844 26.480469 C 69.089844 28.890625 67.589844 32.5 67.589844 32.5 C 67.589844 32.5 66.089844 28.890625 64.339844 26.480469 C 62.589844 24.074219 60.089844 21.667969 60.089844 21.667969 C 60.089844 21.667969 62.589844 19.257812 64.339844 16.851562 C 66.089844 14.445312 67.589844 10.832031 67.589844 10.832031 "/>
<path style=" stroke:none;fill-rule:nonzero;fill:rgb(100%,33.333334%,33.333334%);fill-opacity:1;" d="M 45.089844 54.167969 C 45.089844 54.167969 46.589844 57.777344 48.339844 60.183594 C 50.089844 62.59375 52.589844 65 52.589844 65 C 52.589844 65 50.089844 67.40625 48.339844 69.816406 C 46.589844 72.222656 45.089844 75.832031 45.089844 75.832031 C 45.089844 75.832031 43.589844 72.222656 41.839844 69.816406 C 40.089844 67.40625 37.589844 65 37.589844 65 C 37.589844 65 40.089844 62.59375 41.839844 60.183594 C 43.589844 57.777344 45.089844 54.167969 45.089844 54.167969 "/>
<path style=" stroke:none;fill-rule:nonzero;fill:rgb(100%,33.333334%,33.333334%);fill-opacity:1;" d="M 22.589844 97.5 C 22.589844 97.5 24.089844 101.109375 25.839844 103.519531 C 27.589844 105.925781 30.089844 108.332031 30.089844 108.332031 C 30.089844 108.332031 27.589844 110.742188 25.839844 113.148438 C 24.089844 115.554688 22.589844 119.167969 22.589844 119.167969 C 22.589844 119.167969 21.089844 115.554688 19.339844 113.148438 C 17.589844 110.742188 15.089844 108.332031 15.089844 108.332031 C 15.089844 108.332031 17.589844 105.925781 19.339844 103.519531 C 21.089844 101.109375 22.589844 97.5 22.589844 97.5 "/>
<path style=" stroke:none;fill-rule:nonzero;fill:rgb(100%,33.333334%,33.333334%);fill-opacity:1;" d="M 67.589844 97.5 C 67.589844 97.5 69.089844 101.109375 70.839844 103.519531 C 72.589844 105.925781 75.089844 108.332031 75.089844 108.332031 C 75.089844 108.332031 72.589844 110.742188 70.839844 113.148438 C 69.089844 115.554688 67.589844 119.167969 67.589844 119.167969 C 67.589844 119.167969 66.089844 115.554688 64.339844 113.148438 C 62.589844 110.742188 60.089844 108.332031 60.089844 108.332031 C 60.089844 108.332031 62.589844 105.925781 64.339844 103.519531 C 66.089844 101.109375 67.589844 97.5 67.589844 97.5 "/>
</g>
</svg>
