<?xml version="1.0" encoding="UTF-8"?>
<svg xmlns="http://www.w3.org/2000/svg" xmlns:xlink="http://www.w3.org/1999/xlink" width="87pt" height="130pt" viewBox="0 0 87 130" version="1.1">
<g id="surface1">
<path style="fill-rule:nonzero;fill:rgb(100%,100%,100%);fill-opacity:1;stroke-width:1;stroke-linecap:butt;stroke-linejoin:miter;stroke:rgb(0%,0%,0%);stroke-opacity:1;stroke-miterlimit:4;" d="M 30.436422 512.865185 L 329.563578 512.865185 C 346.099138 512.865185 359.498922 526.267829 359.498922 542.802084 L 359.498922 1021.922276 C 359.498922 1038.456531 346.099138 1051.859175 329.563578 1051.859175 L 30.436422 1051.859175 C 13.900862 1051.859175 0.501078 1038.456531 0.501078 1021.922276 L 0.501078 542.802084 C 0.501078 526.267829 13.900862 512.865185 30.436422 512.865185 Z M 30.436422 512.865185 " transform="matrix(0.241667,0,0,0.240741,0,-123.346451)"/>
<path style=" stroke:none;fill-rule:nonzero;fill:rgb(100%,33.333333%,33.333333%);fill-opacity:1;" d="M 3.625 7.222656 L 2.417969 8.90625 L 2.417969 10.59375 L 3.625 8.90625 L 3.625 19.257812 L 4.832031 19.257812 L 4.832031 7.222656 Z M 3.625 7.222656 "/>
<path style=" stroke:none;fill-rule:nonzero;fill:rgb(100%,33.333333%,33.333333%);fill-opacity:1;" d="M 8.457031 7.222656 C 7.121094 7.222656 6.042969 8.296875 6.042969 9.628906 L 6.042969 16.851562 C 6.042969 18.1875 7.121094 19.257812 8.457031 19.257812 C 9.796875 19.257812 10.875 18.1875 10.875 16.851562 L 10.875 9.628906 C 10.875 8.296875 9.796875 7.222656 8.457031 7.222656 Z M 8.457031 8.425781 C 9.128906 8.425781 9.667969 8.960938 9.667969 9.628906 L 9.667969 16.851562 C 9.667969 17.519531 9.128906 18.054688 8.457031 18.054688 C 7.789062 18.054688 7.25 17.519531 7.25 16.851562 L 7.25 9.628906 C 7.25 8.960938 7.789062 8.425781 8.457031 8.425781 Z M 8.457031 8.425781 "/>
<path style=" stroke:none;fill-rule:nonzero;fill:rgb(100%,33.333333%,33.333333%);fill-opacity:1;" d="M 83.375 122.777344 L 84.582031 121.09375 L 84.582031 119.40625 L 83.375 121.09375 L 83.375 110.742188 L 82.167969 110.742188 L 82.167969 122.777344 Z M 83.375 122.777344 "/>
<path style=" stroke:none;fill-rule:nonzero;fill:rgb(100%,33.333333%,33.333333%);fill-opacity:1;" d="M 78.542969 122.777344 C 79.878906 122.777344 80.957031 121.703125 80.957031 120.371094 L 80.957031 113.148438 C 80.957031 111.8125 79.878906 110.742188 78.542969 110.742188 C 77.203125 110.742188 76.125 111.8125 76.125 113.148438 L 76.125 120.371094 C 76.125 121.703125 77.203125 122.777344 78.542969 122.777344 Z M 78.542969 121.574219 C 77.871094 121.574219 77.332031 121.039062 77.332031 120.371094 L 77.332031 113.148438 C 77.332031 112.480469 77.871094 111.945312 78.542969 111.945312 C 79.210938 111.945312 79.75 112.480469 79.75 113.148438 L 79.75 120.371094 C 79.75 121.039062 79.210938 121.574219 78.542969 121.574219 Z M 78.542969 121.574219 "/>
<path style=" stroke:none;fill-rule:nonzero;fill:rgb(100%,33.333333%,33.333333%);fill-opacity:1;" d="M 21.75 10.832031 C 21.75 10.832031 23.199219 14.445312 24.890625 16.851562 C 26.582031 19.257812 29 21.667969 29 21.667969 C 29 21.667969 26.582031 24.074219 24.890625 26.480469 C 23.199219 28.890625 21.75 32.5 21.75 32.5 C 21.75 32.5 20.300781 28.890625 18.609375 26.480469 C 16.917969 24.074219 14.5 21.667969 14.5 21.667969 C 14.5 21.667969 16.917969 19.257812 18.609375 16.851562 C 20.300781 14.445312 21.75 10.832031 21.75 10.832031 "/>
<path style=" stroke:none;fill-rule:nonzero;fill:rgb(100%,33.333333%,33.333333%);fill-opacity:1;" d="M 65.25 10.832031 C 65.25 10.832031 66.699219 14.445312 68.390625 16.851562 C 70.082031 19.257812 72.5 21.667969 72.5 21.667969 C 72.5 21.667969 70.082031 24.074219 68.390625 26.480469 C 66.699219 28.890625 65.25 32.5 65.25 32.5 C 65.25 32.5 63.800781 28.890625 62.109375 26.480469 C 60.417969 24.074219 58 21.667969 58 21.667969 C 58 21.667969 60.417969 19.257812 62.109375 16.851562 C 63.800781 14.445312 65.25 10.832031 65.25 10.832031 "/>
<path style=" stroke:none;fill-rule:nonzero;fill:rgb(100%,33.333333%,33.333333%);fill-opacity:1;" d="M 43.5 25.277344 C 43.5 25.277344 44.949219 28.890625 46.640625 31.296875 C 48.332031 33.703125 50.75 36.109375 50.75 36.109375 C 50.75 36.109375 48.332031 38.519531 46.640625 40.925781 C 44.949219 43.332031 43.5 46.945312 43.5 46.945312 C 43.5 46.945312 42.050781 43.332031 40.359375 40.925781 C 38.667969 38.519531 36.25 36.109375 36.25 36.109375 C 36.25 36.109375 38.667969 33.703125 40.359375 31.296875 C 42.050781 28.890625 43.5 25.277344 43.5 25.277344 "/>
<path style=" stroke:none;fill-rule:nonzero;fill:rgb(100%,33.333333%,33.333333%);fill-opacity:1;" d="M 21.75 39.722656 C 21.75 39.722656 23.199219 43.332031 24.890625 45.742188 C 26.582031 48.148438 29 50.554688 29 50.554688 C 29 50.554688 26.582031 52.964844 24.890625 55.371094 C 23.199219 57.777344 21.75 61.390625 21.75 61.390625 C 21.75 61.390625 20.300781 57.777344 18.609375 55.371094 C 16.917969 52.964844 14.5 50.554688 14.5 50.554688 C 14.5 50.554688 16.917969 48.148438 18.609375 45.742188 C 20.300781 43.332031 21.75 39.722656 21.75 39.722656 "/>
<path style=" stroke:none;fill-rule:nonzero;fill:rgb(100%,33.333333%,33.333333%);fill-opacity:1;" d="M 65.25 39.722656 C 65.25 39.722656 66.699219 43.332031 68.390625 45.742188 C 70.082031 48.148438 72.5 50.554688 72.5 50.554688 C 72.5 50.554688 70.082031 52.964844 68.390625 55.371094 C 66.699219 57.777344 65.25 61.390625 65.25 61.390625 C 65.25 61.390625 63.800781 57.777344 62.109375 55.371094 C 60.417969 52.964844 58 50.554688 58 50.554688 C 58 50.554688 60.417969 48.148438 62.109375 45.742188 C 63.800781 43.332031 65.25 39.722656 65.25 39.722656 "/>
<path style=" stroke:none;fill-rule:nonzero;fill:rgb(100%,33.333333%,33.333333%);fill-opacity:1;" d="M 21.75 68.609375 C 21.75 68.609375 23.199219 72.222656 24.890625 74.628906 C 26.582031 77.035156 29 79.445312 29 79.445312 C 29 79.445312 26.582031 81.851562 24.890625 84.257812 C 23.199219 86.667969 21.75 90.277344 21.75 90.277344 C 21.75 90.277344 20.300781 86.667969 18.609375 84.257812 C 16.917969 81.851562 14.5 79.445312 14.5 79.445312 C 14.5 79.445312 16.917969 77.035156 18.609375 74.628906 C 20.300781 72.222656 21.75 68.609375 21.75 68.609375 "/>
<path style=" stroke:none;fill-rule:nonzero;fill:rgb(100%,33.333333%,33.333333%);fill-opacity:1;" d="M 65.25 68.609375 C 65.25 68.609375 66.699219 72.222656 68.390625 74.628906 C 70.082031 77.035156 72.5 79.445312 72.5 79.445312 C 72.5 79.445312 70.082031 81.851562 68.390625 84.257812 C 66.699219 86.667969 65.25 90.277344 65.25 90.277344 C 65.25 90.277344 63.800781 86.667969 62.109375 84.257812 C 60.417969 81.851562 58 79.445312 58 79.445312 C 58 79.445312 60.417969 77.035156 62.109375 74.628906 C 63.800781 72.222656 65.25 68.609375 65.25 68.609375 "/>
<path style=" stroke:none;fill-rule:nonzero;fill:rgb(100%,33.333333%,33.333333%);fill-opacity:1;" d="M 43.5 83.054688 C 43.5 83.054688 44.949219 86.667969 46.640625 89.074219 C 48.332031 91.480469 50.75 93.890625 50.75 93.890625 C 50.75 93.890625 48.332031 96.296875 46.640625 98.703125 C 44.949219 101.109375 43.5 104.722656 43.5 104.722656 C 43.5 104.722656 42.050781 101.109375 40.359375 98.703125 C 38.667969 96.296875 36.25 93.890625 36.25 93.890625 C 36.25 93.890625 38.667969 91.480469 40.359375 89.074219 C 42.050781 86.667969 43.5 83.054688 43.5 83.054688 "/>
<path style=" stroke:none;fill-rule:nonzero;fill:rgb(100%,33.333333%,33.333333%);fill-opacity:1;" d="M 21.75 97.5 C 21.75 97.5 23.199219 101.109375 24.890625 103.519531 C 26.582031 105.925781 29 108.332031 29 108.332031 C 29 108.332031 26.582031 110.742188 24.890625 113.148438 C 23.199219 115.554688 21.75 119.167969 21.75 119.167969 C 21.75 119.167969 20.300781 115.554688 18.609375 113.148438 C 16.917969 110.742188 14.5 108.332031 14.5 108.332031 C 14.5 108.332031 16.917969 105.925781 18.609375 103.519531 C 20.300781 101.109375 21.75 97.5 21.75 97.5 "/>
<path style=" stroke:none;fill-rule:nonzero;fill:rgb(100%,33.333333%,33.333333%);fill-opacity:1;" d="M 65.25 97.5 C 65.25 97.5 66.699219 101.109375 68.390625 103.519531 C 70.082031 105.925781 72.5 108.332031 72.5 108.332031 C 72.5 108.332031 70.082031 110.742188 68.390625 113.148438 C 66.699219 115.554688 65.25 119.167969 65.25 119.167969 C 65.25 119.167969 63.800781 115.554688 62.109375 113.148438 C 60.417969 110.742188 58 108.332031 58 108.332031 C 58 108.332031 60.417969 105.925781 62.109375 103.519531 C 63.800781 101.109375 65.25 97.5 65.25 97.5 "/>
<path style=" stroke:none;fill-rule:nonzero;fill:rgb(100%,33.333333%,33.333333%);fill-opacity:1;" d="M 7.25 21.667969 C 7.25 21.667969 7.976562 23.472656 8.820312 24.675781 C 9.667969 25.878906 10.875 27.082031 10.875 27.082031 C 10.875 27.082031 9.667969 28.285156 8.820312 29.492188 C 7.976562 30.695312 7.25 32.5 7.25 32.5 C 7.25 32.5 6.523438 30.695312 5.679688 29.492188 C 4.832031 28.285156 3.625 27.082031 3.625 27.082031 C 3.625 27.082031 4.832031 25.878906 5.679688 24.675781 C 6.523438 23.472656 7.25 21.667969 7.25 21.667969 "/>
<path style=" stroke:none;fill-rule:nonzero;fill:rgb(100%,33.333333%,33.333333%);fill-opacity:1;" d="M 79.75 97.5 C 79.75 97.5 80.476562 99.304688 81.320312 100.507812 C 82.167969 101.714844 83.375 102.917969 83.375 102.917969 C 83.375 102.917969 82.167969 104.121094 81.320312 105.324219 C 80.476562 106.527344 79.75 108.332031 79.75 108.332031 C 79.75 108.332031 79.023438 106.527344 78.179688 105.324219 C 77.332031 104.121094 76.125 102.917969 76.125 102.917969 C 76.125 102.917969 77.332031 101.714844 78.179688 100.507812 C 79.023438 99.304688 79.75 97.5 79.75 97.5 "/>
</g>
</svg>
