<?xml version="1.0" encoding="UTF-8"?>
<svg xmlns="http://www.w3.org/2000/svg" xmlns:xlink="http://www.w3.org/1999/xlink" width="90px" height="130px" viewBox="0 0 90 130" version="1.1">
<g id="surface1">
<path style="fill-rule:nonzero;fill:rgb(100%,100%,100%);fill-opacity:1;stroke-width:1;stroke-linecap:butt;stroke-linejoin:miter;stroke:rgb(0%,0%,0%);stroke-opacity:1;stroke-miterlimit:4;" d="M 30.4375 512.865187 L 329.5625 512.865187 C 346.09375 512.865187 359.5 526.267832 359.5 542.802086 L 359.5 1021.922279 C 359.5 1038.456534 346.09375 1051.859178 329.5625 1051.859178 L 30.4375 1051.859178 C 13.90625 1051.859178 0.5 1038.456534 0.5 1021.922279 L 0.5 542.802086 C 0.5 526.267832 13.90625 512.865187 30.4375 512.865187 Z M 30.4375 512.865187 " transform="matrix(0.25,0,0,0.240741,0,-123.346451)"/>
<path style=" stroke:none;fill-rule:nonzero;fill:rgb(100%,33.333334%,33.333334%);fill-opacity:1;" d="M 7.5 7.222656 C 6.113281 7.222656 5 8.296875 5 9.628906 L 5 10.832031 L 6.25 10.832031 L 6.25 9.628906 C 6.25 8.960938 6.808594 8.425781 7.5 8.425781 C 8.191406 8.425781 8.75 8.960938 8.75 9.628906 L 8.75 10.832031 C 8.75 11.5 8.191406 12.035156 7.5 12.035156 L 6.25 12.035156 L 6.25 13.242188 L 7.5 13.242188 C 8.191406 13.242188 8.75 13.777344 8.75 14.445312 L 8.75 16.851562 C 8.75 17.519531 8.191406 18.054688 7.5 18.054688 C 6.808594 18.054688 6.25 17.519531 6.25 16.851562 L 6.25 15.648438 L 5 15.648438 L 5 16.851562 C 5 18.183594 6.113281 19.257812 7.5 19.257812 C 8.886719 19.257812 10 18.183594 10 16.851562 L 10 14.445312 C 10 13.722656 9.667969 13.078125 9.148438 12.640625 C 9.667969 12.199219 10 11.554688 10 10.832031 L 10 9.628906 C 10 8.296875 8.886719 7.222656 7.5 7.222656 Z M 7.5 7.222656 "/>
<path style=" stroke:none;fill-rule:nonzero;fill:rgb(100%,33.333334%,33.333334%);fill-opacity:1;" d="M 82.5 122.777344 C 83.886719 122.777344 85 121.703125 85 120.371094 L 85 119.167969 L 83.75 119.167969 L 83.75 120.371094 C 83.75 121.039062 83.191406 121.574219 82.5 121.574219 C 81.808594 121.574219 81.25 121.039062 81.25 120.371094 L 81.25 119.167969 C 81.25 118.5 81.808594 117.964844 82.5 117.964844 L 83.75 117.964844 L 83.75 116.757812 L 82.5 116.757812 C 81.808594 116.757812 81.25 116.222656 81.25 115.554688 L 81.25 113.148438 C 81.25 112.480469 81.808594 111.945312 82.5 111.945312 C 83.191406 111.945312 83.75 112.480469 83.75 113.148438 L 83.75 114.351562 L 85 114.351562 L 85 113.148438 C 85 111.8125 83.886719 110.742188 82.5 110.742188 C 81.113281 110.742188 80 111.8125 80 113.148438 L 80 115.554688 C 80 116.277344 80.332031 116.921875 80.851562 117.359375 C 80.332031 117.800781 80 118.445312 80 119.167969 L 80 120.371094 C 80 121.703125 81.113281 122.777344 82.5 122.777344 Z M 82.5 122.777344 "/>
<path style=" stroke:none;fill-rule:nonzero;fill:rgb(100%,33.333334%,33.333334%);fill-opacity:1;" d="M 7.5 21.667969 C 7.5 21.667969 8.25 23.472656 9.125 24.675781 C 10 25.878906 11.25 27.082031 11.25 27.082031 C 11.25 27.082031 10 28.285156 9.125 29.492188 C 8.25 30.695312 7.5 32.5 7.5 32.5 C 7.5 32.5 6.75 30.695312 5.875 29.492188 C 5 28.285156 3.75 27.082031 3.75 27.082031 C 3.75 27.082031 5 25.878906 5.875 24.675781 C 6.75 23.472656 7.5 21.667969 7.5 21.667969 "/>
<path style=" stroke:none;fill-rule:nonzero;fill:rgb(100%,33.333334%,33.333334%);fill-opacity:1;" d="M 82.5 97.5 C 82.5 97.5 83.25 99.304688 84.125 100.507812 C 85 101.714844 86.25 102.917969 86.25 102.917969 C 86.25 102.917969 85 104.121094 84.125 105.324219 C 83.25 106.527344 82.5 108.332031 82.5 108.332031 C 82.5 108.332031 81.75 106.527344 80.875 105.324219 C 80 104.121094 78.75 102.917969 78.75 102.917969 C 78.75 102.917969 80 101.714844 80.875 100.507812 C 81.75 99.304688 82.5 97.5 82.5 97.5 "/>
<path style=" stroke:none;fill-rule:nonzero;fill:rgb(100%,33.333334%,33.333334%);fill-opacity:1;" d="M 45 10.832031 C 45 10.832031 46.5 14.445312 48.25 16.851562 C 50 19.257812 52.5 21.667969 52.5 21.667969 C 52.5 21.667969 50 24.074219 48.25 26.480469 C 46.5 28.890625 45 32.5 45 32.5 C 45 32.5 43.5 28.890625 41.75 26.480469 C 40 24.074219 37.5 21.667969 37.5 21.667969 C 37.5 21.667969 40 19.257812 41.75 16.851562 C 43.5 14.445312 45 10.832031 45 10.832031 "/>
<path style=" stroke:none;fill-rule:nonzero;fill:rgb(100%,33.333334%,33.333334%);fill-opacity:1;" d="M 45 54.167969 C 45 54.167969 46.5 57.777344 48.25 60.183594 C 50 62.59375 52.5 65 52.5 65 C 52.5 65 50 67.40625 48.25 69.816406 C 46.5 72.222656 45 75.832031 45 75.832031 C 45 75.832031 43.5 72.222656 41.75 69.816406 C 40 67.40625 37.5 65 37.5 65 C 37.5 65 40 62.59375 41.75 60.183594 C 43.5 57.777344 45 54.167969 45 54.167969 "/>
<path style=" stroke:none;fill-rule:nonzero;fill:rgb(100%,33.333334%,33.333334%);fill-opacity:1;" d="M 45 97.5 C 45 97.5 46.5 101.109375 48.25 103.519531 C 50 105.925781 52.5 108.332031 52.5 108.332031 C 52.5 108.332031 50 110.742188 48.25 113.148438 C 46.5 115.554688 45 119.167969 45 119.167969 C 45 119.167969 43.5 115.554688 41.75 113.148438 C 40 110.742188 37.5 108.332031 37.5 108.332031 C 37.5 108.332031 40 105.925781 41.75 103.519531 C 43.5 101.109375 45 97.5 45 97.5 "/>
</g>
</svg>
