<?xml version="1.0" encoding="UTF-8"?>
<svg xmlns="http://www.w3.org/2000/svg" xmlns:xlink="http://www.w3.org/1999/xlink" width="87pt" height="130pt" viewBox="0 0 87 130" version="1.1">
<g id="surface1">
<path style="fill-rule:nonzero;fill:rgb(100%,100%,100%);fill-opacity:1;stroke-width:1;stroke-linecap:butt;stroke-linejoin:miter;stroke:rgb(0%,0%,0%);stroke-opacity:1;stroke-miterlimit:4;" d="M 30.44419 512.865185 L 329.555181 512.865185 C 346.090741 512.865185 359.50669 526.267829 359.50669 542.802084 L 359.50669 1021.922276 C 359.50669 1038.456531 346.090741 1051.859175 329.555181 1051.859175 L 30.44419 1051.859175 C 13.908629 1051.859175 0.492681 1038.456531 0.492681 1021.922276 L 0.492681 542.802084 C 0.492681 526.267829 13.908629 512.865185 30.44419 512.865185 Z M 30.44419 512.865185 " transform="matrix(0.241667,0,0,0.240741,0.0879667,-123.346451)"/>
<path style=" stroke:none;fill-rule:nonzero;fill:rgb(100%,33.333333%,33.333333%);fill-opacity:1;" d="M 4.921875 7.222656 L 4.921875 12.035156 L 7.339844 12.035156 C 8.007812 12.035156 8.546875 12.574219 8.546875 13.242188 L 8.546875 16.851562 C 8.546875 17.519531 8.007812 18.054688 7.339844 18.054688 C 6.667969 18.054688 6.128906 17.519531 6.128906 16.851562 L 6.128906 15.648438 L 4.921875 15.648438 L 4.921875 16.851562 C 4.921875 18.183594 6 19.257812 7.339844 19.257812 C 8.675781 19.257812 9.753906 18.183594 9.753906 16.851562 L 9.753906 13.242188 C 9.753906 11.90625 8.675781 10.832031 7.339844 10.832031 L 6.128906 10.832031 L 6.128906 8.425781 L 9.753906 8.425781 L 9.753906 7.222656 Z M 4.921875 7.222656 "/>
<path style=" stroke:none;fill-rule:nonzero;fill:rgb(100%,33.333333%,33.333333%);fill-opacity:1;" d="M 82.253906 122.777344 L 82.253906 117.964844 L 79.839844 117.964844 C 79.167969 117.964844 78.628906 117.425781 78.628906 116.757812 L 78.628906 113.148438 C 78.628906 112.480469 79.167969 111.945312 79.839844 111.945312 C 80.507812 111.945312 81.046875 112.480469 81.046875 113.148438 L 81.046875 114.351562 L 82.253906 114.351562 L 82.253906 113.148438 C 82.253906 111.8125 81.175781 110.742188 79.839844 110.742188 C 78.5 110.742188 77.421875 111.8125 77.421875 113.148438 L 77.421875 116.757812 C 77.421875 118.09375 78.5 119.167969 79.839844 119.167969 L 81.046875 119.167969 L 81.046875 121.574219 L 77.421875 121.574219 L 77.421875 122.777344 Z M 82.253906 122.777344 "/>
<path style=" stroke:none;fill-rule:nonzero;fill:rgb(100%,33.333333%,33.333333%);fill-opacity:1;" d="M 7.339844 21.667969 C 7.339844 21.667969 8.0625 23.472656 8.910156 24.675781 C 9.753906 25.878906 10.964844 27.082031 10.964844 27.082031 C 10.964844 27.082031 9.753906 28.285156 8.910156 29.492188 C 8.0625 30.695312 7.339844 32.5 7.339844 32.5 C 7.339844 32.5 6.613281 30.695312 5.765625 29.492188 C 4.921875 28.285156 3.714844 27.082031 3.714844 27.082031 C 3.714844 27.082031 4.921875 25.878906 5.765625 24.675781 C 6.613281 23.472656 7.339844 21.667969 7.339844 21.667969 "/>
<path style=" stroke:none;fill-rule:nonzero;fill:rgb(100%,33.333333%,33.333333%);fill-opacity:1;" d="M 79.839844 97.5 C 79.839844 97.5 80.5625 99.304688 81.410156 100.507812 C 82.253906 101.714844 83.464844 102.917969 83.464844 102.917969 C 83.464844 102.917969 82.253906 104.121094 81.410156 105.324219 C 80.5625 106.527344 79.839844 108.332031 79.839844 108.332031 C 79.839844 108.332031 79.113281 106.527344 78.265625 105.324219 C 77.421875 104.121094 76.214844 102.917969 76.214844 102.917969 C 76.214844 102.917969 77.421875 101.714844 78.265625 100.507812 C 79.113281 99.304688 79.839844 97.5 79.839844 97.5 "/>
<path style=" stroke:none;fill-rule:nonzero;fill:rgb(100%,33.333333%,33.333333%);fill-opacity:1;" d="M 21.839844 10.832031 C 21.839844 10.832031 23.289062 14.445312 24.980469 16.851562 C 26.671875 19.257812 29.089844 21.667969 29.089844 21.667969 C 29.089844 21.667969 26.671875 24.074219 24.980469 26.480469 C 23.289062 28.890625 21.839844 32.5 21.839844 32.5 C 21.839844 32.5 20.386719 28.890625 18.695312 26.480469 C 17.003906 24.074219 14.589844 21.667969 14.589844 21.667969 C 14.589844 21.667969 17.003906 19.257812 18.695312 16.851562 C 20.386719 14.445312 21.839844 10.832031 21.839844 10.832031 "/>
<path style=" stroke:none;fill-rule:nonzero;fill:rgb(100%,33.333333%,33.333333%);fill-opacity:1;" d="M 65.339844 10.832031 C 65.339844 10.832031 66.789062 14.445312 68.480469 16.851562 C 70.171875 19.257812 72.589844 21.667969 72.589844 21.667969 C 72.589844 21.667969 70.171875 24.074219 68.480469 26.480469 C 66.789062 28.890625 65.339844 32.5 65.339844 32.5 C 65.339844 32.5 63.886719 28.890625 62.195312 26.480469 C 60.503906 24.074219 58.089844 21.667969 58.089844 21.667969 C 58.089844 21.667969 60.503906 19.257812 62.195312 16.851562 C 63.886719 14.445312 65.339844 10.832031 65.339844 10.832031 "/>
<path style=" stroke:none;fill-rule:nonzero;fill:rgb(100%,33.333333%,33.333333%);fill-opacity:1;" d="M 43.589844 54.167969 C 43.589844 54.167969 45.039062 57.777344 46.730469 60.183594 C 48.421875 62.59375 50.839844 65 50.839844 65 C 50.839844 65 48.421875 67.40625 46.730469 69.816406 C 45.039062 72.222656 43.589844 75.832031 43.589844 75.832031 C 43.589844 75.832031 42.136719 72.222656 40.445312 69.816406 C 38.753906 67.40625 36.339844 65 36.339844 65 C 36.339844 65 38.753906 62.59375 40.445312 60.183594 C 42.136719 57.777344 43.589844 54.167969 43.589844 54.167969 "/>
<path style=" stroke:none;fill-rule:nonzero;fill:rgb(100%,33.333333%,33.333333%);fill-opacity:1;" d="M 21.839844 97.5 C 21.839844 97.5 23.289062 101.109375 24.980469 103.519531 C 26.671875 105.925781 29.089844 108.332031 29.089844 108.332031 C 29.089844 108.332031 26.671875 110.742188 24.980469 113.148438 C 23.289062 115.554688 21.839844 119.167969 21.839844 119.167969 C 21.839844 119.167969 20.386719 115.554688 18.695312 113.148438 C 17.003906 110.742188 14.589844 108.332031 14.589844 108.332031 C 14.589844 108.332031 17.003906 105.925781 18.695312 103.519531 C 20.386719 101.109375 21.839844 97.5 21.839844 97.5 "/>
<path style=" stroke:none;fill-rule:nonzero;fill:rgb(100%,33.333333%,33.333333%);fill-opacity:1;" d="M 65.339844 97.5 C 65.339844 97.5 66.789062 101.109375 68.480469 103.519531 C 70.171875 105.925781 72.589844 108.332031 72.589844 108.332031 C 72.589844 108.332031 70.171875 110.742188 68.480469 113.148438 C 66.789062 115.554688 65.339844 119.167969 65.339844 119.167969 C 65.339844 119.167969 63.886719 115.554688 62.195312 113.148438 C 60.503906 110.742188 58.089844 108.332031 58.089844 108.332031 C 58.089844 108.332031 60.503906 105.925781 62.195312 103.519531 C 63.886719 101.109375 65.339844 97.5 65.339844 97.5 "/>
</g>
</svg>
