<?xml version="1.0" encoding="UTF-8"?>
<svg xmlns="http://www.w3.org/2000/svg" xmlns:xlink="http://www.w3.org/1999/xlink" width="90px" height="130px" viewBox="0 0 90 130" version="1.1">
<g id="surface1">
<path style="fill-rule:nonzero;fill:rgb(100%,100%,100%);fill-opacity:1;stroke-width:1;stroke-linecap:butt;stroke-linejoin:miter;stroke:rgb(0%,0%,0%);stroke-opacity:1;stroke-miterlimit:4;" d="M 30.4375 512.865187 L 329.5625 512.865187 C 346.09375 512.865187 359.5 526.267832 359.5 542.802086 L 359.5 1021.922279 C 359.5 1038.456534 346.09375 1051.859178 329.5625 1051.859178 L 30.4375 1051.859178 C 13.90625 1051.859178 0.5 1038.456534 0.5 1021.922279 L 0.5 542.802086 C 0.5 526.267832 13.90625 512.865187 30.4375 512.865187 Z M 30.4375 512.865187 " transform="matrix(0.25,0,0,0.240741,0,-123.346451)"/>
<path style=" stroke:none;fill-rule:nonzero;fill:rgb(100%,33.333334%,33.333334%);fill-opacity:1;" d="M 7.5 7.222656 L 5 15.648438 L 5 16.851562 L 8 16.851562 L 8 19.257812 L 9.25 19.257812 L 9.25 16.851562 L 10 16.851562 L 10 15.648438 L 9.25 15.648438 L 9.25 12.035156 L 8 12.035156 L 8 15.648438 L 6.300781 15.648438 L 8.800781 7.222656 Z M 7.5 7.222656 "/>
<path style=" stroke:none;fill-rule:nonzero;fill:rgb(100%,33.333334%,33.333334%);fill-opacity:1;" d="M 82.5 122.777344 L 85 114.351562 L 85 113.148438 L 82 113.148438 L 82 110.742188 L 80.75 110.742188 L 80.75 113.148438 L 80 113.148438 L 80 114.351562 L 80.75 114.351562 L 80.75 117.964844 L 82 117.964844 L 82 114.351562 L 83.699219 114.351562 L 81.199219 122.777344 Z M 82.5 122.777344 "/>
<path style=" stroke:none;fill-rule:nonzero;fill:rgb(100%,33.333334%,33.333334%);fill-opacity:1;" d="M 22.5 10.832031 C 22.5 10.832031 24 14.445312 25.75 16.851562 C 27.5 19.257812 30 21.667969 30 21.667969 C 30 21.667969 27.5 24.074219 25.75 26.480469 C 24 28.890625 22.5 32.5 22.5 32.5 C 22.5 32.5 21 28.890625 19.25 26.480469 C 17.5 24.074219 15 21.667969 15 21.667969 C 15 21.667969 17.5 19.257812 19.25 16.851562 C 21 14.445312 22.5 10.832031 22.5 10.832031 "/>
<path style=" stroke:none;fill-rule:nonzero;fill:rgb(100%,33.333334%,33.333334%);fill-opacity:1;" d="M 67.5 10.832031 C 67.5 10.832031 69 14.445312 70.75 16.851562 C 72.5 19.257812 75 21.667969 75 21.667969 C 75 21.667969 72.5 24.074219 70.75 26.480469 C 69 28.890625 67.5 32.5 67.5 32.5 C 67.5 32.5 66 28.890625 64.25 26.480469 C 62.5 24.074219 60 21.667969 60 21.667969 C 60 21.667969 62.5 19.257812 64.25 16.851562 C 66 14.445312 67.5 10.832031 67.5 10.832031 "/>
<path style=" stroke:none;fill-rule:nonzero;fill:rgb(100%,33.333334%,33.333334%);fill-opacity:1;" d="M 22.5 97.5 C 22.5 97.5 24 101.109375 25.75 103.519531 C 27.5 105.925781 30 108.332031 30 108.332031 C 30 108.332031 27.5 110.742188 25.75 113.148438 C 24 115.554688 22.5 119.167969 22.5 119.167969 C 22.5 119.167969 21 115.554688 19.25 113.148438 C 17.5 110.742188 15 108.332031 15 108.332031 C 15 108.332031 17.5 105.925781 19.25 103.519531 C 21 101.109375 22.5 97.5 22.5 97.5 "/>
<path style=" stroke:none;fill-rule:nonzero;fill:rgb(100%,33.333334%,33.333334%);fill-opacity:1;" d="M 67.5 97.5 C 67.5 97.5 69 101.109375 70.75 103.519531 C 72.5 105.925781 75 108.332031 75 108.332031 C 75 108.332031 72.5 110.742188 70.75 113.148438 C 69 115.554688 67.5 119.167969 67.5 119.167969 C 67.5 119.167969 66 115.554688 64.25 113.148438 C 62.5 110.742188 60 108.332031 60 108.332031 C 60 108.332031 62.5 105.925781 64.25 103.519531 C 66 101.109375 67.5 97.5 67.5 97.5 "/>
<path style=" stroke:none;fill-rule:nonzero;fill:rgb(100%,33.333334%,33.333334%);fill-opacity:1;" d="M 7.5 21.667969 C 7.5 21.667969 8.25 23.472656 9.125 24.675781 C 10 25.878906 11.25 27.082031 11.25 27.082031 C 11.25 27.082031 10 28.285156 9.125 29.492188 C 8.25 30.695312 7.5 32.5 7.5 32.5 C 7.5 32.5 6.75 30.695312 5.875 29.492188 C 5 28.285156 3.75 27.082031 3.75 27.082031 C 3.75 27.082031 5 25.878906 5.875 24.675781 C 6.75 23.472656 7.5 21.667969 7.5 21.667969 "/>
<path style=" stroke:none;fill-rule:nonzero;fill:rgb(100%,33.333334%,33.333334%);fill-opacity:1;" d="M 82.5 97.5 C 82.5 97.5 83.25 99.304688 84.125 100.507812 C 85 101.714844 86.25 102.917969 86.25 102.917969 C 86.25 102.917969 85 104.121094 84.125 105.324219 C 83.25 106.527344 82.5 108.332031 82.5 108.332031 C 82.5 108.332031 81.75 106.527344 80.875 105.324219 C 80 104.121094 78.75 102.917969 78.75 102.917969 C 78.75 102.917969 80 101.714844 80.875 100.507812 C 81.75 99.304688 82.5 97.5 82.5 97.5 "/>
</g>
</svg>
