<?xml version="1.0" encoding="UTF-8"?>
<svg xmlns="http://www.w3.org/2000/svg" xmlns:xlink="http://www.w3.org/1999/xlink" width="87pt" height="130pt" viewBox="0 0 87 130" version="1.1">
<g id="surface1">
<path style="fill-rule:nonzero;fill:rgb(100%,100%,100%);fill-opacity:1;stroke-width:1;stroke-linecap:butt;stroke-linejoin:miter;stroke:rgb(0%,0%,0%);stroke-opacity:1;stroke-miterlimit:4;" d="M 30.436422 512.865185 L 329.563578 512.865185 C 346.099138 512.865185 359.498922 526.267829 359.498922 542.802084 L 359.498922 1021.922276 C 359.498922 1038.456531 346.099138 1051.859175 329.563578 1051.859175 L 30.436422 1051.859175 C 13.900862 1051.859175 0.501078 1038.456531 0.501078 1021.922276 L 0.501078 542.802084 C 0.501078 526.267829 13.900862 512.865185 30.436422 512.865185 Z M 30.436422 512.865185 " transform="matrix(0.241667,0,0,0.240741,0,-123.346451)"/>
<path style=" stroke:none;fill-rule:nonzero;fill:rgb(100%,33.333333%,33.333333%);fill-opacity:1;" d="M 7.25 7.222656 C 5.910156 7.222656 4.832031 8.296875 4.832031 9.628906 L 4.832031 10.832031 L 6.042969 10.832031 L 6.042969 9.628906 C 6.042969 8.960938 6.582031 8.425781 7.25 8.425781 C 7.917969 8.425781 8.457031 8.960938 8.457031 9.628906 L 8.457031 10.832031 C 8.457031 11.105469 8.367188 11.570312 8.214844 11.773438 C 7.136719 13.964844 5.972656 15.894531 4.832031 18.054688 L 4.832031 19.257812 L 9.667969 19.257812 L 9.667969 16.851562 L 8.457031 16.851562 L 8.457031 18.054688 L 6.164062 18.054688 C 7.246094 16.148438 8.148438 14.308594 9.183594 12.375 C 9.484375 11.972656 9.667969 11.375 9.667969 10.832031 L 9.667969 9.628906 C 9.667969 8.296875 8.589844 7.222656 7.25 7.222656 Z M 7.25 7.222656 "/>
<path style=" stroke:none;fill-rule:nonzero;fill:rgb(100%,33.333333%,33.333333%);fill-opacity:1;" d="M 79.75 122.777344 C 81.089844 122.777344 82.167969 121.703125 82.167969 120.371094 L 82.167969 119.167969 L 80.957031 119.167969 L 80.957031 120.371094 C 80.957031 121.039062 80.417969 121.574219 79.75 121.574219 C 79.082031 121.574219 78.542969 121.039062 78.542969 120.371094 L 78.542969 119.167969 C 78.542969 118.894531 78.632812 118.429688 78.785156 118.226562 C 79.863281 116.035156 81.027344 114.105469 82.167969 111.945312 L 82.167969 110.742188 L 77.332031 110.742188 L 77.332031 113.148438 L 78.542969 113.148438 L 78.542969 111.945312 L 80.835938 111.945312 C 79.753906 113.851562 78.851562 115.691406 77.816406 117.625 C 77.515625 118.027344 77.332031 118.625 77.332031 119.167969 L 77.332031 120.371094 C 77.332031 121.703125 78.410156 122.777344 79.75 122.777344 Z M 79.75 122.777344 "/>
<path style=" stroke:none;fill-rule:nonzero;fill:rgb(100%,33.333333%,33.333333%);fill-opacity:1;" d="M 43.5 10.832031 C 43.5 10.832031 44.949219 14.445312 46.640625 16.851562 C 48.332031 19.257812 50.75 21.667969 50.75 21.667969 C 50.75 21.667969 48.332031 24.074219 46.640625 26.480469 C 44.949219 28.890625 43.5 32.5 43.5 32.5 C 43.5 32.5 42.050781 28.890625 40.359375 26.480469 C 38.667969 24.074219 36.25 21.667969 36.25 21.667969 C 36.25 21.667969 38.667969 19.257812 40.359375 16.851562 C 42.050781 14.445312 43.5 10.832031 43.5 10.832031 "/>
<path style=" stroke:none;fill-rule:nonzero;fill:rgb(100%,33.333333%,33.333333%);fill-opacity:1;" d="M 43.5 97.5 C 43.5 97.5 44.949219 101.109375 46.640625 103.519531 C 48.332031 105.925781 50.75 108.332031 50.75 108.332031 C 50.75 108.332031 48.332031 110.742188 46.640625 113.148438 C 44.949219 115.554688 43.5 119.167969 43.5 119.167969 C 43.5 119.167969 42.050781 115.554688 40.359375 113.148438 C 38.667969 110.742188 36.25 108.332031 36.25 108.332031 C 36.25 108.332031 38.667969 105.925781 40.359375 103.519531 C 42.050781 101.109375 43.5 97.5 43.5 97.5 "/>
<path style=" stroke:none;fill-rule:nonzero;fill:rgb(100%,33.333333%,33.333333%);fill-opacity:1;" d="M 7.25 21.667969 C 7.25 21.667969 7.976562 23.472656 8.820312 24.675781 C 9.667969 25.878906 10.875 27.082031 10.875 27.082031 C 10.875 27.082031 9.667969 28.285156 8.820312 29.492188 C 7.976562 30.695312 7.25 32.5 7.25 32.5 C 7.25 32.5 6.523438 30.695312 5.679688 29.492188 C 4.832031 28.285156 3.625 27.082031 3.625 27.082031 C 3.625 27.082031 4.832031 25.878906 5.679688 24.675781 C 6.523438 23.472656 7.25 21.667969 7.25 21.667969 "/>
<path style=" stroke:none;fill-rule:nonzero;fill:rgb(100%,33.333333%,33.333333%);fill-opacity:1;" d="M 79.75 97.5 C 79.75 97.5 80.476562 99.304688 81.320312 100.507812 C 82.167969 101.714844 83.375 102.917969 83.375 102.917969 C 83.375 102.917969 82.167969 104.121094 81.320312 105.324219 C 80.476562 106.527344 79.75 108.332031 79.75 108.332031 C 79.75 108.332031 79.023438 106.527344 78.179688 105.324219 C 77.332031 104.121094 76.125 102.917969 76.125 102.917969 C 76.125 102.917969 77.332031 101.714844 78.179688 100.507812 C 79.023438 99.304688 79.75 97.5 79.75 97.5 "/>
</g>
</svg>
