<?xml version="1.0" encoding="UTF-8"?>
<svg xmlns="http://www.w3.org/2000/svg" xmlns:xlink="http://www.w3.org/1999/xlink" width="90px" height="130px" viewBox="0 0 90 130" version="1.1">
<g id="surface1">
<path style="fill-rule:nonzero;fill:rgb(100%,100%,100%);fill-opacity:1;stroke-width:1;stroke-linecap:butt;stroke-linejoin:miter;stroke:rgb(0%,0%,0%);stroke-opacity:1;stroke-miterlimit:4;" d="M 30.4375 512.865187 L 329.5625 512.865187 C 346.09375 512.865187 359.5 526.267832 359.5 542.802086 L 359.5 1021.922279 C 359.5 1038.456534 346.09375 1051.859178 329.5625 1051.859178 L 30.4375 1051.859178 C 13.90625 1051.859178 0.5 1038.456534 0.5 1021.922279 L 0.5 542.802086 C 0.5 526.267832 13.90625 512.865187 30.4375 512.865187 Z M 30.4375 512.865187 " transform="matrix(0.25,0,0,0.240741,0,-123.346451)"/>
<path style=" stroke:none;fill-rule:nonzero;fill:rgb(100%,33.333334%,33.333334%);fill-opacity:1;" d="M 5 7.222656 L 5 9.628906 L 6.25 9.628906 L 6.25 8.425781 L 8.75 8.425781 L 6.25 19.257812 L 7.5 19.257812 L 10 8.425781 L 10 7.222656 Z M 5 7.222656 "/>
<path style=" stroke:none;fill-rule:nonzero;fill:rgb(100%,33.333334%,33.333334%);fill-opacity:1;" d="M 85 122.777344 L 85 120.371094 L 83.75 120.371094 L 83.75 121.574219 L 81.25 121.574219 L 83.75 110.742188 L 82.5 110.742188 L 80 121.574219 L 80 122.777344 Z M 85 122.777344 "/>
<path style=" stroke:none;fill-rule:nonzero;fill:rgb(100%,33.333334%,33.333334%);fill-opacity:1;" d="M 7.5 21.667969 C 7.5 21.667969 8.25 23.472656 9.125 24.675781 C 10 25.878906 11.25 27.082031 11.25 27.082031 C 11.25 27.082031 10 28.285156 9.125 29.492188 C 8.25 30.695312 7.5 32.5 7.5 32.5 C 7.5 32.5 6.75 30.695312 5.875 29.492188 C 5 28.285156 3.75 27.082031 3.75 27.082031 C 3.75 27.082031 5 25.878906 5.875 24.675781 C 6.75 23.472656 7.5 21.667969 7.5 21.667969 "/>
<path style=" stroke:none;fill-rule:nonzero;fill:rgb(100%,33.333334%,33.333334%);fill-opacity:1;" d="M 82.5 97.5 C 82.5 97.5 83.25 99.304688 84.125 100.507812 C 85 101.714844 86.25 102.917969 86.25 102.917969 C 86.25 102.917969 85 104.121094 84.125 105.324219 C 83.25 106.527344 82.5 108.332031 82.5 108.332031 C 82.5 108.332031 81.75 106.527344 80.875 105.324219 C 80 104.121094 78.75 102.917969 78.75 102.917969 C 78.75 102.917969 80 101.714844 80.875 100.507812 C 81.75 99.304688 82.5 97.5 82.5 97.5 "/>
<path style=" stroke:none;fill-rule:nonzero;fill:rgb(100%,33.333334%,33.333334%);fill-opacity:1;" d="M 22.5 10.832031 C 22.5 10.832031 24 14.445312 25.75 16.851562 C 27.5 19.257812 30 21.667969 30 21.667969 C 30 21.667969 27.5 24.074219 25.75 26.480469 C 24 28.890625 22.5 32.5 22.5 32.5 C 22.5 32.5 21 28.890625 19.25 26.480469 C 17.5 24.074219 15 21.667969 15 21.667969 C 15 21.667969 17.5 19.257812 19.25 16.851562 C 21 14.445312 22.5 10.832031 22.5 10.832031 "/>
<path style=" stroke:none;fill-rule:nonzero;fill:rgb(100%,33.333334%,33.333334%);fill-opacity:1;" d="M 67.5 10.832031 C 67.5 10.832031 69 14.445312 70.75 16.851562 C 72.5 19.257812 75 21.667969 75 21.667969 C 75 21.667969 72.5 24.074219 70.75 26.480469 C 69 28.890625 67.5 32.5 67.5 32.5 C 67.5 32.5 66 28.890625 64.25 26.480469 C 62.5 24.074219 60 21.667969 60 21.667969 C 60 21.667969 62.5 19.257812 64.25 16.851562 C 66 14.445312 67.5 10.832031 67.5 10.832031 "/>
<path style=" stroke:none;fill-rule:nonzero;fill:rgb(100%,33.333334%,33.333334%);fill-opacity:1;" d="M 45 32.5 C 45 32.5 46.5 36.109375 48.25 38.519531 C 50 40.925781 52.5 43.332031 52.5 43.332031 C 52.5 43.332031 50 45.742188 48.25 48.148438 C 46.5 50.554688 45 54.167969 45 54.167969 C 45 54.167969 43.5 50.554688 41.75 48.148438 C 40 45.742188 37.5 43.332031 37.5 43.332031 C 37.5 43.332031 40 40.925781 41.75 38.519531 C 43.5 36.109375 45 32.5 45 32.5 "/>
<path style=" stroke:none;fill-rule:nonzero;fill:rgb(100%,33.333334%,33.333334%);fill-opacity:1;" d="M 22.5 54.167969 C 22.5 54.167969 24 57.777344 25.75 60.183594 C 27.5 62.59375 30 65 30 65 C 30 65 27.5 67.40625 25.75 69.816406 C 24 72.222656 22.5 75.832031 22.5 75.832031 C 22.5 75.832031 21 72.222656 19.25 69.816406 C 17.5 67.40625 15 65 15 65 C 15 65 17.5 62.59375 19.25 60.183594 C 21 57.777344 22.5 54.167969 22.5 54.167969 "/>
<path style=" stroke:none;fill-rule:nonzero;fill:rgb(100%,33.333334%,33.333334%);fill-opacity:1;" d="M 67.5 54.167969 C 67.5 54.167969 69 57.777344 70.75 60.183594 C 72.5 62.59375 75 65 75 65 C 75 65 72.5 67.40625 70.75 69.816406 C 69 72.222656 67.5 75.832031 67.5 75.832031 C 67.5 75.832031 66 72.222656 64.25 69.816406 C 62.5 67.40625 60 65 60 65 C 60 65 62.5 62.59375 64.25 60.183594 C 66 57.777344 67.5 54.167969 67.5 54.167969 "/>
<path style=" stroke:none;fill-rule:nonzero;fill:rgb(100%,33.333334%,33.333334%);fill-opacity:1;" d="M 22.5 97.5 C 22.5 97.5 24 101.109375 25.75 103.519531 C 27.5 105.925781 30 108.332031 30 108.332031 C 30 108.332031 27.5 110.742188 25.75 113.148438 C 24 115.554688 22.5 119.167969 22.5 119.167969 C 22.5 119.167969 21 115.554688 19.25 113.148438 C 17.5 110.742188 15 108.332031 15 108.332031 C 15 108.332031 17.5 105.925781 19.25 103.519531 C 21 101.109375 22.5 97.5 22.5 97.5 "/>
<path style=" stroke:none;fill-rule:nonzero;fill:rgb(100%,33.333334%,33.333334%);fill-opacity:1;" d="M 67.5 97.5 C 67.5 97.5 69 101.109375 70.75 103.519531 C 72.5 105.925781 75 108.332031 75 108.332031 C 75 108.332031 72.5 110.742188 70.75 113.148438 C 69 115.554688 67.5 119.167969 67.5 119.167969 C 67.5 119.167969 66 115.554688 64.25 113.148438 C 62.5 110.742188 60 108.332031 60 108.332031 C 60 108.332031 62.5 105.925781 64.25 103.519531 C 66 101.109375 67.5 97.5 67.5 97.5 "/>
</g>
</svg>
