<?xml version="1.0" encoding="UTF-8"?>
<svg xmlns="http://www.w3.org/2000/svg" xmlns:xlink="http://www.w3.org/1999/xlink" width="87pt" height="130pt" viewBox="0 0 87 130" version="1.1">
<g id="surface1">
<path style="fill-rule:nonzero;fill:rgb(100%,100%,100%);fill-opacity:1;stroke-width:1;stroke-linecap:butt;stroke-linejoin:miter;stroke:rgb(0%,0%,0%);stroke-opacity:1;stroke-miterlimit:4;" d="M 30.436422 512.865185 L 329.563578 512.865185 C 346.099138 512.865185 359.498922 526.267829 359.498922 542.802084 L 359.498922 1021.922276 C 359.498922 1038.456531 346.099138 1051.859175 329.563578 1051.859175 L 30.436422 1051.859175 C 13.900862 1051.859175 0.501078 1038.456531 0.501078 1021.922276 L 0.501078 542.802084 C 0.501078 526.267829 13.900862 512.865185 30.436422 512.865185 Z M 30.436422 512.865185 " transform="matrix(0.241667,0,0,0.240741,0,-123.346451)"/>
<path style=" stroke:none;fill-rule:nonzero;fill:rgb(100%,33.333333%,33.333333%);fill-opacity:1;" d="M 7.25 7.222656 L 4.832031 15.648438 L 4.832031 16.851562 L 7.734375 16.851562 L 7.734375 19.257812 L 8.941406 19.257812 L 8.941406 16.851562 L 9.667969 16.851562 L 9.667969 15.648438 L 8.941406 15.648438 L 8.941406 12.035156 L 7.734375 12.035156 L 7.734375 15.648438 L 6.089844 15.648438 L 8.507812 7.222656 Z M 7.25 7.222656 "/>
<path style=" stroke:none;fill-rule:nonzero;fill:rgb(100%,33.333333%,33.333333%);fill-opacity:1;" d="M 79.75 122.777344 L 82.167969 114.351562 L 82.167969 113.148438 L 79.265625 113.148438 L 79.265625 110.742188 L 78.058594 110.742188 L 78.058594 113.148438 L 77.332031 113.148438 L 77.332031 114.351562 L 78.058594 114.351562 L 78.058594 117.964844 L 79.265625 117.964844 L 79.265625 114.351562 L 80.910156 114.351562 L 78.492188 122.777344 Z M 79.75 122.777344 "/>
<path style=" stroke:none;fill-rule:nonzero;fill:rgb(100%,33.333333%,33.333333%);fill-opacity:1;" d="M 21.75 10.832031 C 21.75 10.832031 23.199219 14.445312 24.890625 16.851562 C 26.582031 19.257812 29 21.667969 29 21.667969 C 29 21.667969 26.582031 24.074219 24.890625 26.480469 C 23.199219 28.890625 21.75 32.5 21.75 32.5 C 21.75 32.5 20.300781 28.890625 18.609375 26.480469 C 16.917969 24.074219 14.5 21.667969 14.5 21.667969 C 14.5 21.667969 16.917969 19.257812 18.609375 16.851562 C 20.300781 14.445312 21.75 10.832031 21.75 10.832031 "/>
<path style=" stroke:none;fill-rule:nonzero;fill:rgb(100%,33.333333%,33.333333%);fill-opacity:1;" d="M 65.25 10.832031 C 65.25 10.832031 66.699219 14.445312 68.390625 16.851562 C 70.082031 19.257812 72.5 21.667969 72.5 21.667969 C 72.5 21.667969 70.082031 24.074219 68.390625 26.480469 C 66.699219 28.890625 65.25 32.5 65.25 32.5 C 65.25 32.5 63.800781 28.890625 62.109375 26.480469 C 60.417969 24.074219 58 21.667969 58 21.667969 C 58 21.667969 60.417969 19.257812 62.109375 16.851562 C 63.800781 14.445312 65.25 10.832031 65.25 10.832031 "/>
<path style=" stroke:none;fill-rule:nonzero;fill:rgb(100%,33.333333%,33.333333%);fill-opacity:1;" d="M 21.75 97.5 C 21.75 97.5 23.199219 101.109375 24.890625 103.519531 C 26.582031 105.925781 29 108.332031 29 108.332031 C 29 108.332031 26.582031 110.742188 24.890625 113.148438 C 23.199219 115.554688 21.75 119.167969 21.75 119.167969 C 21.75 119.167969 20.300781 115.554688 18.609375 113.148438 C 16.917969 110.742188 14.5 108.332031 14.5 108.332031 C 14.5 108.332031 16.917969 105.925781 18.609375 103.519531 C 20.300781 101.109375 21.75 97.5 21.75 97.5 "/>
<path style=" stroke:none;fill-rule:nonzero;fill:rgb(100%,33.333333%,33.333333%);fill-opacity:1;" d="M 65.25 97.5 C 65.25 97.5 66.699219 101.109375 68.390625 103.519531 C 70.082031 105.925781 72.5 108.332031 72.5 108.332031 C 72.5 108.332031 70.082031 110.742188 68.390625 113.148438 C 66.699219 115.554688 65.25 119.167969 65.25 119.167969 C 65.25 119.167969 63.800781 115.554688 62.109375 113.148438 C 60.417969 110.742188 58 108.332031 58 108.332031 C 58 108.332031 60.417969 105.925781 62.109375 103.519531 C 63.800781 101.109375 65.25 97.5 65.25 97.5 "/>
<path style=" stroke:none;fill-rule:nonzero;fill:rgb(100%,33.333333%,33.333333%);fill-opacity:1;" d="M 7.25 21.667969 C 7.25 21.667969 7.976562 23.472656 8.820312 24.675781 C 9.667969 25.878906 10.875 27.082031 10.875 27.082031 C 10.875 27.082031 9.667969 28.285156 8.820312 29.492188 C 7.976562 30.695312 7.25 32.5 7.25 32.5 C 7.25 32.5 6.523438 30.695312 5.679688 29.492188 C 4.832031 28.285156 3.625 27.082031 3.625 27.082031 C 3.625 27.082031 4.832031 25.878906 5.679688 24.675781 C 6.523438 23.472656 7.25 21.667969 7.25 21.667969 "/>
<path style=" stroke:none;fill-rule:nonzero;fill:rgb(100%,33.333333%,33.333333%);fill-opacity:1;" d="M 79.75 97.5 C 79.75 97.5 80.476562 99.304688 81.320312 100.507812 C 82.167969 101.714844 83.375 102.917969 83.375 102.917969 C 83.375 102.917969 82.167969 104.121094 81.320312 105.324219 C 80.476562 106.527344 79.75 108.332031 79.75 108.332031 C 79.75 108.332031 79.023438 106.527344 78.179688 105.324219 C 77.332031 104.121094 76.125 102.917969 76.125 102.917969 C 76.125 102.917969 77.332031 101.714844 78.179688 100.507812 C 79.023438 99.304688 79.75 97.5 79.75 97.5 "/>
</g>
</svg>
