<?xml version="1.0" encoding="UTF-8"?>
<svg xmlns="http://www.w3.org/2000/svg" xmlns:xlink="http://www.w3.org/1999/xlink" width="87pt" height="130pt" viewBox="0 0 87 130" version="1.1">
<g id="surface1">
<path style="fill-rule:nonzero;fill:rgb(100%,100%,100%);fill-opacity:1;stroke-width:1;stroke-linecap:butt;stroke-linejoin:miter;stroke:rgb(0%,0%,0%);stroke-opacity:1;stroke-miterlimit:4;" d="M 30.436422 512.865185 L 329.563578 512.865185 C 346.099138 512.865185 359.498922 526.267829 359.498922 542.802084 L 359.498922 1021.922276 C 359.498922 1038.456531 346.099138 1051.859175 329.563578 1051.859175 L 30.436422 1051.859175 C 13.900862 1051.859175 0.501078 1038.456531 0.501078 1021.922276 L 0.501078 542.802084 C 0.501078 526.267829 13.900862 512.865185 30.436422 512.865185 Z M 30.436422 512.865185 " transform="matrix(0.241667,0,0,0.240741,0,-123.346451)"/>
<path style=" stroke:none;fill-rule:nonzero;fill:rgb(100%,33.333333%,33.333333%);fill-opacity:1;" d="M 43.5 54.167969 C 43.5 54.167969 44.949219 57.777344 46.640625 60.183594 C 48.332031 62.59375 50.75 65 50.75 65 C 50.75 65 48.332031 67.40625 46.640625 69.816406 C 44.949219 72.222656 43.5 75.832031 43.5 75.832031 C 43.5 75.832031 42.050781 72.222656 40.359375 69.816406 C 38.667969 67.40625 36.25 65 36.25 65 C 36.25 65 38.667969 62.59375 40.359375 60.183594 C 42.050781 57.777344 43.5 54.167969 43.5 54.167969 "/>
<path style=" stroke:none;fill-rule:nonzero;fill:rgb(100%,33.333333%,33.333333%);fill-opacity:1;" d="M 6.644531 7.222656 L 4.472656 19.257812 L 5.679688 19.257812 L 6.246094 16.128906 L 8.253906 16.128906 L 8.820312 19.257812 L 10.027344 19.257812 L 7.855469 7.222656 Z M 7.25 10.570312 L 8.035156 14.925781 L 6.464844 14.925781 Z M 7.25 10.570312 "/>
<path style=" stroke:none;fill-rule:nonzero;fill:rgb(100%,33.333333%,33.333333%);fill-opacity:1;" d="M 79.144531 122.777344 L 76.972656 110.742188 L 78.179688 110.742188 L 78.746094 113.871094 L 80.753906 113.871094 L 81.320312 110.742188 L 82.527344 110.742188 L 80.355469 122.777344 Z M 79.75 119.429688 L 80.535156 115.074219 L 78.964844 115.074219 Z M 79.75 119.429688 "/>
<path style=" stroke:none;fill-rule:nonzero;fill:rgb(100%,33.333333%,33.333333%);fill-opacity:1;" d="M 7.25 21.667969 C 7.25 21.667969 7.976562 23.472656 8.820312 24.675781 C 9.667969 25.878906 10.875 27.082031 10.875 27.082031 C 10.875 27.082031 9.667969 28.285156 8.820312 29.492188 C 7.976562 30.695312 7.25 32.5 7.25 32.5 C 7.25 32.5 6.523438 30.695312 5.679688 29.492188 C 4.832031 28.285156 3.625 27.082031 3.625 27.082031 C 3.625 27.082031 4.832031 25.878906 5.679688 24.675781 C 6.523438 23.472656 7.25 21.667969 7.25 21.667969 "/>
<path style=" stroke:none;fill-rule:nonzero;fill:rgb(100%,33.333333%,33.333333%);fill-opacity:1;" d="M 79.75 97.5 C 79.75 97.5 80.476562 99.304688 81.320312 100.507812 C 82.167969 101.714844 83.375 102.917969 83.375 102.917969 C 83.375 102.917969 82.167969 104.121094 81.320312 105.324219 C 80.476562 106.527344 79.75 108.332031 79.75 108.332031 C 79.75 108.332031 79.023438 106.527344 78.179688 105.324219 C 77.332031 104.121094 76.125 102.917969 76.125 102.917969 C 76.125 102.917969 77.332031 101.714844 78.179688 100.507812 C 79.023438 99.304688 79.75 97.5 79.75 97.5 "/>
</g>
</svg>
