<?xml version="1.0" encoding="UTF-8"?>
<svg xmlns="http://www.w3.org/2000/svg" xmlns:xlink="http://www.w3.org/1999/xlink" width="90px" height="130px" viewBox="0 0 90 130" version="1.1">
<g id="surface1">
<path style="fill-rule:nonzero;fill:rgb(100%,100%,100%);fill-opacity:1;stroke-width:1;stroke-linecap:butt;stroke-linejoin:miter;stroke:rgb(0%,0%,0%);stroke-opacity:1;stroke-miterlimit:4;" d="M 30.4375 512.865187 L 329.5625 512.865187 C 346.09375 512.865187 359.5 526.267832 359.5 542.802086 L 359.5 1021.922279 C 359.5 1038.456534 346.09375 1051.859178 329.5625 1051.859178 L 30.4375 1051.859178 C 13.90625 1051.859178 0.5 1038.456534 0.5 1021.922279 L 0.5 542.802086 C 0.5 526.267832 13.90625 512.865187 30.4375 512.865187 Z M 30.4375 512.865187 " transform="matrix(0.25,0,0,0.240741,0,-123.346451)"/>
<path style=" stroke:none;fill-rule:nonzero;fill:rgb(100%,33.333334%,33.333334%);fill-opacity:1;" d="M 6.875 7.222656 L 4.625 19.257812 L 5.875 19.257812 L 6.460938 16.128906 L 8.539062 16.128906 L 9.125 19.257812 L 10.375 19.257812 L 8.125 7.222656 Z M 7.5 10.570312 L 8.3125 14.925781 L 6.6875 14.925781 Z M 7.5 10.570312 "/>
<path style=" stroke:none;fill-rule:nonzero;fill:rgb(100%,33.333334%,33.333334%);fill-opacity:1;" d="M 81.875 122.777344 L 79.625 110.742188 L 80.875 110.742188 L 81.460938 113.871094 L 83.539062 113.871094 L 84.125 110.742188 L 85.375 110.742188 L 83.125 122.777344 Z M 82.5 119.429688 L 83.3125 115.074219 L 81.6875 115.074219 Z M 82.5 119.429688 "/>
<path style=" stroke:none;fill-rule:nonzero;fill:rgb(100%,33.333334%,33.333334%);fill-opacity:1;" d="M 44.75 58.5 C 44.75 55.839844 43.320312 54.167969 41.25 54.167969 C 39.179688 54.167969 37.5 56.324219 37.5 58.980469 C 37.507812 59.210938 37.503906 59.4375 37.5 59.660156 C 37.5 61.414062 38.167969 63.121094 38.75 64.714844 C 39.347656 66.355469 40.207031 67.789062 41.015625 69.257812 C 42.265625 71.53125 45 75.832031 45 75.832031 C 45 75.832031 47.734375 71.53125 48.984375 69.257812 C 49.792969 67.789062 50.652344 66.355469 51.25 64.714844 C 51.832031 63.121094 52.5 61.414062 52.5 59.660156 C 52.492188 59.425781 52.496094 59.199219 52.5 58.980469 C 52.5 56.324219 50.820312 54.167969 48.75 54.167969 C 46.679688 54.167969 45.25 55.839844 45.25 58.5 C 45.25 58.980469 44.75 58.980469 44.75 58.5 Z M 44.75 58.5 "/>
<path style=" stroke:none;fill-rule:nonzero;fill:rgb(100%,33.333334%,33.333334%);fill-opacity:1;" d="M 7.375 23.832031 C 7.375 22.503906 6.660156 21.667969 5.625 21.667969 C 4.589844 21.667969 3.75 22.746094 3.75 24.074219 C 3.753906 24.1875 3.753906 24.300781 3.75 24.414062 C 3.75 25.292969 4.085938 26.144531 4.375 26.941406 C 4.671875 27.761719 5.105469 28.480469 5.507812 29.210938 C 6.132812 30.347656 7.5 32.5 7.5 32.5 C 7.5 32.5 8.867188 30.347656 9.492188 29.210938 C 9.894531 28.480469 10.328125 27.761719 10.625 26.941406 C 10.914062 26.144531 11.25 25.292969 11.25 24.414062 C 11.246094 24.296875 11.246094 24.183594 11.25 24.074219 C 11.25 22.746094 10.410156 21.667969 9.375 21.667969 C 8.339844 21.667969 7.625 22.503906 7.625 23.832031 C 7.625 24.074219 7.375 24.074219 7.375 23.832031 Z M 7.375 23.832031 "/>
<path style=" stroke:none;fill-rule:nonzero;fill:rgb(100%,33.333334%,33.333334%);fill-opacity:1;" d="M 82.375 106.167969 C 82.375 107.496094 81.660156 108.332031 80.625 108.332031 C 79.589844 108.332031 78.75 107.253906 78.75 105.925781 C 78.753906 105.8125 78.753906 105.699219 78.75 105.585938 C 78.75 104.707031 79.085938 103.855469 79.375 103.058594 C 79.671875 102.238281 80.105469 101.519531 80.507812 100.789062 C 81.132812 99.652344 82.5 97.5 82.5 97.5 C 82.5 97.5 83.867188 99.652344 84.492188 100.789062 C 84.894531 101.519531 85.328125 102.238281 85.625 103.058594 C 85.914062 103.855469 86.25 104.707031 86.25 105.585938 C 86.246094 105.703125 86.246094 105.816406 86.25 105.925781 C 86.25 107.253906 85.410156 108.332031 84.375 108.332031 C 83.339844 108.332031 82.625 107.496094 82.625 106.167969 C 82.625 105.925781 82.375 105.925781 82.375 106.167969 Z M 82.375 106.167969 "/>
</g>
</svg>
