<?xml version="1.0" encoding="UTF-8"?>
<svg xmlns="http://www.w3.org/2000/svg" xmlns:xlink="http://www.w3.org/1999/xlink" width="90px" height="130px" viewBox="0 0 90 130" version="1.1">
<g id="surface1">
<path style="fill-rule:nonzero;fill:rgb(100%,100%,100%);fill-opacity:1;stroke-width:1;stroke-linecap:butt;stroke-linejoin:miter;stroke:rgb(0%,0%,0%);stroke-opacity:1;stroke-miterlimit:4;" d="M 30.4375 512.865187 L 329.5625 512.865187 C 346.09375 512.865187 359.5 526.267832 359.5 542.802086 L 359.5 1021.922279 C 359.5 1038.456534 346.09375 1051.859178 329.5625 1051.859178 L 30.4375 1051.859178 C 13.90625 1051.859178 0.5 1038.456534 0.5 1021.922279 L 0.5 542.802086 C 0.5 526.267832 13.90625 512.865187 30.4375 512.865187 Z M 30.4375 512.865187 " transform="matrix(0.25,0,0,0.240741,0,-123.346451)"/>
<path style=" stroke:none;fill-rule:nonzero;fill:rgb(100%,33.333334%,33.333334%);fill-opacity:1;" d="M 7.5 7.222656 C 6.113281 7.222656 5 8.296875 5 9.628906 L 5 10.832031 L 6.25 10.832031 L 6.25 9.628906 C 6.25 8.960938 6.808594 8.425781 7.5 8.425781 C 8.191406 8.425781 8.75 8.960938 8.75 9.628906 L 8.75 10.832031 C 8.75 11.105469 8.65625 11.570312 8.5 11.773438 C 7.382812 13.964844 6.179688 15.894531 5 18.054688 L 5 19.257812 L 10 19.257812 L 10 16.851562 L 8.75 16.851562 L 8.75 18.054688 L 6.375 18.054688 C 7.496094 16.148438 8.429688 14.308594 9.5 12.375 C 9.8125 11.972656 10 11.375 10 10.832031 L 10 9.628906 C 10 8.296875 8.886719 7.222656 7.5 7.222656 Z M 7.5 7.222656 "/>
<path style=" stroke:none;fill-rule:nonzero;fill:rgb(100%,33.333334%,33.333334%);fill-opacity:1;" d="M 82.5 122.777344 C 83.886719 122.777344 85 121.703125 85 120.371094 L 85 119.167969 L 83.75 119.167969 L 83.75 120.371094 C 83.75 121.039062 83.191406 121.574219 82.5 121.574219 C 81.808594 121.574219 81.25 121.039062 81.25 120.371094 L 81.25 119.167969 C 81.25 118.894531 81.34375 118.429688 81.5 118.226562 C 82.617188 116.035156 83.820312 114.105469 85 111.945312 L 85 110.742188 L 80 110.742188 L 80 113.148438 L 81.25 113.148438 L 81.25 111.945312 L 83.625 111.945312 C 82.503906 113.851562 81.570312 115.691406 80.5 117.625 C 80.1875 118.027344 80 118.625 80 119.167969 L 80 120.371094 C 80 121.703125 81.113281 122.777344 82.5 122.777344 Z M 82.5 122.777344 "/>
<path style=" stroke:none;fill-rule:nonzero;fill:rgb(100%,33.333334%,33.333334%);fill-opacity:1;" d="M 7.375 23.832031 C 7.375 22.503906 6.660156 21.667969 5.625 21.667969 C 4.589844 21.667969 3.75 22.746094 3.75 24.074219 C 3.753906 24.1875 3.753906 24.300781 3.75 24.414062 C 3.75 25.292969 4.085938 26.144531 4.375 26.941406 C 4.671875 27.761719 5.105469 28.480469 5.507812 29.210938 C 6.132812 30.347656 7.5 32.5 7.5 32.5 C 7.5 32.5 8.867188 30.347656 9.492188 29.210938 C 9.894531 28.480469 10.328125 27.761719 10.625 26.941406 C 10.914062 26.144531 11.25 25.292969 11.25 24.414062 C 11.246094 24.296875 11.246094 24.183594 11.25 24.074219 C 11.25 22.746094 10.410156 21.667969 9.375 21.667969 C 8.339844 21.667969 7.625 22.503906 7.625 23.832031 C 7.625 24.074219 7.375 24.074219 7.375 23.832031 Z M 7.375 23.832031 "/>
<path style=" stroke:none;fill-rule:nonzero;fill:rgb(100%,33.333334%,33.333334%);fill-opacity:1;" d="M 82.375 106.167969 C 82.375 107.496094 81.660156 108.332031 80.625 108.332031 C 79.589844 108.332031 78.75 107.253906 78.75 105.925781 C 78.753906 105.8125 78.753906 105.699219 78.75 105.585938 C 78.75 104.707031 79.085938 103.855469 79.375 103.058594 C 79.671875 102.238281 80.105469 101.519531 80.507812 100.789062 C 81.132812 99.652344 82.5 97.5 82.5 97.5 C 82.5 97.5 83.867188 99.652344 84.492188 100.789062 C 84.894531 101.519531 85.328125 102.238281 85.625 103.058594 C 85.914062 103.855469 86.25 104.707031 86.25 105.585938 C 86.246094 105.703125 86.246094 105.816406 86.25 105.925781 C 86.25 107.253906 85.410156 108.332031 84.375 108.332031 C 83.339844 108.332031 82.625 107.496094 82.625 106.167969 C 82.625 105.925781 82.375 105.925781 82.375 106.167969 Z M 82.375 106.167969 "/>
<path style=" stroke:none;fill-rule:nonzero;fill:rgb(100%,33.333334%,33.333334%);fill-opacity:1;" d="M 44.75 15.167969 C 44.75 12.507812 43.320312 10.832031 41.25 10.832031 C 39.179688 10.832031 37.5 12.988281 37.5 15.648438 C 37.507812 15.878906 37.503906 16.101562 37.5 16.324219 C 37.5 18.082031 38.167969 19.785156 38.75 21.378906 C 39.347656 23.019531 40.207031 24.457031 41.015625 25.925781 C 42.265625 28.195312 45 32.5 45 32.5 C 45 32.5 47.734375 28.195312 48.984375 25.925781 C 49.792969 24.457031 50.652344 23.019531 51.25 21.378906 C 51.832031 19.785156 52.5 18.082031 52.5 16.324219 C 52.492188 16.089844 52.496094 15.863281 52.5 15.648438 C 52.5 12.988281 50.820312 10.832031 48.75 10.832031 C 46.679688 10.832031 45.25 12.507812 45.25 15.167969 C 45.25 15.648438 44.75 15.648438 44.75 15.167969 Z M 44.75 15.167969 "/>
<path style=" stroke:none;fill-rule:nonzero;fill:rgb(100%,33.333334%,33.333334%);fill-opacity:1;" d="M 44.75 114.832031 C 44.75 117.492188 43.320312 119.167969 41.25 119.167969 C 39.179688 119.167969 37.5 117.011719 37.5 114.351562 C 37.507812 114.121094 37.503906 113.898438 37.5 113.675781 C 37.5 111.917969 38.167969 110.214844 38.75 108.621094 C 39.347656 106.980469 40.207031 105.542969 41.015625 104.074219 C 42.265625 101.804688 45 97.5 45 97.5 C 45 97.5 47.734375 101.804688 48.984375 104.074219 C 49.792969 105.542969 50.652344 106.980469 51.25 108.621094 C 51.832031 110.214844 52.5 111.917969 52.5 113.675781 C 52.492188 113.910156 52.496094 114.136719 52.5 114.351562 C 52.5 117.011719 50.820312 119.167969 48.75 119.167969 C 46.679688 119.167969 45.25 117.492188 45.25 114.832031 C 45.25 114.351562 44.75 114.351562 44.75 114.832031 Z M 44.75 114.832031 "/>
</g>
</svg>
