<?xml version="1.0" encoding="UTF-8"?>
<svg xmlns="http://www.w3.org/2000/svg" xmlns:xlink="http://www.w3.org/1999/xlink" width="87pt" height="130pt" viewBox="0 0 87 130" version="1.1">
<g id="surface1">
<path style="fill-rule:nonzero;fill:rgb(100%,100%,100%);fill-opacity:1;stroke-width:1;stroke-linecap:butt;stroke-linejoin:miter;stroke:rgb(0%,0%,0%);stroke-opacity:1;stroke-miterlimit:4;" d="M 30.436422 512.865185 L 329.563578 512.865185 C 346.099138 512.865185 359.498922 526.267829 359.498922 542.802084 L 359.498922 1021.922276 C 359.498922 1038.456531 346.099138 1051.859175 329.563578 1051.859175 L 30.436422 1051.859175 C 13.900862 1051.859175 0.501078 1038.456531 0.501078 1021.922276 L 0.501078 542.802084 C 0.501078 526.267829 13.900862 512.865185 30.436422 512.865185 Z M 30.436422 512.865185 " transform="matrix(0.241667,0,0,0.240741,0,-123.346451)"/>
<path style=" stroke:none;fill-rule:nonzero;fill:rgb(100%,33.333333%,33.333333%);fill-opacity:1;" d="M 7.25 7.222656 C 5.910156 7.222656 4.832031 8.296875 4.832031 9.628906 L 4.832031 10.832031 C 4.832031 11.554688 5.152344 12.199219 5.65625 12.640625 C 5.152344 13.078125 4.832031 13.722656 4.832031 14.445312 L 4.832031 16.851562 C 4.832031 18.183594 5.910156 19.257812 7.25 19.257812 C 8.589844 19.257812 9.667969 18.183594 9.667969 16.851562 L 9.667969 14.445312 C 9.667969 13.722656 9.347656 13.078125 8.84375 12.640625 C 9.347656 12.199219 9.667969 11.554688 9.667969 10.832031 L 9.667969 9.628906 C 9.667969 8.296875 8.589844 7.222656 7.25 7.222656 Z M 7.25 8.425781 C 7.917969 8.425781 8.457031 8.960938 8.457031 9.628906 L 8.457031 10.832031 C 8.457031 11.5 7.917969 12.035156 7.25 12.035156 C 6.582031 12.035156 6.042969 11.5 6.042969 10.832031 L 6.042969 9.628906 C 6.042969 8.960938 6.582031 8.425781 7.25 8.425781 Z M 7.25 13.242188 C 7.917969 13.242188 8.457031 13.777344 8.457031 14.445312 L 8.457031 16.851562 C 8.457031 17.519531 7.917969 18.054688 7.25 18.054688 C 6.582031 18.054688 6.042969 17.519531 6.042969 16.851562 L 6.042969 14.445312 C 6.042969 13.777344 6.582031 13.242188 7.25 13.242188 Z M 7.25 13.242188 "/>
<path style=" stroke:none;fill-rule:nonzero;fill:rgb(100%,33.333333%,33.333333%);fill-opacity:1;" d="M 79.75 122.777344 C 78.410156 122.777344 77.332031 121.703125 77.332031 120.371094 L 77.332031 119.167969 C 77.332031 118.445312 77.652344 117.800781 78.15625 117.359375 C 77.652344 116.921875 77.332031 116.277344 77.332031 115.554688 L 77.332031 113.148438 C 77.332031 111.8125 78.410156 110.742188 79.75 110.742188 C 81.089844 110.742188 82.167969 111.8125 82.167969 113.148438 L 82.167969 115.554688 C 82.167969 116.277344 81.847656 116.921875 81.34375 117.359375 C 81.847656 117.800781 82.167969 118.445312 82.167969 119.167969 L 82.167969 120.371094 C 82.167969 121.703125 81.089844 122.777344 79.75 122.777344 Z M 79.75 121.574219 C 80.417969 121.574219 80.957031 121.039062 80.957031 120.371094 L 80.957031 119.167969 C 80.957031 118.5 80.417969 117.964844 79.75 117.964844 C 79.082031 117.964844 78.542969 118.5 78.542969 119.167969 L 78.542969 120.371094 C 78.542969 121.039062 79.082031 121.574219 79.75 121.574219 Z M 79.75 116.757812 C 80.417969 116.757812 80.957031 116.222656 80.957031 115.554688 L 80.957031 113.148438 C 80.957031 112.480469 80.417969 111.945312 79.75 111.945312 C 79.082031 111.945312 78.542969 112.480469 78.542969 113.148438 L 78.542969 115.554688 C 78.542969 116.222656 79.082031 116.757812 79.75 116.757812 Z M 79.75 116.757812 "/>
<path style=" stroke:none;fill-rule:nonzero;fill:rgb(100%,33.333333%,33.333333%);fill-opacity:1;" d="M 79.628906 106.167969 C 79.628906 107.496094 78.9375 108.332031 77.9375 108.332031 C 76.9375 108.332031 76.125 107.253906 76.125 105.925781 C 76.128906 105.8125 76.128906 105.699219 76.125 105.585938 C 76.125 104.707031 76.449219 103.855469 76.730469 103.058594 C 77.019531 102.238281 77.433594 101.519531 77.824219 100.789062 C 78.429688 99.652344 79.75 97.5 79.75 97.5 C 79.75 97.5 81.070312 99.652344 81.675781 100.789062 C 82.066406 101.519531 82.480469 102.238281 82.769531 103.058594 C 83.050781 103.855469 83.375 104.707031 83.375 105.585938 C 83.371094 105.703125 83.371094 105.816406 83.375 105.925781 C 83.375 107.253906 82.5625 108.332031 81.5625 108.332031 C 80.5625 108.332031 79.871094 107.496094 79.871094 106.167969 C 79.871094 105.925781 79.628906 105.925781 79.628906 106.167969 Z M 79.628906 106.167969 "/>
<path style=" stroke:none;fill-rule:nonzero;fill:rgb(100%,33.333333%,33.333333%);fill-opacity:1;" d="M 21.507812 15.167969 C 21.507812 12.507812 20.128906 10.832031 18.125 10.832031 C 16.121094 10.832031 14.5 12.988281 14.5 15.648438 C 14.507812 15.878906 14.503906 16.101562 14.5 16.324219 C 14.5 18.082031 15.148438 19.785156 15.707031 21.378906 C 16.285156 23.019531 17.117188 24.457031 17.898438 25.925781 C 19.105469 28.195312 21.75 32.5 21.75 32.5 C 21.75 32.5 24.394531 28.195312 25.601562 25.925781 C 26.382812 24.457031 27.214844 23.019531 27.792969 21.378906 C 28.351562 19.785156 29 18.082031 29 16.324219 C 28.992188 16.089844 28.996094 15.863281 29 15.648438 C 29 12.988281 27.378906 10.832031 25.375 10.832031 C 23.371094 10.832031 21.992188 12.507812 21.992188 15.167969 C 21.992188 15.648438 21.507812 15.648438 21.507812 15.167969 Z M 21.507812 15.167969 "/>
<path style=" stroke:none;fill-rule:nonzero;fill:rgb(100%,33.333333%,33.333333%);fill-opacity:1;" d="M 65.007812 15.167969 C 65.007812 12.507812 63.628906 10.832031 61.625 10.832031 C 59.621094 10.832031 58 12.988281 58 15.648438 C 58.007812 15.878906 58.003906 16.101562 58 16.324219 C 58 18.082031 58.648438 19.785156 59.207031 21.378906 C 59.785156 23.019531 60.617188 24.457031 61.398438 25.925781 C 62.605469 28.195312 65.25 32.5 65.25 32.5 C 65.25 32.5 67.894531 28.195312 69.101562 25.925781 C 69.882812 24.457031 70.714844 23.019531 71.292969 21.378906 C 71.851562 19.785156 72.5 18.082031 72.5 16.324219 C 72.492188 16.089844 72.496094 15.863281 72.5 15.648438 C 72.5 12.988281 70.878906 10.832031 68.875 10.832031 C 66.871094 10.832031 65.492188 12.507812 65.492188 15.167969 C 65.492188 15.648438 65.007812 15.648438 65.007812 15.167969 Z M 65.007812 15.167969 "/>
<path style=" stroke:none;fill-rule:nonzero;fill:rgb(100%,33.333333%,33.333333%);fill-opacity:1;" d="M 43.257812 36.832031 C 43.257812 34.175781 41.878906 32.5 39.875 32.5 C 37.871094 32.5 36.25 34.65625 36.25 37.316406 C 36.257812 37.542969 36.253906 37.769531 36.25 37.992188 C 36.25 39.75 36.898438 41.453125 37.457031 43.046875 C 38.035156 44.6875 38.867188 46.125 39.648438 47.589844 C 40.855469 49.863281 43.5 54.167969 43.5 54.167969 C 43.5 54.167969 46.144531 49.863281 47.351562 47.589844 C 48.132812 46.125 48.964844 44.6875 49.542969 43.046875 C 50.101562 41.453125 50.75 39.75 50.75 37.992188 C 50.742188 37.757812 50.746094 37.53125 50.75 37.316406 C 50.75 34.65625 49.128906 32.5 47.125 32.5 C 45.121094 32.5 43.742188 34.175781 43.742188 36.832031 C 43.742188 37.316406 43.257812 37.316406 43.257812 36.832031 Z M 43.257812 36.832031 "/>
<path style=" stroke:none;fill-rule:nonzero;fill:rgb(100%,33.333333%,33.333333%);fill-opacity:1;" d="M 21.507812 58.5 C 21.507812 55.839844 20.128906 54.167969 18.125 54.167969 C 16.121094 54.167969 14.5 56.324219 14.5 58.980469 C 14.507812 59.210938 14.503906 59.4375 14.5 59.660156 C 14.5 61.414062 15.148438 63.121094 15.707031 64.714844 C 16.285156 66.355469 17.117188 67.789062 17.898438 69.257812 C 19.105469 71.53125 21.75 75.832031 21.75 75.832031 C 21.75 75.832031 24.394531 71.53125 25.601562 69.257812 C 26.382812 67.789062 27.214844 66.355469 27.792969 64.714844 C 28.351562 63.121094 29 61.414062 29 59.660156 C 28.992188 59.425781 28.996094 59.199219 29 58.980469 C 29 56.324219 27.378906 54.167969 25.375 54.167969 C 23.371094 54.167969 21.992188 55.839844 21.992188 58.5 C 21.992188 58.980469 21.507812 58.980469 21.507812 58.5 Z M 21.507812 58.5 "/>
<path style=" stroke:none;fill-rule:nonzero;fill:rgb(100%,33.333333%,33.333333%);fill-opacity:1;" d="M 65.007812 58.5 C 65.007812 55.839844 63.628906 54.167969 61.625 54.167969 C 59.621094 54.167969 58 56.324219 58 58.980469 C 58.007812 59.210938 58.003906 59.4375 58 59.660156 C 58 61.414062 58.648438 63.121094 59.207031 64.714844 C 59.785156 66.355469 60.617188 67.789062 61.398438 69.257812 C 62.605469 71.53125 65.25 75.832031 65.25 75.832031 C 65.25 75.832031 67.894531 71.53125 69.101562 69.257812 C 69.882812 67.789062 70.714844 66.355469 71.292969 64.714844 C 71.851562 63.121094 72.5 61.414062 72.5 59.660156 C 72.492188 59.425781 72.496094 59.199219 72.5 58.980469 C 72.5 56.324219 70.878906 54.167969 68.875 54.167969 C 66.871094 54.167969 65.492188 55.839844 65.492188 58.5 C 65.492188 58.980469 65.007812 58.980469 65.007812 58.5 Z M 65.007812 58.5 "/>
<path style=" stroke:none;fill-rule:nonzero;fill:rgb(100%,33.333333%,33.333333%);fill-opacity:1;" d="M 43.257812 93.167969 C 43.257812 95.824219 41.878906 97.5 39.875 97.5 C 37.871094 97.5 36.25 95.34375 36.25 92.683594 C 36.257812 92.457031 36.253906 92.230469 36.25 92.007812 C 36.25 90.25 36.898438 88.546875 37.457031 86.953125 C 38.035156 85.3125 38.867188 83.875 39.648438 82.410156 C 40.855469 80.136719 43.5 75.832031 43.5 75.832031 C 43.5 75.832031 46.144531 80.136719 47.351562 82.410156 C 48.132812 83.875 48.964844 85.3125 49.542969 86.953125 C 50.101562 88.546875 50.75 90.25 50.75 92.007812 C 50.742188 92.242188 50.746094 92.46875 50.75 92.683594 C 50.75 95.34375 49.128906 97.5 47.125 97.5 C 45.121094 97.5 43.742188 95.824219 43.742188 93.167969 C 43.742188 92.683594 43.257812 92.683594 43.257812 93.167969 Z M 43.257812 93.167969 "/>
<path style=" stroke:none;fill-rule:nonzero;fill:rgb(100%,33.333333%,33.333333%);fill-opacity:1;" d="M 21.507812 114.832031 C 21.507812 117.492188 20.128906 119.167969 18.125 119.167969 C 16.121094 119.167969 14.5 117.011719 14.5 114.351562 C 14.507812 114.121094 14.503906 113.898438 14.5 113.675781 C 14.5 111.917969 15.148438 110.214844 15.707031 108.621094 C 16.285156 106.980469 17.117188 105.542969 17.898438 104.074219 C 19.105469 101.804688 21.75 97.5 21.75 97.5 C 21.75 97.5 24.394531 101.804688 25.601562 104.074219 C 26.382812 105.542969 27.214844 106.980469 27.792969 108.621094 C 28.351562 110.214844 29 111.917969 29 113.675781 C 28.992188 113.910156 28.996094 114.136719 29 114.351562 C 29 117.011719 27.378906 119.167969 25.375 119.167969 C 23.371094 119.167969 21.992188 117.492188 21.992188 114.832031 C 21.992188 114.351562 21.507812 114.351562 21.507812 114.832031 Z M 21.507812 114.832031 "/>
<path style=" stroke:none;fill-rule:nonzero;fill:rgb(100%,33.333333%,33.333333%);fill-opacity:1;" d="M 65.007812 114.832031 C 65.007812 117.492188 63.628906 119.167969 61.625 119.167969 C 59.621094 119.167969 58 117.011719 58 114.351562 C 58.007812 114.121094 58.003906 113.898438 58 113.675781 C 58 111.917969 58.648438 110.214844 59.207031 108.621094 C 59.785156 106.980469 60.617188 105.542969 61.398438 104.074219 C 62.605469 101.804688 65.25 97.5 65.25 97.5 C 65.25 97.5 67.894531 101.804688 69.101562 104.074219 C 69.882812 105.542969 70.714844 106.980469 71.292969 108.621094 C 71.851562 110.214844 72.5 111.917969 72.5 113.675781 C 72.492188 113.910156 72.496094 114.136719 72.5 114.351562 C 72.5 117.011719 70.878906 119.167969 68.875 119.167969 C 66.871094 119.167969 65.492188 117.492188 65.492188 114.832031 C 65.492188 114.351562 65.007812 114.351562 65.007812 114.832031 Z M 65.007812 114.832031 "/>
<path style=" stroke:none;fill-rule:nonzero;fill:rgb(100%,33.333333%,33.333333%);fill-opacity:1;" d="M 7.128906 23.832031 C 7.128906 22.503906 6.4375 21.667969 5.4375 21.667969 C 4.4375 21.667969 3.625 22.746094 3.625 24.074219 C 3.628906 24.1875 3.628906 24.300781 3.625 24.414062 C 3.625 25.292969 3.949219 26.144531 4.230469 26.941406 C 4.519531 27.761719 4.933594 28.480469 5.324219 29.210938 C 5.929688 30.347656 7.25 32.5 7.25 32.5 C 7.25 32.5 8.570312 30.347656 9.175781 29.210938 C 9.566406 28.480469 9.980469 27.761719 10.269531 26.941406 C 10.550781 26.144531 10.875 25.292969 10.875 24.414062 C 10.871094 24.296875 10.871094 24.183594 10.875 24.074219 C 10.875 22.746094 10.0625 21.667969 9.0625 21.667969 C 8.0625 21.667969 7.371094 22.503906 7.371094 23.832031 C 7.371094 24.074219 7.128906 24.074219 7.128906 23.832031 Z M 7.128906 23.832031 "/>
</g>
</svg>
