<?xml version="1.0" encoding="UTF-8"?>
<svg xmlns="http://www.w3.org/2000/svg" xmlns:xlink="http://www.w3.org/1999/xlink" width="87pt" height="130pt" viewBox="0 0 87 130" version="1.1">
<g id="surface1">
<path style="fill-rule:nonzero;fill:rgb(100%,100%,100%);fill-opacity:1;stroke-width:1;stroke-linecap:butt;stroke-linejoin:miter;stroke:rgb(0%,0%,0%);stroke-opacity:1;stroke-miterlimit:4;" d="M 30.436422 512.865185 L 329.563578 512.865185 C 346.099138 512.865185 359.498922 526.267829 359.498922 542.802084 L 359.498922 1021.922276 C 359.498922 1038.456531 346.099138 1051.859175 329.563578 1051.859175 L 30.436422 1051.859175 C 13.900862 1051.859175 0.501078 1038.456531 0.501078 1021.922276 L 0.501078 542.802084 C 0.501078 526.267829 13.900862 512.865185 30.436422 512.865185 Z M 30.436422 512.865185 " transform="matrix(0.241667,0,0,0.240741,0,-123.346451)"/>
<path style=" stroke:none;fill-rule:nonzero;fill:rgb(100%,33.333333%,33.333333%);fill-opacity:1;" d="M 7.25 7.222656 L 4.832031 15.648438 L 4.832031 16.851562 L 7.734375 16.851562 L 7.734375 19.257812 L 8.941406 19.257812 L 8.941406 16.851562 L 9.667969 16.851562 L 9.667969 15.648438 L 8.941406 15.648438 L 8.941406 12.035156 L 7.734375 12.035156 L 7.734375 15.648438 L 6.089844 15.648438 L 8.507812 7.222656 Z M 7.25 7.222656 "/>
<path style=" stroke:none;fill-rule:nonzero;fill:rgb(100%,33.333333%,33.333333%);fill-opacity:1;" d="M 79.75 122.777344 L 82.167969 114.351562 L 82.167969 113.148438 L 79.265625 113.148438 L 79.265625 110.742188 L 78.058594 110.742188 L 78.058594 113.148438 L 77.332031 113.148438 L 77.332031 114.351562 L 78.058594 114.351562 L 78.058594 117.964844 L 79.265625 117.964844 L 79.265625 114.351562 L 80.910156 114.351562 L 78.492188 122.777344 Z M 79.75 122.777344 "/>
<path style=" stroke:none;fill-rule:nonzero;fill:rgb(100%,33.333333%,33.333333%);fill-opacity:1;" d="M 7.128906 23.832031 C 7.128906 22.503906 6.4375 21.667969 5.4375 21.667969 C 4.4375 21.667969 3.625 22.746094 3.625 24.074219 C 3.628906 24.1875 3.628906 24.300781 3.625 24.414062 C 3.625 25.292969 3.949219 26.144531 4.230469 26.941406 C 4.519531 27.761719 4.933594 28.480469 5.324219 29.210938 C 5.929688 30.347656 7.25 32.5 7.25 32.5 C 7.25 32.5 8.570312 30.347656 9.175781 29.210938 C 9.566406 28.480469 9.980469 27.761719 10.269531 26.941406 C 10.550781 26.144531 10.875 25.292969 10.875 24.414062 C 10.871094 24.296875 10.871094 24.183594 10.875 24.074219 C 10.875 22.746094 10.0625 21.667969 9.0625 21.667969 C 8.0625 21.667969 7.371094 22.503906 7.371094 23.832031 C 7.371094 24.074219 7.128906 24.074219 7.128906 23.832031 Z M 7.128906 23.832031 "/>
<path style=" stroke:none;fill-rule:nonzero;fill:rgb(100%,33.333333%,33.333333%);fill-opacity:1;" d="M 79.628906 106.167969 C 79.628906 107.496094 78.9375 108.332031 77.9375 108.332031 C 76.9375 108.332031 76.125 107.253906 76.125 105.925781 C 76.128906 105.8125 76.128906 105.699219 76.125 105.585938 C 76.125 104.707031 76.449219 103.855469 76.730469 103.058594 C 77.019531 102.238281 77.433594 101.519531 77.824219 100.789062 C 78.429688 99.652344 79.75 97.5 79.75 97.5 C 79.75 97.5 81.070312 99.652344 81.675781 100.789062 C 82.066406 101.519531 82.480469 102.238281 82.769531 103.058594 C 83.050781 103.855469 83.375 104.707031 83.375 105.585938 C 83.371094 105.703125 83.371094 105.816406 83.375 105.925781 C 83.375 107.253906 82.5625 108.332031 81.5625 108.332031 C 80.5625 108.332031 79.871094 107.496094 79.871094 106.167969 C 79.871094 105.925781 79.628906 105.925781 79.628906 106.167969 Z M 79.628906 106.167969 "/>
<path style=" stroke:none;fill-rule:nonzero;fill:rgb(100%,33.333333%,33.333333%);fill-opacity:1;" d="M 21.507812 15.167969 C 21.507812 12.507812 20.128906 10.832031 18.125 10.832031 C 16.121094 10.832031 14.5 12.988281 14.5 15.648438 C 14.507812 15.878906 14.503906 16.101562 14.5 16.324219 C 14.5 18.082031 15.148438 19.785156 15.707031 21.378906 C 16.285156 23.019531 17.117188 24.457031 17.898438 25.925781 C 19.105469 28.195312 21.75 32.5 21.75 32.5 C 21.75 32.5 24.394531 28.195312 25.601562 25.925781 C 26.382812 24.457031 27.214844 23.019531 27.792969 21.378906 C 28.351562 19.785156 29 18.082031 29 16.324219 C 28.992188 16.089844 28.996094 15.863281 29 15.648438 C 29 12.988281 27.378906 10.832031 25.375 10.832031 C 23.371094 10.832031 21.992188 12.507812 21.992188 15.167969 C 21.992188 15.648438 21.507812 15.648438 21.507812 15.167969 Z M 21.507812 15.167969 "/>
<path style=" stroke:none;fill-rule:nonzero;fill:rgb(100%,33.333333%,33.333333%);fill-opacity:1;" d="M 65.007812 15.167969 C 65.007812 12.507812 63.628906 10.832031 61.625 10.832031 C 59.621094 10.832031 58 12.988281 58 15.648438 C 58.007812 15.878906 58.003906 16.101562 58 16.324219 C 58 18.082031 58.648438 19.785156 59.207031 21.378906 C 59.785156 23.019531 60.617188 24.457031 61.398438 25.925781 C 62.605469 28.195312 65.25 32.5 65.25 32.5 C 65.25 32.5 67.894531 28.195312 69.101562 25.925781 C 69.882812 24.457031 70.714844 23.019531 71.292969 21.378906 C 71.851562 19.785156 72.5 18.082031 72.5 16.324219 C 72.492188 16.089844 72.496094 15.863281 72.5 15.648438 C 72.5 12.988281 70.878906 10.832031 68.875 10.832031 C 66.871094 10.832031 65.492188 12.507812 65.492188 15.167969 C 65.492188 15.648438 65.007812 15.648438 65.007812 15.167969 Z M 65.007812 15.167969 "/>
<path style=" stroke:none;fill-rule:nonzero;fill:rgb(100%,33.333333%,33.333333%);fill-opacity:1;" d="M 21.507812 114.832031 C 21.507812 117.492188 20.128906 119.167969 18.125 119.167969 C 16.121094 119.167969 14.5 117.011719 14.5 114.351562 C 14.507812 114.121094 14.503906 113.898438 14.5 113.675781 C 14.5 111.917969 15.148438 110.214844 15.707031 108.621094 C 16.285156 106.980469 17.117188 105.542969 17.898438 104.074219 C 19.105469 101.804688 21.75 97.5 21.75 97.5 C 21.75 97.5 24.394531 101.804688 25.601562 104.074219 C 26.382812 105.542969 27.214844 106.980469 27.792969 108.621094 C 28.351562 110.214844 29 111.917969 29 113.675781 C 28.992188 113.910156 28.996094 114.136719 29 114.351562 C 29 117.011719 27.378906 119.167969 25.375 119.167969 C 23.371094 119.167969 21.992188 117.492188 21.992188 114.832031 C 21.992188 114.351562 21.507812 114.351562 21.507812 114.832031 Z M 21.507812 114.832031 "/>
<path style=" stroke:none;fill-rule:nonzero;fill:rgb(100%,33.333333%,33.333333%);fill-opacity:1;" d="M 65.007812 114.832031 C 65.007812 117.492188 63.628906 119.167969 61.625 119.167969 C 59.621094 119.167969 58 117.011719 58 114.351562 C 58.007812 114.121094 58.003906 113.898438 58 113.675781 C 58 111.917969 58.648438 110.214844 59.207031 108.621094 C 59.785156 106.980469 60.617188 105.542969 61.398438 104.074219 C 62.605469 101.804688 65.25 97.5 65.25 97.5 C 65.25 97.5 67.894531 101.804688 69.101562 104.074219 C 69.882812 105.542969 70.714844 106.980469 71.292969 108.621094 C 71.851562 110.214844 72.5 111.917969 72.5 113.675781 C 72.492188 113.910156 72.496094 114.136719 72.5 114.351562 C 72.5 117.011719 70.878906 119.167969 68.875 119.167969 C 66.871094 119.167969 65.492188 117.492188 65.492188 114.832031 C 65.492188 114.351562 65.007812 114.351562 65.007812 114.832031 Z M 65.007812 114.832031 "/>
</g>
</svg>
