<?xml version="1.0" encoding="UTF-8"?>
<svg xmlns="http://www.w3.org/2000/svg" xmlns:xlink="http://www.w3.org/1999/xlink" width="87pt" height="130pt" viewBox="0 0 87 130" version="1.1">
<g id="surface1">
<path style="fill-rule:nonzero;fill:rgb(100%,100%,100%);fill-opacity:1;stroke-width:1;stroke-linecap:butt;stroke-linejoin:miter;stroke:rgb(0%,0%,0%);stroke-opacity:1;stroke-miterlimit:4;" d="M 30.436422 512.865185 L 329.563578 512.865185 C 346.099138 512.865185 359.498922 526.267829 359.498922 542.802084 L 359.498922 1021.922276 C 359.498922 1038.456531 346.099138 1051.859175 329.563578 1051.859175 L 30.436422 1051.859175 C 13.900862 1051.859175 0.501078 1038.456531 0.501078 1021.922276 L 0.501078 542.802084 C 0.501078 526.267829 13.900862 512.865185 30.436422 512.865185 Z M 30.436422 512.865185 " transform="matrix(0.241667,0,0,0.240741,0,-123.346451)"/>
<path style=" stroke:none;fill-rule:nonzero;fill:rgb(100%,33.333333%,33.333333%);fill-opacity:1;" d="M 6.644531 7.222656 L 4.472656 19.257812 L 5.679688 19.257812 L 6.246094 16.128906 L 8.253906 16.128906 L 8.820312 19.257812 L 10.027344 19.257812 L 7.855469 7.222656 Z M 7.25 10.570312 L 8.035156 14.925781 L 6.464844 14.925781 Z M 7.25 10.570312 "/>
<path style=" stroke:none;fill-rule:nonzero;fill:rgb(100%,33.333333%,33.333333%);fill-opacity:1;" d="M 79.144531 122.777344 L 76.972656 110.742188 L 78.179688 110.742188 L 78.746094 113.871094 L 80.753906 113.871094 L 81.320312 110.742188 L 82.527344 110.742188 L 80.355469 122.777344 Z M 79.75 119.429688 L 80.535156 115.074219 L 78.964844 115.074219 Z M 79.75 119.429688 "/>
<path style=" stroke:none;fill-rule:nonzero;fill:rgb(100%,33.333333%,33.333333%);fill-opacity:1;" d="M 43.257812 58.5 C 43.257812 55.839844 41.878906 54.167969 39.875 54.167969 C 37.871094 54.167969 36.25 56.324219 36.25 58.980469 C 36.257812 59.210938 36.253906 59.4375 36.25 59.660156 C 36.25 61.414062 36.898438 63.121094 37.457031 64.714844 C 38.035156 66.355469 38.867188 67.789062 39.648438 69.257812 C 40.855469 71.53125 43.5 75.832031 43.5 75.832031 C 43.5 75.832031 46.144531 71.53125 47.351562 69.257812 C 48.132812 67.789062 48.964844 66.355469 49.542969 64.714844 C 50.101562 63.121094 50.75 61.414062 50.75 59.660156 C 50.742188 59.425781 50.746094 59.199219 50.75 58.980469 C 50.75 56.324219 49.128906 54.167969 47.125 54.167969 C 45.121094 54.167969 43.742188 55.839844 43.742188 58.5 C 43.742188 58.980469 43.257812 58.980469 43.257812 58.5 Z M 43.257812 58.5 "/>
<path style=" stroke:none;fill-rule:nonzero;fill:rgb(100%,33.333333%,33.333333%);fill-opacity:1;" d="M 7.128906 23.832031 C 7.128906 22.503906 6.4375 21.667969 5.4375 21.667969 C 4.4375 21.667969 3.625 22.746094 3.625 24.074219 C 3.628906 24.1875 3.628906 24.300781 3.625 24.414062 C 3.625 25.292969 3.949219 26.144531 4.230469 26.941406 C 4.519531 27.761719 4.933594 28.480469 5.324219 29.210938 C 5.929688 30.347656 7.25 32.5 7.25 32.5 C 7.25 32.5 8.570312 30.347656 9.175781 29.210938 C 9.566406 28.480469 9.980469 27.761719 10.269531 26.941406 C 10.550781 26.144531 10.875 25.292969 10.875 24.414062 C 10.871094 24.296875 10.871094 24.183594 10.875 24.074219 C 10.875 22.746094 10.0625 21.667969 9.0625 21.667969 C 8.0625 21.667969 7.371094 22.503906 7.371094 23.832031 C 7.371094 24.074219 7.128906 24.074219 7.128906 23.832031 Z M 7.128906 23.832031 "/>
<path style=" stroke:none;fill-rule:nonzero;fill:rgb(100%,33.333333%,33.333333%);fill-opacity:1;" d="M 79.628906 106.167969 C 79.628906 107.496094 78.9375 108.332031 77.9375 108.332031 C 76.9375 108.332031 76.125 107.253906 76.125 105.925781 C 76.128906 105.8125 76.128906 105.699219 76.125 105.585938 C 76.125 104.707031 76.449219 103.855469 76.730469 103.058594 C 77.019531 102.238281 77.433594 101.519531 77.824219 100.789062 C 78.429688 99.652344 79.75 97.5 79.75 97.5 C 79.75 97.5 81.070312 99.652344 81.675781 100.789062 C 82.066406 101.519531 82.480469 102.238281 82.769531 103.058594 C 83.050781 103.855469 83.375 104.707031 83.375 105.585938 C 83.371094 105.703125 83.371094 105.816406 83.375 105.925781 C 83.375 107.253906 82.5625 108.332031 81.5625 108.332031 C 80.5625 108.332031 79.871094 107.496094 79.871094 106.167969 C 79.871094 105.925781 79.628906 105.925781 79.628906 106.167969 Z M 79.628906 106.167969 "/>
</g>
</svg>
