<?xml version="1.0" encoding="UTF-8"?>
<svg xmlns="http://www.w3.org/2000/svg" xmlns:xlink="http://www.w3.org/1999/xlink" width="90px" height="130px" viewBox="0 0 90 130" version="1.1">
<g id="surface1">
<path style="fill-rule:nonzero;fill:rgb(100%,100%,100%);fill-opacity:1;stroke-width:1;stroke-linecap:butt;stroke-linejoin:miter;stroke:rgb(0%,0%,0%);stroke-opacity:1;stroke-miterlimit:4;" d="M 30.4375 512.865187 L 329.5625 512.865187 C 346.09375 512.865187 359.5 526.267832 359.5 542.802086 L 359.5 1021.922279 C 359.5 1038.456534 346.09375 1051.859178 329.5625 1051.859178 L 30.4375 1051.859178 C 13.90625 1051.859178 0.5 1038.456534 0.5 1021.922279 L 0.5 542.802086 C 0.5 526.267832 13.90625 512.865187 30.4375 512.865187 Z M 30.4375 512.865187 " transform="matrix(0.25,0,0,0.240741,0,-123.346451)"/>
<path style=" stroke:none;fill-rule:nonzero;fill:rgb(100%,33.333334%,33.333334%);fill-opacity:1;" d="M 7.5 7.222656 L 5 15.648438 L 5 16.851562 L 8 16.851562 L 8 19.257812 L 9.25 19.257812 L 9.25 16.851562 L 10 16.851562 L 10 15.648438 L 9.25 15.648438 L 9.25 12.035156 L 8 12.035156 L 8 15.648438 L 6.300781 15.648438 L 8.800781 7.222656 Z M 7.5 7.222656 "/>
<path style=" stroke:none;fill-rule:nonzero;fill:rgb(100%,33.333334%,33.333334%);fill-opacity:1;" d="M 82.5 122.777344 L 85 114.351562 L 85 113.148438 L 82 113.148438 L 82 110.742188 L 80.75 110.742188 L 80.75 113.148438 L 80 113.148438 L 80 114.351562 L 80.75 114.351562 L 80.75 117.964844 L 82 117.964844 L 82 114.351562 L 83.699219 114.351562 L 81.199219 122.777344 Z M 82.5 122.777344 "/>
<path style=" stroke:none;fill-rule:nonzero;fill:rgb(100%,33.333334%,33.333334%);fill-opacity:1;" d="M 7.375 23.832031 C 7.375 22.503906 6.660156 21.667969 5.625 21.667969 C 4.589844 21.667969 3.75 22.746094 3.75 24.074219 C 3.753906 24.1875 3.753906 24.300781 3.75 24.414062 C 3.75 25.292969 4.085938 26.144531 4.375 26.941406 C 4.671875 27.761719 5.105469 28.480469 5.507812 29.210938 C 6.132812 30.347656 7.5 32.5 7.5 32.5 C 7.5 32.5 8.867188 30.347656 9.492188 29.210938 C 9.894531 28.480469 10.328125 27.761719 10.625 26.941406 C 10.914062 26.144531 11.25 25.292969 11.25 24.414062 C 11.246094 24.296875 11.246094 24.183594 11.25 24.074219 C 11.25 22.746094 10.410156 21.667969 9.375 21.667969 C 8.339844 21.667969 7.625 22.503906 7.625 23.832031 C 7.625 24.074219 7.375 24.074219 7.375 23.832031 Z M 7.375 23.832031 "/>
<path style=" stroke:none;fill-rule:nonzero;fill:rgb(100%,33.333334%,33.333334%);fill-opacity:1;" d="M 82.375 106.167969 C 82.375 107.496094 81.660156 108.332031 80.625 108.332031 C 79.589844 108.332031 78.75 107.253906 78.75 105.925781 C 78.753906 105.8125 78.753906 105.699219 78.75 105.585938 C 78.75 104.707031 79.085938 103.855469 79.375 103.058594 C 79.671875 102.238281 80.105469 101.519531 80.507812 100.789062 C 81.132812 99.652344 82.5 97.5 82.5 97.5 C 82.5 97.5 83.867188 99.652344 84.492188 100.789062 C 84.894531 101.519531 85.328125 102.238281 85.625 103.058594 C 85.914062 103.855469 86.25 104.707031 86.25 105.585938 C 86.246094 105.703125 86.246094 105.816406 86.25 105.925781 C 86.25 107.253906 85.410156 108.332031 84.375 108.332031 C 83.339844 108.332031 82.625 107.496094 82.625 106.167969 C 82.625 105.925781 82.375 105.925781 82.375 106.167969 Z M 82.375 106.167969 "/>
<path style=" stroke:none;fill-rule:nonzero;fill:rgb(100%,33.333334%,33.333334%);fill-opacity:1;" d="M 22.25 15.167969 C 22.25 12.507812 20.820312 10.832031 18.75 10.832031 C 16.679688 10.832031 15 12.988281 15 15.648438 C 15.007812 15.878906 15.003906 16.101562 15 16.324219 C 15 18.082031 15.667969 19.785156 16.25 21.378906 C 16.847656 23.019531 17.707031 24.457031 18.515625 25.925781 C 19.765625 28.195312 22.5 32.5 22.5 32.5 C 22.5 32.5 25.234375 28.195312 26.484375 25.925781 C 27.292969 24.457031 28.152344 23.019531 28.75 21.378906 C 29.332031 19.785156 30 18.082031 30 16.324219 C 29.992188 16.089844 29.996094 15.863281 30 15.648438 C 30 12.988281 28.320312 10.832031 26.25 10.832031 C 24.179688 10.832031 22.75 12.507812 22.75 15.167969 C 22.75 15.648438 22.25 15.648438 22.25 15.167969 Z M 22.25 15.167969 "/>
<path style=" stroke:none;fill-rule:nonzero;fill:rgb(100%,33.333334%,33.333334%);fill-opacity:1;" d="M 67.25 15.167969 C 67.25 12.507812 65.820312 10.832031 63.75 10.832031 C 61.679688 10.832031 60 12.988281 60 15.648438 C 60.007812 15.878906 60.003906 16.101562 60 16.324219 C 60 18.082031 60.667969 19.785156 61.25 21.378906 C 61.847656 23.019531 62.707031 24.457031 63.515625 25.925781 C 64.765625 28.195312 67.5 32.5 67.5 32.5 C 67.5 32.5 70.234375 28.195312 71.484375 25.925781 C 72.292969 24.457031 73.152344 23.019531 73.75 21.378906 C 74.332031 19.785156 75 18.082031 75 16.324219 C 74.992188 16.089844 74.996094 15.863281 75 15.648438 C 75 12.988281 73.320312 10.832031 71.25 10.832031 C 69.179688 10.832031 67.75 12.507812 67.75 15.167969 C 67.75 15.648438 67.25 15.648438 67.25 15.167969 Z M 67.25 15.167969 "/>
<path style=" stroke:none;fill-rule:nonzero;fill:rgb(100%,33.333334%,33.333334%);fill-opacity:1;" d="M 22.25 114.832031 C 22.25 117.492188 20.820312 119.167969 18.75 119.167969 C 16.679688 119.167969 15 117.011719 15 114.351562 C 15.007812 114.121094 15.003906 113.898438 15 113.675781 C 15 111.917969 15.667969 110.214844 16.25 108.621094 C 16.847656 106.980469 17.707031 105.542969 18.515625 104.074219 C 19.765625 101.804688 22.5 97.5 22.5 97.5 C 22.5 97.5 25.234375 101.804688 26.484375 104.074219 C 27.292969 105.542969 28.152344 106.980469 28.75 108.621094 C 29.332031 110.214844 30 111.917969 30 113.675781 C 29.992188 113.910156 29.996094 114.136719 30 114.351562 C 30 117.011719 28.320312 119.167969 26.25 119.167969 C 24.179688 119.167969 22.75 117.492188 22.75 114.832031 C 22.75 114.351562 22.25 114.351562 22.25 114.832031 Z M 22.25 114.832031 "/>
<path style=" stroke:none;fill-rule:nonzero;fill:rgb(100%,33.333334%,33.333334%);fill-opacity:1;" d="M 67.25 114.832031 C 67.25 117.492188 65.820312 119.167969 63.75 119.167969 C 61.679688 119.167969 60 117.011719 60 114.351562 C 60.007812 114.121094 60.003906 113.898438 60 113.675781 C 60 111.917969 60.667969 110.214844 61.25 108.621094 C 61.847656 106.980469 62.707031 105.542969 63.515625 104.074219 C 64.765625 101.804688 67.5 97.5 67.5 97.5 C 67.5 97.5 70.234375 101.804688 71.484375 104.074219 C 72.292969 105.542969 73.152344 106.980469 73.75 108.621094 C 74.332031 110.214844 75 111.917969 75 113.675781 C 74.992188 113.910156 74.996094 114.136719 75 114.351562 C 75 117.011719 73.320312 119.167969 71.25 119.167969 C 69.179688 119.167969 67.75 117.492188 67.75 114.832031 C 67.75 114.351562 67.25 114.351562 67.25 114.832031 Z M 67.25 114.832031 "/>
</g>
</svg>
