<?xml version="1.0" encoding="UTF-8"?>
<svg xmlns="http://www.w3.org/2000/svg" xmlns:xlink="http://www.w3.org/1999/xlink" width="87pt" height="130pt" viewBox="0 0 87 130" version="1.1">
<g id="surface1">
<path style="fill-rule:nonzero;fill:rgb(100%,100%,100%);fill-opacity:1;stroke-width:1;stroke-linecap:butt;stroke-linejoin:miter;stroke:rgb(0%,0%,0%);stroke-opacity:1;stroke-miterlimit:4;" d="M 30.436422 512.865185 L 329.563578 512.865185 C 346.099138 512.865185 359.498922 526.267829 359.498922 542.802084 L 359.498922 1021.922276 C 359.498922 1038.456531 346.099138 1051.859175 329.563578 1051.859175 L 30.436422 1051.859175 C 13.900862 1051.859175 0.501078 1038.456531 0.501078 1021.922276 L 0.501078 542.802084 C 0.501078 526.267829 13.900862 512.865185 30.436422 512.865185 Z M 30.436422 512.865185 " transform="matrix(0.241667,0,0,0.240741,0,-123.346451)"/>
<path style=" stroke:none;fill-rule:nonzero;fill:rgb(100%,33.333333%,33.333333%);fill-opacity:1;" d="M 7.25 7.222656 C 5.910156 7.222656 4.832031 8.296875 4.832031 9.628906 L 4.832031 10.832031 L 6.042969 10.832031 L 6.042969 9.628906 C 6.042969 8.960938 6.582031 8.425781 7.25 8.425781 C 7.917969 8.425781 8.457031 8.960938 8.457031 9.628906 L 8.457031 10.832031 C 8.457031 11.105469 8.367188 11.570312 8.214844 11.773438 C 7.136719 13.964844 5.972656 15.894531 4.832031 18.054688 L 4.832031 19.257812 L 9.667969 19.257812 L 9.667969 16.851562 L 8.457031 16.851562 L 8.457031 18.054688 L 6.164062 18.054688 C 7.246094 16.148438 8.148438 14.308594 9.183594 12.375 C 9.484375 11.972656 9.667969 11.375 9.667969 10.832031 L 9.667969 9.628906 C 9.667969 8.296875 8.589844 7.222656 7.25 7.222656 Z M 7.25 7.222656 "/>
<path style=" stroke:none;fill-rule:nonzero;fill:rgb(100%,33.333333%,33.333333%);fill-opacity:1;" d="M 79.75 122.777344 C 81.089844 122.777344 82.167969 121.703125 82.167969 120.371094 L 82.167969 119.167969 L 80.957031 119.167969 L 80.957031 120.371094 C 80.957031 121.039062 80.417969 121.574219 79.75 121.574219 C 79.082031 121.574219 78.542969 121.039062 78.542969 120.371094 L 78.542969 119.167969 C 78.542969 118.894531 78.632812 118.429688 78.785156 118.226562 C 79.863281 116.035156 81.027344 114.105469 82.167969 111.945312 L 82.167969 110.742188 L 77.332031 110.742188 L 77.332031 113.148438 L 78.542969 113.148438 L 78.542969 111.945312 L 80.835938 111.945312 C 79.753906 113.851562 78.851562 115.691406 77.816406 117.625 C 77.515625 118.027344 77.332031 118.625 77.332031 119.167969 L 77.332031 120.371094 C 77.332031 121.703125 78.410156 122.777344 79.75 122.777344 Z M 79.75 122.777344 "/>
<path style=" stroke:none;fill-rule:nonzero;fill:rgb(100%,33.333333%,33.333333%);fill-opacity:1;" d="M 7.128906 23.832031 C 7.128906 22.503906 6.4375 21.667969 5.4375 21.667969 C 4.4375 21.667969 3.625 22.746094 3.625 24.074219 C 3.628906 24.1875 3.628906 24.300781 3.625 24.414062 C 3.625 25.292969 3.949219 26.144531 4.230469 26.941406 C 4.519531 27.761719 4.933594 28.480469 5.324219 29.210938 C 5.929688 30.347656 7.25 32.5 7.25 32.5 C 7.25 32.5 8.570312 30.347656 9.175781 29.210938 C 9.566406 28.480469 9.980469 27.761719 10.269531 26.941406 C 10.550781 26.144531 10.875 25.292969 10.875 24.414062 C 10.871094 24.296875 10.871094 24.183594 10.875 24.074219 C 10.875 22.746094 10.0625 21.667969 9.0625 21.667969 C 8.0625 21.667969 7.371094 22.503906 7.371094 23.832031 C 7.371094 24.074219 7.128906 24.074219 7.128906 23.832031 Z M 7.128906 23.832031 "/>
<path style=" stroke:none;fill-rule:nonzero;fill:rgb(100%,33.333333%,33.333333%);fill-opacity:1;" d="M 79.628906 106.167969 C 79.628906 107.496094 78.9375 108.332031 77.9375 108.332031 C 76.9375 108.332031 76.125 107.253906 76.125 105.925781 C 76.128906 105.8125 76.128906 105.699219 76.125 105.585938 C 76.125 104.707031 76.449219 103.855469 76.730469 103.058594 C 77.019531 102.238281 77.433594 101.519531 77.824219 100.789062 C 78.429688 99.652344 79.75 97.5 79.75 97.5 C 79.75 97.5 81.070312 99.652344 81.675781 100.789062 C 82.066406 101.519531 82.480469 102.238281 82.769531 103.058594 C 83.050781 103.855469 83.375 104.707031 83.375 105.585938 C 83.371094 105.703125 83.371094 105.816406 83.375 105.925781 C 83.375 107.253906 82.5625 108.332031 81.5625 108.332031 C 80.5625 108.332031 79.871094 107.496094 79.871094 106.167969 C 79.871094 105.925781 79.628906 105.925781 79.628906 106.167969 Z M 79.628906 106.167969 "/>
<path style=" stroke:none;fill-rule:nonzero;fill:rgb(100%,33.333333%,33.333333%);fill-opacity:1;" d="M 43.257812 15.167969 C 43.257812 12.507812 41.878906 10.832031 39.875 10.832031 C 37.871094 10.832031 36.25 12.988281 36.25 15.648438 C 36.257812 15.878906 36.253906 16.101562 36.25 16.324219 C 36.25 18.082031 36.898438 19.785156 37.457031 21.378906 C 38.035156 23.019531 38.867188 24.457031 39.648438 25.925781 C 40.855469 28.195312 43.5 32.5 43.5 32.5 C 43.5 32.5 46.144531 28.195312 47.351562 25.925781 C 48.132812 24.457031 48.964844 23.019531 49.542969 21.378906 C 50.101562 19.785156 50.75 18.082031 50.75 16.324219 C 50.742188 16.089844 50.746094 15.863281 50.75 15.648438 C 50.75 12.988281 49.128906 10.832031 47.125 10.832031 C 45.121094 10.832031 43.742188 12.507812 43.742188 15.167969 C 43.742188 15.648438 43.257812 15.648438 43.257812 15.167969 Z M 43.257812 15.167969 "/>
<path style=" stroke:none;fill-rule:nonzero;fill:rgb(100%,33.333333%,33.333333%);fill-opacity:1;" d="M 43.257812 114.832031 C 43.257812 117.492188 41.878906 119.167969 39.875 119.167969 C 37.871094 119.167969 36.25 117.011719 36.25 114.351562 C 36.257812 114.121094 36.253906 113.898438 36.25 113.675781 C 36.25 111.917969 36.898438 110.214844 37.457031 108.621094 C 38.035156 106.980469 38.867188 105.542969 39.648438 104.074219 C 40.855469 101.804688 43.5 97.5 43.5 97.5 C 43.5 97.5 46.144531 101.804688 47.351562 104.074219 C 48.132812 105.542969 48.964844 106.980469 49.542969 108.621094 C 50.101562 110.214844 50.75 111.917969 50.75 113.675781 C 50.742188 113.910156 50.746094 114.136719 50.75 114.351562 C 50.75 117.011719 49.128906 119.167969 47.125 119.167969 C 45.121094 119.167969 43.742188 117.492188 43.742188 114.832031 C 43.742188 114.351562 43.257812 114.351562 43.257812 114.832031 Z M 43.257812 114.832031 "/>
</g>
</svg>
