<?xml version="1.0" encoding="UTF-8"?>
<svg xmlns="http://www.w3.org/2000/svg" xmlns:xlink="http://www.w3.org/1999/xlink" width="87pt" height="130pt" viewBox="0 0 87 130" version="1.1">
<g id="surface1">
<path style="fill-rule:nonzero;fill:rgb(100%,100%,100%);fill-opacity:1;stroke-width:1;stroke-linecap:butt;stroke-linejoin:miter;stroke:rgb(0%,0%,0%);stroke-opacity:1;stroke-miterlimit:4;" d="M 30.436422 512.865185 L 329.563578 512.865185 C 346.099138 512.865185 359.498922 526.267829 359.498922 542.802084 L 359.498922 1021.922276 C 359.498922 1038.456531 346.099138 1051.859175 329.563578 1051.859175 L 30.436422 1051.859175 C 13.900862 1051.859175 0.501078 1038.456531 0.501078 1021.922276 L 0.501078 542.802084 C 0.501078 526.267829 13.900862 512.865185 30.436422 512.865185 Z M 30.436422 512.865185 " transform="matrix(0.241667,0,0,0.240741,0,-123.346451)"/>
<path style=" stroke:none;fill-rule:nonzero;fill:rgb(100%,33.333333%,33.333333%);fill-opacity:1;" d="M 7.25 19.257812 C 8.589844 19.257812 9.667969 18.183594 9.667969 16.851562 L 9.667969 9.628906 C 9.667969 8.296875 8.589844 7.222656 7.25 7.222656 C 5.910156 7.222656 4.832031 8.296875 4.832031 9.628906 L 4.832031 12.035156 C 4.832031 13.371094 5.910156 14.445312 7.25 14.445312 C 7.691406 14.445312 8.101562 14.324219 8.457031 14.121094 L 8.457031 16.851562 C 8.457031 17.519531 7.917969 18.054688 7.25 18.054688 C 6.582031 18.054688 6.042969 17.519531 6.042969 16.851562 L 6.042969 16.609375 L 4.832031 16.609375 L 4.832031 16.851562 C 4.832031 18.183594 5.910156 19.257812 7.25 19.257812 Z M 7.25 13.242188 C 6.582031 13.242188 6.042969 12.703125 6.042969 12.035156 L 6.042969 9.628906 C 6.042969 8.960938 6.582031 8.425781 7.25 8.425781 C 7.917969 8.425781 8.457031 8.960938 8.457031 9.628906 L 8.457031 12.035156 C 8.457031 12.703125 7.917969 13.242188 7.25 13.242188 Z M 7.25 13.242188 "/>
<path style=" stroke:none;fill-rule:nonzero;fill:rgb(100%,33.333333%,33.333333%);fill-opacity:1;" d="M 79.75 110.742188 C 78.410156 110.742188 77.332031 111.8125 77.332031 113.148438 L 77.332031 120.371094 C 77.332031 121.703125 78.410156 122.777344 79.75 122.777344 C 81.089844 122.777344 82.167969 121.703125 82.167969 120.371094 L 82.167969 117.964844 C 82.167969 116.628906 81.089844 115.554688 79.75 115.554688 C 79.308594 115.554688 78.898438 115.675781 78.542969 115.878906 L 78.542969 113.148438 C 78.542969 112.480469 79.082031 111.945312 79.75 111.945312 C 80.417969 111.945312 80.957031 112.480469 80.957031 113.148438 L 80.957031 113.390625 L 82.167969 113.390625 L 82.167969 113.148438 C 82.167969 111.8125 81.089844 110.742188 79.75 110.742188 Z M 79.75 116.757812 C 80.417969 116.757812 80.957031 117.296875 80.957031 117.964844 L 80.957031 120.371094 C 80.957031 121.039062 80.417969 121.574219 79.75 121.574219 C 79.082031 121.574219 78.542969 121.039062 78.542969 120.371094 L 78.542969 117.964844 C 78.542969 117.296875 79.082031 116.757812 79.75 116.757812 Z M 79.75 116.757812 "/>
<path style=" stroke:none;fill-rule:nonzero;fill:rgb(100%,33.333333%,33.333333%);fill-opacity:1;" d="M 21.507812 15.167969 C 21.507812 12.507812 20.128906 10.832031 18.125 10.832031 C 16.121094 10.832031 14.5 12.988281 14.5 15.648438 C 14.507812 15.878906 14.503906 16.101562 14.5 16.324219 C 14.5 18.082031 15.148438 19.785156 15.707031 21.378906 C 16.285156 23.019531 17.117188 24.457031 17.898438 25.925781 C 19.105469 28.195312 21.75 32.5 21.75 32.5 C 21.75 32.5 24.394531 28.195312 25.601562 25.925781 C 26.382812 24.457031 27.214844 23.019531 27.792969 21.378906 C 28.351562 19.785156 29 18.082031 29 16.324219 C 28.992188 16.089844 28.996094 15.863281 29 15.648438 C 29 12.988281 27.378906 10.832031 25.375 10.832031 C 23.371094 10.832031 21.992188 12.507812 21.992188 15.167969 C 21.992188 15.648438 21.507812 15.648438 21.507812 15.167969 Z M 21.507812 15.167969 "/>
<path style=" stroke:none;fill-rule:nonzero;fill:rgb(100%,33.333333%,33.333333%);fill-opacity:1;" d="M 65.007812 15.167969 C 65.007812 12.507812 63.628906 10.832031 61.625 10.832031 C 59.621094 10.832031 58 12.988281 58 15.648438 C 58.007812 15.878906 58.003906 16.101562 58 16.324219 C 58 18.082031 58.648438 19.785156 59.207031 21.378906 C 59.785156 23.019531 60.617188 24.457031 61.398438 25.925781 C 62.605469 28.195312 65.25 32.5 65.25 32.5 C 65.25 32.5 67.894531 28.195312 69.101562 25.925781 C 69.882812 24.457031 70.714844 23.019531 71.292969 21.378906 C 71.851562 19.785156 72.5 18.082031 72.5 16.324219 C 72.492188 16.089844 72.496094 15.863281 72.5 15.648438 C 72.5 12.988281 70.878906 10.832031 68.875 10.832031 C 66.871094 10.832031 65.492188 12.507812 65.492188 15.167969 C 65.492188 15.648438 65.007812 15.648438 65.007812 15.167969 Z M 65.007812 15.167969 "/>
<path style=" stroke:none;fill-rule:nonzero;fill:rgb(100%,33.333333%,33.333333%);fill-opacity:1;" d="M 21.507812 44.054688 C 21.507812 41.394531 20.128906 39.722656 18.125 39.722656 C 16.121094 39.722656 14.5 41.878906 14.5 44.535156 C 14.507812 44.765625 14.503906 44.992188 14.5 45.214844 C 14.5 46.972656 15.148438 48.675781 15.707031 50.269531 C 16.285156 51.910156 17.117188 53.347656 17.898438 54.8125 C 19.105469 57.085938 21.75 61.390625 21.75 61.390625 C 21.75 61.390625 24.394531 57.085938 25.601562 54.8125 C 26.382812 53.347656 27.214844 51.910156 27.792969 50.269531 C 28.351562 48.675781 29 46.972656 29 45.214844 C 28.992188 44.980469 28.996094 44.753906 29 44.535156 C 29 41.878906 27.378906 39.722656 25.375 39.722656 C 23.371094 39.722656 21.992188 41.394531 21.992188 44.054688 C 21.992188 44.535156 21.507812 44.535156 21.507812 44.054688 Z M 21.507812 44.054688 "/>
<path style=" stroke:none;fill-rule:nonzero;fill:rgb(100%,33.333333%,33.333333%);fill-opacity:1;" d="M 65.007812 44.054688 C 65.007812 41.394531 63.628906 39.722656 61.625 39.722656 C 59.621094 39.722656 58 41.878906 58 44.535156 C 58.007812 44.765625 58.003906 44.992188 58 45.214844 C 58 46.972656 58.648438 48.675781 59.207031 50.269531 C 59.785156 51.910156 60.617188 53.347656 61.398438 54.8125 C 62.605469 57.085938 65.25 61.390625 65.25 61.390625 C 65.25 61.390625 67.894531 57.085938 69.101562 54.8125 C 69.882812 53.347656 70.714844 51.910156 71.292969 50.269531 C 71.851562 48.675781 72.5 46.972656 72.5 45.214844 C 72.492188 44.980469 72.496094 44.753906 72.5 44.535156 C 72.5 41.878906 70.878906 39.722656 68.875 39.722656 C 66.871094 39.722656 65.492188 41.394531 65.492188 44.054688 C 65.492188 44.535156 65.007812 44.535156 65.007812 44.054688 Z M 65.007812 44.054688 "/>
<path style=" stroke:none;fill-rule:nonzero;fill:rgb(100%,33.333333%,33.333333%);fill-opacity:1;" d="M 43.257812 58.5 C 43.257812 55.839844 41.878906 54.167969 39.875 54.167969 C 37.871094 54.167969 36.25 56.324219 36.25 58.980469 C 36.257812 59.210938 36.253906 59.4375 36.25 59.660156 C 36.25 61.414062 36.898438 63.121094 37.457031 64.714844 C 38.035156 66.355469 38.867188 67.789062 39.648438 69.257812 C 40.855469 71.53125 43.5 75.832031 43.5 75.832031 C 43.5 75.832031 46.144531 71.53125 47.351562 69.257812 C 48.132812 67.789062 48.964844 66.355469 49.542969 64.714844 C 50.101562 63.121094 50.75 61.414062 50.75 59.660156 C 50.742188 59.425781 50.746094 59.199219 50.75 58.980469 C 50.75 56.324219 49.128906 54.167969 47.125 54.167969 C 45.121094 54.167969 43.742188 55.839844 43.742188 58.5 C 43.742188 58.980469 43.257812 58.980469 43.257812 58.5 Z M 43.257812 58.5 "/>
<path style=" stroke:none;fill-rule:nonzero;fill:rgb(100%,33.333333%,33.333333%);fill-opacity:1;" d="M 21.507812 85.945312 C 21.507812 88.605469 20.128906 90.277344 18.125 90.277344 C 16.121094 90.277344 14.5 88.121094 14.5 85.464844 C 14.507812 85.234375 14.503906 85.007812 14.5 84.785156 C 14.5 83.027344 15.148438 81.324219 15.707031 79.730469 C 16.285156 78.089844 17.117188 76.652344 17.898438 75.1875 C 19.105469 72.914062 21.75 68.609375 21.75 68.609375 C 21.75 68.609375 24.394531 72.914062 25.601562 75.1875 C 26.382812 76.652344 27.214844 78.089844 27.792969 79.730469 C 28.351562 81.324219 29 83.027344 29 84.785156 C 28.992188 85.019531 28.996094 85.246094 29 85.464844 C 29 88.121094 27.378906 90.277344 25.375 90.277344 C 23.371094 90.277344 21.992188 88.605469 21.992188 85.945312 C 21.992188 85.464844 21.507812 85.464844 21.507812 85.945312 Z M 21.507812 85.945312 "/>
<path style=" stroke:none;fill-rule:nonzero;fill:rgb(100%,33.333333%,33.333333%);fill-opacity:1;" d="M 65.007812 85.945312 C 65.007812 88.605469 63.628906 90.277344 61.625 90.277344 C 59.621094 90.277344 58 88.121094 58 85.464844 C 58.007812 85.234375 58.003906 85.007812 58 84.785156 C 58 83.027344 58.648438 81.324219 59.207031 79.730469 C 59.785156 78.089844 60.617188 76.652344 61.398438 75.1875 C 62.605469 72.914062 65.25 68.609375 65.25 68.609375 C 65.25 68.609375 67.894531 72.914062 69.101562 75.1875 C 69.882812 76.652344 70.714844 78.089844 71.292969 79.730469 C 71.851562 81.324219 72.5 83.027344 72.5 84.785156 C 72.492188 85.019531 72.496094 85.246094 72.5 85.464844 C 72.5 88.121094 70.878906 90.277344 68.875 90.277344 C 66.871094 90.277344 65.492188 88.605469 65.492188 85.945312 C 65.492188 85.464844 65.007812 85.464844 65.007812 85.945312 Z M 65.007812 85.945312 "/>
<path style=" stroke:none;fill-rule:nonzero;fill:rgb(100%,33.333333%,33.333333%);fill-opacity:1;" d="M 21.507812 114.832031 C 21.507812 117.492188 20.128906 119.167969 18.125 119.167969 C 16.121094 119.167969 14.5 117.011719 14.5 114.351562 C 14.507812 114.121094 14.503906 113.898438 14.5 113.675781 C 14.5 111.917969 15.148438 110.214844 15.707031 108.621094 C 16.285156 106.980469 17.117188 105.542969 17.898438 104.074219 C 19.105469 101.804688 21.75 97.5 21.75 97.5 C 21.75 97.5 24.394531 101.804688 25.601562 104.074219 C 26.382812 105.542969 27.214844 106.980469 27.792969 108.621094 C 28.351562 110.214844 29 111.917969 29 113.675781 C 28.992188 113.910156 28.996094 114.136719 29 114.351562 C 29 117.011719 27.378906 119.167969 25.375 119.167969 C 23.371094 119.167969 21.992188 117.492188 21.992188 114.832031 C 21.992188 114.351562 21.507812 114.351562 21.507812 114.832031 Z M 21.507812 114.832031 "/>
<path style=" stroke:none;fill-rule:nonzero;fill:rgb(100%,33.333333%,33.333333%);fill-opacity:1;" d="M 65.007812 114.832031 C 65.007812 117.492188 63.628906 119.167969 61.625 119.167969 C 59.621094 119.167969 58 117.011719 58 114.351562 C 58.007812 114.121094 58.003906 113.898438 58 113.675781 C 58 111.917969 58.648438 110.214844 59.207031 108.621094 C 59.785156 106.980469 60.617188 105.542969 61.398438 104.074219 C 62.605469 101.804688 65.25 97.5 65.25 97.5 C 65.25 97.5 67.894531 101.804688 69.101562 104.074219 C 69.882812 105.542969 70.714844 106.980469 71.292969 108.621094 C 71.851562 110.214844 72.5 111.917969 72.5 113.675781 C 72.492188 113.910156 72.496094 114.136719 72.5 114.351562 C 72.5 117.011719 70.878906 119.167969 68.875 119.167969 C 66.871094 119.167969 65.492188 117.492188 65.492188 114.832031 C 65.492188 114.351562 65.007812 114.351562 65.007812 114.832031 Z M 65.007812 114.832031 "/>
<path style=" stroke:none;fill-rule:nonzero;fill:rgb(100%,33.333333%,33.333333%);fill-opacity:1;" d="M 7.128906 23.832031 C 7.128906 22.503906 6.4375 21.667969 5.4375 21.667969 C 4.4375 21.667969 3.625 22.746094 3.625 24.074219 C 3.628906 24.1875 3.628906 24.300781 3.625 24.414062 C 3.625 25.292969 3.949219 26.144531 4.230469 26.941406 C 4.519531 27.761719 4.933594 28.480469 5.324219 29.210938 C 5.929688 30.347656 7.25 32.5 7.25 32.5 C 7.25 32.5 8.570312 30.347656 9.175781 29.210938 C 9.566406 28.480469 9.980469 27.761719 10.269531 26.941406 C 10.550781 26.144531 10.875 25.292969 10.875 24.414062 C 10.871094 24.296875 10.871094 24.183594 10.875 24.074219 C 10.875 22.746094 10.0625 21.667969 9.0625 21.667969 C 8.0625 21.667969 7.371094 22.503906 7.371094 23.832031 C 7.371094 24.074219 7.128906 24.074219 7.128906 23.832031 Z M 7.128906 23.832031 "/>
<path style=" stroke:none;fill-rule:nonzero;fill:rgb(100%,33.333333%,33.333333%);fill-opacity:1;" d="M 79.628906 106.167969 C 79.628906 107.496094 78.9375 108.332031 77.9375 108.332031 C 76.9375 108.332031 76.125 107.253906 76.125 105.925781 C 76.128906 105.8125 76.128906 105.699219 76.125 105.585938 C 76.125 104.707031 76.449219 103.855469 76.730469 103.058594 C 77.019531 102.238281 77.433594 101.519531 77.824219 100.789062 C 78.429688 99.652344 79.75 97.5 79.75 97.5 C 79.75 97.5 81.070312 99.652344 81.675781 100.789062 C 82.066406 101.519531 82.480469 102.238281 82.769531 103.058594 C 83.050781 103.855469 83.375 104.707031 83.375 105.585938 C 83.371094 105.703125 83.371094 105.816406 83.375 105.925781 C 83.375 107.253906 82.5625 108.332031 81.5625 108.332031 C 80.5625 108.332031 79.871094 107.496094 79.871094 106.167969 C 79.871094 105.925781 79.628906 105.925781 79.628906 106.167969 Z M 79.628906 106.167969 "/>
</g>
</svg>
