<?xml version="1.0" encoding="UTF-8"?>
<svg xmlns="http://www.w3.org/2000/svg" xmlns:xlink="http://www.w3.org/1999/xlink" width="90px" height="130px" viewBox="0 0 90 130" version="1.1">
<g id="surface1">
<path style="fill-rule:nonzero;fill:rgb(100%,100%,100%);fill-opacity:1;stroke-width:1;stroke-linecap:butt;stroke-linejoin:miter;stroke:rgb(0%,0%,0%);stroke-opacity:1;stroke-miterlimit:4;" d="M 30.4375 512.865187 L 329.5625 512.865187 C 346.09375 512.865187 359.5 526.267832 359.5 542.802086 L 359.5 1021.922279 C 359.5 1038.456534 346.09375 1051.859178 329.5625 1051.859178 L 30.4375 1051.859178 C 13.90625 1051.859178 0.5 1038.456534 0.5 1021.922279 L 0.5 542.802086 C 0.5 526.267832 13.90625 512.865187 30.4375 512.865187 Z M 30.4375 512.865187 " transform="matrix(0.25,0,0,0.240741,0,-123.346451)"/>
<path style=" stroke:none;fill-rule:nonzero;fill:rgb(100%,33.333334%,33.333334%);fill-opacity:1;" d="M 3.75 7.222656 L 2.5 8.90625 L 2.5 10.59375 L 3.75 8.90625 L 3.75 19.257812 L 5 19.257812 L 5 7.222656 Z M 3.75 7.222656 "/>
<path style=" stroke:none;fill-rule:nonzero;fill:rgb(100%,33.333334%,33.333334%);fill-opacity:1;" d="M 8.75 7.222656 C 7.363281 7.222656 6.25 8.296875 6.25 9.628906 L 6.25 16.851562 C 6.25 18.1875 7.363281 19.257812 8.75 19.257812 C 10.136719 19.257812 11.25 18.1875 11.25 16.851562 L 11.25 9.628906 C 11.25 8.296875 10.136719 7.222656 8.75 7.222656 Z M 8.75 8.425781 C 9.441406 8.425781 10 8.960938 10 9.628906 L 10 16.851562 C 10 17.519531 9.441406 18.054688 8.75 18.054688 C 8.058594 18.054688 7.5 17.519531 7.5 16.851562 L 7.5 9.628906 C 7.5 8.960938 8.058594 8.425781 8.75 8.425781 Z M 8.75 8.425781 "/>
<path style=" stroke:none;fill-rule:nonzero;fill:rgb(100%,33.333334%,33.333334%);fill-opacity:1;" d="M 86.25 122.777344 L 87.5 121.09375 L 87.5 119.40625 L 86.25 121.09375 L 86.25 110.742188 L 85 110.742188 L 85 122.777344 Z M 86.25 122.777344 "/>
<path style=" stroke:none;fill-rule:nonzero;fill:rgb(100%,33.333334%,33.333334%);fill-opacity:1;" d="M 81.25 122.777344 C 82.636719 122.777344 83.75 121.703125 83.75 120.371094 L 83.75 113.148438 C 83.75 111.8125 82.636719 110.742188 81.25 110.742188 C 79.863281 110.742188 78.75 111.8125 78.75 113.148438 L 78.75 120.371094 C 78.75 121.703125 79.863281 122.777344 81.25 122.777344 Z M 81.25 121.574219 C 80.558594 121.574219 80 121.039062 80 120.371094 L 80 113.148438 C 80 112.480469 80.558594 111.945312 81.25 111.945312 C 81.941406 111.945312 82.5 112.480469 82.5 113.148438 L 82.5 120.371094 C 82.5 121.039062 81.941406 121.574219 81.25 121.574219 Z M 81.25 121.574219 "/>
<path style=" stroke:none;fill-rule:nonzero;fill:rgb(100%,33.333334%,33.333334%);fill-opacity:1;" d="M 7.375 23.832031 C 7.375 22.503906 6.660156 21.667969 5.625 21.667969 C 4.589844 21.667969 3.75 22.746094 3.75 24.074219 C 3.753906 24.1875 3.753906 24.300781 3.75 24.414062 C 3.75 25.292969 4.085938 26.144531 4.375 26.941406 C 4.671875 27.761719 5.105469 28.480469 5.507812 29.210938 C 6.132812 30.347656 7.5 32.5 7.5 32.5 C 7.5 32.5 8.867188 30.347656 9.492188 29.210938 C 9.894531 28.480469 10.328125 27.761719 10.625 26.941406 C 10.914062 26.144531 11.25 25.292969 11.25 24.414062 C 11.246094 24.296875 11.246094 24.183594 11.25 24.074219 C 11.25 22.746094 10.410156 21.667969 9.375 21.667969 C 8.339844 21.667969 7.625 22.503906 7.625 23.832031 C 7.625 24.074219 7.375 24.074219 7.375 23.832031 Z M 7.375 23.832031 "/>
<path style=" stroke:none;fill-rule:nonzero;fill:rgb(100%,33.333334%,33.333334%);fill-opacity:1;" d="M 82.375 106.167969 C 82.375 107.496094 81.660156 108.332031 80.625 108.332031 C 79.589844 108.332031 78.75 107.253906 78.75 105.925781 C 78.753906 105.8125 78.753906 105.699219 78.75 105.585938 C 78.75 104.707031 79.085938 103.855469 79.375 103.058594 C 79.671875 102.238281 80.105469 101.519531 80.507812 100.789062 C 81.132812 99.652344 82.5 97.5 82.5 97.5 C 82.5 97.5 83.867188 99.652344 84.492188 100.789062 C 84.894531 101.519531 85.328125 102.238281 85.625 103.058594 C 85.914062 103.855469 86.25 104.707031 86.25 105.585938 C 86.246094 105.703125 86.246094 105.816406 86.25 105.925781 C 86.25 107.253906 85.410156 108.332031 84.375 108.332031 C 83.339844 108.332031 82.625 107.496094 82.625 106.167969 C 82.625 105.925781 82.375 105.925781 82.375 106.167969 Z M 82.375 106.167969 "/>
<path style=" stroke:none;fill-rule:nonzero;fill:rgb(100%,33.333334%,33.333334%);fill-opacity:1;" d="M 22.25 15.167969 C 22.25 12.507812 20.820312 10.832031 18.75 10.832031 C 16.679688 10.832031 15 12.988281 15 15.648438 C 15.007812 15.878906 15.003906 16.101562 15 16.324219 C 15 18.082031 15.667969 19.785156 16.25 21.378906 C 16.847656 23.019531 17.707031 24.457031 18.515625 25.925781 C 19.765625 28.195312 22.5 32.5 22.5 32.5 C 22.5 32.5 25.234375 28.195312 26.484375 25.925781 C 27.292969 24.457031 28.152344 23.019531 28.75 21.378906 C 29.332031 19.785156 30 18.082031 30 16.324219 C 29.992188 16.089844 29.996094 15.863281 30 15.648438 C 30 12.988281 28.320312 10.832031 26.25 10.832031 C 24.179688 10.832031 22.75 12.507812 22.75 15.167969 C 22.75 15.648438 22.25 15.648438 22.25 15.167969 Z M 22.25 15.167969 "/>
<path style=" stroke:none;fill-rule:nonzero;fill:rgb(100%,33.333334%,33.333334%);fill-opacity:1;" d="M 67.25 15.167969 C 67.25 12.507812 65.820312 10.832031 63.75 10.832031 C 61.679688 10.832031 60 12.988281 60 15.648438 C 60.007812 15.878906 60.003906 16.101562 60 16.324219 C 60 18.082031 60.667969 19.785156 61.25 21.378906 C 61.847656 23.019531 62.707031 24.457031 63.515625 25.925781 C 64.765625 28.195312 67.5 32.5 67.5 32.5 C 67.5 32.5 70.234375 28.195312 71.484375 25.925781 C 72.292969 24.457031 73.152344 23.019531 73.75 21.378906 C 74.332031 19.785156 75 18.082031 75 16.324219 C 74.992188 16.089844 74.996094 15.863281 75 15.648438 C 75 12.988281 73.320312 10.832031 71.25 10.832031 C 69.179688 10.832031 67.75 12.507812 67.75 15.167969 C 67.75 15.648438 67.25 15.648438 67.25 15.167969 Z M 67.25 15.167969 "/>
<path style=" stroke:none;fill-rule:nonzero;fill:rgb(100%,33.333334%,33.333334%);fill-opacity:1;" d="M 44.75 29.609375 C 44.75 26.953125 43.320312 25.277344 41.25 25.277344 C 39.179688 25.277344 37.5 27.433594 37.5 30.09375 C 37.507812 30.324219 37.503906 30.546875 37.5 30.769531 C 37.5 32.527344 38.167969 34.230469 38.75 35.824219 C 39.347656 37.464844 40.207031 38.902344 41.015625 40.371094 C 42.265625 42.640625 45 46.945312 45 46.945312 C 45 46.945312 47.734375 42.640625 48.984375 40.371094 C 49.792969 38.902344 50.652344 37.464844 51.25 35.824219 C 51.832031 34.230469 52.5 32.527344 52.5 30.769531 C 52.492188 30.535156 52.496094 30.308594 52.5 30.09375 C 52.5 27.433594 50.820312 25.277344 48.75 25.277344 C 46.679688 25.277344 45.25 26.953125 45.25 29.609375 C 45.25 30.09375 44.75 30.09375 44.75 29.609375 Z M 44.75 29.609375 "/>
<path style=" stroke:none;fill-rule:nonzero;fill:rgb(100%,33.333334%,33.333334%);fill-opacity:1;" d="M 22.25 44.054688 C 22.25 41.394531 20.820312 39.722656 18.75 39.722656 C 16.679688 39.722656 15 41.878906 15 44.535156 C 15.007812 44.765625 15.003906 44.992188 15 45.214844 C 15 46.972656 15.667969 48.675781 16.25 50.269531 C 16.847656 51.910156 17.707031 53.347656 18.515625 54.8125 C 19.765625 57.085938 22.5 61.390625 22.5 61.390625 C 22.5 61.390625 25.234375 57.085938 26.484375 54.8125 C 27.292969 53.347656 28.152344 51.910156 28.75 50.269531 C 29.332031 48.675781 30 46.972656 30 45.214844 C 29.992188 44.980469 29.996094 44.753906 30 44.535156 C 30 41.878906 28.320312 39.722656 26.25 39.722656 C 24.179688 39.722656 22.75 41.394531 22.75 44.054688 C 22.75 44.535156 22.25 44.535156 22.25 44.054688 Z M 22.25 44.054688 "/>
<path style=" stroke:none;fill-rule:nonzero;fill:rgb(100%,33.333334%,33.333334%);fill-opacity:1;" d="M 67.25 44.054688 C 67.25 41.394531 65.820312 39.722656 63.75 39.722656 C 61.679688 39.722656 60 41.878906 60 44.535156 C 60.007812 44.765625 60.003906 44.992188 60 45.214844 C 60 46.972656 60.667969 48.675781 61.25 50.269531 C 61.847656 51.910156 62.707031 53.347656 63.515625 54.8125 C 64.765625 57.085938 67.5 61.390625 67.5 61.390625 C 67.5 61.390625 70.234375 57.085938 71.484375 54.8125 C 72.292969 53.347656 73.152344 51.910156 73.75 50.269531 C 74.332031 48.675781 75 46.972656 75 45.214844 C 74.992188 44.980469 74.996094 44.753906 75 44.535156 C 75 41.878906 73.320312 39.722656 71.25 39.722656 C 69.179688 39.722656 67.75 41.394531 67.75 44.054688 C 67.75 44.535156 67.25 44.535156 67.25 44.054688 Z M 67.25 44.054688 "/>
<path style=" stroke:none;fill-rule:nonzero;fill:rgb(100%,33.333334%,33.333334%);fill-opacity:1;" d="M 22.25 85.945312 C 22.25 88.605469 20.820312 90.277344 18.75 90.277344 C 16.679688 90.277344 15 88.121094 15 85.464844 C 15.007812 85.234375 15.003906 85.007812 15 84.785156 C 15 83.027344 15.667969 81.324219 16.25 79.730469 C 16.847656 78.089844 17.707031 76.652344 18.515625 75.1875 C 19.765625 72.914062 22.5 68.609375 22.5 68.609375 C 22.5 68.609375 25.234375 72.914062 26.484375 75.1875 C 27.292969 76.652344 28.152344 78.089844 28.75 79.730469 C 29.332031 81.324219 30 83.027344 30 84.785156 C 29.992188 85.019531 29.996094 85.246094 30 85.464844 C 30 88.121094 28.320312 90.277344 26.25 90.277344 C 24.179688 90.277344 22.75 88.605469 22.75 85.945312 C 22.75 85.464844 22.25 85.464844 22.25 85.945312 Z M 22.25 85.945312 "/>
<path style=" stroke:none;fill-rule:nonzero;fill:rgb(100%,33.333334%,33.333334%);fill-opacity:1;" d="M 67.25 85.945312 C 67.25 88.605469 65.820312 90.277344 63.75 90.277344 C 61.679688 90.277344 60 88.121094 60 85.464844 C 60.007812 85.234375 60.003906 85.007812 60 84.785156 C 60 83.027344 60.667969 81.324219 61.25 79.730469 C 61.847656 78.089844 62.707031 76.652344 63.515625 75.1875 C 64.765625 72.914062 67.5 68.609375 67.5 68.609375 C 67.5 68.609375 70.234375 72.914062 71.484375 75.1875 C 72.292969 76.652344 73.152344 78.089844 73.75 79.730469 C 74.332031 81.324219 75 83.027344 75 84.785156 C 74.992188 85.019531 74.996094 85.246094 75 85.464844 C 75 88.121094 73.320312 90.277344 71.25 90.277344 C 69.179688 90.277344 67.75 88.605469 67.75 85.945312 C 67.75 85.464844 67.25 85.464844 67.25 85.945312 Z M 67.25 85.945312 "/>
<path style=" stroke:none;fill-rule:nonzero;fill:rgb(100%,33.333334%,33.333334%);fill-opacity:1;" d="M 44.75 100.390625 C 44.75 103.046875 43.320312 104.722656 41.25 104.722656 C 39.179688 104.722656 37.5 102.566406 37.5 99.90625 C 37.507812 99.675781 37.503906 99.453125 37.5 99.230469 C 37.5 97.472656 38.167969 95.769531 38.75 94.175781 C 39.347656 92.535156 40.207031 91.097656 41.015625 89.628906 C 42.265625 87.359375 45 83.054688 45 83.054688 C 45 83.054688 47.734375 87.359375 48.984375 89.628906 C 49.792969 91.097656 50.652344 92.535156 51.25 94.175781 C 51.832031 95.769531 52.5 97.472656 52.5 99.230469 C 52.492188 99.464844 52.496094 99.691406 52.5 99.90625 C 52.5 102.566406 50.820312 104.722656 48.75 104.722656 C 46.679688 104.722656 45.25 103.046875 45.25 100.390625 C 45.25 99.90625 44.75 99.90625 44.75 100.390625 Z M 44.75 100.390625 "/>
<path style=" stroke:none;fill-rule:nonzero;fill:rgb(100%,33.333334%,33.333334%);fill-opacity:1;" d="M 22.25 114.832031 C 22.25 117.492188 20.820312 119.167969 18.75 119.167969 C 16.679688 119.167969 15 117.011719 15 114.351562 C 15.007812 114.121094 15.003906 113.898438 15 113.675781 C 15 111.917969 15.667969 110.214844 16.25 108.621094 C 16.847656 106.980469 17.707031 105.542969 18.515625 104.074219 C 19.765625 101.804688 22.5 97.5 22.5 97.5 C 22.5 97.5 25.234375 101.804688 26.484375 104.074219 C 27.292969 105.542969 28.152344 106.980469 28.75 108.621094 C 29.332031 110.214844 30 111.917969 30 113.675781 C 29.992188 113.910156 29.996094 114.136719 30 114.351562 C 30 117.011719 28.320312 119.167969 26.25 119.167969 C 24.179688 119.167969 22.75 117.492188 22.75 114.832031 C 22.75 114.351562 22.25 114.351562 22.25 114.832031 Z M 22.25 114.832031 "/>
<path style=" stroke:none;fill-rule:nonzero;fill:rgb(100%,33.333334%,33.333334%);fill-opacity:1;" d="M 67.25 114.832031 C 67.25 117.492188 65.820312 119.167969 63.75 119.167969 C 61.679688 119.167969 60 117.011719 60 114.351562 C 60.007812 114.121094 60.003906 113.898438 60 113.675781 C 60 111.917969 60.667969 110.214844 61.25 108.621094 C 61.847656 106.980469 62.707031 105.542969 63.515625 104.074219 C 64.765625 101.804688 67.5 97.5 67.5 97.5 C 67.5 97.5 70.234375 101.804688 71.484375 104.074219 C 72.292969 105.542969 73.152344 106.980469 73.75 108.621094 C 74.332031 110.214844 75 111.917969 75 113.675781 C 74.992188 113.910156 74.996094 114.136719 75 114.351562 C 75 117.011719 73.320312 119.167969 71.25 119.167969 C 69.179688 119.167969 67.75 117.492188 67.75 114.832031 C 67.75 114.351562 67.25 114.351562 67.25 114.832031 Z M 67.25 114.832031 "/>
</g>
</svg>
