<?xml version="1.0" encoding="UTF-8"?>
<svg xmlns="http://www.w3.org/2000/svg" xmlns:xlink="http://www.w3.org/1999/xlink" width="87pt" height="130pt" viewBox="0 0 87 130" version="1.1">
<g id="surface1">
<path style="fill-rule:nonzero;fill:rgb(100%,100%,100%);fill-opacity:1;stroke-width:1;stroke-linecap:butt;stroke-linejoin:miter;stroke:rgb(0%,0%,0%);stroke-opacity:1;stroke-miterlimit:4;" d="M 30.436422 512.865185 L 329.563578 512.865185 C 346.099138 512.865185 359.498922 526.267829 359.498922 542.802084 L 359.498922 1021.922276 C 359.498922 1038.456531 346.099138 1051.859175 329.563578 1051.859175 L 30.436422 1051.859175 C 13.900862 1051.859175 0.501078 1038.456531 0.501078 1021.922276 L 0.501078 542.802084 C 0.501078 526.267829 13.900862 512.865185 30.436422 512.865185 Z M 30.436422 512.865185 " transform="matrix(0.241667,0,0,0.240741,0,-123.346451)"/>
<path style=" stroke:none;fill-rule:nonzero;fill:rgb(0%,0%,0%);fill-opacity:1;" d="M 7.25 7.222656 C 5.910156 7.222656 4.832031 8.296875 4.832031 9.628906 L 4.832031 10.832031 C 4.832031 11.554688 5.152344 12.199219 5.65625 12.640625 C 5.152344 13.078125 4.832031 13.722656 4.832031 14.445312 L 4.832031 16.851562 C 4.832031 18.183594 5.910156 19.257812 7.25 19.257812 C 8.589844 19.257812 9.667969 18.183594 9.667969 16.851562 L 9.667969 14.445312 C 9.667969 13.722656 9.347656 13.078125 8.84375 12.640625 C 9.347656 12.199219 9.667969 11.554688 9.667969 10.832031 L 9.667969 9.628906 C 9.667969 8.296875 8.589844 7.222656 7.25 7.222656 Z M 7.25 8.425781 C 7.917969 8.425781 8.457031 8.960938 8.457031 9.628906 L 8.457031 10.832031 C 8.457031 11.5 7.917969 12.035156 7.25 12.035156 C 6.582031 12.035156 6.042969 11.5 6.042969 10.832031 L 6.042969 9.628906 C 6.042969 8.960938 6.582031 8.425781 7.25 8.425781 Z M 7.25 13.242188 C 7.917969 13.242188 8.457031 13.777344 8.457031 14.445312 L 8.457031 16.851562 C 8.457031 17.519531 7.917969 18.054688 7.25 18.054688 C 6.582031 18.054688 6.042969 17.519531 6.042969 16.851562 L 6.042969 14.445312 C 6.042969 13.777344 6.582031 13.242188 7.25 13.242188 Z M 7.25 13.242188 "/>
<path style=" stroke:none;fill-rule:nonzero;fill:rgb(0%,0%,0%);fill-opacity:1;" d="M 79.75 122.777344 C 78.410156 122.777344 77.332031 121.703125 77.332031 120.371094 L 77.332031 119.167969 C 77.332031 118.445312 77.652344 117.800781 78.15625 117.359375 C 77.652344 116.921875 77.332031 116.277344 77.332031 115.554688 L 77.332031 113.148438 C 77.332031 111.8125 78.410156 110.742188 79.75 110.742188 C 81.089844 110.742188 82.167969 111.8125 82.167969 113.148438 L 82.167969 115.554688 C 82.167969 116.277344 81.847656 116.921875 81.34375 117.359375 C 81.847656 117.800781 82.167969 118.445312 82.167969 119.167969 L 82.167969 120.371094 C 82.167969 121.703125 81.089844 122.777344 79.75 122.777344 Z M 79.75 121.574219 C 80.417969 121.574219 80.957031 121.039062 80.957031 120.371094 L 80.957031 119.167969 C 80.957031 118.5 80.417969 117.964844 79.75 117.964844 C 79.082031 117.964844 78.542969 118.5 78.542969 119.167969 L 78.542969 120.371094 C 78.542969 121.039062 79.082031 121.574219 79.75 121.574219 Z M 79.75 116.757812 C 80.417969 116.757812 80.957031 116.222656 80.957031 115.554688 L 80.957031 113.148438 C 80.957031 112.480469 80.417969 111.945312 79.75 111.945312 C 79.082031 111.945312 78.542969 112.480469 78.542969 113.148438 L 78.542969 115.554688 C 78.542969 116.222656 79.082031 116.757812 79.75 116.757812 Z M 79.75 116.757812 "/>
<path style=" stroke:none;fill-rule:nonzero;fill:rgb(0%,0%,0%);fill-opacity:1;" d="M 7.855469 28.40625 C 7.976562 28.890625 8.457031 30.09375 9.304688 30.09375 C 10.390625 30.09375 10.875 29.128906 10.875 27.925781 C 10.875 27.082031 10.5625 26.527344 10.269531 25.878906 C 9.960938 25.1875 9.5 24.574219 9.0625 23.953125 C 8.5 23.160156 7.25 21.667969 7.25 21.667969 C 7.25 21.667969 6 23.160156 5.4375 23.953125 C 5 24.574219 4.539062 25.1875 4.230469 25.878906 C 3.9375 26.527344 3.625 27.082031 3.625 27.925781 C 3.625 29.128906 4.109375 30.09375 5.195312 30.09375 C 6.042969 30.09375 6.523438 28.890625 6.644531 28.40625 C 6.765625 28.285156 6.765625 28.40625 6.765625 28.527344 C 6.644531 29.492188 6.644531 29.730469 6.523438 30.453125 C 6.402344 31.175781 6.042969 32.5 6.042969 32.5 C 6.644531 32.257812 7.855469 32.257812 8.457031 32.5 C 8.457031 32.5 8.097656 31.175781 7.976562 30.453125 C 7.855469 29.730469 7.855469 29.492188 7.734375 28.527344 C 7.734375 28.40625 7.734375 28.285156 7.855469 28.40625 Z M 7.855469 28.40625 "/>
<path style=" stroke:none;fill-rule:nonzero;fill:rgb(0%,0%,0%);fill-opacity:1;" d="M 80.355469 101.59375 C 80.476562 101.109375 80.957031 99.90625 81.804688 99.90625 C 82.890625 99.90625 83.375 100.871094 83.375 102.074219 C 83.375 102.917969 83.0625 103.472656 82.769531 104.121094 C 82.460938 104.8125 82 105.425781 81.5625 106.046875 C 81 106.839844 79.75 108.332031 79.75 108.332031 C 79.75 108.332031 78.5 106.839844 77.9375 106.046875 C 77.5 105.425781 77.039062 104.8125 76.730469 104.121094 C 76.4375 103.472656 76.125 102.917969 76.125 102.074219 C 76.125 100.871094 76.609375 99.90625 77.695312 99.90625 C 78.542969 99.90625 79.023438 101.109375 79.144531 101.59375 C 79.265625 101.714844 79.265625 101.59375 79.265625 101.472656 C 79.144531 100.507812 79.144531 100.269531 79.023438 99.546875 C 78.902344 98.824219 78.542969 97.5 78.542969 97.5 C 79.144531 97.742188 80.355469 97.742188 80.957031 97.5 C 80.957031 97.5 80.597656 98.824219 80.476562 99.546875 C 80.355469 100.269531 80.355469 100.507812 80.234375 101.472656 C 80.234375 101.59375 80.234375 101.714844 80.355469 101.59375 Z M 80.355469 101.59375 "/>
<path style=" stroke:none;fill-rule:nonzero;fill:rgb(0%,0%,0%);fill-opacity:1;" d="M 22.957031 24.316406 C 23.199219 25.277344 24.167969 27.683594 25.859375 27.683594 C 28.035156 27.683594 29 25.757812 29 23.351562 C 29 21.667969 28.375 20.554688 27.792969 19.257812 C 27.167969 17.878906 26.25 16.644531 25.375 15.40625 C 24.253906 13.820312 21.75 10.832031 21.75 10.832031 C 21.75 10.832031 19.246094 13.820312 18.125 15.40625 C 17.25 16.644531 16.332031 17.878906 15.707031 19.257812 C 15.125 20.554688 14.5 21.667969 14.5 23.351562 C 14.5 25.757812 15.464844 27.683594 17.640625 27.683594 C 19.332031 27.683594 20.300781 25.277344 20.542969 24.316406 C 20.785156 24.074219 20.785156 24.316406 20.785156 24.554688 C 20.542969 26.480469 20.542969 26.964844 20.300781 28.40625 C 20.058594 29.851562 19.332031 32.5 19.332031 32.5 C 20.542969 32.019531 22.957031 32.019531 24.167969 32.5 C 24.167969 32.5 23.441406 29.851562 23.199219 28.40625 C 22.957031 26.964844 22.957031 26.480469 22.714844 24.554688 C 22.714844 24.316406 22.714844 24.074219 22.957031 24.316406 Z M 22.957031 24.316406 "/>
<path style=" stroke:none;fill-rule:nonzero;fill:rgb(0%,0%,0%);fill-opacity:1;" d="M 66.457031 24.316406 C 66.699219 25.277344 67.667969 27.683594 69.359375 27.683594 C 71.535156 27.683594 72.5 25.757812 72.5 23.351562 C 72.5 21.667969 71.875 20.554688 71.292969 19.257812 C 70.667969 17.878906 69.75 16.644531 68.875 15.40625 C 67.753906 13.820312 65.25 10.832031 65.25 10.832031 C 65.25 10.832031 62.746094 13.820312 61.625 15.40625 C 60.75 16.644531 59.832031 17.878906 59.207031 19.257812 C 58.625 20.554688 58 21.667969 58 23.351562 C 58 25.757812 58.964844 27.683594 61.140625 27.683594 C 62.832031 27.683594 63.800781 25.277344 64.042969 24.316406 C 64.285156 24.074219 64.285156 24.316406 64.285156 24.554688 C 64.042969 26.480469 64.042969 26.964844 63.800781 28.40625 C 63.558594 29.851562 62.832031 32.5 62.832031 32.5 C 64.042969 32.019531 66.457031 32.019531 67.667969 32.5 C 67.667969 32.5 66.941406 29.851562 66.699219 28.40625 C 66.457031 26.964844 66.457031 26.480469 66.214844 24.554688 C 66.214844 24.316406 66.214844 24.074219 66.457031 24.316406 Z M 66.457031 24.316406 "/>
<path style=" stroke:none;fill-rule:nonzero;fill:rgb(0%,0%,0%);fill-opacity:1;" d="M 44.707031 45.980469 C 44.949219 46.945312 45.917969 49.351562 47.609375 49.351562 C 49.785156 49.351562 50.75 47.425781 50.75 45.019531 C 50.75 43.332031 50.125 42.222656 49.542969 40.925781 C 48.917969 39.542969 48 38.3125 47.125 37.074219 C 46.003906 35.484375 43.5 32.5 43.5 32.5 C 43.5 32.5 40.996094 35.484375 39.875 37.074219 C 39 38.3125 38.082031 39.542969 37.457031 40.925781 C 36.875 42.222656 36.25 43.332031 36.25 45.019531 C 36.25 47.425781 37.214844 49.351562 39.390625 49.351562 C 41.082031 49.351562 42.050781 46.945312 42.292969 45.980469 C 42.535156 45.742188 42.535156 45.980469 42.535156 46.222656 C 42.292969 48.148438 42.292969 48.628906 42.050781 50.074219 C 41.808594 51.519531 41.082031 54.167969 41.082031 54.167969 C 42.292969 53.683594 44.707031 53.683594 45.917969 54.167969 C 45.917969 54.167969 45.191406 51.519531 44.949219 50.074219 C 44.707031 48.628906 44.707031 48.148438 44.464844 46.222656 C 44.464844 45.980469 44.464844 45.742188 44.707031 45.980469 Z M 44.707031 45.980469 "/>
<path style=" stroke:none;fill-rule:nonzero;fill:rgb(0%,0%,0%);fill-opacity:1;" d="M 22.957031 67.648438 C 23.199219 68.609375 24.167969 71.019531 25.859375 71.019531 C 28.035156 71.019531 29 69.09375 29 66.683594 C 29 65 28.375 63.890625 27.792969 62.59375 C 27.167969 61.210938 26.25 59.980469 25.375 58.742188 C 24.253906 57.152344 21.75 54.167969 21.75 54.167969 C 21.75 54.167969 19.246094 57.152344 18.125 58.742188 C 17.25 59.980469 16.332031 61.210938 15.707031 62.59375 C 15.125 63.890625 14.5 65 14.5 66.683594 C 14.5 69.09375 15.464844 71.019531 17.640625 71.019531 C 19.332031 71.019531 20.300781 68.609375 20.542969 67.648438 C 20.785156 67.40625 20.785156 67.648438 20.785156 67.890625 C 20.542969 69.816406 20.542969 70.296875 20.300781 71.742188 C 20.058594 73.183594 19.332031 75.832031 19.332031 75.832031 C 20.542969 75.351562 22.957031 75.351562 24.167969 75.832031 C 24.167969 75.832031 23.441406 73.183594 23.199219 71.742188 C 22.957031 70.296875 22.957031 69.816406 22.714844 67.890625 C 22.714844 67.648438 22.714844 67.40625 22.957031 67.648438 Z M 22.957031 67.648438 "/>
<path style=" stroke:none;fill-rule:nonzero;fill:rgb(0%,0%,0%);fill-opacity:1;" d="M 66.457031 67.648438 C 66.699219 68.609375 67.667969 71.019531 69.359375 71.019531 C 71.535156 71.019531 72.5 69.09375 72.5 66.683594 C 72.5 65 71.875 63.890625 71.292969 62.59375 C 70.667969 61.210938 69.75 59.980469 68.875 58.742188 C 67.753906 57.152344 65.25 54.167969 65.25 54.167969 C 65.25 54.167969 62.746094 57.152344 61.625 58.742188 C 60.75 59.980469 59.832031 61.210938 59.207031 62.59375 C 58.625 63.890625 58 65 58 66.683594 C 58 69.09375 58.964844 71.019531 61.140625 71.019531 C 62.832031 71.019531 63.800781 68.609375 64.042969 67.648438 C 64.285156 67.40625 64.285156 67.648438 64.285156 67.890625 C 64.042969 69.816406 64.042969 70.296875 63.800781 71.742188 C 63.558594 73.183594 62.832031 75.832031 62.832031 75.832031 C 64.042969 75.351562 66.457031 75.351562 67.667969 75.832031 C 67.667969 75.832031 66.941406 73.183594 66.699219 71.742188 C 66.457031 70.296875 66.457031 69.816406 66.214844 67.890625 C 66.214844 67.648438 66.214844 67.40625 66.457031 67.648438 Z M 66.457031 67.648438 "/>
<path style=" stroke:none;fill-rule:nonzero;fill:rgb(0%,0%,0%);fill-opacity:1;" d="M 44.707031 84.019531 C 44.949219 83.054688 45.917969 80.648438 47.609375 80.648438 C 49.785156 80.648438 50.75 82.574219 50.75 84.980469 C 50.75 86.667969 50.125 87.777344 49.542969 89.074219 C 48.917969 90.457031 48 91.6875 47.125 92.925781 C 46.003906 94.515625 43.5 97.5 43.5 97.5 C 43.5 97.5 40.996094 94.515625 39.875 92.925781 C 39 91.6875 38.082031 90.457031 37.457031 89.074219 C 36.875 87.777344 36.25 86.667969 36.25 84.980469 C 36.25 82.574219 37.214844 80.648438 39.390625 80.648438 C 41.082031 80.648438 42.050781 83.054688 42.292969 84.019531 C 42.535156 84.257812 42.535156 84.019531 42.535156 83.777344 C 42.292969 81.851562 42.292969 81.371094 42.050781 79.925781 C 41.808594 78.480469 41.082031 75.832031 41.082031 75.832031 C 42.292969 76.316406 44.707031 76.316406 45.917969 75.832031 C 45.917969 75.832031 45.191406 78.480469 44.949219 79.925781 C 44.707031 81.371094 44.707031 81.851562 44.464844 83.777344 C 44.464844 84.019531 44.464844 84.257812 44.707031 84.019531 Z M 44.707031 84.019531 "/>
<path style=" stroke:none;fill-rule:nonzero;fill:rgb(0%,0%,0%);fill-opacity:1;" d="M 22.957031 105.683594 C 23.199219 104.722656 24.167969 102.316406 25.859375 102.316406 C 28.035156 102.316406 29 104.242188 29 106.648438 C 29 108.332031 28.375 109.445312 27.792969 110.742188 C 27.167969 112.121094 26.25 113.355469 25.375 114.59375 C 24.253906 116.179688 21.75 119.167969 21.75 119.167969 C 21.75 119.167969 19.246094 116.179688 18.125 114.59375 C 17.25 113.355469 16.332031 112.121094 15.707031 110.742188 C 15.125 109.445312 14.5 108.332031 14.5 106.648438 C 14.5 104.242188 15.464844 102.316406 17.640625 102.316406 C 19.332031 102.316406 20.300781 104.722656 20.542969 105.683594 C 20.785156 105.925781 20.785156 105.683594 20.785156 105.445312 C 20.542969 103.519531 20.542969 103.035156 20.300781 101.59375 C 20.058594 100.148438 19.332031 97.5 19.332031 97.5 C 20.542969 97.980469 22.957031 97.980469 24.167969 97.5 C 24.167969 97.5 23.441406 100.148438 23.199219 101.59375 C 22.957031 103.035156 22.957031 103.519531 22.714844 105.445312 C 22.714844 105.683594 22.714844 105.925781 22.957031 105.683594 Z M 22.957031 105.683594 "/>
<path style=" stroke:none;fill-rule:nonzero;fill:rgb(0%,0%,0%);fill-opacity:1;" d="M 66.457031 105.683594 C 66.699219 104.722656 67.667969 102.316406 69.359375 102.316406 C 71.535156 102.316406 72.5 104.242188 72.5 106.648438 C 72.5 108.332031 71.875 109.445312 71.292969 110.742188 C 70.667969 112.121094 69.75 113.355469 68.875 114.59375 C 67.753906 116.179688 65.25 119.167969 65.25 119.167969 C 65.25 119.167969 62.746094 116.179688 61.625 114.59375 C 60.75 113.355469 59.832031 112.121094 59.207031 110.742188 C 58.625 109.445312 58 108.332031 58 106.648438 C 58 104.242188 58.964844 102.316406 61.140625 102.316406 C 62.832031 102.316406 63.800781 104.722656 64.042969 105.683594 C 64.285156 105.925781 64.285156 105.683594 64.285156 105.445312 C 64.042969 103.519531 64.042969 103.035156 63.800781 101.59375 C 63.558594 100.148438 62.832031 97.5 62.832031 97.5 C 64.042969 97.980469 66.457031 97.980469 67.667969 97.5 C 67.667969 97.5 66.941406 100.148438 66.699219 101.59375 C 66.457031 103.035156 66.457031 103.519531 66.214844 105.445312 C 66.214844 105.683594 66.214844 105.925781 66.457031 105.683594 Z M 66.457031 105.683594 "/>
</g>
</svg>
