<?xml version="1.0" encoding="UTF-8"?>
<svg xmlns="http://www.w3.org/2000/svg" xmlns:xlink="http://www.w3.org/1999/xlink" width="87pt" height="130pt" viewBox="0 0 87 130" version="1.1">
<g id="surface1">
<path style="fill-rule:nonzero;fill:rgb(100%,100%,100%);fill-opacity:1;stroke-width:1;stroke-linecap:butt;stroke-linejoin:miter;stroke:rgb(0%,0%,0%);stroke-opacity:1;stroke-miterlimit:4;" d="M 30.436422 512.865185 L 329.563578 512.865185 C 346.099138 512.865185 359.498922 526.267829 359.498922 542.802084 L 359.498922 1021.922276 C 359.498922 1038.456531 346.099138 1051.859175 329.563578 1051.859175 L 30.436422 1051.859175 C 13.900862 1051.859175 0.501078 1038.456531 0.501078 1021.922276 L 0.501078 542.802084 C 0.501078 526.267829 13.900862 512.865185 30.436422 512.865185 Z M 30.436422 512.865185 " transform="matrix(0.241667,0,0,0.240741,0,-123.346451)"/>
<path style=" stroke:none;fill-rule:nonzero;fill:rgb(0%,0%,0%);fill-opacity:1;" d="M 7.25 7.222656 L 4.832031 15.648438 L 4.832031 16.851562 L 7.734375 16.851562 L 7.734375 19.257812 L 8.941406 19.257812 L 8.941406 16.851562 L 9.667969 16.851562 L 9.667969 15.648438 L 8.941406 15.648438 L 8.941406 12.035156 L 7.734375 12.035156 L 7.734375 15.648438 L 6.089844 15.648438 L 8.507812 7.222656 Z M 7.25 7.222656 "/>
<path style=" stroke:none;fill-rule:nonzero;fill:rgb(0%,0%,0%);fill-opacity:1;" d="M 79.75 122.777344 L 82.167969 114.351562 L 82.167969 113.148438 L 79.265625 113.148438 L 79.265625 110.742188 L 78.058594 110.742188 L 78.058594 113.148438 L 77.332031 113.148438 L 77.332031 114.351562 L 78.058594 114.351562 L 78.058594 117.964844 L 79.265625 117.964844 L 79.265625 114.351562 L 80.910156 114.351562 L 78.492188 122.777344 Z M 79.75 122.777344 "/>
<path style=" stroke:none;fill-rule:nonzero;fill:rgb(0%,0%,0%);fill-opacity:1;" d="M 7.855469 28.40625 C 7.976562 28.890625 8.457031 30.09375 9.304688 30.09375 C 10.390625 30.09375 10.875 29.128906 10.875 27.925781 C 10.875 27.082031 10.5625 26.527344 10.269531 25.878906 C 9.960938 25.1875 9.5 24.574219 9.0625 23.953125 C 8.5 23.160156 7.25 21.667969 7.25 21.667969 C 7.25 21.667969 6 23.160156 5.4375 23.953125 C 5 24.574219 4.539062 25.1875 4.230469 25.878906 C 3.9375 26.527344 3.625 27.082031 3.625 27.925781 C 3.625 29.128906 4.109375 30.09375 5.195312 30.09375 C 6.042969 30.09375 6.523438 28.890625 6.644531 28.40625 C 6.765625 28.285156 6.765625 28.40625 6.765625 28.527344 C 6.644531 29.492188 6.644531 29.730469 6.523438 30.453125 C 6.402344 31.175781 6.042969 32.5 6.042969 32.5 C 6.644531 32.257812 7.855469 32.257812 8.457031 32.5 C 8.457031 32.5 8.097656 31.175781 7.976562 30.453125 C 7.855469 29.730469 7.855469 29.492188 7.734375 28.527344 C 7.734375 28.40625 7.734375 28.285156 7.855469 28.40625 Z M 7.855469 28.40625 "/>
<path style=" stroke:none;fill-rule:nonzero;fill:rgb(0%,0%,0%);fill-opacity:1;" d="M 80.355469 101.59375 C 80.476562 101.109375 80.957031 99.90625 81.804688 99.90625 C 82.890625 99.90625 83.375 100.871094 83.375 102.074219 C 83.375 102.917969 83.0625 103.472656 82.769531 104.121094 C 82.460938 104.8125 82 105.425781 81.5625 106.046875 C 81 106.839844 79.75 108.332031 79.75 108.332031 C 79.75 108.332031 78.5 106.839844 77.9375 106.046875 C 77.5 105.425781 77.039062 104.8125 76.730469 104.121094 C 76.4375 103.472656 76.125 102.917969 76.125 102.074219 C 76.125 100.871094 76.609375 99.90625 77.695312 99.90625 C 78.542969 99.90625 79.023438 101.109375 79.144531 101.59375 C 79.265625 101.714844 79.265625 101.59375 79.265625 101.472656 C 79.144531 100.507812 79.144531 100.269531 79.023438 99.546875 C 78.902344 98.824219 78.542969 97.5 78.542969 97.5 C 79.144531 97.742188 80.355469 97.742188 80.957031 97.5 C 80.957031 97.5 80.597656 98.824219 80.476562 99.546875 C 80.355469 100.269531 80.355469 100.507812 80.234375 101.472656 C 80.234375 101.59375 80.234375 101.714844 80.355469 101.59375 Z M 80.355469 101.59375 "/>
<path style=" stroke:none;fill-rule:nonzero;fill:rgb(0%,0%,0%);fill-opacity:1;" d="M 22.960938 24.3125 C 23.199219 25.273438 24.167969 27.6875 25.855469 27.6875 C 28.03125 27.6875 28.996094 25.761719 28.996094 23.355469 C 28.996094 21.667969 28.378906 20.558594 27.789062 19.261719 C 27.164062 17.878906 26.25 16.640625 25.375 15.40625 C 24.253906 13.820312 21.753906 10.832031 21.753906 10.832031 C 21.753906 10.832031 19.242188 13.820312 18.121094 15.40625 C 17.25 16.640625 16.332031 17.878906 15.707031 19.261719 C 15.125 20.558594 14.5 21.667969 14.5 23.355469 C 14.5 25.761719 15.46875 27.6875 17.644531 27.6875 C 19.328125 27.6875 20.296875 25.273438 20.546875 24.3125 C 20.785156 24.070312 20.785156 24.3125 20.785156 24.558594 C 20.546875 26.476562 20.546875 26.964844 20.296875 28.40625 C 20.058594 29.855469 19.328125 32.5 19.328125 32.5 C 20.546875 32.023438 22.960938 32.023438 24.167969 32.5 C 24.167969 32.5 23.441406 29.855469 23.199219 28.40625 C 22.960938 26.964844 22.960938 26.476562 22.71875 24.558594 C 22.71875 24.3125 22.71875 24.070312 22.960938 24.3125 Z M 22.960938 24.3125 "/>
<path style=" stroke:none;fill-rule:nonzero;fill:rgb(0%,0%,0%);fill-opacity:1;" d="M 66.460938 24.3125 C 66.699219 25.273438 67.667969 27.6875 69.355469 27.6875 C 71.53125 27.6875 72.496094 25.761719 72.496094 23.355469 C 72.496094 21.667969 71.878906 20.558594 71.289062 19.261719 C 70.664062 17.878906 69.75 16.640625 68.875 15.40625 C 67.753906 13.820312 65.253906 10.832031 65.253906 10.832031 C 65.253906 10.832031 62.742188 13.820312 61.621094 15.40625 C 60.75 16.640625 59.832031 17.878906 59.207031 19.261719 C 58.625 20.558594 58 21.667969 58 23.355469 C 58 25.761719 58.96875 27.6875 61.144531 27.6875 C 62.828125 27.6875 63.796875 25.273438 64.046875 24.3125 C 64.285156 24.070312 64.285156 24.3125 64.285156 24.558594 C 64.046875 26.476562 64.046875 26.964844 63.796875 28.40625 C 63.558594 29.855469 62.828125 32.5 62.828125 32.5 C 64.046875 32.023438 66.460938 32.023438 67.667969 32.5 C 67.667969 32.5 66.941406 29.855469 66.699219 28.40625 C 66.460938 26.964844 66.460938 26.476562 66.21875 24.558594 C 66.21875 24.3125 66.21875 24.070312 66.460938 24.3125 Z M 66.460938 24.3125 "/>
<path style=" stroke:none;fill-rule:nonzero;fill:rgb(0%,0%,0%);fill-opacity:1;" d="M 22.960938 105.6875 C 23.199219 104.726562 24.167969 102.3125 25.855469 102.3125 C 28.03125 102.3125 28.996094 104.238281 28.996094 106.644531 C 28.996094 108.332031 28.378906 109.441406 27.789062 110.738281 C 27.164062 112.121094 26.25 113.359375 25.375 114.59375 C 24.253906 116.179688 21.753906 119.167969 21.753906 119.167969 C 21.753906 119.167969 19.242188 116.179688 18.121094 114.59375 C 17.25 113.359375 16.332031 112.121094 15.707031 110.738281 C 15.125 109.441406 14.5 108.332031 14.5 106.644531 C 14.5 104.238281 15.46875 102.3125 17.644531 102.3125 C 19.328125 102.3125 20.296875 104.726562 20.546875 105.6875 C 20.785156 105.929688 20.785156 105.6875 20.785156 105.441406 C 20.546875 103.523438 20.546875 103.035156 20.296875 101.59375 C 20.058594 100.144531 19.328125 97.5 19.328125 97.5 C 20.546875 97.976562 22.960938 97.976562 24.167969 97.5 C 24.167969 97.5 23.441406 100.144531 23.199219 101.59375 C 22.960938 103.035156 22.960938 103.523438 22.71875 105.441406 C 22.71875 105.6875 22.71875 105.929688 22.960938 105.6875 Z M 22.960938 105.6875 "/>
<path style=" stroke:none;fill-rule:nonzero;fill:rgb(0%,0%,0%);fill-opacity:1;" d="M 66.460938 105.6875 C 66.699219 104.726562 67.667969 102.3125 69.355469 102.3125 C 71.53125 102.3125 72.496094 104.238281 72.496094 106.644531 C 72.496094 108.332031 71.878906 109.441406 71.289062 110.738281 C 70.664062 112.121094 69.75 113.359375 68.875 114.59375 C 67.753906 116.179688 65.253906 119.167969 65.253906 119.167969 C 65.253906 119.167969 62.742188 116.179688 61.621094 114.59375 C 60.75 113.359375 59.832031 112.121094 59.207031 110.738281 C 58.625 109.441406 58 108.332031 58 106.644531 C 58 104.238281 58.96875 102.3125 61.144531 102.3125 C 62.828125 102.3125 63.796875 104.726562 64.046875 105.6875 C 64.285156 105.929688 64.285156 105.6875 64.285156 105.441406 C 64.046875 103.523438 64.046875 103.035156 63.796875 101.59375 C 63.558594 100.144531 62.828125 97.5 62.828125 97.5 C 64.046875 97.976562 66.460938 97.976562 67.667969 97.5 C 67.667969 97.5 66.941406 100.144531 66.699219 101.59375 C 66.460938 103.035156 66.460938 103.523438 66.21875 105.441406 C 66.21875 105.6875 66.21875 105.929688 66.460938 105.6875 Z M 66.460938 105.6875 "/>
</g>
</svg>
