<?xml version="1.0" encoding="UTF-8"?>
<svg xmlns="http://www.w3.org/2000/svg" xmlns:xlink="http://www.w3.org/1999/xlink" width="90px" height="130px" viewBox="0 0 90 130" version="1.1">
<g id="surface1">
<path style="fill-rule:nonzero;fill:rgb(100%,100%,100%);fill-opacity:1;stroke-width:1;stroke-linecap:butt;stroke-linejoin:miter;stroke:rgb(0%,0%,0%);stroke-opacity:1;stroke-miterlimit:4;" d="M 30.4375 512.865187 L 329.5625 512.865187 C 346.09375 512.865187 359.5 526.267832 359.5 542.802086 L 359.5 1021.922279 C 359.5 1038.456534 346.09375 1051.859178 329.5625 1051.859178 L 30.4375 1051.859178 C 13.90625 1051.859178 0.5 1038.456534 0.5 1021.922279 L 0.5 542.802086 C 0.5 526.267832 13.90625 512.865187 30.4375 512.865187 Z M 30.4375 512.865187 " transform="matrix(0.25,0,0,0.240741,0,-123.346451)"/>
<path style=" stroke:none;fill-rule:nonzero;fill:rgb(0%,0%,0%);fill-opacity:1;" d="M 7.5 7.222656 C 6.113281 7.222656 5 8.296875 5 9.628906 L 5 10.832031 L 6.25 10.832031 L 6.25 9.628906 C 6.25 8.960938 6.808594 8.425781 7.5 8.425781 C 8.191406 8.425781 8.75 8.960938 8.75 9.628906 L 8.75 10.832031 C 8.75 11.5 8.191406 12.035156 7.5 12.035156 L 6.25 12.035156 L 6.25 13.242188 L 7.5 13.242188 C 8.191406 13.242188 8.75 13.777344 8.75 14.445312 L 8.75 16.851562 C 8.75 17.519531 8.191406 18.054688 7.5 18.054688 C 6.808594 18.054688 6.25 17.519531 6.25 16.851562 L 6.25 15.648438 L 5 15.648438 L 5 16.851562 C 5 18.183594 6.113281 19.257812 7.5 19.257812 C 8.886719 19.257812 10 18.183594 10 16.851562 L 10 14.445312 C 10 13.722656 9.667969 13.078125 9.148438 12.640625 C 9.667969 12.199219 10 11.554688 10 10.832031 L 10 9.628906 C 10 8.296875 8.886719 7.222656 7.5 7.222656 Z M 7.5 7.222656 "/>
<path style=" stroke:none;fill-rule:nonzero;fill:rgb(0%,0%,0%);fill-opacity:1;" d="M 82.5 122.777344 C 83.886719 122.777344 85 121.703125 85 120.371094 L 85 119.167969 L 83.75 119.167969 L 83.75 120.371094 C 83.75 121.039062 83.191406 121.574219 82.5 121.574219 C 81.808594 121.574219 81.25 121.039062 81.25 120.371094 L 81.25 119.167969 C 81.25 118.5 81.808594 117.964844 82.5 117.964844 L 83.75 117.964844 L 83.75 116.757812 L 82.5 116.757812 C 81.808594 116.757812 81.25 116.222656 81.25 115.554688 L 81.25 113.148438 C 81.25 112.480469 81.808594 111.945312 82.5 111.945312 C 83.191406 111.945312 83.75 112.480469 83.75 113.148438 L 83.75 114.351562 L 85 114.351562 L 85 113.148438 C 85 111.8125 83.886719 110.742188 82.5 110.742188 C 81.113281 110.742188 80 111.8125 80 113.148438 L 80 115.554688 C 80 116.277344 80.332031 116.921875 80.851562 117.359375 C 80.332031 117.800781 80 118.445312 80 119.167969 L 80 120.371094 C 80 121.703125 81.113281 122.777344 82.5 122.777344 Z M 82.5 122.777344 "/>
<path style=" stroke:none;fill-rule:nonzero;fill:rgb(0%,0%,0%);fill-opacity:1;" d="M 46.25 24.316406 C 46.5 25.277344 47.5 27.683594 49.25 27.683594 C 51.5 27.683594 52.5 25.757812 52.5 23.351562 C 52.5 21.667969 51.855469 20.554688 51.25 19.257812 C 50.605469 17.878906 49.65625 16.644531 48.75 15.40625 C 47.589844 13.820312 45 10.832031 45 10.832031 C 45 10.832031 42.410156 13.820312 41.25 15.40625 C 40.34375 16.644531 39.394531 17.878906 38.75 19.257812 C 38.144531 20.554688 37.5 21.667969 37.5 23.351562 C 37.5 25.757812 38.5 27.683594 40.75 27.683594 C 42.5 27.683594 43.5 25.277344 43.75 24.316406 C 44 24.074219 44 24.316406 44 24.554688 C 43.75 26.480469 43.75 26.964844 43.5 28.40625 C 43.25 29.851562 42.5 32.5 42.5 32.5 C 43.75 32.019531 46.25 32.019531 47.5 32.5 C 47.5 32.5 46.75 29.851562 46.5 28.40625 C 46.25 26.964844 46.25 26.480469 46 24.554688 C 46 24.316406 46 24.074219 46.25 24.316406 Z M 46.25 24.316406 "/>
<path style=" stroke:none;fill-rule:nonzero;fill:rgb(0%,0%,0%);fill-opacity:1;" d="M 46.25 67.648438 C 46.5 68.609375 47.5 71.019531 49.25 71.019531 C 51.5 71.019531 52.5 69.09375 52.5 66.683594 C 52.5 65 51.855469 63.890625 51.25 62.59375 C 50.605469 61.210938 49.65625 59.980469 48.75 58.742188 C 47.589844 57.152344 45 54.167969 45 54.167969 C 45 54.167969 42.410156 57.152344 41.25 58.742188 C 40.34375 59.980469 39.394531 61.210938 38.75 62.59375 C 38.144531 63.890625 37.5 65 37.5 66.683594 C 37.5 69.09375 38.5 71.019531 40.75 71.019531 C 42.5 71.019531 43.5 68.609375 43.75 67.648438 C 44 67.40625 44 67.648438 44 67.890625 C 43.75 69.816406 43.75 70.296875 43.5 71.742188 C 43.25 73.183594 42.5 75.832031 42.5 75.832031 C 43.75 75.351562 46.25 75.351562 47.5 75.832031 C 47.5 75.832031 46.75 73.183594 46.5 71.742188 C 46.25 70.296875 46.25 69.816406 46 67.890625 C 46 67.648438 46 67.40625 46.25 67.648438 Z M 46.25 67.648438 "/>
<path style=" stroke:none;fill-rule:nonzero;fill:rgb(0%,0%,0%);fill-opacity:1;" d="M 46.25 105.683594 C 46.5 104.722656 47.5 102.316406 49.25 102.316406 C 51.5 102.316406 52.5 104.242188 52.5 106.648438 C 52.5 108.332031 51.855469 109.445312 51.25 110.742188 C 50.605469 112.121094 49.65625 113.355469 48.75 114.59375 C 47.589844 116.179688 45 119.167969 45 119.167969 C 45 119.167969 42.410156 116.179688 41.25 114.59375 C 40.34375 113.355469 39.394531 112.121094 38.75 110.742188 C 38.144531 109.445312 37.5 108.332031 37.5 106.648438 C 37.5 104.242188 38.5 102.316406 40.75 102.316406 C 42.5 102.316406 43.5 104.722656 43.75 105.683594 C 44 105.925781 44 105.683594 44 105.445312 C 43.75 103.519531 43.75 103.035156 43.5 101.59375 C 43.25 100.148438 42.5 97.5 42.5 97.5 C 43.75 97.980469 46.25 97.980469 47.5 97.5 C 47.5 97.5 46.75 100.148438 46.5 101.59375 C 46.25 103.035156 46.25 103.519531 46 105.445312 C 46 105.683594 46 105.925781 46.25 105.683594 Z M 46.25 105.683594 "/>
<path style=" stroke:none;fill-rule:nonzero;fill:rgb(0%,0%,0%);fill-opacity:1;" d="M 8.125 28.40625 C 8.25 28.890625 8.75 30.09375 9.625 30.09375 C 10.75 30.09375 11.25 29.128906 11.25 27.925781 C 11.25 27.082031 10.925781 26.527344 10.625 25.878906 C 10.304688 25.1875 9.828125 24.574219 9.375 23.953125 C 8.792969 23.160156 7.5 21.667969 7.5 21.667969 C 7.5 21.667969 6.207031 23.160156 5.625 23.953125 C 5.171875 24.574219 4.695312 25.1875 4.375 25.878906 C 4.074219 26.527344 3.75 27.082031 3.75 27.925781 C 3.75 29.128906 4.25 30.09375 5.375 30.09375 C 6.25 30.09375 6.75 28.890625 6.875 28.40625 C 7 28.285156 7 28.40625 7 28.527344 C 6.875 29.492188 6.875 29.730469 6.75 30.453125 C 6.625 31.175781 6.25 32.5 6.25 32.5 C 6.875 32.257812 8.125 32.257812 8.75 32.5 C 8.75 32.5 8.375 31.175781 8.25 30.453125 C 8.125 29.730469 8.125 29.492188 8 28.527344 C 8 28.40625 8 28.285156 8.125 28.40625 Z M 8.125 28.40625 "/>
<path style=" stroke:none;fill-rule:nonzero;fill:rgb(0%,0%,0%);fill-opacity:1;" d="M 83.125 101.59375 C 83.25 101.109375 83.75 99.90625 84.625 99.90625 C 85.75 99.90625 86.25 100.871094 86.25 102.074219 C 86.25 102.917969 85.925781 103.472656 85.625 104.121094 C 85.304688 104.8125 84.828125 105.425781 84.375 106.046875 C 83.792969 106.839844 82.5 108.332031 82.5 108.332031 C 82.5 108.332031 81.207031 106.839844 80.625 106.046875 C 80.171875 105.425781 79.695312 104.8125 79.375 104.121094 C 79.074219 103.472656 78.75 102.917969 78.75 102.074219 C 78.75 100.871094 79.25 99.90625 80.375 99.90625 C 81.25 99.90625 81.75 101.109375 81.875 101.59375 C 82 101.714844 82 101.59375 82 101.472656 C 81.875 100.507812 81.875 100.269531 81.75 99.546875 C 81.625 98.824219 81.25 97.5 81.25 97.5 C 81.875 97.742188 83.125 97.742188 83.75 97.5 C 83.75 97.5 83.375 98.824219 83.25 99.546875 C 83.125 100.269531 83.125 100.507812 83 101.472656 C 83 101.59375 83 101.714844 83.125 101.59375 Z M 83.125 101.59375 "/>
</g>
</svg>
