<?xml version="1.0" encoding="UTF-8"?>
<svg xmlns="http://www.w3.org/2000/svg" xmlns:xlink="http://www.w3.org/1999/xlink" width="87pt" height="130pt" viewBox="0 0 87 130" version="1.1">
<g id="surface1">
<path style="fill-rule:nonzero;fill:rgb(100%,100%,100%);fill-opacity:1;stroke-width:1;stroke-linecap:butt;stroke-linejoin:miter;stroke:rgb(0%,0%,0%);stroke-opacity:1;stroke-miterlimit:4;" d="M 30.436422 512.865185 L 329.563578 512.865185 C 346.099138 512.865185 359.498922 526.267829 359.498922 542.802084 L 359.498922 1021.922276 C 359.498922 1038.456531 346.099138 1051.859175 329.563578 1051.859175 L 30.436422 1051.859175 C 13.900862 1051.859175 0.501078 1038.456531 0.501078 1021.922276 L 0.501078 542.802084 C 0.501078 526.267829 13.900862 512.865185 30.436422 512.865185 Z M 30.436422 512.865185 " transform="matrix(0.241667,0,0,0.240741,0,-123.346451)"/>
<path style=" stroke:none;fill-rule:nonzero;fill:rgb(0%,0%,0%);fill-opacity:1;" d="M 7.25 7.222656 C 5.910156 7.222656 4.832031 8.296875 4.832031 9.628906 L 4.832031 10.832031 L 6.042969 10.832031 L 6.042969 9.628906 C 6.042969 8.960938 6.582031 8.425781 7.25 8.425781 C 7.917969 8.425781 8.457031 8.960938 8.457031 9.628906 L 8.457031 10.832031 C 8.457031 11.5 7.917969 12.035156 7.25 12.035156 L 6.042969 12.035156 L 6.042969 13.242188 L 7.25 13.242188 C 7.917969 13.242188 8.457031 13.777344 8.457031 14.445312 L 8.457031 16.851562 C 8.457031 17.519531 7.917969 18.054688 7.25 18.054688 C 6.582031 18.054688 6.042969 17.519531 6.042969 16.851562 L 6.042969 15.648438 L 4.832031 15.648438 L 4.832031 16.851562 C 4.832031 18.183594 5.910156 19.257812 7.25 19.257812 C 8.589844 19.257812 9.667969 18.183594 9.667969 16.851562 L 9.667969 14.445312 C 9.667969 13.722656 9.347656 13.078125 8.84375 12.640625 C 9.347656 12.199219 9.667969 11.554688 9.667969 10.832031 L 9.667969 9.628906 C 9.667969 8.296875 8.589844 7.222656 7.25 7.222656 Z M 7.25 7.222656 "/>
<path style=" stroke:none;fill-rule:nonzero;fill:rgb(0%,0%,0%);fill-opacity:1;" d="M 79.75 122.777344 C 81.089844 122.777344 82.167969 121.703125 82.167969 120.371094 L 82.167969 119.167969 L 80.957031 119.167969 L 80.957031 120.371094 C 80.957031 121.039062 80.417969 121.574219 79.75 121.574219 C 79.082031 121.574219 78.542969 121.039062 78.542969 120.371094 L 78.542969 119.167969 C 78.542969 118.5 79.082031 117.964844 79.75 117.964844 L 80.957031 117.964844 L 80.957031 116.757812 L 79.75 116.757812 C 79.082031 116.757812 78.542969 116.222656 78.542969 115.554688 L 78.542969 113.148438 C 78.542969 112.480469 79.082031 111.945312 79.75 111.945312 C 80.417969 111.945312 80.957031 112.480469 80.957031 113.148438 L 80.957031 114.351562 L 82.167969 114.351562 L 82.167969 113.148438 C 82.167969 111.8125 81.089844 110.742188 79.75 110.742188 C 78.410156 110.742188 77.332031 111.8125 77.332031 113.148438 L 77.332031 115.554688 C 77.332031 116.277344 77.652344 116.921875 78.15625 117.359375 C 77.652344 117.800781 77.332031 118.445312 77.332031 119.167969 L 77.332031 120.371094 C 77.332031 121.703125 78.410156 122.777344 79.75 122.777344 Z M 79.75 122.777344 "/>
<path style=" stroke:none;fill-rule:nonzero;fill:rgb(0%,0%,0%);fill-opacity:1;" d="M 44.707031 24.316406 C 44.949219 25.277344 45.917969 27.683594 47.609375 27.683594 C 49.785156 27.683594 50.75 25.757812 50.75 23.351562 C 50.75 21.667969 50.125 20.554688 49.542969 19.257812 C 48.917969 17.878906 48 16.644531 47.125 15.40625 C 46.003906 13.820312 43.5 10.832031 43.5 10.832031 C 43.5 10.832031 40.996094 13.820312 39.875 15.40625 C 39 16.644531 38.082031 17.878906 37.457031 19.257812 C 36.875 20.554688 36.25 21.667969 36.25 23.351562 C 36.25 25.757812 37.214844 27.683594 39.390625 27.683594 C 41.082031 27.683594 42.050781 25.277344 42.292969 24.316406 C 42.535156 24.074219 42.535156 24.316406 42.535156 24.554688 C 42.292969 26.480469 42.292969 26.964844 42.050781 28.40625 C 41.808594 29.851562 41.082031 32.5 41.082031 32.5 C 42.292969 32.019531 44.707031 32.019531 45.917969 32.5 C 45.917969 32.5 45.191406 29.851562 44.949219 28.40625 C 44.707031 26.964844 44.707031 26.480469 44.464844 24.554688 C 44.464844 24.316406 44.464844 24.074219 44.707031 24.316406 Z M 44.707031 24.316406 "/>
<path style=" stroke:none;fill-rule:nonzero;fill:rgb(0%,0%,0%);fill-opacity:1;" d="M 44.707031 67.648438 C 44.949219 68.609375 45.917969 71.019531 47.609375 71.019531 C 49.785156 71.019531 50.75 69.09375 50.75 66.683594 C 50.75 65 50.125 63.890625 49.542969 62.59375 C 48.917969 61.210938 48 59.980469 47.125 58.742188 C 46.003906 57.152344 43.5 54.167969 43.5 54.167969 C 43.5 54.167969 40.996094 57.152344 39.875 58.742188 C 39 59.980469 38.082031 61.210938 37.457031 62.59375 C 36.875 63.890625 36.25 65 36.25 66.683594 C 36.25 69.09375 37.214844 71.019531 39.390625 71.019531 C 41.082031 71.019531 42.050781 68.609375 42.292969 67.648438 C 42.535156 67.40625 42.535156 67.648438 42.535156 67.890625 C 42.292969 69.816406 42.292969 70.296875 42.050781 71.742188 C 41.808594 73.183594 41.082031 75.832031 41.082031 75.832031 C 42.292969 75.351562 44.707031 75.351562 45.917969 75.832031 C 45.917969 75.832031 45.191406 73.183594 44.949219 71.742188 C 44.707031 70.296875 44.707031 69.816406 44.464844 67.890625 C 44.464844 67.648438 44.464844 67.40625 44.707031 67.648438 Z M 44.707031 67.648438 "/>
<path style=" stroke:none;fill-rule:nonzero;fill:rgb(0%,0%,0%);fill-opacity:1;" d="M 44.707031 105.683594 C 44.949219 104.722656 45.917969 102.316406 47.609375 102.316406 C 49.785156 102.316406 50.75 104.242188 50.75 106.648438 C 50.75 108.332031 50.125 109.445312 49.542969 110.742188 C 48.917969 112.121094 48 113.355469 47.125 114.59375 C 46.003906 116.179688 43.5 119.167969 43.5 119.167969 C 43.5 119.167969 40.996094 116.179688 39.875 114.59375 C 39 113.355469 38.082031 112.121094 37.457031 110.742188 C 36.875 109.445312 36.25 108.332031 36.25 106.648438 C 36.25 104.242188 37.214844 102.316406 39.390625 102.316406 C 41.082031 102.316406 42.050781 104.722656 42.292969 105.683594 C 42.535156 105.925781 42.535156 105.683594 42.535156 105.445312 C 42.292969 103.519531 42.292969 103.035156 42.050781 101.59375 C 41.808594 100.148438 41.082031 97.5 41.082031 97.5 C 42.292969 97.980469 44.707031 97.980469 45.917969 97.5 C 45.917969 97.5 45.191406 100.148438 44.949219 101.59375 C 44.707031 103.035156 44.707031 103.519531 44.464844 105.445312 C 44.464844 105.683594 44.464844 105.925781 44.707031 105.683594 Z M 44.707031 105.683594 "/>
<path style=" stroke:none;fill-rule:nonzero;fill:rgb(0%,0%,0%);fill-opacity:1;" d="M 7.855469 28.40625 C 7.976562 28.890625 8.457031 30.09375 9.304688 30.09375 C 10.390625 30.09375 10.875 29.128906 10.875 27.925781 C 10.875 27.082031 10.5625 26.527344 10.269531 25.878906 C 9.960938 25.1875 9.5 24.574219 9.0625 23.953125 C 8.5 23.160156 7.25 21.667969 7.25 21.667969 C 7.25 21.667969 6 23.160156 5.4375 23.953125 C 5 24.574219 4.539062 25.1875 4.230469 25.878906 C 3.9375 26.527344 3.625 27.082031 3.625 27.925781 C 3.625 29.128906 4.109375 30.09375 5.195312 30.09375 C 6.042969 30.09375 6.523438 28.890625 6.644531 28.40625 C 6.765625 28.285156 6.765625 28.40625 6.765625 28.527344 C 6.644531 29.492188 6.644531 29.730469 6.523438 30.453125 C 6.402344 31.175781 6.042969 32.5 6.042969 32.5 C 6.644531 32.257812 7.855469 32.257812 8.457031 32.5 C 8.457031 32.5 8.097656 31.175781 7.976562 30.453125 C 7.855469 29.730469 7.855469 29.492188 7.734375 28.527344 C 7.734375 28.40625 7.734375 28.285156 7.855469 28.40625 Z M 7.855469 28.40625 "/>
<path style=" stroke:none;fill-rule:nonzero;fill:rgb(0%,0%,0%);fill-opacity:1;" d="M 80.355469 101.59375 C 80.476562 101.109375 80.957031 99.90625 81.804688 99.90625 C 82.890625 99.90625 83.375 100.871094 83.375 102.074219 C 83.375 102.917969 83.0625 103.472656 82.769531 104.121094 C 82.460938 104.8125 82 105.425781 81.5625 106.046875 C 81 106.839844 79.75 108.332031 79.75 108.332031 C 79.75 108.332031 78.5 106.839844 77.9375 106.046875 C 77.5 105.425781 77.039062 104.8125 76.730469 104.121094 C 76.4375 103.472656 76.125 102.917969 76.125 102.074219 C 76.125 100.871094 76.609375 99.90625 77.695312 99.90625 C 78.542969 99.90625 79.023438 101.109375 79.144531 101.59375 C 79.265625 101.714844 79.265625 101.59375 79.265625 101.472656 C 79.144531 100.507812 79.144531 100.269531 79.023438 99.546875 C 78.902344 98.824219 78.542969 97.5 78.542969 97.5 C 79.144531 97.742188 80.355469 97.742188 80.957031 97.5 C 80.957031 97.5 80.597656 98.824219 80.476562 99.546875 C 80.355469 100.269531 80.355469 100.507812 80.234375 101.472656 C 80.234375 101.59375 80.234375 101.714844 80.355469 101.59375 Z M 80.355469 101.59375 "/>
</g>
</svg>
