<?xml version="1.0" encoding="UTF-8"?>
<svg xmlns="http://www.w3.org/2000/svg" xmlns:xlink="http://www.w3.org/1999/xlink" width="90px" height="130px" viewBox="0 0 90 130" version="1.1">
<g id="surface1">
<path style="fill-rule:nonzero;fill:rgb(100%,100%,100%);fill-opacity:1;stroke-width:1;stroke-linecap:butt;stroke-linejoin:miter;stroke:rgb(0%,0%,0%);stroke-opacity:1;stroke-miterlimit:4;" d="M 30.4375 512.865187 L 329.5625 512.865187 C 346.09375 512.865187 359.5 526.267832 359.5 542.802086 L 359.5 1021.922279 C 359.5 1038.456534 346.09375 1051.859178 329.5625 1051.859178 L 30.4375 1051.859178 C 13.90625 1051.859178 0.5 1038.456534 0.5 1021.922279 L 0.5 542.802086 C 0.5 526.267832 13.90625 512.865187 30.4375 512.865187 Z M 30.4375 512.865187 " transform="matrix(0.25,0,0,0.240741,0,-123.346451)"/>
<path style=" stroke:none;fill-rule:nonzero;fill:rgb(0%,0%,0%);fill-opacity:1;" d="M 7.5 7.222656 C 6.113281 7.222656 5 8.296875 5 9.628906 L 5 10.832031 C 5 11.554688 5.332031 12.199219 5.851562 12.640625 C 5.332031 13.078125 5 13.722656 5 14.445312 L 5 16.851562 C 5 18.183594 6.113281 19.257812 7.5 19.257812 C 8.886719 19.257812 10 18.183594 10 16.851562 L 10 14.445312 C 10 13.722656 9.667969 13.078125 9.148438 12.640625 C 9.667969 12.199219 10 11.554688 10 10.832031 L 10 9.628906 C 10 8.296875 8.886719 7.222656 7.5 7.222656 Z M 7.5 8.425781 C 8.191406 8.425781 8.75 8.960938 8.75 9.628906 L 8.75 10.832031 C 8.75 11.5 8.191406 12.035156 7.5 12.035156 C 6.808594 12.035156 6.25 11.5 6.25 10.832031 L 6.25 9.628906 C 6.25 8.960938 6.808594 8.425781 7.5 8.425781 Z M 7.5 13.242188 C 8.191406 13.242188 8.75 13.777344 8.75 14.445312 L 8.75 16.851562 C 8.75 17.519531 8.191406 18.054688 7.5 18.054688 C 6.808594 18.054688 6.25 17.519531 6.25 16.851562 L 6.25 14.445312 C 6.25 13.777344 6.808594 13.242188 7.5 13.242188 Z M 7.5 13.242188 "/>
<path style=" stroke:none;fill-rule:nonzero;fill:rgb(0%,0%,0%);fill-opacity:1;" d="M 82.5 122.777344 C 81.113281 122.777344 80 121.703125 80 120.371094 L 80 119.167969 C 80 118.445312 80.332031 117.800781 80.851562 117.359375 C 80.332031 116.921875 80 116.277344 80 115.554688 L 80 113.148438 C 80 111.8125 81.113281 110.742188 82.5 110.742188 C 83.886719 110.742188 85 111.8125 85 113.148438 L 85 115.554688 C 85 116.277344 84.667969 116.921875 84.148438 117.359375 C 84.667969 117.800781 85 118.445312 85 119.167969 L 85 120.371094 C 85 121.703125 83.886719 122.777344 82.5 122.777344 Z M 82.5 121.574219 C 83.191406 121.574219 83.75 121.039062 83.75 120.371094 L 83.75 119.167969 C 83.75 118.5 83.191406 117.964844 82.5 117.964844 C 81.808594 117.964844 81.25 118.5 81.25 119.167969 L 81.25 120.371094 C 81.25 121.039062 81.808594 121.574219 82.5 121.574219 Z M 82.5 116.757812 C 83.191406 116.757812 83.75 116.222656 83.75 115.554688 L 83.75 113.148438 C 83.75 112.480469 83.191406 111.945312 82.5 111.945312 C 81.808594 111.945312 81.25 112.480469 81.25 113.148438 L 81.25 115.554688 C 81.25 116.222656 81.808594 116.757812 82.5 116.757812 Z M 82.5 116.757812 "/>
<path style=" stroke:none;fill-rule:nonzero;fill:rgb(0%,0%,0%);fill-opacity:1;" d="M 8.125 28.40625 C 8.25 28.890625 8.75 30.09375 9.625 30.09375 C 10.75 30.09375 11.25 29.128906 11.25 27.925781 C 11.25 27.082031 10.925781 26.527344 10.625 25.878906 C 10.304688 25.1875 9.828125 24.574219 9.375 23.953125 C 8.792969 23.160156 7.5 21.667969 7.5 21.667969 C 7.5 21.667969 6.207031 23.160156 5.625 23.953125 C 5.171875 24.574219 4.695312 25.1875 4.375 25.878906 C 4.074219 26.527344 3.75 27.082031 3.75 27.925781 C 3.75 29.128906 4.25 30.09375 5.375 30.09375 C 6.25 30.09375 6.75 28.890625 6.875 28.40625 C 7 28.285156 7 28.40625 7 28.527344 C 6.875 29.492188 6.875 29.730469 6.75 30.453125 C 6.625 31.175781 6.25 32.5 6.25 32.5 C 6.875 32.257812 8.125 32.257812 8.75 32.5 C 8.75 32.5 8.375 31.175781 8.25 30.453125 C 8.125 29.730469 8.125 29.492188 8 28.527344 C 8 28.40625 8 28.285156 8.125 28.40625 Z M 8.125 28.40625 "/>
<path style=" stroke:none;fill-rule:nonzero;fill:rgb(0%,0%,0%);fill-opacity:1;" d="M 83.125 101.59375 C 83.25 101.109375 83.75 99.90625 84.625 99.90625 C 85.75 99.90625 86.25 100.871094 86.25 102.074219 C 86.25 102.917969 85.925781 103.472656 85.625 104.121094 C 85.304688 104.8125 84.828125 105.425781 84.375 106.046875 C 83.792969 106.839844 82.5 108.332031 82.5 108.332031 C 82.5 108.332031 81.207031 106.839844 80.625 106.046875 C 80.171875 105.425781 79.695312 104.8125 79.375 104.121094 C 79.074219 103.472656 78.75 102.917969 78.75 102.074219 C 78.75 100.871094 79.25 99.90625 80.375 99.90625 C 81.25 99.90625 81.75 101.109375 81.875 101.59375 C 82 101.714844 82 101.59375 82 101.472656 C 81.875 100.507812 81.875 100.269531 81.75 99.546875 C 81.625 98.824219 81.25 97.5 81.25 97.5 C 81.875 97.742188 83.125 97.742188 83.75 97.5 C 83.75 97.5 83.375 98.824219 83.25 99.546875 C 83.125 100.269531 83.125 100.507812 83 101.472656 C 83 101.59375 83 101.714844 83.125 101.59375 Z M 83.125 101.59375 "/>
<path style=" stroke:none;fill-rule:nonzero;fill:rgb(0%,0%,0%);fill-opacity:1;" d="M 23.75 24.316406 C 24 25.277344 25 27.683594 26.75 27.683594 C 29 27.683594 30 25.757812 30 23.351562 C 30 21.667969 29.355469 20.554688 28.75 19.257812 C 28.105469 17.878906 27.15625 16.644531 26.25 15.40625 C 25.089844 13.820312 22.5 10.832031 22.5 10.832031 C 22.5 10.832031 19.910156 13.820312 18.75 15.40625 C 17.84375 16.644531 16.894531 17.878906 16.25 19.257812 C 15.644531 20.554688 15 21.667969 15 23.351562 C 15 25.757812 16 27.683594 18.25 27.683594 C 20 27.683594 21 25.277344 21.25 24.316406 C 21.5 24.074219 21.5 24.316406 21.5 24.554688 C 21.25 26.480469 21.25 26.964844 21 28.40625 C 20.75 29.851562 20 32.5 20 32.5 C 21.25 32.019531 23.75 32.019531 25 32.5 C 25 32.5 24.25 29.851562 24 28.40625 C 23.75 26.964844 23.75 26.480469 23.5 24.554688 C 23.5 24.316406 23.5 24.074219 23.75 24.316406 Z M 23.75 24.316406 "/>
<path style=" stroke:none;fill-rule:nonzero;fill:rgb(0%,0%,0%);fill-opacity:1;" d="M 68.75 24.316406 C 69 25.277344 70 27.683594 71.75 27.683594 C 74 27.683594 75 25.757812 75 23.351562 C 75 21.667969 74.355469 20.554688 73.75 19.257812 C 73.105469 17.878906 72.15625 16.644531 71.25 15.40625 C 70.089844 13.820312 67.5 10.832031 67.5 10.832031 C 67.5 10.832031 64.910156 13.820312 63.75 15.40625 C 62.84375 16.644531 61.894531 17.878906 61.25 19.257812 C 60.644531 20.554688 60 21.667969 60 23.351562 C 60 25.757812 61 27.683594 63.25 27.683594 C 65 27.683594 66 25.277344 66.25 24.316406 C 66.5 24.074219 66.5 24.316406 66.5 24.554688 C 66.25 26.480469 66.25 26.964844 66 28.40625 C 65.75 29.851562 65 32.5 65 32.5 C 66.25 32.019531 68.75 32.019531 70 32.5 C 70 32.5 69.25 29.851562 69 28.40625 C 68.75 26.964844 68.75 26.480469 68.5 24.554688 C 68.5 24.316406 68.5 24.074219 68.75 24.316406 Z M 68.75 24.316406 "/>
<path style=" stroke:none;fill-rule:nonzero;fill:rgb(0%,0%,0%);fill-opacity:1;" d="M 46.25 45.980469 C 46.5 46.945312 47.5 49.351562 49.25 49.351562 C 51.5 49.351562 52.5 47.425781 52.5 45.019531 C 52.5 43.332031 51.855469 42.222656 51.25 40.925781 C 50.605469 39.542969 49.65625 38.3125 48.75 37.074219 C 47.589844 35.484375 45 32.5 45 32.5 C 45 32.5 42.410156 35.484375 41.25 37.074219 C 40.34375 38.3125 39.394531 39.542969 38.75 40.925781 C 38.144531 42.222656 37.5 43.332031 37.5 45.019531 C 37.5 47.425781 38.5 49.351562 40.75 49.351562 C 42.5 49.351562 43.5 46.945312 43.75 45.980469 C 44 45.742188 44 45.980469 44 46.222656 C 43.75 48.148438 43.75 48.628906 43.5 50.074219 C 43.25 51.519531 42.5 54.167969 42.5 54.167969 C 43.75 53.683594 46.25 53.683594 47.5 54.167969 C 47.5 54.167969 46.75 51.519531 46.5 50.074219 C 46.25 48.628906 46.25 48.148438 46 46.222656 C 46 45.980469 46 45.742188 46.25 45.980469 Z M 46.25 45.980469 "/>
<path style=" stroke:none;fill-rule:nonzero;fill:rgb(0%,0%,0%);fill-opacity:1;" d="M 23.75 67.648438 C 24 68.609375 25 71.019531 26.75 71.019531 C 29 71.019531 30 69.09375 30 66.683594 C 30 65 29.355469 63.890625 28.75 62.59375 C 28.105469 61.210938 27.15625 59.980469 26.25 58.742188 C 25.089844 57.152344 22.5 54.167969 22.5 54.167969 C 22.5 54.167969 19.910156 57.152344 18.75 58.742188 C 17.84375 59.980469 16.894531 61.210938 16.25 62.59375 C 15.644531 63.890625 15 65 15 66.683594 C 15 69.09375 16 71.019531 18.25 71.019531 C 20 71.019531 21 68.609375 21.25 67.648438 C 21.5 67.40625 21.5 67.648438 21.5 67.890625 C 21.25 69.816406 21.25 70.296875 21 71.742188 C 20.75 73.183594 20 75.832031 20 75.832031 C 21.25 75.351562 23.75 75.351562 25 75.832031 C 25 75.832031 24.25 73.183594 24 71.742188 C 23.75 70.296875 23.75 69.816406 23.5 67.890625 C 23.5 67.648438 23.5 67.40625 23.75 67.648438 Z M 23.75 67.648438 "/>
<path style=" stroke:none;fill-rule:nonzero;fill:rgb(0%,0%,0%);fill-opacity:1;" d="M 68.75 67.648438 C 69 68.609375 70 71.019531 71.75 71.019531 C 74 71.019531 75 69.09375 75 66.683594 C 75 65 74.355469 63.890625 73.75 62.59375 C 73.105469 61.210938 72.15625 59.980469 71.25 58.742188 C 70.089844 57.152344 67.5 54.167969 67.5 54.167969 C 67.5 54.167969 64.910156 57.152344 63.75 58.742188 C 62.84375 59.980469 61.894531 61.210938 61.25 62.59375 C 60.644531 63.890625 60 65 60 66.683594 C 60 69.09375 61 71.019531 63.25 71.019531 C 65 71.019531 66 68.609375 66.25 67.648438 C 66.5 67.40625 66.5 67.648438 66.5 67.890625 C 66.25 69.816406 66.25 70.296875 66 71.742188 C 65.75 73.183594 65 75.832031 65 75.832031 C 66.25 75.351562 68.75 75.351562 70 75.832031 C 70 75.832031 69.25 73.183594 69 71.742188 C 68.75 70.296875 68.75 69.816406 68.5 67.890625 C 68.5 67.648438 68.5 67.40625 68.75 67.648438 Z M 68.75 67.648438 "/>
<path style=" stroke:none;fill-rule:nonzero;fill:rgb(0%,0%,0%);fill-opacity:1;" d="M 46.25 84.019531 C 46.5 83.054688 47.5 80.648438 49.25 80.648438 C 51.5 80.648438 52.5 82.574219 52.5 84.980469 C 52.5 86.667969 51.855469 87.777344 51.25 89.074219 C 50.605469 90.457031 49.65625 91.6875 48.75 92.925781 C 47.589844 94.515625 45 97.5 45 97.5 C 45 97.5 42.410156 94.515625 41.25 92.925781 C 40.34375 91.6875 39.394531 90.457031 38.75 89.074219 C 38.144531 87.777344 37.5 86.667969 37.5 84.980469 C 37.5 82.574219 38.5 80.648438 40.75 80.648438 C 42.5 80.648438 43.5 83.054688 43.75 84.019531 C 44 84.257812 44 84.019531 44 83.777344 C 43.75 81.851562 43.75 81.371094 43.5 79.925781 C 43.25 78.480469 42.5 75.832031 42.5 75.832031 C 43.75 76.316406 46.25 76.316406 47.5 75.832031 C 47.5 75.832031 46.75 78.480469 46.5 79.925781 C 46.25 81.371094 46.25 81.851562 46 83.777344 C 46 84.019531 46 84.257812 46.25 84.019531 Z M 46.25 84.019531 "/>
<path style=" stroke:none;fill-rule:nonzero;fill:rgb(0%,0%,0%);fill-opacity:1;" d="M 23.75 105.683594 C 24 104.722656 25 102.316406 26.75 102.316406 C 29 102.316406 30 104.242188 30 106.648438 C 30 108.332031 29.355469 109.445312 28.75 110.742188 C 28.105469 112.121094 27.15625 113.355469 26.25 114.59375 C 25.089844 116.179688 22.5 119.167969 22.5 119.167969 C 22.5 119.167969 19.910156 116.179688 18.75 114.59375 C 17.84375 113.355469 16.894531 112.121094 16.25 110.742188 C 15.644531 109.445312 15 108.332031 15 106.648438 C 15 104.242188 16 102.316406 18.25 102.316406 C 20 102.316406 21 104.722656 21.25 105.683594 C 21.5 105.925781 21.5 105.683594 21.5 105.445312 C 21.25 103.519531 21.25 103.035156 21 101.59375 C 20.75 100.148438 20 97.5 20 97.5 C 21.25 97.980469 23.75 97.980469 25 97.5 C 25 97.5 24.25 100.148438 24 101.59375 C 23.75 103.035156 23.75 103.519531 23.5 105.445312 C 23.5 105.683594 23.5 105.925781 23.75 105.683594 Z M 23.75 105.683594 "/>
<path style=" stroke:none;fill-rule:nonzero;fill:rgb(0%,0%,0%);fill-opacity:1;" d="M 68.75 105.683594 C 69 104.722656 70 102.316406 71.75 102.316406 C 74 102.316406 75 104.242188 75 106.648438 C 75 108.332031 74.355469 109.445312 73.75 110.742188 C 73.105469 112.121094 72.15625 113.355469 71.25 114.59375 C 70.089844 116.179688 67.5 119.167969 67.5 119.167969 C 67.5 119.167969 64.910156 116.179688 63.75 114.59375 C 62.84375 113.355469 61.894531 112.121094 61.25 110.742188 C 60.644531 109.445312 60 108.332031 60 106.648438 C 60 104.242188 61 102.316406 63.25 102.316406 C 65 102.316406 66 104.722656 66.25 105.683594 C 66.5 105.925781 66.5 105.683594 66.5 105.445312 C 66.25 103.519531 66.25 103.035156 66 101.59375 C 65.75 100.148438 65 97.5 65 97.5 C 66.25 97.980469 68.75 97.980469 70 97.5 C 70 97.5 69.25 100.148438 69 101.59375 C 68.75 103.035156 68.75 103.519531 68.5 105.445312 C 68.5 105.683594 68.5 105.925781 68.75 105.683594 Z M 68.75 105.683594 "/>
</g>
</svg>
