<?xml version="1.0" encoding="UTF-8"?>
<svg xmlns="http://www.w3.org/2000/svg" xmlns:xlink="http://www.w3.org/1999/xlink" width="90px" height="130px" viewBox="0 0 90 130" version="1.1">
<g id="surface1">
<path style="fill-rule:nonzero;fill:rgb(100%,100%,100%);fill-opacity:1;stroke-width:1;stroke-linecap:butt;stroke-linejoin:miter;stroke:rgb(0%,0%,0%);stroke-opacity:1;stroke-miterlimit:4;" d="M 30.4375 512.861779 L 329.5625 512.861779 C 346.09375 512.861779 359.5 526.264423 359.5 542.798678 L 359.5 1021.91887 C 359.5 1038.453125 346.09375 1051.855769 329.5625 1051.855769 L 30.4375 1051.855769 C 13.90625 1051.855769 0.5 1038.453125 0.5 1021.91887 L 0.5 542.798678 C 0.5 526.264423 13.90625 512.861779 30.4375 512.861779 Z M 30.4375 512.861779 " transform="matrix(0.25,0,0,0.240741,0,-123.349537)"/>
<path style=" stroke:none;fill-rule:nonzero;fill:rgb(0%,0%,0%);fill-opacity:1;" d="M 6.875 7.21875 L 4.625 19.257812 L 5.875 19.257812 L 6.460938 16.125 L 8.539062 16.125 L 9.125 19.257812 L 10.375 19.257812 L 8.125 7.21875 Z M 7.5 10.566406 L 8.3125 14.921875 L 6.6875 14.921875 Z M 7.5 10.566406 "/>
<path style=" stroke:none;fill-rule:nonzero;fill:rgb(0%,0%,0%);fill-opacity:1;" d="M 81.875 122.773438 L 79.625 110.738281 L 80.875 110.738281 L 81.460938 113.867188 L 83.539062 113.867188 L 84.125 110.738281 L 85.375 110.738281 L 83.125 122.773438 Z M 82.5 119.425781 L 83.3125 115.070312 L 81.6875 115.070312 Z M 82.5 119.425781 "/>
<path style=" stroke:none;fill-rule:nonzero;fill:rgb(0%,0%,0%);fill-opacity:1;" d="M 46.25 67.644531 C 46.5 68.609375 47.5 71.015625 49.25 71.015625 C 51.5 71.015625 52.5 69.089844 52.5 66.683594 C 52.5 64.996094 51.855469 63.886719 51.25 62.589844 C 50.605469 61.207031 49.65625 59.976562 48.75 58.738281 C 47.589844 57.148438 45 54.164062 45 54.164062 C 45 54.164062 42.410156 57.148438 41.25 58.738281 C 40.34375 59.976562 39.394531 61.207031 38.75 62.589844 C 38.144531 63.886719 37.5 64.996094 37.5 66.683594 C 37.5 69.089844 38.5 71.015625 40.75 71.015625 C 42.5 71.015625 43.5 68.609375 43.75 67.644531 C 44 67.40625 44 67.644531 44 67.886719 C 43.75 69.8125 43.75 70.292969 43.5 71.738281 C 43.25 73.183594 42.5 75.832031 42.5 75.832031 C 43.75 75.347656 46.25 75.347656 47.5 75.832031 C 47.5 75.832031 46.75 73.183594 46.5 71.738281 C 46.25 70.292969 46.25 69.8125 46 67.886719 C 46 67.644531 46 67.40625 46.25 67.644531 Z M 46.25 67.644531 "/>
<path style=" stroke:none;fill-rule:nonzero;fill:rgb(0%,0%,0%);fill-opacity:1;" d="M 8.125 28.40625 C 8.25 28.886719 8.75 30.089844 9.625 30.089844 C 10.75 30.089844 11.25 29.125 11.25 27.921875 C 11.25 27.082031 10.925781 26.523438 10.625 25.875 C 10.304688 25.1875 9.828125 24.570312 9.375 23.949219 C 8.792969 23.15625 7.5 21.664062 7.5 21.664062 C 7.5 21.664062 6.207031 23.15625 5.625 23.949219 C 5.171875 24.570312 4.695312 25.1875 4.375 25.875 C 4.074219 26.523438 3.75 27.082031 3.75 27.921875 C 3.75 29.125 4.25 30.089844 5.375 30.089844 C 6.25 30.089844 6.75 28.886719 6.875 28.40625 C 7 28.285156 7 28.40625 7 28.523438 C 6.875 29.488281 6.875 29.726562 6.75 30.449219 C 6.625 31.171875 6.25 32.496094 6.25 32.496094 C 6.875 32.257812 8.125 32.257812 8.75 32.496094 C 8.75 32.496094 8.375 31.171875 8.25 30.449219 C 8.125 29.726562 8.125 29.488281 8 28.523438 C 8 28.40625 8 28.285156 8.125 28.40625 Z M 8.125 28.40625 "/>
<path style=" stroke:none;fill-rule:nonzero;fill:rgb(0%,0%,0%);fill-opacity:1;" d="M 83.125 101.589844 C 83.25 101.109375 83.75 99.90625 84.625 99.90625 C 85.75 99.90625 86.25 100.867188 86.25 102.070312 C 86.25 102.914062 85.925781 103.46875 85.625 104.117188 C 85.304688 104.808594 84.828125 105.425781 84.375 106.042969 C 83.792969 106.835938 82.5 108.332031 82.5 108.332031 C 82.5 108.332031 81.207031 106.835938 80.625 106.042969 C 80.171875 105.425781 79.695312 104.808594 79.375 104.117188 C 79.074219 103.46875 78.75 102.914062 78.75 102.070312 C 78.75 100.867188 79.25 99.90625 80.375 99.90625 C 81.25 99.90625 81.75 101.109375 81.875 101.589844 C 82 101.710938 82 101.589844 82 101.46875 C 81.875 100.507812 81.875 100.265625 81.75 99.542969 C 81.625 98.820312 81.25 97.496094 81.25 97.496094 C 81.875 97.738281 83.125 97.738281 83.75 97.496094 C 83.75 97.496094 83.375 98.820312 83.25 99.542969 C 83.125 100.265625 83.125 100.507812 83 101.46875 C 83 101.589844 83 101.710938 83.125 101.589844 Z M 83.125 101.589844 "/>
</g>
</svg>
