<?xml version="1.0" encoding="UTF-8"?>
<svg xmlns="http://www.w3.org/2000/svg" xmlns:xlink="http://www.w3.org/1999/xlink" width="87pt" height="130pt" viewBox="0 0 87 130" version="1.1">
<g id="surface1">
<path style="fill-rule:nonzero;fill:rgb(100%,100%,100%);fill-opacity:1;stroke-width:1;stroke-linecap:butt;stroke-linejoin:miter;stroke:rgb(0%,0%,0%);stroke-opacity:1;stroke-miterlimit:4;" d="M 30.436422 512.865185 L 329.563578 512.865185 C 346.099138 512.865185 359.498922 526.267829 359.498922 542.802084 L 359.498922 1021.922276 C 359.498922 1038.456531 346.099138 1051.859175 329.563578 1051.859175 L 30.436422 1051.859175 C 13.900862 1051.859175 0.501078 1038.456531 0.501078 1021.922276 L 0.501078 542.802084 C 0.501078 526.267829 13.900862 512.865185 30.436422 512.865185 Z M 30.436422 512.865185 " transform="matrix(0.241667,0,0,0.240741,0,-123.346451)"/>
<path style=" stroke:none;fill-rule:nonzero;fill:rgb(0%,0%,0%);fill-opacity:1;" d="M 3.625 7.222656 L 2.417969 8.90625 L 2.417969 10.59375 L 3.625 8.90625 L 3.625 19.257812 L 4.832031 19.257812 L 4.832031 7.222656 Z M 3.625 7.222656 "/>
<path style=" stroke:none;fill-rule:nonzero;fill:rgb(0%,0%,0%);fill-opacity:1;" d="M 8.457031 7.222656 C 7.121094 7.222656 6.042969 8.296875 6.042969 9.628906 L 6.042969 16.851562 C 6.042969 18.1875 7.121094 19.257812 8.457031 19.257812 C 9.796875 19.257812 10.875 18.1875 10.875 16.851562 L 10.875 9.628906 C 10.875 8.296875 9.796875 7.222656 8.457031 7.222656 Z M 8.457031 8.425781 C 9.128906 8.425781 9.667969 8.960938 9.667969 9.628906 L 9.667969 16.851562 C 9.667969 17.519531 9.128906 18.054688 8.457031 18.054688 C 7.789062 18.054688 7.25 17.519531 7.25 16.851562 L 7.25 9.628906 C 7.25 8.960938 7.789062 8.425781 8.457031 8.425781 Z M 8.457031 8.425781 "/>
<path style=" stroke:none;fill-rule:nonzero;fill:rgb(0%,0%,0%);fill-opacity:1;" d="M 83.375 122.777344 L 84.582031 121.09375 L 84.582031 119.40625 L 83.375 121.09375 L 83.375 110.742188 L 82.167969 110.742188 L 82.167969 122.777344 Z M 83.375 122.777344 "/>
<path style=" stroke:none;fill-rule:nonzero;fill:rgb(0%,0%,0%);fill-opacity:1;" d="M 78.542969 122.777344 C 79.878906 122.777344 80.957031 121.703125 80.957031 120.371094 L 80.957031 113.148438 C 80.957031 111.8125 79.878906 110.742188 78.542969 110.742188 C 77.203125 110.742188 76.125 111.8125 76.125 113.148438 L 76.125 120.371094 C 76.125 121.703125 77.203125 122.777344 78.542969 122.777344 Z M 78.542969 121.574219 C 77.871094 121.574219 77.332031 121.039062 77.332031 120.371094 L 77.332031 113.148438 C 77.332031 112.480469 77.871094 111.945312 78.542969 111.945312 C 79.210938 111.945312 79.75 112.480469 79.75 113.148438 L 79.75 120.371094 C 79.75 121.039062 79.210938 121.574219 78.542969 121.574219 Z M 78.542969 121.574219 "/>
<path style=" stroke:none;fill-rule:nonzero;fill:rgb(0%,0%,0%);fill-opacity:1;" d="M 7.855469 28.40625 C 7.976562 28.890625 8.457031 30.09375 9.304688 30.09375 C 10.390625 30.09375 10.875 29.128906 10.875 27.925781 C 10.875 27.082031 10.5625 26.527344 10.269531 25.878906 C 9.960938 25.1875 9.5 24.574219 9.0625 23.953125 C 8.5 23.160156 7.25 21.667969 7.25 21.667969 C 7.25 21.667969 6 23.160156 5.4375 23.953125 C 5 24.574219 4.539062 25.1875 4.230469 25.878906 C 3.9375 26.527344 3.625 27.082031 3.625 27.925781 C 3.625 29.128906 4.109375 30.09375 5.195312 30.09375 C 6.042969 30.09375 6.523438 28.890625 6.644531 28.40625 C 6.765625 28.285156 6.765625 28.40625 6.765625 28.527344 C 6.644531 29.492188 6.644531 29.730469 6.523438 30.453125 C 6.402344 31.175781 6.042969 32.5 6.042969 32.5 C 6.644531 32.257812 7.855469 32.257812 8.457031 32.5 C 8.457031 32.5 8.097656 31.175781 7.976562 30.453125 C 7.855469 29.730469 7.855469 29.492188 7.734375 28.527344 C 7.734375 28.40625 7.734375 28.285156 7.855469 28.40625 Z M 7.855469 28.40625 "/>
<path style=" stroke:none;fill-rule:nonzero;fill:rgb(0%,0%,0%);fill-opacity:1;" d="M 80.355469 101.59375 C 80.476562 101.109375 80.957031 99.90625 81.804688 99.90625 C 82.890625 99.90625 83.375 100.871094 83.375 102.074219 C 83.375 102.917969 83.0625 103.472656 82.769531 104.121094 C 82.460938 104.8125 82 105.425781 81.5625 106.046875 C 81 106.839844 79.75 108.332031 79.75 108.332031 C 79.75 108.332031 78.5 106.839844 77.9375 106.046875 C 77.5 105.425781 77.039062 104.8125 76.730469 104.121094 C 76.4375 103.472656 76.125 102.917969 76.125 102.074219 C 76.125 100.871094 76.609375 99.90625 77.695312 99.90625 C 78.542969 99.90625 79.023438 101.109375 79.144531 101.59375 C 79.265625 101.714844 79.265625 101.59375 79.265625 101.472656 C 79.144531 100.507812 79.144531 100.269531 79.023438 99.546875 C 78.902344 98.824219 78.542969 97.5 78.542969 97.5 C 79.144531 97.742188 80.355469 97.742188 80.957031 97.5 C 80.957031 97.5 80.597656 98.824219 80.476562 99.546875 C 80.355469 100.269531 80.355469 100.507812 80.234375 101.472656 C 80.234375 101.59375 80.234375 101.714844 80.355469 101.59375 Z M 80.355469 101.59375 "/>
<path style=" stroke:none;fill-rule:nonzero;fill:rgb(0%,0%,0%);fill-opacity:1;" d="M 22.957031 24.316406 C 23.199219 25.277344 24.167969 27.683594 25.859375 27.683594 C 28.035156 27.683594 29 25.757812 29 23.351562 C 29 21.667969 28.375 20.554688 27.792969 19.257812 C 27.167969 17.878906 26.25 16.644531 25.375 15.40625 C 24.253906 13.820312 21.75 10.832031 21.75 10.832031 C 21.75 10.832031 19.246094 13.820312 18.125 15.40625 C 17.25 16.644531 16.332031 17.878906 15.707031 19.257812 C 15.125 20.554688 14.5 21.667969 14.5 23.351562 C 14.5 25.757812 15.464844 27.683594 17.640625 27.683594 C 19.332031 27.683594 20.300781 25.277344 20.542969 24.316406 C 20.785156 24.074219 20.785156 24.316406 20.785156 24.554688 C 20.542969 26.480469 20.542969 26.964844 20.300781 28.40625 C 20.058594 29.851562 19.332031 32.5 19.332031 32.5 C 20.542969 32.019531 22.957031 32.019531 24.167969 32.5 C 24.167969 32.5 23.441406 29.851562 23.199219 28.40625 C 22.957031 26.964844 22.957031 26.480469 22.714844 24.554688 C 22.714844 24.316406 22.714844 24.074219 22.957031 24.316406 Z M 22.957031 24.316406 "/>
<path style=" stroke:none;fill-rule:nonzero;fill:rgb(0%,0%,0%);fill-opacity:1;" d="M 66.457031 24.316406 C 66.699219 25.277344 67.667969 27.683594 69.359375 27.683594 C 71.535156 27.683594 72.5 25.757812 72.5 23.351562 C 72.5 21.667969 71.875 20.554688 71.292969 19.257812 C 70.667969 17.878906 69.75 16.644531 68.875 15.40625 C 67.753906 13.820312 65.25 10.832031 65.25 10.832031 C 65.25 10.832031 62.746094 13.820312 61.625 15.40625 C 60.75 16.644531 59.832031 17.878906 59.207031 19.257812 C 58.625 20.554688 58 21.667969 58 23.351562 C 58 25.757812 58.964844 27.683594 61.140625 27.683594 C 62.832031 27.683594 63.800781 25.277344 64.042969 24.316406 C 64.285156 24.074219 64.285156 24.316406 64.285156 24.554688 C 64.042969 26.480469 64.042969 26.964844 63.800781 28.40625 C 63.558594 29.851562 62.832031 32.5 62.832031 32.5 C 64.042969 32.019531 66.457031 32.019531 67.667969 32.5 C 67.667969 32.5 66.941406 29.851562 66.699219 28.40625 C 66.457031 26.964844 66.457031 26.480469 66.214844 24.554688 C 66.214844 24.316406 66.214844 24.074219 66.457031 24.316406 Z M 66.457031 24.316406 "/>
<path style=" stroke:none;fill-rule:nonzero;fill:rgb(0%,0%,0%);fill-opacity:1;" d="M 44.707031 38.757812 C 44.949219 39.722656 45.917969 42.128906 47.609375 42.128906 C 49.785156 42.128906 50.75 40.203125 50.75 37.796875 C 50.75 36.109375 50.125 35 49.542969 33.703125 C 48.917969 32.324219 48 31.089844 47.125 29.851562 C 46.003906 28.261719 43.5 25.277344 43.5 25.277344 C 43.5 25.277344 40.996094 28.261719 39.875 29.851562 C 39 31.089844 38.082031 32.324219 37.457031 33.703125 C 36.875 35 36.25 36.109375 36.25 37.796875 C 36.25 40.203125 37.214844 42.128906 39.390625 42.128906 C 41.082031 42.128906 42.050781 39.722656 42.292969 38.757812 C 42.535156 38.519531 42.535156 38.757812 42.535156 39 C 42.292969 40.925781 42.292969 41.40625 42.050781 42.851562 C 41.808594 44.296875 41.082031 46.945312 41.082031 46.945312 C 42.292969 46.464844 44.707031 46.464844 45.917969 46.945312 C 45.917969 46.945312 45.191406 44.296875 44.949219 42.851562 C 44.707031 41.40625 44.707031 40.925781 44.464844 39 C 44.464844 38.757812 44.464844 38.519531 44.707031 38.757812 Z M 44.707031 38.757812 "/>
<path style=" stroke:none;fill-rule:nonzero;fill:rgb(0%,0%,0%);fill-opacity:1;" d="M 22.957031 53.203125 C 23.199219 54.167969 24.167969 56.574219 25.859375 56.574219 C 28.035156 56.574219 29 54.648438 29 52.242188 C 29 50.554688 28.375 49.445312 27.792969 48.148438 C 27.167969 46.765625 26.25 45.535156 25.375 44.296875 C 24.253906 42.707031 21.75 39.722656 21.75 39.722656 C 21.75 39.722656 19.246094 42.707031 18.125 44.296875 C 17.25 45.535156 16.332031 46.765625 15.707031 48.148438 C 15.125 49.445312 14.5 50.554688 14.5 52.242188 C 14.5 54.648438 15.464844 56.574219 17.640625 56.574219 C 19.332031 56.574219 20.300781 54.167969 20.542969 53.203125 C 20.785156 52.964844 20.785156 53.203125 20.785156 53.445312 C 20.542969 55.371094 20.542969 55.851562 20.300781 57.296875 C 20.058594 58.742188 19.332031 61.390625 19.332031 61.390625 C 20.542969 60.90625 22.957031 60.90625 24.167969 61.390625 C 24.167969 61.390625 23.441406 58.742188 23.199219 57.296875 C 22.957031 55.851562 22.957031 55.371094 22.714844 53.445312 C 22.714844 53.203125 22.714844 52.964844 22.957031 53.203125 Z M 22.957031 53.203125 "/>
<path style=" stroke:none;fill-rule:nonzero;fill:rgb(0%,0%,0%);fill-opacity:1;" d="M 66.457031 53.203125 C 66.699219 54.167969 67.667969 56.574219 69.359375 56.574219 C 71.535156 56.574219 72.5 54.648438 72.5 52.242188 C 72.5 50.554688 71.875 49.445312 71.292969 48.148438 C 70.667969 46.765625 69.75 45.535156 68.875 44.296875 C 67.753906 42.707031 65.25 39.722656 65.25 39.722656 C 65.25 39.722656 62.746094 42.707031 61.625 44.296875 C 60.75 45.535156 59.832031 46.765625 59.207031 48.148438 C 58.625 49.445312 58 50.554688 58 52.242188 C 58 54.648438 58.964844 56.574219 61.140625 56.574219 C 62.832031 56.574219 63.800781 54.167969 64.042969 53.203125 C 64.285156 52.964844 64.285156 53.203125 64.285156 53.445312 C 64.042969 55.371094 64.042969 55.851562 63.800781 57.296875 C 63.558594 58.742188 62.832031 61.390625 62.832031 61.390625 C 64.042969 60.90625 66.457031 60.90625 67.667969 61.390625 C 67.667969 61.390625 66.941406 58.742188 66.699219 57.296875 C 66.457031 55.851562 66.457031 55.371094 66.214844 53.445312 C 66.214844 53.203125 66.214844 52.964844 66.457031 53.203125 Z M 66.457031 53.203125 "/>
<path style=" stroke:none;fill-rule:nonzero;fill:rgb(0%,0%,0%);fill-opacity:1;" d="M 22.957031 76.796875 C 23.199219 75.832031 24.167969 73.425781 25.859375 73.425781 C 28.035156 73.425781 29 75.351562 29 77.757812 C 29 79.445312 28.375 80.554688 27.792969 81.851562 C 27.167969 83.234375 26.25 84.464844 25.375 85.703125 C 24.253906 87.292969 21.75 90.277344 21.75 90.277344 C 21.75 90.277344 19.246094 87.292969 18.125 85.703125 C 17.25 84.464844 16.332031 83.234375 15.707031 81.851562 C 15.125 80.554688 14.5 79.445312 14.5 77.757812 C 14.5 75.351562 15.464844 73.425781 17.640625 73.425781 C 19.332031 73.425781 20.300781 75.832031 20.542969 76.796875 C 20.785156 77.035156 20.785156 76.796875 20.785156 76.554688 C 20.542969 74.628906 20.542969 74.148438 20.300781 72.703125 C 20.058594 71.257812 19.332031 68.609375 19.332031 68.609375 C 20.542969 69.09375 22.957031 69.09375 24.167969 68.609375 C 24.167969 68.609375 23.441406 71.257812 23.199219 72.703125 C 22.957031 74.148438 22.957031 74.628906 22.714844 76.554688 C 22.714844 76.796875 22.714844 77.035156 22.957031 76.796875 Z M 22.957031 76.796875 "/>
<path style=" stroke:none;fill-rule:nonzero;fill:rgb(0%,0%,0%);fill-opacity:1;" d="M 66.457031 76.796875 C 66.699219 75.832031 67.667969 73.425781 69.359375 73.425781 C 71.535156 73.425781 72.5 75.351562 72.5 77.757812 C 72.5 79.445312 71.875 80.554688 71.292969 81.851562 C 70.667969 83.234375 69.75 84.464844 68.875 85.703125 C 67.753906 87.292969 65.25 90.277344 65.25 90.277344 C 65.25 90.277344 62.746094 87.292969 61.625 85.703125 C 60.75 84.464844 59.832031 83.234375 59.207031 81.851562 C 58.625 80.554688 58 79.445312 58 77.757812 C 58 75.351562 58.964844 73.425781 61.140625 73.425781 C 62.832031 73.425781 63.800781 75.832031 64.042969 76.796875 C 64.285156 77.035156 64.285156 76.796875 64.285156 76.554688 C 64.042969 74.628906 64.042969 74.148438 63.800781 72.703125 C 63.558594 71.257812 62.832031 68.609375 62.832031 68.609375 C 64.042969 69.09375 66.457031 69.09375 67.667969 68.609375 C 67.667969 68.609375 66.941406 71.257812 66.699219 72.703125 C 66.457031 74.148438 66.457031 74.628906 66.214844 76.554688 C 66.214844 76.796875 66.214844 77.035156 66.457031 76.796875 Z M 66.457031 76.796875 "/>
<path style=" stroke:none;fill-rule:nonzero;fill:rgb(0%,0%,0%);fill-opacity:1;" d="M 44.707031 91.242188 C 44.949219 90.277344 45.917969 87.871094 47.609375 87.871094 C 49.785156 87.871094 50.75 89.796875 50.75 92.203125 C 50.75 93.890625 50.125 95 49.542969 96.296875 C 48.917969 97.675781 48 98.910156 47.125 100.148438 C 46.003906 101.738281 43.5 104.722656 43.5 104.722656 C 43.5 104.722656 40.996094 101.738281 39.875 100.148438 C 39 98.910156 38.082031 97.675781 37.457031 96.296875 C 36.875 95 36.25 93.890625 36.25 92.203125 C 36.25 89.796875 37.214844 87.871094 39.390625 87.871094 C 41.082031 87.871094 42.050781 90.277344 42.292969 91.242188 C 42.535156 91.480469 42.535156 91.242188 42.535156 91 C 42.292969 89.074219 42.292969 88.59375 42.050781 87.148438 C 41.808594 85.703125 41.082031 83.054688 41.082031 83.054688 C 42.292969 83.535156 44.707031 83.535156 45.917969 83.054688 C 45.917969 83.054688 45.191406 85.703125 44.949219 87.148438 C 44.707031 88.59375 44.707031 89.074219 44.464844 91 C 44.464844 91.242188 44.464844 91.480469 44.707031 91.242188 Z M 44.707031 91.242188 "/>
<path style=" stroke:none;fill-rule:nonzero;fill:rgb(0%,0%,0%);fill-opacity:1;" d="M 22.957031 105.683594 C 23.199219 104.722656 24.167969 102.316406 25.859375 102.316406 C 28.035156 102.316406 29 104.242188 29 106.648438 C 29 108.332031 28.375 109.445312 27.792969 110.742188 C 27.167969 112.121094 26.25 113.355469 25.375 114.59375 C 24.253906 116.179688 21.75 119.167969 21.75 119.167969 C 21.75 119.167969 19.246094 116.179688 18.125 114.59375 C 17.25 113.355469 16.332031 112.121094 15.707031 110.742188 C 15.125 109.445312 14.5 108.332031 14.5 106.648438 C 14.5 104.242188 15.464844 102.316406 17.640625 102.316406 C 19.332031 102.316406 20.300781 104.722656 20.542969 105.683594 C 20.785156 105.925781 20.785156 105.683594 20.785156 105.445312 C 20.542969 103.519531 20.542969 103.035156 20.300781 101.59375 C 20.058594 100.148438 19.332031 97.5 19.332031 97.5 C 20.542969 97.980469 22.957031 97.980469 24.167969 97.5 C 24.167969 97.5 23.441406 100.148438 23.199219 101.59375 C 22.957031 103.035156 22.957031 103.519531 22.714844 105.445312 C 22.714844 105.683594 22.714844 105.925781 22.957031 105.683594 Z M 22.957031 105.683594 "/>
<path style=" stroke:none;fill-rule:nonzero;fill:rgb(0%,0%,0%);fill-opacity:1;" d="M 66.457031 105.683594 C 66.699219 104.722656 67.667969 102.316406 69.359375 102.316406 C 71.535156 102.316406 72.5 104.242188 72.5 106.648438 C 72.5 108.332031 71.875 109.445312 71.292969 110.742188 C 70.667969 112.121094 69.75 113.355469 68.875 114.59375 C 67.753906 116.179688 65.25 119.167969 65.25 119.167969 C 65.25 119.167969 62.746094 116.179688 61.625 114.59375 C 60.75 113.355469 59.832031 112.121094 59.207031 110.742188 C 58.625 109.445312 58 108.332031 58 106.648438 C 58 104.242188 58.964844 102.316406 61.140625 102.316406 C 62.832031 102.316406 63.800781 104.722656 64.042969 105.683594 C 64.285156 105.925781 64.285156 105.683594 64.285156 105.445312 C 64.042969 103.519531 64.042969 103.035156 63.800781 101.59375 C 63.558594 100.148438 62.832031 97.5 62.832031 97.5 C 64.042969 97.980469 66.457031 97.980469 67.667969 97.5 C 67.667969 97.5 66.941406 100.148438 66.699219 101.59375 C 66.457031 103.035156 66.457031 103.519531 66.214844 105.445312 C 66.214844 105.683594 66.214844 105.925781 66.457031 105.683594 Z M 66.457031 105.683594 "/>
</g>
</svg>
