<?xml version="1.0" encoding="UTF-8"?>
<svg xmlns="http://www.w3.org/2000/svg" xmlns:xlink="http://www.w3.org/1999/xlink" width="90px" height="130px" viewBox="0 0 90 130" version="1.1">
<g id="surface1">
<path style="fill-rule:nonzero;fill:rgb(100%,100%,100%);fill-opacity:1;stroke-width:1;stroke-linecap:butt;stroke-linejoin:miter;stroke:rgb(0%,0%,0%);stroke-opacity:1;stroke-miterlimit:4;" d="M 30.4375 512.865187 L 329.5625 512.865187 C 346.09375 512.865187 359.5 526.267832 359.5 542.802086 L 359.5 1021.922279 C 359.5 1038.456534 346.09375 1051.859178 329.5625 1051.859178 L 30.4375 1051.859178 C 13.90625 1051.859178 0.5 1038.456534 0.5 1021.922279 L 0.5 542.802086 C 0.5 526.267832 13.90625 512.865187 30.4375 512.865187 Z M 30.4375 512.865187 " transform="matrix(0.25,0,0,0.240741,0,-123.346451)"/>
<path style=" stroke:none;fill-rule:nonzero;fill:rgb(0%,0%,0%);fill-opacity:1;" d="M 5 7.222656 L 5 12.035156 L 7.5 12.035156 C 8.191406 12.035156 8.75 12.574219 8.75 13.242188 L 8.75 16.851562 C 8.75 17.519531 8.191406 18.054688 7.5 18.054688 C 6.808594 18.054688 6.25 17.519531 6.25 16.851562 L 6.25 15.648438 L 5 15.648438 L 5 16.851562 C 5 18.183594 6.113281 19.257812 7.5 19.257812 C 8.886719 19.257812 10 18.183594 10 16.851562 L 10 13.242188 C 10 11.90625 8.886719 10.832031 7.5 10.832031 L 6.25 10.832031 L 6.25 8.425781 L 10 8.425781 L 10 7.222656 Z M 5 7.222656 "/>
<path style=" stroke:none;fill-rule:nonzero;fill:rgb(0%,0%,0%);fill-opacity:1;" d="M 85 122.777344 L 85 117.964844 L 82.5 117.964844 C 81.808594 117.964844 81.25 117.425781 81.25 116.757812 L 81.25 113.148438 C 81.25 112.480469 81.808594 111.945312 82.5 111.945312 C 83.191406 111.945312 83.75 112.480469 83.75 113.148438 L 83.75 114.351562 L 85 114.351562 L 85 113.148438 C 85 111.8125 83.886719 110.742188 82.5 110.742188 C 81.113281 110.742188 80 111.8125 80 113.148438 L 80 116.757812 C 80 118.09375 81.113281 119.167969 82.5 119.167969 L 83.75 119.167969 L 83.75 121.574219 L 80 121.574219 L 80 122.777344 Z M 85 122.777344 "/>
<path style=" stroke:none;fill-rule:nonzero;fill:rgb(0%,0%,0%);fill-opacity:1;" d="M 23.753906 24.3125 C 24 25.273438 25 27.6875 26.746094 27.6875 C 28.996094 27.6875 29.996094 25.761719 29.996094 23.355469 C 29.996094 21.667969 29.359375 20.558594 28.746094 19.261719 C 28.101562 17.878906 27.152344 16.640625 26.25 15.40625 C 25.089844 13.820312 22.503906 10.832031 22.503906 10.832031 C 22.503906 10.832031 19.90625 13.820312 18.746094 15.40625 C 17.84375 16.640625 16.894531 17.878906 16.25 19.261719 C 15.648438 20.558594 15 21.667969 15 23.355469 C 15 25.761719 16 27.6875 18.25 27.6875 C 19.996094 27.6875 20.996094 25.273438 21.253906 24.3125 C 21.503906 24.070312 21.503906 24.3125 21.503906 24.558594 C 21.253906 26.476562 21.253906 26.964844 20.996094 28.40625 C 20.75 29.855469 19.996094 32.5 19.996094 32.5 C 21.253906 32.023438 23.753906 32.023438 25 32.5 C 25 32.5 24.246094 29.855469 24 28.40625 C 23.753906 26.964844 23.753906 26.476562 23.503906 24.558594 C 23.503906 24.3125 23.503906 24.070312 23.753906 24.3125 Z M 23.753906 24.3125 "/>
<path style=" stroke:none;fill-rule:nonzero;fill:rgb(0%,0%,0%);fill-opacity:1;" d="M 68.753906 24.3125 C 69 25.273438 70 27.6875 71.746094 27.6875 C 73.996094 27.6875 74.996094 25.761719 74.996094 23.355469 C 74.996094 21.667969 74.359375 20.558594 73.746094 19.261719 C 73.101562 17.878906 72.152344 16.640625 71.25 15.40625 C 70.089844 13.820312 67.503906 10.832031 67.503906 10.832031 C 67.503906 10.832031 64.90625 13.820312 63.746094 15.40625 C 62.84375 16.640625 61.894531 17.878906 61.25 19.261719 C 60.648438 20.558594 60 21.667969 60 23.355469 C 60 25.761719 61 27.6875 63.25 27.6875 C 64.996094 27.6875 65.996094 25.273438 66.253906 24.3125 C 66.503906 24.070312 66.503906 24.3125 66.503906 24.558594 C 66.253906 26.476562 66.253906 26.964844 65.996094 28.40625 C 65.75 29.855469 64.996094 32.5 64.996094 32.5 C 66.253906 32.023438 68.753906 32.023438 70 32.5 C 70 32.5 69.246094 29.855469 69 28.40625 C 68.753906 26.964844 68.753906 26.476562 68.503906 24.558594 C 68.503906 24.3125 68.503906 24.070312 68.753906 24.3125 Z M 68.753906 24.3125 "/>
<path style=" stroke:none;fill-rule:nonzero;fill:rgb(0%,0%,0%);fill-opacity:1;" d="M 46.253906 67.644531 C 46.5 68.609375 47.5 71.023438 49.246094 71.023438 C 51.496094 71.023438 52.496094 69.09375 52.496094 66.6875 C 52.496094 65 51.859375 63.890625 51.246094 62.59375 C 50.601562 61.210938 49.652344 59.976562 48.75 58.738281 C 47.589844 57.152344 45.003906 54.167969 45.003906 54.167969 C 45.003906 54.167969 42.40625 57.152344 41.246094 58.738281 C 40.34375 59.976562 39.394531 61.210938 38.75 62.59375 C 38.148438 63.890625 37.5 65 37.5 66.6875 C 37.5 69.09375 38.5 71.023438 40.75 71.023438 C 42.496094 71.023438 43.496094 68.609375 43.753906 67.644531 C 44.003906 67.40625 44.003906 67.644531 44.003906 67.890625 C 43.753906 69.8125 43.753906 70.296875 43.496094 71.738281 C 43.25 73.1875 42.496094 75.832031 42.496094 75.832031 C 43.753906 75.355469 46.253906 75.355469 47.5 75.832031 C 47.5 75.832031 46.746094 73.1875 46.5 71.738281 C 46.253906 70.296875 46.253906 69.8125 46.003906 67.890625 C 46.003906 67.644531 46.003906 67.40625 46.253906 67.644531 Z M 46.253906 67.644531 "/>
<path style=" stroke:none;fill-rule:nonzero;fill:rgb(0%,0%,0%);fill-opacity:1;" d="M 23.753906 105.6875 C 24 104.726562 25 102.3125 26.746094 102.3125 C 28.996094 102.3125 29.996094 104.238281 29.996094 106.644531 C 29.996094 108.332031 29.359375 109.441406 28.746094 110.738281 C 28.101562 112.121094 27.152344 113.359375 26.25 114.59375 C 25.089844 116.179688 22.503906 119.167969 22.503906 119.167969 C 22.503906 119.167969 19.90625 116.179688 18.746094 114.59375 C 17.84375 113.359375 16.894531 112.121094 16.25 110.738281 C 15.648438 109.441406 15 108.332031 15 106.644531 C 15 104.238281 16 102.3125 18.25 102.3125 C 19.996094 102.3125 20.996094 104.726562 21.253906 105.6875 C 21.503906 105.929688 21.503906 105.6875 21.503906 105.441406 C 21.253906 103.523438 21.253906 103.035156 20.996094 101.59375 C 20.75 100.144531 19.996094 97.5 19.996094 97.5 C 21.253906 97.976562 23.753906 97.976562 25 97.5 C 25 97.5 24.246094 100.144531 24 101.59375 C 23.753906 103.035156 23.753906 103.523438 23.503906 105.441406 C 23.503906 105.6875 23.503906 105.929688 23.753906 105.6875 Z M 23.753906 105.6875 "/>
<path style=" stroke:none;fill-rule:nonzero;fill:rgb(0%,0%,0%);fill-opacity:1;" d="M 68.753906 105.6875 C 69 104.726562 70 102.3125 71.746094 102.3125 C 73.996094 102.3125 74.996094 104.238281 74.996094 106.644531 C 74.996094 108.332031 74.359375 109.441406 73.746094 110.738281 C 73.101562 112.121094 72.152344 113.359375 71.25 114.59375 C 70.089844 116.179688 67.503906 119.167969 67.503906 119.167969 C 67.503906 119.167969 64.90625 116.179688 63.746094 114.59375 C 62.84375 113.359375 61.894531 112.121094 61.25 110.738281 C 60.648438 109.441406 60 108.332031 60 106.644531 C 60 104.238281 61 102.3125 63.25 102.3125 C 64.996094 102.3125 65.996094 104.726562 66.253906 105.6875 C 66.503906 105.929688 66.503906 105.6875 66.503906 105.441406 C 66.253906 103.523438 66.253906 103.035156 65.996094 101.59375 C 65.75 100.144531 64.996094 97.5 64.996094 97.5 C 66.253906 97.976562 68.753906 97.976562 70 97.5 C 70 97.5 69.246094 100.144531 69 101.59375 C 68.753906 103.035156 68.753906 103.523438 68.503906 105.441406 C 68.503906 105.6875 68.503906 105.929688 68.753906 105.6875 Z M 68.753906 105.6875 "/>
<path style=" stroke:none;fill-rule:nonzero;fill:rgb(0%,0%,0%);fill-opacity:1;" d="M 8.125 28.40625 C 8.25 28.890625 8.75 30.09375 9.625 30.09375 C 10.75 30.09375 11.25 29.128906 11.25 27.925781 C 11.25 27.082031 10.925781 26.527344 10.625 25.878906 C 10.304688 25.1875 9.828125 24.574219 9.375 23.953125 C 8.792969 23.160156 7.5 21.667969 7.5 21.667969 C 7.5 21.667969 6.207031 23.160156 5.625 23.953125 C 5.171875 24.574219 4.695312 25.1875 4.375 25.878906 C 4.074219 26.527344 3.75 27.082031 3.75 27.925781 C 3.75 29.128906 4.25 30.09375 5.375 30.09375 C 6.25 30.09375 6.75 28.890625 6.875 28.40625 C 7 28.285156 7 28.40625 7 28.527344 C 6.875 29.492188 6.875 29.730469 6.75 30.453125 C 6.625 31.175781 6.25 32.5 6.25 32.5 C 6.875 32.257812 8.125 32.257812 8.75 32.5 C 8.75 32.5 8.375 31.175781 8.25 30.453125 C 8.125 29.730469 8.125 29.492188 8 28.527344 C 8 28.40625 8 28.285156 8.125 28.40625 Z M 8.125 28.40625 "/>
<path style=" stroke:none;fill-rule:nonzero;fill:rgb(0%,0%,0%);fill-opacity:1;" d="M 83.125 101.59375 C 83.25 101.109375 83.75 99.90625 84.625 99.90625 C 85.75 99.90625 86.25 100.871094 86.25 102.074219 C 86.25 102.917969 85.925781 103.472656 85.625 104.121094 C 85.304688 104.8125 84.828125 105.425781 84.375 106.046875 C 83.792969 106.839844 82.5 108.332031 82.5 108.332031 C 82.5 108.332031 81.207031 106.839844 80.625 106.046875 C 80.171875 105.425781 79.695312 104.8125 79.375 104.121094 C 79.074219 103.472656 78.75 102.917969 78.75 102.074219 C 78.75 100.871094 79.25 99.90625 80.375 99.90625 C 81.25 99.90625 81.75 101.109375 81.875 101.59375 C 82 101.714844 82 101.59375 82 101.472656 C 81.875 100.507812 81.875 100.269531 81.75 99.546875 C 81.625 98.824219 81.25 97.5 81.25 97.5 C 81.875 97.742188 83.125 97.742188 83.75 97.5 C 83.75 97.5 83.375 98.824219 83.25 99.546875 C 83.125 100.269531 83.125 100.507812 83 101.472656 C 83 101.59375 83 101.714844 83.125 101.59375 Z M 83.125 101.59375 "/>
</g>
</svg>
