<?xml version="1.0" encoding="UTF-8"?>
<svg xmlns="http://www.w3.org/2000/svg" xmlns:xlink="http://www.w3.org/1999/xlink" width="87pt" height="130pt" viewBox="0 0 87 130" version="1.1">
<g id="surface1">
<path style="fill-rule:nonzero;fill:rgb(100%,100%,100%);fill-opacity:1;stroke-width:1;stroke-linecap:butt;stroke-linejoin:miter;stroke:rgb(0%,0%,0%);stroke-opacity:1;stroke-miterlimit:4;" d="M 30.436422 512.861779 L 329.563578 512.861779 C 346.099138 512.861779 359.498922 526.264423 359.498922 542.798678 L 359.498922 1021.91887 C 359.498922 1038.453125 346.099138 1051.855769 329.563578 1051.855769 L 30.436422 1051.855769 C 13.900862 1051.855769 0.501078 1038.453125 0.501078 1021.91887 L 0.501078 542.798678 C 0.501078 526.264423 13.900862 512.861779 30.436422 512.861779 Z M 30.436422 512.861779 " transform="matrix(0.241667,0,0,0.240741,0,-123.349537)"/>
<path style=" stroke:none;fill-rule:nonzero;fill:rgb(0%,0%,0%);fill-opacity:1;" d="M 6.644531 7.21875 L 4.472656 19.257812 L 5.679688 19.257812 L 6.246094 16.125 L 8.253906 16.125 L 8.820312 19.257812 L 10.027344 19.257812 L 7.855469 7.21875 Z M 7.25 10.566406 L 8.035156 14.921875 L 6.464844 14.921875 Z M 7.25 10.566406 "/>
<path style=" stroke:none;fill-rule:nonzero;fill:rgb(0%,0%,0%);fill-opacity:1;" d="M 79.144531 122.773438 L 76.972656 110.738281 L 78.179688 110.738281 L 78.746094 113.867188 L 80.753906 113.867188 L 81.320312 110.738281 L 82.527344 110.738281 L 80.355469 122.773438 Z M 79.75 119.425781 L 80.535156 115.070312 L 78.964844 115.070312 Z M 79.75 119.425781 "/>
<path style=" stroke:none;fill-rule:nonzero;fill:rgb(0%,0%,0%);fill-opacity:1;" d="M 44.707031 67.644531 C 44.949219 68.609375 45.917969 71.015625 47.609375 71.015625 C 49.785156 71.015625 50.75 69.089844 50.75 66.683594 C 50.75 64.996094 50.125 63.886719 49.542969 62.589844 C 48.917969 61.207031 48 59.976562 47.125 58.738281 C 46.003906 57.148438 43.5 54.164062 43.5 54.164062 C 43.5 54.164062 40.996094 57.148438 39.875 58.738281 C 39 59.976562 38.082031 61.207031 37.457031 62.589844 C 36.875 63.886719 36.25 64.996094 36.25 66.683594 C 36.25 69.089844 37.214844 71.015625 39.390625 71.015625 C 41.082031 71.015625 42.050781 68.609375 42.292969 67.644531 C 42.535156 67.40625 42.535156 67.644531 42.535156 67.886719 C 42.292969 69.8125 42.292969 70.292969 42.050781 71.738281 C 41.808594 73.183594 41.082031 75.832031 41.082031 75.832031 C 42.292969 75.347656 44.707031 75.347656 45.917969 75.832031 C 45.917969 75.832031 45.191406 73.183594 44.949219 71.738281 C 44.707031 70.292969 44.707031 69.8125 44.464844 67.886719 C 44.464844 67.644531 44.464844 67.40625 44.707031 67.644531 Z M 44.707031 67.644531 "/>
<path style=" stroke:none;fill-rule:nonzero;fill:rgb(0%,0%,0%);fill-opacity:1;" d="M 7.855469 28.40625 C 7.976562 28.886719 8.457031 30.089844 9.304688 30.089844 C 10.390625 30.089844 10.875 29.125 10.875 27.921875 C 10.875 27.082031 10.5625 26.523438 10.269531 25.875 C 9.960938 25.1875 9.5 24.570312 9.0625 23.949219 C 8.5 23.15625 7.25 21.664062 7.25 21.664062 C 7.25 21.664062 6 23.15625 5.4375 23.949219 C 5 24.570312 4.539062 25.1875 4.230469 25.875 C 3.9375 26.523438 3.625 27.082031 3.625 27.921875 C 3.625 29.125 4.109375 30.089844 5.195312 30.089844 C 6.042969 30.089844 6.523438 28.886719 6.644531 28.40625 C 6.765625 28.285156 6.765625 28.40625 6.765625 28.523438 C 6.644531 29.488281 6.644531 29.726562 6.523438 30.449219 C 6.402344 31.171875 6.042969 32.496094 6.042969 32.496094 C 6.644531 32.257812 7.855469 32.257812 8.457031 32.496094 C 8.457031 32.496094 8.097656 31.171875 7.976562 30.449219 C 7.855469 29.726562 7.855469 29.488281 7.734375 28.523438 C 7.734375 28.40625 7.734375 28.285156 7.855469 28.40625 Z M 7.855469 28.40625 "/>
<path style=" stroke:none;fill-rule:nonzero;fill:rgb(0%,0%,0%);fill-opacity:1;" d="M 80.355469 101.589844 C 80.476562 101.109375 80.957031 99.90625 81.804688 99.90625 C 82.890625 99.90625 83.375 100.867188 83.375 102.070312 C 83.375 102.914062 83.0625 103.46875 82.769531 104.117188 C 82.460938 104.808594 82 105.425781 81.5625 106.042969 C 81 106.835938 79.75 108.332031 79.75 108.332031 C 79.75 108.332031 78.5 106.835938 77.9375 106.042969 C 77.5 105.425781 77.039062 104.808594 76.730469 104.117188 C 76.4375 103.46875 76.125 102.914062 76.125 102.070312 C 76.125 100.867188 76.609375 99.90625 77.695312 99.90625 C 78.542969 99.90625 79.023438 101.109375 79.144531 101.589844 C 79.265625 101.710938 79.265625 101.589844 79.265625 101.46875 C 79.144531 100.507812 79.144531 100.265625 79.023438 99.542969 C 78.902344 98.820312 78.542969 97.496094 78.542969 97.496094 C 79.144531 97.738281 80.355469 97.738281 80.957031 97.496094 C 80.957031 97.496094 80.597656 98.820312 80.476562 99.542969 C 80.355469 100.265625 80.355469 100.507812 80.234375 101.46875 C 80.234375 101.589844 80.234375 101.710938 80.355469 101.589844 Z M 80.355469 101.589844 "/>
</g>
</svg>
