<?xml version="1.0" encoding="UTF-8" standalone="no"?>
<!-- Created with Inkscape (http://www.inkscape.org/) -->

<svg
   xmlns:dc="http://purl.org/dc/elements/1.1/"
   xmlns:cc="http://creativecommons.org/ns#"
   xmlns:rdf="http://www.w3.org/1999/02/22-rdf-syntax-ns#"
   xmlns:svg="http://www.w3.org/2000/svg"
   xmlns="http://www.w3.org/2000/svg"
   xmlns:xlink="http://www.w3.org/1999/xlink"
   xmlns:sodipodi="http://sodipodi.sourceforge.net/DTD/sodipodi-0.dtd"
   xmlns:inkscape="http://www.inkscape.org/namespaces/inkscape"
   width="294.04398"
   height="300"
   id="svg3964"
   version="1.1"
   inkscape:version="0.48.4 r9939"
   sodipodi:docname="Hearts Symbol by Merlin2525.svg">
  <title
     id="title4127">Hearts Symbol by Merlin2525.svg</title>
  <defs
     id="defs3966">
    <filter
       id="filter6045-5"
       inkscape:label="Combined lighting"
       inkscape:menu="Bevels"
       inkscape:menu-tooltip="Basic specular bevel to use for building textures"
       color-interpolation-filters="sRGB">
      <feGaussianBlur
         id="feGaussianBlur6047-7"
         stdDeviation="6"
         in="SourceGraphic"
         result="result0" />
      <feDiffuseLighting
         id="feDiffuseLighting6049-3"
         lighting-color="#ffffff"
         diffuseConstant="1"
         surfaceScale="4"
         result="result5">
        <feDistantLight
           id="feDistantLight6051-2"
           elevation="45"
           azimuth="235" />
      </feDiffuseLighting>
      <feComposite
         k4="0"
         k3="0"
         k2="0"
         id="feComposite6053-1"
         in2="SourceGraphic"
         k1="1.4"
         in="result5"
         result="fbSourceGraphic"
         operator="arithmetic" />
      <feGaussianBlur
         id="feGaussianBlur6055-1"
         result="result0"
         in="fbSourceGraphic"
         stdDeviation="6" />
      <feSpecularLighting
         id="feSpecularLighting6057-5"
         specularExponent="25"
         specularConstant="1"
         surfaceScale="4"
         lighting-color="#ffffff"
         result="result1"
         in="result0">
        <feDistantLight
           id="feDistantLight6059-9"
           azimuth="235"
           elevation="45" />
      </feSpecularLighting>
      <feComposite
         k4="0"
         k1="0"
         id="feComposite6061-3"
         in2="result1"
         k3="1"
         k2="1"
         operator="arithmetic"
         result="result4"
         in="fbSourceGraphic" />
      <feComposite
         id="feComposite6063-0"
         in2="SourceGraphic"
         operator="in"
         result="result2"
         in="result4" />
    </filter>
    <filter
       id="filter6045-5-4"
       inkscape:label="Combined lighting"
       inkscape:menu="Bevels"
       inkscape:menu-tooltip="Basic specular bevel to use for building textures"
       color-interpolation-filters="sRGB">
      <feGaussianBlur
         id="feGaussianBlur6047-7-9"
         stdDeviation="6"
         in="SourceGraphic"
         result="result0" />
      <feDiffuseLighting
         id="feDiffuseLighting6049-3-0"
         lighting-color="#ffffff"
         diffuseConstant="1"
         surfaceScale="4"
         result="result5">
        <feDistantLight
           id="feDistantLight6051-2-0"
           elevation="45"
           azimuth="235" />
      </feDiffuseLighting>
      <feComposite
         k4="0"
         k3="0"
         k2="0"
         id="feComposite6053-1-2"
         in2="SourceGraphic"
         k1="1.4"
         in="result5"
         result="fbSourceGraphic"
         operator="arithmetic" />
      <feGaussianBlur
         id="feGaussianBlur6055-1-9"
         result="result0"
         in="fbSourceGraphic"
         stdDeviation="6" />
      <feSpecularLighting
         id="feSpecularLighting6057-5-1"
         specularExponent="25"
         specularConstant="1"
         surfaceScale="4"
         lighting-color="#ffffff"
         result="result1"
         in="result0">
        <feDistantLight
           id="feDistantLight6059-9-1"
           azimuth="235"
           elevation="45" />
      </feSpecularLighting>
      <feComposite
         k4="0"
         k1="0"
         id="feComposite6061-3-9"
         in2="result1"
         k3="1"
         k2="1"
         operator="arithmetic"
         result="result4"
         in="fbSourceGraphic" />
      <feComposite
         id="feComposite6063-0-6"
         in2="SourceGraphic"
         operator="in"
         result="result2"
         in="result4" />
    </filter>
    <radialGradient
       inkscape:collect="always"
       xlink:href="#linearGradient5647"
       id="radialGradient4150"
       gradientUnits="userSpaceOnUse"
       gradientTransform="matrix(1,0,0,1.045597,728.65164,-55.86821)"
       cx="-973.59467"
       cy="224.42577"
       fx="-973.59467"
       fy="224.42577"
       r="98.375809" />
    <linearGradient
       inkscape:collect="always"
       id="linearGradient5647">
      <stop
         style="stop-color:#eeeeee;stop-opacity:1;"
         offset="0"
         id="stop5649" />
      <stop
         style="stop-color:#eeeeee;stop-opacity:0;"
         offset="1"
         id="stop5651" />
    </linearGradient>
    <filter
       id="filter6045-5-3"
       inkscape:label="Combined lighting"
       inkscape:menu="Bevels"
       inkscape:menu-tooltip="Basic specular bevel to use for building textures"
       color-interpolation-filters="sRGB">
      <feGaussianBlur
         id="feGaussianBlur6047-7-94"
         stdDeviation="6"
         in="SourceGraphic"
         result="result0" />
      <feDiffuseLighting
         id="feDiffuseLighting6049-3-9"
         lighting-color="#ffffff"
         diffuseConstant="1"
         surfaceScale="4"
         result="result5">
        <feDistantLight
           id="feDistantLight6051-2-09"
           elevation="45"
           azimuth="235" />
      </feDiffuseLighting>
      <feComposite
         k4="0"
         k3="0"
         k2="0"
         id="feComposite6053-1-4"
         in2="SourceGraphic"
         k1="1.4"
         in="result5"
         result="fbSourceGraphic"
         operator="arithmetic" />
      <feGaussianBlur
         id="feGaussianBlur6055-1-5"
         result="result0"
         in="fbSourceGraphic"
         stdDeviation="6" />
      <feSpecularLighting
         id="feSpecularLighting6057-5-4"
         specularExponent="25"
         specularConstant="1"
         surfaceScale="4"
         lighting-color="#ffffff"
         result="result1"
         in="result0">
        <feDistantLight
           id="feDistantLight6059-9-15"
           azimuth="235"
           elevation="45" />
      </feSpecularLighting>
      <feComposite
         k4="0"
         k1="0"
         id="feComposite6061-3-0"
         in2="result1"
         k3="1"
         k2="1"
         operator="arithmetic"
         result="result4"
         in="fbSourceGraphic" />
      <feComposite
         id="feComposite6063-0-3"
         in2="SourceGraphic"
         operator="in"
         result="result2"
         in="result4" />
    </filter>
    <radialGradient
       inkscape:collect="always"
       xlink:href="#linearGradient4283-96-2"
       id="radialGradient8243"
       gradientUnits="userSpaceOnUse"
       gradientTransform="matrix(-1.0472773,-0.14510766,0.14729322,-1.0632327,-188.75369,-267.25749)"
       cx="-510.36285"
       cy="-657.69263"
       fx="-510.36285"
       fy="-657.69263"
       r="402.55728" />
    <linearGradient
       id="linearGradient4283-96-2">
      <stop
         style="stop-color:#eeeeee;stop-opacity:1"
         offset="0"
         id="stop4285-9-8" />
      <stop
         id="stop4287-2-1"
         offset="0.25445169"
         style="stop-color:#980101;stop-opacity:1" />
      <stop
         style="stop-color:#000000;stop-opacity:1"
         offset="1"
         id="stop4289-59-8" />
    </linearGradient>
    <radialGradient
       inkscape:collect="always"
       xlink:href="#linearGradient4275-9-3"
       id="radialGradient8245"
       gradientUnits="userSpaceOnUse"
       gradientTransform="matrix(-0.27078304,0.66333114,-1.227965,-0.50130661,-441.44371,153.19103)"
       cx="76.245079"
       cy="-465.71347"
       fx="76.245079"
       fy="-465.71347"
       r="402.55728" />
    <linearGradient
       id="linearGradient4275-9-3">
      <stop
         id="stop4277-7-6"
         offset="0"
         style="stop-color:#eeeeee;stop-opacity:1" />
      <stop
         style="stop-color:#d40000;stop-opacity:1"
         offset="0.31087705"
         id="stop4281-6-1" />
      <stop
         id="stop4279-1-9"
         offset="1"
         style="stop-color:#000000;stop-opacity:1" />
    </linearGradient>
    <radialGradient
       inkscape:collect="always"
       xlink:href="#linearGradient4153-8-7"
       id="radialGradient8247"
       gradientUnits="userSpaceOnUse"
       gradientTransform="matrix(0.14324777,0.73259351,-0.58577899,0.11453244,122.6577,364.97818)"
       cx="167.18025"
       cy="-7.09268"
       fx="167.18025"
       fy="-7.09268"
       r="401.41843" />
    <linearGradient
       inkscape:collect="always"
       id="linearGradient4153-8-7">
      <stop
         style="stop-color:#000000;stop-opacity:1;"
         offset="0"
         id="stop4155-72-9" />
      <stop
         style="stop-color:#000000;stop-opacity:0;"
         offset="1"
         id="stop4157-1-9" />
    </linearGradient>
    <radialGradient
       inkscape:collect="always"
       xlink:href="#linearGradient3824-0-5"
       id="radialGradient8249"
       gradientUnits="userSpaceOnUse"
       gradientTransform="matrix(0.72399458,-0.08146014,0.09834165,0.87403162,-145.5718,317.84224)"
       cx="447.73004"
       cy="331.09695"
       fx="447.73004"
       fy="331.09695"
       r="329.51562" />
    <linearGradient
       id="linearGradient3824-0-5">
      <stop
         style="stop-color:#ff3b3b;stop-opacity:1;"
         offset="0"
         id="stop3826-9-9" />
      <stop
         id="stop3832-9-6"
         offset="0.5"
         style="stop-color:#980101;stop-opacity:1" />
      <stop
         style="stop-color:#000000;stop-opacity:1"
         offset="1"
         id="stop3828-8-8" />
    </linearGradient>
    <radialGradient
       inkscape:collect="always"
       xlink:href="#linearGradient3816-1-9"
       id="radialGradient8251"
       gradientUnits="userSpaceOnUse"
       gradientTransform="matrix(0.07520063,0.69658825,-0.92236571,0.09957457,401.87106,57.20419)"
       cx="796.98651"
       cy="288.45456"
       fx="796.98651"
       fy="288.45456"
       r="329.51562" />
    <linearGradient
       id="linearGradient3816-1-9">
      <stop
         id="stop3818-1-1"
         offset="0"
         style="stop-color:#eeeeee;stop-opacity:1" />
      <stop
         style="stop-color:#980101;stop-opacity:1"
         offset="0.47938672"
         id="stop3820-3-1" />
      <stop
         id="stop3822-6-3"
         offset="1"
         style="stop-color:#000000;stop-opacity:1" />
    </linearGradient>
    <radialGradient
       inkscape:collect="always"
       xlink:href="#linearGradient3816-1-9"
       id="radialGradient8253"
       gradientUnits="userSpaceOnUse"
       gradientTransform="matrix(-0.02839203,0.55971394,-0.51623139,-0.02618634,394.21041,214.10738)"
       cx="812.60236"
       cy="168.80817"
       fx="812.60236"
       fy="168.80817"
       r="329.51562" />
    <filter
       id="filter6045-5-9"
       inkscape:label="Combined lighting"
       inkscape:menu="Bevels"
       inkscape:menu-tooltip="Basic specular bevel to use for building textures"
       color-interpolation-filters="sRGB">
      <feGaussianBlur
         id="feGaussianBlur6047-7-4"
         stdDeviation="6"
         in="SourceGraphic"
         result="result0" />
      <feDiffuseLighting
         id="feDiffuseLighting6049-3-97"
         lighting-color="#ffffff"
         diffuseConstant="1"
         surfaceScale="4"
         result="result5">
        <feDistantLight
           id="feDistantLight6051-2-3"
           elevation="45"
           azimuth="235" />
      </feDiffuseLighting>
      <feComposite
         k4="0"
         k3="0"
         k2="0"
         id="feComposite6053-1-1"
         in2="SourceGraphic"
         k1="1.4"
         in="result5"
         result="fbSourceGraphic"
         operator="arithmetic" />
      <feGaussianBlur
         id="feGaussianBlur6055-1-4"
         result="result0"
         in="fbSourceGraphic"
         stdDeviation="6" />
      <feSpecularLighting
         id="feSpecularLighting6057-5-9"
         specularExponent="25"
         specularConstant="1"
         surfaceScale="4"
         lighting-color="#ffffff"
         result="result1"
         in="result0">
        <feDistantLight
           id="feDistantLight6059-9-5"
           azimuth="235"
           elevation="45" />
      </feSpecularLighting>
      <feComposite
         k4="0"
         k1="0"
         id="feComposite6061-3-5"
         in2="result1"
         k3="1"
         k2="1"
         operator="arithmetic"
         result="result4"
         in="fbSourceGraphic" />
      <feComposite
         id="feComposite6063-0-1"
         in2="SourceGraphic"
         operator="in"
         result="result2"
         in="result4" />
    </filter>
  </defs>
  <sodipodi:namedview
     id="base"
     pagecolor="#ffffff"
     bordercolor="#666666"
     borderopacity="1.0"
     inkscape:pageopacity="0.0"
     inkscape:pageshadow="2"
     inkscape:zoom="1.2608332"
     inkscape:cx="150.62001"
     inkscape:cy="146.41159"
     inkscape:document-units="px"
     inkscape:current-layer="layer1"
     showgrid="false"
     inkscape:window-width="1309"
     inkscape:window-height="744"
     inkscape:window-x="57"
     inkscape:window-y="24"
     inkscape:window-maximized="1"
     fit-margin-top="0"
     fit-margin-left="0"
     fit-margin-right="0"
     fit-margin-bottom="0"
     showborder="false"
     inkscape:showpageshadow="false" />
  <metadata
     id="metadata3969">
    <rdf:RDF>
      <cc:Work
         rdf:about="">
        <dc:format>image/svg+xml</dc:format>
        <dc:type
           rdf:resource="http://purl.org/dc/dcmitype/StillImage" />
        <dc:title>Hearts Symbol by Merlin2525.svg</dc:title>
        <cc:license
           rdf:resource="http://creativecommons.org/licenses/publicdomain/" />
        <dc:publisher>
          <cc:Agent>
            <dc:title>https://openclipart.org</dc:title>
          </cc:Agent>
        </dc:publisher>
        <dc:source>https://openclipart.org/user-detail/Merlin2525</dc:source>
        <dc:creator>
          <cc:Agent>
            <dc:title>https://openclipart.org/user-detail/Merlin2525</dc:title>
          </cc:Agent>
        </dc:creator>
        <dc:date>2015-04-06</dc:date>
        <dc:rights>
          <cc:Agent>
            <dc:title>Released to the Public Domain</dc:title>
          </cc:Agent>
        </dc:rights>
      </cc:Work>
      <cc:License
         rdf:about="http://creativecommons.org/licenses/publicdomain/">
        <cc:permits
           rdf:resource="http://creativecommons.org/ns#Reproduction" />
        <cc:permits
           rdf:resource="http://creativecommons.org/ns#Distribution" />
        <cc:permits
           rdf:resource="http://creativecommons.org/ns#DerivativeWorks" />
      </cc:License>
    </rdf:RDF>
  </metadata>
  <g
     inkscape:label="Layer 1"
     inkscape:groupmode="layer"
     id="layer1"
     transform="translate(-265.91362,-405.27855)">
    <g
       id="g8225"
       transform="matrix(3.1288563,0,0,3.1288563,-994.88576,-614.74381)">
      <g
         transform="matrix(0.18786312,-0.00507888,0.00507888,0.18786312,404.22584,252.25902)"
         id="g10233"
         inkscape:label="Layer 1">
        <path
           inkscape:connector-curvature="0"
           id="path10235"
           d="m 118.09188,397.208 c -42.193971,1.33517 -81.192069,25.5038 -106.188149,58.63023 -21.875795,29.4479 -31.464497,66.39689 -33.714729,102.64388 -1.638059,34.91846 7.544203,70.15608 26.2597105,99.63318 24.9284365,40.75016 61.5688215,72.10315 97.6500875,102.68366 37.92949,31.9071 77.35967,63.39131 104.86571,105.04695 8.57349,13.45611 15.2472,27.99646 20.10649,43.22442 14.41411,-41.75248 44.64209,-75.50932 76.52137,-105.01073 47.16654,-43.8772 101.07577,-81.68281 139.72929,-133.93547 23.81569,-32.41307 38.43323,-73.10511 33.83876,-113.71116 -4.12868,-42.20936 -21.7203,-83.94217 -52.89864,-113.13441 -22.08795,-21.03165 -50.1992,-36.69792 -80.67955,-40.99404 -27.83197,-3.42613 -56.90875,5.25226 -77.7855,23.97236 -16.72316,14.05583 -29.47422,32.38669 -39.66217,51.6159 -12.41408,-29.37996 -32.88746,-56.99517 -62.22935,-71.05239 -14.21046,-6.79432 -30.06064,-9.93265 -45.81333,-9.61238 z"
           style="fill:#7a0202;fill-opacity:1;fill-rule:nonzero;stroke:none" />
        <path
           sodipodi:nodetypes="cscsc"
           inkscape:connector-curvature="0"
           id="path10241"
           d="M 227.89585,889.88459 C 172.06786,753.70626 -72.564369,701.3227 -1.6496996,496.86499 30.491654,404.19661 174.24772,346.64173 225.91917,495.72374 294.70701,342.18204 422.43753,424.62919 453.48803,494.58251 539.60195,688.58756 289.9802,751.5607 227.89585,889.88459 z"
           inkscape:transform-center-y="71.292371"
           inkscape:transform-center-x="-14.452941"
           style="fill:url(#radialGradient8243);fill-opacity:1;fill-rule:nonzero;stroke:none" />
        <path
           style="opacity:0.44855969;fill:url(#radialGradient8245);fill-opacity:1;fill-rule:nonzero;stroke:none"
           inkscape:transform-center-x="-14.452942"
           inkscape:transform-center-y="71.292371"
           d="M 6.1940254,645.30986 C -15.37873,605.14478 -22.2739,557.71543 -1.1377485,496.77672 31.003606,404.10834 174.75968,346.55337 226.43112,495.63547 295.21897,342.09364 422.94948,424.54092 453.99998,494.49423 485.30929,565.0306 472.23753,618.2458 439.93419,664.05896 326.59535,543.17907 192.48345,803.91845 6.1940254,645.30986 z"
           id="path10246"
           inkscape:connector-curvature="0"
           sodipodi:nodetypes="cscscc" />
        <path
           inkscape:connector-curvature="0"
           id="path10250"
           d="m 120.18641,412.33276 c -36.269116,1.30591 -69.986672,21.5473 -92.269628,49.28391 -22.5550581,28.06613 -31.9099962,64.52964 -33.8781,100.00008 -0.8850087,27.38987 4.7135331,55.24911 18.288665,79.03054 6.60569,7.97991 15.878029,13.07036 24.055604,19.29444 34.350085,23.28775 76.556029,36.31786 118.189359,31.2079 46.89976,-4.80459 89.65817,-26.27269 132.5351,-44.4865 28.61217,-12.07563 58.86177,-23.38634 90.44057,-21.54043 23.2884,1.84138 45.81022,12.382 62.13924,29.02072 21.62197,-32.1488 31.46103,-73.02352 22.95054,-111.28987 -6.35116,-34.03972 -22.26555,-66.94469 -48.34535,-90.19759 -21.01142,-19.27722 -47.82947,-33.78564 -76.73452,-35.83597 -23.47998,-1.37419 -47.19708,7.71438 -64.01109,24.0291 -20.03204,18.09999 -33.05394,42.63577 -43.75692,67.05844 -2.92572,3.17921 -7.51121,-0.37088 -7.6312,-3.93918 -9.16967,-29.2872 -24.76205,-58.17054 -50.17274,-76.19308 -14.99388,-10.6542 -33.45992,-15.7899 -51.79953,-15.44251 z"
           style="opacity:0.13168724;fill:url(#radialGradient8247);fill-opacity:1;fill-rule:nonzero;stroke:none" />
        <path
           inkscape:connector-curvature="0"
           id="path10253"
           d="M 121.38724,418.40678 C 83.604098,420.2796 48.740859,443.2645 28.858138,474.88912 7.3135304,509.61655 0.65684354,552.60764 7.1932453,592.71831 c 2.7013286,14.87026 7.5897057,29.56401 16.7126507,41.68149 30.677217,26.41841 69.777005,44.16485 110.664324,44.99993 36.52602,0.84648 71.62079,-11.50796 104.88878,-25.33285 35.75074,-14.91573 70.80654,-32.90609 109.17778,-40.04851 26.32187,-4.45974 54.69595,-0.95501 77.53359,13.39342 4.44232,2.6428 8.6455,5.6409 12.67948,8.84314 19.55774,-33.46525 23.71084,-75.62137 11.65994,-112.43127 -12.36467,-43.00267 -44.62211,-80.83632 -87.39087,-95.85541 -21.90044,-7.73084 -47.71633,-7.21546 -67.64046,5.56892 -23.96121,14.37116 -39.12942,38.98262 -50.86306,63.67981 -2.98024,5.48725 -5.20464,11.80787 -9.73192,16.15866 -8.56983,5.15926 -20.57598,-2.01037 -21.16316,-11.72502 -9.17263,-29.10227 -25.45639,-57.68941 -52.37712,-73.53031 -12.06288,-6.86361 -26.0577,-10.02195 -39.95596,-9.71353 z"
           style="opacity:0.04938271;fill:#000000;fill-opacity:1;fill-rule:nonzero;stroke:none" />
        <path
           sodipodi:nodetypes="cccc"
           inkscape:connector-curvature="0"
           id="path10259"
           d="M 42.470398,683.28516 C 105.16064,759.31495 185.2259,793.89574 228.18483,871.20304 280.50333,784.58453 375.04999,736.57581 429.70904,663.06847 324.35465,586.98389 212.6313,775.64747 42.470398,683.28516 z"
           style="opacity:0.27691363;fill:url(#radialGradient8249);fill-opacity:1;fill-rule:nonzero;stroke:none" />
        <path
           inkscape:connector-curvature="0"
           id="path10265"
           d="m 372.32743,653.9425 c -37.28095,1.20503 -71.05002,18.8074 -104.90795,32.64995 -41.30592,17.51273 -84.91453,33.01859 -130.38419,32.18668 -19.66905,-0.31766 -39.261815,-3.70507 -57.987559,-9.60339 46.175629,44.95401 102.531439,80.17412 141.358469,132.53715 2.78488,3.78534 5.48017,7.70233 8.0357,11.66054 35.04457,-51.60411 84.77703,-90.16338 131.19103,-130.91975 20.03685,-17.77025 39.80359,-36.26521 56.32289,-57.16339 -13.11163,-7.60308 -28.39749,-11.70748 -43.62839,-11.34779 z"
           style="opacity:0.49382719;fill:url(#radialGradient8251);fill-opacity:1;fill-rule:nonzero;stroke:none" />
        <path
           style="opacity:0.23456792;fill:url(#radialGradient8253);fill-opacity:1;fill-rule:nonzero;stroke:none"
           d="m 372.32743,653.9425 c -37.28095,1.20503 -71.05002,18.8074 -104.90795,32.64995 -41.30592,17.51273 -84.91453,33.01859 -130.38419,32.18668 -19.66905,-0.31766 -39.261815,-3.70507 -57.987559,-9.60339 46.175629,44.95401 102.531439,80.17412 141.358469,132.53715 2.78488,3.78534 5.48017,7.70233 8.0357,11.66054 35.04457,-51.60411 84.77703,-90.16338 131.19103,-130.91975 20.03685,-17.77025 39.80359,-36.26521 56.32289,-57.16339 -13.11163,-7.60308 -28.39749,-11.70748 -43.62839,-11.34779 z"
           id="path10267"
           inkscape:connector-curvature="0" />
      </g>
      <g
         transform="matrix(-0.29109034,-0.01419041,-0.01419041,0.29109034,-791.63103,454.28989)"
         id="g8211">
        <g
           id="g8213"
           style="fill:#704b00;fill-opacity:1;stroke:none;filter:url(#filter6045-5-9)"
           transform="matrix(-0.25892376,0,0,-0.25892376,-4407.7145,-630.85601)">
          <path
             inkscape:connector-curvature="0"
             id="path8215"
             d="m -192.27462,-505.10576 c -18.73294,-5.55997 -33.51882,-13.3056 -45.50622,-29.00047 -13.80147,-18.56921 -12.58945,-42.59489 3.18473,-58.09233 9.161,-9.00028 25.30929,-12.10997 35.91761,-8.05758 24.18388,9.23826 28.92421,36.83595 13.77394,51.786 -10.73614,10.59425 -24.72098,8.10064 -32.98143,2.12692 -6.48356,-4.68872 -12.11825,-12.81494 -10.05644,-21.96552 2.14864,-9.53597 10.44572,-18.51386 20.9378,-14.58085 3.29603,1.37717 5.87703,5.69262 5.15197,9.1491 -1.1388,5.42884 -8.82604,8.35223 -10.90178,4.02044 -1.34009,-2.7966 -3.83674,-2.96699 -4.66943,-2.64745 -8.15641,13.38741 6.74643,23.20685 13.9424,9.37838 4.22871,-7.1841 9.12136,-8.26825 15.36314,-6.35284 2.81196,0.78423 3.39125,0.53414 3.38763,-0.78609 -0.0169,-6.14545 -2.67127,-12.38468 -6.9827,-16.41305 -13.80128,-12.24553 -36.16943,-5.88675 -43.05747,7.70915 -4.38527,9.81997 -4.52644,19.79336 -1.55873,29.17345 4.93762,15.32655 18.26017,27.10421 39.77309,35.16098 8.73207,3.27024 10.28332,3.97959 10.61967,4.85611 0.40873,1.06511 0.35651,3.08964 -0.0982,3.80654 -0.39305,0.61972 -4.63672,1.1156 -6.23966,0.72911 l 0,0 z"
             style="fill:#704b00;fill-opacity:1;fill-rule:nonzero;stroke:none"
             sodipodi:nodetypes="ccssssscsscccscccsscccc" />
          <path
             inkscape:connector-curvature="0"
             id="path8217"
             d="m -171.27835,-342.4572 c -15.92528,-1.53792 -33.07682,-7.86046 -47.68823,-17.57921 -3.61102,-2.40185 -6.82494,-4.36701 -7.14204,-4.36701 -0.40623,0 -0.64221,1.25001 -0.7988,4.23113 -0.23307,4.43733 -0.99098,6.61093 -3.44656,9.88432 -2.50379,3.33764 -8.00603,4.25956 -12.38842,2.07572 -2.62289,-1.30704 -3.74066,-2.89692 -3.72949,-5.30473 0.01,-2.15801 0.31988,-2.45434 3.98822,-3.81407 1.81031,-0.67102 3.81328,-1.70362 4.45104,-2.29468 1.02863,-0.9533 1.15956,-1.43666 1.15956,-4.28072 0,-4.46209 -1.28666,-9.53253 -5.0862,-20.04358 -6.4243,-17.77217 -7.83514,-24.71407 -7.88036,-38.77444 -0.0275,-8.54496 0.0538,-9.47283 1.23193,-14.06701 1.89138,-7.37541 6.53823,-20.76316 8.36016,-24.08594 1.92538,-3.51145 1.87746,-3.84043 -1.25534,-8.61694 -4.29075,-6.54202 -5.94639,-11.4071 -5.93001,-17.4252 0.0206,-7.58104 2.7551,-13.35068 8.30313,-17.51939 3.1389,-2.35852 6.29311,-3.03372 9.6344,-2.06238 3.2067,0.93221 5.52929,2.71999 7.00401,5.39124 1.88358,3.41184 1.3164,6.64487 -1.73168,9.87094 -2.56864,2.71861 -4.37145,2.96463 -9.41545,1.28482 -4.64244,-1.54607 -5.06427,-1.32171 -5.06427,2.69356 0,6.12265 3.74802,14.89647 6.36926,14.90994 0.39641,0.002 3.60249,-1.44534 7.12463,-3.2164 10.50512,-5.28236 17.44211,-6.31983 23.25176,-3.47743 4.95508,2.42429 8.52502,7.34123 8.53446,11.75462 0.0189,8.84772 -9.17195,15.29994 -20.54836,14.42548 -2.8954,-0.22256 -5.61452,-0.88318 -10.68961,-2.59707 -7.6087,-2.56951 -7.60117,-2.57012 -9.01328,0.72421 -2.84673,6.64113 -2.98486,15.93177 -0.31363,21.09474 1.73779,3.35885 6.00748,5.72719 10.83705,6.01117 2.97262,0.1748 3.79123,0.0417 6.13143,-0.99667 3.51216,-1.55844 5.93912,-1.66975 7.27376,-0.33361 0.82536,0.82629 0.9989,1.5098 0.97743,3.84971 -0.0642,6.99773 -7.0617,14.36704 -14.46875,15.2376 -3.34949,0.39366 -7.01434,-0.43842 -12.44699,-2.82602 l -4.52826,-1.99014 c 0.0523,11.47358 3.15364,23.54388 8.61436,30.49917 8.35553,10.64239 24.73904,19.94 36.60151,14.57823 2.91587,-1.33248 5.37096,-3.4005 6.42442,-5.41153 0.35848,-0.68433 0.77822,-2.84564 0.93276,-4.80291 0.49479,-6.26677 2.14039,-8.0522 6.46529,-7.01467 6.15587,1.47677 11.67267,9.39395 10.92787,15.68262 -0.46507,3.9268 -3.12645,8.6336 -7.47809,13.22539 -4.90225,5.17281 -4.8571,5.2596 3.091,5.94148 15.75664,0.86256 31.46937,1.21665 45.73199,-5.79925 6.35429,-3.1775 10.75773,-8.0875 11.92304,-13.29468 1.12369,-5.02115 -1.58783,-9.60941 -7.41819,-12.55256 -3.3146,-1.6732 -4.06865,-2.45336 -4.06865,-4.20945 0,-3.55805 4.97149,-9.38565 9.93477,-11.64558 3.43525,-1.56418 8.42717,-1.67617 11.58599,-0.25994 2.85982,1.28218 6.14694,4.21204 9.066783,8.08139 1.35092,1.79023 2.61698,3.31676 2.81348,3.3923 0.50907,0.1957 2.60624,-8.94189 3.23348,-14.08865 1.07618,-8.83048 -0.18629,-21.12159 -2.91338,-28.36388 -6.268123,-16.64618 -16.864273,-27.39482 -32.348863,-32.81441 -32.86158,-9.91915 -66.30149,14.47957 -60.61523,43.1102 5.385,20.66512 33.16487,29.84851 45.9778,20.94769 0,-0.20376 -1.16644,-1.70691 -2.5921,-3.34033 -3.56331,-4.08262 -4.94865,-7.17658 -4.91399,-10.97472 0.0198,-2.16538 0.31237,-3.52569 1.07694,-5.00655 1.094,-2.11891 5.67162,-6.58603 8.75112,-9.24948 1.23023,-1.06403 0.88405,-2.64869 0.0711,-4.63459 -5.03128,-9.49234 -18.2988,-9.20852 -24.63121,-5.551 -2.59759,1.60597 -4.92731,3.89978 -5.04408,6.69023 -0.14768,3.52885 3.03167,4.07895 5.09704,3.91541 6.47908,-0.51303 10.2785,4.15329 7.73518,9.51293 -1.82954,3.85547 -6.45134,5.90426 -10.89963,3.38858 -22.49864,-12.72384 -3.48847,-40.73951 19.476,-37.96318 14.47103,1.7495 24.05004,10.2433 28.03394,23.99089 2.86743,11.57078 -2.03872,23.04951 -9.077,29.79838 -11.98076,11.48812 -30.86481,16.22818 -48.02279,5.38752 -11.41877,-8.13234 -19.40232,-20.8342 -19.48548,-34.41246 -0.0754,-12.30205 7.51363,-27.10493 17.96368,-35.50778 4.47777,-3.60056 12.1283,-7.50814 17.896,-9.14055 6.09335,-1.72459 14.92217,-2.68146 21.76729,-2.35915 8.89231,0.41871 13.15488,1.67493 25.95116,7.64809 2.32304,1.08437 4.35736,1.83793 4.52071,1.67457 0.85245,-0.85244 -8.21014,-9.17894 -14.83901,-13.63375 -7.71848,-5.18707 -16.21739,-8.86587 -24.82008,-10.74351 -4.15056,-0.90591 -12.55556,-1.02338 -15.97088,-0.22322 -5.92308,1.38769 -7.91661,3.82919 -8.42766,10.32144 -0.2472,3.1404 -0.45208,3.80532 -1.44474,4.68855 -1.63732,1.45685 -4.30925,1.35706 -7.73827,-0.289 -3.61881,-1.73717 -6.14059,-3.99145 -7.72823,-6.90845 -2.47459,-4.54666 -1.14514,-9.30186 4.83563,-17.29605 1.94473,-2.59944 3.65985,-5.11683 3.81137,-5.59422 0.15152,-0.47739 -0.26869,-2.57391 -0.9338,-4.65894 -2.33567,-7.32205 -2.00248,-12.3051 1.20422,-18.00994 1.41648,-2.51995 5.35652,-6.50955 7.54776,-7.64268 5.21642,-2.69752 15.56833,-1.40452 18.48973,2.30945 1.66319,2.11439 1.38338,2.54432 -5.23398,8.04178 -6.03527,5.01389 -4.81476,11.68916 3.09551,16.93021 1.29634,0.85891 6.78253,3.87964 12.19152,6.71272 25.0447,13.11775 36.97158,22.06471 46.632943,34.98175 3.37796,4.51626 5.65443,8.54769 9.29158,16.45456 3.19578,6.94738 3.76451,7.94544 4.25056,7.45939 0.42851,-0.42851 -1.05642,-8.37979 -2.56271,-13.72249 -4.52085,-16.03509 -13.12835,-29.91813 -34.678793,-55.93346 -13.02367,-15.72195 -13.70598,-17.5415 -13.9926,-27.22813 -0.19257,-6.50823 3.10776,-11.78109 9.14309,-14.43324 8.91463,-1.89847 17.83405,-0.16707 21.01279,8.42423 1.25313,3.38688 -1.2301,8.28173 -3.80016,9.79437 -3.94437,2.32149 -8.23547,-0.0244 -10.39837,-5.68463 -1.73389,-4.53753 -3.36889,-5.06809 -6.08503,-1.97457 -4.63203,5.27558 -0.18851,16.24738 11.11409,27.44261 4.61125,4.56745 10.97455,9.83453 11.88134,9.83453 0.32267,0 1.95122,-1.33795 3.618993,-2.97323 2.91889,-2.862 4.29848,-3.50588 5.62047,-2.62316 0.91322,0.60978 1.47876,2.15281 3.57233,9.7468 1.1393,4.13259 3.63486,12.55686 5.54568,18.72059 6.280531,19.95611 11.207721,41.17533 7.99028,62.20243 -3.155674,17.55155 -10.271891,31.46288 -16.46807,46.14628 0,0.22985 1.59525,-0.0766 3.54501,-0.681 13.28417,-4.11796 21.82193,-4.29293 29.77606,-0.61019 14.108497,7.61633 13.888693,25.83823 3.79907,31.4336 -4.359263,2.2549 -9.765682,2.26606 -14.02043,0.0405 -10.796937,-4.81748 -7.628734,-21.38287 1.07027,-21.88204 6.706954,-0.16467 7.926558,7.21743 6.70587,11.8854 -0.84667,3.15438 -0.84561,3.20194 0.0712,3.20194 4.531823,-1.8014 8.069384,-7.10194 4.35085,-12.20031 -12.761191,-13.94292 -35.533255,0.1855 -42.15918,3.27801 -22.655323,10.58049 -30.269043,13.43592 -42.540053,15.95413 -9.87289,2.02608 -21.67198,2.86727 -29.54865,2.10661 z m -36.41802,-120.55797 c 2.12513,-0.44015 2.66023,-4.98921 0.8051,-6.84434 -0.97636,-0.97636 -1.53669,-1.12276 -4.29731,-1.12276 -7.59782,0 -15.2418,4.47634 -11.18976,6.55277 3.27872,1.68015 10.18592,2.34553 14.68197,1.41433 z"
             style="fill:#704b00;fill-opacity:1;fill-rule:nonzero;stroke:none"
             sodipodi:nodetypes="sssssssssssssssssssssscsssssssscsssscscsssssccssssssssscccscssccssssscscssssscsssssssssssssssssssssscssssssssscccsccccccccscssssss" />
        </g>
        <g
           transform="matrix(-0.25892376,0,0,0.25892376,-4407.793,-458.45053)"
           style="fill:#704b00;fill-opacity:1;stroke:none;filter:url(#filter6045-5-9)"
           id="g8219">
          <path
             sodipodi:nodetypes="ccssssscsscccscccsscccc"
             style="fill:#704b00;fill-opacity:1;fill-rule:nonzero;stroke:none"
             d="m -192.27462,-505.10576 c -18.73294,-5.55997 -33.51882,-13.3056 -45.50622,-29.00047 -13.80147,-18.56921 -12.58945,-42.59489 3.18473,-58.09233 9.161,-9.00028 25.30929,-12.10997 35.91761,-8.05758 24.18388,9.23826 28.92421,36.83595 13.77394,51.786 -10.73614,10.59425 -24.72098,8.10064 -32.98143,2.12692 -6.48356,-4.68872 -12.11825,-12.81494 -10.05644,-21.96552 2.14864,-9.53597 10.44572,-18.51386 20.9378,-14.58085 3.29603,1.37717 5.87703,5.69262 5.15197,9.1491 -1.1388,5.42884 -8.82604,8.35223 -10.90178,4.02044 -1.34009,-2.7966 -3.83674,-2.96699 -4.66943,-2.64745 -8.15641,13.38741 6.74643,23.20685 13.9424,9.37838 4.22871,-7.1841 9.12136,-8.26825 15.36314,-6.35284 2.81196,0.78423 3.39125,0.53414 3.38763,-0.78609 -0.0169,-6.14545 -2.67127,-12.38468 -6.9827,-16.41305 -13.80128,-12.24553 -36.16943,-5.88675 -43.05747,7.70915 -4.38527,9.81997 -4.52644,19.79336 -1.55873,29.17345 4.93762,15.32655 18.26017,27.10421 39.77309,35.16098 8.73207,3.27024 10.28332,3.97959 10.61967,4.85611 0.40873,1.06511 0.35651,3.08964 -0.0982,3.80654 -0.39305,0.61972 -4.63672,1.1156 -6.23966,0.72911 l 0,0 z"
             id="path8221"
             inkscape:connector-curvature="0" />
          <path
             sodipodi:nodetypes="sssssssssssssssssssssscsssssssscsssscscsssssccssssssssscccscssccssssscscssssscsssssssssssssssssssssscssssssssscccsccccccccscssssss"
             style="fill:#704b00;fill-opacity:1;fill-rule:nonzero;stroke:none"
             d="m -171.27835,-342.4572 c -15.92528,-1.53792 -33.07682,-7.86046 -47.68823,-17.57921 -3.61102,-2.40185 -6.82494,-4.36701 -7.14204,-4.36701 -0.40623,0 -0.64221,1.25001 -0.7988,4.23113 -0.23307,4.43733 -0.99098,6.61093 -3.44656,9.88432 -2.50379,3.33764 -8.00603,4.25956 -12.38842,2.07572 -2.62289,-1.30704 -3.74066,-2.89692 -3.72949,-5.30473 0.01,-2.15801 0.31988,-2.45434 3.98822,-3.81407 1.81031,-0.67102 3.81328,-1.70362 4.45104,-2.29468 1.02863,-0.9533 1.15956,-1.43666 1.15956,-4.28072 0,-4.46209 -1.28666,-9.53253 -5.0862,-20.04358 -6.4243,-17.77217 -7.83514,-24.71407 -7.88036,-38.77444 -0.0275,-8.54496 0.0538,-9.47283 1.23193,-14.06701 1.89138,-7.37541 6.53823,-20.76316 8.36016,-24.08594 1.92538,-3.51145 1.87746,-3.84043 -1.25534,-8.61694 -4.29075,-6.54202 -5.94639,-11.4071 -5.93001,-17.4252 0.0206,-7.58104 2.7551,-13.35068 8.30313,-17.51939 3.1389,-2.35852 6.29311,-3.03372 9.6344,-2.06238 3.2067,0.93221 5.52929,2.71999 7.00401,5.39124 1.88358,3.41184 1.3164,6.64487 -1.73168,9.87094 -2.56864,2.71861 -4.37145,2.96463 -9.41545,1.28482 -4.64244,-1.54607 -5.06427,-1.32171 -5.06427,2.69356 0,6.12265 3.74802,14.89647 6.36926,14.90994 0.39641,0.002 3.60249,-1.44534 7.12463,-3.2164 10.50512,-5.28236 17.44211,-6.31983 23.25176,-3.47743 4.95508,2.42429 8.52502,7.34123 8.53446,11.75462 0.0189,8.84772 -9.17195,15.29994 -20.54836,14.42548 -2.8954,-0.22256 -5.61452,-0.88318 -10.68961,-2.59707 -7.6087,-2.56951 -7.60117,-2.57012 -9.01328,0.72421 -2.84673,6.64113 -2.98486,15.93177 -0.31363,21.09474 1.73779,3.35885 6.00748,5.72719 10.83705,6.01117 2.97262,0.1748 3.79123,0.0417 6.13143,-0.99667 3.51216,-1.55844 5.93912,-1.66975 7.27376,-0.33361 0.82536,0.82629 0.9989,1.5098 0.97743,3.84971 -0.0642,6.99773 -7.0617,14.36704 -14.46875,15.2376 -3.34949,0.39366 -7.01434,-0.43842 -12.44699,-2.82602 l -4.52826,-1.99014 c 0.0523,11.47358 3.15364,23.54388 8.61436,30.49917 8.35553,10.64239 24.73904,19.94 36.60151,14.57823 2.91587,-1.33248 5.37096,-3.4005 6.42442,-5.41153 0.35848,-0.68433 0.77822,-2.84564 0.93276,-4.80291 0.49479,-6.26677 2.14039,-8.0522 6.46529,-7.01467 6.15587,1.47677 11.67267,9.39395 10.92787,15.68262 -0.46507,3.9268 -3.12645,8.6336 -7.47809,13.22539 -4.90225,5.17281 -4.8571,5.2596 3.091,5.94148 15.75664,0.86256 31.46937,1.21665 45.73199,-5.79925 6.35429,-3.1775 10.75773,-8.0875 11.92304,-13.29468 1.12369,-5.02115 -1.58783,-9.60941 -7.41819,-12.55256 -3.3146,-1.6732 -4.06865,-2.45336 -4.06865,-4.20945 0,-3.55805 4.97149,-9.38565 9.93477,-11.64558 3.43525,-1.56418 8.42717,-1.67617 11.58599,-0.25994 2.85982,1.28218 6.14694,4.21204 9.066783,8.08139 1.35092,1.79023 2.61698,3.31676 2.81348,3.3923 0.50907,0.1957 2.60624,-8.94189 3.23348,-14.08865 1.07618,-8.83048 -0.18629,-21.12159 -2.91338,-28.36388 -6.268123,-16.64618 -16.864273,-27.39482 -32.348863,-32.81441 -32.86158,-9.91915 -66.30149,14.47957 -60.61523,43.1102 5.385,20.66512 33.16487,29.84851 45.9778,20.94769 0,-0.20376 -1.16644,-1.70691 -2.5921,-3.34033 -3.56331,-4.08262 -4.94865,-7.17658 -4.91399,-10.97472 0.0198,-2.16538 0.31237,-3.52569 1.07694,-5.00655 1.094,-2.11891 5.67162,-6.58603 8.75112,-9.24948 1.23023,-1.06403 0.88405,-2.64869 0.0711,-4.63459 -5.03128,-9.49234 -18.2988,-9.20852 -24.63121,-5.551 -2.59759,1.60597 -4.92731,3.89978 -5.04408,6.69023 -0.14768,3.52885 3.03167,4.07895 5.09704,3.91541 6.47908,-0.51303 10.2785,4.15329 7.73518,9.51293 -1.82954,3.85547 -6.45134,5.90426 -10.89963,3.38858 -22.49864,-12.72384 -3.48847,-40.73951 19.476,-37.96318 14.47103,1.7495 24.05004,10.2433 28.03394,23.99089 2.86743,11.57078 -2.03872,23.04951 -9.077,29.79838 -11.98076,11.48812 -30.86481,16.22818 -48.02279,5.38752 -11.41877,-8.13234 -19.40232,-20.8342 -19.48548,-34.41246 -0.0754,-12.30205 7.51363,-27.10493 17.96368,-35.50778 4.47777,-3.60056 12.1283,-7.50814 17.896,-9.14055 6.09335,-1.72459 14.92217,-2.68146 21.76729,-2.35915 8.89231,0.41871 13.15488,1.67493 25.95116,7.64809 2.32304,1.08437 4.35736,1.83793 4.52071,1.67457 0.85245,-0.85244 -8.21014,-9.17894 -14.83901,-13.63375 -7.71848,-5.18707 -16.21739,-8.86587 -24.82008,-10.74351 -4.15056,-0.90591 -12.55556,-1.02338 -15.97088,-0.22322 -5.92308,1.38769 -7.91661,3.82919 -8.42766,10.32144 -0.2472,3.1404 -0.45208,3.80532 -1.44474,4.68855 -1.63732,1.45685 -4.30925,1.35706 -7.73827,-0.289 -3.61881,-1.73717 -6.14059,-3.99145 -7.72823,-6.90845 -2.47459,-4.54666 -1.14514,-9.30186 4.83563,-17.29605 1.94473,-2.59944 3.65985,-5.11683 3.81137,-5.59422 0.15152,-0.47739 -0.26869,-2.57391 -0.9338,-4.65894 -2.33567,-7.32205 -2.00248,-12.3051 1.20422,-18.00994 1.41648,-2.51995 5.35652,-6.50955 7.54776,-7.64268 5.21642,-2.69752 15.56833,-1.40452 18.48973,2.30945 1.66319,2.11439 1.38338,2.54432 -5.23398,8.04178 -6.03527,5.01389 -4.81476,11.68916 3.09551,16.93021 1.29634,0.85891 6.78253,3.87964 12.19152,6.71272 25.0447,13.11775 36.97158,22.06471 46.632943,34.98175 3.37796,4.51626 5.65443,8.54769 9.29158,16.45456 3.19578,6.94738 3.76451,7.94544 4.25056,7.45939 0.42851,-0.42851 -1.05642,-8.37979 -2.56271,-13.72249 -4.52085,-16.03509 -13.12835,-29.91813 -34.678793,-55.93346 -13.02367,-15.72195 -13.70598,-17.5415 -13.9926,-27.22813 -0.19257,-6.50823 3.10776,-11.78109 9.14309,-14.43324 8.91463,-1.89847 17.83405,-0.16707 21.01279,8.42423 1.25313,3.38688 -1.2301,8.28173 -3.80016,9.79437 -3.94437,2.32149 -8.23547,-0.0244 -10.39837,-5.68463 -1.73389,-4.53753 -3.36889,-5.06809 -6.08503,-1.97457 -4.63203,5.27558 -0.18851,16.24738 11.11409,27.44261 4.61125,4.56745 10.97455,9.83453 11.88134,9.83453 0.32267,0 1.95122,-1.33795 3.618993,-2.97323 2.91889,-2.862 4.29848,-3.50588 5.62047,-2.62316 0.91322,0.60978 1.47876,2.15281 3.57233,9.7468 1.1393,4.13259 3.63486,12.55686 5.54568,18.72059 6.280531,19.95611 11.207721,41.17533 7.99028,62.20243 -3.155674,17.55155 -10.271891,31.46288 -16.46807,46.14628 0,0.22985 1.59525,-0.0766 3.54501,-0.681 13.28417,-4.11796 21.82193,-4.29293 29.77606,-0.61019 14.108497,7.61633 13.888693,25.83823 3.79907,31.4336 -4.359263,2.2549 -9.765682,2.26606 -14.02043,0.0405 -10.796937,-4.81748 -7.628734,-21.38287 1.07027,-21.88204 6.706954,-0.16467 7.926558,7.21743 6.70587,11.8854 -0.84667,3.15438 -0.84561,3.20194 0.0712,3.20194 4.531823,-1.8014 8.069384,-7.10194 4.35085,-12.20031 -12.761191,-13.94292 -35.533255,0.1855 -42.15918,3.27801 -22.655323,10.58049 -30.269043,13.43592 -42.540053,15.95413 -9.87289,2.02608 -21.67198,2.86727 -29.54865,2.10661 z m -36.41802,-120.55797 c 2.12513,-0.44015 2.66023,-4.98921 0.8051,-6.84434 -0.97636,-0.97636 -1.53669,-1.12276 -4.29731,-1.12276 -7.59782,0 -15.2418,4.47634 -11.18976,6.55277 3.27872,1.68015 10.18592,2.34553 14.68197,1.41433 z"
             id="path8223"
             inkscape:connector-curvature="0" />
        </g>
      </g>
    </g>
  </g>
</svg>
