<?xml version="1.0" encoding="UTF-8"?>
<svg xmlns="http://www.w3.org/2000/svg" xmlns:xlink="http://www.w3.org/1999/xlink" width="140pt" height="140pt" viewBox="0 0 140 140" version="1.1">
<g id="surface1">
<path style=" stroke:none;fill-rule:nonzero;fill:rgb(50.196078%,50.196078%,50.196078%);fill-opacity:1;" d="M 70 0 C 82.347656 0 92.46875 10.121094 92.46875 22.46875 C 92.46875 34.816406 82.347656 44.9375 70 44.9375 C 57.652344 44.9375 47.53125 34.816406 47.53125 22.46875 C 47.53125 10.121094 57.652344 0 70 0 Z M 87.285156 50.125 C 89.066406 50.121094 90.816406 51.113281 91.734375 52.640625 L 112.476562 87.207031 C 113.414062 88.773438 113.441406 90.847656 112.539062 92.4375 C 111.640625 94.023438 109.851562 95.0625 108.023438 95.0625 L 99.382812 95.0625 C 97.78125 95.0625 96.195312 94.269531 95.234375 92.988281 L 89.898438 85.867188 L 92.457031 134.535156 C 92.535156 135.9375 92.007812 137.359375 91.042969 138.378906 C 90.078125 139.398438 88.6875 140 87.285156 140 L 76.914062 140 C 75.710938 140 74.507812 139.5625 73.585938 138.789062 C 72.664062 138.019531 72.027344 136.917969 71.816406 135.734375 L 70 125.75 L 68.183594 135.734375 C 67.972656 136.917969 67.335938 138.019531 66.414062 138.789062 C 65.492188 139.5625 64.289062 140 63.085938 140 L 52.714844 140 C 51.3125 140 49.921875 139.398438 48.957031 138.378906 C 47.992188 137.359375 47.464844 135.9375 47.542969 134.535156 L 50.101562 85.867188 L 44.765625 92.988281 C 43.804688 94.269531 42.21875 95.0625 40.617188 95.0625 L 31.976562 95.0625 C 30.148438 95.0625 28.359375 94.023438 27.460938 92.4375 C 26.558594 90.847656 26.585938 88.773438 27.523438 87.207031 L 48.265625 52.640625 C 49.183594 51.113281 50.933594 50.121094 52.714844 50.125 Z M 87.285156 50.125 "/>
</g>
</svg>
